<svg xmlns="http://www.w3.org/2000/svg" viewBox="0 0 582.76 663.15"><defs><style>.cls-1,.cls-12,.cls-13,.cls-14,.cls-15,.cls-16,.cls-3,.cls-4,.cls-5,.cls-6,.cls-8{fill:none;}.cls-1,.cls-10,.cls-11,.cls-12,.cls-13,.cls-15,.cls-16,.cls-17,.cls-2,.cls-3,.cls-4,.cls-5,.cls-6,.cls-7,.cls-8,.cls-9{stroke:#231f20;}.cls-1,.cls-11,.cls-13,.cls-2,.cls-3,.cls-4,.cls-6{stroke-linecap:round;stroke-linejoin:round;}.cls-1{stroke-width:0.15px;}.cls-10,.cls-11,.cls-2,.cls-7,.cls-9{fill:#fff;}.cls-2,.cls-3,.cls-4,.cls-8,.cls-9{stroke-width:0.35px;}.cls-4{stroke-dasharray:432 216;}.cls-10,.cls-12,.cls-14,.cls-15,.cls-16,.cls-17,.cls-5,.cls-7,.cls-8,.cls-9{stroke-miterlimit:10;}.cls-12,.cls-5,.cls-6,.cls-7{stroke-width:0.25px;}.cls-10,.cls-11,.cls-13,.cls-16,.cls-17{stroke-width:0.5px;}.cls-12{stroke-dasharray:2.5;}.cls-14{stroke:#29abe2;stroke-width:0.7px;}.cls-15{stroke-width:0.35px;}.cls-17{fill:#d1d3d4;}.cls-18{fill:#231f20;}</style></defs><title>108Leonard_WEB_R_6_v2</title><g id="FLOOR_PATTERN" data-name="FLOOR PATTERN"><g id="LINE"><line class="cls-1" x1="11.02" y1="269.93" x2="11.02" y2="192.18"/></g><g id="LINE-2" data-name="LINE"><line class="cls-1" x1="19.27" y1="587.2" x2="19.27" y2="564.69"/></g><g id="LINE-3" data-name="LINE"><line class="cls-1" x1="19.27" y1="269.93" x2="19.27" y2="192.39"/></g><g id="LINE-4" data-name="LINE"><line class="cls-1" x1="19.27" y1="474.69" x2="19.27" y2="461.86"/></g><g id="LINE-5" data-name="LINE"><line class="cls-1" x1="27.52" y1="587.67" x2="27.52" y2="564.69"/></g><g id="LINE-6" data-name="LINE"><line class="cls-1" x1="27.52" y1="269.93" x2="27.52" y2="192.39"/></g><g id="LINE-7" data-name="LINE"><line class="cls-1" x1="27.52" y1="474.69" x2="27.52" y2="461.86"/></g><g id="LINE-8" data-name="LINE"><line class="cls-1" x1="35.77" y1="588.15" x2="35.77" y2="564.69"/></g><g id="LINE-9" data-name="LINE"><line class="cls-1" x1="35.77" y1="269.93" x2="35.77" y2="192.39"/></g><g id="LINE-10" data-name="LINE"><line class="cls-1" x1="35.77" y1="474.69" x2="35.77" y2="461.86"/></g><g id="LINE-11" data-name="LINE"><line class="cls-1" x1="44.02" y1="588.62" x2="44.02" y2="564.69"/></g><g id="LINE-12" data-name="LINE"><line class="cls-1" x1="44.02" y1="269.93" x2="44.02" y2="192.39"/></g><g id="LINE-13" data-name="LINE"><line class="cls-1" x1="44.02" y1="474.69" x2="44.02" y2="461.86"/></g><g id="LINE-14" data-name="LINE"><line class="cls-1" x1="52.27" y1="589.1" x2="52.27" y2="321.27"/></g><g id="LINE-15" data-name="LINE"><line class="cls-1" x1="52.27" y1="269.93" x2="52.27" y2="192.39"/></g><g id="LINE-16" data-name="LINE"><line class="cls-1" x1="60.52" y1="589.57" x2="60.52" y2="550.89"/></g><g id="LINE-17" data-name="LINE"><line class="cls-1" x1="60.52" y1="269.93" x2="60.52" y2="192.4"/></g><g id="LINE-18" data-name="LINE"><line class="cls-1" x1="60.52" y1="482.36" x2="60.52" y2="321.27"/></g><g id="LINE-19" data-name="LINE"><line class="cls-1" x1="68.77" y1="590.04" x2="68.77" y2="565.42"/></g><g id="LINE-20" data-name="LINE"><line class="cls-1" x1="68.77" y1="269.92" x2="68.77" y2="192.19"/></g><g id="LINE-21" data-name="LINE"><line class="cls-1" x1="68.77" y1="475.61" x2="68.77" y2="321.27"/></g><g id="LINE-22" data-name="LINE"><line class="cls-1" x1="77.02" y1="608.03" x2="77.02" y2="575.24"/></g><g id="LINE-23" data-name="LINE"><line class="cls-1" x1="77.02" y1="269.92" x2="77.02" y2="192.19"/></g><g id="LINE-24" data-name="LINE"><line class="cls-1" x1="77.02" y1="473.11" x2="77.02" y2="332.51"/></g><g id="LINE-25" data-name="LINE"><line class="cls-1" x1="85.27" y1="608.5" x2="85.27" y2="582.54"/></g><g id="LINE-26" data-name="LINE"><line class="cls-1" x1="85.27" y1="269.92" x2="85.27" y2="192.19"/></g><g id="LINE-27" data-name="LINE"><line class="cls-1" x1="85.27" y1="473.51" x2="85.27" y2="333.75"/></g><g id="LINE-28" data-name="LINE"><line class="cls-1" x1="93.52" y1="608.98" x2="93.52" y2="588.12"/></g><g id="LINE-29" data-name="LINE"><line class="cls-1" x1="93.52" y1="269.91" x2="93.52" y2="192.19"/></g><g id="LINE-30" data-name="LINE"><line class="cls-1" x1="93.52" y1="476.98" x2="93.52" y2="328.33"/></g><g id="LINE-31" data-name="LINE"><line class="cls-1" x1="101.77" y1="609.45" x2="101.77" y2="592.38"/></g><g id="LINE-32" data-name="LINE"><line class="cls-1" x1="101.77" y1="269.91" x2="101.77" y2="192.19"/></g><g id="LINE-33" data-name="LINE"><line class="cls-1" x1="101.77" y1="485.98" x2="101.77" y2="322.66"/></g><g id="LINE-34" data-name="LINE"><line class="cls-1" x1="110.02" y1="609.93" x2="110.02" y2="595.52"/></g><g id="LINE-35" data-name="LINE"><line class="cls-1" x1="110.02" y1="269.9" x2="110.02" y2="192.19"/></g><g id="LINE-36" data-name="LINE"><line class="cls-1" x1="110.02" y1="534.29" x2="110.02" y2="411.75"/></g><g id="LINE-37" data-name="LINE"><line class="cls-1" x1="110.02" y1="383.25" x2="110.02" y2="333.18"/></g><g id="LINE-38" data-name="LINE"><line class="cls-1" x1="118.27" y1="610.4" x2="118.27" y2="597.69"/></g><g id="LINE-39" data-name="LINE"><line class="cls-1" x1="118.27" y1="543" x2="118.27" y2="421.5"/></g><g id="LINE-40" data-name="LINE"><line class="cls-1" x1="118.27" y1="269.9" x2="118.27" y2="192.19"/></g><g id="LINE-41" data-name="LINE"><line class="cls-1" x1="118.27" y1="373.5" x2="118.27" y2="333.38"/></g><g id="LINE-42" data-name="LINE"><line class="cls-1" x1="126.52" y1="610.88" x2="126.52" y2="598.96"/></g><g id="LINE-43" data-name="LINE"><line class="cls-1" x1="126.52" y1="141.22" x2="126.52" y2="73.98"/></g><g id="LINE-44" data-name="LINE"><line class="cls-1" x1="126.52" y1="547.72" x2="126.52" y2="421.5"/></g><g id="LINE-45" data-name="LINE"><line class="cls-1" x1="126.52" y1="269.89" x2="126.52" y2="192.2"/></g><g id="LINE-46" data-name="LINE"><line class="cls-1" x1="126.52" y1="373.5" x2="126.52" y2="325.29"/></g><g id="LINE-47" data-name="LINE"><line class="cls-1" x1="134.77" y1="611.35" x2="134.77" y2="599.63"/></g><g id="LINE-48" data-name="LINE"><line class="cls-1" x1="134.77" y1="141.21" x2="134.77" y2="73.98"/></g><g id="LINE-49" data-name="LINE"><line class="cls-1" x1="134.77" y1="550.05" x2="134.77" y2="431.79"/></g><g id="LINE-50" data-name="LINE"><line class="cls-1" x1="134.77" y1="269.89" x2="134.77" y2="192.2"/></g><g id="LINE-51" data-name="LINE"><line class="cls-1" x1="134.77" y1="363.2" x2="134.77" y2="327.37"/></g><g id="LINE-52" data-name="LINE"><line class="cls-1" x1="143.02" y1="611.83" x2="143.02" y2="600.28"/></g><g id="LINE-53" data-name="LINE"><line class="cls-1" x1="143.02" y1="141.21" x2="143.02" y2="73.98"/></g><g id="LINE-54" data-name="LINE"><line class="cls-1" x1="143.02" y1="550.63" x2="143.02" y2="432.74"/></g><g id="LINE-55" data-name="LINE"><line class="cls-1" x1="143.02" y1="269.88" x2="143.02" y2="192.2"/></g><g id="LINE-56" data-name="LINE"><line class="cls-1" x1="143.02" y1="362.26" x2="143.02" y2="333.63"/></g><g id="LINE-57" data-name="LINE"><line class="cls-1" x1="151.27" y1="612.3" x2="151.27" y2="600.93"/></g><g id="LINE-58" data-name="LINE"><line class="cls-1" x1="151.27" y1="141.2" x2="151.27" y2="73.98"/></g><g id="LINE-59" data-name="LINE"><line class="cls-1" x1="151.27" y1="269.88" x2="151.27" y2="192.2"/></g><g id="LINE-60" data-name="LINE"><line class="cls-1" x1="151.27" y1="551.27" x2="151.27" y2="432.19"/></g><g id="LINE-61" data-name="LINE"><line class="cls-1" x1="151.27" y1="362.81" x2="151.27" y2="332.8"/></g><g id="LINE-62" data-name="LINE"><line class="cls-1" x1="159.52" y1="612.77" x2="159.52" y2="601.57"/></g><g id="LINE-63" data-name="LINE"><line class="cls-1" x1="159.52" y1="141.19" x2="159.52" y2="73.98"/></g><g id="LINE-64" data-name="LINE"><line class="cls-1" x1="159.52" y1="551.92" x2="159.52" y2="514.63"/></g><g id="LINE-65" data-name="LINE"><line class="cls-1" x1="159.52" y1="269.88" x2="159.52" y2="192.2"/></g><g id="LINE-66" data-name="LINE"><line class="cls-1" x1="159.52" y1="507.01" x2="159.52" y2="421.5"/></g><g id="LINE-67" data-name="LINE"><line class="cls-1" x1="159.52" y1="373.5" x2="159.52" y2="321.22"/></g><g id="LINE-68" data-name="LINE"><line class="cls-1" x1="167.77" y1="613.25" x2="167.77" y2="602.07"/></g><g id="LINE-69" data-name="LINE"><line class="cls-1" x1="167.77" y1="141.18" x2="167.77" y2="73.98"/></g><g id="LINE-70" data-name="LINE"><line class="cls-1" x1="167.77" y1="552.49" x2="167.77" y2="522.76"/></g><g id="LINE-71" data-name="LINE"><line class="cls-1" x1="167.77" y1="269.87" x2="167.77" y2="192.2"/></g><g id="LINE-72" data-name="LINE"><line class="cls-1" x1="167.77" y1="498.87" x2="167.77" y2="430.63"/></g><g id="LINE-73" data-name="LINE"><line class="cls-1" x1="167.77" y1="364.37" x2="167.77" y2="321.21"/></g><g id="LINE-74" data-name="LINE"><line class="cls-1" x1="176.02" y1="613.72" x2="176.02" y2="600.09"/></g><g id="LINE-75" data-name="LINE"><line class="cls-1" x1="176.02" y1="141.18" x2="176.02" y2="73.98"/></g><g id="LINE-76" data-name="LINE"><line class="cls-1" x1="176.02" y1="554.47" x2="176.02" y2="526.2"/></g><g id="LINE-77" data-name="LINE"><line class="cls-1" x1="176.02" y1="269.87" x2="176.02" y2="192.2"/></g><g id="LINE-78" data-name="LINE"><line class="cls-1" x1="176.02" y1="495.43" x2="176.02" y2="432.41"/></g><g id="LINE-79" data-name="LINE"><line class="cls-1" x1="176.02" y1="362.59" x2="176.02" y2="321.21"/></g><g id="LINE-80" data-name="LINE"><line class="cls-1" x1="184.27" y1="614.2" x2="184.27" y2="594.31"/></g><g id="LINE-81" data-name="LINE"><line class="cls-1" x1="184.27" y1="362.32" x2="184.27" y2="45.54"/></g><g id="LINE-82" data-name="LINE"><line class="cls-1" x1="184.27" y1="560.25" x2="184.27" y2="528.04"/></g><g id="LINE-83" data-name="LINE"><line class="cls-1" x1="184.27" y1="493.59" x2="184.27" y2="432.67"/></g><g id="LINE-84" data-name="LINE"><line class="cls-1" x1="192.52" y1="614.67" x2="192.52" y2="528.78"/></g><g id="LINE-85" data-name="LINE"><line class="cls-1" x1="192.52" y1="363.55" x2="192.52" y2="45.54"/></g><g id="LINE-86" data-name="LINE"><line class="cls-1" x1="192.52" y1="492.85" x2="192.52" y2="431.44"/></g><g id="LINE-87" data-name="LINE"><line class="cls-1" x1="200.77" y1="615.15" x2="200.77" y2="528.56"/></g><g id="LINE-88" data-name="LINE"><line class="cls-1" x1="200.77" y1="373.5" x2="200.77" y2="45.54"/></g><g id="LINE-89" data-name="LINE"><line class="cls-1" x1="200.77" y1="493.07" x2="200.77" y2="421.5"/></g><g id="LINE-90" data-name="LINE"><line class="cls-1" x1="209.02" y1="615.62" x2="209.02" y2="527.33"/></g><g id="LINE-91" data-name="LINE"><line class="cls-1" x1="209.02" y1="373.5" x2="209.02" y2="45.54"/></g><g id="LINE-92" data-name="LINE"><line class="cls-1" x1="209.02" y1="494.3" x2="209.02" y2="421.5"/></g><g id="LINE-93" data-name="LINE"><line class="cls-1" x1="217.27" y1="616.1" x2="217.27" y2="524.84"/></g><g id="LINE-94" data-name="LINE"><line class="cls-1" x1="217.27" y1="383.25" x2="217.27" y2="45.54"/></g><g id="LINE-95" data-name="LINE"><line class="cls-1" x1="217.27" y1="496.79" x2="217.27" y2="411.75"/></g><g id="LINE-96" data-name="LINE"><line class="cls-1" x1="225.52" y1="616.57" x2="225.52" y2="520.12"/></g><g id="LINE-97" data-name="LINE"><line class="cls-1" x1="225.52" y1="501.51" x2="225.52" y2="45.54"/></g><g id="LINE-98" data-name="LINE"><line class="cls-1" x1="233.77" y1="617.05" x2="233.77" y2="45.54"/></g><g id="LINE-99" data-name="LINE"><line class="cls-1" x1="242.02" y1="617.52" x2="242.02" y2="45.54"/></g><g id="LINE-100" data-name="LINE"><line class="cls-1" x1="250.27" y1="600.47" x2="250.27" y2="45.54"/></g><g id="LINE-101" data-name="LINE"><line class="cls-1" x1="258.52" y1="600.94" x2="258.52" y2="561.6"/></g><g id="LINE-102" data-name="LINE"><line class="cls-1" x1="258.52" y1="544.33" x2="258.52" y2="45.54"/></g><g id="LINE-103" data-name="LINE"><line class="cls-1" x1="266.77" y1="601.41" x2="266.77" y2="568.51"/></g><g id="LINE-104" data-name="LINE"><line class="cls-1" x1="266.77" y1="484.51" x2="266.77" y2="45.54"/></g><g id="LINE-105" data-name="LINE"><line class="cls-1" x1="275.02" y1="601.88" x2="275.02" y2="568.51"/></g><g id="LINE-106" data-name="LINE"><line class="cls-1" x1="275.02" y1="419.86" x2="275.02" y2="341.86"/></g><g id="LINE-107" data-name="LINE"><line class="cls-1" x1="275.02" y1="478.51" x2="275.02" y2="461.86"/></g><g id="LINE-108" data-name="LINE"><line class="cls-1" x1="283.27" y1="602.35" x2="283.27" y2="568.51"/></g><g id="LINE-109" data-name="LINE"><line class="cls-1" x1="283.27" y1="419.86" x2="283.27" y2="341.86"/></g><g id="LINE-110" data-name="LINE"><line class="cls-1" x1="283.27" y1="478.51" x2="283.27" y2="461.86"/></g><g id="LINE-111" data-name="LINE"><line class="cls-1" x1="291.52" y1="602.82" x2="291.52" y2="568.51"/></g><g id="LINE-112" data-name="LINE"><line class="cls-1" x1="291.52" y1="419.86" x2="291.52" y2="341.86"/></g><g id="LINE-113" data-name="LINE"><line class="cls-1" x1="291.52" y1="478.51" x2="291.52" y2="461.86"/></g><g id="LINE-114" data-name="LINE"><line class="cls-1" x1="299.77" y1="603.29" x2="299.77" y2="568.51"/></g><g id="LINE-115" data-name="LINE"><line class="cls-1" x1="299.77" y1="419.86" x2="299.77" y2="341.86"/></g><g id="LINE-116" data-name="LINE"><line class="cls-1" x1="299.77" y1="478.51" x2="299.77" y2="461.86"/></g><g id="LINE-117" data-name="LINE"><line class="cls-1" x1="308.02" y1="603.75" x2="308.02" y2="550.51"/></g><g id="LINE-118" data-name="LINE"><line class="cls-1" x1="308.02" y1="419.86" x2="308.02" y2="341.86"/></g><g id="LINE-119" data-name="LINE"><line class="cls-1" x1="308.02" y1="478.51" x2="308.02" y2="461.86"/></g><g id="LINE-120" data-name="LINE"><line class="cls-1" x1="324.52" y1="604.7" x2="324.52" y2="545.04"/></g><g id="LINE-121" data-name="LINE"><line class="cls-1" x1="324.52" y1="455.04" x2="324.52" y2="218"/></g><g id="LINE-122" data-name="LINE"><line class="cls-1" x1="332.77" y1="605.19" x2="332.77" y2="545.04"/></g><g id="LINE-123" data-name="LINE"><line class="cls-1" x1="332.77" y1="455.04" x2="332.77" y2="218"/></g><g id="LINE-124" data-name="LINE"><line class="cls-1" x1="341.02" y1="605.69" x2="341.02" y2="545.04"/></g><g id="LINE-125" data-name="LINE"><line class="cls-1" x1="341.02" y1="455.04" x2="341.02" y2="218"/></g><g id="LINE-126" data-name="LINE"><line class="cls-1" x1="349.27" y1="623.69" x2="349.27" y2="613.04"/></g><g id="LINE-127" data-name="LINE"><line class="cls-1" x1="349.27" y1="455.04" x2="349.27" y2="218"/></g><g id="LINE-128" data-name="LINE"><line class="cls-1" x1="349.27" y1="586.85" x2="349.27" y2="545.04"/></g><g id="LINE-129" data-name="LINE"><line class="cls-1" x1="357.52" y1="624.16" x2="357.52" y2="617.6"/></g><g id="LINE-130" data-name="LINE"><line class="cls-1" x1="357.52" y1="574.32" x2="357.52" y2="218"/></g><g id="LINE-131" data-name="LINE"><line class="cls-1" x1="365.77" y1="624.64" x2="365.77" y2="617.63"/></g><g id="LINE-132" data-name="LINE"><line class="cls-1" x1="365.77" y1="579" x2="365.77" y2="218"/></g><g id="LINE-133" data-name="LINE"><line class="cls-1" x1="374.02" y1="625.11" x2="374.02" y2="613.13"/></g><g id="LINE-134" data-name="LINE"><line class="cls-1" x1="374.02" y1="584.8" x2="374.02" y2="218"/></g><g id="LINE-135" data-name="LINE"><line class="cls-1" x1="382.27" y1="625.58" x2="382.27" y2="602.57"/></g><g id="LINE-136" data-name="LINE"><line class="cls-1" x1="382.27" y1="590.59" x2="382.27" y2="218"/></g><g id="LINE-137" data-name="LINE"><line class="cls-1" x1="390.52" y1="626.06" x2="390.52" y2="619.53"/></g><g id="LINE-138" data-name="LINE"><line class="cls-1" x1="390.52" y1="602.48" x2="390.52" y2="218"/></g><g id="LINE-139" data-name="LINE"><line class="cls-1" x1="398.77" y1="626.53" x2="398.77" y2="618.23"/></g><g id="LINE-140" data-name="LINE"><line class="cls-1" x1="398.77" y1="446.23" x2="398.77" y2="218"/></g><g id="LINE-141" data-name="LINE"><line class="cls-1" x1="398.77" y1="603.77" x2="398.77" y2="558.36"/></g><g id="LINE-142" data-name="LINE"><line class="cls-1" x1="407.02" y1="627.01" x2="407.02" y2="558.59"/></g><g id="LINE-143" data-name="LINE"><line class="cls-1" x1="407.02" y1="446.09" x2="407.02" y2="218"/></g><g id="LINE-144" data-name="LINE"><line class="cls-1" x1="415.27" y1="627.48" x2="415.27" y2="558.59"/></g><g id="LINE-145" data-name="LINE"><line class="cls-1" x1="415.27" y1="446.09" x2="415.27" y2="404.04"/></g><g id="LINE-146" data-name="LINE"><line class="cls-1" x1="423.52" y1="627.95" x2="423.52" y2="558.59"/></g><g id="LINE-147" data-name="LINE"><line class="cls-1" x1="423.52" y1="446.08" x2="423.52" y2="404.04"/></g><g id="LINE-148" data-name="LINE"><line class="cls-1" x1="431.77" y1="628.43" x2="431.77" y2="558.59"/></g><g id="LINE-149" data-name="LINE"><line class="cls-1" x1="431.77" y1="446.08" x2="431.77" y2="404.04"/></g><g id="LINE-150" data-name="LINE"><line class="cls-1" x1="440.02" y1="628.9" x2="440.02" y2="558.59"/></g><g id="LINE-151" data-name="LINE"><line class="cls-1" x1="440.02" y1="446.08" x2="440.02" y2="404.04"/></g><g id="LINE-152" data-name="LINE"><line class="cls-1" x1="448.27" y1="629.38" x2="448.27" y2="558.59"/></g><g id="LINE-153" data-name="LINE"><line class="cls-1" x1="448.27" y1="446.08" x2="448.27" y2="404.04"/></g><g id="LINE-154" data-name="LINE"><line class="cls-1" x1="456.52" y1="629.85" x2="456.52" y2="558.58"/></g><g id="LINE-155" data-name="LINE"><line class="cls-1" x1="456.52" y1="446.08" x2="456.52" y2="404.04"/></g><g id="LINE-156" data-name="LINE"><line class="cls-1" x1="464.77" y1="630.32" x2="464.77" y2="558.58"/></g><g id="LINE-157" data-name="LINE"><line class="cls-1" x1="464.77" y1="446.08" x2="464.77" y2="404.04"/></g><g id="LINE-158" data-name="LINE"><line class="cls-1" x1="473.02" y1="630.8" x2="473.02" y2="558.58"/></g><g id="LINE-159" data-name="LINE"><line class="cls-1" x1="473.02" y1="446.08" x2="473.02" y2="404.04"/></g><g id="LINE-160" data-name="LINE"><line class="cls-1" x1="481.27" y1="631.27" x2="481.27" y2="558.58"/></g><g id="LINE-161" data-name="LINE"><line class="cls-1" x1="481.27" y1="446.08" x2="481.27" y2="404.04"/></g><g id="LINE-162" data-name="LINE"><line class="cls-1" x1="489.52" y1="631.75" x2="489.52" y2="558.58"/></g><g id="LINE-163" data-name="LINE"><line class="cls-1" x1="489.52" y1="446.08" x2="489.52" y2="404.04"/></g><g id="LINE-164" data-name="LINE"><line class="cls-1" x1="497.77" y1="632.22" x2="497.77" y2="593.08"/></g><g id="LINE-165" data-name="LINE"><line class="cls-1" x1="497.77" y1="411.58" x2="497.77" y2="404.04"/></g><g id="LINE-166" data-name="LINE"><line class="cls-1" x1="497.77" y1="563.08" x2="497.77" y2="558.58"/></g><g id="LINE-167" data-name="LINE"><line class="cls-1" x1="497.77" y1="446.08" x2="497.77" y2="441.58"/></g><g id="LINE-168" data-name="LINE"><line class="cls-1" x1="506.02" y1="632.7" x2="506.02" y2="593.08"/></g><g id="LINE-169" data-name="LINE"><line class="cls-1" x1="506.02" y1="411.58" x2="506.02" y2="404.04"/></g><g id="LINE-170" data-name="LINE"><line class="cls-1" x1="506.02" y1="563.08" x2="506.02" y2="558.58"/></g><g id="LINE-171" data-name="LINE"><line class="cls-1" x1="506.02" y1="446.08" x2="506.02" y2="441.58"/></g><g id="LINE-172" data-name="LINE"><line class="cls-1" x1="514.27" y1="621.15" x2="514.27" y2="593.08"/></g><g id="LINE-173" data-name="LINE"><line class="cls-1" x1="514.27" y1="411.58" x2="514.27" y2="404.04"/></g><g id="LINE-174" data-name="LINE"><line class="cls-1" x1="514.27" y1="563.08" x2="514.27" y2="558.58"/></g><g id="LINE-175" data-name="LINE"><line class="cls-1" x1="514.27" y1="446.08" x2="514.27" y2="441.58"/></g><g id="LINE-176" data-name="LINE"><line class="cls-1" x1="522.52" y1="616.12" x2="522.52" y2="404.04"/></g><g id="LWPOLYLINE"><rect class="cls-1" x="124.19" y="66.48" width="45" height="7.5"/></g><g id="LWPOLYLINE-2" data-name="LWPOLYLINE"><rect class="cls-1" x="214.84" y="36.54" width="54.01" height="9"/></g><g id="LWPOLYLINE-3" data-name="LWPOLYLINE"><rect class="cls-1" x="271.75" y="121.86" width="7.51" height="79.48"/></g><g id="LWPOLYLINE-4" data-name="LWPOLYLINE"><rect class="cls-1" x="315.27" y="231.18" width="7.52" height="90"/></g><g id="LWPOLYLINE-5" data-name="LWPOLYLINE"><line class="cls-1" x1="345.41" y1="218" x2="404.9" y2="218"/></g><g id="LWPOLYLINE-6" data-name="LWPOLYLINE"><line class="cls-1" x1="404.9" y1="206.04" x2="345.41" y2="206"/></g><g id="LWPOLYLINE-7" data-name="LWPOLYLINE"><rect class="cls-1" x="315.24" y="347.86" width="7.49" height="52.5"/></g><g id="LWPOLYLINE-8" data-name="LWPOLYLINE"><rect class="cls-1" x="109.94" y="82.73" width="7.56" height="52.5"/></g></g><g id="FURNITURE"><g id="LWPOLYLINE-9" data-name="LWPOLYLINE"><rect class="cls-2" x="245.98" y="253.15" width="21" height="75"/></g><g id="CIRCLE"><path class="cls-3" d="M258.44,323.64a7.5,7.5,0,1,1,7.5,7.5,7.5,7.5,0,0,1-7.5-7.5Z" transform="translate(-9.53 -8.73)"/></g><g id="CIRCLE-2" data-name="CIRCLE"><path class="cls-3" d="M261.59,561.7a9,9,0,1,1,9,9,9,9,0,0,1-9-9Z" transform="translate(-9.53 -8.73)"/></g><g id="CIRCLE-3" data-name="CIRCLE"><path class="cls-3" d="M411.07,615.88a9,9,0,1,1-12-4.27,9,9,0,0,1,12,4.27Z" transform="translate(-9.53 -8.73)"/></g><g id="LWPOLYLINE-10" data-name="LWPOLYLINE"><rect class="cls-3" x="322.45" y="455.04" width="27" height="90"/></g><g id="LWPOLYLINE-11" data-name="LWPOLYLINE"><rect class="cls-3" x="18.72" y="474.69" width="27" height="90"/></g><g id="LINE-177" data-name="LINE"><line class="cls-3" x1="248.91" y1="314.91" x2="263.91" y2="314.91"/></g><g id="ARC"><path class="cls-3" d="M117.06,420.48a43.25,43.25,0,0,1,0-28.5" transform="translate(-9.53 -8.73)"/></g><g id="LWPOLYLINE-12" data-name="LWPOLYLINE"><path class="cls-3" d="M131.9,392h-18a46.25,46.25,0,0,0,0,28.5h18Z" transform="translate(-9.53 -8.73)"/></g><g id="ARC-2" data-name="ARC"><path class="cls-3" d="M227.73,420.48a43.25,43.25,0,0,0,0-28.5" transform="translate(-9.53 -8.73)"/></g><g id="LWPOLYLINE-13" data-name="LWPOLYLINE"><path class="cls-3" d="M212.9,392h18a46.25,46.25,0,0,1,0,28.5h-18Z" transform="translate(-9.53 -8.73)"/></g><g id="ARC-3" data-name="ARC"><path class="cls-3" d="M139.4,376.4a43.25,43.25,0,0,1,28.5,0" transform="translate(-9.53 -8.73)"/></g><g id="LWPOLYLINE-14" data-name="LWPOLYLINE"><path class="cls-3" d="M167.9,391.23v-18a46.25,46.25,0,0,0-28.5,0v18Z" transform="translate(-9.53 -8.73)"/></g><g id="ARC-4" data-name="ARC"><path class="cls-3" d="M205.4,376.4a43.25,43.25,0,0,0-28.5,0" transform="translate(-9.53 -8.73)"/></g><g id="LWPOLYLINE-15" data-name="LWPOLYLINE"><path class="cls-3" d="M176.9,391.23v-18a46.25,46.25,0,0,1,28.5,0v18Z" transform="translate(-9.53 -8.73)"/></g><g id="ARC-5" data-name="ARC"><path class="cls-3" d="M139.4,436.07a43.25,43.25,0,0,0,28.5,0" transform="translate(-9.53 -8.73)"/></g><g id="LWPOLYLINE-16" data-name="LWPOLYLINE"><path class="cls-3" d="M167.9,421.23v18a46.25,46.25,0,0,1-28.5,0v-18Z" transform="translate(-9.53 -8.73)"/></g><g id="ARC-6" data-name="ARC"><path class="cls-3" d="M205.4,436.07a43.25,43.25,0,0,1-28.5,0" transform="translate(-9.53 -8.73)"/></g><g id="LWPOLYLINE-17" data-name="LWPOLYLINE"><path class="cls-3" d="M176.9,421.23v18a46.25,46.25,0,0,0,28.5,0v-18Z" transform="translate(-9.53 -8.73)"/></g><g id="LINE-178" data-name="LINE"><line class="cls-3" x1="472.46" y1="446.09" x2="472.46" y2="558.59"/></g><g id="CIRCLE-4" data-name="CIRCLE"><path class="cls-3" d="M510.41,586.87a6,6,0,1,1,6,6,6,6,0,0,1-6-6Z" transform="translate(-9.53 -8.73)"/></g><g id="LINE-179" data-name="LINE"><line class="cls-3" x1="500.89" y1="578.08" x2="512.89" y2="578.08"/></g><g id="LINE-180" data-name="LINE"><line class="cls-3" x1="507.04" y1="584.13" x2="507.04" y2="572.14"/></g><g id="LWPOLYLINE-18" data-name="LWPOLYLINE"><rect class="cls-3" x="495.04" y="563.08" width="24" height="30"/></g><g id="CIRCLE-5" data-name="CIRCLE"><path class="cls-3" d="M510.41,435.27a6,6,0,1,1,6,6,6,6,0,0,1-6-6Z" transform="translate(-9.53 -8.73)"/></g><g id="LINE-181" data-name="LINE"><line class="cls-3" x1="500.89" y1="426.58" x2="512.89" y2="426.58"/></g><g id="LINE-182" data-name="LINE"><line class="cls-3" x1="507.04" y1="420.53" x2="507.04" y2="432.53"/></g><g id="LWPOLYLINE-19" data-name="LWPOLYLINE"><rect class="cls-3" x="495.04" y="411.58" width="24" height="30"/></g><g id="LWPOLYLINE-20" data-name="LWPOLYLINE"><polyline class="cls-3" points="490.46 503.65 513 503.65 513 556.15 490.46 556.15"/></g><g id="LWPOLYLINE-21" data-name="LWPOLYLINE"><polyline class="cls-3" points="490.46 501.02 513 501.02 513 448.52 490.46 448.52"/></g><g id="LWPOLYLINE-22" data-name="LWPOLYLINE"><path class="cls-3" d="M525.49,567.32H409.2a4.31,4.31,0,0,1-3.72-4.34V458.87a3.88,3.88,0,0,1,3.72-4.05H525.57" transform="translate(-9.53 -8.73)"/></g><g id="LWPOLYLINE-23" data-name="LWPOLYLINE"><rect class="cls-3" x="516" y="446.08" width="6" height="112.5"/></g><g id="LINE-183" data-name="LINE"><line class="cls-3" x1="490.46" y1="446.09" x2="490.46" y2="558.59"/></g><g id="LINE-184" data-name="LINE"><line class="cls-3" x1="256.41" y1="307.41" x2="256.41" y2="322.41"/></g><g id="LWPOLYLINE-24" data-name="LWPOLYLINE"><path class="cls-3" d="M278.53,493.25v-6h39a1.5,1.5,0,0,1,1.5,1.5v70.5h-6v18h-40.5v-84h6" transform="translate(-9.53 -8.73)"/></g><g id="LWPOLYLINE-25" data-name="LWPOLYLINE"><polyline class="cls-3" points="269 484.51 303.5 484.51 303.5 550.51"/></g><g id="LWPOLYLINE-26" data-name="LWPOLYLINE"><path class="cls-3" d="M150.91,559.23l24.67,1.94a24.84,24.84,0,1,1-4,49.33l-33.65-2.64-.23,0a81,81,0,0,1-74.16-87.3l1.28-15.73c0-.31,0-.63.08-.95A24.75,24.75,0,1,1,114.11,509l-.31,6.75a36.92,36.92,0,0,0,37.1,43.49Z" transform="translate(-9.53 -8.73)"/></g><g id="LWPOLYLINE-27" data-name="LWPOLYLINE"><path class="cls-3" d="M159.21,609.57a4.5,4.5,0,0,0,.73-9l-12.33-1c-1.21,0-2.42-.08-3.62-.16a76.58,76.58,0,0,1-71.24-81.56l1-12.34a4.5,4.5,0,1,0-9-.73" transform="translate(-9.53 -8.73)"/></g><g id="ELLIPSE"><path class="cls-3" d="M240.24,519.55c0-9.94-16.12-18-36-18s-36,8.06-36,18,16.11,18,36,18,36-8.06,36-18Z" transform="translate(-9.53 -8.73)"/></g><g id="LWPOLYLINE-28" data-name="LWPOLYLINE"><path class="cls-3" d="M356.05,599.81l10.68-16.42,0,0a1.32,1.32,0,0,1,1.84-.32l28,19.67,0,0a1.32,1.32,0,0,1,.26,1.85l-11.83,15.61" transform="translate(-9.53 -8.73)"/></g><g id="LWPOLYLINE-29" data-name="LWPOLYLINE"><line class="cls-3" x1="350.95" y1="593.95" x2="354.77" y2="588.09"/></g><g id="LWPOLYLINE-30" data-name="LWPOLYLINE"><line class="cls-3" x1="375.56" y1="602.69" x2="371.34" y2="608.27"/></g><g id="ARC-7" data-name="ARC"><path class="cls-3" d="M356.61,599a17.77,17.77,0,0,0,29.08,20.42" transform="translate(-9.53 -8.73)"/></g><g id="ARC-8" data-name="ARC"><path class="cls-3" d="M361,602a12.49,12.49,0,0,0,20.44,14.36" transform="translate(-9.53 -8.73)"/></g><g id="ARC-9" data-name="ARC"><path class="cls-3" d="M364.29,596.82a6.92,6.92,0,0,0-1.39-7.54" transform="translate(-9.53 -8.73)"/></g><g id="ARC-10" data-name="ARC"><path class="cls-3" d="M392.65,610.18a6.89,6.89,0,0,0-7.56,1.25" transform="translate(-9.53 -8.73)"/></g><g id="ARC-11" data-name="ARC"><path class="cls-2" d="M79.72,336.72a12.75,12.75,0,0,0,25.5,0" transform="translate(-9.53 -8.73)"/></g><g id="LINE-185" data-name="LINE"><line class="cls-3" x1="70.19" y1="327.99" x2="95.69" y2="327.99"/></g><g id="ARC-12" data-name="ARC"><path class="cls-2" d="M111.22,336.72a12.75,12.75,0,0,0,25.5,0" transform="translate(-9.53 -8.73)"/></g><g id="LINE-186" data-name="LINE"><line class="cls-3" x1="101.69" y1="327.99" x2="127.19" y2="327.99"/></g><g id="ARC-13" data-name="ARC"><path class="cls-2" d="M168.22,336.72a12.75,12.75,0,0,1-25.5,0" transform="translate(-9.53 -8.73)"/></g><g id="LINE-187" data-name="LINE"><line class="cls-3" x1="158.69" y1="327.99" x2="133.19" y2="327.99"/></g><g id="LWPOLYLINE-31" data-name="LWPOLYLINE"><rect class="cls-2" x="113.37" y="373.5" width="99" height="48"/></g><g id="LWPOLYLINE-32" data-name="LWPOLYLINE"><rect class="cls-2" x="263" y="484.51" width="40.5" height="84"/></g></g><g id="CLOSET"><g id="LINE-188" data-name="LINE"><line class="cls-3" x1="298.26" y1="334.36" x2="298.26" y2="218"/></g><g id="LINE-189" data-name="LINE"><line class="cls-4" x1="295.26" y1="334.36" x2="295.26" y2="218"/></g><g id="LINE-190" data-name="LINE"><line class="cls-3" x1="307.91" y1="207.14" x2="307.91" y2="116.04"/></g><g id="LINE-191" data-name="LINE"><line class="cls-4" x1="304.93" y1="207.14" x2="304.93" y2="116.04"/></g></g><g id="HANGERS"><g id="LINE-192" data-name="LINE"><line class="cls-5" x1="310.27" y1="326.98" x2="283.27" y2="326.98"/></g><g id="LINE-193" data-name="LINE"><line class="cls-5" x1="310.27" y1="323.11" x2="283.27" y2="323.11"/></g><g id="LINE-194" data-name="LINE"><line class="cls-5" x1="310.27" y1="289.55" x2="283.27" y2="279.25"/></g><g id="LINE-195" data-name="LINE"><line class="cls-5" x1="310.27" y1="283.82" x2="283.27" y2="273.53"/></g><g id="LINE-196" data-name="LINE"><line class="cls-5" x1="310.27" y1="319.24" x2="283.27" y2="319.24"/></g><g id="LINE-197" data-name="LINE"><line class="cls-5" x1="310.27" y1="311.5" x2="283.27" y2="311.49"/></g><g id="LINE-198" data-name="LINE"><line class="cls-5" x1="310.27" y1="296.01" x2="283.27" y2="296.01"/></g><g id="LINE-199" data-name="LINE"><line class="cls-5" x1="310.27" y1="292.14" x2="283.27" y2="292.14"/></g><g id="LINE-200" data-name="LINE"><line class="cls-5" x1="310.27" y1="315.37" x2="283.27" y2="315.37"/></g><g id="LINE-201" data-name="LINE"><line class="cls-5" x1="310.27" y1="311.5" x2="283.27" y2="311.49"/></g><g id="LINE-202" data-name="LINE"><line class="cls-5" x1="310.27" y1="307.62" x2="283.27" y2="307.62"/></g><g id="LINE-203" data-name="LINE"><line class="cls-5" x1="310.27" y1="303.75" x2="283.27" y2="303.75"/></g><g id="LINE-204" data-name="LINE"><line class="cls-5" x1="310.27" y1="296.01" x2="283.27" y2="296.01"/></g><g id="LINE-205" data-name="LINE"><line class="cls-5" x1="310.27" y1="299.88" x2="283.27" y2="299.88"/></g><g id="LINE-206" data-name="LINE"><line class="cls-5" x1="319.86" y1="151.99" x2="293.01" y2="141.69"/></g><g id="LINE-207" data-name="LINE"><line class="cls-5" x1="319.86" y1="146.27" x2="293.01" y2="135.97"/></g><g id="LINE-208" data-name="LINE"><line class="cls-5" x1="319.86" y1="173.94" x2="293.01" y2="173.94"/></g><g id="LINE-209" data-name="LINE"><line class="cls-5" x1="319.86" y1="158.46" x2="293.01" y2="158.46"/></g><g id="LINE-210" data-name="LINE"><line class="cls-5" x1="319.86" y1="154.59" x2="293.01" y2="154.58"/></g><g id="LINE-211" data-name="LINE"><line class="cls-5" x1="319.86" y1="173.94" x2="293.01" y2="173.94"/></g><g id="LINE-212" data-name="LINE"><line class="cls-5" x1="319.86" y1="170.07" x2="293.01" y2="170.07"/></g><g id="LINE-213" data-name="LINE"><line class="cls-5" x1="319.86" y1="166.2" x2="293.01" y2="166.2"/></g><g id="LINE-214" data-name="LINE"><line class="cls-5" x1="319.86" y1="158.46" x2="293.01" y2="158.46"/></g><g id="LINE-215" data-name="LINE"><line class="cls-5" x1="319.86" y1="162.33" x2="293.01" y2="162.33"/></g></g><g id="BATH_GLAZING" data-name="BATH GLAZING"><g id="LINE-216" data-name="LINE"><line class="cls-6" x1="412.9" y1="82.78" x2="519.4" y2="82.82"/><line class="cls-6" x1="412.9" y1="81.76" x2="519.4" y2="81.8"/></g><line class="cls-6" x1="508.6" y1="81.88" x2="508.6" y2="82.71"/></g><g id="BATH_FIXTURES" data-name="BATH FIXTURES"><g id="LWPOLYLINE-33" data-name="LWPOLYLINE"><path class="cls-7" d="M80.86,52.05q-.31,8.88-.32,17.77a22.28,22.28,0,0,0,1.76,8.64,14.63,14.63,0,0,0,3.88,5.35,7.5,7.5,0,0,0,9.82,0,14.52,14.52,0,0,0,3.88-5.35,22.1,22.1,0,0,0,1.76-8.64q0-8.89-.32-17.77" transform="translate(-9.53 -8.73)"/></g><g id="LWPOLYLINE-34" data-name="LWPOLYLINE"><path class="cls-7" d="M101.32,52.05l.37-.18a1.86,1.86,0,0,0,1-1.8c-.1-1.63-.23-3.27-.37-4.9a1.17,1.17,0,0,0-1.16-1.07H81a1.18,1.18,0,0,0-1.17,1.07c-.14,1.63-.26,3.27-.37,4.9a1.88,1.88,0,0,0,1,1.8l.37.18" transform="translate(-9.53 -8.73)"/></g><g id="LWPOLYLINE-35" data-name="LWPOLYLINE"><path class="cls-7" d="M101.29,52.07a24,24,0,0,1-20.24.07" transform="translate(-9.53 -8.73)"/></g><g id="ELLIPSE-2" data-name="ELLIPSE"><path class="cls-7" d="M520.76,60h-6.45c-.07-.83-.27-1.41-.5-1.41l-5.31-.28h0c-.18,0-.32,1-.32,2.28s.15,2.24.32,2.22h0l5.31-.28c.23,0,.43-.57.5-1.4h6.45" transform="translate(-9.53 -8.73)"/></g><g id="LWPOLYLINE-36" data-name="LWPOLYLINE"><path class="cls-7" d="M515,73.7v-3a1.15,1.15,0,0,1,1.15-1.15,1.13,1.13,0,0,1,.78.31h3.9v1.69h-3.53V73.7a1.15,1.15,0,1,1-2.3,0Z" transform="translate(-9.53 -8.73)"/></g><path class="cls-7" d="M505.42,87.18V86.11h-1.28V85a.6.6,0,0,0-.6-.6h-.28V83.16a.56.56,0,1,0-1.11,0v1.25h-.28a.6.6,0,0,0-.6.6v1.1H500v1.07" transform="translate(-9.53 -8.73)"/><g id="LWPOLYLINE-37" data-name="LWPOLYLINE"><polyline class="cls-5" points="519.25 199.37 523.69 199.37 523.69 206.04"/></g><g id="LWPOLYLINE-38" data-name="LWPOLYLINE"><polyline class="cls-5" points="478.08 206.04 478.08 199.37 472.38 199.37"/></g><g id="LWPOLYLINE-39" data-name="LWPOLYLINE"><rect class="cls-5" x="478.08" y="199.37" width="40.61" height="1.13"/></g><g id="LINE-217" data-name="LINE"><polyline class="cls-5" points="529.11 199.37 518.69 199.37 518.69 206.04"/></g><g id="LINE-218" data-name="LINE"><polyline class="cls-5" points="460.97 199.37 472.38 199.37 472.38 206.04"/></g><g id="LINE-219" data-name="LINE"><polyline class="cls-7" points="456.34 199.37 411.43 199.37 411.43 207.25"/></g><g id="LWPOLYLINE-40" data-name="LWPOLYLINE"><polyline class="cls-5" points="421.68 206.75 421.68 199.37 416.58 199.37 416.58 206.75"/></g><g id="LWPOLYLINE-41" data-name="LWPOLYLINE"><polyline class="cls-7" points="460.41 206.04 460.41 199.37 460.97 199.37"/></g><g id="LWPOLYLINE-42" data-name="LWPOLYLINE"><rect class="cls-7" x="421.68" y="199.37" width="38.74" height="1.13"/></g><g id="LINE-220" data-name="LINE"><polyline class="cls-5" points="460.97 199.37 466.91 199.37 466.91 206.04"/></g><g id="LWPOLYLINE-43" data-name="LWPOLYLINE"><path class="cls-6" d="M325.78,48.13l-.18-.37a1.87,1.87,0,0,0-1.8-1c-1.64.1-3.27.22-4.9.36a1.17,1.17,0,0,0-1.07,1.17V68.46a1.16,1.16,0,0,0,1.07,1.16c1.63.14,3.26.27,4.9.37a1.87,1.87,0,0,0,1.8-1l.18-.37" transform="translate(-9.53 -8.73)"/></g><g id="LWPOLYLINE-44" data-name="LWPOLYLINE"><path class="cls-6" d="M325.79,48.16a24,24,0,0,1,.08,20.23" transform="translate(-9.53 -8.73)"/></g><g id="LWPOLYLINE-45" data-name="LWPOLYLINE"><path class="cls-6" d="M325.78,68.58q8.88.33,17.77.32a22.1,22.1,0,0,0,8.64-1.76,14.57,14.57,0,0,0,5.34-3.88,7.48,7.48,0,0,0,0-9.82,14.68,14.68,0,0,0-5.34-3.88,22.27,22.27,0,0,0-8.64-1.75q-8.9,0-17.77.32" transform="translate(-9.53 -8.73)"/></g><line class="cls-5" x1="529.11" y1="199.37" x2="529.11" y2="206"/><line class="cls-5" x1="414.58" y1="199.37" x2="411.43" y2="199.37"/></g><g id="BATH_EXTERIOR" data-name="BATH EXTERIOR"><g id="LINE-221" data-name="LINE"><polygon class="cls-8" points="411.43 206.04 528.85 206.04 528.8 164.84 411.43 164.92 411.43 206.04"/></g><g id="ELLIPSE-3" data-name="ELLIPSE"><path class="cls-9" d="M48.93,105.66c6.63,0,12,8.06,12,18s-5.37,18-12,18-12-8.06-12-18,5.37-18,12-18Z" transform="translate(-9.53 -8.73)"/></g><g id="LINE-222" data-name="LINE"><line class="cls-3" x1="511.18" y1="45.45" x2="511.18" y2="27.45"/></g></g><g id="KITCHEN"><g id="LINE-223" data-name="LINE"><line class="cls-10" x1="147.07" y1="155.98" x2="147.07" y2="192.1"/></g><g id="LINE-224" data-name="LINE"><line class="cls-10" x1="99.49" y1="156.08" x2="99.49" y2="192.08"/></g><g id="LWPOLYLINE-46" data-name="LWPOLYLINE"><line class="cls-10" x1="16.77" y1="192.14" x2="174.38" y2="192.16"/></g><g id="LWPOLYLINE-47" data-name="LWPOLYLINE"><rect class="cls-11" x="49.29" y="265.09" width="133.85" height="63"/></g></g><g id="SINKS"><g id="CIRCLE-6" data-name="CIRCLE"><path class="cls-5" d="M46.68,123.66a1.5,1.5,0,1,1,1.5,1.5,1.5,1.5,0,0,1-1.5-1.5Z" transform="translate(-9.53 -8.73)"/></g><g id="LWPOLYLINE-48" data-name="LWPOLYLINE"><rect class="cls-5" x="25.09" y="117.49" width="0.38" height="3.75"/></g><g id="LWPOLYLINE-49" data-name="LWPOLYLINE"><rect class="cls-5" x="25.09" y="112.99" width="0.38" height="3.75"/></g><g id="LWPOLYLINE-50" data-name="LWPOLYLINE"><rect class="cls-5" x="25.09" y="108.49" width="0.38" height="3.75"/></g><g id="LWPOLYLINE-51" data-name="LWPOLYLINE"><polyline class="cls-7" points="25.46 120.64 29.21 120.64 29.21 118.08 25.46 118.08"/></g><g id="LWPOLYLINE-52" data-name="LWPOLYLINE"><polyline class="cls-7" points="25.46 109.08 29.21 109.08 29.21 111.64 25.46 111.64"/></g><g id="LINE-225" data-name="LINE"><polyline class="cls-7" points="25.22 115.39 37.46 115.39 37.46 114.34 25.28 114.34"/></g><g id="ELLIPSE-4" data-name="ELLIPSE"><path class="cls-5" d="M48.93,110.54c5,0,9,5.87,9,13.12s-4,13.13-9,13.13-9-5.88-9-13.13,4-13.12,9-13.12Z" transform="translate(-9.53 -8.73)"/></g><g id="SPLINE"><path class="cls-5" d="M490.83,197.87s0,.07,0,.11,0,0,0,.06a.08.08,0,0,0,0,.05.31.31,0,0,0,.05.1.1.1,0,0,0,0,.05l0,0,.09.08.11,0,.05,0,.06,0h.11" transform="translate(-9.53 -8.73)"/></g><g id="SPLINE-2" data-name="SPLINE"><path class="cls-5" d="M491.42,179.33h-.11l-.06,0h-.05l-.11.06,0,0-.05,0-.07.09a.47.47,0,0,0-.05.1.14.14,0,0,0,0,.06s0,0,0,.05,0,.08,0,.12" transform="translate(-9.53 -8.73)"/></g><g id="SPLINE-3" data-name="SPLINE"><path class="cls-5" d="M520.08,179.92a.49.49,0,0,0,0-.12.43.43,0,0,1,0-.05l0-.06a.53.53,0,0,0-.06-.1l0,0,0-.05-.09-.07-.1-.05-.05,0-.06,0h-.12" transform="translate(-9.53 -8.73)"/></g><g id="SPLINE-4" data-name="SPLINE"><path class="cls-5" d="M519.49,198.46h.12l.06,0,.05,0,.1,0,0,0s0,0,0,0a.27.27,0,0,0,.07-.08.6.6,0,0,0,.06-.11s0,0,0-.05,0,0,0-.06a.41.41,0,0,0,0-.11" transform="translate(-9.53 -8.73)"/></g><g id="ELLIPSE-5" data-name="ELLIPSE"><path class="cls-5" d="M520.08,197.87v-.05" transform="translate(-9.53 -8.73)"/></g><g id="ELLIPSE-6" data-name="ELLIPSE"><path class="cls-5" d="M520.08,180v-.05" transform="translate(-9.53 -8.73)"/></g><g id="LINE-226" data-name="LINE"><line class="cls-5" x1="510.56" y1="189.09" x2="510.56" y2="171.23"/></g><g id="ELLIPSE-7" data-name="ELLIPSE"><path class="cls-5" d="M490.83,197.82v.05" transform="translate(-9.53 -8.73)"/></g><g id="LINE-227" data-name="LINE"><line class="cls-5" x1="481.31" y1="189.09" x2="481.31" y2="171.23"/></g><g id="ELLIPSE-8" data-name="ELLIPSE"><path class="cls-5" d="M490.83,179.92V180" transform="translate(-9.53 -8.73)"/></g><g id="LINE-228" data-name="LINE"><line class="cls-5" x1="481.94" y1="170.6" x2="509.92" y2="170.6"/></g><g id="ELLIPSE-9" data-name="ELLIPSE"><path class="cls-5" d="M491.42,198.46h.05" transform="translate(-9.53 -8.73)"/></g><g id="ELLIPSE-10" data-name="ELLIPSE"><path class="cls-5" d="M519.45,198.46h0" transform="translate(-9.53 -8.73)"/></g><g id="LINE-229" data-name="LINE"><line class="cls-5" x1="481.94" y1="189.72" x2="509.92" y2="189.72"/></g><g id="CIRCLE-7" data-name="CIRCLE"><path class="cls-5" d="M505.46,187.58a1.32,1.32,0,1,1-1.32,1.31,1.31,1.31,0,0,1,1.32-1.31Z" transform="translate(-9.53 -8.73)"/></g><g id="CIRCLE-8" data-name="CIRCLE"><path class="cls-5" d="M505.46,187a1.92,1.92,0,1,1-1.92,1.91,1.92,1.92,0,0,1,1.92-1.91Z" transform="translate(-9.53 -8.73)"/></g><g id="LWPOLYLINE-53" data-name="LWPOLYLINE"><polyline class="cls-5" points="494.81 194 494.34 194 494.34 197.19 497.52 197.19 497.52 194 497.06 194"/></g><g id="LWPOLYLINE-54" data-name="LWPOLYLINE"><rect class="cls-7" x="494.81" y="183.78" width="2.25" height="12"/></g><g id="LWPOLYLINE-55" data-name="LWPOLYLINE"><rect class="cls-5" x="500.34" y="194" width="3.19" height="3.19"/></g><g id="LWPOLYLINE-56" data-name="LWPOLYLINE"><rect class="cls-5" x="488.34" y="194" width="3.19" height="3.19"/></g><g id="LWPOLYLINE-57" data-name="LWPOLYLINE"><rect class="cls-5" x="488.34" y="195.18" width="3.19" height="0.83"/></g><g id="LWPOLYLINE-58" data-name="LWPOLYLINE"><rect class="cls-5" x="500.34" y="195.18" width="3.19" height="0.83"/></g><g id="SPLINE-5" data-name="SPLINE"><path class="cls-5" d="M466.83,197.87a.41.41,0,0,1,0,.11s0,0,0,.06,0,0,0,.05a.33.33,0,0,1-.06.1l0,.05,0,0-.09.08-.1,0-.05,0-.06,0h-.12" transform="translate(-9.53 -8.73)"/></g><g id="SPLINE-6" data-name="SPLINE"><path class="cls-5" d="M466.24,179.33h.12l.06,0h.05l.1.06.05,0,0,0,.07.09a.53.53,0,0,1,.06.1l0,.06a.43.43,0,0,0,0,.05.49.49,0,0,1,0,.12" transform="translate(-9.53 -8.73)"/></g><g id="SPLINE-7" data-name="SPLINE"><path class="cls-5" d="M437.58,179.92s0-.08,0-.12,0,0,0-.05a.14.14,0,0,1,0-.06.47.47,0,0,1,.05-.1s0,0,0,0l0-.05.09-.07.11-.05.05,0,.06,0h.11" transform="translate(-9.53 -8.73)"/></g><g id="SPLINE-8" data-name="SPLINE"><path class="cls-5" d="M438.17,198.46h-.11l-.06,0-.05,0-.11,0s0,0,0,0l-.05,0-.07-.08a.54.54,0,0,1-.05-.11.08.08,0,0,1,0-.05s0,0,0-.06,0-.07,0-.11" transform="translate(-9.53 -8.73)"/></g><g id="ELLIPSE-11" data-name="ELLIPSE"><path class="cls-5" d="M437.58,197.87v-.05" transform="translate(-9.53 -8.73)"/></g><g id="ELLIPSE-12" data-name="ELLIPSE"><path class="cls-5" d="M437.58,180v-.05" transform="translate(-9.53 -8.73)"/></g><g id="LINE-230" data-name="LINE"><line class="cls-5" x1="428.06" y1="189.09" x2="428.06" y2="171.23"/></g><g id="ELLIPSE-13" data-name="ELLIPSE"><path class="cls-5" d="M466.83,197.82v.05" transform="translate(-9.53 -8.73)"/></g><g id="LINE-231" data-name="LINE"><line class="cls-5" x1="457.31" y1="189.09" x2="457.31" y2="171.23"/></g><g id="ELLIPSE-14" data-name="ELLIPSE"><path class="cls-5" d="M466.83,179.92V180" transform="translate(-9.53 -8.73)"/></g><g id="LINE-232" data-name="LINE"><line class="cls-5" x1="456.67" y1="170.6" x2="428.69" y2="170.6"/></g><g id="ELLIPSE-15" data-name="ELLIPSE"><path class="cls-5" d="M466.24,198.46h0" transform="translate(-9.53 -8.73)"/></g><g id="ELLIPSE-16" data-name="ELLIPSE"><path class="cls-5" d="M438.22,198.46h-.05" transform="translate(-9.53 -8.73)"/></g><g id="LINE-233" data-name="LINE"><line class="cls-5" x1="456.67" y1="189.72" x2="428.69" y2="189.72"/></g><g id="CIRCLE-9" data-name="CIRCLE"><path class="cls-5" d="M452.21,187.58a1.32,1.32,0,1,1-1.32,1.31,1.31,1.31,0,0,1,1.32-1.31Z" transform="translate(-9.53 -8.73)"/></g><g id="CIRCLE-10" data-name="CIRCLE"><path class="cls-5" d="M452.21,187a1.92,1.92,0,1,1-1.92,1.91,1.92,1.92,0,0,1,1.92-1.91Z" transform="translate(-9.53 -8.73)"/></g><g id="LWPOLYLINE-59" data-name="LWPOLYLINE"><polyline class="cls-5" points="443.81 194 444.27 194 444.27 197.19 441.09 197.19 441.09 194 441.56 194"/></g><g id="LWPOLYLINE-60" data-name="LWPOLYLINE"><rect class="cls-7" x="441.56" y="183.78" width="2.25" height="12"/></g><g id="LWPOLYLINE-61" data-name="LWPOLYLINE"><rect class="cls-5" x="435.09" y="194" width="3.19" height="3.19"/></g><g id="LWPOLYLINE-62" data-name="LWPOLYLINE"><rect class="cls-5" x="447.09" y="194" width="3.19" height="3.19"/></g><g id="LWPOLYLINE-63" data-name="LWPOLYLINE"><rect class="cls-5" x="447.09" y="195.18" width="3.19" height="0.83"/></g><g id="LWPOLYLINE-64" data-name="LWPOLYLINE"><rect class="cls-5" x="435.09" y="195.18" width="3.19" height="0.83"/></g><g id="LWPOLYLINE-65" data-name="LWPOLYLINE"><rect class="cls-5" x="113.01" y="295.15" width="1.69" height="3"/></g><g id="LWPOLYLINE-66" data-name="LWPOLYLINE"><polyline class="cls-5" points="113.01 295.33 112.54 295.33 112.54 297.96 113.01 297.96"/></g><g id="LWPOLYLINE-67" data-name="LWPOLYLINE"><polyline class="cls-5" points="114.7 297.96 115.17 297.96 115.17 295.33 114.7 295.33"/></g><g id="LINE-234" data-name="LINE"><line class="cls-5" x1="114.7" y1="295.53" x2="113.01" y2="295.53"/></g><g id="CIRCLE-11" data-name="CIRCLE"><path class="cls-5" d="M135.38,306.51a1.13,1.13,0,1,0,0-2.25,1.13,1.13,0,0,0,0,2.25Z" transform="translate(-9.53 -8.73)"/></g><g id="LWPOLYLINE-68" data-name="LWPOLYLINE"><polyline class="cls-5" points="119.1 295.33 118.54 295.33 118.54 297.96 121.17 297.96 121.17 295.33 120.6 295.33"/></g><g id="LWPOLYLINE-69" data-name="LWPOLYLINE"><polyline class="cls-5" points="125.57 295.33 124.54 295.33 124.54 297.96 127.17 297.96 127.17 295.33 126.14 295.33"/></g><g id="LWPOLYLINE-70" data-name="LWPOLYLINE"><polyline class="cls-5" points="125.57 295.56 125.57 293.75 126.14 293.75 126.14 295.56"/></g><rect class="cls-5" x="143.09" y="303.21" width="4.33" height="4.31" transform="translate(-169.64 441.89) rotate(-90)"/><g id="LWPOLYLINE-71" data-name="LWPOLYLINE"><rect class="cls-5" x="119.1" y="283.9" width="1.5" height="13.5"/></g><g id="LWPOLYLINE-72" data-name="LWPOLYLINE"><polyline class="cls-5" points="119.1 293.65 97.35 293.65 97.35 268.15 142.35 268.15 142.35 293.65 120.6 293.65"/></g><rect class="cls-5" x="145.74" y="304.76" width="0.8" height="1.19" transform="translate(-168.74 442.76) rotate(-90)"/><line class="cls-5" x1="137.52" y1="297.14" x2="137.52" y2="296.1"/><rect class="cls-7" x="138.21" y="299.02" width="12.16" height="1.7" transform="translate(-165.11 435.43) rotate(-90)"/></g><g id="APPLIANCES"><g id="LWPOLYLINE-73" data-name="LWPOLYLINE"><rect class="cls-6" x="129.99" y="29.22" width="35.25" height="33.75"/></g><g id="LWPOLYLINE-74" data-name="LWPOLYLINE"><polyline class="cls-6" points="136.18 62.97 136.18 64.09 159.05 64.09 159.05 62.97"/></g><g id="LINE-235" data-name="LINE"><line class="cls-12" x1="180.45" y1="298.9" x2="180.45" y2="265.2"/></g><g id="LINE-236" data-name="LINE"><line class="cls-12" x1="145.11" y1="298.9" x2="145.11" y2="265.2"/></g><g id="LINE-237" data-name="LINE"><line class="cls-12" x1="145.11" y1="298.9" x2="180.45" y2="298.9"/></g><line class="cls-10" x1="63.4" y1="150.31" x2="63.4" y2="192.15"/><path class="cls-5" d="M119.93,177.54a2.38,2.38,0,1,1,2.37-2.38A2.38,2.38,0,0,1,119.93,177.54Z" transform="translate(-9.53 -8.73)"/><path class="cls-5" d="M137.6,177.54a2.38,2.38,0,1,1,2.38-2.38A2.39,2.39,0,0,1,137.6,177.54Z" transform="translate(-9.53 -8.73)"/><path class="cls-5" d="M119.93,192.81a2.38,2.38,0,1,1,2.37-2.37A2.37,2.37,0,0,1,119.93,192.81Z" transform="translate(-9.53 -8.73)"/><path class="cls-5" d="M137.6,192.81a2.38,2.38,0,1,1,2.38-2.37A2.38,2.38,0,0,1,137.6,192.81Z" transform="translate(-9.53 -8.73)"/><line class="cls-5" x1="119.16" y1="189.3" x2="101.64" y2="174.1"/><g id="LINE-238" data-name="LINE"><line class="cls-5" x1="119.16" y1="190.06" x2="119.16" y2="158"/></g><rect class="cls-5" x="101.64" y="158.75" width="35.35" height="30.56"/><line class="cls-5" x1="101.64" y1="174.1" x2="136.99" y2="174.1"/><g id="CIRCLE-12" data-name="CIRCLE"><path class="cls-5" d="M150,181a1.37,1.37,0,1,1,1.37,1.37A1.36,1.36,0,0,1,150,181Z" transform="translate(-9.53 -8.73)"/></g><g id="CIRCLE-13" data-name="CIRCLE"><path class="cls-5" d="M150,185.57a1.37,1.37,0,1,1,1.37,1.37,1.36,1.36,0,0,1-1.37-1.37Z" transform="translate(-9.53 -8.73)"/></g><g id="CIRCLE-14" data-name="CIRCLE"><path class="cls-5" d="M150,190.19a1.37,1.37,0,1,1,1.37,1.37,1.36,1.36,0,0,1-1.37-1.37Z" transform="translate(-9.53 -8.73)"/></g><g id="CIRCLE-15" data-name="CIRCLE"><path class="cls-5" d="M150,194.6a1.37,1.37,0,1,1,1.37,1.36A1.37,1.37,0,0,1,150,194.6Z" transform="translate(-9.53 -8.73)"/></g><rect class="cls-5" x="100.41" y="158" width="44.99" height="32.07"/><line class="cls-5" x1="101.64" y1="189.3" x2="119.16" y2="174.1"/><line class="cls-5" x1="136.99" y1="158.75" x2="119.16" y2="174.1"/><line class="cls-5" x1="119.16" y1="158.75" x2="136.99" y2="174.1"/><line class="cls-5" x1="101.64" y1="158.75" x2="119.16" y2="174.1"/><line class="cls-5" x1="101.64" y1="174.1" x2="119.16" y2="158.75"/><line class="cls-5" x1="136.99" y1="189.3" x2="119.16" y2="174.1"/><line class="cls-5" x1="136.99" y1="174.1" x2="119.16" y2="189.3"/></g><g id="SILLS"><g id="LINE-239" data-name="LINE"><line class="cls-13" x1="69.66" y1="636.47" x2="523.7" y2="662.61"/></g><line class="cls-13" x1="522.92" y1="634.17" x2="68.77" y2="607.6"/></g><g id="WINDOW_GLAZING" data-name="WINDOW GLAZING"><g id="LINE-240" data-name="LINE"><line class="cls-14" x1="348.3" y1="638.43" x2="405.06" y2="641.79"/></g><g id="LINE-241" data-name="LINE"><line class="cls-14" x1="404.97" y1="643.36" x2="348.2" y2="639.99"/></g><g id="LINE-242" data-name="LINE"><line class="cls-14" x1="448.7" y1="644.16" x2="505.47" y2="647.53"/></g><g id="LINE-243" data-name="LINE"><line class="cls-14" x1="505.37" y1="649.09" x2="448.61" y2="645.72"/></g><g id="LINE-244" data-name="LINE"><line class="cls-14" x1="78.78" y1="622.85" x2="135.54" y2="626.22"/></g><g id="LINE-245" data-name="LINE"><line class="cls-14" x1="135.45" y1="627.78" x2="78.68" y2="624.41"/></g><g id="LINE-246" data-name="LINE"><line class="cls-14" x1="179.18" y1="628.58" x2="235.95" y2="631.95"/></g><g id="LINE-247" data-name="LINE"><line class="cls-14" x1="235.85" y1="633.51" x2="179.09" y2="630.15"/></g></g><g id="MULLIONS"><g id="LWPOLYLINE-75" data-name="LWPOLYLINE"><rect class="cls-15" x="78.35" y="630.18" width="8.62" height="3.56" transform="translate(-562.65 667.76) rotate(-86.55)"/></g><g id="LWPOLYLINE-76" data-name="LWPOLYLINE"><rect class="cls-15" x="85.1" y="629.88" width="2.62" height="3.94" transform="translate(-559.02 671.4) rotate(-86.55)"/></g><g id="LWPOLYLINE-77" data-name="LWPOLYLINE"><line class="cls-13" x1="179.16" y1="628.66" x2="179.11" y2="629.4"/></g><line class="cls-6" x1="325.62" y1="662.88" x2="53.71" y2="647.36"/><g id="LINE-248" data-name="LINE"><line class="cls-15" x1="142.29" y1="631.78" x2="74.54" y2="627.7"/></g><g id="LINE-249" data-name="LINE"><line class="cls-15" x1="142.29" y1="623.11" x2="74.54" y2="619.03"/></g><g id="LWPOLYLINE-78" data-name="LWPOLYLINE"><rect class="cls-15" x="78.23" y="630.24" width="8.62" height="3.56" transform="translate(-562.82 667.7) rotate(-86.55)"/></g><g id="LWPOLYLINE-79" data-name="LWPOLYLINE"><rect class="cls-15" x="146.49" y="634.32" width="8.62" height="3.56" transform="translate(-502.74 739.67) rotate(-86.55)"/></g><g id="LWPOLYLINE-80" data-name="LWPOLYLINE"><rect class="cls-15" x="84.98" y="629.94" width="2.62" height="3.94" transform="translate(-559.19 671.34) rotate(-86.55)"/></g><g id="LWPOLYLINE-81" data-name="LWPOLYLINE"><rect class="cls-15" x="145.75" y="633.66" width="2.62" height="3.94" transform="translate(-505.79 735.49) rotate(-86.55)"/></g><g id="LINE-250" data-name="LINE"><line class="cls-15" x1="242.7" y1="637.51" x2="174.94" y2="633.43"/></g><g id="LINE-251" data-name="LINE"><line class="cls-15" x1="242.7" y1="628.84" x2="174.94" y2="624.76"/></g><g id="LWPOLYLINE-82" data-name="LWPOLYLINE"><rect class="cls-15" x="178.64" y="635.97" width="8.62" height="3.56" transform="translate(-474.17 773.31) rotate(-86.55)"/></g><g id="LWPOLYLINE-83" data-name="LWPOLYLINE"><rect class="cls-15" x="246.9" y="640.05" width="8.62" height="3.56" transform="translate(-414.09 845.28) rotate(-86.55)"/></g><g id="LWPOLYLINE-84" data-name="LWPOLYLINE"><rect class="cls-15" x="185.38" y="635.68" width="2.62" height="3.94" transform="translate(-470.54 776.95) rotate(-86.55)"/></g><g id="LWPOLYLINE-85" data-name="LWPOLYLINE"><rect class="cls-15" x="246.16" y="639.39" width="2.62" height="3.94" transform="translate(-417.13 841.11) rotate(-86.55)"/></g><g id="LINE-252" data-name="LINE"><line class="cls-15" x1="411.81" y1="647.36" x2="344.06" y2="643.28"/></g><g id="LINE-253" data-name="LINE"><line class="cls-15" x1="411.81" y1="638.69" x2="344.06" y2="634.61"/></g><g id="LWPOLYLINE-86" data-name="LWPOLYLINE"><rect class="cls-15" x="347.76" y="645.82" width="8.62" height="3.56" transform="translate(-325.05 951.38) rotate(-86.55)"/></g><g id="LWPOLYLINE-87" data-name="LWPOLYLINE"><rect class="cls-15" x="416.01" y="649.9" width="8.62" height="3.56" transform="translate(-264.96 1023.35) rotate(-86.55)"/></g><g id="LWPOLYLINE-88" data-name="LWPOLYLINE"><rect class="cls-15" x="354.5" y="645.52" width="2.62" height="3.94" transform="translate(-321.42 955.01) rotate(-86.55)"/></g><g id="LWPOLYLINE-89" data-name="LWPOLYLINE"><rect class="cls-15" x="415.27" y="649.24" width="2.62" height="3.94" transform="translate(-268.01 1019.17) rotate(-86.55)"/></g><g id="LINE-254" data-name="LINE"><line class="cls-15" x1="511.84" y1="653.09" x2="444.09" y2="649.01"/></g><g id="LINE-255" data-name="LINE"><line class="cls-15" x1="512.22" y1="644.42" x2="444.47" y2="640.34"/></g><g id="LWPOLYLINE-90" data-name="LWPOLYLINE"><rect class="cls-15" x="448.16" y="651.55" width="8.62" height="3.56" transform="translate(-236.4 1056.99) rotate(-86.55)"/></g><g id="LWPOLYLINE-91" data-name="LWPOLYLINE"><rect class="cls-15" x="516.42" y="655.63" width="8.62" height="3.56" transform="translate(-176.31 1128.96) rotate(-86.55)"/></g><g id="LWPOLYLINE-92" data-name="LWPOLYLINE"><rect class="cls-15" x="454.9" y="651.25" width="2.62" height="3.94" transform="translate(-232.77 1060.62) rotate(-86.55)"/></g><g id="LWPOLYLINE-93" data-name="LWPOLYLINE"><rect class="cls-15" x="515.68" y="654.97" width="2.62" height="3.94" transform="translate(-179.36 1124.78) rotate(-86.55)"/></g></g><g id="DOOR_SWING" data-name="DOOR SWING"><g id="ARC-14" data-name="ARC"><path class="cls-6" d="M332.18,409a52.5,52.5,0,0,0,52.5-52.5" transform="translate(-9.53 -8.73)"/></g></g><g id="DOOR_SWING_MAIN" data-name="DOOR SWING MAIN"><g id="ARC-15" data-name="ARC"><path class="cls-13" d="M224.28,54.18a54,54,0,0,0,14.55,36.87" transform="translate(-9.53 -8.73)"/></g></g><g id="DOORS"><g id="LWPOLYLINE-94" data-name="LWPOLYLINE"><polygon class="cls-10" points="267.14 43.88 268.76 45.45 229.31 82.32 227.69 80.76 267.14 43.88"/></g><g id="LWPOLYLINE-95" data-name="LWPOLYLINE"><rect class="cls-10" x="322.65" y="347.77" width="52.5" height="2.25"/></g><g id="LWPOLYLINE-96" data-name="LWPOLYLINE"><polygon class="cls-10" points="109.92 82.65 112.17 82.54 112.17 135.04 109.92 135.15 109.92 82.65"/></g><g id="LWPOLYLINE-97" data-name="LWPOLYLINE"><rect class="cls-10" x="324.52" y="210.64" width="52.63" height="2.63"/></g><g id="LWPOLYLINE-98" data-name="LWPOLYLINE"><rect class="cls-10" x="319.86" y="231.09" width="2.63" height="45"/></g><g id="LWPOLYLINE-99" data-name="LWPOLYLINE"><rect class="cls-10" x="271.91" y="127.25" width="2.63" height="74.09"/></g><g id="LWPOLYLINE-100" data-name="LWPOLYLINE"><rect class="cls-10" x="124.11" y="71.26" width="45" height="2.63"/></g><g id="LWPOLYLINE-101" data-name="LWPOLYLINE"><rect class="cls-10" x="319.86" y="276.09" width="2.63" height="45"/></g><line class="cls-16" x1="271.91" y1="164.3" x2="274.53" y2="164.3"/></g><g id="WALL"><g id="LWPOLYLINE-102" data-name="LWPOLYLINE"><rect class="cls-17" x="153.1" y="622.14" width="26.97" height="28.5" transform="translate(-487.83 757.46) rotate(-86.71)"/></g><g id="LWPOLYLINE-103" data-name="LWPOLYLINE"><rect class="cls-17" x="422.64" y="637.64" width="27" height="28.5" transform="matrix(0.06, -1, 1, 0.06, -249.23, 1041.18)"/></g><g id="LWPOLYLINE-104" data-name="LWPOLYLINE"><polygon class="cls-17" points="23.4 97.14 23.4 100.14 16.73 100.14 16.73 89.04 52.75 89.04 52.75 34.97 109.94 34.97 109.94 82.73 117.45 82.73 117.45 73.98 124.19 73.98 124.19 66.48 120.44 66.48 120.44 24.48 174.44 24.29 174.44 66.48 169.19 66.48 169.19 73.98 181.88 73.98 181.88 45.54 214.84 45.54 214.84 36.54 181.94 36.54 181.91 15.54 43.75 15.54 43.75 80.04 0.29 80.04 0.25 273.28 40.29 273.28 40.29 452.86 11.76 452.86 11.76 644.81 28.15 645.76 32.34 646.13 56.06 647.5 56.74 635.38 70.17 636.16 72.8 590.27 17.81 587.12 17.81 461.86 49.29 461.86 49.29 264.28 9.25 264.28 9.27 198.18 16.77 198.18 16.73 156.02 174.37 156.13 174.38 198.21 181.88 198.21 181.88 141.17 117.5 141.23 117.5 135.23 109.94 135.23 109.94 141.23 16.73 141.23 16.73 130.14 23.4 130.14 23.4 133.14 24.9 133.14 24.9 97.14 23.4 97.14"/></g><g id="LWPOLYLINE-105" data-name="LWPOLYLINE"><polygon class="cls-17" points="249.25 646.52 249.25 646.49 254.43 646.76 253.74 658.76 277.01 660.1 277.01 660.09 294.41 661.09 294.41 661.1 325.62 662.88 326.3 650.89 339.73 651.68 340.1 645.1 340.4 639.82 342.36 605.76 322.73 604.59 322.73 400.36 315.23 400.36 315.23 419.86 271.75 419.86 271.75 461.86 315.23 461.86 315.23 604.16 245.02 600.17 242.38 646.12 249.25 646.52"/></g><polygon class="cls-17" points="431.9 215.04 582.51 215.04 582.5 15.55 274.85 15.4 274.85 36.54 268.85 36.54 268.85 45.54 271.77 45.54 271.75 127.28 279.25 127.28 279.26 119.83 330.4 119.83 330.41 205.89 279.27 205.89 279.27 200.61 271.77 200.61 271.77 341.86 315.25 341.86 315.24 347.86 322.74 347.86 322.78 321.18 315.27 321.18 315.27 334.36 279.27 334.36 279.27 218 315.28 218 315.28 231.18 322.78 231.18 322.78 218 348.24 218 348.24 214.06 291.74 214.06 291.74 209.94 348.24 209.94 348.24 197.84 338.08 197.83 338.06 78.54 307.99 78.54 307.99 24.54 407.02 24.54 407.02 84.5 414.58 84.5 414.58 24.54 511.25 24.54 511.25 27.54 517.25 27.54 517.25 45.54 511.25 45.54 511.25 78.54 468.13 78.54 468.13 86.07 528.58 86.04 528.91 206.04 411.43 206.04 411.43 198.83 400.58 198.83 400.58 206.04 400.58 209.5 400.58 218 412.4 218.02 412.4 404.04 523.59 404.04 523.59 616.18 514.59 615.66 513.15 640.75 511.95 661.59 526.25 662.41 526.42 659.42 532.55 659.8 532.55 396.54 431.9 396.54 431.9 215.04"/></g><g id="OUTLINE"><g id="MTEXT"><path class="cls-18" d="M167.41,179.89l1.35,5.08,1.31-5.08h.79l-1.69,6.39h-.75l-1.34-5-1.37,5H165l-1.69-6.39h.81L165.4,185l1.35-5.08Z" transform="translate(-9.53 -8.73)"/><path class="cls-18" d="M172.64,183.57v2.71h-.82v-6.39h2.37c1.28,0,2.09.64,2.09,1.85a1.69,1.69,0,0,1-1.62,1.8l1.88,2.74h-.94l-1.83-2.71Zm0-.7h1.53c.84,0,1.3-.42,1.3-1.13s-.46-1.13-1.3-1.13h-1.53Z" transform="translate(-9.53 -8.73)"/></g><g id="MTEXT-2" data-name="MTEXT"><path class="cls-18" d="M44.33,183.57v2.71h-.82v-6.39h2.37c1.28,0,2.09.64,2.09,1.85a1.69,1.69,0,0,1-1.62,1.8l1.88,2.74h-.94l-1.83-2.71Zm0-.7h1.53c.84,0,1.3-.42,1.3-1.13s-.46-1.13-1.3-1.13H44.33Z" transform="translate(-9.53 -8.73)"/><path class="cls-18" d="M51.12,179.51h.78l-2.58,7.64h-.78Z" transform="translate(-9.53 -8.73)"/><path class="cls-18" d="M52.71,186.28v-6.39h3.9v.73H53.53v2.15h2.89v.73H53.53v2.78Z" transform="translate(-9.53 -8.73)"/></g><g id="MTEXT-3" data-name="MTEXT"><path class="cls-18" d="M166.66,287.74h2.05a3.2,3.2,0,0,1,0,6.39h-2.05Zm2,5.65a2.47,2.47,0,0,0,0-4.92h-1.22v4.92Z" transform="translate(-9.53 -8.73)"/><path class="cls-18" d="M176.49,287.74l1.35,5.08,1.31-5.08h.79l-1.69,6.39h-.75l-1.35-5-1.36,5h-.74l-1.7-6.39h.82l1.31,5.08,1.35-5.08Z" transform="translate(-9.53 -8.73)"/></g><g id="MTEXT-4" data-name="MTEXT"><path class="cls-18" d="M153.3,52,154.65,57,156,52h.8l-1.7,6.39h-.75l-1.34-5-1.37,5h-.73L149.17,52H150L151.29,57,152.65,52Z" transform="translate(-9.53 -8.73)"/><path class="cls-18" d="M159.4,51.59h.78l-2.58,7.64h-.78Z" transform="translate(-9.53 -8.73)"/><path class="cls-18" d="M161,52h2a3.2,3.2,0,0,1,0,6.39h-2Zm2,5.66a2.47,2.47,0,0,0,0-4.93h-1.21v4.93Z" transform="translate(-9.53 -8.73)"/></g><g id="MTEXT-5" data-name="MTEXT"><path class="cls-18" d="M242.31,8.73v.73h-3.26v2H242v.73h-2.95v2.17h3.26v.74h-4.07V8.73Z" transform="translate(-9.53 -8.73)"/><path class="cls-18" d="M248.56,15.12H248l-3.57-5.07v5.07h-.79V8.73h.78l3.41,4.86V8.73h.78Z" transform="translate(-9.53 -8.73)"/><path class="cls-18" d="M249.63,8.73h5.27v.73h-2.23v5.66h-.82V9.46h-2.22Z" transform="translate(-9.53 -8.73)"/><path class="cls-18" d="M256.79,12.42v2.7H256V8.73h2.37c1.28,0,2.09.65,2.09,1.86a1.69,1.69,0,0,1-1.62,1.8l1.88,2.73h-.93l-1.83-2.7Zm0-.7h1.53c.84,0,1.3-.43,1.3-1.13s-.46-1.14-1.3-1.14h-1.53Z" transform="translate(-9.53 -8.73)"/><path class="cls-18" d="M265.58,8.73h.88l-2.34,3.76v2.63h-.81V12.49L261,8.73h.9l1.84,3Z" transform="translate(-9.53 -8.73)"/></g><polygon class="cls-18" points="242.87 26.42 249.94 14.22 235.8 14.22 235.8 14.22 242.87 26.42"/><path class="cls-18" d="M396.26,517.76l-2-4.87v4.87h-.78v-6.39h.93l2.16,5.25,2.15-5.25h.9v6.39h-.78v-4.87l-2,4.87Z" transform="translate(-9.53 -8.73)"/><path class="cls-18" d="M403.84,511.37l2.5,6.39h-.83l-.74-1.92h-2.64l-.72,1.92h-.84l2.5-6.39Zm-1.43,3.75h2.08l-1-2.73Z" transform="translate(-9.53 -8.73)"/><path class="cls-18" d="M407.59,516.1a1.58,1.58,0,0,0,1.63,1.06c.83,0,1.41-.41,1.41-1.11,0-.5-.28-.82-1-1l-1.14-.3c-.89-.23-1.53-.68-1.53-1.65a1.89,1.89,0,0,1,2.1-1.81,2.18,2.18,0,0,1,2.34,1.69h-.82a1.46,1.46,0,0,0-1.52-1c-.76,0-1.32.39-1.32,1s.35.8,1,1l1.09.28c1,.26,1.59.81,1.59,1.72,0,1.15-.93,1.85-2.2,1.85a2.3,2.3,0,0,1-2.46-1.76Z" transform="translate(-9.53 -8.73)"/><path class="cls-18" d="M412,511.37h5.28v.73h-2.23v5.66h-.82V512.1H412Z" transform="translate(-9.53 -8.73)"/><path class="cls-18" d="M422.42,511.37v.73h-3.26v2h2.95v.73h-2.95V517h3.26v.73h-4.07v-6.39Z" transform="translate(-9.53 -8.73)"/><path class="cls-18" d="M424.53,515.06v2.7h-.83v-6.39h2.38c1.28,0,2.09.65,2.09,1.86a1.7,1.7,0,0,1-1.63,1.8l1.89,2.73h-.94l-1.83-2.7Zm0-.7h1.52c.85,0,1.31-.42,1.31-1.13s-.46-1.14-1.31-1.14h-1.52Z" transform="translate(-9.53 -8.73)"/><path class="cls-18" d="M436.17,516c0,1.17-.81,1.8-2.12,1.8h-2.31v-6.39h2.1c1.33,0,2.12.6,2.12,1.7a1.36,1.36,0,0,1-.94,1.38A1.54,1.54,0,0,1,436.17,516Zm-2.33-1.81c.86,0,1.33-.34,1.33-1s-.47-1-1.33-1h-1.3v2.06Zm-1.3,2.9h1.51c.87,0,1.32-.44,1.32-1.11s-.45-1.1-1.32-1.1h-1.51Z" transform="translate(-9.53 -8.73)"/><path class="cls-18" d="M441.41,511.37v.73h-3.26v2h3v.73h-3V517h3.26v.73h-4.07v-6.39Z" transform="translate(-9.53 -8.73)"/><path class="cls-18" d="M442.69,511.37h2.05a3.2,3.2,0,0,1,0,6.39h-2.05Zm2,5.66a2.47,2.47,0,0,0,0-4.93h-1.21V517Z" transform="translate(-9.53 -8.73)"/><path class="cls-18" d="M449.81,515.06v2.7H449v-6.39h2.37c1.28,0,2.09.65,2.09,1.86a1.69,1.69,0,0,1-1.62,1.8l1.88,2.73h-.94l-1.83-2.7Zm0-.7h1.53c.84,0,1.3-.42,1.3-1.13s-.46-1.14-1.3-1.14h-1.53Z" transform="translate(-9.53 -8.73)"/><path class="cls-18" d="M457.21,517.86a3.32,3.32,0,1,1,2.9-3.29A3,3,0,0,1,457.21,517.86Zm0-5.84c-1.23,0-2.06,1.05-2.06,2.55s.83,2.55,2.06,2.55,2.07-1,2.07-2.55S458.45,512,457.21,512Z" transform="translate(-9.53 -8.73)"/><path class="cls-18" d="M463.81,517.86a3.32,3.32,0,1,1,2.89-3.29A3,3,0,0,1,463.81,517.86Zm0-5.84c-1.23,0-2.06,1.05-2.06,2.55s.83,2.55,2.06,2.55,2.07-1,2.07-2.55S465,512,463.81,512Z" transform="translate(-9.53 -8.73)"/><path class="cls-18" d="M470.64,517.76l-2-4.87v4.87h-.78v-6.39h.93l2.16,5.25,2.15-5.25h.9v6.39h-.78v-4.87l-2,4.87Z" transform="translate(-9.53 -8.73)"/><path class="cls-18" d="M411,529h-.8v-5.42l-1.58.82v-.84l1.89-1H411Z" transform="translate(-9.53 -8.73)"/><path class="cls-18" d="M414.16,523.2a1.23,1.23,0,0,0-1.25,1.28h-.84a2.06,2.06,0,0,1,2.09-2,1.74,1.74,0,0,1,1.94,1.8c0,.81-.64,1.45-1.29,2.18l-1.62,1.78h3.05V529h-4.17v-.55l2.06-2.26c.66-.73,1.18-1.26,1.18-1.87A1,1,0,0,0,414.16,523.2Z" transform="translate(-9.53 -8.73)"/><path class="cls-18" d="M417.5,523.54a.5.5,0,0,1-.45-.52.56.56,0,1,1,1.11.06,1.31,1.31,0,0,1-.23.65l-.53.89h-.53Z" transform="translate(-9.53 -8.73)"/><path class="cls-18" d="M418.83,525.88h2.51v.72h-2.51Z" transform="translate(-9.53 -8.73)"/><path class="cls-18" d="M425.87,524.05a1.16,1.16,0,0,0-1.18-.9c-.93,0-1.61,1.07-1.61,2.44,0,.07,0,.22,0,.29a1.66,1.66,0,0,1,1.61-1.1,2.14,2.14,0,1,1-2,3.05,4.33,4.33,0,0,1-.38-2c0-2.08,1-3.41,2.34-3.41a1.89,1.89,0,0,1,2,1.58Zm-1.23,4.3a1.35,1.35,0,0,0,1.37-1.43,1.38,1.38,0,1,0-1.37,1.43Z" transform="translate(-9.53 -8.73)"/><path class="cls-18" d="M427.48,522.57h.68v2.28h-.68Zm1.24,0h.68v2.28h-.68Z" transform="translate(-9.53 -8.73)"/><path class="cls-18" d="M434.88,526.56l1.72,2.4h-.88l-1.28-1.81L433.15,529h-.85l1.71-2.37-1.61-2.25h.89l1.17,1.65,1.19-1.65h.86Z" transform="translate(-9.53 -8.73)"/><path class="cls-18" d="M441.73,529h-.8v-5.42l-1.59.82v-.84l1.9-1h.49Z" transform="translate(-9.53 -8.73)"/><path class="cls-18" d="M445.15,529h-.8v-5.42l-1.58.82v-.84l1.89-1h.49Z" transform="translate(-9.53 -8.73)"/><path class="cls-18" d="M446.34,522.57h.71v2.28h-.71Z" transform="translate(-9.53 -8.73)"/><path class="cls-18" d="M447.88,525.88h2.51v.72h-2.51Z" transform="translate(-9.53 -8.73)"/><path class="cls-18" d="M452.93,523.2a1.23,1.23,0,0,0-1.25,1.28h-.84a2.06,2.06,0,0,1,2.09-2,1.74,1.74,0,0,1,1.94,1.8c0,.81-.64,1.45-1.29,2.18L452,528.23H455V529h-4.17v-.55l2.06-2.26c.66-.73,1.18-1.26,1.18-1.87A1,1,0,0,0,452.93,523.2Z" transform="translate(-9.53 -8.73)"/><path class="cls-18" d="M455.73,522.57h.69v2.28h-.69Zm1.24,0h.69v2.28H457Z" transform="translate(-9.53 -8.73)"/><path class="cls-18" d="M154.24,474.2v-.7h2.31v.43a2.58,2.58,0,0,1-2.64,2.81,3.31,3.31,0,0,1,0-6.57,2.41,2.41,0,0,1,2.52,2h-.82a1.67,1.67,0,0,0-1.7-1.22c-1.23,0-2.09,1-2.09,2.55s.85,2.56,2.12,2.56a1.78,1.78,0,0,0,1.86-1.82Z" transform="translate(-9.53 -8.73)"/><path class="cls-18" d="M158.51,473.94v2.71h-.82v-6.39h2.37c1.28,0,2.09.65,2.09,1.85a1.69,1.69,0,0,1-1.62,1.8l1.88,2.74h-.93l-1.83-2.71Zm0-.69H160c.84,0,1.3-.43,1.3-1.14S160.88,471,160,471h-1.53Z" transform="translate(-9.53 -8.73)"/><path class="cls-18" d="M167.5,470.26V471h-3.26v2h3v.73h-3v2.17h3.26v.74h-4.07v-6.39Z" transform="translate(-9.53 -8.73)"/><path class="cls-18" d="M171.51,470.26l2.5,6.39h-.83l-.74-1.92h-2.63l-.73,1.92h-.84l2.5-6.39ZM170.08,474h2.08l-1-2.73Z" transform="translate(-9.53 -8.73)"/><path class="cls-18" d="M174,470.26h5.28V471H177v5.66h-.82V471H174Z" transform="translate(-9.53 -8.73)"/><path class="cls-18" d="M183.43,473.94v2.71h-.82v-6.39H185c1.28,0,2.09.65,2.09,1.85a1.69,1.69,0,0,1-1.62,1.8l1.88,2.74h-.94l-1.83-2.71Zm0-.69H185c.84,0,1.3-.43,1.3-1.14S185.8,471,185,471h-1.53Z" transform="translate(-9.53 -8.73)"/><path class="cls-18" d="M190.83,476.74a3.31,3.31,0,1,1,2.9-3.28A3,3,0,0,1,190.83,476.74Zm0-5.83c-1.22,0-2.06,1-2.06,2.55s.84,2.54,2.06,2.54,2.08-1.05,2.08-2.54S192.07,470.91,190.83,470.91Z" transform="translate(-9.53 -8.73)"/><path class="cls-18" d="M197.43,476.74a3,3,0,0,1-2.88-3.28c0-1.94,1.2-3.29,2.88-3.29a3.31,3.31,0,0,1,0,6.57Zm0-5.83c-1.23,0-2.06,1-2.06,2.55s.83,2.54,2.06,2.54,2.07-1.05,2.07-2.54S198.67,470.91,197.43,470.91Z" transform="translate(-9.53 -8.73)"/><path class="cls-18" d="M204.26,476.65l-2-4.87v4.87h-.78v-6.39h.93l2.16,5.25,2.16-5.25h.89v6.39h-.78v-4.87l-2,4.87Z" transform="translate(-9.53 -8.73)"/><path class="cls-18" d="M156.91,482.09a1.23,1.23,0,0,0-1.25,1.28h-.84a2.06,2.06,0,0,1,2.09-2,1.75,1.75,0,0,1,2,1.8c0,.81-.65,1.45-1.29,2.17l-1.63,1.78H159v.73h-4.17v-.54l2.06-2.27c.66-.73,1.19-1.26,1.19-1.86A1,1,0,0,0,156.91,482.09Z" transform="translate(-9.53 -8.73)"/><path class="cls-18" d="M160.65,485H160v-3.51h3.49v.73h-2.81v1.93a1.8,1.8,0,0,1,1.17-.41,2,2,0,0,1,2,2.12,2,2,0,0,1-2.07,2.12,2.08,2.08,0,0,1-2.2-1.92h.8a1.33,1.33,0,0,0,1.4,1.21,1.41,1.41,0,0,0,0-2.82A1.48,1.48,0,0,0,160.65,485Z" transform="translate(-9.53 -8.73)"/><path class="cls-18" d="M165,482.43a.51.51,0,0,1-.46-.52.56.56,0,1,1,1.12,0,1.42,1.42,0,0,1-.23.66l-.53.88h-.53Z" transform="translate(-9.53 -8.73)"/><path class="cls-18" d="M166.36,484.76h2.51v.73h-2.51Z" transform="translate(-9.53 -8.73)"/><path class="cls-18" d="M170.45,485.71h2v-1.54h.76v1.54h1.12v.69h-1.12v1.44h-.76V486.4h-3v-.59l2.46-4.36h.83Z" transform="translate(-9.53 -8.73)"/><path class="cls-18" d="M174.51,481.45h.68v2.28h-.68Zm1.23,0h.69v2.28h-.69Z" transform="translate(-9.53 -8.73)"/><path class="cls-18" d="M181.91,485.45l1.72,2.39h-.89l-1.28-1.8-1.29,1.8h-.84l1.71-2.36-1.62-2.26h.9l1.16,1.66,1.2-1.66h.85Z" transform="translate(-9.53 -8.73)"/><path class="cls-18" d="M188.75,487.84H188v-5.41l-1.58.81v-.83l1.89-1h.49Z" transform="translate(-9.53 -8.73)"/><path class="cls-18" d="M193.47,482.94a1.16,1.16,0,0,0-1.18-.9c-.94,0-1.61,1.07-1.61,2.44,0,.06,0,.22,0,.28a1.67,1.67,0,0,1,1.61-1.09,2,2,0,0,1,2.07,2.12,2.13,2.13,0,0,1-4.05.93,4.49,4.49,0,0,1-.37-2c0-2.07,1-3.4,2.34-3.4a1.89,1.89,0,0,1,2,1.58Zm-1.23,4.3a1.45,1.45,0,1,0-1.39-1.44A1.35,1.35,0,0,0,192.24,487.24Z" transform="translate(-9.53 -8.73)"/><path class="cls-18" d="M195.08,481.45h.7v2.28h-.7Z" transform="translate(-9.53 -8.73)"/><path class="cls-18" d="M196.62,484.76h2.5v.73h-2.5Z" transform="translate(-9.53 -8.73)"/><path class="cls-18" d="M203.65,482.94a1.16,1.16,0,0,0-1.18-.9c-.93,0-1.61,1.07-1.61,2.44,0,.06,0,.22,0,.28a1.67,1.67,0,0,1,1.61-1.09,2,2,0,0,1,2.07,2.12,2.07,2.07,0,0,1-2.14,2.15,2,2,0,0,1-1.9-1.22,4.35,4.35,0,0,1-.38-2c0-2.07,1-3.4,2.34-3.4a1.88,1.88,0,0,1,2,1.58Zm-1.23,4.3A1.45,1.45,0,1,0,201,485.8,1.35,1.35,0,0,0,202.42,487.24Z" transform="translate(-9.53 -8.73)"/><path class="cls-18" d="M205.26,481.45h.68v2.28h-.68Zm1.24,0h.68v2.28h-.68Z" transform="translate(-9.53 -8.73)"/><path class="cls-18" d="M86.88,178.19a1.58,1.58,0,0,0,1.62,1.06c.83,0,1.42-.41,1.42-1.12,0-.5-.28-.82-1-1l-1.15-.31c-.88-.23-1.53-.67-1.53-1.64a1.9,1.9,0,0,1,2.1-1.81,2.18,2.18,0,0,1,2.35,1.68h-.83a1.45,1.45,0,0,0-1.52-1c-.76,0-1.32.39-1.32,1.05s.36.8,1,1l1.1.29c1,.26,1.59.81,1.59,1.71,0,1.16-.94,1.86-2.21,1.86a2.28,2.28,0,0,1-2.45-1.76Z" transform="translate(-9.53 -8.73)"/><path class="cls-18" d="M92.68,177.29v2.56h-.82v-6.39h2.39a1.84,1.84,0,0,1,2.1,1.92c0,1.25-.81,1.91-2.1,1.91Zm1.55-3.11H92.68v2.38h1.55c.87,0,1.31-.47,1.31-1.18A1.14,1.14,0,0,0,94.23,174.18Z" transform="translate(-9.53 -8.73)"/><path class="cls-18" d="M88.28,191.39a3,3,0,0,1-2.88-3.29c0-1.94,1.2-3.29,2.88-3.29a3.32,3.32,0,0,1,0,6.58Zm0-5.84c-1.23,0-2.06,1-2.06,2.55s.83,2.55,2.06,2.55,2.07-1.05,2.07-2.55S89.52,185.55,88.28,185.55Z" transform="translate(-9.53 -8.73)"/><path class="cls-18" d="M94,191.29l-2.47-6.39h.87l2,5.31,2-5.31h.83l-2.46,6.39Z" transform="translate(-9.53 -8.73)"/><path class="cls-18" d="M434,143.07l-2-4.87v4.87h-.78v-6.39h.93l2.16,5.24,2.16-5.24h.89v6.39h-.78V138.2l-2,4.87Z" transform="translate(-9.53 -8.73)"/><path class="cls-18" d="M441.53,136.68l2.5,6.39h-.83l-.74-1.93h-2.63l-.73,1.93h-.83l2.49-6.39Zm-1.43,3.74h2.08l-1-2.72Z" transform="translate(-9.53 -8.73)"/><path class="cls-18" d="M445.29,141.4a1.57,1.57,0,0,0,1.62,1.06c.83,0,1.42-.4,1.42-1.11,0-.5-.29-.82-1-1l-1.15-.3c-.88-.23-1.53-.68-1.53-1.65a1.9,1.9,0,0,1,2.1-1.81,2.18,2.18,0,0,1,2.35,1.69h-.83a1.46,1.46,0,0,0-1.52-1c-.76,0-1.32.39-1.32,1.05s.36.8,1,1l1.09.28c1,.26,1.6.81,1.6,1.72,0,1.15-.94,1.85-2.21,1.85a2.3,2.3,0,0,1-2.46-1.76Z" transform="translate(-9.53 -8.73)"/><path class="cls-18" d="M449.7,136.68H455v.72h-2.23v5.67h-.82V137.4H449.7Z" transform="translate(-9.53 -8.73)"/><path class="cls-18" d="M460.11,136.68v.72h-3.26v2h3v.73h-3v2.18h3.26v.74H456v-6.39Z" transform="translate(-9.53 -8.73)"/><path class="cls-18" d="M462.22,140.36v2.71h-.82v-6.39h2.37c1.28,0,2.09.64,2.09,1.85a1.69,1.69,0,0,1-1.62,1.8l1.88,2.74h-.94l-1.83-2.71Zm0-.7h1.53c.84,0,1.3-.42,1.3-1.13s-.46-1.14-1.3-1.14h-1.53Z" transform="translate(-9.53 -8.73)"/><path class="cls-18" d="M441.4,152.46c0,1.16-.81,1.8-2.12,1.8H437v-6.39h2.1c1.32,0,2.11.59,2.11,1.69a1.39,1.39,0,0,1-.93,1.39A1.55,1.55,0,0,1,441.4,152.46Zm-2.33-1.81c.85,0,1.32-.35,1.32-1s-.47-1-1.32-1h-1.3v2.06Zm-1.3,2.89h1.51c.86,0,1.32-.44,1.32-1.1s-.46-1.11-1.32-1.11h-1.51Z" transform="translate(-9.53 -8.73)"/><path class="cls-18" d="M445.19,147.87l2.49,6.39h-.83l-.74-1.93h-2.63l-.73,1.93h-.83l2.5-6.39Zm-1.44,3.74h2.08l-1-2.72Z" transform="translate(-9.53 -8.73)"/><path class="cls-18" d="M447.64,147.87h5.27v.73h-2.22v5.66h-.82V148.6h-2.23Z" transform="translate(-9.53 -8.73)"/><path class="cls-18" d="M459.24,147.87v6.39h-.83v-2.92H454.8v2.92H454v-6.39h.82v2.74h3.61v-2.74Z" transform="translate(-9.53 -8.73)"/></g></svg>