<svg xmlns="http://www.w3.org/2000/svg" viewBox="0 0 833.5 495.34"><defs><style>.cls-1,.cls-11,.cls-13,.cls-14,.cls-16,.cls-17,.cls-3,.cls-4,.cls-6,.cls-8,.cls-9{fill:none;}.cls-1,.cls-10,.cls-11,.cls-12,.cls-13,.cls-17,.cls-18,.cls-2,.cls-3,.cls-6,.cls-7,.cls-8,.cls-9{stroke:#231f20;}.cls-1,.cls-10,.cls-12,.cls-14,.cls-15,.cls-16,.cls-17,.cls-19,.cls-2,.cls-7,.cls-8,.cls-9{stroke-miterlimit:10;}.cls-1,.cls-2{stroke-width:0.15px;}.cls-10,.cls-12,.cls-15,.cls-18,.cls-2,.cls-5,.cls-7{fill:#fff;}.cls-11,.cls-13,.cls-18,.cls-3,.cls-4,.cls-5,.cls-6{stroke-linecap:round;stroke-linejoin:round;}.cls-10,.cls-3,.cls-4,.cls-5,.cls-8{stroke-width:0.35px;}.cls-14,.cls-15,.cls-19,.cls-4,.cls-5{stroke:#000;}.cls-12,.cls-13,.cls-14,.cls-15,.cls-6,.cls-9{stroke-width:0.25px;}.cls-17,.cls-7{stroke-width:0.35px;}.cls-11,.cls-18,.cls-19{stroke-width:0.5px;}.cls-13{stroke-dasharray:2.5;}.cls-16{stroke:#00aeef;stroke-width:0.7px;}.cls-19{fill:#d2d3d4;}.cls-20{fill:#231f20;}</style></defs><title>108Leonard_WEB_6D_v2</title><g id="FLOOR_PATTERN" data-name="FLOOR PATTERN"><g id="LINE"><line class="cls-1" x1="582.52" y1="451.07" x2="582.52" y2="234.35"/></g><g id="LINE-2" data-name="LINE"><line class="cls-1" x1="591.06" y1="451.57" x2="591.06" y2="441.14"/></g><g id="LINE-3" data-name="LINE"><line class="cls-1" x1="591.06" y1="410.68" x2="591.06" y2="234.35"/></g><g id="LINE-4" data-name="LINE"><line class="cls-1" x1="599.6" y1="452.06" x2="599.6" y2="446"/></g><g id="LINE-5" data-name="LINE"><line class="cls-1" x1="599.6" y1="401.66" x2="599.6" y2="234.35"/></g><g id="LINE-6" data-name="LINE"><line class="cls-1" x1="608.14" y1="452.55" x2="608.14" y2="446.64"/></g><g id="LINE-7" data-name="LINE"><line class="cls-1" x1="608.14" y1="395.5" x2="608.14" y2="234.35"/></g><g id="LINE-8" data-name="LINE"><line class="cls-1" x1="616.68" y1="453.04" x2="616.68" y2="443.51"/></g><g id="LINE-9" data-name="LINE"><line class="cls-1" x1="616.68" y1="404.19" x2="616.68" y2="234.35"/></g><g id="LINE-10" data-name="LINE"><line class="cls-1" x1="625.22" y1="453.53" x2="625.22" y2="436.1"/></g><g id="LINE-11" data-name="LINE"><line class="cls-1" x1="625.22" y1="412.87" x2="625.22" y2="234.35"/></g><g id="LINE-12" data-name="LINE"><line class="cls-1" x1="633.75" y1="454.02" x2="633.75" y2="442.66"/></g><g id="LINE-13" data-name="LINE"><line class="cls-1" x1="633.75" y1="421.56" x2="633.75" y2="234.35"/></g><g id="LINE-14" data-name="LINE"><line class="cls-1" x1="633.75" y1="440.18" x2="633.75" y2="428.29"/></g><g id="LINE-15" data-name="LINE"><line class="cls-1" x1="642.29" y1="454.51" x2="642.29" y2="450.71"/></g><g id="LINE-16" data-name="LINE"><line class="cls-1" x1="642.29" y1="432.13" x2="642.29" y2="234.35"/></g><g id="LINE-17" data-name="LINE"><line class="cls-1" x1="650.83" y1="455" x2="650.83" y2="446.44"/></g><g id="LINE-18" data-name="LINE"><line class="cls-1" x1="650.83" y1="436.4" x2="650.83" y2="234.35"/></g><g id="LINE-19" data-name="LINE"><polyline class="cls-1" points="659.37 455.49 659.37 379.04 659.37 279.88"/></g><g id="LINE-20" data-name="LINE"><line class="cls-1" x1="659.37" y1="285.89" x2="659.37" y2="234.35"/></g><g id="LINE-21" data-name="LINE"><line class="cls-1" x1="667.91" y1="455.98" x2="667.91" y2="379.04"/></g><g id="LINE-22" data-name="LINE"><line class="cls-1" x1="667.91" y1="285.89" x2="667.91" y2="235"/></g><g id="LINE-23" data-name="LINE"><line class="cls-1" x1="676.45" y1="456.47" x2="676.45" y2="379.04"/></g><g id="LINE-24" data-name="LINE"><line class="cls-1" x1="676.45" y1="285.89" x2="676.45" y2="235"/></g><g id="LINE-25" data-name="LINE"><line class="cls-1" x1="684.99" y1="456.96" x2="684.99" y2="235"/></g><g id="LINE-26" data-name="LINE"><line class="cls-1" x1="693.53" y1="457.45" x2="693.53" y2="363.97"/></g><g id="LINE-27" data-name="LINE"><line class="cls-1" x1="693.53" y1="310.67" x2="693.53" y2="235"/></g><g id="LINE-28" data-name="LINE"><line class="cls-1" x1="702.06" y1="457.94" x2="702.06" y2="390.69"/></g><g id="LINE-29" data-name="LINE"><line class="cls-1" x1="702.06" y1="274.25" x2="702.06" y2="235"/></g><g id="LINE-30" data-name="LINE"><line class="cls-1" x1="710.6" y1="458.44" x2="710.6" y2="390.69"/></g><g id="LINE-31" data-name="LINE"><line class="cls-1" x1="710.6" y1="274.25" x2="710.6" y2="235"/></g><g id="LINE-32" data-name="LINE"><line class="cls-1" x1="719.14" y1="458.93" x2="719.14" y2="390.69"/></g><g id="LINE-33" data-name="LINE"><line class="cls-1" x1="719.14" y1="274.25" x2="719.14" y2="235"/></g><g id="LINE-34" data-name="LINE"><line class="cls-1" x1="727.68" y1="459.42" x2="727.68" y2="390.69"/></g><g id="LINE-35" data-name="LINE"><line class="cls-1" x1="727.68" y1="274.25" x2="727.68" y2="235"/></g><g id="LINE-36" data-name="LINE"><line class="cls-1" x1="736.22" y1="459.91" x2="736.22" y2="390.69"/></g><g id="LINE-37" data-name="LINE"><line class="cls-1" x1="736.22" y1="274.25" x2="736.22" y2="235"/></g><g id="LINE-38" data-name="LINE"><line class="cls-1" x1="744.76" y1="460.4" x2="744.76" y2="390.69"/></g><g id="LINE-39" data-name="LINE"><line class="cls-1" x1="744.76" y1="274.25" x2="744.76" y2="235"/></g><g id="LINE-40" data-name="LINE"><line class="cls-1" x1="753.3" y1="460.89" x2="753.3" y2="390.69"/></g><g id="LINE-41" data-name="LINE"><line class="cls-1" x1="753.3" y1="274.25" x2="753.3" y2="235"/></g><g id="LINE-42" data-name="LINE"><line class="cls-1" x1="761.84" y1="461.38" x2="761.84" y2="390.69"/></g><g id="LINE-43" data-name="LINE"><line class="cls-1" x1="761.84" y1="274.25" x2="761.84" y2="235"/></g><g id="LINE-44" data-name="LINE"><line class="cls-1" x1="770.37" y1="440.78" x2="770.37" y2="390.69"/></g><g id="LINE-45" data-name="LINE"><line class="cls-1" x1="770.37" y1="274.25" x2="770.37" y2="235"/></g><g id="LINE-46" data-name="LINE"><line class="cls-1" x1="778.91" y1="441.23" x2="778.91" y2="390.69"/></g><g id="LINE-47" data-name="LINE"><line class="cls-1" x1="778.91" y1="274.25" x2="778.91" y2="235"/></g><g id="LINE-48" data-name="LINE"><line class="cls-1" x1="787.45" y1="441.68" x2="787.45" y2="390.69"/></g><g id="LINE-49" data-name="LINE"><line class="cls-1" x1="787.45" y1="274.25" x2="787.45" y2="235"/></g><g id="LINE-50" data-name="LINE"><line class="cls-1" x1="795.99" y1="434.5" x2="795.99" y2="426.39"/></g><g id="LINE-51" data-name="LINE"><line class="cls-1" x1="795.99" y1="238.54" x2="795.99" y2="235"/></g><g id="LINE-52" data-name="LINE"><line class="cls-1" x1="795.99" y1="395.34" x2="795.99" y2="390.69"/></g><g id="LINE-53" data-name="LINE"><line class="cls-1" x1="795.99" y1="274.25" x2="795.99" y2="269.59"/></g><g id="LINE-54" data-name="LINE"><line class="cls-1" x1="804.53" y1="434.99" x2="804.53" y2="426.39"/></g><g id="LINE-55" data-name="LINE"><line class="cls-1" x1="804.53" y1="238.54" x2="804.53" y2="235"/></g><g id="LINE-56" data-name="LINE"><line class="cls-1" x1="804.53" y1="395.34" x2="804.53" y2="390.69"/></g><g id="LINE-57" data-name="LINE"><line class="cls-1" x1="804.53" y1="274.25" x2="804.53" y2="269.59"/></g><g id="LINE-58" data-name="LINE"><line class="cls-1" x1="813.07" y1="435.48" x2="813.07" y2="426.39"/></g><g id="LINE-59" data-name="LINE"><line class="cls-1" x1="813.07" y1="238.54" x2="813.07" y2="235"/></g><g id="LINE-60" data-name="LINE"><line class="cls-1" x1="813.07" y1="395.34" x2="813.07" y2="390.69"/></g><g id="LINE-61" data-name="LINE"><line class="cls-1" x1="813.07" y1="274.25" x2="813.07" y2="269.59"/></g><g id="LINE-62" data-name="LINE"><line class="cls-1" x1="821.61" y1="435.98" x2="821.61" y2="235"/></g><g id="LWPOLYLINE"><line class="cls-1" x1="475.99" y1="43.66" x2="420.1" y2="43.66"/></g><g id="LWPOLYLINE-2" data-name="LWPOLYLINE"><line class="cls-1" x1="420.1" y1="34.35" x2="475.99" y2="34.35"/></g><g id="LWPOLYLINE-3" data-name="LWPOLYLINE"><line class="cls-1" x1="413.89" y1="144.57" x2="413.89" y2="90.24"/></g><g id="LWPOLYLINE-4" data-name="LWPOLYLINE"><line class="cls-1" x1="401.47" y1="90.24" x2="401.47" y2="144.57"/></g><g id="LWPOLYLINE-5" data-name="LWPOLYLINE"><line class="cls-1" x1="503.89" y1="188.65" x2="503.94" y2="142.08"/></g><g id="LWPOLYLINE-6" data-name="LWPOLYLINE"><line class="cls-1" x1="503.94" y1="126.33" x2="503.94" y2="79.75"/></g><g id="LWPOLYLINE-7" data-name="LWPOLYLINE"><line class="cls-1" x1="511.7" y1="79.75" x2="511.7" y2="126.33"/></g><g id="LWPOLYLINE-8" data-name="LWPOLYLINE"><line class="cls-1" x1="511.7" y1="142.08" x2="511.65" y2="188.65"/></g><g id="LWPOLYLINE-9" data-name="LWPOLYLINE"><polygon class="cls-2" points="657.82 235 603.48 235 603.48 222.58 659.37 222.58 659.37 235 657.82 235"/></g><g id="LWPOLYLINE-10" data-name="LWPOLYLINE"><line class="cls-1" x1="573.98" y1="385.59" x2="573.98" y2="280.02"/></g><g id="LINE-63" data-name="LINE"><line class="cls-1" x1="183.93" y1="255.35" x2="188.4" y2="250.89"/></g><g id="LINE-64" data-name="LINE"><line class="cls-1" x1="222.26" y1="217.03" x2="226.24" y2="213.04"/></g><g id="LINE-65" data-name="LINE"><line class="cls-1" x1="183.93" y1="267.42" x2="202.09" y2="249.27"/></g><g id="LINE-66" data-name="LINE"><line class="cls-1" x1="222.26" y1="229.1" x2="226.24" y2="225.12"/></g><g id="LINE-67" data-name="LINE"><line class="cls-1" x1="183.93" y1="279.5" x2="214.16" y2="249.27"/></g><g id="LINE-68" data-name="LINE"><line class="cls-1" x1="222.26" y1="241.18" x2="226.24" y2="237.2"/></g><g id="LINE-69" data-name="LINE"><line class="cls-1" x1="183.93" y1="291.58" x2="218.48" y2="257.03"/></g><g id="LINE-70" data-name="LINE"><line class="cls-1" x1="222.26" y1="253.25" x2="226.24" y2="249.27"/></g><g id="LINE-71" data-name="LINE"><line class="cls-1" x1="183.93" y1="303.65" x2="226.24" y2="261.35"/></g><g id="LINE-72" data-name="LINE"><line class="cls-1" x1="183.93" y1="315.73" x2="226.24" y2="273.42"/></g><g id="LINE-73" data-name="LINE"><line class="cls-1" x1="183.93" y1="327.8" x2="226.24" y2="285.5"/></g><g id="LINE-74" data-name="LINE"><line class="cls-1" x1="191.03" y1="332.78" x2="226.24" y2="297.57"/></g><g id="LINE-75" data-name="LINE"><line class="cls-1" x1="196.09" y1="339.8" x2="226.24" y2="309.65"/></g><g id="LINE-76" data-name="LINE"><line class="cls-1" x1="183.93" y1="364.03" x2="226.24" y2="321.72"/></g><g id="LINE-77" data-name="LINE"><line class="cls-1" x1="190.43" y1="369.61" x2="226.24" y2="333.8"/></g><g id="LINE-78" data-name="LINE"><line class="cls-1" x1="195.84" y1="376.27" x2="226.24" y2="345.88"/></g><g id="LINE-79" data-name="LINE"><line class="cls-1" x1="183.93" y1="400.26" x2="226.24" y2="357.95"/></g><g id="LINE-80" data-name="LINE"><line class="cls-1" x1="183.93" y1="412.33" x2="226.24" y2="370.03"/></g><g id="LINE-81" data-name="LINE"><line class="cls-1" x1="183.93" y1="424.41" x2="226.24" y2="382.1"/></g><g id="LINE-82" data-name="LINE"><line class="cls-1" x1="191.8" y1="428.62" x2="205.18" y2="415.23"/></g><g id="LINE-83" data-name="LINE"><line class="cls-1" x1="222.26" y1="398.16" x2="226.24" y2="394.18"/></g><g id="LINE-84" data-name="LINE"><line class="cls-1" x1="211.63" y1="408.78" x2="214.49" y2="405.92"/></g><g id="LINE-85" data-name="LINE"><line class="cls-1" x1="203.21" y1="429.28" x2="204.51" y2="427.99"/></g><g id="LINE-86" data-name="LINE"><line class="cls-1" x1="99.33" y1="255.35" x2="105.4" y2="249.27"/></g><g id="LINE-87" data-name="LINE"><line class="cls-1" x1="99.33" y1="267.42" x2="117.48" y2="249.27"/></g><g id="LINE-88" data-name="LINE"><line class="cls-1" x1="99.33" y1="279.5" x2="129.55" y2="249.27"/></g><g id="LINE-89" data-name="LINE"><line class="cls-1" x1="99.33" y1="291.58" x2="141.63" y2="249.27"/></g><g id="LINE-90" data-name="LINE"><line class="cls-1" x1="99.33" y1="303.65" x2="141.63" y2="261.35"/></g><g id="LINE-91" data-name="LINE"><line class="cls-1" x1="99.33" y1="315.73" x2="141.63" y2="273.42"/></g><g id="LINE-92" data-name="LINE"><line class="cls-1" x1="99.33" y1="327.8" x2="141.63" y2="285.5"/></g><g id="LINE-93" data-name="LINE"><line class="cls-1" x1="99.33" y1="339.88" x2="121.35" y2="317.85"/></g><g id="LINE-94" data-name="LINE"><line class="cls-1" x1="127.83" y1="311.37" x2="141.63" y2="297.57"/></g><g id="LINE-95" data-name="LINE"><line class="cls-1" x1="99.33" y1="351.95" x2="121.35" y2="329.93"/></g><g id="LINE-96" data-name="LINE"><line class="cls-1" x1="139.91" y1="311.37" x2="141.63" y2="309.65"/></g><g id="LINE-97" data-name="LINE"><line class="cls-1" x1="99.33" y1="364.03" x2="121.35" y2="342"/></g><g id="LINE-98" data-name="LINE"><line class="cls-1" x1="99.33" y1="376.1" x2="121.35" y2="354.08"/></g><g id="LINE-99" data-name="LINE"><line class="cls-1" x1="99.33" y1="388.18" x2="121.35" y2="366.16"/></g><g id="LINE-100" data-name="LINE"><line class="cls-1" x1="99.33" y1="400.26" x2="121.35" y2="378.23"/></g><g id="LINE-101" data-name="LINE"><line class="cls-1" x1="99.33" y1="412.33" x2="121.35" y2="390.31"/></g><g id="LINE-102" data-name="LINE"><line class="cls-1" x1="100.36" y1="423.37" x2="121.35" y2="402.38"/></g><g id="LINE-103" data-name="LINE"><line class="cls-1" x1="111.78" y1="424.02" x2="126.62" y2="409.19"/></g><g id="LINE-104" data-name="LINE"><line class="cls-1" x1="123.2" y1="424.68" x2="138.69" y2="409.19"/></g><g id="LINE-105" data-name="LINE"><line class="cls-1" x1="134.62" y1="425.34" x2="141.63" y2="418.33"/></g><g id="LINE-106" data-name="LINE"><line class="cls-1" x1="20.35" y1="418.77" x2="28.06" y2="411.07"/></g><g id="LINE-107" data-name="LINE"><line class="cls-1" x1="31.77" y1="419.43" x2="40.13" y2="411.07"/></g><g id="LINE-108" data-name="LINE"><line class="cls-1" x1="43.19" y1="420.08" x2="52.21" y2="411.07"/></g><g id="LINE-109" data-name="LINE"><line class="cls-1" x1="54.61" y1="420.74" x2="57.02" y2="418.33"/></g><g id="LINE-110" data-name="LINE"><line class="cls-1" x1="93.25" y1="249.27" x2="99.33" y2="255.35"/></g><g id="LINE-111" data-name="LINE"><line class="cls-1" x1="81.17" y1="249.27" x2="99.33" y2="267.42"/></g><g id="LINE-112" data-name="LINE"><line class="cls-1" x1="69.1" y1="249.27" x2="99.33" y2="279.5"/></g><g id="LINE-113" data-name="LINE"><line class="cls-1" x1="59.24" y1="251.5" x2="99.33" y2="291.58"/></g><g id="LINE-114" data-name="LINE"><line class="cls-1" x1="59.24" y1="263.57" x2="99.33" y2="303.65"/></g><g id="LINE-115" data-name="LINE"><line class="cls-1" x1="59.24" y1="275.65" x2="99.33" y2="315.73"/></g><g id="LINE-116" data-name="LINE"><line class="cls-1" x1="59.24" y1="287.72" x2="99.33" y2="327.8"/></g><g id="LINE-117" data-name="LINE"><line class="cls-1" x1="59.24" y1="299.8" x2="99.33" y2="339.88"/></g><g id="LINE-118" data-name="LINE"><line class="cls-1" x1="59.24" y1="311.87" x2="99.33" y2="351.95"/></g><g id="LINE-119" data-name="LINE"><line class="cls-1" x1="59.24" y1="323.95" x2="99.33" y2="364.03"/></g><g id="LINE-120" data-name="LINE"><line class="cls-1" x1="59.24" y1="336.02" x2="99.33" y2="376.1"/></g><g id="LINE-121" data-name="LINE"><line class="cls-1" x1="59.24" y1="348.1" x2="99.33" y2="388.18"/></g><g id="LINE-122" data-name="LINE"><line class="cls-1" x1="59.24" y1="360.18" x2="99.33" y2="400.26"/></g><g id="LINE-123" data-name="LINE"><line class="cls-1" x1="59.24" y1="372.25" x2="59.92" y2="372.93"/></g><g id="LINE-124" data-name="LINE"><line class="cls-1" x1="60.8" y1="373.8" x2="99.33" y2="412.33"/></g><g id="LINE-125" data-name="LINE"><line class="cls-1" x1="60.8" y1="385.88" x2="98.16" y2="423.24"/></g><g id="LINE-126" data-name="LINE"><line class="cls-1" x1="60.8" y1="397.95" x2="85.35" y2="422.5"/></g><g id="LINE-127" data-name="LINE"><line class="cls-1" x1="60.08" y1="409.32" x2="72.54" y2="421.77"/></g><g id="LINE-128" data-name="LINE"><line class="cls-1" x1="57.02" y1="418.33" x2="59.72" y2="421.03"/></g><g id="LINE-129" data-name="LINE"><line class="cls-1" x1="179.47" y1="250.89" x2="183.93" y2="255.35"/></g><g id="LINE-130" data-name="LINE"><line class="cls-1" x1="165.78" y1="249.27" x2="183.93" y2="267.42"/></g><g id="LINE-131" data-name="LINE"><line class="cls-1" x1="153.71" y1="249.27" x2="183.93" y2="279.5"/></g><g id="LINE-132" data-name="LINE"><line class="cls-1" x1="141.63" y1="249.27" x2="183.93" y2="291.58"/></g><g id="LINE-133" data-name="LINE"><line class="cls-1" x1="141.63" y1="261.35" x2="183.93" y2="303.65"/></g><g id="LINE-134" data-name="LINE"><line class="cls-1" x1="141.63" y1="273.42" x2="179.58" y2="311.37"/></g><g id="LINE-135" data-name="LINE"><line class="cls-1" x1="183.45" y1="315.24" x2="183.93" y2="315.73"/></g><g id="LINE-136" data-name="LINE"><line class="cls-1" x1="141.63" y1="285.5" x2="167.5" y2="311.37"/></g><g id="LINE-137" data-name="LINE"><line class="cls-1" x1="183.45" y1="327.32" x2="183.93" y2="327.8"/></g><g id="LINE-138" data-name="LINE"><line class="cls-1" x1="141.63" y1="297.57" x2="155.43" y2="311.37"/></g><g id="LINE-139" data-name="LINE"><line class="cls-1" x1="141.63" y1="309.65" x2="143.35" y2="311.37"/></g><g id="LINE-140" data-name="LINE"><line class="cls-1" x1="183.45" y1="399.77" x2="183.93" y2="400.26"/></g><g id="LINE-141" data-name="LINE"><line class="cls-1" x1="180.79" y1="409.19" x2="183.93" y2="412.33"/></g><g id="LINE-142" data-name="LINE"><line class="cls-1" x1="168.72" y1="409.19" x2="183.93" y2="424.41"/></g><g id="LINE-143" data-name="LINE"><line class="cls-1" x1="156.64" y1="409.19" x2="175.12" y2="427.66"/></g><g id="LINE-144" data-name="LINE"><line class="cls-1" x1="144.57" y1="409.19" x2="162.3" y2="426.93"/></g><g id="LINE-145" data-name="LINE"><line class="cls-1" x1="141.63" y1="418.33" x2="149.49" y2="426.19"/></g><g id="LINE-146" data-name="LINE"><line class="cls-1" x1="503.9" y1="43.66" x2="503.94" y2="43.71"/></g><g id="LINE-147" data-name="LINE"><line class="cls-1" x1="491.82" y1="43.66" x2="503.94" y2="55.78"/></g><g id="LINE-148" data-name="LINE"><line class="cls-1" x1="480.07" y1="43.99" x2="503.94" y2="67.86"/></g><g id="LINE-149" data-name="LINE"><line class="cls-1" x1="480.07" y1="56.06" x2="503.94" y2="79.93"/></g><g id="LINE-150" data-name="LINE"><line class="cls-1" x1="480.07" y1="68.14" x2="503.94" y2="92.01"/></g><g id="LINE-151" data-name="LINE"><line class="cls-1" x1="480.07" y1="80.21" x2="503.94" y2="104.08"/></g><g id="LINE-152" data-name="LINE"><line class="cls-1" x1="480.07" y1="92.29" x2="503.94" y2="116.16"/></g><g id="LINE-153" data-name="LINE"><line class="cls-1" x1="480.07" y1="104.36" x2="503.94" y2="128.23"/></g><g id="LINE-154" data-name="LINE"><line class="cls-1" x1="480.07" y1="116.44" x2="503.94" y2="140.31"/></g><g id="LINE-155" data-name="LINE"><line class="cls-1" x1="480.07" y1="128.52" x2="503.93" y2="152.38"/></g><g id="LINE-156" data-name="LINE"><line class="cls-1" x1="480.07" y1="140.59" x2="503.92" y2="164.44"/></g><g id="LINE-157" data-name="LINE"><line class="cls-1" x1="480.07" y1="152.67" x2="503.9" y2="176.5"/></g><g id="LINE-158" data-name="LINE"><line class="cls-1" x1="480.07" y1="164.74" x2="503.89" y2="188.57"/></g><g id="LINE-159" data-name="LINE"><line class="cls-1" x1="480.07" y1="176.82" x2="499.24" y2="195.99"/></g><g id="LINE-160" data-name="LINE"><line class="cls-1" x1="509.06" y1="205.81" x2="513.25" y2="210"/></g><g id="LINE-161" data-name="LINE"><line class="cls-1" x1="480.07" y1="188.89" x2="513.25" y2="222.08"/></g><g id="LINE-162" data-name="LINE"><line class="cls-1" x1="480.07" y1="200.97" x2="513.25" y2="234.15"/></g><g id="LINE-163" data-name="LINE"><line class="cls-1" x1="480.07" y1="213.04" x2="513.25" y2="246.23"/></g><g id="LINE-164" data-name="LINE"><line class="cls-1" x1="480.07" y1="225.12" x2="513.25" y2="258.3"/></g><g id="LINE-165" data-name="LINE"><line class="cls-1" x1="480.07" y1="237.2" x2="513.25" y2="270.38"/></g><g id="LINE-166" data-name="LINE"><line class="cls-1" x1="516.69" y1="273.81" x2="522.37" y2="279.5"/></g><g id="LINE-167" data-name="LINE"><line class="cls-1" x1="480.07" y1="249.27" x2="522.37" y2="291.58"/></g><g id="LINE-168" data-name="LINE"><line class="cls-1" x1="480.07" y1="261.35" x2="522.37" y2="303.65"/></g><g id="LINE-169" data-name="LINE"><line class="cls-1" x1="480.07" y1="273.42" x2="522.37" y2="315.73"/></g><g id="LINE-170" data-name="LINE"><line class="cls-1" x1="480.07" y1="285.5" x2="522.37" y2="327.8"/></g><g id="LINE-171" data-name="LINE"><line class="cls-1" x1="480.07" y1="297.57" x2="522.37" y2="339.88"/></g><g id="LINE-172" data-name="LINE"><line class="cls-1" x1="480.07" y1="309.65" x2="522.37" y2="351.95"/></g><g id="LINE-173" data-name="LINE"><line class="cls-1" x1="480.07" y1="321.72" x2="522.37" y2="364.03"/></g><g id="LINE-174" data-name="LINE"><line class="cls-1" x1="480.07" y1="333.8" x2="522.37" y2="376.1"/></g><g id="LINE-175" data-name="LINE"><line class="cls-1" x1="480.07" y1="345.88" x2="522.37" y2="388.18"/></g><g id="LINE-176" data-name="LINE"><line class="cls-1" x1="480.07" y1="357.95" x2="513.92" y2="391.8"/></g><g id="LINE-177" data-name="LINE"><line class="cls-1" x1="480.07" y1="370.03" x2="513.25" y2="403.21"/></g><g id="LINE-178" data-name="LINE"><line class="cls-1" x1="480.07" y1="382.1" x2="513.25" y2="415.29"/></g><g id="LINE-179" data-name="LINE"><line class="cls-1" x1="480.07" y1="394.18" x2="511.81" y2="425.92"/></g><g id="LINE-180" data-name="LINE"><line class="cls-1" x1="480.07" y1="406.25" x2="499.1" y2="425.28"/></g><g id="LINE-181" data-name="LINE"><line class="cls-1" x1="480.07" y1="418.33" x2="486.38" y2="424.64"/></g><g id="LINE-182" data-name="LINE"><line class="cls-1" x1="480.07" y1="430.4" x2="485.52" y2="435.86"/></g><g id="LINE-183" data-name="LINE"><line class="cls-1" x1="480.07" y1="442.48" x2="482.94" y2="445.35"/></g><g id="LINE-184" data-name="LINE"><line class="cls-1" x1="268.54" y1="207.05" x2="269.79" y2="205.8"/></g><g id="LINE-185" data-name="LINE"><line class="cls-1" x1="268.54" y1="219.12" x2="281.87" y2="205.8"/></g><g id="LINE-186" data-name="LINE"><line class="cls-1" x1="268.54" y1="231.2" x2="293.94" y2="205.8"/></g><g id="LINE-187" data-name="LINE"><line class="cls-1" x1="268.54" y1="243.27" x2="306.02" y2="205.8"/></g><g id="LINE-188" data-name="LINE"><line class="cls-1" x1="268.54" y1="255.35" x2="310.85" y2="213.04"/></g><g id="LINE-189" data-name="LINE"><line class="cls-1" x1="268.54" y1="267.42" x2="310.85" y2="225.12"/></g><g id="LINE-190" data-name="LINE"><line class="cls-1" x1="268.54" y1="279.5" x2="310.85" y2="237.2"/></g><g id="LINE-191" data-name="LINE"><line class="cls-1" x1="271.21" y1="288.91" x2="310.85" y2="249.27"/></g><g id="LINE-192" data-name="LINE"><line class="cls-1" x1="289.47" y1="282.72" x2="310.85" y2="261.35"/></g><g id="LINE-193" data-name="LINE"><line class="cls-1" x1="296.3" y1="287.97" x2="310.85" y2="273.42"/></g><g id="LINE-194" data-name="LINE"><line class="cls-1" x1="302.04" y1="294.31" x2="310.85" y2="285.5"/></g><g id="LINE-195" data-name="LINE"><line class="cls-1" x1="297.04" y1="311.38" x2="310.85" y2="297.57"/></g><g id="LINE-196" data-name="LINE"><line class="cls-1" x1="298.51" y1="321.99" x2="310.85" y2="309.65"/></g><g id="LINE-197" data-name="LINE"><line class="cls-1" x1="268.54" y1="364.03" x2="278.28" y2="354.29"/></g><g id="LINE-198" data-name="LINE"><line class="cls-1" x1="299.14" y1="333.44" x2="310.85" y2="321.72"/></g><g id="LINE-199" data-name="LINE"><line class="cls-1" x1="268.54" y1="376.1" x2="284.32" y2="360.33"/></g><g id="LINE-200" data-name="LINE"><line class="cls-1" x1="305.17" y1="339.47" x2="310.85" y2="333.8"/></g><g id="LINE-201" data-name="LINE"><line class="cls-1" x1="268.54" y1="388.18" x2="310.85" y2="345.88"/></g><g id="LINE-202" data-name="LINE"><line class="cls-1" x1="268.54" y1="400.26" x2="310.85" y2="357.95"/></g><g id="LINE-203" data-name="LINE"><line class="cls-1" x1="268.86" y1="412.01" x2="310.85" y2="370.03"/></g><g id="LINE-204" data-name="LINE"><line class="cls-1" x1="280.14" y1="412.82" x2="310.85" y2="382.1"/></g><g id="LINE-205" data-name="LINE"><line class="cls-1" x1="291.41" y1="413.62" x2="310.85" y2="394.18"/></g><g id="LINE-206" data-name="LINE"><line class="cls-1" x1="300.02" y1="417.08" x2="310.85" y2="406.25"/></g><g id="LINE-207" data-name="LINE"><line class="cls-1" x1="299.27" y1="429.91" x2="310.85" y2="418.33"/></g><g id="LINE-208" data-name="LINE"><line class="cls-1" x1="306.07" y1="435.19" x2="310.85" y2="430.4"/></g><g id="LINE-209" data-name="LINE"><line class="cls-1" x1="437.76" y1="50.06" x2="444.17" y2="43.66"/></g><g id="LINE-210" data-name="LINE"><line class="cls-1" x1="437.76" y1="62.14" x2="456.24" y2="43.66"/></g><g id="LINE-211" data-name="LINE"><line class="cls-1" x1="437.76" y1="74.22" x2="468.32" y2="43.66"/></g><g id="LINE-212" data-name="LINE"><line class="cls-1" x1="437.76" y1="86.29" x2="480.07" y2="43.99"/></g><g id="LINE-213" data-name="LINE"><line class="cls-1" x1="437.76" y1="98.37" x2="480.07" y2="56.06"/></g><g id="LINE-214" data-name="LINE"><line class="cls-1" x1="437.76" y1="110.44" x2="480.07" y2="68.14"/></g><g id="LINE-215" data-name="LINE"><line class="cls-1" x1="437.76" y1="122.52" x2="480.07" y2="80.21"/></g><g id="LINE-216" data-name="LINE"><line class="cls-1" x1="437.76" y1="134.59" x2="480.07" y2="92.29"/></g><g id="LINE-217" data-name="LINE"><line class="cls-1" x1="437.76" y1="146.67" x2="480.07" y2="104.36"/></g><g id="LINE-218" data-name="LINE"><line class="cls-1" x1="437.76" y1="158.74" x2="480.07" y2="116.44"/></g><g id="LINE-219" data-name="LINE"><line class="cls-1" x1="437.76" y1="170.82" x2="480.07" y2="128.52"/></g><g id="LINE-220" data-name="LINE"><line class="cls-1" x1="437.76" y1="182.9" x2="480.07" y2="140.59"/></g><g id="LINE-221" data-name="LINE"><line class="cls-1" x1="437.76" y1="194.97" x2="480.07" y2="152.67"/></g><g id="LINE-222" data-name="LINE"><line class="cls-1" x1="437.76" y1="207.05" x2="480.07" y2="164.74"/></g><g id="LINE-223" data-name="LINE"><line class="cls-1" x1="437.76" y1="219.12" x2="480.07" y2="176.82"/></g><g id="LINE-224" data-name="LINE"><line class="cls-1" x1="437.76" y1="231.2" x2="480.07" y2="188.89"/></g><g id="LINE-225" data-name="LINE"><line class="cls-1" x1="437.76" y1="243.27" x2="480.07" y2="200.97"/></g><g id="LINE-226" data-name="LINE"><line class="cls-1" x1="440.24" y1="252.87" x2="480.07" y2="213.04"/></g><g id="LINE-227" data-name="LINE"><line class="cls-1" x1="450.05" y1="255.14" x2="480.07" y2="225.12"/></g><g id="LINE-228" data-name="LINE"><line class="cls-1" x1="456.74" y1="260.52" x2="480.07" y2="237.2"/></g><g id="LINE-229" data-name="LINE"><line class="cls-1" x1="460.81" y1="268.53" x2="480.07" y2="249.27"/></g><g id="LINE-230" data-name="LINE"><line class="cls-1" x1="437.76" y1="303.65" x2="442.45" y2="298.96"/></g><g id="LINE-231" data-name="LINE"><line class="cls-1" x1="460.15" y1="281.27" x2="480.07" y2="261.35"/></g><g id="LINE-232" data-name="LINE"><line class="cls-1" x1="437.76" y1="315.73" x2="451.49" y2="302"/></g><g id="LINE-233" data-name="LINE"><line class="cls-1" x1="455.25" y1="298.24" x2="480.07" y2="273.42"/></g><g id="LINE-234" data-name="LINE"><line class="cls-1" x1="437.76" y1="327.8" x2="480.07" y2="285.5"/></g><g id="LINE-235" data-name="LINE"><line class="cls-1" x1="443.66" y1="333.98" x2="480.07" y2="297.57"/></g><g id="LINE-236" data-name="LINE"><line class="cls-1" x1="447.6" y1="342.12" x2="480.07" y2="309.65"/></g><g id="LINE-237" data-name="LINE"><line class="cls-1" x1="437.76" y1="364.03" x2="480.07" y2="321.72"/></g><g id="LINE-238" data-name="LINE"><line class="cls-1" x1="437.76" y1="376.1" x2="480.07" y2="333.8"/></g><g id="LINE-239" data-name="LINE"><line class="cls-1" x1="439.96" y1="385.99" x2="480.07" y2="345.88"/></g><g id="LINE-240" data-name="LINE"><line class="cls-1" x1="451.38" y1="386.64" x2="480.07" y2="357.95"/></g><g id="LINE-241" data-name="LINE"><line class="cls-1" x1="454.43" y1="395.66" x2="480.07" y2="370.03"/></g><g id="LINE-242" data-name="LINE"><line class="cls-1" x1="453.69" y1="408.48" x2="480.07" y2="382.1"/></g><g id="LINE-243" data-name="LINE"><line class="cls-1" x1="452.96" y1="421.29" x2="480.07" y2="394.18"/></g><g id="LINE-244" data-name="LINE"><line class="cls-1" x1="443.25" y1="443.07" x2="444.12" y2="442.21"/></g><g id="LINE-245" data-name="LINE"><line class="cls-1" x1="452.22" y1="434.1" x2="480.07" y2="406.25"/></g><g id="LINE-246" data-name="LINE"><line class="cls-1" x1="454.67" y1="443.73" x2="480.07" y2="418.33"/></g><g id="LINE-247" data-name="LINE"><line class="cls-1" x1="466.09" y1="444.38" x2="480.07" y2="430.4"/></g><g id="LINE-248" data-name="LINE"><line class="cls-1" x1="477.51" y1="445.04" x2="480.07" y2="442.48"/></g><g id="LINE-249" data-name="LINE"><line class="cls-1" x1="522.37" y1="281.04" x2="529.6" y2="273.81"/></g><g id="LINE-250" data-name="LINE"><line class="cls-1" x1="522.37" y1="293.12" x2="541.68" y2="273.81"/></g><g id="LINE-251" data-name="LINE"><line class="cls-1" x1="522.37" y1="305.2" x2="553.75" y2="273.81"/></g><g id="LINE-252" data-name="LINE"><line class="cls-1" x1="522.37" y1="317.27" x2="565.83" y2="273.81"/></g><g id="LINE-253" data-name="LINE"><line class="cls-1" x1="522.37" y1="329.35" x2="566.22" y2="285.5"/></g><g id="LINE-254" data-name="LINE"><line class="cls-1" x1="522.37" y1="341.42" x2="566.22" y2="297.57"/></g><g id="LINE-255" data-name="LINE"><line class="cls-1" x1="522.37" y1="353.5" x2="566.22" y2="309.65"/></g><g id="LINE-256" data-name="LINE"><line class="cls-1" x1="522.37" y1="365.57" x2="566.22" y2="321.72"/></g><g id="LINE-257" data-name="LINE"><line class="cls-1" x1="522.37" y1="377.65" x2="566.22" y2="333.8"/></g><g id="LINE-258" data-name="LINE"><line class="cls-1" x1="522.37" y1="389.72" x2="566.22" y2="345.88"/></g><g id="LINE-259" data-name="LINE"><line class="cls-1" x1="532.37" y1="391.8" x2="566.22" y2="357.95"/></g><g id="LINE-260" data-name="LINE"><line class="cls-1" x1="544.44" y1="391.8" x2="566.22" y2="370.03"/></g><g id="LINE-261" data-name="LINE"><line class="cls-1" x1="556.52" y1="391.8" x2="566.22" y2="382.1"/></g><g id="LINE-262" data-name="LINE"><line class="cls-1" x1="267.3" y1="205.8" x2="268.54" y2="207.05"/></g><g id="LINE-263" data-name="LINE"><line class="cls-1" x1="255.22" y1="205.8" x2="268.54" y2="219.12"/></g><g id="LINE-264" data-name="LINE"><line class="cls-1" x1="243.15" y1="205.8" x2="268.54" y2="231.2"/></g><g id="LINE-265" data-name="LINE"><line class="cls-1" x1="231.07" y1="205.8" x2="268.54" y2="243.27"/></g><g id="LINE-266" data-name="LINE"><line class="cls-1" x1="226.24" y1="213.04" x2="268.54" y2="255.35"/></g><g id="LINE-267" data-name="LINE"><line class="cls-1" x1="226.24" y1="225.12" x2="268.54" y2="267.42"/></g><g id="LINE-268" data-name="LINE"><line class="cls-1" x1="226.24" y1="237.2" x2="268.54" y2="279.5"/></g><g id="LINE-269" data-name="LINE"><line class="cls-1" x1="226.24" y1="249.27" x2="265.45" y2="288.48"/></g><g id="LINE-270" data-name="LINE"><line class="cls-1" x1="226.24" y1="261.35" x2="245.69" y2="280.8"/></g><g id="LINE-271" data-name="LINE"><line class="cls-1" x1="226.24" y1="273.42" x2="238.37" y2="285.55"/></g><g id="LINE-272" data-name="LINE"><line class="cls-1" x1="226.24" y1="285.5" x2="232.16" y2="291.42"/></g><g id="LINE-273" data-name="LINE"><line class="cls-1" x1="226.24" y1="297.57" x2="227.04" y2="298.37"/></g><g id="LINE-274" data-name="LINE"><line class="cls-1" x1="226.24" y1="309.65" x2="233.57" y2="316.98"/></g><g id="LINE-275" data-name="LINE"><line class="cls-1" x1="226.24" y1="321.72" x2="234.58" y2="330.06"/></g><g id="LINE-276" data-name="LINE"><line class="cls-1" x1="256.93" y1="352.41" x2="268.54" y2="364.03"/></g><g id="LINE-277" data-name="LINE"><line class="cls-1" x1="226.24" y1="333.8" x2="229.29" y2="336.85"/></g><g id="LINE-278" data-name="LINE"><line class="cls-1" x1="250.15" y1="357.71" x2="268.54" y2="376.1"/></g><g id="LINE-279" data-name="LINE"><line class="cls-1" x1="226.24" y1="345.88" x2="268.54" y2="388.18"/></g><g id="LINE-280" data-name="LINE"><line class="cls-1" x1="226.24" y1="357.95" x2="268.54" y2="400.26"/></g><g id="LINE-281" data-name="LINE"><line class="cls-1" x1="226.24" y1="370.03" x2="260.06" y2="403.85"/></g><g id="LINE-282" data-name="LINE"><line class="cls-1" x1="263.11" y1="406.9" x2="268.19" y2="411.98"/></g><g id="LINE-283" data-name="LINE"><line class="cls-1" x1="226.24" y1="382.1" x2="247.12" y2="402.98"/></g><g id="LINE-284" data-name="LINE"><line class="cls-1" x1="226.24" y1="394.18" x2="234.17" y2="402.11"/></g><g id="LINE-285" data-name="LINE"><line class="cls-1" x1="327.76" y1="205.8" x2="329.34" y2="207.38"/></g><g id="LINE-286" data-name="LINE"><line class="cls-1" x1="349.03" y1="227.08" x2="353.15" y2="231.2"/></g><g id="LINE-287" data-name="LINE"><line class="cls-1" x1="315.68" y1="205.8" x2="329.34" y2="219.46"/></g><g id="LINE-288" data-name="LINE"><line class="cls-1" x1="336.96" y1="227.08" x2="353.15" y2="243.27"/></g><g id="LINE-289" data-name="LINE"><line class="cls-1" x1="310.85" y1="213.04" x2="353.15" y2="255.35"/></g><g id="LINE-290" data-name="LINE"><line class="cls-1" x1="310.85" y1="225.12" x2="349.28" y2="263.55"/></g><g id="LINE-291" data-name="LINE"><line class="cls-1" x1="310.85" y1="237.2" x2="348.56" y2="274.9"/></g><g id="LINE-292" data-name="LINE"><line class="cls-1" x1="310.85" y1="249.27" x2="351.33" y2="289.75"/></g><g id="LINE-293" data-name="LINE"><line class="cls-1" x1="310.85" y1="261.35" x2="353.15" y2="303.65"/></g><g id="LINE-294" data-name="LINE"><line class="cls-1" x1="310.85" y1="273.42" x2="353.15" y2="315.73"/></g><g id="LINE-295" data-name="LINE"><line class="cls-1" x1="310.85" y1="285.5" x2="353.15" y2="327.8"/></g><g id="LINE-296" data-name="LINE"><line class="cls-1" x1="310.85" y1="297.57" x2="353.15" y2="339.88"/></g><g id="LINE-297" data-name="LINE"><line class="cls-1" x1="310.85" y1="309.65" x2="353.15" y2="351.95"/></g><g id="LINE-298" data-name="LINE"><line class="cls-1" x1="310.85" y1="321.72" x2="353.15" y2="364.03"/></g><g id="LINE-299" data-name="LINE"><line class="cls-1" x1="310.85" y1="333.8" x2="353.15" y2="376.1"/></g><g id="LINE-300" data-name="LINE"><line class="cls-1" x1="310.85" y1="345.88" x2="345.53" y2="380.56"/></g><g id="LINE-301" data-name="LINE"><line class="cls-1" x1="310.85" y1="357.95" x2="342.8" y2="389.9"/></g><g id="LINE-302" data-name="LINE"><line class="cls-1" x1="310.85" y1="370.03" x2="342.14" y2="401.32"/></g><g id="LINE-303" data-name="LINE"><line class="cls-1" x1="310.85" y1="382.1" x2="341.48" y2="412.74"/></g><g id="LINE-304" data-name="LINE"><line class="cls-1" x1="310.85" y1="394.18" x2="340.83" y2="424.16"/></g><g id="LINE-305" data-name="LINE"><line class="cls-1" x1="310.85" y1="406.25" x2="340.17" y2="435.58"/></g><g id="LINE-306" data-name="LINE"><line class="cls-1" x1="340.87" y1="436.27" x2="341.84" y2="437.24"/></g><g id="LINE-307" data-name="LINE"><line class="cls-1" x1="310.85" y1="418.33" x2="329.03" y2="436.51"/></g><g id="LINE-308" data-name="LINE"><line class="cls-1" x1="310.85" y1="430.4" x2="316.22" y2="435.77"/></g><g id="LINE-309" data-name="LINE"><line class="cls-1" x1="353.15" y1="231.2" x2="357.28" y2="227.08"/></g><g id="LINE-310" data-name="LINE"><line class="cls-1" x1="353.15" y1="243.27" x2="369.35" y2="227.08"/></g><g id="LINE-311" data-name="LINE"><line class="cls-1" x1="353.15" y1="255.35" x2="381.43" y2="227.08"/></g><g id="LINE-312" data-name="LINE"><line class="cls-1" x1="371.31" y1="249.27" x2="393.5" y2="227.08"/></g><g id="LINE-313" data-name="LINE"><line class="cls-1" x1="380.23" y1="252.43" x2="395.46" y2="237.2"/></g><g id="LINE-314" data-name="LINE"><line class="cls-1" x1="386.34" y1="258.39" x2="395.46" y2="249.27"/></g><g id="LINE-315" data-name="LINE"><line class="cls-1" x1="353.15" y1="303.65" x2="361.14" y2="295.66"/></g><g id="LINE-316" data-name="LINE"><line class="cls-1" x1="389.79" y1="267.02" x2="395.46" y2="261.35"/></g><g id="LINE-317" data-name="LINE"><line class="cls-1" x1="353.15" y1="315.73" x2="376.7" y2="292.18"/></g><g id="LINE-318" data-name="LINE"><line class="cls-1" x1="392.29" y1="276.59" x2="395.46" y2="273.42"/></g><g id="LINE-319" data-name="LINE"><line class="cls-1" x1="353.15" y1="327.8" x2="392.26" y2="288.7"/></g><g id="LINE-320" data-name="LINE"><line class="cls-1" x1="394.7" y1="286.25" x2="395.46" y2="285.5"/></g><g id="LINE-321" data-name="LINE"><line class="cls-1" x1="353.15" y1="339.88" x2="354.78" y2="338.26"/></g><g id="LINE-322" data-name="LINE"><line class="cls-1" x1="369.53" y1="323.5" x2="395.46" y2="297.57"/></g><g id="LINE-323" data-name="LINE"><line class="cls-1" x1="353.15" y1="351.95" x2="357.27" y2="347.84"/></g><g id="LINE-324" data-name="LINE"><line class="cls-1" x1="385.89" y1="319.21" x2="395.46" y2="309.65"/></g><g id="LINE-325" data-name="LINE"><line class="cls-1" x1="353.15" y1="364.03" x2="363.29" y2="353.89"/></g><g id="LINE-326" data-name="LINE"><line class="cls-1" x1="353.15" y1="376.1" x2="370.9" y2="358.35"/></g><g id="LINE-327" data-name="LINE"><line class="cls-1" x1="359.95" y1="381.39" x2="379.67" y2="361.66"/></g><g id="LINE-328" data-name="LINE"><line class="cls-1" x1="371.37" y1="382.04" x2="389.47" y2="363.94"/></g><g id="LINE-329" data-name="LINE"><line class="cls-1" x1="382.79" y1="382.7" x2="395.46" y2="370.03"/></g><g id="LINE-330" data-name="LINE"><line class="cls-1" x1="394.2" y1="383.36" x2="395.46" y2="382.1"/></g><g id="LINE-331" data-name="LINE"><line class="cls-1" x1="363.24" y1="438.47" x2="364.1" y2="437.61"/></g><g id="LINE-332" data-name="LINE"><line class="cls-1" x1="374.66" y1="439.13" x2="375.52" y2="438.26"/></g><g id="LINE-333" data-name="LINE"><line class="cls-1" x1="386.08" y1="439.79" x2="386.94" y2="438.92"/></g><g id="LINE-334" data-name="LINE"><line class="cls-1" x1="431.36" y1="43.66" x2="437.76" y2="50.06"/></g><g id="LINE-335" data-name="LINE"><line class="cls-1" x1="419.29" y1="43.66" x2="437.76" y2="62.14"/></g><g id="LINE-336" data-name="LINE"><line class="cls-1" x1="413.89" y1="50.35" x2="437.76" y2="74.22"/></g><g id="LINE-337" data-name="LINE"><line class="cls-1" x1="413.89" y1="62.42" x2="437.76" y2="86.29"/></g><g id="LINE-338" data-name="LINE"><line class="cls-1" x1="413.89" y1="74.5" x2="437.76" y2="98.37"/></g><g id="LINE-339" data-name="LINE"><line class="cls-1" x1="413.89" y1="86.57" x2="437.76" y2="110.44"/></g><g id="LINE-340" data-name="LINE"><line class="cls-1" x1="413.89" y1="98.65" x2="437.76" y2="122.52"/></g><g id="LINE-341" data-name="LINE"><line class="cls-1" x1="413.89" y1="110.72" x2="437.76" y2="134.59"/></g><g id="LINE-342" data-name="LINE"><line class="cls-1" x1="413.89" y1="122.8" x2="437.76" y2="146.67"/></g><g id="LINE-343" data-name="LINE"><line class="cls-1" x1="413.89" y1="134.87" x2="437.76" y2="158.74"/></g><g id="LINE-344" data-name="LINE"><line class="cls-1" x1="413.89" y1="146.95" x2="437.76" y2="170.82"/></g><g id="LINE-345" data-name="LINE"><line class="cls-1" x1="413.88" y1="159.01" x2="437.76" y2="182.9"/></g><g id="LINE-346" data-name="LINE"><line class="cls-1" x1="413.87" y1="171.08" x2="437.76" y2="194.97"/></g><g id="LINE-347" data-name="LINE"><line class="cls-1" x1="413.86" y1="183.14" x2="437.76" y2="207.05"/></g><g id="LINE-348" data-name="LINE"><line class="cls-1" x1="418.53" y1="199.89" x2="437.76" y2="219.12"/></g><g id="LINE-349" data-name="LINE"><line class="cls-1" x1="412.37" y1="205.8" x2="437.76" y2="231.2"/></g><g id="LINE-350" data-name="LINE"><line class="cls-1" x1="408.21" y1="213.72" x2="437.76" y2="243.27"/></g><g id="LINE-351" data-name="LINE"><line class="cls-1" x1="408.21" y1="225.79" x2="435.83" y2="253.42"/></g><g id="LINE-352" data-name="LINE"><line class="cls-1" x1="397.41" y1="227.08" x2="427.67" y2="257.34"/></g><g id="LINE-353" data-name="LINE"><line class="cls-1" x1="395.46" y1="237.2" x2="422.16" y2="263.9"/></g><g id="LINE-354" data-name="LINE"><line class="cls-1" x1="395.46" y1="249.27" x2="403.97" y2="257.78"/></g><g id="LINE-355" data-name="LINE"><line class="cls-1" x1="414.31" y1="268.13" x2="418.73" y2="272.54"/></g><g id="LINE-356" data-name="LINE"><line class="cls-1" x1="395.46" y1="261.35" x2="396.81" y2="262.7"/></g><g id="LINE-357" data-name="LINE"><line class="cls-1" x1="428.33" y1="294.22" x2="437.76" y2="303.65"/></g><g id="LINE-358" data-name="LINE"><line class="cls-1" x1="409.39" y1="275.28" x2="415.42" y2="281.31"/></g><g id="LINE-359" data-name="LINE"><line class="cls-1" x1="395.46" y1="273.42" x2="437.76" y2="315.73"/></g><g id="LINE-360" data-name="LINE"><line class="cls-1" x1="395.72" y1="285.76" x2="437.76" y2="327.8"/></g><g id="LINE-361" data-name="LINE"><line class="cls-1" x1="395.7" y1="297.81" x2="418.84" y2="320.95"/></g><g id="LINE-362" data-name="LINE"><line class="cls-1" x1="395.68" y1="309.87" x2="404.52" y2="318.71"/></g><g id="LINE-363" data-name="LINE"><line class="cls-1" x1="433.56" y1="359.83" x2="437.76" y2="364.03"/></g><g id="LINE-364" data-name="LINE"><line class="cls-1" x1="424.55" y1="362.89" x2="437.76" y2="376.1"/></g><g id="LINE-365" data-name="LINE"><line class="cls-1" x1="414.29" y1="364.71" x2="435.3" y2="385.72"/></g><g id="LINE-366" data-name="LINE"><line class="cls-1" x1="402.69" y1="365.19" x2="422.49" y2="384.98"/></g><g id="LINE-367" data-name="LINE"><line class="cls-1" x1="395.46" y1="370.03" x2="409.68" y2="384.24"/></g><g id="LINE-368" data-name="LINE"><line class="cls-1" x1="395.46" y1="382.1" x2="396.87" y2="383.51"/></g><g id="LINE-369" data-name="LINE"><line class="cls-1" x1="430.64" y1="441.43" x2="431.61" y2="442.4"/></g><g id="LINE-370" data-name="LINE"><line class="cls-1" x1="417.83" y1="440.7" x2="418.8" y2="441.67"/></g><g id="LINE-371" data-name="LINE"><line class="cls-1" x1="405.01" y1="439.96" x2="405.98" y2="440.93"/></g><g id="LWPOLYLINE-11" data-name="LWPOLYLINE"><line class="cls-1" x1="437.76" y1="43.66" x2="437.76" y2="253.06"/></g><g id="LWPOLYLINE-12" data-name="LWPOLYLINE"><line class="cls-1" x1="437.76" y1="297.39" x2="437.76" y2="328.4"/></g><g id="LWPOLYLINE-13" data-name="LWPOLYLINE"><line class="cls-1" x1="437.76" y1="357.19" x2="437.76" y2="385.89"/></g><g id="LWPOLYLINE-14" data-name="LWPOLYLINE"><line class="cls-1" x1="437.76" y1="441.87" x2="437.76" y2="442.76"/></g><g id="LWPOLYLINE-15" data-name="LWPOLYLINE"><line class="cls-1" x1="395.46" y1="227.08" x2="395.46" y2="318.48"/></g><g id="LWPOLYLINE-16" data-name="LWPOLYLINE"><line class="cls-1" x1="395.46" y1="364.75" x2="395.46" y2="383.46"/></g><g id="LWPOLYLINE-17" data-name="LWPOLYLINE"><line class="cls-1" x1="395.46" y1="439.44" x2="395.46" y2="440.33"/></g><g id="LWPOLYLINE-18" data-name="LWPOLYLINE"><line class="cls-1" x1="353.15" y1="227.08" x2="353.15" y2="256.4"/></g><g id="LWPOLYLINE-19" data-name="LWPOLYLINE"><line class="cls-1" x1="353.15" y1="296.88" x2="353.15" y2="381.03"/></g><g id="LWPOLYLINE-20" data-name="LWPOLYLINE"><line class="cls-1" x1="353.15" y1="437.01" x2="353.15" y2="437.89"/></g><g id="LWPOLYLINE-21" data-name="LWPOLYLINE"><line class="cls-1" x1="310.85" y1="205.8" x2="310.85" y2="435.46"/></g><g id="LWPOLYLINE-22" data-name="LWPOLYLINE"><line class="cls-1" x1="268.54" y1="205.8" x2="268.54" y2="288.59"/></g><g id="LWPOLYLINE-23" data-name="LWPOLYLINE"><line class="cls-1" x1="268.54" y1="353.58" x2="268.54" y2="411.99"/></g><g id="LWPOLYLINE-24" data-name="LWPOLYLINE"><line class="cls-1" x1="226.24" y1="205.8" x2="226.24" y2="339.89"/></g><g id="LWPOLYLINE-25" data-name="LWPOLYLINE"><line class="cls-1" x1="226.24" y1="342.44" x2="226.24" y2="401.58"/></g><g id="LWPOLYLINE-26" data-name="LWPOLYLINE"><line class="cls-1" x1="183.93" y1="249.27" x2="183.93" y2="330.42"/></g><g id="LWPOLYLINE-27" data-name="LWPOLYLINE"><line class="cls-1" x1="183.93" y1="356.8" x2="183.93" y2="367.64"/></g><g id="LWPOLYLINE-28" data-name="LWPOLYLINE"><line class="cls-1" x1="183.93" y1="394.02" x2="183.93" y2="428.17"/></g><g id="LWPOLYLINE-29" data-name="LWPOLYLINE"><line class="cls-1" x1="141.63" y1="249.27" x2="141.63" y2="311.37"/></g><g id="LWPOLYLINE-30" data-name="LWPOLYLINE"><line class="cls-1" x1="141.63" y1="409.19" x2="141.63" y2="425.74"/></g><g id="LWPOLYLINE-31" data-name="LWPOLYLINE"><line class="cls-1" x1="99.33" y1="249.27" x2="99.33" y2="423.31"/></g><g id="LWPOLYLINE-32" data-name="LWPOLYLINE"><line class="cls-1" x1="57.02" y1="411.07" x2="57.02" y2="420.88"/></g><g id="LWPOLYLINE-33" data-name="LWPOLYLINE"><line class="cls-1" x1="480.07" y1="43.66" x2="480.07" y2="445.19"/></g><g id="LWPOLYLINE-34" data-name="LWPOLYLINE"><line class="cls-1" x1="522.37" y1="273.81" x2="522.37" y2="391.8"/></g><g id="LWPOLYLINE-35" data-name="LWPOLYLINE"><line class="cls-1" x1="664.03" y1="89.07" x2="664.03" y2="141.85"/></g><g id="LWPOLYLINE-36" data-name="LWPOLYLINE"><line class="cls-1" x1="682.66" y1="89.07" x2="682.66" y2="141.85"/></g><g id="LINE-372" data-name="LINE"><line class="cls-1" x1="183.45" y1="363.54" x2="183.93" y2="364.03"/></g><g id="LINE-373" data-name="LINE"><line class="cls-1" x1="566.22" y1="280.02" x2="566.22" y2="385.59"/></g></g><g id="BATH_FIXTURES" data-name="BATH FIXTURES"><g id="ELLIPSE"><path class="cls-3" d="M783.56,78.11h-6.68c-.07.86-.28,1.45-.52,1.45l-5.49.29h0c-.18,0-.33-1.07-.32-2.36s.15-2.31.33-2.29h0l5.49.29c.24,0,.45.59.52,1.45h6.68" transform="translate(-7.75 -24.18)"/></g><g id="LWPOLYLINE-37" data-name="LWPOLYLINE"><path class="cls-3" d="M783.76,68.73H780.1V66.48a1.19,1.19,0,0,0-2.38,0V69.6a1.19,1.19,0,0,0,1.19,1.19,1.21,1.21,0,0,0,.81-.32h4" transform="translate(-7.75 -24.18)"/></g><path class="cls-3" d="M783.78,91.8h-1.11v1.33h-1.13a.63.63,0,0,0-.63.62V94h-1.3a.56.56,0,0,0-.57.57.57.57,0,0,0,.57.58h1.3v.29a.63.63,0,0,0,.63.62h1.13v1.33h1.11" transform="translate(-7.75 -24.18)"/><g id="LWPOLYLINE-38" data-name="LWPOLYLINE"><path class="cls-3" d="M391.89,71.41l.39-.18a2,2,0,0,0,1.08-1.87q-.17-2.53-.39-5.07a1.21,1.21,0,0,0-1.2-1.11H370.85a1.2,1.2,0,0,0-1.2,1.11q-.22,2.53-.39,5.07a2,2,0,0,0,1.08,1.87l.38.18" transform="translate(-7.75 -24.18)"/></g><g id="LWPOLYLINE-39" data-name="LWPOLYLINE"><path class="cls-3" d="M391.86,71.43a25,25,0,0,1-10.44,2.35,24.7,24.7,0,0,1-10.5-2.28" transform="translate(-7.75 -24.18)"/></g><g id="LWPOLYLINE-40" data-name="LWPOLYLINE"><path class="cls-3" d="M370.72,71.41q-.33,9.2-.33,18.39a23,23,0,0,0,1.82,9,15.09,15.09,0,0,0,4,5.53,7.75,7.75,0,0,0,10.16,0,15.2,15.2,0,0,0,4-5.53,23.13,23.13,0,0,0,1.82-9q0-9.19-.34-18.39" transform="translate(-7.75 -24.18)"/></g><g id="LINE-374" data-name="LINE"><line class="cls-3" x1="778.91" y1="82.86" x2="778.91" y2="185.32"/></g><g id="ELLIPSE-2" data-name="ELLIPSE"><path class="cls-3" d="M362.72,182.66c0-6.86,8.34-12.42,18.63-12.42S400,175.8,400,182.66s-8.34,12.42-18.63,12.42-18.63-5.56-18.63-12.42Z" transform="translate(-7.75 -24.18)"/></g><g id="LINE-375" data-name="LINE"><line class="cls-3" x1="688.87" y1="34.73" x2="688.87" y2="73.54"/></g><g id="LINE-376" data-name="LINE"><line class="cls-3" x1="814.62" y1="82.86" x2="814.62" y2="185.32"/></g><g id="LWPOLYLINE-41" data-name="LWPOLYLINE"><path class="cls-3" d="M707.19,210.84v-.38l.13-.08.66-.1,3.37-.15,6.59-.12q7.1.62,14.16,1.46a8.82,8.82,0,0,1,7.5,6.1,19.33,19.33,0,0,1,0,11.66,8.82,8.82,0,0,1-7.5,6.1,100.4,100.4,0,0,1-14.16,1.46l-6.59-.12-3.37-.16-.66-.09-.13-.08v-.56" transform="translate(-7.75 -24.18)"/></g><g id="LWPOLYLINE-42" data-name="LWPOLYLINE"><path class="cls-3" d="M717.87,236.79l-.09.05-1.7.09-4.54.13h-3.81l-11-.33a4.84,4.84,0,0,1-4.64-4.21A72.22,72.22,0,0,1,692,214.9a5.58,5.58,0,0,1,4.3-4.78l5.11-.27,6.33-.12,6.68.09,3.35.14.1,0" transform="translate(-7.75 -24.18)"/></g><g id="LWPOLYLINE-43" data-name="LWPOLYLINE"><path class="cls-3" d="M707.19,235.94v-.88h.22v-.56h2.42a.32.32,0,0,0,.31-.31V212.6a.31.31,0,0,0-.31-.3h-2.45v-.37h-.17l0-1.07a.26.26,0,0,0-.2-.25l-6.29.38a4.34,4.34,0,0,0-3,2.9,31.6,31.6,0,0,0-.57,5.32c0,1.39,0,2.79,0,4.19a56,56,0,0,0,.45,8.78,4.36,4.36,0,0,0,3.17,3.63,24,24,0,0,0,2.94.24l3.37.13a.34.34,0,0,0,.18-.24" transform="translate(-7.75 -24.18)"/></g><g id="LWPOLYLINE-44" data-name="LWPOLYLINE"><polyline class="cls-4" points="814.62 186.99 814.62 185.31 820.93 185.31 820.93 83.16 814.62 83.16 814.62 83.16"/></g><g id="LWPOLYLINE-45" data-name="LWPOLYLINE"><line class="cls-5" x1="820.93" y1="131.7" x2="814.62" y2="131.7"/></g><g id="LWPOLYLINE-46" data-name="LWPOLYLINE"><rect class="cls-5" x="814.65" y="88.89" width="1.36" height="42.81"/></g><g id="LWPOLYLINE-47" data-name="LWPOLYLINE"><polyline class="cls-5" points="814.62 138.11 814.62 137.43 820.93 137.43"/></g><g id="LWPOLYLINE-48" data-name="LWPOLYLINE"><line class="cls-5" x1="814.62" y1="179.57" x2="820.93" y2="179.57"/></g><g id="LWPOLYLINE-49" data-name="LWPOLYLINE"><line class="cls-5" x1="814.62" y1="88.89" x2="820.86" y2="88.89"/></g><g id="LWPOLYLINE-50" data-name="LWPOLYLINE"><rect class="cls-5" x="814.65" y="137.43" width="1.36" height="42.14"/></g></g><g id="BATH_GLAZING" data-name="BATH GLAZING"><g id="LINE-377" data-name="LINE"><line class="cls-6" x1="775.81" y1="81.43" x2="688.87" y2="81.43"/></g><g id="LINE-378" data-name="LINE"><line class="cls-6" x1="775.81" y1="79.62" x2="688.87" y2="79.62"/></g><g id="LWPOLYLINE-51" data-name="LWPOLYLINE"><rect class="cls-6" x="706.7" y="79.62" width="69.11" height="1.81"/></g></g><g id="RODS"><g id="LINE-379" data-name="LINE"><line class="cls-7" x1="537.55" y1="130.77" x2="537.55" y2="198.71"/></g><g id="LINE-380" data-name="LINE"><line class="cls-7" x1="534.44" y1="130.77" x2="534.44" y2="198.71"/></g><g id="LINE-381" data-name="LINE"><polyline class="cls-8" points="664.38 47.19 596.65 47.19 596.65 194.44 573.39 194.44"/></g><g id="LINE-382" data-name="LINE"><polyline class="cls-8" points="664.38 44.08 593.55 44.08 593.55 191.34 573.39 191.34"/></g></g><g id="HANGERS"><g id="LINE-383" data-name="LINE"><line class="cls-9" x1="522.02" y1="183.54" x2="549.97" y2="183.54"/></g><g id="LINE-384" data-name="LINE"><line class="cls-9" x1="522.02" y1="160.83" x2="549.97" y2="150.17"/></g><g id="LINE-385" data-name="LINE"><line class="cls-9" x1="522.02" y1="154.9" x2="549.97" y2="144.25"/></g><g id="LINE-386" data-name="LINE"><line class="cls-9" x1="522.02" y1="191.55" x2="549.97" y2="191.55"/></g><g id="LINE-387" data-name="LINE"><line class="cls-9" x1="522.02" y1="167.52" x2="549.97" y2="167.52"/></g><g id="LINE-388" data-name="LINE"><line class="cls-9" x1="522.02" y1="163.51" x2="549.97" y2="163.51"/></g><g id="LINE-389" data-name="LINE"><line class="cls-9" x1="522.02" y1="187.55" x2="549.97" y2="187.55"/></g><g id="LINE-390" data-name="LINE"><line class="cls-9" x1="522.02" y1="179.54" x2="549.97" y2="179.54"/></g><g id="LINE-391" data-name="LINE"><line class="cls-9" x1="522.02" y1="175.53" x2="549.97" y2="175.53"/></g><g id="LINE-392" data-name="LINE"><line class="cls-9" x1="522.02" y1="171.52" x2="549.97" y2="171.52"/></g><g id="LINE-393" data-name="LINE"><line class="cls-9" x1="637.24" y1="31.63" x2="626.58" y2="59.57"/></g><g id="LINE-394" data-name="LINE"><line class="cls-9" x1="631.31" y1="31.63" x2="620.66" y2="59.57"/></g><g id="LINE-395" data-name="LINE"><line class="cls-9" x1="643.93" y1="31.63" x2="643.93" y2="59.57"/></g><g id="LINE-396" data-name="LINE"><line class="cls-9" x1="639.92" y1="31.63" x2="639.92" y2="59.57"/></g><g id="LINE-397" data-name="LINE"><line class="cls-9" x1="647.93" y1="31.63" x2="647.93" y2="59.57"/></g><g id="LINE-398" data-name="LINE"><line class="cls-9" x1="581.11" y1="176.59" x2="609.06" y2="187.25"/></g><g id="LINE-399" data-name="LINE"><line class="cls-9" x1="581.11" y1="182.52" x2="609.06" y2="193.17"/></g><g id="LINE-400" data-name="LINE"><line class="cls-9" x1="581.11" y1="169.9" x2="609.06" y2="169.9"/></g><g id="LINE-401" data-name="LINE"><line class="cls-9" x1="581.11" y1="173.91" x2="609.06" y2="173.91"/></g><g id="LINE-402" data-name="LINE"><line class="cls-9" x1="581.11" y1="157.88" x2="609.06" y2="157.88"/></g><g id="LINE-403" data-name="LINE"><line class="cls-9" x1="581.11" y1="161.89" x2="609.06" y2="161.89"/></g><g id="LINE-404" data-name="LINE"><line class="cls-9" x1="581.11" y1="165.9" x2="609.06" y2="165.9"/></g></g><g id="FURNITURE"><g id="LWPOLYLINE-52" data-name="LWPOLYLINE"><rect class="cls-10" x="377.34" y="379.86" width="55.89" height="111.78" transform="translate(-60.75 791.19) rotate(-86.71)"/></g><g id="ARC"><path class="cls-10" d="M291,383.5a44.8,44.8,0,0,0,20.86-20.86" transform="translate(-7.75 -24.18)"/></g><g id="LWPOLYLINE-53" data-name="LWPOLYLINE"><path class="cls-10" d="M301,351.78,314.21,365a47.92,47.92,0,0,1-20.86,20.85l-13.17-13.17Z" transform="translate(-7.75 -24.18)"/></g><g id="ARC-2" data-name="ARC"><path class="cls-10" d="M311.89,327.88A44.8,44.8,0,0,0,291,307" transform="translate(-7.75 -24.18)"/></g><g id="LWPOLYLINE-54" data-name="LWPOLYLINE"><rect class="cls-10" x="793.58" y="395.34" width="24.84" height="31.05"/></g><g id="LWPOLYLINE-55" data-name="LWPOLYLINE"><path class="cls-10" d="M280.18,317.88l13.17-13.17a47.89,47.89,0,0,1,20.86,20.86L301,338.74Z" transform="translate(-7.75 -24.18)"/></g><g id="ARC-3" data-name="ARC"><path class="cls-10" d="M256.27,307a44.78,44.78,0,0,0-20.85,20.86" transform="translate(-7.75 -24.18)"/></g><g id="LWPOLYLINE-56" data-name="LWPOLYLINE"><rect class="cls-10" x="377.34" y="379.86" width="55.89" height="111.78" transform="translate(-60.75 791.19) rotate(-86.71)"/></g><g id="LWPOLYLINE-57" data-name="LWPOLYLINE"><path class="cls-10" d="M246.27,338.74,233.1,325.57A47.79,47.79,0,0,1,254,304.71l13.17,13.17Z" transform="translate(-7.75 -24.18)"/></g><g id="LWPOLYLINE-58" data-name="LWPOLYLINE"><rect class="cls-10" x="793.58" y="238.54" width="24.84" height="31.05"/></g><g id="ARC-4" data-name="ARC"><path class="cls-10" d="M235.42,362.64a44.78,44.78,0,0,0,20.85,20.86" transform="translate(-7.75 -24.18)"/></g><g id="LWPOLYLINE-59" data-name="LWPOLYLINE"><path class="cls-10" d="M267.13,372.64,254,385.81A47.82,47.82,0,0,1,233.1,365l13.17-13.18Z" transform="translate(-7.75 -24.18)"/></g><g id="LWPOLYLINE-60" data-name="LWPOLYLINE"><rect class="cls-10" x="329.34" y="205.8" width="78.87" height="21.27"/></g><g id="CIRCLE"><path class="cls-10" d="M241.05,345.26a32.61,32.61,0,1,1,32.6,32.6,32.61,32.61,0,0,1-32.6-32.6Z" transform="translate(-7.75 -24.18)"/></g><g id="ELLIPSE-3" data-name="ELLIPSE"><path class="cls-10" d="M455.43,368.44c.67-12.85-19.61-24.34-45.3-25.68s-47.05,8-47.72,20.84,19.61,24.34,45.3,25.67,47.05-8,47.72-20.83Z" transform="translate(-7.75 -24.18)"/></g><g id="CIRCLE-2" data-name="CIRCLE"><path class="cls-10" d="M392.94,240.46a9.32,9.32,0,1,1,9.32,9.31,9.32,9.32,0,0,1-9.32-9.31Z" transform="translate(-7.75 -24.18)"/></g><g id="CIRCLE-3" data-name="CIRCLE"><path class="cls-10" d="M422,293a9.32,9.32,0,1,1-7.43-10.88A9.33,9.33,0,0,1,422,293Z" transform="translate(-7.75 -24.18)"/></g><g id="LINE-405" data-name="LINE"><line class="cls-10" x1="442.96" y1="432.84" x2="445.64" y2="386.35"/></g><g id="LINE-406" data-name="LINE"><line class="cls-10" x1="442.96" y1="432.84" x2="349.97" y2="427.5"/></g><g id="LINE-407" data-name="LINE"><line class="cls-10" x1="443.23" y1="428.19" x2="350.24" y2="422.85"/></g><g id="LINE-408" data-name="LINE"><line class="cls-10" x1="349.97" y1="427.5" x2="352.64" y2="381"/></g><g id="LINE-409" data-name="LINE"><line class="cls-10" x1="399.14" y1="383.67" x2="396.47" y2="430.17"/></g><g id="LINE-410" data-name="LINE"><line class="cls-10" x1="394.51" y1="225.59" x2="394.51" y2="206.96"/></g><g id="LWPOLYLINE-61" data-name="LWPOLYLINE"><line class="cls-10" x1="385.19" y1="216.28" x2="403.82" y2="216.28"/></g><g id="LWPOLYLINE-62" data-name="LWPOLYLINE"><path class="cls-10" d="M825.56,414.87H705.2a4.45,4.45,0,0,1-3.84-4.49V302.62a4,4,0,0,1,3.85-4.19H825.64" transform="translate(-7.75 -24.18)"/></g><g id="CIRCLE-4" data-name="CIRCLE"><path class="cls-10" d="M805.83,435.1a7.76,7.76,0,1,1,7.76,7.76,7.75,7.75,0,0,1-7.76-7.76Z" transform="translate(-7.75 -24.18)"/></g><g id="CIRCLE-5" data-name="CIRCLE"><path class="cls-10" d="M659.89,467.33a9.32,9.32,0,1,1-7.42-10.89,9.32,9.32,0,0,1,7.42,10.89Z" transform="translate(-7.75 -24.18)"/></g><g id="LINE-411" data-name="LINE"><line class="cls-10" x1="772.79" y1="274.26" x2="772.79" y2="390.7"/></g><g id="CIRCLE-6" data-name="CIRCLE"><path class="cls-10" d="M805.83,278.19a7.76,7.76,0,1,1,7.76,7.76,7.76,7.76,0,0,1-7.76-7.76Z" transform="translate(-7.75 -24.18)"/></g><g id="LINE-412" data-name="LINE"><line class="cls-10" x1="798.08" y1="410.87" x2="813.6" y2="410.87"/></g><g id="LINE-413" data-name="LINE"><line class="cls-10" x1="806" y1="418.69" x2="806" y2="403.16"/></g><g id="LINE-414" data-name="LINE"><line class="cls-10" x1="798.08" y1="254.07" x2="813.6" y2="254.07"/></g><g id="LINE-415" data-name="LINE"><line class="cls-10" x1="806" y1="246.25" x2="806" y2="261.78"/></g><g id="LWPOLYLINE-63" data-name="LWPOLYLINE"><polyline class="cls-10" points="791.42 333.83 814.75 333.83 814.75 388.17 791.42 388.17"/></g><g id="LWPOLYLINE-64" data-name="LWPOLYLINE"><polyline class="cls-10" points="791.42 331.11 814.75 331.11 814.75 276.77 791.42 276.77"/></g><g id="LWPOLYLINE-65" data-name="LWPOLYLINE"><rect class="cls-10" x="817.85" y="274.25" width="6.21" height="116.44"/></g><g id="LINE-416" data-name="LINE"><line class="cls-10" x1="791.42" y1="274.26" x2="791.42" y2="390.7"/></g><g id="LWPOLYLINE-66" data-name="LWPOLYLINE"><rect class="cls-10" x="660.7" y="285.89" width="27.94" height="93.15" rx="1.55" ry="1.55"/></g><g id="LWPOLYLINE-67" data-name="LWPOLYLINE"><path class="cls-10" d="M356.31,298.64a20.9,20.9,0,0,1,40.79-9.13l5.53,21.13v.06a1.55,1.55,0,0,1-1.18,1.85l-39.28,8.79h-.05a1.55,1.55,0,0,1-1.81-1.24Z" transform="translate(-7.75 -24.18)"/></g><g id="LWPOLYLINE-68" data-name="LWPOLYLINE"><path class="cls-10" d="M391.07,291l1.8,6.9a8.13,8.13,0,0,0,7.66,4.75l-3.74-14.29a20.9,20.9,0,0,0-40.7,9.12L358.8,312a8.13,8.13,0,0,0,4.91-7.56l-1.31-7A14.69,14.69,0,0,1,391.07,291Z" transform="translate(-7.75 -24.18)"/></g><g id="LWPOLYLINE-69" data-name="LWPOLYLINE"><path class="cls-10" d="M468.19,304.47a20.9,20.9,0,0,0-39.62-13.32l-7.69,20.44a1.55,1.55,0,0,0,.9,2l.06,0L460,326.43a1.55,1.55,0,0,0,2-1v-.06Z" transform="translate(-7.75 -24.18)"/></g><g id="LWPOLYLINE-70" data-name="LWPOLYLINE"><path class="cls-10" d="M434.42,293.25l-2.51,6.67a8.13,8.13,0,0,1-8.12,3.93L429,290a20.9,20.9,0,0,1,39.54,13.29l-4.2,14.16a8.15,8.15,0,0,1-4.1-8l2-6.83a14.69,14.69,0,0,0-27.84-9.36Z" transform="translate(-7.75 -24.18)"/></g><g id="LWPOLYLINE-71" data-name="LWPOLYLINE"><path class="cls-10" d="M627.69,465.11a20.9,20.9,0,0,1-29.3-29.81l15-15.85,0,0a1.54,1.54,0,0,1,2.19,0l28.22,28.7,0,0a1.56,1.56,0,0,1-.1,2.2Z" transform="translate(-7.75 -24.18)"/></g><g id="LWPOLYLINE-72" data-name="LWPOLYLINE"><path class="cls-10" d="M602.83,439.64l4.9-5.17a8.11,8.11,0,0,0,0-9l-10.15,10.72a20.9,20.9,0,0,0,29.23,29.75l10.9-10a8.13,8.13,0,0,0-9-.17l-5.26,4.81a14.69,14.69,0,0,1-20.59-20.95Z" transform="translate(-7.75 -24.18)"/></g><g id="ARC-5" data-name="ARC"><path class="cls-10" d="M191.2,381a13.2,13.2,0,0,0,0-26.4" transform="translate(-7.75 -24.18)"/></g><g id="ARC-6" data-name="ARC"><path class="cls-10" d="M191.2,391.81a13.2,13.2,0,1,1,0,26.4" transform="translate(-7.75 -24.18)"/></g><g id="LINE-417" data-name="LINE"><line class="cls-10" x1="573.98" y1="427.51" x2="573.98" y2="399.57"/></g><g id="LINE-418" data-name="LINE"><line class="cls-10" x1="513.25" y1="266.05" x2="513.25" y2="238.11"/></g><g id="LINE-419" data-name="LINE"><line class="cls-10" x1="513.25" y1="421.3" x2="513.25" y2="399.57"/></g><g id="LINE-420" data-name="LINE"><line class="cls-10" x1="688.87" y1="34.73" x2="688.87" y2="28.52"/></g><g id="LINE-421" data-name="LINE"><line class="cls-10" x1="682.66" y1="73.54" x2="682.66" y2="34.73"/></g><g id="LINE-422" data-name="LINE"><line class="cls-10" x1="682.66" y1="73.54" x2="688.87" y2="73.54"/></g><g id="LINE-423" data-name="LINE"><line class="cls-10" x1="688.87" y1="28.52" x2="768.05" y2="28.52"/></g></g><g id="KITCHEN"><g id="LWPOLYLINE-73" data-name="LWPOLYLINE"><polyline class="cls-11" points="18.88 411.07 59.24 411.07 59.24 249.27 206.73 249.27 206.73 205.8"/></g><g id="LWPOLYLINE-74" data-name="LWPOLYLINE"><rect class="cls-11" x="121.35" y="311.37" width="62.1" height="97.82"/></g></g><g id="APPLIANCES"><g id="LWPOLYLINE-75" data-name="LWPOLYLINE"><rect class="cls-12" x="162.34" y="249.53" width="2.33" height="1.41"/></g><g id="LWPOLYLINE-76" data-name="LWPOLYLINE"><rect class="cls-12" x="199.71" y="249.39" width="2.33" height="1.55"/></g><rect class="cls-12" x="161.23" y="250.83" width="41.82" height="1.55"/><g id="LINE-424" data-name="LINE"><line class="cls-6" x1="121.4" y1="335.92" x2="121.35" y2="335.92"/></g><g id="LINE-425" data-name="LINE"><line class="cls-6" x1="121.35" y1="328.06" x2="121.35" y2="335.92"/></g><g id="LINE-426" data-name="LINE"><line class="cls-6" x1="121.4" y1="328.06" x2="121.35" y2="328.06"/></g><g id="LINE-427" data-name="LINE"><line class="cls-6" x1="121.4" y1="350.18" x2="121.4" y2="335.92"/></g><g id="LINE-428" data-name="LINE"><line class="cls-6" x1="121.4" y1="328.06" x2="121.4" y2="313.79"/></g><g id="LINE-429" data-name="LINE"><line class="cls-13" x1="156.23" y1="350.28" x2="121.4" y2="350.28"/></g><g id="LINE-430" data-name="LINE"><line class="cls-13" x1="156.23" y1="313.7" x2="121.4" y2="313.7"/></g><g id="LINE-431" data-name="LINE"><line class="cls-13" x1="156.23" y1="313.7" x2="156.23" y2="350.28"/></g><g id="LINE-432" data-name="LINE"><line class="cls-6" x1="121.4" y1="392.5" x2="121.35" y2="392.5"/></g><g id="LINE-433" data-name="LINE"><line class="cls-6" x1="121.35" y1="384.64" x2="121.35" y2="392.5"/></g><g id="LINE-434" data-name="LINE"><line class="cls-6" x1="121.4" y1="384.64" x2="121.35" y2="384.64"/></g><g id="LINE-435" data-name="LINE"><line class="cls-6" x1="121.4" y1="406.77" x2="121.4" y2="392.5"/></g><g id="LINE-436" data-name="LINE"><line class="cls-6" x1="121.4" y1="384.64" x2="121.4" y2="370.38"/></g><g id="LINE-437" data-name="LINE"><line class="cls-13" x1="156.23" y1="406.86" x2="121.4" y2="406.86"/></g><g id="LINE-438" data-name="LINE"><line class="cls-13" x1="156.23" y1="370.28" x2="121.4" y2="370.28"/></g><g id="LINE-439" data-name="LINE"><line class="cls-6" x1="58.69" y1="370.9" x2="15.77" y2="370.9"/></g><g id="LINE-440" data-name="LINE"><line class="cls-13" x1="156.23" y1="370.28" x2="156.23" y2="406.86"/></g><g id="LWPOLYLINE-77" data-name="LWPOLYLINE"><rect class="cls-6" x="519.05" y="85.28" width="34.93" height="36.48"/></g><g id="LWPOLYLINE-78" data-name="LWPOLYLINE"><polyline class="cls-6" points="519.05 115.36 517.88 115.36 517.88 91.68 519.05 91.68"/></g><g id="LINE-441" data-name="LINE"><line class="cls-6" x1="157.05" y1="249.27" x2="157.05" y2="205.8"/></g><g id="LINE-442" data-name="LINE"><polyline class="cls-12" points="60.73 373.01 59.29 373.01 59.29 375.34 60.73 375.34"/></g><rect class="cls-12" x="59.29" y="406.56" width="1.44" height="2.33"/><rect class="cls-12" x="60.75" y="371.68" width="1.55" height="39"/><path class="cls-9" d="M102.88,249.36a2.46,2.46,0,1,1,2.46-2.46A2.46,2.46,0,0,1,102.88,249.36Z" transform="translate(-7.75 -24.18)"/><path class="cls-9" d="M121.18,249.36a2.46,2.46,0,1,1,2.45-2.46A2.46,2.46,0,0,1,121.18,249.36Z" transform="translate(-7.75 -24.18)"/><path class="cls-9" d="M102.88,265.18a2.46,2.46,0,1,1,2.46-2.46A2.46,2.46,0,0,1,102.88,265.18Z" transform="translate(-7.75 -24.18)"/><path class="cls-9" d="M121.18,265.18a2.46,2.46,0,1,1,2.45-2.46A2.46,2.46,0,0,1,121.18,265.18Z" transform="translate(-7.75 -24.18)"/><line class="cls-9" x1="104.2" y1="246.4" x2="86.07" y2="230.67"/><g id="LINE-443" data-name="LINE"><line class="cls-9" x1="104.2" y1="247.19" x2="104.2" y2="214"/></g><rect class="cls-9" x="86.07" y="214.78" width="36.59" height="31.63"/><line class="cls-9" x1="86.07" y1="230.67" x2="122.65" y2="230.67"/><g id="CIRCLE-7" data-name="CIRCLE"><path class="cls-9" d="M134,252.93a1.42,1.42,0,1,1,1.42,1.42,1.41,1.41,0,0,1-1.42-1.42Z" transform="translate(-7.75 -24.18)"/></g><g id="CIRCLE-8" data-name="CIRCLE"><path class="cls-9" d="M134,257.68a1.42,1.42,0,1,1,1.42,1.42,1.41,1.41,0,0,1-1.42-1.42Z" transform="translate(-7.75 -24.18)"/></g><g id="CIRCLE-9" data-name="CIRCLE"><path class="cls-9" d="M134,262.47a1.42,1.42,0,1,1,1.42,1.41,1.41,1.41,0,0,1-1.42-1.41Z" transform="translate(-7.75 -24.18)"/></g><g id="CIRCLE-10" data-name="CIRCLE"><path class="cls-9" d="M134,267a1.42,1.42,0,1,1,1.42,1.42A1.41,1.41,0,0,1,134,267Z" transform="translate(-7.75 -24.18)"/></g><rect class="cls-9" x="84.79" y="214" width="46.57" height="33.19"/><line class="cls-9" x1="86.07" y1="246.4" x2="104.2" y2="230.67"/><line class="cls-9" x1="122.65" y1="214.78" x2="104.2" y2="230.67"/><line class="cls-9" x1="104.2" y1="214.78" x2="122.65" y2="230.67"/><line class="cls-9" x1="86.07" y1="214.78" x2="104.2" y2="230.67"/><line class="cls-9" x1="86.07" y1="230.67" x2="104.2" y2="214.78"/><line class="cls-9" x1="122.65" y1="246.4" x2="104.2" y2="230.67"/><line class="cls-9" x1="122.65" y1="230.67" x2="104.2" y2="246.4"/></g><g id="SINKS"><g id="LWPOLYLINE-79" data-name="LWPOLYLINE"><rect class="cls-14" x="25.15" y="350.22" width="3.1" height="1.75"/></g><g id="LWPOLYLINE-80" data-name="LWPOLYLINE"><polyline class="cls-14" points="28.07 351.97 28.07 352.46 25.35 352.46 25.35 351.97"/></g><g id="LWPOLYLINE-81" data-name="LWPOLYLINE"><polyline class="cls-14" points="25.35 350.22 25.35 349.74 28.07 349.74 28.07 350.22"/></g><g id="LINE-444" data-name="LINE"><line class="cls-14" x1="27.86" y1="350.22" x2="27.86" y2="351.97"/></g><g id="CIRCLE-11" data-name="CIRCLE"><path class="cls-14" d="M33.29,362.86A1.17,1.17,0,1,1,34.46,364a1.17,1.17,0,0,1-1.17-1.16Z" transform="translate(-7.75 -24.18)"/></g><g id="LWPOLYLINE-82" data-name="LWPOLYLINE"><polyline class="cls-14" points="28.07 345.66 28.07 346.25 25.35 346.25 25.35 343.53 28.07 343.53 28.07 344.11"/></g><g id="LWPOLYLINE-83" data-name="LWPOLYLINE"><polyline class="cls-14" points="28.07 338.97 28.07 340.04 25.35 340.04 25.35 337.32 28.07 337.32 28.07 338.39"/></g><g id="LWPOLYLINE-84" data-name="LWPOLYLINE"><polyline class="cls-14" points="27.83 338.97 29.71 338.97 29.71 338.39 27.83 338.39"/></g><rect class="cls-14" x="24.48" y="326.23" width="4.49" height="4.46"/><g id="LWPOLYLINE-85" data-name="LWPOLYLINE"><rect class="cls-14" x="25.93" y="344.11" width="13.97" height="1.55"/></g><g id="LWPOLYLINE-86" data-name="LWPOLYLINE"><polyline class="cls-14" points="29.81 345.66 29.81 368.18 56.2 368.18 56.2 321.6 29.81 321.6 29.81 344.11"/></g><rect class="cls-14" x="26.32" y="326.92" width="0.82" height="1.24"/><line class="cls-14" x1="26.19" y1="326.6" x2="27.27" y2="326.6"/><rect class="cls-15" x="26.12" y="328.58" width="12.59" height="1.76"/><g id="LWPOLYLINE-87" data-name="LWPOLYLINE"><rect class="cls-14" x="376.25" y="172.91" width="3.88" height="0.39"/></g><g id="LWPOLYLINE-88" data-name="LWPOLYLINE"><rect class="cls-14" x="371.59" y="172.91" width="3.88" height="0.39"/></g><g id="LWPOLYLINE-89" data-name="LWPOLYLINE"><rect class="cls-14" x="366.93" y="172.91" width="3.88" height="0.39"/></g><g id="LWPOLYLINE-90" data-name="LWPOLYLINE"><polyline class="cls-15" points="379.51 172.91 379.51 169.03 376.86 169.03 376.86 172.91"/></g><g id="LWPOLYLINE-91" data-name="LWPOLYLINE"><polyline class="cls-15" points="367.54 172.91 367.54 169.03 370.2 169.03 370.2 172.91"/></g><g id="ELLIPSE-4" data-name="ELLIPSE"><path class="cls-14" d="M367.76,182.66c0-5.14,6.09-9.31,13.59-9.31s13.58,4.17,13.58,9.31S388.85,192,381.35,192s-13.59-4.17-13.59-9.32Z" transform="translate(-7.75 -24.18)"/></g><g id="LWPOLYLINE-92" data-name="LWPOLYLINE"><path class="cls-14" d="M811.11,132.65v14.48a.66.66,0,0,1-.65.66H792a.66.66,0,0,1-.66-.66v-29a.66.66,0,0,1,.66-.66h18.48a.66.66,0,0,1,.65.66Z" transform="translate(-7.75 -24.18)"/></g><g id="LWPOLYLINE-93" data-name="LWPOLYLINE"><path class="cls-14" d="M811.11,183.88v14.48a.65.65,0,0,1-.65.66H792a.65.65,0,0,1-.66-.66v-29a.65.65,0,0,1,.66-.65h18.48a.65.65,0,0,1,.65.65Z" transform="translate(-7.75 -24.18)"/></g><g id="LWPOLYLINE-94" data-name="LWPOLYLINE"><polyline class="cls-14" points="806.37 107.31 806.37 106.82 809.67 106.82 809.67 110.12 806.37 110.12 806.37 109.64"/></g><g id="LWPOLYLINE-95" data-name="LWPOLYLINE"><polyline class="cls-14" points="806.37 114.06 806.37 113.03 809.67 113.03 809.67 116.33 806.37 116.33 806.37 115.3"/></g><g id="LWPOLYLINE-96" data-name="LWPOLYLINE"><rect class="cls-15" x="795.8" y="107.31" width="12.42" height="2.33"/></g><g id="ARC-7" data-name="ARC"><path class="cls-14" d="M814.79,139.48a1.16,1.16,0,0,0,1.6.37,1.16,1.16,0,1,0-1.24-2,1,1,0,0,0-.36.36" transform="translate(-7.75 -24.18)"/></g><g id="LWPOLYLINE-97" data-name="LWPOLYLINE"><rect class="cls-14" x="803.95" y="114.06" width="4.27" height="1.24"/></g><g id="LWPOLYLINE-98" data-name="LWPOLYLINE"><polyline class="cls-14" points="806.37 158.54 806.37 158.06 809.67 158.06 809.67 161.35 806.37 161.35 806.37 160.87"/></g><g id="LWPOLYLINE-99" data-name="LWPOLYLINE"><polyline class="cls-14" points="806.37 165.29 806.37 164.27 809.67 164.27 809.67 167.56 806.37 167.56 806.37 166.54"/></g><g id="LWPOLYLINE-100" data-name="LWPOLYLINE"><rect class="cls-15" x="795.8" y="158.54" width="12.42" height="2.33"/></g><g id="ARC-8" data-name="ARC"><path class="cls-14" d="M814.79,190.71a1.16,1.16,0,1,0,2-1.24,1.18,1.18,0,0,0-1.61-.36,1.13,1.13,0,0,0-.36.36" transform="translate(-7.75 -24.18)"/></g><g id="LWPOLYLINE-101" data-name="LWPOLYLINE"><rect class="cls-14" x="803.95" y="165.29" width="4.27" height="1.24"/></g><g id="LINE-445" data-name="LINE"><polyline class="cls-15" points="374.07 172.91 374.07 160.49 372.99 160.49 372.99 173.3"/></g></g><g id="SILLS"><g id="LINE-446" data-name="LINE"><line class="cls-9" x1="16.78" y1="448.32" x2="777.23" y2="491.99"/></g><line class="cls-8" x1="18.08" y1="418.86" x2="770.21" y2="462.08"/></g><g id="WINDOW_GLAZING" data-name="WINDOW GLAZING"><line class="cls-16" x1="695.03" y1="472.78" x2="756.83" y2="476.51"/><line class="cls-16" x1="756.74" y1="478.13" x2="694.94" y2="474.4"/><line class="cls-16" x1="586.46" y1="466.55" x2="648.26" y2="470.28"/><line class="cls-16" x1="648.17" y1="471.9" x2="586.37" y2="468.17"/><line class="cls-16" x1="414.59" y1="456.66" x2="476.38" y2="460.39"/><line class="cls-16" x1="476.29" y1="462.01" x2="414.5" y2="458.28"/><line class="cls-16" x1="305.84" y1="450.43" x2="367.64" y2="454.16"/><line class="cls-16" x1="367.55" y1="455.78" x2="305.76" y2="452.05"/><line class="cls-16" x1="133.88" y1="440.54" x2="195.68" y2="444.27"/><line class="cls-16" x1="195.59" y1="445.89" x2="133.79" y2="442.16"/><line class="cls-16" x1="25.43" y1="434.32" x2="87.22" y2="438.05"/><line class="cls-16" x1="87.13" y1="439.67" x2="25.34" y2="435.94"/></g><g id="MULLIONS"><g id="LWPOLYLINE-102" data-name="LWPOLYLINE"><rect class="cls-17" x="766.1" y="499.98" width="8.93" height="3.69" transform="translate(217.61 1218.15) rotate(-86.71)"/></g><g id="LWPOLYLINE-103" data-name="LWPOLYLINE"><rect class="cls-17" x="692.29" y="495.74" width="8.93" height="3.69" transform="translate(152.27 1140.46) rotate(-86.71)"/></g><g id="LWPOLYLINE-104" data-name="LWPOLYLINE"><rect class="cls-17" x="765.33" y="499.56" width="2.72" height="4.08" transform="translate(214.18 1214.07) rotate(-86.71)"/></g><g id="LWPOLYLINE-105" data-name="LWPOLYLINE"><rect class="cls-17" x="699.27" y="495.77" width="2.72" height="4.08" transform="translate(155.7 1144.54) rotate(-86.71)"/></g><g id="LINE-447" data-name="LINE"><line class="cls-17" x1="690.59" y1="477.96" x2="760.72" y2="481.99"/></g><g id="LINE-448" data-name="LINE"><line class="cls-17" x1="761.23" y1="473.08" x2="691.1" y2="469.05"/></g><g id="LWPOLYLINE-106" data-name="LWPOLYLINE"><rect class="cls-17" x="657.53" y="493.74" width="8.93" height="3.69" transform="translate(121.49 1103.88) rotate(-86.71)"/></g><g id="LWPOLYLINE-107" data-name="LWPOLYLINE"><rect class="cls-17" x="583.72" y="489.5" width="8.93" height="3.69" transform="translate(56.15 1026.19) rotate(-86.71)"/></g><g id="LWPOLYLINE-108" data-name="LWPOLYLINE"><rect class="cls-17" x="656.76" y="493.33" width="2.72" height="4.08" transform="translate(118.06 1099.8) rotate(-86.71)"/></g><g id="LWPOLYLINE-109" data-name="LWPOLYLINE"><rect class="cls-17" x="590.7" y="489.53" width="2.72" height="4.08" transform="translate(59.58 1030.27) rotate(-86.71)"/></g><g id="LINE-449" data-name="LINE"><line class="cls-17" x1="582.01" y1="471.73" x2="652.15" y2="475.76"/></g><g id="LINE-450" data-name="LINE"><line class="cls-17" x1="652.66" y1="466.85" x2="582.53" y2="462.82"/></g><g id="LWPOLYLINE-110" data-name="LWPOLYLINE"><rect class="cls-17" x="485.66" y="483.86" width="8.93" height="3.69" transform="translate(-30.65 922.97) rotate(-86.71)"/></g><g id="LWPOLYLINE-111" data-name="LWPOLYLINE"><rect class="cls-17" x="411.84" y="479.62" width="8.93" height="3.69" transform="translate(-96 845.28) rotate(-86.71)"/></g><g id="LWPOLYLINE-112" data-name="LWPOLYLINE"><rect class="cls-17" x="484.89" y="483.44" width="2.72" height="4.08" transform="translate(-34.08 918.89) rotate(-86.71)"/></g><g id="LWPOLYLINE-113" data-name="LWPOLYLINE"><rect class="cls-17" x="418.82" y="479.64" width="2.72" height="4.08" transform="translate(-92.57 849.36) rotate(-86.71)"/></g><g id="LINE-451" data-name="LINE"><line class="cls-17" x1="410.14" y1="461.84" x2="480.27" y2="465.87"/></g><g id="LINE-452" data-name="LINE"><line class="cls-17" x1="480.78" y1="456.96" x2="410.65" y2="452.93"/></g><g id="LWPOLYLINE-114" data-name="LWPOLYLINE"><rect class="cls-17" x="376.92" y="477.62" width="8.93" height="3.69" transform="translate(-126.93 808.53) rotate(-86.71)"/></g><g id="LWPOLYLINE-115" data-name="LWPOLYLINE"><rect class="cls-17" x="303.1" y="473.38" width="8.93" height="3.69" transform="translate(-192.27 730.84) rotate(-86.71)"/></g><g id="LWPOLYLINE-116" data-name="LWPOLYLINE"><rect class="cls-17" x="376.15" y="477.21" width="2.72" height="4.08" transform="translate(-130.36 804.45) rotate(-86.71)"/></g><g id="LWPOLYLINE-117" data-name="LWPOLYLINE"><rect class="cls-17" x="310.08" y="473.41" width="2.72" height="4.08" transform="translate(-188.84 734.92) rotate(-86.71)"/></g><g id="LINE-453" data-name="LINE"><line class="cls-17" x1="301.4" y1="455.61" x2="371.53" y2="459.64"/></g><g id="LINE-454" data-name="LINE"><line class="cls-17" x1="372.04" y1="450.73" x2="301.91" y2="446.7"/></g><g id="LWPOLYLINE-118" data-name="LWPOLYLINE"><rect class="cls-17" x="204.95" y="467.74" width="8.93" height="3.69" transform="translate(-279.16 627.53) rotate(-86.71)"/></g><g id="LWPOLYLINE-119" data-name="LWPOLYLINE"><rect class="cls-17" x="131.13" y="463.49" width="8.93" height="3.69" transform="translate(-344.5 549.84) rotate(-86.71)"/></g><g id="LWPOLYLINE-120" data-name="LWPOLYLINE"><rect class="cls-17" x="204.18" y="467.32" width="2.72" height="4.08" transform="translate(-282.59 623.45) rotate(-86.71)"/></g><g id="LWPOLYLINE-121" data-name="LWPOLYLINE"><rect class="cls-17" x="138.11" y="463.52" width="2.72" height="4.08" transform="translate(-341.07 553.92) rotate(-86.71)"/></g><g id="LINE-455" data-name="LINE"><line class="cls-17" x1="129.43" y1="445.72" x2="199.57" y2="449.75"/></g><g id="LINE-456" data-name="LINE"><line class="cls-17" x1="200.08" y1="440.84" x2="129.94" y2="436.81"/></g><g id="LWPOLYLINE-122" data-name="LWPOLYLINE"><rect class="cls-17" x="96.5" y="461.52" width="8.93" height="3.69" transform="translate(-375.18 513.39) rotate(-86.71)"/></g><g id="LWPOLYLINE-123" data-name="LWPOLYLINE"><rect class="cls-17" x="22.68" y="457.27" width="8.93" height="3.69" transform="translate(-440.52 435.7) rotate(-86.71)"/></g><g id="LWPOLYLINE-124" data-name="LWPOLYLINE"><rect class="cls-17" x="95.73" y="461.1" width="2.72" height="4.08" transform="translate(-378.61 509.32) rotate(-86.71)"/></g><g id="LWPOLYLINE-125" data-name="LWPOLYLINE"><rect class="cls-17" x="29.66" y="457.3" width="2.72" height="4.08" transform="translate(-437.09 439.78) rotate(-86.71)"/></g><g id="LINE-457" data-name="LINE"><line class="cls-17" x1="20.98" y1="439.5" x2="91.11" y2="443.53"/></g><g id="LINE-458" data-name="LINE"><line class="cls-17" x1="91.63" y1="434.62" x2="21.49" y2="430.59"/></g></g><g id="DOOR_SWING" data-name="DOOR SWING"><g id="ARC-9" data-name="ARC"><path class="cls-6" d="M521.19,304.2A52.79,52.79,0,0,0,574,357" transform="translate(-7.75 -24.18)"/></g><g id="ARC-10" data-name="ARC"><path class="cls-6" d="M574,357a52.78,52.78,0,0,0-52.78,52.78" transform="translate(-7.75 -24.18)"/></g></g><g id="DOOR_SWING_MAIN" data-name="DOOR SWING MAIN"><g id="ARC-11" data-name="ARC"><path class="cls-11" d="M483.74,67.84a55.69,55.69,0,0,1-13.88,36.87l-2.49,2.15" transform="translate(-7.75 -24.18)"/></g></g><g id="DOORS"><g id="LINE-459" data-name="LINE"><line class="cls-18" x1="675.09" y1="119.1" x2="677.81" y2="119.1"/></g><g id="LINE-460" data-name="LINE"><line class="cls-18" x1="677.81" y1="119.1" x2="677.81" y2="66.31"/></g><g id="LINE-461" data-name="LINE"><line class="cls-18" x1="677.81" y1="66.31" x2="675.09" y2="66.31"/></g><g id="LINE-462" data-name="LINE"><line class="cls-18" x1="675.09" y1="66.31" x2="675.09" y2="119.1"/></g><g id="LWPOLYLINE-126" data-name="LWPOLYLINE"><rect class="cls-18" x="447.27" y="58.33" width="2.33" height="55.89" transform="translate(62.59 318.18) rotate(-45)"/></g><g id="LINE-463" data-name="LINE"><rect class="cls-18" x="631.71" y="227.43" width="52.78" height="2.72"/></g><g id="LWPOLYLINE-127" data-name="LWPOLYLINE"><polygon class="cls-18" points="566.1 282.35 566.22 280.02 513.44 280.02 513.32 282.35 566.1 282.35"/></g><g id="LWPOLYLINE-128" data-name="LWPOLYLINE"><polygon class="cls-18" points="566.1 383.27 566.22 385.59 513.44 385.59 513.32 383.27 566.1 383.27"/></g><g id="LWPOLYLINE-129" data-name="LWPOLYLINE"><polygon class="cls-18" points="506.36 188.6 504.04 188.71 504.13 142.14 506.46 142.02 506.36 188.6"/></g><g id="LWPOLYLINE-130" data-name="LWPOLYLINE"><polygon class="cls-18" points="506.25 80 503.93 79.88 503.94 126.45 506.27 126.57 506.25 80"/></g><g id="LINE-464" data-name="LINE"><line class="cls-18" x1="678.58" y1="89.07" x2="678.58" y2="35.51"/></g><g id="LINE-465" data-name="LINE"><line class="cls-18" x1="678.58" y1="35.51" x2="674.31" y2="35.51"/></g><g id="LINE-466" data-name="LINE"><line class="cls-18" x1="674.31" y1="35.51" x2="674.31" y2="89.07"/></g><g id="LINE-467" data-name="LINE"><line class="cls-18" x1="657.82" y1="230.93" x2="712.16" y2="230.93"/></g><g id="LINE-468" data-name="LINE"><line class="cls-18" x1="712.16" y1="230.93" x2="712.16" y2="226.66"/></g><g id="LINE-469" data-name="LINE"><line class="cls-18" x1="712.16" y1="226.66" x2="657.82" y2="226.66"/></g><g id="LINE-470" data-name="LINE"><line class="cls-18" x1="406.33" y1="115.3" x2="409.04" y2="115.3"/></g><g id="LINE-471" data-name="LINE"><line class="cls-18" x1="409.04" y1="115.3" x2="409.04" y2="169.3"/></g><g id="LINE-472" data-name="LINE"><line class="cls-18" x1="409.04" y1="169.3" x2="406.33" y2="169.3"/></g><g id="LINE-473" data-name="LINE"><line class="cls-18" x1="406.33" y1="169.3" x2="406.33" y2="115.3"/></g><g id="LINE-474" data-name="LINE"><line class="cls-18" x1="409.82" y1="144.57" x2="409.82" y2="200.46"/></g><g id="LINE-475" data-name="LINE"><line class="cls-18" x1="409.82" y1="200.46" x2="405.55" y2="200.46"/></g><g id="LINE-476" data-name="LINE"><line class="cls-18" x1="405.55" y1="200.46" x2="405.55" y2="144.57"/></g></g><g id="WALLS"><g id="LWPOLYLINE-131" data-name="LWPOLYLINE"><polygon class="cls-19" points="682.66 89.07 682.66 82.86 688.87 82.86 688.87 73.54 688.87 34.73 688.87 28.52 775.81 28.52 775.81 82.86 820.83 82.86 820.83 185.32 778.91 185.32 778.91 222.58 682.66 222.58 682.66 141.85 664.03 141.85 664.03 222.58 657.82 222.58 657.82 226.66 712.16 226.66 712.16 230.93 657.82 230.93 657.82 235 823.93 235 823.93 421.37 823.93 436.11 791.2 434.23 790.72 441.86 766.72 440.58 763.81 491.09 833.25 495.08 833.25 19.2 507.04 19.2 507.04 34.35 475.99 34.35 475.99 43.66 503.94 43.66 503.94 79.75 511.7 79.75 511.7 76.65 561.53 76.65 561.53 129.43 511.7 129.43 511.7 126.33 503.94 126.33 503.94 142.08 511.7 142.08 511.7 137.19 561.53 137.19 561.53 197.74 511.7 197.74 511.65 188.65 503.89 188.65 503.89 193.38 499.23 193.38 499.23 205.8 513.25 205.81 513.25 238.11 531.88 238.11 531.88 266.05 513.25 266.05 513.25 273.81 566.22 273.81 566.22 280.02 573.98 280.02 573.98 235 603.48 235 603.48 222.58 573.98 222.58 573.98 28.52 664.03 28.52 664.03 89.07 674.31 89.07 674.31 35.51 678.58 35.51 678.58 89.07 682.66 89.07"/></g><g id="LWPOLYLINE-132" data-name="LWPOLYLINE"><polygon class="cls-19" points="409.82 144.57 409.82 200.47 405.55 200.47 405.55 144.57 401.47 144.57 401.47 181.84 389.05 181.84 389.05 174.85 392.16 174.85 392.16 173.3 354.9 173.3 354.9 174.85 358 174.85 358 181.84 345.58 181.84 345.58 39.01 401.47 39.01 401.47 90.24 413.89 90.24 413.89 43.66 420.1 43.66 420.1 34.35 413.89 34.35 413.89 22.22 336.27 22.22 336.27 198.63 0.25 198.63 0.25 447.19 16.75 448.13 18.89 410.89 15.78 410.71 15.78 205.8 206.73 205.8 206.73 249.27 214.49 249.27 214.49 257.03 222.26 257.03 222.26 205.8 418.55 205.8 418.55 193.38 413.89 193.39 413.89 144.57 409.82 144.57"/></g><g id="LWPOLYLINE-133" data-name="LWPOLYLINE"><polygon class="cls-19" points="531.88 421.3 513.25 421.3 513.25 425.84 486.17 424.63 483.28 474.94 493.34 475.51 493.34 475.5 577.82 480.38 580.74 429.68 573.98 429.3 573.98 427.51 546.04 427.51 546.04 399.56 573.98 399.56 573.98 385.59 566.22 385.59 566.22 391.8 513.25 391.8 513.25 399.56 531.88 399.56 531.88 421.3"/></g><g id="LWPOLYLINE-134" data-name="LWPOLYLINE"><polygon class="cls-19" points="656.92 456.91 687.92 458.69 686.83 477.75 683.72 477.57 683.21 486.45 658.41 485.02 658.92 476.15 655.83 475.97 656.92 456.91"/></g><g id="LWPOLYLINE-135" data-name="LWPOLYLINE"><polygon class="cls-19" points="212.81 459.34 297.29 464.23 300.19 413.78 262.84 411.64 263.27 404.06 222.26 401.31 222.26 395.23 214.49 395.23 214.49 408.86 205.63 408.59 202.74 458.83 212.8 459.41 212.81 459.34"/></g><g id="LWPOLYLINE-136" data-name="LWPOLYLINE"><polygon class="cls-19" points="376.39 440.78 407.38 442.57 406.29 461.63 403.18 461.45 402.67 470.3 377.87 468.87 378.38 460.03 375.29 459.85 376.39 440.78"/></g><g id="LWPOLYLINE-137" data-name="LWPOLYLINE"><polygon class="cls-19" points="94.75 443.73 97.84 443.91 97.33 452.76 122.13 454.19 122.64 445.33 125.75 445.51 126.83 426.44 95.85 424.66 94.75 443.73"/></g></g><g id="OUTLINE"><g id="MTEXT"><path class="cls-20" d="M145.77,409.26l1.35,5.08,1.31-5.08h.79l-1.69,6.39h-.75l-1.34-5-1.37,5h-.74l-1.69-6.39h.81l1.31,5.08,1.35-5.08Z" transform="translate(-7.75 -24.18)"/><path class="cls-20" d="M151,412.94v2.71h-.82v-6.39h2.37c1.28,0,2.09.64,2.09,1.85a1.69,1.69,0,0,1-1.62,1.8l1.88,2.74H154l-1.83-2.71Zm0-.69h1.53c.84,0,1.3-.43,1.3-1.14s-.46-1.13-1.3-1.13H151Z" transform="translate(-7.75 -24.18)"/></g><g id="MTEXT-2" data-name="MTEXT"><path class="cls-20" d="M185.66,251.64v2.71h-.82V248h2.37c1.28,0,2.09.64,2.09,1.85a1.69,1.69,0,0,1-1.62,1.8l1.88,2.74h-.94l-1.83-2.71Zm0-.69h1.53c.84,0,1.3-.43,1.3-1.14s-.46-1.13-1.3-1.13h-1.53Z" transform="translate(-7.75 -24.18)"/><path class="cls-20" d="M192.45,247.58h.78l-2.58,7.64h-.78Z" transform="translate(-7.75 -24.18)"/><path class="cls-20" d="M194,254.35V248h3.9v.73h-3.08v2.15h2.89v.73h-2.89v2.78Z" transform="translate(-7.75 -24.18)"/></g><g id="MTEXT-3" data-name="MTEXT"><path class="cls-20" d="M39.43,412.08h2a3.2,3.2,0,0,1,0,6.39h-2Zm2,5.65a2.47,2.47,0,0,0,0-4.92H40.25v4.92Z" transform="translate(-7.75 -24.18)"/><path class="cls-20" d="M49.26,412.08l1.35,5.08,1.31-5.08h.79L51,418.47h-.75l-1.35-5-1.36,5h-.74l-1.7-6.39h.82l1.31,5.08,1.35-5.08Z" transform="translate(-7.75 -24.18)"/></g><g id="MTEXT-4" data-name="MTEXT"><path class="cls-20" d="M540.76,124.33l1.36,5.07,1.31-5.07h.79l-1.7,6.38h-.75l-1.34-5-1.36,5h-.74l-1.7-6.38h.82l1.31,5.07,1.35-5.07Z" transform="translate(-7.75 -24.18)"/><path class="cls-20" d="M546.87,124h.78l-2.58,7.64h-.78Z" transform="translate(-7.75 -24.18)"/><path class="cls-20" d="M548.46,124.33h2a3.19,3.19,0,0,1,0,6.38h-2Zm2,5.65a2.47,2.47,0,0,0,0-4.93h-1.22V130Z" transform="translate(-7.75 -24.18)"/></g><g id="MTEXT-5" data-name="MTEXT"><path class="cls-20" d="M449.15,24.18v.73H445.9v2h3v.72h-3v2.18h3.25v.74h-4.07V24.18Z" transform="translate(-7.75 -24.18)"/><path class="cls-20" d="M455.41,30.57h-.61l-3.57-5.08v5.08h-.79V24.18h.78l3.4,4.86V24.18h.79Z" transform="translate(-7.75 -24.18)"/><path class="cls-20" d="M456.47,24.18h5.28v.73h-2.23v5.66h-.82V24.91h-2.23Z" transform="translate(-7.75 -24.18)"/><path class="cls-20" d="M463.64,27.86v2.71h-.82V24.18h2.37c1.28,0,2.09.64,2.09,1.85a1.69,1.69,0,0,1-1.62,1.8l1.88,2.74h-.94l-1.83-2.71Zm0-.7h1.53c.84,0,1.3-.42,1.3-1.13s-.46-1.13-1.3-1.13h-1.53Z" transform="translate(-7.75 -24.18)"/><path class="cls-20" d="M472.43,24.18h.87L471,27.94v2.63h-.81V27.94l-2.31-3.76h.9l1.84,3Z" transform="translate(-7.75 -24.18)"/></g><polygon class="cls-20" points="451.49 26.42 458.56 14.22 444.42 14.22 444.42 14.22 451.49 26.42"/><path class="cls-20" d="M665.16,351.28l-2-4.87v4.87h-.78v-6.39h.93l2.16,5.24,2.16-5.24h.89v6.39h-.78v-4.87l-2,4.87Z" transform="translate(-7.75 -24.18)"/><path class="cls-20" d="M672.74,344.89l2.5,6.39h-.83l-.74-1.93H671l-.73,1.93h-.83l2.49-6.39Zm-1.43,3.75h2.08l-1-2.73Z" transform="translate(-7.75 -24.18)"/><path class="cls-20" d="M676.5,349.61a1.58,1.58,0,0,0,1.62,1.07c.83,0,1.42-.41,1.42-1.12,0-.5-.29-.82-1-1l-1.15-.3c-.88-.23-1.53-.68-1.53-1.64a1.89,1.89,0,0,1,2.1-1.81,2.19,2.19,0,0,1,2.35,1.68h-.83a1.46,1.46,0,0,0-1.52-1c-.76,0-1.32.4-1.32,1.05s.36.81,1,1l1.09.28c1,.26,1.6.81,1.6,1.72,0,1.16-.94,1.85-2.21,1.85a2.29,2.29,0,0,1-2.46-1.76Z" transform="translate(-7.75 -24.18)"/><path class="cls-20" d="M680.91,344.89h5.27v.73H684v5.66h-.83v-5.66h-2.22Z" transform="translate(-7.75 -24.18)"/><path class="cls-20" d="M691.32,344.89v.73h-3.26v2h3v.72h-3v2.18h3.26v.74h-4.07v-6.39Z" transform="translate(-7.75 -24.18)"/><path class="cls-20" d="M693.43,348.57v2.71h-.82v-6.39H695c1.28,0,2.09.64,2.09,1.85a1.69,1.69,0,0,1-1.62,1.8l1.88,2.74h-.94l-1.83-2.71Zm0-.69H695c.84,0,1.3-.43,1.3-1.14s-.46-1.13-1.3-1.13h-1.53Z" transform="translate(-7.75 -24.18)"/><path class="cls-20" d="M705.08,349.48c0,1.16-.81,1.8-2.12,1.8h-2.32v-6.39h2.11c1.32,0,2.11.59,2.11,1.7a1.37,1.37,0,0,1-.94,1.38A1.54,1.54,0,0,1,705.08,349.48Zm-2.33-1.81c.85,0,1.32-.35,1.32-1s-.47-1-1.32-1h-1.3v2.06Zm-1.3,2.89H703c.86,0,1.32-.44,1.32-1.1s-.46-1.1-1.32-1.1h-1.51Z" transform="translate(-7.75 -24.18)"/><path class="cls-20" d="M710.31,344.89v.73h-3.26v2h3v.72h-3v2.18h3.26v.74h-4.07v-6.39Z" transform="translate(-7.75 -24.18)"/><path class="cls-20" d="M711.6,344.89h2a3.2,3.2,0,0,1,0,6.39h-2Zm2,5.65a2.46,2.46,0,0,0,0-4.92h-1.21v4.92Z" transform="translate(-7.75 -24.18)"/><path class="cls-20" d="M718.71,348.57v2.71h-.82v-6.39h2.37c1.28,0,2.09.64,2.09,1.85a1.69,1.69,0,0,1-1.62,1.8l1.88,2.74h-.93l-1.84-2.71Zm0-.69h1.53c.84,0,1.3-.43,1.3-1.14s-.46-1.13-1.3-1.13h-1.53Z" transform="translate(-7.75 -24.18)"/><path class="cls-20" d="M726.12,351.37a3.31,3.31,0,1,1,2.89-3.29A3,3,0,0,1,726.12,351.37Zm0-5.84c-1.23,0-2.07,1.06-2.07,2.55s.84,2.55,2.07,2.55,2.07-1.05,2.07-2.55S727.35,345.53,726.12,345.53Z" transform="translate(-7.75 -24.18)"/><path class="cls-20" d="M732.71,351.37a3.31,3.31,0,1,1,2.89-3.29A3,3,0,0,1,732.71,351.37Zm0-5.84c-1.23,0-2.06,1.06-2.06,2.55s.83,2.55,2.06,2.55,2.07-1.05,2.07-2.55S734,345.53,732.71,345.53Z" transform="translate(-7.75 -24.18)"/><path class="cls-20" d="M739.54,351.28l-2-4.87v4.87h-.78v-6.39h.93l2.16,5.24,2.16-5.24h.89v6.39h-.78v-4.87l-2,4.87Z" transform="translate(-7.75 -24.18)"/><path class="cls-20" d="M679.86,362.47h-.81v-5.41l-1.58.81V357l1.9-1h.49Z" transform="translate(-7.75 -24.18)"/><path class="cls-20" d="M682.58,358.85H683a1.08,1.08,0,1,0,0-2.16,1.23,1.23,0,0,0-1.27,1.14H681A2,2,0,0,1,683,356a1.73,1.73,0,0,1,1.94,1.74,1.47,1.47,0,0,1-1,1.46,1.51,1.51,0,0,1,1.12,1.49,1.88,1.88,0,0,1-2.05,1.88,2.07,2.07,0,0,1-2.22-1.91h.8a1.33,1.33,0,0,0,1.41,1.21,1.16,1.16,0,1,0,0-2.31h-.45Z" transform="translate(-7.75 -24.18)"/><path class="cls-20" d="M686.35,357.06a.51.51,0,0,1-.45-.52.56.56,0,1,1,1.11,0,1.31,1.31,0,0,1-.23.66l-.53.88h-.53Z" transform="translate(-7.75 -24.18)"/><path class="cls-20" d="M687.69,359.39h2.5v.73h-2.5Z" transform="translate(-7.75 -24.18)"/><path class="cls-20" d="M692,359.59h-.64v-3.51h3.49v.73H692v1.92a1.86,1.86,0,0,1,1.17-.4,2,2,0,0,1,2,2.12,2,2,0,0,1-2.07,2.11,2.07,2.07,0,0,1-2.2-1.91h.8a1.36,1.36,0,1,0,1.39-1.61A1.48,1.48,0,0,0,692,359.59Z" transform="translate(-7.75 -24.18)"/><path class="cls-20" d="M695.83,356.08h.69v2.28h-.69Zm1.24,0h.68v2.28h-.68Z" transform="translate(-7.75 -24.18)"/><path class="cls-20" d="M703.24,360.08l1.71,2.39h-.88l-1.28-1.8-1.29,1.8h-.85l1.71-2.36-1.61-2.26h.89l1.17,1.65,1.19-1.65h.86Z" transform="translate(-7.75 -24.18)"/><path class="cls-20" d="M710.08,362.47h-.8v-5.41l-1.58.81V357l1.89-1h.49Z" transform="translate(-7.75 -24.18)"/><path class="cls-20" d="M713.28,356.72A1.23,1.23,0,0,0,712,358h-.84a2.06,2.06,0,0,1,2.09-2,1.74,1.74,0,0,1,2,1.8c0,.81-.65,1.44-1.29,2.17l-1.63,1.78h3.05v.73h-4.17v-.54l2.06-2.27c.67-.73,1.19-1.26,1.19-1.86A1,1,0,0,0,713.28,356.72Z" transform="translate(-7.75 -24.18)"/><path class="cls-20" d="M716.09,356.08h.7v2.28h-.7Z" transform="translate(-7.75 -24.18)"/><path class="cls-20" d="M717.63,359.39h2.5v.73h-2.5Z" transform="translate(-7.75 -24.18)"/><path class="cls-20" d="M721.1,359.28c0-1.95,1-3.29,2.38-3.29s2.39,1.34,2.39,3.29-1,3.28-2.39,3.28S721.1,361.22,721.1,359.28Zm.8,0c0,1.48.54,2.54,1.58,2.54s1.59-1.06,1.59-2.54-.56-2.55-1.59-2.55S721.9,357.79,721.9,359.28Z" transform="translate(-7.75 -24.18)"/><path class="cls-20" d="M726.69,356.08h.69v2.28h-.69Zm1.24,0h.69v2.28h-.69Z" transform="translate(-7.75 -24.18)"/><path class="cls-20" d="M383.36,361v-.71h2.31v.44a2.58,2.58,0,0,1-2.64,2.81,3.31,3.31,0,0,1,0-6.58,2.41,2.41,0,0,1,2.52,2h-.83a1.67,1.67,0,0,0-1.69-1.23c-1.24,0-2.09,1-2.09,2.55s.84,2.56,2.11,2.56a1.77,1.77,0,0,0,1.86-1.81Z" transform="translate(-7.75 -24.18)"/><path class="cls-20" d="M387.63,360.75v2.7h-.82v-6.39h2.37c1.28,0,2.1.65,2.1,1.85a1.69,1.69,0,0,1-1.63,1.8l1.89,2.74h-.94l-1.83-2.7Zm0-.7h1.53c.85,0,1.3-.43,1.3-1.14s-.45-1.13-1.3-1.13h-1.53Z" transform="translate(-7.75 -24.18)"/><path class="cls-20" d="M396.62,357.06v.73h-3.26v2h3v.73h-3v2.17h3.26v.74h-4.07v-6.39Z" transform="translate(-7.75 -24.18)"/><path class="cls-20" d="M400.64,357.06l2.49,6.39h-.83l-.74-1.92h-2.63l-.73,1.92h-.83l2.5-6.39Zm-1.44,3.75h2.08l-1-2.73Z" transform="translate(-7.75 -24.18)"/><path class="cls-20" d="M403.09,357.06h5.27v.73h-2.22v5.66h-.83v-5.66h-2.22Z" transform="translate(-7.75 -24.18)"/><path class="cls-20" d="M412.55,360.75v2.7h-.82v-6.39h2.37c1.28,0,2.09.65,2.09,1.85a1.68,1.68,0,0,1-1.62,1.8l1.88,2.74h-.93l-1.83-2.7Zm0-.7h1.53c.84,0,1.3-.43,1.3-1.14s-.46-1.13-1.3-1.13h-1.53Z" transform="translate(-7.75 -24.18)"/><path class="cls-20" d="M420,363.55a3,3,0,0,1-2.88-3.29c0-1.94,1.2-3.29,2.88-3.29a3.32,3.32,0,0,1,0,6.58Zm0-5.84c-1.23,0-2.06,1.05-2.06,2.55s.83,2.55,2.06,2.55,2.07-1.05,2.07-2.55S421.2,357.71,420,357.71Z" transform="translate(-7.75 -24.18)"/><path class="cls-20" d="M426.55,363.55a3.32,3.32,0,0,1,0-6.58c1.69,0,2.89,1.35,2.89,3.29A3,3,0,0,1,426.55,363.55Zm0-5.84c-1.23,0-2.06,1.05-2.06,2.55s.83,2.55,2.06,2.55,2.07-1.05,2.07-2.55S427.79,357.71,426.55,357.71Z" transform="translate(-7.75 -24.18)"/><path class="cls-20" d="M433.38,363.45l-2-4.87v4.87h-.79v-6.39h.93l2.17,5.25,2.15-5.25h.89v6.39h-.78v-4.87l-2,4.87Z" transform="translate(-7.75 -24.18)"/><path class="cls-20" d="M386,368.89a1.24,1.24,0,0,0-1.25,1.28h-.84a2.07,2.07,0,0,1,2.09-2,1.75,1.75,0,0,1,2,1.8c0,.81-.65,1.45-1.29,2.18l-1.62,1.78h3v.72h-4.17v-.54l2.06-2.27c.67-.72,1.19-1.26,1.19-1.86A1.05,1.05,0,0,0,386,368.89Z" transform="translate(-7.75 -24.18)"/><path class="cls-20" d="M389.39,372.51h2V371h.76v1.54h1.12v.69h-1.12v1.44h-.76V373.2h-2.94v-.59l2.45-4.36h.83Z" transform="translate(-7.75 -24.18)"/><path class="cls-20" d="M394.21,369.23a.51.51,0,0,1-.46-.52.56.56,0,1,1,1.11.05,1.31,1.31,0,0,1-.23.66l-.53.88h-.53Z" transform="translate(-7.75 -24.18)"/><path class="cls-20" d="M395.54,371.56h2.51v.73h-2.51Z" transform="translate(-7.75 -24.18)"/><path class="cls-20" d="M399.62,372.51h2V371h.76v1.54h1.13v.69h-1.13v1.44h-.76V373.2h-2.94v-.59l2.46-4.36H402Z" transform="translate(-7.75 -24.18)"/><path class="cls-20" d="M403.68,368.25h.69v2.28h-.69Zm1.24,0h.69v2.28h-.69Z" transform="translate(-7.75 -24.18)"/><path class="cls-20" d="M411.09,372.25l1.71,2.39h-.88l-1.28-1.8-1.29,1.8h-.84l1.7-2.36L408.6,370h.89l1.17,1.66,1.2-1.66h.85Z" transform="translate(-7.75 -24.18)"/><path class="cls-20" d="M417.93,374.64h-.8v-5.41l-1.58.81v-.83l1.89-1h.49Z" transform="translate(-7.75 -24.18)"/><path class="cls-20" d="M421.13,368.89a1.24,1.24,0,0,0-1.25,1.28H419a2.07,2.07,0,0,1,2.09-2,1.75,1.75,0,0,1,1.95,1.8c0,.81-.65,1.45-1.29,2.18l-1.63,1.78h3v.72H419v-.54l2.06-2.27c.67-.72,1.19-1.26,1.19-1.86A1.05,1.05,0,0,0,421.13,368.89Z" transform="translate(-7.75 -24.18)"/><path class="cls-20" d="M423.94,368.25h.71v2.28h-.71Z" transform="translate(-7.75 -24.18)"/><path class="cls-20" d="M425.48,371.56H428v.73h-2.51Z" transform="translate(-7.75 -24.18)"/><path class="cls-20" d="M432.51,369.74a1.16,1.16,0,0,0-1.18-.9c-.93,0-1.61,1.07-1.61,2.44,0,.07,0,.22,0,.28a1.68,1.68,0,0,1,1.62-1.09,2.05,2.05,0,0,1,2.07,2.12,2.08,2.08,0,0,1-2.15,2.15,2,2,0,0,1-1.9-1.22,4.49,4.49,0,0,1-.38-2c0-2.07,1-3.4,2.34-3.4a1.88,1.88,0,0,1,2,1.58Zm-1.23,4.3a1.45,1.45,0,1,0-1.38-1.44A1.36,1.36,0,0,0,431.28,374Z" transform="translate(-7.75 -24.18)"/><path class="cls-20" d="M434.12,368.25h.69v2.28h-.69Zm1.24,0h.69v2.28h-.69Z" transform="translate(-7.75 -24.18)"/><path class="cls-20" d="M144.07,350.88a1.57,1.57,0,0,0,1.62,1.06c.83,0,1.41-.4,1.41-1.11,0-.5-.28-.82-1-1l-1.15-.3c-.88-.23-1.53-.68-1.53-1.64a1.89,1.89,0,0,1,2.1-1.81,2.16,2.16,0,0,1,2.34,1.68H147a1.46,1.46,0,0,0-1.52-1c-.76,0-1.32.4-1.32,1.05s.36.8,1,1l1.09.28c1,.26,1.6.81,1.6,1.72,0,1.15-.94,1.85-2.21,1.85a2.29,2.29,0,0,1-2.46-1.76Z" transform="translate(-7.75 -24.18)"/><path class="cls-20" d="M149.87,350v2.56h-.82v-6.39h2.39c1.29,0,2.1.65,2.1,1.91a1.84,1.84,0,0,1-2.1,1.92Zm1.55-3.11h-1.55v2.38h1.55a1.2,1.2,0,1,0,0-2.38Z" transform="translate(-7.75 -24.18)"/><path class="cls-20" d="M145.47,364.08a3.31,3.31,0,1,1,2.89-3.28A3,3,0,0,1,145.47,364.08Zm0-5.83c-1.23,0-2.06,1.05-2.06,2.55s.83,2.55,2.06,2.55,2.07-1.06,2.07-2.55S146.7,358.25,145.47,358.25Z" transform="translate(-7.75 -24.18)"/><path class="cls-20" d="M151.22,364l-2.47-6.39h.86l2,5.31,2-5.31h.83L152,364Z" transform="translate(-7.75 -24.18)"/><path class="cls-20" d="M723.94,167.33l-2-4.87v4.87h-.78v-6.39h.92l2.17,5.25,2.15-5.25h.9v6.39h-.78v-4.87l-2,4.87Z" transform="translate(-7.75 -24.18)"/><path class="cls-20" d="M731.52,160.94l2.49,6.39h-.83l-.74-1.93h-2.63l-.73,1.93h-.83l2.5-6.39Zm-1.44,3.75h2.08l-1-2.73Z" transform="translate(-7.75 -24.18)"/><path class="cls-20" d="M735.27,165.66a1.58,1.58,0,0,0,1.62,1.07c.84,0,1.42-.41,1.42-1.12,0-.5-.28-.82-1-1l-1.15-.3c-.88-.23-1.53-.68-1.53-1.64a1.89,1.89,0,0,1,2.11-1.81,2.17,2.17,0,0,1,2.34,1.68h-.82a1.47,1.47,0,0,0-1.52-1c-.76,0-1.33.4-1.33,1.05s.36.81,1,1l1.09.28c1,.26,1.59.82,1.59,1.72,0,1.16-.94,1.85-2.21,1.85a2.28,2.28,0,0,1-2.45-1.76Z" transform="translate(-7.75 -24.18)"/><path class="cls-20" d="M739.68,160.94H745v.73h-2.23v5.66h-.82v-5.66h-2.23Z" transform="translate(-7.75 -24.18)"/><path class="cls-20" d="M750.09,160.94v.73h-3.26v2h3v.73h-3v2.17h3.26v.74H746v-6.39Z" transform="translate(-7.75 -24.18)"/><path class="cls-20" d="M752.2,164.62v2.71h-.82v-6.39h2.37c1.28,0,2.09.65,2.09,1.85a1.69,1.69,0,0,1-1.62,1.8l1.88,2.74h-.93l-1.84-2.71Zm0-.69h1.53c.84,0,1.3-.43,1.3-1.14s-.46-1.13-1.3-1.13H752.2Z" transform="translate(-7.75 -24.18)"/><path class="cls-20" d="M731.38,176.72c0,1.17-.81,1.8-2.12,1.8H727v-6.39h2.1c1.32,0,2.11.6,2.11,1.7a1.35,1.35,0,0,1-.93,1.38A1.53,1.53,0,0,1,731.38,176.72Zm-2.33-1.81c.86,0,1.32-.34,1.32-1s-.46-1-1.32-1h-1.3v2.06Zm-1.3,2.89h1.51c.86,0,1.32-.43,1.32-1.1s-.46-1.1-1.32-1.1h-1.51Z" transform="translate(-7.75 -24.18)"/><path class="cls-20" d="M735.17,172.13l2.5,6.39h-.84l-.74-1.92h-2.63l-.73,1.92h-.83l2.5-6.39Zm-1.44,3.75h2.08l-1-2.73Z" transform="translate(-7.75 -24.18)"/><path class="cls-20" d="M737.62,172.13h5.28v.73h-2.23v5.66h-.82v-5.66h-2.23Z" transform="translate(-7.75 -24.18)"/><path class="cls-20" d="M749.22,172.13v6.39h-.82v-2.91h-3.61v2.91H744v-6.39h.83v2.74h3.61v-2.74Z" transform="translate(-7.75 -24.18)"/><path class="cls-20" d="M609.11,138.76h2a3.2,3.2,0,0,1,0,6.39h-2Zm2,5.65a2.47,2.47,0,0,0,0-4.92h-1.22v4.92Z" transform="translate(-7.75 -24.18)"/><path class="cls-20" d="M616.22,142.45v2.7h-.82v-6.39h2.38c1.28,0,2.09.65,2.09,1.86a1.7,1.7,0,0,1-1.63,1.8l1.89,2.73h-.94l-1.83-2.7Zm0-.7h1.53c.85,0,1.31-.43,1.31-1.13s-.46-1.14-1.31-1.14h-1.53Z" transform="translate(-7.75 -24.18)"/><path class="cls-20" d="M625.21,138.76v.73H622v2h2.95v.73H622v2.17h3.25v.74h-4.07v-6.39Z" transform="translate(-7.75 -24.18)"/><path class="cls-20" d="M626.81,143.49a1.57,1.57,0,0,0,1.62,1.06c.84,0,1.42-.41,1.42-1.11,0-.5-.28-.83-1-1l-1.14-.3c-.89-.23-1.53-.68-1.53-1.65a1.89,1.89,0,0,1,2.1-1.81,2.18,2.18,0,0,1,2.34,1.69h-.82a1.46,1.46,0,0,0-1.52-1c-.76,0-1.32.39-1.32,1s.35.8,1,1l1.09.28c1,.26,1.59.81,1.59,1.71,0,1.16-.94,1.86-2.21,1.86a2.3,2.3,0,0,1-2.45-1.76Z" transform="translate(-7.75 -24.18)"/><path class="cls-20" d="M632.12,143.49a1.58,1.58,0,0,0,1.63,1.06c.83,0,1.41-.41,1.41-1.11,0-.5-.28-.83-1-1l-1.14-.3c-.88-.23-1.53-.68-1.53-1.65a1.89,1.89,0,0,1,2.1-1.81,2.18,2.18,0,0,1,2.34,1.69h-.82a1.45,1.45,0,0,0-1.52-1c-.76,0-1.32.39-1.32,1s.35.8,1,1l1.09.28c1,.26,1.6.81,1.6,1.71,0,1.16-.94,1.86-2.21,1.86a2.3,2.3,0,0,1-2.46-1.76Z" transform="translate(-7.75 -24.18)"/><path class="cls-20" d="M637.93,145.15h-.82v-6.39h.82Z" transform="translate(-7.75 -24.18)"/><path class="cls-20" d="M644.41,145.15h-.6l-3.57-5.07v5.07h-.79v-6.39h.78l3.4,4.86v-4.86h.78Z" transform="translate(-7.75 -24.18)"/><path class="cls-20" d="M648.82,142.71V142h2.31v.44a2.58,2.58,0,0,1-2.64,2.81,3.31,3.31,0,0,1,0-6.58,2.41,2.41,0,0,1,2.52,2h-.82a1.68,1.68,0,0,0-1.7-1.23c-1.23,0-2.09,1-2.09,2.55s.85,2.56,2.12,2.56a1.78,1.78,0,0,0,1.86-1.81Z" transform="translate(-7.75 -24.18)"/><path class="cls-20" d="M618.26,153.64v2.71h-.82V150h2.37c1.28,0,2.09.64,2.09,1.85a1.69,1.69,0,0,1-1.62,1.8l1.88,2.74h-.94l-1.83-2.71Zm0-.7h1.53c.84,0,1.3-.42,1.3-1.13s-.46-1.14-1.3-1.14h-1.53Z" transform="translate(-7.75 -24.18)"/><path class="cls-20" d="M625.66,156.44a3.32,3.32,0,1,1,2.9-3.29A3,3,0,0,1,625.66,156.44Zm0-5.84c-1.22,0-2.06,1.05-2.06,2.55s.84,2.55,2.06,2.55,2.07-1,2.07-2.55S626.9,150.6,625.66,150.6Z" transform="translate(-7.75 -24.18)"/><path class="cls-20" d="M632.26,156.44a3,3,0,0,1-2.88-3.29c0-1.94,1.2-3.29,2.88-3.29a3.32,3.32,0,0,1,0,6.58Zm0-5.84c-1.23,0-2.06,1.05-2.06,2.55s.83,2.55,2.06,2.55,2.07-1,2.07-2.55S633.5,150.6,632.26,150.6Z" transform="translate(-7.75 -24.18)"/><path class="cls-20" d="M639.09,156.35l-2-4.87v4.87h-.78V150h.93l2.16,5.24,2.16-5.24h.89v6.39h-.78v-4.87l-2,4.87Z" transform="translate(-7.75 -24.18)"/></g></svg>