<svg xmlns="http://www.w3.org/2000/svg" viewBox="0 0 52 52"><title>Asset 22</title><g id="Layer_2" data-name="Layer 2"><g id="leonard"><path d="M26,0A26,26,0,1,0,52,26,26,26,0,0,0,26,0Zm0,2a24,24,0,0,1,9.63,2L31,13.73a13.2,13.2,0,0,0-9.91,0L17.69,3.48A24.09,24.09,0,0,1,26,2ZM3.66,34.76a23.92,23.92,0,0,1,.45-18.58l9.66,4.72a13.26,13.26,0,0,0,0,10.27ZM26,50a23.86,23.86,0,0,1-9.38-1.91l4.54-9.76a13.19,13.19,0,0,0,10.25-.24l3.81,10.07A24,24,0,0,1,26,50Zm0-12.75A11.25,11.25,0,1,1,37.25,26,11.25,11.25,0,0,1,26,37.25Zm12.31-6.36a13.24,13.24,0,0,0-.15-10.16l10.11-3.67a24,24,0,0,1-.21,18.39Z"/></g></g></svg>