<svg xmlns="http://www.w3.org/2000/svg" viewBox="0 0 219.51 50"><title>Asset 32</title><g id="Layer_2" data-name="Layer 2"><g id="leonard"><path d="M153,22.64c-.73,0-1.13.66-1.13,1.6s.4,1.58,1.13,1.58,1.15-.65,1.15-1.58S153.77,22.64,153,22.64Z"/><path d="M162.14,22.64c-.72,0-1.13.66-1.13,1.6s.41,1.58,1.13,1.58,1.15-.65,1.15-1.58S162.88,22.64,162.14,22.64Z"/><path d="M99.56,20.34c-1.25,0-2.07,1.06-2.07,2.66s.82,2.66,2.07,2.66,2.1-1.06,2.1-2.66S100.81,20.34,99.56,20.34Z"/><path d="M82.74,20.45h-1v5.09h1A2.27,2.27,0,0,0,85.14,23,2.27,2.27,0,0,0,82.74,20.45Z"/><polygon points="60.9 23.84 62.8 23.84 61.85 21.23 60.9 23.84"/><path d="M190.25,20.34c-1.25,0-2.07,1.06-2.07,2.66s.82,2.66,2.07,2.66,2.1-1.06,2.1-2.66S191.51,20.34,190.25,20.34Z"/><path d="M0,0V50H219.51V0ZM25.32,20.45H22.45v7.19H20V20.45H17.17V18.36h8.15Zm8.62,7.19H31.57v-.59a2.47,2.47,0,0,1-1.82.74,2.26,2.26,0,0,1-2.38-2.49V20.84h2.35v3.9c0,.57.28,1,.88,1a1,1,0,0,0,1-.76V20.84h2.37Zm7.34-4.55a2,2,0,0,0-1-.21,1.12,1.12,0,0,0-1.21.77v4H36.72v-6.8h2.37v.6a1.88,1.88,0,0,1,1.54-.75,1.45,1.45,0,0,1,.65.12Zm9.07,4.55H48V23.75a.85.85,0,0,0-.89-1,1,1,0,0,0-1,.74v4.11H43.75v-6.8h2.37v.59A2.48,2.48,0,0,1,48,20.69a2.27,2.27,0,0,1,2.4,2.49Zm13.84,0-.66-1.8H60.16l-.65,1.8h-2.4l3.53-9.28h2.48l3.54,9.28Zm12.37-3.78c0,2.54-1.59,3.93-4,3.93s-4-1.39-4-3.94V18.36h2.41v5.27c0,1.32.62,2,1.63,2s1.62-.68,1.62-2V18.36h2.42Zm6.3,3.78h-3.5V18.36h3.5A4.32,4.32,0,0,1,87.54,23,4.33,4.33,0,0,1,82.86,27.64Zm9.64,0H90.07V18.36H92.5Zm7.06.15A4.49,4.49,0,0,1,95,23a4.54,4.54,0,1,1,9.07,0A4.5,4.5,0,0,1,99.56,27.79Zm13.71-7.34H109V21.9h3.88v2H109v1.6h4.25v2.1h-6.64V18.36h6.64Zm7.84,3.89v3.3h-2.43v-3.3l-3.29-6H118L120,22l2-3.63h2.55Zm12.27-3.89h-4.24V21.9H133v2h-3.88v1.6h4.24v2.1h-6.63V18.36h6.63Zm15,0h-2.87v7.19H143.1V20.45h-2.85V18.36h8.15ZM153,27.79a3.35,3.35,0,0,1-3.47-3.55,3.47,3.47,0,1,1,6.94,0A3.34,3.34,0,0,1,153,27.79Zm9.11,0a3.35,3.35,0,0,1-3.47-3.55,3.48,3.48,0,1,1,7,0A3.35,3.35,0,0,1,162.14,27.79Zm8.28-.15h-2.37V17.82h2.37Zm5.61.15c-1.74,0-3-.79-3.2-2.25h2.31a.84.84,0,0,0,.86.59c.39,0,.7-.16.7-.47s-.2-.35-.53-.43L174.84,25c-1.14-.24-1.88-.78-1.88-2,0-1.45,1.3-2.29,2.9-2.29,1.86,0,2.88.86,3.09,2.2h-2.19a.75.75,0,0,0-.83-.54c-.35,0-.64.15-.64.45s.15.32.47.38l1.34.32c1.24.28,1.91.93,1.91,2C179,27,177.69,27.79,176,27.79Zm14.22,0A4.48,4.48,0,0,1,185.74,23a4.54,4.54,0,1,1,9.06,0A4.5,4.5,0,0,1,190.25,27.79Zm13.62-.15h-2.36V23.75a.85.85,0,0,0-.89-1,1,1,0,0,0-1,.74v4.11h-2.37v-6.8h2.37v.59a2.48,2.48,0,0,1,1.83-.74,2.27,2.27,0,0,1,2.4,2.49Z"/></g></g></svg>