<?xml version="1.0" encoding="utf-8"?>
<!-- Generator: Adobe Illustrator 22.1.0, SVG Export Plug-In . SVG Version: 6.00 Build 0)  -->
<svg version="1.1" id="Layer_1" xmlns="http://www.w3.org/2000/svg" xmlns:xlink="http://www.w3.org/1999/xlink" x="0px" y="0px"
	 viewBox="0 0 314 314" style="enable-background:new 0 0 314 314;" xml:space="preserve">
<style type="text/css">
	.st0{fill:#FFFFFF;}
</style>
<circle class="st0" cx="157.2" cy="157.5" r="157"/>
<circle cx="-263.8" cy="157.5" r="157"/>
<g>
	<path class="st0" d="M-292.1,247.2v-11.3h20.5l1-157h-21.5V67.7h56.4V79h-20.5l-1,157h21.5v11.3H-292.1z"/>
</g>
<g>
	<path d="M148.2,135.9h-24.3v-16.3h45.5l-1,117.1h21.2V253h-63.6v-16.3h21.2L148.2,135.9z M156.2,52.2c8.8,0,16,7.2,16,16
		s-7.2,16-16,16c-8.8,0-16-7.2-16-16S147.4,52.2,156.2,52.2z"/>
</g>
</svg>
