<svg xmlns="http://www.w3.org/2000/svg" viewBox="0 0 50 50"><title>Asset 35</title><g id="Layer_2" data-name="Layer 2"><g id="leonard"><path d="M24.9,27.42c2.38,0,4.4-1.33,4.4-2.91V12.33c0-1.57-2-2.9-4.4-2.9s-4.41,1.33-4.41,2.9c0,.14,0,11.47,0,12.5C20.77,26.29,22.67,27.42,24.9,27.42Z"/><path d="M25,0A25,25,0,1,0,50,25,25,25,0,0,0,25,0Zm-.1,7.43c3.53,0,6.4,2.2,6.4,4.9V24.51c0,2.71-2.87,4.91-6.4,4.91-3.29,0-6-1.88-6.37-4.38v-.13s0-12.43,0-12.58C18.49,9.63,21.36,7.43,24.9,7.43Zm10.41,19.5c0,4.05-4.14,7.39-9.41,7.77V39h5.59v2H18.3V39h5.6V34.7c-5.28-.38-9.41-3.72-9.41-7.77V21.72h2v5.21c0,3.2,3.77,5.81,8.41,5.81s8.41-2.61,8.41-5.81V21.72h2Z"/></g></g></svg>