<svg xmlns="http://www.w3.org/2000/svg" viewBox="0 0 202.64 79.67"><title>Asset 33</title><g id="Layer_2" data-name="Layer 2"><g id="leonard"><path d="M79.42,21c-.72,0-1.13.67-1.13,1.59s.41,1.58,1.13,1.58,1.14-.64,1.14-1.58S80.15,21,79.42,21Z"/><path d="M59.69,20.86a1.1,1.1,0,0,0-1.08,1h2A.94.94,0,0,0,59.69,20.86Z"/><path d="M32.65,21a1.16,1.16,0,0,0-1,.63v1.78a1.15,1.15,0,0,0,1,.63c.81,0,1.29-.65,1.29-1.52A1.35,1.35,0,0,0,32.65,21Z"/><path d="M43,57c-.72,0-1.12.67-1.12,1.59s.4,1.58,1.12,1.58,1.14-.64,1.14-1.58S43.78,57,43,57Z"/><path d="M66.88,39a1.18,1.18,0,0,0-1,.63v1.78a1.13,1.13,0,0,0,1,.63c.81,0,1.29-.65,1.29-1.52A1.35,1.35,0,0,0,66.88,39Z"/><path d="M24.16,57a1.16,1.16,0,0,0-1,.63v1.78a1.15,1.15,0,0,0,1,.63c.81,0,1.29-.65,1.29-1.52A1.35,1.35,0,0,0,24.16,57Z"/><path d="M39.23,38.86a1.1,1.1,0,0,0-1.08,1h2A.94.94,0,0,0,39.23,38.86Z"/><path d="M45.41,24.13c.74,0,1.14-.64,1.14-1.58S46.15,21,45.41,21s-1.12.67-1.12,1.59S44.69,24.13,45.41,24.13Z"/><path d="M15.32,41.18c-.46,0-.93.2-.93.65s.47.66.93.66a1.14,1.14,0,0,0,1-.45v-.39A1.12,1.12,0,0,0,15.32,41.18Z"/><path d="M15.65,57c-.72,0-1.12.67-1.12,1.59s.4,1.58,1.12,1.58,1.14-.64,1.14-1.58S16.39,57,15.65,57Z"/><path d="M0,0V79.67H115.84V0ZM93,19.37h2.35V20a1.85,1.85,0,0,1,1.53-.75,1.51,1.51,0,0,1,.65.12V21.6a2.05,2.05,0,0,0-1-.21,1.11,1.11,0,0,0-1.2.77v4H93Zm-42.51,0h2.35V20a1.85,1.85,0,0,1,1.53-.75,1.51,1.51,0,0,1,.65.12V21.6a2.05,2.05,0,0,0-1-.21,1.11,1.11,0,0,0-1.2.77v4H50.53Zm3.63,20.32,1.33.32c1.23.28,1.89.93,1.89,2,0,1.44-1.3,2.24-3,2.24s-3-.78-3.18-2.24h2.29a.83.83,0,0,0,.86.59c.39,0,.69-.15.69-.47s-.2-.34-.53-.42l-1.32-.27c-1.12-.24-1.86-.78-1.86-2,0-1.44,1.29-2.28,2.88-2.28,1.85,0,2.85.85,3.06,2.19H55.15c-.08-.29-.29-.54-.83-.54-.34,0-.63.15-.63.45S53.84,39.63,54.16,39.69ZM45.41,19.22a3.32,3.32,0,0,1,3.45,3.52,3.45,3.45,0,1,1-6.9,0A3.33,3.33,0,0,1,45.41,19.22Zm-7.47-2.85H40.3v9.75H37.94ZM15.49,39.05a.76.76,0,0,0-.8.49H12.47a2.9,2.9,0,0,1,3.09-2.34c1.92,0,3,1,3,2.78v4.14H16.31v-.35a2.62,2.62,0,0,1-1.62.47,2.21,2.21,0,0,1-2.46-2.18c0-1.3,1.13-2.14,2.6-2.14a3.09,3.09,0,0,1,1.48.37v-.43A.75.75,0,0,0,15.49,39.05Zm.16,23.22a3.53,3.53,0,0,1,0-7.05,3.53,3.53,0,0,1,0,7.05ZM19.21,19H15v1.44h3.86v2H15V24h4.22v2.09H12.62V16.91h6.59ZM23.53,42.3a.79.79,0,0,0,.85-.69h2.28a2.93,2.93,0,0,1-3.13,2.66,3.3,3.3,0,0,1-3.41-3.53,3.3,3.3,0,0,1,3.41-3.52,2.92,2.92,0,0,1,3.13,2.65H24.38a.81.81,0,0,0-.85-.7c-.66,0-1.08.61-1.08,1.57S22.87,42.3,23.53,42.3Zm1.26,20a2.37,2.37,0,0,1-1.67-.69V64.5H20.77V55.37h2.35v.54a2.37,2.37,0,0,1,1.67-.69c1.95,0,3,1.59,3,3.52S26.74,62.27,24.79,62.27Zm.48-36.15-1.16-1.76L23,26.12H20.53l2.35-3.44-2.25-3.31h2.54l1,1.62,1.06-1.62h2.43l-2.26,3.3,2.37,3.45ZM33.74,62a3.62,3.62,0,0,1-1.3.21A2.19,2.19,0,0,1,30,59.79V57.2H29V55.37h1V53.51h2.32v1.86h1.41V57.2H32.27v2.25c0,.52.26.75.72.75a2,2,0,0,0,.75-.15ZM31.39,42.3a.79.79,0,0,0,.85-.69h2.28a2.93,2.93,0,0,1-3.13,2.66A3.3,3.3,0,0,1,28,40.74a3.3,3.3,0,0,1,3.41-3.52,2.92,2.92,0,0,1,3.13,2.65H32.24a.81.81,0,0,0-.85-.7c-.66,0-1.08.61-1.08,1.57S30.73,42.3,31.39,42.3Zm1.89-16a2.37,2.37,0,0,1-1.67-.69V28.5H29.26V19.37h2.35v.54a2.37,2.37,0,0,1,1.67-.69c1.95,0,3,1.59,3,3.52S35.23,26.27,33.28,26.27Zm4.65,35.85H35.57V55.37h2.36ZM36.76,54.8a1.27,1.27,0,1,1,1.33-1.26A1.27,1.27,0,0,1,36.76,54.8Zm-.92-14.06a3.33,3.33,0,0,1,3.39-3.52,3.08,3.08,0,0,1,3.24,3.39v.58H38.11c.07.81.49,1.25,1.17,1.25a.94.94,0,0,0,1-.68h2.17a2.91,2.91,0,0,1-3.16,2.51A3.3,3.3,0,0,1,35.84,40.74ZM43,62.27a3.53,3.53,0,1,1,3.45-3.53A3.33,3.33,0,0,1,43,62.27ZM43.78,42h2.29a.83.83,0,0,0,.86.59c.39,0,.69-.15.69-.47s-.2-.34-.53-.42l-1.32-.27c-1.12-.24-1.86-.78-1.86-2,0-1.44,1.29-2.28,2.88-2.28,1.85,0,2.85.85,3.06,2.19H47.68c-.08-.29-.29-.54-.83-.54-.34,0-.63.15-.63.45s.15.31.47.37L48,40c1.23.28,1.89.93,1.89,2,0,1.44-1.3,2.24-2.95,2.24S44,43.49,43.78,42ZM54.71,62.12H52.37V58.26a.85.85,0,0,0-.88-1,1,1,0,0,0-1,.74v4.08H48.16V55.37h2.35V56a2.47,2.47,0,0,1,1.82-.73,2.25,2.25,0,0,1,2.38,2.47Zm4.77.15c-1.72,0-3-.78-3.18-2.24h2.3a.81.81,0,0,0,.85.59c.39,0,.69-.15.69-.47s-.19-.34-.52-.42l-1.32-.27c-1.13-.24-1.86-.78-1.86-2,0-1.44,1.29-2.28,2.88-2.28,1.84,0,2.85.85,3.06,2.19H60.2c-.07-.29-.28-.54-.82-.54-.35,0-.63.15-.63.45s.15.31.46.37l1.34.32c1.23.28,1.89.93,1.89,2C62.44,61.47,61.13,62.27,59.48,62.27Zm.81-25.47a1.27,1.27,0,1,1,1.34-1.26A1.27,1.27,0,0,1,60.29,36.8Zm1.17.57v6.75H59.11V37.37Zm1.47-14.18H58.57c.07.81.49,1.25,1.17,1.25a.94.94,0,0,0,1-.68H62.9a2.91,2.91,0,0,1-3.16,2.51,3.3,3.3,0,0,1-3.44-3.53,3.33,3.33,0,0,1,3.39-3.52,3.08,3.08,0,0,1,3.24,3.39Zm2.36,39a1.4,1.4,0,1,1,1.39-1.41A1.38,1.38,0,0,1,65.29,62.22Zm2.22-17.95a2.37,2.37,0,0,1-1.67-.69v.54H63.49V34.37h2.35v3.54a2.37,2.37,0,0,1,1.67-.69c1.95,0,3,1.57,3,3.52S69.46,44.27,67.51,44.27Zm7-.15H72.17V37.37h2.36ZM73.36,36.8a1.27,1.27,0,1,1,1.33-1.26A1.27,1.27,0,0,1,73.36,36.8Zm-1.7-8.3H69.34l1-2.55-2.52-6.58h2.44l1.29,3.84,1.26-3.84h2.34Zm7.25,15.62H76.55V34.37h2.36ZM76,22.74a3.45,3.45,0,1,1,6.9,0,3.45,3.45,0,1,1-6.9,0Zm7.32,21.38H80.93V37.37h2.36ZM82.12,36.8a1.27,1.27,0,1,1,1.33-1.26A1.27,1.27,0,0,1,82.12,36.8ZM84.5,19.37h2.34v3.87c0,.57.27,1,.87,1a1,1,0,0,0,1-.75V19.37H91v6.75H88.67v-.59a2.41,2.41,0,0,1-1.8.74,2.26,2.26,0,0,1-2.37-2.48ZM89.6,44a3.62,3.62,0,0,1-1.3.21,2.19,2.19,0,0,1-2.49-2.46V39.2h-1V37.37h1V35.51h2.32v1.86h1.41V39.2H88.13v2.25c0,.52.26.75.72.75a2,2,0,0,0,.75-.15Zm5,2.46H92.29l1-2.55-2.52-6.58H93.2l1.29,3.84,1.26-3.84h2.34Z"/><polygon points="159.74 44.46 159.74 44.46 159.74 44.46 159.74 44.46"/><path d="M159.74,27.63A20.4,20.4,0,1,0,180.14,48,20.42,20.42,0,0,0,159.74,27.63Zm0,6.22a3.22,3.22,0,1,1-3.22,3.22A3.22,3.22,0,0,1,159.74,33.85Zm5.43,30.89-.88.22-4.55-16.58L155.18,65l-.87-.22,4.21-19.56-11.35-2.76.22-1.05,12.35,2.09,12.35-2.09.22,1.05L161,45.18Z"/><path d="M159.74,38.59a1.52,1.52,0,1,0-1.52-1.52A1.52,1.52,0,0,0,159.74,38.59Z"/><path d="M117.84,0V79.67h84.8V0Zm42.49,12.31L165.9,9l.27.34-3.81,3.76,3.84,3.73-.34.44-5.53-3.37-1.31-.8Zm-7.49,0L158.4,9l.27.34-3.8,3.76,3.84,3.73-.35.44-5.52-3.37-1.32-.8Zm6.9,57.82A22.1,22.1,0,1,1,181.84,48,22.12,22.12,0,0,1,159.74,70.13Z"/></g></g></svg>