<svg xmlns="http://www.w3.org/2000/svg" viewBox="0 0 50 50"><title>Asset 25</title><g id="Layer_2" data-name="Layer 2"><g id="leonard"><path d="M33,13.9a1.8,1.8,0,1,0-1.79-1.8A1.81,1.81,0,0,0,33,13.9Z"/><path d="M21.8,23.91a7.89,7.89,0,1,0,7.89,7.89A7.9,7.9,0,0,0,21.8,23.91Z"/><path d="M25,0A25,25,0,1,0,50,25,25,25,0,0,0,25,0Zm8,8.31a3.8,3.8,0,1,1-3.79,3.79A3.8,3.8,0,0,1,33,8.31Zm4.84,17.23L35.65,39.72l-.94-.1.9-13.14-5.51,0a9.88,9.88,0,1,1-8.3-4.53,10.29,10.29,0,0,1,2.09.22l4.47-4.66-6.5-4.14-4.39,3.52-.64-.68,4.28-4.79.5-.55.71.42,8.45,5L32,17l-1.06,1L26,22.87a9.91,9.91,0,0,1,2.34,1.55l8.37-.05H38Z"/></g></g></svg>