<svg xmlns="http://www.w3.org/2000/svg" viewBox="0 0 50 50"><title>Asset 24</title><g id="Layer_2" data-name="Layer 2"><g id="leonard"><path d="M23.57,12a1.79,1.79,0,1,0-1.79,1.79A1.79,1.79,0,0,0,23.57,12Z"/><path d="M25,0A25,25,0,1,0,50,25,25,25,0,0,0,25,0ZM23.18,41.8a11.5,11.5,0,0,1-4.59-22l.8,1.83a9.5,9.5,0,1,0,12.67,12.1l1.87.71A11.56,11.56,0,0,1,23.18,41.8Zm12.93-5.26-.9.55-.46-1-3.92-9h-10V15.63a3.79,3.79,0,1,1,2,0v3.88l6.85.41V21l-6.85.41v3.7h9.36l.26.59,3.8,8.69L40,32.93l.47,1Z"/></g></g></svg>