<?xml version="1.0" encoding="utf-8"?>
<!-- Generator: Adobe Illustrator 23.0.0, SVG Export Plug-In . SVG Version: 6.00 Build 0)  -->
<svg version="1.1" id="Layer_1" xmlns="http://www.w3.org/2000/svg" xmlns:xlink="http://www.w3.org/1999/xlink" x="0px" y="0px"
	 viewBox="0 0 833.5 497.3" style="enable-background:new 0 0 833.5 497.3;" xml:space="preserve">
<style type="text/css">
	.st0{fill:none;stroke:#231F20;stroke-width:0.15;stroke-miterlimit:10;}
	.st1{fill:#FFFFFF;stroke:#231F20;stroke-width:0.15;stroke-miterlimit:10;}
	.st2{fill:none;stroke:#231F20;stroke-width:0.35;stroke-linecap:round;stroke-linejoin:round;}
	.st3{fill:none;stroke:#000000;stroke-width:0.35;stroke-linecap:round;stroke-linejoin:round;}
	.st4{fill:#FFFFFF;stroke:#000000;stroke-width:0.35;stroke-linecap:round;stroke-linejoin:round;}
	.st5{fill:none;stroke:#231F20;stroke-width:0.25;stroke-linecap:round;stroke-linejoin:round;}
	.st6{fill:none;stroke:#231F20;stroke-width:0.35;stroke-miterlimit:10;}
	.st7{fill:none;stroke:#231F20;stroke-width:0.25;stroke-miterlimit:10;}
	.st8{fill:#FFFFFF;stroke:#231F20;stroke-width:0.35;stroke-miterlimit:10;}
	.st9{fill:none;stroke:#231F20;stroke-width:0.5;stroke-linecap:round;stroke-linejoin:round;}
	.st10{fill:#FFFFFF;stroke:#231F20;stroke-width:0.25;stroke-miterlimit:10;}
	.st11{fill:none;stroke:#231F20;stroke-width:0.25;stroke-linecap:round;stroke-linejoin:round;stroke-dasharray:2.5;}
	.st12{fill:none;stroke:#000000;stroke-width:0.25;stroke-miterlimit:10;}
	.st13{fill:#FFFFFF;stroke:#000000;stroke-width:0.25;stroke-miterlimit:10;}
	.st14{fill:none;stroke:#00AEEF;stroke-width:0.7;stroke-miterlimit:10;}
	.st15{fill:#FFFFFF;stroke:#231F20;stroke-width:0.5;stroke-linecap:round;stroke-linejoin:round;}
	.st16{fill:#D2D3D4;stroke:#000000;stroke-width:0.5;stroke-miterlimit:10;}
	.st17{enable-background:new    ;}
	.st18{fill:#231F20;}
</style>
<title>108Leonard_WEB_D_6_v2</title>
<g id="FLOOR_PATTERN">
	<g id="LINE">
		<line class="st0" x1="582.5" y1="453.1" x2="582.5" y2="236.4"/>
	</g>
	<g id="LINE-2">
		<line class="st0" x1="591.1" y1="453.6" x2="591.1" y2="443.1"/>
	</g>
	<g id="LINE-3">
		<line class="st0" x1="591.1" y1="412.7" x2="591.1" y2="236.4"/>
	</g>
	<g id="LINE-4">
		<line class="st0" x1="599.6" y1="454.1" x2="599.6" y2="448"/>
	</g>
	<g id="LINE-5">
		<line class="st0" x1="599.6" y1="403.7" x2="599.6" y2="236.4"/>
	</g>
	<g id="LINE-6">
		<line class="st0" x1="608.1" y1="454.5" x2="608.1" y2="448.6"/>
	</g>
	<g id="LINE-7">
		<line class="st0" x1="608.1" y1="397.5" x2="608.1" y2="236.4"/>
	</g>
	<g id="LINE-8">
		<line class="st0" x1="616.7" y1="455" x2="616.7" y2="445.5"/>
	</g>
	<g id="LINE-9">
		<line class="st0" x1="616.7" y1="406.2" x2="616.7" y2="236.4"/>
	</g>
	<g id="LINE-10">
		<line class="st0" x1="625.2" y1="455.5" x2="625.2" y2="438.1"/>
	</g>
	<g id="LINE-11">
		<line class="st0" x1="625.2" y1="414.9" x2="625.2" y2="236.4"/>
	</g>
	<g id="LINE-12">
		<line class="st0" x1="633.8" y1="456" x2="633.8" y2="444.7"/>
	</g>
	<g id="LINE-13">
		<line class="st0" x1="633.8" y1="423.6" x2="633.8" y2="236.4"/>
	</g>
	<g id="LINE-14">
		<line class="st0" x1="633.8" y1="442.2" x2="633.8" y2="430.3"/>
	</g>
	<g id="LINE-15">
		<line class="st0" x1="642.3" y1="456.5" x2="642.3" y2="452.7"/>
	</g>
	<g id="LINE-16">
		<line class="st0" x1="642.3" y1="434.1" x2="642.3" y2="236.4"/>
	</g>
	<g id="LINE-17">
		<line class="st0" x1="650.8" y1="457" x2="650.8" y2="448.4"/>
	</g>
	<g id="LINE-18">
		<line class="st0" x1="650.8" y1="438.4" x2="650.8" y2="236.4"/>
	</g>
	<g id="LINE-19">
		<polyline class="st0" points="659.4,457.5 659.4,381 659.4,237 		"/>
	</g>
	<g id="LINE-20">
		<path class="st0" d="M659.4,236.4"/>
		<path class="st0" d="M659.4,287.9"/>
	</g>
	<g id="LINE-21">
		<line class="st0" x1="667.9" y1="458" x2="667.9" y2="381"/>
	</g>
	<g id="LINE-22">
		<line class="st0" x1="667.9" y1="287.9" x2="667.9" y2="237"/>
	</g>
	<g id="LINE-23">
		<line class="st0" x1="676.5" y1="458.5" x2="676.5" y2="381"/>
	</g>
	<g id="LINE-24">
		<line class="st0" x1="676.5" y1="287.9" x2="676.5" y2="237"/>
	</g>
	<g id="LINE-25">
		<line class="st0" x1="685" y1="459" x2="685" y2="237"/>
	</g>
	<g id="LINE-26">
		<line class="st0" x1="693.5" y1="459.5" x2="693.5" y2="366"/>
	</g>
	<g id="LINE-27">
		<line class="st0" x1="693.5" y1="312.7" x2="693.5" y2="237"/>
	</g>
	<g id="LINE-28">
		<line class="st0" x1="702.1" y1="460" x2="702.1" y2="392.7"/>
	</g>
	<g id="LINE-29">
		<line class="st0" x1="702.1" y1="276.3" x2="702.1" y2="237"/>
	</g>
	<g id="LINE-30">
		<line class="st0" x1="710.6" y1="460.4" x2="710.6" y2="392.7"/>
	</g>
	<g id="LINE-31">
		<line class="st0" x1="710.6" y1="276.2" x2="710.6" y2="237"/>
	</g>
	<g id="LINE-32">
		<line class="st0" x1="719.1" y1="460.9" x2="719.1" y2="392.7"/>
	</g>
	<g id="LINE-33">
		<line class="st0" x1="719.1" y1="276.2" x2="719.1" y2="237"/>
	</g>
	<g id="LINE-34">
		<line class="st0" x1="727.7" y1="461.4" x2="727.7" y2="392.7"/>
	</g>
	<g id="LINE-35">
		<line class="st0" x1="727.7" y1="276.2" x2="727.7" y2="237"/>
	</g>
	<g id="LINE-36">
		<line class="st0" x1="736.2" y1="461.9" x2="736.2" y2="392.7"/>
	</g>
	<g id="LINE-37">
		<line class="st0" x1="736.2" y1="276.2" x2="736.2" y2="237"/>
	</g>
	<g id="LINE-38">
		<line class="st0" x1="744.8" y1="462.4" x2="744.8" y2="392.7"/>
	</g>
	<g id="LINE-39">
		<line class="st0" x1="744.8" y1="276.2" x2="744.8" y2="237"/>
	</g>
	<g id="LINE-40">
		<line class="st0" x1="753.3" y1="462.9" x2="753.3" y2="392.7"/>
	</g>
	<g id="LINE-41">
		<line class="st0" x1="753.3" y1="276.2" x2="753.3" y2="237"/>
	</g>
	<g id="LINE-42">
		<line class="st0" x1="761.8" y1="463.4" x2="761.8" y2="392.7"/>
	</g>
	<g id="LINE-43">
		<line class="st0" x1="761.8" y1="276.2" x2="761.8" y2="237"/>
	</g>
	<g id="LINE-44">
		<line class="st0" x1="770.4" y1="442.8" x2="770.4" y2="392.7"/>
	</g>
	<g id="LINE-45">
		<line class="st0" x1="770.4" y1="276.2" x2="770.4" y2="237"/>
	</g>
	<g id="LINE-46">
		<line class="st0" x1="778.9" y1="443.2" x2="778.9" y2="392.7"/>
	</g>
	<g id="LINE-47">
		<line class="st0" x1="778.9" y1="276.2" x2="778.9" y2="237"/>
	</g>
	<g id="LINE-48">
		<line class="st0" x1="787.5" y1="443.7" x2="787.5" y2="392.7"/>
	</g>
	<g id="LINE-49">
		<line class="st0" x1="787.5" y1="276.2" x2="787.5" y2="237"/>
	</g>
	<g id="LINE-50">
		<line class="st0" x1="796" y1="436.5" x2="796" y2="428.4"/>
	</g>
	<g id="LINE-51">
		<line class="st0" x1="796" y1="240.6" x2="796" y2="237"/>
	</g>
	<g id="LINE-52">
		<line class="st0" x1="796" y1="397.4" x2="796" y2="392.7"/>
	</g>
	<g id="LINE-53">
		<line class="st0" x1="796" y1="276.2" x2="796" y2="271.6"/>
	</g>
	<g id="LINE-54">
		<line class="st0" x1="804.5" y1="437" x2="804.5" y2="428.4"/>
	</g>
	<g id="LINE-55">
		<line class="st0" x1="804.5" y1="240.6" x2="804.5" y2="237"/>
	</g>
	<g id="LINE-56">
		<line class="st0" x1="804.5" y1="397.4" x2="804.5" y2="392.7"/>
	</g>
	<g id="LINE-57">
		<line class="st0" x1="804.5" y1="276.2" x2="804.5" y2="271.6"/>
	</g>
	<g id="LINE-58">
		<line class="st0" x1="813.1" y1="437.5" x2="813.1" y2="428.4"/>
	</g>
	<g id="LINE-59">
		<line class="st0" x1="813.1" y1="240.6" x2="813.1" y2="237"/>
	</g>
	<g id="LINE-60">
		<line class="st0" x1="813.1" y1="397.4" x2="813.1" y2="392.7"/>
	</g>
	<g id="LINE-61">
		<line class="st0" x1="813.1" y1="276.2" x2="813.1" y2="271.6"/>
	</g>
	<g id="LINE-62">
		<line class="st0" x1="821.6" y1="438" x2="821.6" y2="237"/>
	</g>
	<g id="LWPOLYLINE">
		<line class="st0" x1="476" y1="45.7" x2="420.1" y2="45.7"/>
	</g>
	<g id="LWPOLYLINE-2">
		<line class="st0" x1="420.1" y1="36.3" x2="476" y2="36.3"/>
	</g>
	<g id="LWPOLYLINE-3">
		<line class="st0" x1="413.9" y1="146.6" x2="413.9" y2="92.2"/>
	</g>
	<g id="LWPOLYLINE-4">
		<line class="st0" x1="401.5" y1="92.2" x2="401.5" y2="146.6"/>
	</g>
	<g id="LWPOLYLINE-5">
		<line class="st0" x1="503.9" y1="190.7" x2="503.9" y2="144.1"/>
	</g>
	<g id="LWPOLYLINE-6">
		<line class="st0" x1="503.9" y1="128.3" x2="503.9" y2="81.8"/>
	</g>
	<g id="LWPOLYLINE-7">
		<line class="st0" x1="511.7" y1="81.8" x2="511.7" y2="128.3"/>
	</g>
	<g id="LWPOLYLINE-8">
		<line class="st0" x1="511.7" y1="144.1" x2="511.6" y2="190.7"/>
	</g>
	<g id="LWPOLYLINE-9">
		<polygon class="st1" points="657.8,237 603.5,237 603.5,224.6 659.4,224.6 659.4,237 		"/>
	</g>
	<g id="LWPOLYLINE-10">
		<line class="st0" x1="574" y1="387.6" x2="574" y2="282"/>
	</g>
	<g id="LINE-63">
		<line class="st0" x1="183.9" y1="257.4" x2="188.4" y2="252.9"/>
	</g>
	<g id="LINE-64">
		<line class="st0" x1="222.3" y1="219" x2="226.2" y2="215.1"/>
	</g>
	<g id="LINE-65">
		<line class="st0" x1="183.9" y1="269.4" x2="202.1" y2="251.3"/>
	</g>
	<g id="LINE-66">
		<line class="st0" x1="222.3" y1="231.1" x2="226.2" y2="227.1"/>
	</g>
	<g id="LINE-67">
		<line class="st0" x1="183.9" y1="281.5" x2="214.2" y2="251.3"/>
	</g>
	<g id="LINE-68">
		<line class="st0" x1="222.3" y1="243.2" x2="226.2" y2="239.2"/>
	</g>
	<g id="LINE-69">
		<line class="st0" x1="183.9" y1="293.6" x2="218.5" y2="259"/>
	</g>
	<g id="LINE-70">
		<line class="st0" x1="222.3" y1="255.3" x2="226.2" y2="251.3"/>
	</g>
	<g id="LINE-71">
		<line class="st0" x1="183.9" y1="305.6" x2="226.2" y2="263.4"/>
	</g>
	<g id="LINE-72">
		<line class="st0" x1="183.9" y1="317.7" x2="226.2" y2="275.4"/>
	</g>
	<g id="LINE-73">
		<line class="st0" x1="183.9" y1="329.8" x2="226.2" y2="287.5"/>
	</g>
	<g id="LINE-74">
		<line class="st0" x1="191" y1="334.8" x2="226.2" y2="299.6"/>
	</g>
	<g id="LINE-75">
		<line class="st0" x1="196.1" y1="341.8" x2="226.2" y2="311.6"/>
	</g>
	<g id="LINE-76">
		<line class="st0" x1="183.9" y1="366" x2="226.2" y2="323.7"/>
	</g>
	<g id="LINE-77">
		<line class="st0" x1="190.4" y1="371.6" x2="226.2" y2="335.8"/>
	</g>
	<g id="LINE-78">
		<line class="st0" x1="195.8" y1="378.3" x2="226.2" y2="347.9"/>
	</g>
	<g id="LINE-79">
		<line class="st0" x1="183.9" y1="402.3" x2="226.2" y2="360"/>
	</g>
	<g id="LINE-80">
		<line class="st0" x1="183.9" y1="414.3" x2="226.2" y2="372"/>
	</g>
	<g id="LINE-81">
		<line class="st0" x1="183.9" y1="426.4" x2="226.2" y2="384.1"/>
	</g>
	<g id="LINE-82">
		<line class="st0" x1="191.8" y1="430.6" x2="205.2" y2="417.2"/>
	</g>
	<g id="LINE-83">
		<line class="st0" x1="222.3" y1="400.2" x2="226.2" y2="396.2"/>
	</g>
	<g id="LINE-84">
		<line class="st0" x1="211.6" y1="410.8" x2="214.5" y2="407.9"/>
	</g>
	<g id="LINE-85">
		<line class="st0" x1="203.2" y1="431.3" x2="204.5" y2="430"/>
	</g>
	<g id="LINE-86">
		<line class="st0" x1="99.3" y1="257.4" x2="105.4" y2="251.3"/>
	</g>
	<g id="LINE-87">
		<line class="st0" x1="99.3" y1="269.4" x2="117.5" y2="251.3"/>
	</g>
	<g id="LINE-88">
		<line class="st0" x1="99.3" y1="281.5" x2="129.6" y2="251.3"/>
	</g>
	<g id="LINE-89">
		<line class="st0" x1="99.3" y1="293.6" x2="141.6" y2="251.3"/>
	</g>
	<g id="LINE-90">
		<line class="st0" x1="99.3" y1="305.6" x2="141.6" y2="263.4"/>
	</g>
	<g id="LINE-91">
		<line class="st0" x1="99.3" y1="317.7" x2="141.6" y2="275.4"/>
	</g>
	<g id="LINE-92">
		<line class="st0" x1="99.3" y1="329.8" x2="141.6" y2="287.5"/>
	</g>
	<g id="LINE-93">
		<line class="st0" x1="99.3" y1="341.9" x2="121.3" y2="319.9"/>
	</g>
	<g id="LINE-94">
		<line class="st0" x1="127.8" y1="313.4" x2="141.6" y2="299.6"/>
	</g>
	<g id="LINE-95">
		<line class="st0" x1="99.3" y1="354" x2="121.3" y2="331.9"/>
	</g>
	<g id="LINE-96">
		<line class="st0" x1="139.9" y1="313.4" x2="141.6" y2="311.6"/>
	</g>
	<g id="LINE-97">
		<line class="st0" x1="99.3" y1="366" x2="121.3" y2="344"/>
	</g>
	<g id="LINE-98">
		<line class="st0" x1="99.3" y1="378.1" x2="121.3" y2="356.1"/>
	</g>
	<g id="LINE-99">
		<line class="st0" x1="99.3" y1="390.2" x2="121.3" y2="368.2"/>
	</g>
	<g id="LINE-100">
		<line class="st0" x1="99.3" y1="402.3" x2="121.3" y2="380.2"/>
	</g>
	<g id="LINE-101">
		<line class="st0" x1="99.3" y1="414.3" x2="121.3" y2="392.3"/>
	</g>
	<g id="LINE-102">
		<line class="st0" x1="100.4" y1="425.4" x2="121.3" y2="404.4"/>
	</g>
	<g id="LINE-103">
		<line class="st0" x1="111.8" y1="426" x2="126.6" y2="411.2"/>
	</g>
	<g id="LINE-104">
		<line class="st0" x1="123.2" y1="426.7" x2="138.7" y2="411.2"/>
	</g>
	<g id="LINE-105">
		<line class="st0" x1="134.6" y1="427.3" x2="141.6" y2="420.3"/>
	</g>
	<g id="LINE-106">
		<line class="st0" x1="20.4" y1="420.8" x2="28.1" y2="413.1"/>
	</g>
	<g id="LINE-107">
		<line class="st0" x1="31.8" y1="421.4" x2="40.1" y2="413.1"/>
	</g>
	<g id="LINE-108">
		<line class="st0" x1="43.2" y1="422.1" x2="52.2" y2="413.1"/>
	</g>
	<g id="LINE-109">
		<line class="st0" x1="54.6" y1="422.7" x2="57" y2="420.3"/>
	</g>
	<g id="LINE-110">
		<line class="st0" x1="93.2" y1="251.3" x2="99.3" y2="257.4"/>
	</g>
	<g id="LINE-111">
		<line class="st0" x1="81.2" y1="251.3" x2="99.3" y2="269.4"/>
	</g>
	<g id="LINE-112">
		<line class="st0" x1="69.1" y1="251.3" x2="99.3" y2="281.5"/>
	</g>
	<g id="LINE-113">
		<line class="st0" x1="59.2" y1="253.5" x2="99.3" y2="293.6"/>
	</g>
	<g id="LINE-114">
		<line class="st0" x1="59.2" y1="265.6" x2="99.3" y2="305.6"/>
	</g>
	<g id="LINE-115">
		<line class="st0" x1="59.2" y1="277.6" x2="99.3" y2="317.7"/>
	</g>
	<g id="LINE-116">
		<line class="st0" x1="59.2" y1="289.7" x2="99.3" y2="329.8"/>
	</g>
	<g id="LINE-117">
		<line class="st0" x1="59.2" y1="301.8" x2="99.3" y2="341.9"/>
	</g>
	<g id="LINE-118">
		<line class="st0" x1="59.2" y1="313.9" x2="99.3" y2="354"/>
	</g>
	<g id="LINE-119">
		<line class="st0" x1="59.2" y1="326" x2="99.3" y2="366"/>
	</g>
	<g id="LINE-120">
		<line class="st0" x1="59.2" y1="338" x2="99.3" y2="378.1"/>
	</g>
	<g id="LINE-121">
		<line class="st0" x1="59.2" y1="350.1" x2="99.3" y2="390.2"/>
	</g>
	<g id="LINE-122">
		<line class="st0" x1="59.2" y1="362.2" x2="99.3" y2="402.3"/>
	</g>
	<g id="LINE-123">
		<line class="st0" x1="59.2" y1="374.2" x2="59.9" y2="374.9"/>
	</g>
	<g id="LINE-124">
		<line class="st0" x1="60.8" y1="375.8" x2="99.3" y2="414.3"/>
	</g>
	<g id="LINE-125">
		<line class="st0" x1="60.8" y1="387.9" x2="98.2" y2="425.2"/>
	</g>
	<g id="LINE-126">
		<line class="st0" x1="60.8" y1="400" x2="85.3" y2="424.5"/>
	</g>
	<g id="LINE-127">
		<line class="st0" x1="60.1" y1="411.3" x2="72.5" y2="423.8"/>
	</g>
	<g id="LINE-128">
		<line class="st0" x1="57" y1="420.3" x2="59.7" y2="423"/>
	</g>
	<g id="LINE-129">
		<line class="st0" x1="179.5" y1="252.9" x2="183.9" y2="257.4"/>
	</g>
	<g id="LINE-130">
		<line class="st0" x1="165.8" y1="251.3" x2="183.9" y2="269.4"/>
	</g>
	<g id="LINE-131">
		<line class="st0" x1="153.7" y1="251.3" x2="183.9" y2="281.5"/>
	</g>
	<g id="LINE-132">
		<line class="st0" x1="141.6" y1="251.3" x2="183.9" y2="293.6"/>
	</g>
	<g id="LINE-133">
		<line class="st0" x1="141.6" y1="263.4" x2="183.9" y2="305.6"/>
	</g>
	<g id="LINE-134">
		<line class="st0" x1="141.6" y1="275.4" x2="179.6" y2="313.4"/>
	</g>
	<g id="LINE-135">
		<line class="st0" x1="183.4" y1="317.2" x2="183.9" y2="317.7"/>
	</g>
	<g id="LINE-136">
		<line class="st0" x1="141.6" y1="287.5" x2="167.5" y2="313.4"/>
	</g>
	<g id="LINE-137">
		<line class="st0" x1="183.4" y1="329.3" x2="183.9" y2="329.8"/>
	</g>
	<g id="LINE-138">
		<line class="st0" x1="141.6" y1="299.6" x2="155.4" y2="313.4"/>
	</g>
	<g id="LINE-139">
		<line class="st0" x1="141.6" y1="311.6" x2="143.4" y2="313.4"/>
	</g>
	<g id="LINE-140">
		<line class="st0" x1="183.4" y1="401.8" x2="183.9" y2="402.3"/>
	</g>
	<g id="LINE-141">
		<line class="st0" x1="180.8" y1="411.2" x2="183.9" y2="414.3"/>
	</g>
	<g id="LINE-142">
		<line class="st0" x1="168.7" y1="411.2" x2="183.9" y2="426.4"/>
	</g>
	<g id="LINE-143">
		<line class="st0" x1="156.6" y1="411.2" x2="175.1" y2="429.7"/>
	</g>
	<g id="LINE-144">
		<line class="st0" x1="144.6" y1="411.2" x2="162.3" y2="428.9"/>
	</g>
	<g id="LINE-145">
		<line class="st0" x1="141.6" y1="420.3" x2="149.5" y2="428.2"/>
	</g>
	<g id="LINE-146">
		<line class="st0" x1="503.9" y1="45.7" x2="503.9" y2="45.7"/>
	</g>
	<g id="LINE-147">
		<line class="st0" x1="491.8" y1="45.7" x2="503.9" y2="57.8"/>
	</g>
	<g id="LINE-148">
		<line class="st0" x1="480.1" y1="46" x2="503.9" y2="69.9"/>
	</g>
	<g id="LINE-149">
		<line class="st0" x1="480.1" y1="58.1" x2="503.9" y2="81.9"/>
	</g>
	<g id="LINE-150">
		<line class="st0" x1="480.1" y1="70.1" x2="503.9" y2="94"/>
	</g>
	<g id="LINE-151">
		<line class="st0" x1="480.1" y1="82.2" x2="503.9" y2="106.1"/>
	</g>
	<g id="LINE-152">
		<line class="st0" x1="480.1" y1="94.3" x2="503.9" y2="118.2"/>
	</g>
	<g id="LINE-153">
		<line class="st0" x1="480.1" y1="106.4" x2="503.9" y2="130.2"/>
	</g>
	<g id="LINE-154">
		<line class="st0" x1="480.1" y1="118.4" x2="503.9" y2="142.3"/>
	</g>
	<g id="LINE-155">
		<line class="st0" x1="480.1" y1="130.5" x2="503.9" y2="154.4"/>
	</g>
	<g id="LINE-156">
		<line class="st0" x1="480.1" y1="142.6" x2="503.9" y2="166.4"/>
	</g>
	<g id="LINE-157">
		<line class="st0" x1="480.1" y1="154.7" x2="503.9" y2="178.5"/>
	</g>
	<g id="LINE-158">
		<line class="st0" x1="480.1" y1="166.8" x2="503.9" y2="190.6"/>
	</g>
	<g id="LINE-159">
		<line class="st0" x1="480.1" y1="178.8" x2="499.2" y2="198"/>
	</g>
	<g id="LINE-160">
		<line class="st0" x1="509.1" y1="207.8" x2="513.2" y2="212"/>
	</g>
	<g id="LINE-161">
		<line class="st0" x1="480.1" y1="190.9" x2="513.2" y2="224.1"/>
	</g>
	<g id="LINE-162">
		<line class="st0" x1="480.1" y1="203" x2="513.2" y2="236.2"/>
	</g>
	<g id="LINE-163">
		<line class="st0" x1="480.1" y1="215.1" x2="513.2" y2="248.2"/>
	</g>
	<g id="LINE-164">
		<line class="st0" x1="480.1" y1="227.1" x2="513.2" y2="260.3"/>
	</g>
	<g id="LINE-165">
		<line class="st0" x1="480.1" y1="239.2" x2="513.2" y2="272.4"/>
	</g>
	<g id="LINE-166">
		<line class="st0" x1="516.7" y1="275.8" x2="522.4" y2="281.5"/>
	</g>
	<g id="LINE-167">
		<line class="st0" x1="480.1" y1="251.3" x2="522.4" y2="293.6"/>
	</g>
	<g id="LINE-168">
		<line class="st0" x1="480.1" y1="263.4" x2="522.4" y2="305.6"/>
	</g>
	<g id="LINE-169">
		<line class="st0" x1="480.1" y1="275.4" x2="522.4" y2="317.7"/>
	</g>
	<g id="LINE-170">
		<line class="st0" x1="480.1" y1="287.5" x2="522.4" y2="329.8"/>
	</g>
	<g id="LINE-171">
		<line class="st0" x1="480.1" y1="299.6" x2="522.4" y2="341.9"/>
	</g>
	<g id="LINE-172">
		<line class="st0" x1="480.1" y1="311.6" x2="522.4" y2="354"/>
	</g>
	<g id="LINE-173">
		<line class="st0" x1="480.1" y1="323.7" x2="522.4" y2="366"/>
	</g>
	<g id="LINE-174">
		<line class="st0" x1="480.1" y1="335.8" x2="522.4" y2="378.1"/>
	</g>
	<g id="LINE-175">
		<line class="st0" x1="480.1" y1="347.9" x2="522.4" y2="390.2"/>
	</g>
	<g id="LINE-176">
		<line class="st0" x1="480.1" y1="360" x2="513.9" y2="393.8"/>
	</g>
	<g id="LINE-177">
		<line class="st0" x1="480.1" y1="372" x2="513.2" y2="405.2"/>
	</g>
	<g id="LINE-178">
		<line class="st0" x1="480.1" y1="384.1" x2="513.2" y2="417.3"/>
	</g>
	<g id="LINE-179">
		<line class="st0" x1="480.1" y1="396.2" x2="511.8" y2="427.9"/>
	</g>
	<g id="LINE-180">
		<line class="st0" x1="480.1" y1="408.3" x2="499.1" y2="427.3"/>
	</g>
	<g id="LINE-181">
		<line class="st0" x1="480.1" y1="420.3" x2="486.4" y2="426.6"/>
	</g>
	<g id="LINE-182">
		<line class="st0" x1="480.1" y1="432.4" x2="485.5" y2="437.9"/>
	</g>
	<g id="LINE-183">
		<line class="st0" x1="480.1" y1="444.5" x2="482.9" y2="447.4"/>
	</g>
	<g id="LINE-184">
		<line class="st0" x1="268.5" y1="209.1" x2="269.8" y2="207.8"/>
	</g>
	<g id="LINE-185">
		<line class="st0" x1="268.5" y1="221.1" x2="281.9" y2="207.8"/>
	</g>
	<g id="LINE-186">
		<line class="st0" x1="268.5" y1="233.2" x2="293.9" y2="207.8"/>
	</g>
	<g id="LINE-187">
		<line class="st0" x1="268.5" y1="245.3" x2="306" y2="207.8"/>
	</g>
	<g id="LINE-188">
		<line class="st0" x1="268.5" y1="257.4" x2="310.9" y2="215.1"/>
	</g>
	<g id="LINE-189">
		<line class="st0" x1="268.5" y1="269.4" x2="310.9" y2="227.1"/>
	</g>
	<g id="LINE-190">
		<line class="st0" x1="268.5" y1="281.5" x2="310.9" y2="239.2"/>
	</g>
	<g id="LINE-191">
		<line class="st0" x1="271.2" y1="290.9" x2="310.9" y2="251.3"/>
	</g>
	<g id="LINE-192">
		<line class="st0" x1="289.5" y1="284.7" x2="310.9" y2="263.4"/>
	</g>
	<g id="LINE-193">
		<line class="st0" x1="296.3" y1="290" x2="310.9" y2="275.4"/>
	</g>
	<g id="LINE-194">
		<line class="st0" x1="302" y1="296.3" x2="310.9" y2="287.5"/>
	</g>
	<g id="LINE-195">
		<line class="st0" x1="297" y1="313.4" x2="310.9" y2="299.6"/>
	</g>
	<g id="LINE-196">
		<line class="st0" x1="298.5" y1="324" x2="310.9" y2="311.6"/>
	</g>
	<g id="LINE-197">
		<line class="st0" x1="268.5" y1="366" x2="278.3" y2="356.3"/>
	</g>
	<g id="LINE-198">
		<line class="st0" x1="299.1" y1="335.4" x2="310.9" y2="323.7"/>
	</g>
	<g id="LINE-199">
		<line class="st0" x1="268.5" y1="378.1" x2="284.3" y2="362.3"/>
	</g>
	<g id="LINE-200">
		<line class="st0" x1="305.2" y1="341.5" x2="310.9" y2="335.8"/>
	</g>
	<g id="LINE-201">
		<line class="st0" x1="268.5" y1="390.2" x2="310.9" y2="347.9"/>
	</g>
	<g id="LINE-202">
		<line class="st0" x1="268.5" y1="402.3" x2="310.9" y2="360"/>
	</g>
	<g id="LINE-203">
		<line class="st0" x1="268.9" y1="414" x2="310.9" y2="372"/>
	</g>
	<g id="LINE-204">
		<line class="st0" x1="280.1" y1="414.8" x2="310.9" y2="384.1"/>
	</g>
	<g id="LINE-205">
		<line class="st0" x1="291.4" y1="415.6" x2="310.9" y2="396.2"/>
	</g>
	<g id="LINE-206">
		<line class="st0" x1="300" y1="419.1" x2="310.9" y2="408.3"/>
	</g>
	<g id="LINE-207">
		<line class="st0" x1="299.3" y1="431.9" x2="310.9" y2="420.3"/>
	</g>
	<g id="LINE-208">
		<line class="st0" x1="306.1" y1="437.2" x2="310.9" y2="432.4"/>
	</g>
	<g id="LINE-209">
		<line class="st0" x1="437.8" y1="52.1" x2="444.2" y2="45.7"/>
	</g>
	<g id="LINE-210">
		<line class="st0" x1="437.8" y1="64.1" x2="456.2" y2="45.7"/>
	</g>
	<g id="LINE-211">
		<line class="st0" x1="437.8" y1="76.2" x2="468.3" y2="45.7"/>
	</g>
	<g id="LINE-212">
		<line class="st0" x1="437.8" y1="88.3" x2="480.1" y2="46"/>
	</g>
	<g id="LINE-213">
		<line class="st0" x1="437.8" y1="100.4" x2="480.1" y2="58.1"/>
	</g>
	<g id="LINE-214">
		<line class="st0" x1="437.8" y1="112.4" x2="480.1" y2="70.1"/>
	</g>
	<g id="LINE-215">
		<line class="st0" x1="437.8" y1="124.5" x2="480.1" y2="82.2"/>
	</g>
	<g id="LINE-216">
		<line class="st0" x1="437.8" y1="136.6" x2="480.1" y2="94.3"/>
	</g>
	<g id="LINE-217">
		<line class="st0" x1="437.8" y1="148.7" x2="480.1" y2="106.4"/>
	</g>
	<g id="LINE-218">
		<line class="st0" x1="437.8" y1="160.8" x2="480.1" y2="118.4"/>
	</g>
	<g id="LINE-219">
		<line class="st0" x1="437.8" y1="172.8" x2="480.1" y2="130.5"/>
	</g>
	<g id="LINE-220">
		<line class="st0" x1="437.8" y1="184.9" x2="480.1" y2="142.6"/>
	</g>
	<g id="LINE-221">
		<line class="st0" x1="437.8" y1="197" x2="480.1" y2="154.7"/>
	</g>
	<g id="LINE-222">
		<line class="st0" x1="437.8" y1="209.1" x2="480.1" y2="166.8"/>
	</g>
	<g id="LINE-223">
		<line class="st0" x1="437.8" y1="221.1" x2="480.1" y2="178.8"/>
	</g>
	<g id="LINE-224">
		<line class="st0" x1="437.8" y1="233.2" x2="480.1" y2="190.9"/>
	</g>
	<g id="LINE-225">
		<line class="st0" x1="437.8" y1="245.3" x2="480.1" y2="203"/>
	</g>
	<g id="LINE-226">
		<line class="st0" x1="440.2" y1="254.9" x2="480.1" y2="215.1"/>
	</g>
	<g id="LINE-227">
		<line class="st0" x1="450" y1="257.1" x2="480.1" y2="227.1"/>
	</g>
	<g id="LINE-228">
		<line class="st0" x1="456.7" y1="262.5" x2="480.1" y2="239.2"/>
	</g>
	<g id="LINE-229">
		<line class="st0" x1="460.8" y1="270.5" x2="480.1" y2="251.3"/>
	</g>
	<g id="LINE-230">
		<line class="st0" x1="437.8" y1="305.6" x2="442.5" y2="301"/>
	</g>
	<g id="LINE-231">
		<line class="st0" x1="460.1" y1="283.3" x2="480.1" y2="263.4"/>
	</g>
	<g id="LINE-232">
		<line class="st0" x1="437.8" y1="317.7" x2="451.5" y2="304"/>
	</g>
	<g id="LINE-233">
		<line class="st0" x1="455.2" y1="300.2" x2="480.1" y2="275.4"/>
	</g>
	<g id="LINE-234">
		<line class="st0" x1="437.8" y1="329.8" x2="480.1" y2="287.5"/>
	</g>
	<g id="LINE-235">
		<line class="st0" x1="443.7" y1="336" x2="480.1" y2="299.6"/>
	</g>
	<g id="LINE-236">
		<line class="st0" x1="447.6" y1="344.1" x2="480.1" y2="311.6"/>
	</g>
	<g id="LINE-237">
		<line class="st0" x1="437.8" y1="366" x2="480.1" y2="323.7"/>
	</g>
	<g id="LINE-238">
		<line class="st0" x1="437.8" y1="378.1" x2="480.1" y2="335.8"/>
	</g>
	<g id="LINE-239">
		<line class="st0" x1="440" y1="388" x2="480.1" y2="347.9"/>
	</g>
	<g id="LINE-240">
		<line class="st0" x1="451.4" y1="388.6" x2="480.1" y2="360"/>
	</g>
	<g id="LINE-241">
		<line class="st0" x1="454.4" y1="397.7" x2="480.1" y2="372"/>
	</g>
	<g id="LINE-242">
		<line class="st0" x1="453.7" y1="410.5" x2="480.1" y2="384.1"/>
	</g>
	<g id="LINE-243">
		<line class="st0" x1="453" y1="423.3" x2="480.1" y2="396.2"/>
	</g>
	<g id="LINE-244">
		<line class="st0" x1="443.2" y1="445.1" x2="444.1" y2="444.2"/>
	</g>
	<g id="LINE-245">
		<line class="st0" x1="452.2" y1="436.1" x2="480.1" y2="408.3"/>
	</g>
	<g id="LINE-246">
		<line class="st0" x1="454.7" y1="445.7" x2="480.1" y2="420.3"/>
	</g>
	<g id="LINE-247">
		<line class="st0" x1="466.1" y1="446.4" x2="480.1" y2="432.4"/>
	</g>
	<g id="LINE-248">
		<line class="st0" x1="477.5" y1="447" x2="480.1" y2="444.5"/>
	</g>
	<g id="LINE-249">
		<line class="st0" x1="522.4" y1="283" x2="529.6" y2="275.8"/>
	</g>
	<g id="LINE-250">
		<line class="st0" x1="522.4" y1="295.1" x2="541.7" y2="275.8"/>
	</g>
	<g id="LINE-251">
		<line class="st0" x1="522.4" y1="307.2" x2="553.8" y2="275.8"/>
	</g>
	<g id="LINE-252">
		<line class="st0" x1="522.4" y1="319.3" x2="565.8" y2="275.8"/>
	</g>
	<g id="LINE-253">
		<line class="st0" x1="522.4" y1="331.4" x2="566.2" y2="287.5"/>
	</g>
	<g id="LINE-254">
		<line class="st0" x1="522.4" y1="343.4" x2="566.2" y2="299.6"/>
	</g>
	<g id="LINE-255">
		<line class="st0" x1="522.4" y1="355.5" x2="566.2" y2="311.6"/>
	</g>
	<g id="LINE-256">
		<line class="st0" x1="522.4" y1="367.6" x2="566.2" y2="323.7"/>
	</g>
	<g id="LINE-257">
		<line class="st0" x1="522.4" y1="379.6" x2="566.2" y2="335.8"/>
	</g>
	<g id="LINE-258">
		<line class="st0" x1="522.4" y1="391.7" x2="566.2" y2="347.9"/>
	</g>
	<g id="LINE-259">
		<line class="st0" x1="532.4" y1="393.8" x2="566.2" y2="360"/>
	</g>
	<g id="LINE-260">
		<line class="st0" x1="544.4" y1="393.8" x2="566.2" y2="372"/>
	</g>
	<g id="LINE-261">
		<line class="st0" x1="556.5" y1="393.8" x2="566.2" y2="384.1"/>
	</g>
	<g id="LINE-262">
		<line class="st0" x1="267.3" y1="207.8" x2="268.5" y2="209.1"/>
	</g>
	<g id="LINE-263">
		<line class="st0" x1="255.2" y1="207.8" x2="268.5" y2="221.1"/>
	</g>
	<g id="LINE-264">
		<line class="st0" x1="243.1" y1="207.8" x2="268.5" y2="233.2"/>
	</g>
	<g id="LINE-265">
		<line class="st0" x1="231.1" y1="207.8" x2="268.5" y2="245.3"/>
	</g>
	<g id="LINE-266">
		<line class="st0" x1="226.2" y1="215.1" x2="268.5" y2="257.4"/>
	</g>
	<g id="LINE-267">
		<line class="st0" x1="226.2" y1="227.1" x2="268.5" y2="269.4"/>
	</g>
	<g id="LINE-268">
		<line class="st0" x1="226.2" y1="239.2" x2="268.5" y2="281.5"/>
	</g>
	<g id="LINE-269">
		<line class="st0" x1="226.2" y1="251.3" x2="265.5" y2="290.5"/>
	</g>
	<g id="LINE-270">
		<line class="st0" x1="226.2" y1="263.4" x2="245.7" y2="282.8"/>
	</g>
	<g id="LINE-271">
		<line class="st0" x1="226.2" y1="275.4" x2="238.4" y2="287.6"/>
	</g>
	<g id="LINE-272">
		<line class="st0" x1="226.2" y1="287.5" x2="232.2" y2="293.4"/>
	</g>
	<g id="LINE-273">
		<line class="st0" x1="226.2" y1="299.6" x2="227" y2="300.4"/>
	</g>
	<g id="LINE-274">
		<line class="st0" x1="226.2" y1="311.6" x2="233.6" y2="319"/>
	</g>
	<g id="LINE-275">
		<line class="st0" x1="226.2" y1="323.7" x2="234.6" y2="332.1"/>
	</g>
	<g id="LINE-276">
		<line class="st0" x1="256.9" y1="354.4" x2="268.5" y2="366"/>
	</g>
	<g id="LINE-277">
		<line class="st0" x1="226.2" y1="335.8" x2="229.3" y2="338.9"/>
	</g>
	<g id="LINE-278">
		<line class="st0" x1="250.1" y1="359.7" x2="268.5" y2="378.1"/>
	</g>
	<g id="LINE-279">
		<line class="st0" x1="226.2" y1="347.9" x2="268.5" y2="390.2"/>
	</g>
	<g id="LINE-280">
		<line class="st0" x1="226.2" y1="360" x2="268.5" y2="402.3"/>
	</g>
	<g id="LINE-281">
		<line class="st0" x1="226.2" y1="372" x2="260.1" y2="405.9"/>
	</g>
	<g id="LINE-282">
		<line class="st0" x1="263.1" y1="408.9" x2="268.2" y2="414"/>
	</g>
	<g id="LINE-283">
		<line class="st0" x1="226.2" y1="384.1" x2="247.1" y2="405"/>
	</g>
	<g id="LINE-284">
		<line class="st0" x1="226.2" y1="396.2" x2="234.2" y2="404.1"/>
	</g>
	<g id="LINE-285">
		<line class="st0" x1="327.8" y1="207.8" x2="329.3" y2="209.4"/>
	</g>
	<g id="LINE-286">
		<line class="st0" x1="349" y1="229.1" x2="353.1" y2="233.2"/>
	</g>
	<g id="LINE-287">
		<line class="st0" x1="315.7" y1="207.8" x2="329.3" y2="221.5"/>
	</g>
	<g id="LINE-288">
		<line class="st0" x1="337" y1="229.1" x2="353.1" y2="245.3"/>
	</g>
	<g id="LINE-289">
		<line class="st0" x1="310.9" y1="215.1" x2="353.1" y2="257.4"/>
	</g>
	<g id="LINE-290">
		<line class="st0" x1="310.9" y1="227.1" x2="349.3" y2="265.5"/>
	</g>
	<g id="LINE-291">
		<line class="st0" x1="310.9" y1="239.2" x2="348.6" y2="276.9"/>
	</g>
	<g id="LINE-292">
		<line class="st0" x1="310.9" y1="251.3" x2="351.3" y2="291.8"/>
	</g>
	<g id="LINE-293">
		<line class="st0" x1="310.9" y1="263.4" x2="353.1" y2="305.6"/>
	</g>
	<g id="LINE-294">
		<line class="st0" x1="310.9" y1="275.4" x2="353.1" y2="317.7"/>
	</g>
	<g id="LINE-295">
		<line class="st0" x1="310.9" y1="287.5" x2="353.1" y2="329.8"/>
	</g>
	<g id="LINE-296">
		<line class="st0" x1="310.9" y1="299.6" x2="353.1" y2="341.9"/>
	</g>
	<g id="LINE-297">
		<line class="st0" x1="310.9" y1="311.6" x2="353.1" y2="354"/>
	</g>
	<g id="LINE-298">
		<line class="st0" x1="310.9" y1="323.7" x2="353.1" y2="366"/>
	</g>
	<g id="LINE-299">
		<line class="st0" x1="310.9" y1="335.8" x2="353.1" y2="378.1"/>
	</g>
	<g id="LINE-300">
		<line class="st0" x1="310.9" y1="347.9" x2="345.5" y2="382.6"/>
	</g>
	<g id="LINE-301">
		<line class="st0" x1="310.9" y1="360" x2="342.8" y2="391.9"/>
	</g>
	<g id="LINE-302">
		<line class="st0" x1="310.9" y1="372" x2="342.1" y2="403.3"/>
	</g>
	<g id="LINE-303">
		<line class="st0" x1="310.9" y1="384.1" x2="341.5" y2="414.7"/>
	</g>
	<g id="LINE-304">
		<line class="st0" x1="310.9" y1="396.2" x2="340.8" y2="426.2"/>
	</g>
	<g id="LINE-305">
		<line class="st0" x1="310.9" y1="408.3" x2="340.2" y2="437.6"/>
	</g>
	<g id="LINE-306">
		<line class="st0" x1="340.9" y1="438.3" x2="341.8" y2="439.2"/>
	</g>
	<g id="LINE-307">
		<line class="st0" x1="310.9" y1="420.3" x2="329" y2="438.5"/>
	</g>
	<g id="LINE-308">
		<line class="st0" x1="310.9" y1="432.4" x2="316.2" y2="437.8"/>
	</g>
	<g id="LINE-309">
		<line class="st0" x1="353.1" y1="233.2" x2="357.3" y2="229.1"/>
	</g>
	<g id="LINE-310">
		<line class="st0" x1="353.1" y1="245.3" x2="369.4" y2="229.1"/>
	</g>
	<g id="LINE-311">
		<line class="st0" x1="353.1" y1="257.4" x2="381.4" y2="229.1"/>
	</g>
	<g id="LINE-312">
		<line class="st0" x1="371.3" y1="251.3" x2="393.5" y2="229.1"/>
	</g>
	<g id="LINE-313">
		<line class="st0" x1="380.2" y1="254.4" x2="395.5" y2="239.2"/>
	</g>
	<g id="LINE-314">
		<line class="st0" x1="386.3" y1="260.4" x2="395.5" y2="251.3"/>
	</g>
	<g id="LINE-315">
		<line class="st0" x1="353.1" y1="305.6" x2="361.1" y2="297.7"/>
	</g>
	<g id="LINE-316">
		<line class="st0" x1="389.8" y1="269" x2="395.5" y2="263.4"/>
	</g>
	<g id="LINE-317">
		<line class="st0" x1="353.1" y1="317.7" x2="376.7" y2="294.2"/>
	</g>
	<g id="LINE-318">
		<line class="st0" x1="392.3" y1="278.6" x2="395.5" y2="275.4"/>
	</g>
	<g id="LINE-319">
		<line class="st0" x1="353.1" y1="329.8" x2="392.3" y2="290.7"/>
	</g>
	<g id="LINE-320">
		<line class="st0" x1="394.7" y1="288.3" x2="395.5" y2="287.5"/>
	</g>
	<g id="LINE-321">
		<line class="st0" x1="353.1" y1="341.9" x2="354.8" y2="340.3"/>
	</g>
	<g id="LINE-322">
		<line class="st0" x1="369.5" y1="325.5" x2="395.5" y2="299.6"/>
	</g>
	<g id="LINE-323">
		<line class="st0" x1="353.1" y1="354" x2="357.3" y2="349.8"/>
	</g>
	<g id="LINE-324">
		<line class="st0" x1="385.9" y1="321.2" x2="395.5" y2="311.6"/>
	</g>
	<g id="LINE-325">
		<line class="st0" x1="353.1" y1="366" x2="363.3" y2="355.9"/>
	</g>
	<g id="LINE-326">
		<line class="st0" x1="353.1" y1="378.1" x2="370.9" y2="360.4"/>
	</g>
	<g id="LINE-327">
		<line class="st0" x1="360" y1="383.4" x2="379.7" y2="363.7"/>
	</g>
	<g id="LINE-328">
		<line class="st0" x1="371.4" y1="384" x2="389.5" y2="365.9"/>
	</g>
	<g id="LINE-329">
		<line class="st0" x1="382.8" y1="384.7" x2="395.5" y2="372"/>
	</g>
	<g id="LINE-330">
		<line class="st0" x1="394.2" y1="385.4" x2="395.5" y2="384.1"/>
	</g>
	<g id="LINE-331">
		<line class="st0" x1="363.2" y1="440.5" x2="364.1" y2="439.6"/>
	</g>
	<g id="LINE-332">
		<line class="st0" x1="374.7" y1="441.1" x2="375.5" y2="440.3"/>
	</g>
	<g id="LINE-333">
		<line class="st0" x1="386.1" y1="441.8" x2="386.9" y2="440.9"/>
	</g>
	<g id="LINE-334">
		<line class="st0" x1="431.4" y1="45.7" x2="437.8" y2="52.1"/>
	</g>
	<g id="LINE-335">
		<line class="st0" x1="419.3" y1="45.7" x2="437.8" y2="64.1"/>
	</g>
	<g id="LINE-336">
		<line class="st0" x1="413.9" y1="52.3" x2="437.8" y2="76.2"/>
	</g>
	<g id="LINE-337">
		<line class="st0" x1="413.9" y1="64.4" x2="437.8" y2="88.3"/>
	</g>
	<g id="LINE-338">
		<line class="st0" x1="413.9" y1="76.5" x2="437.8" y2="100.4"/>
	</g>
	<g id="LINE-339">
		<line class="st0" x1="413.9" y1="88.6" x2="437.8" y2="112.4"/>
	</g>
	<g id="LINE-340">
		<line class="st0" x1="413.9" y1="100.7" x2="437.8" y2="124.5"/>
	</g>
	<g id="LINE-341">
		<line class="st0" x1="413.9" y1="112.7" x2="437.8" y2="136.6"/>
	</g>
	<g id="LINE-342">
		<line class="st0" x1="413.9" y1="124.8" x2="437.8" y2="148.7"/>
	</g>
	<g id="LINE-343">
		<line class="st0" x1="413.9" y1="136.9" x2="437.8" y2="160.8"/>
	</g>
	<g id="LINE-344">
		<line class="st0" x1="413.9" y1="148.9" x2="437.8" y2="172.8"/>
	</g>
	<g id="LINE-345">
		<line class="st0" x1="413.9" y1="161" x2="437.8" y2="184.9"/>
	</g>
	<g id="LINE-346">
		<line class="st0" x1="413.9" y1="173.1" x2="437.8" y2="197"/>
	</g>
	<g id="LINE-347">
		<line class="st0" x1="413.9" y1="185.1" x2="437.8" y2="209.1"/>
	</g>
	<g id="LINE-348">
		<line class="st0" x1="418.5" y1="201.9" x2="437.8" y2="221.1"/>
	</g>
	<g id="LINE-349">
		<line class="st0" x1="412.4" y1="207.8" x2="437.8" y2="233.2"/>
	</g>
	<g id="LINE-350">
		<line class="st0" x1="408.2" y1="215.7" x2="437.8" y2="245.3"/>
	</g>
	<g id="LINE-351">
		<line class="st0" x1="408.2" y1="227.8" x2="435.8" y2="255.4"/>
	</g>
	<g id="LINE-352">
		<line class="st0" x1="397.4" y1="229.1" x2="427.7" y2="259.3"/>
	</g>
	<g id="LINE-353">
		<line class="st0" x1="395.5" y1="239.2" x2="422.2" y2="265.9"/>
	</g>
	<g id="LINE-354">
		<line class="st0" x1="395.5" y1="251.3" x2="404" y2="259.8"/>
	</g>
	<g id="LINE-355">
		<line class="st0" x1="414.3" y1="270.1" x2="418.7" y2="274.5"/>
	</g>
	<g id="LINE-356">
		<line class="st0" x1="395.5" y1="263.4" x2="396.8" y2="264.7"/>
	</g>
	<g id="LINE-357">
		<line class="st0" x1="428.3" y1="296.2" x2="437.8" y2="305.6"/>
	</g>
	<g id="LINE-358">
		<line class="st0" x1="409.4" y1="277.3" x2="415.4" y2="283.3"/>
	</g>
	<g id="LINE-359">
		<line class="st0" x1="395.5" y1="275.4" x2="437.8" y2="317.7"/>
	</g>
	<g id="LINE-360">
		<line class="st0" x1="395.7" y1="287.8" x2="437.8" y2="329.8"/>
	</g>
	<g id="LINE-361">
		<line class="st0" x1="395.7" y1="299.8" x2="418.8" y2="323"/>
	</g>
	<g id="LINE-362">
		<line class="st0" x1="395.7" y1="311.9" x2="404.5" y2="320.7"/>
	</g>
	<g id="LINE-363">
		<line class="st0" x1="433.6" y1="361.8" x2="437.8" y2="366"/>
	</g>
	<g id="LINE-364">
		<line class="st0" x1="424.5" y1="364.9" x2="437.8" y2="378.1"/>
	</g>
	<g id="LINE-365">
		<line class="st0" x1="414.3" y1="366.7" x2="435.3" y2="387.7"/>
	</g>
	<g id="LINE-366">
		<line class="st0" x1="402.7" y1="367.2" x2="422.5" y2="387"/>
	</g>
	<g id="LINE-367">
		<line class="st0" x1="395.5" y1="372" x2="409.7" y2="386.2"/>
	</g>
	<g id="LINE-368">
		<line class="st0" x1="395.5" y1="384.1" x2="396.9" y2="385.5"/>
	</g>
	<g id="LINE-369">
		<line class="st0" x1="430.6" y1="443.4" x2="431.6" y2="444.4"/>
	</g>
	<g id="LINE-370">
		<line class="st0" x1="417.8" y1="442.7" x2="418.8" y2="443.7"/>
	</g>
	<g id="LINE-371">
		<line class="st0" x1="405" y1="442" x2="406" y2="442.9"/>
	</g>
	<g id="LWPOLYLINE-11">
		<line class="st0" x1="437.8" y1="45.7" x2="437.8" y2="255.1"/>
	</g>
	<g id="LWPOLYLINE-12">
		<line class="st0" x1="437.8" y1="299.4" x2="437.8" y2="330.4"/>
	</g>
	<g id="LWPOLYLINE-13">
		<line class="st0" x1="437.8" y1="359.2" x2="437.8" y2="387.9"/>
	</g>
	<g id="LWPOLYLINE-14">
		<line class="st0" x1="437.8" y1="443.9" x2="437.8" y2="444.8"/>
	</g>
	<g id="LWPOLYLINE-15">
		<line class="st0" x1="395.5" y1="229.1" x2="395.5" y2="320.5"/>
	</g>
	<g id="LWPOLYLINE-16">
		<line class="st0" x1="395.5" y1="366.8" x2="395.5" y2="385.5"/>
	</g>
	<g id="LWPOLYLINE-17">
		<line class="st0" x1="395.5" y1="441.5" x2="395.5" y2="442.3"/>
	</g>
	<g id="LWPOLYLINE-18">
		<line class="st0" x1="353.1" y1="229.1" x2="353.1" y2="258.4"/>
	</g>
	<g id="LWPOLYLINE-19">
		<line class="st0" x1="353.1" y1="298.9" x2="353.1" y2="383"/>
	</g>
	<g id="LWPOLYLINE-20">
		<line class="st0" x1="353.1" y1="439" x2="353.1" y2="439.9"/>
	</g>
	<g id="LWPOLYLINE-21">
		<line class="st0" x1="310.9" y1="207.8" x2="310.9" y2="437.5"/>
	</g>
	<g id="LWPOLYLINE-22">
		<line class="st0" x1="268.5" y1="207.8" x2="268.5" y2="290.6"/>
	</g>
	<g id="LWPOLYLINE-23">
		<line class="st0" x1="268.5" y1="355.6" x2="268.5" y2="414"/>
	</g>
	<g id="LWPOLYLINE-24">
		<line class="st0" x1="226.2" y1="207.8" x2="226.2" y2="341.9"/>
	</g>
	<g id="LWPOLYLINE-25">
		<line class="st0" x1="226.2" y1="344.4" x2="226.2" y2="403.6"/>
	</g>
	<g id="LWPOLYLINE-26">
		<line class="st0" x1="183.9" y1="251.3" x2="183.9" y2="332.4"/>
	</g>
	<g id="LWPOLYLINE-27">
		<line class="st0" x1="183.9" y1="358.8" x2="183.9" y2="369.6"/>
	</g>
	<g id="LWPOLYLINE-28">
		<line class="st0" x1="183.9" y1="396" x2="183.9" y2="430.2"/>
	</g>
	<g id="LWPOLYLINE-29">
		<line class="st0" x1="141.6" y1="251.3" x2="141.6" y2="313.4"/>
	</g>
	<g id="LWPOLYLINE-30">
		<line class="st0" x1="141.6" y1="411.2" x2="141.6" y2="427.7"/>
	</g>
	<g id="LWPOLYLINE-31">
		<line class="st0" x1="99.3" y1="251.3" x2="99.3" y2="425.3"/>
	</g>
	<g id="LWPOLYLINE-32">
		<line class="st0" x1="57" y1="413.1" x2="57" y2="422.9"/>
	</g>
	<g id="LWPOLYLINE-33">
		<line class="st0" x1="480.1" y1="45.7" x2="480.1" y2="447.2"/>
	</g>
	<g id="LWPOLYLINE-34">
		<line class="st0" x1="522.4" y1="275.8" x2="522.4" y2="393.8"/>
	</g>
	<g id="LWPOLYLINE-35">
		<line class="st0" x1="664" y1="91.1" x2="664" y2="143.9"/>
	</g>
	<g id="LWPOLYLINE-36">
		<line class="st0" x1="682.7" y1="91.1" x2="682.7" y2="143.9"/>
	</g>
	<g id="LINE-372">
		<line class="st0" x1="183.4" y1="365.5" x2="183.9" y2="366"/>
	</g>
	<g id="LINE-373">
		<line class="st0" x1="566.2" y1="282" x2="566.2" y2="387.6"/>
	</g>
</g>
<g id="BATH_FIXTURES">
	<g id="ELLIPSE">
		<path class="st2" d="M775.8,55.9h-6.7c-0.1,0.9-0.3,1.5-0.5,1.5l-5.5,0.3l0,0c-0.2,0-0.3-1.1-0.3-2.4s0.2-2.3,0.3-2.3l0,0l5.5,0.3
			c0.2,0,0.5,0.6,0.5,1.5h6.7"/>
	</g>
	<g id="LWPOLYLINE-37">
		<path class="st2" d="M776,46.6h-3.7v-2.2c0-0.7-0.5-1.2-1.2-1.2s-1.2,0.5-1.2,1.2v3.1c0,0.7,0.5,1.2,1.2,1.2l0,0
			c0.3,0,0.6-0.1,0.8-0.3h4"/>
	</g>
	<path class="st2" d="M776,69.6h-1.1V71h-1.1c-0.3,0-0.6,0.3-0.6,0.6v0.3h-1.3c-0.3,0-0.6,0.2-0.6,0.5c0,0,0,0,0,0
		c0,0.3,0.2,0.6,0.6,0.6c0,0,0,0,0,0h1.3v0.3c0,0.3,0.3,0.6,0.6,0.6h1.1v1.3h1.1"/>
	<g id="LWPOLYLINE-38">
		<path class="st2" d="M384.1,49.2l0.4-0.2c0.7-0.4,1.1-1.1,1.1-1.8c-0.1-1.7-0.2-3.4-0.4-5.1c-0.1-0.6-0.6-1.1-1.2-1.1h-20.9
			c-0.6,0-1.2,0.5-1.2,1.1c-0.1,1.7-0.3,3.4-0.4,5.1c0,0.8,0.4,1.5,1.1,1.9l0.4,0.2"/>
	</g>
	<g id="LWPOLYLINE-39">
		<path class="st2" d="M384.1,49.2c-6.6,3.1-14.3,3.1-20.9,0.1"/>
	</g>
	<g id="LWPOLYLINE-40">
		<path class="st2" d="M363,49.2c-0.2,6.1-0.3,12.3-0.3,18.4c0,3.1,0.6,6.2,1.8,9c0.9,2.1,2.3,4,4,5.5c2.9,2.5,7.2,2.5,10.2,0
			c1.7-1.5,3.1-3.4,4-5.5c1.2-2.8,1.8-5.9,1.8-9c0-6.1-0.1-12.3-0.3-18.4"/>
	</g>
	<g id="LINE-374">
		<line class="st2" x1="778.9" y1="84.9" x2="778.9" y2="187.3"/>
	</g>
	<g id="ELLIPSE-2">
		<path class="st2" d="M355,160.5c0-6.9,8.3-12.4,18.6-12.4s18.6,5.6,18.6,12.4s-8.3,12.4-18.6,12.4S355,167.4,355,160.5L355,160.5z
			"/>
	</g>
	<g id="LINE-375">
		<line class="st2" x1="688.9" y1="36.7" x2="688.9" y2="75.6"/>
	</g>
	<g id="LINE-376">
		<line class="st2" x1="814.6" y1="84.9" x2="814.6" y2="187.3"/>
	</g>
	<g id="LWPOLYLINE-41">
		<path class="st2" d="M699.4,188.7v-0.4l0.1-0.1l0.7-0.1l3.4-0.2l6.6-0.1c4.7,0.4,9.5,0.9,14.2,1.5c3.5,0.4,6.4,2.8,7.5,6.1
			c1.2,3.8,1.2,7.9,0,11.6c-1.1,3.3-4,5.7-7.5,6.1c-4.7,0.8-9.4,1.3-14.2,1.5l-6.6-0.1l-3.4-0.2l-0.7-0.1l-0.1-0.1v-0.6"/>
	</g>
	<g id="LWPOLYLINE-42">
		<path class="st2" d="M710.1,214.6L710.1,214.6l-1.8,0.1l-4.5,0.1H700l-11-0.3c-2.4-0.1-4.3-1.9-4.6-4.2
			c-0.7-5.9-0.8-11.8-0.1-17.6c0.3-2.3,2-4.3,4.3-4.8l5.1-0.3l6.3-0.1l6.7,0.1l3.3,0.1l0.1,0.1"/>
	</g>
	<g id="LWPOLYLINE-43">
		<path class="st2" d="M699.4,213.8v-0.9h0.2v-0.6h2.4c0.2,0,0.3-0.1,0.3-0.3v-21.6c0-0.2-0.1-0.3-0.3-0.3c0,0,0,0,0,0h-2.5v-0.4
			h-0.2v-1.1c0-0.1-0.1-0.2-0.2-0.2l-6.3,0.4c-1.4,0.4-2.6,1.5-3,2.9c-0.3,1.8-0.5,3.5-0.6,5.3c0,1.4,0,2.8,0,4.2
			c-0.1,2.9,0.1,5.9,0.5,8.8c0.2,1.7,1.5,3.2,3.2,3.6c1,0.1,2,0.2,2.9,0.2l3.4,0.1C699.4,214,699.5,213.9,699.4,213.8"/>
	</g>
	<g id="LWPOLYLINE-44">
		<polyline class="st3" points="814.6,189 814.6,187.3 820.9,187.3 820.9,85.2 814.6,85.2 814.6,85.2 		"/>
	</g>
	<g id="LWPOLYLINE-45">
		<line class="st3" x1="820.9" y1="133.7" x2="814.6" y2="133.7"/>
	</g>
	<g id="LWPOLYLINE-46">
		<rect x="814.7" y="90.9" class="st4" width="1.4" height="42.8"/>
	</g>
	<g id="LWPOLYLINE-47">
		<polyline class="st4" points="814.6,140.1 814.6,139.4 820.9,139.4 		"/>
	</g>
	<g id="LWPOLYLINE-48">
		<line class="st3" x1="814.6" y1="181.6" x2="820.9" y2="181.6"/>
	</g>
	<g id="LWPOLYLINE-49">
		<line class="st3" x1="814.6" y1="90.9" x2="820.9" y2="90.9"/>
	</g>
	<g id="LWPOLYLINE-50">
		<rect x="814.7" y="139.4" class="st4" width="1.4" height="42.1"/>
	</g>
</g>
<g id="BATH_GLAZING">
	<g id="LINE-377">
		<line class="st5" x1="775.8" y1="83.4" x2="688.9" y2="83.4"/>
	</g>
	<g id="LINE-378">
		<line class="st5" x1="775.8" y1="81.6" x2="688.9" y2="81.6"/>
	</g>
	<g id="LWPOLYLINE-51">
		<rect x="706.7" y="81.6" class="st5" width="69.1" height="1.8"/>
	</g>
</g>
<g id="RODS">
	<g id="LINE-379">
		<line class="st6" x1="537.5" y1="132.8" x2="537.5" y2="200.7"/>
	</g>
	<g id="LINE-380">
		<line class="st6" x1="534.4" y1="132.8" x2="534.4" y2="200.7"/>
	</g>
	<g id="LINE-381">
		<polyline class="st6" points="664.4,49.2 596.7,49.2 596.7,196.4 573.4,196.4 		"/>
	</g>
	<g id="LINE-382">
		<polyline class="st6" points="664.4,46.1 593.5,46.1 593.5,193.3 573.4,193.3 		"/>
	</g>
</g>
<g id="HANGERS">
	<g id="LINE-383">
		<line class="st7" x1="522" y1="185.6" x2="550" y2="185.5"/>
	</g>
	<g id="LINE-384">
		<line class="st7" x1="522" y1="162.8" x2="550" y2="152.2"/>
	</g>
	<g id="LINE-385">
		<line class="st7" x1="522" y1="156.9" x2="550" y2="146.2"/>
	</g>
	<g id="LINE-386">
		<line class="st7" x1="522" y1="193.6" x2="550" y2="193.6"/>
	</g>
	<g id="LINE-387">
		<line class="st7" x1="522" y1="169.5" x2="550" y2="169.5"/>
	</g>
	<g id="LINE-388">
		<line class="st7" x1="522" y1="165.5" x2="550" y2="165.5"/>
	</g>
	<g id="LINE-389">
		<line class="st7" x1="522" y1="189.6" x2="550" y2="189.6"/>
	</g>
	<g id="LINE-390">
		<line class="st7" x1="522" y1="181.5" x2="550" y2="181.5"/>
	</g>
	<g id="LINE-391">
		<line class="st7" x1="522" y1="177.5" x2="550" y2="177.5"/>
	</g>
	<g id="LINE-392">
		<line class="st7" x1="522" y1="173.5" x2="550" y2="173.5"/>
	</g>
	<g id="LINE-393">
		<line class="st7" x1="637.2" y1="33.6" x2="626.6" y2="61.6"/>
	</g>
	<g id="LINE-394">
		<line class="st7" x1="631.3" y1="33.6" x2="620.7" y2="61.6"/>
	</g>
	<g id="LINE-395">
		<line class="st7" x1="643.9" y1="33.6" x2="643.9" y2="61.6"/>
	</g>
	<g id="LINE-396">
		<line class="st7" x1="639.9" y1="33.6" x2="639.9" y2="61.6"/>
	</g>
	<g id="LINE-397">
		<line class="st7" x1="647.9" y1="33.6" x2="647.9" y2="61.6"/>
	</g>
	<g id="LINE-398">
		<line class="st7" x1="581.1" y1="178.6" x2="609.1" y2="189.3"/>
	</g>
	<g id="LINE-399">
		<line class="st7" x1="581.1" y1="184.5" x2="609.1" y2="195.2"/>
	</g>
	<g id="LINE-400">
		<line class="st7" x1="581.1" y1="171.9" x2="609.1" y2="171.9"/>
	</g>
	<g id="LINE-401">
		<line class="st7" x1="581.1" y1="175.9" x2="609.1" y2="175.9"/>
	</g>
	<g id="LINE-402">
		<line class="st7" x1="581.1" y1="159.9" x2="609.1" y2="159.9"/>
	</g>
	<g id="LINE-403">
		<line class="st7" x1="581.1" y1="163.9" x2="609.1" y2="163.9"/>
	</g>
	<g id="LINE-404">
		<line class="st7" x1="581.1" y1="167.9" x2="609.1" y2="167.9"/>
	</g>
</g>
<g id="FURNITURE">
	<g id="LWPOLYLINE-52">
		
			<rect x="369.6" y="357.7" transform="matrix(5.738980e-02 -0.9984 0.9984 5.738980e-02 -38.177 786.7358)" class="st8" width="55.9" height="111.8"/>
	</g>
	<g id="ARC">
		<path class="st8" d="M283.2,361.3c9.1-4.4,16.5-11.8,20.9-20.9"/>
	</g>
	<g id="LWPOLYLINE-53">
		<path class="st8" d="M293.2,329.6l13.2,13.2c-4.6,9-11.9,16.3-20.9,20.9l-13.2-13.2L293.2,329.6z"/>
	</g>
	<g id="ARC-2">
		<path class="st8" d="M304.1,305.7c-4.4-9.1-11.8-16.5-20.9-20.9"/>
	</g>
	<g id="LWPOLYLINE-54">
		<rect x="793.6" y="397.4" class="st8" width="24.8" height="31"/>
	</g>
	<g id="LWPOLYLINE-55">
		<path class="st8" d="M272.4,295.7l13.2-13.2c9,4.6,16.3,11.9,20.9,20.9l-13.2,13.2L272.4,295.7z"/>
	</g>
	<g id="ARC-3">
		<path class="st8" d="M248.5,284.9c-9.1,4.4-16.5,11.8-20.9,20.9"/>
	</g>
	<g id="LWPOLYLINE-56">
		
			<rect x="369.6" y="357.7" transform="matrix(5.738980e-02 -0.9984 0.9984 5.738980e-02 -38.177 786.7358)" class="st8" width="55.9" height="111.8"/>
	</g>
	<g id="LWPOLYLINE-57">
		<path class="st8" d="M238.5,316.6l-13.2-13.2c4.6-9,11.9-16.3,20.9-20.9l13.2,13.2L238.5,316.6z"/>
	</g>
	<g id="LWPOLYLINE-58">
		<rect x="793.6" y="240.6" class="st8" width="24.8" height="31.1"/>
	</g>
	<g id="ARC-4">
		<path class="st8" d="M227.7,340.5c4.4,9.1,11.7,16.5,20.8,20.9"/>
	</g>
	<g id="LWPOLYLINE-59">
		<path class="st8" d="M259.4,350.5l-13.1,13.2c-9-4.6-16.3-11.9-20.9-20.9l13.2-13.2L259.4,350.5z"/>
	</g>
	<g id="LWPOLYLINE-60">
		<rect x="329.3" y="207.8" class="st8" width="78.9" height="21.3"/>
	</g>
	<g id="CIRCLE">
		<path class="st8" d="M233.3,323.1c0-18,14.6-32.6,32.6-32.6c18,0,32.6,14.6,32.6,32.6c0,18-14.6,32.6-32.6,32.6c0,0,0,0,0,0
			C247.9,355.7,233.3,341.1,233.3,323.1C233.3,323.1,233.3,323.1,233.3,323.1L233.3,323.1z"/>
	</g>
	<g id="ELLIPSE-3">
		<path class="st8" d="M447.7,346.3c0.7-12.9-19.6-24.3-45.3-25.7s-47,8-47.7,20.8s19.6,24.3,45.3,25.7S447,359.1,447.7,346.3z"/>
	</g>
	<g id="CIRCLE-2">
		<path class="st8" d="M385.2,218.3c0-5.1,4.2-9.3,9.3-9.3s9.3,4.2,9.3,9.3c0,5.1-4.2,9.3-9.3,9.3
			C389.4,227.6,385.2,223.4,385.2,218.3C385.2,218.3,385.2,218.3,385.2,218.3z"/>
	</g>
	<g id="CIRCLE-3">
		<path class="st8" d="M414.2,270.8c-1,5.1-5.8,8.4-10.9,7.4c-5.1-1-8.4-5.8-7.4-10.9c1-5.1,5.8-8.4,10.9-7.4c0,0,0,0,0,0
			C411.9,260.9,415.2,265.7,414.2,270.8z"/>
	</g>
	<g id="LINE-405">
		<line class="st6" x1="443" y1="434.9" x2="445.6" y2="388.4"/>
	</g>
	<g id="LINE-406">
		<line class="st6" x1="443" y1="434.9" x2="350" y2="429.5"/>
	</g>
	<g id="LINE-407">
		<line class="st6" x1="443.2" y1="430.2" x2="350.2" y2="424.9"/>
	</g>
	<g id="LINE-408">
		<line class="st6" x1="350" y1="429.5" x2="352.6" y2="383"/>
	</g>
	<g id="LINE-409">
		<line class="st6" x1="399.1" y1="385.7" x2="396.5" y2="432.2"/>
	</g>
	<g id="LINE-410">
		<line class="st6" x1="394.5" y1="227.6" x2="394.5" y2="209"/>
	</g>
	<g id="LWPOLYLINE-61">
		<line class="st6" x1="385.2" y1="218.3" x2="403.8" y2="218.3"/>
	</g>
	<g id="LWPOLYLINE-62">
		<path class="st8" d="M817.8,392.7H697.5c-2.2-0.3-3.9-2.2-3.8-4.5V280.5c-0.1-2.2,1.6-4.1,3.8-4.2c0,0,0.1,0,0.1,0h120.4"/>
	</g>
	<g id="CIRCLE-4">
		<path class="st8" d="M798.1,412.9c0-4.3,3.5-7.8,7.8-7.8c4.3,0,7.8,3.5,7.8,7.8c0,4.3-3.5,7.8-7.8,7.8
			C801.6,420.7,798.1,417.2,798.1,412.9C798.1,412.9,798.1,412.9,798.1,412.9z"/>
	</g>
	<g id="CIRCLE-5">
		<path class="st8" d="M652.1,445.2c-1,5.1-5.8,8.4-10.9,7.4c-5.1-1-8.4-5.8-7.4-10.9c1-5.1,5.8-8.4,10.9-7.4c0,0,0,0,0,0
			C649.8,435.2,653.1,440.1,652.1,445.2z"/>
	</g>
	<g id="LINE-411">
		<line class="st6" x1="772.8" y1="276.3" x2="772.8" y2="392.7"/>
	</g>
	<g id="CIRCLE-6">
		<path class="st8" d="M798.1,256c0-4.3,3.5-7.8,7.8-7.8c4.3,0,7.8,3.5,7.8,7.8c0,4.3-3.5,7.8-7.8,7.8
			C801.6,263.8,798.1,260.3,798.1,256C798.1,256,798.1,256,798.1,256z"/>
	</g>
	<g id="LINE-412">
		<line class="st6" x1="798.1" y1="412.9" x2="813.6" y2="412.9"/>
	</g>
	<g id="LINE-413">
		<line class="st6" x1="806" y1="420.7" x2="806" y2="405.2"/>
	</g>
	<g id="LINE-414">
		<line class="st6" x1="798.1" y1="256.1" x2="813.6" y2="256.1"/>
	</g>
	<g id="LINE-415">
		<line class="st6" x1="806" y1="248.2" x2="806" y2="263.8"/>
	</g>
	<g id="LWPOLYLINE-63">
		<polyline class="st8" points="791.4,335.8 814.8,335.8 814.8,390.2 791.4,390.2 		"/>
	</g>
	<g id="LWPOLYLINE-64">
		<polyline class="st8" points="791.4,333.1 814.8,333.1 814.8,278.8 791.4,278.8 		"/>
	</g>
	<g id="LWPOLYLINE-65">
		<rect x="817.8" y="276.2" class="st8" width="6.2" height="116.4"/>
	</g>
	<g id="LINE-416">
		<line class="st6" x1="791.4" y1="276.3" x2="791.4" y2="392.7"/>
	</g>
	<g id="LWPOLYLINE-66">
		<path class="st8" d="M662.2,287.9h24.8c0.9,0,1.5,0.7,1.5,1.5v90.1c0,0.9-0.7,1.5-1.5,1.5h-24.8c-0.9,0-1.5-0.7-1.5-1.5v-90.1
			C660.7,288.6,661.4,287.9,662.2,287.9z"/>
	</g>
	<g id="LWPOLYLINE-67">
		<path class="st8" d="M348.6,276.5c-2.5-11.3,4.7-22.4,16-24.9c11.2-2.4,22.3,4.6,24.8,15.7l5.5,21.1v0c0.2,0.8-0.3,1.7-1.2,1.9
			l-39.3,8.8h0c-0.8,0.2-1.7-0.4-1.8-1.2c0,0,0,0,0,0L348.6,276.5z"/>
	</g>
	<g id="LWPOLYLINE-68">
		<path class="st8" d="M383.3,268.8l1.8,6.9c1.4,3,4.4,4.9,7.7,4.8l-3.7-14.2c-3.3-11.1-14.9-17.4-26-14.1
			c-10,3-16.3,12.9-14.7,23.2l2.7,14.5c3-1.3,4.9-4.3,4.9-7.6l-1.3-7c-1.8-7.9,3.2-15.8,11.1-17.5S381.5,261,383.3,268.8
			L383.3,268.8z"/>
	</g>
	<g id="LWPOLYLINE-69">
		<path class="st8" d="M460.4,282.3c3.5-11-2.5-22.8-13.5-26.3c-10.8-3.5-22.3,2.3-26.1,13l-7.7,20.4c-0.3,0.8,0.1,1.7,0.9,2
			c0,0,0,0,0,0h0.1l38.2,12.8c0.8,0.3,1.7-0.1,2-0.9c0,0,0,0,0-0.1l0,0L460.4,282.3z"/>
	</g>
	<g id="LWPOLYLINE-70">
		<path class="st8" d="M426.7,271.1l-2.5,6.7c-1.7,2.8-4.9,4.4-8.1,3.9l5.2-13.8c4.4-10.7,16.6-15.8,27.3-11.4
			c9.7,4,15,14.6,12.3,24.7l-4.2,14.1c-2.9-1.6-4.5-4.8-4.1-8l2-6.8c2.4-7.8-1.9-16-9.7-18.4C437.3,259.8,429.3,263.7,426.7,271.1
			L426.7,271.1z"/>
	</g>
	<g id="LWPOLYLINE-71">
		<path class="st8" d="M619.9,442.9c-8.3,8-21.5,7.8-29.6-0.5c-7.9-8.2-7.8-21.3,0.3-29.3l15-15.9l0,0c0.6-0.6,1.6-0.6,2.2,0
			c0,0,0,0,0,0L636,426l0,0c0.6,0.6,0.5,1.6-0.1,2.2L619.9,442.9z"/>
	</g>
	<g id="LWPOLYLINE-72">
		<path class="st8" d="M595.1,417.5l4.9-5.2c1.8-2.7,1.8-6.3,0-9L589.8,414c-7.7,8.6-6.9,21.8,1.7,29.5c7.8,7,19.6,7.1,27.5,0.2
			l10.9-10c-2.7-1.9-6.2-1.9-9-0.2l-5.3,4.8c-5.9,5.6-15.2,5.3-20.8-0.6C589.5,432.1,589.6,423.1,595.1,417.5L595.1,417.5z"/>
	</g>
	<g id="ARC-5">
		<path class="st8" d="M183.4,358.8c7.3,0,13.2-5.9,13.2-13.2c0-7.3-5.9-13.2-13.2-13.2"/>
	</g>
	<g id="ARC-6">
		<path class="st8" d="M183.4,369.6c7.3,0,13.2,5.9,13.2,13.2c0,7.3-5.9,13.2-13.2,13.2c0,0,0,0,0,0"/>
	</g>
	<g id="LINE-417">
		<line class="st6" x1="574" y1="429.5" x2="574" y2="401.6"/>
	</g>
	<g id="LINE-418">
		<line class="st6" x1="513.2" y1="268" x2="513.2" y2="240.1"/>
	</g>
	<g id="LINE-419">
		<line class="st6" x1="513.2" y1="423.3" x2="513.2" y2="401.6"/>
	</g>
	<g id="LINE-420">
		<line class="st6" x1="688.9" y1="36.7" x2="688.9" y2="30.5"/>
	</g>
	<g id="LINE-421">
		<line class="st6" x1="682.7" y1="75.6" x2="682.7" y2="36.7"/>
	</g>
	<g id="LINE-422">
		<line class="st6" x1="682.7" y1="75.6" x2="688.9" y2="75.6"/>
	</g>
	<g id="LINE-423">
		<line class="st6" x1="688.9" y1="30.5" x2="768" y2="30.5"/>
	</g>
</g>
<g id="KITCHEN">
	<g id="LWPOLYLINE-73">
		<polyline class="st9" points="18.9,413.1 59.2,413.1 59.2,251.3 206.7,251.3 206.7,207.8 		"/>
	</g>
	<g id="LWPOLYLINE-74">
		<rect x="121.3" y="313.4" class="st9" width="62.1" height="97.8"/>
	</g>
</g>
<g id="APPLIANCES">
	<g id="LWPOLYLINE-75">
		<rect x="162.3" y="251.5" class="st10" width="2.3" height="1.4"/>
	</g>
	<g id="LWPOLYLINE-76">
		<rect x="199.7" y="251.4" class="st10" width="2.3" height="1.6"/>
	</g>
	<rect x="161.2" y="252.8" class="st10" width="41.8" height="1.6"/>
	<g id="LINE-424">
		<line class="st5" x1="121.4" y1="337.9" x2="121.3" y2="337.9"/>
	</g>
	<g id="LINE-425">
		<line class="st5" x1="121.3" y1="330.1" x2="121.3" y2="337.9"/>
	</g>
	<g id="LINE-426">
		<line class="st5" x1="121.4" y1="330.1" x2="121.3" y2="330.1"/>
	</g>
	<g id="LINE-427">
		<line class="st5" x1="121.4" y1="352.2" x2="121.4" y2="337.9"/>
	</g>
	<g id="LINE-428">
		<line class="st5" x1="121.4" y1="330.1" x2="121.4" y2="315.8"/>
	</g>
	<g id="LINE-429">
		<line class="st11" x1="156.2" y1="352.3" x2="121.4" y2="352.3"/>
	</g>
	<g id="LINE-430">
		<line class="st11" x1="156.2" y1="315.7" x2="121.4" y2="315.7"/>
	</g>
	<g id="LINE-431">
		<line class="st11" x1="156.2" y1="315.7" x2="156.2" y2="352.3"/>
	</g>
	<g id="LINE-432">
		<line class="st5" x1="121.4" y1="394.5" x2="121.3" y2="394.5"/>
	</g>
	<g id="LINE-433">
		<line class="st5" x1="121.3" y1="386.6" x2="121.3" y2="394.5"/>
	</g>
	<g id="LINE-434">
		<line class="st5" x1="121.4" y1="386.6" x2="121.3" y2="386.6"/>
	</g>
	<g id="LINE-435">
		<line class="st5" x1="121.4" y1="408.8" x2="121.4" y2="394.5"/>
	</g>
	<g id="LINE-436">
		<line class="st5" x1="121.4" y1="386.6" x2="121.4" y2="372.4"/>
	</g>
	<g id="LINE-437">
		<line class="st11" x1="156.2" y1="408.9" x2="121.4" y2="408.9"/>
	</g>
	<g id="LINE-438">
		<line class="st11" x1="156.2" y1="372.3" x2="121.4" y2="372.3"/>
	</g>
	<g id="LINE-439">
		<line class="st5" x1="58.7" y1="372.9" x2="15.8" y2="372.9"/>
	</g>
	<g id="LINE-440">
		<line class="st11" x1="156.2" y1="372.3" x2="156.2" y2="408.9"/>
	</g>
	<g id="LWPOLYLINE-77">
		<rect x="519" y="87.3" class="st5" width="34.9" height="36.5"/>
	</g>
	<g id="LWPOLYLINE-78">
		<polyline class="st5" points="519,117.4 517.9,117.4 517.9,93.7 519,93.7 		"/>
	</g>
	<g id="LINE-441">
		<line class="st5" x1="157.1" y1="251.3" x2="157.1" y2="207.8"/>
	</g>
	<g id="LINE-442">
		<polyline class="st10" points="60.7,375 59.3,375 59.3,377.4 60.7,377.4 		"/>
	</g>
	<rect x="59.3" y="408.6" class="st10" width="1.4" height="2.3"/>
	<rect x="60.8" y="373.7" class="st10" width="1.5" height="39"/>
	<path class="st7" d="M95.1,227.2c-1.4,0-2.5-1.1-2.5-2.5c0-1.4,1.1-2.5,2.5-2.5s2.5,1.1,2.5,2.5C97.6,226.1,96.5,227.2,95.1,227.2
		L95.1,227.2z"/>
	<path class="st7" d="M113.4,227.2c-1.4,0-2.5-1.1-2.5-2.4c0-1.4,1.1-2.5,2.4-2.5c1.4,0,2.5,1.1,2.5,2.4c0,0,0,0,0,0
		C115.9,226.1,114.8,227.2,113.4,227.2z"/>
	<path class="st7" d="M95.1,243c-1.4,0-2.5-1.1-2.5-2.5c0-1.4,1.1-2.5,2.5-2.5s2.5,1.1,2.5,2.5C97.6,241.9,96.5,243,95.1,243
		L95.1,243z"/>
	<path class="st7" d="M113.4,243c-1.4,0-2.5-1.1-2.5-2.4c0-1.4,1.1-2.5,2.4-2.5c1.4,0,2.5,1.1,2.5,2.4c0,0,0,0,0,0
		C115.9,241.9,114.8,243,113.4,243z"/>
	<line class="st7" x1="104.2" y1="248.4" x2="86.1" y2="232.7"/>
	<g id="LINE-443">
		<line class="st7" x1="104.2" y1="249.2" x2="104.2" y2="216"/>
	</g>
	<rect x="86.1" y="216.8" class="st7" width="36.6" height="31.6"/>
	<line class="st7" x1="86.1" y1="232.7" x2="122.7" y2="232.7"/>
	<g id="CIRCLE-7">
		<path class="st7" d="M126.2,230.8c0-0.8,0.7-1.4,1.5-1.4c0.8,0,1.4,0.7,1.4,1.5c0,0.8-0.7,1.4-1.4,1.4
			C126.9,232.2,126.2,231.6,126.2,230.8C126.2,230.8,126.2,230.8,126.2,230.8L126.2,230.8z"/>
	</g>
	<g id="CIRCLE-8">
		<path class="st7" d="M126.2,235.5c0-0.8,0.6-1.4,1.4-1.4s1.4,0.6,1.4,1.4s-0.6,1.4-1.4,1.4l0,0
			C126.9,236.9,126.3,236.3,126.2,235.5C126.2,235.5,126.2,235.5,126.2,235.5z"/>
	</g>
	<g id="CIRCLE-9">
		<path class="st7" d="M126.2,240.3c0-0.8,0.6-1.4,1.4-1.4s1.4,0.6,1.4,1.4s-0.6,1.4-1.4,1.4l0,0
			C126.9,241.7,126.3,241.1,126.2,240.3C126.2,240.3,126.2,240.3,126.2,240.3z"/>
	</g>
	<g id="CIRCLE-10">
		<path class="st7" d="M126.2,244.9c0-0.8,0.6-1.4,1.4-1.4s1.4,0.6,1.4,1.4s-0.6,1.4-1.4,1.4l0,0
			C126.9,246.3,126.3,245.6,126.2,244.9C126.2,244.9,126.2,244.9,126.2,244.9z"/>
	</g>
	<rect x="84.8" y="216" class="st7" width="46.6" height="33.2"/>
	<line class="st7" x1="86.1" y1="248.4" x2="104.2" y2="232.7"/>
	<line class="st7" x1="122.7" y1="216.8" x2="104.2" y2="232.7"/>
	<line class="st7" x1="104.2" y1="216.8" x2="122.7" y2="232.7"/>
	<line class="st7" x1="86.1" y1="216.8" x2="104.2" y2="232.7"/>
	<line class="st7" x1="86.1" y1="232.7" x2="104.2" y2="216.8"/>
	<line class="st7" x1="122.7" y1="248.4" x2="104.2" y2="232.7"/>
	<line class="st7" x1="122.7" y1="232.7" x2="104.2" y2="248.4"/>
</g>
<g id="SINKS">
	<g id="LWPOLYLINE-79">
		<rect x="25.1" y="352.2" class="st12" width="3.1" height="1.8"/>
	</g>
	<g id="LWPOLYLINE-80">
		<polyline class="st12" points="28.1,354 28.1,354.5 25.4,354.5 25.4,354 		"/>
	</g>
	<g id="LWPOLYLINE-81">
		<polyline class="st12" points="25.4,352.2 25.4,351.7 28.1,351.7 28.1,352.2 		"/>
	</g>
	<g id="LINE-444">
		<line class="st12" x1="27.9" y1="352.2" x2="27.9" y2="354"/>
	</g>
	<g id="CIRCLE-11">
		<path class="st12" d="M25.5,340.7c0-0.6,0.5-1.2,1.2-1.2s1.2,0.5,1.2,1.2s-0.5,1.2-1.2,1.2C26.1,341.9,25.5,341.3,25.5,340.7
			C25.5,340.7,25.5,340.7,25.5,340.7z"/>
	</g>
	<g id="LWPOLYLINE-82">
		<polyline class="st12" points="28.1,347.7 28.1,348.2 25.4,348.2 25.4,345.5 28.1,345.5 28.1,346.1 		"/>
	</g>
	<g id="LWPOLYLINE-83">
		<polyline class="st12" points="28.1,341 28.1,342 25.4,342 25.4,339.3 28.1,339.3 28.1,340.4 		"/>
	</g>
	<g id="LWPOLYLINE-84">
		<polyline class="st12" points="27.8,341 29.7,341 29.7,340.4 27.8,340.4 		"/>
	</g>
	<rect x="24.5" y="328.2" class="st12" width="4.5" height="4.5"/>
	<g id="LWPOLYLINE-85">
		<rect x="25.9" y="346.1" class="st12" width="14" height="1.5"/>
	</g>
	<g id="LWPOLYLINE-86">
		<polyline class="st12" points="29.8,347.7 29.8,370.2 56.2,370.2 56.2,323.6 29.8,323.6 29.8,346.1 		"/>
	</g>
	<rect x="26.3" y="328.9" class="st12" width="0.8" height="1.2"/>
	<line class="st12" x1="26.2" y1="328.6" x2="27.3" y2="328.6"/>
	<rect x="26.1" y="330.6" class="st13" width="12.6" height="1.8"/>
	<g id="LWPOLYLINE-87">
		<rect x="376.2" y="174.9" class="st12" width="3.9" height="0.4"/>
	</g>
	<g id="LWPOLYLINE-88">
		<rect x="371.6" y="174.9" class="st12" width="3.9" height="0.4"/>
	</g>
	<g id="LWPOLYLINE-89">
		<rect x="366.9" y="174.9" class="st12" width="3.9" height="0.4"/>
	</g>
	<g id="LWPOLYLINE-90">
		<polyline class="st13" points="379.5,174.9 379.5,171 376.9,171 376.9,174.9 		"/>
	</g>
	<g id="LWPOLYLINE-91">
		<polyline class="st13" points="367.5,174.9 367.5,171 370.2,171 370.2,174.9 		"/>
	</g>
	<g id="ELLIPSE-4">
		<path class="st12" d="M360,160.5c0-5.1,6.1-9.3,13.6-9.3s13.6,4.2,13.6,9.3s-6.1,9.3-13.6,9.3S360,165.6,360,160.5L360,160.5z"/>
	</g>
	<g id="LWPOLYLINE-92">
		<path class="st12" d="M803.4,110.5V125c0,0.4-0.3,0.7-0.7,0.7h-18.5c-0.4,0-0.7-0.3-0.7-0.7V96c0-0.4,0.3-0.7,0.7-0.7h18.5
			c0.4,0,0.7,0.3,0.7,0.7L803.4,110.5z"/>
	</g>
	<g id="LWPOLYLINE-93">
		<path class="st12" d="M803.4,161.7v14.5c0,0.4-0.3,0.7-0.6,0.7c0,0,0,0,0,0h-18.5c-0.4,0-0.7-0.3-0.7-0.6c0,0,0,0,0,0v-29
			c0-0.4,0.3-0.7,0.6-0.7c0,0,0,0,0,0h18.5c0.4,0,0.7,0.3,0.7,0.6v0L803.4,161.7z"/>
	</g>
	<g id="LWPOLYLINE-94">
		<polyline class="st12" points="806.4,109.3 806.4,108.8 809.7,108.8 809.7,112.1 806.4,112.1 806.4,111.6 		"/>
	</g>
	<g id="LWPOLYLINE-95">
		<polyline class="st12" points="806.4,116.1 806.4,115 809.7,115 809.7,118.3 806.4,118.3 806.4,117.3 		"/>
	</g>
	<g id="LWPOLYLINE-96">
		<rect x="795.8" y="109.3" class="st13" width="12.4" height="2.3"/>
	</g>
	<g id="ARC-7">
		<path class="st12" d="M807,117.3c0.3,0.5,1.1,0.7,1.6,0.4c0,0,0,0,0,0c0.6-0.3,0.7-1.1,0.4-1.6s-1.1-0.7-1.6-0.4
			c-0.1,0.1-0.3,0.2-0.4,0.4"/>
	</g>
	<g id="LWPOLYLINE-97">
		<rect x="804" y="116.1" class="st12" width="4.3" height="1.2"/>
	</g>
	<g id="LWPOLYLINE-98">
		<polyline class="st12" points="806.4,160.5 806.4,160.1 809.7,160.1 809.7,163.4 806.4,163.4 806.4,162.9 		"/>
	</g>
	<g id="LWPOLYLINE-99">
		<polyline class="st12" points="806.4,167.3 806.4,166.3 809.7,166.3 809.7,169.6 806.4,169.6 806.4,168.5 		"/>
	</g>
	<g id="LWPOLYLINE-100">
		<rect x="795.8" y="160.5" class="st13" width="12.4" height="2.3"/>
	</g>
	<g id="ARC-8">
		<path class="st12" d="M807,168.5c0.3,0.6,1.1,0.7,1.6,0.4c0.6-0.3,0.7-1.1,0.4-1.6c-0.3-0.5-1.1-0.7-1.6-0.4
			c-0.1,0.1-0.3,0.2-0.4,0.4"/>
	</g>
	<g id="LWPOLYLINE-101">
		<rect x="804" y="167.3" class="st12" width="4.3" height="1.2"/>
	</g>
	<g id="LINE-445">
		<polyline class="st13" points="374.1,174.9 374.1,162.5 373,162.5 373,175.3 		"/>
	</g>
</g>
<g id="SILLS">
	<g id="LINE-446">
		<line class="st7" x1="16.8" y1="450.3" x2="777.2" y2="494"/>
	</g>
	<line class="st6" x1="18.1" y1="420.9" x2="770.2" y2="464.1"/>
</g>
<g id="WINDOW_GLAZING">
	<line class="st14" x1="695" y1="474.8" x2="756.8" y2="478.5"/>
	<line class="st14" x1="756.7" y1="480.1" x2="694.9" y2="476.4"/>
	<line class="st14" x1="586.5" y1="468.5" x2="648.3" y2="472.3"/>
	<line class="st14" x1="648.2" y1="473.9" x2="586.4" y2="470.2"/>
	<line class="st14" x1="414.6" y1="458.7" x2="476.4" y2="462.4"/>
	<line class="st14" x1="476.3" y1="464" x2="414.5" y2="460.3"/>
	<line class="st14" x1="305.8" y1="452.4" x2="367.6" y2="456.2"/>
	<line class="st14" x1="367.5" y1="457.8" x2="305.8" y2="454"/>
	<line class="st14" x1="133.9" y1="442.5" x2="195.7" y2="446.3"/>
	<line class="st14" x1="195.6" y1="447.9" x2="133.8" y2="444.2"/>
	<line class="st14" x1="25.4" y1="436.3" x2="87.2" y2="440"/>
	<line class="st14" x1="87.1" y1="441.7" x2="25.3" y2="438"/>
</g>
<g id="MULLIONS">
	<g id="LWPOLYLINE-102">
		
			<rect x="758.4" y="477.8" transform="matrix(5.738980e-02 -0.9984 0.9984 5.738980e-02 240.1834 1213.7052)" class="st6" width="8.9" height="3.7"/>
	</g>
	<g id="LWPOLYLINE-103">
		
			<rect x="684.6" y="473.6" transform="matrix(5.738980e-02 -0.9984 0.9984 5.738980e-02 174.8483 1136.0166)" class="st6" width="8.9" height="3.7"/>
	</g>
	<g id="LWPOLYLINE-104">
		
			<rect x="757.6" y="477.4" transform="matrix(5.738980e-02 -0.9984 0.9984 5.738980e-02 236.7528 1209.6232)" class="st6" width="2.7" height="4.1"/>
	</g>
	<g id="LWPOLYLINE-105">
		
			<rect x="691.5" y="473.6" transform="matrix(5.738980e-02 -0.9984 0.9984 5.738980e-02 178.2701 1140.088)" class="st6" width="2.7" height="4.1"/>
	</g>
	<g id="LINE-447">
		<line class="st6" x1="690.6" y1="480" x2="760.7" y2="484"/>
	</g>
	<g id="LINE-448">
		<line class="st6" x1="761.2" y1="475.1" x2="691.1" y2="471"/>
	</g>
	<g id="LWPOLYLINE-106">
		
			<rect x="649.8" y="471.6" transform="matrix(5.738980e-02 -0.9984 0.9984 5.738980e-02 144.0706 1099.4344)" class="st6" width="8.9" height="3.7"/>
	</g>
	<g id="LWPOLYLINE-107">
		
			<rect x="576" y="467.3" transform="matrix(5.738980e-02 -0.9984 0.9984 5.738980e-02 78.726 1021.7359)" class="st6" width="8.9" height="3.7"/>
	</g>
	<g id="LWPOLYLINE-108">
		
			<rect x="649" y="471.2" transform="matrix(5.738980e-02 -0.9984 0.9984 5.738980e-02 140.6393 1095.353)" class="st6" width="2.7" height="4.1"/>
	</g>
	<g id="LWPOLYLINE-109">
		
			<rect x="583" y="467.4" transform="matrix(5.738980e-02 -0.9984 0.9984 5.738980e-02 82.1566 1025.8179)" class="st6" width="2.7" height="4.1"/>
	</g>
	<g id="LINE-449">
		<line class="st6" x1="582" y1="473.7" x2="652.2" y2="477.8"/>
	</g>
	<g id="LINE-450">
		<line class="st6" x1="652.7" y1="468.9" x2="582.5" y2="464.8"/>
	</g>
	<g id="LWPOLYLINE-110">
		
			<rect x="477.9" y="461.7" transform="matrix(5.738980e-02 -0.9984 0.9984 5.738980e-02 -8.0688 918.5179)" class="st6" width="8.9" height="3.7"/>
	</g>
	<g id="LWPOLYLINE-111">
		
			<rect x="404.1" y="457.4" transform="matrix(5.738980e-02 -0.9984 0.9984 5.738980e-02 -73.4227 840.8081)" class="st6" width="8.9" height="3.7"/>
	</g>
	<g id="LWPOLYLINE-112">
		
			<rect x="477.1" y="461.3" transform="matrix(5.738980e-02 -0.9984 0.9984 5.738980e-02 -11.4994 914.4358)" class="st6" width="2.7" height="4.1"/>
	</g>
	<g id="LWPOLYLINE-113">
		
			<rect x="411.1" y="457.5" transform="matrix(5.738980e-02 -0.9984 0.9984 5.738980e-02 -69.9921 844.8901)" class="st6" width="2.7" height="4.1"/>
	</g>
	<g id="LINE-451">
		<line class="st6" x1="410.1" y1="463.9" x2="480.3" y2="467.9"/>
	</g>
	<g id="LINE-452">
		<line class="st6" x1="480.8" y1="459" x2="410.6" y2="454.9"/>
	</g>
	<g id="LWPOLYLINE-114">
		
			<rect x="369.2" y="455.4" transform="matrix(5.738980e-02 -0.9984 0.9984 5.738980e-02 -104.3509 804.0674)" class="st6" width="8.9" height="3.7"/>
	</g>
	<g id="LWPOLYLINE-115">
		
			<rect x="295.4" y="451.2" transform="matrix(5.738980e-02 -0.9984 0.9984 5.738980e-02 -169.6965 726.3876)" class="st6" width="8.9" height="3.7"/>
	</g>
	<g id="LWPOLYLINE-116">
		
			<rect x="368.4" y="455" transform="matrix(5.738980e-02 -0.9984 0.9984 5.738980e-02 -107.7727 799.9959)" class="st6" width="2.7" height="4.1"/>
	</g>
	<g id="LWPOLYLINE-117">
		
			<rect x="302.3" y="451.2" transform="matrix(5.738980e-02 -0.9984 0.9984 5.738980e-02 -166.2559 730.4602)" class="st6" width="2.7" height="4.1"/>
	</g>
	<g id="LINE-453">
		<line class="st6" x1="301.4" y1="457.6" x2="371.5" y2="461.6"/>
	</g>
	<g id="LINE-454">
		<line class="st6" x1="372" y1="452.7" x2="301.9" y2="448.7"/>
	</g>
	<g id="LWPOLYLINE-118">
		
			<rect x="197.2" y="445.6" transform="matrix(5.738980e-02 -0.9984 0.9984 5.738980e-02 -256.5809 623.0745)" class="st6" width="8.9" height="3.7"/>
	</g>
	<g id="LWPOLYLINE-119">
		
			<rect x="123.4" y="441.3" transform="matrix(5.738980e-02 -0.9984 0.9984 5.738980e-02 -321.9353 545.3841)" class="st6" width="8.9" height="3.7"/>
	</g>
	<g id="LWPOLYLINE-120">
		
			<rect x="196.4" y="445.1" transform="matrix(5.738980e-02 -0.9984 0.9984 5.738980e-02 -260.0115 618.9923)" class="st6" width="2.7" height="4.1"/>
	</g>
	<g id="LWPOLYLINE-121">
		
			<rect x="130.4" y="441.4" transform="matrix(5.738980e-02 -0.9984 0.9984 5.738980e-02 -318.4947 549.4567)" class="st6" width="2.7" height="4.1"/>
	</g>
	<g id="LINE-455">
		<line class="st6" x1="129.4" y1="447.7" x2="199.6" y2="451.8"/>
	</g>
	<g id="LINE-456">
		<line class="st6" x1="200.1" y1="442.8" x2="129.9" y2="438.8"/>
	</g>
	<g id="LWPOLYLINE-122">
		
			<rect x="88.8" y="439.3" transform="matrix(5.738980e-02 -0.9984 0.9984 5.738980e-02 -352.595 508.9311)" class="st6" width="8.9" height="3.7"/>
	</g>
	<g id="LWPOLYLINE-123">
		
			<rect x="14.9" y="435.1" transform="matrix(5.738980e-02 -0.9984 0.9984 5.738980e-02 -417.9494 431.2408)" class="st6" width="8.9" height="3.7"/>
	</g>
	<g id="LWPOLYLINE-124">
		
			<rect x="88" y="438.9" transform="matrix(5.738980e-02 -0.9984 0.9984 5.738980e-02 -356.0255 504.849)" class="st6" width="2.7" height="4.1"/>
	</g>
	<g id="LWPOLYLINE-125">
		
			<rect x="21.9" y="435.1" transform="matrix(5.738980e-02 -0.9984 0.9984 5.738980e-02 -414.5188 435.3228)" class="st6" width="2.7" height="4.1"/>
	</g>
	<g id="LINE-457">
		<line class="st6" x1="21" y1="441.5" x2="91.1" y2="445.5"/>
	</g>
	<g id="LINE-458">
		<line class="st6" x1="91.6" y1="436.6" x2="21.5" y2="432.6"/>
	</g>
</g>
<g id="DOOR_SWING">
	<g id="ARC-9">
		<path class="st5" d="M513.4,282c0,29.2,23.6,52.8,52.8,52.8c0,0,0,0,0,0"/>
	</g>
	<g id="ARC-10">
		<path class="st5" d="M566.2,334.8c-29.1,0-52.8,23.6-52.8,52.8v0"/>
	</g>
</g>
<g id="DOOR_SWING_MAIN">
	<g id="ARC-11">
		<path class="st9" d="M476,45.7c0,13.6-4.9,26.7-13.9,36.9l-2.5,2.2"/>
	</g>
</g>
<g id="DOORS">
	<g id="LINE-459">
		<line class="st9" x1="675.1" y1="121.1" x2="677.8" y2="121.1"/>
	</g>
	<g id="LINE-460">
		<line class="st9" x1="677.8" y1="121.1" x2="677.8" y2="68.3"/>
	</g>
	<g id="LINE-461">
		<line class="st9" x1="677.8" y1="68.3" x2="675.1" y2="68.3"/>
	</g>
	<g id="LINE-462">
		<line class="st9" x1="675.1" y1="68.3" x2="675.1" y2="121.1"/>
	</g>
	<g id="LWPOLYLINE-126">
		
			<rect x="439.5" y="36.2" transform="matrix(0.7071 -0.7071 0.7071 0.7071 83.7472 330.3848)" class="st15" width="2.3" height="55.9"/>
	</g>
	<g id="LINE-463">
		<rect x="631.7" y="229.4" class="st15" width="52.8" height="2.7"/>
	</g>
	<g id="LWPOLYLINE-127">
		<polygon class="st15" points="566.1,284.4 566.2,282 513.4,282 513.3,284.4 		"/>
	</g>
	<g id="LWPOLYLINE-128">
		<polygon class="st15" points="566.1,385.3 566.2,387.6 513.4,387.6 513.3,385.3 		"/>
	</g>
	<g id="LWPOLYLINE-129">
		<polygon class="st15" points="506.4,190.6 504,190.7 504.1,144.1 506.5,144 		"/>
	</g>
	<g id="LWPOLYLINE-130">
		<polygon class="st15" points="506.2,82 503.9,81.9 503.9,128.5 506.3,128.6 		"/>
	</g>
	<g id="LINE-464">
		<line class="st9" x1="678.6" y1="91.1" x2="678.6" y2="37.5"/>
	</g>
	<g id="LINE-465">
		<line class="st9" x1="678.6" y1="37.5" x2="674.3" y2="37.5"/>
	</g>
	<g id="LINE-466">
		<line class="st9" x1="674.3" y1="37.5" x2="674.3" y2="91.1"/>
	</g>
	<g id="LINE-467">
		<line class="st9" x1="657.8" y1="232.9" x2="712.2" y2="232.9"/>
	</g>
	<g id="LINE-468">
		<line class="st9" x1="712.2" y1="232.9" x2="712.2" y2="228.7"/>
	</g>
	<g id="LINE-469">
		<line class="st9" x1="712.2" y1="228.7" x2="657.8" y2="228.7"/>
	</g>
	<g id="LINE-470">
		<line class="st9" x1="406.3" y1="117.3" x2="409" y2="117.3"/>
	</g>
	<g id="LINE-471">
		<line class="st9" x1="409" y1="117.3" x2="409" y2="171.3"/>
	</g>
	<g id="LINE-472">
		<line class="st9" x1="409" y1="171.3" x2="406.3" y2="171.3"/>
	</g>
	<g id="LINE-473">
		<line class="st9" x1="406.3" y1="171.3" x2="406.3" y2="117.3"/>
	</g>
	<g id="LINE-474">
		<line class="st9" x1="409.8" y1="146.6" x2="409.8" y2="202.5"/>
	</g>
	<g id="LINE-475">
		<line class="st9" x1="409.8" y1="202.5" x2="405.5" y2="202.5"/>
	</g>
	<g id="LINE-476">
		<line class="st9" x1="405.5" y1="202.5" x2="405.5" y2="146.6"/>
	</g>
</g>
<g id="WALLS">
	<g id="LWPOLYLINE-131">
		<polygon class="st16" points="682.7,91.1 682.7,84.9 688.9,84.9 688.9,75.6 688.9,36.7 688.9,30.5 775.8,30.5 775.8,84.9 
			820.8,84.9 820.8,187.3 778.9,187.3 778.9,224.6 682.7,224.6 682.7,143.9 664,143.9 664,224.6 657.8,224.6 657.8,228.7 
			712.2,228.7 712.2,232.9 657.8,232.9 657.8,237 823.9,237 823.9,423.4 823.9,438.1 791.2,436.2 790.7,443.9 766.7,442.6 
			763.8,493.1 833.2,497.1 833.2,21.2 507,21.2 507,36.3 476,36.3 476,45.7 503.9,45.7 503.9,81.8 511.7,81.8 511.7,78.7 
			561.5,78.7 561.5,131.4 511.7,131.4 511.7,128.3 503.9,128.3 503.9,144.1 511.7,144.1 511.7,139.2 561.5,139.2 561.5,199.8 
			511.7,199.8 511.6,190.7 503.9,190.7 503.9,195.4 499.2,195.4 499.2,207.8 513.2,207.8 513.2,240.1 531.9,240.1 531.9,268 
			513.2,268 513.2,275.8 566.2,275.8 566.2,282 574,282 574,237 603.5,237 603.5,224.6 574,224.6 574,30.5 664,30.5 664,91.1 
			674.3,91.1 674.3,37.5 678.6,37.5 678.6,91.1 		"/>
	</g>
	<g id="LWPOLYLINE-132">
		<polygon class="st16" points="409.8,146.6 409.8,202.5 405.5,202.5 405.5,146.6 401.5,146.6 401.5,183.8 389,183.8 389,176.9 
			392.2,176.9 392.2,175.3 354.9,175.3 354.9,176.9 358,176.9 358,183.8 345.6,183.8 345.6,41 401.5,41 401.5,92.2 413.9,92.2 
			413.9,45.7 420.1,45.7 420.1,36.3 413.9,36.3 413.9,24.2 336.3,24.2 336.3,200.6 0.2,200.6 0.2,449.2 16.8,450.1 18.9,412.9 
			15.8,412.7 15.8,207.8 206.7,207.8 206.7,251.3 214.5,251.3 214.5,259 222.3,259 222.3,207.8 418.5,207.8 418.5,195.4 
			413.9,195.4 413.9,146.6 		"/>
	</g>
	<g id="LWPOLYLINE-133">
		<polygon class="st16" points="531.9,423.3 513.2,423.3 513.2,427.8 486.2,426.6 483.3,476.9 493.3,477.5 493.3,477.5 577.8,482.4 
			580.7,431.7 574,431.3 574,429.5 546,429.5 546,401.6 574,401.6 574,387.6 566.2,387.6 566.2,393.8 513.2,393.8 513.2,401.6 
			531.9,401.6 		"/>
	</g>
	<g id="LWPOLYLINE-134">
		<polygon class="st16" points="656.9,458.9 687.9,460.7 686.8,479.8 683.7,479.6 683.2,488.5 658.4,487 658.9,478.1 655.8,478 		
			"/>
	</g>
	<g id="LWPOLYLINE-135">
		<polygon class="st16" points="212.8,461.4 297.3,466.2 300.2,415.8 262.8,413.6 263.3,406.1 222.3,403.3 222.3,397.2 214.5,397.2 
			214.5,410.9 205.6,410.6 202.7,460.8 212.8,461.4 		"/>
	</g>
	<g id="LWPOLYLINE-136">
		<polygon class="st16" points="376.4,442.8 407.4,444.6 406.3,463.6 403.2,463.5 402.7,472.3 377.9,470.9 378.4,462 375.3,461.9 		
			"/>
	</g>
	<g id="LWPOLYLINE-137">
		<polygon class="st16" points="94.8,445.7 97.8,445.9 97.3,454.8 122.1,456.2 122.6,447.3 125.8,447.5 126.8,428.5 95.8,426.7 		
			"/>
	</g>
</g>
<g id="LIVE">
	<g id="MTEXT">
		<g class="st17">
			<path class="st18" d="M138,387.1l1.4,5.1l1.3-5.1h0.8l-1.7,6.4H139l-1.3-5l-1.4,5h-0.7l-1.7-6.4h0.8l1.3,5.1l1.4-5.1H138z"/>
			<path class="st18" d="M143.2,390.8v2.7h-0.8v-6.4h2.4c1.3,0,2.1,0.6,2.1,1.9c0,1.1-0.6,1.7-1.6,1.8l1.9,2.7h-0.9l-1.8-2.7H143.2z
				 M143.2,390.1h1.5c0.8,0,1.3-0.4,1.3-1.1c0-0.7-0.5-1.1-1.3-1.1h-1.5V390.1z"/>
		</g>
	</g>
	<g id="MTEXT-2">
		<g class="st17">
			<path class="st18" d="M177.9,229.5v2.7h-0.8v-6.4h2.4c1.3,0,2.1,0.6,2.1,1.9c0,1.1-0.6,1.7-1.6,1.8l1.9,2.7h-0.9l-1.8-2.7H177.9z
				 M177.9,228.8h1.5c0.8,0,1.3-0.4,1.3-1.1c0-0.7-0.5-1.1-1.3-1.1h-1.5V228.8z"/>
			<path class="st18" d="M184.7,225.4h0.8l-2.6,7.6h-0.8L184.7,225.4z"/>
			<path class="st18" d="M186.3,232.2v-6.4h3.9v0.7h-3.1v2.2h2.9v0.7h-2.9v2.8H186.3z"/>
		</g>
	</g>
	<g id="MTEXT-3">
		<g class="st17">
			<path class="st18" d="M31.7,389.9h2c1.9,0,3.1,1.2,3.1,3.2c0,1.9-1.2,3.2-3.1,3.2h-2V389.9z M33.7,395.6c1.4,0,2.3-1,2.3-2.5
				c0-1.5-0.9-2.5-2.3-2.5h-1.2v4.9H33.7z"/>
		</g>
		<g class="st17">
			<path class="st18" d="M41.5,389.9l1.4,5.1l1.3-5.1H45l-1.7,6.4h-0.7l-1.3-5l-1.4,5h-0.7l-1.7-6.4h0.8l1.3,5.1l1.4-5.1H41.5z"/>
		</g>
	</g>
	<g id="MTEXT-4">
		<g class="st17">
			<path class="st18" d="M533,102.2l1.4,5.1l1.3-5.1h0.8l-1.7,6.4H534l-1.3-5l-1.4,5h-0.7l-1.7-6.4h0.8l1.3,5.1l1.4-5.1H533z"/>
		</g>
		<g class="st17">
			<path class="st18" d="M539.1,101.8h0.8l-2.6,7.6h-0.8L539.1,101.8z"/>
			<path class="st18" d="M540.7,102.2h2c1.9,0,3.1,1.2,3.1,3.2c0,1.9-1.2,3.2-3.1,3.2h-2V102.2z M542.8,107.8c1.4,0,2.3-1,2.3-2.5
				c0-1.5-0.9-2.5-2.3-2.5h-1.2v4.9H542.8z"/>
		</g>
	</g>
	<g id="MTEXT-5">
		<g class="st17">
			<path class="st18" d="M441.4,2v0.7h-3.3v2h3v0.7h-3v2.2h3.3v0.7h-4.1V2H441.4z"/>
			<path class="st18" d="M447.7,8.4h-0.6l-3.6-5.1v5.1h-0.8V2h0.8l3.4,4.9V2h0.8V8.4z"/>
			<path class="st18" d="M448.7,2h5.3v0.7h-2.2v5.7H451V2.7h-2.2V2z"/>
		</g>
		<g class="st17">
			<path class="st18" d="M455.9,5.7v2.7h-0.8V2h2.4c1.3,0,2.1,0.6,2.1,1.9c0,1.1-0.6,1.7-1.6,1.8l1.9,2.7h-0.9L457,5.7H455.9z
				 M455.9,5h1.5c0.8,0,1.3-0.4,1.3-1.1c0-0.7-0.5-1.1-1.3-1.1h-1.5V5z"/>
		</g>
		<g class="st17">
			<path class="st18" d="M464.7,2h0.9l-2.3,3.8v2.6h-0.8V5.8L460.1,2h0.9l1.8,3L464.7,2z"/>
		</g>
	</g>
	<polygon class="st18" points="451.5,28.4 458.6,16.2 444.4,16.2 444.4,16.2 	"/>
	<g class="st17">
		<path class="st18" d="M657.4,329.1l-2-4.9v4.9h-0.8v-6.4h0.9l2.2,5.2l2.2-5.2h0.9v6.4H660v-4.9l-2,4.9H657.4z"/>
	</g>
	<g class="st17">
		<path class="st18" d="M665,322.7l2.5,6.4h-0.8l-0.7-1.9h-2.6l-0.7,1.9h-0.8l2.5-6.4H665z M663.6,326.5h2.1l-1-2.7L663.6,326.5z"/>
	</g>
	<g class="st17">
		<path class="st18" d="M668.7,327.4c0.2,0.7,0.8,1.1,1.6,1.1c0.8,0,1.4-0.4,1.4-1.1c0-0.5-0.3-0.8-1-1l-1.1-0.3
			c-0.9-0.2-1.5-0.7-1.5-1.6c0-1.1,0.9-1.8,2.1-1.8c1.3,0,2.1,0.7,2.3,1.7h-0.8c-0.2-0.6-0.7-1-1.5-1c-0.8,0-1.3,0.4-1.3,1.1
			c0,0.5,0.4,0.8,1,1l1.1,0.3c1,0.3,1.6,0.8,1.6,1.7c0,1.2-0.9,1.9-2.2,1.9s-2.2-0.6-2.5-1.8H668.7z"/>
	</g>
	<g class="st17">
		<path class="st18" d="M673.2,322.7h5.3v0.7h-2.2v5.7h-0.8v-5.7h-2.2V322.7z"/>
		<path class="st18" d="M683.6,322.7v0.7h-3.3v2h3v0.7h-3v2.2h3.3v0.7h-4.1v-6.4H683.6z"/>
		<path class="st18" d="M685.7,326.4v2.7h-0.8v-6.4h2.4c1.3,0,2.1,0.6,2.1,1.9c0,1.1-0.6,1.7-1.6,1.8l1.9,2.7h-0.9l-1.8-2.7H685.7z
			 M685.7,325.7h1.5c0.8,0,1.3-0.4,1.3-1.1c0-0.7-0.5-1.1-1.3-1.1h-1.5V325.7z"/>
		<path class="st18" d="M697.3,327.3c0,1.2-0.8,1.8-2.1,1.8h-2.3v-6.4h2.1c1.3,0,2.1,0.6,2.1,1.7c0,0.8-0.4,1.2-0.9,1.4
			C696.9,326,697.3,326.6,697.3,327.3z M695,325.5c0.9,0,1.3-0.3,1.3-1s-0.5-1-1.3-1h-1.3v2.1H695z M693.7,328.4h1.5
			c0.9,0,1.3-0.4,1.3-1.1c0-0.7-0.5-1.1-1.3-1.1h-1.5V328.4z"/>
		<path class="st18" d="M702.6,322.7v0.7h-3.3v2h3v0.7h-3v2.2h3.3v0.7h-4.1v-6.4H702.6z"/>
		<path class="st18" d="M703.8,322.7h2c1.9,0,3.1,1.2,3.1,3.2c0,1.9-1.2,3.2-3.1,3.2h-2V322.7z M705.9,328.4c1.4,0,2.3-1,2.3-2.5
			c0-1.5-0.9-2.5-2.3-2.5h-1.2v4.9H705.9z"/>
	</g>
	<g class="st17">
		<path class="st18" d="M711,326.4v2.7h-0.8v-6.4h2.4c1.3,0,2.1,0.6,2.1,1.9c0,1.1-0.6,1.7-1.6,1.8l1.9,2.7h-0.9l-1.8-2.7H711z
			 M711,325.7h1.5c0.8,0,1.3-0.4,1.3-1.1c0-0.7-0.5-1.1-1.3-1.1H711V325.7z"/>
	</g>
	<g class="st17">
		<path class="st18" d="M718.4,329.2c-1.7,0-2.9-1.4-2.9-3.3c0-1.9,1.2-3.3,2.9-3.3c1.7,0,2.9,1.4,2.9,3.3
			C721.3,327.8,720,329.2,718.4,329.2z M718.4,323.4c-1.2,0-2.1,1.1-2.1,2.5c0,1.5,0.8,2.5,2.1,2.5c1.2,0,2.1-1.1,2.1-2.5
			C720.4,324.4,719.6,323.4,718.4,323.4z"/>
	</g>
	<g class="st17">
		<path class="st18" d="M725,329.2c-1.7,0-2.9-1.4-2.9-3.3c0-1.9,1.2-3.3,2.9-3.3c1.7,0,2.9,1.4,2.9,3.3
			C727.9,327.8,726.6,329.2,725,329.2z M725,323.4c-1.2,0-2.1,1.1-2.1,2.5c0,1.5,0.8,2.5,2.1,2.5c1.2,0,2.1-1.1,2.1-2.5
			C727,324.4,726.2,323.4,725,323.4z"/>
		<path class="st18" d="M731.8,329.1l-2-4.9v4.9H729v-6.4h0.9l2.2,5.2l2.2-5.2h0.9v6.4h-0.8v-4.9l-2,4.9H731.8z"/>
	</g>
	<g class="st17">
		<path class="st18" d="M672.1,340.3h-0.8v-5.4l-1.6,0.8v-0.8l1.9-1h0.5V340.3z"/>
	</g>
	<g class="st17">
		<path class="st18" d="M674.8,336.7h0.4c0.7,0,1.2-0.4,1.2-1.1c0-0.6-0.4-1.1-1.2-1.1c-0.7,0-1.2,0.5-1.3,1.1h-0.8
			c0.2-1.1,0.9-1.8,2.1-1.8c1.2,0,1.9,0.7,1.9,1.7c0,0.7-0.4,1.3-1,1.5c0.7,0.2,1.1,0.8,1.1,1.5c0,1.1-0.8,1.9-2,1.9
			c-1.2,0-2.1-0.8-2.2-1.9h0.8c0.1,0.7,0.6,1.2,1.4,1.2c0.8,0,1.3-0.5,1.3-1.2c0-0.7-0.6-1.1-1.3-1.1h-0.4V336.7z"/>
	</g>
	<g class="st17">
		<path class="st18" d="M678.6,334.9c-0.3,0-0.5-0.2-0.5-0.5c0-0.3,0.2-0.6,0.6-0.6s0.6,0.2,0.6,0.6c0,0.2-0.1,0.4-0.2,0.7l-0.5,0.9
			H678L678.6,334.9z"/>
	</g>
	<g class="st17">
		<path class="st18" d="M679.9,337.2h2.5v0.7h-2.5V337.2z"/>
	</g>
	<g class="st17">
		<path class="st18" d="M684.2,337.4h-0.6v-3.5h3.5v0.7h-2.8v1.9c0.2-0.2,0.6-0.4,1.2-0.4c1.2,0,2,0.9,2,2.1c0,1.2-0.9,2.1-2.1,2.1
			c-1.2,0-2-0.7-2.2-1.9h0.8c0.1,0.7,0.6,1.2,1.4,1.2c0.8,0,1.3-0.6,1.3-1.4c0-0.8-0.5-1.4-1.3-1.4
			C684.8,336.9,684.5,337.1,684.2,337.4z"/>
	</g>
	<g class="st17">
		<path class="st18" d="M688.1,333.9h0.7v2.3h-0.7V333.9z M689.3,333.9h0.7v2.3h-0.7V333.9z"/>
		<path class="st18" d="M695.5,337.9l1.7,2.4h-0.9l-1.3-1.8l-1.3,1.8h-0.8l1.7-2.4l-1.6-2.3h0.9l1.2,1.7l1.2-1.7h0.9L695.5,337.9z"
			/>
	</g>
	<g class="st17">
		<path class="st18" d="M702.3,340.3h-0.8v-5.4l-1.6,0.8v-0.8l1.9-1h0.5V340.3z"/>
		<path class="st18" d="M705.5,334.5c-0.8,0-1.2,0.5-1.2,1.3h-0.8c0.1-1.2,0.9-2,2.1-2c1.2,0,1.9,0.7,1.9,1.8c0,0.8-0.6,1.4-1.3,2.2
			l-1.6,1.8h3v0.7h-4.2v-0.5l2.1-2.3c0.7-0.7,1.2-1.3,1.2-1.9C706.7,335,706.2,334.5,705.5,334.5z"/>
	</g>
	<g class="st17">
		<path class="st18" d="M708.3,333.9h0.7v2.3h-0.7V333.9z"/>
	</g>
	<g class="st17">
		<path class="st18" d="M709.9,337.2h2.5v0.7h-2.5V337.2z"/>
	</g>
	<g class="st17">
		<path class="st18" d="M713.3,337.1c0-1.9,1-3.3,2.4-3.3s2.4,1.3,2.4,3.3c0,1.9-1,3.3-2.4,3.3S713.3,339,713.3,337.1z M714.1,337.1
			c0,1.5,0.5,2.5,1.6,2.5c1,0,1.6-1.1,1.6-2.5c0-1.5-0.6-2.5-1.6-2.5C714.7,334.5,714.1,335.6,714.1,337.1z"/>
		<path class="st18" d="M718.9,333.9h0.7v2.3h-0.7V333.9z M720.2,333.9h0.7v2.3h-0.7V333.9z"/>
	</g>
	<g class="st17">
		<path class="st18" d="M375.6,338.8v-0.7h2.3v0.4c0,1.7-1.1,2.8-2.6,2.8c-1.7,0-2.9-1.3-2.9-3.3s1.3-3.3,2.9-3.3
			c1.4,0,2.3,0.8,2.5,2H377c-0.3-0.7-0.8-1.2-1.7-1.2c-1.2,0-2.1,1-2.1,2.5c0,1.5,0.8,2.6,2.1,2.6c1.1,0,1.8-0.7,1.9-1.8H375.6z"/>
		<path class="st18" d="M379.9,338.6v2.7h-0.8v-6.4h2.4c1.3,0,2.1,0.6,2.1,1.9c0,1.1-0.6,1.7-1.6,1.8l1.9,2.7h-0.9l-1.8-2.7H379.9z
			 M379.9,337.9h1.5c0.8,0,1.3-0.4,1.3-1.1c0-0.7-0.5-1.1-1.3-1.1h-1.5V337.9z"/>
		<path class="st18" d="M388.9,334.9v0.7h-3.3v2h3v0.7h-3v2.2h3.3v0.7h-4.1v-6.4H388.9z"/>
	</g>
	<g class="st17">
		<path class="st18" d="M392.9,334.9l2.5,6.4h-0.8l-0.7-1.9h-2.6l-0.7,1.9h-0.8l2.5-6.4H392.9z M391.5,338.6h2.1l-1-2.7L391.5,338.6
			z"/>
	</g>
	<g class="st17">
		<path class="st18" d="M395.3,334.9h5.3v0.7h-2.2v5.7h-0.8v-5.7h-2.2V334.9z"/>
	</g>
	<g class="st17">
		<path class="st18" d="M404.8,338.6v2.7H404v-6.4h2.4c1.3,0,2.1,0.6,2.1,1.9c0,1.1-0.6,1.7-1.6,1.8l1.9,2.7h-0.9l-1.8-2.7H404.8z
			 M404.8,337.9h1.5c0.8,0,1.3-0.4,1.3-1.1c0-0.7-0.5-1.1-1.3-1.1h-1.5V337.9z"/>
	</g>
	<g class="st17">
		<path class="st18" d="M412.2,341.4c-1.7,0-2.9-1.4-2.9-3.3c0-1.9,1.2-3.3,2.9-3.3c1.7,0,2.9,1.4,2.9,3.3
			C415.1,340,413.9,341.4,412.2,341.4z M412.2,335.5c-1.2,0-2.1,1.1-2.1,2.5c0,1.5,0.8,2.5,2.1,2.5c1.2,0,2.1-1.1,2.1-2.5
			C414.3,336.6,413.4,335.5,412.2,335.5z"/>
	</g>
	<g class="st17">
		<path class="st18" d="M418.8,341.4c-1.7,0-2.9-1.4-2.9-3.3c0-1.9,1.2-3.3,2.9-3.3c1.7,0,2.9,1.4,2.9,3.3
			C421.7,340,420.5,341.4,418.8,341.4z M418.8,335.5c-1.2,0-2.1,1.1-2.1,2.5c0,1.5,0.8,2.5,2.1,2.5c1.2,0,2.1-1.1,2.1-2.5
			C420.9,336.6,420,335.5,418.8,335.5z"/>
		<path class="st18" d="M425.6,341.3l-2-4.9v4.9h-0.8v-6.4h0.9l2.2,5.2l2.2-5.2h0.9v6.4h-0.8v-4.9l-2,4.9H425.6z"/>
	</g>
	<g class="st17">
		<path class="st18" d="M378.3,346.7c-0.8,0-1.2,0.5-1.2,1.3h-0.8c0.1-1.2,0.9-2,2.1-2c1.2,0,1.9,0.7,1.9,1.8c0,0.8-0.6,1.4-1.3,2.2
			l-1.6,1.8h3v0.7h-4.2v-0.5l2.1-2.3c0.7-0.7,1.2-1.3,1.2-1.9C379.4,347.1,379,346.7,378.3,346.7z"/>
	</g>
	<g class="st17">
		<path class="st18" d="M381.6,350.3h2v-1.5h0.8v1.5h1.1v0.7h-1.1v1.4h-0.8V351h-2.9v-0.6l2.5-4.4h0.8L381.6,350.3z"/>
	</g>
	<g class="st17">
		<path class="st18" d="M386.5,347.1c-0.3,0-0.5-0.2-0.5-0.5c0-0.3,0.2-0.6,0.6-0.6c0.3,0,0.6,0.2,0.6,0.6c0,0.2-0.1,0.4-0.2,0.7
			l-0.5,0.9h-0.5L386.5,347.1z"/>
	</g>
	<g class="st17">
		<path class="st18" d="M387.8,349.4h2.5v0.7h-2.5V349.4z"/>
	</g>
	<g class="st17">
		<path class="st18" d="M391.9,350.3h2v-1.5h0.8v1.5h1.1v0.7h-1.1v1.4h-0.8V351H391v-0.6l2.5-4.4h0.8L391.9,350.3z"/>
	</g>
	<g class="st17">
		<path class="st18" d="M395.9,346.1h0.7v2.3h-0.7V346.1z M397.2,346.1h0.7v2.3h-0.7V346.1z"/>
		<path class="st18" d="M403.3,350.1l1.7,2.4h-0.9l-1.3-1.8l-1.3,1.8h-0.8l1.7-2.4l-1.6-2.3h0.9l1.2,1.7l1.2-1.7h0.9L403.3,350.1z"
			/>
	</g>
	<g class="st17">
		<path class="st18" d="M410.2,352.5h-0.8v-5.4l-1.6,0.8V347l1.9-1h0.5V352.5z"/>
		<path class="st18" d="M413.4,346.7c-0.8,0-1.2,0.5-1.2,1.3h-0.8c0.1-1.2,0.9-2,2.1-2c1.2,0,1.9,0.7,1.9,1.8c0,0.8-0.6,1.4-1.3,2.2
			l-1.6,1.8h3v0.7h-4.2v-0.5l2.1-2.3c0.7-0.7,1.2-1.3,1.2-1.9C414.5,347.1,414.1,346.7,413.4,346.7z"/>
	</g>
	<g class="st17">
		<path class="st18" d="M416.2,346.1h0.7v2.3h-0.7V346.1z"/>
	</g>
	<g class="st17">
		<path class="st18" d="M417.7,349.4h2.5v0.7h-2.5V349.4z"/>
	</g>
	<g class="st17">
		<path class="st18" d="M424.8,347.6c-0.2-0.5-0.5-0.9-1.2-0.9c-0.9,0-1.6,1.1-1.6,2.4c0,0.1,0,0.2,0,0.3c0.2-0.6,0.9-1.1,1.6-1.1
			c1.2,0,2.1,1,2.1,2.1c0,1.2-0.8,2.1-2.1,2.1c-0.8,0-1.5-0.4-1.9-1.2c-0.3-0.6-0.4-1.2-0.4-2c0-2.1,1-3.4,2.3-3.4
			c1.1,0,1.7,0.6,2,1.6H424.8z M423.5,351.9c0.8,0,1.4-0.6,1.4-1.4c0-0.9-0.6-1.5-1.4-1.5c-0.8,0-1.4,0.6-1.4,1.5
			C422.2,351.3,422.7,351.9,423.5,351.9z"/>
	</g>
	<g class="st17">
		<path class="st18" d="M426.4,346.1h0.7v2.3h-0.7V346.1z M427.6,346.1h0.7v2.3h-0.7V346.1z"/>
	</g>
	<g class="st17">
		<path class="st18" d="M136.3,328.7c0.2,0.7,0.8,1.1,1.6,1.1c0.8,0,1.4-0.4,1.4-1.1c0-0.5-0.3-0.8-1-1l-1.1-0.3
			c-0.9-0.2-1.5-0.7-1.5-1.6c0-1.1,0.9-1.8,2.1-1.8c1.3,0,2.1,0.7,2.3,1.7h-0.8c-0.2-0.6-0.7-1-1.5-1c-0.8,0-1.3,0.4-1.3,1.1
			c0,0.5,0.4,0.8,1,1l1.1,0.3c1,0.3,1.6,0.8,1.6,1.7c0,1.2-0.9,1.9-2.2,1.9s-2.2-0.6-2.5-1.8H136.3z"/>
		<path class="st18" d="M142.1,327.8v2.6h-0.8V324h2.4c1.3,0,2.1,0.7,2.1,1.9c0,1.2-0.8,1.9-2.1,1.9H142.1z M143.7,324.7h-1.6v2.4
			h1.6c0.9,0,1.3-0.5,1.3-1.2C145,325.2,144.5,324.7,143.7,324.7z"/>
	</g>
	<g class="st17">
		<path class="st18" d="M137.7,341.9c-1.7,0-2.9-1.4-2.9-3.3c0-1.9,1.2-3.3,2.9-3.3c1.7,0,2.9,1.4,2.9,3.3
			C140.6,340.6,139.4,341.9,137.7,341.9z M137.7,336.1c-1.2,0-2.1,1.1-2.1,2.5c0,1.5,0.8,2.5,2.1,2.5c1.2,0,2.1-1.1,2.1-2.5
			C139.8,337.1,139,336.1,137.7,336.1z"/>
	</g>
	<g class="st17">
		<path class="st18" d="M143.5,341.8l-2.5-6.4h0.9l2,5.3l2-5.3h0.8l-2.5,6.4H143.5z"/>
	</g>
	<g class="st17">
		<path class="st18" d="M716.2,145.1l-2-4.9v4.9h-0.8v-6.4h0.9l2.2,5.2l2.2-5.2h0.9v6.4h-0.8v-4.9l-2,4.9H716.2z"/>
	</g>
	<g class="st17">
		<path class="st18" d="M723.8,138.8l2.5,6.4h-0.8l-0.7-1.9h-2.6l-0.7,1.9h-0.8l2.5-6.4H723.8z M722.3,142.5h2.1l-1-2.7L722.3,142.5
			z"/>
	</g>
	<g class="st17">
		<path class="st18" d="M727.5,143.5c0.2,0.7,0.8,1.1,1.6,1.1c0.8,0,1.4-0.4,1.4-1.1c0-0.5-0.3-0.8-1-1l-1.1-0.3
			c-0.9-0.2-1.5-0.7-1.5-1.6c0-1.1,0.9-1.8,2.1-1.8c1.3,0,2.1,0.7,2.3,1.7h-0.8c-0.2-0.6-0.7-1-1.5-1c-0.8,0-1.3,0.4-1.3,1.1
			c0,0.5,0.4,0.8,1,1l1.1,0.3c1,0.3,1.6,0.8,1.6,1.7c0,1.2-0.9,1.9-2.2,1.9s-2.2-0.6-2.5-1.8H727.5z"/>
	</g>
	<g class="st17">
		<path class="st18" d="M731.9,138.8h5.3v0.7H735v5.7h-0.8v-5.7h-2.2V138.8z"/>
		<path class="st18" d="M742.3,138.8v0.7h-3.3v2h3v0.7h-3v2.2h3.3v0.7h-4.1v-6.4H742.3z"/>
		<path class="st18" d="M744.5,142.4v2.7h-0.8v-6.4h2.4c1.3,0,2.1,0.6,2.1,1.9c0,1.1-0.6,1.7-1.6,1.8l1.9,2.7h-0.9l-1.8-2.7H744.5z
			 M744.5,141.7h1.5c0.8,0,1.3-0.4,1.3-1.1c0-0.7-0.5-1.1-1.3-1.1h-1.5V141.7z"/>
	</g>
	<g class="st17">
		<path class="st18" d="M723.6,154.5c0,1.2-0.8,1.8-2.1,1.8h-2.3V150h2.1c1.3,0,2.1,0.6,2.1,1.7c0,0.8-0.4,1.2-0.9,1.4
			C723.2,153.2,723.6,153.8,723.6,154.5z M721.3,152.7c0.9,0,1.3-0.3,1.3-1s-0.5-1-1.3-1H720v2.1H721.3z M720,155.6h1.5
			c0.9,0,1.3-0.4,1.3-1.1c0-0.7-0.5-1.1-1.3-1.1H720V155.6z"/>
	</g>
	<g class="st17">
		<path class="st18" d="M727.4,150l2.5,6.4h-0.8l-0.7-1.9h-2.6l-0.7,1.9h-0.8l2.5-6.4H727.4z M726,153.7h2.1l-1-2.7L726,153.7z"/>
	</g>
	<g class="st17">
		<path class="st18" d="M729.9,150h5.3v0.7h-2.2v5.7h-0.8v-5.7h-2.2V150z"/>
		<path class="st18" d="M741.5,150v6.4h-0.8v-2.9H737v2.9h-0.8V150h0.8v2.7h3.6V150H741.5z"/>
	</g>
	<g class="st17">
		<path class="st18" d="M601.4,116.6h2c1.9,0,3.1,1.2,3.1,3.2c0,1.9-1.2,3.2-3.1,3.2h-2V116.6z M603.4,122.2c1.4,0,2.3-1,2.3-2.5
			c0-1.5-0.9-2.5-2.3-2.5h-1.2v4.9H603.4z"/>
		<path class="st18" d="M608.5,120.3v2.7h-0.8v-6.4h2.4c1.3,0,2.1,0.6,2.1,1.9c0,1.1-0.6,1.7-1.6,1.8l1.9,2.7h-0.9l-1.8-2.7H608.5z
			 M608.5,119.6h1.5c0.8,0,1.3-0.4,1.3-1.1c0-0.7-0.5-1.1-1.3-1.1h-1.5V119.6z"/>
		<path class="st18" d="M617.5,116.6v0.7h-3.3v2h3v0.7h-3v2.2h3.3v0.7h-4.1v-6.4H617.5z"/>
	</g>
	<g class="st17">
		<path class="st18" d="M619.1,121.3c0.2,0.7,0.8,1.1,1.6,1.1c0.8,0,1.4-0.4,1.4-1.1c0-0.5-0.3-0.8-1-1l-1.1-0.3
			c-0.9-0.2-1.5-0.7-1.5-1.6c0-1.1,0.9-1.8,2.1-1.8c1.3,0,2.1,0.7,2.3,1.7H622c-0.2-0.6-0.7-1-1.5-1c-0.8,0-1.3,0.4-1.3,1.1
			c0,0.5,0.4,0.8,1,1l1.1,0.3c1,0.3,1.6,0.8,1.6,1.7c0,1.2-0.9,1.9-2.2,1.9s-2.2-0.6-2.5-1.8H619.1z"/>
	</g>
	<g class="st17">
		<path class="st18" d="M624.4,121.3c0.2,0.7,0.8,1.1,1.6,1.1c0.8,0,1.4-0.4,1.4-1.1c0-0.5-0.3-0.8-1-1l-1.1-0.3
			c-0.9-0.2-1.5-0.7-1.5-1.6c0-1.1,0.9-1.8,2.1-1.8c1.3,0,2.1,0.7,2.3,1.7h-0.8c-0.2-0.6-0.7-1-1.5-1c-0.8,0-1.3,0.4-1.3,1.1
			c0,0.5,0.4,0.8,1,1l1.1,0.3c1,0.3,1.6,0.8,1.6,1.7c0,1.2-0.9,1.9-2.2,1.9s-2.2-0.6-2.5-1.8H624.4z"/>
		<path class="st18" d="M630.2,123h-0.8v-6.4h0.8V123z"/>
		<path class="st18" d="M636.7,123h-0.6l-3.6-5.1v5.1h-0.8v-6.4h0.8l3.4,4.9v-4.9h0.8V123z"/>
		<path class="st18" d="M641.1,120.5v-0.7h2.3v0.4c0,1.7-1.1,2.8-2.6,2.8c-1.7,0-2.9-1.3-2.9-3.3s1.3-3.3,2.9-3.3
			c1.4,0,2.3,0.8,2.5,2h-0.8c-0.3-0.7-0.8-1.2-1.7-1.2c-1.2,0-2.1,1-2.1,2.5c0,1.5,0.8,2.6,2.1,2.6c1.1,0,1.8-0.7,1.9-1.8H641.1z"/>
	</g>
	<g class="st17">
		<path class="st18" d="M610.5,131.5v2.7h-0.8v-6.4h2.4c1.3,0,2.1,0.6,2.1,1.9c0,1.1-0.6,1.7-1.6,1.8l1.9,2.7h-0.9l-1.8-2.7H610.5z
			 M610.5,130.8h1.5c0.8,0,1.3-0.4,1.3-1.1c0-0.7-0.5-1.1-1.3-1.1h-1.5V130.8z"/>
	</g>
	<g class="st17">
		<path class="st18" d="M617.9,134.3c-1.7,0-2.9-1.4-2.9-3.3c0-1.9,1.2-3.3,2.9-3.3c1.7,0,2.9,1.4,2.9,3.3
			C620.8,132.9,619.6,134.3,617.9,134.3z M617.9,128.4c-1.2,0-2.1,1.1-2.1,2.5c0,1.5,0.8,2.5,2.1,2.5c1.2,0,2.1-1.1,2.1-2.5
			C620,129.5,619.2,128.4,617.9,128.4z"/>
	</g>
	<g class="st17">
		<path class="st18" d="M624.5,134.3c-1.7,0-2.9-1.4-2.9-3.3c0-1.9,1.2-3.3,2.9-3.3c1.7,0,2.9,1.4,2.9,3.3
			C627.4,132.9,626.2,134.3,624.5,134.3z M624.5,128.4c-1.2,0-2.1,1.1-2.1,2.5c0,1.5,0.8,2.5,2.1,2.5c1.2,0,2.1-1.1,2.1-2.5
			C626.6,129.5,625.7,128.4,624.5,128.4z"/>
		<path class="st18" d="M631.3,134.2l-2-4.9v4.9h-0.8v-6.4h0.9l2.2,5.2l2.2-5.2h0.9v6.4h-0.8v-4.9l-2,4.9H631.3z"/>
	</g>
</g>
</svg>
