<?xml version="1.0" encoding="utf-8"?>
<!-- Generator: Adobe Illustrator 23.0.0, SVG Export Plug-In . SVG Version: 6.00 Build 0)  -->
<svg version="1.1" id="Layer_1" xmlns="http://www.w3.org/2000/svg" xmlns:xlink="http://www.w3.org/1999/xlink" x="0px" y="0px"
	 viewBox="0 0 582.9 674.2" style="enable-background:new 0 0 582.9 674.2;" xml:space="preserve">
<style type="text/css">
	.st0{fill:none;stroke:#231F20;stroke-width:0.15;stroke-miterlimit:10;}
	.st1{fill:#FFFFFF;stroke:#231F20;stroke-width:0.35;stroke-linecap:round;stroke-linejoin:round;}
	.st2{fill:none;stroke:#231F20;stroke-width:0.35;stroke-linecap:round;stroke-linejoin:round;}
	.st3{fill:none;stroke:#231F20;stroke-width:0.25;stroke-linecap:round;stroke-linejoin:round;}
	.st4{fill:#FFFFFF;stroke:#231F20;stroke-width:0.35;stroke-miterlimit:10;}
	.st5{fill:none;stroke:#231F20;stroke-width:0.35;stroke-miterlimit:10;}
	.st6{fill:none;stroke:#231F20;stroke-width:0.25;stroke-miterlimit:10;}
	.st7{fill:#FFFFFF;stroke:#231F20;stroke-width:0.25;stroke-linecap:round;stroke-linejoin:round;}
	.st8{fill:none;stroke:#231F20;stroke-width:0.5;stroke-linecap:round;stroke-linejoin:round;}
	.st9{fill:none;stroke:#231F20;stroke-width:0.25;stroke-miterlimit:10;stroke-dasharray:2.5;}
	.st10{fill:#FFFFFF;stroke:#231F20;stroke-width:0.25;stroke-miterlimit:10;}
	.st11{fill:none;stroke:#00AEEF;stroke-width:0.7;stroke-miterlimit:10;}
	.st12{fill:#FFFFFF;stroke:#231F20;stroke-width:0.5;stroke-linecap:round;stroke-linejoin:round;}
	.st13{fill:#D2D3D4;stroke:#231F20;stroke-width:0.5;stroke-miterlimit:10;}
	.st14{enable-background:new    ;}
	.st15{fill:#231F20;}
</style>
<title>108Leonard_WEB_J_4-11_v3</title>
<g id="FLOOR_PATTERN">
	<g id="LINE">
		<line class="st0" x1="220.3" y1="234.2" x2="226.6" y2="240.5"/>
	</g>
	<g id="LINE-2">
		<line class="st0" x1="208.6" y1="234.2" x2="226.6" y2="252.2"/>
	</g>
	<g id="LINE-3">
		<line class="st0" x1="196.9" y1="234.2" x2="226.6" y2="263.9"/>
	</g>
	<g id="LINE-4">
		<line class="st0" x1="185.7" y1="234.7" x2="226.6" y2="275.5"/>
	</g>
	<g id="LINE-5">
		<line class="st0" x1="185.7" y1="246.3" x2="226.6" y2="287.2"/>
	</g>
	<g id="LINE-6">
		<line class="st0" x1="185.7" y1="258" x2="222" y2="294.2"/>
	</g>
	<g id="LINE-7">
		<line class="st0" x1="185.7" y1="269.7" x2="210.3" y2="294.2"/>
	</g>
	<g id="LINE-8">
		<line class="st0" x1="185.7" y1="281.3" x2="198.6" y2="294.2"/>
	</g>
	<g id="LINE-9">
		<line class="st0" x1="185.7" y1="293" x2="187" y2="294.2"/>
	</g>
	<g id="LINE-10">
		<line class="st0" x1="226.2" y1="368.5" x2="226.6" y2="368.9"/>
	</g>
	<g id="LINE-11">
		<line class="st0" x1="221.8" y1="375.7" x2="226.6" y2="380.5"/>
	</g>
	<g id="LINE-12">
		<line class="st0" x1="200.3" y1="365.9" x2="200.9" y2="366.6"/>
	</g>
	<g id="LINE-13">
		<line class="st0" x1="213" y1="378.6" x2="226.6" y2="392.2"/>
	</g>
	<g id="LINE-14">
		<line class="st0" x1="193.8" y1="371.1" x2="226.6" y2="403.9"/>
	</g>
	<g id="LINE-15">
		<line class="st0" x1="188.2" y1="377.1" x2="226.6" y2="415.5"/>
	</g>
	<g id="LINE-16">
		<line class="st0" x1="185.7" y1="386.3" x2="226.6" y2="427.2"/>
	</g>
	<g id="LINE-17">
		<line class="st0" x1="185.7" y1="398" x2="226.6" y2="438.9"/>
	</g>
	<g id="LINE-18">
		<line class="st0" x1="185.7" y1="409.7" x2="226.6" y2="450.5"/>
	</g>
	<g id="LINE-19">
		<line class="st0" x1="185.7" y1="421.3" x2="226.6" y2="462.2"/>
	</g>
	<g id="LINE-20">
		<line class="st0" x1="185.7" y1="433" x2="192.3" y2="439.6"/>
	</g>
	<g id="LINE-21">
		<line class="st0" x1="210.6" y1="457.9" x2="226.6" y2="473.9"/>
	</g>
	<g id="LINE-22">
		<line class="st0" x1="209.1" y1="468" x2="226.6" y2="485.5"/>
	</g>
	<g id="LINE-23">
		<line class="st0" x1="206.4" y1="477" x2="226.6" y2="497.2"/>
	</g>
	<g id="LINE-24">
		<line class="st0" x1="203.8" y1="486.1" x2="226.6" y2="508.9"/>
	</g>
	<g id="LINE-25">
		<line class="st0" x1="189" y1="482.9" x2="226.6" y2="520.5"/>
	</g>
	<g id="LINE-26">
		<line class="st0" x1="185.7" y1="491.4" x2="226.6" y2="532.2"/>
	</g>
	<g id="LINE-27">
		<line class="st0" x1="185.7" y1="503" x2="187.1" y2="504.4"/>
	</g>
	<g id="LINE-28">
		<line class="st0" x1="193.3" y1="510.6" x2="226.6" y2="543.9"/>
	</g>
	<g id="LINE-29">
		<line class="st0" x1="192.8" y1="521.7" x2="226.6" y2="555.6"/>
	</g>
	<g id="LINE-30">
		<line class="st0" x1="192.2" y1="532.9" x2="226.6" y2="567.2"/>
	</g>
	<g id="LINE-31">
		<line class="st0" x1="191.7" y1="544" x2="210.5" y2="562.8"/>
	</g>
	<g id="LINE-32">
		<line class="st0" x1="218.4" y1="570.7" x2="226.6" y2="578.9"/>
	</g>
	<g id="LINE-33">
		<line class="st0" x1="185.7" y1="549.7" x2="198.1" y2="562.1"/>
	</g>
	<g id="LINE-34">
		<line class="st0" x1="217.7" y1="581.7" x2="226.6" y2="590.6"/>
	</g>
	<g id="LINE-35">
		<line class="st0" x1="217.1" y1="592.7" x2="226.6" y2="602.2"/>
	</g>
	<g id="LINE-36">
		<line class="st0" x1="216.5" y1="603.8" x2="226.6" y2="613.9"/>
	</g>
	<g id="LINE-37">
		<line class="st0" x1="215.8" y1="614.8" x2="226.6" y2="625.6"/>
	</g>
	<g id="LINE-38">
		<line class="st0" x1="206" y1="616.6" x2="218.1" y2="628.7"/>
	</g>
	<g id="LINE-39">
		<line class="st0" x1="193.6" y1="615.9" x2="205.7" y2="628"/>
	</g>
	<g id="LINE-40">
		<line class="st0" x1="185.7" y1="619.7" x2="193.3" y2="627.3"/>
	</g>
	<g id="LINE-41">
		<line class="st0" x1="278.7" y1="234.2" x2="283" y2="238.6"/>
	</g>
	<g id="LINE-42">
		<line class="st0" x1="267.5" y1="234.7" x2="283" y2="250.2"/>
	</g>
	<g id="LINE-43">
		<line class="st0" x1="267.5" y1="246.3" x2="283" y2="261.9"/>
	</g>
	<g id="LINE-44">
		<line class="st0" x1="267.5" y1="258" x2="283" y2="273.5"/>
	</g>
	<g id="LINE-45">
		<line class="st0" x1="267.5" y1="269.7" x2="283" y2="285.2"/>
	</g>
	<g id="LINE-46">
		<line class="st0" x1="267.5" y1="281.3" x2="280.4" y2="294.2"/>
	</g>
	<g id="LINE-47">
		<line class="st0" x1="267.5" y1="293" x2="268.7" y2="294.2"/>
	</g>
	<g id="LINE-48">
		<line class="st0" x1="282" y1="365.9" x2="283" y2="366.9"/>
	</g>
	<g id="LINE-49">
		<line class="st0" x1="270.4" y1="365.9" x2="283" y2="378.6"/>
	</g>
	<g id="LINE-50">
		<line class="st0" x1="267.5" y1="374.7" x2="283" y2="390.2"/>
	</g>
	<g id="LINE-51">
		<line class="st0" x1="267.5" y1="386.3" x2="283" y2="401.9"/>
	</g>
	<g id="LINE-52">
		<line class="st0" x1="267.5" y1="398" x2="283" y2="413.6"/>
	</g>
	<g id="LINE-53">
		<line class="st0" x1="267.5" y1="409.7" x2="283" y2="425.2"/>
	</g>
	<g id="LINE-54">
		<line class="st0" x1="267.5" y1="421.3" x2="283" y2="436.9"/>
	</g>
	<g id="LINE-55">
		<line class="st0" x1="267.5" y1="433" x2="283" y2="448.6"/>
	</g>
	<g id="LINE-56">
		<line class="st0" x1="267.5" y1="444.7" x2="283" y2="460.2"/>
	</g>
	<g id="LINE-57">
		<line class="st0" x1="267.5" y1="456.3" x2="283" y2="471.9"/>
	</g>
	<g id="LINE-58">
		<line class="st0" x1="267.5" y1="468" x2="283" y2="483.6"/>
	</g>
	<g id="LINE-59">
		<line class="st0" x1="267.5" y1="479.7" x2="283" y2="495.2"/>
	</g>
	<g id="LINE-60">
		<line class="st0" x1="267.5" y1="491.4" x2="283" y2="506.9"/>
	</g>
	<g id="LINE-61">
		<line class="st0" x1="267.5" y1="503" x2="283" y2="518.6"/>
	</g>
	<g id="LINE-62">
		<line class="st0" x1="267.5" y1="514.7" x2="283" y2="530.2"/>
	</g>
	<g id="LINE-63">
		<line class="st0" x1="267.5" y1="526.3" x2="283" y2="541.9"/>
	</g>
	<g id="LINE-64">
		<line class="st0" x1="267.5" y1="538" x2="283" y2="553.6"/>
	</g>
	<g id="LINE-65">
		<line class="st0" x1="267.5" y1="549.7" x2="283" y2="565.2"/>
	</g>
	<g id="LINE-66">
		<line class="st0" x1="267.5" y1="561.3" x2="283" y2="576.9"/>
	</g>
	<g id="LINE-67">
		<line class="st0" x1="267.5" y1="573" x2="283" y2="588.6"/>
	</g>
	<g id="LINE-68">
		<line class="st0" x1="267.5" y1="584.7" x2="283" y2="600.2"/>
	</g>
	<g id="LINE-69">
		<line class="st0" x1="267.5" y1="596.3" x2="279.1" y2="608"/>
	</g>
	<g id="LINE-70">
		<line class="st0" x1="226.6" y1="240.5" x2="232.9" y2="234.2"/>
	</g>
	<g id="LINE-71">
		<line class="st0" x1="226.6" y1="252.2" x2="244.6" y2="234.2"/>
	</g>
	<g id="LINE-72">
		<line class="st0" x1="226.6" y1="263.9" x2="256.3" y2="234.2"/>
	</g>
	<g id="LINE-73">
		<line class="st0" x1="226.6" y1="275.5" x2="267.5" y2="234.7"/>
	</g>
	<g id="LINE-74">
		<line class="st0" x1="226.6" y1="287.2" x2="267.5" y2="246.3"/>
	</g>
	<g id="LINE-75">
		<line class="st0" x1="231.2" y1="294.2" x2="267.5" y2="258"/>
	</g>
	<g id="LINE-76">
		<line class="st0" x1="242.9" y1="294.2" x2="267.5" y2="269.7"/>
	</g>
	<g id="LINE-77">
		<line class="st0" x1="254.6" y1="294.2" x2="267.5" y2="281.3"/>
	</g>
	<g id="LINE-78">
		<line class="st0" x1="266.2" y1="294.2" x2="267.5" y2="293"/>
	</g>
	<g id="LINE-79">
		<line class="st0" x1="226.6" y1="368.9" x2="229.6" y2="365.9"/>
	</g>
	<g id="LINE-80">
		<line class="st0" x1="226.6" y1="380.5" x2="234.4" y2="372.7"/>
	</g>
	<g id="LINE-81">
		<line class="st0" x1="226.6" y1="392.2" x2="240.9" y2="377.9"/>
	</g>
	<g id="LINE-82">
		<line class="st0" x1="226.6" y1="403.9" x2="264.6" y2="365.9"/>
	</g>
	<g id="LINE-83">
		<line class="st0" x1="226.6" y1="415.5" x2="267.5" y2="374.7"/>
	</g>
	<g id="LINE-84">
		<line class="st0" x1="226.6" y1="427.2" x2="267.5" y2="386.3"/>
	</g>
	<g id="LINE-85">
		<line class="st0" x1="226.6" y1="438.9" x2="267.5" y2="398"/>
	</g>
	<g id="LINE-86">
		<line class="st0" x1="226.6" y1="450.5" x2="267.5" y2="409.7"/>
	</g>
	<g id="LINE-87">
		<line class="st0" x1="226.6" y1="462.2" x2="267.5" y2="421.3"/>
	</g>
	<g id="LINE-88">
		<line class="st0" x1="226.6" y1="473.9" x2="267.5" y2="433"/>
	</g>
	<g id="LINE-89">
		<line class="st0" x1="226.6" y1="485.5" x2="267.5" y2="444.7"/>
	</g>
	<g id="LINE-90">
		<line class="st0" x1="226.6" y1="497.2" x2="267.5" y2="456.3"/>
	</g>
	<g id="LINE-91">
		<line class="st0" x1="226.6" y1="508.9" x2="267.5" y2="468"/>
	</g>
	<g id="LINE-92">
		<line class="st0" x1="226.6" y1="520.5" x2="267.5" y2="479.7"/>
	</g>
	<g id="LINE-93">
		<line class="st0" x1="226.6" y1="532.2" x2="267.5" y2="491.4"/>
	</g>
	<g id="LINE-94">
		<line class="st0" x1="226.6" y1="543.9" x2="267.5" y2="503"/>
	</g>
	<g id="LINE-95">
		<line class="st0" x1="226.6" y1="555.6" x2="267.5" y2="514.7"/>
	</g>
	<g id="LINE-96">
		<line class="st0" x1="226.6" y1="567.2" x2="267.5" y2="526.3"/>
	</g>
	<g id="LINE-97">
		<line class="st0" x1="226.6" y1="578.9" x2="228.9" y2="576.6"/>
	</g>
	<g id="LINE-98">
		<line class="st0" x1="234.4" y1="571.1" x2="267.5" y2="538"/>
	</g>
	<g id="LINE-99">
		<line class="st0" x1="227.2" y1="589.9" x2="228.5" y2="588.7"/>
	</g>
	<g id="LINE-100">
		<line class="st0" x1="246.4" y1="570.7" x2="267.5" y2="549.7"/>
	</g>
	<g id="LINE-101">
		<line class="st0" x1="227.2" y1="601.6" x2="234.1" y2="594.7"/>
	</g>
	<g id="LINE-102">
		<line class="st0" x1="252.5" y1="576.3" x2="267.5" y2="561.3"/>
	</g>
	<g id="LINE-103">
		<line class="st0" x1="227.2" y1="613.3" x2="234" y2="606.5"/>
	</g>
	<g id="LINE-104">
		<line class="st0" x1="253.7" y1="586.8" x2="267.5" y2="573"/>
	</g>
	<g id="LINE-105">
		<line class="st0" x1="235.1" y1="605.4" x2="244.5" y2="596"/>
	</g>
	<g id="LINE-106">
		<line class="st0" x1="227.1" y1="625" x2="233.3" y2="618.9"/>
	</g>
	<g id="LINE-107">
		<line class="st0" x1="246.1" y1="606.1" x2="267.5" y2="584.7"/>
	</g>
	<g id="LINE-108">
		<line class="st0" x1="257.1" y1="606.7" x2="267.5" y2="596.3"/>
	</g>
	<g id="LINE-109">
		<line class="st0" x1="9.2" y1="236" x2="11" y2="234.2"/>
	</g>
	<g id="LINE-110">
		<line class="st0" x1="9.2" y1="247.6" x2="22.2" y2="234.7"/>
	</g>
	<g id="LINE-111">
		<line class="st0" x1="9.2" y1="259.3" x2="22.2" y2="246.3"/>
	</g>
	<g id="LINE-112">
		<line class="st0" x1="9.2" y1="271" x2="22.2" y2="258"/>
	</g>
	<g id="LINE-113">
		<line class="st0" x1="9.2" y1="282.6" x2="22.2" y2="269.7"/>
	</g>
	<g id="LINE-114">
		<line class="st0" x1="9.2" y1="294.3" x2="22.2" y2="281.3"/>
	</g>
	<g id="LINE-115">
		<line class="st0" x1="9.2" y1="306" x2="22.2" y2="293"/>
	</g>
	<g id="LINE-116">
		<line class="st0" x1="9.2" y1="317.6" x2="22.2" y2="304.7"/>
	</g>
	<g id="LINE-117">
		<line class="st0" x1="9.2" y1="329.3" x2="22.2" y2="316.3"/>
	</g>
	<g id="LINE-118">
		<line class="st0" x1="9.2" y1="341" x2="22.2" y2="328"/>
	</g>
	<g id="LINE-119">
		<line class="st0" x1="9.2" y1="352.6" x2="22.2" y2="339.7"/>
	</g>
	<g id="LINE-120">
		<line class="st0" x1="9.2" y1="364.3" x2="20.3" y2="353.3"/>
	</g>
	<g id="LINE-121">
		<line class="st0" x1="9.2" y1="376" x2="22.2" y2="363"/>
	</g>
	<g id="LINE-122">
		<line class="st0" x1="9.2" y1="387.7" x2="22.2" y2="374.7"/>
	</g>
	<g id="LINE-123">
		<line class="st0" x1="9.2" y1="399.3" x2="22.2" y2="386.3"/>
	</g>
	<g id="LINE-124">
		<line class="st0" x1="9.2" y1="411" x2="22.2" y2="398"/>
	</g>
	<g id="LINE-125">
		<line class="st0" x1="9.2" y1="422.7" x2="22.2" y2="409.7"/>
	</g>
	<g id="LINE-126">
		<line class="st0" x1="9.2" y1="434.3" x2="22.2" y2="421.3"/>
	</g>
	<g id="LINE-127">
		<line class="st0" x1="9.2" y1="446" x2="22.2" y2="433"/>
	</g>
	<g id="LINE-128">
		<line class="st0" x1="11.5" y1="455.4" x2="22.2" y2="444.7"/>
	</g>
	<g id="LINE-129">
		<line class="st0" x1="9.2" y1="539.3" x2="12.2" y2="536.4"/>
	</g>
	<g id="LINE-130">
		<line class="st0" x1="9.2" y1="551" x2="22.2" y2="538"/>
	</g>
	<g id="LINE-131">
		<line class="st0" x1="13.9" y1="558" x2="22.2" y2="549.7"/>
	</g>
	<g id="LINE-132">
		<line class="st0" x1="79.4" y1="49.2" x2="83.2" y2="45.4"/>
	</g>
	<g id="LINE-133">
		<line class="st0" x1="79.4" y1="60.9" x2="94.9" y2="45.4"/>
	</g>
	<g id="LINE-134">
		<line class="st0" x1="79.4" y1="72.6" x2="104" y2="48"/>
	</g>
	<g id="LINE-135">
		<line class="st0" x1="79.4" y1="84.2" x2="104" y2="59.7"/>
	</g>
	<g id="LINE-136">
		<line class="st0" x1="79.4" y1="95.9" x2="104" y2="71.3"/>
	</g>
	<g id="LINE-137">
		<line class="st0" x1="79.4" y1="107.6" x2="104" y2="83"/>
	</g>
	<g id="LINE-138">
		<line class="st0" x1="79.4" y1="119.2" x2="104" y2="94.7"/>
	</g>
	<g id="LINE-139">
		<line class="st0" x1="79.4" y1="130.9" x2="104" y2="106.3"/>
	</g>
	<g id="LINE-140">
		<line class="st0" x1="79.4" y1="142.6" x2="104" y2="118"/>
	</g>
	<g id="LINE-141">
		<line class="st0" x1="79.4" y1="154.2" x2="104" y2="129.7"/>
	</g>
	<g id="LINE-142">
		<line class="st0" x1="79.4" y1="165.9" x2="104" y2="141.3"/>
	</g>
	<g id="LINE-143">
		<line class="st0" x1="79.4" y1="177.6" x2="104" y2="153"/>
	</g>
	<g id="LINE-144">
		<line class="st0" x1="85.4" y1="183.2" x2="104" y2="164.7"/>
	</g>
	<g id="LINE-145">
		<line class="st0" x1="79.4" y1="200.9" x2="104" y2="176.3"/>
	</g>
	<g id="LINE-146">
		<line class="st0" x1="79.4" y1="212.6" x2="104" y2="188"/>
	</g>
	<g id="LINE-147">
		<line class="st0" x1="63.1" y1="240.5" x2="69.4" y2="234.2"/>
	</g>
	<g id="LINE-148">
		<line class="st0" x1="79.4" y1="224.3" x2="104" y2="199.7"/>
	</g>
	<g id="LINE-149">
		<line class="st0" x1="63.1" y1="252.2" x2="104" y2="211.3"/>
	</g>
	<g id="LINE-150">
		<line class="st0" x1="63.1" y1="263.9" x2="104" y2="223"/>
	</g>
	<g id="LINE-151">
		<line class="st0" x1="63.1" y1="275.5" x2="104" y2="234.7"/>
	</g>
	<g id="LINE-152">
		<line class="st0" x1="63.1" y1="287.2" x2="104" y2="246.3"/>
	</g>
	<g id="LINE-153">
		<line class="st0" x1="63.1" y1="298.9" x2="104" y2="258"/>
	</g>
	<g id="LINE-154">
		<line class="st0" x1="79.8" y1="293.9" x2="104" y2="269.7"/>
	</g>
	<g id="LINE-155">
		<line class="st0" x1="86.5" y1="298.8" x2="104" y2="281.3"/>
	</g>
	<g id="LINE-156">
		<line class="st0" x1="92.2" y1="304.8" x2="104" y2="293"/>
	</g>
	<g id="LINE-157">
		<line class="st0" x1="96.8" y1="311.9" x2="104" y2="304.7"/>
	</g>
	<g id="LINE-158">
		<line class="st0" x1="89.4" y1="331" x2="104" y2="316.3"/>
	</g>
	<g id="LINE-159">
		<line class="st0" x1="63.1" y1="368.9" x2="69.1" y2="362.9"/>
	</g>
	<g id="LINE-160">
		<line class="st0" x1="89.3" y1="342.7" x2="104" y2="328"/>
	</g>
	<g id="LINE-161">
		<line class="st0" x1="63.1" y1="380.5" x2="75" y2="368.7"/>
	</g>
	<g id="LINE-162">
		<line class="st0" x1="95.1" y1="348.5" x2="104" y2="339.7"/>
	</g>
	<g id="LINE-163">
		<line class="st0" x1="63.1" y1="392.2" x2="104" y2="351.3"/>
	</g>
	<g id="LINE-164">
		<line class="st0" x1="63.1" y1="403.9" x2="104" y2="363"/>
	</g>
	<g id="LINE-165">
		<line class="st0" x1="63.1" y1="415.5" x2="104" y2="374.7"/>
	</g>
	<g id="LINE-166">
		<line class="st0" x1="63.1" y1="427.2" x2="104" y2="386.3"/>
	</g>
	<g id="LINE-167">
		<line class="st0" x1="63.1" y1="438.9" x2="104" y2="398"/>
	</g>
	<g id="LINE-168">
		<line class="st0" x1="63.1" y1="450.5" x2="104" y2="409.7"/>
	</g>
	<g id="LINE-169">
		<line class="st0" x1="63.1" y1="462.2" x2="104" y2="421.3"/>
	</g>
	<g id="LINE-170">
		<line class="st0" x1="63.1" y1="473.9" x2="104" y2="433"/>
	</g>
	<g id="LINE-171">
		<line class="st0" x1="63.1" y1="485.5" x2="104" y2="444.7"/>
	</g>
	<g id="LINE-172">
		<line class="st0" x1="63.1" y1="497.2" x2="101.3" y2="459.1"/>
	</g>
	<g id="LINE-173">
		<line class="st0" x1="63.1" y1="508.9" x2="103.1" y2="468.9"/>
	</g>
	<g id="LINE-174">
		<line class="st0" x1="63.1" y1="520.5" x2="104" y2="479.7"/>
	</g>
	<g id="LINE-175">
		<line class="st0" x1="63.1" y1="532.2" x2="104" y2="491.4"/>
	</g>
	<g id="LINE-176">
		<line class="st0" x1="63.1" y1="543.9" x2="104" y2="503"/>
	</g>
	<g id="LINE-177">
		<line class="st0" x1="63.1" y1="555.6" x2="104" y2="514.7"/>
	</g>
	<g id="LINE-178">
		<line class="st0" x1="70.7" y1="559.6" x2="75" y2="555.3"/>
	</g>
	<g id="LINE-179">
		<line class="st0" x1="75.3" y1="555" x2="104" y2="526.3"/>
	</g>
	<g id="LINE-180">
		<line class="st0" x1="70.1" y1="571.9" x2="74.3" y2="567.7"/>
	</g>
	<g id="LINE-181">
		<line class="st0" x1="86.4" y1="555.6" x2="104" y2="538"/>
	</g>
	<g id="LINE-182">
		<line class="st0" x1="63.1" y1="590.6" x2="67.2" y2="586.4"/>
	</g>
	<g id="LINE-183">
		<line class="st0" x1="97.4" y1="556.3" x2="104" y2="549.7"/>
	</g>
	<g id="LINE-184">
		<line class="st0" x1="69.4" y1="584.3" x2="73.6" y2="580.1"/>
	</g>
	<g id="LINE-185">
		<line class="st0" x1="63.1" y1="602.2" x2="72.9" y2="592.5"/>
	</g>
	<g id="LINE-186">
		<line class="st0" x1="63.1" y1="613.9" x2="72.2" y2="604.8"/>
	</g>
	<g id="LINE-187">
		<line class="st0" x1="68.6" y1="620.1" x2="79.3" y2="609.3"/>
	</g>
	<g id="LINE-188">
		<line class="st0" x1="79.6" y1="620.7" x2="90.4" y2="610"/>
	</g>
	<g id="LINE-189">
		<line class="st0" x1="90.6" y1="621.4" x2="101.4" y2="610.6"/>
	</g>
	<g id="LINE-190">
		<line class="st0" x1="101.7" y1="622" x2="104" y2="619.7"/>
	</g>
	<g id="LINE-191">
		<line class="st0" x1="300.3" y1="574.3" x2="300.3" y2="461.7"/>
	</g>
	<g id="LINE-192">
		<line class="st0" x1="308.5" y1="600.6" x2="308.5" y2="418.2"/>
	</g>
	<g id="LINE-193">
		<line class="st0" x1="316.8" y1="601.1" x2="316.8" y2="418.2"/>
	</g>
	<g id="LINE-194">
		<line class="st0" x1="325" y1="601.6" x2="325" y2="418.2"/>
	</g>
	<g id="LINE-195">
		<line class="st0" x1="333.3" y1="602.1" x2="333.3" y2="418.2"/>
	</g>
	<g id="LINE-196">
		<line class="st0" x1="341.5" y1="602.5" x2="341.5" y2="418.2"/>
	</g>
	<g id="LINE-197">
		<line class="st0" x1="349.8" y1="603" x2="349.8" y2="418.2"/>
	</g>
	<g id="LINE-198">
		<line class="st0" x1="358" y1="603.5" x2="358" y2="418.2"/>
	</g>
	<g id="LINE-199">
		<line class="st0" x1="366.3" y1="604" x2="366.3" y2="418.2"/>
	</g>
	<g id="LINE-200">
		<line class="st0" x1="374.5" y1="616.5" x2="374.5" y2="418.2"/>
	</g>
	<g id="LINE-201">
		<line class="st0" x1="382.8" y1="617" x2="382.8" y2="418.2"/>
	</g>
	<g id="LINE-202">
		<line class="st0" x1="391" y1="617.4" x2="391" y2="418.2"/>
	</g>
	<g id="LINE-203">
		<line class="st0" x1="399.3" y1="617.9" x2="399.3" y2="418.2"/>
	</g>
	<g id="LINE-204">
		<line class="st0" x1="407.5" y1="618.4" x2="407.5" y2="418.2"/>
	</g>
	<g id="LINE-205">
		<line class="st0" x1="415.8" y1="618.8" x2="415.8" y2="550.6"/>
	</g>
	<g id="LINE-206">
		<line class="st0" x1="415.8" y1="460.6" x2="415.8" y2="418.2"/>
	</g>
	<g id="LINE-207">
		<line class="st0" x1="424" y1="619.3" x2="424" y2="550.6"/>
	</g>
	<g id="LINE-208">
		<line class="st0" x1="424" y1="460.6" x2="424" y2="418.2"/>
	</g>
	<g id="LINE-209">
		<line class="st0" x1="432.3" y1="619.8" x2="432.3" y2="550.6"/>
	</g>
	<g id="LINE-210">
		<line class="st0" x1="432.3" y1="460.6" x2="432.3" y2="418.2"/>
	</g>
	<g id="LINE-211">
		<line class="st0" x1="440.5" y1="620.3" x2="440.5" y2="418.2"/>
	</g>
	<g id="LINE-212">
		<line class="st0" x1="448.8" y1="620.8" x2="448.8" y2="562.1"/>
	</g>
	<g id="LINE-213">
		<line class="st0" x1="448.8" y1="449.6" x2="448.8" y2="418.2"/>
	</g>
	<g id="LINE-214">
		<line class="st0" x1="457" y1="621.2" x2="457" y2="562.1"/>
	</g>
	<g id="LINE-215">
		<line class="st0" x1="457" y1="449.6" x2="457" y2="418.2"/>
	</g>
	<g id="LINE-216">
		<line class="st0" x1="465.3" y1="621.7" x2="465.3" y2="562.1"/>
	</g>
	<g id="LINE-217">
		<line class="st0" x1="465.3" y1="449.6" x2="465.3" y2="418.2"/>
	</g>
	<g id="LINE-218">
		<line class="st0" x1="473.5" y1="622.2" x2="473.5" y2="562.1"/>
	</g>
	<g id="LINE-219">
		<line class="st0" x1="473.5" y1="449.6" x2="473.5" y2="418.2"/>
	</g>
	<g id="LINE-220">
		<line class="st0" x1="481.8" y1="622.7" x2="481.8" y2="562.1"/>
	</g>
	<g id="LINE-221">
		<line class="st0" x1="481.8" y1="449.6" x2="481.8" y2="418.2"/>
	</g>
	<g id="LINE-222">
		<line class="st0" x1="490" y1="623.1" x2="490" y2="562.1"/>
	</g>
	<g id="LINE-223">
		<line class="st0" x1="490" y1="449.6" x2="490" y2="418.2"/>
	</g>
	<g id="LINE-224">
		<line class="st0" x1="498.3" y1="623.6" x2="498.3" y2="562.1"/>
	</g>
	<g id="LINE-225">
		<line class="st0" x1="498.3" y1="449.6" x2="498.3" y2="418.2"/>
	</g>
	<g id="LINE-226">
		<line class="st0" x1="506.5" y1="624.1" x2="506.5" y2="562.1"/>
	</g>
	<g id="LINE-227">
		<line class="st0" x1="506.5" y1="449.6" x2="506.5" y2="418.2"/>
	</g>
	<g id="LINE-228">
		<line class="st0" x1="514.8" y1="624.5" x2="514.8" y2="562.1"/>
	</g>
	<g id="LINE-229">
		<line class="st0" x1="514.8" y1="449.6" x2="514.8" y2="418.2"/>
	</g>
	<g id="LINE-230">
		<line class="st0" x1="523" y1="625" x2="523" y2="562.1"/>
	</g>
	<g id="LINE-231">
		<line class="st0" x1="523" y1="449.6" x2="523" y2="418.2"/>
	</g>
	<g id="LINE-232">
		<line class="st0" x1="531.3" y1="625.5" x2="531.3" y2="562.1"/>
	</g>
	<g id="LINE-233">
		<line class="st0" x1="531.3" y1="449.6" x2="531.3" y2="418.2"/>
	</g>
	<g id="LINE-234">
		<line class="st0" x1="539.5" y1="626" x2="539.5" y2="562.1"/>
	</g>
	<g id="LINE-235">
		<line class="st0" x1="539.5" y1="449.6" x2="539.5" y2="418.2"/>
	</g>
	<g id="LINE-236">
		<line class="st0" x1="547.8" y1="614.4" x2="547.8" y2="587.6"/>
	</g>
	<g id="LINE-237">
		<line class="st0" x1="547.8" y1="424.1" x2="547.8" y2="418.2"/>
	</g>
	<g id="LINE-238">
		<line class="st0" x1="547.8" y1="566.6" x2="547.8" y2="562.1"/>
	</g>
	<g id="LINE-239">
		<line class="st0" x1="547.8" y1="449.6" x2="547.8" y2="445.1"/>
	</g>
	<g id="LINE-240">
		<line class="st0" x1="556" y1="614.9" x2="556" y2="587.6"/>
	</g>
	<g id="LINE-241">
		<line class="st0" x1="556" y1="424.1" x2="556" y2="418.2"/>
	</g>
	<g id="LINE-242">
		<line class="st0" x1="556" y1="566.6" x2="556" y2="562.1"/>
	</g>
	<g id="LINE-243">
		<line class="st0" x1="556" y1="449.6" x2="556" y2="445.1"/>
	</g>
	<g id="LINE-244">
		<line class="st0" x1="564.3" y1="615.3" x2="564.3" y2="587.6"/>
	</g>
	<g id="LINE-245">
		<line class="st0" x1="564.3" y1="424.1" x2="564.3" y2="418.2"/>
	</g>
	<g id="LINE-246">
		<line class="st0" x1="564.3" y1="566.6" x2="564.3" y2="562.1"/>
	</g>
	<g id="LINE-247">
		<line class="st0" x1="564.3" y1="449.6" x2="564.3" y2="445.1"/>
	</g>
	<g id="LINE-248">
		<line class="st0" x1="572.5" y1="615.8" x2="572.5" y2="418.2"/>
	</g>
	<g id="LINE-249">
		<line class="st0" x1="56.8" y1="234.2" x2="63.1" y2="240.5"/>
	</g>
	<g id="LINE-250">
		<line class="st0" x1="45.1" y1="234.2" x2="63.1" y2="252.2"/>
	</g>
	<g id="LINE-251">
		<line class="st0" x1="33.5" y1="234.2" x2="63.1" y2="263.9"/>
	</g>
	<g id="LINE-252">
		<line class="st0" x1="22.2" y1="234.7" x2="63.1" y2="275.5"/>
	</g>
	<g id="LINE-253">
		<line class="st0" x1="22.2" y1="246.3" x2="63.1" y2="287.2"/>
	</g>
	<g id="LINE-254">
		<line class="st0" x1="22.2" y1="258" x2="63.1" y2="298.9"/>
	</g>
	<g id="LINE-255">
		<line class="st0" x1="22.2" y1="269.7" x2="52.9" y2="300.3"/>
	</g>
	<g id="LINE-256">
		<line class="st0" x1="22.2" y1="281.3" x2="35.2" y2="294.3"/>
	</g>
	<g id="LINE-257">
		<line class="st0" x1="22.2" y1="293" x2="28.6" y2="299.4"/>
	</g>
	<g id="LINE-258">
		<line class="st0" x1="22.2" y1="304.7" x2="23" y2="305.5"/>
	</g>
	<g id="LINE-259">
		<line class="st0" x1="57.2" y1="362.9" x2="63.1" y2="368.9"/>
	</g>
	<g id="LINE-260">
		<line class="st0" x1="46" y1="363.5" x2="63.1" y2="380.5"/>
	</g>
	<g id="LINE-261">
		<line class="st0" x1="40.2" y1="369.3" x2="63.1" y2="392.2"/>
	</g>
	<g id="LINE-262">
		<line class="st0" x1="22.2" y1="363" x2="63.1" y2="403.9"/>
	</g>
	<g id="LINE-263">
		<line class="st0" x1="22.2" y1="374.7" x2="63.1" y2="415.5"/>
	</g>
	<g id="LINE-264">
		<line class="st0" x1="22.2" y1="386.3" x2="63.1" y2="427.2"/>
	</g>
	<g id="LINE-265">
		<line class="st0" x1="22.2" y1="398" x2="63.1" y2="438.9"/>
	</g>
	<g id="LINE-266">
		<line class="st0" x1="22.2" y1="409.7" x2="63.1" y2="450.5"/>
	</g>
	<g id="LINE-267">
		<line class="st0" x1="22.2" y1="421.3" x2="63.1" y2="462.2"/>
	</g>
	<g id="LINE-268">
		<line class="st0" x1="22.2" y1="433" x2="63.1" y2="473.9"/>
	</g>
	<g id="LINE-269">
		<line class="st0" x1="22.2" y1="444.7" x2="32.9" y2="455.4"/>
	</g>
	<g id="LINE-270">
		<line class="st0" x1="33.2" y1="455.7" x2="63.1" y2="485.5"/>
	</g>
	<g id="LINE-271">
		<line class="st0" x1="33.2" y1="467.4" x2="63.1" y2="497.2"/>
	</g>
	<g id="LINE-272">
		<line class="st0" x1="33.2" y1="479" x2="63.1" y2="508.9"/>
	</g>
	<g id="LINE-273">
		<line class="st0" x1="33.2" y1="490.7" x2="63.1" y2="520.5"/>
	</g>
	<g id="LINE-274">
		<line class="st0" x1="33.2" y1="502.4" x2="63.1" y2="532.2"/>
	</g>
	<g id="LINE-275">
		<line class="st0" x1="33.2" y1="514" x2="63.1" y2="543.9"/>
	</g>
	<g id="LINE-276">
		<line class="st0" x1="33.2" y1="525.7" x2="63.1" y2="555.6"/>
	</g>
	<g id="LINE-277">
		<line class="st0" x1="32.3" y1="536.4" x2="54.5" y2="558.7"/>
	</g>
	<g id="LINE-278">
		<line class="st0" x1="22.2" y1="538" x2="45.1" y2="560.9"/>
	</g>
	<g id="LINE-279">
		<line class="st0" x1="22.2" y1="549.7" x2="31.6" y2="559"/>
	</g>
	<g id="LINE-280">
		<line class="st0" x1="58.5" y1="585.9" x2="63.1" y2="590.6"/>
	</g>
	<g id="LINE-281">
		<line class="st0" x1="33.3" y1="560.7" x2="44.5" y2="572"/>
	</g>
	<g id="LINE-282">
		<line class="st0" x1="33.3" y1="572.4" x2="43.9" y2="583"/>
	</g>
	<g id="LINE-283">
		<line class="st0" x1="61.5" y1="600.7" x2="63.1" y2="602.2"/>
	</g>
	<g id="LINE-284">
		<line class="st0" x1="46.1" y1="585.2" x2="56" y2="595.2"/>
	</g>
	<g id="LINE-285">
		<line class="st0" x1="33.3" y1="584" x2="43.7" y2="594.4"/>
	</g>
	<g id="LINE-286">
		<line class="st0" x1="60.9" y1="611.7" x2="63.1" y2="613.9"/>
	</g>
	<g id="LINE-287">
		<line class="st0" x1="136.4" y1="45.4" x2="144.9" y2="53.9"/>
	</g>
	<g id="LINE-288">
		<line class="st0" x1="124.7" y1="45.4" x2="144.9" y2="65.5"/>
	</g>
	<g id="LINE-289">
		<line class="st0" x1="113.1" y1="45.4" x2="144.9" y2="77.2"/>
	</g>
	<g id="LINE-290">
		<line class="st0" x1="104" y1="48" x2="144.9" y2="88.9"/>
	</g>
	<g id="LINE-291">
		<line class="st0" x1="104" y1="59.7" x2="144.9" y2="100.5"/>
	</g>
	<g id="LINE-292">
		<line class="st0" x1="104" y1="71.3" x2="144.9" y2="112.2"/>
	</g>
	<g id="LINE-293">
		<line class="st0" x1="104" y1="83" x2="144.9" y2="123.9"/>
	</g>
	<g id="LINE-294">
		<line class="st0" x1="104" y1="94.7" x2="144.9" y2="135.5"/>
	</g>
	<g id="LINE-295">
		<line class="st0" x1="104" y1="106.3" x2="144.9" y2="147.2"/>
	</g>
	<g id="LINE-296">
		<line class="st0" x1="104" y1="118" x2="144.9" y2="158.9"/>
	</g>
	<g id="LINE-297">
		<line class="st0" x1="104" y1="129.7" x2="144.9" y2="170.5"/>
	</g>
	<g id="LINE-298">
		<line class="st0" x1="104" y1="141.3" x2="144.3" y2="181.6"/>
	</g>
	<g id="LINE-299">
		<line class="st0" x1="104" y1="153" x2="144.9" y2="193.9"/>
	</g>
	<g id="LINE-300">
		<line class="st0" x1="104" y1="164.7" x2="144.9" y2="205.5"/>
	</g>
	<g id="LINE-301">
		<line class="st0" x1="104" y1="176.3" x2="144.9" y2="217.2"/>
	</g>
	<g id="LINE-302">
		<line class="st0" x1="104" y1="188" x2="144.9" y2="228.9"/>
	</g>
	<g id="LINE-303">
		<line class="st0" x1="104" y1="199.7" x2="144.9" y2="240.5"/>
	</g>
	<g id="LINE-304">
		<line class="st0" x1="104" y1="211.3" x2="144.9" y2="252.2"/>
	</g>
	<g id="LINE-305">
		<line class="st0" x1="104" y1="223" x2="144.9" y2="263.9"/>
	</g>
	<g id="LINE-306">
		<line class="st0" x1="104" y1="234.7" x2="144.9" y2="275.5"/>
	</g>
	<g id="LINE-307">
		<line class="st0" x1="104" y1="246.3" x2="144.9" y2="287.2"/>
	</g>
	<g id="LINE-308">
		<line class="st0" x1="104" y1="258" x2="144.9" y2="298.9"/>
	</g>
	<g id="LINE-309">
		<line class="st0" x1="104" y1="269.7" x2="144.9" y2="310.5"/>
	</g>
	<g id="LINE-310">
		<line class="st0" x1="104" y1="281.3" x2="144.9" y2="322.2"/>
	</g>
	<g id="LINE-311">
		<line class="st0" x1="104" y1="293" x2="144.9" y2="333.9"/>
	</g>
	<g id="LINE-312">
		<line class="st0" x1="104" y1="304.7" x2="144.9" y2="345.5"/>
	</g>
	<g id="LINE-313">
		<line class="st0" x1="104" y1="316.3" x2="144.9" y2="357.2"/>
	</g>
	<g id="LINE-314">
		<line class="st0" x1="104" y1="328" x2="144.9" y2="368.9"/>
	</g>
	<g id="LINE-315">
		<line class="st0" x1="104" y1="339.7" x2="144.9" y2="380.5"/>
	</g>
	<g id="LINE-316">
		<line class="st0" x1="104" y1="351.3" x2="144.9" y2="392.2"/>
	</g>
	<g id="LINE-317">
		<line class="st0" x1="104" y1="363" x2="144.9" y2="403.9"/>
	</g>
	<g id="LINE-318">
		<line class="st0" x1="104" y1="374.7" x2="144.9" y2="415.5"/>
	</g>
	<g id="LINE-319">
		<line class="st0" x1="104" y1="386.3" x2="144.9" y2="427.2"/>
	</g>
	<g id="LINE-320">
		<line class="st0" x1="104" y1="398" x2="144.9" y2="438.9"/>
	</g>
	<g id="LINE-321">
		<line class="st0" x1="104" y1="409.7" x2="144.9" y2="450.5"/>
	</g>
	<g id="LINE-322">
		<line class="st0" x1="104" y1="421.3" x2="125.5" y2="442.9"/>
	</g>
	<g id="LINE-323">
		<line class="st0" x1="143.3" y1="460.6" x2="144.9" y2="462.2"/>
	</g>
	<g id="LINE-324">
		<line class="st0" x1="134.8" y1="452.2" x2="143.3" y2="460.6"/>
	</g>
	<g id="LINE-325">
		<line class="st0" x1="104" y1="433" x2="114.8" y2="443.8"/>
	</g>
	<g id="LINE-326">
		<line class="st0" x1="144.9" y1="473.9" x2="145.1" y2="474.1"/>
	</g>
	<g id="LINE-327">
		<line class="st0" x1="104" y1="444.7" x2="108.9" y2="449.6"/>
	</g>
	<g id="LINE-328">
		<line class="st0" x1="135.6" y1="476.2" x2="144.9" y2="485.5"/>
	</g>
	<g id="LINE-329">
		<line class="st0" x1="126.1" y1="478.4" x2="144.9" y2="497.2"/>
	</g>
	<g id="LINE-330">
		<line class="st0" x1="104" y1="456.3" x2="107.5" y2="459.9"/>
	</g>
	<g id="LINE-331">
		<line class="st0" x1="116.6" y1="480.6" x2="138" y2="502.1"/>
	</g>
	<g id="LINE-332">
		<line class="st0" x1="104" y1="468" x2="107.2" y2="471.2"/>
	</g>
	<g id="LINE-333">
		<line class="st0" x1="104" y1="479.7" x2="105.4" y2="481.1"/>
	</g>
	<g id="LINE-334">
		<line class="st0" x1="107" y1="482.7" x2="125.8" y2="501.5"/>
	</g>
	<g id="LINE-335">
		<line class="st0" x1="104" y1="491.4" x2="113.6" y2="500.9"/>
	</g>
	<g id="LINE-336">
		<line class="st0" x1="104" y1="503" x2="110" y2="509.1"/>
	</g>
	<g id="LINE-337">
		<line class="st0" x1="143.6" y1="542.7" x2="144.9" y2="543.9"/>
	</g>
	<g id="LINE-338">
		<line class="st0" x1="104" y1="514.7" x2="109.5" y2="520.2"/>
	</g>
	<g id="LINE-339">
		<line class="st0" x1="131.4" y1="542.1" x2="144.9" y2="555.6"/>
	</g>
	<g id="LINE-340">
		<line class="st0" x1="104" y1="526.3" x2="109" y2="531.3"/>
	</g>
	<g id="LINE-341">
		<line class="st0" x1="119.2" y1="541.5" x2="136.1" y2="558.5"/>
	</g>
	<g id="LINE-342">
		<line class="st0" x1="104" y1="538" x2="123.8" y2="557.8"/>
	</g>
	<g id="LINE-343">
		<line class="st0" x1="104" y1="549.7" x2="111.4" y2="557.1"/>
	</g>
	<g id="LINE-344">
		<line class="st0" x1="144" y1="613" x2="144.9" y2="613.9"/>
	</g>
	<g id="LINE-345">
		<line class="st0" x1="131.6" y1="612.3" x2="143.7" y2="624.4"/>
	</g>
	<g id="LINE-346">
		<line class="st0" x1="119.2" y1="611.6" x2="131.3" y2="623.7"/>
	</g>
	<g id="LINE-347">
		<line class="st0" x1="106.9" y1="610.9" x2="119" y2="623"/>
	</g>
	<g id="LINE-348">
		<line class="st0" x1="104" y1="619.7" x2="106.6" y2="622.3"/>
	</g>
	<g id="LINE-349">
		<line class="st0" x1="144.9" y1="53.9" x2="153.3" y2="45.4"/>
	</g>
	<g id="LINE-350">
		<line class="st0" x1="144.9" y1="65.5" x2="165" y2="45.4"/>
	</g>
	<g id="LINE-351">
		<line class="st0" x1="144.9" y1="77.2" x2="169.4" y2="52.6"/>
	</g>
	<g id="LINE-352">
		<line class="st0" x1="144.9" y1="88.9" x2="169.4" y2="64.3"/>
	</g>
	<g id="LINE-353">
		<line class="st0" x1="144.9" y1="100.5" x2="169.4" y2="76"/>
	</g>
	<g id="LINE-354">
		<line class="st0" x1="144.9" y1="112.2" x2="169.4" y2="87.6"/>
	</g>
	<g id="LINE-355">
		<line class="st0" x1="144.9" y1="123.9" x2="169.4" y2="99.3"/>
	</g>
	<g id="LINE-356">
		<line class="st0" x1="144.9" y1="135.5" x2="169.4" y2="111"/>
	</g>
	<g id="LINE-357">
		<line class="st0" x1="144.9" y1="147.2" x2="169.4" y2="122.6"/>
	</g>
	<g id="LINE-358">
		<line class="st0" x1="144.9" y1="158.9" x2="169.4" y2="134.3"/>
	</g>
	<g id="LINE-359">
		<line class="st0" x1="144.9" y1="170.5" x2="169.4" y2="146"/>
	</g>
	<g id="LINE-360">
		<line class="st0" x1="146.8" y1="180.2" x2="169.4" y2="157.6"/>
	</g>
	<g id="LINE-361">
		<line class="st0" x1="144.9" y1="193.9" x2="146.5" y2="192.2"/>
	</g>
	<g id="LINE-362">
		<line class="st0" x1="158.5" y1="180.2" x2="169.4" y2="169.3"/>
	</g>
	<g id="LINE-363">
		<line class="st0" x1="144.9" y1="205.5" x2="150.3" y2="200.1"/>
	</g>
	<g id="LINE-364">
		<line class="st0" x1="144.9" y1="217.2" x2="150.3" y2="211.7"/>
	</g>
	<g id="LINE-365">
		<line class="st0" x1="144.9" y1="228.9" x2="150.3" y2="223.4"/>
	</g>
	<g id="LINE-366">
		<line class="st0" x1="144.9" y1="240.5" x2="151.2" y2="234.2"/>
	</g>
	<g id="LINE-367">
		<line class="st0" x1="144.9" y1="252.2" x2="162.8" y2="234.2"/>
	</g>
	<g id="LINE-368">
		<line class="st0" x1="144.9" y1="263.9" x2="174.5" y2="234.2"/>
	</g>
	<g id="LINE-369">
		<line class="st0" x1="144.9" y1="275.5" x2="185.7" y2="234.7"/>
	</g>
	<g id="LINE-370">
		<line class="st0" x1="144.9" y1="287.2" x2="185.7" y2="246.3"/>
	</g>
	<g id="LINE-371">
		<line class="st0" x1="144.9" y1="298.9" x2="185.7" y2="258"/>
	</g>
	<g id="LINE-372">
		<line class="st0" x1="144.9" y1="310.5" x2="150.3" y2="305.1"/>
	</g>
	<g id="LINE-373">
		<line class="st0" x1="161.1" y1="294.2" x2="185.7" y2="269.7"/>
	</g>
	<g id="LINE-374">
		<line class="st0" x1="144.9" y1="322.2" x2="150.3" y2="316.7"/>
	</g>
	<g id="LINE-375">
		<line class="st0" x1="172.8" y1="294.2" x2="185.7" y2="281.3"/>
	</g>
	<g id="LINE-376">
		<line class="st0" x1="144.9" y1="333.9" x2="150.3" y2="328.4"/>
	</g>
	<g id="LINE-377">
		<line class="st0" x1="184.5" y1="294.2" x2="185.7" y2="293"/>
	</g>
	<g id="LINE-378">
		<line class="st0" x1="144.9" y1="345.5" x2="150.3" y2="340.1"/>
	</g>
	<g id="LINE-379">
		<line class="st0" x1="144.9" y1="357.2" x2="150.3" y2="351.7"/>
	</g>
	<g id="LINE-380">
		<line class="st0" x1="144.9" y1="368.9" x2="150.3" y2="363.4"/>
	</g>
	<g id="LINE-381">
		<line class="st0" x1="144.9" y1="380.5" x2="159.5" y2="365.9"/>
	</g>
	<g id="LINE-382">
		<line class="st0" x1="144.9" y1="392.2" x2="169.5" y2="367.5"/>
	</g>
	<g id="LINE-383">
		<line class="st0" x1="144.9" y1="403.9" x2="173.5" y2="375.2"/>
	</g>
	<g id="LINE-384">
		<line class="st0" x1="144.9" y1="415.5" x2="181.8" y2="378.6"/>
	</g>
	<g id="LINE-385">
		<line class="st0" x1="144.9" y1="427.2" x2="185.7" y2="386.3"/>
	</g>
	<g id="LINE-386">
		<line class="st0" x1="144.9" y1="438.9" x2="185.7" y2="398"/>
	</g>
	<g id="LINE-387">
		<line class="st0" x1="144.9" y1="450.5" x2="185.7" y2="409.7"/>
	</g>
	<g id="LINE-388">
		<line class="st0" x1="144.9" y1="462.2" x2="148.9" y2="458.2"/>
	</g>
	<g id="LINE-389">
		<line class="st0" x1="161.4" y1="445.6" x2="185.7" y2="421.3"/>
	</g>
	<g id="LINE-390">
		<line class="st0" x1="146.4" y1="472.4" x2="156.9" y2="461.9"/>
	</g>
	<g id="LINE-391">
		<line class="st0" x1="165.1" y1="453.6" x2="185.7" y2="433"/>
	</g>
	<g id="LINE-392">
		<line class="st0" x1="144.9" y1="485.5" x2="167.9" y2="462.5"/>
	</g>
	<g id="LINE-393">
		<line class="st0" x1="144.9" y1="497.2" x2="166.6" y2="475.5"/>
	</g>
	<g id="LINE-394">
		<line class="st0" x1="151.1" y1="502.7" x2="175.3" y2="478.4"/>
	</g>
	<g id="LINE-395">
		<line class="st0" x1="162.2" y1="503.2" x2="184.1" y2="481.3"/>
	</g>
	<g id="LINE-396">
		<line class="st0" x1="173.4" y1="503.7" x2="185.7" y2="491.4"/>
	</g>
	<g id="LINE-397">
		<line class="st0" x1="144.9" y1="543.9" x2="145.9" y2="542.8"/>
	</g>
	<g id="LINE-398">
		<line class="st0" x1="184.5" y1="504.2" x2="185.7" y2="503"/>
	</g>
	<g id="LINE-399">
		<line class="st0" x1="144.9" y1="555.6" x2="157.1" y2="543.3"/>
	</g>
	<g id="LINE-400">
		<line class="st0" x1="152.6" y1="559.5" x2="168.2" y2="543.8"/>
	</g>
	<g id="LINE-401">
		<line class="st0" x1="163.7" y1="560.1" x2="179.4" y2="544.4"/>
	</g>
	<g id="LINE-402">
		<line class="st0" x1="174.7" y1="560.7" x2="185.7" y2="549.7"/>
	</g>
	<g id="LINE-403">
		<line class="st0" x1="144.9" y1="613.9" x2="145.6" y2="613.1"/>
	</g>
	<g id="LINE-404">
		<line class="st0" x1="145.9" y1="624.5" x2="156.6" y2="613.8"/>
	</g>
	<g id="LINE-405">
		<line class="st0" x1="156.9" y1="625.2" x2="167.7" y2="614.4"/>
	</g>
	<g id="LINE-406">
		<line class="st0" x1="167.9" y1="625.8" x2="178.7" y2="615"/>
	</g>
	<g id="LINE-407">
		<line class="st0" x1="179" y1="626.5" x2="185.7" y2="619.7"/>
	</g>
	<g id="LWPOLYLINE">
		<line class="st0" x1="163.2" y1="45.4" x2="109.2" y2="45.4"/>
	</g>
	<g id="LWPOLYLINE-2">
		<line class="st0" x1="109.2" y1="36.4" x2="163.2" y2="36.4"/>
	</g>
	<g id="LWPOLYLINE-3">
		<line class="st0" x1="178.4" y1="174.2" x2="178.4" y2="121.7"/>
	</g>
	<g id="LWPOLYLINE-4">
		<line class="st0" x1="169.4" y1="121.7" x2="169.4" y2="174.2"/>
	</g>
	<g id="LWPOLYLINE-5">
		<line class="st0" x1="79.4" y1="103.9" x2="79.4" y2="58.9"/>
	</g>
	<g id="LWPOLYLINE-6">
		<line class="st0" x1="71.9" y1="58.9" x2="71.9" y2="103.9"/>
	</g>
	<g id="LWPOLYLINE-7">
		<line class="st0" x1="500.1" y1="418.2" x2="447.6" y2="418.2"/>
	</g>
	<g id="LWPOLYLINE-8">
		<line class="st0" x1="500.1" y1="406.2" x2="447.6" y2="406.2"/>
	</g>
	<g id="LWPOLYLINE-9">
		<line class="st0" x1="283" y1="473" x2="283" y2="563"/>
	</g>
	<g id="LWPOLYLINE-10">
		<line class="st0" x1="292" y1="563" x2="292" y2="473"/>
	</g>
	<g id="LWPOLYLINE-11">
		<line class="st0" x1="378.6" y1="418.2" x2="326.1" y2="418.2"/>
	</g>
	<g id="LWPOLYLINE-12">
		<line class="st0" x1="378.6" y1="409.2" x2="326.1" y2="409.2"/>
	</g>
	<g id="LWPOLYLINE-13">
		<line class="st0" x1="79.4" y1="163.8" x2="79.4" y2="118.8"/>
	</g>
	<g id="LWPOLYLINE-14">
		<line class="st0" x1="71.9" y1="118.8" x2="71.9" y2="163.8"/>
	</g>
	<g id="LWPOLYLINE-15">
		<line class="st0" x1="144.9" y1="45.4" x2="144.9" y2="466.5"/>
	</g>
	<g id="LWPOLYLINE-16">
		<line class="st0" x1="144.9" y1="474.1" x2="144.9" y2="502.4"/>
	</g>
	<g id="LWPOLYLINE-17">
		<line class="st0" x1="144.9" y1="542.7" x2="144.9" y2="559"/>
	</g>
	<g id="LWPOLYLINE-18">
		<line class="st0" x1="144.9" y1="613.1" x2="144.9" y2="624.5"/>
	</g>
	<g id="LWPOLYLINE-19">
		<line class="st0" x1="185.7" y1="234.2" x2="185.7" y2="294.2"/>
	</g>
	<g id="LWPOLYLINE-20">
		<line class="st0" x1="185.7" y1="365.9" x2="185.7" y2="440.1"/>
	</g>
	<g id="LWPOLYLINE-21">
		<line class="st0" x1="185.7" y1="481.9" x2="185.7" y2="504.3"/>
	</g>
	<g id="LWPOLYLINE-22">
		<line class="st0" x1="185.7" y1="544.7" x2="185.7" y2="561.3"/>
	</g>
	<g id="LWPOLYLINE-23">
		<line class="st0" x1="185.7" y1="615.4" x2="185.7" y2="626.8"/>
	</g>
	<g id="LWPOLYLINE-24">
		<line class="st0" x1="226.6" y1="234.2" x2="226.6" y2="294.2"/>
	</g>
	<g id="LWPOLYLINE-25">
		<line class="st0" x1="226.6" y1="365.9" x2="226.6" y2="629.2"/>
	</g>
	<g id="LWPOLYLINE-26">
		<line class="st0" x1="267.5" y1="234.2" x2="267.5" y2="294.2"/>
	</g>
	<g id="LWPOLYLINE-27">
		<line class="st0" x1="267.5" y1="365.9" x2="267.5" y2="607.3"/>
	</g>
	<g id="LWPOLYLINE-28">
		<line class="st0" x1="104" y1="45.4" x2="104" y2="446"/>
	</g>
	<g id="LWPOLYLINE-29">
		<line class="st0" x1="104" y1="473.4" x2="104" y2="556.7"/>
	</g>
	<g id="LWPOLYLINE-30">
		<line class="st0" x1="104" y1="610.7" x2="104" y2="622.1"/>
	</g>
	<g id="LWPOLYLINE-31">
		<line class="st0" x1="63.1" y1="234.2" x2="63.1" y2="300.4"/>
	</g>
	<g id="LWPOLYLINE-32">
		<line class="st0" x1="63.1" y1="362.5" x2="63.1" y2="559.2"/>
	</g>
	<g id="LWPOLYLINE-33">
		<line class="st0" x1="63.1" y1="586.2" x2="63.1" y2="619.8"/>
	</g>
	<g id="LWPOLYLINE-34">
		<line class="st0" x1="22.2" y1="234.2" x2="22.2" y2="306.6"/>
	</g>
	<g id="LWPOLYLINE-35">
		<line class="st0" x1="22.2" y1="316" x2="22.2" y2="346.9"/>
	</g>
	<g id="LWPOLYLINE-36">
		<line class="st0" x1="22.2" y1="356.3" x2="22.2" y2="455.4"/>
	</g>
	<g id="LWPOLYLINE-37">
		<line class="st0" x1="22.2" y1="536.4" x2="22.2" y2="558.5"/>
	</g>
	<g id="LWPOLYLINE-38">
		<line class="st0" x1="300.4" y1="174.4" x2="300.4" y2="138.4"/>
	</g>
	<g id="LWPOLYLINE-39">
		<line class="st0" x1="307.7" y1="138.4" x2="307.7" y2="174.4"/>
	</g>
</g>
<g id="FURNITURE">
	<g id="LWPOLYLINE-40">
		<polygon class="st1" points="43.8,585.1 69.2,586.5 70.8,559.6 45.3,558.1 		"/>
	</g>
	<g id="CIRCLE">
		<path class="st1" d="M165.1,453.5c-0.3,5-4.6,8.7-9.5,8.4c-5-0.3-8.7-4.6-8.4-9.5c0.3-5,4.6-8.7,9.5-8.4
			C161.6,444.2,165.4,448.5,165.1,453.5C165.1,453.5,165.1,453.5,165.1,453.5L165.1,453.5z"/>
	</g>
	<g id="LWPOLYLINE-41">
		<path class="st1" d="M419.1,460.6h24c0.8,0,1.5,0.7,1.5,1.5v87c0,0.8-0.7,1.5-1.5,1.5h-24c-0.8,0-1.5-0.7-1.5-1.5v-87
			C417.6,461.3,418.3,460.6,419.1,460.6z"/>
	</g>
	<g id="LWPOLYLINE-42">
		
			<rect x="118.4" y="514.1" transform="matrix(5.738980e-02 -0.9984 0.9984 5.738980e-02 -448.0954 697.5699)" class="st1" width="54" height="144"/>
	</g>
	<g id="ARC">
		<path class="st1" d="M74.7,368.4c8.8-4.2,15.9-11.4,20.2-20.1"/>
	</g>
	<g id="LWPOLYLINE-43">
		<path class="st1" d="M84.3,337.8l12.7,12.7c-4.4,8.7-11.5,15.7-20.2,20.1l-12.7-12.8L84.3,337.8z"/>
	</g>
	<g id="ARC-2">
		<path class="st1" d="M94.8,314.7c-4.2-8.8-11.4-15.9-20.2-20.1"/>
	</g>
	<g id="CIRCLE-2">
		<path class="st1" d="M241.6,596.5c7.4-0.4,13.1-6.8,12.7-14.3c-0.4-7.4-6.8-13.1-14.3-12.7c-7.4,0.4-13.1,6.8-12.7,14.2
			C227.7,591.2,234.1,596.9,241.6,596.5C241.5,596.5,241.5,596.5,241.6,596.5z"/>
	</g>
	<g id="LWPOLYLINE-44">
		<path class="st1" d="M64.2,305l12.7-12.7c8.7,4.4,15.7,11.5,20.2,20.2l-12.7,12.7L64.2,305z"/>
	</g>
	<g id="ARC-3">
		<path class="st1" d="M41.1,294.5c-8.8,4.2-15.9,11.4-20.1,20.1"/>
	</g>
	<g id="LWPOLYLINE-45">
		<path class="st1" d="M31.4,325.2l-12.7-12.7c4.4-8.7,11.5-15.7,20.2-20.2L51.5,305L31.4,325.2z"/>
	</g>
	<g id="ARC-4">
		<path class="st1" d="M20.9,348.2c4.2,8.8,11.4,15.9,20.1,20.1"/>
	</g>
	<g id="LWPOLYLINE-46">
		<path class="st1" d="M51.5,357.9l-12.7,12.8c-8.7-4.4-15.7-11.5-20.2-20.1l12.7-12.7L51.5,357.9z"/>
	</g>
	<g id="LWPOLYLINE-47">
		<rect x="9.2" y="455.4" class="st1" width="24" height="81"/>
	</g>
	<g id="LWPOLYLINE-48">
		
			<rect x="131.9" y="482.6" transform="matrix(4.993762e-02 -0.9988 0.9988 4.993762e-02 -379.0745 649.9648)" class="st1" width="40.4" height="83.4"/>
	</g>
	<g id="LINE-408">
		<line class="st2" x1="227.3" y1="583" x2="254.3" y2="583"/>
	</g>
	<g id="LINE-409">
		<line class="st2" x1="240.8" y1="596.5" x2="240.8" y2="569.5"/>
	</g>
	<g id="LWPOLYLINE-49">
		<polyline class="st2" points="84,555.5 81.4,600.4 207.2,607.7 209.8,562.7 		"/>
	</g>
	<g id="LWPOLYLINE-50">
		<rect x="540.7" y="566.6" class="st1" width="24" height="21"/>
	</g>
	<g id="LINE-410">
		<line class="st2" x1="165.3" y1="605.2" x2="167.9" y2="560.3"/>
	</g>
	<g id="LWPOLYLINE-51">
		<rect x="542.7" y="424.1" class="st1" width="24" height="21"/>
	</g>
	<g id="CIRCLE-3">
		<path class="st1" d="M26.4,331.5c0-17.4,14.1-31.5,31.5-31.5s31.5,14.1,31.5,31.5S75.3,363,57.9,363S26.4,348.9,26.4,331.5
			L26.4,331.5z"/>
	</g>
	<g id="LINE-411">
		<line class="st2" x1="207.5" y1="603.2" x2="81.7" y2="595.9"/>
	</g>
	<g id="LINE-412">
		<line class="st2" x1="123.4" y1="602.8" x2="125.9" y2="557.9"/>
	</g>
	<g id="CIRCLE-4">
		<path class="st1" d="M545,577.1c0-4.1,3.4-7.5,7.5-7.5s7.5,3.4,7.5,7.5s-3.4,7.5-7.5,7.5l0,0C548.4,584.6,545,581.3,545,577.1z"/>
	</g>
	<g id="LINE-413">
		<line class="st2" x1="524.1" y1="449.6" x2="524.1" y2="562.1"/>
	</g>
	<g id="LINE-414">
		<line class="st2" x1="545" y1="577.1" x2="560" y2="577.1"/>
	</g>
	<g id="LINE-415">
		<line class="st2" x1="552.7" y1="584.6" x2="552.7" y2="569.6"/>
	</g>
	<g id="CIRCLE-5">
		<path class="st1" d="M547,434.5c0-4.1,3.4-7.5,7.5-7.5s7.5,3.4,7.5,7.5s-3.4,7.5-7.5,7.5S547,438.7,547,434.5L547,434.5z"/>
	</g>
	<g id="LWPOLYLINE-52">
		<path class="st1" d="M573.7,449.6l-0.1,112.5H451.3c-2.2-0.3-3.8-2.2-3.7-4.3V453.6c-0.1-2.1,1.6-4,3.7-4H573.7z"/>
	</g>
	<g id="LINE-416">
		<line class="st2" x1="547" y1="434.6" x2="562" y2="434.6"/>
	</g>
	<g id="LINE-417">
		<line class="st2" x1="554.7" y1="427" x2="554.7" y2="442"/>
	</g>
	<g id="LWPOLYLINE-53">
		<polyline class="st1" points="542.1,507.1 564.6,507.1 564.6,559.7 542.1,559.7 		"/>
	</g>
	<g id="LWPOLYLINE-54">
		<polyline class="st1" points="542.1,504.5 564.6,504.5 564.6,452 542.1,452 		"/>
	</g>
	<g id="LWPOLYLINE-55">
		<rect x="567.6" y="449.6" class="st1" width="6" height="112.5"/>
	</g>
	<g id="LINE-418">
		<line class="st2" x1="542.1" y1="449.6" x2="542.1" y2="562.1"/>
	</g>
	<g id="CIRCLE-6">
		<path class="st1" d="M48.5,571.7c0-5,4-9,9-9s9,4,9,9s-4,9-9,9S48.5,576.6,48.5,571.7z"/>
	</g>
	<g id="LINE-419">
		<line class="st2" x1="66.5" y1="571.7" x2="48.5" y2="571.7"/>
	</g>
	<g id="LINE-420">
		<line class="st2" x1="57.5" y1="580.7" x2="57.5" y2="562.7"/>
	</g>
	<g id="LWPOLYLINE-56">
		<path class="st1" d="M101.6,460.8c-2.5-10.9,4.3-21.7,15.2-24.2s21.7,4.3,24.2,15.2l5.4,20.4v0c0.2,0.8-0.3,1.6-1.1,1.8
			c0,0,0,0,0,0l-37.9,8.7l0,0c-0.8,0.2-1.6-0.4-1.8-1.2c0,0,0,0,0,0L101.6,460.8z"/>
	</g>
	<g id="LWPOLYLINE-57">
		<path class="st1" d="M135.1,453.2l1.8,6.6c1.3,2.9,4.3,4.7,7.4,4.6l-3.7-13.8c-3.1-10.7-14.4-16.8-25.1-13.7
			c-9.8,2.9-15.9,12.6-14.2,22.7l2.7,14c2.9-1.3,4.8-4.2,4.7-7.3l-1.3-6.8c-1.7-7.6,3-15.2,10.7-17S133.4,445.6,135.1,453.2
			L135.1,453.2L135.1,453.2z"/>
	</g>
	<g id="LWPOLYLINE-58">
		<path class="st1" d="M209.7,466c3.4-10.6-2.4-22-13-25.4c-10.5-3.4-21.8,2.3-25.4,12.7L164,473c-0.3,0.8,0.1,1.6,0.9,1.9l0,0
			l36.9,12.2c0.8,0.3,1.6-0.2,1.9-1v-0.1L209.7,466z"/>
	</g>
	<g id="LWPOLYLINE-59">
		<path class="st1" d="M177,455.2l-2.4,6.5c-1.6,2.7-4.7,4.2-7.8,3.8l5-13.4c4.2-10.3,16-15.2,26.4-11c9.3,3.8,14.4,14,11.9,23.7
			l-4,13.7c-2.8-1.5-4.4-4.6-4-7.8l1.9-6.6c2.5-7.5-1.6-15.5-9-18S179.4,447.8,177,455.2L177,455.2L177,455.2z"/>
	</g>
	<g id="ARC-5">
		<path class="st1" d="M169.4,365.9c0,7,5.7,12.8,12.8,12.8s12.8-5.7,12.8-12.8"/>
	</g>
	<g id="ARC-6">
		<path class="st1" d="M200.9,365.9c0,7,5.7,12.8,12.8,12.8s12.8-5.7,12.8-12.8"/>
	</g>
	<g id="ARC-7">
		<path class="st1" d="M257.9,365.9c0,7-5.7,12.8-12.7,12.8s-12.8-5.7-12.8-12.8"/>
	</g>
</g>
<g id="BATH_GLAZING">
	<g id="LINE-421">
		<line class="st3" x1="520.9" y1="313.2" x2="520.9" y2="400.2"/>
		<line class="st3" x1="522.6" y1="313.2" x2="522.6" y2="400.2"/>
	</g>
	<line class="st3" x1="522.6" y1="382.9" x2="520.9" y2="382.9"/>
</g>
<g id="BATH_FIXTURES">
	<g id="ELLIPSE">
		<path class="st4" d="M544.4,313.4v6.5c-0.8,0.1-1.4,0.3-1.4,0.5l-0.3,5.3l0,0c0,0.2,1,0.3,2.3,0.3s2.2-0.1,2.2-0.3l0,0l-0.3-5.3
			c0-0.2-0.6-0.4-1.4-0.5v-6.5"/>
	</g>
	<g id="LWPOLYLINE-60">
		<path class="st4" d="M560.3,319.1h-3c-0.6,0-1.2-0.5-1.2-1.1c0,0,0,0,0,0c0-0.3,0.1-0.6,0.3-0.8v-3.9h1.7v3.5h2.2
			c0.6,0,1.2,0.5,1.2,1.1C561.5,318.6,561,319.1,560.3,319.1C560.3,319.1,560.3,319.1,560.3,319.1L560.3,319.1z"/>
	</g>
	<path class="st5" d="M535.8,313.2v1.1h-1.3v1.1c0,0.3-0.3,0.6-0.6,0.6h-0.3v1.3c0,0.3-0.2,0.6-0.5,0.6c-0.3,0-0.6-0.2-0.6-0.5
		c0,0,0-0.1,0-0.1V316h-0.3c-0.3,0-0.6-0.3-0.6-0.6v-1.1h-1.3v-1.1"/>
	<g id="LWPOLYLINE-61">
		<polyline class="st2" points="504.8,272.7 504.8,278.7 504.2,278.7 		"/>
	</g>
	<g id="LWPOLYLINE-62">
		<line class="st2" x1="408.4" y1="278.7" x2="408.4" y2="272.7"/>
	</g>
	<g id="LWPOLYLINE-63">
		<rect x="408.4" y="277.1" class="st2" width="45.6" height="1.5"/>
	</g>
	<g id="LWPOLYLINE-64">
		<rect x="459.2" y="277.1" class="st2" width="45.6" height="1.5"/>
	</g>
	<g id="LINE-422">
		<line class="st2" x1="510.1" y1="278.7" x2="504.8" y2="278.7"/>
	</g>
	<g id="LINE-423">
		<line class="st2" x1="408.4" y1="278.7" x2="403.2" y2="278.7"/>
	</g>
	<g id="LINE-424">
		<line class="st2" x1="510.6" y1="278.7" x2="402.6" y2="278.7"/>
	</g>
	<g id="LINE-425">
		<line class="st2" x1="454" y1="278.7" x2="454" y2="272.5"/>
	</g>
	<g id="LINE-426">
		<line class="st2" x1="459.2" y1="272.5" x2="459.2" y2="278.7"/>
	</g>
	<g id="ELLIPSE-2">
		<path class="st2" d="M256.1,94.8c0,6.6,8.1,12,18,12s18-5.4,18-12s-8.1-12-18-12S256.1,88.2,256.1,94.8z"/>
	</g>
	<line class="st2" x1="510.6" y1="313.2" x2="402.6" y2="313.2"/>
	<g id="LINE-427">
		<line class="st2" x1="567.6" y1="400.2" x2="530.1" y2="400.2"/>
	</g>
	<g id="LWPOLYLINE-65">
		<path class="st2" d="M245.3,80.2c0.1-0.1,0.2-0.1,0.4-0.2c0.7-0.3,1.1-1.1,1-1.8c-0.1-1.6-0.2-3.3-0.4-4.9
			c-0.1-0.6-0.6-1.1-1.2-1.1H225c-0.6,0-1.1,0.5-1.2,1.1c-0.1,1.6-0.3,3.3-0.4,4.9c-0.1,0.7,0.3,1.5,1,1.8l0.4,0.2"/>
	</g>
	<g id="LWPOLYLINE-66">
		<path class="st2" d="M245.3,80.2c-6.4,3-13.8,3-20.2,0.1"/>
	</g>
	<g id="LWPOLYLINE-67">
		<path class="st2" d="M224.8,80.2c-0.2,5.9-0.3,11.8-0.3,17.8c0,3,0.6,5.9,1.8,8.7c0.9,2.1,2.2,3.9,3.9,5.3c2.8,2.4,7,2.4,9.8,0
			c1.7-1.5,3-3.3,3.9-5.3c1.2-2.7,1.8-5.7,1.8-8.7c0-5.9-0.1-11.8-0.3-17.8"/>
	</g>
	<g id="LWPOLYLINE-68">
		<path class="st2" d="M430.9,398.2l0.4,0.2c0.7,0.3,1.1,1.1,1,1.8c-0.1,1.6-0.2,3.3-0.4,4.9c-0.1,0.6-0.6,1.1-1.2,1.1h-20.1
			c-0.6,0-1.1-0.5-1.2-1.1c-0.1-1.6-0.3-3.3-0.4-4.9c-0.1-0.7,0.3-1.5,1-1.8l0.4-0.2"/>
	</g>
	<g id="LWPOLYLINE-69">
		<path class="st2" d="M430.8,398.2c-6.4-3-13.8-3-20.2-0.1"/>
	</g>
	<g id="LWPOLYLINE-70">
		<path class="st2" d="M410.4,398.2c-0.2-5.9-0.3-11.8-0.3-17.8c0-3,0.6-5.9,1.8-8.6c0.9-2.1,2.2-3.9,3.9-5.3c2.8-2.4,7-2.4,9.8,0
			c1.7,1.5,3,3.3,3.9,5.3c1.2,2.7,1.8,5.7,1.8,8.6c0,5.9-0.1,11.8-0.3,17.8"/>
	</g>
</g>
<g id="HANGERS">
	<g id="LINE-428">
		<line class="st6" x1="39.7" y1="146.4" x2="66.7" y2="156.7"/>
	</g>
	<g id="LINE-429">
		<line class="st6" x1="39.7" y1="152.1" x2="66.7" y2="162.4"/>
	</g>
	<g id="LINE-430">
		<line class="st6" x1="39.7" y1="139.9" x2="66.7" y2="139.9"/>
	</g>
	<g id="LINE-431">
		<line class="st6" x1="39.7" y1="143.8" x2="66.7" y2="143.8"/>
	</g>
	<g id="LINE-432">
		<line class="st6" x1="39.7" y1="136.1" x2="66.7" y2="136.1"/>
	</g>
	<g id="LINE-433">
		<line class="st6" x1="39.7" y1="132.2" x2="66.7" y2="132.2"/>
	</g>
	<g id="LINE-434">
		<line class="st6" x1="39.7" y1="128.3" x2="66.7" y2="128.3"/>
	</g>
	<g id="LINE-435">
		<line class="st6" x1="329.7" y1="281.9" x2="340" y2="308.9"/>
	</g>
	<g id="LINE-436">
		<line class="st6" x1="335.5" y1="281.9" x2="345.8" y2="308.9"/>
	</g>
	<g id="LINE-437">
		<line class="st6" x1="323.3" y1="281.9" x2="323.3" y2="308.9"/>
	</g>
	<g id="LINE-438">
		<line class="st6" x1="327.1" y1="281.9" x2="327.1" y2="308.9"/>
	</g>
	<g id="LINE-439">
		<line class="st6" x1="323.3" y1="281.9" x2="323.3" y2="308.9"/>
	</g>
	<g id="LINE-440">
		<line class="st6" x1="319.4" y1="281.9" x2="319.4" y2="308.9"/>
	</g>
	<g id="LINE-441">
		<line class="st6" x1="295.1" y1="374.3" x2="322.1" y2="374.3"/>
	</g>
	<g id="LINE-442">
		<line class="st6" x1="295.1" y1="352.3" x2="322.1" y2="342"/>
	</g>
	<g id="LINE-443">
		<line class="st6" x1="295.1" y1="346.6" x2="322.1" y2="336.3"/>
	</g>
	<g id="LINE-444">
		<line class="st6" x1="295.1" y1="358.8" x2="322.1" y2="358.8"/>
	</g>
	<g id="LINE-445">
		<line class="st6" x1="295.1" y1="354.9" x2="322.1" y2="354.9"/>
	</g>
	<g id="LINE-446">
		<line class="st6" x1="295.1" y1="378.1" x2="322.1" y2="378.1"/>
	</g>
	<g id="LINE-447">
		<line class="st6" x1="295.1" y1="374.3" x2="322.1" y2="374.3"/>
	</g>
	<g id="LINE-448">
		<line class="st6" x1="295.1" y1="370.4" x2="322.1" y2="370.4"/>
	</g>
	<g id="LINE-449">
		<line class="st6" x1="295.1" y1="366.5" x2="322.1" y2="366.5"/>
	</g>
	<g id="LINE-450">
		<line class="st6" x1="295.1" y1="358.8" x2="322.1" y2="358.8"/>
	</g>
	<g id="LINE-451">
		<line class="st6" x1="295.1" y1="362.6" x2="322.1" y2="362.6"/>
	</g>
</g>
<g id="RODS">
	<g id="LWPOLYLINE-71">
		<line class="st5" x1="51.8" y1="177.7" x2="51.8" y2="112.2"/>
	</g>
	<g id="LWPOLYLINE-72">
		<line class="st5" x1="54.8" y1="177.4" x2="54.8" y2="112.2"/>
	</g>
	<g id="LINE-452">
		<polyline class="st5" points="386.6,296.9 310.3,296.9 310.3,414 		"/>
	</g>
	<g id="LINE-453">
		<polyline class="st5" points="386.6,293.9 307.3,293.9 307.3,413.1 		"/>
	</g>
</g>
<g id="KITCHEN">
	<g id="LINE-454">
		<polyline class="st7" points="270.5,235.8 270.5,234.4 268.2,234.4 268.2,235.8 		"/>
	</g>
	<rect x="234.6" y="234.4" class="st7" width="2.2" height="1.4"/>
	<rect x="233.7" y="235.8" class="st7" width="37.9" height="1.5"/>
	<g id="LWPOLYLINE-73">
		<rect x="150.3" y="294.2" class="st8" width="132.7" height="71.6"/>
	</g>
	<g id="LINE-455">
		<line class="st8" x1="157.8" y1="234.2" x2="275.5" y2="234.2"/>
	</g>
	<g id="LINE-456">
		<line class="st8" x1="229.8" y1="192.2" x2="229.8" y2="234.1"/>
	</g>
	<line class="st8" x1="229.6" y1="196.8" x2="157.8" y2="196.8"/>
	<g id="LINE-457">
		<line class="st8" x1="71.9" y1="234.2" x2="9.2" y2="234.2"/>
	</g>
</g>
<g id="APPLIANCES">
	<g id="LINE-458">
		<line class="st3" x1="68.7" y1="99.2" x2="68.7" y2="63.9"/>
	</g>
	<g id="LINE-459">
		<line class="st3" x1="67.2" y1="63.9" x2="35" y2="63.9"/>
	</g>
	<g id="LINE-460">
		<line class="st3" x1="35" y1="63.9" x2="35" y2="99.2"/>
	</g>
	<g id="LINE-461">
		<line class="st3" x1="35" y1="99.2" x2="67.2" y2="99.2"/>
	</g>
	<g id="LINE-462">
		<line class="st3" x1="68.7" y1="99.2" x2="67.2" y2="99.2"/>
	</g>
	<g id="LINE-463">
		<line class="st3" x1="68.7" y1="63.9" x2="67.2" y2="63.9"/>
	</g>
	<g id="LINE-464">
		<line class="st3" x1="69.9" y1="81.6" x2="69.9" y2="70.1"/>
	</g>
	<g id="LINE-465">
		<line class="st3" x1="69.9" y1="70.1" x2="68.7" y2="70.1"/>
	</g>
	<g id="LINE-466">
		<line class="st3" x1="69.9" y1="81.6" x2="69.9" y2="93"/>
	</g>
	<g id="LINE-467">
		<line class="st3" x1="69.9" y1="93" x2="68.7" y2="93"/>
	</g>
	<polyline class="st9" points="156.3,294.2 156.3,327.9 191.7,327.9 191.7,294.5 	"/>
	<polyline class="st9" points="283,327.9 246.8,327.9 246.8,294.5 	"/>
	<path class="st6" d="M180.3,210.9c-1.3,0-2.4-1.1-2.4-2.4c0-1.3,1.1-2.4,2.4-2.4c1.3,0,2.4,1.1,2.4,2.4
		C182.6,209.8,181.6,210.9,180.3,210.9z"/>
	<path class="st6" d="M197.9,210.9c-1.3,0-2.4-1.1-2.4-2.4c0-1.3,1.1-2.4,2.4-2.4c1.3,0,2.4,1.1,2.4,2.4c0,0,0,0,0,0
		C200.3,209.8,199.3,210.9,197.9,210.9z"/>
	<path class="st6" d="M180.3,226.1c-1.3,0-2.4-1.1-2.4-2.4c0-1.3,1.1-2.4,2.4-2.4c1.3,0,2.4,1.1,2.4,2.4
		C182.6,225.1,181.6,226.1,180.3,226.1z"/>
	<path class="st6" d="M197.9,226.1c-1.3,0-2.4-1.1-2.4-2.4c0-1.3,1.1-2.4,2.4-2.4c1.3,0,2.4,1.1,2.4,2.4c0,0,0,0,0,0
		C200.3,225.1,199.3,226.1,197.9,226.1z"/>
	<line class="st6" x1="189" y1="231.3" x2="171.5" y2="216.1"/>
	<g id="LINE-468">
		<line class="st6" x1="189" y1="232.1" x2="189" y2="200"/>
	</g>
	<rect x="171.5" y="200.8" class="st6" width="35.3" height="30.6"/>
	<line class="st6" x1="171.5" y1="216.1" x2="206.9" y2="216.1"/>
	<g id="CIRCLE-7">
		<path class="st6" d="M210.3,214.3c0-0.8,0.6-1.4,1.4-1.4s1.4,0.6,1.4,1.4s-0.6,1.4-1.4,1.4c0,0,0,0,0,0
			C210.9,215.7,210.3,215.1,210.3,214.3L210.3,214.3z"/>
	</g>
	<g id="CIRCLE-8">
		<path class="st6" d="M210.3,218.9c0-0.8,0.6-1.4,1.4-1.4s1.4,0.6,1.4,1.4s-0.6,1.4-1.4,1.4c0,0,0,0,0,0
			C210.9,220.2,210.3,219.6,210.3,218.9L210.3,218.9z"/>
	</g>
	<g id="CIRCLE-9">
		<path class="st6" d="M210.3,223.5c0-0.8,0.6-1.4,1.4-1.4s1.4,0.6,1.4,1.4s-0.6,1.4-1.4,1.4c0,0,0,0,0,0
			C210.9,224.9,210.3,224.3,210.3,223.5L210.3,223.5z"/>
	</g>
	<g id="CIRCLE-10">
		<path class="st6" d="M210.3,227.9c0-0.8,0.6-1.4,1.4-1.4c0.8,0,1.4,0.6,1.4,1.4c0,0.8-0.6,1.4-1.4,1.4c0,0,0,0,0,0
			C210.9,229.3,210.3,228.7,210.3,227.9C210.3,227.9,210.3,227.9,210.3,227.9z"/>
	</g>
	<rect x="170.3" y="200" class="st6" width="45" height="32.1"/>
	<line class="st6" x1="171.5" y1="231.3" x2="189" y2="216.1"/>
	<line class="st6" x1="206.9" y1="200.8" x2="189" y2="216.1"/>
	<line class="st6" x1="189" y1="200.8" x2="206.9" y2="216.1"/>
	<line class="st6" x1="171.5" y1="200.8" x2="189" y2="216.1"/>
	<line class="st6" x1="171.5" y1="216.1" x2="189" y2="200.8"/>
	<line class="st6" x1="206.9" y1="231.3" x2="189" y2="216.1"/>
	<line class="st6" x1="206.9" y1="216.1" x2="189" y2="231.3"/>
</g>
<g id="SINKS">
	<g id="SPLINE">
		<path class="st6" d="M444.4,288.6c0,0,0-0.1,0-0.1c0,0,0,0,0-0.1s0,0,0,0c0,0,0-0.1-0.1-0.1v0l0,0l-0.1-0.1c0,0-0.1,0-0.1-0.1h0
			H444"/>
	</g>
	<g id="SPLINE-2">
		<path class="st6" d="M443.9,307.2h0.2h0.1c0,0,0.1,0,0.1-0.1h0l0,0l0.1-0.1c0,0,0-0.1,0.1-0.1c0,0,0,0,0,0s0,0,0-0.1
			c0,0,0-0.1,0-0.1"/>
	</g>
	<g id="SPLINE-3">
		<path class="st6" d="M415.2,306.6c0,0,0,0.1,0,0.1c0,0,0,0,0,0c0,0,0,0,0,0.1l0,0.1v0l0,0l0.1,0.1c0,0,0.1,0,0.1,0.1h0.1h0.2"/>
	</g>
	<g id="SPLINE-4">
		<path class="st6" d="M415.8,288h-0.2h-0.1l-0.1,0.1l0,0h0l-0.1,0.1c0,0,0,0.1,0,0.1v0c0,0,0,0,0,0.1c0,0,0,0.1,0,0.1"/>
	</g>
	<g id="ELLIPSE-3">
		<path class="st6" d="M415.2,288.6L415.2,288.6"/>
	</g>
	<g id="ELLIPSE-4">
		<path class="st6" d="M415.2,306.5L415.2,306.5"/>
	</g>
	<g id="LINE-469">
		<line class="st6" x1="415.2" y1="288.7" x2="415.2" y2="306.5"/>
	</g>
	<g id="ELLIPSE-5">
		<path class="st6" d="M444.4,288.7L444.4,288.7"/>
	</g>
	<g id="LINE-470">
		<line class="st6" x1="444.5" y1="288.7" x2="444.5" y2="306.5"/>
	</g>
	<g id="ELLIPSE-6">
		<path class="st6" d="M444.4,306.6L444.4,306.6"/>
	</g>
	<g id="LINE-471">
		<line class="st6" x1="443.8" y1="307.2" x2="415.8" y2="307.2"/>
	</g>
	<g id="ELLIPSE-7">
		<path class="st6" d="M443.9,288L443.9,288"/>
	</g>
	<g id="ELLIPSE-8">
		<path class="st6" d="M415.8,288L415.8,288"/>
	</g>
	<g id="LINE-472">
		<line class="st6" x1="443.8" y1="288" x2="415.8" y2="288"/>
	</g>
	<g id="LWPOLYLINE-74">
		<polyline class="st6" points="429,286.1 428.5,286.1 428.5,282.9 431.7,282.9 431.7,286.1 431.2,286.1 		"/>
	</g>
	<g id="LWPOLYLINE-75">
		<rect x="429" y="284.3" class="st10" width="2.2" height="12"/>
	</g>
	<g id="LWPOLYLINE-76">
		<rect x="434.5" y="282.9" class="st6" width="3.2" height="3.2"/>
	</g>
	<g id="LWPOLYLINE-77">
		<rect x="422.5" y="282.9" class="st6" width="3.2" height="3.2"/>
	</g>
	<g id="LWPOLYLINE-78">
		<rect x="422.5" y="284.1" class="st6" width="3.2" height="0.8"/>
	</g>
	<g id="LWPOLYLINE-79">
		<rect x="434.5" y="284.1" class="st6" width="3.2" height="0.8"/>
	</g>
	<g id="SPLINE-5">
		<path class="st6" d="M468.4,288.6c0,0,0-0.1,0-0.1c0,0,0,0,0-0.1v0c0,0,0-0.1,0-0.1v0l0,0l0.1-0.1c0,0,0.1,0,0.1-0.1h0.1h0.2"/>
	</g>
	<g id="SPLINE-6">
		<path class="st6" d="M469,307.2h-0.2h-0.1l-0.1-0.1l0,0h0l-0.1-0.2c0,0,0-0.1,0-0.1v0c0,0,0,0,0-0.1c0,0,0-0.1,0-0.1"/>
	</g>
	<g id="SPLINE-7">
		<path class="st6" d="M497.7,306.6c0,0,0,0.1,0,0.1c0,0,0,0,0,0v0.1c0,0,0,0.1-0.1,0.1v0l0,0l-0.1,0.1c0,0-0.1,0-0.1,0.1h0h-0.2"/>
	</g>
	<g id="SPLINE-8">
		<path class="st6" d="M497.1,288h0.2h0.1c0,0,0.1,0,0.1,0.1h0l0,0l0.1,0.1c0,0,0,0.1,0.1,0.1c0,0,0,0,0,0s0,0,0,0.1
			c0,0,0,0.1,0,0.1"/>
	</g>
	<g id="ELLIPSE-9">
		<path class="st6" d="M497.7,288.6L497.7,288.6"/>
	</g>
	<g id="ELLIPSE-10">
		<path class="st6" d="M497.7,306.5L497.7,306.5"/>
	</g>
	<g id="LINE-473">
		<line class="st6" x1="497.7" y1="288.7" x2="497.7" y2="306.5"/>
	</g>
	<g id="ELLIPSE-11">
		<path class="st6" d="M468.4,288.7L468.4,288.7"/>
	</g>
	<g id="LINE-474">
		<line class="st6" x1="468.5" y1="288.7" x2="468.5" y2="306.5"/>
	</g>
	<g id="ELLIPSE-12">
		<path class="st6" d="M468.4,306.6L468.4,306.6"/>
	</g>
	<g id="LINE-475">
		<line class="st6" x1="469.1" y1="307.2" x2="497.1" y2="307.2"/>
	</g>
	<g id="ELLIPSE-13">
		<path class="st6" d="M469,288L469,288"/>
	</g>
	<g id="ELLIPSE-14">
		<path class="st6" d="M497.1,288L497.1,288"/>
	</g>
	<g id="LINE-476">
		<line class="st6" x1="469.1" y1="288" x2="497.1" y2="288"/>
	</g>
	<g id="LWPOLYLINE-80">
		<polyline class="st6" points="484.3,286.1 484.8,286.1 484.8,282.9 481.6,282.9 481.6,286.1 482,286.1 		"/>
	</g>
	<g id="LWPOLYLINE-81">
		<rect x="482" y="284.3" class="st10" width="2.2" height="12"/>
	</g>
	<g id="LWPOLYLINE-82">
		<rect x="475.6" y="282.9" class="st6" width="3.2" height="3.2"/>
	</g>
	<g id="LWPOLYLINE-83">
		<rect x="487.6" y="282.9" class="st6" width="3.2" height="3.2"/>
	</g>
	<g id="LWPOLYLINE-84">
		<rect x="487.6" y="284.1" class="st6" width="3.2" height="0.8"/>
	</g>
	<g id="LWPOLYLINE-85">
		<rect x="475.6" y="284.1" class="st6" width="3.2" height="0.8"/>
	</g>
	<g id="LWPOLYLINE-86">
		<rect x="213.1" y="323.9" class="st6" width="1.7" height="3"/>
	</g>
	<g id="LWPOLYLINE-87">
		<polyline class="st6" points="213.1,324.1 212.6,324.1 212.6,326.7 213.1,326.7 		"/>
	</g>
	<g id="LWPOLYLINE-88">
		<polyline class="st6" points="214.8,326.7 215.2,326.7 215.2,324.1 214.8,324.1 		"/>
	</g>
	<g id="LINE-477">
		<line class="st6" x1="214.8" y1="324.3" x2="213.1" y2="324.3"/>
	</g>
	<g id="CIRCLE-11">
		<path class="st6" d="M225.9,326.6c0.6,0,1.1-0.5,1.1-1.1c0-0.6-0.5-1.1-1.1-1.1c-0.6,0-1.1,0.5-1.1,1.1S225.3,326.6,225.9,326.6
			C225.9,326.6,225.9,326.6,225.9,326.6z"/>
	</g>
	<g id="LWPOLYLINE-89">
		<polyline class="st6" points="219.2,324.1 218.6,324.1 218.6,326.7 221.2,326.7 221.2,324.1 220.7,324.1 		"/>
	</g>
	<g id="LWPOLYLINE-90">
		<polyline class="st6" points="225.6,324.1 224.6,324.1 224.6,326.7 227.2,326.7 227.2,324.1 226.2,324.1 		"/>
	</g>
	<g id="LWPOLYLINE-91">
		<polyline class="st6" points="225.6,324.3 225.6,322.5 226.2,322.5 226.2,324.3 		"/>
	</g>
	<rect x="233.6" y="323.2" class="st6" width="4.3" height="4.3"/>
	<g id="LWPOLYLINE-92">
		<rect x="219.2" y="312.7" class="st6" width="1.5" height="13.5"/>
	</g>
	<g id="LWPOLYLINE-93">
		<polyline class="st6" points="219.2,322.4 197.4,322.4 197.4,296.9 242.4,296.9 242.4,322.4 220.7,322.4 		"/>
	</g>
	<rect x="236.1" y="325" class="st6" width="1.2" height="0.8"/>
	<line class="st6" x1="237.6" y1="325.9" x2="237.6" y2="324.9"/>
	<rect x="234" y="313.8" class="st6" width="1.7" height="12.2"/>
	<g id="LWPOLYLINE-94">
		<rect x="276.7" y="80.5" class="st6" width="3.8" height="0.4"/>
	</g>
	<g id="LWPOLYLINE-95">
		<rect x="272.2" y="80.5" class="st6" width="3.8" height="0.4"/>
	</g>
	<g id="LWPOLYLINE-96">
		<rect x="267.7" y="80.5" class="st6" width="3.8" height="0.4"/>
	</g>
	<g id="LWPOLYLINE-97">
		<polyline class="st10" points="279.8,80.8 279.8,84.6 277.3,84.6 277.3,80.8 		"/>
	</g>
	<g id="LWPOLYLINE-98">
		<polyline class="st10" points="268.3,80.8 268.3,84.6 270.8,84.6 270.8,80.8 		"/>
	</g>
	<g id="LINE-478">
		<polyline class="st10" points="274.6,80 274.6,92.8 273.5,92.8 273.5,79.9 		"/>
	</g>
	<g id="ELLIPSE-15">
		<path class="st6" d="M261,94.8c0,5,5.9,9,13.1,9s13.1-4,13.1-9s-5.9-9-13.1-9S261,89.8,261,94.8z"/>
	</g>
</g>
<g id="SILLS">
	<g id="LWPOLYLINE-99">
		<line class="st8" x1="232.6" y1="629.5" x2="60.4" y2="619.6"/>
	</g>
	<g id="LINE-479">
		<line class="st8" x1="49" y1="641.2" x2="240.8" y2="652.2"/>
	</g>
	<g id="LWPOLYLINE-100">
		<line class="st8" x1="541.7" y1="625.9" x2="369.5" y2="616"/>
	</g>
	<g id="LINE-480">
		<line class="st8" x1="358" y1="637.6" x2="549.9" y2="648.5"/>
	</g>
</g>
<g id="WINDOW_GLAZING">
	<line class="st11" x1="67.2" y1="627.5" x2="124.3" y2="630.9"/>
	<line class="st11" x1="67.2" y1="629.8" x2="124.3" y2="633.2"/>
	<line class="st11" x1="167.8" y1="633.2" x2="224.9" y2="636.7"/>
	<line class="st11" x1="167.8" y1="635.5" x2="224.9" y2="638.9"/>
	<line class="st11" x1="376.3" y1="623.9" x2="433.3" y2="627.3"/>
	<line class="st11" x1="376.3" y1="626.1" x2="433.3" y2="629.5"/>
	<line class="st11" x1="476.9" y1="629.6" x2="533.9" y2="633"/>
	<line class="st11" x1="476.9" y1="631.9" x2="533.9" y2="635.3"/>
</g>
<g id="MULLIONS">
	<g id="LWPOLYLINE-101">
		<polygon class="st2" points="63.4,632.8 59.6,632.6 60.1,624 63.9,624.2 		"/>
		<polyline class="st2" points="63.7,629.8 67.2,630 67.4,627.4 63.8,627.2 		"/>
	</g>
	<g id="LWPOLYLINE-102">
		<polygon class="st2" points="128.3,628 132.1,628.2 131.6,636.8 127.7,636.6 		"/>
		<polyline class="st2" points="128,631 124.4,630.8 124.3,633.4 127.9,633.6 		"/>
	</g>
	<g id="LWPOLYLINE-103">
		<polyline class="st2" points="131.6,636.9 59.6,632.6 60.1,624 132.1,628.3 		"/>
	</g>
	<g id="LWPOLYLINE-104">
		<polygon class="st2" points="164,638.5 160.2,638.3 160.6,629.7 164.5,630 		"/>
		<polyline class="st2" points="164.2,635.6 167.8,635.8 168,633.2 164.4,633 		"/>
	</g>
	<g id="LWPOLYLINE-105">
		<polygon class="st2" points="228.8,633.8 232.7,634 232.2,642.6 228.3,642.4 		"/>
		<polyline class="st2" points="228.6,636.7 225,636.5 224.9,639.1 228.4,639.3 		"/>
	</g>
	<g id="LWPOLYLINE-106">
		<polyline class="st2" points="232.2,642.7 160.2,638.3 160.6,629.7 232.7,634 		"/>
	</g>
	<g id="LWPOLYLINE-107">
		<polygon class="st2" points="372.5,629.2 368.6,629 369.1,620.4 373,620.6 		"/>
		<polyline class="st2" points="372.7,626.2 376.3,626.4 376.5,623.8 372.9,623.6 		"/>
	</g>
	<g id="LWPOLYLINE-108">
		<polygon class="st2" points="437.3,624.4 441.1,624.6 440.6,633.2 436.8,633 		"/>
		<polyline class="st2" points="437.1,627.3 433.5,627.1 433.3,629.8 436.9,630 		"/>
	</g>
	<g id="LWPOLYLINE-109">
		<polyline class="st2" points="440.6,633.3 368.6,629 369.1,620.4 441.1,624.7 		"/>
	</g>
	<g id="LWPOLYLINE-110">
		<polygon class="st2" points="473,634.9 469.2,634.7 469.7,626.1 473.6,626.3 		"/>
		<polyline class="st2" points="473.3,632 476.9,632.2 477,629.5 473.4,629.3 		"/>
	</g>
	<g id="LWPOLYLINE-111">
		<polygon class="st2" points="537.9,630.1 541.7,630.3 541.2,638.9 537.4,638.7 		"/>
		<polyline class="st2" points="537.7,633.1 534.1,632.9 533.9,635.5 537.5,635.7 		"/>
	</g>
	<g id="LWPOLYLINE-112">
		<polyline class="st2" points="541.2,639 469.2,634.7 469.7,626.1 541.7,630.4 		"/>
	</g>
</g>
<g id="SWING_DOOR">
	<g id="ARC-8">
		<path class="st3" d="M292,518c24.9,0,45-20.1,45-45"/>
	</g>
	<g id="ARC-9">
		<path class="st3" d="M337,563c0-24.9-20.1-45-45-45"/>
	</g>
</g>
<g id="SWING_DOOR_MAIN">
	<g id="ARC-10">
		<path class="st8" d="M109.2,45.4c0,13.7,5.2,26.9,14.5,36.9"/>
	</g>
</g>
<g id="DOORS">
	<g id="LWPOLYLINE-113">
		<polygon class="st12" points="161.6,43.8 163.2,45.4 123.8,82.3 122.2,80.7 		"/>
	</g>
	<g id="LWPOLYLINE-114">
		<polygon class="st12" points="77.1,163.8 79.3,163.9 79.4,118.9 77.2,118.8 		"/>
	</g>
	<g id="LWPOLYLINE-115">
		<polygon class="st12" points="77.1,104 79.3,104.1 79.4,59.1 77.1,59 		"/>
	</g>
	<g id="LWPOLYLINE-116">
		<rect x="176.2" y="121.7" class="st12" width="2.2" height="52.5"/>
	</g>
	<g id="LINE-481">
		<rect x="292" y="473" class="st12" width="45" height="2.2"/>
	</g>
	<g id="LINE-482">
		<rect x="292" y="561" class="st12" width="45" height="2.2"/>
	</g>
	<g id="LWPOLYLINE-117">
		<rect x="447.6" y="406.4" class="st12" width="52.5" height="2.2"/>
	</g>
	<g id="LWPOLYLINE-118">
		<rect x="326.1" y="415.9" class="st12" width="52.5" height="2.2"/>
	</g>
	<g id="LWPOLYLINE-119">
		<polygon class="st12" points="302.2,174.4 300.4,174.4 300.4,138.4 302.2,138.4 		"/>
	</g>
</g>
<g id="WALLS">
	<g id="LWPOLYLINE-120">
		
			<rect x="138.9" y="618.9" transform="matrix(5.738980e-02 -0.9984 0.9984 5.738980e-02 -494.48 742.6624)" class="st13" width="14.2" height="28.5"/>
	</g>
	<g id="LWPOLYLINE-121">
		<polygon class="st13" points="469.6,623.5 441.2,621.8 440,642.1 441.3,642.2 440.6,654.3 466.1,655.7 466.8,643.6 468.5,643.7 		
			"/>
	</g>
	<g id="LWPOLYLINE-122">
		<polygon class="st13" points="241.2,645.6 231.8,645.1 234,605.4 283,608.2 283,563 292,563 292.1,574.3 302.5,574.3 302.5,600.3 
			370.1,604.2 368.1,638 359.5,637.5 358.5,655.3 322.4,653.2 321.7,665.3 240.4,660.6 		"/>
	</g>
	<g id="LWPOLYLINE-123">
		<polygon class="st13" points="354.4,120.4 309.4,120.4 309.4,21.4 167.9,21.4 167.9,36.4 163.2,36.4 163.2,45.4 169.4,45.4 
			169.4,121.7 178.4,121.7 178.4,115.7 208,115.7 208,72.2 259,72.2 259,79 256,79 256,80.5 292,80.5 292,79 289,79 289,72.2 
			300.6,72.2 300.4,138.4 307.7,138.4 307.7,129.4 345.6,129.4 345.6,180.2 307.9,180.2 307.9,174.4 300.4,174.4 300.4,180.2 
			178.4,180.2 178.4,174.2 169.4,174.2 169.4,180.2 144.3,180.2 144.3,192.2 150.3,192.2 150.3,234.2 157.8,234.2 157.8,192.2 
			275.6,192.2 275.5,234.2 283,234.2 283,473 292,473 292,461.7 302.5,461.7 302.5,418.2 326.1,418.2 326.1,409.2 292,409.2 
			292,279.1 384.6,279.1 384.6,409.2 378.6,409.2 378.6,418.2 447.6,418.2 447.6,406.2 393.6,406.2 393.6,313.2 402.6,313.2 
			402.6,272.7 510.6,272.7 510.6,313.2 573.6,313.2 573.6,400.2 567.6,400.2 567.6,406.2 530.1,406.2 530.1,400.2 519.6,400.2 
			519.6,406.2 500.1,406.2 500.1,418.2 573.6,418.2 573.6,615.9 542.3,614.1 539.7,659.8 549,660.3 548.3,672.3 576.7,673.9 
			576.8,672.4 582.6,672.8 582.6,263.7 354.4,263.7 		"/>
	</g>
	<g id="LWPOLYLINE-124">
		<polygon class="st13" points="21.3,192.2 21.2,234.2 9.2,234.2 9.2,557.8 33.3,559.1 33.3,593.8 61.8,595.5 59.5,635.4 
			49.3,634.8 48.5,649.6 0.2,646.8 0.2,174.2 26.9,174.2 26.9,114.4 14.9,114.4 14.9,21.4 80.9,21.4 80.9,36.4 109.2,36.4 
			109.2,45.4 79.4,45.4 79.4,58.9 71.9,58.9 71.9,55.9 23.9,55.9 23.9,106.9 71.9,106.9 71.9,103.9 79.4,103.9 79.4,118.8 
			71.9,118.8 71.9,114.4 35.9,114.4 35.9,174.2 71.9,174.2 71.9,163.8 79.4,163.8 79.4,180.2 85.4,180.2 85.4,192.2 79.4,192.2 
			79.4,234.2 71.9,234.2 71.9,192.2 		"/>
	</g>
</g>
<g id="LIVE">
	<g id="MTEXT">
		<g class="st14">
			<path class="st15" d="M44.2,210.8l1.4,5.1l1.3-5.1h0.8l-1.7,6.4h-0.7l-1.3-5l-1.4,5h-0.7l-1.7-6.4h0.8l1.3,5.1l1.4-5.1H44.2z"/>
			<path class="st15" d="M49.4,214.5v2.7h-0.8v-6.4H51c1.3,0,2.1,0.6,2.1,1.9c0,1.1-0.6,1.7-1.6,1.8l1.9,2.7h-0.9l-1.8-2.7H49.4z
				 M49.4,213.8H51c0.8,0,1.3-0.4,1.3-1.1c0-0.7-0.5-1.1-1.3-1.1h-1.5V213.8z"/>
		</g>
	</g>
	<g id="MTEXT-2">
		<g class="st14">
			<path class="st15" d="M247.6,214.5v2.7h-0.8v-6.4h2.4c1.3,0,2.1,0.6,2.1,1.9c0,1.1-0.6,1.7-1.6,1.8l1.9,2.7h-0.9l-1.8-2.7H247.6z
				 M247.6,213.8h1.5c0.8,0,1.3-0.4,1.3-1.1c0-0.7-0.5-1.1-1.3-1.1h-1.5V213.8z"/>
			<path class="st15" d="M254.4,210.4h0.8l-2.6,7.6h-0.8L254.4,210.4z"/>
			<path class="st15" d="M256,217.2v-6.4h3.9v0.7h-3.1v2.2h2.9v0.7h-2.9v2.8H256z"/>
		</g>
	</g>
	<g id="MTEXT-3">
		<g class="st14">
			<path class="st15" d="M168,308.3h2c1.9,0,3.1,1.2,3.1,3.2c0,1.9-1.2,3.2-3.1,3.2h-2V308.3z M170,313.9c1.4,0,2.3-1,2.3-2.5
				c0-1.5-0.9-2.5-2.3-2.5h-1.2v4.9H170z"/>
		</g>
		<g class="st14">
			<path class="st15" d="M177.8,308.3l1.4,5.1l1.3-5.1h0.8l-1.7,6.4h-0.7l-1.3-5l-1.4,5h-0.7l-1.7-6.4h0.8l1.3,5.1l1.4-5.1H177.8z"
				/>
		</g>
	</g>
	<g id="MTEXT-4">
		<g class="st14">
			<path class="st15" d="M48,78.4l1.4,5.1l1.3-5.1h0.8l-1.7,6.4H49l-1.3-5l-1.4,5h-0.7l-1.7-6.4h0.8l1.3,5.1l1.4-5.1H48z"/>
		</g>
		<g class="st14">
			<path class="st15" d="M54.1,78h0.8l-2.6,7.6h-0.8L54.1,78z"/>
			<path class="st15" d="M55.7,78.4h2c1.9,0,3.1,1.2,3.1,3.2c0,1.9-1.2,3.2-3.1,3.2h-2V78.4z M57.7,84c1.4,0,2.3-1,2.3-2.5
				c0-1.5-0.9-2.5-2.3-2.5h-1.2V84H57.7z"/>
		</g>
	</g>
	<g id="MTEXT-5">
		<g class="st14">
			<path class="st15" d="M325,152.4c1.3,0,2.2,0.8,2.5,2h-0.8c-0.3-0.7-0.8-1.2-1.7-1.2c-1.2,0-2,1-2,2.5c0,1.5,0.8,2.5,2,2.5
				c0.9,0,1.4-0.5,1.7-1.2h0.8c-0.3,1.2-1.2,2-2.5,2c-1.6,0-2.9-1.3-2.9-3.3C322.2,153.7,323.4,152.4,325,152.4z"/>
			<path class="st15" d="M328.6,152.5h0.8v5.7h3.3v0.7h-4.1V152.5z"/>
		</g>
	</g>
	<g id="MTEXT-6">
		<g class="st14">
			<path class="st15" d="M350.1,353.2l1.4,5.1l1.3-5.1h0.8l-1.7,6.4h-0.7l-1.3-5l-1.4,5h-0.7l-1.7-6.4h0.8l1.3,5.1l1.4-5.1H350.1z"
				/>
			<path class="st15" d="M355.3,359.5h-0.8v-6.4h0.8V359.5z"/>
			<path class="st15" d="M359.3,353.1c1.3,0,2.2,0.8,2.5,2H361c-0.3-0.7-0.8-1.2-1.7-1.2c-1.2,0-2,1-2,2.5c0,1.5,0.8,2.5,2,2.5
				c0.9,0,1.4-0.5,1.7-1.2h0.8c-0.3,1.2-1.2,2-2.5,2c-1.6,0-2.9-1.3-2.9-3.3C356.5,354.4,357.7,353.1,359.3,353.1z"/>
		</g>
	</g>
	<g id="MTEXT-7">
		<g class="st14">
			<path class="st15" d="M127.8,2v0.7h-3.3v2h3v0.7h-3v2.2h3.3v0.7h-4.1V2H127.8z"/>
			<path class="st15" d="M134,8.4h-0.6l-3.6-5.1v5.1h-0.8V2h0.8l3.4,4.9V2h0.8V8.4z"/>
			<path class="st15" d="M135.1,2h5.3v0.7h-2.2v5.7h-0.8V2.7h-2.2V2z"/>
		</g>
		<g class="st14">
			<path class="st15" d="M142.3,5.7v2.7h-0.8V2h2.4c1.3,0,2.1,0.6,2.1,1.9c0,1.1-0.6,1.7-1.6,1.8l1.9,2.7h-0.9l-1.8-2.7H142.3z
				 M142.3,5h1.5c0.8,0,1.3-0.4,1.3-1.1c0-0.7-0.5-1.1-1.3-1.1h-1.5V5z"/>
		</g>
		<g class="st14">
			<path class="st15" d="M151.1,2h0.9l-2.3,3.8v2.6h-0.8V5.8L146.5,2h0.9l1.8,3L151.1,2z"/>
		</g>
	</g>
	<polygon class="st15" points="137.9,28.4 144.9,16.2 130.8,16.2 130.8,16.2 	"/>
	<g class="st14">
		<path class="st15" d="M403.3,509.5l-2-4.9v4.9h-0.8v-6.4h0.9l2.2,5.2l2.2-5.2h0.9v6.4h-0.8v-4.9l-2,4.9H403.3z"/>
	</g>
	<g class="st14">
		<path class="st15" d="M410.9,503.1l2.5,6.4h-0.8l-0.7-1.9h-2.6l-0.7,1.9h-0.8l2.5-6.4H410.9z M409.4,506.8h2.1l-1-2.7L409.4,506.8
			z"/>
	</g>
	<g class="st14">
		<path class="st15" d="M414.6,507.8c0.2,0.7,0.8,1.1,1.6,1.1c0.8,0,1.4-0.4,1.4-1.1c0-0.5-0.3-0.8-1-1l-1.1-0.3
			c-0.9-0.2-1.5-0.7-1.5-1.6c0-1.1,0.9-1.8,2.1-1.8c1.3,0,2.1,0.7,2.3,1.7h-0.8c-0.2-0.6-0.7-1-1.5-1c-0.8,0-1.3,0.4-1.3,1.1
			c0,0.5,0.4,0.8,1,1l1.1,0.3c1,0.3,1.6,0.8,1.6,1.7c0,1.2-0.9,1.9-2.2,1.9s-2.2-0.6-2.5-1.8H414.6z"/>
	</g>
	<g class="st14">
		<path class="st15" d="M419,503.1h5.3v0.7h-2.2v5.7h-0.8v-5.7H419V503.1z"/>
		<path class="st15" d="M429.4,503.1v0.7h-3.3v2h3v0.7h-3v2.2h3.3v0.7h-4.1v-6.4H429.4z"/>
		<path class="st15" d="M431.5,506.7v2.7h-0.8v-6.4h2.4c1.3,0,2.1,0.6,2.1,1.9c0,1.1-0.6,1.7-1.6,1.8l1.9,2.7h-0.9l-1.8-2.7H431.5z
			 M431.5,506h1.5c0.8,0,1.3-0.4,1.3-1.1c0-0.7-0.5-1.1-1.3-1.1h-1.5V506z"/>
		<path class="st15" d="M443.2,507.6c0,1.2-0.8,1.8-2.1,1.8h-2.3v-6.4h2.1c1.3,0,2.1,0.6,2.1,1.7c0,0.8-0.4,1.2-0.9,1.4
			C442.7,506.3,443.2,506.9,443.2,507.6z M440.9,505.8c0.9,0,1.3-0.3,1.3-1s-0.5-1-1.3-1h-1.3v2.1H440.9z M439.6,508.7h1.5
			c0.9,0,1.3-0.4,1.3-1.1c0-0.7-0.5-1.1-1.3-1.1h-1.5V508.7z"/>
		<path class="st15" d="M448.4,503.1v0.7h-3.3v2h3v0.7h-3v2.2h3.3v0.7h-4.1v-6.4H448.4z"/>
		<path class="st15" d="M449.7,503.1h2c1.9,0,3.1,1.2,3.1,3.2c0,1.9-1.2,3.2-3.1,3.2h-2V503.1z M451.8,508.7c1.4,0,2.3-1,2.3-2.5
			c0-1.5-0.9-2.5-2.3-2.5h-1.2v4.9H451.8z"/>
	</g>
	<g class="st14">
		<path class="st15" d="M456.8,506.7v2.7H456v-6.4h2.4c1.3,0,2.1,0.6,2.1,1.9c0,1.1-0.6,1.7-1.6,1.8l1.9,2.7h-0.9l-1.8-2.7H456.8z
			 M456.8,506h1.5c0.8,0,1.3-0.4,1.3-1.1c0-0.7-0.5-1.1-1.3-1.1h-1.5V506z"/>
	</g>
	<g class="st14">
		<path class="st15" d="M464.2,509.5c-1.7,0-2.9-1.4-2.9-3.3c0-1.9,1.2-3.3,2.9-3.3c1.7,0,2.9,1.4,2.9,3.3
			C467.1,508.2,465.9,509.5,464.2,509.5z M464.2,503.7c-1.2,0-2.1,1.1-2.1,2.5c0,1.5,0.8,2.5,2.1,2.5c1.2,0,2.1-1.1,2.1-2.5
			C466.3,504.8,465.5,503.7,464.2,503.7z"/>
	</g>
	<g class="st14">
		<path class="st15" d="M470.8,509.5c-1.7,0-2.9-1.4-2.9-3.3c0-1.9,1.2-3.3,2.9-3.3c1.7,0,2.9,1.4,2.9,3.3
			C473.7,508.2,472.5,509.5,470.8,509.5z M470.8,503.7c-1.2,0-2.1,1.1-2.1,2.5c0,1.5,0.8,2.5,2.1,2.5c1.2,0,2.1-1.1,2.1-2.5
			C472.9,504.8,472.1,503.7,470.8,503.7z"/>
		<path class="st15" d="M477.7,509.5l-2-4.9v4.9h-0.8v-6.4h0.9l2.2,5.2l2.2-5.2h0.9v6.4h-0.8v-4.9l-2,4.9H477.7z"/>
	</g>
	<g class="st14">
		<path class="st15" d="M418,520.6h-0.8v-5.4l-1.6,0.8v-0.8l1.9-1h0.5V520.6z"/>
		<path class="st15" d="M420.1,517.8h-0.6v-3.5h3.5v0.7h-2.8v1.9c0.2-0.2,0.6-0.4,1.2-0.4c1.2,0,2,0.9,2,2.1c0,1.2-0.9,2.1-2.1,2.1
			c-1.2,0-2-0.7-2.2-1.9h0.8c0.1,0.7,0.6,1.2,1.4,1.2c0.8,0,1.3-0.6,1.3-1.4c0-0.8-0.5-1.4-1.3-1.4
			C420.7,517.2,420.3,517.5,420.1,517.8z"/>
		<path class="st15" d="M424.5,515.2c-0.3,0-0.5-0.2-0.5-0.5c0-0.3,0.2-0.6,0.6-0.6s0.6,0.2,0.6,0.6c0,0.2-0.1,0.4-0.2,0.7l-0.5,0.9
			h-0.5L424.5,515.2z"/>
		<path class="st15" d="M425.8,517.6h2.5v0.7h-2.5V517.6z"/>
		<path class="st15" d="M431.4,520.6h-0.8v-5.4L429,516v-0.8l1.9-1h0.5V520.6z"/>
		<path class="st15" d="M432.6,514.2h0.7v2.3h-0.7V514.2z M433.8,514.2h0.7v2.3h-0.7V514.2z"/>
		<path class="st15" d="M440,518.2l1.7,2.4h-0.9l-1.3-1.8l-1.3,1.8h-0.8l1.7-2.4l-1.6-2.3h0.9l1.2,1.7l1.2-1.7h0.9L440,518.2z"/>
		<path class="st15" d="M446.8,520.6H446v-5.4l-1.6,0.8v-0.8l1.9-1h0.5V520.6z"/>
		<path class="st15" d="M450.2,520.6h-0.8v-5.4l-1.6,0.8v-0.8l1.9-1h0.5V520.6z"/>
		<path class="st15" d="M451.4,514.2h0.7v2.3h-0.7V514.2z"/>
		<path class="st15" d="M453,517.6h2.5v0.7H453V517.6z"/>
	</g>
	<g class="st14">
		<path class="st15" d="M457.8,517h0.4c0.7,0,1.2-0.4,1.2-1.1c0-0.6-0.4-1.1-1.2-1.1s-1.2,0.5-1.3,1.1h-0.8c0.2-1.1,0.9-1.8,2.1-1.8
			c1.2,0,1.9,0.7,1.9,1.7c0,0.7-0.4,1.3-1,1.5c0.7,0.2,1.1,0.8,1.1,1.5c0,1.1-0.8,1.9-2,1.9c-1.2,0-2.1-0.8-2.2-1.9h0.8
			c0.1,0.7,0.6,1.2,1.4,1.2c0.8,0,1.3-0.5,1.3-1.2c0-0.7-0.6-1.1-1.3-1.1h-0.4V517z"/>
	</g>
	<g class="st14">
		<path class="st15" d="M461,514.2h0.7v2.3H461V514.2z M462.2,514.2h0.7v2.3h-0.7V514.2z"/>
	</g>
	<g class="st14">
		<path class="st15" d="M128.5,404.5v-0.7h2.3v0.4c0,1.7-1.1,2.8-2.6,2.8c-1.7,0-2.9-1.3-2.9-3.3s1.3-3.3,2.9-3.3
			c1.4,0,2.3,0.8,2.5,2h-0.8c-0.3-0.7-0.8-1.2-1.7-1.2c-1.2,0-2.1,1-2.1,2.5c0,1.5,0.8,2.6,2.1,2.6c1.1,0,1.8-0.7,1.9-1.8H128.5z"/>
		<path class="st15" d="M132.7,404.2v2.7h-0.8v-6.4h2.4c1.3,0,2.1,0.6,2.1,1.9c0,1.1-0.6,1.7-1.6,1.8l1.9,2.7h-0.9l-1.8-2.7H132.7z
			 M132.7,403.5h1.5c0.8,0,1.3-0.4,1.3-1.1c0-0.7-0.5-1.1-1.3-1.1h-1.5V403.5z"/>
		<path class="st15" d="M141.7,400.6v0.7h-3.3v2h3v0.7h-3v2.2h3.3v0.7h-4.1v-6.4H141.7z"/>
	</g>
	<g class="st14">
		<path class="st15" d="M145.7,400.6l2.5,6.4h-0.8l-0.7-1.9H144l-0.7,1.9h-0.8l2.5-6.4H145.7z M144.3,404.3h2.1l-1-2.7L144.3,404.3z
			"/>
	</g>
	<g class="st14">
		<path class="st15" d="M148.2,400.6h5.3v0.7h-2.2v5.7h-0.8v-5.7h-2.2V400.6z"/>
	</g>
	<g class="st14">
		<path class="st15" d="M157.7,404.2v2.7h-0.8v-6.4h2.4c1.3,0,2.1,0.6,2.1,1.9c0,1.1-0.6,1.7-1.6,1.8l1.9,2.7h-0.9l-1.8-2.7H157.7z
			 M157.7,403.5h1.5c0.8,0,1.3-0.4,1.3-1.1c0-0.7-0.5-1.1-1.3-1.1h-1.5V403.5z"/>
	</g>
	<g class="st14">
		<path class="st15" d="M165.1,407c-1.7,0-2.9-1.4-2.9-3.3c0-1.9,1.2-3.3,2.9-3.3c1.7,0,2.9,1.4,2.9,3.3
			C168,405.7,166.7,407,165.1,407z M165.1,401.2c-1.2,0-2.1,1.1-2.1,2.5c0,1.5,0.8,2.5,2.1,2.5c1.2,0,2.1-1.1,2.1-2.5
			C167.1,402.3,166.3,401.2,165.1,401.2z"/>
	</g>
	<g class="st14">
		<path class="st15" d="M171.7,407c-1.7,0-2.9-1.4-2.9-3.3c0-1.9,1.2-3.3,2.9-3.3c1.7,0,2.9,1.4,2.9,3.3
			C174.6,405.7,173.3,407,171.7,407z M171.7,401.2c-1.2,0-2.1,1.1-2.1,2.5c0,1.5,0.8,2.5,2.1,2.5c1.2,0,2.1-1.1,2.1-2.5
			C173.7,402.3,172.9,401.2,171.7,401.2z"/>
		<path class="st15" d="M178.5,407l-2-4.9v4.9h-0.8v-6.4h0.9l2.2,5.2l2.2-5.2h0.9v6.4h-0.8v-4.9l-2,4.9H178.5z"/>
	</g>
	<g class="st14">
		<path class="st15" d="M131.1,412.4c-0.8,0-1.2,0.5-1.2,1.3H129c0.1-1.2,0.9-2,2.1-2c1.2,0,1.9,0.7,1.9,1.8c0,0.8-0.6,1.4-1.3,2.2
			l-1.6,1.8h3v0.7H129v-0.5l2.1-2.3c0.7-0.7,1.2-1.3,1.2-1.9C132.3,412.8,131.8,412.4,131.1,412.4z"/>
		<path class="st15" d="M136.1,418.1h-0.8v-5.4l-1.6,0.8v-0.8l1.9-1h0.5V418.1z"/>
		<path class="st15" d="M137.7,412.7c-0.3,0-0.5-0.2-0.5-0.5c0-0.3,0.2-0.6,0.6-0.6s0.6,0.2,0.6,0.6c0,0.2-0.1,0.4-0.2,0.7l-0.5,0.9
			h-0.5L137.7,412.7z"/>
		<path class="st15" d="M139.1,415.1h2.5v0.7h-2.5V415.1z"/>
	</g>
	<g class="st14">
		<path class="st15" d="M142.4,416.4c0-0.8,0.5-1.4,1.2-1.6c-0.6-0.2-1-0.7-1-1.4c0-1,0.9-1.7,1.9-1.7c1.1,0,2,0.7,2,1.7
			c0,0.7-0.4,1.2-1,1.4c0.7,0.2,1.2,0.8,1.2,1.6c0,1.1-0.9,1.8-2.2,1.8C143.3,418.2,142.4,417.5,142.4,416.4z M145.9,416.3
			c0-0.7-0.6-1.2-1.4-1.2c-0.8,0-1.4,0.5-1.4,1.2c0,0.7,0.6,1.2,1.4,1.2C145.3,417.6,145.9,417.1,145.9,416.3z M145.7,413.4
			c0-0.6-0.5-1.1-1.2-1.1c-0.7,0-1.2,0.4-1.2,1.1c0,0.6,0.5,1.1,1.2,1.1C145.2,414.4,145.7,414,145.7,413.4z"/>
	</g>
	<g class="st14">
		<path class="st15" d="M147.4,411.8h0.7v2.3h-0.7V411.8z M148.6,411.8h0.7v2.3h-0.7V411.8z"/>
		<path class="st15" d="M154.8,415.7l1.7,2.4h-0.9l-1.3-1.8l-1.3,1.8h-0.8l1.7-2.4l-1.6-2.3h0.9l1.2,1.7l1.2-1.7h0.9L154.8,415.7z"
			/>
		<path class="st15" d="M161.7,418.1h-0.8v-5.4l-1.6,0.8v-0.8l1.9-1h0.5V418.1z"/>
	</g>
	<g class="st14">
		<path class="st15" d="M163.8,415.3h-0.6v-3.5h3.5v0.7h-2.8v1.9c0.2-0.2,0.6-0.4,1.2-0.4c1.2,0,2,0.9,2,2.1c0,1.2-0.9,2.1-2.1,2.1
			c-1.2,0-2-0.7-2.2-1.9h0.8c0.1,0.7,0.6,1.2,1.4,1.2c0.8,0,1.3-0.6,1.3-1.4c0-0.8-0.5-1.4-1.3-1.4C164.4,414.7,164,415,163.8,415.3
			z"/>
	</g>
	<g class="st14">
		<path class="st15" d="M167.6,411.8h0.7v2.3h-0.7V411.8z"/>
	</g>
	<g class="st14">
		<path class="st15" d="M169.2,415.1h2.5v0.7h-2.5V415.1z"/>
	</g>
	<g class="st14">
		<path class="st15" d="M174.2,412.4c-0.8,0-1.2,0.5-1.2,1.3h-0.8c0.1-1.2,0.9-2,2.1-2c1.2,0,1.9,0.7,1.9,1.8c0,0.8-0.6,1.4-1.3,2.2
			l-1.6,1.8h3v0.7h-4.2v-0.5l2.1-2.3c0.7-0.7,1.2-1.3,1.2-1.9C175.4,412.8,174.9,412.4,174.2,412.4z"/>
	</g>
	<g class="st14">
		<path class="st15" d="M177,411.8h0.7v2.3H177V411.8z M178.3,411.8h0.7v2.3h-0.7V411.8z"/>
	</g>
	<g class="st14">
		<path class="st15" d="M261.5,307.1c0.2,0.7,0.8,1.1,1.6,1.1c0.8,0,1.4-0.4,1.4-1.1c0-0.5-0.3-0.8-1-1l-1.1-0.3
			c-0.9-0.2-1.5-0.7-1.5-1.6c0-1.1,0.9-1.8,2.1-1.8c1.3,0,2.1,0.7,2.3,1.7h-0.8c-0.2-0.6-0.7-1-1.5-1c-0.8,0-1.3,0.4-1.3,1.1
			c0,0.5,0.4,0.8,1,1l1.1,0.3c1,0.3,1.6,0.8,1.6,1.7c0,1.2-0.9,1.9-2.2,1.9s-2.2-0.6-2.5-1.8H261.5z"/>
		<path class="st15" d="M267.3,306.2v2.6h-0.8v-6.4h2.4c1.3,0,2.1,0.7,2.1,1.9c0,1.2-0.8,1.9-2.1,1.9H267.3z M268.8,303.1h-1.6v2.4
			h1.6c0.9,0,1.3-0.5,1.3-1.2C270.2,303.6,269.7,303.1,268.8,303.1z"/>
	</g>
	<g class="st14">
		<path class="st15" d="M262.9,320.3c-1.7,0-2.9-1.4-2.9-3.3c0-1.9,1.2-3.3,2.9-3.3c1.7,0,2.9,1.4,2.9,3.3
			C265.8,319,264.6,320.3,262.9,320.3z M262.9,314.5c-1.2,0-2.1,1.1-2.1,2.5c0,1.5,0.8,2.5,2.1,2.5c1.2,0,2.1-1.1,2.1-2.5
			C265,315.5,264.1,314.5,262.9,314.5z"/>
	</g>
	<g class="st14">
		<path class="st15" d="M268.6,320.2l-2.5-6.4h0.9l2,5.3l2-5.3h0.8l-2.5,6.4H268.6z"/>
	</g>
	<g class="st14">
		<path class="st15" d="M447.4,358.3l-2-4.9v4.9h-0.8v-6.4h0.9l2.2,5.2l2.2-5.2h0.9v6.4H450v-4.9l-2,4.9H447.4z"/>
	</g>
	<g class="st14">
		<path class="st15" d="M455,351.9l2.5,6.4h-0.8l-0.7-1.9h-2.6l-0.7,1.9h-0.8l2.5-6.4H455z M453.6,355.6h2.1l-1-2.7L453.6,355.6z"/>
	</g>
	<g class="st14">
		<path class="st15" d="M458.8,356.6c0.2,0.7,0.8,1.1,1.6,1.1c0.8,0,1.4-0.4,1.4-1.1c0-0.5-0.3-0.8-1-1l-1.1-0.3
			c-0.9-0.2-1.5-0.7-1.5-1.6c0-1.1,0.9-1.8,2.1-1.8c1.3,0,2.1,0.7,2.3,1.7h-0.8c-0.2-0.6-0.7-1-1.5-1c-0.8,0-1.3,0.4-1.3,1.1
			c0,0.5,0.4,0.8,1,1l1.1,0.3c1,0.3,1.6,0.8,1.6,1.7c0,1.2-0.9,1.9-2.2,1.9s-2.2-0.6-2.5-1.8H458.8z"/>
	</g>
	<g class="st14">
		<path class="st15" d="M463.2,351.9h5.3v0.7h-2.2v5.7h-0.8v-5.7h-2.2V351.9z"/>
		<path class="st15" d="M473.6,351.9v0.7h-3.3v2h3v0.7h-3v2.2h3.3v0.7h-4.1v-6.4H473.6z"/>
		<path class="st15" d="M475.7,355.6v2.7h-0.8v-6.4h2.4c1.3,0,2.1,0.6,2.1,1.9c0,1.1-0.6,1.7-1.6,1.8l1.9,2.7h-0.9l-1.8-2.7H475.7z
			 M475.7,354.9h1.5c0.8,0,1.3-0.4,1.3-1.1s-0.5-1.1-1.3-1.1h-1.5V354.9z"/>
	</g>
	<g class="st14">
		<path class="st15" d="M454.9,367.7c0,1.2-0.8,1.8-2.1,1.8h-2.3v-6.4h2.1c1.3,0,2.1,0.6,2.1,1.7c0,0.8-0.4,1.2-0.9,1.4
			C454.4,366.3,454.9,366.9,454.9,367.7z M452.6,365.8c0.9,0,1.3-0.3,1.3-1s-0.5-1-1.3-1h-1.3v2.1H452.6z M451.3,368.7h1.5
			c0.9,0,1.3-0.4,1.3-1.1c0-0.7-0.5-1.1-1.3-1.1h-1.5V368.7z"/>
	</g>
	<g class="st14">
		<path class="st15" d="M458.7,363.1l2.5,6.4h-0.8l-0.7-1.9H457l-0.7,1.9h-0.8l2.5-6.4H458.7z M457.2,366.8h2.1l-1-2.7L457.2,366.8z
			"/>
	</g>
	<g class="st14">
		<path class="st15" d="M461.1,363.1h5.3v0.7h-2.2v5.7h-0.8v-5.7h-2.2V363.1z"/>
		<path class="st15" d="M472.7,363.1v6.4h-0.8v-2.9h-3.6v2.9h-0.8v-6.4h0.8v2.7h3.6v-2.7H472.7z"/>
	</g>
</g>
</svg>
