<?xml version="1.0" encoding="utf-8"?>
<!-- Generator: Adobe Illustrator 23.0.0, SVG Export Plug-In . SVG Version: 6.00 Build 0)  -->
<svg version="1.1" id="Layer_1" xmlns="http://www.w3.org/2000/svg" xmlns:xlink="http://www.w3.org/1999/xlink" x="0px" y="0px"
	 viewBox="0 0 662 746.4" style="enable-background:new 0 0 662 746.4;" xml:space="preserve">
<style type="text/css">
	.st0{fill:none;stroke:#000000;stroke-width:0.15;stroke-linecap:round;stroke-linejoin:round;}
	.st1{fill:none;stroke:#000000;stroke-width:0.35;stroke-linecap:round;stroke-linejoin:round;}
	.st2{fill:#FFFFFF;stroke:#000000;stroke-width:0.35;stroke-linecap:round;stroke-linejoin:round;}
	.st3{fill:none;stroke:#000000;stroke-width:0.25;stroke-linecap:round;stroke-linejoin:round;}
	.st4{fill:#FFFFFF;stroke:#000000;stroke-width:0.5;stroke-linecap:round;stroke-linejoin:round;}
	.st5{fill:none;stroke:#231F20;stroke-width:0.25;stroke-miterlimit:10;}
	.st6{fill:none;stroke:#000000;stroke-width:0.35;stroke-miterlimit:10;}
	.st7{fill:#FFFFFF;stroke:#000000;stroke-width:0.25;stroke-miterlimit:10;}
	.st8{fill:none;stroke:#000000;stroke-width:0.25;stroke-miterlimit:10;}
	.st9{fill:#FFFFFF;stroke:#000000;stroke-width:0.25;stroke-linecap:round;stroke-linejoin:round;}
	.st10{fill:#FFFFFF;stroke:#231F20;stroke-width:0.25;stroke-miterlimit:10;}
	.st11{fill:none;stroke:#000000;stroke-width:0.5;stroke-linecap:round;stroke-linejoin:round;}
	.st12{fill:none;stroke:#2BABE2;stroke-width:0.7;stroke-miterlimit:10;}
	.st13{fill:#CCCCCC;stroke:#231F20;stroke-width:0.5;stroke-miterlimit:10;}
	.st14{fill:none;}
	.st15{enable-background:new    ;}
	.st16{fill:#231F20;}
</style>
<title>108Leonard_WEB_A_15-2ndFl_v3</title>
<g id="FLOOR_PATTERN">
	<g id="LINE">
		<line class="st0" x1="498.2" y1="428.6" x2="420.6" y2="428.6"/>
	</g>
	<g id="LINE-2">
		<line class="st0" x1="239.1" y1="428.6" x2="107.2" y2="428.6"/>
	</g>
	<g id="LINE-3">
		<line class="st0" x1="390.6" y1="428.6" x2="386.1" y2="428.6"/>
	</g>
	<g id="LINE-4">
		<line class="st0" x1="273.6" y1="428.6" x2="269.1" y2="428.6"/>
	</g>
	<g id="LINE-5">
		<line class="st0" x1="498.2" y1="420.4" x2="420.6" y2="420.4"/>
	</g>
	<g id="LINE-6">
		<line class="st0" x1="239.1" y1="420.4" x2="107.2" y2="420.4"/>
	</g>
	<g id="LINE-7">
		<line class="st0" x1="390.6" y1="420.4" x2="386.1" y2="420.4"/>
	</g>
	<g id="LINE-8">
		<line class="st0" x1="273.6" y1="420.4" x2="269.1" y2="420.4"/>
	</g>
	<g id="LINE-9">
		<line class="st0" x1="498.2" y1="412.1" x2="420.6" y2="412.1"/>
	</g>
	<g id="LINE-10">
		<line class="st0" x1="239.1" y1="412.1" x2="107.2" y2="412.1"/>
	</g>
	<g id="LINE-11">
		<line class="st0" x1="390.6" y1="412.1" x2="386.1" y2="412.1"/>
	</g>
	<g id="LINE-12">
		<line class="st0" x1="273.6" y1="412.1" x2="269.1" y2="412.1"/>
	</g>
	<g id="LINE-13">
		<line class="st0" x1="498.2" y1="403.9" x2="386.1" y2="403.9"/>
	</g>
	<g id="LINE-14">
		<line class="st0" x1="273.6" y1="403.9" x2="107.2" y2="403.9"/>
	</g>
	<g id="LINE-15">
		<line class="st0" x1="498.2" y1="395.6" x2="386.1" y2="395.6"/>
	</g>
	<g id="LINE-16">
		<line class="st0" x1="273.6" y1="395.6" x2="107.2" y2="395.6"/>
	</g>
	<g id="LINE-17">
		<line class="st0" x1="498.2" y1="387.4" x2="386.1" y2="387.4"/>
	</g>
	<g id="LINE-18">
		<line class="st0" x1="169.3" y1="387.4" x2="107.2" y2="387.4"/>
	</g>
	<g id="LINE-19">
		<line class="st0" x1="273.6" y1="387.4" x2="199.1" y2="387.4"/>
	</g>
	<g id="LINE-20">
		<line class="st0" x1="498.2" y1="379.1" x2="386.1" y2="379.1"/>
	</g>
	<g id="LINE-21">
		<line class="st0" x1="164.8" y1="379.1" x2="107.2" y2="379.1"/>
	</g>
	<g id="LINE-22">
		<line class="st0" x1="273.6" y1="379.1" x2="203.7" y2="379.1"/>
	</g>
	<g id="LINE-23">
		<line class="st0" x1="498.2" y1="370.9" x2="386.1" y2="370.9"/>
	</g>
	<g id="LINE-24">
		<line class="st0" x1="132.2" y1="370.9" x2="107.2" y2="370.9"/>
	</g>
	<g id="LINE-25">
		<line class="st0" x1="273.6" y1="370.9" x2="204.5" y2="370.9"/>
	</g>
	<g id="LINE-26">
		<line class="st0" x1="163.9" y1="370.9" x2="145.9" y2="370.9"/>
	</g>
	<g id="LINE-27">
		<line class="st0" x1="498.2" y1="362.6" x2="386.1" y2="362.6"/>
	</g>
	<g id="LINE-28">
		<line class="st0" x1="128.6" y1="362.6" x2="107.2" y2="362.6"/>
	</g>
	<g id="LINE-29">
		<line class="st0" x1="273.6" y1="362.6" x2="204.8" y2="362.6"/>
	</g>
	<g id="LINE-30">
		<line class="st0" x1="163.6" y1="362.6" x2="149.6" y2="362.6"/>
	</g>
	<g id="LINE-31">
		<line class="st0" x1="498.2" y1="354.4" x2="495.2" y2="354.4"/>
	</g>
	<g id="LINE-32">
		<line class="st0" x1="133" y1="354.4" x2="107.2" y2="354.4"/>
	</g>
	<g id="LINE-33">
		<line class="st0" x1="479.8" y1="354.4" x2="386.1" y2="354.4"/>
	</g>
	<g id="LINE-34">
		<line class="st0" x1="273.6" y1="354.4" x2="205.1" y2="354.4"/>
	</g>
	<g id="LINE-35">
		<line class="st0" x1="163.3" y1="354.4" x2="145.2" y2="354.4"/>
	</g>
	<g id="LINE-36">
		<line class="st0" x1="498.2" y1="346.1" x2="495.2" y2="346.1"/>
	</g>
	<g id="LINE-37">
		<line class="st0" x1="273.6" y1="346.1" x2="107.2" y2="346.1"/>
	</g>
	<g id="LINE-38">
		<line class="st0" x1="479.8" y1="346.1" x2="386.1" y2="346.1"/>
	</g>
	<g id="LINE-39">
		<line class="st0" x1="498.2" y1="337.9" x2="495.2" y2="337.9"/>
	</g>
	<g id="LINE-40">
		<line class="st0" x1="128.6" y1="337.9" x2="107.2" y2="337.9"/>
	</g>
	<g id="LINE-41">
		<line class="st0" x1="479.8" y1="337.9" x2="386.1" y2="337.9"/>
	</g>
	<g id="LINE-42">
		<line class="st0" x1="273.6" y1="337.9" x2="160.1" y2="337.9"/>
	</g>
	<g id="LINE-43">
		<line class="st0" x1="498.2" y1="329.6" x2="495.2" y2="329.6"/>
	</g>
	<g id="LINE-44">
		<line class="st0" x1="120" y1="329.6" x2="107.2" y2="329.6"/>
	</g>
	<g id="LINE-45">
		<line class="st0" x1="479.8" y1="329.6" x2="386.1" y2="329.6"/>
	</g>
	<g id="LINE-46">
		<line class="st0" x1="273.6" y1="329.6" x2="190.7" y2="329.6"/>
	</g>
	<g id="LINE-47">
		<line class="st0" x1="182.9" y1="329.6" x2="160.1" y2="329.6"/>
	</g>
	<g id="LINE-48">
		<line class="st0" x1="498.2" y1="321.4" x2="495.2" y2="321.4"/>
	</g>
	<g id="LINE-49">
		<line class="st0" x1="117.5" y1="321.4" x2="107.2" y2="321.4"/>
	</g>
	<g id="LINE-50">
		<line class="st0" x1="479.8" y1="321.4" x2="386.1" y2="321.4"/>
	</g>
	<g id="LINE-51">
		<line class="st0" x1="273.6" y1="321.4" x2="197" y2="321.4"/>
	</g>
	<g id="LINE-52">
		<line class="st0" x1="176.6" y1="321.4" x2="160.1" y2="321.4"/>
	</g>
	<g id="LINE-53">
		<line class="st0" x1="498.2" y1="313.1" x2="495.2" y2="313.1"/>
	</g>
	<g id="LINE-54">
		<line class="st0" x1="117.4" y1="313.1" x2="107.2" y2="313.1"/>
	</g>
	<g id="LINE-55">
		<line class="st0" x1="479.8" y1="313.1" x2="386" y2="313.1"/>
	</g>
	<g id="LINE-56">
		<line class="st0" x1="273.7" y1="313.1" x2="199.8" y2="313.1"/>
	</g>
	<g id="LINE-57">
		<line class="st0" x1="173.9" y1="313.1" x2="160.1" y2="313.1"/>
	</g>
	<g id="LINE-58">
		<line class="st0" x1="498.2" y1="304.9" x2="495.2" y2="304.9"/>
	</g>
	<g id="LINE-59">
		<line class="st0" x1="117.4" y1="304.9" x2="107.2" y2="304.9"/>
	</g>
	<g id="LINE-60">
		<line class="st0" x1="479.8" y1="304.9" x2="373.9" y2="304.9"/>
	</g>
	<g id="LINE-61">
		<line class="st0" x1="285.4" y1="304.9" x2="201.2" y2="304.9"/>
	</g>
	<g id="LINE-62">
		<line class="st0" x1="172.4" y1="304.9" x2="160.1" y2="304.9"/>
	</g>
	<g id="LINE-63">
		<line class="st0" x1="498.2" y1="296.6" x2="495.2" y2="296.6"/>
	</g>
	<g id="LINE-64">
		<line class="st0" x1="117.4" y1="296.6" x2="107.2" y2="296.6"/>
	</g>
	<g id="LINE-65">
		<line class="st0" x1="479.8" y1="296.6" x2="374.6" y2="296.6"/>
	</g>
	<g id="LINE-66">
		<line class="st0" x1="284.6" y1="296.6" x2="201.8" y2="296.6"/>
	</g>
	<g id="LINE-67">
		<line class="st0" x1="171.8" y1="296.6" x2="160.1" y2="296.6"/>
	</g>
	<g id="LINE-68">
		<line class="st0" x1="498.2" y1="288.4" x2="495.2" y2="288.4"/>
	</g>
	<g id="LINE-69">
		<line class="st0" x1="117.4" y1="288.4" x2="107.2" y2="288.4"/>
	</g>
	<g id="LINE-70">
		<line class="st0" x1="479.8" y1="288.4" x2="374.6" y2="288.4"/>
	</g>
	<g id="LINE-71">
		<line class="st0" x1="284.6" y1="288.4" x2="201.6" y2="288.4"/>
	</g>
	<g id="LINE-72">
		<line class="st0" x1="171.9" y1="288.4" x2="160.1" y2="288.4"/>
	</g>
	<g id="LINE-73">
		<line class="st0" x1="498.2" y1="280.1" x2="495.2" y2="280.1"/>
	</g>
	<g id="LINE-74">
		<line class="st0" x1="117.4" y1="280.1" x2="107.2" y2="280.1"/>
	</g>
	<g id="LINE-75">
		<line class="st0" x1="479.8" y1="280.1" x2="374.6" y2="280.1"/>
	</g>
	<g id="LINE-76">
		<line class="st0" x1="284.6" y1="280.1" x2="200.6" y2="280.1"/>
	</g>
	<g id="LINE-77">
		<line class="st0" x1="173" y1="280.1" x2="160.1" y2="280.1"/>
	</g>
	<g id="LINE-78">
		<line class="st0" x1="498.2" y1="271.9" x2="495.2" y2="271.9"/>
	</g>
	<g id="LINE-79">
		<line class="st0" x1="117.4" y1="271.9" x2="107.2" y2="271.9"/>
	</g>
	<g id="LINE-80">
		<line class="st0" x1="479.8" y1="271.9" x2="198.6" y2="271.9"/>
	</g>
	<g id="LINE-81">
		<line class="st0" x1="175" y1="271.9" x2="160.1" y2="271.9"/>
	</g>
	<g id="LINE-82">
		<line class="st0" x1="498.2" y1="263.6" x2="495.2" y2="263.6"/>
	</g>
	<g id="LINE-83">
		<line class="st0" x1="118.2" y1="263.6" x2="107.2" y2="263.6"/>
	</g>
	<g id="LINE-84">
		<line class="st0" x1="479.8" y1="263.6" x2="194.7" y2="263.6"/>
	</g>
	<g id="LINE-85">
		<line class="st0" x1="178.9" y1="263.6" x2="160.1" y2="263.6"/>
	</g>
	<g id="LINE-86">
		<line class="st0" x1="498.2" y1="255.4" x2="160.1" y2="255.4"/>
	</g>
	<g id="LINE-87">
		<line class="st0" x1="122.8" y1="255.4" x2="107.2" y2="255.4"/>
	</g>
	<g id="LINE-88">
		<line class="st0" x1="498.2" y1="247.1" x2="107.2" y2="247.1"/>
	</g>
	<g id="LINE-89">
		<line class="st0" x1="498.2" y1="238.9" x2="107.2" y2="238.9"/>
	</g>
	<g id="LINE-90">
		<line class="st0" x1="498.2" y1="230.6" x2="205.2" y2="230.6"/>
	</g>
	<g id="LINE-91">
		<line class="st0" x1="163.8" y1="230.6" x2="107.2" y2="230.6"/>
	</g>
	<g id="LINE-92">
		<line class="st0" x1="498.2" y1="222.4" x2="205" y2="222.4"/>
	</g>
	<g id="LINE-93">
		<line class="st0" x1="164.1" y1="222.4" x2="107.2" y2="222.4"/>
	</g>
	<g id="LINE-94">
		<line class="st0" x1="498.2" y1="214.1" x2="204.6" y2="214.1"/>
	</g>
	<g id="LINE-95">
		<line class="st0" x1="164.4" y1="214.1" x2="107.2" y2="214.1"/>
	</g>
	<g id="LINE-96">
		<line class="st0" x1="498.2" y1="205.9" x2="202.2" y2="205.9"/>
	</g>
	<g id="LINE-97">
		<line class="st0" x1="166.9" y1="205.9" x2="107.2" y2="205.9"/>
	</g>
	<g id="LINE-98">
		<line class="st0" x1="498.2" y1="197.6" x2="396.7" y2="197.6"/>
	</g>
	<g id="LINE-99">
		<line class="st0" x1="175.5" y1="197.6" x2="107.2" y2="197.6"/>
	</g>
	<g id="LINE-100">
		<line class="st0" x1="261.7" y1="197.6" x2="193.5" y2="197.6"/>
	</g>
	<g id="LINE-101">
		<line class="st0" x1="498.2" y1="189.4" x2="396.7" y2="189.4"/>
	</g>
	<g id="LINE-102">
		<line class="st0" x1="115.9" y1="189.4" x2="107.2" y2="189.4"/>
	</g>
	<g id="LINE-103">
		<line class="st0" x1="261.7" y1="189.4" x2="133.7" y2="189.4"/>
	</g>
	<g id="LINE-104">
		<line class="st0" x1="498.2" y1="181.1" x2="396.7" y2="181.1"/>
	</g>
	<g id="LINE-105">
		<line class="st0" x1="118.8" y1="181.1" x2="107.2" y2="181.1"/>
	</g>
	<g id="LINE-106">
		<line class="st0" x1="261.7" y1="181.1" x2="130.9" y2="181.1"/>
	</g>
	<g id="LINE-107">
		<line class="st0" x1="498.2" y1="172.9" x2="396.7" y2="172.9"/>
	</g>
	<g id="LINE-108">
		<line class="st0" x1="261.7" y1="172.9" x2="107.2" y2="172.9"/>
	</g>
	<g id="LWPOLYLINE">
		<line class="st0" x1="489" y1="436.9" x2="436.5" y2="436.9"/>
	</g>
	<g id="LWPOLYLINE-2">
		<line class="st0" x1="436.5" y1="448.9" x2="489" y2="448.9"/>
	</g>
	<g id="LWPOLYLINE-3">
		<line class="st0" x1="398.9" y1="462.8" x2="398.9" y2="518.5"/>
	</g>
	<g id="LWPOLYLINE-4">
		<line class="st0" x1="408.2" y1="462.8" x2="408.2" y2="518.5"/>
	</g>
	<g id="LWPOLYLINE-5">
		<line class="st0" x1="498.2" y1="219.5" x2="498.2" y2="166.8"/>
	</g>
	<g id="LWPOLYLINE-6">
		<line class="st0" x1="510.2" y1="219.5" x2="510.2" y2="166.8"/>
	</g>
	<g id="LWPOLYLINE-7">
		<line class="st0" x1="169.4" y1="436.9" x2="221.9" y2="436.9"/>
	</g>
	<g id="LWPOLYLINE-8">
		<line class="st0" x1="221.9" y1="448.9" x2="169.4" y2="448.9"/>
	</g>
	<g id="LINE-109">
		<line class="st0" x1="137.3" y1="156.3" x2="137.3" y2="12.3"/>
	</g>
	<g id="LINE-110">
		<line class="st0" x1="173.3" y1="156.3" x2="173.3" y2="12.3"/>
	</g>
	<g id="LINE-111">
		<line class="st0" x1="209.3" y1="156.3" x2="209.3" y2="12.3"/>
	</g>
	<g id="LINE-112">
		<line class="st0" x1="245.3" y1="156.3" x2="245.3" y2="12.3"/>
	</g>
	<g id="LINE-113">
		<line class="st0" x1="281.3" y1="119.9" x2="281.3" y2="12.3"/>
	</g>
	<g id="LINE-114">
		<line class="st0" x1="317.3" y1="119.9" x2="317.3" y2="73.8"/>
	</g>
	<g id="LINE-115">
		<line class="st0" x1="317.3" y1="73.8" x2="317.3" y2="12.3"/>
	</g>
	<g id="LINE-116">
		<line class="st0" x1="353.3" y1="119.9" x2="353.3" y2="45.4"/>
	</g>
	<g id="LINE-117">
		<line class="st0" x1="353.3" y1="61" x2="353.3" y2="12.2"/>
	</g>
	<g id="LINE-118">
		<line class="st0" x1="389.3" y1="156.3" x2="389.3" y2="12.2"/>
	</g>
	<g id="LINE-119">
		<line class="st0" x1="425.3" y1="156.3" x2="425.3" y2="63.2"/>
	</g>
	<g id="LINE-120">
		<line class="st0" x1="425.3" y1="51.6" x2="425.3" y2="12.2"/>
	</g>
	<g id="LINE-121">
		<line class="st0" x1="461.3" y1="156.3" x2="461.3" y2="69.1"/>
	</g>
	<g id="LINE-122">
		<line class="st0" x1="461.3" y1="23.8" x2="461.3" y2="12.2"/>
	</g>
	<g id="LINE-123">
		<line class="st0" x1="461.3" y1="64.8" x2="461.3" y2="50.2"/>
	</g>
	<g id="LINE-124">
		<line class="st0" x1="497.3" y1="156.3" x2="497.3" y2="12.2"/>
	</g>
	<g id="LINE-125">
		<line class="st0" x1="502.5" y1="134.3" x2="383.2" y2="134.3"/>
	</g>
	<g id="LINE-126">
		<line class="st0" x1="275.2" y1="134.3" x2="108.7" y2="134.3"/>
	</g>
	<g id="LINE-127">
		<line class="st0" x1="502.5" y1="98.3" x2="370" y2="98.3"/>
	</g>
	<g id="LINE-128">
		<polyline class="st0" points="108.7,98.3 294.1,98.3 373,98.3 		"/>
	</g>
	<g id="LINE-129">
		<line class="st0" x1="502.5" y1="62.3" x2="490.3" y2="62.3"/>
	</g>
	<g id="LINE-130">
		<line class="st0" x1="347.1" y1="62.3" x2="108.7" y2="62.3"/>
	</g>
	<g id="LINE-131">
		<line class="st0" x1="480.5" y1="62.3" x2="459.3" y2="62.3"/>
	</g>
	<g id="LINE-132">
		<line class="st0" x1="424.6" y1="62.3" x2="356.9" y2="62.3"/>
	</g>
	<g id="LINE-133">
		<line class="st0" x1="502.5" y1="26.3" x2="490.1" y2="26.3"/>
	</g>
	<g id="LINE-134">
		<line class="st0" x1="457.9" y1="26.3" x2="108.7" y2="26.3"/>
	</g>
	<g id="LWPOLYLINE-9">
		<polygon class="st0" points="108.7,12.3 108.7,156.3 261.7,156.3 275.2,156.3 275.2,119.9 383.2,119.9 383.2,156.3 396.7,156.3 
			502.5,156.3 502.5,12.2 		"/>
	</g>
	<g id="LINE-135">
		<line class="st0" x1="29.3" y1="734.2" x2="29.3" y2="448.7"/>
	</g>
	<g id="LINE-136">
		<line class="st0" x1="65.3" y1="734.2" x2="65.3" y2="448.7"/>
	</g>
	<g id="LINE-137">
		<line class="st0" x1="96.7" y1="710.3" x2="12.2" y2="710.3"/>
	</g>
	<g id="LINE-138">
		<line class="st0" x1="96.7" y1="674.3" x2="12.2" y2="674.3"/>
	</g>
	<g id="LINE-139">
		<line class="st0" x1="96.7" y1="638.3" x2="12.2" y2="638.3"/>
	</g>
	<g id="LINE-140">
		<line class="st0" x1="96.7" y1="602.3" x2="12.2" y2="602.3"/>
	</g>
	<g id="LINE-141">
		<line class="st0" x1="96.7" y1="566.3" x2="12.2" y2="566.3"/>
	</g>
	<g id="LINE-142">
		<line class="st0" x1="96.7" y1="530.3" x2="12.2" y2="530.3"/>
	</g>
	<g id="LINE-143">
		<line class="st0" x1="96.7" y1="494.3" x2="12.2" y2="494.3"/>
	</g>
	<g id="LINE-144">
		<line class="st0" x1="96.7" y1="458.3" x2="12.2" y2="458.3"/>
	</g>
	<g id="LWPOLYLINE-10">
		<rect x="12.2" y="448.7" class="st0" width="84.4" height="285.5"/>
	</g>
	<g id="LWPOLYLINE-11">
		<polygon class="st0" points="498.2,436.9 498.2,166.8 396.7,166.8 396.7,203.9 261.7,203.9 261.7,166.8 107.2,166.8 107.2,430.8 
			136.9,430.8 136.9,436.9 		"/>
	</g>
</g>
<g id="FURNITURE">
	<g id="LWPOLYLINE-12">
		<path class="st1" d="M160.1,249.7v89.7c0,0.8-0.7,1.5-1.6,1.5l-8-0.3l-14.3-0.5c-10.6-0.7-18.9-9.5-18.9-20.1v-50.7
			c0-10.7,8.3-19.5,18.9-20.1l14.3-0.5l8-0.3l0,0C159.4,248.1,160.1,248.8,160.1,249.7C160.1,249.6,160.1,249.6,160.1,249.7z"/>
	</g>
	<g id="LWPOLYLINE-13">
		<path class="st1" d="M117.4,269.1v50.7c0,10.7,8.3,19.5,18.9,20.1l14.3,0.5c-0.6-3.1-3-5.6-6.1-6.2l-6.9-0.2
			c-7.8,0-14.2-6.4-14.2-14.2v-50.7c0-7.8,6.3-14.2,14.2-14.2l6.9-0.2c3.1-0.7,5.5-3.1,6.1-6.2l-14.3,0.5
			C125.7,249.6,117.4,258.5,117.4,269.1z"/>
	</g>
	<g id="LWPOLYLINE-14">
		<rect x="477.2" y="262.7" class="st2" width="21" height="94.5"/>
	</g>
	<g id="LWPOLYLINE-15">
		<line class="st1" x1="498.2" y1="355" x2="477.2" y2="355"/>
	</g>
	<g id="LWPOLYLINE-16">
		<line class="st1" x1="477.2" y1="265" x2="498.2" y2="265"/>
	</g>
	<g id="LWPOLYLINE-17">
		<path class="st2" d="M286.1,279.1h87c0.8,0,1.5,0.7,1.5,1.5v24c0,0.8-0.7,1.5-1.5,1.5h-87c-0.8,0-1.5-0.7-1.5-1.5v-24
			C284.6,279.8,285.3,279.1,286.1,279.1z"/>
	</g>
	<g id="LINE-145">
		<line class="st1" x1="273.6" y1="387.4" x2="386.1" y2="387.4"/>
	</g>
	<g id="CIRCLE">
		<path class="st1" d="M405.7,428.3c-4.1,0-7.5-3.4-7.5-7.5s3.4-7.5,7.5-7.5s7.5,3.4,7.5,7.5S409.8,428.3,405.7,428.3L405.7,428.3z"
			/>
	</g>
	<g id="LINE-146">
		<line class="st1" x1="405.6" y1="413.3" x2="405.6" y2="428.3"/>
	</g>
	<g id="LINE-147">
		<line class="st1" x1="413.2" y1="421" x2="398.2" y2="421"/>
	</g>
	<g id="LWPOLYLINE-18">
		<rect x="390.6" y="409" class="st1" width="30" height="24"/>
	</g>
	<g id="CIRCLE-2">
		<path class="st1" d="M254.1,428.3c-4.1,0-7.5-3.4-7.5-7.5s3.4-7.5,7.5-7.5c4.1,0,7.5,3.4,7.5,7.5S258.2,428.3,254.1,428.3
			L254.1,428.3z"/>
	</g>
	<g id="LINE-148">
		<line class="st1" x1="254.1" y1="413.3" x2="254.1" y2="428.3"/>
	</g>
	<g id="LINE-149">
		<line class="st1" x1="246.6" y1="421" x2="261.6" y2="421"/>
	</g>
	<g id="LWPOLYLINE-19">
		<rect x="239.1" y="409" class="st1" width="30" height="24"/>
	</g>
	<g id="LWPOLYLINE-20">
		<polyline class="st1" points="331.2,405.4 331.2,428 383.7,428 383.7,405.4 		"/>
	</g>
	<g id="LWPOLYLINE-21">
		<polyline class="st1" points="328.6,405.4 328.6,428 276.1,428 276.1,405.4 		"/>
	</g>
	<g id="LWPOLYLINE-22">
		<path class="st1" d="M386.1,430.9V314.6c-0.3-2.2-2.2-3.8-4.3-3.7h-104c-2.1-0.1-4,1.5-4.1,3.6c0,0,0,0,0,0V431"/>
	</g>
	<g id="LWPOLYLINE-23">
		<rect x="273.6" y="431" class="st1" width="112.5" height="6"/>
	</g>
	<g id="LINE-150">
		<line class="st1" x1="273.6" y1="405.4" x2="386.1" y2="405.4"/>
	</g>
	<g id="LWPOLYLINE-24">
		<path class="st2" d="M370,56.9V41.8c0-5-4.1-9.1-9.1-9.1c0,0,0,0,0,0h-0.7c2.1-4.6,0.2-10-4.4-12.1c-4.6-2.1-10-0.2-12.1,4.4
			c-1.1,2.4-1.1,5.3,0,7.7h-40.6c-5,0-9.1,4.1-9.1,9.1c0,0,0,0,0,0c0-1.3-1-2.3-2.3-2.3h-1.6c-1.3,0-2.3,1-2.3,2.3v19
			c0,4.6,3.7,8.4,8.3,8.4c0,0,0,0,0,0H348c1.3,0,2.3-1,2.3-2.3c0,0,0,0,0,0v-0.8h10.6C365.9,66.1,370,62,370,56.9
			C370,57,370,56.9,370,56.9z"/>
	</g>
	<g id="LWPOLYLINE-25">
		<path class="st2" d="M288,60.7v-19c0-1.2,1-2.2,2.2-2.3h1.5c1.3,0,2.3,1,2.3,2.3v19c0,1.3,1,2.3,2.3,2.3h51.6c1.3,0,2.3,1,2.3,2.3
			v1.5c0,1.3-1,2.3-2.2,2.3c0,0,0,0,0,0h-51.6C291.7,69.1,288,65.4,288,60.7C288,60.8,288,60.7,288,60.7z"/>
	</g>
	<g id="LWPOLYLINE-26">
		<path class="st2" d="M296.3,63c-1.3,0-2.3-1-2.3-2.3v-19c0-5,4.1-9.1,9.1-9.1c0,0,0,0,0,0h40.6c2.1,4.6,7.6,6.5,12.1,4.4
			c1.9-0.9,3.5-2.5,4.4-4.4h0.6c5,0,9.1,4.1,9.1,9.1c0,0,0,0,0,0v15.2c0,5-4.1,9.1-9.1,9.1c0,0,0,0,0,0h-10.6v-0.8
			c0-1.3-1-2.3-2.3-2.3H296.3z"/>
	</g>
	<g id="CIRCLE-3">
		<path class="st1" d="M139.1,373.4c-5.8,0-10.5-4.7-10.5-10.5s4.7-10.5,10.5-10.5s10.5,4.7,10.5,10.5S144.9,373.4,139.1,373.4
			L139.1,373.4z"/>
	</g>
	<g id="LINE-151">
		<line class="st1" x1="139.1" y1="373.4" x2="139.1" y2="352.4"/>
	</g>
	<g id="LINE-152">
		<line class="st1" x1="128.6" y1="362.9" x2="149.6" y2="362.9"/>
	</g>
	<g id="ELLIPSE">
		<path class="st1" d="M186.8,330.9c8.3,0,15.1-16.3,15.1-36.3s-6.8-36.3-15.1-36.3s-15.1,16.3-15.1,36.3S178.5,330.9,186.8,330.9z"
			/>
	</g>
	<g id="CIRCLE-4">
		<path class="st1" d="M485.4,78.9c-5,0-9-4-9-9s4-9,9-9s9,4,9,9l0,0C494.4,74.9,490.4,78.9,485.4,78.9z"/>
	</g>
	<g id="LWPOLYLINE-27">
		<path class="st1" d="M487,48.9l-14.9,12.8l0,0c-0.6,0.5-1.4,0.4-1.9-0.2c0,0,0,0,0,0l-21.4-26.7l0,0c-0.4-0.6-0.3-1.4,0.3-1.8
			l15.7-11.7"/>
	</g>
	<g id="LWPOLYLINE-28">
		<line class="st1" x1="483.6" y1="44.9" x2="478.3" y2="49.4"/>
	</g>
	<g id="LWPOLYLINE-29">
		<line class="st1" x1="462.4" y1="29.6" x2="468" y2="25.4"/>
	</g>
	<g id="ARC">
		<path class="st1" d="M486.2,49.5c7.7-6.1,8.9-17.3,2.8-25c-6.1-7.7-17.3-8.9-25-2.8"/>
	</g>
	<g id="ARC-2">
		<path class="st1" d="M482.9,45.4c5.4-4.3,6.3-12.2,2-17.6c-4.3-5.4-12.2-6.3-17.6-2"/>
	</g>
	<g id="ARC-3">
		<path class="st1" d="M478.2,49.4c-1.8,2.2-2.1,5.2-0.8,7.6"/>
	</g>
	<g id="ARC-4">
		<path class="st1" d="M454.8,28.6c2.1,1.8,5.1,2.2,7.6,0.9"/>
	</g>
	<g id="LWPOLYLINE-30">
		<path class="st1" d="M204.4,373.9c0,11.2-9,20.2-20.2,20.2s-20.2-9-20.2-20.2l-0.8-21.1v-0.1c0-0.8,0.7-1.5,1.5-1.5h38.9
			c0.8,0,1.5,0.7,1.5,1.5c0,0,0,0,0,0L204.4,373.9z"/>
	</g>
	<g id="LWPOLYLINE-31">
		<path class="st1" d="M170,373.8l-0.2-6.9c-0.7-3.1-3.1-5.5-6.2-6.1l0.5,14.3c0.7,11.1,10.3,19.6,21.4,18.9
			c10.2-0.6,18.2-8.7,18.9-18.9l0.5-14.3c-3.1,0.6-5.6,3-6.2,6.1l-0.2,6.9c0,7.8-6.4,14.2-14.2,14.2S170,381.7,170,373.8L170,373.8z
			"/>
	</g>
	<g id="LWPOLYLINE-32">
		<path class="st1" d="M204.7,215.6c-0.2-11.2-9.5-20-20.6-19.7c-10.8,0.2-19.5,8.9-19.7,19.7l-0.8,21.1c0,0.8,0.6,1.5,1.4,1.5
			c0,0,0,0,0,0H204c0.8,0,1.5-0.7,1.5-1.5v-0.1L204.7,215.6z"/>
	</g>
	<g id="LWPOLYLINE-33">
		<path class="st1" d="M170.3,215.7l-0.2,6.9c-0.7,3.1-3.1,5.5-6.2,6.1l0.5-14.3c0.7-11.1,10.3-19.6,21.4-18.9
			c10.2,0.6,18.2,8.7,18.9,18.9l0.5,14.3c-3.1-0.6-5.6-3-6.2-6.1l-0.2-6.9c-0.2-7.8-6.7-14-14.6-13.8
			C176.6,202.1,170.5,208.2,170.3,215.7L170.3,215.7z"/>
	</g>
	<g id="LWPOLYLINE-34">
		<path class="st1" d="M461,69.3l-16.5,13.2l0,0c-1.3,1-3.2,0.8-4.2-0.5l-18.9-23.6c-1-1.3-0.8-3.2,0.5-4.2L438.5,41
			c1.3-1,3.2-0.8,4.2,0.5l18.8,23.6C462.5,66.4,462.3,68.3,461,69.3z"/>
	</g>
</g>
<g id="STAIR">
	<g id="LINE-153">
		<line class="st0" x1="573.2" y1="462.7" x2="634.3" y2="462.7"/>
	</g>
	<g id="LINE-154">
		<line class="st0" x1="565.8" y1="459.7" x2="505.7" y2="459.7"/>
	</g>
	<g id="LINE-155">
		<line class="st0" x1="565.8" y1="441.7" x2="505.7" y2="441.7"/>
	</g>
	<g id="LINE-156">
		<line class="st0" x1="573.2" y1="336.7" x2="641.5" y2="336.7"/>
	</g>
	<g id="LINE-157">
		<line class="st0" x1="565.8" y1="387.7" x2="505.8" y2="387.7"/>
	</g>
	<g id="LINE-158">
		<line class="st0" x1="565.8" y1="423.7" x2="505.7" y2="423.7"/>
	</g>
	<g id="LINE-159">
		<line class="st0" x1="565.8" y1="405.7" x2="505.8" y2="405.7"/>
	</g>
	<g id="LINE-160">
		<line class="st0" x1="565.8" y1="369.7" x2="505.8" y2="369.7"/>
	</g>
	<g id="LINE-161">
		<line class="st0" x1="565.8" y1="333.7" x2="505.8" y2="333.7"/>
	</g>
	<g id="LINE-162">
		<line class="st0" x1="565.8" y1="351.7" x2="505.8" y2="351.7"/>
	</g>
	<g id="LINE-163">
		<line class="st0" x1="573.2" y1="354.7" x2="640.5" y2="354.7"/>
	</g>
	<g id="LINE-164">
		<line class="st0" x1="573.2" y1="372.7" x2="639.5" y2="372.7"/>
	</g>
	<g id="LINE-165">
		<line class="st0" x1="573.2" y1="390.7" x2="638.4" y2="390.7"/>
	</g>
	<g id="LINE-166">
		<line class="st0" x1="573.2" y1="408.7" x2="637.4" y2="408.7"/>
	</g>
	<g id="LINE-167">
		<line class="st0" x1="573.2" y1="426.7" x2="636.3" y2="426.7"/>
	</g>
	<g id="LINE-168">
		<line class="st0" x1="573.2" y1="444.7" x2="635.3" y2="444.7"/>
	</g>
	<g id="LINE-169">
		<polyline class="st3" points="539.7,459.7 539.7,305.5 545.3,305.5 		"/>
	</g>
	<g id="LINE-170">
		<line class="st3" x1="545.3" y1="305.5" x2="605" y2="305.5"/>
	</g>
	<g id="LINE-171">
		<line class="st3" x1="605" y1="422" x2="605" y2="305.5"/>
	</g>
	<polyline class="st3" points="608.7,418.3 605,422 601.3,418.3 	"/>
</g>
<g id="STAIR_RAILING">
	<g id="LINE-172">
		<polygon class="st2" points="629.8,462.7 638.1,318.5 642.6,318.7 642.4,321 640.2,320.8 632,462.7 		"/>
	</g>
	<g id="LINE-173">
		<polygon class="st2" points="505.7,477.7 510.2,477.7 510.2,315.7 505.8,315.7 505.8,317.9 508,317.9 508,475.4 505.7,475.4 		"/>
	</g>
	<g id="LINE-174">
		<polyline class="st2" points="634,467.2 561.2,467.2 561.2,329.2 577.7,329.2 577.7,462.7 575.5,462.7 575.5,331.4 563.5,331.4 
			563.5,464.9 634.2,464.9 		"/>
	</g>
</g>
<g id="A-CURTAIN_WALL">
	<g id="LINE-175">
		<line class="st0" x1="396.7" y1="166.8" x2="502.5" y2="166.8"/>
	</g>
	<g id="LINE-176">
		<line class="st0" x1="107.2" y1="166.8" x2="261.7" y2="166.8"/>
	</g>
	<g id="LINE-177">
		<line class="st0" x1="107.2" y1="721.4" x2="107.2" y2="454.8"/>
	</g>
	<g id="LINE-178">
		<line class="st0" x1="107.2" y1="430.8" x2="107.2" y2="166.8"/>
	</g>
	<g id="LINE-179">
		<line class="st0" x1="396.7" y1="156.3" x2="502.5" y2="156.3"/>
	</g>
	<g id="LINE-180">
		<line class="st0" x1="96.7" y1="156.3" x2="261.7" y2="156.3"/>
	</g>
	<g id="LINE-181">
		<line class="st0" x1="96.7" y1="721" x2="96.7" y2="156.3"/>
	</g>
</g>
<g id="A-Elevator_Cab">
	<g id="LWPOLYLINE-35">
		<polygon class="st1" points="398.9,519.8 312.7,519.8 312.7,462.8 398.9,462.8 		"/>
	</g>
</g>
<g id="DOOR_SWING">
	<g id="ARC-5">
		<path class="st3" d="M213,156.3c0-28.3-24.2-51.2-54-51.2"/>
	</g>
	<g id="ARC-6">
		<path class="st3" d="M445.5,159.1c0-29.8,24.2-54,54-54"/>
	</g>
	<g id="ARC-7">
		<path class="st3" d="M99.4,511.8c-29.8,0-54-24.2-54-54l0,0"/>
	</g>
</g>
<g id="DOOR">
	<g id="LWPOLYLINE-36">
		<polygon class="st4" points="505.7,496.6 503.5,496.5 503.5,549 505.7,549.1 		"/>
	</g>
	<g id="LWPOLYLINE-37">
		<polygon class="st4" points="437.3,560.3 437.1,562.5 489.6,562.5 489.8,560.3 		"/>
	</g>
	<g id="LINE-182">
		<rect x="503" y="166.8" class="st4" width="2.6" height="54.5"/>
	</g>
	<g id="LINE-183">
		<rect x="435.2" y="441.6" class="st4" width="53.8" height="2.6"/>
	</g>
	<g id="LWPOLYLINE-38">
		<rect x="169.1" y="441.6" class="st4" width="55" height="2.6"/>
	</g>
</g>
<g id="CLOSET">
	<g id="LWPOLYLINE-39">
		<polyline class="st1" points="560.3,245.9 622.6,245.9 625.2,200.6 		"/>
	</g>
	<g id="LWPOLYLINE-40">
		<polyline class="st1" points="631.2,200.9 628.3,250.4 560.3,250.4 		"/>
	</g>
	<g id="LWPOLYLINE-41">
		<polyline class="st1" points="548.5,583.2 610.7,583.2 604.1,697.5 500.1,697.5 		"/>
	</g>
	<g id="LWPOLYLINE-42">
		<polyline class="st1" points="548.5,578.7 615.4,578.7 608.3,702 500.1,702 		"/>
	</g>
</g>
<g id="HANGERS">
	<g id="LINE-184">
		<line class="st5" x1="541.8" y1="686.3" x2="552.1" y2="713.3"/>
	</g>
	<g id="LINE-185">
		<line class="st5" x1="547.5" y1="686.3" x2="557.8" y2="713.3"/>
	</g>
	<g id="LINE-186">
		<line class="st5" x1="535.3" y1="686.3" x2="535.3" y2="713.3"/>
	</g>
	<g id="LINE-187">
		<line class="st5" x1="539.2" y1="686.3" x2="539.2" y2="713.3"/>
	</g>
	<g id="LINE-188">
		<line class="st5" x1="527.6" y1="686.3" x2="527.6" y2="713.3"/>
	</g>
	<g id="LINE-189">
		<line class="st5" x1="531.4" y1="686.3" x2="531.4" y2="713.3"/>
	</g>
	<g id="LINE-190">
		<line class="st5" x1="591" y1="234.6" x2="601.3" y2="261.6"/>
	</g>
	<g id="LINE-191">
		<line class="st5" x1="596.7" y1="234.6" x2="607" y2="261.6"/>
	</g>
	<g id="LINE-192">
		<line class="st5" x1="584.5" y1="234.6" x2="584.5" y2="261.6"/>
	</g>
	<g id="LINE-193">
		<line class="st5" x1="588.4" y1="234.6" x2="588.4" y2="261.6"/>
	</g>
	<g id="LINE-194">
		<line class="st5" x1="576.8" y1="234.6" x2="576.8" y2="261.6"/>
	</g>
	<g id="LINE-195">
		<line class="st5" x1="580.7" y1="234.6" x2="580.7" y2="261.6"/>
	</g>
	<g id="LINE-196">
		<line class="st5" x1="641" y1="220.6" x2="613.5" y2="229.5"/>
	</g>
	<g id="LINE-197">
		<line class="st5" x1="640.7" y1="226.3" x2="613.2" y2="235.2"/>
	</g>
	<g id="LINE-198">
		<line class="st5" x1="641.3" y1="214.1" x2="614.3" y2="212.8"/>
	</g>
	<g id="LINE-199">
		<line class="st5" x1="641.1" y1="218" x2="614.2" y2="216.6"/>
	</g>
	<g id="LINE-200">
		<line class="st5" x1="641.7" y1="206.4" x2="614.8" y2="205"/>
	</g>
	<g id="LINE-201">
		<line class="st5" x1="641.5" y1="210.3" x2="614.5" y2="208.9"/>
	</g>
	<g id="LINE-202">
		<line class="st5" x1="624.2" y1="604.4" x2="596.5" y2="612.8"/>
	</g>
	<g id="LINE-203">
		<line class="st5" x1="623.8" y1="610.1" x2="596.2" y2="618.5"/>
	</g>
	<g id="LINE-204">
		<line class="st5" x1="624.6" y1="597.9" x2="597.7" y2="596.1"/>
	</g>
	<g id="LINE-205">
		<line class="st5" x1="624.4" y1="601.8" x2="597.4" y2="599.9"/>
	</g>
	<g id="LINE-206">
		<line class="st5" x1="625.2" y1="590.2" x2="598.2" y2="588.4"/>
	</g>
	<g id="LINE-207">
		<line class="st5" x1="624.9" y1="594" x2="598" y2="592.2"/>
	</g>
</g>
<g id="BATH_FIXTURE_EXTERIOR">
	<g id="LWPOLYLINE-43">
		<rect x="239.1" y="448.5" class="st6" width="33.1" height="120.4"/>
	</g>
	<g id="LWPOLYLINE-44">
		<path class="st1" d="M161.4,565.5c0.1,13.5-0.9,27-2.8,40.4"/>
	</g>
	<g id="LWPOLYLINE-45">
		<path class="st1" d="M153.2,615.5c-0.9,0.6-1.8,1-2.8,1.3c-4.1,1.2-8.4,1.9-12.6,1.8"/>
	</g>
	<g id="ARC-8">
		<path class="st1" d="M153.2,615.5c2.9-2.4,4.8-5.9,5.4-9.6"/>
	</g>
	<g id="LWPOLYLINE-46">
		<path class="st1" d="M161.4,565.5c0.1-13.5-0.9-27-2.8-40.4"/>
	</g>
	<g id="LWPOLYLINE-47">
		<path class="st1" d="M153.2,515.5c-0.9-0.6-1.8-1-2.8-1.3c-4.1-1.2-8.4-1.9-12.6-1.8"/>
	</g>
	<g id="ARC-9">
		<path class="st1" d="M158.7,525.1c-0.6-3.8-2.5-7.2-5.4-9.6"/>
	</g>
	<g id="LWPOLYLINE-48">
		<path class="st1" d="M114.2,565.5c-0.1,13.5,0.9,27,2.8,40.4"/>
	</g>
	<g id="LWPOLYLINE-49">
		<path class="st1" d="M122.3,615.5c0.9,0.5,1.8,1,2.8,1.3c4.1,1.2,8.4,1.9,12.6,1.8"/>
	</g>
	<g id="ARC-10">
		<path class="st1" d="M116.9,605.9c0.6,3.8,2.5,7.2,5.4,9.6"/>
	</g>
	<g id="LWPOLYLINE-50">
		<path class="st1" d="M114.2,565.5c-0.1-13.5,0.9-27,2.8-40.4"/>
	</g>
	<g id="LWPOLYLINE-51">
		<path class="st1" d="M122.3,515.5c0.9-0.5,1.8-1,2.8-1.3c4.1-1.2,8.4-1.9,12.6-1.8"/>
	</g>
	<g id="ARC-11">
		<path class="st1" d="M122.3,515.5c-2.9,2.4-4.8,5.9-5.4,9.6"/>
	</g>
	<line class="st1" x1="176.7" y1="721.4" x2="211.9" y2="721.4"/>
	<line class="st6" x1="272.1" y1="461.5" x2="278.1" y2="461.5"/>
	<line class="st6" x1="272.1" y1="556" x2="278.1" y2="556"/>
	<line class="st6" x1="272.1" y1="513.7" x2="278.1" y2="513.7"/>
	<line class="st6" x1="272.1" y1="504.3" x2="278.1" y2="504.3"/>
</g>
<g id="BATH_FIXTURES">
	<g id="ELLIPSE-2">
		<path class="st7" d="M159.8,721.3v-6.5c-0.8-0.1-1.4-0.3-1.4-0.5l-0.3-5.3l0,0c0-0.2,1-0.3,2.3-0.3s2.2,0.2,2.2,0.3l0,0l-0.3,5.3
			c0,0.2-0.6,0.4-1.4,0.5v6.5"/>
	</g>
	<g id="LWPOLYLINE-52">
		<path class="st7" d="M144.6,721.4v-3.5h-2.2c-0.6,0-1.1-0.5-1.1-1.2c0-0.6,0.5-1.1,1.1-1.1h3c0.6,0,1.1,0.5,1.1,1.1c0,0,0,0,0,0
			c0,0.3-0.1,0.6-0.3,0.8v3.9"/>
	</g>
	<path class="st8" d="M179,721.2v-1.1h-1.3V719c0-0.3-0.3-0.6-0.6-0.6h-0.3v-1.2c0-0.3-0.2-0.6-0.5-0.6c-0.3,0-0.6,0.2-0.6,0.5
		c0,0,0,0.1,0,0.1v1.2h-0.3c-0.3,0-0.6,0.3-0.6,0.6v1.1h-1.3v1.1"/>
	<g id="ARC-12">
		<path class="st3" d="M247.5,675.4c-2.8-2.4-7-2.4-9.8,0"/>
	</g>
	<g id="ARC-13">
		<path class="st3" d="M251.4,680.8c-0.9-2.1-2.2-3.9-3.9-5.4"/>
	</g>
	<g id="ARC-14">
		<path class="st3" d="M237.7,675.4c-1.7,1.5-3,3.3-3.9,5.4"/>
	</g>
	<g id="ARC-15">
		<path class="st3" d="M247.5,675.4c-2.8-2.4-7-2.4-9.8,0"/>
	</g>
	<g id="ARC-16">
		<path class="st3" d="M237.7,675.4c-1.8,1.6-3.1,3.5-4,5.7"/>
	</g>
	<g id="ARC-17">
		<path class="st3" d="M251.4,680.7c-0.9-2.1-2.2-3.9-3.9-5.3"/>
	</g>
	<g id="ARC-18">
		<path class="st3" d="M253.1,689.4c0-3-0.6-5.9-1.8-8.7"/>
	</g>
	<g id="ARC-19">
		<path class="st3" d="M233.8,680.7c-1.2,2.7-1.8,5.7-1.8,8.7"/>
	</g>
	<g id="ARC-20">
		<path class="st3" d="M254.2,709.2c0.1-0.8-0.3-1.5-1-1.8"/>
	</g>
	<g id="ARC-21">
		<path class="st3" d="M253.9,714c0.1-1.6,0.3-3.3,0.4-4.9"/>
	</g>
	<g id="ARC-22">
		<path class="st3" d="M253.2,707.3c-3.3-1.6-6.9-2.5-10.6-2.5"/>
	</g>
	<g id="ARC-23">
		<path class="st3" d="M252.8,707.1c0.2-5.9,0.3-11.8,0.3-17.8"/>
	</g>
	<g id="ARC-24">
		<path class="st3" d="M232,689.4c0,5.9,0.1,11.8,0.3,17.8"/>
	</g>
	<g id="ARC-25">
		<path class="st3" d="M231,709.1c0.1,1.6,0.2,3.3,0.4,4.9"/>
	</g>
	<g id="ARC-26">
		<path class="st3" d="M232,707.3c-0.7,0.4-1.1,1.1-1,1.8"/>
	</g>
	<g id="ARC-27">
		<path class="st3" d="M242.6,704.9c-3.7,0-7.3,0.8-10.6,2.5"/>
	</g>
	<g id="LINE-208">
		<line class="st3" x1="232.5" y1="715.1" x2="252.6" y2="715.1"/>
	</g>
	<g id="ARC-28">
		<path class="st3" d="M252.7,715.1c0.6,0,1.1-0.5,1.2-1.1"/>
	</g>
	<g id="ARC-29">
		<path class="st3" d="M231.3,714c0.1,0.6,0.6,1.1,1.2,1.1"/>
	</g>
	<g id="CIRCLE-5">
		<path class="st3" d="M137.8,567.3c-1,0-1.8-0.8-1.8-1.8c0-1,0.8-1.8,1.8-1.8c1,0,1.8,0.8,1.8,1.8c0,0,0,0,0,0
			C139.6,566.5,138.8,567.3,137.8,567.3z"/>
	</g>
	<g id="LWPOLYLINE-53">
		<path class="st3" d="M159.6,565.5c0.1,13.4-0.9,26.8-2.7,40.1"/>
	</g>
	<g id="LWPOLYLINE-54">
		<path class="st3" d="M152.2,614c-0.7,0.4-1.5,0.8-2.3,1c-3.9,1.2-8,1.8-12.1,1.8"/>
	</g>
	<g id="ARC-30">
		<path class="st3" d="M152.2,614c2.5-2.1,4.2-5.1,4.7-8.4"/>
	</g>
	<g id="LWPOLYLINE-55">
		<path class="st3" d="M159.6,565.5c0.1-13.4-0.9-26.8-2.7-40.1"/>
	</g>
	<g id="LWPOLYLINE-56">
		<path class="st3" d="M152.2,517c-0.7-0.4-1.5-0.8-2.3-1c-3.9-1.2-8-1.8-12.1-1.8"/>
	</g>
	<g id="ARC-31">
		<path class="st3" d="M156.8,525.4c-0.5-3.3-2.1-6.2-4.7-8.4"/>
	</g>
	<g id="LWPOLYLINE-57">
		<path class="st3" d="M116,565.5c-0.1,13.4,0.9,26.8,2.7,40.1"/>
	</g>
	<g id="LWPOLYLINE-58">
		<path class="st3" d="M123.4,614c0.7,0.4,1.5,0.8,2.3,1c3.9,1.2,8,1.8,12.1,1.8"/>
	</g>
	<g id="ARC-32">
		<path class="st3" d="M118.8,605.6c0.5,3.3,2.2,6.2,4.7,8.4"/>
	</g>
	<g id="LWPOLYLINE-59">
		<path class="st3" d="M116,565.5c-0.1-13.4,0.9-26.8,2.7-40.1"/>
	</g>
	<g id="LWPOLYLINE-60">
		<path class="st3" d="M123.4,517c0.7-0.4,1.5-0.8,2.3-1c3.9-1.2,8-1.8,12.1-1.8"/>
	</g>
	<g id="ARC-33">
		<path class="st3" d="M123.4,517c-2.5,2.1-4.2,5.1-4.7,8.4"/>
	</g>
	<g id="ARC-34">
		<path class="st3" d="M117.1,619.2c-0.8-0.1-1.5,0.5-1.5,1.2c0,0,0,0,0,0c-0.1,0.8,0.4,1.5,1.2,1.6c0.8,0.1,1.5-0.4,1.6-1.2
			c0-0.1,0-0.1,0-0.2c0-0.1,0-0.2,0-0.4"/>
	</g>
	<g id="ARC-35">
		<path class="st3" d="M116.3,620c-0.3,0.3-0.3,0.9,0,1.2c0,0,0,0,0,0c0.3,0.3,0.9,0.3,1.2,0c0,0,0,0,0,0"/>
	</g>
	<g id="ARC-36">
		<path class="st9" d="M117.6,621.2l12.2-13c0.3-0.3,0.3-0.9,0-1.2c0,0,0,0,0,0c-0.3-0.3-0.9-0.3-1.2,0l-12.2,13"/>
	</g>
	<g id="LINE-209">
		<line class="st3" x1="120.5" y1="625.8" x2="122.4" y2="623.8"/>
	</g>
	<g id="LINE-210">
		<line class="st3" x1="113.5" y1="615.5" x2="111.6" y2="617.5"/>
	</g>
	<g id="LINE-211">
		<line class="st3" x1="114.6" y1="616.5" x2="112.6" y2="618.5"/>
	</g>
	<g id="LINE-212">
		<line class="st3" x1="111.6" y1="617.5" x2="120.5" y2="625.8"/>
	</g>
	<g id="LINE-213">
		<line class="st3" x1="113.5" y1="615.5" x2="117.3" y2="619"/>
	</g>
	<g id="LINE-214">
		<line class="st3" x1="118.6" y1="620.2" x2="122.4" y2="623.8"/>
	</g>
	<g id="LINE-215">
		<line class="st3" x1="113.4" y1="617.6" x2="112.4" y2="616.6"/>
	</g>
	<g id="LINE-216">
		<line class="st3" x1="113.8" y1="617.3" x2="112.7" y2="616.3"/>
	</g>
	<g id="ELLIPSE-3">
		<path class="st3" d="M121.3,622.8c-0.8,0.4-1.5,1.1-1.9,1.9v0.1"/>
	</g>
	<g id="ELLIPSE-4">
		<path class="st3" d="M120.1,625.5c0.8-0.4,1.5-1.1,1.9-1.9c0,0,0-0.1,0-0.1"/>
	</g>
	<g id="ARC-37">
		<path class="st3" d="M113.6,619.4c-0.7,1.8,0.3,3.9,2.1,4.6c0.9,0.3,1.8,0.3,2.6-0.1"/>
	</g>
	<g id="ARC-38">
		<path class="st3" d="M120.3,621.8c0.4-1.1,0.2-2.2-0.4-3.2"/>
	</g>
	<g id="ARC-39">
		<path class="st3" d="M118.7,617.5c-1-0.5-2.2-0.6-3.2-0.1"/>
	</g>
</g>
<g id="SINK">
	<rect x="266.8" y="527.2" class="st8" width="1.3" height="2.5"/>
	<path class="st8" d="M267.5,530.3c-1.1,0-1.9-0.8-1.9-1.9c0-1.1,0.8-1.9,1.9-1.9s1.9,0.8,1.9,1.9c0,0,0,0,0,0
		C269.4,529.5,268.5,530.3,267.5,530.3z"/>
	<path class="st8" d="M267.5,536.3c-1,0-1.9-0.9-1.9-1.9c0-1,0.9-1.9,1.9-1.9c1,0,1.9,0.9,1.9,1.9S268.6,536.3,267.5,536.3
		C267.5,536.3,267.5,536.3,267.5,536.3z"/>
	<path class="st8" d="M264.5,535v13.3c0,0.4-0.3,0.7-0.7,0.7h-17.7c-0.4,0-0.7-0.3-0.7-0.7v-27.8c0-0.4,0.3-0.7,0.7-0.7h17.7
		c0.4,0,0.7,0.3,0.7,0.7v13.3"/>
	<path class="st7" d="M257.3,535c-0.3,0-0.6-0.3-0.6-0.6l0,0c0-0.3,0.3-0.6,0.6-0.6h10.5c0.4,0,0.6,0.3,0.6,0.6c0,0,0,0,0,0l0,0
		c0,0.4-0.3,0.6-0.6,0.6c0,0,0,0,0,0H257.3z"/>
	<rect x="266.8" y="539.2" class="st8" width="1.3" height="2.5"/>
	<path class="st8" d="M267.5,542.4c-1,0-1.9-0.9-1.9-1.9c0-1,0.9-1.9,1.9-1.9c1,0,1.9,0.9,1.9,1.9S268.5,542.4,267.5,542.4
		C267.5,542.4,267.5,542.4,267.5,542.4z"/>
	<rect x="266.8" y="476.4" class="st8" width="1.3" height="2.5"/>
	<path class="st8" d="M267.5,479.5c-1,0-1.9-0.9-1.9-1.9c0-1,0.9-1.9,1.9-1.9c1,0,1.9,0.9,1.9,1.9l0,0
		C269.4,478.6,268.5,479.5,267.5,479.5z"/>
	<path class="st8" d="M267.5,485.5c-1.1,0-1.9-0.8-1.9-1.9s0.8-1.9,1.9-1.9s1.9,0.8,1.9,1.9c0,0,0,0,0,0
		C269.4,484.6,268.6,485.5,267.5,485.5z"/>
	<path class="st8" d="M264.5,484.2v13.3c0,0.4-0.3,0.7-0.7,0.7l0,0h-17.7c-0.4,0-0.7-0.3-0.7-0.7l0,0v-27.8c0-0.4,0.3-0.7,0.7-0.7
		l0,0h17.7c0.4,0,0.7,0.3,0.7,0.7l0,0V483"/>
	<path class="st7" d="M257.3,484.2c-0.3,0-0.6-0.3-0.6-0.6l0,0c0-0.4,0.3-0.6,0.6-0.6h0h10.5c0.4,0,0.6,0.3,0.6,0.6l0,0
		c0,0.4-0.3,0.6-0.6,0.6c0,0,0,0,0,0H257.3z"/>
	<rect x="266.8" y="488.4" class="st8" width="1.3" height="2.5"/>
	<path class="st8" d="M267.5,491.5c-1.1,0-1.9-0.8-1.9-1.9s0.8-1.9,1.9-1.9c1.1,0,1.9,0.8,1.9,1.9c0,0,0,0,0,0
		C269.4,490.7,268.5,491.5,267.5,491.5z"/>
</g>
<g id="BATH_GLAZING">
	<g id="LINE-217">
		<polyline class="st10" points="114.5,632.6 264.5,632.6 264.5,631 114.5,631 		"/>
	</g>
	<g id="LINE-218">
		<polyline class="st10" points="214,632.7 214,715.6 215.6,715.6 215.6,632.7 		"/>
	</g>
	<g id="LINE-219">
		<line class="st5" x1="165.4" y1="631" x2="165.4" y2="632.6"/>
	</g>
</g>
<g id="EXTERIOR_WINDOW">
	<g id="LWPOLYLINE-61">
		<polygon class="st11" points="96.7,740.7 0.2,740.7 0.2,436.7 96.7,436.7 96.7,448.7 12.2,448.7 12.2,734.2 96.7,734.2 		"/>
	</g>
	<g id="LWPOLYLINE-62">
		<polygon class="st11" points="96.7,156.3 96.7,0.3 502.5,0.2 502.5,12.2 108.7,12.3 108.7,156.3 		"/>
	</g>
</g>
<g id="WINDOW_GLAZING">
	<g id="LWPOLYLINE-63">
		<rect x="158.9" y="105.1" class="st12" width="1.5" height="54"/>
	</g>
	<g id="LWPOLYLINE-64">
		<rect x="45.4" y="457.8" class="st12" width="54" height="1.5"/>
	</g>
	<g id="LWPOLYLINE-65">
		<line class="st12" x1="99.7" y1="168.6" x2="99.7" y2="216.7"/>
		<line class="st12" x1="98.2" y1="216.7" x2="98.2" y2="168.6"/>
	</g>
	<g id="LWPOLYLINE-66">
		<line class="st12" x1="99.7" y1="217.4" x2="99.7" y2="281.5"/>
		<line class="st12" x1="98.2" y1="281.5" x2="98.2" y2="217.4"/>
	</g>
	<g id="LWPOLYLINE-67">
		<line class="st12" x1="99.7" y1="719.1" x2="99.7" y2="630.4"/>
		<line class="st12" x1="98.2" y1="630.4" x2="98.2" y2="719.1"/>
	</g>
	<g id="LWPOLYLINE-68">
		<line class="st12" x1="98.2" y1="617.1" x2="98.2" y2="629.7"/>
		<line class="st12" x1="99.7" y1="629.7" x2="99.7" y2="617.1"/>
	</g>
	<g id="LWPOLYLINE-69">
		<line class="st12" x1="99.7" y1="282.2" x2="99.7" y2="360.7"/>
		<line class="st12" x1="98.2" y1="360.7" x2="98.2" y2="282.2"/>
	</g>
	<g id="LWPOLYLINE-70">
		<line class="st12" x1="99.7" y1="361.3" x2="99.7" y2="429"/>
		<line class="st12" x1="98.2" y1="429" x2="98.2" y2="361.3"/>
	</g>
	<g id="LWPOLYLINE-71">
		<rect x="498" y="105.1" class="st12" width="1.5" height="54"/>
	</g>
	<g id="LWPOLYLINE-72">
		<line class="st12" x1="98" y1="513.7" x2="98" y2="616.2"/>
		<line class="st12" x1="99.5" y1="616.2" x2="99.5" y2="513.7"/>
	</g>
	<g id="LWPOLYLINE-73">
		<line class="st12" x1="259.9" y1="159.2" x2="214.7" y2="159.2"/>
		<line class="st12" x1="214.7" y1="157.7" x2="259.9" y2="157.7"/>
	</g>
	<g id="LWPOLYLINE-74">
		<line class="st12" x1="157.1" y1="159.2" x2="109" y2="159.2"/>
		<line class="st12" x1="109" y1="157.7" x2="157.1" y2="157.7"/>
	</g>
	<g id="LWPOLYLINE-75">
		<line class="st12" x1="398.5" y1="159.2" x2="443.6" y2="159.2"/>
		<line class="st12" x1="443.6" y1="157.8" x2="398.5" y2="157.8"/>
	</g>
</g>
<g id="MULLION">
	<g id="LWPOLYLINE-76">
		<polygon class="st1" points="158.9,157.6 157.8,157.6 157.8,159.4 158.9,159.4 158.9,166.8 155.9,166.8 155.9,159.4 157.1,159.4 
			157.1,157.6 155.9,157.6 155.9,156.3 158.9,156.3 		"/>
	</g>
	<g id="LWPOLYLINE-77">
		<polygon class="st1" points="215.9,156.3 215.9,157.6 214.7,157.6 214.7,159.4 215.9,159.4 215.9,166.8 212.9,166.8 212.9,159.4 
			214.1,159.4 214.1,157.6 212.9,157.6 212.9,156.3 		"/>
	</g>
	<g id="LWPOLYLINE-78">
		<polygon class="st1" points="261.7,156.3 261.7,157.6 260.5,157.6 260.5,159.4 261.7,159.4 261.7,166.8 258.7,166.8 258.7,159.4 
			259.9,159.4 259.9,157.6 258.7,157.6 258.7,156.3 		"/>
	</g>
	<g id="LWPOLYLINE-79">
		<polygon class="st1" points="107.2,718 107.2,721 99.9,721 99.9,719.8 98,719.8 98,721 96.7,721 96.7,718 98,718 98,719.2 
			99.9,719.2 99.9,718 		"/>
	</g>
	<g id="LWPOLYLINE-80">
		<polygon class="st1" points="107.2,628.6 107.2,631.6 99.9,631.6 99.9,630.4 98,630.4 98,631.6 96.7,631.6 96.7,628.6 98,628.6 
			98,629.7 99.9,629.7 99.9,628.6 		"/>
	</g>
	<g id="LWPOLYLINE-81">
		<polygon class="st1" points="107.2,615.1 107.2,618.1 99.9,618.1 99.9,616.9 98,616.9 98,618.1 96.7,618.1 96.7,615.1 98,615.1 
			98,616.2 99.9,616.2 99.9,615.1 		"/>
	</g>
	<g id="LWPOLYLINE-82">
		<polygon class="st1" points="107.2,427.8 107.2,430.8 99.9,430.8 99.9,429.6 98,429.6 98,430.8 96.7,430.8 96.7,427.8 98,427.8 
			98,429 99.9,429 99.9,427.8 		"/>
	</g>
	<g id="LWPOLYLINE-83">
		<polygon class="st1" points="107.2,359.5 107.2,362.5 99.9,362.5 99.9,361.3 98,361.3 98,362.5 96.7,362.5 96.7,359.5 98,359.5 
			98,360.7 99.9,360.7 99.9,359.5 		"/>
	</g>
	<g id="LWPOLYLINE-84">
		<polygon class="st1" points="107.2,280.3 107.2,283.3 99.9,283.3 99.9,282.2 98,282.2 98,283.3 96.7,283.3 96.7,280.3 98,280.3 
			98,281.5 99.9,281.5 99.9,280.3 		"/>
	</g>
	<g id="LWPOLYLINE-85">
		<polygon class="st1" points="107.2,215.5 107.2,218.5 99.9,218.5 99.9,217.4 98,217.4 98,218.5 96.7,218.5 96.7,215.5 98,215.5 
			98,216.7 99.9,216.7 99.9,215.5 		"/>
	</g>
	<g id="LWPOLYLINE-86">
		<polygon class="st1" points="107.2,166.8 107.2,169.8 99.9,169.8 99.9,168.6 98,168.6 98,169.8 96.7,169.8 96.7,166.8 98,166.8 
			98,167.9 99.9,167.9 99.9,166.8 		"/>
	</g>
	<g id="LWPOLYLINE-87">
		<polygon class="st1" points="110.2,166.8 107.2,166.8 107.2,159.4 108.4,159.4 108.4,157.6 107.2,157.6 107.2,156.3 110.2,156.3 
			110.2,157.6 109,157.6 109,159.4 110.2,159.4 		"/>
	</g>
	<g id="LWPOLYLINE-88">
		<polygon class="st1" points="399.7,166.8 396.7,166.8 396.7,159.4 397.9,159.4 397.9,157.6 396.7,157.6 396.7,156.3 399.7,156.3 
			399.7,157.6 398.5,157.6 398.5,159.4 399.7,159.4 		"/>
	</g>
	<g id="LWPOLYLINE-89">
		<polygon class="st1" points="499.5,157.6 500.6,157.6 500.6,159.4 499.5,159.4 499.5,166.8 502.5,166.8 502.5,159.4 501.3,159.4 
			501.3,157.6 502.5,157.6 502.5,156.3 499.5,156.3 		"/>
	</g>
	<g id="LWPOLYLINE-90">
		<polygon class="st1" points="442.5,156.3 442.5,157.6 443.7,157.6 443.7,159.4 442.5,159.4 442.5,166.8 445.5,166.8 445.5,159.4 
			444.3,159.4 444.3,157.6 445.5,157.6 445.5,156.3 		"/>
	</g>
	<g id="LWPOLYLINE-91">
		<polygon class="st1" points="97.9,457.8 97.9,456.6 99.7,456.6 99.7,457.8 107.1,457.8 107.1,454.8 99.7,454.8 99.7,456 97.9,456 
			97.9,454.8 96.6,454.8 96.6,457.8 		"/>
	</g>
	<g id="LWPOLYLINE-92">
		<polygon class="st1" points="96.6,514.8 97.9,514.8 97.9,513.6 99.7,513.6 99.7,514.8 107.1,514.8 107.1,511.8 99.7,511.8 
			99.7,513 97.9,513 97.9,511.8 96.6,511.8 		"/>
	</g>
</g>
<g id="WALL">
	<polygon class="st13" points="502.5,0.2 502.5,166.8 625.2,166.8 625.2,200.6 649.4,200.6 645.6,265.4 560.3,265.4 560.3,233.1 
		510.2,233.1 510.2,219.5 506.3,219.5 506.3,272 502.2,272 502.2,219.5 498.2,219.5 498.2,436.9 489,436.9 489,448.9 498.2,448.9 
		498.2,496.6 505.7,496.5 505.7,278.7 645.2,278.7 629,555 505.8,555 505.8,549 498.3,549 498.3,555 489.7,555 489.7,562.5 
		510,562.5 523,562.5 523,584.7 548.5,584.7 548.5,562.5 628.5,562.5 619.4,721.5 500.1,721.5 500.1,696 431.1,696 431.1,562.9 
		437.2,562.9 437.2,555 408,555 408,518.3 399,518.3 399,535.5 304.5,535.5 304.5,459 399,459 399,464.3 408,464.3 408,448.9 
		436.5,448.9 436.5,445 386.1,445 386.1,440.8 436.5,440.8 436.5,436.9 221.9,436.9 221.9,440.8 272.8,440.8 272.8,445 221.9,445 
		221.9,448.9 272.1,448.9 272.1,454.1 278.1,454.1 278.1,563.7 272.1,563.7 272.1,631.1 264.3,631.1 264.3,638.6 272.1,638.6 
		272.1,715.1 209.9,715.1 209.9,727.1 185.9,727.1 185.9,721.1 107.2,721.4 107.2,721 96.7,721 96.7,731.2 0.2,731.2 0.2,742.5 
		96.7,742.5 96.7,746.2 283.8,746.2 283.8,565.5 421.8,565.5 421.8,746.2 627.7,746.2 661.7,156.3 514.5,156.3 514.5,0.2 	"/>
	<g id="LWPOLYLINE-93">
		<polygon class="st13" points="96.7,430.8 96.7,454.8 136.9,454.8 136.9,448.9 169.4,448.9 169.4,436.9 136.9,436.9 136.9,430.8 		
			"/>
	</g>
	<g id="LWPOLYLINE-94">
		<circle class="st13" cx="124.8" cy="187.8" r="9"/>
	</g>
	<g id="LWPOLYLINE-95">
		<polygon class="st13" points="573.2,333.7 565.8,333.7 565.7,462.7 573.2,462.7 		"/>
	</g>
	<g id="LWPOLYLINE-96">
		<polyline class="st13" points="107.4,637 114.7,637 114.7,629.5 107.4,629.5 		"/>
	</g>
	<rect x="280.3" y="134.3" class="st14" width="94.3" height="23.4"/>
	<rect x="280.3" y="166.8" class="st14" width="94.3" height="27.2"/>
	<polygon class="st13" points="374.6,134.3 374.6,157.7 280.3,157.7 280.3,134.3 280.3,128.2 280.3,119.9 275.2,119.9 275.2,156.3 
		261.7,156.3 261.7,203.9 280.3,203.9 280.3,197.6 280.3,194 280.3,166.8 374.6,166.8 374.6,194 374.6,197.6 374.6,203.9 
		396.7,203.9 396.7,156.3 383.2,156.3 383.2,119.9 374.6,119.9 374.6,128.2 	"/>
</g>
<g id="LIVE">
	<g class="st15">
		<path class="st16" d="M298.5,240.3l-2-4.9v4.9h-0.8v-6.4h0.9l2.2,5.2l2.2-5.2h0.9v6.4H301v-4.9l-2,4.9H298.5z"/>
	</g>
	<g class="st15">
		<path class="st16" d="M306,233.9l2.5,6.4h-0.8l-0.7-1.9h-2.6l-0.7,1.9h-0.8l2.5-6.4H306z M304.6,237.7h2.1l-1-2.7L304.6,237.7z"/>
	</g>
	<g class="st15">
		<path class="st16" d="M309.8,238.7c0.2,0.7,0.8,1.1,1.6,1.1c0.8,0,1.4-0.4,1.4-1.1c0-0.5-0.3-0.8-1-1l-1.1-0.3
			c-0.9-0.2-1.5-0.7-1.5-1.6c0-1.1,0.9-1.8,2.1-1.8c1.3,0,2.1,0.7,2.3,1.7h-0.8c-0.2-0.6-0.7-1-1.5-1c-0.8,0-1.3,0.4-1.3,1.1
			c0,0.5,0.4,0.8,1,1l1.1,0.3c1,0.3,1.6,0.8,1.6,1.7c0,1.2-0.9,1.9-2.2,1.9s-2.2-0.6-2.5-1.8H309.8z"/>
	</g>
	<g class="st15">
		<path class="st16" d="M314.2,233.9h5.3v0.7h-2.2v5.7h-0.8v-5.7h-2.2V233.9z"/>
		<path class="st16" d="M324.6,233.9v0.7h-3.3v2h3v0.7h-3v2.2h3.3v0.7h-4.1v-6.4H324.6z"/>
		<path class="st16" d="M326.7,237.6v2.7h-0.8v-6.4h2.4c1.3,0,2.1,0.6,2.1,1.9c0,1.1-0.6,1.7-1.6,1.8l1.9,2.7h-0.9l-1.8-2.7H326.7z
			 M326.7,236.9h1.5c0.8,0,1.3-0.4,1.3-1.1c0-0.7-0.5-1.1-1.3-1.1h-1.5V236.9z"/>
		<path class="st16" d="M338.4,238.5c0,1.2-0.8,1.8-2.1,1.8H334v-6.4h2.1c1.3,0,2.1,0.6,2.1,1.7c0,0.8-0.4,1.2-0.9,1.4
			C337.9,237.2,338.4,237.8,338.4,238.5z M336.1,236.7c0.9,0,1.3-0.3,1.3-1s-0.5-1-1.3-1h-1.3v2.1H336.1z M334.8,239.6h1.5
			c0.9,0,1.3-0.4,1.3-1.1c0-0.7-0.5-1.1-1.3-1.1h-1.5V239.6z"/>
		<path class="st16" d="M343.6,233.9v0.7h-3.3v2h3v0.7h-3v2.2h3.3v0.7h-4.1v-6.4H343.6z"/>
		<path class="st16" d="M344.9,233.9h2c1.9,0,3.1,1.2,3.1,3.2c0,1.9-1.2,3.2-3.1,3.2h-2V233.9z M346.9,239.6c1.4,0,2.3-1,2.3-2.5
			c0-1.5-0.9-2.5-2.3-2.5h-1.2v4.9H346.9z"/>
	</g>
	<g class="st15">
		<path class="st16" d="M352,237.6v2.7h-0.8v-6.4h2.4c1.3,0,2.1,0.6,2.1,1.9c0,1.1-0.6,1.7-1.6,1.8l1.9,2.7H355l-1.8-2.7H352z
			 M352,236.9h1.5c0.8,0,1.3-0.4,1.3-1.1c0-0.7-0.5-1.1-1.3-1.1H352V236.9z"/>
	</g>
	<g class="st15">
		<path class="st16" d="M359.4,240.4c-1.7,0-2.9-1.4-2.9-3.3c0-1.9,1.2-3.3,2.9-3.3c1.7,0,2.9,1.4,2.9,3.3
			C362.3,239.1,361.1,240.4,359.4,240.4z M359.4,234.6c-1.2,0-2.1,1.1-2.1,2.5c0,1.5,0.8,2.5,2.1,2.5c1.2,0,2.1-1.1,2.1-2.5
			C361.5,235.6,360.7,234.6,359.4,234.6z"/>
	</g>
	<g class="st15">
		<path class="st16" d="M366,240.4c-1.7,0-2.9-1.4-2.9-3.3c0-1.9,1.2-3.3,2.9-3.3c1.7,0,2.9,1.4,2.9,3.3
			C368.9,239.1,367.7,240.4,366,240.4z M366,234.6c-1.2,0-2.1,1.1-2.1,2.5c0,1.5,0.8,2.5,2.1,2.5c1.2,0,2.1-1.1,2.1-2.5
			C368.1,235.6,367.3,234.6,366,234.6z"/>
		<path class="st16" d="M372.9,240.3l-2-4.9v4.9h-0.8v-6.4h0.9l2.2,5.2l2.2-5.2h0.9v6.4h-0.8v-4.9l-2,4.9H372.9z"/>
	</g>
	<g class="st15">
		<path class="st16" d="M312.9,245.8c-0.8,0-1.2,0.5-1.2,1.3h-0.8c0.1-1.2,0.9-2,2.1-2c1.2,0,1.9,0.7,1.9,1.8c0,0.8-0.6,1.4-1.3,2.2
			l-1.6,1.8h3v0.7h-4.2V251l2.1-2.3c0.7-0.7,1.2-1.3,1.2-1.9C314.1,246.2,313.6,245.8,312.9,245.8z"/>
		<path class="st16" d="M317.9,251.5h-0.8v-5.4l-1.6,0.8v-0.8l1.9-1h0.5V251.5z"/>
		<path class="st16" d="M319.5,246.1c-0.3,0-0.5-0.2-0.5-0.5c0-0.3,0.2-0.6,0.6-0.6s0.6,0.2,0.6,0.6c0,0.2-0.1,0.4-0.2,0.7l-0.5,0.9
			h-0.5L319.5,246.1z"/>
		<path class="st16" d="M320.9,248.4h2.5v0.7h-2.5V248.4z"/>
	</g>
	<g class="st15">
		<path class="st16" d="M325,250c0.2,0.5,0.5,0.9,1.2,0.9c0.9,0,1.6-1.1,1.6-2.4c0-0.1,0-0.2,0-0.3c-0.2,0.6-0.9,1.1-1.6,1.1
			c-1.2,0-2.1-1-2.1-2.1c0-1.2,0.8-2.1,2.1-2.1c0.8,0,1.5,0.4,1.9,1.2c0.3,0.6,0.4,1.2,0.4,2c0,2.1-1,3.4-2.3,3.4
			c-1.1,0-1.7-0.6-2-1.6H325z M326.3,245.7c-0.8,0-1.4,0.6-1.4,1.4c0,0.9,0.6,1.5,1.4,1.5c0.8,0,1.4-0.6,1.4-1.5
			C327.7,246.3,327.1,245.7,326.3,245.7z"/>
	</g>
	<g class="st15">
		<path class="st16" d="M329.4,245.1h0.7v2.3h-0.7V245.1z M330.6,245.1h0.7v2.3h-0.7V245.1z"/>
		<path class="st16" d="M336.8,249.1l1.7,2.4h-0.9l-1.3-1.8l-1.3,1.8h-0.8l1.7-2.4l-1.6-2.3h0.9l1.2,1.7l1.2-1.7h0.9L336.8,249.1z"
			/>
		<path class="st16" d="M343.6,251.5h-0.8v-5.4l-1.6,0.8v-0.8l1.9-1h0.5V251.5z"/>
	</g>
	<g class="st15">
		<path class="st16" d="M345.7,248.6h-0.6v-3.5h3.5v0.7h-2.8v1.9c0.2-0.2,0.6-0.4,1.2-0.4c1.2,0,2,0.9,2,2.1c0,1.2-0.9,2.1-2.1,2.1
			c-1.2,0-2-0.7-2.2-1.9h0.8c0.1,0.7,0.6,1.2,1.4,1.2c0.8,0,1.3-0.6,1.3-1.4c0-0.8-0.5-1.4-1.3-1.4
			C346.4,248.1,346,248.3,345.7,248.6z"/>
	</g>
	<g class="st15">
		<path class="st16" d="M349.6,245.1h0.7v2.3h-0.7V245.1z"/>
	</g>
	<g class="st15">
		<path class="st16" d="M351.1,248.4h2.5v0.7h-2.5V248.4z"/>
	</g>
	<g class="st15">
		<path class="st16" d="M354.6,248.3c0-1.9,1-3.3,2.4-3.3s2.4,1.3,2.4,3.3c0,1.9-1,3.3-2.4,3.3S354.6,250.3,354.6,248.3z
			 M355.4,248.3c0,1.5,0.5,2.5,1.6,2.5c1,0,1.6-1.1,1.6-2.5c0-1.5-0.6-2.5-1.6-2.5C355.9,245.8,355.4,246.8,355.4,248.3z"/>
		<path class="st16" d="M360.2,245.1h0.7v2.3h-0.7V245.1z M361.4,245.1h0.7v2.3h-0.7V245.1z"/>
	</g>
	<g class="st15">
		<path class="st16" d="M339,485.2v2.6h-0.8v-6.4h2.4c1.3,0,2.1,0.7,2.1,1.9c0,1.2-0.8,1.9-2.1,1.9H339z M340.6,482H339v2.4h1.6
			c0.9,0,1.3-0.5,1.3-1.2C341.9,482.5,341.4,482,340.6,482z"/>
		<path class="st16" d="M344.6,485v2.7h-0.8v-6.4h2.4c1.3,0,2.1,0.6,2.1,1.9c0,1.1-0.6,1.7-1.6,1.8l1.9,2.7h-0.9l-1.8-2.7H344.6z
			 M344.6,484.3h1.5c0.8,0,1.3-0.4,1.3-1.1c0-0.7-0.5-1.1-1.3-1.1h-1.5V484.3z"/>
		<path class="st16" d="M350.3,487.7h-0.8v-6.4h0.8V487.7z"/>
	</g>
	<g class="st15">
		<path class="st16" d="M353.8,487.7l-2.5-6.4h0.9l2,5.3l2-5.3h0.8l-2.5,6.4H353.8z"/>
	</g>
	<g class="st15">
		<path class="st16" d="M360.2,481.3l2.5,6.4h-0.8l-0.7-1.9h-2.6l-0.7,1.9h-0.8l2.5-6.4H360.2z M358.8,485.1h2.1l-1-2.7L358.8,485.1
			z"/>
	</g>
	<g class="st15">
		<path class="st16" d="M362.7,481.3h5.3v0.7h-2.2v5.7h-0.8V482h-2.2V481.3z"/>
		<path class="st16" d="M373.1,481.3v0.7h-3.3v2h3v0.7h-3v2.2h3.3v0.7H369v-6.4H373.1z"/>
	</g>
	<g class="st15">
		<path class="st16" d="M564.6,194.5l1.4,5.1l1.3-5.1h0.8l-1.7,6.4h-0.8l-1.3-5l-1.4,5h-0.7l-1.7-6.4h0.8l1.3,5.1l1.4-5.1H564.6z"/>
		<path class="st16" d="M569.9,200.9h-0.8v-6.4h0.8V200.9z"/>
		<path class="st16" d="M573.9,194.4c1.3,0,2.2,0.8,2.5,2h-0.8c-0.3-0.7-0.8-1.2-1.7-1.2c-1.2,0-2,1-2,2.5c0,1.5,0.8,2.5,2,2.5
			c0.9,0,1.4-0.5,1.7-1.2h0.8c-0.3,1.2-1.2,2-2.5,2c-1.6,0-2.9-1.3-2.9-3.3C571,195.7,572.3,194.4,573.9,194.4z"/>
	</g>
	<g class="st15">
		<path class="st16" d="M514.6,631.9l1.4,5.1l1.3-5.1h0.8l-1.7,6.4h-0.8l-1.3-5l-1.4,5h-0.7l-1.7-6.4h0.8l1.3,5.1l1.4-5.1H514.6z"/>
		<path class="st16" d="M519.8,638.3H519v-6.4h0.8V638.3z"/>
		<path class="st16" d="M523.8,631.8c1.3,0,2.2,0.8,2.5,2h-0.8c-0.3-0.7-0.8-1.2-1.7-1.2c-1.2,0-2,1-2,2.5c0,1.5,0.8,2.5,2,2.5
			c0.9,0,1.4-0.5,1.7-1.2h0.8c-0.3,1.2-1.2,2-2.5,2c-1.6,0-2.9-1.3-2.9-3.3C520.9,633.1,522.2,631.8,523.8,631.8z"/>
	</g>
	<g class="st15">
		<path class="st16" d="M323.1,143v-6.4h3.9v0.7h-3.1v2.2h2.9v0.7h-2.9v2.8H323.1z"/>
		<path class="st16" d="M328.9,140.4v2.6h-0.8v-6.4h2.4c1.3,0,2.1,0.7,2.1,1.9c0,1.2-0.8,1.9-2.1,1.9H328.9z M330.5,137.3h-1.6v2.4
			h1.6c0.9,0,1.3-0.5,1.3-1.2C331.8,137.8,331.3,137.3,330.5,137.3z"/>
	</g>
	<g class="st15">
		<path class="st16" d="M323.1,189.4V183h3.9v0.7h-3.1v2.2h2.9v0.7h-2.9v2.8H323.1z"/>
		<path class="st16" d="M328.9,186.8v2.6h-0.8V183h2.4c1.3,0,2.1,0.7,2.1,1.9c0,1.2-0.8,1.9-2.1,1.9H328.9z M330.5,183.7h-1.6v2.4
			h1.6c0.9,0,1.3-0.5,1.3-1.2C331.8,184.2,331.3,183.7,330.5,183.7z"/>
	</g>
	<g class="st15">
		<path class="st16" d="M337.8,492.5v0.7h-3.3v2h3v0.7h-3v2.2h3.3v0.7h-4.1v-6.4H337.8z"/>
		<path class="st16" d="M339.1,492.5h0.8v5.7h3.3v0.7h-4.1V492.5z"/>
		<path class="st16" d="M348.4,492.5v0.7h-3.3v2h3v0.7h-3v2.2h3.3v0.7h-4.1v-6.4H348.4z"/>
	</g>
	<g class="st15">
		<path class="st16" d="M351.6,498.9l-2.5-6.4h0.9l2,5.3l2-5.3h0.8l-2.5,6.4H351.6z"/>
	</g>
	<g class="st15">
		<path class="st16" d="M358.1,492.5l2.5,6.4h-0.8L359,497h-2.6l-0.7,1.9h-0.8l2.5-6.4H358.1z M356.6,496.3h2.1l-1-2.7L356.6,496.3z
			"/>
	</g>
	<g class="st15">
		<path class="st16" d="M360.5,492.5h5.3v0.7h-2.2v5.7h-0.8v-5.7h-2.2V492.5z"/>
	</g>
	<g class="st15">
		<path class="st16" d="M369,499c-1.7,0-2.9-1.4-2.9-3.3c0-1.9,1.2-3.3,2.9-3.3c1.7,0,2.9,1.4,2.9,3.3
			C371.9,497.6,370.7,499,369,499z M369,493.2c-1.2,0-2.1,1.1-2.1,2.5c0,1.5,0.8,2.5,2.1,2.5c1.2,0,2.1-1.1,2.1-2.5
			C371.1,494.2,370.3,493.2,369,493.2z"/>
		<path class="st16" d="M373.9,496.2v2.7h-0.8v-6.4h2.4c1.3,0,2.1,0.6,2.1,1.9c0,1.1-0.6,1.7-1.6,1.8l1.9,2.7h-0.9l-1.8-2.7H373.9z
			 M373.9,495.5h1.5c0.8,0,1.3-0.4,1.3-1.1c0-0.7-0.5-1.1-1.3-1.1h-1.5V495.5z"/>
	</g>
	<g class="st15">
		<path class="st16" d="M532.2,462.6h2c1.9,0,3.1,1.2,3.1,3.2c0,1.9-1.2,3.2-3.1,3.2h-2V462.6z M534.2,468.2c1.4,0,2.3-1,2.3-2.5
			c0-1.5-0.9-2.5-2.3-2.5H533v4.9H534.2z"/>
		<path class="st16" d="M543.4,469h-0.6l-3.6-5.1v5.1h-0.8v-6.4h0.8l3.4,4.9v-4.9h0.8V469z"/>
	</g>
	<g class="st15">
		<path class="st16" d="M248.5,85.5l-2-4.9v4.9h-0.8v-6.4h0.9l2.2,5.2l2.2-5.2h0.9v6.4h-0.8v-4.9l-2,4.9H248.5z"/>
	</g>
	<g class="st15">
		<path class="st16" d="M256.1,79.1l2.5,6.4h-0.8l-0.7-1.9h-2.6l-0.7,1.9h-0.8l2.5-6.4H256.1z M254.7,82.9h2.1l-1-2.7L254.7,82.9z"
			/>
	</g>
	<g class="st15">
		<path class="st16" d="M259.9,83.8c0.2,0.7,0.8,1.1,1.6,1.1c0.8,0,1.4-0.4,1.4-1.1c0-0.5-0.3-0.8-1-1l-1.1-0.3
			c-0.9-0.2-1.5-0.7-1.5-1.6c0-1.1,0.9-1.8,2.1-1.8c1.3,0,2.1,0.7,2.3,1.7h-0.8c-0.2-0.6-0.7-1-1.5-1c-0.8,0-1.3,0.4-1.3,1.1
			c0,0.5,0.4,0.8,1,1l1.1,0.3c1,0.3,1.6,0.8,1.6,1.7c0,1.2-0.9,1.9-2.2,1.9s-2.2-0.6-2.5-1.8H259.9z"/>
	</g>
	<g class="st15">
		<path class="st16" d="M264.3,79.1h5.3v0.7h-2.2v5.7h-0.8v-5.7h-2.2V79.1z"/>
		<path class="st16" d="M274.7,79.1v0.7h-3.3v2h3v0.7h-3v2.2h3.3v0.7h-4.1v-6.4H274.7z"/>
		<path class="st16" d="M276.8,82.8v2.7H276v-6.4h2.4c1.3,0,2.1,0.6,2.1,1.9c0,1.1-0.6,1.7-1.6,1.8l1.9,2.7h-0.9l-1.8-2.7H276.8z
			 M276.8,82.1h1.5c0.8,0,1.3-0.4,1.3-1.1c0-0.7-0.5-1.1-1.3-1.1h-1.5V82.1z"/>
		<path class="st16" d="M288.5,83.7c0,1.2-0.8,1.8-2.1,1.8H284v-6.4h2.1c1.3,0,2.1,0.6,2.1,1.7c0,0.8-0.4,1.2-0.9,1.4
			C288,82.4,288.5,83,288.5,83.7z M286.1,81.9c0.9,0,1.3-0.3,1.3-1s-0.5-1-1.3-1h-1.3v2.1H286.1z M284.8,84.8h1.5
			c0.9,0,1.3-0.4,1.3-1.1c0-0.7-0.5-1.1-1.3-1.1h-1.5V84.8z"/>
		<path class="st16" d="M293.7,79.1v0.7h-3.3v2h3v0.7h-3v2.2h3.3v0.7h-4.1v-6.4H293.7z"/>
		<path class="st16" d="M295,79.1h2c1.9,0,3.1,1.2,3.1,3.2c0,1.9-1.2,3.2-3.1,3.2h-2V79.1z M297,84.8c1.4,0,2.3-1,2.3-2.5
			c0-1.5-0.9-2.5-2.3-2.5h-1.2v4.9H297z"/>
	</g>
	<g class="st15">
		<path class="st16" d="M302.1,82.8v2.7h-0.8v-6.4h2.4c1.3,0,2.1,0.6,2.1,1.9c0,1.1-0.6,1.7-1.6,1.8l1.9,2.7H305l-1.8-2.7H302.1z
			 M302.1,82.1h1.5c0.8,0,1.3-0.4,1.3-1.1c0-0.7-0.5-1.1-1.3-1.1h-1.5V82.1z"/>
	</g>
	<g class="st15">
		<path class="st16" d="M309.5,85.6c-1.7,0-2.9-1.4-2.9-3.3c0-1.9,1.2-3.3,2.9-3.3c1.7,0,2.9,1.4,2.9,3.3
			C312.4,84.2,311.2,85.6,309.5,85.6z M309.5,79.8c-1.2,0-2.1,1.1-2.1,2.5c0,1.5,0.8,2.5,2.1,2.5c1.2,0,2.1-1.1,2.1-2.5
			C311.6,80.8,310.7,79.8,309.5,79.8z"/>
	</g>
	<g class="st15">
		<path class="st16" d="M316.1,85.6c-1.7,0-2.9-1.4-2.9-3.3c0-1.9,1.2-3.3,2.9-3.3c1.7,0,2.9,1.4,2.9,3.3
			C319,84.2,317.8,85.6,316.1,85.6z M316.1,79.8c-1.2,0-2.1,1.1-2.1,2.5c0,1.5,0.8,2.5,2.1,2.5c1.2,0,2.1-1.1,2.1-2.5
			C318.2,80.8,317.3,79.8,316.1,79.8z"/>
		<path class="st16" d="M322.9,85.5l-2-4.9v4.9h-0.8v-6.4h0.9l2.2,5.2l2.2-5.2h0.9v6.4h-0.8v-4.9l-2,4.9H322.9z"/>
		<path class="st16" d="M329.6,79.1h5.3v0.7h-2.2v5.7h-0.8v-5.7h-2.2V79.1z"/>
		<path class="st16" d="M340,79.1v0.7h-3.3v2h3v0.7h-3v2.2h3.3v0.7H336v-6.4H340z"/>
		<path class="st16" d="M342.1,82.8v2.7h-0.8v-6.4h2.4c1.3,0,2.1,0.6,2.1,1.9c0,1.1-0.6,1.7-1.6,1.8l1.9,2.7h-0.9l-1.8-2.7H342.1z
			 M342.1,82.1h1.5c0.8,0,1.3-0.4,1.3-1.1c0-0.7-0.5-1.1-1.3-1.1h-1.5V82.1z"/>
		<path class="st16" d="M347.9,82.8v2.7h-0.8v-6.4h2.4c1.3,0,2.1,0.6,2.1,1.9c0,1.1-0.6,1.7-1.6,1.8l1.9,2.7h-0.9l-1.8-2.7H347.9z
			 M347.9,82.1h1.5c0.8,0,1.3-0.4,1.3-1.1c0-0.7-0.5-1.1-1.3-1.1h-1.5V82.1z"/>
	</g>
	<g class="st15">
		<path class="st16" d="M355.5,79.1l2.5,6.4h-0.8l-0.7-1.9h-2.6l-0.7,1.9h-0.8l2.5-6.4H355.5z M354.1,82.9h2.1l-1-2.7L354.1,82.9z"
			/>
	</g>
	<g class="st15">
		<path class="st16" d="M361.3,79c1.3,0,2.2,0.8,2.5,2H363c-0.3-0.7-0.8-1.2-1.7-1.2c-1.2,0-2,1-2,2.5c0,1.5,0.8,2.5,2,2.5
			c0.9,0,1.4-0.5,1.7-1.2h0.8c-0.3,1.2-1.2,2-2.5,2c-1.6,0-2.9-1.3-2.9-3.3C358.4,80.3,359.7,79,361.3,79z"/>
		<path class="st16" d="M369,79.1v0.7h-3.3v2h3v0.7h-3v2.2h3.3v0.7h-4.1v-6.4H369z"/>
	</g>
	<g class="st15">
		<path class="st16" d="M282.7,90.9c-0.8,0-1.2,0.5-1.2,1.3h-0.8c0.1-1.2,0.9-2,2.1-2c1.2,0,1.9,0.7,1.9,1.8c0,0.8-0.6,1.4-1.3,2.2
			l-1.6,1.8h3v0.7h-4.2v-0.5l2.1-2.3c0.7-0.7,1.2-1.3,1.2-1.9C283.8,91.4,283.4,90.9,282.7,90.9z"/>
		<path class="st16" d="M287.7,96.7h-0.8v-5.4l-1.6,0.8v-0.8l1.9-1h0.5V96.7z"/>
		<path class="st16" d="M289.3,91.3c-0.3,0-0.5-0.2-0.5-0.5c0-0.3,0.2-0.6,0.6-0.6s0.6,0.2,0.6,0.6c0,0.2-0.1,0.4-0.2,0.7l-0.5,0.9
			h-0.5L289.3,91.3z"/>
		<path class="st16" d="M290.6,93.6h2.5v0.7h-2.5V93.6z"/>
		<path class="st16" d="M296.2,96.7h-0.8v-5.4l-1.6,0.8v-0.8l1.9-1h0.5V96.7z"/>
		<path class="st16" d="M299.6,96.7h-0.8v-5.4l-1.6,0.8v-0.8l1.9-1h0.5V96.7z"/>
		<path class="st16" d="M300.8,90.3h0.7v2.3h-0.7V90.3z M302,90.3h0.7v2.3H302V90.3z"/>
		<path class="st16" d="M308.2,94.3l1.7,2.4H309l-1.3-1.8l-1.3,1.8h-0.8l1.7-2.4l-1.6-2.3h0.9l1.2,1.7l1.2-1.7h0.9L308.2,94.3z"/>
		<path class="st16" d="M315,96.7h-0.8v-5.4l-1.6,0.8v-0.8l1.9-1h0.5V96.7z"/>
	</g>
	<g class="st15">
		<path class="st16" d="M316.2,95c0-0.8,0.5-1.4,1.2-1.6c-0.6-0.2-1-0.7-1-1.4c0-1,0.9-1.7,1.9-1.7c1.1,0,2,0.7,2,1.7
			c0,0.7-0.4,1.2-1,1.4c0.7,0.2,1.2,0.8,1.2,1.6c0,1.1-0.9,1.8-2.2,1.8C317.1,96.8,316.2,96.1,316.2,95z M319.8,94.9
			c0-0.7-0.6-1.2-1.4-1.2c-0.8,0-1.4,0.5-1.4,1.2c0,0.7,0.6,1.2,1.4,1.2C319.2,96.1,319.8,95.6,319.8,94.9z M319.5,91.9
			c0-0.6-0.5-1.1-1.2-1.1c-0.7,0-1.2,0.4-1.2,1.1c0,0.6,0.5,1.1,1.2,1.1C319,93,319.5,92.6,319.5,91.9z"/>
	</g>
	<g class="st15">
		<path class="st16" d="M321.2,90.3h0.7v2.3h-0.7V90.3z"/>
	</g>
	<g class="st15">
		<path class="st16" d="M322.8,93.6h2.5v0.7h-2.5V93.6z"/>
	</g>
	<g class="st15">
		<path class="st16" d="M326.2,93.5c0-1.9,1-3.3,2.4-3.3s2.4,1.3,2.4,3.3c0,1.9-1,3.3-2.4,3.3S326.2,95.4,326.2,93.5z M327,93.5
			c0,1.5,0.5,2.5,1.6,2.5c1,0,1.6-1.1,1.6-2.5c0-1.5-0.6-2.5-1.6-2.5C327.6,90.9,327,92,327,93.5z"/>
		<path class="st16" d="M331.8,90.3h0.7v2.3h-0.7V90.3z M333.1,90.3h0.7v2.3h-0.7V90.3z"/>
	</g>
	<g class="st15">
		<path class="st16" d="M39.5,577.6l-2-4.9v4.9h-0.8v-6.4h0.9l2.2,5.2l2.2-5.2h0.9v6.4h-0.8v-4.9l-2,4.9H39.5z"/>
	</g>
	<g class="st15">
		<path class="st16" d="M47.1,571.2l2.5,6.4h-0.8l-0.7-1.9h-2.6l-0.7,1.9h-0.8l2.5-6.4H47.1z M45.7,574.9h2.1l-1-2.7L45.7,574.9z"/>
	</g>
	<g class="st15">
		<path class="st16" d="M50.9,575.9c0.2,0.7,0.8,1.1,1.6,1.1c0.8,0,1.4-0.4,1.4-1.1c0-0.5-0.3-0.8-1-1l-1.1-0.3
			c-0.9-0.2-1.5-0.7-1.5-1.6c0-1.1,0.9-1.8,2.1-1.8c1.3,0,2.1,0.7,2.3,1.7h-0.8c-0.2-0.6-0.7-1-1.5-1c-0.8,0-1.3,0.4-1.3,1.1
			c0,0.5,0.4,0.8,1,1l1.1,0.3c1,0.3,1.6,0.8,1.6,1.7c0,1.2-0.9,1.9-2.2,1.9s-2.2-0.6-2.5-1.8H50.9z"/>
	</g>
	<g class="st15">
		<path class="st16" d="M55.3,571.2h5.3v0.7h-2.2v5.7h-0.8v-5.7h-2.2V571.2z"/>
		<path class="st16" d="M65.7,571.2v0.7h-3.3v2h3v0.7h-3v2.2h3.3v0.7h-4.1v-6.4H65.7z"/>
		<path class="st16" d="M67.8,574.9v2.7H67v-6.4h2.4c1.3,0,2.1,0.6,2.1,1.9c0,1.1-0.6,1.7-1.6,1.8l1.9,2.7h-0.9l-1.8-2.7H67.8z
			 M67.8,574.2h1.5c0.8,0,1.3-0.4,1.3-1.1c0-0.7-0.5-1.1-1.3-1.1h-1.5V574.2z"/>
	</g>
	<g class="st15">
		<path class="st16" d="M47.3,586.9c0,1.2-0.8,1.8-2.1,1.8h-2.3v-6.4h2.1c1.3,0,2.1,0.6,2.1,1.7c0,0.8-0.4,1.2-0.9,1.4
			C46.8,585.6,47.3,586.2,47.3,586.9z M44.9,585.1c0.9,0,1.3-0.3,1.3-1s-0.5-1-1.3-1h-1.3v2.1H44.9z M43.6,588h1.5
			c0.9,0,1.3-0.4,1.3-1.1c0-0.7-0.5-1.1-1.3-1.1h-1.5V588z"/>
	</g>
	<g class="st15">
		<path class="st16" d="M51,582.4l2.5,6.4h-0.8l-0.7-1.9h-2.6l-0.7,1.9h-0.8l2.5-6.4H51z M49.6,586.1h2.1l-1-2.7L49.6,586.1z"/>
	</g>
	<g class="st15">
		<path class="st16" d="M53.5,582.4h5.3v0.7h-2.2v5.7h-0.8v-5.7h-2.2V582.4z"/>
		<path class="st16" d="M65.1,582.4v6.4h-0.8v-2.9h-3.6v2.9h-0.8v-6.4h0.8v2.7h3.6v-2.7H65.1z"/>
	</g>
	<g class="st15">
		<path class="st16" d="M179.7,530.7l-2-4.9v4.9h-0.8v-6.4h0.9l2.2,5.2l2.2-5.2h0.9v6.4h-0.8v-4.9l-2,4.9H179.7z"/>
	</g>
	<g class="st15">
		<path class="st16" d="M187.3,524.3l2.5,6.4H189l-0.7-1.9h-2.6l-0.7,1.9H184l2.5-6.4H187.3z M185.9,528.1h2.1l-1-2.7L185.9,528.1z"
			/>
	</g>
	<g class="st15">
		<path class="st16" d="M191,529c0.2,0.7,0.8,1.1,1.6,1.1c0.8,0,1.4-0.4,1.4-1.1c0-0.5-0.3-0.8-1-1l-1.1-0.3
			c-0.9-0.2-1.5-0.7-1.5-1.6c0-1.1,0.9-1.8,2.1-1.8c1.3,0,2.1,0.7,2.3,1.7H194c-0.2-0.6-0.7-1-1.5-1c-0.8,0-1.3,0.4-1.3,1.1
			c0,0.5,0.4,0.8,1,1l1.1,0.3c1,0.3,1.6,0.8,1.6,1.7c0,1.2-0.9,1.9-2.2,1.9s-2.2-0.6-2.5-1.8H191z"/>
	</g>
	<g class="st15">
		<path class="st16" d="M195.5,524.3h5.3v0.7h-2.2v5.7h-0.8V525h-2.2V524.3z"/>
		<path class="st16" d="M205.9,524.3v0.7h-3.3v2h3v0.7h-3v2.2h3.3v0.7h-4.1v-6.4H205.9z"/>
		<path class="st16" d="M208,528v2.7h-0.8v-6.4h2.4c1.3,0,2.1,0.6,2.1,1.9c0,1.1-0.6,1.7-1.6,1.8l1.9,2.7h-0.9l-1.8-2.7H208z
			 M208,527.3h1.5c0.8,0,1.3-0.4,1.3-1.1c0-0.7-0.5-1.1-1.3-1.1H208V527.3z"/>
	</g>
	<g class="st15">
		<path class="st16" d="M187.4,540.1c0,1.2-0.8,1.8-2.1,1.8H183v-6.4h2.1c1.3,0,2.1,0.6,2.1,1.7c0,0.8-0.4,1.2-0.9,1.4
			C187,538.8,187.4,539.4,187.4,540.1z M185.1,538.3c0.9,0,1.3-0.3,1.3-1s-0.5-1-1.3-1h-1.3v2.1H185.1z M183.8,541.2h1.5
			c0.9,0,1.3-0.4,1.3-1.1c0-0.7-0.5-1.1-1.3-1.1h-1.5V541.2z"/>
	</g>
	<g class="st15">
		<path class="st16" d="M191.2,535.5l2.5,6.4h-0.8l-0.7-1.9h-2.6l-0.7,1.9H188l2.5-6.4H191.2z M189.8,539.3h2.1l-1-2.7L189.8,539.3z
			"/>
	</g>
	<g class="st15">
		<path class="st16" d="M193.7,535.5h5.3v0.7h-2.2v5.7h-0.8v-5.7h-2.2V535.5z"/>
		<path class="st16" d="M205.3,535.5v6.4h-0.8V539h-3.6v2.9H200v-6.4h0.8v2.7h3.6v-2.7H205.3z"/>
	</g>
	<g class="st15">
		<path class="st16" d="M34.2,593.7h5.3v0.7h-2.2v5.7h-0.8v-5.7h-2.2V593.7z"/>
		<path class="st16" d="M44.6,593.7v0.7h-3.3v2h3v0.7h-3v2.2h3.3v0.7h-4.1v-6.4H44.6z"/>
		<path class="st16" d="M46.7,597.4v2.7h-0.8v-6.4h2.4c1.3,0,2.1,0.6,2.1,1.9c0,1.1-0.6,1.7-1.6,1.8l1.9,2.7h-0.9l-1.8-2.7H46.7z
			 M46.7,596.7h1.5c0.8,0,1.3-0.4,1.3-1.1c0-0.7-0.5-1.1-1.3-1.1h-1.5V596.7z"/>
		<path class="st16" d="M52.4,597.4v2.7h-0.8v-6.4H54c1.3,0,2.1,0.6,2.1,1.9c0,1.1-0.6,1.7-1.6,1.8l1.9,2.7h-0.9l-1.8-2.7H52.4z
			 M52.4,596.7H54c0.8,0,1.3-0.4,1.3-1.1c0-0.7-0.5-1.1-1.3-1.1h-1.5V596.7z"/>
	</g>
	<g class="st15">
		<path class="st16" d="M60.1,593.7l2.5,6.4h-0.8l-0.7-1.9h-2.6l-0.7,1.9h-0.8l2.5-6.4H60.1z M58.7,597.4h2.1l-1-2.7L58.7,597.4z"/>
	</g>
	<g class="st15">
		<path class="st16" d="M65.8,593.6c1.3,0,2.2,0.8,2.5,2h-0.8c-0.3-0.7-0.8-1.2-1.7-1.2c-1.2,0-2,1-2,2.5c0,1.5,0.8,2.5,2,2.5
			c0.9,0,1.4-0.5,1.7-1.2h0.8c-0.3,1.2-1.2,2-2.5,2c-1.6,0-2.9-1.3-2.9-3.3C63,594.9,64.2,593.6,65.8,593.6z"/>
		<path class="st16" d="M73.5,593.7v0.7h-3.3v2h3v0.7h-3v2.2h3.3v0.7h-4.1v-6.4H73.5z"/>
	</g>
	<g class="st15">
		<path class="st16" d="M31.6,611.2h-0.8v-5.4l-1.6,0.8v-0.8l1.9-1h0.5V611.2z"/>
		<path class="st16" d="M33.7,608.4H33v-3.5h3.5v0.7h-2.8v1.9c0.2-0.2,0.6-0.4,1.2-0.4c1.2,0,2,0.9,2,2.1c0,1.2-0.9,2.1-2.1,2.1
			c-1.2,0-2-0.7-2.2-1.9h0.8c0.1,0.7,0.6,1.2,1.4,1.2c0.8,0,1.3-0.6,1.3-1.4c0-0.8-0.5-1.4-1.3-1.4
			C34.3,607.8,33.9,608.1,33.7,608.4z"/>
		<path class="st16" d="M38.1,605.8c-0.3,0-0.5-0.2-0.5-0.5c0-0.3,0.2-0.6,0.6-0.6c0.3,0,0.6,0.2,0.6,0.6c0,0.2-0.1,0.4-0.2,0.7
			l-0.5,0.9h-0.5L38.1,605.8z"/>
	</g>
	<g class="st15">
		<path class="st16" d="M39.4,608.2h2.5v0.7h-2.5V608.2z"/>
	</g>
	<g class="st15">
		<path class="st16" d="M46.4,606.3c-0.2-0.5-0.5-0.9-1.2-0.9c-0.9,0-1.6,1.1-1.6,2.4c0,0.1,0,0.2,0,0.3c0.2-0.6,0.9-1.1,1.6-1.1
			c1.2,0,2.1,1,2.1,2.1c0,1.2-0.8,2.1-2.1,2.1c-0.8,0-1.5-0.4-1.9-1.2c-0.3-0.6-0.4-1.2-0.4-2c0-2.1,1-3.4,2.3-3.4
			c1.1,0,1.7,0.6,2,1.6H46.4z M45.2,610.6c0.8,0,1.4-0.6,1.4-1.4c0-0.9-0.6-1.5-1.4-1.5c-0.8,0-1.4,0.6-1.4,1.5
			C43.8,610,44.4,610.6,45.2,610.6z"/>
	</g>
	<g class="st15">
		<path class="st16" d="M48.6,605.8c-0.3,0-0.5-0.2-0.5-0.5c0-0.3,0.2-0.6,0.6-0.6c0.3,0,0.6,0.2,0.6,0.6c0,0.2-0.1,0.4-0.2,0.7
			l-0.5,0.9h-0.5L48.6,605.8z M50.2,605.8c-0.3,0-0.5-0.2-0.5-0.5c0-0.3,0.2-0.6,0.6-0.6s0.6,0.2,0.6,0.6c0,0.2-0.1,0.4-0.2,0.7
			l-0.5,0.9h-0.5L50.2,605.8z"/>
		<path class="st16" d="M56.2,608.9l1.7,2.4H57l-1.3-1.8l-1.3,1.8h-0.8l1.7-2.4l-1.6-2.3h0.9l1.2,1.7l1.2-1.7h0.9L56.2,608.9z"/>
	</g>
	<g class="st15">
		<path class="st16" d="M61.5,609.1h2v-1.5h0.8v1.5h1.1v0.7h-1.1v1.4h-0.8v-1.4h-2.9v-0.6l2.5-4.4h0.8L61.5,609.1z"/>
	</g>
	<g class="st15">
		<path class="st16" d="M66.3,605.8c-0.3,0-0.5-0.2-0.5-0.5c0-0.3,0.2-0.6,0.6-0.6c0.3,0,0.6,0.2,0.6,0.6c0,0.2-0.1,0.4-0.2,0.7
			l-0.5,0.9h-0.5L66.3,605.8z"/>
		<path class="st16" d="M67.6,608.2h2.5v0.7h-2.5V608.2z"/>
		<path class="st16" d="M70.9,609.5c0-0.8,0.5-1.4,1.2-1.6c-0.6-0.2-1-0.7-1-1.4c0-1,0.9-1.7,1.9-1.7c1.1,0,2,0.7,2,1.7
			c0,0.7-0.4,1.2-1,1.4c0.7,0.2,1.2,0.8,1.2,1.6c0,1.1-0.9,1.8-2.2,1.8C71.9,611.3,70.9,610.6,70.9,609.5z M74.5,609.4
			c0-0.7-0.6-1.2-1.4-1.2c-0.8,0-1.4,0.5-1.4,1.2c0,0.7,0.6,1.2,1.4,1.2C73.9,610.7,74.5,610.2,74.5,609.4z M74.3,606.5
			c0-0.6-0.5-1.1-1.2-1.1c-0.7,0-1.2,0.4-1.2,1.1c0,0.6,0.5,1.1,1.2,1.1C73.8,607.5,74.3,607.1,74.3,606.5z"/>
		<path class="st16" d="M76.5,605.8c-0.3,0-0.5-0.2-0.5-0.5c0-0.3,0.2-0.6,0.6-0.6c0.3,0,0.6,0.2,0.6,0.6c0,0.2-0.1,0.4-0.2,0.7
			l-0.5,0.9h-0.5L76.5,605.8z M78,605.8c-0.3,0-0.5-0.2-0.5-0.5c0-0.3,0.2-0.6,0.6-0.6s0.6,0.2,0.6,0.6c0,0.2-0.1,0.4-0.2,0.7
			l-0.5,0.9h-0.5L78,605.8z"/>
	</g>
</g>
</svg>
