<?xml version="1.0" encoding="utf-8"?>
<!-- Generator: Adobe Illustrator 23.0.0, SVG Export Plug-In . SVG Version: 6.00 Build 0)  -->
<svg version="1.1" id="Layer_1" xmlns="http://www.w3.org/2000/svg" xmlns:xlink="http://www.w3.org/1999/xlink" x="0px" y="0px"
	 viewBox="0 0 548.7 753.2" style="enable-background:new 0 0 548.7 753.2;" xml:space="preserve">
<style type="text/css">
	.st0{fill:none;stroke:#231F20;stroke-width:0.15;stroke-miterlimit:10;}
	.st1{fill:#FFFFFF;stroke:#231F20;stroke-width:0.35;stroke-miterlimit:10;}
	.st2{fill:none;stroke:#231F20;stroke-width:0.35;stroke-miterlimit:10;}
	.st3{fill:#FFFFFF;stroke:#231F20;stroke-width:0.25;stroke-miterlimit:10;}
	.st4{fill:none;stroke:#231F20;stroke-width:0.25;stroke-miterlimit:10;}
	.st5{fill:none;stroke:#231F20;stroke-width:0.25;stroke-linecap:round;stroke-linejoin:round;}
	.st6{fill:none;stroke:#000000;stroke-width:0.25;stroke-miterlimit:10;}
	.st7{fill:none;stroke:#231F20;stroke-width:0.71;stroke-linecap:round;stroke-linejoin:round;}
	.st8{fill:none;stroke:#FFFFFF;stroke-width:0.35;stroke-linecap:round;stroke-linejoin:round;}
	.st9{fill:#FFFFFF;stroke:#231F20;stroke-width:0.5;stroke-miterlimit:10;}
	.st10{fill:none;stroke:#231F20;stroke-width:0.5;stroke-miterlimit:10;}
	.st11{fill:none;stroke:#231F20;stroke-width:0.25;stroke-miterlimit:10;stroke-dasharray:2.5;}
	.st12{fill:#FFFFFF;stroke:#000000;stroke-width:0.25;stroke-miterlimit:10;}
	.st13{fill:none;stroke:#231F20;stroke-width:0.5;stroke-linecap:round;stroke-linejoin:round;}
	.st14{fill:none;stroke:#00AEEF;stroke-width:0.7;stroke-miterlimit:10;}
	.st15{fill:#FFFFFF;stroke:#000000;stroke-width:0.5;stroke-miterlimit:10;}
	.st16{fill:#D2D3D4;stroke:#000000;stroke-width:0.5;stroke-miterlimit:10;}
	.st17{enable-background:new    ;}
	.st18{fill:#231F20;}
</style>
<title>108Leonard_WEB_R_7-12_v2</title>
<g id="FLOOR_PATTERN">
	<g id="LWPOLYLINE">
		<line class="st0" x1="169.2" y1="64.2" x2="124.2" y2="64.2"/>
	</g>
	<g id="LWPOLYLINE-2">
		<line class="st0" x1="169.2" y1="71.7" x2="124.2" y2="71.7"/>
	</g>
	<g id="LWPOLYLINE-3">
		<line class="st0" x1="117.4" y1="80.4" x2="117.4" y2="132.9"/>
	</g>
	<g id="LWPOLYLINE-4">
		<line class="st0" x1="109.9" y1="132.9" x2="109.9" y2="80.4"/>
	</g>
	<g id="LWPOLYLINE-5">
		<line class="st0" x1="214.8" y1="34.2" x2="268.8" y2="34.2"/>
	</g>
	<g id="LWPOLYLINE-6">
		<line class="st0" x1="268.8" y1="43.2" x2="214.8" y2="43.2"/>
	</g>
	<g id="LWPOLYLINE-7">
		<line class="st0" x1="315.2" y1="398.1" x2="315.2" y2="345.6"/>
	</g>
	<g id="LWPOLYLINE-8">
		<line class="st0" x1="322.7" y1="398.1" x2="322.7" y2="345.6"/>
	</g>
	<g id="LWPOLYLINE-9">
		<line class="st0" x1="353.9" y1="203.7" x2="404.9" y2="203.7"/>
	</g>
	<g id="LWPOLYLINE-10">
		<line class="st0" x1="404.9" y1="215.7" x2="353.9" y2="215.7"/>
	</g>
	<g id="LINE">
		<line class="st0" x1="16" y1="264.5" x2="16" y2="189.9"/>
	</g>
	<g id="LINE-2">
		<line class="st0" x1="24.2" y1="585.2" x2="24.2" y2="556.5"/>
	</g>
	<g id="LINE-3">
		<line class="st0" x1="24.2" y1="264.5" x2="24.2" y2="189.9"/>
	</g>
	<g id="LINE-4">
		<line class="st0" x1="24.2" y1="466.5" x2="24.2" y2="459.6"/>
	</g>
	<g id="LINE-5">
		<line class="st0" x1="32.5" y1="585.7" x2="32.5" y2="556.5"/>
	</g>
	<g id="LINE-6">
		<line class="st0" x1="32.5" y1="264.5" x2="32.5" y2="189.9"/>
	</g>
	<g id="LINE-7">
		<line class="st0" x1="32.5" y1="466.5" x2="32.5" y2="459.6"/>
	</g>
	<g id="LINE-8">
		<line class="st0" x1="40.8" y1="586.1" x2="40.8" y2="556.5"/>
	</g>
	<g id="LINE-9">
		<line class="st0" x1="40.8" y1="264.5" x2="40.8" y2="189.9"/>
	</g>
	<g id="LINE-10">
		<line class="st0" x1="40.8" y1="466.5" x2="40.8" y2="459.6"/>
	</g>
	<g id="LINE-11">
		<line class="st0" x1="49" y1="586.6" x2="49" y2="459.6"/>
	</g>
	<g id="LINE-12">
		<line class="st0" x1="49" y1="264.5" x2="49" y2="189.9"/>
	</g>
	<g id="LINE-13">
		<line class="st0" x1="57.2" y1="587.1" x2="57.2" y2="527"/>
	</g>
	<g id="LINE-14">
		<line class="st0" x1="57.2" y1="264.5" x2="57.2" y2="189.9"/>
	</g>
	<g id="LINE-15">
		<line class="st0" x1="57.2" y1="485.8" x2="57.2" y2="319"/>
	</g>
	<g id="LINE-16">
		<line class="st0" x1="65.5" y1="587.5" x2="65.5" y2="549.2"/>
	</g>
	<g id="LINE-17">
		<line class="st0" x1="65.5" y1="264.5" x2="65.5" y2="189.9"/>
	</g>
	<g id="LINE-18">
		<line class="st0" x1="65.5" y1="470.8" x2="65.5" y2="319"/>
	</g>
	<g id="LINE-19">
		<line class="st0" x1="73.8" y1="600.1" x2="73.8" y2="561.4"/>
	</g>
	<g id="LINE-20">
		<line class="st0" x1="73.8" y1="264.5" x2="73.8" y2="189.9"/>
	</g>
	<g id="LINE-21">
		<line class="st0" x1="73.8" y1="466" x2="73.8" y2="325.4"/>
	</g>
	<g id="LINE-22">
		<line class="st0" x1="82" y1="600.5" x2="82" y2="570.1"/>
	</g>
	<g id="LINE-23">
		<line class="st0" x1="82" y1="264.5" x2="82" y2="189.9"/>
	</g>
	<g id="LINE-24">
		<line class="st0" x1="82" y1="464.7" x2="82" y2="331.4"/>
	</g>
	<g id="LINE-25">
		<line class="st0" x1="90.2" y1="601" x2="90.2" y2="576.7"/>
	</g>
	<g id="LINE-26">
		<line class="st0" x1="90.2" y1="264.5" x2="90.2" y2="189.9"/>
	</g>
	<g id="LINE-27">
		<line class="st0" x1="90.2" y1="466.2" x2="90.2" y2="330.4"/>
	</g>
	<g id="LINE-28">
		<line class="st0" x1="98.5" y1="601.5" x2="98.5" y2="581.7"/>
	</g>
	<g id="LINE-29">
		<line class="st0" x1="98.5" y1="264.4" x2="98.5" y2="189.9"/>
	</g>
	<g id="LINE-30">
		<line class="st0" x1="98.5" y1="471.2" x2="98.5" y2="319"/>
	</g>
	<g id="LINE-31">
		<line class="st0" x1="106.8" y1="602" x2="106.8" y2="585.5"/>
	</g>
	<g id="LINE-32">
		<line class="st0" x1="106.8" y1="264.4" x2="106.8" y2="189.9"/>
	</g>
	<g id="LINE-33">
		<line class="st0" x1="106.8" y1="515.1" x2="106.8" y2="409.5"/>
	</g>
	<g id="LINE-34">
		<line class="st0" x1="106.8" y1="381" x2="106.8" y2="327.5"/>
	</g>
	<g id="LINE-35">
		<line class="st0" x1="115" y1="602.4" x2="115" y2="588.2"/>
	</g>
	<g id="LINE-36">
		<line class="st0" x1="115" y1="264.4" x2="115" y2="189.9"/>
	</g>
	<g id="LINE-37">
		<line class="st0" x1="115" y1="530.2" x2="115" y2="409.5"/>
	</g>
	<g id="LINE-38">
		<line class="st0" x1="115" y1="381" x2="115" y2="331.6"/>
	</g>
	<g id="LINE-39">
		<line class="st0" x1="123.2" y1="602.9" x2="123.2" y2="590.1"/>
	</g>
	<g id="LINE-40">
		<line class="st0" x1="123.2" y1="138.9" x2="123.2" y2="71.7"/>
	</g>
	<g id="LINE-41">
		<line class="st0" x1="123.2" y1="537" x2="123.2" y2="419.2"/>
	</g>
	<g id="LINE-42">
		<line class="st0" x1="123.2" y1="264.4" x2="123.2" y2="189.9"/>
	</g>
	<g id="LINE-43">
		<line class="st0" x1="123.2" y1="371.2" x2="123.2" y2="329.6"/>
	</g>
	<g id="LINE-44">
		<line class="st0" x1="131.5" y1="603.4" x2="131.5" y2="591"/>
	</g>
	<g id="LINE-45">
		<line class="st0" x1="131.5" y1="138.9" x2="131.5" y2="71.7"/>
	</g>
	<g id="LINE-46">
		<line class="st0" x1="131.5" y1="540.7" x2="131.5" y2="419.2"/>
	</g>
	<g id="LINE-47">
		<line class="st0" x1="131.5" y1="264.4" x2="131.5" y2="189.9"/>
	</g>
	<g id="LINE-48">
		<line class="st0" x1="131.5" y1="371.2" x2="131.5" y2="318.9"/>
	</g>
	<g id="LINE-49">
		<line class="st0" x1="139.8" y1="603.8" x2="139.8" y2="591.7"/>
	</g>
	<g id="LINE-50">
		<line class="st0" x1="139.8" y1="138.9" x2="139.8" y2="71.7"/>
	</g>
	<g id="LINE-51">
		<line class="st0" x1="139.8" y1="542.2" x2="139.8" y2="430.1"/>
	</g>
	<g id="LINE-52">
		<line class="st0" x1="139.8" y1="264.4" x2="139.8" y2="189.9"/>
	</g>
	<g id="LINE-53">
		<line class="st0" x1="139.8" y1="360.4" x2="139.8" y2="328.9"/>
	</g>
	<g id="LINE-54">
		<line class="st0" x1="148" y1="604.3" x2="148" y2="592.3"/>
	</g>
	<g id="LINE-55">
		<line class="st0" x1="148" y1="138.9" x2="148" y2="71.7"/>
	</g>
	<g id="LINE-56">
		<line class="st0" x1="148" y1="542.7" x2="148" y2="430.4"/>
	</g>
	<g id="LINE-57">
		<line class="st0" x1="148" y1="264.4" x2="148" y2="189.9"/>
	</g>
	<g id="LINE-58">
		<line class="st0" x1="148" y1="360" x2="148" y2="331.7"/>
	</g>
	<g id="LINE-59">
		<line class="st0" x1="156.2" y1="604.8" x2="156.2" y2="593"/>
	</g>
	<g id="LINE-60">
		<line class="st0" x1="156.2" y1="138.9" x2="156.2" y2="71.7"/>
	</g>
	<g id="LINE-61">
		<line class="st0" x1="156.2" y1="543.3" x2="156.2" y2="429.3"/>
	</g>
	<g id="LINE-62">
		<line class="st0" x1="156.2" y1="264.4" x2="156.2" y2="189.9"/>
	</g>
	<g id="LINE-63">
		<line class="st0" x1="156.2" y1="361.1" x2="156.2" y2="328.4"/>
	</g>
	<g id="LINE-64">
		<line class="st0" x1="164.5" y1="605.3" x2="164.5" y2="593.7"/>
	</g>
	<g id="LINE-65">
		<line class="st0" x1="164.5" y1="138.9" x2="164.5" y2="71.7"/>
	</g>
	<g id="LINE-66">
		<line class="st0" x1="164.5" y1="544" x2="164.5" y2="510.9"/>
	</g>
	<g id="LINE-67">
		<line class="st0" x1="164.5" y1="264.4" x2="164.5" y2="189.9"/>
	</g>
	<g id="LINE-68">
		<line class="st0" x1="164.5" y1="494.3" x2="164.5" y2="419.2"/>
	</g>
	<g id="LINE-69">
		<line class="st0" x1="164.5" y1="371.2" x2="164.5" y2="318.9"/>
	</g>
	<g id="LINE-70">
		<line class="st0" x1="172.8" y1="605.7" x2="172.8" y2="593.4"/>
	</g>
	<g id="LINE-71">
		<line class="st0" x1="172.8" y1="138.9" x2="172.8" y2="71.7"/>
	</g>
	<g id="LINE-72">
		<line class="st0" x1="172.8" y1="544.7" x2="172.8" y2="516.1"/>
	</g>
	<g id="LINE-73">
		<line class="st0" x1="172.8" y1="264.4" x2="172.8" y2="189.9"/>
	</g>
	<g id="LINE-74">
		<line class="st0" x1="172.8" y1="489.1" x2="172.8" y2="429.2"/>
	</g>
	<g id="LINE-75">
		<line class="st0" x1="172.8" y1="361.2" x2="172.8" y2="318.9"/>
	</g>
	<g id="LINE-76">
		<line class="st0" x1="181" y1="606.2" x2="181" y2="590.2"/>
	</g>
	<g id="LINE-77">
		<line class="st0" x1="181" y1="138.9" x2="181" y2="71.7"/>
	</g>
	<g id="LINE-78">
		<line class="st0" x1="181" y1="547.9" x2="181" y2="518.8"/>
	</g>
	<g id="LINE-79">
		<line class="st0" x1="181" y1="264.4" x2="181" y2="189.9"/>
	</g>
	<g id="LINE-80">
		<line class="st0" x1="181" y1="486.3" x2="181" y2="430.4"/>
	</g>
	<g id="LINE-81">
		<line class="st0" x1="181" y1="360" x2="181" y2="318.9"/>
	</g>
	<g id="LINE-82">
		<line class="st0" x1="189.2" y1="606.7" x2="189.2" y2="581.8"/>
	</g>
	<g id="LINE-83">
		<line class="st0" x1="189.2" y1="360.3" x2="189.2" y2="43.2"/>
	</g>
	<g id="LINE-84">
		<line class="st0" x1="189.2" y1="556.2" x2="189.2" y2="520.2"/>
	</g>
	<g id="LINE-85">
		<line class="st0" x1="189.2" y1="485" x2="189.2" y2="430.1"/>
	</g>
	<g id="LINE-86">
		<line class="st0" x1="197.5" y1="607.2" x2="197.5" y2="520.6"/>
	</g>
	<g id="LINE-87">
		<line class="st0" x1="197.5" y1="362.2" x2="197.5" y2="43.2"/>
	</g>
	<g id="LINE-88">
		<line class="st0" x1="197.5" y1="484.6" x2="197.5" y2="428.3"/>
	</g>
	<g id="LINE-89">
		<line class="st0" x1="205.8" y1="607.6" x2="205.8" y2="520"/>
	</g>
	<g id="LINE-90">
		<line class="st0" x1="205.8" y1="371.2" x2="205.8" y2="43.2"/>
	</g>
	<g id="LINE-91">
		<line class="st0" x1="205.8" y1="485.2" x2="205.8" y2="419.2"/>
	</g>
	<g id="LINE-92">
		<line class="st0" x1="214" y1="608.1" x2="214" y2="518.3"/>
	</g>
	<g id="LINE-93">
		<line class="st0" x1="214" y1="371.2" x2="214" y2="43.2"/>
	</g>
	<g id="LINE-94">
		<line class="st0" x1="214" y1="486.9" x2="214" y2="419.2"/>
	</g>
	<g id="LINE-95">
		<line class="st0" x1="222.2" y1="608.6" x2="222.2" y2="515.2"/>
	</g>
	<g id="LINE-96">
		<line class="st0" x1="222.2" y1="381" x2="222.2" y2="43.2"/>
	</g>
	<g id="LINE-97">
		<line class="st0" x1="222.2" y1="490" x2="222.2" y2="409.5"/>
	</g>
	<g id="LINE-98">
		<line class="st0" x1="230.5" y1="609.1" x2="230.5" y2="508.5"/>
	</g>
	<g id="LINE-99">
		<line class="st0" x1="230.5" y1="496.7" x2="230.5" y2="43.2"/>
	</g>
	<g id="LINE-100">
		<line class="st0" x1="238.8" y1="609.5" x2="238.8" y2="43.2"/>
	</g>
	<g id="LINE-101">
		<line class="st0" x1="247" y1="598" x2="247" y2="43.2"/>
	</g>
	<g id="LINE-102">
		<line class="st0" x1="255.2" y1="598.5" x2="255.2" y2="549.6"/>
	</g>
	<g id="LINE-103">
		<line class="st0" x1="255.2" y1="251.4" x2="255.2" y2="43.2"/>
	</g>
	<g id="LINE-104">
		<line class="st0" x1="255.2" y1="539.9" x2="255.2" y2="222.1"/>
	</g>
	<g id="LINE-105">
		<line class="st0" x1="263.5" y1="598.9" x2="263.5" y2="553.7"/>
	</g>
	<g id="LINE-106">
		<line class="st0" x1="263.5" y1="251.4" x2="263.5" y2="43.2"/>
	</g>
	<g id="LINE-107">
		<line class="st0" x1="263.5" y1="535.8" x2="263.5" y2="222.1"/>
	</g>
	<g id="LINE-108">
		<line class="st0" x1="271.8" y1="599.4" x2="271.8" y2="560.3"/>
	</g>
	<g id="LINE-109">
		<line class="st0" x1="271.8" y1="470.3" x2="271.8" y2="459.6"/>
	</g>
	<g id="LINE-110">
		<line class="st0" x1="271.8" y1="140.4" x2="271.8" y2="95.4"/>
	</g>
	<g id="LINE-111">
		<line class="st0" x1="271.8" y1="417.6" x2="271.8" y2="339.6"/>
	</g>
	<g id="LINE-112">
		<line class="st0" x1="280" y1="599.9" x2="280" y2="560.3"/>
	</g>
	<g id="LINE-113">
		<line class="st0" x1="280" y1="127" x2="280" y2="82.2"/>
	</g>
	<g id="LINE-114">
		<line class="st0" x1="280" y1="470.3" x2="280" y2="459.6"/>
	</g>
	<g id="LINE-115">
		<line class="st0" x1="280" y1="417.6" x2="280" y2="339.6"/>
	</g>
	<g id="LINE-116">
		<line class="st0" x1="288.2" y1="600.3" x2="288.2" y2="560.3"/>
	</g>
	<g id="LINE-117">
		<line class="st0" x1="288.2" y1="127" x2="288.2" y2="82.2"/>
	</g>
	<g id="LINE-118">
		<line class="st0" x1="288.2" y1="470.3" x2="288.2" y2="459.6"/>
	</g>
	<g id="LINE-119">
		<line class="st0" x1="288.2" y1="417.6" x2="288.2" y2="339.6"/>
	</g>
	<g id="LINE-120">
		<line class="st0" x1="296.5" y1="600.8" x2="296.5" y2="560.3"/>
	</g>
	<g id="LINE-121">
		<line class="st0" x1="296.5" y1="127" x2="296.5" y2="82.2"/>
	</g>
	<g id="LINE-122">
		<line class="st0" x1="296.5" y1="470.3" x2="296.5" y2="459.6"/>
	</g>
	<g id="LINE-123">
		<line class="st0" x1="296.5" y1="417.6" x2="296.5" y2="339.6"/>
	</g>
	<g id="LINE-124">
		<line class="st0" x1="304.8" y1="601.3" x2="304.8" y2="560.3"/>
	</g>
	<g id="LINE-125">
		<line class="st0" x1="304.8" y1="127" x2="304.8" y2="82.2"/>
	</g>
	<g id="LINE-126">
		<line class="st0" x1="304.8" y1="470.3" x2="304.8" y2="459.6"/>
	</g>
	<g id="LINE-127">
		<line class="st0" x1="304.8" y1="417.6" x2="304.8" y2="339.6"/>
	</g>
	<g id="LINE-128">
		<line class="st0" x1="313" y1="601.7" x2="313" y2="459.6"/>
	</g>
	<g id="LINE-129">
		<line class="st0" x1="313" y1="127" x2="313" y2="82.2"/>
	</g>
	<g id="LINE-130">
		<line class="st0" x1="313" y1="417.6" x2="313" y2="339.6"/>
	</g>
	<g id="LINE-131">
		<line class="st0" x1="321.2" y1="318.9" x2="321.2" y2="228.9"/>
	</g>
	<g id="LINE-132">
		<line class="st0" x1="329.5" y1="602.7" x2="329.5" y2="536.8"/>
	</g>
	<g id="LINE-133">
		<line class="st0" x1="329.5" y1="446.8" x2="329.5" y2="215.7"/>
	</g>
	<g id="LINE-134">
		<line class="st0" x1="337.8" y1="603.2" x2="337.8" y2="536.8"/>
	</g>
	<g id="LINE-135">
		<line class="st0" x1="337.8" y1="446.8" x2="337.8" y2="215.7"/>
	</g>
	<g id="LINE-136">
		<line class="st0" x1="346" y1="615.7" x2="346" y2="604.6"/>
	</g>
	<g id="LINE-137">
		<line class="st0" x1="346" y1="446.8" x2="346" y2="215.7"/>
	</g>
	<g id="LINE-138">
		<line class="st0" x1="346" y1="581.8" x2="346" y2="536.8"/>
	</g>
	<g id="LINE-139">
		<line class="st0" x1="354.2" y1="616.2" x2="354.2" y2="610.2"/>
	</g>
	<g id="LINE-140">
		<line class="st0" x1="354.2" y1="569.2" x2="354.2" y2="215.7"/>
	</g>
	<g id="LINE-141">
		<line class="st0" x1="362.5" y1="616.7" x2="362.5" y2="610.9"/>
	</g>
	<g id="LINE-142">
		<line class="st0" x1="362.5" y1="571.1" x2="362.5" y2="215.7"/>
	</g>
	<g id="LINE-143">
		<line class="st0" x1="370.8" y1="617.1" x2="370.8" y2="607.2"/>
	</g>
	<g id="LINE-144">
		<line class="st0" x1="370.8" y1="576.9" x2="370.8" y2="215.7"/>
	</g>
	<g id="LINE-145">
		<line class="st0" x1="379" y1="617.6" x2="379" y2="597.3"/>
	</g>
	<g id="LINE-146">
		<line class="st0" x1="379" y1="582.7" x2="379" y2="215.7"/>
	</g>
	<g id="LINE-147">
		<line class="st0" x1="387.2" y1="618.1" x2="387.2" y2="612"/>
	</g>
	<g id="LINE-148">
		<line class="st0" x1="387.2" y1="596" x2="387.2" y2="215.7"/>
	</g>
	<g id="LINE-149">
		<line class="st0" x1="395.5" y1="618.5" x2="395.5" y2="612"/>
	</g>
	<g id="LINE-150">
		<line class="st0" x1="395.5" y1="440.9" x2="395.5" y2="215.7"/>
	</g>
	<g id="LINE-151">
		<line class="st0" x1="395.5" y1="596" x2="395.5" y2="550.1"/>
	</g>
	<g id="LINE-152">
		<line class="st0" x1="403.8" y1="619" x2="403.8" y2="551.9"/>
	</g>
	<g id="LINE-153">
		<line class="st0" x1="403.8" y1="439.4" x2="403.8" y2="215.7"/>
	</g>
	<g id="LINE-154">
		<line class="st0" x1="412" y1="619.5" x2="412" y2="551.9"/>
	</g>
	<g id="LINE-155">
		<line class="st0" x1="412" y1="439.4" x2="412" y2="215.7"/>
	</g>
	<g id="LINE-156">
		<line class="st0" x1="420.2" y1="620" x2="420.2" y2="551.9"/>
	</g>
	<g id="LINE-157">
		<line class="st0" x1="420.2" y1="439.4" x2="420.2" y2="401.7"/>
	</g>
	<g id="LINE-158">
		<line class="st0" x1="428.5" y1="620.4" x2="428.5" y2="551.9"/>
	</g>
	<g id="LINE-159">
		<line class="st0" x1="428.5" y1="439.4" x2="428.5" y2="401.7"/>
	</g>
	<g id="LINE-160">
		<line class="st0" x1="436.8" y1="620.9" x2="436.8" y2="551.9"/>
	</g>
	<g id="LINE-161">
		<line class="st0" x1="436.8" y1="439.4" x2="436.8" y2="401.7"/>
	</g>
	<g id="LINE-162">
		<line class="st0" x1="445" y1="621.4" x2="445" y2="551.9"/>
	</g>
	<g id="LINE-163">
		<line class="st0" x1="445" y1="439.4" x2="445" y2="401.7"/>
	</g>
	<g id="LINE-164">
		<line class="st0" x1="453.2" y1="621.9" x2="453.2" y2="551.9"/>
	</g>
	<g id="LINE-165">
		<line class="st0" x1="453.2" y1="439.4" x2="453.2" y2="401.7"/>
	</g>
	<g id="LINE-166">
		<line class="st0" x1="461.5" y1="622.3" x2="461.5" y2="551.9"/>
	</g>
	<g id="LINE-167">
		<line class="st0" x1="461.5" y1="439.4" x2="461.5" y2="401.7"/>
	</g>
	<g id="LINE-168">
		<line class="st0" x1="469.8" y1="622.8" x2="469.8" y2="551.9"/>
	</g>
	<g id="LINE-169">
		<line class="st0" x1="469.8" y1="439.4" x2="469.8" y2="401.7"/>
	</g>
	<g id="LINE-170">
		<line class="st0" x1="478" y1="623.3" x2="478" y2="551.9"/>
	</g>
	<g id="LINE-171">
		<line class="st0" x1="478" y1="439.4" x2="478" y2="401.7"/>
	</g>
	<g id="LINE-172">
		<line class="st0" x1="486.2" y1="623.8" x2="486.2" y2="551.9"/>
	</g>
	<g id="LINE-173">
		<line class="st0" x1="486.2" y1="439.4" x2="486.2" y2="401.7"/>
	</g>
	<g id="LINE-174">
		<line class="st0" x1="494.5" y1="624.2" x2="494.5" y2="586.4"/>
	</g>
	<g id="LINE-175">
		<line class="st0" x1="494.5" y1="404.9" x2="494.5" y2="401.7"/>
	</g>
	<g id="LINE-176">
		<line class="st0" x1="494.5" y1="556.4" x2="494.5" y2="551.9"/>
	</g>
	<g id="LINE-177">
		<line class="st0" x1="494.5" y1="439.4" x2="494.5" y2="434.9"/>
	</g>
	<g id="LINE-178">
		<line class="st0" x1="502.8" y1="624.7" x2="502.8" y2="586.4"/>
	</g>
	<g id="LINE-179">
		<line class="st0" x1="502.8" y1="404.9" x2="502.8" y2="401.7"/>
	</g>
	<g id="LINE-180">
		<line class="st0" x1="502.8" y1="556.4" x2="502.8" y2="551.9"/>
	</g>
	<g id="LINE-181">
		<line class="st0" x1="502.8" y1="439.4" x2="502.8" y2="434.9"/>
	</g>
	<g id="LINE-182">
		<line class="st0" x1="511" y1="625.2" x2="511" y2="586.4"/>
	</g>
	<g id="LINE-183">
		<line class="st0" x1="511" y1="404.9" x2="511" y2="401.7"/>
	</g>
	<g id="LINE-184">
		<line class="st0" x1="511" y1="556.4" x2="511" y2="551.9"/>
	</g>
	<g id="LINE-185">
		<line class="st0" x1="511" y1="439.4" x2="511" y2="434.9"/>
	</g>
	<g id="LINE-186">
		<line class="st0" x1="519.2" y1="613.6" x2="519.2" y2="551.9"/>
	</g>
	<g id="LINE-187">
		<line class="st0" x1="519.2" y1="439.4" x2="519.2" y2="401.7"/>
	</g>
</g>
<g id="BATH_FIXTURES">
	<g id="LWPOLYLINE-11">
		<path class="st1" d="M71.1,40.6c-0.2,5.9-0.3,11.8-0.3,17.8c0,3,0.6,5.9,1.8,8.6c0.9,2.1,2.2,3.9,3.9,5.3c2.8,2.4,7,2.4,9.8,0
			c1.7-1.5,3-3.3,3.9-5.3c1.2-2.7,1.8-5.7,1.8-8.6c0-5.9-0.1-11.8-0.3-17.8"/>
	</g>
	<g id="LWPOLYLINE-12">
		<path class="st1" d="M91.6,40.6l0.4-0.2c0.7-0.3,1.1-1.1,1-1.8c-0.1-1.6-0.2-3.3-0.4-4.9c0-0.6-0.5-1.1-1.1-1.1H71.3
			c-0.6,0-1.1,0.5-1.2,1.1c-0.1,1.6-0.3,3.3-0.4,4.9c-0.1,0.7,0.3,1.5,1,1.8l0.4,0.2"/>
	</g>
	<g id="LWPOLYLINE-13">
		<path class="st1" d="M91.6,40.6c-6.4,3-13.8,3-20.2,0.1"/>
	</g>
	<g id="LWPOLYLINE-14">
		<path class="st1" d="M339.7,90.2c-0.2,5.9-0.3,11.8-0.3,17.8c0,3,0.6,5.9,1.8,8.6c0.9,2.1,2.2,3.9,3.9,5.3c2.8,2.4,7,2.4,9.8,0
			c1.7-1.5,3-3.3,3.9-5.3c1.2-2.7,1.7-5.7,1.8-8.6c0-5.9-0.1-11.8-0.3-17.8"/>
	</g>
	<g id="ELLIPSE">
		<path class="st1" d="M39.2,94.9c6.6,0,12,8.1,12,18s-5.4,18-12,18s-12-8.1-12-18S32.6,94.9,39.2,94.9z"/>
	</g>
	<g id="LINE-188">
		<line class="st2" x1="426.6" y1="82.3" x2="426.6" y2="203.7"/>
	</g>
	<g id="LWPOLYLINE-15">
		<path class="st1" d="M360.1,90.2l0.4-0.2c0.7-0.3,1.1-1.1,1-1.8c-0.1-1.6-0.2-3.3-0.4-4.9c-0.1-0.6-0.6-1.1-1.2-1.1h-20.2
			c-0.6,0-1.1,0.5-1.2,1.1c-0.1,1.6-0.3,3.3-0.4,4.9c-0.1,0.7,0.3,1.5,1,1.8l0.4,0.2"/>
	</g>
	<g id="LWPOLYLINE-16">
		<path class="st1" d="M360.1,90.2c-6.4,3-13.8,3-20.2,0.1"/>
	</g>
	<g id="LINE-189">
		<line class="st2" x1="461.1" y1="82.2" x2="461.1" y2="203.7"/>
	</g>
	<g id="ELLIPSE-2">
		<path class="st3" d="M462,49.7h-6.5c-0.1,0.8-0.3,1.4-0.5,1.4l-5.3,0.3l0,0c-0.2,0-0.3-1-0.3-2.3s0.1-2.2,0.3-2.2l0,0l5.3,0.3
			c0.2,0,0.4,0.6,0.5,1.4h6.5"/>
	</g>
	<g id="LWPOLYLINE-17">
		<path class="st3" d="M456.3,36v3c0,0.6,0.5,1.1,1.1,1.2c0,0,0.1,0,0.1,0c0.3,0,0.6-0.1,0.8-0.3h3.9v-1.7h-3.6V36
			c0-0.6-0.5-1.1-1.2-1.1C456.8,34.8,456.3,35.3,456.3,36L456.3,36z"/>
	</g>
	<path class="st4" d="M462.2,60.3h-1.1v1.3H460c-0.3,0-0.6,0.3-0.6,0.6c0,0,0,0,0,0v0.3h-1.3c-0.3,0-0.6,0.3-0.6,0.6
		c0,0.3,0.3,0.6,0.6,0.6l0,0h1.3v0.3c0,0.3,0.3,0.6,0.6,0.6l0,0h1.1v1.3h1.1"/>
	<g id="LWPOLYLINE-18">
		<polyline class="st3" points="461.1,88.8 461.1,89.4 467.1,89.4 		"/>
	</g>
	<g id="LWPOLYLINE-19">
		<polyline class="st3" points="467.1,139.8 461.1,139.8 461.1,140.4 		"/>
	</g>
	<g id="LWPOLYLINE-20">
		<rect x="461.1" y="89.4" class="st3" width="1.1" height="50.4"/>
	</g>
	<g id="LWPOLYLINE-21">
		<polyline class="st3" points="461.1,197.2 461.1,196.6 467.3,196.6 		"/>
	</g>
	<g id="LWPOLYLINE-22">
		<polyline class="st3" points="467.1,146.2 461.1,146.2 461.1,145.6 		"/>
	</g>
	<g id="LWPOLYLINE-23">
		<rect x="461.1" y="146.2" class="st3" width="1.1" height="50.4"/>
	</g>
</g>
<g id="BATH_GLAZING">
	<g id="LINE-190">
		<line class="st5" x1="370.9" y1="82.2" x2="424.9" y2="82.3"/>
		<line class="st5" x1="370.9" y1="81.2" x2="424.9" y2="81.3"/>
	</g>
</g>
<g id="RODS">
	<g id="LINE-191">
		<line class="st2" x1="295.6" y1="209" x2="295.6" y2="132.9"/>
	</g>
	<g id="LINE-192">
		<line class="st2" x1="298.6" y1="209" x2="298.6" y2="132.9"/>
	</g>
	<g id="LINE-193">
		<line class="st2" x1="297.1" y1="334" x2="297.1" y2="215.3"/>
	</g>
	<g id="LINE-194">
		<line class="st2" x1="300.1" y1="334" x2="300.1" y2="215.3"/>
	</g>
</g>
<g id="HANGERS">
	<g id="LINE-195">
		<line class="st6" x1="284" y1="176.1" x2="311" y2="186.4"/>
	</g>
	<g id="LINE-196">
		<line class="st6" x1="284" y1="181.8" x2="311" y2="192.1"/>
	</g>
	<g id="LINE-197">
		<line class="st6" x1="284" y1="169.7" x2="311" y2="169.7"/>
	</g>
	<g id="LINE-198">
		<line class="st6" x1="284" y1="173.5" x2="311" y2="173.5"/>
	</g>
	<g id="LINE-199">
		<line class="st6" x1="284" y1="161.9" x2="311" y2="161.9"/>
	</g>
	<g id="LINE-200">
		<line class="st6" x1="284" y1="165.8" x2="311" y2="165.8"/>
	</g>
	<g id="LINE-201">
		<line class="st6" x1="285.1" y1="233.5" x2="312.1" y2="233.5"/>
	</g>
	<g id="LINE-202">
		<line class="st6" x1="285.1" y1="237.3" x2="312.1" y2="237.3"/>
	</g>
	<g id="LINE-203">
		<line class="st6" x1="285.1" y1="270.9" x2="312.1" y2="281.2"/>
	</g>
	<g id="LINE-204">
		<line class="st6" x1="285.1" y1="276.6" x2="312.1" y2="286.9"/>
	</g>
	<g id="LINE-205">
		<line class="st6" x1="285.1" y1="241.2" x2="312.1" y2="241.2"/>
	</g>
	<g id="LINE-206">
		<line class="st6" x1="285.1" y1="248.9" x2="312.1" y2="248.9"/>
	</g>
	<g id="LINE-207">
		<line class="st6" x1="285.1" y1="264.4" x2="312.1" y2="264.4"/>
	</g>
	<g id="LINE-208">
		<line class="st6" x1="285.1" y1="268.3" x2="312.1" y2="268.3"/>
	</g>
	<g id="LINE-209">
		<line class="st6" x1="285.1" y1="245.1" x2="312.1" y2="245.1"/>
	</g>
	<g id="LINE-210">
		<line class="st6" x1="285.1" y1="248.9" x2="312.1" y2="248.9"/>
	</g>
	<g id="LINE-211">
		<line class="st6" x1="285.1" y1="252.8" x2="312.1" y2="252.8"/>
	</g>
	<g id="LINE-212">
		<line class="st6" x1="285.1" y1="256.7" x2="312.1" y2="256.7"/>
	</g>
	<g id="LINE-213">
		<line class="st6" x1="285.1" y1="264.4" x2="312.1" y2="264.4"/>
	</g>
	<g id="LINE-214">
		<line class="st6" x1="285.1" y1="260.6" x2="312.1" y2="260.6"/>
	</g>
</g>
<g id="FURN_BACK">
	<g id="LINE-215">
		<line class="st7" x1="72" y1="325.9" x2="97.5" y2="325.9"/>
	</g>
	<g id="LINE-216">
		<line class="st7" x1="103.5" y1="325.9" x2="129" y2="325.9"/>
	</g>
	<g id="LINE-217">
		<line class="st7" x1="160.5" y1="325.9" x2="135" y2="325.9"/>
	</g>
</g>
<g id="FURNITURE">
	<g id="LWPOLYLINE-24">
		<path class="st1" d="M124.1,381h-18c-3,9.3-3,19.2,0,28.5h18V381z"/>
	</g>
	<g id="LWPOLYLINE-25">
		<path class="st1" d="M160.1,380.2v-18c-9.3-3-19.2-3-28.5,0v18H160.1z"/>
	</g>
	<g id="LWPOLYLINE-26">
		<path class="st1" d="M169.1,380.2v-18c9.3-3,19.2-3,28.5,0v18H169.1z"/>
	</g>
	<g id="LWPOLYLINE-27">
		<path class="st1" d="M160.1,410.2v18c-9.3,3-19.2,3-28.5,0v-18H160.1z"/>
	</g>
	<g id="LWPOLYLINE-28">
		<path class="st1" d="M169.1,410.2v18c9.3,3,19.2,3,28.5,0v-18H169.1z"/>
	</g>
	<g id="LWPOLYLINE-29">
		<path class="st1" d="M205.1,381h18c3,9.3,3,19.2,0,28.5h-18V381z"/>
	</g>
	<g id="CIRCLE">
		<path class="st1" d="M399.6,600.1c2.1,4.5,0.2,9.9-4.3,12c-4.5,2.1-9.9,0.2-12-4.3c-2.1-4.5-0.2-9.8,4.3-12
			C392.1,593.7,397.4,595.6,399.6,600.1C399.6,600.1,399.6,600.1,399.6,600.1z"/>
	</g>
	<g id="LWPOLYLINE-30">
		<rect x="322.2" y="446.8" class="st1" width="27" height="90"/>
	</g>
	<g id="LWPOLYLINE-31">
		<rect x="247.8" y="196" class="st1" width="21" height="75"/>
	</g>
	<g id="LWPOLYLINE-32">
		<rect x="20.5" y="466.5" class="st1" width="27" height="90"/>
	</g>
	<g id="CIRCLE-2">
		<path class="st1" d="M249.2,257.7c0-5,4-9,9-9c5,0,9,4,9,9c0,5-4,9-9,9C253.2,266.7,249.2,262.7,249.2,257.7z"/>
	</g>
	<g id="LINE-218">
		<line class="st2" x1="249.2" y1="257.7" x2="267.2" y2="257.7"/>
	</g>
	<g id="ARC">
		<path class="st1" d="M109.3,409.5c-3.2-9.2-3.2-19.3,0-28.5"/>
	</g>
	<g id="ARC-2">
		<path class="st1" d="M220,409.5c3.2-9.2,3.2-19.3,0-28.5"/>
	</g>
	<g id="ARC-3">
		<path class="st1" d="M131.6,365.4c9.2-3.2,19.3-3.2,28.5,0"/>
	</g>
	<g id="ARC-4">
		<path class="st1" d="M197.6,365.4c-9.2-3.2-19.3-3.2-28.5,0"/>
	</g>
	<g id="LWPOLYLINE-33">
		<rect x="493.8" y="556.4" class="st1" width="24" height="30"/>
	</g>
	<g id="CIRCLE-3">
		<path class="st1" d="M498.2,571.4c0-4.1,3.4-7.5,7.5-7.5s7.5,3.4,7.5,7.5s-3.4,7.5-7.5,7.5l0,0
			C501.5,578.9,498.2,575.6,498.2,571.4z"/>
	</g>
	<g id="ARC-5">
		<path class="st1" d="M131.6,425.1c9.2,3.2,19.3,3.2,28.5,0"/>
	</g>
	<g id="ARC-6">
		<path class="st1" d="M197.6,425.1c-9.2,3.2-19.3,3.2-28.5,0"/>
	</g>
	<g id="LINE-219">
		<line class="st2" x1="474.2" y1="439.4" x2="474.2" y2="551.9"/>
	</g>
	<g id="LWPOLYLINE-34">
		<rect x="493.8" y="404.9" class="st1" width="24" height="30"/>
	</g>
	<g id="LWPOLYLINE-35">
		<path class="st1" d="M517.7,551.9H401.5c-2.2-0.3-3.8-2.2-3.7-4.3V443.4c-0.1-2.1,1.6-3.9,3.7-4h116.3"/>
	</g>
	<g id="LINE-220">
		<line class="st2" x1="498.2" y1="571.4" x2="513.2" y2="571.4"/>
	</g>
	<g id="CIRCLE-4">
		<path class="st1" d="M498.2,419.8c0-4.1,3.4-7.5,7.5-7.5s7.5,3.4,7.5,7.5s-3.4,7.5-7.5,7.5l0,0C501.5,427.3,498.2,424,498.2,419.8
			z"/>
	</g>
	<g id="LINE-221">
		<line class="st2" x1="505.8" y1="578.9" x2="505.8" y2="563.9"/>
	</g>
	<g id="LINE-222">
		<line class="st2" x1="498.2" y1="419.9" x2="513.2" y2="419.9"/>
	</g>
	<g id="LINE-223">
		<line class="st2" x1="505.8" y1="412.3" x2="505.8" y2="427.3"/>
	</g>
	<g id="LWPOLYLINE-36">
		<polyline class="st1" points="492.2,496.9 514.8,496.9 514.8,549.4 492.2,549.4 		"/>
	</g>
	<g id="LWPOLYLINE-37">
		<polyline class="st1" points="492.2,494.3 514.8,494.3 514.8,441.8 492.2,441.8 		"/>
	</g>
	<g id="LWPOLYLINE-38">
		<rect x="517.8" y="439.4" class="st1" width="6" height="112.5"/>
	</g>
	<g id="LINE-224">
		<line class="st2" x1="492.2" y1="439.4" x2="492.2" y2="551.9"/>
	</g>
	<g id="LINE-225">
		<line class="st2" x1="258.2" y1="248.7" x2="258.2" y2="266.7"/>
	</g>
	<g id="LWPOLYLINE-39">
		<path class="st1" d="M143.1,542.3l24.7,1.9c1.4,0,2.9,0.1,4.3,0.3c13.5,2.3,22.6,15.1,20.3,28.7c-2.3,13.5-15.1,22.6-28.7,20.3
			l-33.7-2.6h-0.2c-44.6-3.6-77.8-42.7-74.2-87.3l1.3-15.7c0-0.3,0-0.6,0.1-1c1.6-13.6,13.9-23.3,27.5-21.7
			c13.3,1.6,23,13.5,21.8,26.8l-0.3,6.8c-3.6,20.1,9.6,39.3,29.7,42.9c0,0,0,0,0,0C138.2,542.1,140.7,542.3,143.1,542.3L143.1,542.3
			z"/>
	</g>
	<g id="LWPOLYLINE-40">
		<path class="st1" d="M151.5,592.6c2.5,0.2,4.7-1.6,4.9-4.1c0.2-2.5-1.6-4.7-4.1-4.9l-12.3-1c-1.2,0-2.4-0.1-3.6-0.2
			c-42.2-2.9-74.1-39.4-71.2-81.6l1-12.3c0.2-2.5-1.6-4.7-4.1-4.9c-2.5-0.2-4.7,1.6-4.9,4.1"/>
	</g>
	<g id="ELLIPSE-3">
		<path class="st1" d="M232.5,502.6c0-10-16.1-18-36-18s-36,8-36,18s16.1,18,36,18S232.5,512.5,232.5,502.6z"/>
	</g>
	<g id="LWPOLYLINE-41">
		<rect x="115.2" y="371.2" class="st1" width="99" height="48"/>
	</g>
	<g id="LWPOLYLINE-42">
		<path class="st1" d="M344.6,584.1l10.7-16.4l0,0c0.4-0.6,1.2-0.7,1.8-0.3l28,19.7l0,0c0.6,0.4,0.7,1.3,0.3,1.8c0,0,0,0,0,0
			l-11.7,15.6"/>
	</g>
	<g id="LWPOLYLINE-43">
		<line class="st2" x1="349" y1="586.9" x2="352.8" y2="581.1"/>
	</g>
	<g id="LWPOLYLINE-44">
		<line class="st2" x1="373.6" y1="595.7" x2="369.4" y2="601.3"/>
	</g>
	<g id="ARC-7">
		<path class="st1" d="M345.1,583.2c-5.6,8.1-3.6,19.1,4.5,24.7c8,5.5,18.9,3.6,24.6-4.3"/>
	</g>
	<g id="ARC-8">
		<path class="st1" d="M349.5,586.2c-3.8,5.7-2.3,13.5,3.5,17.3c5.5,3.7,13,2.4,17-3"/>
	</g>
	<g id="ARC-9">
		<path class="st1" d="M352.8,581.1c1.1-2.6,0.5-5.5-1.4-7.5"/>
	</g>
	<g id="ARC-10">
		<path class="st1" d="M381.2,594.4c-2.5-1.1-5.5-0.7-7.6,1.2"/>
	</g>
	<g id="ARC-11">
		<path class="st1" d="M72,325.9c0,7,5.7,12.8,12.8,12.8s12.8-5.7,12.8-12.8"/>
	</g>
	<g id="ARC-12">
		<path class="st1" d="M103.5,325.9c0,7,5.7,12.8,12.8,12.8S129,333,129,325.9l0,0"/>
	</g>
	<g id="ARC-13">
		<path class="st1" d="M160.5,325.9c0,7-5.7,12.8-12.8,12.8c-7,0-12.8-5.7-12.8-12.8l0,0"/>
	</g>
	<g id="CIRCLE-5">
		<path class="st1" d="M253.5,544.6c0-5,4-9,9-9s9,4,9,9s-4,9-9,9S253.5,549.6,253.5,544.6z"/>
	</g>
	<g id="LWPOLYLINE-45">
		<path class="st1" d="M270.5,476.2v-6h39c0.8,0,1.5,0.7,1.5,1.5v70.5h-6v18h-40.5v-84L270.5,476.2"/>
	</g>
	<g id="LWPOLYLINE-46">
		<polyline class="st8" points="270.5,476.2 305,476.2 305,542.2 		"/>
	</g>
	<g id="LWPOLYLINE-47">
		<rect x="264.5" y="476.2" class="st1" width="40.5" height="84"/>
	</g>
</g>
<g id="KITCHEN">
	<g id="LWPOLYLINE-48">
		<rect x="49.3" y="262.9" class="st9" width="133.9" height="63"/>
	</g>
	<g id="LWPOLYLINE-49">
		<polyline class="st9" points="174.4,149 174.4,195.9 16.8,195.9 16.8,149 		"/>
	</g>
	<g id="LINE-226">
		<line class="st10" x1="146.9" y1="153.9" x2="146.9" y2="195.9"/>
	</g>
	<g id="LINE-227">
		<line class="st10" x1="99.3" y1="153.9" x2="99.3" y2="195.9"/>
	</g>
	<path class="st4" d="M110.3,172.5c-1.3,0-2.4-1.1-2.4-2.4s1.1-2.4,2.4-2.4c1.3,0,2.4,1.1,2.4,2.4c0,0,0,0,0,0
		C112.7,171.4,111.6,172.5,110.3,172.5C110.3,172.5,110.3,172.5,110.3,172.5z"/>
	<path class="st4" d="M128,172.5c-1.3,0-2.4-1.1-2.4-2.4c0-1.3,1.1-2.4,2.4-2.4c1.3,0,2.4,1.1,2.4,2.4c0,0,0,0,0,0
		C130.3,171.4,129.3,172.5,128,172.5z"/>
	<path class="st4" d="M110.3,187.8c-1.3,0-2.4-1.1-2.4-2.4s1.1-2.4,2.4-2.4c1.3,0,2.4,1.1,2.4,2.4
		C112.7,186.7,111.6,187.8,110.3,187.8C110.3,187.8,110.3,187.8,110.3,187.8z"/>
	<path class="st4" d="M128,187.8c-1.3,0-2.4-1.1-2.4-2.4c0-1.3,1.1-2.4,2.4-2.4c1.3,0,2.4,1.1,2.4,2.4c0,0,0,0,0,0
		C130.3,186.7,129.3,187.8,128,187.8C128,187.8,128,187.8,128,187.8z"/>
	<line class="st4" x1="119" y1="193" x2="101.5" y2="177.8"/>
	<g id="LINE-228">
		<line class="st4" x1="119" y1="193.8" x2="119" y2="161.7"/>
	</g>
	<rect x="101.5" y="162.4" class="st4" width="35.3" height="30.6"/>
	<line class="st4" x1="101.5" y1="177.8" x2="136.9" y2="177.8"/>
	<g id="CIRCLE-6">
		<path class="st4" d="M140.3,175.9c0-0.8,0.6-1.4,1.4-1.4c0.8,0,1.4,0.6,1.4,1.4c0,0.8-0.6,1.4-1.4,1.4c0,0,0,0,0,0
			C140.9,177.3,140.3,176.7,140.3,175.9z"/>
	</g>
	<g id="CIRCLE-7">
		<path class="st4" d="M140.3,180.5c0-0.8,0.6-1.4,1.4-1.4c0.8,0,1.4,0.6,1.4,1.4c0,0.8-0.6,1.4-1.4,1.4c0,0,0,0,0,0
			C140.9,181.9,140.3,181.3,140.3,180.5z"/>
	</g>
	<g id="CIRCLE-8">
		<path class="st4" d="M140.3,185.2c0-0.8,0.6-1.4,1.4-1.4c0.8,0,1.4,0.6,1.4,1.4c0,0.8-0.6,1.4-1.4,1.4c0,0,0,0,0,0
			C140.9,186.5,140.3,185.9,140.3,185.2z"/>
	</g>
	<g id="CIRCLE-9">
		<path class="st4" d="M140.3,189.6c0-0.8,0.6-1.4,1.4-1.4c0.8,0,1.4,0.6,1.4,1.4c0,0.8-0.6,1.4-1.4,1.4c0,0,0,0,0,0
			C140.9,190.9,140.3,190.3,140.3,189.6C140.3,189.6,140.3,189.6,140.3,189.6z"/>
	</g>
	<rect x="100.3" y="161.7" class="st4" width="45" height="32.1"/>
	<line class="st4" x1="101.5" y1="193" x2="119" y2="177.8"/>
	<line class="st4" x1="136.9" y1="162.4" x2="119" y2="177.8"/>
	<line class="st4" x1="119" y1="162.4" x2="136.9" y2="177.8"/>
	<line class="st4" x1="101.5" y1="162.4" x2="119" y2="177.8"/>
	<line class="st4" x1="101.5" y1="177.8" x2="119" y2="162.4"/>
	<line class="st4" x1="136.9" y1="193" x2="119" y2="177.8"/>
	<line class="st4" x1="136.9" y1="177.8" x2="119" y2="193"/>
</g>
<g id="APPLIANCES">
	<g id="LWPOLYLINE-50">
		<rect x="129.8" y="26.8" class="st5" width="35.2" height="33.8"/>
	</g>
	<g id="LWPOLYLINE-51">
		<polyline class="st5" points="136,60.5 136,61.7 158.9,61.7 158.9,60.5 		"/>
	</g>
	<g id="LINE-229">
		<line class="st11" x1="180.3" y1="296.6" x2="180.3" y2="262.9"/>
	</g>
	<g id="LINE-230">
		<line class="st11" x1="144.9" y1="296.6" x2="144.9" y2="262.9"/>
	</g>
	<g id="LINE-231">
		<line class="st11" x1="144.9" y1="296.6" x2="180.3" y2="296.6"/>
	</g>
	<line class="st10" x1="63.2" y1="153.9" x2="63.2" y2="195.7"/>
</g>
<g id="SINKS">
	<g id="CIRCLE-10">
		<path class="st6" d="M37,112.9c0-0.8,0.7-1.5,1.5-1.5s1.5,0.7,1.5,1.5s-0.7,1.5-1.5,1.5S37,113.7,37,112.9z"/>
	</g>
	<g id="LWPOLYLINE-52">
		<rect x="24.9" y="115.5" class="st6" width="0.4" height="3.8"/>
	</g>
	<g id="LWPOLYLINE-53">
		<rect x="24.9" y="111" class="st6" width="0.4" height="3.8"/>
	</g>
	<g id="LWPOLYLINE-54">
		<rect x="24.9" y="106.5" class="st6" width="0.4" height="3.8"/>
	</g>
	<g id="LWPOLYLINE-55">
		<polyline class="st12" points="25.3,118.6 29,118.6 29,116.1 25.3,116.1 		"/>
	</g>
	<g id="LWPOLYLINE-56">
		<polyline class="st12" points="25.3,107.1 29,107.1 29,109.6 25.3,109.6 		"/>
	</g>
	<g id="LINE-232">
		<polyline class="st12" points="25,113.4 37.3,113.4 37.3,112.3 25.1,112.3 		"/>
	</g>
	<g id="ELLIPSE-4">
		<path class="st6" d="M39.2,99.8c5,0,9,5.9,9,13.1s-4,13.1-9,13.1s-9-5.9-9-13.1S34.2,99.8,39.2,99.8z"/>
	</g>
	<g id="SPLINE">
		<path class="st6" d="M448.9,134h0.2h0.1l0.1-0.1h0l0,0l0.1-0.1c0,0,0-0.1,0.1-0.1v-0.1c0,0,0,0,0-0.1c0,0,0-0.1,0-0.1"/>
	</g>
	<g id="SPLINE-2">
		<path class="st6" d="M430.3,133.4c0,0,0,0.1,0,0.1c0,0,0,0,0,0.1v0.1c0,0,0,0.1,0.1,0.1v0.1l0,0l0.1,0.1l0.1,0.1h0h0.2"/>
	</g>
	<g id="SPLINE-3">
		<path class="st6" d="M430.9,104.8h-0.2h-0.1l-0.1,0.1h0l0,0l-0.1,0.1c0,0,0,0.1-0.1,0.1c0,0,0,0,0,0.1s0,0,0,0c0,0,0,0.1,0,0.1"/>
	</g>
	<g id="SPLINE-4">
		<path class="st6" d="M449.5,105.4c0,0,0-0.1,0-0.1l0,0c0,0,0,0,0-0.1c0,0,0-0.1-0.1-0.1V105l0,0l-0.1-0.1l-0.1-0.1h0H449"/>
	</g>
	<g id="ELLIPSE-5">
		<path class="st6" d="M448.9,104.8L448.9,104.8"/>
	</g>
	<g id="ELLIPSE-6">
		<path class="st6" d="M431,104.8L431,104.8"/>
	</g>
	<g id="LINE-233">
		<line class="st6" x1="448.8" y1="104.8" x2="431" y2="104.8"/>
	</g>
	<g id="ELLIPSE-7">
		<path class="st6" d="M448.8,134L448.8,134"/>
	</g>
	<g id="LINE-234">
		<line class="st6" x1="448.8" y1="134" x2="431" y2="134"/>
	</g>
	<g id="ELLIPSE-8">
		<path class="st6" d="M430.9,134L430.9,134"/>
	</g>
	<g id="LINE-235">
		<line class="st6" x1="430.3" y1="133.4" x2="430.3" y2="105.4"/>
	</g>
	<g id="ELLIPSE-9">
		<path class="st6" d="M449.5,133.4L449.5,133.4"/>
	</g>
	<g id="ELLIPSE-10">
		<path class="st6" d="M449.5,105.4L449.5,105.4"/>
	</g>
	<g id="LINE-236">
		<line class="st6" x1="449.4" y1="133.4" x2="449.4" y2="105.4"/>
	</g>
	<g id="CIRCLE-11">
		<path class="st6" d="M438.6,119.4c0-0.7,0.6-1.3,1.3-1.3c0.7,0,1.3,0.6,1.3,1.3s-0.6,1.3-1.3,1.3c0,0,0,0,0,0
			C439.2,120.7,438.6,120.1,438.6,119.4z"/>
	</g>
	<g id="CIRCLE-12">
		<path class="st6" d="M438,119.4c0-1.1,0.9-1.9,1.9-1.9c1.1,0,1.9,0.9,1.9,1.9c0,1.1-0.9,1.9-1.9,1.9S438,120.5,438,119.4
			L438,119.4z"/>
	</g>
	<g id="LWPOLYLINE-57">
		<polyline class="st6" points="453.7,120.5 453.7,121 456.9,121 456.9,117.8 453.7,117.8 453.7,118.3 		"/>
	</g>
	<g id="LWPOLYLINE-58">
		<rect x="443.5" y="118.3" class="st12" width="12" height="2.2"/>
	</g>
	<g id="LWPOLYLINE-59">
		<rect x="453.7" y="111.8" class="st6" width="3.2" height="3.2"/>
	</g>
	<g id="LWPOLYLINE-60">
		<rect x="453.7" y="123.8" class="st6" width="3.2" height="3.2"/>
	</g>
	<g id="LWPOLYLINE-61">
		<rect x="454.9" y="123.8" class="st6" width="0.8" height="3.2"/>
	</g>
	<g id="LWPOLYLINE-62">
		<rect x="454.9" y="111.8" class="st6" width="0.8" height="3.2"/>
	</g>
	<g id="SPLINE-5">
		<path class="st6" d="M448.9,158h0.2h0.1l0.1,0.1h0l0,0l0.1,0.1c0,0,0,0.1,0.1,0.1c0,0,0,0,0,0.1s0,0,0,0c0,0,0,0.1,0,0.1"/>
	</g>
	<g id="SPLINE-6">
		<path class="st6" d="M430.3,158.6c0,0,0-0.1,0-0.1l0,0c0,0,0,0,0-0.1c0,0,0-0.1,0.1-0.1v-0.1l0,0l0.1-0.1l0.1-0.1h0h0.2"/>
	</g>
	<g id="SPLINE-7">
		<path class="st6" d="M430.9,187.3h-0.2h-0.1l-0.1-0.1h0l0,0l-0.1-0.1c0,0,0-0.1-0.1-0.1V187c0,0,0,0,0-0.1c0,0,0-0.1,0-0.1"/>
	</g>
	<g id="SPLINE-8">
		<path class="st6" d="M449.5,186.7c0,0,0,0.1,0,0.1c0,0,0,0,0,0.1v0.1c0,0,0,0.1-0.1,0.1v0.1l0,0l-0.1,0.1l-0.1,0.1h0H449"/>
	</g>
	<g id="ELLIPSE-11">
		<path class="st6" d="M448.9,187.3L448.9,187.3"/>
	</g>
	<g id="ELLIPSE-12">
		<path class="st6" d="M431,187.3L431,187.3"/>
	</g>
	<g id="LINE-237">
		<line class="st6" x1="448.8" y1="187.3" x2="431" y2="187.3"/>
	</g>
	<g id="ELLIPSE-13">
		<path class="st6" d="M448.8,158L448.8,158"/>
	</g>
	<g id="LINE-238">
		<line class="st6" x1="448.8" y1="158" x2="431" y2="158"/>
	</g>
	<g id="ELLIPSE-14">
		<path class="st6" d="M430.9,158L430.9,158"/>
	</g>
	<g id="LINE-239">
		<line class="st6" x1="430.3" y1="158.6" x2="430.3" y2="186.6"/>
	</g>
	<g id="ELLIPSE-15">
		<path class="st6" d="M449.5,158.6L449.5,158.6"/>
	</g>
	<g id="ELLIPSE-16">
		<path class="st6" d="M449.5,186.6L449.5,186.6"/>
	</g>
	<g id="LINE-240">
		<line class="st6" x1="449.4" y1="158.6" x2="449.4" y2="186.6"/>
	</g>
	<g id="CIRCLE-13">
		<path class="st6" d="M438.6,172.6c0-0.7,0.6-1.3,1.3-1.3c0.7,0,1.3,0.6,1.3,1.3s-0.6,1.3-1.3,1.3c0,0,0,0,0,0
			C439.2,174,438.6,173.4,438.6,172.6z"/>
	</g>
	<g id="CIRCLE-14">
		<path class="st6" d="M438,172.6c0-1.1,0.9-1.9,1.9-1.9c1.1,0,1.9,0.9,1.9,1.9c0,1.1-0.9,1.9-1.9,1.9S438,173.7,438,172.6
			L438,172.6z"/>
	</g>
	<g id="LWPOLYLINE-63">
		<polyline class="st6" points="453.7,171.5 453.7,171.1 456.9,171.1 456.9,174.2 453.7,174.2 453.7,173.8 		"/>
	</g>
	<g id="LWPOLYLINE-64">
		<rect x="443.5" y="171.5" class="st12" width="12" height="2.2"/>
	</g>
	<g id="LWPOLYLINE-65">
		<rect x="453.7" y="177.1" class="st6" width="3.2" height="3.2"/>
	</g>
	<g id="LWPOLYLINE-66">
		<rect x="453.7" y="165.1" class="st6" width="3.2" height="3.2"/>
	</g>
	<g id="LWPOLYLINE-67">
		<rect x="454.9" y="165.1" class="st6" width="0.8" height="3.2"/>
	</g>
	<g id="LWPOLYLINE-68">
		<rect x="454.9" y="177.1" class="st6" width="0.8" height="3.2"/>
	</g>
	<g id="LWPOLYLINE-69">
		<rect x="112.8" y="293.1" class="st6" width="1.7" height="3"/>
	</g>
	<g id="LWPOLYLINE-70">
		<polyline class="st6" points="112.8,293.3 112.3,293.3 112.3,295.9 112.8,295.9 		"/>
	</g>
	<g id="LWPOLYLINE-71">
		<polyline class="st6" points="114.5,295.9 114.9,295.9 114.9,293.3 114.5,293.3 		"/>
	</g>
	<g id="LINE-241">
		<line class="st6" x1="114.5" y1="293.5" x2="112.8" y2="293.5"/>
	</g>
	<g id="CIRCLE-15">
		<path class="st6" d="M125.6,295.7c0.6,0.1,1.2-0.4,1.2-1c0.1-0.6-0.4-1.2-1-1.2c-0.1,0-0.1,0-0.2,0c-0.6,0.1-1.1,0.6-1,1.2
			C124.6,295.3,125.1,295.7,125.6,295.7z"/>
	</g>
	<g id="LWPOLYLINE-72">
		<polyline class="st6" points="118.9,293.3 118.3,293.3 118.3,295.9 120.9,295.9 120.9,293.3 120.4,293.3 		"/>
	</g>
	<g id="LWPOLYLINE-73">
		<polyline class="st6" points="125.3,293.3 124.3,293.3 124.3,295.9 126.9,295.9 126.9,293.3 125.9,293.3 		"/>
	</g>
	<g id="LWPOLYLINE-74">
		<polyline class="st6" points="125.3,293.5 125.3,291.7 125.9,291.7 125.9,293.5 		"/>
	</g>
	<rect x="133.3" y="292.4" class="st6" width="4.3" height="4.3"/>
	<g id="LWPOLYLINE-75">
		<rect x="118.9" y="281.9" class="st6" width="1.5" height="13.5"/>
	</g>
	<g id="LWPOLYLINE-76">
		<polyline class="st6" points="118.9,291.6 97.1,291.6 97.1,266.1 142.1,266.1 142.1,291.6 120.4,291.6 		"/>
	</g>
	<rect x="135.8" y="294.2" class="st6" width="1.2" height="0.8"/>
	<line class="st6" x1="137.3" y1="295.1" x2="137.3" y2="294"/>
	<rect x="133.7" y="283" class="st12" width="1.7" height="12.2"/>
</g>
<g id="SILLS">
	<g id="LINE-242">
		<line class="st13" x1="70" y1="622.1" x2="524" y2="648.2"/>
	</g>
	<line class="st13" x1="523.3" y1="626.3" x2="69.1" y2="599.8"/>
</g>
<g id="WINDOW_GLAZING">
	<g id="LINE-243">
		<line class="st14" x1="348.6" y1="624.1" x2="405.4" y2="627.4"/>
	</g>
	<g id="LINE-244">
		<line class="st14" x1="405.3" y1="629" x2="348.5" y2="625.6"/>
	</g>
	<g id="LINE-245">
		<line class="st14" x1="449" y1="629.8" x2="505.8" y2="633.2"/>
	</g>
	<g id="LINE-246">
		<line class="st14" x1="505.7" y1="634.7" x2="449" y2="631.4"/>
	</g>
	<g id="LINE-247">
		<line class="st14" x1="79.1" y1="608.5" x2="135.9" y2="611.9"/>
	</g>
	<g id="LINE-248">
		<line class="st14" x1="135.8" y1="613.4" x2="79" y2="610"/>
	</g>
	<g id="LINE-249">
		<line class="st14" x1="179.5" y1="614.2" x2="236.3" y2="617.6"/>
	</g>
	<g id="LINE-250">
		<line class="st14" x1="236.2" y1="619.2" x2="179.4" y2="615.8"/>
	</g>
</g>
<g id="MULLIONS">
	<g id="LWPOLYLINE-77">
		
			<rect x="69.2" y="607.1" transform="matrix(6.017743e-02 -0.9982 0.9982 6.017743e-02 -538.7523 645.6335)" class="st2" width="8.6" height="3.6"/>
	</g>
	<g id="LWPOLYLINE-78">
		
			<rect x="75.9" y="606.8" transform="matrix(6.017743e-02 -0.9982 0.9982 6.017743e-02 -535.114 649.2792)" class="st2" width="2.6" height="3.9"/>
	</g>
	<g id="LWPOLYLINE-79">
		<line class="st13" x1="179.5" y1="614.3" x2="179.5" y2="615"/>
	</g>
	<line class="st5" x1="518.7" y1="659.8" x2="54.1" y2="633"/>
	<g id="LINE-251">
		<line class="st2" x1="142.6" y1="617.4" x2="74.9" y2="613.3"/>
	</g>
	<g id="LINE-252">
		<line class="st2" x1="142.6" y1="608.8" x2="74.9" y2="604.7"/>
	</g>
	<g id="LWPOLYLINE-80">
		
			<rect x="69.1" y="607.2" transform="matrix(6.017743e-02 -0.9982 0.9982 6.017743e-02 -538.9158 645.5665)" class="st2" width="8.6" height="3.6"/>
	</g>
	<g id="LWPOLYLINE-81">
		
			<rect x="137.3" y="611.3" transform="matrix(6.017743e-02 -0.9982 0.9982 6.017743e-02 -478.8258 717.5469)" class="st2" width="8.6" height="3.6"/>
	</g>
	<g id="LWPOLYLINE-82">
		
			<rect x="75.8" y="606.9" transform="matrix(6.017743e-02 -0.9982 0.9982 6.017743e-02 -535.2876 649.2217)" class="st2" width="2.6" height="3.9"/>
	</g>
	<g id="LWPOLYLINE-83">
		
			<rect x="136.6" y="610.6" transform="matrix(6.017743e-02 -0.9982 0.9982 6.017743e-02 -481.8805 713.3724)" class="st2" width="2.6" height="3.9"/>
	</g>
	<g id="LINE-253">
		<line class="st2" x1="243.1" y1="623.2" x2="175.3" y2="619.1"/>
	</g>
	<g id="LINE-254">
		<line class="st2" x1="243.1" y1="614.5" x2="175.3" y2="610.4"/>
	</g>
	<g id="LWPOLYLINE-84">
		
			<rect x="169.5" y="612.9" transform="matrix(6.017743e-02 -0.9982 0.9982 6.017743e-02 -450.2728 751.1882)" class="st2" width="8.6" height="3.6"/>
	</g>
	<g id="LWPOLYLINE-85">
		
			<rect x="237.7" y="617" transform="matrix(6.017743e-02 -0.9982 0.9982 6.017743e-02 -390.1932 823.1773)" class="st2" width="8.6" height="3.6"/>
	</g>
	<g id="LWPOLYLINE-86">
		
			<rect x="176.2" y="612.6" transform="matrix(6.017743e-02 -0.9982 0.9982 6.017743e-02 -446.6345 754.8339)" class="st2" width="2.6" height="3.9"/>
	</g>
	<g id="LWPOLYLINE-87">
		
			<rect x="237" y="616.4" transform="matrix(6.017743e-02 -0.9982 0.9982 6.017743e-02 -393.2291 819.0039)" class="st2" width="2.6" height="3.9"/>
	</g>
	<g id="LINE-255">
		<line class="st2" x1="412.2" y1="633" x2="344.4" y2="628.9"/>
	</g>
	<g id="LINE-256">
		<line class="st2" x1="412.2" y1="624.3" x2="344.4" y2="620.2"/>
	</g>
	<g id="LWPOLYLINE-88">
		
			<rect x="338.6" y="622.8" transform="matrix(6.017743e-02 -0.9982 0.9982 6.017743e-02 -301.1438 929.2769)" class="st2" width="8.6" height="3.6"/>
	</g>
	<g id="LWPOLYLINE-89">
		
			<rect x="406.9" y="626.9" transform="matrix(6.017743e-02 -0.9982 0.9982 6.017743e-02 -241.063 1001.2473)" class="st2" width="8.6" height="3.6"/>
	</g>
	<g id="LWPOLYLINE-90">
		
			<rect x="345.3" y="622.5" transform="matrix(6.017743e-02 -0.9982 0.9982 6.017743e-02 -297.5237 932.9022)" class="st2" width="2.6" height="3.9"/>
	</g>
	<g id="LWPOLYLINE-91">
		
			<rect x="406.1" y="626.2" transform="matrix(6.017743e-02 -0.9982 0.9982 6.017743e-02 -244.1077 997.0634)" class="st2" width="2.6" height="3.9"/>
	</g>
	<g id="LINE-257">
		<line class="st2" x1="512.2" y1="638.7" x2="444.4" y2="634.7"/>
	</g>
	<g id="LINE-258">
		<line class="st2" x1="512.6" y1="630.1" x2="444.8" y2="626"/>
	</g>
	<g id="LWPOLYLINE-92">
		
			<rect x="439" y="628.5" transform="matrix(6.017743e-02 -0.9982 0.9982 6.017743e-02 -212.4907 1034.8892)" class="st2" width="8.6" height="3.6"/>
	</g>
	<g id="LWPOLYLINE-93">
		
			<rect x="507.3" y="632.6" transform="matrix(6.017743e-02 -0.9982 0.9982 6.017743e-02 -152.4204 1106.8683)" class="st2" width="8.6" height="3.6"/>
	</g>
	<g id="LWPOLYLINE-94">
		
			<rect x="445.8" y="628.2" transform="matrix(6.017743e-02 -0.9982 0.9982 6.017743e-02 -208.8705 1038.5144)" class="st2" width="2.6" height="3.9"/>
	</g>
	<g id="LWPOLYLINE-95">
		
			<rect x="506.5" y="631.9" transform="matrix(6.017743e-02 -0.9982 0.9982 6.017743e-02 -155.4652 1102.6844)" class="st2" width="2.6" height="3.9"/>
	</g>
</g>
<g id="DOOR_SWING">
	<g id="ARC-14">
		<path class="st5" d="M322.7,398.1c29,0,52.5-23.5,52.5-52.5"/>
	</g>
</g>
<g id="DOOR_SWING_MAIN">
	<g id="ARC-15">
		<path class="st13" d="M214.8,43.2c0,13.7,5.2,26.9,14.5,36.9"/>
	</g>
</g>
<g id="DOORS">
	<g id="LWPOLYLINE-96">
		<polygon class="st15" points="267.2,41.7 268.8,43.2 229.4,80.1 227.8,78.6 		"/>
	</g>
	<g id="LWPOLYLINE-97">
		<rect x="322.7" y="345.6" class="st15" width="52.5" height="2.2"/>
	</g>
	<g id="LWPOLYLINE-98">
		<polygon class="st15" points="110,80.4 112.2,80.3 112.2,132.8 110,132.9 		"/>
	</g>
	<g id="LWPOLYLINE-99">
		<rect x="351.9" y="208.4" class="st15" width="52.6" height="2.6"/>
	</g>
	<g id="LWPOLYLINE-100">
		<rect x="319.9" y="228.9" class="st15" width="2.6" height="45"/>
	</g>
	<g id="LWPOLYLINE-101">
		<rect x="272" y="146.4" class="st15" width="2.6" height="45"/>
	</g>
	<g id="LWPOLYLINE-102">
		<rect x="272" y="95.3" class="st15" width="2.6" height="45"/>
	</g>
	<g id="LWPOLYLINE-103">
		<rect x="124.2" y="69.1" class="st15" width="45" height="2.6"/>
	</g>
	<g id="LWPOLYLINE-104">
		<rect x="319.9" y="273.9" class="st15" width="2.6" height="45"/>
	</g>
</g>
<g id="WALLS">
	<g id="LWPOLYLINE-105">
		<polygon class="st16" points="370.9,82.2 322.8,82.2 322.8,203.7 353.9,203.7 353.9,208.6 302.1,208.6 302.1,212.8 353.9,212.8 
			353.9,216.7 322.8,216.7 322.8,229.9 315.3,229.9 315.3,216.7 279.2,216.7 279.2,332.1 315.2,332.1 315.2,318.9 322.8,318.9 
			322.7,345.6 315.2,345.6 315.2,339.6 271.8,339.6 271.8,191.4 279.2,191.4 279.2,204.3 315.2,204.3 315.2,136.2 279.2,136.2 
			279.2,146.4 271.8,146.4 271.8,43.2 268.8,43.2 268.8,34.2 274.8,34.2 274.8,13.1 483.5,13.2 483.5,213.7 431.9,213.7 
			431.9,394.2 532.5,394.2 532.5,657.5 526.4,657.1 526.2,660.1 511.9,659.3 513.1,638.5 514.6,613.4 523.6,613.9 523.6,401.7 
			412.4,401.7 412.4,216.7 404.9,216.7 404.9,203.7 467.1,203.7 467.1,82.2 424.9,82.3 424.9,76.2 462.2,76.2 462.2,22.2 
			370.9,22.2 		"/>
	</g>
	<g id="LWPOLYLINE-106">
		<polygon class="st16" points="271.8,417.6 315.2,417.6 315.2,398.1 322.7,398.1 322.7,602.3 342.4,603.5 340.4,637.5 336,637.3 
			335.3,649.1 323.5,648.4 322.9,660.4 294.4,658.8 294.5,657.3 277.1,656.3 277,657.8 248.6,656.2 249.2,644.2 242.4,643.8 
			245,597.9 315.2,601.9 315.2,459.6 271.8,459.6 		"/>
	</g>
	<g id="LWPOLYLINE-107">
		
			<rect x="140.9" y="608.4" transform="matrix(5.738980e-02 -0.9984 0.9984 5.738980e-02 -473.4875 743.8925)" class="st16" width="32.6" height="28.5"/>
	</g>
	<g id="LWPOLYLINE-108">
		
			<rect x="410.7" y="624" transform="matrix(5.738980e-02 -0.9984 0.9984 5.738980e-02 -234.7162 1027.9402)" class="st16" width="32.6" height="28.5"/>
	</g>
	<g id="LWPOLYLINE-109">
		<polygon class="st16" points="109.9,138.9 16.7,138.9 16.7,127.8 23.4,127.8 23.4,130.8 24.9,130.8 24.9,94.8 23.4,94.8 
			23.4,97.8 16.7,97.8 16.7,86.7 52.8,86.7 52.8,32.7 109.9,32.7 109.9,80.4 117.4,80.4 117.4,71.7 124.2,71.7 124.2,64.2 
			120.4,64.2 120.4,22.2 174.4,22 174.4,64.2 169.2,64.2 169.2,71.7 181.9,71.7 181.9,43.2 214.8,43.2 214.8,34.2 181.9,34.2 
			181.9,13.2 43.8,13.2 43.8,77.7 0.3,77.7 0.2,271.9 40.3,271.9 40.3,450.6 10.6,450.6 10.6,641.1 32.4,642.3 32.3,643.8 
			60.8,645.5 61.5,633.5 70.2,634 72.8,588 17.8,584.8 17.8,459.6 49.3,459.6 49.3,262.9 9.2,262.9 9.3,195.8 16.8,195.8 
			16.7,153.8 63.2,153.8 63.2,153.9 174.4,153.9 174.4,195.8 181.9,195.8 181.9,138.9 117.5,138.9 117.5,132.9 109.9,132.9 		"/>
	</g>
</g>
<g id="LIVE">
	<g id="MTEXT">
		<g class="st17">
			<path class="st18" d="M157.4,173.2l1.4,5.1l1.3-5.1h0.8l-1.7,6.4h-0.7l-1.3-5l-1.4,5H155l-1.7-6.4h0.8l1.3,5.1l1.4-5.1H157.4z"/>
			<path class="st18" d="M162.6,176.9v2.7h-0.8v-6.4h2.4c1.3,0,2.1,0.6,2.1,1.9c0,1.1-0.6,1.7-1.6,1.8l1.9,2.7h-0.9l-1.8-2.7H162.6z
				 M162.6,176.2h1.5c0.8,0,1.3-0.4,1.3-1.1c0-0.7-0.5-1.1-1.3-1.1h-1.5V176.2z"/>
		</g>
	</g>
	<g id="MTEXT-2">
		<g class="st17">
			<path class="st18" d="M35.6,176.9v2.7h-0.8v-6.4h2.4c1.3,0,2.1,0.6,2.1,1.9c0,1.1-0.6,1.7-1.6,1.8l1.9,2.7h-0.9l-1.8-2.7H35.6z
				 M35.6,176.2h1.5c0.8,0,1.3-0.4,1.3-1.1c0-0.7-0.5-1.1-1.3-1.1h-1.5V176.2z"/>
			<path class="st18" d="M42.4,172.9h0.8l-2.6,7.6h-0.8L42.4,172.9z"/>
			<path class="st18" d="M44,179.6v-6.4h3.9v0.7h-3.1v2.2h2.9v0.7h-2.9v2.8H44z"/>
		</g>
	</g>
	<g id="MTEXT-3">
		<g class="st17">
			<path class="st18" d="M157.1,276.6h2c1.9,0,3.1,1.2,3.1,3.2c0,1.9-1.2,3.2-3.1,3.2h-2V276.6z M159.1,282.2c1.4,0,2.3-1,2.3-2.5
				c0-1.5-0.9-2.5-2.3-2.5h-1.2v4.9H159.1z"/>
		</g>
		<g class="st17">
			<path class="st18" d="M166.9,276.6l1.4,5.1l1.3-5.1h0.8l-1.7,6.4h-0.7l-1.3-5l-1.4,5h-0.7l-1.7-6.4h0.8l1.3,5.1l1.4-5.1H166.9z"
				/>
		</g>
	</g>
	<g id="MTEXT-4">
		<g class="st17">
			<path class="st18" d="M143.2,40.7l1.4,5.1l1.3-5.1h0.8l-1.7,6.4h-0.7l-1.3-5l-1.4,5h-0.7l-1.7-6.4h0.8l1.3,5.1l1.4-5.1H143.2z"/>
		</g>
		<g class="st17">
			<path class="st18" d="M149.3,40.3h0.8l-2.6,7.6h-0.8L149.3,40.3z"/>
			<path class="st18" d="M150.9,40.7h2c1.9,0,3.1,1.2,3.1,3.2c0,1.9-1.2,3.2-3.1,3.2h-2V40.7z M153,46.3c1.4,0,2.3-1,2.3-2.5
				c0-1.5-0.9-2.5-2.3-2.5h-1.2v4.9H153z"/>
		</g>
	</g>
	<g id="MTEXT-5">
		<g class="st17">
			<path class="st18" d="M233.1,2v0.7h-3.3v2h3v0.7h-3v2.2h3.3v0.7h-4.1V2H233.1z"/>
			<path class="st18" d="M239.4,8.4h-0.6l-3.6-5.1v5.1h-0.8V2h0.8l3.4,4.9V2h0.8V8.4z"/>
			<path class="st18" d="M240.5,2h5.3v0.7h-2.2v5.7h-0.8V2.7h-2.2V2z"/>
		</g>
		<g class="st17">
			<path class="st18" d="M247.6,5.7v2.7h-0.8V2h2.4c1.3,0,2.1,0.6,2.1,1.9c0,1.1-0.6,1.7-1.6,1.8l1.9,2.7h-0.9l-1.8-2.7H247.6z
				 M247.6,5h1.5c0.8,0,1.3-0.4,1.3-1.1c0-0.7-0.5-1.1-1.3-1.1h-1.5V5z"/>
		</g>
		<g class="st17">
			<path class="st18" d="M256.4,2h0.9L255,5.8v2.6h-0.8V5.8L251.8,2h0.9l1.8,3L256.4,2z"/>
		</g>
	</g>
	<polygon class="st18" points="243.2,28.4 250.3,16.2 236.2,16.2 236.2,16.2 	"/>
	<g class="st17">
		<path class="st18" d="M391.3,499.8l-2-4.9v4.9h-0.8v-6.4h0.9l2.2,5.2l2.2-5.2h0.9v6.4h-0.8V495l-2,4.9H391.3z"/>
	</g>
	<g class="st17">
		<path class="st18" d="M398.9,493.5l2.5,6.4h-0.8l-0.7-1.9h-2.6l-0.7,1.9h-0.8l2.5-6.4H398.9z M397.4,497.2h2.1l-1-2.7L397.4,497.2
			z"/>
	</g>
	<g class="st17">
		<path class="st18" d="M402.6,498.2c0.2,0.7,0.8,1.1,1.6,1.1c0.8,0,1.4-0.4,1.4-1.1c0-0.5-0.3-0.8-1-1l-1.1-0.3
			c-0.9-0.2-1.5-0.7-1.5-1.6c0-1.1,0.9-1.8,2.1-1.8c1.3,0,2.1,0.7,2.3,1.7h-0.8c-0.2-0.6-0.7-1-1.5-1c-0.8,0-1.3,0.4-1.3,1.1
			c0,0.5,0.4,0.8,1,1l1.1,0.3c1,0.3,1.6,0.8,1.6,1.7c0,1.2-0.9,1.9-2.2,1.9s-2.2-0.6-2.5-1.8H402.6z"/>
	</g>
	<g class="st17">
		<path class="st18" d="M407,493.5h5.3v0.7h-2.2v5.7h-0.8v-5.7H407V493.5z"/>
		<path class="st18" d="M417.4,493.5v0.7h-3.3v2h3v0.7h-3v2.2h3.3v0.7h-4.1v-6.4H417.4z"/>
		<path class="st18" d="M419.5,497.1v2.7h-0.8v-6.4h2.4c1.3,0,2.1,0.6,2.1,1.9c0,1.1-0.6,1.7-1.6,1.8l1.9,2.7h-0.9l-1.8-2.7H419.5z
			 M419.5,496.4h1.5c0.8,0,1.3-0.4,1.3-1.1c0-0.7-0.5-1.1-1.3-1.1h-1.5V496.4z"/>
		<path class="st18" d="M431.2,498c0,1.2-0.8,1.8-2.1,1.8h-2.3v-6.4h2.1c1.3,0,2.1,0.6,2.1,1.7c0,0.8-0.4,1.2-0.9,1.4
			C430.7,496.7,431.2,497.3,431.2,498z M428.9,496.2c0.9,0,1.3-0.3,1.3-1s-0.5-1-1.3-1h-1.3v2.1H428.9z M427.6,499.1h1.5
			c0.9,0,1.3-0.4,1.3-1.1c0-0.7-0.5-1.1-1.3-1.1h-1.5V499.1z"/>
		<path class="st18" d="M436.4,493.5v0.7h-3.3v2h3v0.7h-3v2.2h3.3v0.7h-4.1v-6.4H436.4z"/>
		<path class="st18" d="M437.7,493.5h2c1.9,0,3.1,1.2,3.1,3.2c0,1.9-1.2,3.2-3.1,3.2h-2V493.5z M439.8,499.1c1.4,0,2.3-1,2.3-2.5
			c0-1.5-0.9-2.5-2.3-2.5h-1.2v4.9H439.8z"/>
	</g>
	<g class="st17">
		<path class="st18" d="M444.8,497.1v2.7H444v-6.4h2.4c1.3,0,2.1,0.6,2.1,1.9c0,1.1-0.6,1.7-1.6,1.8l1.9,2.7h-0.9l-1.8-2.7H444.8z
			 M444.8,496.4h1.5c0.8,0,1.3-0.4,1.3-1.1c0-0.7-0.5-1.1-1.3-1.1h-1.5V496.4z"/>
	</g>
	<g class="st17">
		<path class="st18" d="M452.2,499.9c-1.7,0-2.9-1.4-2.9-3.3c0-1.9,1.2-3.3,2.9-3.3c1.7,0,2.9,1.4,2.9,3.3
			C455.1,498.6,453.9,499.9,452.2,499.9z M452.2,494.1c-1.2,0-2.1,1.1-2.1,2.5c0,1.5,0.8,2.5,2.1,2.5c1.2,0,2.1-1.1,2.1-2.5
			C454.3,495.2,453.5,494.1,452.2,494.1z"/>
	</g>
	<g class="st17">
		<path class="st18" d="M458.8,499.9c-1.7,0-2.9-1.4-2.9-3.3c0-1.9,1.2-3.3,2.9-3.3c1.7,0,2.9,1.4,2.9,3.3
			C461.7,498.6,460.5,499.9,458.8,499.9z M458.8,494.1c-1.2,0-2.1,1.1-2.1,2.5c0,1.5,0.8,2.5,2.1,2.5c1.2,0,2.1-1.1,2.1-2.5
			C460.9,495.2,460.1,494.1,458.8,494.1z"/>
		<path class="st18" d="M465.7,499.8l-2-4.9v4.9h-0.8v-6.4h0.9l2.2,5.2l2.2-5.2h0.9v6.4h-0.8V495l-2,4.9H465.7z"/>
	</g>
	<g class="st17">
		<path class="st18" d="M406,511h-0.8v-5.4l-1.6,0.8v-0.8l1.9-1h0.5V511z"/>
	</g>
	<g class="st17">
		<path class="st18" d="M409.2,505.3c-0.8,0-1.2,0.5-1.2,1.3h-0.8c0.1-1.2,0.9-2,2.1-2c1.2,0,1.9,0.7,1.9,1.8c0,0.8-0.6,1.4-1.3,2.2
			l-1.6,1.8h3v0.7h-4.2v-0.5l2.1-2.3c0.7-0.7,1.2-1.3,1.2-1.9C410.3,505.7,409.9,505.3,409.2,505.3z"/>
	</g>
	<g class="st17">
		<path class="st18" d="M412.5,505.6c-0.3,0-0.5-0.2-0.5-0.5c0-0.3,0.2-0.6,0.6-0.6s0.6,0.2,0.6,0.6c0,0.2-0.1,0.4-0.2,0.7l-0.5,0.9
			h-0.5L412.5,505.6z"/>
	</g>
	<g class="st17">
		<path class="st18" d="M413.9,508h2.5v0.7h-2.5V508z"/>
	</g>
	<g class="st17">
		<path class="st18" d="M418.9,505.3c-0.8,0-1.2,0.5-1.2,1.3h-0.8c0.1-1.2,0.9-2,2.1-2c1.2,0,1.9,0.7,1.9,1.8c0,0.8-0.6,1.4-1.3,2.2
			l-1.6,1.8h3v0.7h-4.2v-0.5l2.1-2.3c0.7-0.7,1.2-1.3,1.2-1.9C420.1,505.7,419.6,505.3,418.9,505.3z"/>
	</g>
	<g class="st17">
		<path class="st18" d="M421.7,504.7h0.7v2.3h-0.7V504.7z M422.9,504.7h0.7v2.3h-0.7V504.7z"/>
		<path class="st18" d="M429.1,508.6l1.7,2.4h-0.9l-1.3-1.8l-1.3,1.8h-0.8l1.7-2.4l-1.6-2.3h0.9l1.2,1.7l1.2-1.7h0.9L429.1,508.6z"
			/>
		<path class="st18" d="M436,511h-0.8v-5.4l-1.6,0.8v-0.8l1.9-1h0.5V511z"/>
		<path class="st18" d="M439.4,511h-0.8v-5.4l-1.6,0.8v-0.8l1.9-1h0.5V511z"/>
		<path class="st18" d="M440.6,504.7h0.7v2.3h-0.7V504.7z"/>
	</g>
	<g class="st17">
		<path class="st18" d="M442.1,508h2.5v0.7h-2.5V508z"/>
	</g>
	<g class="st17">
		<path class="st18" d="M447.2,505.3c-0.8,0-1.2,0.5-1.2,1.3h-0.8c0.1-1.2,0.9-2,2.1-2c1.2,0,1.9,0.7,1.9,1.8c0,0.8-0.6,1.4-1.3,2.2
			l-1.6,1.8h3v0.7h-4.2v-0.5l2.1-2.3c0.7-0.7,1.2-1.3,1.2-1.9C448.3,505.7,447.9,505.3,447.2,505.3z"/>
	</g>
	<g class="st17">
		<path class="st18" d="M450,504.7h0.7v2.3H450V504.7z M451.2,504.7h0.7v2.3h-0.7V504.7z"/>
	</g>
	<g class="st17">
		<path class="st18" d="M149.7,456.1v-0.7h2.3v0.4c0,1.7-1.1,2.8-2.6,2.8c-1.7,0-2.9-1.3-2.9-3.3s1.3-3.3,2.9-3.3
			c1.4,0,2.3,0.8,2.5,2h-0.8c-0.3-0.7-0.8-1.2-1.7-1.2c-1.2,0-2.1,1-2.1,2.5c0,1.5,0.8,2.6,2.1,2.6c1.1,0,1.8-0.7,1.9-1.8H149.7z"/>
		<path class="st18" d="M154,455.9v2.7h-0.8v-6.4h2.4c1.3,0,2.1,0.6,2.1,1.9c0,1.1-0.6,1.7-1.6,1.8l1.9,2.7H157l-1.8-2.7H154z
			 M154,455.2h1.5c0.8,0,1.3-0.4,1.3-1.1c0-0.7-0.5-1.1-1.3-1.1H154V455.2z"/>
		<path class="st18" d="M163,452.2v0.7h-3.3v2h3v0.7h-3v2.2h3.3v0.7h-4.1v-6.4H163z"/>
	</g>
	<g class="st17">
		<path class="st18" d="M167,452.2l2.5,6.4h-0.8l-0.7-1.9h-2.6l-0.7,1.9h-0.8l2.5-6.4H167z M165.6,455.9h2.1l-1-2.7L165.6,455.9z"/>
	</g>
	<g class="st17">
		<path class="st18" d="M169.4,452.2h5.3v0.7h-2.2v5.7h-0.8v-5.7h-2.2V452.2z"/>
	</g>
	<g class="st17">
		<path class="st18" d="M178.9,455.9v2.7h-0.8v-6.4h2.4c1.3,0,2.1,0.6,2.1,1.9c0,1.1-0.6,1.7-1.6,1.8l1.9,2.7h-0.9l-1.8-2.7H178.9z
			 M178.9,455.2h1.5c0.8,0,1.3-0.4,1.3-1.1c0-0.7-0.5-1.1-1.3-1.1h-1.5V455.2z"/>
	</g>
	<g class="st17">
		<path class="st18" d="M186.3,458.7c-1.7,0-2.9-1.4-2.9-3.3c0-1.9,1.2-3.3,2.9-3.3c1.7,0,2.9,1.4,2.9,3.3
			C189.2,457.3,188,458.7,186.3,458.7z M186.3,452.8c-1.2,0-2.1,1.1-2.1,2.5c0,1.5,0.8,2.5,2.1,2.5c1.2,0,2.1-1.1,2.1-2.5
			C188.4,453.9,187.5,452.8,186.3,452.8z"/>
	</g>
	<g class="st17">
		<path class="st18" d="M192.9,458.7c-1.7,0-2.9-1.4-2.9-3.3c0-1.9,1.2-3.3,2.9-3.3c1.7,0,2.9,1.4,2.9,3.3
			C195.8,457.3,194.6,458.7,192.9,458.7z M192.9,452.8c-1.2,0-2.1,1.1-2.1,2.5c0,1.5,0.8,2.5,2.1,2.5c1.2,0,2.1-1.1,2.1-2.5
			C195,453.9,194.1,452.8,192.9,452.8z"/>
		<path class="st18" d="M199.7,458.6l-2-4.9v4.9h-0.8v-6.4h0.9l2.2,5.2l2.2-5.2h0.9v6.4h-0.8v-4.9l-2,4.9H199.7z"/>
	</g>
	<g class="st17">
		<path class="st18" d="M152.4,464c-0.8,0-1.2,0.5-1.2,1.3h-0.8c0.1-1.2,0.9-2,2.1-2c1.2,0,1.9,0.7,1.9,1.8c0,0.8-0.6,1.4-1.3,2.2
			l-1.6,1.8h3v0.7h-4.2v-0.5l2.1-2.3c0.7-0.7,1.2-1.3,1.2-1.9C153.5,464.4,153.1,464,152.4,464z"/>
	</g>
	<g class="st17">
		<path class="st18" d="M157.2,464c-0.8,0-1.2,0.5-1.2,1.3h-0.8c0.1-1.2,0.9-2,2.1-2c1.2,0,1.9,0.7,1.9,1.8c0,0.8-0.6,1.4-1.3,2.2
			l-1.6,1.8h3v0.7h-4.2v-0.5l2.1-2.3c0.7-0.7,1.2-1.3,1.2-1.9C158.3,464.4,157.9,464,157.2,464z"/>
	</g>
	<g class="st17">
		<path class="st18" d="M160.5,464.3c-0.3,0-0.5-0.2-0.5-0.5c0-0.3,0.2-0.6,0.6-0.6c0.3,0,0.6,0.2,0.6,0.6c0,0.2-0.1,0.4-0.2,0.7
			l-0.5,0.9h-0.5L160.5,464.3z"/>
		<path class="st18" d="M161.9,466.7h2.5v0.7h-2.5V466.7z"/>
	</g>
	<g class="st17">
		<path class="st18" d="M166.1,468.3c0.2,0.5,0.5,0.9,1.2,0.9c0.9,0,1.6-1.1,1.6-2.4c0-0.1,0-0.2,0-0.3c-0.2,0.6-0.9,1.1-1.6,1.1
			c-1.2,0-2.1-1-2.1-2.1c0-1.2,0.8-2.1,2.1-2.1c0.8,0,1.5,0.4,1.9,1.2c0.3,0.6,0.4,1.2,0.4,2c0,2.1-1,3.4-2.3,3.4
			c-1.1,0-1.7-0.6-2-1.6H166.1z M167.3,464c-0.8,0-1.4,0.6-1.4,1.4c0,0.9,0.6,1.5,1.4,1.5c0.8,0,1.4-0.6,1.4-1.5
			C168.7,464.6,168.1,464,167.3,464z"/>
	</g>
	<g class="st17">
		<path class="st18" d="M170.4,463.4h0.7v2.3h-0.7V463.4z M171.6,463.4h0.7v2.3h-0.7V463.4z"/>
		<path class="st18" d="M177.8,467.4l1.7,2.4h-0.9l-1.3-1.8l-1.3,1.8h-0.8l1.7-2.4l-1.6-2.3h0.9l1.2,1.7l1.2-1.7h0.9L177.8,467.4z"
			/>
		<path class="st18" d="M184.6,469.8h-0.8v-5.4l-1.6,0.8v-0.8l1.9-1h0.5V469.8z"/>
	</g>
	<g class="st17">
		<path class="st18" d="M189.3,464.8c-0.2-0.5-0.5-0.9-1.2-0.9c-0.9,0-1.6,1.1-1.6,2.4c0,0.1,0,0.2,0,0.3c0.2-0.6,0.9-1.1,1.6-1.1
			c1.2,0,2.1,1,2.1,2.1c0,1.2-0.8,2.1-2.1,2.1c-0.8,0-1.5-0.4-1.9-1.2c-0.3-0.6-0.4-1.2-0.4-2c0-2.1,1-3.4,2.3-3.4
			c1.1,0,1.7,0.6,2,1.6H189.3z M188.1,469.1c0.8,0,1.4-0.6,1.4-1.4c0-0.9-0.6-1.5-1.4-1.5c-0.8,0-1.4,0.6-1.4,1.5
			C186.7,468.5,187.3,469.1,188.1,469.1z"/>
	</g>
	<g class="st17">
		<path class="st18" d="M191,463.4h0.7v2.3H191V463.4z"/>
	</g>
	<g class="st17">
		<path class="st18" d="M192.5,466.7h2.5v0.7h-2.5V466.7z"/>
	</g>
	<g class="st17">
		<path class="st18" d="M196.9,469.8H196l2.3-5.7H195v-0.7h4.1v0.6L196.9,469.8z"/>
	</g>
	<g class="st17">
		<path class="st18" d="M200,463.4h0.7v2.3H200V463.4z M201.3,463.4h0.7v2.3h-0.7V463.4z"/>
	</g>
	<g class="st17">
		<path class="st18" d="M77.6,172c0.2,0.7,0.8,1.1,1.6,1.1c0.8,0,1.4-0.4,1.4-1.1c0-0.5-0.3-0.8-1-1l-1.1-0.3
			c-0.9-0.2-1.5-0.7-1.5-1.6c0-1.1,0.9-1.8,2.1-1.8c1.3,0,2.1,0.7,2.3,1.7h-0.8c-0.2-0.6-0.7-1-1.5-1c-0.8,0-1.3,0.4-1.3,1.1
			c0,0.5,0.4,0.8,1,1l1.1,0.3c1,0.3,1.6,0.8,1.6,1.7c0,1.2-0.9,1.9-2.2,1.9s-2.2-0.6-2.5-1.8H77.6z"/>
		<path class="st18" d="M83.4,171.1v2.6h-0.8v-6.4H85c1.3,0,2.1,0.7,2.1,1.9c0,1.2-0.8,1.9-2.1,1.9H83.4z M85,168h-1.6v2.4H85
			c0.9,0,1.3-0.5,1.3-1.2C86.3,168.4,85.8,168,85,168z"/>
	</g>
	<g class="st17">
		<path class="st18" d="M79,185.2c-1.7,0-2.9-1.4-2.9-3.3c0-1.9,1.2-3.3,2.9-3.3c1.7,0,2.9,1.4,2.9,3.3
			C81.9,183.8,80.7,185.2,79,185.2z M79,179.3c-1.2,0-2.1,1.1-2.1,2.5c0,1.5,0.8,2.5,2.1,2.5c1.2,0,2.1-1.1,2.1-2.5
			C81.1,180.4,80.2,179.3,79,179.3z"/>
	</g>
	<g class="st17">
		<path class="st18" d="M84.8,185.1l-2.5-6.4h0.9l2,5.3l2-5.3H88l-2.5,6.4H84.8z"/>
	</g>
	<g class="st17">
		<path class="st18" d="M365.5,142.5l-2-4.9v4.9h-0.8v-6.4h0.9l2.2,5.2l2.2-5.2h0.9v6.4h-0.8v-4.9l-2,4.9H365.5z"/>
	</g>
	<g class="st17">
		<path class="st18" d="M373.1,136.2l2.5,6.4h-0.8l-0.7-1.9h-2.6l-0.7,1.9h-0.8l2.5-6.4H373.1z M371.7,139.9h2.1l-1-2.7L371.7,139.9
			z"/>
	</g>
	<g class="st17">
		<path class="st18" d="M376.9,140.9c0.2,0.7,0.8,1.1,1.6,1.1c0.8,0,1.4-0.4,1.4-1.1c0-0.5-0.3-0.8-1-1l-1.1-0.3
			c-0.9-0.2-1.5-0.7-1.5-1.6c0-1.1,0.9-1.8,2.1-1.8c1.3,0,2.1,0.7,2.3,1.7h-0.8c-0.2-0.6-0.7-1-1.5-1c-0.8,0-1.3,0.4-1.3,1.1
			c0,0.5,0.4,0.8,1,1l1.1,0.3c1,0.3,1.6,0.8,1.6,1.7c0,1.2-0.9,1.9-2.2,1.9s-2.2-0.6-2.5-1.8H376.9z"/>
	</g>
	<g class="st17">
		<path class="st18" d="M381.3,136.2h5.3v0.7h-2.2v5.7h-0.8v-5.7h-2.2V136.2z"/>
		<path class="st18" d="M391.7,136.2v0.7h-3.3v2h3v0.7h-3v2.2h3.3v0.7h-4.1v-6.4H391.7z"/>
		<path class="st18" d="M393.8,139.8v2.7H393v-6.4h2.4c1.3,0,2.1,0.6,2.1,1.9c0,1.1-0.6,1.7-1.6,1.8l1.9,2.7h-0.9l-1.8-2.7H393.8z
			 M393.8,139.1h1.5c0.8,0,1.3-0.4,1.3-1.1c0-0.7-0.5-1.1-1.3-1.1h-1.5V139.1z"/>
	</g>
	<g class="st17">
		<path class="st18" d="M373,151.9c0,1.2-0.8,1.8-2.1,1.8h-2.3v-6.4h2.1c1.3,0,2.1,0.6,2.1,1.7c0,0.8-0.4,1.2-0.9,1.4
			C372.5,150.6,373,151.2,373,151.9z M370.7,150.1c0.9,0,1.3-0.3,1.3-1s-0.5-1-1.3-1h-1.3v2.1H370.7z M369.4,153h1.5
			c0.9,0,1.3-0.4,1.3-1.1c0-0.7-0.5-1.1-1.3-1.1h-1.5V153z"/>
	</g>
	<g class="st17">
		<path class="st18" d="M376.8,147.3l2.5,6.4h-0.8l-0.7-1.9h-2.6l-0.7,1.9h-0.8l2.5-6.4H376.8z M375.3,151.1h2.1l-1-2.7L375.3,151.1
			z"/>
	</g>
	<g class="st17">
		<path class="st18" d="M379.2,147.3h5.3v0.7h-2.2v5.7h-0.8v-5.7h-2.2V147.3z"/>
		<path class="st18" d="M390.8,147.3v6.4H390v-2.9h-3.6v2.9h-0.8v-6.4h0.8v2.7h3.6v-2.7H390.8z"/>
	</g>
</g>
</svg>
