<?xml version="1.0" encoding="utf-8"?>
<!-- Generator: Adobe Illustrator 23.0.0, SVG Export Plug-In . SVG Version: 6.00 Build 0)  -->
<svg version="1.1" id="Layer_1" xmlns="http://www.w3.org/2000/svg" xmlns:xlink="http://www.w3.org/1999/xlink" x="0px" y="0px"
	 viewBox="0 0 805.3 479.6" style="enable-background:new 0 0 805.3 479.6;" xml:space="preserve">
<style type="text/css">
	.st0{fill:none;stroke:#231F20;stroke-width:0.15;stroke-miterlimit:10;}
	.st1{fill:none;stroke:#231F20;stroke-width:0.25;stroke-linecap:round;stroke-linejoin:round;}
	.st2{fill:none;stroke:#231F20;stroke-width:0.35;stroke-linecap:round;stroke-linejoin:round;}
	.st3{fill:#FFFFFF;stroke:#231F20;stroke-width:0.25;stroke-miterlimit:10;}
	.st4{fill:none;stroke:#231F20;stroke-width:0.25;stroke-miterlimit:10;}
	.st5{fill:none;stroke:#000000;stroke-width:0.35;stroke-linecap:round;stroke-linejoin:round;}
	.st6{fill:#FFFFFF;stroke:#000000;stroke-width:0.35;stroke-linecap:round;stroke-linejoin:round;}
	.st7{fill:none;stroke:#231F20;stroke-width:0.35;stroke-miterlimit:10;}
	.st8{fill:#FFFFFF;stroke:#231F20;stroke-width:0.35;stroke-linecap:round;stroke-linejoin:round;}
	.st9{fill:#FFFFFF;stroke:#231F20;stroke-width:0.5;stroke-linecap:round;stroke-linejoin:round;}
	.st10{fill:none;stroke:#231F20;stroke-width:0.5;stroke-linecap:round;stroke-linejoin:round;}
	.st11{fill:none;stroke:#231F20;stroke-width:0.25;stroke-miterlimit:10;stroke-dasharray:2.5;}
	.st12{fill:none;stroke:#000000;stroke-width:0.25;stroke-miterlimit:10;}
	.st13{fill:#FFFFFF;stroke:#000000;stroke-width:0.25;stroke-miterlimit:10;}
	.st14{fill:none;stroke:#29ABE2;stroke-width:0.7;stroke-miterlimit:10;}
	.st15{fill:#D1D3D4;stroke:#000000;stroke-width:0.5;stroke-miterlimit:10;}
	.st16{enable-background:new    ;}
	.st17{fill:#231F20;}
</style>
<title>108Leonard_WEB_D_7-8_v4</title>
<g id="FLOORPATTERN">
	<g id="LINE">
		<line class="st0" x1="417.1" y1="54.1" x2="423.2" y2="47.9"/>
	</g>
	<g id="LINE-2">
		<line class="st0" x1="417.1" y1="65.8" x2="434.9" y2="47.9"/>
	</g>
	<g id="LINE-3">
		<line class="st0" x1="417.1" y1="77.4" x2="446.6" y2="47.9"/>
	</g>
	<g id="LINE-4">
		<line class="st0" x1="417.1" y1="89.1" x2="457.9" y2="48.2"/>
	</g>
	<g id="LINE-5">
		<line class="st0" x1="498.8" y1="89.1" x2="539.7" y2="48.2"/>
	</g>
	<g id="LINE-6">
		<line class="st0" x1="417.1" y1="100.8" x2="457.9" y2="59.9"/>
	</g>
	<g id="LINE-7">
		<line class="st0" x1="417.1" y1="112.4" x2="457.9" y2="71.6"/>
	</g>
	<g id="LINE-8">
		<line class="st0" x1="417.1" y1="124.1" x2="457.9" y2="83.2"/>
	</g>
	<g id="LINE-9">
		<line class="st0" x1="417.1" y1="135.8" x2="457.9" y2="94.9"/>
	</g>
	<g id="LINE-10">
		<line class="st0" x1="417.1" y1="147.4" x2="457.9" y2="106.6"/>
	</g>
	<g id="LINE-11">
		<line class="st0" x1="417.1" y1="159.1" x2="457.9" y2="118.2"/>
	</g>
	<g id="LINE-12">
		<line class="st0" x1="498.8" y1="100.8" x2="539.7" y2="59.9"/>
	</g>
	<g id="LINE-13">
		<line class="st0" x1="498.8" y1="112.4" x2="539.7" y2="71.6"/>
	</g>
	<g id="LINE-14">
		<line class="st0" x1="498.8" y1="124.1" x2="539.7" y2="83.2"/>
	</g>
	<g id="LINE-15">
		<line class="st0" x1="498.8" y1="135.8" x2="539.7" y2="94.9"/>
	</g>
	<g id="LINE-16">
		<line class="st0" x1="498.8" y1="147.4" x2="539.7" y2="106.6"/>
	</g>
	<g id="LINE-17">
		<line class="st0" x1="512.1" y1="145.8" x2="539.7" y2="118.2"/>
	</g>
	<g id="LINE-18">
		<line class="st0" x1="417.1" y1="170.8" x2="457.9" y2="129.9"/>
	</g>
	<g id="LINE-19">
		<line class="st0" x1="417.1" y1="182.4" x2="457.9" y2="141.6"/>
	</g>
	<g id="LINE-20">
		<line class="st0" x1="523.6" y1="146" x2="539.7" y2="129.9"/>
	</g>
	<g id="LINE-21">
		<line class="st0" x1="535.1" y1="146.1" x2="539.7" y2="141.6"/>
	</g>
	<g id="LINE-22">
		<line class="st0" x1="417.1" y1="194.1" x2="457.9" y2="153.2"/>
	</g>
	<g id="LINE-23">
		<line class="st0" x1="417.1" y1="205.8" x2="457.9" y2="164.9"/>
	</g>
	<g id="LINE-24">
		<line class="st0" x1="417.1" y1="217.4" x2="457.9" y2="176.6"/>
	</g>
	<g id="LINE-25">
		<line class="st0" x1="417.1" y1="229.1" x2="457.9" y2="188.2"/>
	</g>
	<g id="LINE-26">
		<line class="st0" x1="417.1" y1="240.8" x2="457.9" y2="199.9"/>
	</g>
	<g id="LINE-27">
		<line class="st0" x1="417.9" y1="251.6" x2="457.9" y2="211.6"/>
	</g>
	<g id="LINE-28">
		<line class="st0" x1="430.5" y1="250.6" x2="457.9" y2="223.2"/>
	</g>
	<g id="LINE-29">
		<line class="st0" x1="438.3" y1="254.5" x2="457.9" y2="234.9"/>
	</g>
	<g id="LINE-30">
		<line class="st0" x1="443.6" y1="260.9" x2="457.9" y2="246.6"/>
	</g>
	<g id="LINE-31">
		<line class="st0" x1="417.1" y1="299.1" x2="423.1" y2="293.1"/>
	</g>
	<g id="LINE-32">
		<line class="st0" x1="445.9" y1="270.3" x2="457.9" y2="258.2"/>
	</g>
	<g id="LINE-33">
		<line class="st0" x1="417.1" y1="310.8" x2="431.8" y2="296"/>
	</g>
	<g id="LINE-34">
		<line class="st0" x1="442.2" y1="285.7" x2="457.9" y2="269.9"/>
	</g>
	<g id="LINE-35">
		<line class="st0" x1="418.9" y1="320.6" x2="457.9" y2="281.6"/>
	</g>
	<g id="LINE-36">
		<line class="st0" x1="425.9" y1="325.2" x2="457.9" y2="293.2"/>
	</g>
	<g id="LINE-37">
		<line class="st0" x1="431.2" y1="331.7" x2="457.9" y2="304.9"/>
	</g>
	<g id="LINE-38">
		<line class="st0" x1="417.1" y1="357.4" x2="425" y2="349.5"/>
	</g>
	<g id="LINE-39">
		<line class="st0" x1="430.4" y1="344.1" x2="457.9" y2="316.6"/>
	</g>
	<g id="LINE-40">
		<line class="st0" x1="417.1" y1="369.1" x2="457.9" y2="328.2"/>
	</g>
	<g id="LINE-41">
		<line class="st0" x1="419.9" y1="377.9" x2="457.9" y2="339.9"/>
	</g>
	<g id="LINE-42">
		<line class="st0" x1="431" y1="378.5" x2="457.9" y2="351.6"/>
	</g>
	<g id="LINE-43">
		<line class="st0" x1="439.4" y1="381.8" x2="457.9" y2="363.2"/>
	</g>
	<g id="LINE-44">
		<line class="st0" x1="438.7" y1="394.1" x2="457.9" y2="374.9"/>
	</g>
	<g id="LINE-45">
		<line class="st0" x1="438" y1="406.5" x2="457.9" y2="386.6"/>
	</g>
	<g id="LINE-46">
		<line class="st0" x1="420.7" y1="435.5" x2="423.9" y2="432.2"/>
	</g>
	<g id="LINE-47">
		<line class="st0" x1="437.3" y1="418.9" x2="457.9" y2="398.2"/>
	</g>
	<g id="LINE-48">
		<line class="st0" x1="431.7" y1="436.1" x2="435" y2="432.9"/>
	</g>
	<g id="LINE-49">
		<line class="st0" x1="436.6" y1="431.3" x2="457.9" y2="409.9"/>
	</g>
	<g id="LINE-50">
		<line class="st0" x1="442.8" y1="436.7" x2="457.9" y2="421.6"/>
	</g>
	<g id="LINE-51">
		<line class="st0" x1="453.8" y1="437.4" x2="457.9" y2="433.2"/>
	</g>
	<g id="LINE-52">
		<line class="st0" x1="253.6" y1="205.8" x2="254.8" y2="204.6"/>
	</g>
	<g id="LINE-53">
		<line class="st0" x1="253.6" y1="217.4" x2="266.4" y2="204.6"/>
	</g>
	<g id="LINE-54">
		<line class="st0" x1="253.6" y1="229.1" x2="278.1" y2="204.6"/>
	</g>
	<g id="LINE-55">
		<line class="st0" x1="253.6" y1="240.8" x2="289.8" y2="204.6"/>
	</g>
	<g id="LINE-56">
		<line class="st0" x1="253.6" y1="252.4" x2="294.4" y2="211.6"/>
	</g>
	<g id="LINE-57">
		<line class="st0" x1="253.6" y1="264.1" x2="294.4" y2="223.2"/>
	</g>
	<g id="LINE-58">
		<line class="st0" x1="253.6" y1="275.8" x2="294.4" y2="234.9"/>
	</g>
	<g id="LINE-59">
		<line class="st0" x1="257" y1="284" x2="294.4" y2="246.6"/>
	</g>
	<g id="LINE-60">
		<line class="st0" x1="276.2" y1="276.4" x2="294.4" y2="258.2"/>
	</g>
	<g id="LINE-61">
		<line class="st0" x1="283.3" y1="281" x2="294.4" y2="269.9"/>
	</g>
	<g id="LINE-62">
		<line class="st0" x1="289.4" y1="286.6" x2="294.4" y2="281.6"/>
	</g>
	<g id="LINE-63">
		<line class="st0" x1="294.4" y1="293.3" x2="294.4" y2="293.2"/>
	</g>
	<g id="LINE-64">
		<line class="st0" x1="288.1" y1="311.2" x2="294.4" y2="304.9"/>
	</g>
	<g id="LINE-65">
		<line class="st0" x1="253.6" y1="357.4" x2="265.1" y2="345.9"/>
	</g>
	<g id="LINE-66">
		<line class="st0" x1="287.4" y1="323.6" x2="294.4" y2="316.6"/>
	</g>
	<g id="LINE-67">
		<line class="st0" x1="253.6" y1="369.1" x2="272" y2="350.7"/>
	</g>
	<g id="LINE-68">
		<line class="st0" x1="292.1" y1="330.5" x2="294.4" y2="328.2"/>
	</g>
	<g id="LINE-69">
		<line class="st0" x1="253.6" y1="380.8" x2="294.4" y2="339.9"/>
	</g>
	<g id="LINE-70">
		<line class="st0" x1="253.6" y1="392.4" x2="294.4" y2="351.6"/>
	</g>
	<g id="LINE-71">
		<line class="st0" x1="253.9" y1="403.8" x2="294.4" y2="363.2"/>
	</g>
	<g id="LINE-72">
		<line class="st0" x1="253.6" y1="415.8" x2="294.4" y2="374.9"/>
	</g>
	<g id="LINE-73">
		<line class="st0" x1="260.7" y1="420.3" x2="294.4" y2="386.6"/>
	</g>
	<g id="LINE-74">
		<line class="st0" x1="271.8" y1="420.9" x2="294.4" y2="398.2"/>
	</g>
	<g id="LINE-75">
		<line class="st0" x1="282.8" y1="421.5" x2="294.4" y2="409.9"/>
	</g>
	<g id="LINE-76">
		<line class="st0" x1="292" y1="424" x2="294.4" y2="421.6"/>
	</g>
	<g id="LINE-77">
		<line class="st0" x1="310.8" y1="204.6" x2="318.2" y2="212"/>
	</g>
	<g id="LINE-78">
		<line class="st0" x1="331.8" y1="225.6" x2="335.3" y2="229.1"/>
	</g>
	<g id="LINE-79">
		<line class="st0" x1="299.1" y1="204.6" x2="318.2" y2="223.7"/>
	</g>
	<g id="LINE-80">
		<line class="st0" x1="320.1" y1="225.6" x2="335.3" y2="240.8"/>
	</g>
	<g id="LINE-81">
		<line class="st0" x1="294.4" y1="211.6" x2="335.3" y2="252.4"/>
	</g>
	<g id="LINE-82">
		<line class="st0" x1="294.4" y1="223.2" x2="335.3" y2="264.1"/>
	</g>
	<g id="LINE-83">
		<line class="st0" x1="294.4" y1="234.9" x2="335.3" y2="275.8"/>
	</g>
	<g id="LINE-84">
		<line class="st0" x1="294.4" y1="246.6" x2="335.3" y2="287.4"/>
	</g>
	<g id="LINE-85">
		<line class="st0" x1="294.4" y1="258.2" x2="335.3" y2="299.1"/>
	</g>
	<g id="LINE-86">
		<line class="st0" x1="294.4" y1="269.9" x2="335.3" y2="310.8"/>
	</g>
	<g id="LINE-87">
		<line class="st0" x1="294.4" y1="281.6" x2="335.3" y2="322.4"/>
	</g>
	<g id="LINE-88">
		<line class="st0" x1="294.4" y1="293.2" x2="335.3" y2="334.1"/>
	</g>
	<g id="LINE-89">
		<line class="st0" x1="294.4" y1="304.9" x2="335.3" y2="345.8"/>
	</g>
	<g id="LINE-90">
		<line class="st0" x1="294.4" y1="316.6" x2="335.3" y2="357.4"/>
	</g>
	<g id="LINE-91">
		<line class="st0" x1="294.4" y1="328.2" x2="335.3" y2="369.1"/>
	</g>
	<g id="LINE-92">
		<line class="st0" x1="294.4" y1="339.9" x2="331.5" y2="377"/>
	</g>
	<g id="LINE-93">
		<line class="st0" x1="294.4" y1="351.6" x2="330.9" y2="388"/>
	</g>
	<g id="LINE-94">
		<line class="st0" x1="294.4" y1="363.2" x2="330.2" y2="399"/>
	</g>
	<g id="LINE-95">
		<line class="st0" x1="294.4" y1="374.9" x2="329.6" y2="410.1"/>
	</g>
	<g id="LINE-96">
		<line class="st0" x1="294.4" y1="386.6" x2="329" y2="421.1"/>
	</g>
	<g id="LINE-97">
		<line class="st0" x1="335" y1="427.1" x2="335.3" y2="427.4"/>
	</g>
	<g id="LINE-98">
		<line class="st0" x1="294.4" y1="398.2" x2="326.2" y2="430"/>
	</g>
	<g id="LINE-99">
		<line class="st0" x1="294.4" y1="409.9" x2="313.9" y2="429.3"/>
	</g>
	<g id="LINE-100">
		<line class="st0" x1="294.4" y1="421.6" x2="301.5" y2="428.6"/>
	</g>
	<g id="LINE-101">
		<line class="st0" x1="410.9" y1="47.9" x2="417.1" y2="54.1"/>
	</g>
	<g id="LINE-102">
		<line class="st0" x1="399.9" y1="48.6" x2="417.1" y2="65.8"/>
	</g>
	<g id="LINE-103">
		<line class="st0" x1="399.9" y1="60.3" x2="417.1" y2="77.4"/>
	</g>
	<g id="LINE-104">
		<line class="st0" x1="399.9" y1="71.9" x2="417.1" y2="89.1"/>
	</g>
	<g id="LINE-105">
		<line class="st0" x1="399.9" y1="83.6" x2="417.1" y2="100.8"/>
	</g>
	<g id="LINE-106">
		<line class="st0" x1="406.8" y1="102.2" x2="417.1" y2="112.4"/>
	</g>
	<g id="LINE-107">
		<line class="st0" x1="406.8" y1="113.8" x2="417.1" y2="124.1"/>
	</g>
	<g id="LINE-108">
		<line class="st0" x1="406.8" y1="125.5" x2="417.1" y2="135.8"/>
	</g>
	<g id="LINE-109">
		<line class="st0" x1="406.9" y1="137.3" x2="417.1" y2="147.4"/>
	</g>
	<g id="LINE-110">
		<line class="st0" x1="406.2" y1="148.3" x2="417.1" y2="159.1"/>
	</g>
	<g id="LINE-111">
		<line class="st0" x1="406.7" y1="160.4" x2="417.1" y2="170.8"/>
	</g>
	<g id="LINE-112">
		<line class="st0" x1="406.7" y1="172" x2="417.1" y2="182.4"/>
	</g>
	<g id="LINE-113">
		<line class="st0" x1="405.1" y1="182.2" x2="417.1" y2="194.1"/>
	</g>
	<g id="LINE-114">
		<line class="st0" x1="404.4" y1="193.1" x2="417.1" y2="205.8"/>
	</g>
	<g id="LINE-115">
		<line class="st0" x1="404.2" y1="204.6" x2="417.1" y2="217.4"/>
	</g>
	<g id="LINE-116">
		<line class="st0" x1="394.4" y1="206.4" x2="417.1" y2="229.1"/>
	</g>
	<g id="LINE-117">
		<line class="st0" x1="394.4" y1="218.1" x2="417.1" y2="240.8"/>
	</g>
	<g id="LINE-118">
		<line class="st0" x1="390.2" y1="225.6" x2="416.8" y2="252.1"/>
	</g>
	<g id="LINE-119">
		<line class="st0" x1="378.5" y1="225.6" x2="410.2" y2="257.3"/>
	</g>
	<g id="LINE-120">
		<line class="st0" x1="376.2" y1="234.9" x2="406.1" y2="264.9"/>
	</g>
	<g id="LINE-121">
		<line class="st0" x1="376.2" y1="246.6" x2="385.8" y2="256.2"/>
	</g>
	<g id="LINE-122">
		<line class="st0" x1="398.5" y1="268.8" x2="403" y2="273.3"/>
	</g>
	<g id="LINE-123">
		<line class="st0" x1="368" y1="250" x2="373.2" y2="255.2"/>
	</g>
	<g id="LINE-124">
		<line class="st0" x1="405" y1="287" x2="417.1" y2="299.1"/>
	</g>
	<g id="LINE-125">
		<line class="st0" x1="376.2" y1="258.2" x2="382.5" y2="264.5"/>
	</g>
	<g id="LINE-126">
		<line class="st0" x1="390.1" y1="272.2" x2="399.8" y2="281.8"/>
	</g>
	<g id="LINE-127">
		<line class="st0" x1="379" y1="272.7" x2="417.1" y2="310.8"/>
	</g>
	<g id="LINE-128">
		<line class="st0" x1="379.2" y1="284.6" x2="412.3" y2="317.7"/>
	</g>
	<g id="LINE-129">
		<line class="st0" x1="376.2" y1="293.2" x2="396.8" y2="313.9"/>
	</g>
	<g id="LINE-130">
		<line class="st0" x1="376.2" y1="304.9" x2="384.2" y2="313"/>
	</g>
	<g id="LINE-131">
		<line class="st0" x1="414.3" y1="354.7" x2="417.1" y2="357.4"/>
	</g>
	<g id="LINE-132">
		<line class="st0" x1="405" y1="357" x2="417.1" y2="369.1"/>
	</g>
	<g id="LINE-133">
		<line class="st0" x1="394.4" y1="358.1" x2="413.9" y2="377.6"/>
	</g>
	<g id="LINE-134">
		<line class="st0" x1="382.3" y1="357.7" x2="401.5" y2="376.9"/>
	</g>
	<g id="LINE-135">
		<line class="st0" x1="376.2" y1="363.2" x2="389.1" y2="376.1"/>
	</g>
	<g id="LINE-136">
		<line class="st0" x1="376.2" y1="374.9" x2="376.7" y2="375.4"/>
	</g>
	<g id="LINE-137">
		<line class="st0" x1="409.4" y1="431.4" x2="413" y2="435"/>
	</g>
	<g id="LINE-138">
		<line class="st0" x1="397" y1="430.7" x2="400.6" y2="434.3"/>
	</g>
	<g id="LINE-139">
		<line class="st0" x1="384.6" y1="430" x2="388.2" y2="433.6"/>
	</g>
	<g id="LINE-140">
		<line class="st0" x1="481" y1="47.9" x2="491.4" y2="58.3"/>
	</g>
	<g id="LINE-141">
		<line class="st0" x1="469.3" y1="47.9" x2="491.4" y2="70"/>
	</g>
	<g id="LINE-142">
		<line class="st0" x1="457.9" y1="48.2" x2="498.8" y2="89.1"/>
	</g>
	<g id="LINE-143">
		<line class="st0" x1="457.9" y1="59.9" x2="498.8" y2="100.8"/>
	</g>
	<g id="LINE-144">
		<line class="st0" x1="457.9" y1="71.6" x2="498.8" y2="112.4"/>
	</g>
	<g id="LINE-145">
		<line class="st0" x1="457.9" y1="83.2" x2="498.8" y2="124.1"/>
	</g>
	<g id="LINE-146">
		<line class="st0" x1="457.9" y1="94.9" x2="498.8" y2="135.8"/>
	</g>
	<g id="LINE-147">
		<line class="st0" x1="457.9" y1="106.6" x2="497.2" y2="145.9"/>
	</g>
	<g id="LINE-148">
		<line class="st0" x1="457.9" y1="118.2" x2="485.5" y2="145.8"/>
	</g>
	<g id="LINE-149">
		<line class="st0" x1="457.9" y1="129.9" x2="475.1" y2="147"/>
	</g>
	<g id="LINE-150">
		<line class="st0" x1="539.7" y1="83.2" x2="542.4" y2="86"/>
	</g>
	<g id="LINE-151">
		<line class="st0" x1="539.7" y1="94.9" x2="542.6" y2="97.7"/>
	</g>
	<g id="LINE-152">
		<line class="st0" x1="539.7" y1="106.6" x2="542.5" y2="109.4"/>
	</g>
	<g id="LINE-153">
		<line class="st0" x1="539.7" y1="118.2" x2="542.6" y2="121.1"/>
	</g>
	<g id="LINE-154">
		<line class="st0" x1="539.7" y1="129.9" x2="542.6" y2="132.8"/>
		<line class="st0" x1="539.7" y1="141.6" x2="542.6" y2="144.4"/>
	</g>
	<g id="LINE-155">
		<line class="st0" x1="457.9" y1="141.6" x2="475.1" y2="158.7"/>
	</g>
	<g id="LINE-156">
		<line class="st0" x1="457.9" y1="153.2" x2="475.1" y2="170.4"/>
	</g>
	<g id="LINE-157">
		<line class="st0" x1="457.9" y1="164.9" x2="475.1" y2="182"/>
	</g>
	<g id="LINE-158">
		<line class="st0" x1="457.9" y1="176.6" x2="470.6" y2="189.2"/>
	</g>
	<g id="LINE-159">
		<line class="st0" x1="485.9" y1="204.6" x2="495.9" y2="214.5"/>
	</g>
	<g id="LINE-160">
		<line class="st0" x1="457.9" y1="188.2" x2="470.6" y2="200.9"/>
	</g>
	<g id="LINE-161">
		<line class="st0" x1="474.3" y1="204.6" x2="495.9" y2="226.2"/>
	</g>
	<g id="LINE-162">
		<line class="st0" x1="457.9" y1="199.9" x2="495.9" y2="237.9"/>
	</g>
	<g id="LINE-163">
		<line class="st0" x1="457.9" y1="211.6" x2="495.9" y2="249.5"/>
	</g>
	<g id="LINE-164">
		<line class="st0" x1="457.9" y1="223.2" x2="495.9" y2="261.2"/>
	</g>
	<g id="LINE-165">
		<line class="st0" x1="457.9" y1="234.9" x2="495.9" y2="272.9"/>
	</g>
	<g id="LINE-166">
		<line class="st0" x1="457.9" y1="246.6" x2="495.9" y2="284.5"/>
	</g>
	<g id="LINE-167">
		<line class="st0" x1="457.9" y1="258.2" x2="495.9" y2="296.2"/>
	</g>
	<g id="LINE-168">
		<line class="st0" x1="457.9" y1="269.9" x2="495.9" y2="307.9"/>
	</g>
	<g id="LINE-169">
		<line class="st0" x1="457.9" y1="281.6" x2="495.9" y2="319.5"/>
	</g>
	<g id="LINE-170">
		<line class="st0" x1="457.9" y1="293.2" x2="495.9" y2="331.2"/>
	</g>
	<g id="LINE-171">
		<line class="st0" x1="457.9" y1="304.9" x2="495.9" y2="342.9"/>
	</g>
	<g id="LINE-172">
		<line class="st0" x1="457.9" y1="316.6" x2="495.9" y2="354.5"/>
	</g>
	<g id="LINE-173">
		<line class="st0" x1="457.9" y1="328.2" x2="495.9" y2="366.2"/>
	</g>
	<g id="LINE-174">
		<line class="st0" x1="457.9" y1="339.9" x2="495.9" y2="377.9"/>
	</g>
	<g id="LINE-175">
		<line class="st0" x1="457.9" y1="351.6" x2="495.9" y2="389.5"/>
	</g>
	<g id="LINE-176">
		<line class="st0" x1="457.9" y1="363.2" x2="495.9" y2="401.2"/>
	</g>
	<g id="LINE-177">
		<line class="st0" x1="457.9" y1="374.9" x2="495.9" y2="412.9"/>
	</g>
	<g id="LINE-178">
		<line class="st0" x1="457.9" y1="386.6" x2="495.9" y2="424.5"/>
	</g>
	<g id="LINE-179">
		<line class="st0" x1="457.9" y1="398.2" x2="493.3" y2="433.6"/>
	</g>
	<g id="LINE-180">
		<line class="st0" x1="457.9" y1="409.9" x2="480.9" y2="432.9"/>
	</g>
	<g id="LINE-181">
		<line class="st0" x1="457.9" y1="421.6" x2="468.5" y2="432.2"/>
	</g>
	<g id="LINE-182">
		<line class="st0" x1="457.9" y1="433.2" x2="462.6" y2="437.9"/>
	</g>
	<g id="LINE-183">
		<line class="st0" x1="177.3" y1="212" x2="184.7" y2="204.6"/>
	</g>
	<g id="LINE-184">
		<line class="st0" x1="177.3" y1="223.7" x2="196.4" y2="204.6"/>
	</g>
	<g id="LINE-185">
		<line class="st0" x1="177.3" y1="235.3" x2="208" y2="204.6"/>
	</g>
	<g id="LINE-186">
		<line class="st0" x1="171.8" y1="252.4" x2="212.7" y2="211.6"/>
	</g>
	<g id="LINE-187">
		<line class="st0" x1="171.8" y1="264.1" x2="212.7" y2="223.2"/>
	</g>
	<g id="LINE-188">
		<line class="st0" x1="171.8" y1="275.8" x2="212.7" y2="234.9"/>
	</g>
	<g id="LINE-189">
		<line class="st0" x1="171.8" y1="287.4" x2="212.7" y2="246.6"/>
	</g>
	<g id="LINE-190">
		<line class="st0" x1="171.8" y1="299.1" x2="212.7" y2="258.2"/>
	</g>
	<g id="LINE-191">
		<line class="st0" x1="176" y1="306.6" x2="212.7" y2="269.9"/>
	</g>
	<g id="LINE-192">
		<line class="st0" x1="177.3" y1="317" x2="212.7" y2="281.6"/>
	</g>
	<g id="LINE-193">
		<line class="st0" x1="180.9" y1="325" x2="212.7" y2="293.2"/>
	</g>
	<g id="LINE-194">
		<line class="st0" x1="187.7" y1="329.9" x2="212.7" y2="304.9"/>
	</g>
	<g id="LINE-195">
		<line class="st0" x1="177.3" y1="352" x2="179.5" y2="349.8"/>
	</g>
	<g id="LINE-196">
		<line class="st0" x1="189.8" y1="339.4" x2="212.7" y2="316.6"/>
	</g>
	<g id="LINE-197">
		<line class="st0" x1="180.1" y1="360.8" x2="212.7" y2="328.2"/>
	</g>
	<g id="LINE-198">
		<line class="st0" x1="187.3" y1="365.3" x2="212.7" y2="339.9"/>
	</g>
	<g id="LINE-199">
		<line class="st0" x1="177.3" y1="387" x2="178.4" y2="385.9"/>
	</g>
	<g id="LINE-200">
		<line class="st0" x1="190" y1="374.3" x2="212.7" y2="351.6"/>
	</g>
	<g id="LINE-201">
		<line class="st0" x1="171.8" y1="404.1" x2="174.9" y2="401.1"/>
	</g>
	<g id="LINE-202">
		<line class="st0" x1="177.3" y1="398.7" x2="212.7" y2="363.2"/>
	</g>
	<g id="LINE-203">
		<line class="st0" x1="171.8" y1="415.8" x2="212.7" y2="374.9"/>
	</g>
	<g id="LINE-204">
		<line class="st0" x1="177.7" y1="421.5" x2="212.7" y2="386.6"/>
	</g>
	<g id="LINE-205">
		<line class="st0" x1="188.8" y1="422.1" x2="212.7" y2="398.2"/>
	</g>
	<g id="LINE-206">
		<line class="st0" x1="205.5" y1="417.1" x2="212.7" y2="409.9"/>
	</g>
	<g id="LINE-207">
		<line class="st0" x1="90.1" y1="252.4" x2="95.9" y2="246.6"/>
	</g>
	<g id="LINE-208">
		<line class="st0" x1="90.1" y1="264.1" x2="107.6" y2="246.6"/>
	</g>
	<g id="LINE-209">
		<line class="st0" x1="90.1" y1="275.8" x2="119.3" y2="246.6"/>
	</g>
	<g id="LINE-210">
		<line class="st0" x1="90.1" y1="287.4" x2="130.9" y2="246.6"/>
	</g>
	<g id="LINE-211">
		<line class="st0" x1="90.1" y1="299.1" x2="130.9" y2="258.2"/>
	</g>
	<g id="LINE-212">
		<line class="st0" x1="90.1" y1="310.8" x2="130.9" y2="269.9"/>
	</g>
	<g id="LINE-213">
		<line class="st0" x1="90.1" y1="322.4" x2="130.9" y2="281.6"/>
	</g>
	<g id="LINE-214">
		<line class="st0" x1="90.1" y1="334.1" x2="117.3" y2="306.9"/>
	</g>
	<g id="LINE-215">
		<line class="st0" x1="117.6" y1="306.6" x2="130.9" y2="293.2"/>
	</g>
	<g id="LINE-216">
		<line class="st0" x1="90.1" y1="345.8" x2="117.3" y2="318.6"/>
	</g>
	<g id="LINE-217">
		<line class="st0" x1="129.3" y1="306.6" x2="130.9" y2="304.9"/>
	</g>
	<g id="LINE-218">
		<line class="st0" x1="90.1" y1="357.4" x2="117.3" y2="330.2"/>
	</g>
	<g id="LINE-219">
		<line class="st0" x1="90.1" y1="369.1" x2="117.3" y2="341.9"/>
	</g>
	<g id="LINE-220">
		<line class="st0" x1="90.1" y1="380.8" x2="117.3" y2="353.6"/>
	</g>
	<g id="LINE-221">
		<line class="st0" x1="90.1" y1="392.4" x2="117.3" y2="365.2"/>
	</g>
	<g id="LINE-222">
		<line class="st0" x1="90.1" y1="404.1" x2="117.3" y2="376.9"/>
	</g>
	<g id="LINE-223">
		<line class="st0" x1="90.1" y1="415.8" x2="117.3" y2="388.6"/>
	</g>
	<g id="LINE-224">
		<line class="st0" x1="100.4" y1="417.1" x2="117.3" y2="400.2"/>
	</g>
	<g id="LINE-225">
		<line class="st0" x1="111.5" y1="417.7" x2="128.1" y2="401.1"/>
	</g>
	<g id="LINE-226">
		<line class="st0" x1="122.5" y1="418.3" x2="130.9" y2="409.9"/>
	</g>
	<g id="LINE-227">
		<line class="st0" x1="23.1" y1="412.6" x2="32.9" y2="402.9"/>
	</g>
	<g id="LINE-228">
		<line class="st0" x1="34.2" y1="413.3" x2="44.5" y2="402.9"/>
	</g>
	<g id="LINE-229">
		<line class="st0" x1="45.2" y1="413.9" x2="49.2" y2="409.9"/>
	</g>
	<g id="LINE-230">
		<line class="st0" x1="84.2" y1="246.6" x2="90.1" y2="252.4"/>
	</g>
	<g id="LINE-231">
		<line class="st0" x1="72.5" y1="246.6" x2="90.1" y2="264.1"/>
	</g>
	<g id="LINE-232">
		<line class="st0" x1="60.9" y1="246.6" x2="90.1" y2="275.8"/>
	</g>
	<g id="LINE-233">
		<line class="st0" x1="57.2" y1="254.6" x2="90.1" y2="287.4"/>
	</g>
	<g id="LINE-234">
		<line class="st0" x1="57.2" y1="266.3" x2="90.1" y2="299.1"/>
	</g>
	<g id="LINE-235">
		<line class="st0" x1="57.2" y1="278" x2="90.1" y2="310.8"/>
	</g>
	<g id="LINE-236">
		<line class="st0" x1="57.2" y1="289.6" x2="90.1" y2="322.4"/>
	</g>
	<g id="LINE-237">
		<line class="st0" x1="57.2" y1="301.3" x2="90.1" y2="334.1"/>
	</g>
	<g id="LINE-238">
		<line class="st0" x1="57.2" y1="313" x2="90.1" y2="345.8"/>
	</g>
	<g id="LINE-239">
		<line class="st0" x1="57.2" y1="324.6" x2="90.1" y2="357.4"/>
	</g>
	<g id="LINE-240">
		<line class="st0" x1="57.2" y1="336.3" x2="90.1" y2="369.1"/>
	</g>
	<g id="LINE-241">
		<line class="st0" x1="57.2" y1="348" x2="90.1" y2="380.8"/>
	</g>
	<g id="LINE-242">
		<line class="st0" x1="57.2" y1="359.6" x2="90.1" y2="392.4"/>
	</g>
	<g id="LINE-243">
		<line class="st0" x1="58.8" y1="372.8" x2="90.1" y2="404.1"/>
	</g>
	<g id="LINE-244">
		<line class="st0" x1="58.8" y1="384.5" x2="90.1" y2="415.8"/>
	</g>
	<g id="LINE-245">
		<line class="st0" x1="58.8" y1="396.1" x2="78.4" y2="415.8"/>
	</g>
	<g id="LINE-246">
		<line class="st0" x1="53.8" y1="402.9" x2="66.1" y2="415.1"/>
	</g>
	<g id="LINE-247">
		<line class="st0" x1="49.2" y1="409.9" x2="53.7" y2="414.4"/>
	</g>
	<g id="LINE-248">
		<line class="st0" x1="165.9" y1="246.6" x2="171.8" y2="252.4"/>
	</g>
	<g id="LINE-249">
		<line class="st0" x1="154.3" y1="246.6" x2="171.8" y2="264.1"/>
	</g>
	<g id="LINE-250">
		<line class="st0" x1="142.8" y1="246.8" x2="171.8" y2="275.8"/>
	</g>
	<g id="LINE-251">
		<line class="st0" x1="130.9" y1="246.6" x2="171.8" y2="287.4"/>
	</g>
	<g id="LINE-252">
		<line class="st0" x1="130.9" y1="258.2" x2="171.8" y2="299.1"/>
	</g>
	<g id="LINE-253">
		<line class="st0" x1="130.9" y1="269.9" x2="167.6" y2="306.6"/>
	</g>
	<g id="LINE-254">
		<line class="st0" x1="130.9" y1="281.6" x2="155.9" y2="306.6"/>
	</g>
	<g id="LINE-255">
		<line class="st0" x1="130.9" y1="293.2" x2="144.3" y2="306.6"/>
	</g>
	<g id="LINE-256">
		<line class="st0" x1="130.9" y1="304.9" x2="132.6" y2="306.6"/>
	</g>
	<g id="LINE-257">
		<line class="st0" x1="168.8" y1="401.1" x2="171.8" y2="404.1"/>
	</g>
	<g id="LINE-258">
		<line class="st0" x1="157.1" y1="401.1" x2="171.8" y2="415.8"/>
	</g>
	<g id="LINE-259">
		<line class="st0" x1="145.4" y1="401.1" x2="165.2" y2="420.8"/>
	</g>
	<g id="LINE-260">
		<line class="st0" x1="133.8" y1="401.1" x2="152.8" y2="420.1"/>
	</g>
	<g id="LINE-261">
		<line class="st0" x1="130.9" y1="409.9" x2="140.4" y2="419.4"/>
	</g>
	<g id="LINE-262">
		<line class="st0" x1="252.4" y1="204.6" x2="253.6" y2="205.8"/>
	</g>
	<g id="LINE-263">
		<line class="st0" x1="240.7" y1="204.6" x2="253.6" y2="217.4"/>
	</g>
	<g id="LINE-264">
		<line class="st0" x1="229" y1="204.6" x2="253.6" y2="229.1"/>
	</g>
	<g id="LINE-265">
		<line class="st0" x1="217.4" y1="204.6" x2="253.6" y2="240.8"/>
	</g>
	<g id="LINE-266">
		<line class="st0" x1="212.7" y1="211.6" x2="253.6" y2="252.4"/>
	</g>
	<g id="LINE-267">
		<line class="st0" x1="212.7" y1="223.2" x2="253.6" y2="264.1"/>
	</g>
	<g id="LINE-268">
		<line class="st0" x1="212.7" y1="234.9" x2="253.6" y2="275.8"/>
	</g>
	<g id="LINE-269">
		<line class="st0" x1="212.7" y1="246.6" x2="250.7" y2="284.6"/>
	</g>
	<g id="LINE-270">
		<line class="st0" x1="212.7" y1="258.2" x2="233.4" y2="278.9"/>
	</g>
	<g id="LINE-271">
		<line class="st0" x1="212.7" y1="269.9" x2="226.9" y2="284.1"/>
	</g>
	<g id="LINE-272">
		<line class="st0" x1="212.7" y1="281.6" x2="221.5" y2="290.4"/>
	</g>
	<g id="LINE-273">
		<line class="st0" x1="212.7" y1="293.2" x2="226.6" y2="307.1"/>
	</g>
	<g id="LINE-274">
		<line class="st0" x1="212.7" y1="304.9" x2="225.5" y2="317.7"/>
	</g>
	<g id="LINE-275">
		<line class="st0" x1="212.7" y1="316.6" x2="224.2" y2="328.1"/>
	</g>
	<g id="LINE-276">
		<line class="st0" x1="244.4" y1="348.2" x2="253.6" y2="357.4"/>
	</g>
	<g id="LINE-277">
		<line class="st0" x1="212.7" y1="328.2" x2="218.4" y2="333.9"/>
	</g>
	<g id="LINE-278">
		<line class="st0" x1="238.5" y1="354.1" x2="253.6" y2="369.1"/>
	</g>
	<g id="LINE-279">
		<line class="st0" x1="212.7" y1="339.9" x2="253.6" y2="380.8"/>
	</g>
	<g id="LINE-280">
		<line class="st0" x1="212.7" y1="351.6" x2="253.6" y2="392.4"/>
	</g>
	<g id="LINE-281">
		<line class="st0" x1="212.7" y1="363.2" x2="244.9" y2="395.5"/>
	</g>
	<g id="LINE-282">
		<line class="st0" x1="212.7" y1="374.9" x2="232.4" y2="394.6"/>
	</g>
	<g id="LINE-283">
		<line class="st0" x1="212.7" y1="386.6" x2="224.2" y2="398.1"/>
	</g>
	<g id="LINE-284">
		<line class="st0" x1="212.7" y1="398.2" x2="223.6" y2="409.1"/>
	</g>
	<g id="LINE-285">
		<line class="st0" x1="212.7" y1="409.9" x2="220.8" y2="418"/>
	</g>
	<g id="LINE-286">
		<line class="st0" x1="558.3" y1="437.3" x2="558.3" y2="79.8"/>
	</g>
	<g id="LINE-287">
		<line class="st0" x1="558.3" y1="114" x2="558.3" y2="79.8"/>
	</g>
	<g id="LINE-288">
		<line class="st0" x1="566.6" y1="443.8" x2="566.6" y2="425.6"/>
	</g>
	<g id="LINE-289">
		<line class="st0" x1="566.6" y1="408.9" x2="566.6" y2="79.8"/>
	</g>
	<g id="LINE-290">
		<line class="st0" x1="574.8" y1="444.3" x2="574.8" y2="434.7"/>
	</g>
	<g id="LINE-291">
		<line class="st0" x1="574.8" y1="399.9" x2="574.8" y2="79.8"/>
	</g>
	<g id="LINE-292">
		<line class="st0" x1="583.1" y1="444.8" x2="583.1" y2="437.3"/>
	</g>
	<g id="LINE-293">
		<line class="st0" x1="583.1" y1="392.2" x2="583.1" y2="79.8"/>
	</g>
	<g id="LINE-294">
		<line class="st0" x1="591.3" y1="445.2" x2="591.3" y2="436.4"/>
	</g>
	<g id="LINE-295">
		<line class="st0" x1="591.3" y1="393.8" x2="591.3" y2="79.8"/>
	</g>
	<g id="LINE-296">
		<line class="st0" x1="599.6" y1="445.7" x2="599.6" y2="431.2"/>
	</g>
	<g id="LINE-297">
		<line class="st0" x1="599.6" y1="401.1" x2="599.6" y2="79.8"/>
	</g>
	<g id="LINE-298">
		<line class="st0" x1="607.8" y1="446.2" x2="607.8" y2="423.7"/>
	</g>
	<g id="LINE-299">
		<line class="st0" x1="607.8" y1="408.5" x2="607.8" y2="79.8"/>
	</g>
	<g id="LINE-300">
		<line class="st0" x1="616.1" y1="446.6" x2="616.1" y2="439.6"/>
	</g>
	<g id="LINE-301">
		<line class="st0" x1="616.1" y1="170.6" x2="616.1" y2="79.8"/>
	</g>
	<g id="LINE-302">
		<line class="st0" x1="616.1" y1="424.9" x2="616.1" y2="232.8"/>
	</g>
	<g id="LINE-303">
		<line class="st0" x1="620.5" y1="218.7" x2="620.5" y2="173.7"/>
	</g>
	<g id="LINE-304">
		<line class="st0" x1="556" y1="72.3" x2="643.2" y2="72.3"/>
	</g>
	<g id="LINE-305">
		<line class="st0" x1="624.3" y1="447.1" x2="624.3" y2="440.7"/>
	</g>
	<g id="LINE-306">
		<line class="st0" x1="624.3" y1="166.7" x2="624.3" y2="79.8"/>
	</g>
	<g id="LINE-307">
		<line class="st0" x1="624.3" y1="423.7" x2="624.3" y2="232.8"/>
	</g>
	<g id="LINE-308">
		<line class="st0" x1="632.6" y1="447.6" x2="632.6" y2="232.8"/>
	</g>
	<g id="LINE-309">
		<line class="st0" x1="632.6" y1="166.7" x2="632.6" y2="79.8"/>
	</g>
	<g id="LINE-310">
		<line class="st0" x1="640.8" y1="448.1" x2="640.8" y2="371.9"/>
	</g>
	<g id="LINE-311">
		<line class="st0" x1="640.8" y1="166.7" x2="640.8" y2="79.8"/>
	</g>
	<g id="LINE-312">
		<line class="st0" x1="640.8" y1="281.9" x2="640.8" y2="232.8"/>
	</g>
	<g id="LINE-313">
		<line class="st0" x1="649.1" y1="448.5" x2="649.1" y2="371.9"/>
	</g>
	<g id="LINE-314">
		<line class="st0" x1="649.1" y1="281.9" x2="649.1" y2="232.8"/>
	</g>
	<g id="LINE-315">
		<line class="st0" x1="657.3" y1="449" x2="657.3" y2="371.9"/>
	</g>
	<g id="LINE-316">
		<line class="st0" x1="657.3" y1="281.9" x2="657.3" y2="232.8"/>
	</g>
	<g id="LINE-317">
		<line class="st0" x1="665.6" y1="449.5" x2="665.6" y2="232.8"/>
	</g>
	<g id="LINE-318">
		<line class="st0" x1="673.8" y1="450" x2="673.8" y2="383.2"/>
	</g>
	<g id="LINE-319">
		<line class="st0" x1="673.8" y1="270.7" x2="673.8" y2="232.8"/>
	</g>
	<g id="LINE-320">
		<line class="st0" x1="682.1" y1="450.4" x2="682.1" y2="383.2"/>
	</g>
	<g id="LINE-321">
		<line class="st0" x1="682.1" y1="270.7" x2="682.1" y2="232.8"/>
	</g>
	<g id="LINE-322">
		<line class="st0" x1="690.3" y1="450.9" x2="690.3" y2="383.2"/>
	</g>
	<g id="LINE-323">
		<line class="st0" x1="690.3" y1="270.7" x2="690.3" y2="232.8"/>
	</g>
	<g id="LINE-324">
		<line class="st0" x1="698.6" y1="451.4" x2="698.6" y2="383.2"/>
	</g>
	<g id="LINE-325">
		<line class="st0" x1="698.6" y1="270.7" x2="698.6" y2="232.8"/>
	</g>
	<g id="LINE-326">
		<line class="st0" x1="706.8" y1="451.9" x2="706.8" y2="383.2"/>
	</g>
	<g id="LINE-327">
		<line class="st0" x1="706.8" y1="270.7" x2="706.8" y2="232.8"/>
	</g>
	<g id="LINE-328">
		<line class="st0" x1="715.1" y1="452.3" x2="715.1" y2="383.2"/>
	</g>
	<g id="LINE-329">
		<line class="st0" x1="715.1" y1="270.7" x2="715.1" y2="232.8"/>
	</g>
	<g id="LINE-330">
		<line class="st0" x1="723.3" y1="452.8" x2="723.3" y2="383.2"/>
	</g>
	<g id="LINE-331">
		<line class="st0" x1="723.3" y1="270.7" x2="723.3" y2="232.8"/>
	</g>
	<g id="LINE-332">
		<line class="st0" x1="731.6" y1="453.3" x2="731.6" y2="383.2"/>
	</g>
	<g id="LINE-333">
		<line class="st0" x1="731.6" y1="270.7" x2="731.6" y2="232.8"/>
	</g>
	<g id="LINE-334">
		<line class="st0" x1="739.8" y1="447.8" x2="739.8" y2="383.2"/>
	</g>
	<g id="LINE-335">
		<line class="st0" x1="739.8" y1="270.7" x2="739.8" y2="232.8"/>
	</g>
	<g id="LINE-336">
		<line class="st0" x1="748.1" y1="448.3" x2="748.1" y2="383.2"/>
	</g>
	<g id="LINE-337">
		<line class="st0" x1="748.1" y1="270.7" x2="748.1" y2="232.8"/>
	</g>
	<g id="LINE-338">
		<line class="st0" x1="756.3" y1="448.7" x2="756.3" y2="383.2"/>
	</g>
	<g id="LINE-339">
		<line class="st0" x1="756.3" y1="270.7" x2="756.3" y2="232.8"/>
	</g>
	<g id="LINE-340">
		<line class="st0" x1="764.6" y1="425.1" x2="764.6" y2="383.2"/>
	</g>
	<g id="LINE-341">
		<line class="st0" x1="764.6" y1="270.7" x2="764.6" y2="232.8"/>
	</g>
	<g id="LINE-342">
		<line class="st0" x1="772.8" y1="425.6" x2="772.8" y2="417.7"/>
	</g>
	<g id="LINE-343">
		<line class="st0" x1="772.8" y1="236.2" x2="772.8" y2="232.8"/>
	</g>
	<g id="LINE-344">
		<line class="st0" x1="772.8" y1="387.7" x2="772.8" y2="383.2"/>
	</g>
	<g id="LINE-345">
		<line class="st0" x1="772.8" y1="270.7" x2="772.8" y2="266.2"/>
	</g>
	<g id="LINE-346">
		<line class="st0" x1="781.1" y1="426.1" x2="781.1" y2="417.7"/>
	</g>
	<g id="LINE-347">
		<line class="st0" x1="781.1" y1="236.2" x2="781.1" y2="232.8"/>
	</g>
	<g id="LINE-348">
		<line class="st0" x1="781.1" y1="387.7" x2="781.1" y2="383.2"/>
	</g>
	<g id="LINE-349">
		<line class="st0" x1="781.1" y1="270.7" x2="781.1" y2="266.2"/>
	</g>
	<g id="LINE-350">
		<line class="st0" x1="789.3" y1="426.7" x2="789.3" y2="417.7"/>
	</g>
	<g id="LINE-351">
		<line class="st0" x1="789.3" y1="236.2" x2="789.3" y2="232.8"/>
	</g>
	<g id="LINE-352">
		<line class="st0" x1="789.3" y1="387.7" x2="789.3" y2="383.2"/>
	</g>
	<g id="LINE-353">
		<line class="st0" x1="789.3" y1="270.7" x2="789.3" y2="266.2"/>
	</g>
	<g id="LINE-354">
		<line class="st0" x1="335.3" y1="229.1" x2="338.9" y2="225.6"/>
	</g>
	<g id="LINE-355">
		<line class="st0" x1="335.3" y1="240.8" x2="350.5" y2="225.6"/>
	</g>
	<g id="LINE-356">
		<line class="st0" x1="335.3" y1="252.4" x2="362.2" y2="225.6"/>
	</g>
	<g id="LINE-357">
		<line class="st0" x1="335.3" y1="264.1" x2="336.7" y2="262.7"/>
	</g>
	<g id="LINE-358">
		<line class="st0" x1="352.6" y1="246.8" x2="373.9" y2="225.6"/>
	</g>
	<g id="LINE-359">
		<line class="st0" x1="335.3" y1="275.8" x2="337.3" y2="273.8"/>
	</g>
	<g id="LINE-360">
		<line class="st0" x1="363.4" y1="247.6" x2="376.2" y2="234.9"/>
	</g>
	<g id="LINE-361">
		<line class="st0" x1="335.3" y1="287.4" x2="339.1" y2="283.6"/>
	</g>
	<g id="LINE-362">
		<line class="st0" x1="370.6" y1="252.1" x2="376.2" y2="246.6"/>
	</g>
	<g id="LINE-363">
		<line class="st0" x1="335.3" y1="299.1" x2="341.6" y2="292.8"/>
	</g>
	<g id="LINE-364">
		<line class="st0" x1="375.3" y1="259.1" x2="376.2" y2="258.2"/>
	</g>
	<g id="LINE-365">
		<line class="st0" x1="335.3" y1="310.8" x2="356.4" y2="289.7"/>
	</g>
	<g id="LINE-366">
		<line class="st0" x1="335.3" y1="322.4" x2="371.4" y2="286.4"/>
	</g>
	<g id="LINE-367">
		<line class="st0" x1="335.3" y1="334.1" x2="376.2" y2="293.2"/>
	</g>
	<g id="LINE-368">
		<line class="st0" x1="335.3" y1="345.8" x2="343.4" y2="337.7"/>
	</g>
	<g id="LINE-369">
		<line class="st0" x1="366.2" y1="314.9" x2="376.2" y2="304.9"/>
	</g>
	<g id="LINE-370">
		<line class="st0" x1="335.3" y1="357.4" x2="348" y2="344.7"/>
	</g>
	<g id="LINE-371">
		<line class="st0" x1="335.3" y1="369.1" x2="354.8" y2="349.6"/>
	</g>
	<g id="LINE-372">
		<line class="st0" x1="342.6" y1="373.5" x2="362.8" y2="353.3"/>
	</g>
	<g id="LINE-373">
		<line class="st0" x1="353.6" y1="374.1" x2="371.8" y2="356"/>
	</g>
	<g id="LINE-374">
		<line class="st0" x1="364.7" y1="374.7" x2="376.2" y2="363.2"/>
	</g>
	<g id="LINE-375">
		<line class="st0" x1="375.7" y1="375.4" x2="376.2" y2="374.9"/>
	</g>
	<g id="LINE-376">
		<line class="st0" x1="335.3" y1="427.4" x2="335.6" y2="427.1"/>
	</g>
	<g id="LINE-377">
		<line class="st0" x1="343.4" y1="431" x2="346.6" y2="427.8"/>
	</g>
	<g id="LINE-378">
		<line class="st0" x1="354.4" y1="431.6" x2="357.7" y2="428.4"/>
	</g>
	<g id="LINE-379">
		<line class="st0" x1="365.5" y1="432.3" x2="368.7" y2="429"/>
	</g>
	<g id="LWPOLYLINE">
		<line class="st0" x1="659.6" y1="147.3" x2="659.6" y2="96.3"/>
	</g>
	<g id="LWPOLYLINE-2">
		<line class="st0" x1="647.6" y1="96.3" x2="647.6" y2="147.3"/>
	</g>
	<g id="LWPOLYLINE-3">
		<line class="st0" x1="406.8" y1="177.6" x2="406.8" y2="92.9"/>
	</g>
	<g id="LWPOLYLINE-4">
		<line class="st0" x1="387.9" y1="148" x2="387.9" y2="92.9"/>
	</g>
	<g id="LWPOLYLINE-5">
		<line class="st0" x1="405.9" y1="47.9" x2="468.6" y2="47.9"/>
	</g>
	<g id="LWPOLYLINE-6">
		<line class="st0" x1="472.7" y1="38.9" x2="405.9" y2="38.9"/>
	</g>
	<g id="LWPOLYLINE-7">
		<line class="st0" x1="485.6" y1="153.3" x2="533.6" y2="153.3"/>
	</g>
	<g id="LWPOLYLINE-8">
		<line class="st0" x1="533.6" y1="146.1" x2="485.6" y2="145.8"/>
	</g>
	<g id="LWPOLYLINE-9">
		<line class="st0" x1="542.6" y1="136.8" x2="542.6" y2="84.3"/>
	</g>
	<g id="LWPOLYLINE-10">
		<line class="st0" x1="550.1" y1="136.8" x2="550.1" y2="84.3"/>
	</g>
	<g id="LWPOLYLINE-11">
		<line class="st0" x1="542.6" y1="391.8" x2="542.6" y2="289.8"/>
	</g>
	<g id="LWPOLYLINE-12">
		<line class="st0" x1="550.1" y1="289.8" x2="550.1" y2="391.8"/>
	</g>
	<g id="LWPOLYLINE-13">
		<line class="st0" x1="417.1" y1="435.2" x2="417.1" y2="431.8"/>
	</g>
	<g id="LWPOLYLINE-14">
		<line class="st0" x1="417.1" y1="377.7" x2="417.1" y2="353.7"/>
	</g>
	<g id="LWPOLYLINE-15">
		<line class="st0" x1="417.1" y1="319.7" x2="417.1" y2="291.1"/>
	</g>
	<g id="LWPOLYLINE-16">
		<line class="st0" x1="417.1" y1="252" x2="417.1" y2="47.9"/>
	</g>
	<g id="LWPOLYLINE-17">
		<line class="st0" x1="376.2" y1="432.9" x2="376.2" y2="429.5"/>
	</g>
	<g id="LWPOLYLINE-18">
		<line class="st0" x1="376.2" y1="375.4" x2="376.2" y2="356.9"/>
	</g>
	<g id="LWPOLYLINE-19">
		<line class="st0" x1="376.2" y1="313.3" x2="376.2" y2="285.3"/>
	</g>
	<g id="LWPOLYLINE-20">
		<line class="st0" x1="376.2" y1="262.1" x2="376.2" y2="225.6"/>
	</g>
	<g id="LWPOLYLINE-21">
		<line class="st0" x1="335.3" y1="430.5" x2="335.3" y2="427.1"/>
	</g>
	<g id="LWPOLYLINE-22">
		<line class="st0" x1="335.3" y1="373" x2="335.3" y2="225.6"/>
	</g>
	<g id="LWPOLYLINE-23">
		<line class="st0" x1="294.4" y1="428" x2="294.4" y2="204.6"/>
	</g>
	<g id="LWPOLYLINE-24">
		<line class="st0" x1="253.6" y1="419.9" x2="253.6" y2="409.3"/>
	</g>
	<g id="LWPOLYLINE-25">
		<line class="st0" x1="253.6" y1="396" x2="253.6" y2="346.8"/>
	</g>
	<g id="LWPOLYLINE-26">
		<line class="st0" x1="253.6" y1="284.2" x2="253.6" y2="204.6"/>
	</g>
	<g id="LWPOLYLINE-27">
		<line class="st0" x1="212.7" y1="417.5" x2="212.7" y2="204.6"/>
	</g>
	<g id="LWPOLYLINE-28">
		<line class="st0" x1="171.8" y1="421.2" x2="171.8" y2="401.1"/>
	</g>
	<g id="LWPOLYLINE-29">
		<line class="st0" x1="171.8" y1="306.6" x2="171.8" y2="246.6"/>
	</g>
	<g id="LWPOLYLINE-30">
		<line class="st0" x1="130.9" y1="418.8" x2="130.9" y2="401.1"/>
	</g>
	<g id="LWPOLYLINE-31">
		<line class="st0" x1="130.9" y1="306.6" x2="130.9" y2="246.6"/>
	</g>
	<g id="LWPOLYLINE-32">
		<line class="st0" x1="90.1" y1="416.5" x2="90.1" y2="246.6"/>
	</g>
	<g id="LWPOLYLINE-33">
		<line class="st0" x1="49.2" y1="414.1" x2="49.2" y2="402.9"/>
	</g>
	<g id="LWPOLYLINE-34">
		<line class="st0" x1="457.9" y1="437.6" x2="457.9" y2="47.9"/>
	</g>
	<g id="LWPOLYLINE-35">
		<line class="st0" x1="498.8" y1="145.9" x2="498.8" y2="79.8"/>
	</g>
	<g id="LWPOLYLINE-36">
		<line class="st0" x1="539.7" y1="146.1" x2="539.7" y2="79.8"/>
	</g>
</g>
<g id="BATH_FIXTURES">
	<g id="LINE-380">
		<line class="st1" x1="787.1" y1="90.3" x2="787.1" y2="189.3"/>
	</g>
	<g id="LWPOLYLINE-37">
		<path class="st1" d="M371.2,51.4l0.4-0.2c0.7-0.3,1.1-1.1,1-1.8c-0.1-1.6-0.2-3.3-0.4-4.9c-0.1-0.6-0.6-1.1-1.2-1.1h-20.2
			c-0.6,0-1.1,0.5-1.1,1.1c-0.1,1.6-0.3,3.3-0.4,4.9c-0.1,0.7,0.3,1.5,1,1.8l0.4,0.2"/>
	</g>
	<g id="LWPOLYLINE-38">
		<path class="st1" d="M371.1,51.4c-6.4,3-13.8,3-20.2,0.1"/>
	</g>
	<g id="LWPOLYLINE-39">
		<path class="st1" d="M350.7,51.4c-0.2,5.9-0.3,11.8-0.3,17.8c0,3,0.6,5.9,1.8,8.7c0.9,2.1,2.2,3.9,3.9,5.3c2.8,2.4,7,2.4,9.8,0
			c1.7-1.5,3-3.3,3.9-5.3c1.2-2.7,1.8-5.7,1.8-8.7c0-5.9-0.1-11.8-0.3-17.8"/>
	</g>
	<g id="ELLIPSE">
		<path class="st2" d="M343,158.8c0-6.6,8.1-12,18-12s18,5.4,18,12s-8.1,12-18,12S343,165.5,343,158.8z"/>
	</g>
	<g id="LINE-381">
		<line class="st2" x1="752.6" y1="90.3" x2="752.6" y2="189.3"/>
	</g>
	<g id="LWPOLYLINE-40">
		<path class="st1" d="M668.1,191l-0.2-0.4c-0.3-0.7-1.1-1.1-1.8-1c-1.6,0.1-3.3,0.2-4.9,0.4c-0.6,0.1-1.1,0.6-1.1,1.2v20.2
			c0,0.6,0.5,1.1,1.1,1.2c1.6,0.1,3.3,0.3,4.9,0.4c0.7,0.1,1.5-0.3,1.8-1l0.2-0.4"/>
	</g>
	<g id="LWPOLYLINE-41">
		<path class="st1" d="M668.1,191c3,6.4,3,13.8,0.1,20.2"/>
	</g>
	<g id="LWPOLYLINE-42">
		<path class="st1" d="M668.1,211.4c5.9,0.2,11.8,0.3,17.8,0.3c3,0,5.9-0.6,8.6-1.8c2.1-0.9,3.9-2.2,5.3-3.9c2.4-2.8,2.4-7,0-9.8
			c-1.5-1.7-3.3-3-5.3-3.9c-2.7-1.2-5.7-1.8-8.6-1.8c-5.9,0-11.9,0.1-17.8,0.3"/>
	</g>
	<g id="ELLIPSE-2">
		<path class="st3" d="M752.5,62.2h-6.5c-0.1,0.8-0.3,1.4-0.5,1.4l-5.3,0.3l0,0c-0.2,0-0.3-1-0.3-2.3s0.2-2.2,0.3-2.2l0,0l5.3,0.3
			c0.2,0,0.4,0.6,0.5,1.4h6.5"/>
	</g>
	<g id="LWPOLYLINE-43">
		<path class="st3" d="M752.6,48.6h-3.5v-2.2c-0.1-0.6-0.6-1.1-1.3-1c-0.6,0.1-1,0.5-1,1v3c0,0.6,0.5,1.2,1.2,1.2l0,0
			c0.3,0,0.6-0.1,0.8-0.3h3.9"/>
	</g>
	<path class="st4" d="M752.5,71h-1.1v1.3h-1.1c-0.3,0-0.6,0.3-0.6,0.6v0.3h-1.3c-0.3,0-0.5,0.2-0.5,0.5c0,0,0,0,0,0
		c0,0.3,0.2,0.6,0.5,0.6c0,0,0,0,0,0h1.3v0.3c0,0.3,0.3,0.6,0.6,0.6h1.1v1.3h1.1"/>
	<g id="LWPOLYLINE-44">
		<polyline class="st5" points="787.1,189.6 793.2,189.6 793.2,90.3 787.1,90.3 787.1,90.3 		"/>
	</g>
	<g id="LWPOLYLINE-45">
		<line class="st5" x1="793.2" y1="137.5" x2="787.1" y2="137.5"/>
	</g>
	<g id="LWPOLYLINE-46">
		<rect x="787.1" y="95.8" class="st6" width="1.3" height="41.6"/>
	</g>
	<g id="LWPOLYLINE-47">
		<polyline class="st6" points="787.1,143.7 787.1,143.1 793.2,143.1 		"/>
	</g>
	<g id="LWPOLYLINE-48">
		<line class="st5" x1="787.1" y1="184" x2="793.2" y2="184"/>
	</g>
	<g id="LWPOLYLINE-49">
		<line class="st5" x1="787.1" y1="95.8" x2="793.2" y2="95.8"/>
	</g>
	<g id="LWPOLYLINE-50">
		<rect x="787.1" y="143.1" class="st6" width="1.3" height="41"/>
	</g>
</g>
<g id="BATH_GLAZING">
	<g id="LWPOLYLINE-51">
		<rect x="678" y="86.3" class="st1" width="74.6" height="1.8"/>
	</g>
	<g id="LINE-382">
		<line class="st1" x1="752.6" y1="88" x2="659.6" y2="88"/>
	</g>
	<g id="LINE-383">
		<line class="st1" x1="752.6" y1="86.3" x2="659.6" y2="86.3"/>
	</g>
</g>
<g id="RODS">
	<g id="LINE-384">
		<line class="st7" x1="525.3" y1="270.6" x2="525.3" y2="407.5"/>
	</g>
	<g id="LINE-385">
		<line class="st7" x1="522.3" y1="270.6" x2="522.3" y2="407.5"/>
	</g>
	<g id="LINE-386">
		<line class="st7" x1="647.6" y1="54.3" x2="554.9" y2="54.3"/>
	</g>
	<g id="LINE-387">
		<line class="st7" x1="647.6" y1="51.3" x2="554.9" y2="51.3"/>
	</g>
</g>
<g id="HANGERS">
	<g id="LINE-388">
		<line class="st4" x1="510.4" y1="368.6" x2="537.3" y2="368.6"/>
	</g>
	<g id="LINE-389">
		<line class="st4" x1="510.4" y1="346.7" x2="537.3" y2="336.4"/>
	</g>
	<g id="LINE-390">
		<line class="st4" x1="510.4" y1="340.9" x2="537.3" y2="330.6"/>
	</g>
	<g id="LINE-391">
		<line class="st4" x1="510.4" y1="353.1" x2="537.3" y2="353.1"/>
	</g>
	<g id="LINE-392">
		<line class="st4" x1="510.4" y1="349.3" x2="537.3" y2="349.3"/>
	</g>
	<g id="LINE-393">
		<line class="st4" x1="510.4" y1="372.5" x2="537.3" y2="372.5"/>
	</g>
	<g id="LINE-394">
		<line class="st4" x1="510.4" y1="364.7" x2="537.3" y2="364.7"/>
	</g>
	<g id="LINE-395">
		<line class="st4" x1="510.4" y1="360.9" x2="537.3" y2="360.9"/>
	</g>
	<g id="LINE-396">
		<line class="st4" x1="510.4" y1="357" x2="537.3" y2="357"/>
	</g>
	<g id="LINE-397">
		<line class="st4" x1="576.9" y1="39.3" x2="576.9" y2="66.3"/>
	</g>
	<g id="LINE-398">
		<line class="st4" x1="598.9" y1="39.3" x2="609.2" y2="66.3"/>
	</g>
	<g id="LINE-399">
		<line class="st4" x1="604.6" y1="39.3" x2="614.9" y2="66.3"/>
	</g>
	<g id="LINE-400">
		<line class="st4" x1="592.4" y1="39.3" x2="592.4" y2="66.3"/>
	</g>
	<g id="LINE-401">
		<line class="st4" x1="596.3" y1="39.3" x2="596.3" y2="66.3"/>
	</g>
	<g id="LINE-402">
		<line class="st4" x1="573" y1="39.3" x2="573" y2="66.3"/>
	</g>
	<g id="LINE-403">
		<line class="st4" x1="580.8" y1="39.3" x2="580.8" y2="66.3"/>
	</g>
	<g id="LINE-404">
		<line class="st4" x1="584.7" y1="39.3" x2="584.7" y2="66.3"/>
	</g>
	<g id="LINE-405">
		<line class="st4" x1="588.5" y1="39.3" x2="588.5" y2="66.3"/>
	</g>
</g>
<g id="FURNITURE">
	<g id="ARC">
		<path class="st8" d="M273.7,352.4c8.8-4.2,15.9-11.4,20.1-20.1"/>
	</g>
	<g id="LWPOLYLINE-52">
		<path class="st8" d="M283.4,321.8l12.7,12.7c-4.4,8.7-11.5,15.7-20.2,20.1l-12.7-12.7L283.4,321.8z"/>
	</g>
	<g id="LWPOLYLINE-53">
		
			<rect x="357.1" y="348.9" transform="matrix(5.738980e-02 -0.9984 0.9984 5.738980e-02 -40.1654 763.2543)" class="st8" width="54" height="108"/>
	</g>
	<g id="ARC-2">
		<path class="st8" d="M293.9,298.7c-4.2-8.8-11.4-15.9-20.1-20.1"/>
	</g>
	<g id="LWPOLYLINE-54">
		<path class="st8" d="M263.2,289l12.7-12.7c8.7,4.4,15.7,11.5,20.1,20.2l-12.7,12.7L263.2,289z"/>
	</g>
	<g id="LWPOLYLINE-55">
		
			<rect x="357.1" y="348.9" transform="matrix(5.738980e-02 -0.9984 0.9984 5.738980e-02 -40.1654 763.2543)" class="st8" width="54" height="108"/>
	</g>
	<g id="ARC-3">
		<path class="st8" d="M240.2,278.5c-8.8,4.2-15.9,11.3-20.2,20.1"/>
	</g>
	<g id="LWPOLYLINE-56">
		<path class="st8" d="M230.5,309.2l-12.7-12.7c4.4-8.7,11.5-15.7,20.1-20.2l12.8,12.7L230.5,309.2z"/>
	</g>
	<g id="ARC-4">
		<path class="st8" d="M220,332.3c4.3,8.8,11.4,15.9,20.2,20.1"/>
	</g>
	<g id="LWPOLYLINE-57">
		<path class="st8" d="M250.7,341.9l-12.8,12.7c-8.7-4.4-15.7-11.5-20.1-20.1l12.7-12.7L250.7,341.9z"/>
	</g>
	<g id="CIRCLE">
		<path class="st8" d="M225.4,315.5c0-17.4,14.1-31.5,31.5-31.5s31.5,14.1,31.5,31.5S274.3,347,256.9,347S225.4,332.9,225.4,315.5
			L225.4,315.5z"/>
	</g>
	<g id="ELLIPSE-3">
		<path class="st8" d="M432.6,337.9c0.6-12.4-19-23.5-43.8-24.8s-45.5,7.7-46.1,20.1s19,23.5,43.8,24.8S431.9,350.3,432.6,337.9z"/>
	</g>
	<g id="LWPOLYLINE-58">
		<path class="st8" d="M790,383.2H673.7c-2.2-0.3-3.8-2.2-3.7-4.3V274.7c-0.1-2.1,1.6-4,3.7-4c0,0,0,0,0,0h116.4"/>
	</g>
	<g id="CIRCLE-2">
		<path class="st8" d="M400.2,264.9c-0.9,4.9-5.6,8.1-10.5,7.2c-4.9-0.9-8.1-5.6-7.2-10.5c0.9-4.9,5.6-8.1,10.5-7.2
			C397.9,255.3,401.1,260.1,400.2,264.9C400.2,264.9,400.2,264.9,400.2,264.9z"/>
	</g>
	<g id="LINE-406">
		<line class="st2" x1="428" y1="423.5" x2="430.6" y2="378.5"/>
	</g>
	<g id="LINE-407">
		<line class="st2" x1="428" y1="423.5" x2="338.1" y2="418.3"/>
	</g>
	<g id="LINE-408">
		<line class="st2" x1="428.2" y1="419" x2="338.4" y2="413.8"/>
	</g>
	<g id="LINE-409">
		<line class="st2" x1="338.1" y1="418.3" x2="340.7" y2="373.4"/>
	</g>
	<g id="LWPOLYLINE-59">
		<rect x="766.8" y="236.2" class="st8" width="24" height="30"/>
	</g>
	<g id="LINE-410">
		<line class="st2" x1="385.6" y1="375.9" x2="383.1" y2="420.9"/>
	</g>
	<g id="LWPOLYLINE-60">
		<rect x="318.2" y="204.6" class="st8" width="76.2" height="21"/>
	</g>
	<g id="LWPOLYLINE-61">
		<rect x="766.8" y="387.7" class="st8" width="24" height="30"/>
	</g>
	<g id="CIRCLE-3">
		<path class="st8" d="M372.2,215.1c0-5,4-9,9-9s9,4,9,9s-4,9-9,9S372.2,220.1,372.2,215.1z"/>
	</g>
	<g id="LINE-411">
		<line class="st2" x1="381.2" y1="224.1" x2="381.2" y2="206.1"/>
	</g>
	<g id="LWPOLYLINE-62">
		<line class="st2" x1="372.2" y1="214.7" x2="390.2" y2="214.7"/>
	</g>
	<g id="CIRCLE-4">
		<path class="st8" d="M630.1,433.9c-0.9,4.9-5.6,8.1-10.5,7.2s-8.1-5.6-7.2-10.5c0.9-4.9,5.6-8.1,10.5-7.2
			C627.8,424.3,631,429,630.1,433.9C630.1,433.9,630.1,433.9,630.1,433.9z"/>
	</g>
	<g id="LINE-412">
		<line class="st2" x1="746.5" y1="270.7" x2="746.5" y2="383.2"/>
	</g>
	<g id="CIRCLE-5">
		<path class="st8" d="M771.1,402.7c0-4.1,3.4-7.5,7.5-7.5s7.5,3.4,7.5,7.5s-3.4,7.5-7.5,7.5l0,0
			C774.5,410.2,771.1,406.9,771.1,402.7z"/>
	</g>
	<g id="LINE-413">
		<line class="st2" x1="771.1" y1="402.7" x2="786.1" y2="402.7"/>
	</g>
	<g id="LINE-414">
		<line class="st2" x1="778.8" y1="410.2" x2="778.8" y2="395.3"/>
	</g>
	<g id="CIRCLE-6">
		<path class="st8" d="M771.1,251.1c0-4.1,3.4-7.5,7.5-7.5s7.5,3.4,7.5,7.5s-3.4,7.5-7.5,7.5C774.5,258.6,771.1,255.3,771.1,251.1
			C771.1,251.2,771.1,251.1,771.1,251.1L771.1,251.1z"/>
	</g>
	<g id="LINE-415">
		<line class="st2" x1="771.1" y1="251.2" x2="786.1" y2="251.2"/>
	</g>
	<g id="LINE-416">
		<line class="st2" x1="778.8" y1="243.6" x2="778.8" y2="258.6"/>
	</g>
	<g id="LWPOLYLINE-63">
		<polyline class="st8" points="764.5,328.3 787,328.3 787,380.8 764.5,380.8 		"/>
	</g>
	<g id="LWPOLYLINE-64">
		<polyline class="st8" points="764.5,325.6 787,325.6 787,273.1 764.5,273.1 		"/>
	</g>
	<g id="LWPOLYLINE-65">
		<rect x="790" y="270.7" class="st8" width="6" height="112.5"/>
	</g>
	<g id="LINE-417">
		<line class="st2" x1="764.5" y1="270.7" x2="764.5" y2="383.2"/>
	</g>
	<g id="LWPOLYLINE-66">
		<path class="st8" d="M638.3,281.9h24c0.8,0,1.5,0.7,1.5,1.5v87c0,0.8-0.7,1.5-1.5,1.5h-24c-0.8,0-1.5-0.7-1.5-1.5v-87
			C636.8,282.6,637.5,281.9,638.3,281.9z"/>
	</g>
	<g id="LWPOLYLINE-67">
		<path class="st8" d="M336.8,270.9c-2.3-10.9,4.7-21.6,15.6-23.9c10.7-2.3,21.3,4.4,23.8,15.1l5.4,20.4v0c0.2,0.8-0.3,1.6-1.1,1.8
			c0,0,0,0,0,0l-38,8.5h0c-0.8,0.1-1.6-0.4-1.7-1.2L336.8,270.9z"/>
	</g>
	<g id="LWPOLYLINE-68">
		<path class="st8" d="M370.4,263.5l1.7,6.7c1.3,2.9,4.2,4.7,7.4,4.6l-3.6-13.8c-3.1-10.7-14.3-16.9-25-13.8
			c-9.8,2.8-15.9,12.5-14.3,22.6l2.6,14c2.9-1.3,4.8-4.1,4.7-7.3l-1.3-6.8c-1.7-7.6,3.1-15.2,10.8-17
			C361.1,251,368.7,255.9,370.4,263.5z"/>
	</g>
	<g id="LWPOLYLINE-69">
		<path class="st8" d="M444.9,276.5c3.6-10.6-2.1-22-12.7-25.6c-10.6-3.6-22,2.1-25.6,12.7l0,0l-7.4,19.8c-0.3,0.8,0.1,1.6,0.9,1.9
			h0l36.9,12.4c0.8,0.3,1.6-0.2,1.9-0.9c0,0,0,0,0,0v0L444.9,276.5z"/>
	</g>
	<g id="LWPOLYLINE-70">
		<path class="st8" d="M412.2,265.7l-2.4,6.5c-1.6,2.7-4.7,4.2-7.8,3.8l5-13.4c4.2-10.3,16-15.3,26.3-11.1
			c9.4,3.8,14.5,14.1,11.9,23.9l-4.1,13.7c-2.8-1.5-4.4-4.6-4-7.8l2-6.6c2.3-7.5-1.8-15.4-9.3-17.8
			C422.6,254.6,414.8,258.5,412.2,265.7L412.2,265.7z"/>
	</g>
	<g id="LWPOLYLINE-71">
		<path class="st8" d="M599,431.7c-8,7.8-20.7,7.7-28.6-0.2c-7.8-8-7.7-20.7,0.2-28.6l14.5-15.3l0,0c0.6-0.6,1.5-0.6,2.1,0
			l27.3,27.7l0,0c0.6,0.6,0.5,1.5-0.1,2.1c0,0,0,0,0,0L599,431.7z"/>
	</g>
	<g id="LWPOLYLINE-72">
		<path class="st8" d="M575,407.1l4.7-5c1.8-2.6,1.8-6.1,0-8.7l-9.8,10.4c-7.4,8.3-6.7,21.1,1.7,28.5c7.6,6.7,18.9,6.8,26.6,0.2
			l10.5-9.6c-2.6-1.8-6-1.9-8.7-0.2l-5.1,4.6c-5.6,5.5-14.6,5.4-20.1-0.2S569.4,412.6,575,407.1L575,407.1L575,407.1z"/>
	</g>
	<g id="ARC-5">
		<path class="st8" d="M177.3,350c7,0,12.8-5.7,12.8-12.8s-5.7-12.8-12.8-12.8"/>
	</g>
	<g id="ARC-6">
		<path class="st8" d="M177.3,360.5c7,0,12.8,5.7,12.8,12.8s-5.7,12.8-12.8,12.8"/>
	</g>
</g>
<g id="KITCHEN">
	<g id="LWPOLYLINE-73">
		<rect x="117.3" y="306.6" class="st9" width="60" height="94.5"/>
	</g>
	<g id="LWPOLYLINE-74">
		<polyline class="st10" points="177.3,204.6 177.3,246.6 57.2,246.6 57.2,402.9 15.2,402.9 		"/>
	</g>
</g>
<g id="APPLIANCES">
	<g id="LINE-418">
		<polyline class="st3" points="58.7,365.8 57.3,365.8 57.3,368 58.7,368 		"/>
	</g>
	<rect x="57.3" y="398.2" class="st3" width="1.4" height="2.2"/>
	<rect x="58.7" y="364.5" class="st3" width="1.5" height="37.7"/>
	<g id="LINE-419">
		<line class="st1" x1="129.3" y1="246.6" x2="129.3" y2="204.6"/>
	</g>
	<g id="LINE-420">
		<line class="st1" x1="117.3" y1="330.3" x2="117.3" y2="330.3"/>
	</g>
	<g id="LINE-421">
		<line class="st1" x1="117.3" y1="322.7" x2="117.3" y2="322.7"/>
	</g>
	<g id="LINE-422">
		<line class="st11" x1="150.9" y1="344.1" x2="117.3" y2="344.1"/>
	</g>
	<g id="LINE-423">
		<line class="st11" x1="151" y1="308.8" x2="117.3" y2="308.8"/>
	</g>
	<g id="LINE-424">
		<line class="st11" x1="151" y1="308.8" x2="150.9" y2="344.1"/>
	</g>
	<g id="LINE-425">
		<line class="st1" x1="117.3" y1="384.9" x2="117.3" y2="384.9"/>
	</g>
	<g id="LINE-426">
		<line class="st1" x1="117.3" y1="377.4" x2="117.3" y2="377.4"/>
	</g>
	<g id="LINE-427">
		<polyline class="st11" points="117.3,363.5 151,363.5 151,398.8 117.3,398.8 		"/>
	</g>
	<g id="LWPOLYLINE-75">
		<rect x="491.9" y="157.1" class="st1" width="35.3" height="33.8"/>
	</g>
	<g id="LWPOLYLINE-76">
		<polyline class="st1" points="498.1,157.1 498.1,156 521,156 521,157.1 		"/>
	</g>
	<line class="st4" x1="57.2" y1="363.5" x2="15.2" y2="363.5"/>
	<g id="LINE-428">
		<polyline class="st3" points="170.8,247.9 170.8,246.6 168.5,246.6 168.5,247.9 		"/>
	</g>
	<rect x="136.1" y="246.6" class="st3" width="2.2" height="1.4"/>
	<rect x="134.4" y="248" class="st3" width="37.7" height="1.5"/>
	<path class="st4" d="M80.7,223.3c-1.3,0-2.4-1.1-2.4-2.4s1.1-2.4,2.4-2.4c1.3,0,2.4,1.1,2.4,2.4c0,0,0,0,0,0
		C83,222.3,82,223.3,80.7,223.3z"/>
	<path class="st4" d="M98.4,223.3c-1.3,0-2.4-1.1-2.4-2.4s1.1-2.4,2.4-2.4c1.3,0,2.4,1.1,2.4,2.4c0,0,0,0,0,0
		C100.7,222.3,99.7,223.3,98.4,223.3C98.4,223.3,98.4,223.3,98.4,223.3z"/>
	<path class="st4" d="M80.7,238.6c-1.3,0-2.4-1.1-2.4-2.4c0-1.3,1.1-2.4,2.4-2.4s2.4,1.1,2.4,2.4S82,238.6,80.7,238.6L80.7,238.6z"
		/>
	<path class="st4" d="M98.4,238.6c-1.3,0-2.4-1.1-2.4-2.4c0-1.3,1.1-2.4,2.4-2.4s2.4,1.1,2.4,2.4C100.7,237.6,99.7,238.6,98.4,238.6
		C98.4,238.6,98.4,238.6,98.4,238.6z"/>
	<line class="st4" x1="89.4" y1="243.9" x2="71.9" y2="228.6"/>
	<g id="LINE-429">
		<line class="st4" x1="89.4" y1="244.6" x2="89.4" y2="212.5"/>
	</g>
	<rect x="71.9" y="213.3" class="st4" width="35.3" height="30.6"/>
	<line class="st4" x1="71.9" y1="228.6" x2="107.3" y2="228.6"/>
	<g id="CIRCLE-7">
		<path class="st4" d="M110.7,226.8c0-0.8,0.6-1.4,1.4-1.4c0.8,0,1.4,0.6,1.4,1.4c0,0.8-0.6,1.4-1.4,1.4c0,0,0,0,0,0
			C111.3,228.2,110.7,227.5,110.7,226.8z"/>
	</g>
	<g id="CIRCLE-8">
		<path class="st4" d="M110.7,231.4c0-0.8,0.6-1.4,1.4-1.4c0.8,0,1.4,0.6,1.4,1.4c0,0.8-0.6,1.4-1.4,1.4c0,0,0,0,0,0
			C111.3,232.8,110.7,232.1,110.7,231.4C110.7,231.4,110.7,231.4,110.7,231.4z"/>
	</g>
	<g id="CIRCLE-9">
		<path class="st4" d="M110.7,236c0-0.8,0.6-1.4,1.4-1.4c0.8,0,1.4,0.6,1.4,1.4c0,0.8-0.6,1.4-1.4,1.4c0,0,0,0,0,0
			C111.3,237.4,110.7,236.8,110.7,236z"/>
	</g>
	<g id="CIRCLE-10">
		<path class="st4" d="M110.7,240.4c0-0.8,0.6-1.4,1.4-1.4c0.8,0,1.4,0.6,1.4,1.4c0,0.8-0.6,1.4-1.4,1.4c0,0,0,0,0,0
			C111.3,241.8,110.7,241.2,110.7,240.4C110.7,240.4,110.7,240.4,110.7,240.4z"/>
	</g>
	<rect x="70.7" y="212.5" class="st4" width="45" height="32.1"/>
	<line class="st4" x1="71.9" y1="243.9" x2="89.4" y2="228.6"/>
	<line class="st4" x1="107.3" y1="213.3" x2="89.4" y2="228.6"/>
	<line class="st4" x1="89.4" y1="213.3" x2="107.3" y2="228.6"/>
	<line class="st4" x1="71.9" y1="213.3" x2="89.4" y2="228.6"/>
	<line class="st4" x1="71.9" y1="228.6" x2="89.4" y2="213.3"/>
	<line class="st4" x1="107.3" y1="243.9" x2="89.4" y2="228.6"/>
	<line class="st4" x1="107.3" y1="228.6" x2="89.4" y2="243.9"/>
</g>
<g id="SINKS">
	<g id="LWPOLYLINE-77">
		<rect x="23.7" y="344.1" class="st12" width="3" height="1.7"/>
	</g>
	<g id="LWPOLYLINE-78">
		<polyline class="st12" points="26.5,345.8 26.5,346.2 23.9,346.2 23.9,345.8 		"/>
	</g>
	<g id="LWPOLYLINE-79">
		<polyline class="st12" points="23.9,344.1 23.9,343.6 26.5,343.6 26.5,344.1 		"/>
	</g>
	<g id="LINE-430">
		<line class="st12" x1="26.4" y1="344.1" x2="26.4" y2="345.8"/>
	</g>
	<g id="CIRCLE-11">
		<path class="st12" d="M24.1,332.9c0-0.6,0.5-1.1,1.1-1.1c0.6,0,1.1,0.5,1.1,1.1c0,0.6-0.5,1.1-1.1,1.1c0,0,0,0,0,0
			C24.6,334.1,24.1,333.6,24.1,332.9z"/>
	</g>
	<g id="LWPOLYLINE-80">
		<polyline class="st12" points="26.5,339.7 26.5,340.2 23.9,340.2 23.9,337.6 26.5,337.6 26.5,338.2 		"/>
	</g>
	<g id="LWPOLYLINE-81">
		<polyline class="st12" points="26.5,333.2 26.5,334.2 23.9,334.2 23.9,331.6 26.5,331.6 26.5,332.7 		"/>
	</g>
	<g id="LWPOLYLINE-82">
		<polyline class="st12" points="26.3,333.2 28.1,333.2 28.1,332.7 26.3,332.7 		"/>
	</g>
	<rect x="23.1" y="320.9" class="st12" width="4.3" height="4.3"/>
	<g id="LWPOLYLINE-83">
		<rect x="24.5" y="338.2" class="st12" width="13.5" height="1.5"/>
	</g>
	<g id="LWPOLYLINE-84">
		<polyline class="st12" points="28.2,339.7 28.2,361.4 53.7,361.4 53.7,316.4 28.2,316.4 28.2,338.2 		"/>
	</g>
	<rect x="24.7" y="323.2" class="st12" width="12.2" height="1.7"/>
	<rect x="24.9" y="321.6" class="st12" width="0.8" height="1.2"/>
	<line class="st12" x1="24.7" y1="321.3" x2="25.8" y2="321.3"/>
	<g id="LWPOLYLINE-85">
		<polyline class="st12" points="779.1,113.9 779.1,113.4 782.3,113.4 782.3,116.6 779.1,116.6 779.1,116.2 		"/>
	</g>
	<g id="LWPOLYLINE-86">
		<polyline class="st12" points="779.1,120.4 779.1,119.4 782.3,119.4 782.3,122.6 779.1,122.6 779.1,121.6 		"/>
	</g>
	<g id="ARC-7">
		<path class="st12" d="M779.8,121.6c0.3,0.5,1,0.7,1.5,0.3c0.5-0.4,0.6-1.1,0.3-1.6c-0.3-0.5-1-0.6-1.5-0.3
			c-0.1,0.1-0.3,0.2-0.3,0.4"/>
	</g>
	<g id="LWPOLYLINE-87">
		<rect x="776.8" y="120.4" class="st12" width="4.1" height="1.2"/>
	</g>
	<g id="LWPOLYLINE-88">
		<polyline class="st12" points="779.1,163.4 779.1,162.9 782.3,162.9 782.3,166.1 779.1,166.1 779.1,165.6 		"/>
	</g>
	<g id="LWPOLYLINE-89">
		<polyline class="st12" points="779.1,169.9 779.1,168.9 782.3,168.9 782.3,172.1 779.1,172.1 779.1,171.1 		"/>
	</g>
	<g id="ARC-8">
		<path class="st12" d="M779.8,171.1c0.3,0.5,1,0.7,1.5,0.4c0.5-0.4,0.6-1.1,0.3-1.6c-0.3-0.5-1-0.6-1.5-0.3
			c-0.1,0.1-0.3,0.2-0.3,0.4"/>
	</g>
	<g id="LWPOLYLINE-90">
		<rect x="776.8" y="169.9" class="st12" width="4.1" height="1.2"/>
	</g>
	<g id="LWPOLYLINE-91">
		<path class="st12" d="M776.2,115v14c0,0.3-0.3,0.6-0.6,0.6l0,0h-17.9c-0.3,0-0.6-0.3-0.6-0.6c0,0,0,0,0,0v-28
			c0-0.3,0.3-0.6,0.6-0.6l0,0h17.9c0.3,0,0.6,0.3,0.6,0.6l0,0V115z"/>
	</g>
	<g id="LWPOLYLINE-92">
		<path class="st12" d="M776.2,164.5v14c0,0.3-0.3,0.6-0.6,0.6l0,0h-17.9c-0.3,0-0.6-0.3-0.6-0.6c0,0,0,0,0,0v-28
			c0-0.3,0.3-0.6,0.6-0.6l0,0h17.9c0.3,0,0.6,0.3,0.6,0.6c0,0,0,0,0,0V164.5z"/>
	</g>
	<g id="LWPOLYLINE-93">
		<polyline class="st13" points="366.7,173.1 366.7,169.3 364.1,169.3 364.1,173.1 		"/>
	</g>
	<g id="LWPOLYLINE-94">
		<polyline class="st13" points="355.1,173.1 355.1,169.3 357.7,169.3 357.7,173.1 		"/>
	</g>
	<g id="LINE-431">
		<polyline class="st13" points="360.4,173.1 360.4,161.1 361.4,161.1 361.4,173.2 		"/>
	</g>
	<g id="ELLIPSE-4">
		<path class="st12" d="M347.9,158.8c0-5,5.9-9,13.1-9s13.1,4,13.1,9s-5.9,9-13.1,9S347.9,163.8,347.9,158.8z"/>
	</g>
	<g id="LWPOLYLINE-95">
		<rect x="363.5" y="173.1" class="st1" width="3.8" height="0.4"/>
	</g>
	<g id="LWPOLYLINE-96">
		<rect x="359" y="173.1" class="st1" width="3.8" height="0.4"/>
	</g>
	<g id="LWPOLYLINE-97">
		<rect x="354.5" y="173.1" class="st1" width="3.8" height="0.4"/>
	</g>
	<g id="LWPOLYLINE-98">
		<rect x="768.9" y="113.9" class="st13" width="12" height="2.2"/>
	</g>
	<g id="LWPOLYLINE-99">
		<rect x="768.9" y="163.4" class="st13" width="12" height="2.2"/>
	</g>
</g>
<g id="SILLS">
	<g id="LINE-432">
		<line class="st4" x1="18.6" y1="434.1" x2="756.3" y2="476.5"/>
	</g>
	<line class="st7" x1="20.8" y1="412.2" x2="741.7" y2="453.7"/>
</g>
<g id="WINDOW_GLAZING">
	<line class="st14" x1="27.6" y1="425.5" x2="87.3" y2="429.1"/>
	<line class="st14" x1="87.2" y1="430.7" x2="27.5" y2="427.1"/>
	<line class="st14" x1="126.4" y1="431.4" x2="186.1" y2="435"/>
	<line class="st14" x1="186" y1="436.6" x2="126.3" y2="433"/>
	<line class="st14" x1="298.8" y1="441.3" x2="358.5" y2="444.9"/>
	<line class="st14" x1="358.4" y1="446.5" x2="298.7" y2="442.9"/>
	<line class="st14" x1="397.4" y1="447" x2="457.1" y2="450.6"/>
	<line class="st14" x1="457" y1="452.2" x2="397.3" y2="448.6"/>
	<line class="st14" x1="569.4" y1="456.9" x2="629.2" y2="460.5"/>
	<line class="st14" x1="629.1" y1="462.1" x2="569.3" y2="458.5"/>
	<line class="st14" x1="668.7" y1="462.6" x2="728.4" y2="466.2"/>
	<line class="st14" x1="728.3" y1="467.7" x2="668.6" y2="464.1"/>
</g>
<g id="MULLIONS">
	<g id="LWPOLYLINE-100">
		
			<rect x="88.8" y="428.5" transform="matrix(5.738980e-02 -0.9984 0.9984 5.738980e-02 -341.7892 498.4827)" class="st7" width="8.6" height="3.6"/>
	</g>
	<g id="LWPOLYLINE-101">
		
			<rect x="17.5" y="424.4" transform="matrix(5.738980e-02 -0.9984 0.9984 5.738980e-02 -404.923 423.441)" class="st7" width="8.6" height="3.6"/>
	</g>
	<g id="LWPOLYLINE-102">
		
			<rect x="88" y="428.1" transform="matrix(5.738980e-02 -0.9984 0.9984 5.738980e-02 -345.0965 494.5533)" class="st7" width="2.6" height="3.9"/>
	</g>
	<g id="LWPOLYLINE-103">
		
			<rect x="24.2" y="424.4" transform="matrix(5.738980e-02 -0.9984 0.9984 5.738980e-02 -401.6156 427.3704)" class="st7" width="2.6" height="3.9"/>
	</g>
	<g id="LINE-433">
		<line class="st7" x1="23.3" y1="430.5" x2="91.1" y2="434.4"/>
	</g>
	<g id="LINE-434">
		<line class="st7" x1="91.6" y1="425.8" x2="23.8" y2="421.9"/>
	</g>
	<g id="LWPOLYLINE-104">
		
			<rect x="187.6" y="434.3" transform="matrix(5.738980e-02 -0.9984 0.9984 5.738980e-02 -254.5101 602.6837)" class="st7" width="8.6" height="3.6"/>
	</g>
	<g id="LWPOLYLINE-105">
		
			<rect x="116.3" y="430.3" transform="matrix(5.738980e-02 -0.9984 0.9984 5.738980e-02 -317.6621 527.6215)" class="st7" width="8.6" height="3.6"/>
	</g>
	<g id="LWPOLYLINE-106">
		
			<rect x="186.9" y="433.9" transform="matrix(5.738980e-02 -0.9984 0.9984 5.738980e-02 -257.8269 598.7443)" class="st7" width="2.6" height="3.9"/>
	</g>
	<g id="LWPOLYLINE-107">
		
			<rect x="123" y="430.3" transform="matrix(5.738980e-02 -0.9984 0.9984 5.738980e-02 -314.3459 531.5614)" class="st7" width="2.6" height="3.9"/>
	</g>
	<g id="LINE-435">
		<line class="st7" x1="122.1" y1="436.4" x2="189.9" y2="440.3"/>
	</g>
	<g id="LINE-436">
		<line class="st7" x1="190.4" y1="431.7" x2="122.6" y2="427.8"/>
	</g>
	<g id="LWPOLYLINE-108">
		
			<rect x="360" y="444.2" transform="matrix(5.738980e-02 -0.9984 0.9984 5.738980e-02 -101.8828 784.1412)" class="st7" width="8.6" height="3.6"/>
	</g>
	<g id="LWPOLYLINE-109">
		
			<rect x="288.7" y="440.1" transform="matrix(5.738980e-02 -0.9984 0.9984 5.738980e-02 -165.0249 709.0696)" class="st7" width="8.6" height="3.6"/>
	</g>
	<g id="LWPOLYLINE-110">
		
			<rect x="359.2" y="443.8" transform="matrix(5.738980e-02 -0.9984 0.9984 5.738980e-02 -105.2085 780.1913)" class="st7" width="2.6" height="3.9"/>
	</g>
	<g id="LWPOLYLINE-111">
		
			<rect x="295.4" y="440.2" transform="matrix(5.738980e-02 -0.9984 0.9984 5.738980e-02 -161.6982 713.0006)" class="st7" width="2.6" height="3.9"/>
	</g>
	<g id="LINE-437">
		<line class="st7" x1="294.5" y1="446.3" x2="362.3" y2="450.2"/>
	</g>
	<g id="LINE-438">
		<line class="st7" x1="362.8" y1="441.6" x2="295" y2="437.7"/>
	</g>
	<g id="LWPOLYLINE-112">
		
			<rect x="458.6" y="449.9" transform="matrix(5.738980e-02 -0.9984 0.9984 5.738980e-02 -14.6312 887.9095)" class="st7" width="8.6" height="3.6"/>
	</g>
	<g id="LWPOLYLINE-113">
		
			<rect x="387.3" y="445.8" transform="matrix(5.738980e-02 -0.9984 0.9984 5.738980e-02 -77.7733 812.8378)" class="st7" width="8.6" height="3.6"/>
	</g>
	<g id="LWPOLYLINE-114">
		
			<rect x="457.8" y="449.5" transform="matrix(5.738980e-02 -0.9984 0.9984 5.738980e-02 -17.9574 883.959)" class="st7" width="2.6" height="3.9"/>
	</g>
	<g id="LWPOLYLINE-115">
		
			<rect x="394" y="445.8" transform="matrix(5.738980e-02 -0.9984 0.9984 5.738980e-02 -74.457 816.7777)" class="st7" width="2.6" height="3.9"/>
	</g>
	<g id="LINE-439">
		<line class="st7" x1="393.1" y1="452" x2="460.9" y2="455.9"/>
	</g>
	<g id="LINE-440">
		<line class="st7" x1="461.4" y1="447.3" x2="393.6" y2="443.4"/>
	</g>
	<g id="LWPOLYLINE-116">
		
			<rect x="630.6" y="459.8" transform="matrix(5.738980e-02 -0.9984 0.9984 5.738980e-02 137.6578 1069.0065)" class="st7" width="8.6" height="3.6"/>
	</g>
	<g id="LWPOLYLINE-117">
		
			<rect x="559.3" y="455.7" transform="matrix(5.738980e-02 -0.9984 0.9984 5.738980e-02 74.5246 993.9452)" class="st7" width="8.6" height="3.6"/>
	</g>
	<g id="LWPOLYLINE-118">
		
			<rect x="629.9" y="459.4" transform="matrix(5.738980e-02 -0.9984 0.9984 5.738980e-02 134.3604 1065.0675)" class="st7" width="2.6" height="3.9"/>
	</g>
	<g id="LWPOLYLINE-119">
		
			<rect x="566.1" y="455.7" transform="matrix(5.738980e-02 -0.9984 0.9984 5.738980e-02 77.8519 997.8758)" class="st7" width="2.6" height="3.9"/>
	</g>
	<g id="LINE-441">
		<line class="st7" x1="565.1" y1="461.9" x2="632.9" y2="465.8"/>
	</g>
	<g id="LINE-442">
		<line class="st7" x1="633.4" y1="457.2" x2="565.6" y2="453.3"/>
	</g>
	<g id="LWPOLYLINE-120">
		
			<rect x="729.9" y="465.5" transform="matrix(5.738980e-02 -0.9984 0.9984 5.738980e-02 225.5882 1173.476)" class="st7" width="8.6" height="3.6"/>
	</g>
	<g id="LWPOLYLINE-121">
		
			<rect x="658.6" y="461.4" transform="matrix(5.738980e-02 -0.9984 0.9984 5.738980e-02 162.4462 1098.4042)" class="st7" width="8.6" height="3.6"/>
	</g>
	<g id="LWPOLYLINE-122">
		
			<rect x="729.2" y="465.1" transform="matrix(5.738980e-02 -0.9984 0.9984 5.738980e-02 222.261 1169.5453)" class="st7" width="2.6" height="3.9"/>
	</g>
	<g id="LWPOLYLINE-123">
		
			<rect x="665.3" y="461.4" transform="matrix(5.738980e-02 -0.9984 0.9984 5.738980e-02 165.7718 1102.3541)" class="st7" width="2.6" height="3.9"/>
	</g>
	<g id="LINE-443">
		<line class="st7" x1="664.4" y1="467.6" x2="732.2" y2="471.5"/>
	</g>
	<g id="LINE-444">
		<line class="st7" x1="732.7" y1="462.9" x2="664.9" y2="459"/>
	</g>
</g>
<g id="DOOR_SWING">
	<g id="ARC-9">
		<path class="st1" d="M550.1,136.8c13.3,0,26.1-5.1,35.8-14.1"/>
	</g>
</g>
<g id="DOOR_SWING_MAIN">
	<g id="ARC-10">
		<path class="st10" d="M452.8,84.3c9.6-10,14.9-23.4,14.9-37.3"/>
	</g>
</g>
<g id="DOORS">
	<g id="LINE-445">
		<line class="st10" x1="650.2" y1="120.8" x2="652.8" y2="120.8"/>
	</g>
	<g id="LINE-446">
		<line class="st10" x1="652.8" y1="120.8" x2="652.8" y2="69.8"/>
	</g>
	<g id="LINE-447">
		<line class="st10" x1="652.9" y1="69.8" x2="650.3" y2="69.8"/>
	</g>
	<g id="LINE-448">
		<line class="st10" x1="650.2" y1="69.8" x2="650.2" y2="120.8"/>
	</g>
	<g id="LINE-449">
		<line class="st10" x1="655.7" y1="44.5" x2="651.5" y2="44.5"/>
	</g>
	<g id="LWPOLYLINE-124">
		<polygon class="st9" points="548.5,85.9 550.1,84.3 585.9,122.6 584.3,124.2 		"/>
	</g>
	<g id="LWPOLYLINE-125">
		
			<rect x="431.7" y="39.1" transform="matrix(0.7071 -0.7071 0.7071 0.7071 80.0093 325.392)" class="st9" width="2.2" height="54"/>
	</g>
	<g id="LWPOLYLINE-126">
		<polygon class="st9" points="547.8,289.9 550.1,289.8 550.1,340.8 547.8,340.9 		"/>
	</g>
	<g id="LWPOLYLINE-127">
		<polygon class="st9" points="613.1,172.8 615.3,172.7 615.4,223.7 613.1,223.8 		"/>
	</g>
	<g id="LWPOLYLINE-128">
		<polygon class="st9" points="535,146 535.1,148.3 484.1,148.1 484,145.8 		"/>
	</g>
	<g id="LWPOLYLINE-129">
		<polygon class="st9" points="547.8,341 550.1,340.9 550.1,391.9 547.8,392 		"/>
	</g>
	<g id="LWPOLYLINE-130">
		<polygon class="st9" points="558.9,79.7 558.8,77.5 640.2,77.4 640.3,79.7 		"/>
	</g>
	<g id="LINE-450">
		<line class="st10" x1="397.1" y1="121.3" x2="399.8" y2="121.3"/>
	</g>
	<g id="LINE-451">
		<line class="st10" x1="399.8" y1="121.3" x2="399.8" y2="173.5"/>
	</g>
	<g id="LINE-452">
		<line class="st10" x1="399.8" y1="173.5" x2="397.1" y2="173.5"/>
	</g>
	<g id="LINE-453">
		<line class="st10" x1="397.1" y1="173.5" x2="397.1" y2="121.3"/>
	</g>
	<line class="st10" x1="599.4" y1="77.4" x2="599.4" y2="79.7"/>
</g>
<g id="WALLS">
	<g id="LWPOLYLINE-131">
		<polygon class="st15" points="193.1,444.1 290.5,449.7 290.7,446.1 290.9,404.3 252.6,403.4 252.5,396.7 222.6,396 222.7,401.8 
			193.1,401.1 193.4,440.5 		"/>
	</g>
	<g id="LWPOLYLINE-132">
		<polygon class="st15" points="553.9,464.9 553.9,464.9 561.5,465.3 561.8,461.7 563.1,437.6 550.1,436.9 550.1,391.8 542.6,391.8 
			542.6,406 503.6,406 503.6,270.3 542.6,270.3 542.6,289.8 550.1,289.8 550.1,136.8 542.6,136.8 542.6,146.1 533.6,146.1 
			533.6,153.3 536.6,153.3 536.6,196.8 482.6,196.8 482.6,153.3 485.6,153.3 485.6,145.8 475.1,145.8 475.1,182.1 470.6,182.1 
			470.6,204.6 495.9,204.6 495.9,433.7 465.8,432 464.4,456.1 464.2,459.7 		"/>
	</g>
	<g id="LWPOLYLINE-133">
		<polyline class="st15" points="736.8,447.6 735.2,475.3 805.1,479.3 805.1,24.3 790.2,24.3 782.6,24.3 721.1,24.3 489.9,24.3 
			489.9,38.9 466.9,38.9 466.9,47.9 491.4,47.9 491.4,79.8 542.6,79.8 542.6,84.3 550.1,84.3 550.1,79.8 559.1,79.8 559.1,72.3 
			554.6,72.3 554.6,33.3 642.7,33.3 642.7,72.3 640.1,72.3 640.1,79.8 642.7,79.8 642.7,96.3 649.5,96.3 649.5,44.5 653.6,44.5 
			653.6,96.3 659.6,96.3 659.6,90.3 659.6,90.3 659.6,33.3 752.6,33.3 752.6,90.3 793.1,90.3 793.1,189.3 752.6,189.3 752.6,225.3 
			659.6,225.3 659.6,147.3 642.6,147.3 642.6,163.8 613.1,163.8 613.1,174 620.6,174 620.6,171.3 641.6,171.3 641.6,225.3 
			620.6,225.3 620.6,219 613.1,219 613.1,232.8 796.1,232.8 796.1,412.8 796.1,427.1 764.5,425.1 762.9,449.1 736.8,447.6 		"/>
	</g>
	
		<rect x="98.7" y="415.3" transform="matrix(5.738980e-02 -0.9984 0.9984 5.738980e-02 -325.7165 509.5397)" class="st15" width="16.6" height="24"/>
	
		<rect x="369.5" y="430.7" transform="matrix(5.738980e-02 -0.9984 0.9984 5.738980e-02 -85.817 794.446)" class="st15" width="16.6" height="24"/>
	
		<rect x="641.1" y="446.5" transform="matrix(5.738980e-02 -0.9984 0.9984 5.738980e-02 154.3981 1080.4751)" class="st15" width="16.6" height="24"/>
	<polygon class="st15" points="406.9,92.9 406.9,47.9 412.9,47.9 412.9,38.9 406.9,38.9 406.9,23.9 326.4,23.9 326.4,197.1 
		0.2,197.1 0.2,433 19.4,434.1 21.2,403.1 21.2,402.9 15.2,402.9 15.2,204.6 176.9,204.6 176.9,247.2 185.6,247.2 185.6,204.6 
		411.4,204.6 411.4,182.1 406.7,182.1 406.7,146.8 400.5,146.8 400.5,200.3 396.4,200.3 396.4,146.8 387.9,146.8 387.9,181.4 
		375.9,181.4 375.9,174.6 378.9,174.6 378.9,173.1 342.9,173.1 342.9,174.6 345.9,174.6 345.9,181.4 333.9,181.4 333.9,43.4 
		387.9,43.4 387.9,92.9 	"/>
</g>
<g id="LIVE">
	<g id="MTEXT">
		<g class="st16">
			<path class="st17" d="M130.2,377.1l1.4,5.1l1.3-5.1h0.8l-1.7,6.4h-0.7l-1.3-5l-1.4,5h-0.7l-1.7-6.4h0.8l1.3,5.1l1.4-5.1H130.2z"
				/>
			<path class="st17" d="M135.4,380.8v2.7h-0.8v-6.4h2.4c1.3,0,2.1,0.6,2.1,1.9c0,1.1-0.6,1.7-1.6,1.8l1.9,2.7h-0.9l-1.8-2.7H135.4z
				 M135.4,380.1h1.5c0.8,0,1.3-0.4,1.3-1.1c0-0.7-0.5-1.1-1.3-1.1h-1.5V380.1z"/>
		</g>
	</g>
	<g id="MTEXT-2">
		<g class="st16">
			<path class="st17" d="M150.2,224.5v2.7h-0.8v-6.4h2.4c1.3,0,2.1,0.6,2.1,1.9c0,1.1-0.6,1.7-1.6,1.8l1.9,2.7h-0.9l-1.8-2.7H150.2z
				 M150.2,223.8h1.5c0.8,0,1.3-0.4,1.3-1.1c0-0.7-0.5-1.1-1.3-1.1h-1.5V223.8z"/>
			<path class="st17" d="M157,220.5h0.8l-2.6,7.6h-0.8L157,220.5z"/>
			<path class="st17" d="M158.6,227.2v-6.4h3.9v0.7h-3.1v2.2h2.9v0.7h-2.9v2.8H158.6z"/>
		</g>
	</g>
	<g id="MTEXT-3">
		<g class="st16">
			<path class="st17" d="M28.7,378.3h2c1.9,0,3.1,1.2,3.1,3.2c0,1.9-1.2,3.2-3.1,3.2h-2V378.3z M30.8,383.9c1.4,0,2.3-1,2.3-2.5
				c0-1.5-0.9-2.5-2.3-2.5h-1.2v4.9H30.8z"/>
		</g>
		<g class="st16">
			<path class="st17" d="M38.5,378.3l1.4,5.1l1.3-5.1H42l-1.7,6.4h-0.7l-1.3-5l-1.4,5h-0.7l-1.7-6.4h0.8l1.3,5.1l1.4-5.1H38.5z"/>
		</g>
	</g>
	<g id="MTEXT-4">
		<g class="st16">
			<path class="st17" d="M514.2,99.2l1.4,5.1l1.3-5.1h0.8l-1.7,6.4h-0.8l-1.3-5l-1.4,5h-0.7l-1.7-6.4h0.8l1.3,5.1l1.4-5.1H514.2z"/>
		</g>
		<g class="st16">
			<path class="st17" d="M520.3,98.8h0.8l-2.6,7.6h-0.8L520.3,98.8z"/>
			<path class="st17" d="M521.9,99.2h2c1.9,0,3.1,1.2,3.1,3.2c0,1.9-1.2,3.2-3.1,3.2h-2V99.2z M523.9,104.8c1.4,0,2.3-1,2.3-2.5
				c0-1.5-0.9-2.5-2.3-2.5h-1.2v4.9H523.9z"/>
		</g>
	</g>
	<g id="MTEXT-5">
		<g class="st16">
			<path class="st17" d="M504.2,171.7l1.4,5.1l1.3-5.1h0.8l-1.7,6.4h-0.8l-1.3-5l-1.4,5h-0.7l-1.7-6.4h0.8l1.3,5.1l1.4-5.1H504.2z"
				/>
		</g>
		<g class="st16">
			<path class="st17" d="M510.3,171.3h0.8l-2.6,7.6h-0.8L510.3,171.3z"/>
			<path class="st17" d="M511.9,171.7h2c1.9,0,3.1,1.2,3.1,3.2c0,1.9-1.2,3.2-3.1,3.2h-2V171.7z M514,177.3c1.4,0,2.3-1,2.3-2.5
				c0-1.5-0.9-2.5-2.3-2.5h-1.2v4.9H514z"/>
		</g>
	</g>
	<g id="MTEXT-6">
		<g class="st16">
			<path class="st17" d="M629.4,195.9c1.3,0,2.2,0.8,2.5,2H631c-0.3-0.7-0.8-1.2-1.7-1.2c-1.2,0-2,1-2,2.5c0,1.5,0.8,2.5,2,2.5
				c0.9,0,1.4-0.5,1.7-1.2h0.8c-0.3,1.2-1.2,2-2.5,2c-1.6,0-2.9-1.3-2.9-3.3C626.5,197.2,627.7,195.9,629.4,195.9z"/>
			<path class="st17" d="M633,196h0.8v5.7h3.3v0.7H633V196z"/>
		</g>
	</g>
	<g id="MTEXT-7">
		<g class="st16">
			<path class="st17" d="M422.5,2v0.7h-3.3v2h3v0.7h-3v2.2h3.3v0.7h-4.1V2H422.5z"/>
			<path class="st17" d="M428.8,8.4h-0.6l-3.6-5.1v5.1h-0.8V2h0.8l3.4,4.9V2h0.8V8.4z"/>
			<path class="st17" d="M429.9,2h5.3v0.7h-2.2v5.7h-0.8V2.7h-2.2V2z"/>
		</g>
		<g class="st16">
			<path class="st17" d="M437,5.7v2.7h-0.8V2h2.4c1.3,0,2.1,0.6,2.1,1.9c0,1.1-0.6,1.7-1.6,1.8l1.9,2.7H440l-1.8-2.7H437z M437,5
				h1.5c0.8,0,1.3-0.4,1.3-1.1c0-0.7-0.5-1.1-1.3-1.1H437V5z"/>
		</g>
		<g class="st16">
			<path class="st17" d="M445.8,2h0.9l-2.3,3.8v2.6h-0.8V5.8L441.2,2h0.9l1.8,3L445.8,2z"/>
		</g>
	</g>
	<polygon class="st17" points="432.6,28.4 439.7,16.2 425.6,16.2 425.6,16.2 	"/>
	<g class="st16">
		<path class="st17" d="M638.6,320.1l-2-4.9v4.9h-0.8v-6.4h0.9l2.2,5.2l2.2-5.2h0.9v6.4h-0.8v-4.9l-2,4.9H638.6z"/>
	</g>
	<g class="st16">
		<path class="st17" d="M646.1,313.7l2.5,6.4h-0.8l-0.7-1.9h-2.6l-0.7,1.9h-0.8l2.5-6.4H646.1z M644.7,317.5h2.1l-1-2.7L644.7,317.5
			z"/>
	</g>
	<g class="st16">
		<path class="st17" d="M649.9,318.4c0.2,0.7,0.8,1.1,1.6,1.1c0.8,0,1.4-0.4,1.4-1.1c0-0.5-0.3-0.8-1-1l-1.1-0.3
			c-0.9-0.2-1.5-0.7-1.5-1.6c0-1.1,0.9-1.8,2.1-1.8c1.3,0,2.1,0.7,2.3,1.7h-0.8c-0.2-0.6-0.7-1-1.5-1c-0.8,0-1.3,0.4-1.3,1.1
			c0,0.5,0.4,0.8,1,1l1.1,0.3c1,0.3,1.6,0.8,1.6,1.7c0,1.2-0.9,1.9-2.2,1.9s-2.2-0.6-2.5-1.8H649.9z"/>
	</g>
	<g class="st16">
		<path class="st17" d="M654.3,313.7h5.3v0.7h-2.2v5.7h-0.8v-5.7h-2.2V313.7z"/>
		<path class="st17" d="M664.7,313.7v0.7h-3.3v2h3v0.7h-3v2.2h3.3v0.7h-4.1v-6.4H664.7z"/>
		<path class="st17" d="M666.8,317.4v2.7H666v-6.4h2.4c1.3,0,2.1,0.6,2.1,1.9c0,1.1-0.6,1.7-1.6,1.8l1.9,2.7h-0.9l-1.8-2.7H666.8z
			 M666.8,316.7h1.5c0.8,0,1.3-0.4,1.3-1.1c0-0.7-0.5-1.1-1.3-1.1h-1.5V316.7z"/>
		<path class="st17" d="M678.5,318.3c0,1.2-0.8,1.8-2.1,1.8H674v-6.4h2.1c1.3,0,2.1,0.6,2.1,1.7c0,0.8-0.4,1.2-0.9,1.4
			C678,317,678.5,317.6,678.5,318.3z M676.1,316.5c0.9,0,1.3-0.3,1.3-1s-0.5-1-1.3-1h-1.3v2.1H676.1z M674.8,319.4h1.5
			c0.9,0,1.3-0.4,1.3-1.1c0-0.7-0.5-1.1-1.3-1.1h-1.5V319.4z"/>
		<path class="st17" d="M683.7,313.7v0.7h-3.3v2h3v0.7h-3v2.2h3.3v0.7h-4.1v-6.4H683.7z"/>
		<path class="st17" d="M685,313.7h2c1.9,0,3.1,1.2,3.1,3.2c0,1.9-1.2,3.2-3.1,3.2h-2V313.7z M687,319.4c1.4,0,2.3-1,2.3-2.5
			c0-1.5-0.9-2.5-2.3-2.5h-1.2v4.9H687z"/>
	</g>
	<g class="st16">
		<path class="st17" d="M692.1,317.4v2.7h-0.8v-6.4h2.4c1.3,0,2.1,0.6,2.1,1.9c0,1.1-0.6,1.7-1.6,1.8l1.9,2.7h-0.9l-1.8-2.7H692.1z
			 M692.1,316.7h1.5c0.8,0,1.3-0.4,1.3-1.1c0-0.7-0.5-1.1-1.3-1.1h-1.5V316.7z"/>
	</g>
	<g class="st16">
		<path class="st17" d="M699.5,320.2c-1.7,0-2.9-1.4-2.9-3.3c0-1.9,1.2-3.3,2.9-3.3c1.7,0,2.9,1.4,2.9,3.3
			C702.4,318.8,701.2,320.2,699.5,320.2z M699.5,314.4c-1.2,0-2.1,1.1-2.1,2.5c0,1.5,0.8,2.5,2.1,2.5c1.2,0,2.1-1.1,2.1-2.5
			C701.6,315.4,700.7,314.4,699.5,314.4z"/>
	</g>
	<g class="st16">
		<path class="st17" d="M706.1,320.2c-1.7,0-2.9-1.4-2.9-3.3c0-1.9,1.2-3.3,2.9-3.3c1.7,0,2.9,1.4,2.9,3.3
			C709,318.8,707.8,320.2,706.1,320.2z M706.1,314.4c-1.2,0-2.1,1.1-2.1,2.5c0,1.5,0.8,2.5,2.1,2.5c1.2,0,2.1-1.1,2.1-2.5
			C708.2,315.4,707.3,314.4,706.1,314.4z"/>
		<path class="st17" d="M712.9,320.1l-2-4.9v4.9h-0.8v-6.4h0.9l2.2,5.2l2.2-5.2h0.9v6.4h-0.8v-4.9l-2,4.9H712.9z"/>
	</g>
	<g class="st16">
		<path class="st17" d="M653.3,331.3h-0.8v-5.4l-1.6,0.8v-0.8l1.9-1h0.5V331.3z"/>
	</g>
	<g class="st16">
		<path class="st17" d="M656,327.7h0.4c0.7,0,1.2-0.4,1.2-1.1c0-0.6-0.4-1.1-1.2-1.1s-1.2,0.5-1.3,1.1h-0.8c0.2-1.1,0.9-1.8,2.1-1.8
			c1.2,0,1.9,0.7,1.9,1.7c0,0.7-0.4,1.3-1,1.5c0.7,0.2,1.1,0.8,1.1,1.5c0,1.1-0.8,1.9-2,1.9c-1.2,0-2.1-0.8-2.2-1.9h0.8
			c0.1,0.7,0.6,1.2,1.4,1.2c0.8,0,1.3-0.5,1.3-1.2c0-0.7-0.6-1.1-1.3-1.1H656V327.7z"/>
	</g>
	<g class="st16">
		<path class="st17" d="M659.8,325.9c-0.3,0-0.5-0.2-0.5-0.5c0-0.3,0.2-0.6,0.6-0.6c0.3,0,0.6,0.2,0.6,0.6c0,0.2-0.1,0.4-0.2,0.7
			l-0.5,0.9h-0.5L659.8,325.9z"/>
	</g>
	<g class="st16">
		<path class="st17" d="M661.1,328.2h2.5v0.7h-2.5V328.2z"/>
	</g>
	<g class="st16">
		<path class="st17" d="M665.4,328.4h-0.6v-3.5h3.5v0.7h-2.8v1.9c0.2-0.2,0.6-0.4,1.2-0.4c1.2,0,2,0.9,2,2.1c0,1.2-0.9,2.1-2.1,2.1
			c-1.2,0-2-0.7-2.2-1.9h0.8c0.1,0.7,0.6,1.2,1.4,1.2c0.8,0,1.3-0.6,1.3-1.4c0-0.8-0.5-1.4-1.3-1.4
			C666,327.9,665.6,328.1,665.4,328.4z"/>
	</g>
	<g class="st16">
		<path class="st17" d="M669.2,324.9h0.7v2.3h-0.7V324.9z M670.5,324.9h0.7v2.3h-0.7V324.9z"/>
		<path class="st17" d="M676.6,328.9l1.7,2.4h-0.9l-1.3-1.8l-1.3,1.8h-0.8l1.7-2.4l-1.6-2.3h0.9l1.2,1.7l1.2-1.7h0.9L676.6,328.9z"
			/>
	</g>
	<g class="st16">
		<path class="st17" d="M683.5,331.3h-0.8v-5.4l-1.6,0.8v-0.8l1.9-1h0.5V331.3z"/>
		<path class="st17" d="M686.7,325.5c-0.8,0-1.2,0.5-1.2,1.3h-0.8c0.1-1.2,0.9-2,2.1-2c1.2,0,1.9,0.7,1.9,1.8c0,0.8-0.6,1.4-1.3,2.2
			l-1.6,1.8h3v0.7h-4.2v-0.5l2.1-2.3c0.7-0.7,1.2-1.3,1.2-1.9C687.8,326,687.4,325.5,686.7,325.5z"/>
	</g>
	<g class="st16">
		<path class="st17" d="M689.5,324.9h0.7v2.3h-0.7V324.9z"/>
	</g>
	<g class="st16">
		<path class="st17" d="M691,328.2h2.5v0.7H691V328.2z"/>
	</g>
	<g class="st16">
		<path class="st17" d="M695.3,328.4h-0.6v-3.5h3.5v0.7h-2.8v1.9c0.2-0.2,0.6-0.4,1.2-0.4c1.2,0,2,0.9,2,2.1c0,1.2-0.9,2.1-2.1,2.1
			c-1.2,0-2.1-0.7-2.2-1.9h0.8c0.1,0.7,0.6,1.2,1.4,1.2c0.8,0,1.3-0.6,1.3-1.4c0-0.8-0.5-1.4-1.3-1.4
			C695.9,327.9,695.6,328.1,695.3,328.4z"/>
	</g>
	<g class="st16">
		<path class="st17" d="M699.2,324.9h0.7v2.3h-0.7V324.9z M700.4,324.9h0.7v2.3h-0.7V324.9z"/>
	</g>
	<g class="st16">
		<path class="st17" d="M360.8,328.8v-0.7h2.3v0.4c0,1.7-1.1,2.8-2.6,2.8c-1.7,0-2.9-1.3-2.9-3.3s1.3-3.3,2.9-3.3
			c1.4,0,2.3,0.8,2.5,2h-0.8c-0.3-0.7-0.8-1.2-1.7-1.2c-1.2,0-2.1,1-2.1,2.5c0,1.5,0.8,2.6,2.1,2.6c1.1,0,1.8-0.7,1.9-1.8H360.8z"/>
		<path class="st17" d="M365,328.6v2.7h-0.8v-6.4h2.4c1.3,0,2.1,0.6,2.1,1.9c0,1.1-0.6,1.7-1.6,1.8l1.9,2.7H368l-1.8-2.7H365z
			 M365,327.9h1.5c0.8,0,1.3-0.4,1.3-1.1c0-0.7-0.5-1.1-1.3-1.1H365V327.9z"/>
		<path class="st17" d="M374,324.9v0.7h-3.3v2h3v0.7h-3v2.2h3.3v0.7h-4.1v-6.4H374z"/>
	</g>
	<g class="st16">
		<path class="st17" d="M378,324.9l2.5,6.4h-0.8l-0.7-1.9h-2.6l-0.7,1.9h-0.8l2.5-6.4H378z M376.6,328.6h2.1l-1-2.7L376.6,328.6z"/>
	</g>
	<g class="st16">
		<path class="st17" d="M380.5,324.9h5.3v0.7h-2.2v5.7h-0.8v-5.7h-2.2V324.9z"/>
	</g>
	<g class="st16">
		<path class="st17" d="M389.9,328.6v2.7h-0.8v-6.4h2.4c1.3,0,2.1,0.6,2.1,1.9c0,1.1-0.6,1.7-1.6,1.8l1.9,2.7h-0.9l-1.8-2.7H389.9z
			 M389.9,327.9h1.5c0.8,0,1.3-0.4,1.3-1.1c0-0.7-0.5-1.1-1.3-1.1h-1.5V327.9z"/>
	</g>
	<g class="st16">
		<path class="st17" d="M397.3,331.4c-1.7,0-2.9-1.4-2.9-3.3c0-1.9,1.2-3.3,2.9-3.3c1.7,0,2.9,1.4,2.9,3.3
			C400.2,330,399,331.4,397.3,331.4z M397.3,325.5c-1.2,0-2.1,1.1-2.1,2.5c0,1.5,0.8,2.5,2.1,2.5c1.2,0,2.1-1.1,2.1-2.5
			C399.4,326.6,398.6,325.5,397.3,325.5z"/>
	</g>
	<g class="st16">
		<path class="st17" d="M403.9,331.4c-1.7,0-2.9-1.4-2.9-3.3c0-1.9,1.2-3.3,2.9-3.3c1.7,0,2.9,1.4,2.9,3.3
			C406.8,330,405.6,331.4,403.9,331.4z M403.9,325.5c-1.2,0-2.1,1.1-2.1,2.5c0,1.5,0.8,2.5,2.1,2.5c1.2,0,2.1-1.1,2.1-2.5
			C406,326.6,405.2,325.5,403.9,325.5z"/>
		<path class="st17" d="M410.8,331.3l-2-4.9v4.9H408v-6.4h0.9l2.2,5.2l2.2-5.2h0.9v6.4h-0.8v-4.9l-2,4.9H410.8z"/>
	</g>
	<g class="st16">
		<path class="st17" d="M363.4,336.7c-0.8,0-1.2,0.5-1.2,1.3h-0.8c0.1-1.2,0.9-2,2.1-2c1.2,0,1.9,0.7,1.9,1.8c0,0.8-0.6,1.4-1.3,2.2
			l-1.6,1.8h3v0.7h-4.2v-0.5l2.1-2.3c0.7-0.7,1.2-1.3,1.2-1.9C364.6,337.1,364.1,336.7,363.4,336.7z"/>
	</g>
	<g class="st16">
		<path class="st17" d="M366.8,340.3h2v-1.5h0.8v1.5h1.1v0.7h-1.1v1.4h-0.8V341h-2.9v-0.6l2.5-4.4h0.8L366.8,340.3z"/>
	</g>
	<g class="st16">
		<path class="st17" d="M371.6,337.1c-0.3,0-0.5-0.2-0.5-0.5c0-0.3,0.2-0.6,0.6-0.6c0.3,0,0.6,0.2,0.6,0.6c0,0.2-0.1,0.4-0.2,0.7
			l-0.5,0.9H371L371.6,337.1z"/>
	</g>
	<g class="st16">
		<path class="st17" d="M372.9,339.4h2.5v0.7h-2.5V339.4z"/>
	</g>
	<g class="st16">
		<path class="st17" d="M377,340.3h2v-1.5h0.8v1.5h1.1v0.7h-1.1v1.4h-0.8V341h-2.9v-0.6l2.5-4.4h0.8L377,340.3z"/>
	</g>
	<g class="st16">
		<path class="st17" d="M381.1,336.1h0.7v2.3h-0.7V336.1z M382.3,336.1h0.7v2.3h-0.7V336.1z"/>
		<path class="st17" d="M388.5,340.1l1.7,2.4h-0.9l-1.3-1.8l-1.3,1.8h-0.8l1.7-2.4l-1.6-2.3h0.9l1.2,1.7l1.2-1.7h0.9L388.5,340.1z"
			/>
	</g>
	<g class="st16">
		<path class="st17" d="M395.3,342.5h-0.8v-5.4l-1.6,0.8V337l1.9-1h0.5V342.5z"/>
	</g>
	<g class="st16">
		<path class="st17" d="M398.1,338.8h0.4c0.7,0,1.2-0.4,1.2-1.1c0-0.6-0.4-1.1-1.2-1.1c-0.7,0-1.2,0.5-1.3,1.1h-0.8
			c0.2-1.1,0.9-1.8,2.1-1.8c1.2,0,1.9,0.7,1.9,1.7c0,0.7-0.4,1.3-1,1.5c0.7,0.2,1.1,0.8,1.1,1.5c0,1.1-0.8,1.9-2,1.9
			c-1.2,0-2.1-0.8-2.2-1.9h0.8c0.1,0.7,0.6,1.2,1.4,1.2c0.8,0,1.3-0.5,1.3-1.2c0-0.7-0.6-1.1-1.3-1.1h-0.4V338.8z"/>
	</g>
	<g class="st16">
		<path class="st17" d="M401.3,336.1h0.7v2.3h-0.7V336.1z"/>
	</g>
	<g class="st16">
		<path class="st17" d="M402.8,339.4h2.5v0.7h-2.5V339.4z"/>
	</g>
	<g class="st16">
		<path class="st17" d="M406.3,339.3c0-1.9,1-3.3,2.4-3.3s2.4,1.3,2.4,3.3c0,1.9-1,3.3-2.4,3.3S406.3,341.2,406.3,339.3z
			 M407.1,339.3c0,1.5,0.5,2.5,1.6,2.5c1,0,1.6-1.1,1.6-2.5c0-1.5-0.6-2.5-1.6-2.5C407.6,336.7,407.1,337.8,407.1,339.3z"/>
		<path class="st17" d="M411.9,336.1h0.7v2.3h-0.7V336.1z M413.1,336.1h0.7v2.3h-0.7V336.1z"/>
	</g>
	<g class="st16">
		<path class="st17" d="M128.5,319.7c0.2,0.7,0.8,1.1,1.6,1.1c0.8,0,1.4-0.4,1.4-1.1c0-0.5-0.3-0.8-1-1l-1.1-0.3
			c-0.9-0.2-1.5-0.7-1.5-1.6c0-1.1,0.9-1.8,2.1-1.8c1.3,0,2.1,0.7,2.3,1.7h-0.8c-0.2-0.6-0.7-1-1.5-1c-0.8,0-1.3,0.4-1.3,1.1
			c0,0.5,0.4,0.8,1,1l1.1,0.3c1,0.3,1.6,0.8,1.6,1.7c0,1.2-0.9,1.9-2.2,1.9s-2.2-0.6-2.5-1.8H128.5z"/>
		<path class="st17" d="M134.3,318.8v2.6h-0.8V315h2.4c1.3,0,2.1,0.7,2.1,1.9c0,1.2-0.8,1.9-2.1,1.9H134.3z M135.8,315.7h-1.6v2.4
			h1.6c0.9,0,1.3-0.5,1.3-1.2C137.1,316.2,136.7,315.7,135.8,315.7z"/>
	</g>
	<g class="st16">
		<path class="st17" d="M129.9,332.9c-1.7,0-2.9-1.4-2.9-3.3c0-1.9,1.2-3.3,2.9-3.3c1.7,0,2.9,1.4,2.9,3.3
			C132.8,331.6,131.5,332.9,129.9,332.9z M129.9,327.1c-1.2,0-2.1,1.1-2.1,2.5c0,1.5,0.8,2.5,2.1,2.5c1.2,0,2.1-1.1,2.1-2.5
			C131.9,328.1,131.1,327.1,129.9,327.1z"/>
	</g>
	<g class="st16">
		<path class="st17" d="M135.6,332.8l-2.5-6.4h0.9l2,5.3l2-5.3h0.8l-2.5,6.4H135.6z"/>
	</g>
	<g class="st16">
		<path class="st17" d="M692.3,141.1l-2-4.9v4.9h-0.8v-6.4h0.9l2.2,5.2l2.2-5.2h0.9v6.4h-0.8v-4.9l-2,4.9H692.3z"/>
	</g>
	<g class="st16">
		<path class="st17" d="M699.9,134.8l2.5,6.4h-0.8l-0.7-1.9h-2.6l-0.7,1.9h-0.8l2.5-6.4H699.9z M698.5,138.5h2.1l-1-2.7L698.5,138.5
			z"/>
	</g>
	<g class="st16">
		<path class="st17" d="M703.7,139.5c0.2,0.7,0.8,1.1,1.6,1.1c0.8,0,1.4-0.4,1.4-1.1c0-0.5-0.3-0.8-1-1l-1.1-0.3
			c-0.9-0.2-1.5-0.7-1.5-1.6c0-1.1,0.9-1.8,2.1-1.8c1.3,0,2.1,0.7,2.3,1.7h-0.8c-0.2-0.6-0.7-1-1.5-1c-0.8,0-1.3,0.4-1.3,1.1
			c0,0.5,0.4,0.8,1,1l1.1,0.3c1,0.3,1.6,0.8,1.6,1.7c0,1.2-0.9,1.9-2.2,1.9s-2.2-0.6-2.5-1.8H703.7z"/>
	</g>
	<g class="st16">
		<path class="st17" d="M708.1,134.8h5.3v0.7h-2.2v5.7h-0.8v-5.7h-2.2V134.8z"/>
		<path class="st17" d="M718.5,134.8v0.7h-3.3v2h3v0.7h-3v2.2h3.3v0.7h-4.1v-6.4H718.5z"/>
		<path class="st17" d="M720.6,138.4v2.7h-0.8v-6.4h2.4c1.3,0,2.1,0.6,2.1,1.9c0,1.1-0.6,1.7-1.6,1.8l1.9,2.7h-0.9l-1.8-2.7H720.6z
			 M720.6,137.7h1.5c0.8,0,1.3-0.4,1.3-1.1c0-0.7-0.5-1.1-1.3-1.1h-1.5V137.7z"/>
	</g>
	<g class="st16">
		<path class="st17" d="M699.8,150.5c0,1.2-0.8,1.8-2.1,1.8h-2.3V146h2.1c1.3,0,2.1,0.6,2.1,1.7c0,0.8-0.4,1.2-0.9,1.4
			C699.3,149.2,699.8,149.8,699.8,150.5z M697.5,148.7c0.9,0,1.3-0.3,1.3-1s-0.5-1-1.3-1h-1.3v2.1H697.5z M696.2,151.6h1.5
			c0.9,0,1.3-0.4,1.3-1.1c0-0.7-0.5-1.1-1.3-1.1h-1.5V151.6z"/>
	</g>
	<g class="st16">
		<path class="st17" d="M703.6,146l2.5,6.4h-0.8l-0.7-1.9h-2.6l-0.7,1.9h-0.8l2.5-6.4H703.6z M702.1,149.7h2.1l-1-2.7L702.1,149.7z"
			/>
	</g>
	<g class="st16">
		<path class="st17" d="M706,146h5.3v0.7h-2.2v5.7h-0.8v-5.7H706V146z"/>
		<path class="st17" d="M717.6,146v6.4h-0.8v-2.9h-3.6v2.9h-0.8V146h0.8v2.7h3.6V146H717.6z"/>
	</g>
</g>
</svg>
