<?xml version="1.0" encoding="utf-8"?>
<!-- Generator: Adobe Illustrator 23.0.0, SVG Export Plug-In . SVG Version: 6.00 Build 0)  -->
<svg version="1.1" id="Layer_1" xmlns="http://www.w3.org/2000/svg" xmlns:xlink="http://www.w3.org/1999/xlink" x="0px" y="0px"
	 viewBox="0 0 532.8 753.3" style="enable-background:new 0 0 532.8 753.3;" xml:space="preserve">
<style type="text/css">
	.st0{fill:none;stroke:#231F20;stroke-width:0.15;stroke-linecap:round;stroke-linejoin:round;}
	.st1{fill:#FFFFFF;stroke:#231F20;stroke-width:0.35;stroke-linecap:round;stroke-linejoin:round;}
	.st2{fill:none;stroke:#231F20;stroke-width:0.35;stroke-linecap:round;stroke-linejoin:round;}
	.st3{fill:none;stroke:#231F20;stroke-width:0.5;stroke-linecap:round;stroke-linejoin:round;}
	.st4{fill:none;stroke:#231F20;stroke-width:0.25;stroke-linecap:round;stroke-linejoin:round;}
	.st5{fill:none;stroke:#231F20;stroke-width:0.35;stroke-linecap:round;stroke-linejoin:round;stroke-dasharray:432,216;}
	.st6{fill:none;stroke:#231F20;stroke-width:0.25;stroke-miterlimit:10;}
	.st7{fill:none;stroke:#231F20;stroke-width:0.5;stroke-miterlimit:10;}
	.st8{fill:none;stroke:#231F20;stroke-width:0.25;stroke-miterlimit:10;stroke-dasharray:2.5;}
	.st9{fill:none;stroke:#231F20;stroke-width:0.35;stroke-miterlimit:10;}
	.st10{fill:#FFFFFF;stroke:#231F20;stroke-width:0.25;stroke-miterlimit:10;}
	.st11{fill:none;stroke:#29ABE2;stroke-width:0.7;stroke-miterlimit:10;}
	.st12{fill:#FFFFFF;stroke:#231F20;stroke-width:0.5;stroke-miterlimit:10;}
	.st13{fill:#D2D3D4;stroke:#231F20;stroke-width:0.5;stroke-miterlimit:10;}
	.st14{enable-background:new    ;}
	.st15{fill:#231F20;}
</style>
<title>108Leonard_WEB_R_4_v2</title>
<g id="FLOOR_PATTERN">
	<g id="LINE">
		<line class="st0" x1="284.8" y1="292.7" x2="284.8" y2="217.7"/>
	</g>
	<g id="LINE-2">
		<line class="st0" x1="293" y1="292.7" x2="293" y2="217.7"/>
	</g>
	<g id="LINE-3">
		<line class="st0" x1="301.3" y1="292.7" x2="301.3" y2="217.7"/>
	</g>
	<g id="LINE-4">
		<line class="st0" x1="309.5" y1="292.7" x2="309.5" y2="217.7"/>
	</g>
	<g id="LINE-5">
		<line class="st0" x1="317.8" y1="292.7" x2="317.8" y2="217.7"/>
	</g>
	<g id="LINE-6">
		<line class="st0" x1="326" y1="582.1" x2="326" y2="538.8"/>
	</g>
	<g id="LINE-7">
		<line class="st0" x1="326" y1="448.8" x2="326" y2="217.7"/>
	</g>
	<g id="LINE-8">
		<line class="st0" x1="334.3" y1="582.6" x2="334.3" y2="538.8"/>
	</g>
	<g id="LINE-9">
		<line class="st0" x1="334.3" y1="448.8" x2="334.3" y2="217.7"/>
	</g>
	<g id="LINE-10">
		<line class="st0" x1="342.5" y1="613.9" x2="342.5" y2="599.7"/>
	</g>
	<g id="LINE-11">
		<line class="st0" x1="342.5" y1="448.8" x2="342.5" y2="217.7"/>
	</g>
	<g id="LINE-12">
		<line class="st0" x1="342.5" y1="590.8" x2="342.5" y2="538.8"/>
	</g>
	<g id="LINE-13">
		<line class="st0" x1="350.8" y1="614.4" x2="350.8" y2="610.6"/>
	</g>
	<g id="LINE-14">
		<line class="st0" x1="350.8" y1="448.8" x2="350.8" y2="217.7"/>
	</g>
	<g id="LINE-15">
		<line class="st0" x1="350.8" y1="576.5" x2="350.8" y2="538.8"/>
	</g>
	<g id="LINE-16">
		<line class="st0" x1="359" y1="614.8" x2="359" y2="613"/>
	</g>
	<g id="LINE-17">
		<line class="st0" x1="359" y1="570.6" x2="359" y2="217.7"/>
	</g>
	<g id="LINE-18">
		<line class="st0" x1="367.3" y1="615.3" x2="367.3" y2="611.4"/>
	</g>
	<g id="LINE-19">
		<line class="st0" x1="367.3" y1="576.4" x2="367.3" y2="217.7"/>
	</g>
	<g id="LINE-20">
		<line class="st0" x1="375.5" y1="615.8" x2="375.5" y2="603.8"/>
	</g>
	<g id="LINE-21">
		<line class="st0" x1="375.5" y1="582.2" x2="375.5" y2="217.7"/>
	</g>
	<g id="LINE-22">
		<line class="st0" x1="383.8" y1="616.3" x2="383.8" y2="610.7"/>
	</g>
	<g id="LINE-23">
		<line class="st0" x1="383.8" y1="588" x2="383.8" y2="217.7"/>
	</g>
	<g id="LINE-24">
		<line class="st0" x1="383.8" y1="601.3" x2="383.8" y2="593"/>
	</g>
	<g id="LINE-25">
		<line class="st0" x1="392" y1="616.7" x2="392" y2="615"/>
	</g>
	<g id="LINE-26">
		<line class="st0" x1="392" y1="597" x2="392" y2="217.7"/>
	</g>
	<g id="LINE-27">
		<line class="st0" x1="400.3" y1="617.2" x2="400.3" y2="607.7"/>
	</g>
	<g id="LINE-28">
		<line class="st0" x1="400.3" y1="440.1" x2="400.3" y2="217.7"/>
	</g>
	<g id="LINE-29">
		<line class="st0" x1="400.3" y1="604.2" x2="400.3" y2="552"/>
	</g>
	<g id="LINE-30">
		<line class="st0" x1="408.5" y1="617.7" x2="408.5" y2="552.3"/>
	</g>
	<g id="LINE-31">
		<line class="st0" x1="408.5" y1="439.8" x2="408.5" y2="217.7"/>
	</g>
	<g id="LINE-32">
		<line class="st0" x1="416.8" y1="618.2" x2="416.8" y2="552.3"/>
	</g>
	<g id="LINE-33">
		<line class="st0" x1="416.8" y1="439.8" x2="416.8" y2="403.7"/>
	</g>
	<g id="LINE-34">
		<line class="st0" x1="425" y1="618.6" x2="425" y2="552.3"/>
	</g>
	<g id="LINE-35">
		<line class="st0" x1="425" y1="439.8" x2="425" y2="403.7"/>
	</g>
	<g id="LINE-36">
		<line class="st0" x1="433.3" y1="619.1" x2="433.3" y2="552.3"/>
	</g>
	<g id="LINE-37">
		<line class="st0" x1="433.3" y1="439.8" x2="433.3" y2="403.7"/>
	</g>
	<g id="LINE-38">
		<line class="st0" x1="441.5" y1="619.6" x2="441.5" y2="552.3"/>
	</g>
	<g id="LINE-39">
		<line class="st0" x1="441.5" y1="439.8" x2="441.5" y2="403.7"/>
	</g>
	<g id="LINE-40">
		<line class="st0" x1="449.8" y1="620" x2="449.8" y2="552.3"/>
	</g>
	<g id="LINE-41">
		<line class="st0" x1="449.8" y1="439.8" x2="449.8" y2="403.7"/>
	</g>
	<g id="LINE-42">
		<line class="st0" x1="458" y1="620.5" x2="458" y2="552.3"/>
	</g>
	<g id="LINE-43">
		<line class="st0" x1="458" y1="439.8" x2="458" y2="403.7"/>
	</g>
	<g id="LINE-44">
		<line class="st0" x1="466.3" y1="621" x2="466.3" y2="552.3"/>
	</g>
	<g id="LINE-45">
		<line class="st0" x1="466.3" y1="439.8" x2="466.3" y2="403.7"/>
	</g>
	<g id="LINE-46">
		<line class="st0" x1="474.5" y1="621.5" x2="474.5" y2="552.3"/>
	</g>
	<g id="LINE-47">
		<line class="st0" x1="474.5" y1="439.8" x2="474.5" y2="403.7"/>
	</g>
	<g id="LINE-48">
		<line class="st0" x1="482.8" y1="621.9" x2="482.8" y2="552.3"/>
	</g>
	<g id="LINE-49">
		<line class="st0" x1="482.8" y1="439.8" x2="482.8" y2="403.7"/>
	</g>
	<g id="LINE-50">
		<line class="st0" x1="491" y1="622.4" x2="491" y2="552.3"/>
	</g>
	<g id="LINE-51">
		<line class="st0" x1="491" y1="439.8" x2="491" y2="403.7"/>
	</g>
	<g id="LINE-52">
		<line class="st0" x1="499.3" y1="622.9" x2="499.3" y2="586.8"/>
	</g>
	<g id="LINE-53">
		<line class="st0" x1="499.3" y1="405.3" x2="499.3" y2="403.7"/>
	</g>
	<g id="LINE-54">
		<line class="st0" x1="499.3" y1="556.8" x2="499.3" y2="549.9"/>
	</g>
	<g id="LINE-55">
		<line class="st0" x1="499.3" y1="442.3" x2="499.3" y2="435.3"/>
	</g>
	<g id="LINE-56">
		<line class="st0" x1="499.3" y1="497.4" x2="499.3" y2="494.8"/>
	</g>
	<g id="LINE-57">
		<line class="st0" x1="507.5" y1="623.4" x2="507.5" y2="586.8"/>
	</g>
	<g id="LINE-58">
		<line class="st0" x1="507.5" y1="405.3" x2="507.5" y2="403.7"/>
	</g>
	<g id="LINE-59">
		<line class="st0" x1="507.5" y1="556.8" x2="507.5" y2="549.9"/>
	</g>
	<g id="LINE-60">
		<line class="st0" x1="507.5" y1="442.3" x2="507.5" y2="435.3"/>
	</g>
	<g id="LINE-61">
		<line class="st0" x1="507.5" y1="497.4" x2="507.5" y2="494.8"/>
	</g>
	<g id="LINE-62">
		<line class="st0" x1="515.8" y1="623.8" x2="515.8" y2="586.8"/>
	</g>
	<g id="LINE-63">
		<line class="st0" x1="515.8" y1="405.3" x2="515.8" y2="403.7"/>
	</g>
	<g id="LINE-64">
		<line class="st0" x1="515.8" y1="556.8" x2="515.8" y2="435.3"/>
	</g>
	<g id="LINE-65">
		<line class="st0" x1="12.5" y1="258" x2="12.5" y2="191.9"/>
	</g>
	<g id="LINE-66">
		<line class="st0" x1="20.8" y1="564.6" x2="20.8" y2="558.5"/>
	</g>
	<g id="LINE-67">
		<line class="st0" x1="20.8" y1="258" x2="20.8" y2="191.8"/>
	</g>
	<g id="LINE-68">
		<line class="st0" x1="20.8" y1="468.5" x2="20.8" y2="461.5"/>
	</g>
	<g id="LINE-69">
		<line class="st0" x1="29" y1="565.1" x2="29" y2="558.5"/>
	</g>
	<g id="LINE-70">
		<line class="st0" x1="29" y1="258" x2="29" y2="191.8"/>
	</g>
	<g id="LINE-71">
		<line class="st0" x1="29" y1="468.5" x2="29" y2="461.5"/>
	</g>
	<g id="LINE-72">
		<line class="st0" x1="37.3" y1="565.5" x2="37.3" y2="558.5"/>
	</g>
	<g id="LINE-73">
		<line class="st0" x1="37.3" y1="258" x2="37.3" y2="191.8"/>
	</g>
	<g id="LINE-74">
		<line class="st0" x1="37.3" y1="468.5" x2="37.3" y2="461.5"/>
	</g>
	<g id="LINE-75">
		<line class="st0" x1="45.5" y1="566" x2="45.5" y2="558.5"/>
	</g>
	<g id="LINE-76">
		<line class="st0" x1="45.5" y1="258" x2="45.5" y2="191.8"/>
	</g>
	<g id="LINE-77">
		<line class="st0" x1="45.5" y1="468.5" x2="45.5" y2="461.5"/>
	</g>
	<g id="LINE-78">
		<line class="st0" x1="53.8" y1="566.5" x2="53.8" y2="321"/>
	</g>
	<g id="LINE-79">
		<line class="st0" x1="53.8" y1="258" x2="53.8" y2="191.8"/>
	</g>
	<g id="LINE-80">
		<line class="st0" x1="62" y1="567" x2="62" y2="544"/>
	</g>
	<g id="LINE-81">
		<line class="st0" x1="62" y1="257.9" x2="62" y2="191.9"/>
	</g>
	<g id="LINE-82">
		<line class="st0" x1="62" y1="476.5" x2="62" y2="320.9"/>
	</g>
	<g id="LINE-83">
		<line class="st0" x1="70.3" y1="598.2" x2="70.3" y2="558.8"/>
	</g>
	<g id="LINE-84">
		<line class="st0" x1="70.3" y1="257.9" x2="70.3" y2="191.9"/>
	</g>
	<g id="LINE-85">
		<line class="st0" x1="70.3" y1="469.5" x2="70.3" y2="320.9"/>
	</g>
	<g id="LINE-86">
		<line class="st0" x1="78.5" y1="598.7" x2="78.5" y2="568.7"/>
	</g>
	<g id="LINE-87">
		<line class="st0" x1="78.5" y1="257.9" x2="78.5" y2="191.9"/>
	</g>
	<g id="LINE-88">
		<line class="st0" x1="78.5" y1="466.9" x2="78.5" y2="332.1"/>
	</g>
	<g id="LINE-89">
		<line class="st0" x1="86.8" y1="599.2" x2="86.8" y2="576.1"/>
	</g>
	<g id="LINE-90">
		<line class="st0" x1="86.8" y1="257.9" x2="86.8" y2="191.9"/>
	</g>
	<g id="LINE-91">
		<line class="st0" x1="86.8" y1="467.2" x2="86.8" y2="333.5"/>
	</g>
	<g id="LINE-92">
		<line class="st0" x1="95" y1="599.7" x2="95" y2="581.7"/>
	</g>
	<g id="LINE-93">
		<line class="st0" x1="95" y1="257.9" x2="95" y2="191.9"/>
	</g>
	<g id="LINE-94">
		<line class="st0" x1="95" y1="470.6" x2="95" y2="328.4"/>
	</g>
	<g id="LINE-95">
		<line class="st0" x1="103.3" y1="600.1" x2="103.3" y2="586"/>
	</g>
	<g id="LINE-96">
		<line class="st0" x1="103.3" y1="257.9" x2="103.3" y2="191.9"/>
	</g>
	<g id="LINE-97">
		<line class="st0" x1="103.3" y1="479.2" x2="103.3" y2="320.9"/>
	</g>
	<g id="LINE-98">
		<line class="st0" x1="111.5" y1="600.6" x2="111.5" y2="589.2"/>
	</g>
	<g id="LINE-99">
		<line class="st0" x1="111.5" y1="257.9" x2="111.5" y2="191.9"/>
	</g>
	<g id="LINE-100">
		<line class="st0" x1="111.5" y1="527.6" x2="111.5" y2="411.5"/>
	</g>
	<g id="LINE-101">
		<line class="st0" x1="111.5" y1="383" x2="111.5" y2="332.8"/>
	</g>
	<g id="LINE-102">
		<line class="st0" x1="119.8" y1="601.1" x2="119.8" y2="591.4"/>
	</g>
	<g id="LINE-103">
		<line class="st0" x1="119.8" y1="140.9" x2="119.8" y2="73.7"/>
	</g>
	<g id="LINE-104">
		<line class="st0" x1="119.8" y1="536.5" x2="119.8" y2="421.2"/>
	</g>
	<g id="LINE-105">
		<line class="st0" x1="119.8" y1="257.9" x2="119.8" y2="191.9"/>
	</g>
	<g id="LINE-106">
		<line class="st0" x1="119.8" y1="373.2" x2="119.8" y2="333.2"/>
	</g>
	<g id="LINE-107">
		<line class="st0" x1="128" y1="601.6" x2="128" y2="592.7"/>
	</g>
	<g id="LINE-108">
		<line class="st0" x1="128" y1="140.9" x2="128" y2="73.7"/>
	</g>
	<g id="LINE-109">
		<line class="st0" x1="128" y1="541.4" x2="128" y2="421.2"/>
	</g>
	<g id="LINE-110">
		<line class="st0" x1="128" y1="257.9" x2="128" y2="191.9"/>
	</g>
	<g id="LINE-111">
		<line class="st0" x1="128" y1="373.2" x2="128" y2="325.7"/>
	</g>
	<g id="LINE-112">
		<line class="st0" x1="136.3" y1="602" x2="136.3" y2="593.4"/>
	</g>
	<g id="LINE-113">
		<line class="st0" x1="136.3" y1="140.9" x2="136.3" y2="73.7"/>
	</g>
	<g id="LINE-114">
		<line class="st0" x1="136.3" y1="543.8" x2="136.3" y2="431.4"/>
	</g>
	<g id="LINE-115">
		<line class="st0" x1="136.3" y1="257.9" x2="136.3" y2="191.9"/>
	</g>
	<g id="LINE-116">
		<line class="st0" x1="136.3" y1="363" x2="136.3" y2="326.5"/>
	</g>
	<g id="LINE-117">
		<line class="st0" x1="144.5" y1="602.5" x2="144.5" y2="594"/>
	</g>
	<g id="LINE-118">
		<line class="st0" x1="144.5" y1="140.9" x2="144.5" y2="73.7"/>
	</g>
	<g id="LINE-119">
		<line class="st0" x1="144.5" y1="544.4" x2="144.5" y2="432.4"/>
	</g>
	<g id="LINE-120">
		<line class="st0" x1="144.5" y1="257.9" x2="144.5" y2="191.9"/>
	</g>
	<g id="LINE-121">
		<line class="st0" x1="144.5" y1="362" x2="144.5" y2="333.3"/>
	</g>
	<g id="LINE-122">
		<line class="st0" x1="152.8" y1="603" x2="152.8" y2="594.7"/>
	</g>
	<g id="LINE-123">
		<line class="st0" x1="152.8" y1="140.9" x2="152.8" y2="73.7"/>
	</g>
	<g id="LINE-124">
		<line class="st0" x1="152.8" y1="545" x2="152.8" y2="431.9"/>
	</g>
	<g id="LINE-125">
		<line class="st0" x1="152.8" y1="257.9" x2="152.8" y2="191.9"/>
	</g>
	<g id="LINE-126">
		<line class="st0" x1="152.8" y1="362.5" x2="152.8" y2="332.6"/>
	</g>
	<g id="LINE-127">
		<line class="st0" x1="161" y1="603.5" x2="161" y2="595.3"/>
	</g>
	<g id="LINE-128">
		<line class="st0" x1="161" y1="140.9" x2="161" y2="73.7"/>
	</g>
	<g id="LINE-129">
		<line class="st0" x1="161" y1="545.7" x2="161" y2="507.7"/>
	</g>
	<g id="LINE-130">
		<line class="st0" x1="161" y1="257.9" x2="161" y2="191.9"/>
	</g>
	<g id="LINE-131">
		<line class="st0" x1="161" y1="501.5" x2="161" y2="421.2"/>
	</g>
	<g id="LINE-132">
		<line class="st0" x1="161" y1="373.2" x2="161" y2="320.9"/>
	</g>
	<g id="LINE-133">
		<line class="st0" x1="169.3" y1="603.9" x2="169.3" y2="595.8"/>
	</g>
	<g id="LINE-134">
		<line class="st0" x1="169.3" y1="140.9" x2="169.3" y2="73.7"/>
	</g>
	<g id="LINE-135">
		<line class="st0" x1="169.3" y1="546.2" x2="169.3" y2="516.4"/>
	</g>
	<g id="LINE-136">
		<line class="st0" x1="169.3" y1="257.9" x2="169.3" y2="191.9"/>
	</g>
	<g id="LINE-137">
		<line class="st0" x1="169.3" y1="492.8" x2="169.3" y2="430.2"/>
	</g>
	<g id="LINE-138">
		<line class="st0" x1="169.3" y1="364.1" x2="169.3" y2="320.9"/>
	</g>
	<g id="LINE-139">
		<line class="st0" x1="177.5" y1="604.4" x2="177.5" y2="594"/>
	</g>
	<g id="LINE-140">
		<line class="st0" x1="177.5" y1="140.9" x2="177.5" y2="73.7"/>
	</g>
	<g id="LINE-141">
		<line class="st0" x1="177.5" y1="548.1" x2="177.5" y2="519.9"/>
	</g>
	<g id="LINE-142">
		<line class="st0" x1="177.5" y1="257.9" x2="177.5" y2="191.9"/>
	</g>
	<g id="LINE-143">
		<line class="st0" x1="177.5" y1="489.3" x2="177.5" y2="432.1"/>
	</g>
	<g id="LINE-144">
		<line class="st0" x1="177.5" y1="362.3" x2="177.5" y2="320.9"/>
	</g>
	<g id="LINE-145">
		<line class="st0" x1="185.8" y1="604.9" x2="185.8" y2="588.3"/>
	</g>
	<g id="LINE-146">
		<line class="st0" x1="185.8" y1="362" x2="185.8" y2="45.2"/>
	</g>
	<g id="LINE-147">
		<line class="st0" x1="185.8" y1="553.7" x2="185.8" y2="521.8"/>
	</g>
	<g id="LINE-148">
		<line class="st0" x1="185.8" y1="487.4" x2="185.8" y2="432.4"/>
	</g>
	<g id="LINE-149">
		<line class="st0" x1="194" y1="605.3" x2="194" y2="522.5"/>
	</g>
	<g id="LINE-150">
		<line class="st0" x1="194" y1="363.2" x2="194" y2="45.2"/>
	</g>
	<g id="LINE-151">
		<line class="st0" x1="194" y1="486.6" x2="194" y2="431.2"/>
	</g>
	<g id="LINE-152">
		<line class="st0" x1="202.3" y1="605.8" x2="202.3" y2="522.3"/>
	</g>
	<g id="LINE-153">
		<line class="st0" x1="202.3" y1="373.2" x2="202.3" y2="45.2"/>
	</g>
	<g id="LINE-154">
		<line class="st0" x1="202.3" y1="486.8" x2="202.3" y2="421.2"/>
	</g>
	<g id="LINE-155">
		<line class="st0" x1="210.5" y1="606.3" x2="210.5" y2="521.1"/>
	</g>
	<g id="LINE-156">
		<line class="st0" x1="210.5" y1="373.2" x2="210.5" y2="45.2"/>
	</g>
	<g id="LINE-157">
		<line class="st0" x1="210.5" y1="488" x2="210.5" y2="421.2"/>
	</g>
	<g id="LINE-158">
		<line class="st0" x1="218.8" y1="606.8" x2="218.8" y2="518.7"/>
	</g>
	<g id="LINE-159">
		<line class="st0" x1="218.8" y1="383" x2="218.8" y2="45.2"/>
	</g>
	<g id="LINE-160">
		<line class="st0" x1="218.8" y1="490.4" x2="218.8" y2="411.5"/>
	</g>
	<g id="LINE-161">
		<line class="st0" x1="227" y1="607.2" x2="227" y2="514.1"/>
	</g>
	<g id="LINE-162">
		<line class="st0" x1="227" y1="495" x2="227" y2="45.2"/>
	</g>
	<g id="LINE-163">
		<line class="st0" x1="235.3" y1="607.7" x2="235.3" y2="45.2"/>
	</g>
	<g id="LINE-164">
		<line class="st0" x1="243.5" y1="608.2" x2="243.5" y2="45.2"/>
	</g>
	<g id="LINE-165">
		<line class="st0" x1="251.8" y1="585.9" x2="251.8" y2="190.3"/>
	</g>
	<g id="LINE-166">
		<line class="st0" x1="251.8" y1="115.3" x2="251.8" y2="45.2"/>
	</g>
	<g id="LINE-167">
		<line class="st0" x1="260" y1="578.3" x2="260" y2="555.3"/>
	</g>
	<g id="LINE-168">
		<line class="st0" x1="260" y1="115.3" x2="260" y2="45.2"/>
	</g>
	<g id="LINE-169">
		<line class="st0" x1="260" y1="538.2" x2="260" y2="190.3"/>
	</g>
	<g id="LINE-170">
		<line class="st0" x1="268.3" y1="578.8" x2="268.3" y2="562.3"/>
	</g>
	<g id="LINE-171">
		<line class="st0" x1="268.3" y1="115.3" x2="268.3" y2="45.2"/>
	</g>
	<g id="LINE-172">
		<line class="st0" x1="268.3" y1="478.3" x2="268.3" y2="190.3"/>
	</g>
	<g id="LINE-173">
		<line class="st0" x1="276.5" y1="579.3" x2="276.5" y2="562.3"/>
	</g>
	<g id="LINE-174">
		<line class="st0" x1="276.5" y1="472.3" x2="276.5" y2="461.5"/>
	</g>
	<g id="LINE-175">
		<line class="st0" x1="284.8" y1="579.7" x2="284.8" y2="562.3"/>
	</g>
	<g id="LINE-176">
		<line class="st0" x1="284.8" y1="472.3" x2="284.8" y2="461.5"/>
	</g>
	<g id="LINE-177">
		<line class="st0" x1="293" y1="580.2" x2="293" y2="562.3"/>
	</g>
	<g id="LINE-178">
		<line class="st0" x1="293" y1="472.3" x2="293" y2="461.5"/>
	</g>
	<g id="LINE-179">
		<line class="st0" x1="301.3" y1="580.7" x2="301.3" y2="562.3"/>
	</g>
	<g id="LINE-180">
		<line class="st0" x1="301.3" y1="472.3" x2="301.3" y2="461.5"/>
	</g>
	<g id="LINE-181">
		<line class="st0" x1="309.5" y1="581.1" x2="309.5" y2="544.3"/>
	</g>
	<g id="LINE-182">
		<line class="st0" x1="309.5" y1="472.3" x2="309.5" y2="461.5"/>
	</g>
	<g id="LWPOLYLINE">
		<rect x="271.8" y="223.7" class="st0" width="7.5" height="52.5"/>
	</g>
	<g id="LWPOLYLINE-2">
		<rect x="315.2" y="314.9" class="st0" width="7.5" height="90"/>
	</g>
	<g id="LWPOLYLINE-3">
		<rect x="214.8" y="36.2" class="st0" width="54" height="9"/>
	</g>
	<g id="LWPOLYLINE-4">
		<line class="st0" x1="353" y1="217.7" x2="404" y2="217.7"/>
	</g>
	<g id="LWPOLYLINE-5">
		<line class="st0" x1="353" y1="205.7" x2="404" y2="205.7"/>
	</g>
	<g id="LWPOLYLINE-6">
		<rect x="109.9" y="82.4" class="st0" width="7.5" height="52.5"/>
	</g>
</g>
<g id="FURNITURE">
	<g id="LWPOLYLINE-7">
		<path class="st1" d="M517.7,552.3H401.4c-2.2-0.3-3.8-2.2-3.7-4.3V443.9c-0.1-2.1,1.6-4,3.7-4l0,0h116.4"/>
	</g>
	<g id="CIRCLE">
		<path class="st2" d="M253.8,546.7c0-5,4-9,9-9s9,4,9,9s-4,9-9,9S253.8,551.7,253.8,546.7z"/>
	</g>
	<g id="CIRCLE-2">
		<path class="st2" d="M399.6,602.1c2.1,4.5,0.2,9.9-4.3,12s-9.9,0.2-12-4.3s-0.2-9.8,4.3-12C392.1,595.7,397.4,597.6,399.6,602.1
			L399.6,602.1z"/>
	</g>
	<g id="LWPOLYLINE-8">
		<rect x="324.2" y="448.8" class="st2" width="27" height="90"/>
	</g>
	<g id="LWPOLYLINE-9">
		<rect x="20.5" y="468.5" class="st2" width="27" height="90"/>
	</g>
	<g id="LWPOLYLINE-10">
		<rect x="247.8" y="115.3" class="st2" width="21" height="75"/>
	</g>
	<g id="CIRCLE-3">
		<path class="st2" d="M249.2,177.1c0-5,4-9,9-9c5,0,9,4,9,9s-4,9-9,9l0,0C253.2,186.1,249.2,182,249.2,177.1z"/>
	</g>
	<g id="LINE-183">
		<line class="st2" x1="249.2" y1="177.1" x2="267.2" y2="177.1"/>
	</g>
	<g id="ARC">
		<path class="st2" d="M109.3,411.5c-3.2-9.2-3.2-19.3,0-28.5"/>
	</g>
	<g id="LWPOLYLINE-11">
		<path class="st2" d="M124.1,383h-18c-3,9.3-3,19.2,0,28.5h18V383z"/>
	</g>
	<g id="ARC-2">
		<path class="st2" d="M220,411.5c3.2-9.2,3.2-19.3,0-28.5"/>
	</g>
	<g id="LWPOLYLINE-12">
		<path class="st2" d="M205.1,383h18c3,9.3,3,19.2,0,28.5h-18V383z"/>
	</g>
	<g id="ARC-3">
		<path class="st2" d="M131.6,367.4c9.2-3.2,19.3-3.2,28.5,0"/>
	</g>
	<g id="LWPOLYLINE-13">
		<path class="st2" d="M160.1,382.2v-18c-9.3-3-19.2-3-28.5,0v18H160.1z"/>
	</g>
	<g id="ARC-4">
		<path class="st2" d="M197.6,367.4c-9.2-3.2-19.3-3.2-28.5,0"/>
	</g>
	<g id="LWPOLYLINE-14">
		<path class="st2" d="M169.1,382.2v-18c9.3-3,19.2-3,28.5,0v18H169.1z"/>
	</g>
	<g id="ARC-5">
		<path class="st2" d="M131.6,427c9.2,3.2,19.3,3.2,28.5,0"/>
	</g>
	<g id="LWPOLYLINE-15">
		<path class="st2" d="M160.1,412.2v18c-9.3,3-19.2,3-28.5,0v-18H160.1z"/>
	</g>
	<g id="ARC-6">
		<path class="st2" d="M197.6,427c-9.2,3.2-19.3,3.2-28.5,0"/>
	</g>
	<g id="LWPOLYLINE-16">
		<path class="st2" d="M169.1,412.2v18c9.3,3,19.2,3,28.5,0v-18H169.1z"/>
	</g>
	<g id="LINE-184">
		<line class="st2" x1="474.2" y1="439.8" x2="474.2" y2="552.3"/>
	</g>
	<g id="CIRCLE-4">
		<path class="st2" d="M501.2,571.9c0-4.1,3.4-7.5,7.5-7.5c4.1,0,7.5,3.4,7.5,7.5s-3.4,7.5-7.5,7.5l0,0
			C504.5,579.4,501.2,576,501.2,571.9z"/>
	</g>
	<g id="LINE-185">
		<line class="st2" x1="501.2" y1="571.8" x2="516.2" y2="571.8"/>
	</g>
	<g id="LINE-186">
		<line class="st2" x1="508.8" y1="579.4" x2="508.8" y2="564.4"/>
	</g>
	<g id="LWPOLYLINE-17">
		<rect x="496.8" y="556.8" class="st2" width="24" height="30"/>
	</g>
	<g id="CIRCLE-5">
		<path class="st2" d="M501.2,420.3c0-4.1,3.4-7.5,7.5-7.5c4.1,0,7.5,3.4,7.5,7.5s-3.4,7.5-7.5,7.5l0,0
			C504.5,427.8,501.2,424.4,501.2,420.3z"/>
	</g>
	<g id="LINE-187">
		<line class="st2" x1="501.2" y1="420.3" x2="516.2" y2="420.3"/>
	</g>
	<g id="LINE-188">
		<line class="st2" x1="508.8" y1="412.8" x2="508.8" y2="427.8"/>
	</g>
	<g id="LWPOLYLINE-18">
		<rect x="496.8" y="405.3" class="st2" width="24" height="30"/>
	</g>
	<g id="LWPOLYLINE-19">
		<polyline class="st2" points="492.2,497.4 514.8,497.4 514.8,549.9 492.2,549.9 		"/>
	</g>
	<g id="LWPOLYLINE-20">
		<polyline class="st2" points="492.2,494.8 514.8,494.8 514.8,442.3 492.2,442.3 		"/>
	</g>
	<g id="LWPOLYLINE-21">
		<rect x="517.8" y="439.8" class="st2" width="6" height="112.5"/>
	</g>
	<g id="LINE-189">
		<line class="st2" x1="492.2" y1="439.8" x2="492.2" y2="552.3"/>
	</g>
	<g id="LINE-190">
		<line class="st2" x1="258.2" y1="168.1" x2="258.2" y2="186.1"/>
	</g>
	<g id="LWPOLYLINE-22">
		<path class="st2" d="M143.1,544.2l24.7,1.9c1.4,0,2.9,0.1,4.3,0.3c13.5,2.3,22.6,15.1,20.3,28.7c-2.3,13.5-15.1,22.6-28.7,20.3
			l-33.7-2.6h-0.2c-44.6-3.6-77.8-42.7-74.2-87.3l1.3-15.7c0-0.3,0-0.6,0.1-1c1.3-13.6,13.3-23.6,26.9-22.4
			c13.6,1.3,23.6,13.3,22.4,26.9c0,0.2,0,0.4-0.1,0.6l-0.3,6.8c-3.6,20.1,9.7,39.3,29.7,42.9C138.2,544.1,140.7,544.3,143.1,544.2
			L143.1,544.2z"/>
	</g>
	<g id="LWPOLYLINE-23">
		<path class="st2" d="M151.5,594.6c2.5,0.2,4.7-1.6,4.9-4.1s-1.6-4.7-4.1-4.9l-12.3-1c-1.2,0-2.4-0.1-3.6-0.2
			C94,581.6,62.1,545.1,65,502.9l1-12.3c0.2-2.5-1.6-4.7-4.1-4.9c-2.5-0.2-4.7,1.6-4.9,4.1l0,0"/>
	</g>
	<g id="ELLIPSE">
		<path class="st2" d="M232.5,504.6c0-9.9-16.1-18-36-18s-36,8.1-36,18s16.1,18,36,18S232.5,514.5,232.5,504.6L232.5,504.6z"/>
	</g>
	<g id="LINE-191">
		<line class="st2" x1="338.1" y1="97.7" x2="337.4" y2="97.7"/>
	</g>
	<g id="LINE-192">
		<line class="st2" x1="329.1" y1="97.7" x2="328.4" y2="97.7"/>
	</g>
	<g id="LWPOLYLINE-24">
		<path class="st2" d="M344.6,586l10.7-16.4l0,0c0.4-0.6,1.2-0.7,1.8-0.3l0,0l28,19.7l0,0c0.6,0.4,0.7,1.3,0.3,1.8l0,0l-11.8,15.6"
			/>
	</g>
	<g id="LWPOLYLINE-25">
		<line class="st2" x1="349" y1="588.9" x2="352.8" y2="583"/>
	</g>
	<g id="LWPOLYLINE-26">
		<line class="st2" x1="373.6" y1="597.7" x2="369.4" y2="603.2"/>
	</g>
	<g id="ARC-7">
		<path class="st2" d="M345.1,585.2c-5.6,8.1-3.6,19.1,4.5,24.7c8,5.5,18.9,3.6,24.6-4.3"/>
	</g>
	<g id="ARC-8">
		<path class="st2" d="M349.5,588.2c-3.8,5.7-2.3,13.5,3.4,17.3c5.6,3.7,13.1,2.4,17-3"/>
	</g>
	<g id="ARC-9">
		<path class="st2" d="M352.8,583c1.1-2.6,0.5-5.5-1.4-7.5"/>
	</g>
	<g id="ARC-10">
		<path class="st2" d="M381.2,596.4c-2.5-1.2-5.5-0.7-7.6,1.2"/>
	</g>
	<g id="ARC-11">
		<path class="st2" d="M72,320.9c0,7,5.7,12.8,12.8,12.8c7,0,12.8-5.7,12.8-12.8"/>
	</g>
	<g id="LINE-193">
		<line class="st2" x1="72" y1="320.9" x2="97.5" y2="320.9"/>
	</g>
	<g id="ARC-12">
		<path class="st2" d="M103.5,320.9c0,7,5.7,12.7,12.8,12.7c7,0,12.7-5.7,12.7-12.7"/>
	</g>
	<g id="LINE-194">
		<line class="st2" x1="103.5" y1="320.9" x2="129" y2="320.9"/>
	</g>
	<g id="ARC-13">
		<path class="st2" d="M160.5,320.9c0,7-5.7,12.8-12.8,12.8S135,328,135,320.9"/>
	</g>
	<g id="LINE-195">
		<line class="st2" x1="160.5" y1="320.9" x2="135" y2="320.9"/>
	</g>
	<g id="LWPOLYLINE-27">
		<rect x="115.2" y="373.2" class="st1" width="99" height="48"/>
	</g>
	<g id="LINE-196">
		<line class="st2" x1="338.1" y1="97.7" x2="337.4" y2="97.7"/>
	</g>
	<g id="LINE-197">
		<line class="st2" x1="329.1" y1="97.7" x2="328.4" y2="97.7"/>
	</g>
	<g id="LWPOLYLINE-28">
		<path class="st1" d="M270.8,478.3v-6h39c0.8,0,1.5,0.7,1.5,1.5v70.5h-6v18h-40.5v-84H270.8"/>
	</g>
	<g id="LWPOLYLINE-29">
		<polyline class="st2" points="270.8,478.3 305.3,478.3 305.3,544.3 		"/>
	</g>
</g>
<g id="KITCHEN">
	<g id="LWPOLYLINE-30">
		<rect x="49.3" y="257.9" class="st3" width="133.9" height="63"/>
	</g>
	<g id="LWPOLYLINE-31">
		<line class="st3" x1="16.8" y1="191.9" x2="174.4" y2="191.9"/>
	</g>
</g>
<g id="BATH_GLAZING">
	<g id="LINE-198">
		<line class="st4" x1="352.2" y1="97.8" x2="406.2" y2="97.8"/>
		<line class="st4" x1="352.2" y1="96.8" x2="406.2" y2="96.8"/>
	</g>
</g>
<g id="CLOSET">
	<g id="LINE-199">
		<line class="st2" x1="300" y1="419.5" x2="300" y2="300.2"/>
	</g>
	<g id="LINE-200">
		<line class="st5" x1="297" y1="419.5" x2="297" y2="300.2"/>
	</g>
</g>
<g id="HANGERS">
	<g id="LINE-201">
		<line class="st6" x1="311.9" y1="368.9" x2="284.9" y2="358.6"/>
	</g>
	<g id="LINE-202">
		<line class="st6" x1="311.9" y1="363.1" x2="284.9" y2="352.9"/>
	</g>
	<g id="LINE-203">
		<line class="st6" x1="311.9" y1="390.8" x2="284.9" y2="390.8"/>
	</g>
	<g id="LINE-204">
		<line class="st6" x1="311.9" y1="375.3" x2="284.9" y2="375.3"/>
	</g>
	<g id="LINE-205">
		<line class="st6" x1="311.9" y1="371.5" x2="284.9" y2="371.5"/>
	</g>
	<g id="LINE-206">
		<line class="st6" x1="311.9" y1="390.8" x2="284.9" y2="390.8"/>
	</g>
	<g id="LINE-207">
		<line class="st6" x1="311.9" y1="387" x2="284.9" y2="387"/>
	</g>
	<g id="LINE-208">
		<line class="st6" x1="311.9" y1="383.1" x2="284.9" y2="383.1"/>
	</g>
	<g id="LINE-209">
		<line class="st6" x1="311.9" y1="375.3" x2="284.9" y2="375.3"/>
	</g>
	<g id="LINE-210">
		<line class="st6" x1="311.9" y1="379.2" x2="284.9" y2="379.2"/>
	</g>
</g>
<g id="APPLIANCES">
	<g id="LWPOLYLINE-32">
		<rect x="129.8" y="30.3" class="st4" width="35.2" height="32.7"/>
	</g>
	<g id="LWPOLYLINE-33">
		<polyline class="st4" points="136,62.9 136,64 158.9,64 158.9,62.9 		"/>
	</g>
	<g id="LINE-211">
		<line class="st7" x1="146.2" y1="156.2" x2="146.2" y2="191.8"/>
	</g>
	<g id="LINE-212">
		<line class="st7" x1="98.6" y1="156.3" x2="98.6" y2="191.8"/>
	</g>
	<line class="st7" x1="63.5" y1="155.9" x2="63.5" y2="191.8"/>
	<g id="LINE-213">
		<line class="st8" x1="183.2" y1="291.6" x2="183.2" y2="258"/>
	</g>
	<g id="LINE-214">
		<line class="st8" x1="147.9" y1="291.6" x2="147.9" y2="258"/>
	</g>
	<g id="LINE-215">
		<line class="st8" x1="147.9" y1="291.6" x2="183.2" y2="291.6"/>
	</g>
	<path class="st6" d="M109.9,169c-1.3,0-2.4-1.1-2.4-2.4c0-1.3,1.1-2.4,2.4-2.4s2.4,1.1,2.4,2.4l0,0C112.3,168,111.2,169,109.9,169z
		"/>
	<path class="st6" d="M127.6,169c-1.3,0-2.4-1.1-2.4-2.4s1.1-2.4,2.4-2.4c1.3,0,2.4,1.1,2.4,2.4l0,0C130,168,128.9,169,127.6,169z"
		/>
	<path class="st6" d="M109.9,184.4c-1.3,0-2.4-1.1-2.4-2.4c0-1.3,1.1-2.4,2.4-2.4s2.4,1.1,2.4,2.4l0,0
		C112.3,183.3,111.2,184.4,109.9,184.4z"/>
	<path class="st6" d="M127.6,184.4c-1.3,0-2.4-1.1-2.4-2.4s1.1-2.4,2.4-2.4c1.3,0,2.4,1.1,2.4,2.4l0,0
		C130,183.3,128.9,184.4,127.6,184.4z"/>
	<line class="st6" x1="118.7" y1="189.5" x2="101.2" y2="174.3"/>
	<g id="LINE-216">
		<line class="st6" x1="118.7" y1="190.3" x2="118.7" y2="158.2"/>
	</g>
	<rect x="101.2" y="159" class="st6" width="35.4" height="30.6"/>
	<line class="st6" x1="101.2" y1="174.3" x2="136.5" y2="174.3"/>
	<g id="CIRCLE-6">
		<path class="st6" d="M140,172.5c0-0.8,0.6-1.4,1.4-1.4c0.8,0,1.4,0.6,1.4,1.4c0,0.8-0.6,1.4-1.4,1.4l0,0
			C140.6,173.9,140,173.2,140,172.5z"/>
	</g>
	<g id="CIRCLE-7">
		<path class="st6" d="M140,177.1c0-0.8,0.6-1.4,1.4-1.4c0.8,0,1.4,0.6,1.4,1.4c0,0.8-0.6,1.4-1.4,1.4l0,0
			C140.6,178.4,140,177.8,140,177.1z"/>
	</g>
	<g id="CIRCLE-8">
		<path class="st6" d="M140,181.7c0-0.8,0.6-1.4,1.4-1.4c0.8,0,1.4,0.6,1.4,1.4c0,0.8-0.6,1.4-1.4,1.4l0,0
			C140.6,183.1,140,182.4,140,181.7z"/>
	</g>
	<g id="CIRCLE-9">
		<path class="st6" d="M140,186.1c0-0.8,0.6-1.4,1.4-1.4c0.8,0,1.4,0.6,1.4,1.4c0,0.8-0.6,1.4-1.4,1.4l0,0
			C140.6,187.5,140,186.8,140,186.1z"/>
	</g>
	<rect x="99.9" y="158.2" class="st6" width="45" height="32.1"/>
	<line class="st6" x1="101.2" y1="189.5" x2="118.7" y2="174.3"/>
	<line class="st6" x1="136.5" y1="159" x2="118.7" y2="174.3"/>
	<line class="st6" x1="118.7" y1="159" x2="136.5" y2="174.3"/>
	<line class="st6" x1="101.2" y1="159" x2="118.7" y2="174.3"/>
	<line class="st6" x1="101.2" y1="174.3" x2="118.7" y2="159"/>
	<line class="st6" x1="136.5" y1="189.5" x2="118.7" y2="174.3"/>
	<line class="st6" x1="136.5" y1="174.3" x2="118.7" y2="189.5"/>
</g>
<g id="BATH_FIXTURES_EXTERIOR">
	<g id="WIPEOUT">
		<rect x="289.8" y="160.5" class="st9" width="32.6" height="39"/>
	</g>
	<g id="LWPOLYLINE-34">
		<rect x="289.8" y="161.8" class="st9" width="2.2" height="34.9"/>
	</g>
</g>
<g id="BATH_FIXTURES">
	<g id="LWPOLYLINE-35">
		<path class="st4" d="M297.7,114.4c0-0.1-0.1-0.2-0.2-0.4c-0.4-0.7-1.1-1.1-1.8-1c-1.6,0.1-3.3,0.2-4.9,0.4
			c-0.6,0.1-1.1,0.6-1.1,1.2v20.2c0,0.6,0.5,1.1,1.1,1.2c1.6,0.1,3.3,0.3,4.9,0.4c0.7,0.1,1.5-0.3,1.8-1c0.1-0.1,0.1-0.2,0.2-0.4"/>
	</g>
	<g id="LWPOLYLINE-36">
		<path class="st4" d="M297.7,114.4c3,6.4,3,13.8,0.1,20.2"/>
	</g>
	<g id="LWPOLYLINE-37">
		<path class="st4" d="M297.7,134.9c5.9,0.2,11.8,0.3,17.8,0.3c3,0,5.9-0.6,8.6-1.8c2.1-0.9,3.9-2.2,5.3-3.9c2.4-2.8,2.4-7,0-9.8
			c-1.5-1.7-3.3-3-5.3-3.9c-2.7-1.2-5.7-1.8-8.6-1.8c-5.9,0-11.8,0.1-17.8,0.3"/>
	</g>
	<g id="ELLIPSE-2">
		<path class="st10" d="M343.7,56.6h6.5c0.1,0.8,0.3,1.4,0.5,1.4l5.4,0.3l0,0c0.2,0,0.3-1,0.3-2.3s-0.1-2.2-0.3-2.2l0,0l-5.3,0.3
			c-0.2,0-0.4,0.6-0.5,1.4h-6.5"/>
	</g>
	<g id="LWPOLYLINE-38">
		<path class="st10" d="M349.4,42.9v3c0,0.6-0.5,1.1-1.1,1.2c-0.3,0-0.6-0.1-0.8-0.3h-3.9v-1.7h3.5v-2.2c0-0.6,0.5-1.1,1.2-1.1
			C348.9,41.8,349.4,42.3,349.4,42.9L349.4,42.9z"/>
	</g>
	<path class="st6" d="M343.6,67.3h1.1v1.3h1.1c0.3,0,0.6,0.3,0.6,0.6l0,0v0.3h1.3c0.3,0,0.5,0.3,0.5,0.6c0,0.3-0.2,0.4-0.5,0.5h-1.3
		v0.3c0,0.3-0.3,0.6-0.6,0.6l0,0h-1.1v1.3h-1.1"/>
</g>
<g id="SINK">
	<path class="st6" d="M295.2,177.5c1,0,1.7,0.8,1.7,1.7c0,1-0.8,1.7-1.7,1.7c-1,0-1.7-0.8-1.7-1.7l0,0
		C293.5,178.3,294.3,177.5,295.2,177.5z"/>
	<polyline class="st6" points="298.4,178.2 298.4,166.5 317.9,166.5 317.9,192 298.4,192 298.4,180.3 	"/>
	<rect x="295" y="178.2" class="st10" width="10" height="2.1"/>
	<rect x="294.7" y="172.6" class="st6" width="1.2" height="2.2"/>
	<rect x="294.7" y="183.6" class="st6" width="1.2" height="2.2"/>
	<path class="st6" d="M295.2,172c1,0,1.7,0.8,1.7,1.7c0,1-0.8,1.7-1.7,1.7c-1,0-1.7-0.8-1.7-1.7l0,0
		C293.5,172.8,294.3,172,295.2,172z"/>
	<path class="st6" d="M295.2,182.9c1,0,1.7,0.8,1.7,1.7c0,1-0.8,1.7-1.7,1.7c-1,0-1.7-0.8-1.7-1.7l0,0
		C293.5,183.7,294.3,182.9,295.2,182.9z"/>
	<g id="LWPOLYLINE-39">
		<rect x="115.7" y="288.1" class="st6" width="1.7" height="3"/>
	</g>
	<g id="LWPOLYLINE-40">
		<polyline class="st6" points="115.7,288.3 115.3,288.3 115.3,290.9 115.7,290.9 		"/>
	</g>
	<g id="LWPOLYLINE-41">
		<polyline class="st6" points="117.4,290.9 117.9,290.9 117.9,288.3 117.4,288.3 		"/>
	</g>
	<g id="LINE-217">
		<line class="st6" x1="117.4" y1="288.5" x2="115.7" y2="288.5"/>
	</g>
	<g id="CIRCLE-10">
		<path class="st6" d="M128.6,290.7c0.6,0,1.1-0.5,1.1-1.1s-0.5-1.1-1.1-1.1s-1.1,0.5-1.1,1.1S128,290.7,128.6,290.7L128.6,290.7z"
			/>
	</g>
	<g id="LWPOLYLINE-42">
		<polyline class="st6" points="121.8,288.3 121.3,288.3 121.3,290.9 123.9,290.9 123.9,288.3 123.3,288.3 		"/>
	</g>
	<g id="LWPOLYLINE-43">
		<polyline class="st6" points="128.3,288.3 127.3,288.3 127.3,290.9 129.9,290.9 129.9,288.3 128.9,288.3 		"/>
	</g>
	<g id="LWPOLYLINE-44">
		<polyline class="st6" points="128.3,288.5 128.3,286.7 128.9,286.7 128.9,288.5 		"/>
	</g>
	<rect x="136.3" y="287.4" class="st6" width="4.3" height="4.3"/>
	<g id="LWPOLYLINE-45">
		<rect x="121.8" y="276.9" class="st6" width="1.5" height="13.5"/>
	</g>
	<g id="LWPOLYLINE-46">
		<polyline class="st6" points="121.8,286.6 100.1,286.6 100.1,261.1 145.1,261.1 145.1,286.6 123.3,286.6 		"/>
	</g>
	<rect x="138.7" y="289.2" class="st6" width="1.2" height="0.8"/>
	<line class="st6" x1="140.2" y1="290.1" x2="140.2" y2="289.1"/>
	<rect x="136.6" y="278" class="st10" width="1.7" height="12.2"/>
</g>
<g id="SILLS">
	<g id="LINE-218">
		<line class="st2" x1="65.4" y1="619.5" x2="519.5" y2="645.6"/>
	</g>
	<line class="st2" x1="520" y1="624.4" x2="65.9" y2="597.8"/>
	<line class="st4" x1="525.3" y1="660.5" x2="54.5" y2="633.3"/>
</g>
<g id="MULLION">
	<g id="LWPOLYLINE-47">
		<polygon class="st2" points="69.4,606.3 65.8,606.1 65.3,614.7 68.9,614.9 69,611.9 73,612.1 73.1,609.5 69.2,609.3 		"/>
	</g>
	<g id="LWPOLYLINE-48">
		<polygon class="st2" points="138.6,610.3 69.4,606.3 69.2,609.3 73.1,609.5 134.5,613 138.5,613.3 		"/>
	</g>
	<g id="LWPOLYLINE-49">
		<polygon class="st2" points="138.3,615.9 134.4,615.7 73,612.1 69,611.9 68.9,614.9 138.1,618.9 		"/>
	</g>
	<g id="LWPOLYLINE-50">
		<polygon class="st2" points="142.2,610.5 138.6,610.3 138.5,613.3 134.5,613 134.4,615.7 138.3,615.9 138.1,618.9 141.7,619.1 		
			"/>
	</g>
	<g id="LWPOLYLINE-51">
		<polygon class="st2" points="180.9,615.7 177,615.5 177.2,612.5 173.6,612.3 173.1,620.9 176.7,621.1 176.9,618.1 180.8,618.3 		
			"/>
	</g>
	<g id="LWPOLYLINE-52">
		<polygon class="st2" points="246.4,616.5 177.2,612.5 177,615.5 180.9,615.7 242.4,619.2 246.3,619.5 		"/>
	</g>
	<g id="LWPOLYLINE-53">
		<polygon class="st2" points="246.1,622.1 242.2,621.9 180.8,618.3 176.9,618.1 176.7,621.1 245.9,625.1 		"/>
	</g>
	<g id="LWPOLYLINE-54">
		<polygon class="st2" points="250,616.7 246.4,616.5 246.3,619.5 242.4,619.2 242.2,621.9 246.1,622.1 245.9,625.1 249.5,625.3 		
			"/>
	</g>
	<g id="LWPOLYLINE-55">
		<polygon class="st2" points="342.7,625 338.8,624.8 338.9,621.8 335.4,621.6 334.9,630.2 338.4,630.4 338.6,627.4 342.5,627.6 		
			"/>
	</g>
	<g id="LWPOLYLINE-56">
		<polygon class="st2" points="408.2,625.8 338.9,621.8 338.8,624.8 342.7,625 404.1,628.5 408,628.8 		"/>
	</g>
	<g id="LWPOLYLINE-57">
		<polygon class="st2" points="407.9,631.4 403.9,631.2 342.5,627.6 338.6,627.4 338.4,630.4 407.7,634.4 		"/>
	</g>
	<g id="LWPOLYLINE-58">
		<polygon class="st2" points="411.7,626 408.2,625.8 408,628.8 404.1,628.5 403.9,631.2 407.9,631.4 407.7,634.4 411.2,634.6 		"/>
	</g>
	<g id="LWPOLYLINE-59">
		<polygon class="st2" points="446.7,628 443.2,627.8 442.7,636.4 446.2,636.6 446.4,633.6 450.4,633.8 450.5,631.2 446.6,631 		"/>
	</g>
	<g id="LWPOLYLINE-60">
		<polygon class="st2" points="516,632 446.7,628 446.6,631 450.5,631.2 511.9,634.7 515.8,635 		"/>
	</g>
	<g id="LWPOLYLINE-61">
		<polygon class="st2" points="511.8,637.3 450.4,633.8 446.4,633.6 446.2,636.6 515.5,640.6 515.7,637.6 		"/>
	</g>
	<g id="LWPOLYLINE-62">
		<polygon class="st2" points="519.6,632.2 516,632 515.8,635 511.9,634.7 511.8,637.3 515.7,637.6 515.5,640.6 519.1,640.8 		"/>
	</g>
</g>
<g id="WINDOW_GLAZING">
	<g id="LWPOLYLINE-63">
		<line class="st11" x1="73" y1="612.1" x2="134.4" y2="615.7"/>
		<line class="st11" x1="134.5" y1="613" x2="73.1" y2="609.5"/>
	</g>
	<g id="LWPOLYLINE-64">
		<line class="st11" x1="180.8" y1="618.3" x2="242.2" y2="621.9"/>
		<line class="st11" x1="242.4" y1="619.2" x2="180.9" y2="615.7"/>
	</g>
	<g id="LWPOLYLINE-65">
		<line class="st11" x1="342.5" y1="627.6" x2="403.9" y2="631.2"/>
		<line class="st11" x1="404.1" y1="628.5" x2="342.7" y2="625"/>
	</g>
	<g id="LWPOLYLINE-66">
		<line class="st11" x1="450.4" y1="633.8" x2="511.8" y2="637.3"/>
		<line class="st11" x1="511.9" y1="634.7" x2="450.5" y2="631.2"/>
	</g>
</g>
<g id="MAIN_SWING">
	<g id="ARC-14">
		<path class="st3" d="M214.7,45.1c0,13.7,5.2,26.9,14.5,36.9"/>
	</g>
</g>
<g id="DOOR_SWING">
	<g id="ARC-15">
		<path class="st4" d="M279.1,276.2c29,0,52.5-23.5,52.5-52.5l0,0"/>
	</g>
</g>
<g id="DOOR">
	<g id="LWPOLYLINE-67">
		<polygon class="st12" points="267.1,43.5 268.7,45.1 229.2,82 227.6,80.4 		"/>
	</g>
	<g id="LWPOLYLINE-68">
		<rect x="279.1" y="223.7" class="st12" width="52.5" height="2.2"/>
	</g>
	<g id="LWPOLYLINE-69">
		<polygon class="st12" points="109.9,82.3 112.1,82.2 112.1,135.6 109.9,134.8 		"/>
	</g>
	<g id="LWPOLYLINE-70">
		<rect x="350.8" y="210.3" class="st12" width="53" height="2.6"/>
	</g>
	<g id="LWPOLYLINE-71">
		<rect x="319.8" y="314.9" class="st12" width="2.6" height="45"/>
	</g>
	<g id="LWPOLYLINE-72">
		<rect x="124.1" y="70.9" class="st12" width="45" height="2.6"/>
	</g>
	<g id="LWPOLYLINE-73">
		<rect x="319.8" y="359.9" class="st12" width="2.6" height="45"/>
	</g>
</g>
<g id="WALL">
	<g id="LWPOLYLINE-74">
		
			<rect x="142.5" y="604.1" transform="matrix(5.738704e-02 -0.9984 0.9984 5.738704e-02 -470.334 741.4888)" class="st13" width="30" height="31.5"/>
	</g>
	<g id="LWPOLYLINE-75">
		
			<rect x="412" y="619.5" transform="matrix(5.738704e-02 -0.9984 0.9984 5.738704e-02 -231.6275 1025.1299)" class="st13" width="30.1" height="31.5"/>
	</g>
	<g id="LWPOLYLINE-76">
		<polygon class="st13" points="344,24.2 410,24.2 410,90.2 403.3,90.2 403.3,97.7 410,97.7 410,205.7 404,205.7 404,217.7 
			412.4,217.7 412.4,403.7 523.6,403.7 523.6,588.5 523.6,593.5 521.8,593.4 521.4,600.9 519.6,632.2 518.6,649.6 525.6,650 
			525.1,660.5 532.5,661 532.5,396.2 484.4,396.2 484.4,384.2 431.9,384.2 431.9,167.5 419.8,167.5 419.8,15.2 274.8,15.1 
			274.8,36.2 268.8,36.2 268.8,45.2 271.8,45.2 271.8,223.7 279.3,223.7 279.3,217.7 353,217.7 353,213.7 297.5,213.7 297.5,209.6 
			353,209.6 353,205.7 289.8,205.7 289.8,196.7 286.2,196.7 286.2,161.8 289.8,161.8 289.8,97.7 355.3,97.7 355.3,90.2 344,90.2 		
			"/>
	</g>
	<g id="LWPOLYLINE-77">
		<polygon class="st13" points="279.3,292.7 322.7,292.7 322.7,314.9 315.2,314.9 315.2,300.2 279.3,300.2 279.3,419.5 315.2,419.5 
			315.2,404.9 322.7,404.9 322.7,581.9 337.6,582.8 337.2,590.3 334.4,639 327.5,638.6 326.8,650.4 248.3,645.9 250.4,610.1 
			252.2,577.9 315.2,581.5 315.2,461.5 271.8,461.5 271.8,276.2 279.3,276.2 		"/>
	</g>
	<polygon class="st13" points="181.9,36.2 181.9,15.2 43.8,15.2 43.8,79.7 0.3,79.7 0.2,267 40.3,267 40.3,452.5 10.6,452.5 
		10.6,630.7 64.2,633.8 68,567.3 17.8,564.4 17.8,461.5 49.3,461.5 49.3,258 9.2,258 9.3,191.9 16.8,191.9 16.7,155.9 63.2,155.9 
		63.2,155.9 174.4,155.9 174.4,191.9 181.9,191.9 181.9,140.9 117.5,140.9 117.5,134.9 109.9,134.9 109.9,140.9 16.7,140.9 
		16.7,99.8 16.7,88.7 52.8,88.7 52.8,34.6 109.9,34.6 109.9,82.4 117.4,82.4 117.4,73.7 124.2,73.7 124.2,66.2 120.4,66.2 
		120.4,24.1 174.4,24 174.4,66.2 169.2,66.2 169.2,73.7 181.9,73.7 181.9,45.2 214.8,45.2 214.8,36.2 	"/>
</g>
<g id="LIVE">
	<g id="MTEXT">
		<g class="st14">
			<path class="st15" d="M158.1,171.9l1.4,5.1l1.3-5.1h0.8l-1.7,6.4h-0.7l-1.3-5l-1.4,5h-0.7l-1.7-6.4h0.8l1.3,5.1l1.4-5.1H158.1z"
				/>
			<path class="st15" d="M163.3,175.6v2.7h-0.8v-6.4h2.4c1.3,0,2.1,0.6,2.1,1.9c0,1.1-0.6,1.7-1.6,1.8l1.9,2.7h-0.9l-1.8-2.7H163.3z
				 M163.3,174.9h1.5c0.8,0,1.3-0.4,1.3-1.1c0-0.7-0.5-1.1-1.3-1.1h-1.5V174.9z"/>
		</g>
	</g>
	<g id="MTEXT-2">
		<g class="st14">
			<path class="st15" d="M35.6,175.6v2.7h-0.8v-6.4h2.4c1.3,0,2.1,0.6,2.1,1.9c0,1.1-0.6,1.7-1.6,1.8l1.9,2.7h-0.9l-1.8-2.7H35.6z
				 M35.6,174.9h1.5c0.8,0,1.3-0.4,1.3-1.1c0-0.7-0.5-1.1-1.3-1.1h-1.5V174.9z"/>
			<path class="st15" d="M42.4,171.6h0.8l-2.6,7.6h-0.8L42.4,171.6z"/>
			<path class="st15" d="M44,178.3v-6.4h3.9v0.7h-3.1v2.2h2.9v0.7h-2.9v2.8H44z"/>
		</g>
	</g>
	<g id="MTEXT-3">
		<g class="st14">
			<path class="st15" d="M158.8,272.4h2c1.9,0,3.1,1.2,3.1,3.2c0,1.9-1.2,3.2-3.1,3.2h-2V272.4z M160.8,278.1c1.4,0,2.3-1,2.3-2.5
				c0-1.5-0.9-2.5-2.3-2.5h-1.2v4.9H160.8z"/>
		</g>
		<g class="st14">
			<path class="st15" d="M168.6,272.4l1.4,5.1l1.3-5.1h0.8l-1.7,6.4h-0.7l-1.3-5l-1.4,5h-0.7l-1.7-6.4h0.8l1.3,5.1l1.4-5.1H168.6z"
				/>
		</g>
	</g>
	<g id="MTEXT-4">
		<g class="st14">
			<path class="st15" d="M143.1,44.4l1.4,5.1l1.3-5.1h0.8l-1.7,6.4h-0.8l-1.3-5l-1.4,5h-0.7l-1.7-6.4h0.8l1.3,5.1l1.4-5.1H143.1z"/>
		</g>
		<g class="st14">
			<path class="st15" d="M149.2,44.1h0.8l-2.6,7.6h-0.8L149.2,44.1z"/>
			<path class="st15" d="M150.8,44.4h2c1.9,0,3.1,1.2,3.1,3.2c0,1.9-1.2,3.2-3.1,3.2h-2V44.4z M152.8,50.1c1.4,0,2.3-1,2.3-2.5
				c0-1.5-0.9-2.5-2.3-2.5h-1.2v4.9H152.8z"/>
		</g>
	</g>
	<g id="MTEXT-5">
		<g class="st14">
			<path class="st15" d="M73.6,106.6l1.4,5.1l1.3-5.1h0.8l-1.7,6.4h-0.7l-1.3-5l-1.4,5h-0.7l-1.7-6.4h0.8l1.3,5.1l1.4-5.1H73.6z"/>
			<path class="st15" d="M78.9,113H78v-6.4h0.8V113z"/>
			<path class="st15" d="M82.9,106.5c1.3,0,2.2,0.8,2.5,2h-0.8c-0.3-0.7-0.8-1.2-1.7-1.2c-1.2,0-2,1-2,2.5c0,1.5,0.8,2.5,2,2.5
				c0.9,0,1.4-0.5,1.7-1.2h0.8c-0.3,1.2-1.2,2-2.5,2c-1.6,0-2.9-1.3-2.9-3.3C80,107.8,81.3,106.5,82.9,106.5z"/>
		</g>
	</g>
	<g id="MTEXT-6">
		<g class="st14">
			<path class="st15" d="M232.7,2v0.7h-3.3v2h3v0.7h-3v2.2h3.3v0.7h-4.1V2H232.7z"/>
			<path class="st15" d="M238.9,8.4h-0.6l-3.6-5.1v5.1H234V2h0.8l3.4,4.9V2h0.8V8.4z"/>
			<path class="st15" d="M240,2h5.3v0.7H243v5.7h-0.8V2.7H240V2z"/>
		</g>
		<g class="st14">
			<path class="st15" d="M247.2,5.7v2.7h-0.8V2h2.4c1.3,0,2.1,0.6,2.1,1.9c0,1.1-0.6,1.7-1.6,1.8l1.9,2.7h-0.9l-1.8-2.7H247.2z
				 M247.2,5h1.5c0.8,0,1.3-0.4,1.3-1.1c0-0.7-0.5-1.1-1.3-1.1h-1.5V5z"/>
		</g>
		<g class="st14">
			<path class="st15" d="M255.9,2h0.9l-2.3,3.8v2.6h-0.8V5.8L251.4,2h0.9l1.8,3L255.9,2z"/>
		</g>
	</g>
	<polygon class="st15" points="242.8,28.4 249.8,16.2 235.7,16.2 235.7,16.2 	"/>
	<g class="st14">
		<path class="st15" d="M393.5,500l-2-4.9v4.9h-0.8v-6.4h0.9l2.2,5.2l2.2-5.2h0.9v6.4H396v-4.9l-2,4.9H393.5z"/>
	</g>
	<g class="st14">
		<path class="st15" d="M401.1,493.6l2.5,6.4h-0.8L402,498h-2.6l-0.7,1.9h-0.8l2.5-6.4H401.1z M399.6,497.3h2.1l-1-2.7L399.6,497.3z
			"/>
	</g>
	<g class="st14">
		<path class="st15" d="M404.8,498.3c0.2,0.7,0.8,1.1,1.6,1.1c0.8,0,1.4-0.4,1.4-1.1c0-0.5-0.3-0.8-1-1l-1.1-0.3
			c-0.9-0.2-1.5-0.7-1.5-1.6c0-1.1,0.9-1.8,2.1-1.8c1.3,0,2.1,0.7,2.3,1.7h-0.8c-0.2-0.6-0.7-1-1.5-1c-0.8,0-1.3,0.4-1.3,1.1
			c0,0.5,0.4,0.8,1,1l1.1,0.3c1,0.3,1.6,0.8,1.6,1.7c0,1.2-0.9,1.9-2.2,1.9s-2.2-0.6-2.5-1.8H404.8z"/>
	</g>
	<g class="st14">
		<path class="st15" d="M409.2,493.6h5.3v0.7h-2.2v5.7h-0.8v-5.7h-2.2V493.6z"/>
		<path class="st15" d="M419.6,493.6v0.7h-3.3v2h3v0.7h-3v2.2h3.3v0.7h-4.1v-6.4H419.6z"/>
		<path class="st15" d="M421.7,497.3v2.7h-0.8v-6.4h2.4c1.3,0,2.1,0.6,2.1,1.9c0,1.1-0.6,1.7-1.6,1.8l1.9,2.7h-0.9l-1.8-2.7H421.7z
			 M421.7,496.6h1.5c0.8,0,1.3-0.4,1.3-1.1c0-0.7-0.5-1.1-1.3-1.1h-1.5V496.6z"/>
		<path class="st15" d="M433.4,498.2c0,1.2-0.8,1.8-2.1,1.8H429v-6.4h2.1c1.3,0,2.1,0.6,2.1,1.7c0,0.8-0.4,1.2-0.9,1.4
			C432.9,496.8,433.4,497.5,433.4,498.2z M431.1,496.4c0.9,0,1.3-0.3,1.3-1s-0.5-1-1.3-1h-1.3v2.1H431.1z M429.8,499.3h1.5
			c0.9,0,1.3-0.4,1.3-1.1c0-0.7-0.5-1.1-1.3-1.1h-1.5V499.3z"/>
		<path class="st15" d="M438.6,493.6v0.7h-3.3v2h3v0.7h-3v2.2h3.3v0.7h-4.1v-6.4H438.6z"/>
		<path class="st15" d="M439.9,493.6h2c1.9,0,3.1,1.2,3.1,3.2c0,1.9-1.2,3.2-3.1,3.2h-2V493.6z M442,499.2c1.4,0,2.3-1,2.3-2.5
			c0-1.5-0.9-2.5-2.3-2.5h-1.2v4.9H442z"/>
	</g>
	<g class="st14">
		<path class="st15" d="M447,497.3v2.7h-0.8v-6.4h2.4c1.3,0,2.1,0.6,2.1,1.9c0,1.1-0.6,1.7-1.6,1.8l1.9,2.7H450l-1.8-2.7H447z
			 M447,496.6h1.5c0.8,0,1.3-0.4,1.3-1.1c0-0.7-0.5-1.1-1.3-1.1H447V496.6z"/>
	</g>
	<g class="st14">
		<path class="st15" d="M454.4,500.1c-1.7,0-2.9-1.4-2.9-3.3c0-1.9,1.2-3.3,2.9-3.3c1.7,0,2.9,1.4,2.9,3.3
			C457.3,498.7,456.1,500.1,454.4,500.1z M454.4,494.2c-1.2,0-2.1,1.1-2.1,2.5c0,1.5,0.8,2.5,2.1,2.5c1.2,0,2.1-1.1,2.1-2.5
			C456.5,495.3,455.7,494.2,454.4,494.2z"/>
	</g>
	<g class="st14">
		<path class="st15" d="M461,500.1c-1.7,0-2.9-1.4-2.9-3.3c0-1.9,1.2-3.3,2.9-3.3c1.7,0,2.9,1.4,2.9,3.3
			C463.9,498.7,462.7,500.1,461,500.1z M461,494.2c-1.2,0-2.1,1.1-2.1,2.5c0,1.5,0.8,2.5,2.1,2.5c1.2,0,2.1-1.1,2.1-2.5
			C463.1,495.3,462.3,494.2,461,494.2z"/>
		<path class="st15" d="M467.9,500l-2-4.9v4.9h-0.8v-6.4h0.9l2.2,5.2l2.2-5.2h0.9v6.4h-0.8v-4.9l-2,4.9H467.9z"/>
	</g>
	<g class="st14">
		<path class="st15" d="M408.2,511.2h-0.8v-5.4l-1.6,0.8v-0.8l1.9-1h0.5V511.2z"/>
	</g>
	<g class="st14">
		<path class="st15" d="M411.4,505.4c-0.8,0-1.2,0.5-1.2,1.3h-0.8c0.1-1.2,0.9-2,2.1-2c1.2,0,1.9,0.7,1.9,1.8c0,0.8-0.6,1.4-1.3,2.2
			l-1.6,1.8h3v0.7h-4.2v-0.5l2.1-2.3c0.7-0.7,1.2-1.3,1.2-1.9C412.5,505.8,412.1,505.4,411.4,505.4z"/>
	</g>
	<g class="st14">
		<path class="st15" d="M414.7,505.7c-0.3,0-0.5-0.2-0.5-0.5c0-0.3,0.2-0.6,0.6-0.6c0.3,0,0.6,0.2,0.6,0.6c0,0.2-0.1,0.4-0.2,0.7
			l-0.5,0.9h-0.5L414.7,505.7z"/>
	</g>
	<g class="st14">
		<path class="st15" d="M416.1,508.1h2.5v0.7h-2.5V508.1z"/>
	</g>
	<g class="st14">
		<path class="st15" d="M419.5,508c0-1.9,1-3.3,2.4-3.3s2.4,1.3,2.4,3.3c0,1.9-1,3.3-2.4,3.3S419.5,509.9,419.5,508z M420.3,508
			c0,1.5,0.5,2.5,1.6,2.5c1,0,1.6-1.1,1.6-2.5c0-1.5-0.6-2.5-1.6-2.5C420.9,505.4,420.3,506.5,420.3,508z"/>
		<path class="st15" d="M425.1,504.8h0.7v2.3h-0.7V504.8z M426.4,504.8h0.7v2.3h-0.7V504.8z"/>
		<path class="st15" d="M432.5,508.8l1.7,2.4h-0.9l-1.3-1.8l-1.3,1.8h-0.8l1.7-2.4l-1.6-2.3h0.9l1.2,1.7l1.2-1.7h0.9L432.5,508.8z"
			/>
		<path class="st15" d="M439.4,511.2h-0.8v-5.4l-1.6,0.8v-0.8l1.9-1h0.5V511.2z"/>
		<path class="st15" d="M442.8,511.2H442v-5.4l-1.6,0.8v-0.8l1.9-1h0.5V511.2z"/>
		<path class="st15" d="M444,504.8h0.7v2.3H444V504.8z"/>
	</g>
	<g class="st14">
		<path class="st15" d="M445.5,508.1h2.5v0.7h-2.5V508.1z"/>
	</g>
	<g class="st14">
		<path class="st15" d="M450.6,505.4c-0.8,0-1.2,0.5-1.2,1.3h-0.8c0.1-1.2,0.9-2,2.1-2c1.2,0,1.9,0.7,1.9,1.8c0,0.8-0.6,1.4-1.3,2.2
			l-1.6,1.8h3v0.7h-4.2v-0.5l2.1-2.3c0.7-0.7,1.2-1.3,1.2-1.9C451.7,505.8,451.3,505.4,450.6,505.4z"/>
	</g>
	<g class="st14">
		<path class="st15" d="M453.4,504.8h0.7v2.3h-0.7V504.8z M454.6,504.8h0.7v2.3h-0.7V504.8z"/>
	</g>
	<g class="st14">
		<path class="st15" d="M144.4,448.9v-0.7h2.3v0.4c0,1.7-1.1,2.8-2.6,2.8c-1.7,0-2.9-1.3-2.9-3.3s1.3-3.3,2.9-3.3
			c1.4,0,2.3,0.8,2.5,2h-0.8c-0.3-0.7-0.8-1.2-1.7-1.2c-1.2,0-2.1,1-2.1,2.5c0,1.5,0.8,2.6,2.1,2.6c1.1,0,1.8-0.7,1.9-1.8H144.4z"/>
		<path class="st15" d="M148.7,448.6v2.7h-0.8V445h2.4c1.3,0,2.1,0.6,2.1,1.9c0,1.1-0.6,1.7-1.6,1.8l1.9,2.7h-0.9l-1.8-2.7H148.7z
			 M148.7,447.9h1.5c0.8,0,1.3-0.4,1.3-1.1c0-0.7-0.5-1.1-1.3-1.1h-1.5V447.9z"/>
		<path class="st15" d="M157.7,445v0.7h-3.3v2h3v0.7h-3v2.2h3.3v0.7h-4.1V445H157.7z"/>
	</g>
	<g class="st14">
		<path class="st15" d="M161.7,445l2.5,6.4h-0.8l-0.7-1.9H160l-0.7,1.9h-0.8l2.5-6.4H161.7z M160.2,448.7h2.1l-1-2.7L160.2,448.7z"
			/>
	</g>
	<g class="st14">
		<path class="st15" d="M164.1,445h5.3v0.7h-2.2v5.7h-0.8v-5.7h-2.2V445z"/>
	</g>
	<g class="st14">
		<path class="st15" d="M173.6,448.6v2.7h-0.8V445h2.4c1.3,0,2.1,0.6,2.1,1.9c0,1.1-0.6,1.7-1.6,1.8l1.9,2.7h-0.9l-1.8-2.7H173.6z
			 M173.6,447.9h1.5c0.8,0,1.3-0.4,1.3-1.1c0-0.7-0.5-1.1-1.3-1.1h-1.5V447.9z"/>
	</g>
	<g class="st14">
		<path class="st15" d="M181,451.4c-1.7,0-2.9-1.4-2.9-3.3c0-1.9,1.2-3.3,2.9-3.3c1.7,0,2.9,1.4,2.9,3.3
			C183.9,450.1,182.7,451.4,181,451.4z M181,445.6c-1.2,0-2.1,1.1-2.1,2.5c0,1.5,0.8,2.5,2.1,2.5c1.2,0,2.1-1.1,2.1-2.5
			C183.1,446.6,182.2,445.6,181,445.6z"/>
	</g>
	<g class="st14">
		<path class="st15" d="M187.6,451.4c-1.7,0-2.9-1.4-2.9-3.3c0-1.9,1.2-3.3,2.9-3.3c1.7,0,2.9,1.4,2.9,3.3
			C190.5,450.1,189.3,451.4,187.6,451.4z M187.6,445.6c-1.2,0-2.1,1.1-2.1,2.5c0,1.5,0.8,2.5,2.1,2.5c1.2,0,2.1-1.1,2.1-2.5
			C189.7,446.6,188.8,445.6,187.6,445.6z"/>
		<path class="st15" d="M194.4,451.3l-2-4.9v4.9h-0.8V445h0.9l2.2,5.2l2.2-5.2h0.9v6.4H197v-4.9l-2,4.9H194.4z"/>
	</g>
	<g class="st14">
		<path class="st15" d="M147.1,456.8c-0.8,0-1.2,0.5-1.2,1.3H145c0.1-1.2,0.9-2,2.1-2c1.2,0,1.9,0.7,1.9,1.8c0,0.8-0.6,1.4-1.3,2.2
			l-1.6,1.8h3v0.7H145V462l2.1-2.3c0.7-0.7,1.2-1.3,1.2-1.9C148.2,457.2,147.8,456.8,147.1,456.8z"/>
	</g>
	<g class="st14">
		<path class="st15" d="M151.9,456.8c-0.8,0-1.2,0.5-1.2,1.3h-0.8c0.1-1.2,0.9-2,2.1-2c1.2,0,1.9,0.7,1.9,1.8c0,0.8-0.6,1.4-1.3,2.2
			l-1.6,1.8h3v0.7h-4.2V462l2.1-2.3c0.7-0.7,1.2-1.3,1.2-1.9C153,457.2,152.6,456.8,151.9,456.8z"/>
	</g>
	<g class="st14">
		<path class="st15" d="M155.2,457.1c-0.3,0-0.5-0.2-0.5-0.5c0-0.3,0.2-0.6,0.6-0.6c0.3,0,0.6,0.2,0.6,0.6c0,0.2-0.1,0.4-0.2,0.7
			l-0.5,0.9h-0.5L155.2,457.1z"/>
	</g>
	<g class="st14">
		<path class="st15" d="M156.5,459.5h2.5v0.7h-2.5V459.5z"/>
	</g>
	<g class="st14">
		<path class="st15" d="M163.6,457.6c-0.2-0.5-0.5-0.9-1.2-0.9c-0.9,0-1.6,1.1-1.6,2.4c0,0.1,0,0.2,0,0.3c0.2-0.6,0.9-1.1,1.6-1.1
			c1.2,0,2.1,1,2.1,2.1c0,1.2-0.8,2.1-2.1,2.1c-0.8,0-1.5-0.4-1.9-1.2c-0.3-0.6-0.4-1.2-0.4-2c0-2.1,1-3.4,2.3-3.4
			c1.1,0,1.7,0.6,2,1.6H163.6z M162.4,461.9c0.8,0,1.4-0.6,1.4-1.4c0-0.9-0.6-1.5-1.4-1.5c-0.8,0-1.4,0.6-1.4,1.5
			C161,461.3,161.5,461.9,162.4,461.9z"/>
	</g>
	<g class="st14">
		<path class="st15" d="M165.2,456.2h0.7v2.3h-0.7V456.2z M166.4,456.2h0.7v2.3h-0.7V456.2z"/>
		<path class="st15" d="M172.6,460.1l1.7,2.4h-0.9l-1.3-1.8l-1.3,1.8H170l1.7-2.4l-1.6-2.3h0.9l1.2,1.7l1.2-1.7h0.9L172.6,460.1z"/>
		<path class="st15" d="M179.4,462.5h-0.8v-5.4l-1.6,0.8v-0.8l1.9-1h0.5V462.5z"/>
	</g>
	<g class="st14">
		<path class="st15" d="M184.2,457.6c-0.2-0.5-0.5-0.9-1.2-0.9c-0.9,0-1.6,1.1-1.6,2.4c0,0.1,0,0.2,0,0.3c0.2-0.6,0.9-1.1,1.6-1.1
			c1.2,0,2.1,1,2.1,2.1c0,1.2-0.8,2.1-2.1,2.1c-0.8,0-1.5-0.4-1.9-1.2c-0.3-0.6-0.4-1.2-0.4-2c0-2.1,1-3.4,2.3-3.4
			c1.1,0,1.7,0.6,2,1.6H184.2z M182.9,461.9c0.8,0,1.4-0.6,1.4-1.4c0-0.9-0.6-1.5-1.4-1.5c-0.8,0-1.4,0.6-1.4,1.5
			C181.5,461.3,182.1,461.9,182.9,461.9z"/>
	</g>
	<g class="st14">
		<path class="st15" d="M185.8,456.2h0.7v2.3h-0.7V456.2z"/>
	</g>
	<g class="st14">
		<path class="st15" d="M187.3,459.5h2.5v0.7h-2.5V459.5z"/>
	</g>
	<g class="st14">
		<path class="st15" d="M194.3,457.6c-0.2-0.5-0.5-0.9-1.2-0.9c-0.9,0-1.6,1.1-1.6,2.4c0,0.1,0,0.2,0,0.3c0.2-0.6,0.9-1.1,1.6-1.1
			c1.2,0,2.1,1,2.1,2.1c0,1.2-0.8,2.1-2.1,2.1c-0.8,0-1.5-0.4-1.9-1.2c-0.3-0.6-0.4-1.2-0.4-2c0-2.1,1-3.4,2.3-3.4
			c1.1,0,1.7,0.6,2,1.6H194.3z M193.1,461.9c0.8,0,1.4-0.6,1.4-1.4c0-0.9-0.6-1.5-1.4-1.5c-0.8,0-1.4,0.6-1.4,1.5
			C191.7,461.3,192.3,461.9,193.1,461.9z"/>
	</g>
	<g class="st14">
		<path class="st15" d="M195.9,456.2h0.7v2.3h-0.7V456.2z M197.2,456.2h0.7v2.3h-0.7V456.2z"/>
	</g>
	<g class="st14">
		<path class="st15" d="M78,169.7c0.2,0.7,0.8,1.1,1.6,1.1c0.8,0,1.4-0.4,1.4-1.1c0-0.5-0.3-0.8-1-1l-1.1-0.3
			c-0.9-0.2-1.5-0.7-1.5-1.6c0-1.1,0.9-1.8,2.1-1.8c1.3,0,2.1,0.7,2.3,1.7H81c-0.2-0.6-0.7-1-1.5-1c-0.8,0-1.3,0.4-1.3,1.1
			c0,0.5,0.4,0.8,1,1l1.1,0.3c1,0.3,1.6,0.8,1.6,1.7c0,1.2-0.9,1.9-2.2,1.9s-2.2-0.6-2.5-1.8H78z"/>
		<path class="st15" d="M83.8,168.8v2.6H83V165h2.4c1.3,0,2.1,0.7,2.1,1.9c0,1.2-0.8,1.9-2.1,1.9H83.8z M85.3,165.7h-1.6v2.4h1.6
			c0.9,0,1.3-0.5,1.3-1.2C86.7,166.1,86.2,165.7,85.3,165.7z"/>
	</g>
	<g>
		<path class="st15" d="M79.4,176.3c-1.7,0-2.9,1.4-2.9,3.3c0,1.9,1.2,3.3,2.9,3.3c1.7,0,2.9-1.4,2.9-3.3
			C82.3,177.6,81.1,176.3,79.4,176.3z M79.4,182.1c-1.2,0-2.1-1.1-2.1-2.5c0-1.5,0.8-2.5,2.1-2.5c1.2,0,2.1,1.1,2.1,2.5
			C81.5,181.1,80.6,182.1,79.4,182.1z"/>
		<polygon class="st15" points="87.5,176.4 85.5,181.7 83.5,176.4 82.7,176.4 85.1,182.8 85.9,182.8 88.4,176.4 		"/>
	</g>
	<g class="st14">
		<path class="st15" d="M356.9,152.3l-2-4.9v4.9h-0.8v-6.4h0.9l2.2,5.2l2.2-5.2h0.9v6.4h-0.8v-4.9l-2,4.9H356.9z"/>
	</g>
	<g class="st14">
		<path class="st15" d="M364.5,145.9l2.5,6.4h-0.8l-0.7-1.9h-2.6l-0.7,1.9h-0.8l2.5-6.4H364.5z M363,149.6h2.1l-1-2.7L363,149.6z"/>
	</g>
	<g class="st14">
		<path class="st15" d="M368.2,150.6c0.2,0.7,0.8,1.1,1.6,1.1c0.8,0,1.4-0.4,1.4-1.1c0-0.5-0.3-0.8-1-1l-1.1-0.3
			c-0.9-0.2-1.5-0.7-1.5-1.6c0-1.1,0.9-1.8,2.1-1.8c1.3,0,2.1,0.7,2.3,1.7h-0.8c-0.2-0.6-0.7-1-1.5-1c-0.8,0-1.3,0.4-1.3,1.1
			c0,0.5,0.4,0.8,1,1l1.1,0.3c1,0.3,1.6,0.8,1.6,1.7c0,1.2-0.9,1.9-2.2,1.9s-2.2-0.6-2.5-1.8H368.2z"/>
	</g>
	<g class="st14">
		<path class="st15" d="M372.6,145.9h5.3v0.7h-2.2v5.7h-0.8v-5.7h-2.2V145.9z"/>
		<path class="st15" d="M383.1,145.9v0.7h-3.3v2h3v0.7h-3v2.2h3.3v0.7H379v-6.4H383.1z"/>
		<path class="st15" d="M385.2,149.6v2.7h-0.8v-6.4h2.4c1.3,0,2.1,0.6,2.1,1.9c0,1.1-0.6,1.7-1.6,1.8l1.9,2.7h-0.9l-1.8-2.7H385.2z
			 M385.2,148.9h1.5c0.8,0,1.3-0.4,1.3-1.1c0-0.7-0.5-1.1-1.3-1.1h-1.5V148.9z"/>
	</g>
	<g class="st14">
		<path class="st15" d="M364.3,161.7c0,1.2-0.8,1.8-2.1,1.8h-2.3v-6.4h2.1c1.3,0,2.1,0.6,2.1,1.7c0,0.8-0.4,1.2-0.9,1.4
			C363.9,160.3,364.3,161,364.3,161.7z M362,159.9c0.9,0,1.3-0.3,1.3-1s-0.5-1-1.3-1h-1.3v2.1H362z M360.7,162.8h1.5
			c0.9,0,1.3-0.4,1.3-1.1c0-0.7-0.5-1.1-1.3-1.1h-1.5V162.8z"/>
	</g>
	<g class="st14">
		<path class="st15" d="M368.1,157.1l2.5,6.4h-0.8l-0.7-1.9h-2.6l-0.7,1.9h-0.8l2.5-6.4H368.1z M366.7,160.8h2.1l-1-2.7L366.7,160.8
			z"/>
	</g>
	<g class="st14">
		<path class="st15" d="M370.6,157.1h5.3v0.7h-2.2v5.7h-0.8v-5.7h-2.2V157.1z"/>
		<path class="st15" d="M382.2,157.1v6.4h-0.8v-2.9h-3.6v2.9h-0.8v-6.4h0.8v2.7h3.6v-2.7H382.2z"/>
	</g>
</g>
</svg>
