<?xml version="1.0" encoding="utf-8"?>
<!-- Generator: Adobe Illustrator 23.0.0, SVG Export Plug-In . SVG Version: 6.00 Build 0)  -->
<svg version="1.1" id="Layer_1" xmlns="http://www.w3.org/2000/svg" xmlns:xlink="http://www.w3.org/1999/xlink" x="0px" y="0px"
	 viewBox="0 0 810.7 489.3" style="enable-background:new 0 0 810.7 489.3;" xml:space="preserve">
<style type="text/css">
	.st0{fill:none;stroke:#231F20;stroke-width:0.15;stroke-miterlimit:10;}
	.st1{fill:#FFFFFF;stroke:#231F20;stroke-width:0.15;stroke-miterlimit:10;}
	.st2{fill:none;stroke:#231F20;stroke-width:0.35;stroke-linecap:round;stroke-linejoin:round;}
	.st3{fill:#FFFFFF;stroke:#231F20;stroke-width:0.35;stroke-miterlimit:10;}
	.st4{fill:none;stroke:#231F20;stroke-width:0.35;stroke-miterlimit:10;}
	.st5{fill:none;stroke:#000000;stroke-width:0.35;stroke-linecap:round;stroke-linejoin:round;}
	.st6{fill:#FFFFFF;stroke:#000000;stroke-width:0.35;stroke-linecap:round;stroke-linejoin:round;}
	.st7{fill:none;stroke:#231F20;stroke-width:0.25;stroke-linecap:round;stroke-linejoin:round;}
	.st8{fill:none;stroke:#231F20;stroke-width:0.25;stroke-miterlimit:10;}
	.st9{fill:none;stroke:#231F20;stroke-width:0.5;stroke-linecap:round;stroke-linejoin:round;}
	.st10{fill:#FFFFFF;stroke:#231F20;stroke-width:0.25;stroke-miterlimit:10;}
	.st11{fill:none;stroke:#231F20;stroke-width:0.25;stroke-miterlimit:10;stroke-dasharray:2.5;}
	.st12{fill:none;stroke:#000000;stroke-width:0.25;stroke-miterlimit:10;}
	.st13{fill:#FFFFFF;stroke:#000000;stroke-width:0.25;stroke-miterlimit:10;}
	.st14{fill:none;stroke:#00AEEF;stroke-width:0.7;stroke-miterlimit:10;}
	.st15{fill:none;stroke:#231F20;stroke-width:0.5;stroke-miterlimit:10;}
	.st16{fill:none;stroke:#000000;stroke-width:0.5;stroke-miterlimit:10;}
	.st17{fill:#FFFFFF;stroke:#000000;stroke-width:0.5;stroke-miterlimit:10;}
	.st18{fill:#D1D3D4;stroke:#231F20;stroke-width:0.5;stroke-miterlimit:10;}
	.st19{enable-background:new    ;}
	.st20{fill:#231F20;}
</style>
<title>Artboard 1</title>
<g id="FLOOR_PATTERN">
	<g id="LINE">
		<line class="st0" x1="178.2" y1="252.5" x2="182.5" y2="248.2"/>
	</g>
	<g id="LINE-2">
		<line class="st0" x1="215.2" y1="215.5" x2="219.1" y2="211.6"/>
	</g>
	<g id="LINE-3">
		<line class="st0" x1="178.2" y1="264.2" x2="195.8" y2="246.6"/>
	</g>
	<g id="LINE-4">
		<line class="st0" x1="215.2" y1="227.2" x2="219.1" y2="223.3"/>
	</g>
	<g id="LINE-5">
		<line class="st0" x1="178.2" y1="275.9" x2="207.4" y2="246.6"/>
	</g>
	<g id="LINE-6">
		<line class="st0" x1="215.2" y1="238.8" x2="219.1" y2="235"/>
	</g>
	<g id="LINE-7">
		<line class="st0" x1="178.2" y1="287.5" x2="211.6" y2="254.1"/>
	</g>
	<g id="LINE-8">
		<line class="st0" x1="215.2" y1="250.5" x2="219.1" y2="246.6"/>
	</g>
	<g id="LINE-9">
		<line class="st0" x1="178.2" y1="299.2" x2="219.1" y2="258.3"/>
	</g>
	<g id="LINE-10">
		<line class="st0" x1="178.2" y1="310.9" x2="219.1" y2="270"/>
	</g>
	<g id="LINE-11">
		<line class="st0" x1="178.2" y1="322.5" x2="219.1" y2="281.6"/>
	</g>
	<g id="LINE-12">
		<line class="st0" x1="185.1" y1="327.3" x2="219.1" y2="293.3"/>
	</g>
	<g id="LINE-13">
		<line class="st0" x1="190" y1="334.1" x2="219.1" y2="305"/>
	</g>
	<g id="LINE-14">
		<line class="st0" x1="178.2" y1="357.5" x2="219.1" y2="316.6"/>
	</g>
	<g id="LINE-15">
		<line class="st0" x1="184.5" y1="362.9" x2="219.1" y2="328.3"/>
	</g>
	<g id="LINE-16">
		<line class="st0" x1="189.7" y1="369.4" x2="219.1" y2="340"/>
	</g>
	<g id="LINE-17">
		<line class="st0" x1="178.2" y1="392.5" x2="219.1" y2="351.7"/>
	</g>
	<g id="LINE-18">
		<line class="st0" x1="178.2" y1="404.2" x2="219.1" y2="363.3"/>
	</g>
	<g id="LINE-19">
		<line class="st0" x1="178.2" y1="415.9" x2="219.1" y2="375"/>
	</g>
	<g id="LINE-20">
		<line class="st0" x1="178.8" y1="427" x2="198.7" y2="407"/>
	</g>
	<g id="LINE-21">
		<line class="st0" x1="215.2" y1="390.5" x2="219.1" y2="386.7"/>
	</g>
	<g id="LINE-22">
		<line class="st0" x1="205" y1="400.8" x2="207.7" y2="398"/>
	</g>
	<g id="LINE-23">
		<line class="st0" x1="189.8" y1="427.6" x2="190.1" y2="427.3"/>
	</g>
	<g id="LINE-24">
		<line class="st0" x1="195.6" y1="421.8" x2="198.1" y2="419.3"/>
	</g>
	<g id="LINE-25">
		<line class="st0" x1="96.5" y1="252.5" x2="102.3" y2="246.6"/>
	</g>
	<g id="LINE-26">
		<line class="st0" x1="96.5" y1="264.2" x2="114" y2="246.6"/>
	</g>
	<g id="LINE-27">
		<line class="st0" x1="96.5" y1="275.9" x2="125.7" y2="246.6"/>
	</g>
	<g id="LINE-28">
		<line class="st0" x1="96.5" y1="287.5" x2="137.3" y2="246.6"/>
	</g>
	<g id="LINE-29">
		<line class="st0" x1="96.5" y1="299.2" x2="137.3" y2="258.3"/>
	</g>
	<g id="LINE-30">
		<line class="st0" x1="96.5" y1="310.9" x2="137.3" y2="270"/>
	</g>
	<g id="LINE-31">
		<line class="st0" x1="96.5" y1="322.5" x2="137.3" y2="281.6"/>
	</g>
	<g id="LINE-32">
		<line class="st0" x1="96.5" y1="334.2" x2="117.8" y2="312.9"/>
	</g>
	<g id="LINE-33">
		<line class="st0" x1="124" y1="306.6" x2="137.3" y2="293.3"/>
	</g>
	<g id="LINE-34">
		<line class="st0" x1="96.5" y1="345.9" x2="117.8" y2="324.6"/>
	</g>
	<g id="LINE-35">
		<line class="st0" x1="135.7" y1="306.6" x2="137.3" y2="305"/>
	</g>
	<g id="LINE-36">
		<line class="st0" x1="96.5" y1="357.5" x2="117.8" y2="336.2"/>
	</g>
	<g id="LINE-37">
		<line class="st0" x1="96.5" y1="369.2" x2="117.8" y2="347.9"/>
	</g>
	<g id="LINE-38">
		<line class="st0" x1="96.5" y1="380.9" x2="117.8" y2="359.6"/>
	</g>
	<g id="LINE-39">
		<line class="st0" x1="96.5" y1="392.5" x2="117.8" y2="371.2"/>
	</g>
	<g id="LINE-40">
		<line class="st0" x1="96.5" y1="404.2" x2="117.8" y2="382.9"/>
	</g>
	<g id="LINE-41">
		<line class="st0" x1="96.5" y1="415.9" x2="117.8" y2="394.6"/>
	</g>
	<g id="LINE-42">
		<line class="st0" x1="101.5" y1="422.5" x2="122.8" y2="401.2"/>
	</g>
	<g id="LINE-43">
		<line class="st0" x1="112.5" y1="423.1" x2="134.5" y2="401.2"/>
	</g>
	<g id="LINE-44">
		<line class="st0" x1="123.6" y1="423.8" x2="137.3" y2="410"/>
	</g>
	<g id="LINE-45">
		<line class="st0" x1="134.6" y1="424.4" x2="137.3" y2="421.7"/>
	</g>
	<g id="LINE-46">
		<line class="st0" x1="26.2" y1="404.4" x2="27.6" y2="403"/>
	</g>
	<g id="LINE-47">
		<line class="st0" x1="25.5" y1="416.8" x2="39.3" y2="403"/>
	</g>
	<g id="LINE-48">
		<line class="st0" x1="35.2" y1="418.7" x2="50.9" y2="403"/>
	</g>
	<g id="LINE-49">
		<line class="st0" x1="46.2" y1="419.3" x2="55.6" y2="410"/>
	</g>
	<g id="LINE-50">
		<line class="st0" x1="90.6" y1="246.6" x2="96.5" y2="252.5"/>
	</g>
	<g id="LINE-51">
		<line class="st0" x1="78.9" y1="246.6" x2="96.5" y2="264.2"/>
	</g>
	<g id="LINE-52">
		<line class="st0" x1="67.3" y1="246.6" x2="96.5" y2="275.9"/>
	</g>
	<g id="LINE-53">
		<line class="st0" x1="57.7" y1="248.8" x2="96.5" y2="287.5"/>
	</g>
	<g id="LINE-54">
		<line class="st0" x1="57.7" y1="260.5" x2="96.5" y2="299.2"/>
	</g>
	<g id="LINE-55">
		<line class="st0" x1="57.7" y1="272.1" x2="96.5" y2="310.9"/>
	</g>
	<g id="LINE-56">
		<line class="st0" x1="57.7" y1="283.8" x2="96.5" y2="322.5"/>
	</g>
	<g id="LINE-57">
		<line class="st0" x1="57.7" y1="295.5" x2="96.5" y2="334.2"/>
	</g>
	<g id="LINE-58">
		<line class="st0" x1="57.7" y1="307.1" x2="96.5" y2="345.9"/>
	</g>
	<g id="LINE-59">
		<line class="st0" x1="57.7" y1="318.8" x2="96.5" y2="357.5"/>
	</g>
	<g id="LINE-60">
		<line class="st0" x1="57.7" y1="330.5" x2="96.5" y2="369.2"/>
	</g>
	<g id="LINE-61">
		<line class="st0" x1="57.7" y1="342.1" x2="96.5" y2="380.9"/>
	</g>
	<g id="LINE-62">
		<line class="st0" x1="57.7" y1="353.8" x2="96.5" y2="392.5"/>
	</g>
	<g id="LINE-63">
		<line class="st0" x1="57.7" y1="365.5" x2="58.4" y2="366.1"/>
	</g>
	<g id="LINE-64">
		<line class="st0" x1="59.2" y1="367" x2="96.5" y2="404.2"/>
	</g>
	<g id="LINE-65">
		<line class="st0" x1="59.2" y1="378.6" x2="96.5" y2="415.9"/>
	</g>
	<g id="LINE-66">
		<line class="st0" x1="59.2" y1="390.3" x2="90.8" y2="421.9"/>
	</g>
	<g id="LINE-67">
		<line class="st0" x1="58.5" y1="401.3" x2="78.5" y2="421.2"/>
	</g>
	<g id="LINE-68">
		<line class="st0" x1="55.6" y1="410" x2="66.1" y2="420.5"/>
	</g>
	<g id="LINE-69">
		<line class="st0" x1="173.9" y1="248.2" x2="178.2" y2="252.5"/>
	</g>
	<g id="LINE-70">
		<line class="st0" x1="160.7" y1="246.6" x2="178.2" y2="264.2"/>
	</g>
	<g id="LINE-71">
		<line class="st0" x1="149" y1="246.6" x2="178.2" y2="275.9"/>
	</g>
	<g id="LINE-72">
		<line class="st0" x1="137.3" y1="246.6" x2="178.2" y2="287.5"/>
	</g>
	<g id="LINE-73">
		<line class="st0" x1="137.3" y1="258.3" x2="178.2" y2="299.2"/>
	</g>
	<g id="LINE-74">
		<line class="st0" x1="137.3" y1="270" x2="174" y2="306.6"/>
	</g>
	<g id="LINE-75">
		<line class="st0" x1="177.8" y1="310.4" x2="178.2" y2="310.9"/>
	</g>
	<g id="LINE-76">
		<line class="st0" x1="137.3" y1="281.6" x2="162.3" y2="306.6"/>
	</g>
	<g id="LINE-77">
		<line class="st0" x1="177.8" y1="322.1" x2="178.2" y2="322.5"/>
	</g>
	<g id="LINE-78">
		<line class="st0" x1="137.3" y1="293.3" x2="150.7" y2="306.6"/>
	</g>
	<g id="LINE-79">
		<line class="st0" x1="137.3" y1="305" x2="139" y2="306.6"/>
	</g>
	<g id="LINE-80">
		<line class="st0" x1="177.8" y1="392.1" x2="178.2" y2="392.5"/>
	</g>
	<g id="LINE-81">
		<line class="st0" x1="175.2" y1="401.2" x2="178.2" y2="404.2"/>
	</g>
	<g id="LINE-82">
		<line class="st0" x1="163.5" y1="401.2" x2="178.2" y2="415.9"/>
	</g>
	<g id="LINE-83">
		<line class="st0" x1="151.9" y1="401.2" x2="177.6" y2="426.9"/>
	</g>
	<g id="LINE-84">
		<line class="st0" x1="140.2" y1="401.2" x2="165.2" y2="426.2"/>
	</g>
	<g id="LINE-85">
		<line class="st0" x1="137.3" y1="410" x2="152.8" y2="425.5"/>
	</g>
	<g id="LINE-86">
		<line class="st0" x1="137.3" y1="421.7" x2="140.4" y2="424.8"/>
	</g>
	<g id="LINE-87">
		<line class="st0" x1="563.3" y1="421.3" x2="563.3" y2="232.9"/>
	</g>
	<g id="LINE-88">
		<line class="st0" x1="571.6" y1="449.3" x2="571.6" y2="232.9"/>
	</g>
	<g id="LINE-89">
		<line class="st0" x1="579.8" y1="449.7" x2="579.8" y2="440.7"/>
	</g>
	<g id="LINE-90">
		<line class="st0" x1="579.8" y1="410.4" x2="579.8" y2="232.9"/>
	</g>
	<g id="LINE-91">
		<line class="st0" x1="588.1" y1="450.2" x2="588.1" y2="445.1"/>
	</g>
	<g id="LINE-92">
		<line class="st0" x1="588.1" y1="401.7" x2="588.1" y2="232.9"/>
	</g>
	<g id="LINE-93">
		<line class="st0" x1="596.3" y1="450.7" x2="596.3" y2="445.6"/>
	</g>
	<g id="LINE-94">
		<line class="st0" x1="596.3" y1="396.6" x2="596.3" y2="232.9"/>
	</g>
	<g id="LINE-95">
		<line class="st0" x1="604.6" y1="451.2" x2="604.6" y2="442.3"/>
	</g>
	<g id="LINE-96">
		<line class="st0" x1="604.6" y1="405" x2="604.6" y2="232.9"/>
	</g>
	<g id="LINE-97">
		<line class="st0" x1="612.8" y1="451.6" x2="612.8" y2="435.1"/>
	</g>
	<g id="LINE-98">
		<line class="st0" x1="612.8" y1="413.4" x2="612.8" y2="232.9"/>
	</g>
	<g id="LINE-99">
		<line class="st0" x1="621.1" y1="452.1" x2="621.1" y2="443.5"/>
	</g>
	<g id="LINE-100">
		<line class="st0" x1="621.1" y1="421.8" x2="621.1" y2="232.9"/>
	</g>
	<g id="LINE-101">
		<line class="st0" x1="621.1" y1="437.6" x2="621.1" y2="427.5"/>
	</g>
	<g id="LINE-102">
		<line class="st0" x1="629.3" y1="452.6" x2="629.3" y2="449.6"/>
	</g>
	<g id="LINE-103">
		<line class="st0" x1="629.3" y1="431.6" x2="629.3" y2="232.9"/>
	</g>
	<g id="LINE-104">
		<line class="st0" x1="637.6" y1="453.1" x2="637.6" y2="444.7"/>
	</g>
	<g id="LINE-105">
		<line class="st0" x1="637.6" y1="282.5" x2="637.6" y2="232.9"/>
	</g>
	<g id="LINE-106">
		<line class="st0" x1="637.6" y1="436.4" x2="637.6" y2="372.5"/>
	</g>
	<g id="LINE-107">
		<line class="st0" x1="645.8" y1="453.5" x2="645.8" y2="372.5"/>
	</g>
	<g id="LINE-108">
		<line class="st0" x1="645.8" y1="282.5" x2="645.8" y2="231.1"/>
	</g>
	<g id="LINE-109">
		<line class="st0" x1="654.1" y1="454" x2="654.1" y2="372.5"/>
	</g>
	<g id="LINE-110">
		<line class="st0" x1="654.1" y1="282.5" x2="654.1" y2="232.9"/>
	</g>
	<g id="LINE-111">
		<line class="st0" x1="662.3" y1="454.5" x2="662.3" y2="232.9"/>
	</g>
	<g id="LINE-112">
		<line class="st0" x1="670.6" y1="455" x2="670.6" y2="361.2"/>
	</g>
	<g id="LINE-113">
		<line class="st0" x1="670.6" y1="300.7" x2="670.6" y2="232.9"/>
	</g>
	<g id="LINE-114">
		<line class="st0" x1="678.8" y1="455.4" x2="678.8" y2="383.7"/>
	</g>
	<g id="LINE-115">
		<line class="st0" x1="678.8" y1="271.2" x2="678.8" y2="232.9"/>
	</g>
	<g id="LINE-116">
		<line class="st0" x1="687.1" y1="455.9" x2="687.1" y2="383.7"/>
	</g>
	<g id="LINE-117">
		<line class="st0" x1="687.1" y1="271.2" x2="687.1" y2="232.9"/>
	</g>
	<g id="LINE-118">
		<line class="st0" x1="695.3" y1="456.4" x2="695.3" y2="383.7"/>
	</g>
	<g id="LINE-119">
		<line class="st0" x1="695.3" y1="271.2" x2="695.3" y2="232.9"/>
	</g>
	<g id="LINE-120">
		<line class="st0" x1="703.6" y1="456.9" x2="703.6" y2="383.7"/>
	</g>
	<g id="LINE-121">
		<line class="st0" x1="703.6" y1="271.2" x2="703.6" y2="232.9"/>
	</g>
	<g id="LINE-122">
		<line class="st0" x1="711.8" y1="457.3" x2="711.8" y2="383.7"/>
	</g>
	<g id="LINE-123">
		<line class="st0" x1="711.8" y1="271.2" x2="711.8" y2="232.9"/>
	</g>
	<g id="LINE-124">
		<line class="st0" x1="720.1" y1="457.8" x2="720.1" y2="383.7"/>
	</g>
	<g id="LINE-125">
		<line class="st0" x1="720.1" y1="271.2" x2="720.1" y2="232.9"/>
	</g>
	<g id="LINE-126">
		<line class="st0" x1="728.3" y1="458.3" x2="728.3" y2="383.7"/>
	</g>
	<g id="LINE-127">
		<line class="st0" x1="728.3" y1="271.2" x2="728.3" y2="232.9"/>
	</g>
	<g id="LINE-128">
		<line class="st0" x1="736.6" y1="431.2" x2="736.6" y2="383.7"/>
	</g>
	<g id="LINE-129">
		<line class="st0" x1="736.6" y1="271.2" x2="736.6" y2="232.9"/>
	</g>
	<g id="LINE-130">
		<line class="st0" x1="744.8" y1="431.7" x2="744.8" y2="383.7"/>
	</g>
	<g id="LINE-131">
		<line class="st0" x1="744.8" y1="271.2" x2="744.8" y2="232.9"/>
	</g>
	<g id="LINE-132">
		<line class="st0" x1="753.1" y1="432.2" x2="753.1" y2="383.7"/>
	</g>
	<g id="LINE-133">
		<line class="st0" x1="753.1" y1="271.2" x2="753.1" y2="232.9"/>
	</g>
	<g id="LINE-134">
		<line class="st0" x1="761.3" y1="432.6" x2="761.3" y2="383.7"/>
	</g>
	<g id="LINE-135">
		<line class="st0" x1="761.3" y1="271.2" x2="761.3" y2="232.9"/>
	</g>
	<g id="LINE-136">
		<line class="st0" x1="769.6" y1="422.5" x2="769.6" y2="418.2"/>
	</g>
	<g id="LINE-137">
		<line class="st0" x1="769.6" y1="236.7" x2="769.6" y2="232.9"/>
	</g>
	<g id="LINE-138">
		<line class="st0" x1="769.6" y1="388.2" x2="769.6" y2="383.7"/>
	</g>
	<g id="LINE-139">
		<line class="st0" x1="769.6" y1="271.2" x2="769.6" y2="266.7"/>
	</g>
	<g id="LINE-140">
		<line class="st0" x1="777.8" y1="423" x2="777.8" y2="418.2"/>
	</g>
	<g id="LINE-141">
		<line class="st0" x1="777.8" y1="236.7" x2="777.8" y2="232.9"/>
	</g>
	<g id="LINE-142">
		<line class="st0" x1="777.8" y1="388.2" x2="777.8" y2="383.7"/>
	</g>
	<g id="LINE-143">
		<line class="st0" x1="777.8" y1="271.2" x2="777.8" y2="266.7"/>
	</g>
	<g id="LINE-144">
		<line class="st0" x1="786.1" y1="423.5" x2="786.1" y2="418.2"/>
	</g>
	<g id="LINE-145">
		<line class="st0" x1="786.1" y1="236.7" x2="786.1" y2="232.9"/>
	</g>
	<g id="LINE-146">
		<line class="st0" x1="786.1" y1="388.2" x2="786.1" y2="383.7"/>
	</g>
	<g id="LINE-147">
		<line class="st0" x1="786.1" y1="271.2" x2="786.1" y2="266.7"/>
	</g>
	<g id="LINE-148">
		<line class="st0" x1="794.3" y1="424.1" x2="794.3" y2="232.9"/>
	</g>
	<g id="LINE-149">
		<line class="st0" x1="487.4" y1="48" x2="487.4" y2="48"/>
	</g>
	<g id="LINE-150">
		<line class="st0" x1="475.7" y1="48" x2="487.4" y2="59.7"/>
	</g>
	<g id="LINE-151">
		<line class="st0" x1="464.3" y1="48.3" x2="487.4" y2="71.4"/>
	</g>
	<g id="LINE-152">
		<line class="st0" x1="464.3" y1="60" x2="487.4" y2="83"/>
	</g>
	<g id="LINE-153">
		<line class="st0" x1="464.3" y1="71.6" x2="487.4" y2="94.7"/>
	</g>
	<g id="LINE-154">
		<line class="st0" x1="464.3" y1="83.3" x2="487.4" y2="106.4"/>
	</g>
	<g id="LINE-155">
		<line class="st0" x1="464.3" y1="95" x2="487.4" y2="118"/>
	</g>
	<g id="LINE-156">
		<line class="st0" x1="464.3" y1="106.6" x2="487.4" y2="129.7"/>
	</g>
	<g id="LINE-157">
		<line class="st0" x1="464.3" y1="118.3" x2="487.4" y2="141.4"/>
	</g>
	<g id="LINE-158">
		<line class="st0" x1="464.3" y1="130" x2="487.4" y2="153"/>
	</g>
	<g id="LINE-159">
		<line class="st0" x1="464.3" y1="141.6" x2="487.4" y2="164.7"/>
	</g>
	<g id="LINE-160">
		<line class="st0" x1="464.3" y1="153.3" x2="487.4" y2="176.3"/>
	</g>
	<g id="LINE-161">
		<line class="st0" x1="464.3" y1="165" x2="487.4" y2="188"/>
	</g>
	<g id="LINE-162">
		<line class="st0" x1="464.3" y1="176.6" x2="482.9" y2="195.2"/>
	</g>
	<g id="LINE-163">
		<line class="st0" x1="492.4" y1="204.6" x2="496.4" y2="208.7"/>
	</g>
	<g id="LINE-164">
		<line class="st0" x1="464.3" y1="188.3" x2="496.4" y2="220.4"/>
	</g>
	<g id="LINE-165">
		<line class="st0" x1="464.3" y1="200" x2="496.4" y2="232"/>
	</g>
	<g id="LINE-166">
		<line class="st0" x1="464.3" y1="211.6" x2="496.4" y2="243.7"/>
	</g>
	<g id="LINE-167">
		<line class="st0" x1="464.3" y1="223.3" x2="496.4" y2="255.4"/>
	</g>
	<g id="LINE-168">
		<line class="st0" x1="464.3" y1="235" x2="496.4" y2="267"/>
	</g>
	<g id="LINE-169">
		<line class="st0" x1="499.7" y1="270.4" x2="505.2" y2="275.9"/>
	</g>
	<g id="LINE-170">
		<line class="st0" x1="464.3" y1="246.6" x2="505.2" y2="287.5"/>
	</g>
	<g id="LINE-171">
		<line class="st0" x1="464.3" y1="258.3" x2="505.2" y2="299.2"/>
	</g>
	<g id="LINE-172">
		<line class="st0" x1="464.3" y1="270" x2="505.2" y2="310.9"/>
	</g>
	<g id="LINE-173">
		<line class="st0" x1="464.3" y1="281.6" x2="505.2" y2="322.5"/>
	</g>
	<g id="LINE-174">
		<line class="st0" x1="464.3" y1="293.3" x2="505.2" y2="334.2"/>
	</g>
	<g id="LINE-175">
		<line class="st0" x1="464.3" y1="305" x2="505.2" y2="345.9"/>
	</g>
	<g id="LINE-176">
		<line class="st0" x1="464.3" y1="316.6" x2="505.2" y2="357.5"/>
	</g>
	<g id="LINE-177">
		<line class="st0" x1="464.3" y1="328.3" x2="505.2" y2="369.2"/>
	</g>
	<g id="LINE-178">
		<line class="st0" x1="464.3" y1="340" x2="505.2" y2="380.9"/>
	</g>
	<g id="LINE-179">
		<line class="st0" x1="464.3" y1="351.7" x2="497" y2="384.4"/>
	</g>
	<g id="LINE-180">
		<line class="st0" x1="464.3" y1="363.3" x2="496.4" y2="395.4"/>
	</g>
	<g id="LINE-181">
		<line class="st0" x1="464.3" y1="375" x2="496.4" y2="407"/>
	</g>
	<g id="LINE-182">
		<line class="st0" x1="464.3" y1="386.7" x2="495" y2="417.3"/>
	</g>
	<g id="LINE-183">
		<line class="st0" x1="464.3" y1="398.3" x2="482.6" y2="416.6"/>
	</g>
	<g id="LINE-184">
		<line class="st0" x1="464.3" y1="410" x2="470.2" y2="415.9"/>
	</g>
	<g id="LINE-185">
		<line class="st0" x1="260" y1="205.9" x2="261.2" y2="204.6"/>
	</g>
	<g id="LINE-186">
		<line class="st0" x1="260" y1="217.5" x2="272.8" y2="204.6"/>
	</g>
	<g id="LINE-187">
		<line class="st0" x1="260" y1="229.2" x2="284.5" y2="204.6"/>
	</g>
	<g id="LINE-188">
		<line class="st0" x1="260" y1="240.9" x2="296.2" y2="204.6"/>
	</g>
	<g id="LINE-189">
		<line class="st0" x1="260" y1="252.5" x2="300.8" y2="211.6"/>
	</g>
	<g id="LINE-190">
		<line class="st0" x1="260" y1="264.2" x2="300.8" y2="223.3"/>
	</g>
	<g id="LINE-191">
		<line class="st0" x1="260" y1="275.9" x2="300.8" y2="235"/>
	</g>
	<g id="LINE-192">
		<line class="st0" x1="262.5" y1="285" x2="300.8" y2="246.6"/>
	</g>
	<g id="LINE-193">
		<line class="st0" x1="280.2" y1="279" x2="300.8" y2="258.3"/>
	</g>
	<g id="LINE-194">
		<line class="st0" x1="286.8" y1="284" x2="300.8" y2="270"/>
	</g>
	<g id="LINE-195">
		<line class="st0" x1="292.3" y1="290.2" x2="300.8" y2="281.6"/>
	</g>
	<g id="LINE-196">
		<line class="st0" x1="287.5" y1="306.7" x2="300.8" y2="293.3"/>
	</g>
	<g id="LINE-197">
		<line class="st0" x1="288.9" y1="316.9" x2="300.8" y2="305"/>
	</g>
	<g id="LINE-198">
		<line class="st0" x1="260" y1="357.5" x2="269.4" y2="348.1"/>
	</g>
	<g id="LINE-199">
		<line class="st0" x1="289.5" y1="328" x2="300.8" y2="316.6"/>
	</g>
	<g id="LINE-200">
		<line class="st0" x1="260" y1="369.2" x2="275.2" y2="354"/>
	</g>
	<g id="LINE-201">
		<line class="st0" x1="295.4" y1="333.8" x2="300.8" y2="328.3"/>
	</g>
	<g id="LINE-202">
		<line class="st0" x1="260" y1="380.9" x2="300.8" y2="340"/>
	</g>
	<g id="LINE-203">
		<line class="st0" x1="260" y1="392.5" x2="300.8" y2="351.7"/>
	</g>
	<g id="LINE-204">
		<line class="st0" x1="260.3" y1="403.9" x2="300.8" y2="363.3"/>
	</g>
	<g id="LINE-205">
		<line class="st0" x1="271.3" y1="404.5" x2="300.8" y2="375"/>
	</g>
	<g id="LINE-206">
		<line class="st0" x1="282.4" y1="405.1" x2="300.8" y2="386.7"/>
	</g>
	<g id="LINE-207">
		<line class="st0" x1="293.4" y1="405.8" x2="300.8" y2="398.3"/>
	</g>
	<g id="LINE-208">
		<line class="st0" x1="297.6" y1="413.2" x2="300.8" y2="410"/>
	</g>
	<g id="LINE-209">
		<line class="st0" x1="296.9" y1="425.6" x2="300.8" y2="421.7"/>
	</g>
	<g id="LINE-210">
		<line class="st0" x1="300.4" y1="433.8" x2="300.8" y2="433.3"/>
	</g>
	<g id="LINE-211">
		<line class="st0" x1="423.5" y1="54.2" x2="429.6" y2="48"/>
	</g>
	<g id="LINE-212">
		<line class="st0" x1="423.5" y1="65.8" x2="441.3" y2="48"/>
	</g>
	<g id="LINE-213">
		<line class="st0" x1="423.5" y1="77.5" x2="453" y2="48"/>
	</g>
	<g id="LINE-214">
		<line class="st0" x1="423.5" y1="89.2" x2="464.3" y2="48.3"/>
	</g>
	<g id="LINE-215">
		<line class="st0" x1="423.5" y1="100.8" x2="464.3" y2="60"/>
	</g>
	<g id="LINE-216">
		<line class="st0" x1="423.5" y1="112.5" x2="464.3" y2="71.6"/>
	</g>
	<g id="LINE-217">
		<line class="st0" x1="423.5" y1="124.2" x2="464.3" y2="83.3"/>
	</g>
	<g id="LINE-218">
		<line class="st0" x1="423.5" y1="135.9" x2="464.3" y2="95"/>
	</g>
	<g id="LINE-219">
		<line class="st0" x1="423.5" y1="147.5" x2="464.3" y2="106.6"/>
	</g>
	<g id="LINE-220">
		<line class="st0" x1="423.5" y1="159.2" x2="464.3" y2="118.3"/>
	</g>
	<g id="LINE-221">
		<line class="st0" x1="423.5" y1="170.9" x2="464.3" y2="130"/>
	</g>
	<g id="LINE-222">
		<line class="st0" x1="423.5" y1="182.5" x2="464.3" y2="141.6"/>
	</g>
	<g id="LINE-223">
		<line class="st0" x1="423.5" y1="194.2" x2="464.3" y2="153.3"/>
	</g>
	<g id="LINE-224">
		<line class="st0" x1="423.5" y1="205.9" x2="464.3" y2="165"/>
	</g>
	<g id="LINE-225">
		<line class="st0" x1="423.5" y1="217.5" x2="464.3" y2="176.6"/>
	</g>
	<g id="LINE-226">
		<line class="st0" x1="423.5" y1="229.2" x2="464.3" y2="188.3"/>
	</g>
	<g id="LINE-227">
		<line class="st0" x1="423.5" y1="240.9" x2="464.3" y2="200"/>
	</g>
	<g id="LINE-228">
		<line class="st0" x1="425.4" y1="250.6" x2="464.3" y2="211.6"/>
	</g>
	<g id="LINE-229">
		<line class="st0" x1="435" y1="252.6" x2="464.3" y2="223.3"/>
	</g>
	<g id="LINE-230">
		<line class="st0" x1="441.6" y1="257.7" x2="464.3" y2="235"/>
	</g>
	<g id="LINE-231">
		<line class="st0" x1="445.6" y1="265.4" x2="464.3" y2="246.6"/>
	</g>
	<g id="LINE-232">
		<line class="st0" x1="423.5" y1="299.2" x2="427.7" y2="295"/>
	</g>
	<g id="LINE-233">
		<line class="st0" x1="445.3" y1="277.4" x2="464.3" y2="258.3"/>
	</g>
	<g id="LINE-234">
		<line class="st0" x1="423.5" y1="310.9" x2="436.4" y2="297.9"/>
	</g>
	<g id="LINE-235">
		<line class="st0" x1="440.4" y1="294" x2="464.3" y2="270"/>
	</g>
	<g id="LINE-236">
		<line class="st0" x1="423.5" y1="322.5" x2="464.3" y2="281.6"/>
	</g>
	<g id="LINE-237">
		<line class="st0" x1="429.2" y1="328.5" x2="464.3" y2="293.3"/>
	</g>
	<g id="LINE-238">
		<line class="st0" x1="433" y1="336.4" x2="464.3" y2="305"/>
	</g>
	<g id="LINE-239">
		<line class="st0" x1="423.5" y1="357.5" x2="464.3" y2="316.6"/>
	</g>
	<g id="LINE-240">
		<line class="st0" x1="423.5" y1="369.2" x2="464.3" y2="328.3"/>
	</g>
	<g id="LINE-241">
		<line class="st0" x1="425.6" y1="378.7" x2="464.3" y2="340"/>
	</g>
	<g id="LINE-242">
		<line class="st0" x1="436.6" y1="379.4" x2="464.3" y2="351.7"/>
	</g>
	<g id="LINE-243">
		<line class="st0" x1="439.6" y1="388.1" x2="464.3" y2="363.3"/>
	</g>
	<g id="LINE-244">
		<line class="st0" x1="438.9" y1="400.5" x2="464.3" y2="375"/>
	</g>
	<g id="LINE-245">
		<line class="st0" x1="438.1" y1="412.9" x2="464.3" y2="386.7"/>
	</g>
	<g id="LINE-246">
		<line class="st0" x1="423.5" y1="439.2" x2="429.6" y2="433.1"/>
	</g>
	<g id="LINE-247">
		<line class="st0" x1="437.4" y1="425.2" x2="464.3" y2="398.3"/>
	</g>
	<g id="LINE-248">
		<line class="st0" x1="432.9" y1="441.4" x2="464.3" y2="410"/>
	</g>
	<g id="LINE-249">
		<line class="st0" x1="443.9" y1="442.1" x2="462.3" y2="423.7"/>
	</g>
	<g id="LINE-250">
		<line class="st0" x1="455" y1="442.7" x2="461.6" y2="436.1"/>
	</g>
	<g id="LINE-251">
		<line class="st0" x1="505.2" y1="277.4" x2="512.2" y2="270.4"/>
	</g>
	<g id="LINE-252">
		<line class="st0" x1="505.2" y1="289" x2="523.9" y2="270.4"/>
	</g>
	<g id="LINE-253">
		<line class="st0" x1="505.2" y1="300.7" x2="535.5" y2="270.4"/>
	</g>
	<g id="LINE-254">
		<line class="st0" x1="505.2" y1="312.4" x2="547.2" y2="270.4"/>
	</g>
	<g id="LINE-255">
		<line class="st0" x1="505.2" y1="324" x2="547.6" y2="281.6"/>
	</g>
	<g id="LINE-256">
		<line class="st0" x1="505.2" y1="335.7" x2="547.6" y2="293.3"/>
	</g>
	<g id="LINE-257">
		<line class="st0" x1="505.2" y1="347.4" x2="547.6" y2="305"/>
	</g>
	<g id="LINE-258">
		<line class="st0" x1="505.2" y1="359" x2="547.6" y2="316.6"/>
	</g>
	<g id="LINE-259">
		<line class="st0" x1="505.2" y1="370.7" x2="547.6" y2="328.3"/>
	</g>
	<g id="LINE-260">
		<line class="st0" x1="505.2" y1="382.4" x2="547.6" y2="340"/>
	</g>
	<g id="LINE-261">
		<line class="st0" x1="514.9" y1="384.4" x2="547.6" y2="351.7"/>
	</g>
	<g id="LINE-262">
		<line class="st0" x1="526.5" y1="384.4" x2="547.6" y2="363.3"/>
	</g>
	<g id="LINE-263">
		<line class="st0" x1="538.2" y1="384.4" x2="547.6" y2="375"/>
	</g>
	<g id="LINE-264">
		<line class="st0" x1="258.8" y1="204.6" x2="260" y2="205.9"/>
	</g>
	<g id="LINE-265">
		<line class="st0" x1="247.1" y1="204.6" x2="260" y2="217.5"/>
	</g>
	<g id="LINE-266">
		<line class="st0" x1="235.4" y1="204.6" x2="260" y2="229.2"/>
	</g>
	<g id="LINE-267">
		<line class="st0" x1="223.8" y1="204.6" x2="260" y2="240.9"/>
	</g>
	<g id="LINE-268">
		<line class="st0" x1="219.1" y1="211.6" x2="260" y2="252.5"/>
	</g>
	<g id="LINE-269">
		<line class="st0" x1="219.1" y1="223.3" x2="260" y2="264.2"/>
	</g>
	<g id="LINE-270">
		<line class="st0" x1="219.1" y1="235" x2="260" y2="275.9"/>
	</g>
	<g id="LINE-271">
		<line class="st0" x1="219.1" y1="246.6" x2="257" y2="284.5"/>
	</g>
	<g id="LINE-272">
		<line class="st0" x1="219.1" y1="258.3" x2="237.9" y2="277.1"/>
	</g>
	<g id="LINE-273">
		<line class="st0" x1="219.1" y1="270" x2="230.8" y2="281.7"/>
	</g>
	<g id="LINE-274">
		<line class="st0" x1="219.1" y1="281.6" x2="224.8" y2="287.4"/>
	</g>
	<g id="LINE-275">
		<line class="st0" x1="219.1" y1="293.3" x2="219.9" y2="294.1"/>
	</g>
	<g id="LINE-276">
		<line class="st0" x1="219.1" y1="305" x2="226.2" y2="312.1"/>
	</g>
	<g id="LINE-277">
		<line class="st0" x1="219.1" y1="316.6" x2="227.1" y2="324.7"/>
	</g>
	<g id="LINE-278">
		<line class="st0" x1="248.8" y1="346.3" x2="260" y2="357.5"/>
	</g>
	<g id="LINE-279">
		<line class="st0" x1="219.1" y1="328.3" x2="222" y2="331.3"/>
	</g>
	<g id="LINE-280">
		<line class="st0" x1="242.2" y1="351.4" x2="260" y2="369.2"/>
	</g>
	<g id="LINE-281">
		<line class="st0" x1="219.1" y1="340" x2="260" y2="380.9"/>
	</g>
	<g id="LINE-282">
		<line class="st0" x1="219.1" y1="351.7" x2="260" y2="392.5"/>
	</g>
	<g id="LINE-283">
		<line class="st0" x1="219.1" y1="363.3" x2="248.4" y2="392.6"/>
	</g>
	<g id="LINE-284">
		<line class="st0" x1="257.6" y1="401.8" x2="259.6" y2="403.9"/>
	</g>
	<g id="LINE-285">
		<line class="st0" x1="219.1" y1="375" x2="236" y2="391.9"/>
	</g>
	<g id="LINE-286">
		<line class="st0" x1="219.1" y1="386.7" x2="223.6" y2="391.1"/>
	</g>
	<g id="LINE-287">
		<line class="st0" x1="317.2" y1="204.6" x2="318.7" y2="206.2"/>
	</g>
	<g id="LINE-288">
		<line class="st0" x1="338.2" y1="225.6" x2="341.7" y2="229.2"/>
	</g>
	<g id="LINE-289">
		<line class="st0" x1="305.5" y1="204.6" x2="318.7" y2="217.9"/>
	</g>
	<g id="LINE-290">
		<line class="st0" x1="326.5" y1="225.6" x2="341.7" y2="240.9"/>
	</g>
	<g id="LINE-291">
		<line class="st0" x1="300.8" y1="211.6" x2="341.7" y2="252.5"/>
	</g>
	<g id="LINE-292">
		<line class="st0" x1="300.8" y1="223.3" x2="338" y2="260.5"/>
	</g>
	<g id="LINE-293">
		<line class="st0" x1="300.8" y1="235" x2="337.3" y2="271.4"/>
	</g>
	<g id="LINE-294">
		<line class="st0" x1="300.8" y1="246.6" x2="340" y2="285.8"/>
	</g>
	<g id="LINE-295">
		<line class="st0" x1="300.8" y1="258.3" x2="341.7" y2="299.2"/>
	</g>
	<g id="LINE-296">
		<line class="st0" x1="300.8" y1="270" x2="341.7" y2="310.9"/>
	</g>
	<g id="LINE-297">
		<line class="st0" x1="300.8" y1="281.6" x2="341.7" y2="322.5"/>
	</g>
	<g id="LINE-298">
		<line class="st0" x1="300.8" y1="293.3" x2="341.7" y2="334.2"/>
	</g>
	<g id="LINE-299">
		<line class="st0" x1="300.8" y1="305" x2="341.7" y2="345.9"/>
	</g>
	<g id="LINE-300">
		<line class="st0" x1="300.8" y1="316.6" x2="341.7" y2="357.5"/>
	</g>
	<g id="LINE-301">
		<line class="st0" x1="300.8" y1="328.3" x2="341.7" y2="369.2"/>
	</g>
	<g id="LINE-302">
		<line class="st0" x1="300.8" y1="340" x2="334.4" y2="373.5"/>
	</g>
	<g id="LINE-303">
		<line class="st0" x1="300.8" y1="351.7" x2="331.7" y2="382.5"/>
	</g>
	<g id="LINE-304">
		<line class="st0" x1="300.8" y1="363.3" x2="331.1" y2="393.6"/>
	</g>
	<g id="LINE-305">
		<line class="st0" x1="300.8" y1="375" x2="330.4" y2="404.6"/>
	</g>
	<g id="LINE-306">
		<line class="st0" x1="300.8" y1="386.7" x2="329.8" y2="415.6"/>
	</g>
	<g id="LINE-307">
		<line class="st0" x1="300.8" y1="398.3" x2="329.2" y2="426.7"/>
	</g>
	<g id="LINE-308">
		<line class="st0" x1="329.9" y1="427.3" x2="338.5" y2="436"/>
	</g>
	<g id="LINE-309">
		<line class="st0" x1="300.8" y1="410" x2="326.1" y2="435.3"/>
	</g>
	<g id="LINE-310">
		<line class="st0" x1="300.8" y1="421.7" x2="313.8" y2="434.6"/>
	</g>
	<g id="LINE-311">
		<line class="st0" x1="300.8" y1="433.3" x2="301.4" y2="433.9"/>
	</g>
	<g id="LINE-312">
		<line class="st0" x1="494.9" y1="196.9" x2="494.9" y2="143.1"/>
	</g>
	<g id="LINE-313">
		<line class="st0" x1="341.7" y1="229.2" x2="345.2" y2="225.6"/>
	</g>
	<g id="LINE-314">
		<line class="st0" x1="341.7" y1="240.9" x2="356.9" y2="225.6"/>
	</g>
	<g id="LINE-315">
		<line class="st0" x1="341.7" y1="252.5" x2="368.6" y2="225.6"/>
	</g>
	<g id="LINE-316">
		<line class="st0" x1="358.9" y1="247.1" x2="380.3" y2="225.6"/>
	</g>
	<g id="LINE-317">
		<line class="st0" x1="367.6" y1="250" x2="382.6" y2="235"/>
	</g>
	<g id="LINE-318">
		<line class="st0" x1="373.6" y1="255.6" x2="382.6" y2="246.6"/>
	</g>
	<g id="LINE-319">
		<line class="st0" x1="341.7" y1="299.2" x2="348.9" y2="292"/>
	</g>
	<g id="LINE-320">
		<line class="st0" x1="377" y1="263.9" x2="382.6" y2="258.3"/>
	</g>
	<g id="LINE-321">
		<line class="st0" x1="341.7" y1="310.9" x2="363.9" y2="288.7"/>
	</g>
	<g id="LINE-322">
		<line class="st0" x1="379.4" y1="273.1" x2="382.6" y2="270"/>
	</g>
	<g id="LINE-323">
		<line class="st0" x1="341.7" y1="322.5" x2="378.9" y2="285.3"/>
	</g>
	<g id="LINE-324">
		<line class="st0" x1="381.9" y1="282.4" x2="382.6" y2="281.6"/>
	</g>
	<g id="LINE-325">
		<line class="st0" x1="341.7" y1="334.2" x2="343.3" y2="332.6"/>
	</g>
	<g id="LINE-326">
		<line class="st0" x1="357.5" y1="318.4" x2="382.6" y2="293.3"/>
	</g>
	<g id="LINE-327">
		<line class="st0" x1="341.7" y1="345.9" x2="345.7" y2="341.9"/>
	</g>
	<g id="LINE-328">
		<line class="st0" x1="373.4" y1="314.2" x2="382.6" y2="305"/>
	</g>
	<g id="LINE-329">
		<line class="st0" x1="341.7" y1="357.5" x2="351.5" y2="347.7"/>
	</g>
	<g id="LINE-330">
		<line class="st0" x1="341.7" y1="369.2" x2="358.9" y2="352"/>
	</g>
	<g id="LINE-331">
		<line class="st0" x1="348.3" y1="374.3" x2="367.3" y2="355.2"/>
	</g>
	<g id="LINE-332">
		<line class="st0" x1="359.3" y1="374.9" x2="376.8" y2="357.4"/>
	</g>
	<g id="LINE-333">
		<line class="st0" x1="370.4" y1="375.6" x2="382.6" y2="363.3"/>
	</g>
	<g id="LINE-334">
		<line class="st0" x1="381.4" y1="376.2" x2="382.6" y2="375"/>
	</g>
	<g id="LINE-335">
		<line class="st0" x1="344.6" y1="436.4" x2="352.3" y2="428.6"/>
	</g>
	<g id="LINE-336">
		<line class="st0" x1="355.6" y1="437" x2="363.3" y2="429.2"/>
	</g>
	<g id="LINE-337">
		<line class="st0" x1="366.6" y1="437.6" x2="374.4" y2="429.9"/>
	</g>
	<g id="LINE-338">
		<line class="st0" x1="377.7" y1="438.2" x2="382.6" y2="433.3"/>
	</g>
	<g id="LINE-339">
		<line class="st0" x1="417.3" y1="48" x2="423.5" y2="54.2"/>
	</g>
	<g id="LINE-340">
		<line class="st0" x1="405.6" y1="48" x2="423.5" y2="65.8"/>
	</g>
	<g id="LINE-341">
		<line class="st0" x1="400.4" y1="54.5" x2="423.5" y2="77.5"/>
	</g>
	<g id="LINE-342">
		<line class="st0" x1="400.4" y1="66.1" x2="423.5" y2="89.2"/>
	</g>
	<g id="LINE-343">
		<line class="st0" x1="400.4" y1="77.8" x2="423.5" y2="100.8"/>
	</g>
	<g id="LINE-344">
		<line class="st0" x1="400.4" y1="89.4" x2="423.5" y2="112.5"/>
	</g>
	<g id="LINE-345">
		<line class="st0" x1="400.4" y1="101.1" x2="423.5" y2="124.2"/>
	</g>
	<g id="LINE-346">
		<line class="st0" x1="400.4" y1="112.8" x2="423.5" y2="135.9"/>
	</g>
	<g id="LINE-347">
		<line class="st0" x1="400.4" y1="124.4" x2="423.5" y2="147.5"/>
	</g>
	<g id="LINE-348">
		<line class="st0" x1="400.4" y1="136.1" x2="423.5" y2="159.2"/>
	</g>
	<g id="LINE-349">
		<line class="st0" x1="400.4" y1="147.8" x2="423.5" y2="170.9"/>
	</g>
	<g id="LINE-350">
		<line class="st0" x1="400.4" y1="159.4" x2="423.5" y2="182.5"/>
	</g>
	<g id="LINE-351">
		<line class="st0" x1="400.4" y1="171.1" x2="423.5" y2="194.2"/>
	</g>
	<g id="LINE-352">
		<line class="st0" x1="400.4" y1="182.8" x2="423.5" y2="205.9"/>
	</g>
	<g id="LINE-353">
		<line class="st0" x1="404.9" y1="198.9" x2="423.5" y2="217.5"/>
	</g>
	<g id="LINE-354">
		<line class="st0" x1="398.9" y1="204.6" x2="423.5" y2="229.2"/>
	</g>
	<g id="LINE-355">
		<line class="st0" x1="394.9" y1="212.3" x2="423.5" y2="240.9"/>
	</g>
	<g id="LINE-356">
		<line class="st0" x1="394.9" y1="224" x2="422" y2="251"/>
	</g>
	<g id="LINE-357">
		<line class="st0" x1="384.9" y1="225.6" x2="414" y2="254.7"/>
	</g>
	<g id="LINE-358">
		<line class="st0" x1="382.7" y1="235.1" x2="408.5" y2="260.9"/>
	</g>
	<g id="LINE-359">
		<line class="st0" x1="382.8" y1="246.8" x2="390.8" y2="254.9"/>
	</g>
	<g id="LINE-360">
		<line class="st0" x1="400.8" y1="264.9" x2="405.2" y2="269.2"/>
	</g>
	<g id="LINE-361">
		<line class="st0" x1="382.8" y1="258.6" x2="383.9" y2="259.6"/>
	</g>
	<g id="LINE-362">
		<line class="st0" x1="415" y1="290.8" x2="423.5" y2="299.2"/>
	</g>
	<g id="LINE-363">
		<line class="st0" x1="396" y1="271.8" x2="402" y2="277.7"/>
	</g>
	<g id="LINE-364">
		<line class="st0" x1="382.9" y1="270.2" x2="423.5" y2="310.9"/>
	</g>
	<g id="LINE-365">
		<line class="st0" x1="382.8" y1="281.9" x2="423.5" y2="322.5"/>
	</g>
	<g id="LINE-366">
		<line class="st0" x1="382.8" y1="293.5" x2="405.2" y2="315.9"/>
	</g>
	<g id="LINE-367">
		<line class="st0" x1="382.8" y1="305.2" x2="391.3" y2="313.7"/>
	</g>
	<g id="LINE-368">
		<line class="st0" x1="419.4" y1="353.5" x2="423.5" y2="357.5"/>
	</g>
	<g id="LINE-369">
		<line class="st0" x1="410.7" y1="356.4" x2="423.5" y2="369.2"/>
	</g>
	<g id="LINE-370">
		<line class="st0" x1="400.8" y1="358.2" x2="421.1" y2="378.5"/>
	</g>
	<g id="LINE-371">
		<line class="st0" x1="389.6" y1="358.6" x2="408.7" y2="377.8"/>
	</g>
	<g id="LINE-372">
		<line class="st0" x1="382.6" y1="363.3" x2="396.3" y2="377.1"/>
	</g>
	<g id="LINE-373">
		<line class="st0" x1="382.6" y1="375" x2="384" y2="376.4"/>
	</g>
	<g id="LINE-374">
		<line class="st0" x1="416.6" y1="432.3" x2="423.5" y2="439.2"/>
	</g>
	<g id="LINE-375">
		<line class="st0" x1="404.2" y1="431.6" x2="412.9" y2="440.3"/>
	</g>
	<g id="LINE-376">
		<line class="st0" x1="391.8" y1="430.9" x2="400.5" y2="439.6"/>
	</g>
	<g id="LINE-377">
		<line class="st0" x1="382.6" y1="433.3" x2="388.1" y2="438.9"/>
	</g>
	<g id="LWPOLYLINE">
		<line class="st0" x1="555.1" y1="276.4" x2="555.1" y2="378.4"/>
	</g>
	<g id="LWPOLYLINE-2">
		<line class="st0" x1="547.6" y1="378.4" x2="547.6" y2="276.4"/>
	</g>
	<g id="LWPOLYLINE-3">
		<line class="st0" x1="400.4" y1="95.2" x2="400.4" y2="147.7"/>
	</g>
	<g id="LWPOLYLINE-4">
		<line class="st0" x1="382.4" y1="147.7" x2="382.4" y2="95.2"/>
	</g>
	<g id="LWPOLYLINE-5">
		<line class="st0" x1="252.8" y1="204.6" x2="305.3" y2="204.6"/>
	</g>
	<g id="LWPOLYLINE-6">
		<line class="st0" x1="305.3" y1="197.1" x2="252.8" y2="197.1"/>
	</g>
	<g id="LWPOLYLINE-7">
		<polygon class="st1" points="636.1,232.9 583.6,232.9 583.6,220.9 637.6,220.9 637.6,232.9 		"/>
	</g>
	<g id="LWPOLYLINE-8">
		<line class="st0" x1="660.1" y1="90.4" x2="660.1" y2="142.9"/>
	</g>
	<g id="LWPOLYLINE-9">
		<line class="st0" x1="642.1" y1="142.9" x2="642.1" y2="90.4"/>
	</g>
	<g id="LWPOLYLINE-10">
		<line class="st0" x1="460.4" y1="48" x2="406.4" y2="48"/>
	</g>
	<g id="LWPOLYLINE-11">
		<line class="st0" x1="460.4" y1="39" x2="406.4" y2="39"/>
	</g>
	<g id="LWPOLYLINE-12">
		<line class="st0" x1="487.4" y1="188.1" x2="487.4" y2="143.1"/>
	</g>
	<g id="LWPOLYLINE-13">
		<line class="st0" x1="494.9" y1="143.1" x2="494.9" y2="188.1"/>
	</g>
	<g id="LWPOLYLINE-14">
		<line class="st0" x1="487.4" y1="127.9" x2="487.4" y2="82.9"/>
	</g>
	<g id="LWPOLYLINE-15">
		<line class="st0" x1="494.9" y1="82.9" x2="494.9" y2="127.9"/>
	</g>
	<g id="LWPOLYLINE-16">
		<line class="st0" x1="423.5" y1="48" x2="423.5" y2="250.8"/>
	</g>
	<g id="LWPOLYLINE-17">
		<line class="st0" x1="423.5" y1="293.6" x2="423.5" y2="323.5"/>
	</g>
	<g id="LWPOLYLINE-18">
		<line class="st0" x1="423.5" y1="351.4" x2="423.5" y2="378.6"/>
	</g>
	<g id="LWPOLYLINE-19">
		<line class="st0" x1="423.5" y1="432.7" x2="423.5" y2="440.9"/>
	</g>
	<g id="LWPOLYLINE-20">
		<line class="st0" x1="382.6" y1="225.6" x2="382.6" y2="313.5"/>
	</g>
	<g id="LWPOLYLINE-21">
		<line class="st0" x1="382.6" y1="358.2" x2="382.6" y2="376.3"/>
	</g>
	<g id="LWPOLYLINE-22">
		<line class="st0" x1="382.6" y1="430.4" x2="382.6" y2="438.5"/>
	</g>
	<g id="LWPOLYLINE-23">
		<line class="st0" x1="341.7" y1="225.6" x2="341.7" y2="254"/>
	</g>
	<g id="LWPOLYLINE-24">
		<line class="st0" x1="341.7" y1="293.1" x2="341.7" y2="373.9"/>
	</g>
	<g id="LWPOLYLINE-25">
		<line class="st0" x1="341.7" y1="428" x2="341.7" y2="436.2"/>
	</g>
	<g id="LWPOLYLINE-26">
		<line class="st0" x1="300.8" y1="204.6" x2="300.8" y2="433.8"/>
	</g>
	<g id="LWPOLYLINE-27">
		<line class="st0" x1="260" y1="204.6" x2="260" y2="284.6"/>
	</g>
	<g id="LWPOLYLINE-28">
		<line class="st0" x1="260" y1="347.4" x2="260" y2="403.9"/>
	</g>
	<g id="LWPOLYLINE-29">
		<line class="st0" x1="219.1" y1="204.6" x2="219.1" y2="390.9"/>
	</g>
	<g id="LWPOLYLINE-30">
		<line class="st0" x1="178.2" y1="246.6" x2="178.2" y2="426.9"/>
	</g>
	<g id="LWPOLYLINE-31">
		<line class="st0" x1="137.3" y1="246.6" x2="137.3" y2="306.6"/>
	</g>
	<g id="LWPOLYLINE-32">
		<line class="st0" x1="137.3" y1="401.2" x2="137.3" y2="424.6"/>
	</g>
	<g id="LWPOLYLINE-33">
		<line class="st0" x1="96.5" y1="246.6" x2="96.5" y2="422.2"/>
	</g>
	<g id="LWPOLYLINE-34">
		<line class="st0" x1="55.6" y1="403" x2="55.6" y2="419.9"/>
	</g>
	<g id="LWPOLYLINE-35">
		<line class="st0" x1="464.3" y1="48" x2="464.3" y2="415.6"/>
	</g>
	<g id="LWPOLYLINE-36">
		<line class="st0" x1="505.2" y1="270.4" x2="505.2" y2="384.4"/>
	</g>
</g>
<g id="OTHER">
	<g id="LINE-378">
		<line class="st2" x1="555.1" y1="418.9" x2="555.1" y2="391.9"/>
	</g>
	<g id="LINE-379">
		<line class="st2" x1="496.4" y1="262.9" x2="496.4" y2="235.9"/>
	</g>
	<g id="LINE-380">
		<line class="st2" x1="660.1" y1="72.4" x2="666.1" y2="72.4"/>
	</g>
	<g id="LINE-381">
		<line class="st2" x1="496.5" y1="413.3" x2="496.5" y2="391.3"/>
	</g>
	<g id="LINE-382">
		<line class="st2" x1="666.1" y1="39.4" x2="666.1" y2="33.4"/>
	</g>
	<g id="LINE-383">
		<line class="st2" x1="666.1" y1="33.4" x2="742.6" y2="33.4"/>
	</g>
</g>
<g id="BATH_FIXTURES">
	<g id="ELLIPSE">
		<path class="st3" d="M749.9,57.8h-6.5c-0.1,0.8-0.3,1.4-0.5,1.4l-5.3,0.3l0,0c-0.3-0.7-0.4-1.5-0.3-2.3c0-1.2,0.2-2.2,0.3-2.2l0,0
			l5.3,0.3c0.2,0,0.4,0.6,0.5,1.4h6.5"/>
	</g>
	<g id="LWPOLYLINE-37">
		<path class="st3" d="M744.2,44.1v3c0,0.6,0.5,1.1,1.2,1.2c0.3,0,0.6-0.1,0.8-0.3h3.9v-1.7h-3.5v-2.2c0.1-0.6-0.4-1.2-1-1.3
			c-0.6-0.1-1.2,0.4-1.3,1C744.2,43.9,744.2,44,744.2,44.1L744.2,44.1z"/>
	</g>
	<path class="st4" d="M750,68.4h-1v1.3h-1.1c-0.3,0-0.6,0.3-0.6,0.6v0.3H746c-0.3,0-0.6,0.2-0.6,0.5c0,0.3,0.2,0.6,0.5,0.6
		c0,0,0.1,0,0.1,0h1.2V72c0,0.3,0.3,0.6,0.6,0.6h1.2v1.3h1"/>
	<g id="LWPOLYLINE-38">
		<path class="st2" d="M365.7,51.4l0.4-0.2c0.7-0.3,1.1-1.1,1-1.8c-0.1-1.6-0.2-3.3-0.4-4.9c-0.1-0.6-0.6-1.1-1.2-1.1h-20.2
			c-0.6,0-1.1,0.5-1.2,1.1c-0.1,1.6-0.3,3.3-0.4,4.9c-0.1,0.7,0.3,1.5,1,1.8l0.4,0.2"/>
	</g>
	<g id="LWPOLYLINE-39">
		<path class="st2" d="M365.6,51.5c-6.4,3-13.8,3-20.2,0.1"/>
	</g>
	<g id="LWPOLYLINE-40">
		<path class="st2" d="M345.2,51.4c-0.2,5.9-0.3,11.8-0.3,17.8c0,3,0.6,5.9,1.8,8.7c0.9,2.1,2.2,3.9,3.9,5.3c2.8,2.4,7,2.4,9.8,0
			c1.7-1.5,3-3.3,3.9-5.3c1.2-2.7,1.8-5.7,1.8-8.7c0-5.9-0.1-11.8-0.3-17.8"/>
	</g>
	<g id="LINE-384">
		<line class="st2" x1="753.1" y1="85.9" x2="753.1" y2="184.9"/>
	</g>
	<g id="ELLIPSE-2">
		<path class="st2" d="M337.5,158.9c0-6.6,8.1-12,18-12s18,5.4,18,12s-8.1,12-18,12S337.5,165.6,337.5,158.9z"/>
	</g>
	<g id="LINE-385">
		<line class="st2" x1="787.6" y1="85.9" x2="787.6" y2="184.9"/>
	</g>
	<g id="LWPOLYLINE-41">
		<path class="st2" d="M686.6,211.7L686.6,211.7l-1.7,0.1l-4.4,0.1h-3.7l-10.6-0.3c-2.3-0.1-4.2-1.8-4.5-4.1
			c-0.7-5.6-0.8-11.4-0.1-17c0.3-2.3,1.9-4.1,4.2-4.6l4.9-0.3l6.1-0.1l6.5,0.1l3.2,0.1l0.1,0.1"/>
	</g>
	<g id="LWPOLYLINE-42">
		<path class="st2" d="M676.3,186.6v-0.4l0.1-0.1l0.6-0.1l3.2-0.2l6.4-0.1c4.6,0.4,9.1,0.9,13.7,1.4c3.4,0.3,6.2,2.7,7.2,5.9
			c1.1,3.7,1.1,7.6,0,11.3c-1,3.2-3.9,5.5-7.2,5.9c-4.5,0.8-9.1,1.3-13.7,1.4l-6.4-0.1l-3.2-0.1l-0.6-0.1l-0.1-0.1v-0.5"/>
	</g>
	<g id="LWPOLYLINE-43">
		<path class="st2" d="M676.3,210.9V210h0.2v-0.6h2.3c0.2,0,0.3-0.1,0.3-0.3v-20.9c0-0.2-0.1-0.3-0.3-0.3c0,0,0,0,0,0h-2.4v-0.4
			h-0.2v-1c0-0.1-0.1-0.2-0.2-0.2l-6.1,0.4c-1.4,0.4-2.5,1.4-2.9,2.8c-0.3,1.7-0.5,3.4-0.5,5.1c0,1.4,0,2.7,0,4.1
			c-0.1,2.8,0.1,5.7,0.4,8.5c0.2,1.7,1.4,3.1,3.1,3.5c0.9,0.1,1.9,0.2,2.8,0.2l3.3,0.1C676.3,211.1,676.3,211,676.3,210.9"/>
	</g>
	<g id="LWPOLYLINE-44">
		<polyline class="st5" points="787.6,184.9 787.6,183.3 793.6,183.3 793.6,85.9 787.6,85.9 787.6,85.9 		"/>
	</g>
	<g id="LWPOLYLINE-45">
		<line class="st5" x1="793.6" y1="132.1" x2="787.6" y2="132.1"/>
	</g>
	<g id="LWPOLYLINE-46">
		<rect x="787.6" y="91.3" class="st6" width="1.3" height="40.8"/>
	</g>
	<g id="LWPOLYLINE-47">
		<polyline class="st6" points="787.6,138.3 787.6,137.6 793.6,137.6 		"/>
	</g>
	<g id="LWPOLYLINE-48">
		<line class="st5" x1="787.6" y1="177.8" x2="793.6" y2="177.8"/>
	</g>
	<g id="LWPOLYLINE-49">
		<line class="st5" x1="787.6" y1="91.3" x2="793.5" y2="91.3"/>
	</g>
	<g id="LWPOLYLINE-50">
		<rect x="787.6" y="137.6" class="st6" width="1.3" height="40.2"/>
	</g>
</g>
<g id="BATH_GLAZING">
	<g id="LINE-386">
		<line class="st7" x1="750.1" y1="82.3" x2="666.1" y2="82.3"/>
	</g>
	<g id="LWPOLYLINE-51">
		<rect x="683.3" y="82.3" class="st7" width="66.8" height="1"/>
	</g>
	<g id="LINE-387">
		<line class="st7" x1="750.1" y1="83.4" x2="666.1" y2="83.4"/>
	</g>
</g>
<g id="RODS">
	<g id="LINE-388">
		<line class="st4" x1="520.8" y1="132.8" x2="520.8" y2="198.3"/>
	</g>
	<g id="LINE-389">
		<line class="st4" x1="517.8" y1="132.8" x2="517.8" y2="198.3"/>
	</g>
	<g id="LINE-390">
		<polyline class="st4" points="642.1,54.4 576.6,54.4 576.6,196.7 554.2,196.7 		"/>
	</g>
	<g id="LINE-391">
		<polyline class="st4" points="642.1,51.4 573.6,51.4 573.6,193.7 554.2,193.7 		"/>
	</g>
</g>
<g id="HANGERS">
	<g id="LINE-392">
		<line class="st8" x1="505.7" y1="168.4" x2="532.7" y2="178.7"/>
	</g>
	<g id="LINE-393">
		<line class="st8" x1="505.7" y1="174.1" x2="532.7" y2="184.4"/>
	</g>
	<g id="LINE-394">
		<line class="st8" x1="505.7" y1="161.9" x2="532.7" y2="161.9"/>
	</g>
	<g id="LINE-395">
		<line class="st8" x1="505.7" y1="165.8" x2="532.7" y2="165.8"/>
	</g>
	<g id="LINE-396">
		<line class="st8" x1="505.7" y1="150.3" x2="532.7" y2="150.3"/>
	</g>
	<g id="LINE-397">
		<line class="st8" x1="505.7" y1="154.2" x2="532.7" y2="154.2"/>
	</g>
	<g id="LINE-398">
		<line class="st8" x1="505.7" y1="158" x2="532.7" y2="158"/>
	</g>
	<g id="LINE-399">
		<line class="st8" x1="615.8" y1="39.4" x2="605.5" y2="66.4"/>
	</g>
	<g id="LINE-400">
		<line class="st8" x1="610.1" y1="39.4" x2="599.8" y2="66.4"/>
	</g>
	<g id="LINE-401">
		<line class="st8" x1="622.3" y1="39.4" x2="622.3" y2="66.4"/>
	</g>
	<g id="LINE-402">
		<line class="st8" x1="618.5" y1="39.4" x2="618.4" y2="66.4"/>
	</g>
	<g id="LINE-403">
		<line class="st8" x1="633.9" y1="39.4" x2="633.9" y2="66.4"/>
	</g>
	<g id="LINE-404">
		<line class="st8" x1="630.1" y1="39.4" x2="630.1" y2="66.4"/>
	</g>
	<g id="LINE-405">
		<line class="st8" x1="626.2" y1="39.4" x2="626.2" y2="66.4"/>
	</g>
	<g id="LINE-406">
		<line class="st8" x1="622.3" y1="39.4" x2="622.3" y2="66.4"/>
	</g>
	<g id="LINE-407">
		<line class="st8" x1="561.6" y1="183.1" x2="588.6" y2="193.4"/>
	</g>
	<g id="LINE-408">
		<line class="st8" x1="561.6" y1="188.8" x2="588.6" y2="199.1"/>
	</g>
	<g id="LINE-409">
		<line class="st8" x1="561.6" y1="176.6" x2="588.6" y2="176.6"/>
	</g>
	<g id="LINE-410">
		<line class="st8" x1="561.6" y1="180.5" x2="588.6" y2="180.5"/>
	</g>
	<g id="LINE-411">
		<line class="st8" x1="561.6" y1="165" x2="588.6" y2="165"/>
	</g>
	<g id="LINE-412">
		<line class="st8" x1="561.6" y1="168.9" x2="588.6" y2="168.9"/>
	</g>
	<g id="LINE-413">
		<line class="st8" x1="561.6" y1="172.7" x2="588.6" y2="172.7"/>
	</g>
	<g id="LINE-414">
		<line class="st8" x1="561.6" y1="176.6" x2="588.6" y2="176.6"/>
	</g>
</g>
<g id="FURN_2">
	<g id="LWPOLYLINE-52">
		
			<rect x="357.6" y="349.4" transform="matrix(5.738980e-02 -0.9984 0.9984 5.738980e-02 -40.237 764.2568)" class="st3" width="54" height="108"/>
	</g>
	<g id="LWPOLYLINE-53">
		
			<rect x="357.6" y="349.4" transform="matrix(5.738980e-02 -0.9984 0.9984 5.738980e-02 -40.237 764.2568)" class="st3" width="54" height="108"/>
	</g>
	<g id="ARC">
		<path class="st3" d="M274.2,353c8.8-4.2,15.9-11.3,20.1-20.1"/>
	</g>
	<g id="LWPOLYLINE-54">
		<path class="st3" d="M283.9,322.3l12.7,12.7c-4.4,8.7-11.5,15.7-20.1,20.1l-12.7-12.7L283.9,322.3z"/>
	</g>
	<g id="ARC-2">
		<path class="st3" d="M294.4,299.2c-4.2-8.8-11.3-15.9-20.1-20.2"/>
	</g>
	<g id="LWPOLYLINE-55">
		<path class="st3" d="M263.7,289.6l12.7-12.7c8.7,4.4,15.7,11.5,20.1,20.2l-12.7,12.7L263.7,289.6z"/>
	</g>
	<g id="ARC-3">
		<path class="st3" d="M240.6,279.1c-8.8,4.2-15.9,11.4-20.1,20.2"/>
	</g>
	<g id="LWPOLYLINE-56">
		<path class="st3" d="M231,309.7L218.2,297c4.4-8.7,11.5-15.7,20.1-20.2l12.7,12.7L231,309.7z"/>
	</g>
	<g id="ARC-4">
		<path class="st3" d="M220.5,332.8c4.2,8.8,11.3,15.9,20.1,20.2"/>
	</g>
	<g id="LWPOLYLINE-57">
		<path class="st3" d="M251.1,342.5l-12.7,12.7c-8.7-4.4-15.7-11.5-20.1-20.1l12.8-12.7L251.1,342.5z"/>
	</g>
	<g id="CIRCLE">
		<path class="st3" d="M225.9,316c0-17.4,14.1-31.5,31.5-31.5s31.5,14.1,31.5,31.5s-14.1,31.5-31.5,31.5l0,0
			C240,347.5,225.9,333.4,225.9,316z"/>
	</g>
	<g id="ELLIPSE-3">
		<path class="st3" d="M433,338.4c0.6-12.4-19-23.5-43.8-24.8s-45.5,7.7-46.1,20.1s19,23.5,43.8,24.8S432.4,350.8,433,338.4z"/>
	</g>
	<g id="CIRCLE-2">
		<path class="st3" d="M400.7,265.5c-0.9,4.9-5.6,8.1-10.5,7.2c-4.9-0.9-8.1-5.6-7.2-10.5c0.9-4.9,5.6-8.1,10.5-7.2c0,0,0,0,0,0
			C398.4,255.9,401.6,260.6,400.7,265.5C400.7,265.5,400.7,265.5,400.7,265.5L400.7,265.5z"/>
	</g>
	<g id="LINE-415">
		<line class="st4" x1="428.5" y1="424" x2="431.1" y2="379.1"/>
	</g>
	<g id="LINE-416">
		<line class="st4" x1="428.5" y1="424" x2="338.6" y2="418.8"/>
	</g>
	<g id="LINE-417">
		<line class="st4" x1="428.8" y1="419.5" x2="338.9" y2="414.3"/>
	</g>
	<g id="LINE-418">
		<line class="st4" x1="338.6" y1="418.8" x2="341.2" y2="373.9"/>
	</g>
	<g id="LWPOLYLINE-58">
		<rect x="767.2" y="388.2" class="st3" width="24" height="30"/>
	</g>
	<g id="LINE-419">
		<line class="st4" x1="386.1" y1="376.5" x2="383.6" y2="421.4"/>
	</g>
	<g id="LWPOLYLINE-59">
		<rect x="318.7" y="204.6" class="st3" width="76.2" height="21"/>
	</g>
	<g id="CIRCLE-3">
		<path class="st3" d="M372.7,215.2c0-5,4-9,9-9s9,4,9,9s-4,9-9,9S372.7,220.2,372.7,215.2L372.7,215.2z"/>
	</g>
	<g id="CIRCLE-4">
		<path class="st3" d="M771.6,403.3c0-4.1,3.4-7.5,7.5-7.5s7.5,3.4,7.5,7.5s-3.4,7.5-7.5,7.5l0,0C775,410.8,771.6,407.4,771.6,403.3
			z"/>
	</g>
	<g id="LINE-420">
		<line class="st4" x1="381.7" y1="224.2" x2="381.7" y2="206.2"/>
	</g>
	<g id="LWPOLYLINE-60">
		<line class="st4" x1="372.7" y1="215.2" x2="390.7" y2="215.2"/>
	</g>
	<g id="CIRCLE-5">
		<path class="st3" d="M638.4,442.2c-0.9,4.9-5.6,8.1-10.5,7.2c-4.9-0.9-8.1-5.6-7.2-10.5s5.6-8.1,10.5-7.2c0,0,0,0,0,0
			C636.1,432.7,639.4,437.4,638.4,442.2z"/>
	</g>
	<g id="LINE-421">
		<line class="st4" x1="747.2" y1="271.2" x2="747.2" y2="383.7"/>
	</g>
	<g id="LWPOLYLINE-61">
		<rect x="767.2" y="236.7" class="st3" width="24" height="30"/>
	</g>
	<g id="LINE-422">
		<line class="st4" x1="771.6" y1="403.2" x2="786.6" y2="403.2"/>
	</g>
	<g id="LINE-423">
		<line class="st4" x1="779.2" y1="410.8" x2="779.2" y2="395.8"/>
	</g>
	<g id="CIRCLE-6">
		<path class="st3" d="M771.6,251.7c0-4.1,3.4-7.5,7.5-7.5s7.5,3.4,7.5,7.5s-3.4,7.5-7.5,7.5S771.6,255.8,771.6,251.7L771.6,251.7z"
			/>
	</g>
	<g id="LINE-424">
		<line class="st4" x1="771.6" y1="251.7" x2="786.6" y2="251.7"/>
	</g>
	<g id="LWPOLYLINE-62">
		<path class="st3" d="M790.8,383.7H674.5c-2.2-0.3-3.8-2.2-3.7-4.3V275.3c-0.1-2.1,1.6-3.9,3.7-4h116.4"/>
	</g>
	<g id="LINE-425">
		<line class="st4" x1="779.2" y1="244.2" x2="779.2" y2="259.2"/>
	</g>
	<g id="LWPOLYLINE-63">
		<polyline class="st3" points="765.2,328.8 787.8,328.8 787.8,381.3 765.2,381.3 		"/>
	</g>
	<g id="LWPOLYLINE-64">
		<polyline class="st3" points="765.2,326.2 787.8,326.2 787.8,273.7 765.2,273.7 		"/>
	</g>
	<g id="LWPOLYLINE-65">
		<rect x="790.8" y="271.2" class="st3" width="6" height="112.5"/>
	</g>
	<g id="LINE-426">
		<line class="st4" x1="765.2" y1="271.2" x2="765.2" y2="383.7"/>
	</g>
	<g id="LWPOLYLINE-66">
		<path class="st3" d="M639.1,282.5h24c0.8,0,1.5,0.7,1.5,1.5v87c0,0.8-0.7,1.5-1.5,1.5h-24c-0.8,0-1.5-0.7-1.5-1.5v-87
			C637.6,283.2,638.3,282.5,639.1,282.5z"/>
	</g>
</g>
<g id="FURN_1">
	<g id="LWPOLYLINE-67">
		<path class="st3" d="M337.3,271.4c-2.4-10.9,4.4-21.7,15.3-24.1s21.7,4.4,24.1,15.3L382,283v0c0.2,0.8-0.3,1.6-1.1,1.8
			c0,0,0,0,0,0l-37.9,8.5h0c-0.8,0.2-1.6-0.4-1.7-1.2c0,0,0,0,0,0L337.3,271.4z"/>
	</g>
	<g id="LWPOLYLINE-68">
		<path class="st3" d="M370.9,264l1.7,6.7c1.3,2.9,4.2,4.7,7.4,4.6l-3.6-13.8c-3.1-10.7-14.4-16.8-25.1-13.7
			c-9.7,2.9-15.8,12.5-14.3,22.5l2.6,14c2.9-1.3,4.8-4.1,4.7-7.3l-1.3-6.8c-1.7-7.6,3.1-15.2,10.8-17S369.1,256.4,370.9,264
			L370.9,264z"/>
	</g>
	<g id="LWPOLYLINE-69">
		<path class="st3" d="M445.4,277.1c3.4-10.6-2.5-22-13.2-25.3c-10.4-3.3-21.4,2.2-25.1,12.5l-7.4,19.8c-0.3,0.8,0.1,1.6,0.9,1.9
			l0,0l36.9,12.4c0.8,0.3,1.6-0.2,1.9-1c0,0,0,0,0,0l0,0L445.4,277.1z"/>
	</g>
	<g id="LWPOLYLINE-70">
		<path class="st3" d="M412.7,266.2l-2.4,6.5c-1.6,2.7-4.7,4.2-7.8,3.8l5-13.4c4.1-10.4,15.8-15.5,26.2-11.4
			c9.7,3.8,14.9,14.3,12.1,24.3l-4.1,13.7c-2.8-1.6-4.3-4.6-4-7.8l2-6.6c2.2-7.5-2.2-15.4-9.7-17.6
			C422.9,255.7,415.4,259.4,412.7,266.2L412.7,266.2z"/>
	</g>
	<g id="LWPOLYLINE-71">
		<path class="st3" d="M607.3,440.1c-8,7.8-20.7,7.7-28.6-0.2s-7.7-20.7,0.2-28.6l0,0l14.5-15.3l0,0c0.6-0.6,1.5-0.6,2.1,0
			l27.3,27.7l0,0c0.6,0.6,0.5,1.6-0.1,2.1c0,0,0,0,0,0L607.3,440.1z"/>
	</g>
	<g id="LWPOLYLINE-72">
		<path class="st3" d="M583.3,415.5l4.7-5c1.8-2.6,1.8-6.1,0-8.7l-9.8,10.4c-7.4,8.3-6.7,21.1,1.6,28.5c7.6,6.8,19,6.9,26.7,0.2
			l10.5-9.6c-2.6-1.8-6-1.9-8.7-0.2l-5.1,4.6c-5.7,5.4-14.7,5.1-20.1-0.7C578,429.6,578,420.9,583.3,415.5L583.3,415.5z"/>
	</g>
	<g id="ARC-5">
		<path class="st3" d="M177.8,350.5c7,0,12.8-5.7,12.8-12.8s-5.7-12.8-12.8-12.8"/>
	</g>
	<g id="LINE-427">
		<line class="st4" x1="177.8" y1="350.5" x2="177.8" y2="325"/>
	</g>
	<g id="ARC-6">
		<path class="st3" d="M177.8,361c7,0,12.8,5.7,12.8,12.8s-5.7,12.8-12.8,12.8"/>
	</g>
	<g id="LINE-428">
		<line class="st4" x1="177.8" y1="361" x2="177.8" y2="386.5"/>
	</g>
</g>
<g id="KITCHEN">
	<g id="LWPOLYLINE-73">
		<polyline class="st9" points="200.2,204.6 200.2,246.6 57.7,246.6 57.7,403 15.7,403 		"/>
	</g>
	<g id="LWPOLYLINE-74">
		<polyline class="st9" points="117.8,401.2 177.8,401.2 177.8,306.6 117.8,306.6 117.8,401.2 		"/>
	</g>
	<g id="LINE-429">
		<polyline class="st10" points="199.2,248.1 199.2,246.8 196.9,246.8 196.9,248.1 		"/>
	</g>
	<rect x="153.2" y="246.8" class="st10" width="2.2" height="1.4"/>
	<rect x="152.2" y="248.2" class="st10" width="48" height="1.5"/>
	<line class="st9" x1="152.2" y1="246.6" x2="152.2" y2="204.6"/>
</g>
<g id="APPLIANCES">
	<g id="LINE-430">
		<line class="st8" x1="117.8" y1="322.8" x2="117.8" y2="330.4"/>
	</g>
	<g id="LINE-431">
		<line class="st8" x1="117.8" y1="322.8" x2="117.8" y2="322.8"/>
	</g>
	<g id="LINE-432">
		<line class="st8" x1="117.8" y1="401.2" x2="117.8" y2="306.6"/>
	</g>
	<g id="LINE-433">
		<line class="st8" x1="117.8" y1="330.4" x2="117.8" y2="330.4"/>
	</g>
	<g id="LINE-434">
		<line class="st8" x1="117.8" y1="344.1" x2="117.8" y2="330.4"/>
	</g>
	<g id="LINE-435">
		<polyline class="st11" points="117.8,344.2 151.4,344.2 151.4,308.9 117.8,308.9 		"/>
	</g>
	<g id="LINE-436">
		<polyline class="st11" points="117.8,399.6 151.4,399.6 151.4,364.2 117.8,364.2 		"/>
	</g>
	<g id="LINE-437">
		<line class="st8" x1="117.8" y1="385" x2="117.8" y2="385"/>
	</g>
	<g id="LINE-438">
		<line class="st8" x1="117.8" y1="377.5" x2="117.8" y2="385"/>
	</g>
	<g id="LINE-439">
		<line class="st8" x1="117.8" y1="377.5" x2="117.8" y2="377.5"/>
	</g>
	<g id="LINE-440">
		<line class="st8" x1="117.8" y1="398.8" x2="117.8" y2="385"/>
	</g>
	<g id="LWPOLYLINE-75">
		<rect x="503" y="86.3" class="st8" width="33.8" height="35.2"/>
	</g>
	<g id="LWPOLYLINE-76">
		<polyline class="st8" points="503,115.4 501.9,115.4 501.9,92.5 503,92.5 		"/>
	</g>
	<g id="COOKTOP">
		<path class="st8" d="M92.4,223.3c-1.3,0-2.4-1.1-2.4-2.4s1.1-2.4,2.4-2.4c1.3,0,2.4,1.1,2.4,2.4c0,0,0,0,0,0
			C94.8,222.3,93.7,223.3,92.4,223.3z"/>
		<path class="st8" d="M110.1,223.3c-1.3,0-2.4-1.1-2.4-2.4c0-1.3,1.1-2.4,2.4-2.4s2.4,1.1,2.4,2.4S111.4,223.3,110.1,223.3
			L110.1,223.3z"/>
		<path class="st8" d="M92.4,238.6c-1.3,0-2.4-1.1-2.4-2.4s1.1-2.4,2.4-2.4c1.3,0,2.4,1.1,2.4,2.4c0,0,0,0,0,0
			C94.8,237.5,93.7,238.6,92.4,238.6z"/>
		<path class="st8" d="M110.1,238.6c-1.3,0-2.4-1.1-2.4-2.4s1.1-2.4,2.4-2.4c1.3,0,2.4,1.1,2.4,2.4c0,0,0,0,0,0
			C112.5,237.5,111.4,238.6,110.1,238.6C110.1,238.6,110.1,238.6,110.1,238.6z"/>
		<line class="st8" x1="101.2" y1="243.8" x2="83.7" y2="228.6"/>
		<g id="LINE-441">
			<line class="st8" x1="101.2" y1="244.6" x2="101.2" y2="212.5"/>
		</g>
		<rect x="83.7" y="213.3" class="st8" width="35.3" height="30.6"/>
		<line class="st8" x1="83.7" y1="228.6" x2="119" y2="228.6"/>
		<g id="CIRCLE-7">
			<path class="st8" d="M122.5,226.8c0-0.8,0.6-1.4,1.4-1.4s1.4,0.6,1.4,1.4c0,0.8-0.6,1.4-1.4,1.4c0,0,0,0,0,0
				C123.1,228.1,122.5,227.5,122.5,226.8C122.5,226.8,122.5,226.8,122.5,226.8z"/>
		</g>
		<g id="CIRCLE-8">
			<path class="st8" d="M122.5,231.4c0-0.8,0.6-1.4,1.4-1.4s1.4,0.6,1.4,1.4c0,0.8-0.6,1.4-1.4,1.4c0,0,0,0,0,0
				C123.1,232.7,122.5,232.1,122.5,231.4C122.5,231.4,122.5,231.4,122.5,231.4z"/>
		</g>
		<g id="CIRCLE-9">
			<path class="st8" d="M122.5,236c0-0.8,0.6-1.4,1.4-1.4s1.4,0.6,1.4,1.4c0,0.8-0.6,1.4-1.4,1.4c0,0,0,0,0,0
				C123.1,237.4,122.5,236.8,122.5,236C122.5,236,122.5,236,122.5,236z"/>
		</g>
		<g id="CIRCLE-10">
			<path class="st8" d="M122.5,240.4c0-0.8,0.6-1.4,1.4-1.4s1.4,0.6,1.4,1.4s-0.6,1.4-1.4,1.4c0,0,0,0,0,0
				C123.1,241.8,122.5,241.1,122.5,240.4L122.5,240.4z"/>
		</g>
		<rect x="82.4" y="212.5" class="st8" width="45" height="32.1"/>
		<line class="st8" x1="83.7" y1="243.8" x2="101.2" y2="228.6"/>
		<line class="st8" x1="119" y1="213.3" x2="101.2" y2="228.6"/>
		<line class="st8" x1="101.2" y1="213.3" x2="119" y2="228.6"/>
		<line class="st8" x1="83.7" y1="213.3" x2="101.2" y2="228.6"/>
		<line class="st8" x1="83.7" y1="228.6" x2="101.2" y2="213.3"/>
		<line class="st8" x1="119" y1="243.8" x2="101.2" y2="228.6"/>
		<line class="st8" x1="119" y1="228.6" x2="101.2" y2="243.8"/>
	</g>
	<g id="LWPOLYLINE-77">
		<rect x="57.7" y="366.1" class="st7" width="1.5" height="35.2"/>
	</g>
	<line class="st7" x1="57.7" y1="363.3" x2="15" y2="363.3"/>
</g>
<g id="SINKS">
	<g id="LWPOLYLINE-78">
		<rect x="24.6" y="344.2" class="st12" width="3" height="1.7"/>
	</g>
	<g id="LWPOLYLINE-79">
		<polyline class="st12" points="27.5,345.9 27.5,346.4 24.8,346.4 24.8,345.9 		"/>
	</g>
	<g id="LWPOLYLINE-80">
		<polyline class="st12" points="24.8,344.2 24.8,343.7 27.5,343.7 27.5,344.2 		"/>
	</g>
	<g id="LINE-442">
		<line class="st12" x1="27.3" y1="344.2" x2="27.3" y2="345.9"/>
	</g>
	<g id="CIRCLE-11">
		<path class="st12" d="M25,333c0-0.6,0.5-1.1,1.1-1.1c0.6,0,1.1,0.5,1.1,1.1s-0.5,1.1-1.1,1.1c0,0,0,0,0,0
			C25.5,334.1,25,333.6,25,333C25,333,25,333,25,333z"/>
	</g>
	<g id="LWPOLYLINE-81">
		<polyline class="st12" points="27.5,339.8 27.5,340.4 24.8,340.4 24.8,337.7 27.5,337.7 27.5,338.3 		"/>
	</g>
	<g id="LWPOLYLINE-82">
		<polyline class="st12" points="27.5,333.3 27.5,334.4 24.8,334.4 24.8,331.7 27.5,331.7 27.5,332.8 		"/>
	</g>
	<g id="LWPOLYLINE-83">
		<polyline class="st12" points="27.2,333.3 29,333.3 29,332.8 27.2,332.8 		"/>
	</g>
	<rect x="24" y="321" class="st12" width="4.3" height="4.3"/>
	<g id="LWPOLYLINE-84">
		<rect x="25.4" y="338.3" class="st12" width="13.5" height="1.5"/>
	</g>
	<g id="LWPOLYLINE-85">
		<polyline class="st12" points="29.1,339.8 29.1,361.5 54.7,361.5 54.7,316.5 29.1,316.5 29.1,338.3 		"/>
	</g>
	<rect x="25.6" y="323.3" class="st13" width="12.2" height="1.7"/>
	<rect x="25.8" y="321.7" class="st12" width="0.8" height="1.2"/>
	<line class="st12" x1="25.6" y1="321.4" x2="26.7" y2="321.4"/>
	<g id="LWPOLYLINE-86">
		<path class="st12" d="M776.7,110.6v14c0,0.3-0.3,0.6-0.6,0.6h-17.9c-0.3,0-0.6-0.3-0.6-0.6v-28c0-0.3,0.3-0.6,0.6-0.6l0,0h17.9
			c0.3,0,0.6,0.3,0.6,0.6l0,0V110.6z"/>
	</g>
	<g id="LWPOLYLINE-87">
		<path class="st12" d="M776.7,160.1v14c0,0.3-0.3,0.6-0.6,0.6h-17.9c-0.3,0-0.6-0.3-0.6-0.6v-28c0-0.3,0.3-0.6,0.6-0.6l0,0h17.9
			c0.3,0,0.6,0.3,0.6,0.6c0,0,0,0,0,0V160.1z"/>
	</g>
	<g id="ELLIPSE-4">
		<path class="st12" d="M342.3,158.9c0-5,5.9-9,13.1-9s13.1,4,13.1,9s-5.9,9-13.1,9S342.3,163.9,342.3,158.9z"/>
	</g>
	<g id="LWPOLYLINE-88">
		<rect x="358" y="172.9" class="st12" width="3.8" height="0.4"/>
	</g>
	<g id="LWPOLYLINE-89">
		<rect x="353.5" y="172.9" class="st12" width="3.8" height="0.4"/>
	</g>
	<g id="LWPOLYLINE-90">
		<rect x="349" y="172.9" class="st12" width="3.8" height="0.4"/>
	</g>
	<g id="LWPOLYLINE-91">
		<polyline class="st13" points="361.2,172.9 361.2,169.1 358.6,169.1 358.6,172.9 		"/>
	</g>
	<g id="LWPOLYLINE-92">
		<polyline class="st13" points="349.6,172.9 349.6,169.1 352.2,169.1 352.2,172.9 		"/>
	</g>
	<g id="LWPOLYLINE-93">
		<polyline class="st12" points="779.6,109.5 779.6,109 782.8,109 782.8,112.2 779.6,112.2 779.6,111.7 		"/>
	</g>
	<g id="LWPOLYLINE-94">
		<polyline class="st13" points="355.9,172.9 355.9,160.9 354.9,160.9 354.9,172.9 		"/>
	</g>
	<g id="LWPOLYLINE-95">
		<polyline class="st12" points="779.6,116 779.6,115 782.8,115 782.8,118.2 779.6,118.2 779.6,117.2 		"/>
	</g>
	<g id="LWPOLYLINE-96">
		<rect x="769.4" y="109.5" class="st13" width="12" height="2.2"/>
	</g>
	<g id="ARC-7">
		<path class="st12" d="M780.2,117.2c0.4,0.5,1.1,0.6,1.6,0.3c0.5-0.3,0.6-1,0.3-1.5c-0.3-0.5-1-0.7-1.6-0.3
			c-0.1,0.1-0.3,0.2-0.3,0.3"/>
	</g>
	<g id="LWPOLYLINE-97">
		<rect x="777.3" y="116" class="st12" width="4.1" height="1.2"/>
	</g>
	<g id="LWPOLYLINE-98">
		<polyline class="st12" points="779.6,159 779.6,158.5 782.8,158.5 782.8,161.7 779.6,161.7 779.6,161.2 		"/>
	</g>
	<g id="LWPOLYLINE-99">
		<polyline class="st12" points="779.6,165.5 779.6,164.5 782.8,164.5 782.8,167.7 779.6,167.7 779.6,166.7 		"/>
	</g>
	<g id="LWPOLYLINE-100">
		<rect x="769.4" y="159" class="st13" width="12" height="2.2"/>
	</g>
	<g id="ARC-8">
		<path class="st12" d="M780.2,166.7c0.4,0.5,1.1,0.6,1.6,0.3c0.5-0.3,0.6-1,0.3-1.5c-0.3-0.5-1-0.7-1.6-0.4
			c-0.1,0.1-0.3,0.2-0.3,0.4"/>
	</g>
	<g id="LWPOLYLINE-101">
		<rect x="777.3" y="165.5" class="st12" width="4.1" height="1.2"/>
	</g>
</g>
<g id="SILLS">
	<line class="st9" x1="190.1" y1="427.6" x2="25.4" y2="418.1"/>
	<line class="st9" x1="461.2" y1="443" x2="296.5" y2="433.6"/>
	<line class="st9" x1="732.2" y1="458.5" x2="567.5" y2="449"/>
	<line class="st9" x1="189.2" y1="449.1" x2="23.8" y2="439.7"/>
	<line class="st9" x1="460.9" y1="464.7" x2="294.4" y2="455"/>
	<line class="st9" x1="731.1" y1="480.2" x2="566.3" y2="470.6"/>
</g>
<g id="WINDOW_GLAZING">
	<line class="st14" x1="32.3" y1="425.6" x2="96.7" y2="429.3"/>
	<line class="st14" x1="32.3" y1="427.8" x2="96.7" y2="431.5"/>
	<line class="st14" x1="117.9" y1="430.6" x2="182.3" y2="434.3"/>
	<line class="st14" x1="117.7" y1="432.8" x2="182.1" y2="436.5"/>
	<line class="st14" x1="303.4" y1="441.4" x2="367.8" y2="445"/>
	<line class="st14" x1="303.4" y1="443.4" x2="367.8" y2="447.1"/>
	<line class="st14" x1="389" y1="446.3" x2="453.4" y2="450"/>
	<line class="st14" x1="388.8" y1="448.5" x2="453.4" y2="452.2"/>
	<line class="st14" x1="574.5" y1="456.8" x2="638.9" y2="460.5"/>
	<line class="st14" x1="574.7" y1="459" x2="639.1" y2="462.6"/>
	<line class="st14" x1="660.1" y1="461.7" x2="724.5" y2="465.4"/>
	<line class="st14" x1="659.9" y1="463.9" x2="724.5" y2="467.6"/>
</g>
<g id="MULLIONS">
	<g id="LWPOLYLINE-102">
		<line class="st2" x1="104.1" y1="435.2" x2="104.5" y2="426.6"/>
	</g>
	<g id="LWPOLYLINE-103">
		<line class="st2" x1="189.4" y1="440.1" x2="189.9" y2="431.5"/>
	</g>
	<g id="LWPOLYLINE-104">
		<polyline class="st2" points="461,447.1 381.6,442.5 381.1,451.1 460.5,455.7 		"/>
	</g>
	<g id="LWPOLYLINE-105">
		<polyline class="st2" points="189.9,431.5 110.5,427 110,435.6 189.4,440.1 		"/>
	</g>
	<g id="LWPOLYLINE-106">
		<polygon class="st2" points="28.5,430.9 24.7,430.7 25.2,422 29,422.3 		"/>
		<polyline class="st2" points="28.8,427.9 32.3,428.1 32.5,425.5 28.9,425.3 		"/>
	</g>
	<g id="LWPOLYLINE-107">
		<polygon class="st2" points="100.7,426.3 104.5,426.5 104.1,435.1 100.2,434.9 		"/>
		<polyline class="st2" points="100.5,429.3 96.9,429.1 96.7,431.7 100.3,431.9 		"/>
	</g>
	<g id="LWPOLYLINE-108">
		<polygon class="st2" points="186.1,431.3 189.9,431.5 189.4,440.1 185.6,439.9 		"/>
		<polyline class="st2" points="185.8,434.3 182.2,434.1 182.1,436.7 185.7,436.9 		"/>
	</g>
	<g id="LWPOLYLINE-109">
		<polygon class="st2" points="113.8,435.8 110,435.6 110.5,427 114.4,427.2 		"/>
		<polyline class="st2" points="114.1,432.8 117.7,433 117.8,430.4 114.2,430.2 		"/>
	</g>
	<g id="LWPOLYLINE-110">
		<polyline class="st2" points="104.1,435.2 24.7,430.7 25.2,422 104.5,426.6 		"/>
	</g>
	<polygon class="st2" points="110,435.6 104.1,435.2 104.7,424.2 110.5,424.6 	"/>
	<g id="LWPOLYLINE-111">
		<line class="st2" x1="375.1" y1="450.9" x2="375.6" y2="442.3"/>
	</g>
	<g id="LWPOLYLINE-112">
		<polygon class="st2" points="299.6,446.5 295.8,446.3 296.2,437.7 300.1,437.9 		"/>
		<polyline class="st2" points="299.8,443.5 303.4,443.8 303.6,441.1 300,440.9 		"/>
	</g>
	<g id="LWPOLYLINE-113">
		<polygon class="st2" points="371.8,442 375.6,442.2 375.1,450.8 371.3,450.6 		"/>
		<polyline class="st2" points="371.5,445 368,444.8 367.8,447.4 371.4,447.6 		"/>
	</g>
	<g id="LWPOLYLINE-114">
		<polygon class="st2" points="457.2,447 461,447.2 460.5,455.8 456.6,455.6 		"/>
		<polyline class="st2" points="456.9,449.9 453.3,449.7 453.2,452.4 456.8,452.6 		"/>
	</g>
	<g id="LWPOLYLINE-115">
		<polygon class="st2" points="384.9,451.4 381.1,451.2 381.6,442.6 385.5,442.8 		"/>
		<polyline class="st2" points="385.2,448.5 388.8,448.7 388.9,446 385.3,445.8 		"/>
	</g>
	<g id="LWPOLYLINE-116">
		<polyline class="st2" points="375.1,450.9 295.8,446.3 296.2,437.7 375.6,442.3 		"/>
	</g>
	<polygon class="st2" points="381.1,451.2 375.1,450.9 375.8,439.8 381.6,440.2 	"/>
	<g id="LWPOLYLINE-117">
		<polyline class="st2" points="732.1,462.5 652.7,458 652.2,466.6 731.6,471.1 		"/>
	</g>
	<g id="LWPOLYLINE-118">
		<line class="st2" x1="646.3" y1="466.3" x2="646.8" y2="457.7"/>
	</g>
	<g id="LWPOLYLINE-119">
		<polygon class="st2" points="570.7,461.9 566.9,461.7 567.4,453.1 571.2,453.3 		"/>
		<polyline class="st2" points="571,459 574.6,459.2 574.7,456.5 571.1,456.3 		"/>
	</g>
	<g id="LWPOLYLINE-120">
		<polygon class="st2" points="643,457.4 646.8,457.6 646.3,466.2 642.4,466 		"/>
		<polyline class="st2" points="642.7,460.4 639.1,460.2 639,462.8 642.6,463 		"/>
	</g>
	<g id="LWPOLYLINE-121">
		<polygon class="st2" points="728.3,462.4 732.1,462.6 731.6,471.2 727.8,471 		"/>
		<polyline class="st2" points="728,465.4 724.5,465.1 724.3,467.8 727.9,468 		"/>
	</g>
	<g id="LWPOLYLINE-122">
		<polygon class="st2" points="656.1,466.8 652.3,466.6 652.8,458 656.6,458.2 		"/>
		<polyline class="st2" points="656.3,463.9 659.9,464.1 660.1,461.5 656.5,461.2 		"/>
	</g>
	<g id="LWPOLYLINE-123">
		<polyline class="st2" points="646.3,466.3 566.9,461.7 567.4,453.1 		"/>
		<line class="st2" x1="646.8" y1="457.6" x2="566.9" y2="453"/>
	</g>
	<polygon class="st2" points="652.3,466.6 646.3,466.3 646.9,455.2 652.8,455.7 	"/>
</g>
<g id="DOOR_SWING">
	<path class="st8" d="M496.6,276.4c0,28.2,22.8,51,51,51"/>
	<path class="st8" d="M547.6,327.4c-28.2,0-51,22.8-51,51"/>
</g>
<g id="DOOR_SWING_MAIN">
	<path class="st15" d="M446.4,84.3c9-9.9,14-22.9,14-36.3"/>
</g>
<g id="DOORS">
	<g id="LINE-443">
		<line class="st16" x1="652.8" y1="120.9" x2="655.4" y2="120.9"/>
	</g>
	<g id="LINE-444">
		<line class="st16" x1="655.4" y1="120.9" x2="655.4" y2="69.9"/>
	</g>
	<g id="LINE-445">
		<line class="st16" x1="655.4" y1="69.9" x2="652.8" y2="69.9"/>
	</g>
	<g id="LINE-446">
		<line class="st16" x1="652.8" y1="69.9" x2="652.8" y2="120.9"/>
	</g>
	<g id="LINE-447">
		<line class="st16" x1="656.1" y1="90.4" x2="656.1" y2="40.1"/>
	</g>
	<g id="LINE-448">
		<line class="st16" x1="656.1" y1="40.1" x2="652" y2="40.1"/>
	</g>
	<g id="LINE-449">
		<line class="st16" x1="652" y1="40.1" x2="652" y2="90.4"/>
	</g>
	<g id="LWPOLYLINE-124">
		<rect x="425.3" y="39" transform="matrix(0.7071 -0.7071 0.7071 0.7071 78.2337 320.829)" class="st17" width="2.2" height="54"/>
	</g>
	<g id="LWPOLYLINE-125">
		<polygon class="st17" points="489.7,188 487.4,188.1 487.4,143.1 489.6,143 		"/>
	</g>
	<g id="LWPOLYLINE-126">
		<polygon class="st17" points="489.8,82.9 487.5,82.8 487.3,127.8 489.5,127.9 		"/>
	</g>
	<g id="LINE-450">
		<line class="st16" x1="688.6" y1="228.9" x2="688.6" y2="224.8"/>
	</g>
	<g id="LINE-451">
		<rect x="612.8" y="225.6" class="st17" width="51" height="2.6"/>
	</g>
	<g id="LWPOLYLINE-127">
		<polygon class="st17" points="547.5,278.6 547.6,276.4 496.6,276.4 496.5,278.6 		"/>
	</g>
	<g id="LWPOLYLINE-128">
		<polygon class="st17" points="547.5,376.1 547.6,378.4 496.6,378.4 496.5,376.1 		"/>
	</g>
	<g id="LWPOLYLINE-129">
		<rect x="252.8" y="197.1" class="st17" width="52.5" height="2.2"/>
	</g>
	<g id="LINE-452">
		<line class="st16" x1="390.3" y1="121.7" x2="393" y2="121.7"/>
	</g>
	<g id="LINE-453">
		<line class="st16" x1="393" y1="121.7" x2="393" y2="173.9"/>
	</g>
	<g id="LINE-454">
		<line class="st16" x1="393" y1="173.9" x2="390.3" y2="173.9"/>
	</g>
	<g id="LINE-455">
		<line class="st16" x1="390.3" y1="173.9" x2="390.3" y2="121.7"/>
	</g>
	<g id="LINE-456">
		<line class="st16" x1="393.7" y1="201" x2="389.6" y2="201"/>
	</g>
</g>
<g id="WALLS">
	<g id="LWPOLYLINE-130">
		<polygon class="st18" points="197.2,449.5 295.2,455.1 296.4,435.1 298,406 257.5,403.7 258.1,393.1 215.2,390.7 215.2,387.7 
			207.7,387.7 207.7,400.9 199.1,400.5 197.9,421.9 190.5,421.5 190,429 188.9,449 197.2,449.5 		"/>
	</g>
	<g id="LWPOLYLINE-131">
		<polyline class="st18" points="496.4,384.4 496.4,391.1 515,391.1 515,412.9 496.4,412.9 496.4,417.4 462.8,415.5 461.1,444.4 
			460,464.6 468.3,465.1 468.3,465.1 566.3,470.7 567.4,450.5 569.1,421.6 555.1,420.8 555.1,418.9 528.1,418.9 528.1,391.9 
			555.1,391.9 555.1,378.4 547.6,378.4 547.6,384.4 496.4,384.4 		"/>
	</g>
	<g id="LWPOLYLINE-132">
		<polygon class="st18" points="393.7,147.7 393.7,201 389.6,201 389.6,147.7 382.4,147.7 382.4,181.5 370.4,181.5 370.4,174.7 
			373.4,174.7 373.4,173.2 337.4,173.2 337.4,174.7 340.4,174.7 340.4,181.5 328.4,181.5 328.4,43.5 382.4,43.5 382.4,95.2 
			400.4,95.2 400.4,48 406.4,48 406.4,39 403.4,39 403.4,24 234.1,24 234.1,197.1 6.8,197.1 6.8,438.7 24.2,439.7 26.3,403 
			15.7,403 15.7,204.6 200.2,204.6 200.2,246.6 207.7,246.6 207.7,254.1 215.2,254.1 215.2,204.6 252.8,204.6 252.8,197.1 
			243.8,197.1 243.8,53.2 258.6,53.2 258.6,33 320.9,33 320.9,197.1 305.3,197.1 305.3,204.6 404.9,204.6 404.9,192.6 400.4,192.6 
			400.4,147.7 		"/>
	</g>
	<g id="LWPOLYLINE-133">
		<polygon class="st18" points="660.1,90.4 660.1,85.9 666.1,85.9 666.1,72.4 666.1,39.4 666.1,33.4 750.1,33.4 750.1,85.9 
			793.6,85.9 793.6,184.9 753.1,184.9 753.1,220.9 660.1,220.9 660.1,142.9 642.1,142.9 642.1,220.9 636.1,220.9 636.1,224.8 
			688.6,224.8 688.6,228.9 636.1,228.9 636.1,232.9 796.6,232.9 796.6,424.2 762.3,422 761.6,432.7 733.8,431.1 732.2,459.9 
			731,480.2 805.6,484.4 805.6,24.4 490.4,24.4 490.4,39 460.4,39 460.4,48 487.4,48 487.4,82.9 494.9,82.9 494.9,79.9 543,79.9 
			543,130.9 494.9,130.9 494.9,127.9 487.4,127.9 487.4,143.1 494.9,143.1 494.9,138.4 543,138.4 543,196.9 494.9,196.9 
			494.9,188.1 487.4,188.1 487.4,192.6 482.9,192.6 482.9,204.6 496.4,204.7 496.4,235.9 514.4,235.9 514.4,262.9 496.4,262.9 
			496.4,270.4 547.6,270.4 547.6,276.4 555.1,276.4 555.1,232.9 583.6,232.9 583.6,220.9 555.1,220.9 555.1,33.4 642.1,33.4 
			642.1,90.4 652,90.4 652,40.1 656.1,40.1 656.1,90.4 		"/>
	</g>
</g>
<g id="LIVE">
	<g id="MTEXT">
		<g class="st19">
			<path class="st20" d="M131.9,379.7l1.4,5.1l1.3-5.1h0.8l-1.7,6.4h-0.7l-1.3-5l-1.4,5h-0.7l-1.7-6.4h0.8l1.3,5.1l1.4-5.1H131.9z"
				/>
			<path class="st20" d="M137.1,383.4v2.7h-0.8v-6.4h2.4c1.3,0,2.1,0.6,2.1,1.9c0,1.1-0.6,1.7-1.6,1.8l1.9,2.7h-0.9l-1.8-2.7H137.1z
				 M137.1,382.7h1.5c0.8,0,1.3-0.4,1.3-1.1c0-0.7-0.5-1.1-1.3-1.1h-1.5V382.7z"/>
		</g>
	</g>
	<g id="MTEXT-2">
		<g class="st19">
			<path class="st20" d="M170.9,228.2v2.7h-0.8v-6.4h2.4c1.3,0,2.1,0.6,2.1,1.9c0,1.1-0.6,1.7-1.6,1.8l1.9,2.7h-0.9l-1.8-2.7H170.9z
				 M170.9,227.5h1.5c0.8,0,1.3-0.4,1.3-1.1c0-0.7-0.5-1.1-1.3-1.1h-1.5V227.5z"/>
			<path class="st20" d="M177.7,224.1h0.8l-2.6,7.6h-0.8L177.7,224.1z"/>
			<path class="st20" d="M179.3,230.9v-6.4h3.9v0.7h-3.1v2.2h2.9v0.7h-2.9v2.8H179.3z"/>
		</g>
	</g>
	<g class="st19">
		<path class="st20" d="M279.9,116.7l1.4,5.1l1.3-5.1h0.8l-1.7,6.4h-0.7l-1.3-5l-1.4,5h-0.7l-1.7-6.4h0.8l1.3,5.1l1.4-5.1H279.9z"/>
		<path class="st20" d="M285.1,123.1h-0.8v-6.4h0.8V123.1z"/>
		<path class="st20" d="M289.1,116.6c1.3,0,2.2,0.8,2.5,2h-0.8c-0.3-0.7-0.8-1.2-1.7-1.2c-1.2,0-2,1-2,2.5c0,1.5,0.8,2.5,2,2.5
			c0.9,0,1.4-0.5,1.7-1.2h0.8c-0.3,1.2-1.2,2-2.5,2c-1.6,0-2.9-1.3-2.9-3.3C286.2,117.9,287.5,116.6,289.1,116.6z"/>
	</g>
	<g id="MTEXT-3">
		<g class="st19">
			<path class="st20" d="M30.4,380.9h2c1.9,0,3.1,1.2,3.1,3.2c0,1.9-1.2,3.2-3.1,3.2h-2V380.9z M32.4,386.6c1.4,0,2.3-1,2.3-2.5
				c0-1.5-0.9-2.5-2.3-2.5h-1.2v4.9H32.4z"/>
		</g>
		<g class="st19">
			<path class="st20" d="M40.2,380.9l1.4,5.1l1.3-5.1h0.8l-1.7,6.4h-0.7l-1.3-5l-1.4,5h-0.7l-1.7-6.4h0.8l1.3,5.1l1.4-5.1H40.2z"/>
		</g>
	</g>
	<g id="MTEXT-4">
		<g class="st19">
			<path class="st20" d="M515.8,101.8l1.4,5.1l1.3-5.1h0.8l-1.7,6.4h-0.7l-1.3-5l-1.4,5h-0.7l-1.7-6.4h0.8l1.3,5.1l1.4-5.1H515.8z"
				/>
		</g>
		<g class="st19">
			<path class="st20" d="M522,101.4h0.8l-2.6,7.6h-0.8L522,101.4z"/>
			<path class="st20" d="M523.5,101.8h2c1.9,0,3.1,1.2,3.1,3.2c0,1.9-1.2,3.2-3.1,3.2h-2V101.8z M525.6,107.5c1.4,0,2.3-1,2.3-2.5
				c0-1.5-0.9-2.5-2.3-2.5h-1.2v4.9H525.6z"/>
		</g>
	</g>
	<g id="MTEXT-5">
		<g class="st19">
			<path class="st20" d="M424.2,4.7v0.7H421v2h3v0.7h-3v2.2h3.3V11h-4.1V4.7H424.2z"/>
			<path class="st20" d="M430.5,11h-0.6L426.3,6V11h-0.8V4.7h0.8l3.4,4.9V4.7h0.8V11z"/>
			<path class="st20" d="M431.6,4.7h5.3v0.7h-2.2V11h-0.8V5.4h-2.2V4.7z"/>
		</g>
		<g class="st19">
			<path class="st20" d="M438.7,8.3V11h-0.8V4.7h2.4c1.3,0,2.1,0.6,2.1,1.9c0,1.1-0.6,1.7-1.6,1.8l1.9,2.7h-0.9l-1.8-2.7H438.7z
				 M438.7,7.6h1.5c0.8,0,1.3-0.4,1.3-1.1c0-0.7-0.5-1.1-1.3-1.1h-1.5V7.6z"/>
		</g>
		<g class="st19">
			<path class="st20" d="M447.5,4.7h0.9l-2.3,3.8V11h-0.8V8.4l-2.3-3.8h0.9l1.8,3L447.5,4.7z"/>
		</g>
	</g>
	<polygon class="st20" points="434.3,31.1 441.4,18.9 427.3,18.9 427.3,18.9 	"/>
	<g class="st19">
		<path class="st20" d="M640.2,322.8l-2-4.9v4.9h-0.8v-6.4h0.9l2.2,5.2l2.2-5.2h0.9v6.4h-0.8v-4.9l-2,4.9H640.2z"/>
	</g>
	<g class="st19">
		<path class="st20" d="M647.8,316.4l2.5,6.4h-0.8l-0.7-1.9h-2.6l-0.7,1.9h-0.8l2.5-6.4H647.8z M646.4,320.1h2.1l-1-2.7L646.4,320.1
			z"/>
	</g>
	<g class="st19">
		<path class="st20" d="M651.6,321.1c0.2,0.7,0.8,1.1,1.6,1.1c0.8,0,1.4-0.4,1.4-1.1c0-0.5-0.3-0.8-1-1l-1.1-0.3
			c-0.9-0.2-1.5-0.7-1.5-1.6c0-1.1,0.9-1.8,2.1-1.8c1.3,0,2.1,0.7,2.3,1.7h-0.8c-0.2-0.6-0.7-1-1.5-1c-0.8,0-1.3,0.4-1.3,1.1
			c0,0.5,0.4,0.8,1,1l1.1,0.3c1,0.3,1.6,0.8,1.6,1.7c0,1.2-0.9,1.9-2.2,1.9s-2.2-0.6-2.5-1.8H651.6z"/>
	</g>
	<g class="st19">
		<path class="st20" d="M656,316.4h5.3v0.7H659v5.7h-0.8v-5.7H656V316.4z"/>
		<path class="st20" d="M666.4,316.4v0.7h-3.3v2h3v0.7h-3v2.2h3.3v0.7h-4.1v-6.4H666.4z"/>
		<path class="st20" d="M668.5,320v2.7h-0.8v-6.4h2.4c1.3,0,2.1,0.6,2.1,1.9c0,1.1-0.6,1.7-1.6,1.8l1.9,2.7h-0.9l-1.8-2.7H668.5z
			 M668.5,319.3h1.5c0.8,0,1.3-0.4,1.3-1.1c0-0.7-0.5-1.1-1.3-1.1h-1.5V319.3z"/>
		<path class="st20" d="M680.2,320.9c0,1.2-0.8,1.8-2.1,1.8h-2.3v-6.4h2.1c1.3,0,2.1,0.6,2.1,1.7c0,0.8-0.4,1.2-0.9,1.4
			C679.7,319.6,680.2,320.2,680.2,320.9z M677.8,319.1c0.9,0,1.3-0.3,1.3-1s-0.5-1-1.3-1h-1.3v2.1H677.8z M676.5,322h1.5
			c0.9,0,1.3-0.4,1.3-1.1c0-0.7-0.5-1.1-1.3-1.1h-1.5V322z"/>
		<path class="st20" d="M685.4,316.4v0.7h-3.3v2h3v0.7h-3v2.2h3.3v0.7h-4.1v-6.4H685.4z"/>
		<path class="st20" d="M686.7,316.4h2c1.9,0,3.1,1.2,3.1,3.2c0,1.9-1.2,3.2-3.1,3.2h-2V316.4z M688.7,322c1.4,0,2.3-1,2.3-2.5
			c0-1.5-0.9-2.5-2.3-2.5h-1.2v4.9H688.7z"/>
	</g>
	<g class="st19">
		<path class="st20" d="M693.8,320v2.7H693v-6.4h2.4c1.3,0,2.1,0.6,2.1,1.9c0,1.1-0.6,1.7-1.6,1.8l1.9,2.7h-0.9l-1.8-2.7H693.8z
			 M693.8,319.3h1.5c0.8,0,1.3-0.4,1.3-1.1c0-0.7-0.5-1.1-1.3-1.1h-1.5V319.3z"/>
	</g>
	<g class="st19">
		<path class="st20" d="M701.2,322.8c-1.7,0-2.9-1.4-2.9-3.3c0-1.9,1.2-3.3,2.9-3.3c1.7,0,2.9,1.4,2.9,3.3
			C704.1,321.5,702.9,322.8,701.2,322.8z M701.2,317c-1.2,0-2.1,1.1-2.1,2.5c0,1.5,0.8,2.5,2.1,2.5c1.2,0,2.1-1.1,2.1-2.5
			C703.3,318.1,702.4,317,701.2,317z"/>
	</g>
	<g class="st19">
		<path class="st20" d="M707.8,322.8c-1.7,0-2.9-1.4-2.9-3.3c0-1.9,1.2-3.3,2.9-3.3c1.7,0,2.9,1.4,2.9,3.3
			C710.7,321.5,709.5,322.8,707.8,322.8z M707.8,317c-1.2,0-2.1,1.1-2.1,2.5c0,1.5,0.8,2.5,2.1,2.5c1.2,0,2.1-1.1,2.1-2.5
			C709.9,318.1,709,317,707.8,317z"/>
		<path class="st20" d="M714.6,322.8l-2-4.9v4.9h-0.8v-6.4h0.9l2.2,5.2l2.2-5.2h0.9v6.4h-0.8v-4.9l-2,4.9H714.6z"/>
	</g>
	<g class="st19">
		<path class="st20" d="M654.9,333.9h-0.8v-5.4l-1.6,0.8v-0.8l1.9-1h0.5V333.9z"/>
	</g>
	<g class="st19">
		<path class="st20" d="M657.7,330.3h0.4c0.7,0,1.2-0.4,1.2-1.1c0-0.6-0.4-1.1-1.2-1.1c-0.7,0-1.2,0.5-1.3,1.1h-0.8
			c0.2-1.1,0.9-1.8,2.1-1.8c1.2,0,1.9,0.7,1.9,1.7c0,0.7-0.4,1.3-1,1.5c0.7,0.2,1.1,0.8,1.1,1.5c0,1.1-0.8,1.9-2,1.9
			c-1.2,0-2.1-0.8-2.2-1.9h0.8c0.1,0.7,0.6,1.2,1.4,1.2c0.8,0,1.3-0.5,1.3-1.2c0-0.7-0.6-1.1-1.3-1.1h-0.4V330.3z"/>
	</g>
	<g class="st19">
		<path class="st20" d="M661.4,328.5c-0.3,0-0.5-0.2-0.5-0.5c0-0.3,0.2-0.6,0.6-0.6s0.6,0.2,0.6,0.6c0,0.2-0.1,0.4-0.2,0.7l-0.5,0.9
			h-0.5L661.4,328.5z"/>
	</g>
	<g class="st19">
		<path class="st20" d="M662.8,330.9h2.5v0.7h-2.5V330.9z"/>
	</g>
	<g class="st19">
		<path class="st20" d="M667.1,331.1h-0.6v-3.5h3.5v0.7h-2.8v1.9c0.2-0.2,0.6-0.4,1.2-0.4c1.2,0,2,0.9,2,2.1c0,1.2-0.9,2.1-2.1,2.1
			c-1.2,0-2.1-0.7-2.2-1.9h0.8c0.1,0.7,0.6,1.2,1.4,1.2c0.8,0,1.3-0.6,1.3-1.4c0-0.8-0.5-1.4-1.3-1.4
			C667.7,330.5,667.3,330.8,667.1,331.1z"/>
	</g>
	<g class="st19">
		<path class="st20" d="M670.9,327.6h0.7v2.3h-0.7V327.6z M672.2,327.6h0.7v2.3h-0.7V327.6z"/>
		<path class="st20" d="M678.3,331.5l1.7,2.4h-0.9l-1.3-1.8l-1.3,1.8h-0.8l1.7-2.4l-1.6-2.3h0.9l1.2,1.7l1.2-1.7h0.9L678.3,331.5z"
			/>
	</g>
	<g class="st19">
		<path class="st20" d="M685.2,333.9h-0.8v-5.4l-1.6,0.8v-0.8l1.9-1h0.5V333.9z"/>
		<path class="st20" d="M688.4,328.2c-0.8,0-1.2,0.5-1.2,1.3h-0.8c0.1-1.2,0.9-2,2.1-2c1.2,0,1.9,0.7,1.9,1.8c0,0.8-0.6,1.4-1.3,2.2
			l-1.6,1.8h3v0.7h-4.2v-0.5l2.1-2.3c0.7-0.7,1.2-1.3,1.2-1.9C689.5,328.6,689.1,328.2,688.4,328.2z"/>
	</g>
	<g class="st19">
		<path class="st20" d="M691.2,327.6h0.7v2.3h-0.7V327.6z"/>
	</g>
	<g class="st19">
		<path class="st20" d="M692.7,330.9h2.5v0.7h-2.5V330.9z"/>
	</g>
	<g class="st19">
		<path class="st20" d="M697,331.1h-0.6v-3.5h3.5v0.7H697v1.9c0.2-0.2,0.6-0.4,1.2-0.4c1.2,0,2,0.9,2,2.1c0,1.2-0.9,2.1-2.1,2.1
			c-1.2,0-2-0.7-2.2-1.9h0.8c0.1,0.7,0.6,1.2,1.4,1.2c0.8,0,1.3-0.6,1.3-1.4c0-0.8-0.5-1.4-1.3-1.4
			C697.6,330.5,697.2,330.8,697,331.1z"/>
	</g>
	<g class="st19">
		<path class="st20" d="M700.9,327.6h0.7v2.3h-0.7V327.6z M702.1,327.6h0.7v2.3h-0.7V327.6z"/>
	</g>
	<g class="st19">
		<path class="st20" d="M362.5,331.5v-0.7h2.3v0.4c0,1.7-1.1,2.8-2.6,2.8c-1.7,0-2.9-1.3-2.9-3.3s1.3-3.3,2.9-3.3
			c1.4,0,2.3,0.8,2.5,2h-0.8c-0.3-0.7-0.8-1.2-1.7-1.2c-1.2,0-2.1,1-2.1,2.5c0,1.5,0.8,2.6,2.1,2.6c1.1,0,1.8-0.7,1.9-1.8H362.5z"/>
		<path class="st20" d="M366.7,331.2v2.7h-0.8v-6.4h2.4c1.3,0,2.1,0.6,2.1,1.9c0,1.1-0.6,1.7-1.6,1.8l1.9,2.7h-0.9l-1.8-2.7H366.7z
			 M366.7,330.5h1.5c0.8,0,1.3-0.4,1.3-1.1c0-0.7-0.5-1.1-1.3-1.1h-1.5V330.5z"/>
		<path class="st20" d="M375.7,327.5v0.7h-3.3v2h3v0.7h-3v2.2h3.3v0.7h-4.1v-6.4H375.7z"/>
	</g>
	<g class="st19">
		<path class="st20" d="M379.7,327.5l2.5,6.4h-0.8l-0.7-1.9H378l-0.7,1.9h-0.8l2.5-6.4H379.7z M378.3,331.3h2.1l-1-2.7L378.3,331.3z
			"/>
	</g>
	<g class="st19">
		<path class="st20" d="M382.2,327.5h5.3v0.7h-2.2v5.7h-0.8v-5.7h-2.2V327.5z"/>
	</g>
	<g class="st19">
		<path class="st20" d="M391.6,331.2v2.7h-0.8v-6.4h2.4c1.3,0,2.1,0.6,2.1,1.9c0,1.1-0.6,1.7-1.6,1.8l1.9,2.7h-0.9l-1.8-2.7H391.6z
			 M391.6,330.5h1.5c0.8,0,1.3-0.4,1.3-1.1c0-0.7-0.5-1.1-1.3-1.1h-1.5V330.5z"/>
	</g>
	<g class="st19">
		<path class="st20" d="M399,334c-1.7,0-2.9-1.4-2.9-3.3c0-1.9,1.2-3.3,2.9-3.3c1.7,0,2.9,1.4,2.9,3.3
			C401.9,332.7,400.7,334,399,334z M399,328.2c-1.2,0-2.1,1.1-2.1,2.5c0,1.5,0.8,2.5,2.1,2.5c1.2,0,2.1-1.1,2.1-2.5
			C401.1,329.2,400.3,328.2,399,328.2z"/>
	</g>
	<g class="st19">
		<path class="st20" d="M405.6,334c-1.7,0-2.9-1.4-2.9-3.3c0-1.9,1.2-3.3,2.9-3.3c1.7,0,2.9,1.4,2.9,3.3
			C408.5,332.7,407.3,334,405.6,334z M405.6,328.2c-1.2,0-2.1,1.1-2.1,2.5c0,1.5,0.8,2.5,2.1,2.5c1.2,0,2.1-1.1,2.1-2.5
			C407.7,329.2,406.9,328.2,405.6,328.2z"/>
		<path class="st20" d="M412.5,333.9l-2-4.9v4.9h-0.8v-6.4h0.9l2.2,5.2l2.2-5.2h0.9v6.4H415V329l-2,4.9H412.5z"/>
	</g>
	<g class="st19">
		<path class="st20" d="M365.1,339.4c-0.8,0-1.2,0.5-1.2,1.3H363c0.1-1.2,0.9-2,2.1-2c1.2,0,1.9,0.7,1.9,1.8c0,0.8-0.6,1.4-1.3,2.2
			l-1.6,1.8h3v0.7H363v-0.5l2.1-2.3c0.7-0.7,1.2-1.3,1.2-1.9C366.3,339.8,365.8,339.4,365.1,339.4z"/>
	</g>
	<g class="st19">
		<path class="st20" d="M368.5,343h2v-1.5h0.8v1.5h1.1v0.7h-1.1v1.4h-0.8v-1.4h-2.9v-0.6l2.5-4.4h0.8L368.5,343z"/>
	</g>
	<g class="st19">
		<path class="st20" d="M373.3,339.7c-0.3,0-0.5-0.2-0.5-0.5c0-0.3,0.2-0.6,0.6-0.6c0.3,0,0.6,0.2,0.6,0.6c0,0.2-0.1,0.4-0.2,0.7
			l-0.5,0.9h-0.5L373.3,339.7z"/>
	</g>
	<g class="st19">
		<path class="st20" d="M374.6,342h2.5v0.7h-2.5V342z"/>
	</g>
	<g class="st19">
		<path class="st20" d="M378.7,343h2v-1.5h0.8v1.5h1.1v0.7h-1.1v1.4h-0.8v-1.4h-2.9v-0.6l2.5-4.4h0.8L378.7,343z"/>
	</g>
	<g class="st19">
		<path class="st20" d="M382.8,338.7h0.7v2.3h-0.7V338.7z M384,338.7h0.7v2.3H384V338.7z"/>
		<path class="st20" d="M390.2,342.7l1.7,2.4H391l-1.3-1.8l-1.3,1.8h-0.8l1.7-2.4l-1.6-2.3h0.9l1.2,1.7l1.2-1.7h0.9L390.2,342.7z"/>
	</g>
	<g class="st19">
		<path class="st20" d="M397,345.1h-0.8v-5.4l-1.6,0.8v-0.8l1.9-1h0.5V345.1z"/>
	</g>
	<g class="st19">
		<path class="st20" d="M399.7,341.5h0.4c0.7,0,1.2-0.4,1.2-1.1c0-0.6-0.4-1.1-1.2-1.1c-0.7,0-1.2,0.5-1.3,1.1h-0.8
			c0.2-1.1,0.9-1.8,2.1-1.8c1.2,0,1.9,0.7,1.9,1.7c0,0.7-0.4,1.3-1,1.5c0.7,0.2,1.1,0.8,1.1,1.5c0,1.1-0.8,1.9-2,1.9
			c-1.2,0-2.1-0.8-2.2-1.9h0.8c0.1,0.7,0.6,1.2,1.4,1.2c0.8,0,1.3-0.5,1.3-1.2c0-0.7-0.6-1.1-1.3-1.1h-0.4V341.5z"/>
	</g>
	<g class="st19">
		<path class="st20" d="M403,338.7h0.7v2.3H403V338.7z"/>
	</g>
	<g class="st19">
		<path class="st20" d="M404.5,342h2.5v0.7h-2.5V342z"/>
	</g>
	<g class="st19">
		<path class="st20" d="M408,341.9c0-1.9,1-3.3,2.4-3.3s2.4,1.3,2.4,3.3c0,1.9-1,3.3-2.4,3.3S408,343.9,408,341.9z M408.8,341.9
			c0,1.5,0.5,2.5,1.6,2.5c1,0,1.6-1.1,1.6-2.5c0-1.5-0.6-2.5-1.6-2.5C409.3,339.4,408.8,340.4,408.8,341.9z"/>
		<path class="st20" d="M413.6,338.7h0.7v2.3h-0.7V338.7z M414.8,338.7h0.7v2.3h-0.7V338.7z"/>
	</g>
	<g class="st19">
		<path class="st20" d="M130.2,322.4c0.2,0.7,0.8,1.1,1.6,1.1c0.8,0,1.4-0.4,1.4-1.1c0-0.5-0.3-0.8-1-1L131,321
			c-0.9-0.2-1.5-0.7-1.5-1.6c0-1.1,0.9-1.8,2.1-1.8c1.3,0,2.1,0.7,2.3,1.7h-0.8c-0.2-0.6-0.7-1-1.5-1c-0.8,0-1.3,0.4-1.3,1.1
			c0,0.5,0.4,0.8,1,1l1.1,0.3c1,0.3,1.6,0.8,1.6,1.7c0,1.2-0.9,1.9-2.2,1.9s-2.2-0.6-2.5-1.8H130.2z"/>
		<path class="st20" d="M136,321.5v2.6h-0.8v-6.4h2.4c1.3,0,2.1,0.7,2.1,1.9c0,1.2-0.8,1.9-2.1,1.9H136z M137.5,318.3H136v2.4h1.6
			c0.9,0,1.3-0.5,1.3-1.2C138.8,318.8,138.4,318.3,137.5,318.3z"/>
	</g>
	<g class="st19">
		<path class="st20" d="M131.6,335.6c-1.7,0-2.9-1.4-2.9-3.3c0-1.9,1.2-3.3,2.9-3.3c1.7,0,2.9,1.4,2.9,3.3
			C134.5,334.2,133.2,335.6,131.6,335.6z M131.6,329.7c-1.2,0-2.1,1.1-2.1,2.5c0,1.5,0.8,2.5,2.1,2.5c1.2,0,2.1-1.1,2.1-2.5
			C133.6,330.8,132.8,329.7,131.6,329.7z"/>
	</g>
	<g class="st19">
		<path class="st20" d="M137.3,335.5l-2.5-6.4h0.9l2,5.3l2-5.3h0.8l-2.5,6.4H137.3z"/>
	</g>
	<g class="st19">
		<path class="st20" d="M694,143.8l-2-4.9v4.9h-0.8v-6.4h0.9l2.2,5.2l2.2-5.2h0.9v6.4h-0.8v-4.9l-2,4.9H694z"/>
	</g>
	<g class="st19">
		<path class="st20" d="M701.6,137.4l2.5,6.4h-0.8l-0.7-1.9h-2.6l-0.7,1.9h-0.8l2.5-6.4H701.6z M700.2,141.2h2.1l-1-2.7L700.2,141.2
			z"/>
	</g>
	<g class="st19">
		<path class="st20" d="M705.4,142.1c0.2,0.7,0.8,1.1,1.6,1.1c0.8,0,1.4-0.4,1.4-1.1c0-0.5-0.3-0.8-1-1l-1.1-0.3
			c-0.9-0.2-1.5-0.7-1.5-1.6c0-1.1,0.9-1.8,2.1-1.8c1.3,0,2.1,0.7,2.3,1.7h-0.8c-0.2-0.6-0.7-1-1.5-1c-0.8,0-1.3,0.4-1.3,1.1
			c0,0.5,0.4,0.8,1,1l1.1,0.3c1,0.3,1.6,0.8,1.6,1.7c0,1.2-0.9,1.9-2.2,1.9s-2.2-0.6-2.5-1.8H705.4z"/>
	</g>
	<g class="st19">
		<path class="st20" d="M709.8,137.4h5.3v0.7h-2.2v5.7H712v-5.7h-2.2V137.4z"/>
		<path class="st20" d="M720.2,137.4v0.7h-3.3v2h3v0.7h-3v2.2h3.3v0.7h-4.1v-6.4H720.2z"/>
		<path class="st20" d="M722.3,141.1v2.7h-0.8v-6.4h2.4c1.3,0,2.1,0.6,2.1,1.9c0,1.1-0.6,1.7-1.6,1.8l1.9,2.7h-0.9l-1.8-2.7H722.3z
			 M722.3,140.4h1.5c0.8,0,1.3-0.4,1.3-1.1c0-0.7-0.5-1.1-1.3-1.1h-1.5V140.4z"/>
	</g>
	<g class="st19">
		<path class="st20" d="M701.5,153.2c0,1.2-0.8,1.8-2.1,1.8H697v-6.4h2.1c1.3,0,2.1,0.6,2.1,1.7c0,0.8-0.4,1.2-0.9,1.4
			C701,151.9,701.5,152.5,701.5,153.2z M699.1,151.4c0.9,0,1.3-0.3,1.3-1s-0.5-1-1.3-1h-1.3v2.1H699.1z M697.8,154.3h1.5
			c0.9,0,1.3-0.4,1.3-1.1c0-0.7-0.5-1.1-1.3-1.1h-1.5V154.3z"/>
	</g>
	<g class="st19">
		<path class="st20" d="M705.3,148.6l2.5,6.4h-0.8l-0.7-1.9h-2.6l-0.7,1.9H702l2.5-6.4H705.3z M703.8,152.3h2.1l-1-2.7L703.8,152.3z
			"/>
	</g>
	<g class="st19">
		<path class="st20" d="M707.7,148.6h5.3v0.7h-2.2v5.7h-0.8v-5.7h-2.2V148.6z"/>
		<path class="st20" d="M719.3,148.6v6.4h-0.8v-2.9h-3.6v2.9h-0.8v-6.4h0.8v2.7h3.6v-2.7H719.3z"/>
	</g>
	<g class="st19">
		<path class="st20" d="M581.2,117.2h2c1.9,0,3.1,1.2,3.1,3.2c0,1.9-1.2,3.2-3.1,3.2h-2V117.2z M583.2,122.9c1.4,0,2.3-1,2.3-2.5
			c0-1.5-0.9-2.5-2.3-2.5H582v4.9H583.2z"/>
		<path class="st20" d="M588.3,120.9v2.7h-0.8v-6.4h2.4c1.3,0,2.1,0.6,2.1,1.9c0,1.1-0.6,1.7-1.6,1.8l1.9,2.7h-0.9l-1.8-2.7H588.3z
			 M588.3,120.2h1.5c0.8,0,1.3-0.4,1.3-1.1c0-0.7-0.5-1.1-1.3-1.1h-1.5V120.2z"/>
		<path class="st20" d="M597.3,117.2v0.7H594v2h3v0.7h-3v2.2h3.3v0.7h-4.1v-6.4H597.3z"/>
	</g>
	<g class="st19">
		<path class="st20" d="M598.9,122c0.2,0.7,0.8,1.1,1.6,1.1c0.8,0,1.4-0.4,1.4-1.1c0-0.5-0.3-0.8-1-1l-1.1-0.3
			c-0.9-0.2-1.5-0.7-1.5-1.6c0-1.1,0.9-1.8,2.1-1.8c1.3,0,2.1,0.7,2.3,1.7h-0.8c-0.2-0.6-0.7-1-1.5-1c-0.8,0-1.3,0.4-1.3,1.1
			c0,0.5,0.4,0.8,1,1l1.1,0.3c1,0.3,1.6,0.8,1.6,1.7c0,1.2-0.9,1.9-2.2,1.9s-2.2-0.6-2.5-1.8H598.9z"/>
	</g>
	<g class="st19">
		<path class="st20" d="M604.2,122c0.2,0.7,0.8,1.1,1.6,1.1c0.8,0,1.4-0.4,1.4-1.1c0-0.5-0.3-0.8-1-1l-1.1-0.3
			c-0.9-0.2-1.5-0.7-1.5-1.6c0-1.1,0.9-1.8,2.1-1.8c1.3,0,2.1,0.7,2.3,1.7h-0.8c-0.2-0.6-0.7-1-1.5-1c-0.8,0-1.3,0.4-1.3,1.1
			c0,0.5,0.4,0.8,1,1l1.1,0.3c1,0.3,1.6,0.8,1.6,1.7c0,1.2-0.9,1.9-2.2,1.9s-2.2-0.6-2.5-1.8H604.2z"/>
		<path class="st20" d="M610,123.6h-0.8v-6.4h0.8V123.6z"/>
		<path class="st20" d="M616.5,123.6h-0.6l-3.6-5.1v5.1h-0.8v-6.4h0.8l3.4,4.9v-4.9h0.8V123.6z"/>
		<path class="st20" d="M620.9,121.2v-0.7h2.3v0.4c0,1.7-1.1,2.8-2.6,2.8c-1.7,0-2.9-1.3-2.9-3.3s1.3-3.3,2.9-3.3
			c1.4,0,2.3,0.8,2.5,2h-0.8c-0.3-0.7-0.8-1.2-1.7-1.2c-1.2,0-2.1,1-2.1,2.5c0,1.5,0.8,2.6,2.1,2.6c1.1,0,1.8-0.7,1.9-1.8H620.9z"/>
	</g>
	<g class="st19">
		<path class="st20" d="M590.3,132.1v2.7h-0.8v-6.4h2.4c1.3,0,2.1,0.6,2.1,1.9c0,1.1-0.6,1.7-1.6,1.8l1.9,2.7h-0.9l-1.8-2.7H590.3z
			 M590.3,131.4h1.5c0.8,0,1.3-0.4,1.3-1.1c0-0.7-0.5-1.1-1.3-1.1h-1.5V131.4z"/>
	</g>
	<g class="st19">
		<path class="st20" d="M597.7,134.9c-1.7,0-2.9-1.4-2.9-3.3c0-1.9,1.2-3.3,2.9-3.3c1.7,0,2.9,1.4,2.9,3.3
			C600.6,133.6,599.4,134.9,597.7,134.9z M597.7,129.1c-1.2,0-2.1,1.1-2.1,2.5c0,1.5,0.8,2.5,2.1,2.5c1.2,0,2.1-1.1,2.1-2.5
			C599.8,130.1,599,129.1,597.7,129.1z"/>
	</g>
	<g class="st19">
		<path class="st20" d="M604.3,134.9c-1.7,0-2.9-1.4-2.9-3.3c0-1.9,1.2-3.3,2.9-3.3c1.7,0,2.9,1.4,2.9,3.3
			C607.2,133.6,606,134.9,604.3,134.9z M604.3,129.1c-1.2,0-2.1,1.1-2.1,2.5c0,1.5,0.8,2.5,2.1,2.5c1.2,0,2.1-1.1,2.1-2.5
			C606.4,130.1,605.6,129.1,604.3,129.1z"/>
		<path class="st20" d="M611.2,134.8l-2-4.9v4.9h-0.8v-6.4h0.9l2.2,5.2l2.2-5.2h0.9v6.4h-0.8V130l-2,4.9H611.2z"/>
	</g>
</g>
</svg>
