<?xml version="1.0" encoding="utf-8"?>
<!-- Generator: Adobe Illustrator 23.0.0, SVG Export Plug-In . SVG Version: 6.00 Build 0)  -->
<svg version="1.1" id="Layer_1" xmlns="http://www.w3.org/2000/svg" xmlns:xlink="http://www.w3.org/1999/xlink" x="0px" y="0px"
	 viewBox="0 0 582.8 665.2" style="enable-background:new 0 0 582.8 665.2;" xml:space="preserve">
<style type="text/css">
	.st0{fill:none;stroke:#231F20;stroke-width:0.15;stroke-linecap:round;stroke-linejoin:round;}
	.st1{fill:#FFFFFF;stroke:#231F20;stroke-width:0.35;stroke-linecap:round;stroke-linejoin:round;}
	.st2{fill:none;stroke:#231F20;stroke-width:0.35;stroke-linecap:round;stroke-linejoin:round;}
	.st3{fill:none;stroke:#231F20;stroke-width:0.35;stroke-linecap:round;stroke-linejoin:round;stroke-dasharray:432,216;}
	.st4{fill:none;stroke:#231F20;stroke-width:0.25;stroke-miterlimit:10;}
	.st5{fill:none;stroke:#231F20;stroke-width:0.25;stroke-linecap:round;stroke-linejoin:round;}
	.st6{fill:#FFFFFF;stroke:#231F20;stroke-width:0.25;stroke-miterlimit:10;}
	.st7{fill:none;stroke:#231F20;stroke-width:0.35;stroke-miterlimit:10;}
	.st8{fill:#FFFFFF;stroke:#231F20;stroke-width:0.35;stroke-miterlimit:10;}
	.st9{fill:none;stroke:#231F20;stroke-width:0.5;stroke-miterlimit:10;}
	.st10{fill:#FFFFFF;stroke:#231F20;stroke-width:0.5;stroke-linecap:round;stroke-linejoin:round;}
	.st11{fill:none;stroke:#231F20;stroke-width:0.25;stroke-miterlimit:10;stroke-dasharray:2.5;}
	.st12{fill:none;stroke:#231F20;stroke-width:0.5;stroke-linecap:round;stroke-linejoin:round;}
	.st13{fill:none;stroke:#29ABE2;stroke-width:0.7;stroke-miterlimit:10;}
	.st14{fill:#FFFFFF;stroke:#231F20;stroke-width:0.5;stroke-miterlimit:10;}
	.st15{fill:#D1D3D4;stroke:#231F20;stroke-width:0.5;stroke-miterlimit:10;}
	.st16{enable-background:new    ;}
	.st17{fill:#231F20;}
</style>
<title>108Leonard_WEB_R_6_v2</title>
<g id="FLOOR_PATTERN">
	<g id="LINE">
		<line class="st0" x1="11" y1="271.9" x2="11" y2="194.2"/>
	</g>
	<g id="LINE-2">
		<line class="st0" x1="19.3" y1="589.2" x2="19.3" y2="566.7"/>
	</g>
	<g id="LINE-3">
		<line class="st0" x1="19.3" y1="271.9" x2="19.3" y2="194.4"/>
	</g>
	<g id="LINE-4">
		<line class="st0" x1="19.3" y1="476.7" x2="19.3" y2="463.9"/>
	</g>
	<g id="LINE-5">
		<line class="st0" x1="27.5" y1="589.7" x2="27.5" y2="566.7"/>
	</g>
	<g id="LINE-6">
		<line class="st0" x1="27.5" y1="271.9" x2="27.5" y2="194.4"/>
	</g>
	<g id="LINE-7">
		<line class="st0" x1="27.5" y1="476.7" x2="27.5" y2="463.9"/>
	</g>
	<g id="LINE-8">
		<line class="st0" x1="35.8" y1="590.2" x2="35.8" y2="566.7"/>
	</g>
	<g id="LINE-9">
		<line class="st0" x1="35.8" y1="271.9" x2="35.8" y2="194.4"/>
	</g>
	<g id="LINE-10">
		<line class="st0" x1="35.8" y1="476.7" x2="35.8" y2="463.9"/>
	</g>
	<g id="LINE-11">
		<line class="st0" x1="44" y1="590.6" x2="44" y2="566.7"/>
	</g>
	<g id="LINE-12">
		<line class="st0" x1="44" y1="271.9" x2="44" y2="194.4"/>
	</g>
	<g id="LINE-13">
		<line class="st0" x1="44" y1="476.7" x2="44" y2="463.9"/>
	</g>
	<g id="LINE-14">
		<line class="st0" x1="52.3" y1="591.1" x2="52.3" y2="323.3"/>
	</g>
	<g id="LINE-15">
		<line class="st0" x1="52.3" y1="271.9" x2="52.3" y2="194.4"/>
	</g>
	<g id="LINE-16">
		<line class="st0" x1="60.5" y1="591.6" x2="60.5" y2="552.9"/>
	</g>
	<g id="LINE-17">
		<line class="st0" x1="60.5" y1="271.9" x2="60.5" y2="194.4"/>
	</g>
	<g id="LINE-18">
		<line class="st0" x1="60.5" y1="484.4" x2="60.5" y2="323.3"/>
	</g>
	<g id="LINE-19">
		<line class="st0" x1="68.8" y1="592" x2="68.8" y2="567.4"/>
	</g>
	<g id="LINE-20">
		<line class="st0" x1="68.8" y1="271.9" x2="68.8" y2="194.2"/>
	</g>
	<g id="LINE-21">
		<line class="st0" x1="68.8" y1="477.6" x2="68.8" y2="323.3"/>
	</g>
	<g id="LINE-22">
		<line class="st0" x1="77" y1="610" x2="77" y2="577.2"/>
	</g>
	<g id="LINE-23">
		<line class="st0" x1="77" y1="271.9" x2="77" y2="194.2"/>
	</g>
	<g id="LINE-24">
		<line class="st0" x1="77" y1="475.1" x2="77" y2="334.5"/>
	</g>
	<g id="LINE-25">
		<line class="st0" x1="85.3" y1="610.5" x2="85.3" y2="584.5"/>
	</g>
	<g id="LINE-26">
		<line class="st0" x1="85.3" y1="271.9" x2="85.3" y2="194.2"/>
	</g>
	<g id="LINE-27">
		<line class="st0" x1="85.3" y1="475.5" x2="85.3" y2="335.8"/>
	</g>
	<g id="LINE-28">
		<line class="st0" x1="93.5" y1="611" x2="93.5" y2="590.1"/>
	</g>
	<g id="LINE-29">
		<line class="st0" x1="93.5" y1="271.9" x2="93.5" y2="194.2"/>
	</g>
	<g id="LINE-30">
		<line class="st0" x1="93.5" y1="479" x2="93.5" y2="330.3"/>
	</g>
	<g id="LINE-31">
		<line class="st0" x1="101.8" y1="611.5" x2="101.8" y2="594.4"/>
	</g>
	<g id="LINE-32">
		<line class="st0" x1="101.8" y1="271.9" x2="101.8" y2="194.2"/>
	</g>
	<g id="LINE-33">
		<line class="st0" x1="101.8" y1="488" x2="101.8" y2="324.7"/>
	</g>
	<g id="LINE-34">
		<line class="st0" x1="110" y1="611.9" x2="110" y2="597.5"/>
	</g>
	<g id="LINE-35">
		<line class="st0" x1="110" y1="271.9" x2="110" y2="194.2"/>
	</g>
	<g id="LINE-36">
		<line class="st0" x1="110" y1="536.3" x2="110" y2="413.8"/>
	</g>
	<g id="LINE-37">
		<line class="st0" x1="110" y1="385.2" x2="110" y2="335.2"/>
	</g>
	<g id="LINE-38">
		<line class="st0" x1="118.3" y1="612.4" x2="118.3" y2="599.7"/>
	</g>
	<g id="LINE-39">
		<line class="st0" x1="118.3" y1="545" x2="118.3" y2="423.5"/>
	</g>
	<g id="LINE-40">
		<line class="st0" x1="118.3" y1="271.9" x2="118.3" y2="194.2"/>
	</g>
	<g id="LINE-41">
		<line class="st0" x1="118.3" y1="375.5" x2="118.3" y2="335.4"/>
	</g>
	<g id="LINE-42">
		<line class="st0" x1="126.5" y1="612.9" x2="126.5" y2="601"/>
	</g>
	<g id="LINE-43">
		<line class="st0" x1="126.5" y1="143.2" x2="126.5" y2="76"/>
	</g>
	<g id="LINE-44">
		<line class="st0" x1="126.5" y1="549.7" x2="126.5" y2="423.5"/>
	</g>
	<g id="LINE-45">
		<line class="st0" x1="126.5" y1="271.9" x2="126.5" y2="194.2"/>
	</g>
	<g id="LINE-46">
		<line class="st0" x1="126.5" y1="375.5" x2="126.5" y2="327.3"/>
	</g>
	<g id="LINE-47">
		<line class="st0" x1="134.8" y1="613.3" x2="134.8" y2="601.6"/>
	</g>
	<g id="LINE-48">
		<line class="st0" x1="134.8" y1="143.2" x2="134.8" y2="76"/>
	</g>
	<g id="LINE-49">
		<line class="st0" x1="134.8" y1="552" x2="134.8" y2="433.8"/>
	</g>
	<g id="LINE-50">
		<line class="st0" x1="134.8" y1="271.9" x2="134.8" y2="194.2"/>
	</g>
	<g id="LINE-51">
		<line class="st0" x1="134.8" y1="365.2" x2="134.8" y2="329.4"/>
	</g>
	<g id="LINE-52">
		<line class="st0" x1="143" y1="613.8" x2="143" y2="602.3"/>
	</g>
	<g id="LINE-53">
		<line class="st0" x1="143" y1="143.2" x2="143" y2="76"/>
	</g>
	<g id="LINE-54">
		<line class="st0" x1="143" y1="552.6" x2="143" y2="434.7"/>
	</g>
	<g id="LINE-55">
		<line class="st0" x1="143" y1="271.9" x2="143" y2="194.2"/>
	</g>
	<g id="LINE-56">
		<line class="st0" x1="143" y1="364.3" x2="143" y2="335.6"/>
	</g>
	<g id="LINE-57">
		<line class="st0" x1="151.3" y1="614.3" x2="151.3" y2="602.9"/>
	</g>
	<g id="LINE-58">
		<line class="st0" x1="151.3" y1="143.2" x2="151.3" y2="76"/>
	</g>
	<g id="LINE-59">
		<line class="st0" x1="151.3" y1="271.9" x2="151.3" y2="194.2"/>
	</g>
	<g id="LINE-60">
		<line class="st0" x1="151.3" y1="553.3" x2="151.3" y2="434.2"/>
	</g>
	<g id="LINE-61">
		<line class="st0" x1="151.3" y1="364.8" x2="151.3" y2="334.8"/>
	</g>
	<g id="LINE-62">
		<line class="st0" x1="159.5" y1="614.8" x2="159.5" y2="603.6"/>
	</g>
	<g id="LINE-63">
		<line class="st0" x1="159.5" y1="143.2" x2="159.5" y2="76"/>
	</g>
	<g id="LINE-64">
		<line class="st0" x1="159.5" y1="553.9" x2="159.5" y2="516.6"/>
	</g>
	<g id="LINE-65">
		<line class="st0" x1="159.5" y1="271.9" x2="159.5" y2="194.2"/>
	</g>
	<g id="LINE-66">
		<line class="st0" x1="159.5" y1="509" x2="159.5" y2="423.5"/>
	</g>
	<g id="LINE-67">
		<line class="st0" x1="159.5" y1="375.5" x2="159.5" y2="323.2"/>
	</g>
	<g id="LINE-68">
		<line class="st0" x1="167.8" y1="615.2" x2="167.8" y2="604.1"/>
	</g>
	<g id="LINE-69">
		<line class="st0" x1="167.8" y1="143.2" x2="167.8" y2="76"/>
	</g>
	<g id="LINE-70">
		<line class="st0" x1="167.8" y1="554.5" x2="167.8" y2="524.8"/>
	</g>
	<g id="LINE-71">
		<line class="st0" x1="167.8" y1="271.9" x2="167.8" y2="194.2"/>
	</g>
	<g id="LINE-72">
		<line class="st0" x1="167.8" y1="500.9" x2="167.8" y2="432.6"/>
	</g>
	<g id="LINE-73">
		<line class="st0" x1="167.8" y1="366.4" x2="167.8" y2="323.2"/>
	</g>
	<g id="LINE-74">
		<line class="st0" x1="176" y1="615.7" x2="176" y2="602.1"/>
	</g>
	<g id="LINE-75">
		<line class="st0" x1="176" y1="143.2" x2="176" y2="76"/>
	</g>
	<g id="LINE-76">
		<line class="st0" x1="176" y1="556.5" x2="176" y2="528.2"/>
	</g>
	<g id="LINE-77">
		<line class="st0" x1="176" y1="271.9" x2="176" y2="194.2"/>
	</g>
	<g id="LINE-78">
		<line class="st0" x1="176" y1="497.4" x2="176" y2="434.4"/>
	</g>
	<g id="LINE-79">
		<line class="st0" x1="176" y1="364.6" x2="176" y2="323.2"/>
	</g>
	<g id="LINE-80">
		<line class="st0" x1="184.3" y1="616.2" x2="184.3" y2="596.3"/>
	</g>
	<g id="LINE-81">
		<line class="st0" x1="184.3" y1="364.3" x2="184.3" y2="47.5"/>
	</g>
	<g id="LINE-82">
		<line class="st0" x1="184.3" y1="562.2" x2="184.3" y2="530"/>
	</g>
	<g id="LINE-83">
		<line class="st0" x1="184.3" y1="495.6" x2="184.3" y2="434.7"/>
	</g>
	<g id="LINE-84">
		<line class="st0" x1="192.5" y1="616.7" x2="192.5" y2="530.8"/>
	</g>
	<g id="LINE-85">
		<line class="st0" x1="192.5" y1="365.6" x2="192.5" y2="47.5"/>
	</g>
	<g id="LINE-86">
		<line class="st0" x1="192.5" y1="494.9" x2="192.5" y2="433.5"/>
	</g>
	<g id="LINE-87">
		<line class="st0" x1="200.8" y1="617.2" x2="200.8" y2="530.6"/>
	</g>
	<g id="LINE-88">
		<line class="st0" x1="200.8" y1="375.5" x2="200.8" y2="47.5"/>
	</g>
	<g id="LINE-89">
		<line class="st0" x1="200.8" y1="495.1" x2="200.8" y2="423.5"/>
	</g>
	<g id="LINE-90">
		<line class="st0" x1="209" y1="617.6" x2="209" y2="529.3"/>
	</g>
	<g id="LINE-91">
		<line class="st0" x1="209" y1="375.5" x2="209" y2="47.5"/>
	</g>
	<g id="LINE-92">
		<line class="st0" x1="209" y1="496.3" x2="209" y2="423.5"/>
	</g>
	<g id="LINE-93">
		<line class="st0" x1="217.3" y1="618.1" x2="217.3" y2="526.8"/>
	</g>
	<g id="LINE-94">
		<line class="st0" x1="217.3" y1="385.2" x2="217.3" y2="47.5"/>
	</g>
	<g id="LINE-95">
		<line class="st0" x1="217.3" y1="498.8" x2="217.3" y2="413.8"/>
	</g>
	<g id="LINE-96">
		<line class="st0" x1="225.5" y1="618.6" x2="225.5" y2="522.1"/>
	</g>
	<g id="LINE-97">
		<line class="st0" x1="225.5" y1="503.5" x2="225.5" y2="47.5"/>
	</g>
	<g id="LINE-98">
		<line class="st0" x1="233.8" y1="619" x2="233.8" y2="47.5"/>
	</g>
	<g id="LINE-99">
		<line class="st0" x1="242" y1="619.5" x2="242" y2="47.5"/>
	</g>
	<g id="LINE-100">
		<line class="st0" x1="250.3" y1="602.5" x2="250.3" y2="47.5"/>
	</g>
	<g id="LINE-101">
		<line class="st0" x1="258.5" y1="602.9" x2="258.5" y2="563.6"/>
	</g>
	<g id="LINE-102">
		<line class="st0" x1="258.5" y1="546.3" x2="258.5" y2="47.5"/>
	</g>
	<g id="LINE-103">
		<line class="st0" x1="266.8" y1="603.4" x2="266.8" y2="570.5"/>
	</g>
	<g id="LINE-104">
		<line class="st0" x1="266.8" y1="486.5" x2="266.8" y2="47.5"/>
	</g>
	<g id="LINE-105">
		<line class="st0" x1="275" y1="603.9" x2="275" y2="570.5"/>
	</g>
	<g id="LINE-106">
		<line class="st0" x1="275" y1="421.9" x2="275" y2="343.9"/>
	</g>
	<g id="LINE-107">
		<line class="st0" x1="275" y1="480.5" x2="275" y2="463.9"/>
	</g>
	<g id="LINE-108">
		<line class="st0" x1="283.3" y1="604.3" x2="283.3" y2="570.5"/>
	</g>
	<g id="LINE-109">
		<line class="st0" x1="283.3" y1="421.9" x2="283.3" y2="343.9"/>
	</g>
	<g id="LINE-110">
		<line class="st0" x1="283.3" y1="480.5" x2="283.3" y2="463.9"/>
	</g>
	<g id="LINE-111">
		<line class="st0" x1="291.5" y1="604.8" x2="291.5" y2="570.5"/>
	</g>
	<g id="LINE-112">
		<line class="st0" x1="291.5" y1="421.9" x2="291.5" y2="343.9"/>
	</g>
	<g id="LINE-113">
		<line class="st0" x1="291.5" y1="480.5" x2="291.5" y2="463.9"/>
	</g>
	<g id="LINE-114">
		<line class="st0" x1="299.8" y1="605.3" x2="299.8" y2="570.5"/>
	</g>
	<g id="LINE-115">
		<line class="st0" x1="299.8" y1="421.9" x2="299.8" y2="343.9"/>
	</g>
	<g id="LINE-116">
		<line class="st0" x1="299.8" y1="480.5" x2="299.8" y2="463.9"/>
	</g>
	<g id="LINE-117">
		<line class="st0" x1="308" y1="605.8" x2="308" y2="552.5"/>
	</g>
	<g id="LINE-118">
		<line class="st0" x1="308" y1="421.9" x2="308" y2="343.9"/>
	</g>
	<g id="LINE-119">
		<line class="st0" x1="308" y1="480.5" x2="308" y2="463.9"/>
	</g>
	<g id="LINE-120">
		<line class="st0" x1="324.5" y1="606.7" x2="324.5" y2="547"/>
	</g>
	<g id="LINE-121">
		<line class="st0" x1="324.5" y1="457" x2="324.5" y2="220"/>
	</g>
	<g id="LINE-122">
		<line class="st0" x1="332.8" y1="607.2" x2="332.8" y2="547"/>
	</g>
	<g id="LINE-123">
		<line class="st0" x1="332.8" y1="457" x2="332.8" y2="220"/>
	</g>
	<g id="LINE-124">
		<line class="st0" x1="341" y1="607.7" x2="341" y2="547"/>
	</g>
	<g id="LINE-125">
		<line class="st0" x1="341" y1="457" x2="341" y2="220"/>
	</g>
	<g id="LINE-126">
		<line class="st0" x1="349.3" y1="625.7" x2="349.3" y2="615"/>
	</g>
	<g id="LINE-127">
		<line class="st0" x1="349.3" y1="457" x2="349.3" y2="220"/>
	</g>
	<g id="LINE-128">
		<line class="st0" x1="349.3" y1="588.8" x2="349.3" y2="547"/>
	</g>
	<g id="LINE-129">
		<line class="st0" x1="357.5" y1="626.2" x2="357.5" y2="619.6"/>
	</g>
	<g id="LINE-130">
		<line class="st0" x1="357.5" y1="576.3" x2="357.5" y2="220"/>
	</g>
	<g id="LINE-131">
		<line class="st0" x1="365.8" y1="626.6" x2="365.8" y2="619.6"/>
	</g>
	<g id="LINE-132">
		<line class="st0" x1="365.8" y1="581" x2="365.8" y2="220"/>
	</g>
	<g id="LINE-133">
		<line class="st0" x1="374" y1="627.1" x2="374" y2="615.1"/>
	</g>
	<g id="LINE-134">
		<line class="st0" x1="374" y1="586.8" x2="374" y2="220"/>
	</g>
	<g id="LINE-135">
		<line class="st0" x1="382.3" y1="627.6" x2="382.3" y2="604.6"/>
	</g>
	<g id="LINE-136">
		<line class="st0" x1="382.3" y1="592.6" x2="382.3" y2="220"/>
	</g>
	<g id="LINE-137">
		<line class="st0" x1="390.5" y1="628.1" x2="390.5" y2="621.5"/>
	</g>
	<g id="LINE-138">
		<line class="st0" x1="390.5" y1="604.5" x2="390.5" y2="220"/>
	</g>
	<g id="LINE-139">
		<line class="st0" x1="398.8" y1="628.5" x2="398.8" y2="620.2"/>
	</g>
	<g id="LINE-140">
		<line class="st0" x1="398.8" y1="448.2" x2="398.8" y2="220"/>
	</g>
	<g id="LINE-141">
		<line class="st0" x1="398.8" y1="605.8" x2="398.8" y2="560.4"/>
	</g>
	<g id="LINE-142">
		<line class="st0" x1="407" y1="629" x2="407" y2="560.6"/>
	</g>
	<g id="LINE-143">
		<line class="st0" x1="407" y1="448.1" x2="407" y2="220"/>
	</g>
	<g id="LINE-144">
		<line class="st0" x1="415.3" y1="629.5" x2="415.3" y2="560.6"/>
	</g>
	<g id="LINE-145">
		<line class="st0" x1="415.3" y1="448.1" x2="415.3" y2="406"/>
	</g>
	<g id="LINE-146">
		<line class="st0" x1="423.5" y1="630" x2="423.5" y2="560.6"/>
	</g>
	<g id="LINE-147">
		<line class="st0" x1="423.5" y1="448.1" x2="423.5" y2="406"/>
	</g>
	<g id="LINE-148">
		<line class="st0" x1="431.8" y1="630.4" x2="431.8" y2="560.6"/>
	</g>
	<g id="LINE-149">
		<line class="st0" x1="431.8" y1="448.1" x2="431.8" y2="406"/>
	</g>
	<g id="LINE-150">
		<line class="st0" x1="440" y1="630.9" x2="440" y2="560.6"/>
	</g>
	<g id="LINE-151">
		<line class="st0" x1="440" y1="448.1" x2="440" y2="406"/>
	</g>
	<g id="LINE-152">
		<line class="st0" x1="448.3" y1="631.4" x2="448.3" y2="560.6"/>
	</g>
	<g id="LINE-153">
		<line class="st0" x1="448.3" y1="448.1" x2="448.3" y2="406"/>
	</g>
	<g id="LINE-154">
		<line class="st0" x1="456.5" y1="631.8" x2="456.5" y2="560.6"/>
	</g>
	<g id="LINE-155">
		<line class="st0" x1="456.5" y1="448.1" x2="456.5" y2="406"/>
	</g>
	<g id="LINE-156">
		<line class="st0" x1="464.8" y1="632.3" x2="464.8" y2="560.6"/>
	</g>
	<g id="LINE-157">
		<line class="st0" x1="464.8" y1="448.1" x2="464.8" y2="406"/>
	</g>
	<g id="LINE-158">
		<line class="st0" x1="473" y1="632.8" x2="473" y2="560.6"/>
	</g>
	<g id="LINE-159">
		<line class="st0" x1="473" y1="448.1" x2="473" y2="406"/>
	</g>
	<g id="LINE-160">
		<line class="st0" x1="481.3" y1="633.3" x2="481.3" y2="560.6"/>
	</g>
	<g id="LINE-161">
		<line class="st0" x1="481.3" y1="448.1" x2="481.3" y2="406"/>
	</g>
	<g id="LINE-162">
		<line class="st0" x1="489.5" y1="633.8" x2="489.5" y2="560.6"/>
	</g>
	<g id="LINE-163">
		<line class="st0" x1="489.5" y1="448.1" x2="489.5" y2="406"/>
	</g>
	<g id="LINE-164">
		<line class="st0" x1="497.8" y1="634.2" x2="497.8" y2="595.1"/>
	</g>
	<g id="LINE-165">
		<line class="st0" x1="497.8" y1="413.6" x2="497.8" y2="406"/>
	</g>
	<g id="LINE-166">
		<line class="st0" x1="497.8" y1="565.1" x2="497.8" y2="560.6"/>
	</g>
	<g id="LINE-167">
		<line class="st0" x1="497.8" y1="448.1" x2="497.8" y2="443.6"/>
	</g>
	<g id="LINE-168">
		<line class="st0" x1="506" y1="634.7" x2="506" y2="595.1"/>
	</g>
	<g id="LINE-169">
		<line class="st0" x1="506" y1="413.6" x2="506" y2="406"/>
	</g>
	<g id="LINE-170">
		<line class="st0" x1="506" y1="565.1" x2="506" y2="560.6"/>
	</g>
	<g id="LINE-171">
		<line class="st0" x1="506" y1="448.1" x2="506" y2="443.6"/>
	</g>
	<g id="LINE-172">
		<line class="st0" x1="514.3" y1="623.2" x2="514.3" y2="595.1"/>
	</g>
	<g id="LINE-173">
		<line class="st0" x1="514.3" y1="413.6" x2="514.3" y2="406"/>
	</g>
	<g id="LINE-174">
		<line class="st0" x1="514.3" y1="565.1" x2="514.3" y2="560.6"/>
	</g>
	<g id="LINE-175">
		<line class="st0" x1="514.3" y1="448.1" x2="514.3" y2="443.6"/>
	</g>
	<g id="LINE-176">
		<line class="st0" x1="522.5" y1="618.1" x2="522.5" y2="406"/>
	</g>
	<g id="LWPOLYLINE">
		<rect x="124.2" y="68.5" class="st0" width="45" height="7.5"/>
	</g>
	<g id="LWPOLYLINE-2">
		<rect x="214.8" y="38.5" class="st0" width="54" height="9"/>
	</g>
	<g id="LWPOLYLINE-3">
		<rect x="271.8" y="123.9" class="st0" width="7.5" height="79.5"/>
	</g>
	<g id="LWPOLYLINE-4">
		<rect x="315.3" y="233.2" class="st0" width="7.5" height="90"/>
	</g>
	<g id="LWPOLYLINE-5">
		<line class="st0" x1="345.4" y1="220" x2="404.9" y2="220"/>
	</g>
	<g id="LWPOLYLINE-6">
		<line class="st0" x1="404.9" y1="208.1" x2="345.4" y2="208"/>
	</g>
	<g id="LWPOLYLINE-7">
		<rect x="315.2" y="349.9" class="st0" width="7.5" height="52.5"/>
	</g>
	<g id="LWPOLYLINE-8">
		<rect x="109.9" y="84.7" class="st0" width="7.6" height="52.5"/>
	</g>
</g>
<g id="FURNITURE">
	<g id="LWPOLYLINE-9">
		<rect x="246" y="255.1" class="st1" width="21" height="75"/>
	</g>
	<g id="CIRCLE">
		<path class="st2" d="M248.9,316.9c0-4.1,3.4-7.5,7.5-7.5s7.5,3.4,7.5,7.5s-3.4,7.5-7.5,7.5S248.9,321.1,248.9,316.9L248.9,316.9z"
			/>
	</g>
	<g id="CIRCLE-2">
		<path class="st2" d="M252.1,555c0-5,4-9,9-9s9,4,9,9s-4,9-9,9S252.1,559.9,252.1,555z"/>
	</g>
	<g id="CIRCLE-3">
		<path class="st2" d="M401.5,609.2c2.1,4.5,0.2,9.9-4.3,12c-4.5,2.1-9.9,0.2-12-4.3c-2.1-4.5-0.2-9.8,4.3-12
			C394,602.7,399.4,604.7,401.5,609.2C401.5,609.1,401.5,609.1,401.5,609.2z"/>
	</g>
	<g id="LWPOLYLINE-10">
		<rect x="322.5" y="457" class="st2" width="27" height="90"/>
	</g>
	<g id="LWPOLYLINE-11">
		<rect x="18.7" y="476.7" class="st2" width="27" height="90"/>
	</g>
	<g id="LINE-177">
		<line class="st2" x1="248.9" y1="316.9" x2="263.9" y2="316.9"/>
	</g>
	<g id="ARC">
		<path class="st2" d="M107.5,413.8c-3.2-9.2-3.2-19.3,0-28.5"/>
	</g>
	<g id="LWPOLYLINE-12">
		<path class="st2" d="M122.4,385.3h-18c-3,9.3-3,19.2,0,28.5h18V385.3z"/>
	</g>
	<g id="ARC-2">
		<path class="st2" d="M218.2,413.8c3.2-9.2,3.2-19.3,0-28.5"/>
	</g>
	<g id="LWPOLYLINE-13">
		<path class="st2" d="M203.4,385.3h18c3,9.3,3,19.2,0,28.5h-18V385.3z"/>
	</g>
	<g id="ARC-3">
		<path class="st2" d="M129.9,369.7c9.2-3.2,19.3-3.2,28.5,0"/>
	</g>
	<g id="LWPOLYLINE-14">
		<path class="st2" d="M158.4,384.5v-18c-9.3-3-19.2-3-28.5,0v18H158.4z"/>
	</g>
	<g id="ARC-4">
		<path class="st2" d="M195.9,369.7c-9.2-3.2-19.3-3.2-28.5,0"/>
	</g>
	<g id="LWPOLYLINE-15">
		<path class="st2" d="M167.4,384.5v-18c9.3-3,19.2-3,28.5,0v18H167.4z"/>
	</g>
	<g id="ARC-5">
		<path class="st2" d="M129.9,429.3c9.2,3.2,19.3,3.2,28.5,0"/>
	</g>
	<g id="LWPOLYLINE-16">
		<path class="st2" d="M158.4,414.5v18c-9.3,3-19.2,3-28.5,0v-18H158.4z"/>
	</g>
	<g id="ARC-6">
		<path class="st2" d="M195.9,429.3c-9.2,3.2-19.3,3.2-28.5,0"/>
	</g>
	<g id="LWPOLYLINE-17">
		<path class="st2" d="M167.4,414.5v18c9.3,3,19.2,3,28.5,0v-18H167.4z"/>
	</g>
	<g id="LINE-178">
		<line class="st2" x1="472.5" y1="448.1" x2="472.5" y2="560.6"/>
	</g>
	<g id="CIRCLE-4">
		<path class="st2" d="M500.9,580.1c0-3.3,2.7-6,6-6c3.3,0,6,2.7,6,6s-2.7,6-6,6S500.9,583.5,500.9,580.1L500.9,580.1z"/>
	</g>
	<g id="LINE-179">
		<line class="st2" x1="500.9" y1="580.1" x2="512.9" y2="580.1"/>
	</g>
	<g id="LINE-180">
		<line class="st2" x1="507" y1="586.1" x2="507" y2="574.1"/>
	</g>
	<g id="LWPOLYLINE-18">
		<rect x="495" y="565.1" class="st2" width="24" height="30"/>
	</g>
	<g id="CIRCLE-5">
		<path class="st2" d="M500.9,428.5c0-3.3,2.7-6,6-6c3.3,0,6,2.7,6,6c0,3.3-2.7,6-6,6C503.6,434.5,500.9,431.9,500.9,428.5
			L500.9,428.5z"/>
	</g>
	<g id="LINE-181">
		<line class="st2" x1="500.9" y1="428.6" x2="512.9" y2="428.6"/>
	</g>
	<g id="LINE-182">
		<line class="st2" x1="507" y1="422.5" x2="507" y2="434.5"/>
	</g>
	<g id="LWPOLYLINE-19">
		<rect x="495" y="413.6" class="st2" width="24" height="30"/>
	</g>
	<g id="LWPOLYLINE-20">
		<polyline class="st2" points="490.5,505.6 513,505.6 513,558.2 490.5,558.2 		"/>
	</g>
	<g id="LWPOLYLINE-21">
		<polyline class="st2" points="490.5,503 513,503 513,450.5 490.5,450.5 		"/>
	</g>
	<g id="LWPOLYLINE-22">
		<path class="st2" d="M516,560.6H399.7c-2.2-0.3-3.8-2.2-3.7-4.3V452.1c-0.1-2.1,1.6-4,3.7-4c0,0,0,0,0,0H516"/>
	</g>
	<g id="LWPOLYLINE-23">
		<rect x="516" y="448.1" class="st2" width="6" height="112.5"/>
	</g>
	<g id="LINE-183">
		<line class="st2" x1="490.5" y1="448.1" x2="490.5" y2="560.6"/>
	</g>
	<g id="LINE-184">
		<line class="st2" x1="256.4" y1="309.4" x2="256.4" y2="324.4"/>
	</g>
	<g id="LWPOLYLINE-24">
		<path class="st2" d="M269,486.5v-6h39c0.8,0,1.5,0.7,1.5,1.5v70.5h-6v18H263v-84H269"/>
	</g>
	<g id="LWPOLYLINE-25">
		<polyline class="st2" points="269,486.5 303.5,486.5 303.5,552.5 		"/>
	</g>
	<g id="LWPOLYLINE-26">
		<path class="st2" d="M141.4,552.5l24.7,1.9c13.7-0.1,24.9,11,25,24.7c0.1,13.7-11,24.9-24.7,25c-1.4,0-2.9-0.1-4.3-0.3l-33.7-2.6
			h-0.2c-44.6-3.6-77.8-42.7-74.2-87.3l1.3-15.7c0-0.3,0-0.6,0.1-1c1-13.6,12.8-23.9,26.5-22.9s23.9,12.8,22.9,26.5
			c0,0.5-0.1,1-0.2,1.5l-0.3,6.8c-3.6,20.1,9.7,39.3,29.8,42.9C136.4,552.4,138.9,552.6,141.4,552.5L141.4,552.5z"/>
	</g>
	<g id="LWPOLYLINE-27">
		<path class="st2" d="M149.7,602.8c2.5,0.2,4.7-1.6,4.9-4.1c0.2-2.5-1.6-4.7-4.1-4.9l-12.3-1c-1.2,0-2.4-0.1-3.6-0.2
			c-42.2-2.9-74.1-39.4-71.2-81.6l1-12.3c0.2-2.5-1.6-4.7-4.1-4.9c-2.5-0.2-4.7,1.6-4.9,4.1l0,0"/>
	</g>
	<g id="ELLIPSE">
		<path class="st2" d="M230.7,512.8c0-9.9-16.1-18-36-18s-36,8.1-36,18c0,9.9,16.1,18,36,18S230.7,522.8,230.7,512.8z"/>
	</g>
	<g id="LWPOLYLINE-28">
		<path class="st2" d="M346.5,593.1l10.7-16.4l0,0c0.4-0.6,1.2-0.7,1.8-0.3c0,0,0,0,0,0l28,19.7l0,0c0.6,0.4,0.7,1.3,0.3,1.8
			c0,0,0,0,0,0l-11.8,15.6"/>
	</g>
	<g id="LWPOLYLINE-29">
		<line class="st2" x1="351" y1="596" x2="354.8" y2="590.1"/>
	</g>
	<g id="LWPOLYLINE-30">
		<line class="st2" x1="375.6" y1="604.7" x2="371.3" y2="610.3"/>
	</g>
	<g id="ARC-7">
		<path class="st2" d="M347.1,592.3c-5.5,8.1-3.3,19.2,4.8,24.7c7.9,5.3,18.6,3.5,24.3-4.2"/>
	</g>
	<g id="ARC-8">
		<path class="st2" d="M351.5,595.3c-4,5.6-2.6,13.4,3,17.4c5.6,4,13.4,2.6,17.4-3l0,0"/>
	</g>
	<g id="ARC-9">
		<path class="st2" d="M354.8,590.1c1.1-2.6,0.6-5.5-1.4-7.5"/>
	</g>
	<g id="ARC-10">
		<path class="st2" d="M383.1,603.5c-2.5-1.2-5.5-0.7-7.6,1.2"/>
	</g>
	<g id="ARC-11">
		<path class="st1" d="M70.2,330c0,7,5.7,12.8,12.8,12.8S95.7,337,95.7,330"/>
	</g>
	<g id="LINE-185">
		<line class="st2" x1="70.2" y1="330" x2="95.7" y2="330"/>
	</g>
	<g id="ARC-12">
		<path class="st1" d="M101.7,330c0,7,5.7,12.8,12.8,12.8c7,0,12.8-5.7,12.8-12.8"/>
	</g>
	<g id="LINE-186">
		<line class="st2" x1="101.7" y1="330" x2="127.2" y2="330"/>
	</g>
	<g id="ARC-13">
		<path class="st1" d="M158.7,330c0,7-5.7,12.8-12.8,12.8s-12.8-5.7-12.8-12.8"/>
	</g>
	<g id="LINE-187">
		<line class="st2" x1="158.7" y1="330" x2="133.2" y2="330"/>
	</g>
	<g id="LWPOLYLINE-31">
		<rect x="113.4" y="375.5" class="st1" width="99" height="48"/>
	</g>
	<g id="LWPOLYLINE-32">
		<rect x="263" y="486.5" class="st1" width="40.5" height="84"/>
	</g>
</g>
<g id="CLOSET">
	<g id="LINE-188">
		<line class="st2" x1="298.3" y1="336.4" x2="298.3" y2="220"/>
	</g>
	<g id="LINE-189">
		<line class="st3" x1="295.3" y1="336.4" x2="295.3" y2="220"/>
	</g>
	<g id="LINE-190">
		<line class="st2" x1="307.9" y1="209.1" x2="307.9" y2="118.1"/>
	</g>
	<g id="LINE-191">
		<line class="st3" x1="304.9" y1="209.1" x2="304.9" y2="118.1"/>
	</g>
</g>
<g id="HANGERS">
	<g id="LINE-192">
		<line class="st4" x1="310.3" y1="329" x2="283.3" y2="329"/>
	</g>
	<g id="LINE-193">
		<line class="st4" x1="310.3" y1="325.1" x2="283.3" y2="325.1"/>
	</g>
	<g id="LINE-194">
		<line class="st4" x1="310.3" y1="291.5" x2="283.3" y2="281.2"/>
	</g>
	<g id="LINE-195">
		<line class="st4" x1="310.3" y1="285.8" x2="283.3" y2="275.5"/>
	</g>
	<g id="LINE-196">
		<line class="st4" x1="310.3" y1="321.2" x2="283.3" y2="321.2"/>
	</g>
	<g id="LINE-197">
		<line class="st4" x1="310.3" y1="313.5" x2="283.3" y2="313.5"/>
	</g>
	<g id="LINE-198">
		<line class="st4" x1="310.3" y1="298" x2="283.3" y2="298"/>
	</g>
	<g id="LINE-199">
		<line class="st4" x1="310.3" y1="294.1" x2="283.3" y2="294.1"/>
	</g>
	<g id="LINE-200">
		<line class="st4" x1="310.3" y1="317.4" x2="283.3" y2="317.4"/>
	</g>
	<g id="LINE-201">
		<line class="st4" x1="310.3" y1="313.5" x2="283.3" y2="313.5"/>
	</g>
	<g id="LINE-202">
		<line class="st4" x1="310.3" y1="309.6" x2="283.3" y2="309.6"/>
	</g>
	<g id="LINE-203">
		<line class="st4" x1="310.3" y1="305.8" x2="283.3" y2="305.8"/>
	</g>
	<g id="LINE-204">
		<line class="st4" x1="310.3" y1="298" x2="283.3" y2="298"/>
	</g>
	<g id="LINE-205">
		<line class="st4" x1="310.3" y1="301.9" x2="283.3" y2="301.9"/>
	</g>
	<g id="LINE-206">
		<line class="st4" x1="319.9" y1="154" x2="293" y2="143.7"/>
	</g>
	<g id="LINE-207">
		<line class="st4" x1="319.9" y1="148.3" x2="293" y2="138"/>
	</g>
	<g id="LINE-208">
		<line class="st4" x1="319.9" y1="175.9" x2="293" y2="175.9"/>
	</g>
	<g id="LINE-209">
		<line class="st4" x1="319.9" y1="160.5" x2="293" y2="160.5"/>
	</g>
	<g id="LINE-210">
		<line class="st4" x1="319.9" y1="156.6" x2="293" y2="156.6"/>
	</g>
	<g id="LINE-211">
		<line class="st4" x1="319.9" y1="175.9" x2="293" y2="175.9"/>
	</g>
	<g id="LINE-212">
		<line class="st4" x1="319.9" y1="172.1" x2="293" y2="172.1"/>
	</g>
	<g id="LINE-213">
		<line class="st4" x1="319.9" y1="168.2" x2="293" y2="168.2"/>
	</g>
	<g id="LINE-214">
		<line class="st4" x1="319.9" y1="160.5" x2="293" y2="160.5"/>
	</g>
	<g id="LINE-215">
		<line class="st4" x1="319.9" y1="164.3" x2="293" y2="164.3"/>
	</g>
</g>
<g id="BATH_GLAZING">
	<g id="LINE-216">
		<line class="st5" x1="412.9" y1="84.8" x2="519.4" y2="84.8"/>
		<line class="st5" x1="412.9" y1="83.8" x2="519.4" y2="83.8"/>
	</g>
	<line class="st5" x1="508.6" y1="83.9" x2="508.6" y2="84.7"/>
</g>
<g id="BATH_FIXTURES">
	<g id="LWPOLYLINE-33">
		<path class="st6" d="M71.3,45.3C71.1,51.2,71,57.2,71,63.1c0,3,0.6,5.9,1.8,8.6c0.9,2.1,2.2,3.9,3.9,5.3c2.8,2.4,7,2.4,9.8,0
			c1.7-1.5,3-3.3,3.9-5.3c1.2-2.7,1.8-5.7,1.8-8.6c0-5.9-0.1-11.8-0.3-17.8"/>
	</g>
	<g id="LWPOLYLINE-34">
		<path class="st6" d="M91.8,45.3l0.4-0.2c0.7-0.3,1.1-1.1,1-1.8c-0.1-1.6-0.2-3.3-0.4-4.9c-0.1-0.6-0.6-1.1-1.2-1.1H71.5
			c-0.6,0-1.1,0.5-1.2,1.1c-0.1,1.6-0.3,3.3-0.4,4.9c-0.1,0.7,0.3,1.5,1,1.8l0.4,0.2"/>
	</g>
	<g id="LWPOLYLINE-35">
		<path class="st6" d="M91.8,45.3c-6.4,3-13.8,3-20.2,0.1"/>
	</g>
	<g id="ELLIPSE-2">
		<path class="st6" d="M511.2,53.3h-6.5c-0.1-0.8-0.3-1.4-0.5-1.4l-5.3-0.3l0,0c-0.2,0-0.3,1-0.3,2.3s0.1,2.2,0.3,2.2l0,0l5.3-0.3
			c0.2,0,0.4-0.6,0.5-1.4h6.5"/>
	</g>
	<g id="LWPOLYLINE-36">
		<path class="st6" d="M505.5,67v-3c0-0.6,0.5-1.2,1.2-1.2l0,0c0.3,0,0.6,0.1,0.8,0.3h3.9v1.7h-3.5V67c0,0.6-0.5,1.2-1.1,1.2
			S505.5,67.6,505.5,67C505.5,67,505.5,67,505.5,67L505.5,67z"/>
	</g>
	<path class="st6" d="M495.9,80.4v-1.1h-1.3v-1.1c0-0.3-0.3-0.6-0.6-0.6l0,0h-0.3v-1.2c0-0.3-0.2-0.6-0.5-0.6
		c-0.3,0-0.6,0.2-0.6,0.5c0,0,0,0.1,0,0.1v1.2h-0.3c-0.3,0-0.6,0.3-0.6,0.6c0,0,0,0,0,0v1.1h-1.3v1.1"/>
	<g id="LWPOLYLINE-37">
		<polyline class="st4" points="519.2,201.4 523.7,201.4 523.7,208.1 		"/>
	</g>
	<g id="LWPOLYLINE-38">
		<polyline class="st4" points="478.1,208.1 478.1,201.4 472.4,201.4 		"/>
	</g>
	<g id="LWPOLYLINE-39">
		<rect x="478.1" y="201.4" class="st4" width="40.6" height="1.1"/>
	</g>
	<g id="LINE-217">
		<polyline class="st4" points="529.1,201.4 518.7,201.4 518.7,208.1 		"/>
	</g>
	<g id="LINE-218">
		<polyline class="st4" points="461,201.4 472.4,201.4 472.4,208.1 		"/>
	</g>
	<g id="LINE-219">
		<polyline class="st6" points="456.3,201.4 411.4,201.4 411.4,209.2 		"/>
	</g>
	<g id="LWPOLYLINE-40">
		<polyline class="st4" points="421.7,208.8 421.7,201.4 416.6,201.4 416.6,208.8 		"/>
	</g>
	<g id="LWPOLYLINE-41">
		<polyline class="st6" points="460.4,208.1 460.4,201.4 461,201.4 		"/>
	</g>
	<g id="LWPOLYLINE-42">
		<rect x="421.7" y="201.4" class="st6" width="38.7" height="1.1"/>
	</g>
	<g id="LINE-220">
		<polyline class="st4" points="461,201.4 466.9,201.4 466.9,208.1 		"/>
	</g>
	<g id="LWPOLYLINE-43">
		<path class="st5" d="M316.2,41.4l-0.2-0.4c-0.3-0.7-1.1-1.1-1.8-1c-1.6,0.1-3.3,0.2-4.9,0.4c-0.6,0.1-1.1,0.6-1.1,1.2v20.2
			c0,0.6,0.5,1.1,1.1,1.2c1.6,0.1,3.3,0.3,4.9,0.4c0.7,0.1,1.5-0.3,1.8-1l0.2-0.4"/>
	</g>
	<g id="LWPOLYLINE-44">
		<path class="st5" d="M316.3,41.4c3,6.4,3,13.8,0.1,20.2"/>
	</g>
	<g id="LWPOLYLINE-45">
		<path class="st5" d="M316.2,61.9c5.9,0.2,11.8,0.3,17.8,0.3c3,0,5.9-0.6,8.6-1.8c2.1-0.9,3.9-2.2,5.3-3.9c2.4-2.8,2.4-7,0-9.8
			c-1.5-1.7-3.3-3-5.3-3.9c-2.7-1.2-5.7-1.7-8.6-1.8c-5.9,0-11.9,0.1-17.8,0.3"/>
	</g>
	<line class="st4" x1="529.1" y1="201.4" x2="529.1" y2="208"/>
	<line class="st4" x1="414.6" y1="201.4" x2="411.4" y2="201.4"/>
</g>
<g id="BATH_EXTERIOR">
	<g id="LINE-221">
		<polygon class="st7" points="411.4,208.1 528.8,208.1 528.8,166.8 411.4,166.9 		"/>
	</g>
	<g id="ELLIPSE-3">
		<path class="st8" d="M39.4,98.9c6.6,0,12,8.1,12,18s-5.4,18-12,18s-12-8.1-12-18S32.8,98.9,39.4,98.9z"/>
	</g>
	<g id="LINE-222">
		<line class="st2" x1="511.2" y1="47.5" x2="511.2" y2="29.5"/>
	</g>
</g>
<g id="KITCHEN">
	<g id="LINE-223">
		<line class="st9" x1="147.1" y1="158" x2="147.1" y2="194.1"/>
	</g>
	<g id="LINE-224">
		<line class="st9" x1="99.5" y1="158.1" x2="99.5" y2="194.1"/>
	</g>
	<g id="LWPOLYLINE-46">
		<line class="st9" x1="16.8" y1="194.1" x2="174.4" y2="194.2"/>
	</g>
	<g id="LWPOLYLINE-47">
		<rect x="49.3" y="267.1" class="st10" width="133.9" height="63"/>
	</g>
</g>
<g id="SINKS">
	<g id="CIRCLE-6">
		<path class="st4" d="M37.2,116.9c0-0.8,0.7-1.5,1.5-1.5s1.5,0.7,1.5,1.5s-0.7,1.5-1.5,1.5S37.2,117.8,37.2,116.9z"/>
	</g>
	<g id="LWPOLYLINE-48">
		<rect x="25.1" y="119.5" class="st4" width="0.4" height="3.8"/>
	</g>
	<g id="LWPOLYLINE-49">
		<rect x="25.1" y="115" class="st4" width="0.4" height="3.8"/>
	</g>
	<g id="LWPOLYLINE-50">
		<rect x="25.1" y="110.5" class="st4" width="0.4" height="3.8"/>
	</g>
	<g id="LWPOLYLINE-51">
		<polyline class="st6" points="25.5,122.7 29.2,122.7 29.2,120.1 25.5,120.1 		"/>
	</g>
	<g id="LWPOLYLINE-52">
		<polyline class="st6" points="25.5,111.1 29.2,111.1 29.2,113.7 25.5,113.7 		"/>
	</g>
	<g id="LINE-225">
		<polyline class="st6" points="25.2,117.4 37.5,117.4 37.5,116.3 25.3,116.3 		"/>
	</g>
	<g id="ELLIPSE-4">
		<path class="st4" d="M39.4,103.8c5,0,9,5.9,9,13.1s-4,13.1-9,13.1s-9-5.9-9-13.1S34.4,103.8,39.4,103.8z"/>
	</g>
	<g id="SPLINE">
		<path class="st4" d="M481.3,191.1c0,0,0,0.1,0,0.1s0,0,0,0.1c0,0,0,0,0,0.1c0,0,0,0.1,0,0.1c0,0,0,0,0,0.1l0,0l0.1,0.1h0.1h0h0.1
			h0.1"/>
	</g>
	<g id="SPLINE-2">
		<path class="st4" d="M481.9,172.6h-0.1h-0.1h0l-0.1,0.1l0,0h0l-0.1,0.1c0,0,0,0.1,0,0.1c0,0,0,0,0,0.1c0,0,0,0,0,0.1s0,0.1,0,0.1"
			/>
	</g>
	<g id="SPLINE-3">
		<path class="st4" d="M510.6,173.2c0,0,0-0.1,0-0.1c0,0,0,0,0-0.1V173c0,0,0-0.1-0.1-0.1l0,0v-0.1l-0.1-0.1l-0.1-0.1h0h-0.1h-0.1"
			/>
	</g>
	<g id="SPLINE-4">
		<path class="st4" d="M510,191.7h0.1h0.1h0h0.1l0,0l0,0c0,0,0.1,0,0.1-0.1c0,0,0-0.1,0.1-0.1c0,0,0,0,0-0.1s0,0,0-0.1
			c0,0,0-0.1,0-0.1"/>
	</g>
	<g id="ELLIPSE-5">
		<path class="st4" d="M510.6,191.1L510.6,191.1"/>
	</g>
	<g id="ELLIPSE-6">
		<path class="st4" d="M510.6,173.3L510.6,173.3"/>
	</g>
	<g id="LINE-226">
		<line class="st4" x1="510.6" y1="191.1" x2="510.6" y2="173.2"/>
	</g>
	<g id="ELLIPSE-7">
		<path class="st4" d="M481.3,191.1L481.3,191.1"/>
	</g>
	<g id="LINE-227">
		<line class="st4" x1="481.3" y1="191.1" x2="481.3" y2="173.2"/>
	</g>
	<g id="ELLIPSE-8">
		<path class="st4" d="M481.3,173.2L481.3,173.2"/>
	</g>
	<g id="LINE-228">
		<line class="st4" x1="481.9" y1="172.6" x2="509.9" y2="172.6"/>
	</g>
	<g id="ELLIPSE-9">
		<path class="st4" d="M481.9,191.7L481.9,191.7"/>
	</g>
	<g id="ELLIPSE-10">
		<path class="st4" d="M509.9,191.7L509.9,191.7"/>
	</g>
	<g id="LINE-229">
		<line class="st4" x1="481.9" y1="191.7" x2="509.9" y2="191.7"/>
	</g>
	<g id="CIRCLE-7">
		<path class="st4" d="M495.9,180.9c0.7,0,1.3,0.6,1.3,1.3c0,0.7-0.6,1.3-1.3,1.3s-1.3-0.6-1.3-1.3c0,0,0,0,0,0
			C494.6,181.4,495.2,180.8,495.9,180.9C495.9,180.8,495.9,180.8,495.9,180.9z"/>
	</g>
	<g id="CIRCLE-8">
		<path class="st4" d="M495.9,180.3c1.1,0,1.9,0.9,1.9,1.9c0,1.1-0.9,1.9-1.9,1.9c-1.1,0-1.9-0.9-1.9-1.9c0,0,0,0,0,0
			C494,181.1,494.9,180.3,495.9,180.3z"/>
	</g>
	<g id="LWPOLYLINE-53">
		<polyline class="st4" points="494.8,196 494.3,196 494.3,199.2 497.5,199.2 497.5,196 497.1,196 		"/>
	</g>
	<g id="LWPOLYLINE-54">
		<rect x="494.8" y="185.8" class="st6" width="2.2" height="12"/>
	</g>
	<g id="LWPOLYLINE-55">
		<rect x="500.3" y="196" class="st4" width="3.2" height="3.2"/>
	</g>
	<g id="LWPOLYLINE-56">
		<rect x="488.3" y="196" class="st4" width="3.2" height="3.2"/>
	</g>
	<g id="LWPOLYLINE-57">
		<rect x="488.3" y="197.2" class="st4" width="3.2" height="0.8"/>
	</g>
	<g id="LWPOLYLINE-58">
		<rect x="500.3" y="197.2" class="st4" width="3.2" height="0.8"/>
	</g>
	<g id="SPLINE-5">
		<path class="st4" d="M457.3,191.1c0,0,0,0.1,0,0.1c0,0,0,0,0,0.1s0,0,0,0.1c0,0,0,0.1-0.1,0.1v0.1l0,0l-0.1,0.1H457h0h-0.1h-0.1"
			/>
	</g>
	<g id="SPLINE-6">
		<path class="st4" d="M456.7,172.6h0.1h0.1h0l0.1,0.1h0l0,0l0.1,0.1c0,0,0,0.1,0.1,0.1v0.1c0,0,0,0,0,0.1c0,0,0,0.1,0,0.1"/>
	</g>
	<g id="SPLINE-7">
		<path class="st4" d="M428,173.2c0,0,0-0.1,0-0.1s0,0,0-0.1c0,0,0,0,0-0.1c0,0,0-0.1,0-0.1l0,0v-0.1l0.1-0.1l0.1-0.1h0h0.1h0.1"/>
	</g>
	<g id="SPLINE-8">
		<path class="st4" d="M428.6,191.7h-0.1h-0.1h0h-0.1l0,0h0l-0.1-0.1c0,0,0-0.1,0-0.1c0,0,0,0,0-0.1c0,0,0,0,0-0.1s0-0.1,0-0.1"/>
	</g>
	<g id="ELLIPSE-11">
		<path class="st4" d="M428,191.1L428,191.1"/>
	</g>
	<g id="ELLIPSE-12">
		<path class="st4" d="M428,173.3L428,173.3"/>
	</g>
	<g id="LINE-230">
		<line class="st4" x1="428.1" y1="191.1" x2="428.1" y2="173.2"/>
	</g>
	<g id="ELLIPSE-13">
		<path class="st4" d="M457.3,191.1L457.3,191.1"/>
	</g>
	<g id="LINE-231">
		<line class="st4" x1="457.3" y1="191.1" x2="457.3" y2="173.2"/>
	</g>
	<g id="ELLIPSE-14">
		<path class="st4" d="M457.3,173.2L457.3,173.2"/>
	</g>
	<g id="LINE-232">
		<line class="st4" x1="456.7" y1="172.6" x2="428.7" y2="172.6"/>
	</g>
	<g id="ELLIPSE-15">
		<path class="st4" d="M456.7,191.7L456.7,191.7"/>
	</g>
	<g id="ELLIPSE-16">
		<path class="st4" d="M428.7,191.7L428.7,191.7"/>
	</g>
	<g id="LINE-233">
		<line class="st4" x1="456.7" y1="191.7" x2="428.7" y2="191.7"/>
	</g>
	<g id="CIRCLE-9">
		<path class="st4" d="M442.7,180.9c0.7,0,1.3,0.6,1.3,1.3c0,0.7-0.6,1.3-1.3,1.3s-1.3-0.6-1.3-1.3c0,0,0,0,0,0
			C441.4,181.4,441.9,180.8,442.7,180.9C442.7,180.8,442.7,180.8,442.7,180.9z"/>
	</g>
	<g id="CIRCLE-10">
		<path class="st4" d="M442.7,180.3c1.1,0,1.9,0.9,1.9,1.9c0,1.1-0.9,1.9-1.9,1.9c-1.1,0-1.9-0.9-1.9-1.9c0,0,0,0,0,0
			C440.8,181.1,441.6,180.3,442.7,180.3z"/>
	</g>
	<g id="LWPOLYLINE-59">
		<polyline class="st4" points="443.8,196 444.3,196 444.3,199.2 441.1,199.2 441.1,196 441.6,196 		"/>
	</g>
	<g id="LWPOLYLINE-60">
		<rect x="441.6" y="185.8" class="st6" width="2.2" height="12"/>
	</g>
	<g id="LWPOLYLINE-61">
		<rect x="435.1" y="196" class="st4" width="3.2" height="3.2"/>
	</g>
	<g id="LWPOLYLINE-62">
		<rect x="447.1" y="196" class="st4" width="3.2" height="3.2"/>
	</g>
	<g id="LWPOLYLINE-63">
		<rect x="447.1" y="197.2" class="st4" width="3.2" height="0.8"/>
	</g>
	<g id="LWPOLYLINE-64">
		<rect x="435.1" y="197.2" class="st4" width="3.2" height="0.8"/>
	</g>
	<g id="LWPOLYLINE-65">
		<rect x="113" y="297.1" class="st4" width="1.7" height="3"/>
	</g>
	<g id="LWPOLYLINE-66">
		<polyline class="st4" points="113,297.3 112.5,297.3 112.5,300 113,300 		"/>
	</g>
	<g id="LWPOLYLINE-67">
		<polyline class="st4" points="114.7,300 115.2,300 115.2,297.3 114.7,297.3 		"/>
	</g>
	<g id="LINE-234">
		<line class="st4" x1="114.7" y1="297.5" x2="113" y2="297.5"/>
	</g>
	<g id="CIRCLE-11">
		<path class="st4" d="M125.9,299.8c0.6,0.1,1.2-0.4,1.2-1c0.1-0.6-0.4-1.2-1-1.2c-0.1,0-0.1,0-0.2,0c-0.6,0.1-1.1,0.6-1,1.2
			C124.9,299.3,125.3,299.7,125.9,299.8z"/>
	</g>
	<g id="LWPOLYLINE-68">
		<polyline class="st4" points="119.1,297.3 118.5,297.3 118.5,300 121.2,300 121.2,297.3 120.6,297.3 		"/>
	</g>
	<g id="LWPOLYLINE-69">
		<polyline class="st4" points="125.6,297.3 124.5,297.3 124.5,300 127.2,300 127.2,297.3 126.1,297.3 		"/>
	</g>
	<g id="LWPOLYLINE-70">
		<polyline class="st4" points="125.6,297.6 125.6,295.8 126.1,295.8 126.1,297.6 		"/>
	</g>
	<rect x="133.6" y="296.5" class="st4" width="4.3" height="4.3"/>
	<g id="LWPOLYLINE-71">
		<rect x="119.1" y="285.9" class="st4" width="1.5" height="13.5"/>
	</g>
	<g id="LWPOLYLINE-72">
		<polyline class="st4" points="119.1,295.6 97.3,295.6 97.3,270.1 142.4,270.1 142.4,295.6 120.6,295.6 		"/>
	</g>
	<rect x="136" y="298.2" class="st4" width="1.2" height="0.8"/>
	<line class="st4" x1="137.5" y1="299.1" x2="137.5" y2="298.1"/>
	<rect x="133.9" y="287.1" class="st6" width="1.7" height="12.2"/>
</g>
<g id="APPLIANCES">
	<g id="LWPOLYLINE-73">
		<rect x="130" y="31.2" class="st5" width="35.2" height="33.8"/>
	</g>
	<g id="LWPOLYLINE-74">
		<polyline class="st5" points="136.2,65 136.2,66.1 159.1,66.1 159.1,65 		"/>
	</g>
	<g id="LINE-235">
		<line class="st11" x1="180.4" y1="300.9" x2="180.4" y2="267.2"/>
	</g>
	<g id="LINE-236">
		<line class="st11" x1="145.1" y1="300.9" x2="145.1" y2="267.2"/>
	</g>
	<g id="LINE-237">
		<line class="st11" x1="145.1" y1="300.9" x2="180.4" y2="300.9"/>
	</g>
	<line class="st9" x1="63.4" y1="152.3" x2="63.4" y2="194.1"/>
	<path class="st4" d="M110.4,170.8c-1.3,0-2.4-1.1-2.4-2.4s1.1-2.4,2.4-2.4c1.3,0,2.4,1.1,2.4,2.4c0,0,0,0,0,0
		C112.8,169.7,111.7,170.8,110.4,170.8z"/>
	<path class="st4" d="M128.1,170.8c-1.3,0-2.4-1.1-2.4-2.4c0-1.3,1.1-2.4,2.4-2.4c1.3,0,2.4,1.1,2.4,2.4
		C130.4,169.7,129.4,170.8,128.1,170.8z"/>
	<path class="st4" d="M110.4,186.1c-1.3,0-2.4-1.1-2.4-2.4c0-1.3,1.1-2.4,2.4-2.4c1.3,0,2.4,1.1,2.4,2.4c0,0,0,0,0,0
		C112.8,185,111.7,186.1,110.4,186.1z"/>
	<path class="st4" d="M128.1,186.1c-1.3,0-2.4-1.1-2.4-2.4s1.1-2.4,2.4-2.4s2.4,1.1,2.4,2.4c0,0,0,0,0,0
		C130.4,185,129.4,186.1,128.1,186.1z"/>
	<line class="st4" x1="119.2" y1="191.3" x2="101.6" y2="176.1"/>
	<g id="LINE-238">
		<line class="st4" x1="119.2" y1="192.1" x2="119.2" y2="160"/>
	</g>
	<rect x="101.6" y="160.8" class="st4" width="35.3" height="30.6"/>
	<line class="st4" x1="101.6" y1="176.1" x2="137" y2="176.1"/>
	<g id="CIRCLE-12">
		<path class="st4" d="M140.5,174.3c0-0.8,0.6-1.4,1.4-1.4c0.8,0,1.4,0.6,1.4,1.4c0,0.8-0.6,1.4-1.4,1.4c0,0,0,0,0,0
			C141.1,175.6,140.5,175,140.5,174.3C140.5,174.3,140.5,174.3,140.5,174.3z"/>
	</g>
	<g id="CIRCLE-13">
		<path class="st4" d="M140.5,178.8c0-0.8,0.6-1.4,1.4-1.4c0.8,0,1.4,0.6,1.4,1.4c0,0.8-0.6,1.4-1.4,1.4c0,0,0,0,0,0
			C141.1,180.2,140.5,179.6,140.5,178.8C140.5,178.9,140.5,178.8,140.5,178.8z"/>
	</g>
	<g id="CIRCLE-14">
		<path class="st4" d="M140.5,183.5c0-0.8,0.6-1.4,1.4-1.4c0.8,0,1.4,0.6,1.4,1.4c0,0.8-0.6,1.4-1.4,1.4c0,0,0,0,0,0
			C141.1,184.8,140.5,184.2,140.5,183.5C140.5,183.5,140.5,183.5,140.5,183.5z"/>
	</g>
	<g id="CIRCLE-15">
		<path class="st4" d="M140.5,187.9c0-0.8,0.6-1.4,1.4-1.4c0.8,0,1.4,0.6,1.4,1.4c0,0.8-0.6,1.4-1.4,1.4c0,0,0,0,0,0
			C141.1,189.2,140.5,188.6,140.5,187.9z"/>
	</g>
	<rect x="100.4" y="160" class="st4" width="45" height="32.1"/>
	<line class="st4" x1="101.6" y1="191.3" x2="119.2" y2="176.1"/>
	<line class="st4" x1="137" y1="160.8" x2="119.2" y2="176.1"/>
	<line class="st4" x1="119.2" y1="160.8" x2="137" y2="176.1"/>
	<line class="st4" x1="101.6" y1="160.8" x2="119.2" y2="176.1"/>
	<line class="st4" x1="101.6" y1="176.1" x2="119.2" y2="160.8"/>
	<line class="st4" x1="137" y1="191.3" x2="119.2" y2="176.1"/>
	<line class="st4" x1="137" y1="176.1" x2="119.2" y2="191.3"/>
</g>
<g id="SILLS">
	<g id="LINE-239">
		<line class="st12" x1="69.7" y1="638.5" x2="523.7" y2="664.6"/>
	</g>
	<line class="st12" x1="522.9" y1="636.2" x2="68.8" y2="609.6"/>
</g>
<g id="WINDOW_GLAZING">
	<g id="LINE-240">
		<line class="st13" x1="348.3" y1="640.4" x2="405.1" y2="643.8"/>
	</g>
	<g id="LINE-241">
		<line class="st13" x1="405" y1="645.4" x2="348.2" y2="642"/>
	</g>
	<g id="LINE-242">
		<line class="st13" x1="448.7" y1="646.2" x2="505.5" y2="649.5"/>
	</g>
	<g id="LINE-243">
		<line class="st13" x1="505.4" y1="651.1" x2="448.6" y2="647.7"/>
	</g>
	<g id="LINE-244">
		<line class="st13" x1="78.8" y1="624.8" x2="135.5" y2="628.2"/>
	</g>
	<g id="LINE-245">
		<line class="st13" x1="135.4" y1="629.8" x2="78.7" y2="626.4"/>
	</g>
	<g id="LINE-246">
		<line class="st13" x1="179.2" y1="630.6" x2="235.9" y2="634"/>
	</g>
	<g id="LINE-247">
		<line class="st13" x1="235.9" y1="635.5" x2="179.1" y2="632.2"/>
	</g>
</g>
<g id="MULLIONS">
	<g id="LWPOLYLINE-75">
		
			<rect x="68.8" y="623.5" transform="matrix(6.017743e-02 -0.9982 0.9982 6.017743e-02 -555.4187 660.6676)" class="st7" width="8.6" height="3.6"/>
	</g>
	<g id="LWPOLYLINE-76">
		
			<rect x="75.6" y="623.2" transform="matrix(6.017743e-02 -0.9982 0.9982 6.017743e-02 -551.7786 664.2941)" class="st7" width="2.6" height="3.9"/>
	</g>
	<g id="LWPOLYLINE-77">
		<line class="st12" x1="179.2" y1="630.7" x2="179.1" y2="631.4"/>
	</g>
	<line class="st5" x1="325.6" y1="664.9" x2="53.7" y2="649.4"/>
	<g id="LINE-248">
		<line class="st7" x1="142.3" y1="633.8" x2="74.5" y2="629.7"/>
	</g>
	<g id="LINE-249">
		<line class="st7" x1="142.3" y1="625.1" x2="74.5" y2="621"/>
	</g>
	<g id="LWPOLYLINE-78">
		
			<rect x="68.7" y="623.6" transform="matrix(6.017743e-02 -0.9982 0.9982 6.017743e-02 -555.5922 660.6101)" class="st7" width="8.6" height="3.6"/>
	</g>
	<g id="LWPOLYLINE-79">
		
			<rect x="137" y="627.7" transform="matrix(6.017743e-02 -0.9982 0.9982 6.017743e-02 -495.5114 732.5804)" class="st7" width="8.6" height="3.6"/>
	</g>
	<g id="LWPOLYLINE-80">
		
			<rect x="75.5" y="623.3" transform="matrix(6.017743e-02 -0.9982 0.9982 6.017743e-02 -551.9521 664.2366)" class="st7" width="2.6" height="3.9"/>
	</g>
	<g id="LWPOLYLINE-81">
		
			<rect x="136.2" y="627" transform="matrix(6.017743e-02 -0.9982 0.9982 6.017743e-02 -498.5562 728.3965)" class="st7" width="2.6" height="3.9"/>
	</g>
	<g id="LINE-250">
		<line class="st7" x1="242.7" y1="639.5" x2="174.9" y2="635.4"/>
	</g>
	<g id="LINE-251">
		<line class="st7" x1="242.7" y1="630.8" x2="174.9" y2="626.8"/>
	</g>
	<g id="LWPOLYLINE-82">
		
			<rect x="169.1" y="629.3" transform="matrix(6.017743e-02 -0.9982 0.9982 6.017743e-02 -466.9392 766.2223)" class="st7" width="8.6" height="3.6"/>
	</g>
	<g id="LWPOLYLINE-83">
		
			<rect x="237.4" y="633.4" transform="matrix(6.017743e-02 -0.9982 0.9982 6.017743e-02 -406.8584 838.1927)" class="st7" width="8.6" height="3.6"/>
	</g>
	<g id="LWPOLYLINE-84">
		
			<rect x="175.9" y="629" transform="matrix(6.017743e-02 -0.9982 0.9982 6.017743e-02 -463.3008 769.8681)" class="st7" width="2.6" height="3.9"/>
	</g>
	<g id="LWPOLYLINE-85">
		
			<rect x="236.6" y="632.7" transform="matrix(6.017743e-02 -0.9982 0.9982 6.017743e-02 -409.8936 834.0187)" class="st7" width="2.6" height="3.9"/>
	</g>
	<g id="LINE-252">
		<line class="st7" x1="411.8" y1="649.4" x2="344.1" y2="645.3"/>
	</g>
	<g id="LINE-253">
		<line class="st7" x1="411.8" y1="640.7" x2="344.1" y2="636.6"/>
	</g>
	<g id="LWPOLYLINE-86">
		
			<rect x="338.3" y="639.1" transform="matrix(6.017743e-02 -0.9982 0.9982 6.017743e-02 -317.8089 944.2923)" class="st7" width="8.6" height="3.6"/>
	</g>
	<g id="LWPOLYLINE-87">
		
			<rect x="406.5" y="643.2" transform="matrix(6.017743e-02 -0.9982 0.9982 6.017743e-02 -257.7292 1016.2814)" class="st7" width="8.6" height="3.6"/>
	</g>
	<g id="LWPOLYLINE-88">
		
			<rect x="345" y="638.8" transform="matrix(6.017743e-02 -0.9982 0.9982 6.017743e-02 -314.1794 947.9276)" class="st7" width="2.6" height="3.9"/>
	</g>
	<g id="LWPOLYLINE-89">
		
			<rect x="405.8" y="642.6" transform="matrix(6.017743e-02 -0.9982 0.9982 6.017743e-02 -260.774 1012.0975)" class="st7" width="2.6" height="3.9"/>
	</g>
	<g id="LINE-254">
		<line class="st7" x1="511.8" y1="655.1" x2="444.1" y2="651"/>
	</g>
	<g id="LINE-255">
		<line class="st7" x1="512.2" y1="646.4" x2="444.5" y2="642.3"/>
	</g>
	<g id="LWPOLYLINE-90">
		
			<rect x="438.7" y="644.9" transform="matrix(6.017743e-02 -0.9982 0.9982 6.017743e-02 -229.1664 1049.9133)" class="st7" width="8.6" height="3.6"/>
	</g>
	<g id="LWPOLYLINE-91">
		
			<rect x="506.9" y="649" transform="matrix(6.017743e-02 -0.9982 0.9982 6.017743e-02 -169.0762 1121.8937)" class="st7" width="8.6" height="3.6"/>
	</g>
	<g id="LWPOLYLINE-92">
		
			<rect x="445.4" y="644.6" transform="matrix(6.017743e-02 -0.9982 0.9982 6.017743e-02 -225.5369 1053.5486)" class="st7" width="2.6" height="3.9"/>
	</g>
	<g id="LWPOLYLINE-93">
		
			<rect x="506.2" y="648.3" transform="matrix(6.017743e-02 -0.9982 0.9982 6.017743e-02 -172.121 1117.7097)" class="st7" width="2.6" height="3.9"/>
	</g>
</g>
<g id="DOOR_SWING">
	<g id="ARC-14">
		<path class="st5" d="M322.6,402.3c29,0,52.5-23.5,52.5-52.5"/>
	</g>
</g>
<g id="DOOR_SWING_MAIN">
	<g id="ARC-15">
		<path class="st12" d="M214.8,47.5c0,13.7,5.2,26.9,14.6,36.9"/>
	</g>
</g>
<g id="DOORS">
	<g id="LWPOLYLINE-94">
		<polygon class="st14" points="267.1,45.9 268.8,47.5 229.3,84.3 227.7,82.8 		"/>
	</g>
	<g id="LWPOLYLINE-95">
		<rect x="322.6" y="349.8" class="st14" width="52.5" height="2.2"/>
	</g>
	<g id="LWPOLYLINE-96">
		<polygon class="st14" points="109.9,84.7 112.2,84.5 112.2,137 109.9,137.2 		"/>
	</g>
	<g id="LWPOLYLINE-97">
		<rect x="324.5" y="212.6" class="st14" width="52.6" height="2.6"/>
	</g>
	<g id="LWPOLYLINE-98">
		<rect x="319.9" y="233.1" class="st14" width="2.6" height="45"/>
	</g>
	<g id="LWPOLYLINE-99">
		<rect x="271.9" y="129.2" class="st14" width="2.6" height="74.1"/>
	</g>
	<g id="LWPOLYLINE-100">
		<rect x="124.1" y="73.3" class="st14" width="45" height="2.6"/>
	</g>
	<g id="LWPOLYLINE-101">
		<rect x="319.9" y="278.1" class="st14" width="2.6" height="45"/>
	</g>
	<line class="st9" x1="271.9" y1="166.3" x2="274.5" y2="166.3"/>
</g>
<g id="WALL">
	<g id="LWPOLYLINE-102">
		
			<rect x="143.6" y="615.4" transform="matrix(5.738980e-02 -0.9984 0.9984 5.738980e-02 -480.5769 750.3477)" class="st15" width="27" height="28.5"/>
	</g>
	<g id="LWPOLYLINE-103">
		
			<rect x="415.3" y="631.9" transform="matrix(5.989229e-02 -0.9982 0.9982 5.989229e-02 -241.8486 1035.5125)" class="st15" width="27" height="28.6"/>
	</g>
	<g id="LWPOLYLINE-104">
		<polygon class="st15" points="23.4,99.1 23.4,102.1 16.7,102.1 16.7,91.1 52.8,91.1 52.8,37 109.9,37 109.9,84.7 117.4,84.7 
			117.4,76 124.2,76 124.2,68.5 120.4,68.5 120.4,26.5 174.4,26.3 174.4,68.5 169.2,68.5 169.2,76 181.9,76 181.9,47.5 214.8,47.5 
			214.8,38.5 181.9,38.5 181.9,17.5 43.8,17.5 43.8,82.1 0.3,82.1 0.2,275.3 40.3,275.3 40.3,454.9 11.8,454.9 11.8,646.8 
			28.1,647.8 32.3,648.1 56.1,649.5 56.7,637.4 70.2,638.2 72.8,592.3 17.8,589.1 17.8,463.9 49.3,463.9 49.3,266.3 9.2,266.3 
			9.3,200.2 16.8,200.2 16.7,158 174.4,158.1 174.4,200.2 181.9,200.2 181.9,143.2 117.5,143.2 117.5,137.2 109.9,137.2 
			109.9,143.2 16.7,143.2 16.7,132.1 23.4,132.1 23.4,135.1 24.9,135.1 24.9,99.1 		"/>
	</g>
	<g id="LWPOLYLINE-105">
		<polygon class="st15" points="249.2,648.5 249.2,648.5 254.4,648.8 253.7,660.8 277,662.1 277,662.1 294.4,663.1 294.4,663.1 
			325.6,664.9 326.3,652.9 339.7,653.7 340.1,647.1 340.4,641.8 342.4,607.8 322.7,606.6 322.7,402.4 315.2,402.4 315.2,421.9 
			271.8,421.9 271.8,463.9 315.2,463.9 315.2,606.2 245,602.2 242.4,648.1 		"/>
	</g>
	<polygon class="st15" points="431.9,217.1 582.5,217.1 582.5,17.5 274.9,17.4 274.9,38.5 268.9,38.5 268.9,47.5 271.8,47.5 
		271.8,129.3 279.2,129.3 279.3,121.8 330.4,121.8 330.4,207.9 279.3,207.9 279.3,202.6 271.8,202.6 271.8,343.9 315.2,343.9 
		315.2,349.9 322.7,349.9 322.8,323.2 315.3,323.2 315.3,336.4 279.3,336.4 279.3,220 315.3,220 315.3,233.2 322.8,233.2 322.8,220 
		348.2,220 348.2,216.1 291.7,216.1 291.7,211.9 348.2,211.9 348.2,199.8 338.1,199.8 338.1,80.5 308,80.6 308,26.5 407,26.5 
		407,86.5 414.6,86.5 414.6,26.5 511.2,26.5 511.2,29.5 517.2,29.5 517.2,47.5 511.2,47.5 511.2,80.6 468.1,80.6 468.1,88.1 
		528.6,88.1 528.9,208.1 411.4,208.1 411.4,200.8 400.6,200.8 400.6,208.1 400.6,211.5 400.6,220 412.4,220 412.4,406 523.6,406 
		523.6,618.2 514.6,617.7 513.2,642.8 512,663.6 526.2,664.4 526.4,661.4 532.5,661.8 532.5,398.5 431.9,398.5 	"/>
</g>
<g id="LIVE">
	<g id="MTEXT">
		<g class="st16">
			<path class="st17" d="M157.9,173.2l1.4,5.1l1.3-5.1h0.8l-1.7,6.4h-0.7l-1.3-5l-1.4,5h-0.7l-1.7-6.4h0.8l1.3,5.1l1.4-5.1H157.9z"
				/>
			<path class="st17" d="M163.1,176.8v2.7h-0.8v-6.4h2.4c1.3,0,2.1,0.6,2.1,1.9c0,1.1-0.6,1.7-1.6,1.8l1.9,2.7h-0.9l-1.8-2.7H163.1z
				 M163.1,176.1h1.5c0.8,0,1.3-0.4,1.3-1.1c0-0.7-0.5-1.1-1.3-1.1h-1.5V176.1z"/>
		</g>
	</g>
	<g id="MTEXT-2">
		<g class="st16">
			<path class="st17" d="M34.8,176.8v2.7H34v-6.4h2.4c1.3,0,2.1,0.6,2.1,1.9c0,1.1-0.6,1.7-1.6,1.8l1.9,2.7h-0.9l-1.8-2.7H34.8z
				 M34.8,176.1h1.5c0.8,0,1.3-0.4,1.3-1.1c0-0.7-0.5-1.1-1.3-1.1h-1.5V176.1z"/>
			<path class="st17" d="M41.6,172.8h0.8l-2.6,7.6H39L41.6,172.8z"/>
			<path class="st17" d="M43.2,179.5v-6.4h3.9v0.7H44v2.2h2.9v0.7H44v2.8H43.2z"/>
		</g>
	</g>
	<g id="MTEXT-3">
		<g class="st16">
			<path class="st17" d="M157.1,281h2c1.9,0,3.1,1.2,3.1,3.2c0,1.9-1.2,3.2-3.1,3.2h-2V281z M159.2,286.7c1.4,0,2.3-1,2.3-2.5
				c0-1.5-0.9-2.5-2.3-2.5H158v4.9H159.2z"/>
		</g>
		<g class="st16">
			<path class="st17" d="M167,281l1.4,5.1l1.3-5.1h0.8l-1.7,6.4H168l-1.3-5l-1.4,5h-0.7l-1.7-6.4h0.8l1.3,5.1l1.4-5.1H167z"/>
		</g>
	</g>
	<g id="MTEXT-4">
		<g class="st16">
			<path class="st17" d="M143.8,45.2l1.4,5.1l1.3-5.1h0.8l-1.7,6.4h-0.7l-1.3-5l-1.4,5h-0.7l-1.7-6.4h0.8l1.3,5.1l1.4-5.1H143.8z"/>
		</g>
		<g class="st16">
			<path class="st17" d="M149.9,44.9h0.8l-2.6,7.6h-0.8L149.9,44.9z"/>
			<path class="st17" d="M151.5,45.2h2c1.9,0,3.1,1.2,3.1,3.2c0,1.9-1.2,3.2-3.1,3.2h-2V45.2z M153.5,50.9c1.4,0,2.3-1,2.3-2.5
				c0-1.5-0.9-2.5-2.3-2.5h-1.2v4.9H153.5z"/>
		</g>
	</g>
	<g id="MTEXT-5">
		<g class="st16">
			<path class="st17" d="M232.8,2v0.7h-3.3v2h3v0.7h-3v2.2h3.3v0.7h-4.1V2H232.8z"/>
			<path class="st17" d="M239,8.4h-0.6l-3.6-5.1v5.1h-0.8V2h0.8l3.4,4.9V2h0.8V8.4z"/>
			<path class="st17" d="M240.1,2h5.3v0.7h-2.2v5.7h-0.8V2.7h-2.2V2z"/>
		</g>
		<g class="st16">
			<path class="st17" d="M247.3,5.7v2.7h-0.8V2h2.4c1.3,0,2.1,0.6,2.1,1.9c0,1.1-0.6,1.7-1.6,1.8l1.9,2.7h-0.9l-1.8-2.7H247.3z
				 M247.3,5h1.5c0.8,0,1.3-0.4,1.3-1.1c0-0.7-0.5-1.1-1.3-1.1h-1.5V5z"/>
		</g>
		<g class="st16">
			<path class="st17" d="M256.1,2h0.9l-2.3,3.8v2.6h-0.8V5.8L251.5,2h0.9l1.8,3L256.1,2z"/>
		</g>
	</g>
	<polygon class="st17" points="242.9,28.4 249.9,16.2 235.8,16.2 235.8,16.2 	"/>
	<g class="st16">
		<path class="st17" d="M386.7,511l-2-4.9v4.9h-0.8v-6.4h0.9l2.2,5.2l2.2-5.2h0.9v6.4h-0.8v-4.9l-2,4.9H386.7z"/>
	</g>
	<g class="st16">
		<path class="st17" d="M394.3,504.6l2.5,6.4H396l-0.7-1.9h-2.6l-0.7,1.9H391l2.5-6.4H394.3z M392.9,508.4h2.1l-1-2.7L392.9,508.4z"
			/>
	</g>
	<g class="st16">
		<path class="st17" d="M398.1,509.4c0.2,0.7,0.8,1.1,1.6,1.1c0.8,0,1.4-0.4,1.4-1.1c0-0.5-0.3-0.8-1-1l-1.1-0.3
			c-0.9-0.2-1.5-0.7-1.5-1.6c0-1.1,0.9-1.8,2.1-1.8c1.3,0,2.1,0.7,2.3,1.7H401c-0.2-0.6-0.7-1-1.5-1c-0.8,0-1.3,0.4-1.3,1.1
			c0,0.5,0.4,0.8,1,1l1.1,0.3c1,0.3,1.6,0.8,1.6,1.7c0,1.2-0.9,1.9-2.2,1.9s-2.2-0.6-2.5-1.8H398.1z"/>
	</g>
	<g class="st16">
		<path class="st17" d="M402.5,504.6h5.3v0.7h-2.2v5.7h-0.8v-5.7h-2.2V504.6z"/>
		<path class="st17" d="M412.9,504.6v0.7h-3.3v2h3v0.7h-3v2.2h3.3v0.7h-4.1v-6.4H412.9z"/>
		<path class="st17" d="M415,508.3v2.7h-0.8v-6.4h2.4c1.3,0,2.1,0.6,2.1,1.9c0,1.1-0.6,1.7-1.6,1.8l1.9,2.7H418l-1.8-2.7H415z
			 M415,507.6h1.5c0.8,0,1.3-0.4,1.3-1.1c0-0.7-0.5-1.1-1.3-1.1H415V507.6z"/>
		<path class="st17" d="M426.6,509.2c0,1.2-0.8,1.8-2.1,1.8h-2.3v-6.4h2.1c1.3,0,2.1,0.6,2.1,1.7c0,0.8-0.4,1.2-0.9,1.4
			C426.2,507.9,426.6,508.5,426.6,509.2z M424.3,507.4c0.9,0,1.3-0.3,1.3-1s-0.5-1-1.3-1H423v2.1H424.3z M423,510.3h1.5
			c0.9,0,1.3-0.4,1.3-1.1c0-0.7-0.5-1.1-1.3-1.1H423V510.3z"/>
		<path class="st17" d="M431.9,504.6v0.7h-3.3v2h3v0.7h-3v2.2h3.3v0.7h-4.1v-6.4H431.9z"/>
		<path class="st17" d="M433.2,504.6h2c1.9,0,3.1,1.2,3.1,3.2c0,1.9-1.2,3.2-3.1,3.2h-2V504.6z M435.2,510.3c1.4,0,2.3-1,2.3-2.5
			c0-1.5-0.9-2.5-2.3-2.5H434v4.9H435.2z"/>
	</g>
	<g class="st16">
		<path class="st17" d="M440.3,508.3v2.7h-0.8v-6.4h2.4c1.3,0,2.1,0.6,2.1,1.9c0,1.1-0.6,1.7-1.6,1.8l1.9,2.7h-0.9l-1.8-2.7H440.3z
			 M440.3,507.6h1.5c0.8,0,1.3-0.4,1.3-1.1c0-0.7-0.5-1.1-1.3-1.1h-1.5V507.6z"/>
	</g>
	<g class="st16">
		<path class="st17" d="M447.7,511.1c-1.7,0-2.9-1.4-2.9-3.3c0-1.9,1.2-3.3,2.9-3.3c1.7,0,2.9,1.4,2.9,3.3
			C450.6,509.8,449.4,511.1,447.7,511.1z M447.7,505.3c-1.2,0-2.1,1.1-2.1,2.5c0,1.5,0.8,2.5,2.1,2.5c1.2,0,2.1-1.1,2.1-2.5
			C449.7,506.3,448.9,505.3,447.7,505.3z"/>
	</g>
	<g class="st16">
		<path class="st17" d="M454.3,511.1c-1.7,0-2.9-1.4-2.9-3.3c0-1.9,1.2-3.3,2.9-3.3c1.7,0,2.9,1.4,2.9,3.3
			C457.2,509.8,456,511.1,454.3,511.1z M454.3,505.3c-1.2,0-2.1,1.1-2.1,2.5c0,1.5,0.8,2.5,2.1,2.5c1.2,0,2.1-1.1,2.1-2.5
			C456.3,506.3,455.5,505.3,454.3,505.3z"/>
		<path class="st17" d="M461.1,511l-2-4.9v4.9h-0.8v-6.4h0.9l2.2,5.2l2.2-5.2h0.9v6.4h-0.8v-4.9l-2,4.9H461.1z"/>
	</g>
	<g class="st16">
		<path class="st17" d="M401.4,522.2h-0.8v-5.4l-1.6,0.8v-0.8l1.9-1h0.5V522.2z"/>
	</g>
	<g class="st16">
		<path class="st17" d="M404.6,516.5c-0.8,0-1.2,0.5-1.2,1.3h-0.8c0.1-1.2,0.9-2,2.1-2c1.2,0,1.9,0.7,1.9,1.8c0,0.8-0.6,1.4-1.3,2.2
			l-1.6,1.8h3v0.7h-4.2v-0.5l2.1-2.3c0.7-0.7,1.2-1.3,1.2-1.9C405.8,516.9,405.3,516.5,404.6,516.5z"/>
	</g>
	<g class="st16">
		<path class="st17" d="M408,516.8c-0.3,0-0.5-0.2-0.5-0.5c0-0.3,0.2-0.6,0.6-0.6c0.3,0,0.6,0.2,0.6,0.6c0,0.2-0.1,0.4-0.2,0.7
			l-0.5,0.9h-0.5L408,516.8z"/>
	</g>
	<g class="st16">
		<path class="st17" d="M409.3,519.1h2.5v0.7h-2.5V519.1z"/>
	</g>
	<g class="st16">
		<path class="st17" d="M416.3,517.3c-0.2-0.5-0.5-0.9-1.2-0.9c-0.9,0-1.6,1.1-1.6,2.4c0,0.1,0,0.2,0,0.3c0.2-0.6,0.9-1.1,1.6-1.1
			c1.2,0,2.1,1,2.1,2.1c0,1.2-0.8,2.1-2.1,2.1c-0.8,0-1.5-0.4-1.9-1.2c-0.3-0.6-0.4-1.2-0.4-2c0-2.1,1-3.4,2.3-3.4
			c1.1,0,1.7,0.6,2,1.6H416.3z M415.1,521.6c0.8,0,1.4-0.6,1.4-1.4c0-0.9-0.6-1.5-1.4-1.5c-0.8,0-1.4,0.6-1.4,1.5
			C413.7,521,414.3,521.6,415.1,521.6z"/>
	</g>
	<g class="st16">
		<path class="st17" d="M417.9,515.8h0.7v2.3h-0.7V515.8z M419.2,515.8h0.7v2.3h-0.7V515.8z"/>
		<path class="st17" d="M425.4,519.8l1.7,2.4h-0.9l-1.3-1.8l-1.3,1.8h-0.8l1.7-2.4l-1.6-2.3h0.9l1.2,1.7l1.2-1.7h0.9L425.4,519.8z"
			/>
		<path class="st17" d="M432.2,522.2h-0.8v-5.4l-1.6,0.8v-0.8l1.9-1h0.5V522.2z"/>
		<path class="st17" d="M435.6,522.2h-0.8v-5.4l-1.6,0.8v-0.8l1.9-1h0.5V522.2z"/>
		<path class="st17" d="M436.8,515.8h0.7v2.3h-0.7V515.8z"/>
	</g>
	<g class="st16">
		<path class="st17" d="M438.4,519.1h2.5v0.7h-2.5V519.1z"/>
	</g>
	<g class="st16">
		<path class="st17" d="M443.4,516.5c-0.8,0-1.2,0.5-1.2,1.3h-0.8c0.1-1.2,0.9-2,2.1-2c1.2,0,1.9,0.7,1.9,1.8c0,0.8-0.6,1.4-1.3,2.2
			l-1.6,1.8h3v0.7h-4.2v-0.5l2.1-2.3c0.7-0.7,1.2-1.3,1.2-1.9C444.5,516.9,444.1,516.5,443.4,516.5z"/>
	</g>
	<g class="st16">
		<path class="st17" d="M446.2,515.8h0.7v2.3h-0.7V515.8z M447.4,515.8h0.7v2.3h-0.7V515.8z"/>
	</g>
	<g class="st16">
		<path class="st17" d="M144.7,467.5v-0.7h2.3v0.4c0,1.7-1.1,2.8-2.6,2.8c-1.7,0-2.9-1.3-2.9-3.3s1.3-3.3,2.9-3.3
			c1.4,0,2.3,0.8,2.5,2h-0.8c-0.3-0.7-0.8-1.2-1.7-1.2c-1.2,0-2.1,1-2.1,2.5c0,1.5,0.8,2.6,2.1,2.6c1.1,0,1.8-0.7,1.9-1.8H144.7z"/>
		<path class="st17" d="M149,467.2v2.7h-0.8v-6.4h2.4c1.3,0,2.1,0.6,2.1,1.9c0,1.1-0.6,1.7-1.6,1.8l1.9,2.7H152l-1.8-2.7H149z
			 M149,466.5h1.5c0.8,0,1.3-0.4,1.3-1.1c0-0.7-0.5-1.1-1.3-1.1H149V466.5z"/>
		<path class="st17" d="M158,463.5v0.7h-3.3v2h3v0.7h-3v2.2h3.3v0.7h-4.1v-6.4H158z"/>
	</g>
	<g class="st16">
		<path class="st17" d="M162,463.5l2.5,6.4h-0.8l-0.7-1.9h-2.6l-0.7,1.9h-0.8l2.5-6.4H162z M160.6,467.3h2.1l-1-2.7L160.6,467.3z"/>
	</g>
	<g class="st16">
		<path class="st17" d="M164.4,463.5h5.3v0.7h-2.2v5.7h-0.8v-5.7h-2.2V463.5z"/>
	</g>
	<g class="st16">
		<path class="st17" d="M173.9,467.2v2.7h-0.8v-6.4h2.4c1.3,0,2.1,0.6,2.1,1.9c0,1.1-0.6,1.7-1.6,1.8l1.9,2.7h-0.9l-1.8-2.7H173.9z
			 M173.9,466.5h1.5c0.8,0,1.3-0.4,1.3-1.1c0-0.7-0.5-1.1-1.3-1.1h-1.5V466.5z"/>
	</g>
	<g class="st16">
		<path class="st17" d="M181.3,470c-1.7,0-2.9-1.4-2.9-3.3c0-1.9,1.2-3.3,2.9-3.3c1.7,0,2.9,1.4,2.9,3.3
			C184.2,468.7,183,470,181.3,470z M181.3,464.2c-1.2,0-2.1,1.1-2.1,2.5c0,1.5,0.8,2.5,2.1,2.5c1.2,0,2.1-1.1,2.1-2.5
			C183.4,465.2,182.5,464.2,181.3,464.2z"/>
	</g>
	<g class="st16">
		<path class="st17" d="M187.9,470c-1.7,0-2.9-1.4-2.9-3.3c0-1.9,1.2-3.3,2.9-3.3c1.7,0,2.9,1.4,2.9,3.3
			C190.8,468.7,189.6,470,187.9,470z M187.9,464.2c-1.2,0-2.1,1.1-2.1,2.5c0,1.5,0.8,2.5,2.1,2.5c1.2,0,2.1-1.1,2.1-2.5
			C190,465.2,189.1,464.2,187.9,464.2z"/>
		<path class="st17" d="M194.7,469.9l-2-4.9v4.9h-0.8v-6.4h0.9l2.2,5.2l2.2-5.2h0.9v6.4h-0.8V465l-2,4.9H194.7z"/>
	</g>
	<g class="st16">
		<path class="st17" d="M147.4,475.4c-0.8,0-1.2,0.5-1.2,1.3h-0.8c0.1-1.2,0.9-2,2.1-2c1.2,0,1.9,0.7,1.9,1.8c0,0.8-0.6,1.4-1.3,2.2
			l-1.6,1.8h3v0.7h-4.2v-0.5l2.1-2.3c0.7-0.7,1.2-1.3,1.2-1.9C148.5,475.8,148.1,475.4,147.4,475.4z"/>
	</g>
	<g class="st16">
		<path class="st17" d="M151.1,478.2h-0.6v-3.5h3.5v0.7h-2.8v1.9c0.2-0.2,0.6-0.4,1.2-0.4c1.2,0,2,0.9,2,2.1c0,1.2-0.9,2.1-2.1,2.1
			c-1.2,0-2-0.7-2.2-1.9h0.8c0.1,0.7,0.6,1.2,1.4,1.2c0.8,0,1.3-0.6,1.3-1.4c0-0.8-0.5-1.4-1.3-1.4
			C151.7,477.7,151.4,477.9,151.1,478.2z"/>
		<path class="st17" d="M155.5,475.7c-0.3,0-0.5-0.2-0.5-0.5c0-0.3,0.2-0.6,0.6-0.6s0.6,0.2,0.6,0.6c0,0.2-0.1,0.4-0.2,0.7l-0.5,0.9
			h-0.5L155.5,475.7z"/>
	</g>
	<g class="st16">
		<path class="st17" d="M156.8,478h2.5v0.7h-2.5V478z"/>
	</g>
	<g class="st16">
		<path class="st17" d="M160.9,479h2v-1.5h0.8v1.5h1.1v0.7h-1.1v1.4H163v-1.4H160v-0.6l2.5-4.4h0.8L160.9,479z"/>
	</g>
	<g class="st16">
		<path class="st17" d="M165,474.7h0.7v2.3H165V474.7z M166.2,474.7h0.7v2.3h-0.7V474.7z"/>
		<path class="st17" d="M172.4,478.7l1.7,2.4h-0.9l-1.3-1.8l-1.3,1.8h-0.8l1.7-2.4l-1.6-2.3h0.9l1.2,1.7l1.2-1.7h0.9L172.4,478.7z"
			/>
		<path class="st17" d="M179.2,481.1h-0.8v-5.4l-1.6,0.8v-0.8l1.9-1h0.5V481.1z"/>
	</g>
	<g class="st16">
		<path class="st17" d="M183.9,476.2c-0.2-0.5-0.5-0.9-1.2-0.9c-0.9,0-1.6,1.1-1.6,2.4c0,0.1,0,0.2,0,0.3c0.2-0.6,0.9-1.1,1.6-1.1
			c1.2,0,2.1,1,2.1,2.1c0,1.2-0.8,2.1-2.1,2.1c-0.8,0-1.5-0.4-1.9-1.2c-0.3-0.6-0.4-1.2-0.4-2c0-2.1,1-3.4,2.3-3.4
			c1.1,0,1.7,0.6,2,1.6H183.9z M182.7,480.5c0.8,0,1.4-0.6,1.4-1.4c0-0.9-0.6-1.5-1.4-1.5c-0.8,0-1.4,0.6-1.4,1.5
			C181.3,479.9,181.9,480.5,182.7,480.5z"/>
	</g>
	<g class="st16">
		<path class="st17" d="M185.5,474.7h0.7v2.3h-0.7V474.7z"/>
	</g>
	<g class="st16">
		<path class="st17" d="M187.1,478h2.5v0.7h-2.5V478z"/>
	</g>
	<g class="st16">
		<path class="st17" d="M194.1,476.2c-0.2-0.5-0.5-0.9-1.2-0.9c-0.9,0-1.6,1.1-1.6,2.4c0,0.1,0,0.2,0,0.3c0.2-0.6,0.9-1.1,1.6-1.1
			c1.2,0,2.1,1,2.1,2.1c0,1.2-0.8,2.1-2.1,2.1c-0.8,0-1.5-0.4-1.9-1.2c-0.3-0.6-0.4-1.2-0.4-2c0-2.1,1-3.4,2.3-3.4
			c1.1,0,1.7,0.6,2,1.6H194.1z M192.9,480.5c0.8,0,1.4-0.6,1.4-1.4c0-0.9-0.6-1.5-1.4-1.5c-0.8,0-1.4,0.6-1.4,1.5
			C191.5,479.9,192.1,480.5,192.9,480.5z"/>
	</g>
	<g class="st16">
		<path class="st17" d="M195.7,474.7h0.7v2.3h-0.7V474.7z M197,474.7h0.7v2.3H197V474.7z"/>
	</g>
	<g class="st16">
		<path class="st17" d="M77.4,171.5c0.2,0.7,0.8,1.1,1.6,1.1c0.8,0,1.4-0.4,1.4-1.1c0-0.5-0.3-0.8-1-1l-1.1-0.3
			c-0.9-0.2-1.5-0.7-1.5-1.6c0-1.1,0.9-1.8,2.1-1.8c1.3,0,2.1,0.7,2.3,1.7h-0.8c-0.2-0.6-0.7-1-1.5-1c-0.8,0-1.3,0.4-1.3,1.1
			c0,0.5,0.4,0.8,1,1l1.1,0.3c1,0.3,1.6,0.8,1.6,1.7c0,1.2-0.9,1.9-2.2,1.9s-2.2-0.6-2.5-1.8H77.4z"/>
		<path class="st17" d="M83.2,170.6v2.6h-0.8v-6.4h2.4c1.3,0,2.1,0.7,2.1,1.9c0,1.2-0.8,1.9-2.1,1.9H83.2z M84.7,167.4h-1.6v2.4h1.6
			c0.9,0,1.3-0.5,1.3-1.2C86,167.9,85.6,167.4,84.7,167.4z"/>
	</g>
	<g class="st16">
		<path class="st17" d="M78.7,184.7c-1.7,0-2.9-1.4-2.9-3.3c0-1.9,1.2-3.3,2.9-3.3c1.7,0,2.9,1.4,2.9,3.3
			C81.6,183.3,80.4,184.7,78.7,184.7z M78.7,178.8c-1.2,0-2.1,1.1-2.1,2.5c0,1.5,0.8,2.5,2.1,2.5c1.2,0,2.1-1.1,2.1-2.5
			C80.8,179.9,80,178.8,78.7,178.8z"/>
	</g>
	<g class="st16">
		<path class="st17" d="M84.5,184.6l-2.5-6.4h0.9l2,5.3l2-5.3h0.8l-2.5,6.4H84.5z"/>
	</g>
	<g class="st16">
		<path class="st17" d="M424.4,136.3l-2-4.9v4.9h-0.8v-6.4h0.9l2.2,5.2l2.2-5.2h0.9v6.4H427v-4.9l-2,4.9H424.4z"/>
	</g>
	<g class="st16">
		<path class="st17" d="M432,129.9l2.5,6.4h-0.8l-0.7-1.9h-2.6l-0.7,1.9h-0.8l2.5-6.4H432z M430.6,133.7h2.1l-1-2.7L430.6,133.7z"/>
	</g>
	<g class="st16">
		<path class="st17" d="M435.8,134.7c0.2,0.7,0.8,1.1,1.6,1.1c0.8,0,1.4-0.4,1.4-1.1c0-0.5-0.3-0.8-1-1l-1.1-0.3
			c-0.9-0.2-1.5-0.7-1.5-1.6c0-1.1,0.9-1.8,2.1-1.8c1.3,0,2.1,0.7,2.3,1.7h-0.8c-0.2-0.6-0.7-1-1.5-1c-0.8,0-1.3,0.4-1.3,1.1
			c0,0.5,0.4,0.8,1,1l1.1,0.3c1,0.3,1.6,0.8,1.6,1.7c0,1.2-0.9,1.9-2.2,1.9s-2.2-0.6-2.5-1.8H435.8z"/>
	</g>
	<g class="st16">
		<path class="st17" d="M440.2,129.9h5.3v0.7h-2.2v5.7h-0.8v-5.7h-2.2V129.9z"/>
		<path class="st17" d="M450.6,129.9v0.7h-3.3v2h3v0.7h-3v2.2h3.3v0.7h-4.1v-6.4H450.6z"/>
		<path class="st17" d="M452.7,133.6v2.7h-0.8v-6.4h2.4c1.3,0,2.1,0.6,2.1,1.9c0,1.1-0.6,1.7-1.6,1.8l1.9,2.7h-0.9l-1.8-2.7H452.7z
			 M452.7,132.9h1.5c0.8,0,1.3-0.4,1.3-1.1c0-0.7-0.5-1.1-1.3-1.1h-1.5V132.9z"/>
	</g>
	<g class="st16">
		<path class="st17" d="M431.9,145.7c0,1.2-0.8,1.8-2.1,1.8h-2.3v-6.4h2.1c1.3,0,2.1,0.6,2.1,1.7c0,0.8-0.4,1.2-0.9,1.4
			C431.4,144.4,431.9,145,431.9,145.7z M429.5,143.9c0.9,0,1.3-0.3,1.3-1s-0.5-1-1.3-1h-1.3v2.1H429.5z M428.2,146.8h1.5
			c0.9,0,1.3-0.4,1.3-1.1c0-0.7-0.5-1.1-1.3-1.1h-1.5V146.8z"/>
	</g>
	<g class="st16">
		<path class="st17" d="M435.7,141.1l2.5,6.4h-0.8l-0.7-1.9h-2.6l-0.7,1.9h-0.8l2.5-6.4H435.7z M434.2,144.9h2.1l-1-2.7L434.2,144.9
			z"/>
	</g>
	<g class="st16">
		<path class="st17" d="M438.1,141.1h5.3v0.7h-2.2v5.7h-0.8v-5.7h-2.2V141.1z"/>
		<path class="st17" d="M449.7,141.1v6.4h-0.8v-2.9h-3.6v2.9h-0.8v-6.4h0.8v2.7h3.6v-2.7H449.7z"/>
	</g>
</g>
</svg>
