<svg xmlns="http://www.w3.org/2000/svg" viewBox="0 0 532.79 659.23"><defs><style>.cls-1,.cls-10,.cls-12,.cls-3,.cls-4,.cls-5,.cls-6,.cls-7,.cls-9{fill:none;}.cls-1,.cls-10,.cls-11,.cls-13,.cls-2,.cls-3,.cls-4,.cls-5,.cls-6,.cls-7,.cls-8,.cls-9{stroke:#231f20;}.cls-1,.cls-2,.cls-3,.cls-4,.cls-5,.cls-6{stroke-linecap:round;stroke-linejoin:round;}.cls-1{stroke-width:0.15px;}.cls-11,.cls-2,.cls-8{fill:#fff;}.cls-10,.cls-2,.cls-3,.cls-6{stroke-width:0.35px;}.cls-13,.cls-4,.cls-8{stroke-width:0.5px;}.cls-11,.cls-5,.cls-7,.cls-9{stroke-width:0.25px;}.cls-6{stroke-dasharray:432 216;}.cls-10,.cls-11,.cls-12,.cls-13,.cls-7,.cls-8,.cls-9{stroke-miterlimit:10;}.cls-9{stroke-dasharray:2.5;}.cls-12{stroke:#29abe2;stroke-width:0.7px;}.cls-13{fill:#d2d3d4;}.cls-14{fill:#231f20;}</style></defs><title>108Leonard_WEB_R_4_v2</title><g id="FLOOR_PATTERN" data-name="FLOOR PATTERN"><g id="LINE"><line class="cls-1" x1="284.77" y1="290.67" x2="284.77" y2="215.67"/></g><g id="LINE-2" data-name="LINE"><line class="cls-1" x1="293.02" y1="290.67" x2="293.02" y2="215.68"/></g><g id="LINE-3" data-name="LINE"><line class="cls-1" x1="301.27" y1="290.67" x2="301.27" y2="215.68"/></g><g id="LINE-4" data-name="LINE"><line class="cls-1" x1="309.52" y1="290.67" x2="309.52" y2="215.69"/></g><g id="LINE-5" data-name="LINE"><line class="cls-1" x1="317.77" y1="290.67" x2="317.77" y2="215.69"/></g><g id="LINE-6" data-name="LINE"><line class="cls-1" x1="326.02" y1="580.09" x2="326.02" y2="536.79"/></g><g id="LINE-7" data-name="LINE"><line class="cls-1" x1="326.02" y1="446.79" x2="326.02" y2="215.7"/></g><g id="LINE-8" data-name="LINE"><line class="cls-1" x1="334.27" y1="580.59" x2="334.27" y2="536.79"/></g><g id="LINE-9" data-name="LINE"><line class="cls-1" x1="334.27" y1="446.79" x2="334.27" y2="215.7"/></g><g id="LINE-10" data-name="LINE"><line class="cls-1" x1="342.52" y1="611.88" x2="342.52" y2="597.74"/></g><g id="LINE-11" data-name="LINE"><line class="cls-1" x1="342.52" y1="446.79" x2="342.52" y2="215.71"/></g><g id="LINE-12" data-name="LINE"><line class="cls-1" x1="342.52" y1="588.84" x2="342.52" y2="536.79"/></g><g id="LINE-13" data-name="LINE"><line class="cls-1" x1="350.77" y1="612.36" x2="350.77" y2="608.64"/></g><g id="LINE-14" data-name="LINE"><line class="cls-1" x1="350.77" y1="446.79" x2="350.77" y2="215.71"/></g><g id="LINE-15" data-name="LINE"><line class="cls-1" x1="350.77" y1="574.48" x2="350.77" y2="536.79"/></g><g id="LINE-16" data-name="LINE"><line class="cls-1" x1="359.02" y1="612.83" x2="359.02" y2="611.04"/></g><g id="LINE-17" data-name="LINE"><line class="cls-1" x1="359.02" y1="568.6" x2="359.02" y2="215.71"/></g><g id="LINE-18" data-name="LINE"><line class="cls-1" x1="367.27" y1="613.3" x2="367.27" y2="609.38"/></g><g id="LINE-19" data-name="LINE"><line class="cls-1" x1="367.27" y1="574.39" x2="367.27" y2="215.71"/></g><g id="LINE-20" data-name="LINE"><line class="cls-1" x1="375.52" y1="613.78" x2="375.52" y2="601.85"/></g><g id="LINE-21" data-name="LINE"><line class="cls-1" x1="375.52" y1="580.19" x2="375.52" y2="215.7"/></g><g id="LINE-22" data-name="LINE"><line class="cls-1" x1="383.77" y1="614.25" x2="383.77" y2="608.66"/></g><g id="LINE-23" data-name="LINE"><line class="cls-1" x1="383.77" y1="585.98" x2="383.77" y2="215.7"/></g><g id="LINE-24" data-name="LINE"><line class="cls-1" x1="383.77" y1="599.26" x2="383.77" y2="590.95"/></g><g id="LINE-25" data-name="LINE"><line class="cls-1" x1="392.02" y1="614.73" x2="392.02" y2="612.94"/></g><g id="LINE-26" data-name="LINE"><line class="cls-1" x1="392.02" y1="594.98" x2="392.02" y2="215.69"/></g><g id="LINE-27" data-name="LINE"><line class="cls-1" x1="400.27" y1="615.2" x2="400.27" y2="605.72"/></g><g id="LINE-28" data-name="LINE"><line class="cls-1" x1="400.27" y1="438.07" x2="400.27" y2="215.69"/></g><g id="LINE-29" data-name="LINE"><line class="cls-1" x1="400.27" y1="602.2" x2="400.27" y2="550"/></g><g id="LINE-30" data-name="LINE"><line class="cls-1" x1="408.52" y1="615.67" x2="408.52" y2="550.33"/></g><g id="LINE-31" data-name="LINE"><line class="cls-1" x1="408.52" y1="437.83" x2="408.52" y2="215.69"/></g><g id="LINE-32" data-name="LINE"><line class="cls-1" x1="416.77" y1="616.15" x2="416.77" y2="550.33"/></g><g id="LINE-33" data-name="LINE"><line class="cls-1" x1="416.77" y1="437.83" x2="416.77" y2="401.71"/></g><g id="LINE-34" data-name="LINE"><line class="cls-1" x1="425.02" y1="616.62" x2="425.02" y2="550.33"/></g><g id="LINE-35" data-name="LINE"><line class="cls-1" x1="425.02" y1="437.83" x2="425.02" y2="401.71"/></g><g id="LINE-36" data-name="LINE"><line class="cls-1" x1="433.27" y1="617.1" x2="433.27" y2="550.33"/></g><g id="LINE-37" data-name="LINE"><line class="cls-1" x1="433.27" y1="437.83" x2="433.27" y2="401.71"/></g><g id="LINE-38" data-name="LINE"><line class="cls-1" x1="441.52" y1="617.57" x2="441.52" y2="550.33"/></g><g id="LINE-39" data-name="LINE"><line class="cls-1" x1="441.52" y1="437.83" x2="441.52" y2="401.71"/></g><g id="LINE-40" data-name="LINE"><line class="cls-1" x1="449.77" y1="618.05" x2="449.77" y2="550.33"/></g><g id="LINE-41" data-name="LINE"><line class="cls-1" x1="449.77" y1="437.83" x2="449.77" y2="401.71"/></g><g id="LINE-42" data-name="LINE"><line class="cls-1" x1="458.02" y1="618.52" x2="458.02" y2="550.33"/></g><g id="LINE-43" data-name="LINE"><line class="cls-1" x1="458.02" y1="437.83" x2="458.02" y2="401.71"/></g><g id="LINE-44" data-name="LINE"><line class="cls-1" x1="466.27" y1="618.99" x2="466.27" y2="550.33"/></g><g id="LINE-45" data-name="LINE"><line class="cls-1" x1="466.27" y1="437.83" x2="466.27" y2="401.71"/></g><g id="LINE-46" data-name="LINE"><line class="cls-1" x1="474.52" y1="619.47" x2="474.52" y2="550.33"/></g><g id="LINE-47" data-name="LINE"><line class="cls-1" x1="474.52" y1="437.83" x2="474.52" y2="401.71"/></g><g id="LINE-48" data-name="LINE"><line class="cls-1" x1="482.77" y1="619.94" x2="482.77" y2="550.33"/></g><g id="LINE-49" data-name="LINE"><line class="cls-1" x1="482.77" y1="437.83" x2="482.77" y2="401.71"/></g><g id="LINE-50" data-name="LINE"><line class="cls-1" x1="491.02" y1="620.42" x2="491.02" y2="550.33"/></g><g id="LINE-51" data-name="LINE"><line class="cls-1" x1="491.02" y1="437.83" x2="491.02" y2="401.71"/></g><g id="LINE-52" data-name="LINE"><line class="cls-1" x1="499.27" y1="620.89" x2="499.27" y2="584.83"/></g><g id="LINE-53" data-name="LINE"><line class="cls-1" x1="499.27" y1="403.33" x2="499.27" y2="401.71"/></g><g id="LINE-54" data-name="LINE"><line class="cls-1" x1="499.27" y1="554.83" x2="499.27" y2="547.9"/></g><g id="LINE-55" data-name="LINE"><line class="cls-1" x1="499.27" y1="440.27" x2="499.27" y2="433.33"/></g><g id="LINE-56" data-name="LINE"><line class="cls-1" x1="499.27" y1="495.4" x2="499.27" y2="492.77"/></g><g id="LINE-57" data-name="LINE"><line class="cls-1" x1="507.52" y1="621.36" x2="507.52" y2="584.83"/></g><g id="LINE-58" data-name="LINE"><line class="cls-1" x1="507.52" y1="403.33" x2="507.52" y2="401.71"/></g><g id="LINE-59" data-name="LINE"><line class="cls-1" x1="507.52" y1="554.83" x2="507.52" y2="547.9"/></g><g id="LINE-60" data-name="LINE"><line class="cls-1" x1="507.52" y1="440.27" x2="507.52" y2="433.33"/></g><g id="LINE-61" data-name="LINE"><line class="cls-1" x1="507.52" y1="495.4" x2="507.52" y2="492.77"/></g><g id="LINE-62" data-name="LINE"><line class="cls-1" x1="515.77" y1="621.84" x2="515.77" y2="584.83"/></g><g id="LINE-63" data-name="LINE"><line class="cls-1" x1="515.77" y1="403.33" x2="515.77" y2="401.71"/></g><g id="LINE-64" data-name="LINE"><line class="cls-1" x1="515.77" y1="554.83" x2="515.77" y2="433.33"/></g><g id="LINE-65" data-name="LINE"><line class="cls-1" x1="12.52" y1="255.95" x2="12.52" y2="189.85"/></g><g id="LINE-66" data-name="LINE"><line class="cls-1" x1="20.77" y1="562.59" x2="20.77" y2="556.44"/></g><g id="LINE-67" data-name="LINE"><line class="cls-1" x1="20.77" y1="255.95" x2="20.77" y2="189.82"/></g><g id="LINE-68" data-name="LINE"><line class="cls-1" x1="20.77" y1="466.44" x2="20.77" y2="459.54"/></g><g id="LINE-69" data-name="LINE"><line class="cls-1" x1="29.02" y1="563.06" x2="29.02" y2="556.44"/></g><g id="LINE-70" data-name="LINE"><line class="cls-1" x1="29.02" y1="255.95" x2="29.02" y2="189.82"/></g><g id="LINE-71" data-name="LINE"><line class="cls-1" x1="29.02" y1="466.44" x2="29.02" y2="459.54"/></g><g id="LINE-72" data-name="LINE"><line class="cls-1" x1="37.27" y1="563.53" x2="37.27" y2="556.44"/></g><g id="LINE-73" data-name="LINE"><line class="cls-1" x1="37.27" y1="255.95" x2="37.27" y2="189.82"/></g><g id="LINE-74" data-name="LINE"><line class="cls-1" x1="37.27" y1="466.44" x2="37.27" y2="459.54"/></g><g id="LINE-75" data-name="LINE"><line class="cls-1" x1="45.52" y1="564.01" x2="45.52" y2="556.44"/></g><g id="LINE-76" data-name="LINE"><line class="cls-1" x1="45.52" y1="255.95" x2="45.52" y2="189.82"/></g><g id="LINE-77" data-name="LINE"><line class="cls-1" x1="45.52" y1="466.44" x2="45.52" y2="459.54"/></g><g id="LINE-78" data-name="LINE"><line class="cls-1" x1="53.77" y1="564.48" x2="53.77" y2="318.94"/></g><g id="LINE-79" data-name="LINE"><line class="cls-1" x1="53.77" y1="255.94" x2="53.77" y2="189.82"/></g><g id="LINE-80" data-name="LINE"><line class="cls-1" x1="62.02" y1="564.96" x2="62.02" y2="542.01"/></g><g id="LINE-81" data-name="LINE"><line class="cls-1" x1="62.02" y1="255.94" x2="62.02" y2="189.86"/></g><g id="LINE-82" data-name="LINE"><line class="cls-1" x1="62.02" y1="474.47" x2="62.02" y2="318.94"/></g><g id="LINE-83" data-name="LINE"><line class="cls-1" x1="70.27" y1="596.24" x2="70.27" y2="556.78"/></g><g id="LINE-84" data-name="LINE"><line class="cls-1" x1="70.27" y1="255.94" x2="70.27" y2="189.86"/></g><g id="LINE-85" data-name="LINE"><line class="cls-1" x1="70.27" y1="467.5" x2="70.27" y2="318.94"/></g><g id="LINE-86" data-name="LINE"><line class="cls-1" x1="78.52" y1="596.71" x2="78.52" y2="566.71"/></g><g id="LINE-87" data-name="LINE"><line class="cls-1" x1="78.52" y1="255.93" x2="78.52" y2="189.86"/></g><g id="LINE-88" data-name="LINE"><line class="cls-1" x1="78.52" y1="464.89" x2="78.52" y2="330.05"/></g><g id="LINE-89" data-name="LINE"><line class="cls-1" x1="86.77" y1="597.19" x2="86.77" y2="574.08"/></g><g id="LINE-90" data-name="LINE"><line class="cls-1" x1="86.77" y1="255.93" x2="86.77" y2="189.86"/></g><g id="LINE-91" data-name="LINE"><line class="cls-1" x1="86.77" y1="465.2" x2="86.77" y2="331.49"/></g><g id="LINE-92" data-name="LINE"><line class="cls-1" x1="95.02" y1="597.66" x2="95.02" y2="579.71"/></g><g id="LINE-93" data-name="LINE"><line class="cls-1" x1="95.02" y1="255.92" x2="95.02" y2="189.87"/></g><g id="LINE-94" data-name="LINE"><line class="cls-1" x1="95.02" y1="468.55" x2="95.02" y2="326.42"/></g><g id="LINE-95" data-name="LINE"><line class="cls-1" x1="103.27" y1="598.13" x2="103.27" y2="584"/></g><g id="LINE-96" data-name="LINE"><line class="cls-1" x1="103.27" y1="255.92" x2="103.27" y2="189.87"/></g><g id="LINE-97" data-name="LINE"><line class="cls-1" x1="103.27" y1="477.23" x2="103.27" y2="318.92"/></g><g id="LINE-98" data-name="LINE"><line class="cls-1" x1="111.52" y1="598.61" x2="111.52" y2="587.18"/></g><g id="LINE-99" data-name="LINE"><line class="cls-1" x1="111.52" y1="255.91" x2="111.52" y2="189.87"/></g><g id="LINE-100" data-name="LINE"><line class="cls-1" x1="111.52" y1="525.63" x2="111.52" y2="409.44"/></g><g id="LINE-101" data-name="LINE"><line class="cls-1" x1="111.52" y1="380.94" x2="111.52" y2="330.76"/></g><g id="LINE-102" data-name="LINE"><line class="cls-1" x1="119.77" y1="599.08" x2="119.77" y2="589.38"/></g><g id="LINE-103" data-name="LINE"><line class="cls-1" x1="119.77" y1="138.9" x2="119.77" y2="71.65"/></g><g id="LINE-104" data-name="LINE"><line class="cls-1" x1="119.77" y1="534.54" x2="119.77" y2="419.19"/></g><g id="LINE-105" data-name="LINE"><line class="cls-1" x1="119.77" y1="255.91" x2="119.77" y2="189.87"/></g><g id="LINE-106" data-name="LINE"><line class="cls-1" x1="119.77" y1="371.19" x2="119.77" y2="331.16"/></g><g id="LINE-107" data-name="LINE"><line class="cls-1" x1="128.02" y1="599.56" x2="128.02" y2="590.68"/></g><g id="LINE-108" data-name="LINE"><line class="cls-1" x1="128.02" y1="138.89" x2="128.02" y2="71.65"/></g><g id="LINE-109" data-name="LINE"><line class="cls-1" x1="128.02" y1="539.36" x2="128.02" y2="419.19"/></g><g id="LINE-110" data-name="LINE"><line class="cls-1" x1="128.02" y1="255.9" x2="128.02" y2="189.87"/></g><g id="LINE-111" data-name="LINE"><line class="cls-1" x1="128.02" y1="371.19" x2="128.02" y2="323.73"/></g><g id="LINE-112" data-name="LINE"><line class="cls-1" x1="136.27" y1="600.03" x2="136.27" y2="591.36"/></g><g id="LINE-113" data-name="LINE"><line class="cls-1" x1="136.27" y1="138.88" x2="136.27" y2="71.65"/></g><g id="LINE-114" data-name="LINE"><line class="cls-1" x1="136.27" y1="541.75" x2="136.27" y2="429.43"/></g><g id="LINE-115" data-name="LINE"><line class="cls-1" x1="136.27" y1="255.9" x2="136.27" y2="189.87"/></g><g id="LINE-116" data-name="LINE"><line class="cls-1" x1="136.27" y1="360.95" x2="136.27" y2="324.53"/></g><g id="LINE-117" data-name="LINE"><line class="cls-1" x1="144.52" y1="600.5" x2="144.52" y2="592.01"/></g><g id="LINE-118" data-name="LINE"><line class="cls-1" x1="144.52" y1="138.88" x2="144.52" y2="71.65"/></g><g id="LINE-119" data-name="LINE"><line class="cls-1" x1="144.52" y1="542.35" x2="144.52" y2="430.42"/></g><g id="LINE-120" data-name="LINE"><line class="cls-1" x1="144.52" y1="255.9" x2="144.52" y2="189.87"/></g><g id="LINE-121" data-name="LINE"><line class="cls-1" x1="144.52" y1="359.96" x2="144.52" y2="331.25"/></g><g id="LINE-122" data-name="LINE"><line class="cls-1" x1="152.77" y1="600.98" x2="152.77" y2="592.65"/></g><g id="LINE-123" data-name="LINE"><line class="cls-1" x1="152.77" y1="138.87" x2="152.77" y2="71.65"/></g><g id="LINE-124" data-name="LINE"><line class="cls-1" x1="152.77" y1="543" x2="152.77" y2="429.93"/></g><g id="LINE-125" data-name="LINE"><line class="cls-1" x1="152.77" y1="255.89" x2="152.77" y2="189.87"/></g><g id="LINE-126" data-name="LINE"><line class="cls-1" x1="152.77" y1="360.46" x2="152.77" y2="330.62"/></g><g id="LINE-127" data-name="LINE"><line class="cls-1" x1="161.02" y1="601.45" x2="161.02" y2="593.3"/></g><g id="LINE-128" data-name="LINE"><line class="cls-1" x1="161.02" y1="138.86" x2="161.02" y2="71.65"/></g><g id="LINE-129" data-name="LINE"><line class="cls-1" x1="161.02" y1="543.65" x2="161.02" y2="505.68"/></g><g id="LINE-130" data-name="LINE"><line class="cls-1" x1="161.02" y1="255.89" x2="161.02" y2="189.87"/></g><g id="LINE-131" data-name="LINE"><line class="cls-1" x1="161.02" y1="499.46" x2="161.02" y2="419.19"/></g><g id="LINE-132" data-name="LINE"><line class="cls-1" x1="161.02" y1="371.19" x2="161.02" y2="318.89"/></g><g id="LINE-133" data-name="LINE"><line class="cls-1" x1="169.27" y1="601.93" x2="169.27" y2="593.84"/></g><g id="LINE-134" data-name="LINE"><line class="cls-1" x1="169.27" y1="138.85" x2="169.27" y2="71.65"/></g><g id="LINE-135" data-name="LINE"><line class="cls-1" x1="169.27" y1="544.22" x2="169.27" y2="514.35"/></g><g id="LINE-136" data-name="LINE"><line class="cls-1" x1="169.27" y1="255.88" x2="169.27" y2="189.88"/></g><g id="LINE-137" data-name="LINE"><line class="cls-1" x1="169.27" y1="490.78" x2="169.27" y2="428.23"/></g><g id="LINE-138" data-name="LINE"><line class="cls-1" x1="169.27" y1="362.15" x2="169.27" y2="318.88"/></g><g id="LINE-139" data-name="LINE"><line class="cls-1" x1="177.52" y1="602.4" x2="177.52" y2="591.96"/></g><g id="LINE-140" data-name="LINE"><line class="cls-1" x1="177.52" y1="138.85" x2="177.52" y2="71.65"/></g><g id="LINE-141" data-name="LINE"><line class="cls-1" x1="177.52" y1="546.1" x2="177.52" y2="517.87"/></g><g id="LINE-142" data-name="LINE"><line class="cls-1" x1="177.52" y1="255.88" x2="177.52" y2="189.88"/></g><g id="LINE-143" data-name="LINE"><line class="cls-1" x1="177.52" y1="487.26" x2="177.52" y2="430.07"/></g><g id="LINE-144" data-name="LINE"><line class="cls-1" x1="177.52" y1="360.32" x2="177.52" y2="318.88"/></g><g id="LINE-145" data-name="LINE"><line class="cls-1" x1="185.77" y1="602.87" x2="185.77" y2="586.34"/></g><g id="LINE-146" data-name="LINE"><line class="cls-1" x1="185.77" y1="360" x2="185.77" y2="43.21"/></g><g id="LINE-147" data-name="LINE"><line class="cls-1" x1="185.77" y1="551.71" x2="185.77" y2="519.75"/></g><g id="LINE-148" data-name="LINE"><line class="cls-1" x1="185.77" y1="485.38" x2="185.77" y2="430.38"/></g><g id="LINE-149" data-name="LINE"><line class="cls-1" x1="194.02" y1="603.35" x2="194.02" y2="520.52"/></g><g id="LINE-150" data-name="LINE"><line class="cls-1" x1="194.02" y1="361.18" x2="194.02" y2="43.21"/></g><g id="LINE-151" data-name="LINE"><line class="cls-1" x1="194.02" y1="484.61" x2="194.02" y2="429.2"/></g><g id="LINE-152" data-name="LINE"><line class="cls-1" x1="202.27" y1="603.82" x2="202.27" y2="520.33"/></g><g id="LINE-153" data-name="LINE"><line class="cls-1" x1="202.27" y1="371.19" x2="202.27" y2="43.21"/></g><g id="LINE-154" data-name="LINE"><line class="cls-1" x1="202.27" y1="484.8" x2="202.27" y2="419.19"/></g><g id="LINE-155" data-name="LINE"><line class="cls-1" x1="210.52" y1="604.3" x2="210.52" y2="519.14"/></g><g id="LINE-156" data-name="LINE"><line class="cls-1" x1="210.52" y1="371.19" x2="210.52" y2="43.21"/></g><g id="LINE-157" data-name="LINE"><line class="cls-1" x1="210.52" y1="485.99" x2="210.52" y2="419.19"/></g><g id="LINE-158" data-name="LINE"><line class="cls-1" x1="218.77" y1="604.77" x2="218.77" y2="516.7"/></g><g id="LINE-159" data-name="LINE"><line class="cls-1" x1="218.77" y1="380.94" x2="218.77" y2="43.21"/></g><g id="LINE-160" data-name="LINE"><line class="cls-1" x1="218.77" y1="488.43" x2="218.77" y2="409.44"/></g><g id="LINE-161" data-name="LINE"><line class="cls-1" x1="227.02" y1="605.24" x2="227.02" y2="512.1"/></g><g id="LINE-162" data-name="LINE"><line class="cls-1" x1="227.02" y1="493.04" x2="227.02" y2="43.21"/></g><g id="LINE-163" data-name="LINE"><line class="cls-1" x1="235.27" y1="605.72" x2="235.27" y2="43.21"/></g><g id="LINE-164" data-name="LINE"><line class="cls-1" x1="243.52" y1="606.19" x2="243.52" y2="43.21"/></g><g id="LINE-165" data-name="LINE"><line class="cls-1" x1="251.77" y1="583.91" x2="251.77" y2="188.29"/></g><g id="LINE-166" data-name="LINE"><line class="cls-1" x1="251.77" y1="113.29" x2="251.77" y2="43.21"/></g><g id="LINE-167" data-name="LINE"><line class="cls-1" x1="260.02" y1="576.33" x2="260.02" y2="553.26"/></g><g id="LINE-168" data-name="LINE"><line class="cls-1" x1="260.02" y1="113.29" x2="260.02" y2="43.21"/></g><g id="LINE-169" data-name="LINE"><line class="cls-1" x1="260.02" y1="536.16" x2="260.02" y2="188.29"/></g><g id="LINE-170" data-name="LINE"><line class="cls-1" x1="268.27" y1="576.8" x2="268.27" y2="560.26"/></g><g id="LINE-171" data-name="LINE"><line class="cls-1" x1="268.27" y1="113.29" x2="268.27" y2="43.21"/></g><g id="LINE-172" data-name="LINE"><line class="cls-1" x1="268.27" y1="476.26" x2="268.27" y2="188.29"/></g><g id="LINE-173" data-name="LINE"><line class="cls-1" x1="276.52" y1="577.27" x2="276.52" y2="560.26"/></g><g id="LINE-174" data-name="LINE"><line class="cls-1" x1="276.52" y1="470.26" x2="276.52" y2="459.54"/></g><g id="LINE-175" data-name="LINE"><line class="cls-1" x1="284.77" y1="577.74" x2="284.77" y2="560.26"/></g><g id="LINE-176" data-name="LINE"><line class="cls-1" x1="284.77" y1="470.26" x2="284.77" y2="459.54"/></g><g id="LINE-177" data-name="LINE"><line class="cls-1" x1="293.02" y1="578.2" x2="293.02" y2="560.26"/></g><g id="LINE-178" data-name="LINE"><line class="cls-1" x1="293.02" y1="470.26" x2="293.02" y2="459.54"/></g><g id="LINE-179" data-name="LINE"><line class="cls-1" x1="301.27" y1="578.67" x2="301.27" y2="560.26"/></g><g id="LINE-180" data-name="LINE"><line class="cls-1" x1="301.27" y1="470.26" x2="301.27" y2="459.54"/></g><g id="LINE-181" data-name="LINE"><line class="cls-1" x1="309.52" y1="579.14" x2="309.52" y2="542.26"/></g><g id="LINE-182" data-name="LINE"><line class="cls-1" x1="309.52" y1="470.26" x2="309.52" y2="459.54"/></g><g id="LWPOLYLINE"><rect class="cls-1" x="271.75" y="221.67" width="7.54" height="52.5"/></g><g id="LWPOLYLINE-2" data-name="LWPOLYLINE"><rect class="cls-1" x="315.23" y="312.85" width="7.5" height="90"/></g><g id="LWPOLYLINE-3" data-name="LWPOLYLINE"><rect class="cls-1" x="214.84" y="34.21" width="54" height="9"/></g><g id="LWPOLYLINE-4" data-name="LWPOLYLINE"><line class="cls-1" x1="353.01" y1="215.71" x2="404.01" y2="215.69"/></g><g id="LWPOLYLINE-5" data-name="LWPOLYLINE"><line class="cls-1" x1="353.01" y1="203.67" x2="404.01" y2="203.71"/></g><g id="LWPOLYLINE-6" data-name="LWPOLYLINE"><rect class="cls-1" x="109.94" y="80.4" width="7.51" height="52.5"/></g></g><g id="FURNITURE"><g id="LWPOLYLINE-7" data-name="LWPOLYLINE"><path class="cls-2" d="M527.75,556H411.46a4.31,4.31,0,0,1-3.72-4.34V447.54a3.88,3.88,0,0,1,3.72-4.05H527.83" transform="translate(-10.02 -5.65)"/></g><g id="CIRCLE"><path class="cls-3" d="M263.85,550.36a9,9,0,1,1,9,9,9,9,0,0,1-9-9Z" transform="translate(-10.02 -5.65)"/></g><g id="CIRCLE-2" data-name="CIRCLE"><path class="cls-3" d="M409.6,605.76a9,9,0,1,1-12-4.28,9,9,0,0,1,12,4.28Z" transform="translate(-10.02 -5.65)"/></g><g id="LWPOLYLINE-8" data-name="LWPOLYLINE"><rect class="cls-3" x="324.23" y="446.79" width="27" height="90"/></g><g id="LWPOLYLINE-9" data-name="LWPOLYLINE"><rect class="cls-3" x="20.49" y="466.44" width="27" height="90"/></g><g id="LWPOLYLINE-10" data-name="LWPOLYLINE"><rect class="cls-3" x="247.75" y="113.29" width="21" height="75"/></g><g id="CIRCLE-3" data-name="CIRCLE"><path class="cls-3" d="M259.2,180.71a9,9,0,1,1,9,9,9,9,0,0,1-9-9Z" transform="translate(-10.02 -5.65)"/></g><g id="LINE-183" data-name="LINE"><line class="cls-3" x1="249.19" y1="175.06" x2="267.19" y2="175.06"/></g><g id="ARC"><path class="cls-3" d="M119.33,415.1a43.25,43.25,0,0,1,0-28.5" transform="translate(-10.02 -5.65)"/></g><g id="LWPOLYLINE-11" data-name="LWPOLYLINE"><path class="cls-3" d="M134.16,386.6h-18a46.25,46.25,0,0,0,0,28.5h18Z" transform="translate(-10.02 -5.65)"/></g><g id="ARC-2" data-name="ARC"><path class="cls-3" d="M230,415.1a43.25,43.25,0,0,0,0-28.5" transform="translate(-10.02 -5.65)"/></g><g id="LWPOLYLINE-12" data-name="LWPOLYLINE"><path class="cls-3" d="M215.16,386.6h18a46.25,46.25,0,0,1,0,28.5h-18Z" transform="translate(-10.02 -5.65)"/></g><g id="ARC-3" data-name="ARC"><path class="cls-3" d="M141.66,371a43.25,43.25,0,0,1,28.5,0" transform="translate(-10.02 -5.65)"/></g><g id="LWPOLYLINE-13" data-name="LWPOLYLINE"><path class="cls-3" d="M170.16,385.85v-18a46.25,46.25,0,0,0-28.5,0v18Z" transform="translate(-10.02 -5.65)"/></g><g id="ARC-4" data-name="ARC"><path class="cls-3" d="M207.66,371a43.25,43.25,0,0,0-28.5,0" transform="translate(-10.02 -5.65)"/></g><g id="LWPOLYLINE-14" data-name="LWPOLYLINE"><path class="cls-3" d="M179.16,385.85v-18a46.25,46.25,0,0,1,28.5,0v18Z" transform="translate(-10.02 -5.65)"/></g><g id="ARC-5" data-name="ARC"><path class="cls-3" d="M141.66,430.68a43.25,43.25,0,0,0,28.5,0" transform="translate(-10.02 -5.65)"/></g><g id="LWPOLYLINE-15" data-name="LWPOLYLINE"><path class="cls-3" d="M170.16,415.85v18a46.25,46.25,0,0,1-28.5,0v-18Z" transform="translate(-10.02 -5.65)"/></g><g id="ARC-6" data-name="ARC"><path class="cls-3" d="M207.66,430.68a43.25,43.25,0,0,1-28.5,0" transform="translate(-10.02 -5.65)"/></g><g id="LWPOLYLINE-16" data-name="LWPOLYLINE"><path class="cls-3" d="M179.16,415.85v18a46.25,46.25,0,0,0,28.5,0v-18Z" transform="translate(-10.02 -5.65)"/></g><g id="LINE-184" data-name="LINE"><line class="cls-3" x1="474.23" y1="437.84" x2="474.23" y2="550.34"/></g><g id="CIRCLE-4" data-name="CIRCLE"><path class="cls-3" d="M511.18,575.54a7.5,7.5,0,1,1,7.5,7.5,7.5,7.5,0,0,1-7.5-7.5Z" transform="translate(-10.02 -5.65)"/></g><g id="LINE-185" data-name="LINE"><line class="cls-3" x1="501.16" y1="569.83" x2="516.16" y2="569.83"/></g><g id="LINE-186" data-name="LINE"><line class="cls-3" x1="508.82" y1="577.38" x2="508.82" y2="562.38"/></g><g id="LWPOLYLINE-17" data-name="LWPOLYLINE"><rect class="cls-3" x="496.82" y="554.83" width="24" height="30"/></g><g id="CIRCLE-5" data-name="CIRCLE"><path class="cls-3" d="M511.18,423.93a7.5,7.5,0,1,1,7.5,7.5,7.5,7.5,0,0,1-7.5-7.5Z" transform="translate(-10.02 -5.65)"/></g><g id="LINE-187" data-name="LINE"><line class="cls-3" x1="501.16" y1="418.33" x2="516.16" y2="418.33"/></g><g id="LINE-188" data-name="LINE"><line class="cls-3" x1="508.82" y1="410.78" x2="508.82" y2="425.78"/></g><g id="LWPOLYLINE-18" data-name="LWPOLYLINE"><rect class="cls-3" x="496.82" y="403.33" width="24" height="30"/></g><g id="LWPOLYLINE-19" data-name="LWPOLYLINE"><polyline class="cls-3" points="492.23 495.4 514.77 495.4 514.77 547.9 492.23 547.9"/></g><g id="LWPOLYLINE-20" data-name="LWPOLYLINE"><polyline class="cls-3" points="492.23 492.77 514.77 492.77 514.77 440.27 492.23 440.27"/></g><g id="LWPOLYLINE-21" data-name="LWPOLYLINE"><rect class="cls-3" x="517.77" y="437.83" width="6" height="112.5"/></g><g id="LINE-189" data-name="LINE"><line class="cls-3" x1="492.23" y1="437.84" x2="492.23" y2="550.34"/></g><g id="LINE-190" data-name="LINE"><line class="cls-3" x1="258.19" y1="166.06" x2="258.19" y2="184.06"/></g><g id="LWPOLYLINE-22" data-name="LWPOLYLINE"><path class="cls-3" d="M153.17,547.9l24.68,1.94a24.56,24.56,0,0,1,4.28.35,24.84,24.84,0,1,1-8.31,49l-33.66-2.64-.23,0a81,81,0,0,1-74.16-87.3l1.28-15.73c0-.31,0-.63.08-1a24.76,24.76,0,1,1,49.25,5.13l-.32,6.75a36.9,36.9,0,0,0,29.71,42.9,37.36,37.36,0,0,0,7.39.59Z" transform="translate(-10.02 -5.65)"/></g><g id="LWPOLYLINE-23" data-name="LWPOLYLINE"><path class="cls-3" d="M161.48,598.24a4.5,4.5,0,0,0,.73-9l-12.34-1c-1.2,0-2.41-.08-3.62-.16A76.57,76.57,0,0,1,75,506.55l1-12.34a4.5,4.5,0,1,0-9-.73" transform="translate(-10.02 -5.65)"/></g><g id="ELLIPSE"><path class="cls-3" d="M242.5,508.22c0-9.94-16.12-18-36-18s-36,8.06-36,18,16.12,18,36,18,36-8.06,36-18Z" transform="translate(-10.02 -5.65)"/></g><g id="LINE-191" data-name="LINE"><line class="cls-3" x1="338.13" y1="95.7" x2="337.38" y2="95.7"/></g><g id="LINE-192" data-name="LINE"><line class="cls-3" x1="329.13" y1="95.7" x2="328.38" y2="95.7"/></g><g id="LWPOLYLINE-24" data-name="LWPOLYLINE"><path class="cls-3" d="M354.58,589.69l10.68-16.42,0,0a1.32,1.32,0,0,1,1.84-.32l28,19.67,0,0a1.31,1.31,0,0,1,.26,1.85L383.6,610.07" transform="translate(-10.02 -5.65)"/></g><g id="LWPOLYLINE-25" data-name="LWPOLYLINE"><line class="cls-3" x1="348.99" y1="586.91" x2="352.8" y2="581.04"/></g><g id="LWPOLYLINE-26" data-name="LWPOLYLINE"><line class="cls-3" x1="373.6" y1="595.65" x2="369.37" y2="601.23"/></g><g id="ARC-7" data-name="ARC"><path class="cls-3" d="M355.13,588.83a17.77,17.77,0,0,0,29.08,20.43" transform="translate(-10.02 -5.65)"/></g><g id="ARC-8" data-name="ARC"><path class="cls-3" d="M359.47,591.84a12.49,12.49,0,0,0,20.44,14.35" transform="translate(-10.02 -5.65)"/></g><g id="ARC-9" data-name="ARC"><path class="cls-3" d="M362.82,586.7a6.9,6.9,0,0,0-1.4-7.54" transform="translate(-10.02 -5.65)"/></g><g id="ARC-10" data-name="ARC"><path class="cls-3" d="M391.18,600.06a6.92,6.92,0,0,0-7.57,1.24" transform="translate(-10.02 -5.65)"/></g><g id="ARC-11" data-name="ARC"><path class="cls-3" d="M82,324.56a12.75,12.75,0,0,0,25.5,0" transform="translate(-10.02 -5.65)"/></g><g id="LINE-193" data-name="LINE"><line class="cls-3" x1="71.97" y1="318.91" x2="97.47" y2="318.91"/></g><g id="ARC-12" data-name="ARC"><path class="cls-3" d="M113.49,324.56a12.75,12.75,0,0,0,25.5,0" transform="translate(-10.02 -5.65)"/></g><g id="LINE-194" data-name="LINE"><line class="cls-3" x1="103.47" y1="318.91" x2="128.97" y2="318.91"/></g><g id="ARC-13" data-name="ARC"><path class="cls-3" d="M170.49,324.56a12.75,12.75,0,0,1-25.5,0" transform="translate(-10.02 -5.65)"/></g><g id="LINE-195" data-name="LINE"><line class="cls-3" x1="160.47" y1="318.91" x2="134.97" y2="318.91"/></g><g id="LWPOLYLINE-27" data-name="LWPOLYLINE"><rect class="cls-2" x="115.15" y="371.19" width="99" height="48"/></g><g id="LINE-196" data-name="LINE"><line class="cls-3" x1="338.13" y1="95.7" x2="337.38" y2="95.7"/></g><g id="LINE-197" data-name="LINE"><line class="cls-3" x1="329.13" y1="95.7" x2="328.38" y2="95.7"/></g><g id="LWPOLYLINE-28" data-name="LWPOLYLINE"><path class="cls-2" d="M280.79,481.92v-6h39a1.5,1.5,0,0,1,1.5,1.5v70.5h-6v18h-40.5v-84h6" transform="translate(-10.02 -5.65)"/></g><g id="LWPOLYLINE-29" data-name="LWPOLYLINE"><polyline class="cls-3" points="270.77 476.26 305.27 476.26 305.27 542.26"/></g></g><g id="KITCHEN"><g id="LWPOLYLINE-30" data-name="LWPOLYLINE"><rect class="cls-4" x="49.29" y="255.91" width="133.85" height="63"/></g><g id="LWPOLYLINE-31" data-name="LWPOLYLINE"><line class="cls-4" x1="16.77" y1="189.85" x2="174.38" y2="189.88"/></g></g><g id="BATH_GLAZING" data-name="BATH GLAZING"><g id="LINE-198" data-name="LINE"><line class="cls-5" x1="352.21" y1="95.78" x2="406.21" y2="95.83"/><line class="cls-5" x1="352.21" y1="94.76" x2="406.21" y2="94.81"/></g></g><g id="CLOSET"><g id="LINE-199" data-name="LINE"><line class="cls-3" x1="300.03" y1="417.54" x2="300.03" y2="298.17"/></g><g id="LINE-200" data-name="LINE"><line class="cls-6" x1="297.03" y1="417.54" x2="297.03" y2="298.17"/></g></g><g id="HANGERS"><g id="LINE-201" data-name="LINE"><line class="cls-7" x1="311.87" y1="366.87" x2="284.87" y2="356.57"/></g><g id="LINE-202" data-name="LINE"><line class="cls-7" x1="311.87" y1="361.15" x2="284.87" y2="350.85"/></g><g id="LINE-203" data-name="LINE"><line class="cls-7" x1="311.87" y1="388.82" x2="284.87" y2="388.82"/></g><g id="LINE-204" data-name="LINE"><line class="cls-7" x1="311.87" y1="373.34" x2="284.87" y2="373.34"/></g><g id="LINE-205" data-name="LINE"><line class="cls-7" x1="311.87" y1="369.47" x2="284.87" y2="369.47"/></g><g id="LINE-206" data-name="LINE"><line class="cls-7" x1="311.87" y1="388.82" x2="284.87" y2="388.82"/></g><g id="LINE-207" data-name="LINE"><line class="cls-7" x1="311.87" y1="384.95" x2="284.87" y2="384.95"/></g><g id="LINE-208" data-name="LINE"><line class="cls-7" x1="311.87" y1="381.08" x2="284.87" y2="381.08"/></g><g id="LINE-209" data-name="LINE"><line class="cls-7" x1="311.87" y1="373.34" x2="284.87" y2="373.34"/></g><g id="LINE-210" data-name="LINE"><line class="cls-7" x1="311.87" y1="377.21" x2="284.87" y2="377.21"/></g></g><g id="APPLIANCES"><g id="LWPOLYLINE-32" data-name="LWPOLYLINE"><rect class="cls-5" x="129.81" y="28.26" width="35.25" height="32.66"/></g><g id="LWPOLYLINE-33" data-name="LWPOLYLINE"><polyline class="cls-5" points="136 60.92 136 62.01 158.88 62.01 158.88 60.92"/></g><g id="LINE-211" data-name="LINE"><line class="cls-8" x1="146.21" y1="154.18" x2="146.21" y2="189.84"/></g><g id="LINE-212" data-name="LINE"><line class="cls-8" x1="98.63" y1="154.27" x2="98.63" y2="189.82"/></g><line class="cls-8" x1="63.52" y1="153.88" x2="63.52" y2="189.82"/><g id="LINE-213" data-name="LINE"><line class="cls-9" x1="183.24" y1="289.65" x2="183.24" y2="255.95"/></g><g id="LINE-214" data-name="LINE"><line class="cls-9" x1="147.9" y1="289.65" x2="147.9" y2="255.95"/></g><g id="LINE-215" data-name="LINE"><line class="cls-9" x1="147.9" y1="289.65" x2="183.24" y2="289.65"/></g><path class="cls-7" d="M119.94,172.68a2.38,2.38,0,1,1,2.37-2.37A2.37,2.37,0,0,1,119.94,172.68Z" transform="translate(-10.02 -5.65)"/><path class="cls-7" d="M137.61,172.68a2.38,2.38,0,1,1,2.38-2.37A2.38,2.38,0,0,1,137.61,172.68Z" transform="translate(-10.02 -5.65)"/><path class="cls-7" d="M119.94,188a2.38,2.38,0,1,1,2.37-2.37A2.37,2.37,0,0,1,119.94,188Z" transform="translate(-10.02 -5.65)"/><path class="cls-7" d="M137.61,188a2.38,2.38,0,1,1,2.38-2.37A2.38,2.38,0,0,1,137.61,188Z" transform="translate(-10.02 -5.65)"/><line class="cls-7" x1="118.68" y1="187.53" x2="101.16" y2="172.33"/><g id="LINE-216" data-name="LINE"><line class="cls-7" x1="118.68" y1="188.29" x2="118.68" y2="156.23"/></g><rect class="cls-7" x="101.16" y="156.97" width="35.35" height="30.56"/><line class="cls-7" x1="101.16" y1="172.33" x2="136.51" y2="172.33"/><g id="CIRCLE-6" data-name="CIRCLE"><path class="cls-7" d="M150,176.13a1.37,1.37,0,1,1,1.37,1.37,1.37,1.37,0,0,1-1.37-1.37Z" transform="translate(-10.02 -5.65)"/></g><g id="CIRCLE-7" data-name="CIRCLE"><path class="cls-7" d="M150,180.72a1.37,1.37,0,1,1,1.37,1.37,1.38,1.38,0,0,1-1.37-1.37Z" transform="translate(-10.02 -5.65)"/></g><g id="CIRCLE-8" data-name="CIRCLE"><path class="cls-7" d="M150,185.34a1.37,1.37,0,1,1,1.37,1.37,1.37,1.37,0,0,1-1.37-1.37Z" transform="translate(-10.02 -5.65)"/></g><g id="CIRCLE-9" data-name="CIRCLE"><path class="cls-7" d="M150,189.74a1.37,1.37,0,1,1,1.37,1.37,1.37,1.37,0,0,1-1.37-1.37Z" transform="translate(-10.02 -5.65)"/></g><rect class="cls-7" x="99.93" y="156.23" width="44.99" height="32.07"/><line class="cls-7" x1="101.16" y1="187.53" x2="118.68" y2="172.33"/><line class="cls-7" x1="136.51" y1="156.97" x2="118.68" y2="172.33"/><line class="cls-7" x1="118.68" y1="156.97" x2="136.51" y2="172.33"/><line class="cls-7" x1="101.16" y1="156.97" x2="118.68" y2="172.33"/><line class="cls-7" x1="101.16" y1="172.33" x2="118.68" y2="156.97"/><line class="cls-7" x1="136.51" y1="187.53" x2="118.68" y2="172.33"/><line class="cls-7" x1="136.51" y1="172.33" x2="118.68" y2="187.53"/></g><g id="BATH_FIXTURES_EXTERIOR" data-name="BATH FIXTURES EXTERIOR"><g id="WIPEOUT"><rect class="cls-10" x="289.76" y="158.47" width="32.62" height="39"/></g><g id="LWPOLYLINE-34" data-name="LWPOLYLINE"><rect class="cls-10" x="289.76" y="159.81" width="2.25" height="34.89"/></g></g><g id="BATH_FIXTURES" data-name="BATH FIXTURES"><g id="LWPOLYLINE-35" data-name="LWPOLYLINE"><path class="cls-5" d="M307.72,118.05c-.05-.12-.11-.24-.17-.37a1.9,1.9,0,0,0-1.81-1c-1.63.11-3.26.23-4.9.37a1.18,1.18,0,0,0-1.07,1.17v20.21a1.17,1.17,0,0,0,1.07,1.16c1.64.14,3.27.27,4.9.37a1.88,1.88,0,0,0,1.81-1c.06-.12.12-.25.17-.37" transform="translate(-10.02 -5.65)"/></g><g id="LWPOLYLINE-36" data-name="LWPOLYLINE"><path class="cls-5" d="M307.74,118.09a24,24,0,0,1,.07,20.23" transform="translate(-10.02 -5.65)"/></g><g id="LWPOLYLINE-37" data-name="LWPOLYLINE"><path class="cls-5" d="M307.72,138.51q8.88.33,17.77.32a22.19,22.19,0,0,0,8.65-1.76,14.57,14.57,0,0,0,5.34-3.88,7.48,7.48,0,0,0,0-9.82,14.68,14.68,0,0,0-5.34-3.88,22.37,22.37,0,0,0-8.65-1.76q-8.88,0-17.77.32" transform="translate(-10.02 -5.65)"/></g><g id="ELLIPSE-2" data-name="ELLIPSE"><path class="cls-11" d="M353.68,60.29h6.46c.06.84.27,1.41.5,1.41L366,62h0c.18,0,.32-1,.31-2.28s-.14-2.24-.32-2.22h0l-5.31.28c-.23,0-.44.57-.5,1.41h-6.46" transform="translate(-10.02 -5.65)"/></g><g id="LWPOLYLINE-38" data-name="LWPOLYLINE"><path class="cls-11" d="M359.44,46.55v3a1.15,1.15,0,0,1-1.15,1.15,1.17,1.17,0,0,1-.79-.31h-3.89V48.72h3.53V46.55a1.15,1.15,0,0,1,2.3,0Z" transform="translate(-10.02 -5.65)"/></g><path class="cls-7" d="M353.57,70.91h1.08v1.28h1.09a.6.6,0,0,1,.6.6v.27h1.26a.56.56,0,0,1,0,1.11h-1.26v.29a.6.6,0,0,1-.6.6h-1.09v1.28h-1.08" transform="translate(-10.02 -5.65)"/></g><g id="SINK"><path class="cls-7" d="M305.26,181.15a1.74,1.74,0,1,1-1.74,1.74A1.74,1.74,0,0,1,305.26,181.15Z" transform="translate(-10.02 -5.65)"/><polyline class="cls-7" points="298.37 176.19 298.37 164.47 317.88 164.47 317.88 189.97 298.37 189.97 298.37 178.26"/><rect class="cls-11" x="295.04" y="176.2" width="10.01" height="2.07"/><rect class="cls-7" x="294.69" y="170.59" width="1.21" height="2.25"/><rect class="cls-7" x="294.69" y="181.55" width="1.21" height="2.25"/><path class="cls-7" d="M305.26,175.63a1.74,1.74,0,1,1-1.74,1.74A1.74,1.74,0,0,1,305.26,175.63Z" transform="translate(-10.02 -5.65)"/><path class="cls-7" d="M305.26,186.59a1.74,1.74,0,1,1-1.74,1.74A1.74,1.74,0,0,1,305.26,186.59Z" transform="translate(-10.02 -5.65)"/><g id="LWPOLYLINE-39" data-name="LWPOLYLINE"><rect class="cls-7" x="115.74" y="286.11" width="1.69" height="3"/></g><g id="LWPOLYLINE-40" data-name="LWPOLYLINE"><polyline class="cls-7" points="115.74 286.3 115.27 286.3 115.27 288.92 115.74 288.92"/></g><g id="LWPOLYLINE-41" data-name="LWPOLYLINE"><polyline class="cls-7" points="117.42 288.92 117.89 288.92 117.89 286.3 117.42 286.3"/></g><g id="LINE-217" data-name="LINE"><line class="cls-7" x1="117.42" y1="286.49" x2="115.74" y2="286.49"/></g><g id="CIRCLE-10" data-name="CIRCLE"><path class="cls-7" d="M138.6,294.39a1.13,1.13,0,1,0-1.13-1.13,1.13,1.13,0,0,0,1.13,1.13Z" transform="translate(-10.02 -5.65)"/></g><g id="LWPOLYLINE-42" data-name="LWPOLYLINE"><polyline class="cls-7" points="121.83 286.3 121.27 286.3 121.27 288.92 123.89 288.92 123.89 286.3 123.33 286.3"/></g><g id="LWPOLYLINE-43" data-name="LWPOLYLINE"><polyline class="cls-7" points="128.3 286.3 127.27 286.3 127.27 288.92 129.89 288.92 129.89 286.3 128.86 286.3"/></g><g id="LWPOLYLINE-44" data-name="LWPOLYLINE"><polyline class="cls-7" points="128.3 286.52 128.3 284.71 128.86 284.71 128.86 286.52"/></g><rect class="cls-7" x="146.3" y="291.1" width="4.33" height="4.31" transform="translate(-154.8 436.07) rotate(-90)"/><g id="LWPOLYLINE-45" data-name="LWPOLYLINE"><rect class="cls-7" x="121.83" y="274.86" width="1.5" height="13.5"/></g><g id="LWPOLYLINE-46" data-name="LWPOLYLINE"><polyline class="cls-7" points="121.83 284.61 100.08 284.61 100.08 259.11 145.08 259.11 145.08 284.61 123.33 284.61"/></g><rect class="cls-7" x="148.96" y="292.64" width="0.8" height="1.19" transform="translate(-153.9 436.94) rotate(-90)"/><line class="cls-7" x1="140.25" y1="288.11" x2="140.25" y2="287.06"/><rect class="cls-11" x="141.42" y="286.9" width="12.16" height="1.7" transform="translate(-150.26 429.6) rotate(-90)"/></g><g id="SILLS"><g id="LINE-218" data-name="LINE"><line class="cls-3" x1="65.44" y1="617.46" x2="519.49" y2="643.6"/></g><line class="cls-3" x1="520.04" y1="622.39" x2="65.89" y2="595.83"/><line class="cls-5" x1="525.31" y1="658.5" x2="54.53" y2="631.34"/></g><g id="MULLION"><g id="LWPOLYLINE-47" data-name="LWPOLYLINE"><polygon class="cls-3" points="69.37 604.29 65.81 604.09 65.31 612.7 68.87 612.9 69.04 609.91 72.97 610.13 73.13 607.51 69.19 607.28 69.37 604.29"/></g><g id="LWPOLYLINE-48" data-name="LWPOLYLINE"><polygon class="cls-3" points="138.63 608.27 69.37 604.29 69.19 607.28 73.13 607.51 134.52 611.04 138.46 611.26 138.63 608.27"/></g><g id="LWPOLYLINE-49" data-name="LWPOLYLINE"><polygon class="cls-3" points="138.3 613.89 134.37 613.66 72.97 610.13 69.04 609.91 68.87 612.9 138.13 616.88 138.3 613.89"/></g><g id="LWPOLYLINE-50" data-name="LWPOLYLINE"><polygon class="cls-3" points="142.18 608.47 138.63 608.27 138.46 611.26 134.52 611.04 134.37 613.66 138.3 613.89 138.13 616.88 141.69 617.09 142.18 608.47"/></g><g id="LWPOLYLINE-51" data-name="LWPOLYLINE"><polygon class="cls-3" points="180.95 613.71 177.02 613.48 177.19 610.49 173.63 610.28 173.14 618.89 176.69 619.1 176.87 616.1 180.8 616.33 180.95 613.71"/></g><g id="LWPOLYLINE-52" data-name="LWPOLYLINE"><polygon class="cls-3" points="246.45 614.47 177.19 610.49 177.02 613.48 180.95 613.71 242.35 617.24 246.28 617.46 246.45 614.47"/></g><g id="LWPOLYLINE-53" data-name="LWPOLYLINE"><polygon class="cls-3" points="246.13 620.08 242.19 619.86 180.8 616.33 176.87 616.1 176.69 619.1 245.95 623.08 246.13 620.08"/></g><g id="LWPOLYLINE-54" data-name="LWPOLYLINE"><polygon class="cls-3" points="250.01 614.67 246.45 614.47 246.28 617.46 242.35 617.24 242.19 619.86 246.13 620.08 245.95 623.08 249.51 623.28 250.01 614.67"/></g><g id="LWPOLYLINE-55" data-name="LWPOLYLINE"><polygon class="cls-3" points="342.68 623 338.75 622.77 338.92 619.78 335.37 619.58 334.87 628.19 338.43 628.39 338.6 625.4 342.53 625.62 342.68 623"/></g><g id="LWPOLYLINE-56" data-name="LWPOLYLINE"><polygon class="cls-3" points="408.18 623.76 338.92 619.78 338.75 622.77 342.68 623 404.08 626.53 408.01 626.75 408.18 623.76"/></g><g id="LWPOLYLINE-57" data-name="LWPOLYLINE"><polygon class="cls-3" points="407.86 629.38 403.93 629.15 342.53 625.62 338.6 625.4 338.43 628.39 407.69 632.37 407.86 629.38"/></g><g id="LWPOLYLINE-58" data-name="LWPOLYLINE"><polygon class="cls-3" points="411.74 623.96 408.18 623.76 408.01 626.75 404.08 626.53 403.93 629.15 407.86 629.38 407.69 632.37 411.24 632.58 411.74 623.96"/></g><g id="LWPOLYLINE-59" data-name="LWPOLYLINE"><polygon class="cls-3" points="446.74 625.98 443.19 625.77 442.69 634.38 446.25 634.59 446.42 631.59 450.35 631.82 450.5 629.2 446.57 628.97 446.74 625.98"/></g><g id="LWPOLYLINE-60" data-name="LWPOLYLINE"><polygon class="cls-3" points="516 629.96 446.74 625.98 446.57 628.97 450.5 629.2 511.9 632.73 515.83 632.95 516 629.96"/></g><g id="LWPOLYLINE-61" data-name="LWPOLYLINE"><polygon class="cls-3" points="511.75 635.35 450.35 631.82 446.42 631.59 446.25 634.59 515.51 638.57 515.68 635.57 511.75 635.35"/></g><g id="LWPOLYLINE-62" data-name="LWPOLYLINE"><polygon class="cls-3" points="519.56 630.16 516 629.96 515.83 632.95 511.9 632.73 511.75 635.35 515.68 635.57 515.51 638.57 519.07 638.77 519.56 630.16"/></g></g><g id="WINDOW_GLAZING" data-name="WINDOW GLAZING"><g id="LWPOLYLINE-63" data-name="LWPOLYLINE"><line class="cls-12" x1="72.97" y1="610.13" x2="134.37" y2="613.66"/><line class="cls-12" x1="134.52" y1="611.04" x2="73.13" y2="607.51"/></g><g id="LWPOLYLINE-64" data-name="LWPOLYLINE"><line class="cls-12" x1="180.8" y1="616.33" x2="242.2" y2="619.86"/><line class="cls-12" x1="242.35" y1="617.24" x2="180.95" y2="613.71"/></g><g id="LWPOLYLINE-65" data-name="LWPOLYLINE"><line class="cls-12" x1="342.53" y1="625.62" x2="403.93" y2="629.15"/><line class="cls-12" x1="404.08" y1="626.53" x2="342.68" y2="623"/></g><g id="LWPOLYLINE-66" data-name="LWPOLYLINE"><line class="cls-12" x1="450.35" y1="631.82" x2="511.75" y2="635.35"/><line class="cls-12" x1="511.9" y1="632.73" x2="450.5" y2="629.2"/></g></g><g id="MAIN_SWING" data-name="MAIN SWING"><g id="ARC-14" data-name="ARC"><path class="cls-4" d="M224.72,48.74a54,54,0,0,0,14.54,36.87" transform="translate(-10.02 -5.65)"/></g></g><g id="DOOR_SWING" data-name="DOOR SWING"><g id="ARC-15" data-name="ARC"><path class="cls-5" d="M289.16,279.82a52.49,52.49,0,0,0,52.5-52.5" transform="translate(-10.02 -5.65)"/></g></g><g id="DOOR"><g id="LWPOLYLINE-67" data-name="LWPOLYLINE"><polygon class="cls-8" points="267.08 41.52 268.7 43.08 229.25 79.95 227.63 78.39 267.08 41.52"/></g><g id="LWPOLYLINE-68" data-name="LWPOLYLINE"><rect class="cls-8" x="279.15" y="221.67" width="52.5" height="2.25"/></g><g id="LWPOLYLINE-69" data-name="LWPOLYLINE"><polygon class="cls-8" points="109.86 80.29 112.11 80.17 112.11 133.64 109.86 132.79 109.86 80.29"/></g><g id="LWPOLYLINE-70" data-name="LWPOLYLINE"><rect class="cls-8" x="350.77" y="208.27" width="53" height="2.63"/></g><g id="LWPOLYLINE-71" data-name="LWPOLYLINE"><rect class="cls-8" x="319.8" y="312.85" width="2.63" height="45"/></g><g id="LWPOLYLINE-72" data-name="LWPOLYLINE"><rect class="cls-8" x="124.05" y="68.89" width="45" height="2.63"/></g><g id="LWPOLYLINE-73" data-name="LWPOLYLINE"><rect class="cls-8" x="319.8" y="357.85" width="2.63" height="45"/></g></g><g id="WALL"><g id="LWPOLYLINE-74" data-name="LWPOLYLINE"><rect class="cls-13" x="152.43" y="607.69" width="30.03" height="31.5" transform="translate(-474.6 749.19) rotate(-86.71)"/></g><g id="LWPOLYLINE-75" data-name="LWPOLYLINE"><rect class="cls-13" x="421.96" y="623.2" width="30.06" height="31.5" transform="translate(-235.99 1032.91) rotate(-86.71)"/></g><g id="LWPOLYLINE-76" data-name="LWPOLYLINE"><polygon class="cls-13" points="344.01 22.21 410.01 22.21 410.01 88.21 403.31 88.21 403.31 95.71 410.01 95.71 410.01 203.71 404.01 203.71 404.01 215.69 412.39 215.69 412.39 401.71 523.57 401.71 523.57 586.45 523.57 591.48 521.79 591.38 521.36 598.86 519.56 630.16 518.56 647.63 525.58 648.03 525.08 658.54 532.54 658.97 532.54 394.21 484.39 394.21 484.39 382.21 431.89 382.21 431.89 165.48 419.76 165.48 419.76 13.22 274.83 13.07 274.83 34.21 268.83 34.21 268.83 43.21 271.75 43.21 271.75 221.67 279.3 221.67 279.3 215.67 353.01 215.71 353.01 211.73 297.51 211.73 297.51 207.61 353.01 207.61 353.01 203.67 289.76 203.67 289.76 194.7 286.25 194.7 286.25 159.81 289.76 159.81 289.76 95.71 355.31 95.71 355.31 88.21 344.01 88.21 344.01 22.21"/></g><g id="LWPOLYLINE-77" data-name="LWPOLYLINE"><polygon class="cls-13" points="279.3 290.67 322.73 290.67 322.73 312.85 315.23 312.85 315.23 298.17 279.3 298.17 279.3 417.54 315.23 417.54 315.23 402.85 322.73 402.85 322.73 579.89 337.59 580.79 337.16 588.28 334.36 637.02 327.49 636.62 326.81 648.38 248.33 643.87 250.38 608.09 252.23 575.89 315.23 579.47 315.23 459.54 271.8 459.54 271.8 274.17 279.3 274.17 279.3 290.67"/></g><polygon class="cls-13" points="181.94 34.21 181.91 13.21 43.75 13.21 43.75 77.71 0.29 77.71 0.25 264.95 40.29 264.95 40.29 450.54 10.63 450.54 10.63 628.71 64.22 631.79 68.04 565.3 17.81 562.42 17.81 459.54 49.29 459.54 49.29 255.95 9.25 255.95 9.27 189.85 16.77 189.85 16.73 153.88 63.23 153.88 63.23 153.85 174.37 153.85 174.38 189.88 181.88 189.88 181.88 138.84 117.5 138.9 117.5 132.9 109.94 132.9 109.94 138.9 16.73 138.9 16.73 97.81 16.73 86.71 52.75 86.71 52.75 32.64 109.94 32.64 109.94 80.4 117.45 80.4 117.45 71.65 124.19 71.65 124.19 64.15 120.44 64.15 120.44 22.15 174.44 21.96 174.44 64.15 169.19 64.15 169.19 71.65 181.88 71.65 181.88 43.21 214.84 43.21 214.84 34.21 181.94 34.21"/></g><g id="OUTLINE"><g id="MTEXT"><path class="cls-14" d="M168.12,175.58l1.35,5.08,1.31-5.08h.79L169.88,182h-.75l-1.34-5-1.37,5h-.74L164,175.58h.81l1.31,5.08,1.35-5.08Z" transform="translate(-10.02 -5.65)"/><path class="cls-14" d="M173.35,179.26V182h-.82v-6.39h2.37c1.28,0,2.09.65,2.09,1.85a1.69,1.69,0,0,1-1.62,1.8l1.88,2.74h-.94l-1.83-2.71Zm0-.69h1.53c.84,0,1.3-.43,1.3-1.14s-.46-1.13-1.3-1.13h-1.53Z" transform="translate(-10.02 -5.65)"/></g><g id="MTEXT-2" data-name="MTEXT"><path class="cls-14" d="M45.59,179.26V182h-.82v-6.39h2.37c1.28,0,2.09.65,2.09,1.85a1.69,1.69,0,0,1-1.62,1.8L49.49,182h-.93l-1.84-2.71Zm0-.69h1.53c.84,0,1.3-.43,1.3-1.14s-.46-1.13-1.3-1.13H45.59Z" transform="translate(-10.02 -5.65)"/><path class="cls-14" d="M52.38,175.21h.78l-2.58,7.63H49.8Z" transform="translate(-10.02 -5.65)"/><path class="cls-14" d="M54,182v-6.39h3.91v.73H54.8v2.15h2.89v.73H54.8V182Z" transform="translate(-10.02 -5.65)"/></g><g id="MTEXT-3" data-name="MTEXT"><path class="cls-14" d="M168.8,276.06h2a3.2,3.2,0,0,1,0,6.39h-2Zm2,5.65a2.47,2.47,0,0,0,0-4.92h-1.22v4.92Z" transform="translate(-10.02 -5.65)"/><path class="cls-14" d="M178.63,276.06l1.35,5.08,1.31-5.08h.79l-1.69,6.39h-.75l-1.34-5-1.37,5h-.74l-1.69-6.39h.81l1.31,5.08,1.35-5.08Z" transform="translate(-10.02 -5.65)"/></g><g id="MTEXT-4" data-name="MTEXT"><path class="cls-14" d="M153.09,48.09l1.35,5.08,1.31-5.08h.79l-1.69,6.39h-.75l-1.34-5-1.37,5h-.74L149,48.09h.81l1.31,5.08,1.35-5.08Z" transform="translate(-10.02 -5.65)"/><path class="cls-14" d="M159.19,47.72H160l-2.58,7.64h-.78Z" transform="translate(-10.02 -5.65)"/><path class="cls-14" d="M160.78,48.09h2.05a3.2,3.2,0,0,1,0,6.39h-2.05Zm2,5.65a2.2,2.2,0,0,0,2.3-2.45,2.21,2.21,0,0,0-2.3-2.47H161.6v4.92Z" transform="translate(-10.02 -5.65)"/></g><g id="MTEXT-5" data-name="MTEXT"><path class="cls-14" d="M83.66,110.25,85,115.33l1.31-5.08h.8l-1.7,6.39h-.75l-1.34-5-1.37,5h-.74l-1.69-6.39h.81l1.31,5.08L83,110.25Z" transform="translate(-10.02 -5.65)"/><path class="cls-14" d="M88.89,116.64h-.82v-6.39h.82Z" transform="translate(-10.02 -5.65)"/><path class="cls-14" d="M92.89,110.16a2.39,2.39,0,0,1,2.49,2h-.81a1.66,1.66,0,0,0-1.68-1.22c-1.21,0-2,1-2,2.55s.82,2.55,2,2.55a1.67,1.67,0,0,0,1.68-1.24h.81a2.4,2.4,0,0,1-2.49,2A3,3,0,0,1,90,113.45C90,111.46,91.28,110.16,92.89,110.16Z" transform="translate(-10.02 -5.65)"/></g><g id="MTEXT-6" data-name="MTEXT"><path class="cls-14" d="M242.69,5.65v.73h-3.26v2h3v.73h-3V11.3h3.26V12h-4.07V5.65Z" transform="translate(-10.02 -5.65)"/><path class="cls-14" d="M248.94,12h-.6L244.77,7V12H244V5.65h.79l3.4,4.86V5.65h.78Z" transform="translate(-10.02 -5.65)"/><path class="cls-14" d="M250,5.65h5.27v.73h-2.22V12h-.83V6.38H250Z" transform="translate(-10.02 -5.65)"/><path class="cls-14" d="M257.17,9.34V12h-.82V5.65h2.37c1.28,0,2.09.65,2.09,1.86a1.69,1.69,0,0,1-1.62,1.8L261.07,12h-.93l-1.83-2.7Zm0-.7h1.53c.84,0,1.3-.43,1.3-1.13s-.46-1.14-1.3-1.14h-1.53Z" transform="translate(-10.02 -5.65)"/><path class="cls-14" d="M266,5.65h.88l-2.33,3.76V12h-.82V9.41l-2.31-3.76h.9l1.84,3Z" transform="translate(-10.02 -5.65)"/></g><polygon class="cls-14" points="242.76 26.42 249.83 14.22 235.69 14.22 235.69 14.22 242.76 26.42"/><path class="cls-14" d="M403.49,503.62l-2-4.87v4.87h-.78v-6.39h.93l2.16,5.25,2.16-5.25h.89v6.39h-.78v-4.87l-2,4.87Z" transform="translate(-10.02 -5.65)"/><path class="cls-14" d="M411.07,497.23l2.5,6.39h-.83L412,501.7h-2.63l-.73,1.92h-.83l2.49-6.39ZM409.64,501h2.08l-1-2.73Z" transform="translate(-10.02 -5.65)"/><path class="cls-14" d="M414.83,502a1.57,1.57,0,0,0,1.62,1.06c.83,0,1.41-.41,1.41-1.11,0-.5-.28-.83-1-1l-1.15-.31c-.88-.22-1.53-.67-1.53-1.64a1.9,1.9,0,0,1,2.1-1.81,2.17,2.17,0,0,1,2.34,1.69h-.82a1.45,1.45,0,0,0-1.52-1c-.76,0-1.32.39-1.32,1.05s.35.8,1,1l1.09.28c1,.26,1.6.81,1.6,1.71,0,1.16-.94,1.86-2.21,1.86A2.3,2.3,0,0,1,414,502Z" transform="translate(-10.02 -5.65)"/><path class="cls-14" d="M419.23,497.23h5.28V498h-2.23v5.66h-.82V498h-2.23Z" transform="translate(-10.02 -5.65)"/><path class="cls-14" d="M429.65,497.23V498h-3.26v2h3v.73h-3v2.17h3.26v.74h-4.07v-6.39Z" transform="translate(-10.02 -5.65)"/><path class="cls-14" d="M431.76,500.92v2.7h-.83v-6.39h2.38c1.28,0,2.09.65,2.09,1.86a1.7,1.7,0,0,1-1.62,1.8l1.88,2.73h-.94l-1.83-2.7Zm0-.7h1.53c.84,0,1.3-.43,1.3-1.13s-.46-1.14-1.3-1.14h-1.53Z" transform="translate(-10.02 -5.65)"/><path class="cls-14" d="M443.41,501.82c0,1.17-.81,1.8-2.13,1.8H439v-6.39h2.11c1.32,0,2.11.6,2.11,1.7a1.36,1.36,0,0,1-.94,1.38A1.54,1.54,0,0,1,443.41,501.82ZM441.08,500c.85,0,1.32-.34,1.32-1s-.47-1-1.32-1h-1.3V500Zm-1.3,2.9h1.5c.87,0,1.33-.44,1.33-1.11s-.46-1.1-1.33-1.1h-1.5Z" transform="translate(-10.02 -5.65)"/><path class="cls-14" d="M448.64,497.23V498h-3.26v2h3v.73h-3v2.17h3.26v.74h-4.07v-6.39Z" transform="translate(-10.02 -5.65)"/><path class="cls-14" d="M449.93,497.23h2a3.2,3.2,0,0,1,0,6.39h-2Zm2,5.65a2.47,2.47,0,0,0,0-4.92h-1.22v4.92Z" transform="translate(-10.02 -5.65)"/><path class="cls-14" d="M457,500.92v2.7h-.82v-6.39h2.37c1.28,0,2.09.65,2.09,1.86a1.69,1.69,0,0,1-1.62,1.8l1.88,2.73H460l-1.84-2.7Zm0-.7h1.53c.84,0,1.3-.43,1.3-1.13s-.46-1.14-1.3-1.14H457Z" transform="translate(-10.02 -5.65)"/><path class="cls-14" d="M464.44,503.72a3.32,3.32,0,1,1,2.9-3.29A3,3,0,0,1,464.44,503.72Zm0-5.84c-1.22,0-2.06,1.05-2.06,2.55s.84,2.55,2.06,2.55,2.08-1.05,2.08-2.55S465.68,497.88,464.44,497.88Z" transform="translate(-10.02 -5.65)"/><path class="cls-14" d="M471,503.72a3,3,0,0,1-2.88-3.29c0-1.94,1.2-3.29,2.88-3.29a3.32,3.32,0,0,1,0,6.58Zm0-5.84c-1.23,0-2.06,1.05-2.06,2.55S469.81,503,471,503s2.07-1.05,2.07-2.55S472.28,497.88,471,497.88Z" transform="translate(-10.02 -5.65)"/><path class="cls-14" d="M477.87,503.62l-2-4.87v4.87h-.78v-6.39H476l2.16,5.25,2.16-5.25h.89v6.39h-.78v-4.87l-2,4.87Z" transform="translate(-10.02 -5.65)"/><path class="cls-14" d="M418.19,514.81h-.8V509.4l-1.59.81v-.83l1.9-1h.49Z" transform="translate(-10.02 -5.65)"/><path class="cls-14" d="M421.39,509.06a1.23,1.23,0,0,0-1.25,1.28h-.84a2.06,2.06,0,0,1,2.09-2,1.75,1.75,0,0,1,1.95,1.8c0,.81-.65,1.45-1.29,2.18l-1.63,1.78h3.05v.72H419.3v-.54l2.06-2.27c.66-.72,1.18-1.25,1.18-1.86A1,1,0,0,0,421.39,509.06Z" transform="translate(-10.02 -5.65)"/><path class="cls-14" d="M424.74,509.4a.51.51,0,0,1-.46-.52.56.56,0,1,1,1.11.05,1.31,1.31,0,0,1-.23.66l-.53.88h-.53Z" transform="translate(-10.02 -5.65)"/><path class="cls-14" d="M426.07,511.73h2.51v.73h-2.51Z" transform="translate(-10.02 -5.65)"/><path class="cls-14" d="M429.54,511.62c0-1.95,1-3.29,2.38-3.29s2.39,1.34,2.39,3.29-1,3.29-2.39,3.29S429.54,513.57,429.54,511.62Zm.8,0c0,1.49.54,2.55,1.58,2.55s1.59-1.06,1.59-2.55-.56-2.55-1.59-2.55S430.34,510.13,430.34,511.62Z" transform="translate(-10.02 -5.65)"/><path class="cls-14" d="M435.14,508.42h.68v2.28h-.68Zm1.23,0h.69v2.28h-.69Z" transform="translate(-10.02 -5.65)"/><path class="cls-14" d="M442.54,512.42l1.72,2.39h-.88L442.1,513l-1.3,1.8H440l1.71-2.36-1.62-2.26h.9l1.17,1.66,1.19-1.66h.86Z" transform="translate(-10.02 -5.65)"/><path class="cls-14" d="M449.39,514.81h-.81V509.4l-1.58.81v-.83l1.9-1h.49Z" transform="translate(-10.02 -5.65)"/><path class="cls-14" d="M452.81,514.81H452V509.4l-1.59.81v-.83l1.9-1h.49Z" transform="translate(-10.02 -5.65)"/><path class="cls-14" d="M454,508.42h.71v2.28H454Z" transform="translate(-10.02 -5.65)"/><path class="cls-14" d="M455.54,511.73h2.51v.73h-2.51Z" transform="translate(-10.02 -5.65)"/><path class="cls-14" d="M460.59,509.06a1.23,1.23,0,0,0-1.25,1.28h-.85a2.07,2.07,0,0,1,2.1-2,1.74,1.74,0,0,1,1.94,1.8c0,.81-.64,1.45-1.29,2.18l-1.62,1.78h3.05v.72h-4.18v-.54l2.06-2.27c.67-.72,1.19-1.25,1.19-1.86A1,1,0,0,0,460.59,509.06Z" transform="translate(-10.02 -5.65)"/><path class="cls-14" d="M463.39,508.42h.69v2.28h-.69Zm1.24,0h.69v2.28h-.69Z" transform="translate(-10.02 -5.65)"/><path class="cls-14" d="M154.41,452.55v-.71h2.31v.44a2.59,2.59,0,0,1-2.65,2.81,3.31,3.31,0,0,1,0-6.58,2.41,2.41,0,0,1,2.52,2h-.82a1.68,1.68,0,0,0-1.7-1.23c-1.24,0-2.09,1-2.09,2.55s.84,2.56,2.11,2.56a1.77,1.77,0,0,0,1.86-1.81Z" transform="translate(-10.02 -5.65)"/><path class="cls-14" d="M158.68,452.29V455h-.82V448.6h2.37c1.28,0,2.09.65,2.09,1.86a1.69,1.69,0,0,1-1.62,1.8l1.88,2.73h-.94l-1.83-2.7Zm0-.7h1.53c.84,0,1.3-.43,1.3-1.13s-.46-1.14-1.3-1.14h-1.53Z" transform="translate(-10.02 -5.65)"/><path class="cls-14" d="M167.67,448.6v.73h-3.26v2h3v.73h-3v2.17h3.26V455H163.6V448.6Z" transform="translate(-10.02 -5.65)"/><path class="cls-14" d="M171.68,448.6l2.5,6.39h-.84l-.73-1.92H170l-.73,1.92h-.83l2.5-6.39Zm-1.44,3.75h2.08l-1-2.73Z" transform="translate(-10.02 -5.65)"/><path class="cls-14" d="M174.13,448.6h5.28v.73h-2.23V455h-.82v-5.66h-2.23Z" transform="translate(-10.02 -5.65)"/><path class="cls-14" d="M183.6,452.29V455h-.83V448.6h2.38c1.28,0,2.09.65,2.09,1.86a1.7,1.7,0,0,1-1.63,1.8L187.5,455h-.94l-1.83-2.7Zm0-.7h1.53c.84,0,1.3-.43,1.3-1.13s-.46-1.14-1.3-1.14H183.6Z" transform="translate(-10.02 -5.65)"/><path class="cls-14" d="M191,455.09a3.32,3.32,0,0,1,0-6.58c1.69,0,2.89,1.35,2.89,3.29A3,3,0,0,1,191,455.09Zm0-5.84c-1.23,0-2.06,1.05-2.06,2.55s.83,2.55,2.06,2.55,2.07-1.05,2.07-2.55S192.24,449.25,191,449.25Z" transform="translate(-10.02 -5.65)"/><path class="cls-14" d="M197.6,455.09a3.32,3.32,0,1,1,2.89-3.29A3,3,0,0,1,197.6,455.09Zm0-5.84c-1.23,0-2.07,1.05-2.07,2.55s.84,2.55,2.07,2.55,2.07-1.05,2.07-2.55S198.83,449.25,197.6,449.25Z" transform="translate(-10.02 -5.65)"/><path class="cls-14" d="M204.43,455l-2-4.87V455h-.78V448.6h.92l2.17,5.25,2.15-5.25h.9V455H207v-4.87L205,455Z" transform="translate(-10.02 -5.65)"/><path class="cls-14" d="M157.08,460.43a1.23,1.23,0,0,0-1.25,1.28H155a2.06,2.06,0,0,1,2.09-2,1.74,1.74,0,0,1,1.94,1.8c0,.82-.64,1.45-1.29,2.18l-1.62,1.78h3v.73H155v-.54l2.06-2.27c.66-.73,1.18-1.26,1.18-1.87A1,1,0,0,0,157.08,460.43Z" transform="translate(-10.02 -5.65)"/><path class="cls-14" d="M161.88,460.43a1.24,1.24,0,0,0-1.25,1.28h-.84a2.07,2.07,0,0,1,2.09-2,1.75,1.75,0,0,1,2,1.8c0,.82-.65,1.45-1.29,2.18l-1.63,1.78H164v.73h-4.17v-.54l2.06-2.27c.67-.73,1.19-1.26,1.19-1.87A1.05,1.05,0,0,0,161.88,460.43Z" transform="translate(-10.02 -5.65)"/><path class="cls-14" d="M165.23,460.78a.52.52,0,0,1-.46-.53.54.54,0,0,1,.56-.55.55.55,0,0,1,.56.61,1.38,1.38,0,0,1-.23.65l-.53.89h-.54Z" transform="translate(-10.02 -5.65)"/><path class="cls-14" d="M166.56,463.11h2.51v.72h-2.51Z" transform="translate(-10.02 -5.65)"/><path class="cls-14" d="M173.59,461.29a1.15,1.15,0,0,0-1.17-.91c-.94,0-1.62,1.07-1.62,2.45,0,.06,0,.21,0,.28a1.68,1.68,0,0,1,1.62-1.1,2.05,2.05,0,0,1,2.07,2.13,2.07,2.07,0,0,1-2.15,2.14,2,2,0,0,1-1.9-1.22,4.44,4.44,0,0,1-.37-1.95c0-2.07.95-3.41,2.34-3.41a1.89,1.89,0,0,1,2,1.59Zm-1.23,4.29a1.35,1.35,0,0,0,1.38-1.43,1.38,1.38,0,1,0-2.76,0A1.35,1.35,0,0,0,172.36,465.58Z" transform="translate(-10.02 -5.65)"/><path class="cls-14" d="M175.2,459.8h.69v2.28h-.69Zm1.24,0h.69v2.28h-.69Z" transform="translate(-10.02 -5.65)"/><path class="cls-14" d="M182.61,463.79l1.72,2.4h-.89l-1.28-1.8-1.29,1.8H180l1.7-2.37-1.61-2.25h.9l1.16,1.65,1.2-1.65h.85Z" transform="translate(-10.02 -5.65)"/><path class="cls-14" d="M189.45,466.19h-.8v-5.41l-1.58.81v-.84l1.89-1h.49Z" transform="translate(-10.02 -5.65)"/><path class="cls-14" d="M194.16,461.29a1.15,1.15,0,0,0-1.17-.91c-.94,0-1.62,1.07-1.62,2.45,0,.06,0,.21,0,.28A1.65,1.65,0,0,1,193,462a2.14,2.14,0,1,1-2,3.05,4.44,4.44,0,0,1-.37-1.95c0-2.07.95-3.41,2.34-3.41a1.88,1.88,0,0,1,2,1.59Zm-1.22,4.29a1.35,1.35,0,0,0,1.37-1.43,1.38,1.38,0,1,0-1.37,1.43Z" transform="translate(-10.02 -5.65)"/><path class="cls-14" d="M195.77,459.8h.71v2.28h-.71Z" transform="translate(-10.02 -5.65)"/><path class="cls-14" d="M197.31,463.11h2.51v.72h-2.51Z" transform="translate(-10.02 -5.65)"/><path class="cls-14" d="M204.35,461.29a1.17,1.17,0,0,0-1.18-.91c-.94,0-1.61,1.07-1.61,2.45,0,.06,0,.21,0,.28a1.65,1.65,0,0,1,1.61-1.1,2.14,2.14,0,1,1-2,3.05,4.44,4.44,0,0,1-.37-1.95c0-2.07.95-3.41,2.34-3.41a1.9,1.9,0,0,1,2,1.59Zm-1.23,4.29a1.35,1.35,0,0,0,1.37-1.43,1.38,1.38,0,1,0-1.37,1.43Z" transform="translate(-10.02 -5.65)"/><path class="cls-14" d="M206,459.8h.68v2.28H206Zm1.23,0h.69v2.28h-.69Z" transform="translate(-10.02 -5.65)"/><path class="cls-14" d="M88,173.32a1.58,1.58,0,0,0,1.62,1.07c.84,0,1.42-.41,1.42-1.12,0-.5-.28-.82-1-1l-1.15-.3c-.88-.23-1.53-.68-1.53-1.64a1.89,1.89,0,0,1,2.11-1.81,2.17,2.17,0,0,1,2.34,1.68H91a1.45,1.45,0,0,0-1.51-1c-.76,0-1.33.4-1.33,1.05s.36.81,1,1l1.1.28c1,.26,1.59.82,1.59,1.72,0,1.16-.94,1.85-2.21,1.85a2.28,2.28,0,0,1-2.45-1.76Z" transform="translate(-10.02 -5.65)"/><path class="cls-14" d="M93.81,172.43V175H93V168.6h2.39c1.29,0,2.11.66,2.11,1.91a1.85,1.85,0,0,1-2.11,1.92Zm1.55-3.11H93.81v2.38h1.55c.87,0,1.31-.47,1.31-1.19S96.23,169.32,95.36,169.32Z" transform="translate(-10.02 -5.65)"/><path class="cls-14" d="M89.41,186.53a3,3,0,0,1-2.88-3.29c0-1.94,1.2-3.29,2.88-3.29s2.89,1.35,2.89,3.29A3,3,0,0,1,89.41,186.53Zm0-5.84c-1.23,0-2.06,1.05-2.06,2.55s.83,2.55,2.06,2.55,2.07-1,2.07-2.55S90.65,180.69,89.41,180.69Z" transform="translate(-10.02 -5.65)"/><path class="cls-14" d="M95.16,186.43,92.69,180h.87l2,5.31,2-5.31h.84l-2.47,6.39Z" transform="translate(-10.02 -5.65)"/><path class="cls-14" d="M366.92,155.94l-2-4.87v4.87h-.78v-6.39H365l2.17,5.24,2.15-5.24h.9v6.39h-.79v-4.87l-2,4.87Z" transform="translate(-10.02 -5.65)"/><path class="cls-14" d="M374.5,149.55l2.49,6.39h-.83l-.74-1.93h-2.63l-.73,1.93h-.83l2.5-6.39Zm-1.44,3.74h2.08l-1-2.72Z" transform="translate(-10.02 -5.65)"/><path class="cls-14" d="M378.25,154.27a1.57,1.57,0,0,0,1.62,1.06c.84,0,1.42-.4,1.42-1.11,0-.5-.28-.82-1-1l-1.15-.3c-.88-.23-1.53-.68-1.53-1.65a1.9,1.9,0,0,1,2.11-1.81,2.18,2.18,0,0,1,2.34,1.69h-.82a1.47,1.47,0,0,0-1.52-1c-.76,0-1.33.4-1.33,1s.36.8,1,1l1.1.28c1,.26,1.59.81,1.59,1.72,0,1.15-.94,1.85-2.21,1.85a2.28,2.28,0,0,1-2.45-1.76Z" transform="translate(-10.02 -5.65)"/><path class="cls-14" d="M382.66,149.55h5.27v.73h-2.22v5.66h-.82v-5.66h-2.23Z" transform="translate(-10.02 -5.65)"/><path class="cls-14" d="M393.07,149.55v.73h-3.26v2h3V153h-3v2.18h3.26v.74H389v-6.39Z" transform="translate(-10.02 -5.65)"/><path class="cls-14" d="M395.18,153.23v2.71h-.82v-6.39h2.37c1.28,0,2.09.64,2.09,1.85a1.69,1.69,0,0,1-1.62,1.8l1.88,2.74h-.93l-1.84-2.71Zm0-.7h1.53c.84,0,1.3-.42,1.3-1.13s-.46-1.14-1.3-1.14h-1.53Z" transform="translate(-10.02 -5.65)"/><path class="cls-14" d="M374.36,165.33c0,1.16-.81,1.8-2.12,1.8h-2.31v-6.39H372c1.32,0,2.11.59,2.11,1.7a1.36,1.36,0,0,1-.93,1.38A1.55,1.55,0,0,1,374.36,165.33ZM372,163.52c.86,0,1.32-.35,1.32-1s-.46-1-1.32-1h-1.3v2.06Zm-1.3,2.89h1.51c.86,0,1.32-.44,1.32-1.1s-.46-1.1-1.32-1.1h-1.51Z" transform="translate(-10.02 -5.65)"/><path class="cls-14" d="M378.15,160.74l2.49,6.39h-.83l-.74-1.93h-2.63l-.73,1.93h-.83l2.5-6.39Zm-1.44,3.75h2.08l-1-2.73Z" transform="translate(-10.02 -5.65)"/><path class="cls-14" d="M380.6,160.74h5.28v.73h-2.23v5.66h-.82v-5.66H380.6Z" transform="translate(-10.02 -5.65)"/><path class="cls-14" d="M392.2,160.74v6.39h-.82v-2.92h-3.61v2.92h-.83v-6.39h.83v2.74h3.61v-2.74Z" transform="translate(-10.02 -5.65)"/></g></svg>