<svg xmlns="http://www.w3.org/2000/svg" viewBox="0 0 532.79 658.67"><defs><style>.cls-1,.cls-10,.cls-12,.cls-14,.cls-15,.cls-4,.cls-5,.cls-6,.cls-7,.cls-8{fill:none;}.cls-1,.cls-11,.cls-12,.cls-14,.cls-2,.cls-3,.cls-4,.cls-5,.cls-6,.cls-8,.cls-9{stroke:#231f20;}.cls-1,.cls-11,.cls-12,.cls-13,.cls-15,.cls-16,.cls-17,.cls-2,.cls-3,.cls-4,.cls-6,.cls-7,.cls-9{stroke-miterlimit:10;}.cls-1{stroke-width:0.15px;}.cls-11,.cls-13,.cls-16,.cls-2,.cls-3,.cls-9{fill:#fff;}.cls-10,.cls-2{stroke-width:0.35px;}.cls-12,.cls-13,.cls-3,.cls-4,.cls-5,.cls-7{stroke-width:0.25px;}.cls-10,.cls-14,.cls-5,.cls-8{stroke-linecap:round;stroke-linejoin:round;}.cls-6,.cls-9{stroke-width:0.35px;}.cls-13,.cls-16,.cls-17,.cls-7{stroke:#000;}.cls-8{stroke-width:0.71px;}.cls-10{stroke:#fff;}.cls-11,.cls-14,.cls-16,.cls-17{stroke-width:0.5px;}.cls-12{stroke-dasharray:2.5;}.cls-15{stroke:#00aeef;stroke-width:0.7px;}.cls-17{fill:#d2d3d4;}.cls-18{fill:#231f20;}</style></defs><title>108Leonard_WEB_7-12R_v2</title><g id="FLOOR_PATTERN" data-name="FLOOR PATTERN"><g id="LWPOLYLINE"><line class="cls-1" x1="169.19" y1="62.17" x2="124.19" y2="62.17"/></g><g id="LWPOLYLINE-2" data-name="LWPOLYLINE"><line class="cls-1" x1="169.19" y1="69.67" x2="124.19" y2="69.67"/></g><g id="LWPOLYLINE-3" data-name="LWPOLYLINE"><line class="cls-1" x1="117.45" y1="78.42" x2="117.45" y2="130.92"/></g><g id="LWPOLYLINE-4" data-name="LWPOLYLINE"><line class="cls-1" x1="109.94" y1="130.92" x2="109.94" y2="78.42"/></g><g id="LWPOLYLINE-5" data-name="LWPOLYLINE"><line class="cls-1" x1="214.84" y1="32.24" x2="268.84" y2="32.24"/></g><g id="LWPOLYLINE-6" data-name="LWPOLYLINE"><line class="cls-1" x1="268.84" y1="41.24" x2="214.84" y2="41.24"/></g><g id="LWPOLYLINE-7" data-name="LWPOLYLINE"><line class="cls-1" x1="315.23" y1="396.06" x2="315.23" y2="343.56"/></g><g id="LWPOLYLINE-8" data-name="LWPOLYLINE"><line class="cls-1" x1="322.73" y1="396.06" x2="322.73" y2="343.56"/></g><g id="LWPOLYLINE-9" data-name="LWPOLYLINE"><line class="cls-1" x1="353.89" y1="201.69" x2="404.89" y2="201.74"/></g><g id="LWPOLYLINE-10" data-name="LWPOLYLINE"><line class="cls-1" x1="404.89" y1="213.69" x2="353.89" y2="213.69"/></g><g id="LINE"><line class="cls-1" x1="16" y1="262.47" x2="16" y2="187.88"/></g><g id="LINE-2" data-name="LINE"><line class="cls-1" x1="24.25" y1="583.18" x2="24.25" y2="554.47"/></g><g id="LINE-3" data-name="LINE"><line class="cls-1" x1="24.25" y1="262.47" x2="24.25" y2="187.88"/></g><g id="LINE-4" data-name="LINE"><line class="cls-1" x1="24.25" y1="464.47" x2="24.25" y2="457.56"/></g><g id="LINE-5" data-name="LINE"><line class="cls-1" x1="32.5" y1="583.65" x2="32.5" y2="554.47"/></g><g id="LINE-6" data-name="LINE"><line class="cls-1" x1="32.5" y1="262.47" x2="32.5" y2="187.88"/></g><g id="LINE-7" data-name="LINE"><line class="cls-1" x1="32.5" y1="464.47" x2="32.5" y2="457.56"/></g><g id="LINE-8" data-name="LINE"><line class="cls-1" x1="40.75" y1="584.13" x2="40.75" y2="554.47"/></g><g id="LINE-9" data-name="LINE"><line class="cls-1" x1="40.75" y1="262.47" x2="40.75" y2="187.88"/></g><g id="LINE-10" data-name="LINE"><line class="cls-1" x1="40.75" y1="464.47" x2="40.75" y2="457.56"/></g><g id="LINE-11" data-name="LINE"><line class="cls-1" x1="49" y1="584.6" x2="49" y2="457.56"/></g><g id="LINE-12" data-name="LINE"><line class="cls-1" x1="49" y1="262.47" x2="49" y2="187.88"/></g><g id="LINE-13" data-name="LINE"><line class="cls-1" x1="57.25" y1="585.08" x2="57.25" y2="524.97"/></g><g id="LINE-14" data-name="LINE"><line class="cls-1" x1="57.25" y1="262.46" x2="57.25" y2="187.88"/></g><g id="LINE-15" data-name="LINE"><line class="cls-1" x1="57.25" y1="483.8" x2="57.25" y2="316.96"/></g><g id="LINE-16" data-name="LINE"><line class="cls-1" x1="65.5" y1="585.55" x2="65.5" y2="547.16"/></g><g id="LINE-17" data-name="LINE"><line class="cls-1" x1="65.5" y1="262.46" x2="65.5" y2="187.88"/></g><g id="LINE-18" data-name="LINE"><line class="cls-1" x1="65.5" y1="468.77" x2="65.5" y2="316.96"/></g><g id="LINE-19" data-name="LINE"><line class="cls-1" x1="73.75" y1="598.05" x2="73.75" y2="559.39"/></g><g id="LINE-20" data-name="LINE"><line class="cls-1" x1="73.75" y1="262.45" x2="73.75" y2="187.88"/></g><g id="LINE-21" data-name="LINE"><line class="cls-1" x1="73.75" y1="464.03" x2="73.75" y2="323.44"/></g><g id="LINE-22" data-name="LINE"><line class="cls-1" x1="82" y1="598.53" x2="82" y2="568.09"/></g><g id="LINE-23" data-name="LINE"><line class="cls-1" x1="82" y1="262.45" x2="82" y2="187.89"/></g><g id="LINE-24" data-name="LINE"><line class="cls-1" x1="82" y1="462.71" x2="82" y2="329.39"/></g><g id="LINE-25" data-name="LINE"><line class="cls-1" x1="90.25" y1="599" x2="90.25" y2="574.66"/></g><g id="LINE-26" data-name="LINE"><line class="cls-1" x1="90.25" y1="262.45" x2="90.25" y2="187.89"/></g><g id="LINE-27" data-name="LINE"><line class="cls-1" x1="90.25" y1="464.22" x2="90.25" y2="328.42"/></g><g id="LINE-28" data-name="LINE"><line class="cls-1" x1="98.5" y1="599.48" x2="98.5" y2="579.69"/></g><g id="LINE-29" data-name="LINE"><line class="cls-1" x1="98.5" y1="262.44" x2="98.5" y2="187.89"/></g><g id="LINE-30" data-name="LINE"><line class="cls-1" x1="98.5" y1="469.25" x2="98.5" y2="316.94"/></g><g id="LINE-31" data-name="LINE"><line class="cls-1" x1="106.75" y1="599.95" x2="106.75" y2="583.49"/></g><g id="LINE-32" data-name="LINE"><line class="cls-1" x1="106.75" y1="262.44" x2="106.75" y2="187.89"/></g><g id="LINE-33" data-name="LINE"><line class="cls-1" x1="106.75" y1="513.08" x2="106.75" y2="407.46"/></g><g id="LINE-34" data-name="LINE"><line class="cls-1" x1="106.75" y1="378.96" x2="106.75" y2="325.47"/></g><g id="LINE-35" data-name="LINE"><line class="cls-1" x1="115" y1="600.42" x2="115" y2="586.25"/></g><g id="LINE-36" data-name="LINE"><line class="cls-1" x1="115" y1="262.43" x2="115" y2="187.89"/></g><g id="LINE-37" data-name="LINE"><line class="cls-1" x1="115" y1="528.15" x2="115" y2="407.46"/></g><g id="LINE-38" data-name="LINE"><line class="cls-1" x1="115" y1="378.96" x2="115" y2="329.63"/></g><g id="LINE-39" data-name="LINE"><line class="cls-1" x1="123.25" y1="600.9" x2="123.25" y2="588.06"/></g><g id="LINE-40" data-name="LINE"><line class="cls-1" x1="123.25" y1="136.92" x2="123.25" y2="69.67"/></g><g id="LINE-41" data-name="LINE"><line class="cls-1" x1="123.25" y1="534.95" x2="123.25" y2="417.21"/></g><g id="LINE-42" data-name="LINE"><line class="cls-1" x1="123.25" y1="262.43" x2="123.25" y2="187.89"/></g><g id="LINE-43" data-name="LINE"><line class="cls-1" x1="123.25" y1="369.21" x2="123.25" y2="327.57"/></g><g id="LINE-44" data-name="LINE"><line class="cls-1" x1="131.5" y1="601.37" x2="131.5" y2="589.01"/></g><g id="LINE-45" data-name="LINE"><line class="cls-1" x1="131.5" y1="136.91" x2="131.5" y2="69.67"/></g><g id="LINE-46" data-name="LINE"><line class="cls-1" x1="131.5" y1="538.64" x2="131.5" y2="417.21"/></g><g id="LINE-47" data-name="LINE"><line class="cls-1" x1="131.5" y1="262.42" x2="131.5" y2="187.89"/></g><g id="LINE-48" data-name="LINE"><line class="cls-1" x1="131.5" y1="369.21" x2="131.5" y2="316.93"/></g><g id="LINE-49" data-name="LINE"><line class="cls-1" x1="139.75" y1="601.85" x2="139.75" y2="589.65"/></g><g id="LINE-50" data-name="LINE"><line class="cls-1" x1="139.75" y1="136.9" x2="139.75" y2="69.67"/></g><g id="LINE-51" data-name="LINE"><line class="cls-1" x1="139.75" y1="540.18" x2="139.75" y2="428.05"/></g><g id="LINE-52" data-name="LINE"><line class="cls-1" x1="139.75" y1="262.42" x2="139.75" y2="187.89"/></g><g id="LINE-53" data-name="LINE"><line class="cls-1" x1="139.75" y1="358.37" x2="139.75" y2="326.89"/></g><g id="LINE-54" data-name="LINE"><line class="cls-1" x1="148" y1="602.32" x2="148" y2="590.3"/></g><g id="LINE-55" data-name="LINE"><line class="cls-1" x1="148" y1="136.9" x2="148" y2="69.67"/></g><g id="LINE-56" data-name="LINE"><line class="cls-1" x1="148" y1="540.65" x2="148" y2="428.42"/></g><g id="LINE-57" data-name="LINE"><line class="cls-1" x1="148" y1="262.42" x2="148" y2="187.89"/></g><g id="LINE-58" data-name="LINE"><line class="cls-1" x1="148" y1="358.01" x2="148" y2="329.68"/></g><g id="LINE-59" data-name="LINE"><line class="cls-1" x1="156.25" y1="602.79" x2="156.25" y2="590.95"/></g><g id="LINE-60" data-name="LINE"><line class="cls-1" x1="156.25" y1="136.89" x2="156.25" y2="69.67"/></g><g id="LINE-61" data-name="LINE"><line class="cls-1" x1="156.25" y1="541.3" x2="156.25" y2="427.29"/></g><g id="LINE-62" data-name="LINE"><line class="cls-1" x1="156.25" y1="262.41" x2="156.25" y2="187.9"/></g><g id="LINE-63" data-name="LINE"><line class="cls-1" x1="156.25" y1="359.14" x2="156.25" y2="326.41"/></g><g id="LINE-64" data-name="LINE"><line class="cls-1" x1="164.5" y1="603.27" x2="164.5" y2="591.65"/></g><g id="LINE-65" data-name="LINE"><line class="cls-1" x1="164.5" y1="136.88" x2="164.5" y2="69.67"/></g><g id="LINE-66" data-name="LINE"><line class="cls-1" x1="164.5" y1="541.95" x2="164.5" y2="508.85"/></g><g id="LINE-67" data-name="LINE"><line class="cls-1" x1="164.5" y1="262.41" x2="164.5" y2="187.9"/></g><g id="LINE-68" data-name="LINE"><line class="cls-1" x1="164.5" y1="492.32" x2="164.5" y2="417.21"/></g><g id="LINE-69" data-name="LINE"><line class="cls-1" x1="164.5" y1="369.21" x2="164.5" y2="316.91"/></g><g id="LINE-70" data-name="LINE"><line class="cls-1" x1="172.75" y1="603.74" x2="172.75" y2="591.43"/></g><g id="LINE-71" data-name="LINE"><line class="cls-1" x1="172.75" y1="136.87" x2="172.75" y2="69.67"/></g><g id="LINE-72" data-name="LINE"><line class="cls-1" x1="172.75" y1="542.67" x2="172.75" y2="514.12"/></g><g id="LINE-73" data-name="LINE"><line class="cls-1" x1="172.75" y1="262.4" x2="172.75" y2="187.9"/></g><g id="LINE-74" data-name="LINE"><line class="cls-1" x1="172.75" y1="487.05" x2="172.75" y2="427.22"/></g><g id="LINE-75" data-name="LINE"><line class="cls-1" x1="172.75" y1="359.21" x2="172.75" y2="316.9"/></g><g id="LINE-76" data-name="LINE"><line class="cls-1" x1="181" y1="604.22" x2="181" y2="588.19"/></g><g id="LINE-77" data-name="LINE"><line class="cls-1" x1="181" y1="136.87" x2="181" y2="69.67"/></g><g id="LINE-78" data-name="LINE"><line class="cls-1" x1="181" y1="545.91" x2="181" y2="516.84"/></g><g id="LINE-79" data-name="LINE"><line class="cls-1" x1="181" y1="262.4" x2="181" y2="187.9"/></g><g id="LINE-80" data-name="LINE"><line class="cls-1" x1="181" y1="484.34" x2="181" y2="428.4"/></g><g id="LINE-81" data-name="LINE"><line class="cls-1" x1="181" y1="358.03" x2="181" y2="316.9"/></g><g id="LINE-82" data-name="LINE"><line class="cls-1" x1="189.25" y1="604.69" x2="189.25" y2="579.85"/></g><g id="LINE-83" data-name="LINE"><line class="cls-1" x1="189.25" y1="358.34" x2="189.25" y2="41.24"/></g><g id="LINE-84" data-name="LINE"><line class="cls-1" x1="189.25" y1="554.25" x2="189.25" y2="518.22"/></g><g id="LINE-85" data-name="LINE"><line class="cls-1" x1="189.25" y1="482.96" x2="189.25" y2="428.09"/></g><g id="LINE-86" data-name="LINE"><line class="cls-1" x1="197.5" y1="605.16" x2="197.5" y2="518.58"/></g><g id="LINE-87" data-name="LINE"><line class="cls-1" x1="197.5" y1="360.17" x2="197.5" y2="41.24"/></g><g id="LINE-88" data-name="LINE"><line class="cls-1" x1="197.5" y1="482.6" x2="197.5" y2="426.26"/></g><g id="LINE-89" data-name="LINE"><line class="cls-1" x1="205.75" y1="605.64" x2="205.75" y2="517.98"/></g><g id="LINE-90" data-name="LINE"><line class="cls-1" x1="205.75" y1="369.21" x2="205.75" y2="41.24"/></g><g id="LINE-91" data-name="LINE"><line class="cls-1" x1="205.75" y1="483.2" x2="205.75" y2="417.21"/></g><g id="LINE-92" data-name="LINE"><line class="cls-1" x1="214" y1="606.11" x2="214" y2="516.31"/></g><g id="LINE-93" data-name="LINE"><line class="cls-1" x1="214" y1="369.21" x2="214" y2="41.24"/></g><g id="LINE-94" data-name="LINE"><line class="cls-1" x1="214" y1="484.86" x2="214" y2="417.21"/></g><g id="LINE-95" data-name="LINE"><line class="cls-1" x1="222.25" y1="606.59" x2="222.25" y2="513.16"/></g><g id="LINE-96" data-name="LINE"><line class="cls-1" x1="222.25" y1="378.96" x2="222.25" y2="41.24"/></g><g id="LINE-97" data-name="LINE"><line class="cls-1" x1="222.25" y1="488.02" x2="222.25" y2="407.46"/></g><g id="LINE-98" data-name="LINE"><line class="cls-1" x1="230.5" y1="607.06" x2="230.5" y2="506.48"/></g><g id="LINE-99" data-name="LINE"><line class="cls-1" x1="230.5" y1="494.7" x2="230.5" y2="41.24"/></g><g id="LINE-100" data-name="LINE"><line class="cls-1" x1="238.75" y1="607.53" x2="238.75" y2="41.24"/></g><g id="LINE-101" data-name="LINE"><line class="cls-1" x1="247" y1="595.98" x2="247" y2="41.24"/></g><g id="LINE-102" data-name="LINE"><line class="cls-1" x1="255.25" y1="596.45" x2="255.25" y2="547.58"/></g><g id="LINE-103" data-name="LINE"><line class="cls-1" x1="255.25" y1="249.37" x2="255.25" y2="41.24"/></g><g id="LINE-104" data-name="LINE"><line class="cls-1" x1="255.25" y1="537.89" x2="255.25" y2="220.05"/></g><g id="LINE-105" data-name="LINE"><line class="cls-1" x1="263.5" y1="596.92" x2="263.5" y2="551.71"/></g><g id="LINE-106" data-name="LINE"><line class="cls-1" x1="263.5" y1="249.37" x2="263.5" y2="41.24"/></g><g id="LINE-107" data-name="LINE"><line class="cls-1" x1="263.5" y1="533.76" x2="263.5" y2="220.05"/></g><g id="LINE-108" data-name="LINE"><line class="cls-1" x1="271.75" y1="597.39" x2="271.75" y2="558.29"/></g><g id="LINE-109" data-name="LINE"><line class="cls-1" x1="271.75" y1="468.29" x2="271.75" y2="457.56"/></g><g id="LINE-110" data-name="LINE"><line class="cls-1" x1="271.75" y1="138.43" x2="271.75" y2="93.43"/></g><g id="LINE-111" data-name="LINE"><line class="cls-1" x1="271.75" y1="415.56" x2="271.75" y2="337.56"/></g><g id="LINE-112" data-name="LINE"><line class="cls-1" x1="280" y1="597.85" x2="280" y2="558.29"/></g><g id="LINE-113" data-name="LINE"><line class="cls-1" x1="280" y1="124.98" x2="280" y2="80.24"/></g><g id="LINE-114" data-name="LINE"><line class="cls-1" x1="280" y1="468.29" x2="280" y2="457.56"/></g><g id="LINE-115" data-name="LINE"><line class="cls-1" x1="280" y1="415.56" x2="280" y2="337.56"/></g><g id="LINE-116" data-name="LINE"><line class="cls-1" x1="288.25" y1="598.32" x2="288.25" y2="558.29"/></g><g id="LINE-117" data-name="LINE"><line class="cls-1" x1="288.25" y1="124.98" x2="288.25" y2="80.24"/></g><g id="LINE-118" data-name="LINE"><line class="cls-1" x1="288.25" y1="468.29" x2="288.25" y2="457.56"/></g><g id="LINE-119" data-name="LINE"><line class="cls-1" x1="288.25" y1="415.56" x2="288.25" y2="337.56"/></g><g id="LINE-120" data-name="LINE"><line class="cls-1" x1="296.5" y1="598.79" x2="296.5" y2="558.29"/></g><g id="LINE-121" data-name="LINE"><line class="cls-1" x1="296.5" y1="124.98" x2="296.5" y2="80.24"/></g><g id="LINE-122" data-name="LINE"><line class="cls-1" x1="296.5" y1="468.29" x2="296.5" y2="457.56"/></g><g id="LINE-123" data-name="LINE"><line class="cls-1" x1="296.5" y1="415.56" x2="296.5" y2="337.56"/></g><g id="LINE-124" data-name="LINE"><line class="cls-1" x1="304.75" y1="599.26" x2="304.75" y2="558.29"/></g><g id="LINE-125" data-name="LINE"><line class="cls-1" x1="304.75" y1="124.98" x2="304.75" y2="80.24"/></g><g id="LINE-126" data-name="LINE"><line class="cls-1" x1="304.75" y1="468.29" x2="304.75" y2="457.56"/></g><g id="LINE-127" data-name="LINE"><line class="cls-1" x1="304.75" y1="415.56" x2="304.75" y2="337.56"/></g><g id="LINE-128" data-name="LINE"><line class="cls-1" x1="313" y1="599.73" x2="313" y2="457.56"/></g><g id="LINE-129" data-name="LINE"><line class="cls-1" x1="313" y1="124.98" x2="313" y2="80.24"/></g><g id="LINE-130" data-name="LINE"><line class="cls-1" x1="313" y1="415.56" x2="313" y2="337.56"/></g><g id="LINE-131" data-name="LINE"><line class="cls-1" x1="321.25" y1="316.87" x2="321.25" y2="226.87"/></g><g id="LINE-132" data-name="LINE"><line class="cls-1" x1="329.5" y1="600.69" x2="329.5" y2="534.81"/></g><g id="LINE-133" data-name="LINE"><line class="cls-1" x1="329.5" y1="444.81" x2="329.5" y2="213.69"/></g><g id="LINE-134" data-name="LINE"><line class="cls-1" x1="337.75" y1="601.18" x2="337.75" y2="534.81"/></g><g id="LINE-135" data-name="LINE"><line class="cls-1" x1="337.75" y1="444.81" x2="337.75" y2="213.69"/></g><g id="LINE-136" data-name="LINE"><line class="cls-1" x1="346" y1="613.7" x2="346" y2="602.6"/></g><g id="LINE-137" data-name="LINE"><line class="cls-1" x1="346" y1="444.81" x2="346" y2="213.69"/></g><g id="LINE-138" data-name="LINE"><line class="cls-1" x1="346" y1="579.84" x2="346" y2="534.81"/></g><g id="LINE-139" data-name="LINE"><line class="cls-1" x1="354.25" y1="614.17" x2="354.25" y2="608.22"/></g><g id="LINE-140" data-name="LINE"><line class="cls-1" x1="354.25" y1="567.15" x2="354.25" y2="213.69"/></g><g id="LINE-141" data-name="LINE"><line class="cls-1" x1="362.5" y1="614.65" x2="362.5" y2="608.86"/></g><g id="LINE-142" data-name="LINE"><line class="cls-1" x1="362.5" y1="569.07" x2="362.5" y2="213.69"/></g><g id="LINE-143" data-name="LINE"><line class="cls-1" x1="370.75" y1="615.12" x2="370.75" y2="605.25"/></g><g id="LINE-144" data-name="LINE"><line class="cls-1" x1="370.75" y1="574.86" x2="370.75" y2="213.69"/></g><g id="LINE-145" data-name="LINE"><line class="cls-1" x1="379" y1="615.59" x2="379" y2="595.28"/></g><g id="LINE-146" data-name="LINE"><line class="cls-1" x1="379" y1="580.66" x2="379" y2="213.69"/></g><g id="LINE-147" data-name="LINE"><line class="cls-1" x1="387.25" y1="616.07" x2="387.25" y2="609.95"/></g><g id="LINE-148" data-name="LINE"><line class="cls-1" x1="387.25" y1="594.02" x2="387.25" y2="213.69"/></g><g id="LINE-149" data-name="LINE"><line class="cls-1" x1="395.5" y1="616.54" x2="395.5" y2="610.02"/></g><g id="LINE-150" data-name="LINE"><line class="cls-1" x1="395.5" y1="438.9" x2="395.5" y2="213.69"/></g><g id="LINE-151" data-name="LINE"><line class="cls-1" x1="395.5" y1="593.95" x2="395.5" y2="548.06"/></g><g id="LINE-152" data-name="LINE"><line class="cls-1" x1="403.75" y1="617.02" x2="403.75" y2="549.86"/></g><g id="LINE-153" data-name="LINE"><line class="cls-1" x1="403.75" y1="437.36" x2="403.75" y2="213.69"/></g><g id="LINE-154" data-name="LINE"><line class="cls-1" x1="412" y1="617.49" x2="412" y2="549.86"/></g><g id="LINE-155" data-name="LINE"><line class="cls-1" x1="412" y1="437.36" x2="412" y2="213.71"/></g><g id="LINE-156" data-name="LINE"><line class="cls-1" x1="420.25" y1="617.96" x2="420.25" y2="549.86"/></g><g id="LINE-157" data-name="LINE"><line class="cls-1" x1="420.25" y1="437.36" x2="420.25" y2="399.73"/></g><g id="LINE-158" data-name="LINE"><line class="cls-1" x1="428.5" y1="618.44" x2="428.5" y2="549.86"/></g><g id="LINE-159" data-name="LINE"><line class="cls-1" x1="428.5" y1="437.36" x2="428.5" y2="399.73"/></g><g id="LINE-160" data-name="LINE"><line class="cls-1" x1="436.75" y1="618.91" x2="436.75" y2="549.86"/></g><g id="LINE-161" data-name="LINE"><line class="cls-1" x1="436.75" y1="437.36" x2="436.75" y2="399.73"/></g><g id="LINE-162" data-name="LINE"><line class="cls-1" x1="445" y1="619.39" x2="445" y2="549.86"/></g><g id="LINE-163" data-name="LINE"><line class="cls-1" x1="445" y1="437.36" x2="445" y2="399.73"/></g><g id="LINE-164" data-name="LINE"><line class="cls-1" x1="453.25" y1="619.86" x2="453.25" y2="549.86"/></g><g id="LINE-165" data-name="LINE"><line class="cls-1" x1="453.25" y1="437.36" x2="453.25" y2="399.73"/></g><g id="LINE-166" data-name="LINE"><line class="cls-1" x1="461.5" y1="620.34" x2="461.5" y2="549.86"/></g><g id="LINE-167" data-name="LINE"><line class="cls-1" x1="461.5" y1="437.36" x2="461.5" y2="399.73"/></g><g id="LINE-168" data-name="LINE"><line class="cls-1" x1="469.75" y1="620.81" x2="469.75" y2="549.86"/></g><g id="LINE-169" data-name="LINE"><line class="cls-1" x1="469.75" y1="437.35" x2="469.75" y2="399.73"/></g><g id="LINE-170" data-name="LINE"><line class="cls-1" x1="478" y1="621.28" x2="478" y2="549.86"/></g><g id="LINE-171" data-name="LINE"><line class="cls-1" x1="478" y1="437.35" x2="478" y2="399.73"/></g><g id="LINE-172" data-name="LINE"><line class="cls-1" x1="486.25" y1="621.76" x2="486.25" y2="549.86"/></g><g id="LINE-173" data-name="LINE"><line class="cls-1" x1="486.25" y1="437.35" x2="486.25" y2="399.73"/></g><g id="LINE-174" data-name="LINE"><line class="cls-1" x1="494.5" y1="622.23" x2="494.5" y2="584.36"/></g><g id="LINE-175" data-name="LINE"><line class="cls-1" x1="494.5" y1="402.85" x2="494.5" y2="399.73"/></g><g id="LINE-176" data-name="LINE"><line class="cls-1" x1="494.5" y1="554.36" x2="494.5" y2="549.86"/></g><g id="LINE-177" data-name="LINE"><line class="cls-1" x1="494.5" y1="437.35" x2="494.5" y2="432.85"/></g><g id="LINE-178" data-name="LINE"><line class="cls-1" x1="502.75" y1="622.71" x2="502.75" y2="584.36"/></g><g id="LINE-179" data-name="LINE"><line class="cls-1" x1="502.75" y1="402.85" x2="502.75" y2="399.73"/></g><g id="LINE-180" data-name="LINE"><line class="cls-1" x1="502.75" y1="554.36" x2="502.75" y2="549.85"/></g><g id="LINE-181" data-name="LINE"><line class="cls-1" x1="502.75" y1="437.35" x2="502.75" y2="432.85"/></g><g id="LINE-182" data-name="LINE"><line class="cls-1" x1="511" y1="623.18" x2="511" y2="584.36"/></g><g id="LINE-183" data-name="LINE"><line class="cls-1" x1="511" y1="402.85" x2="511" y2="399.73"/></g><g id="LINE-184" data-name="LINE"><line class="cls-1" x1="511" y1="554.36" x2="511" y2="549.85"/></g><g id="LINE-185" data-name="LINE"><line class="cls-1" x1="511" y1="437.35" x2="511" y2="432.85"/></g><g id="LINE-186" data-name="LINE"><line class="cls-1" x1="519.25" y1="611.62" x2="519.25" y2="549.85"/></g><g id="LINE-187" data-name="LINE"><line class="cls-1" x1="519.25" y1="437.35" x2="519.25" y2="399.73"/></g></g><g id="BATH_FIXTURES" data-name="BATH FIXTURES"><g id="LWPOLYLINE-11" data-name="LWPOLYLINE"><path class="cls-2" d="M89.67,71.11q-.33,8.88-.32,17.77a22.27,22.27,0,0,0,1.75,8.64A14.72,14.72,0,0,0,95,102.87a7.5,7.5,0,0,0,9.82,0,14.49,14.49,0,0,0,3.88-5.35,22.1,22.1,0,0,0,1.76-8.64q0-8.89-.32-17.77" transform="translate(-18.52 -32.5)"/></g><g id="LWPOLYLINE-12" data-name="LWPOLYLINE"><path class="cls-2" d="M110.12,71.11l.37-.18a1.86,1.86,0,0,0,1-1.8c-.1-1.64-.23-3.27-.37-4.9A1.16,1.16,0,0,0,110,63.16H89.79a1.17,1.17,0,0,0-1.17,1.07c-.14,1.63-.26,3.26-.36,4.9a1.86,1.86,0,0,0,1,1.8l.37.18" transform="translate(-18.52 -32.5)"/></g><g id="LWPOLYLINE-13" data-name="LWPOLYLINE"><path class="cls-2" d="M110.09,71.12a24,24,0,0,1-20.24.08" transform="translate(-18.52 -32.5)"/></g><g id="LWPOLYLINE-14" data-name="LWPOLYLINE"><path class="cls-2" d="M358.17,120.68q-.33,8.88-.32,17.77a22.19,22.19,0,0,0,1.76,8.65,14.57,14.57,0,0,0,3.88,5.34,7.5,7.5,0,0,0,9.82,0,14.68,14.68,0,0,0,3.88-5.34,22.36,22.36,0,0,0,1.75-8.65q0-8.88-.32-17.77" transform="translate(-18.52 -32.5)"/></g><g id="ELLIPSE"><path class="cls-2" d="M57.73,125.39c6.63,0,12,8.06,12,18s-5.37,18-12,18-12-8.06-12-18,5.37-18,12-18Z" transform="translate(-18.52 -32.5)"/></g><g id="LINE-188" data-name="LINE"><line class="cls-2" x1="426.56" y1="80.29" x2="426.63" y2="201.74"/></g><g id="LWPOLYLINE-15" data-name="LWPOLYLINE"><path class="cls-2" d="M378.62,120.68l.37-.18a1.86,1.86,0,0,0,1-1.8c-.1-1.63-.22-3.26-.36-4.9a1.18,1.18,0,0,0-1.17-1.07H358.29a1.17,1.17,0,0,0-1.16,1.07c-.14,1.64-.27,3.27-.37,4.9a1.86,1.86,0,0,0,1,1.8l.37.18" transform="translate(-18.52 -32.5)"/></g><g id="LWPOLYLINE-16" data-name="LWPOLYLINE"><path class="cls-2" d="M378.59,120.7a24,24,0,0,1-20.23.07" transform="translate(-18.52 -32.5)"/></g><g id="LINE-189" data-name="LINE"><line class="cls-2" x1="461.13" y1="80.24" x2="461.13" y2="201.74"/></g><g id="ELLIPSE-2" data-name="ELLIPSE"><path class="cls-3" d="M480.56,80.2H474.1c-.07.83-.27,1.4-.5,1.4l-5.31.29h0c-.18,0-.32-1-.31-2.29s.14-2.23.32-2.21h0l5.31.28c.23,0,.43.57.5,1.4h6.46" transform="translate(-18.52 -32.5)"/></g><g id="LWPOLYLINE-17" data-name="LWPOLYLINE"><path class="cls-3" d="M474.8,66.45v3A1.14,1.14,0,0,0,476,70.61a1.21,1.21,0,0,0,.79-.3h3.89V68.62H477.1V66.45a1.15,1.15,0,0,0-2.3,0Z" transform="translate(-18.52 -32.5)"/></g><path class="cls-4" d="M480.67,90.81h-1.08v1.28H478.5a.6.6,0,0,0-.6.6V93h-1.26a.56.56,0,0,0,0,1.12h1.26v.28a.6.6,0,0,0,.6.6h1.09v1.28h1.08" transform="translate(-18.52 -32.5)"/><g id="LWPOLYLINE-18" data-name="LWPOLYLINE"><polyline class="cls-3" points="461.13 86.8 461.13 87.36 467.12 87.36"/></g><g id="LWPOLYLINE-19" data-name="LWPOLYLINE"><polyline class="cls-3" points="467.12 137.8 461.13 137.8 461.13 138.36"/></g><g id="LWPOLYLINE-20" data-name="LWPOLYLINE"><rect class="cls-3" x="461.13" y="87.36" width="1.13" height="50.44"/></g><g id="LWPOLYLINE-21" data-name="LWPOLYLINE"><polyline class="cls-3" points="461.13 195.17 461.13 194.61 467.33 194.61"/></g><g id="LWPOLYLINE-22" data-name="LWPOLYLINE"><polyline class="cls-3" points="467.12 144.17 461.13 144.17 461.13 143.61"/></g><g id="LWPOLYLINE-23" data-name="LWPOLYLINE"><rect class="cls-3" x="461.13" y="144.17" width="1.13" height="50.44"/></g></g><g id="BATH_GLAZING" data-name="BATH GLAZING"><g id="LINE-190" data-name="LINE"><line class="cls-5" x1="370.85" y1="80.24" x2="424.85" y2="80.28"/><line class="cls-5" x1="370.85" y1="79.22" x2="424.85" y2="79.26"/></g></g><g id="RODS"><g id="LINE-191" data-name="LINE"><line class="cls-6" x1="295.65" y1="207.01" x2="295.65" y2="130.94"/></g><g id="LINE-192" data-name="LINE"><line class="cls-6" x1="298.65" y1="207.01" x2="298.65" y2="130.94"/></g><g id="LINE-193" data-name="LINE"><line class="cls-6" x1="297.15" y1="331.95" x2="297.15" y2="213.31"/></g><g id="LINE-194" data-name="LINE"><line class="cls-6" x1="300.15" y1="331.95" x2="300.15" y2="213.31"/></g></g><g id="HANGERS"><g id="LINE-195" data-name="LINE"><line class="cls-7" x1="283.98" y1="174.12" x2="310.98" y2="184.42"/></g><g id="LINE-196" data-name="LINE"><line class="cls-7" x1="283.98" y1="179.84" x2="310.98" y2="190.14"/></g><g id="LINE-197" data-name="LINE"><line class="cls-7" x1="283.98" y1="167.65" x2="310.98" y2="167.65"/></g><g id="LINE-198" data-name="LINE"><line class="cls-7" x1="283.98" y1="171.52" x2="310.98" y2="171.52"/></g><g id="LINE-199" data-name="LINE"><line class="cls-7" x1="283.98" y1="159.91" x2="310.98" y2="159.91"/></g><g id="LINE-200" data-name="LINE"><line class="cls-7" x1="283.98" y1="163.78" x2="310.98" y2="163.78"/></g><g id="LINE-201" data-name="LINE"><line class="cls-7" x1="285.15" y1="231.47" x2="312.15" y2="231.47"/></g><g id="LINE-202" data-name="LINE"><line class="cls-7" x1="285.15" y1="235.34" x2="312.15" y2="235.34"/></g><g id="LINE-203" data-name="LINE"><line class="cls-7" x1="285.15" y1="268.9" x2="312.15" y2="279.2"/></g><g id="LINE-204" data-name="LINE"><line class="cls-7" x1="285.15" y1="274.62" x2="312.15" y2="284.92"/></g><g id="LINE-205" data-name="LINE"><line class="cls-7" x1="285.15" y1="239.21" x2="312.15" y2="239.21"/></g><g id="LINE-206" data-name="LINE"><line class="cls-7" x1="285.15" y1="246.95" x2="312.15" y2="246.95"/></g><g id="LINE-207" data-name="LINE"><line class="cls-7" x1="285.15" y1="262.43" x2="312.15" y2="262.43"/></g><g id="LINE-208" data-name="LINE"><line class="cls-7" x1="285.15" y1="266.3" x2="312.15" y2="266.31"/></g><g id="LINE-209" data-name="LINE"><line class="cls-7" x1="285.15" y1="243.08" x2="312.15" y2="243.08"/></g><g id="LINE-210" data-name="LINE"><line class="cls-7" x1="285.15" y1="246.95" x2="312.15" y2="246.95"/></g><g id="LINE-211" data-name="LINE"><line class="cls-7" x1="285.15" y1="250.82" x2="312.15" y2="250.82"/></g><g id="LINE-212" data-name="LINE"><line class="cls-7" x1="285.15" y1="254.69" x2="312.15" y2="254.69"/></g><g id="LINE-213" data-name="LINE"><line class="cls-7" x1="285.15" y1="262.43" x2="312.15" y2="262.43"/></g><g id="LINE-214" data-name="LINE"><line class="cls-7" x1="285.15" y1="258.56" x2="312.15" y2="258.56"/></g></g><g id="FURN_BACK" data-name="FURN BACK"><g id="LINE-215" data-name="LINE"><line class="cls-8" x1="71.97" y1="323.93" x2="97.47" y2="323.93"/></g><g id="LINE-216" data-name="LINE"><line class="cls-8" x1="103.47" y1="323.93" x2="128.97" y2="323.93"/></g><g id="LINE-217" data-name="LINE"><line class="cls-8" x1="160.47" y1="323.93" x2="134.97" y2="323.93"/></g></g><g id="FURNITURE"><g id="LWPOLYLINE-24" data-name="LWPOLYLINE"><path class="cls-9" d="M142.67,411.46h-18a46.25,46.25,0,0,0,0,28.5h18Z" transform="translate(-18.52 -32.5)"/></g><g id="LWPOLYLINE-25" data-name="LWPOLYLINE"><path class="cls-9" d="M178.67,410.71v-18a46.25,46.25,0,0,0-28.5,0v18Z" transform="translate(-18.52 -32.5)"/></g><g id="LWPOLYLINE-26" data-name="LWPOLYLINE"><path class="cls-9" d="M187.67,410.71v-18a46.25,46.25,0,0,1,28.5,0v18Z" transform="translate(-18.52 -32.5)"/></g><g id="LWPOLYLINE-27" data-name="LWPOLYLINE"><path class="cls-9" d="M178.67,440.71v18a46.25,46.25,0,0,1-28.5,0v-18Z" transform="translate(-18.52 -32.5)"/></g><g id="LWPOLYLINE-28" data-name="LWPOLYLINE"><path class="cls-9" d="M187.67,440.71v18a46.25,46.25,0,0,0,28.5,0v-18Z" transform="translate(-18.52 -32.5)"/></g><g id="LWPOLYLINE-29" data-name="LWPOLYLINE"><path class="cls-9" d="M223.67,411.46h18a46.25,46.25,0,0,1,0,28.5h-18Z" transform="translate(-18.52 -32.5)"/></g><g id="CIRCLE"><path class="cls-9" d="M418.1,630.62a9,9,0,1,1-12-4.27,9,9,0,0,1,12,4.27Z" transform="translate(-18.52 -32.5)"/></g><g id="LWPOLYLINE-30" data-name="LWPOLYLINE"><rect class="cls-9" x="322.23" y="444.81" width="27" height="90"/></g><g id="LWPOLYLINE-31" data-name="LWPOLYLINE"><rect class="cls-9" x="247.75" y="193.97" width="21" height="75"/></g><g id="LWPOLYLINE-32" data-name="LWPOLYLINE"><rect class="cls-9" x="20.49" y="464.47" width="27" height="90"/></g><g id="CIRCLE-2" data-name="CIRCLE"><path class="cls-9" d="M267.7,288.23a9,9,0,1,1,9,9,9,9,0,0,1-9-9Z" transform="translate(-18.52 -32.5)"/></g><g id="LINE-218" data-name="LINE"><line class="cls-9" x1="249.19" y1="255.73" x2="267.19" y2="255.73"/></g><g id="ARC"><path class="cls-9" d="M127.83,440a43.25,43.25,0,0,1,0-28.5" transform="translate(-18.52 -32.5)"/></g><g id="ARC-2" data-name="ARC"><path class="cls-9" d="M238.5,440a43.25,43.25,0,0,0,0-28.5" transform="translate(-18.52 -32.5)"/></g><g id="ARC-3" data-name="ARC"><path class="cls-9" d="M150.17,395.88a43.25,43.25,0,0,1,28.5,0" transform="translate(-18.52 -32.5)"/></g><g id="ARC-4" data-name="ARC"><path class="cls-9" d="M216.17,395.88a43.25,43.25,0,0,0-28.5,0" transform="translate(-18.52 -32.5)"/></g><g id="LWPOLYLINE-33" data-name="LWPOLYLINE"><rect class="cls-9" x="493.82" y="554.36" width="24" height="30"/></g><g id="CIRCLE-3" data-name="CIRCLE"><path class="cls-9" d="M516.68,601.9a7.5,7.5,0,1,1,7.5,7.5,7.5,7.5,0,0,1-7.5-7.5Z" transform="translate(-18.52 -32.5)"/></g><g id="ARC-5" data-name="ARC"><path class="cls-9" d="M150.17,455.55a43.25,43.25,0,0,0,28.5,0" transform="translate(-18.52 -32.5)"/></g><g id="ARC-6" data-name="ARC"><path class="cls-9" d="M216.17,455.55a43.25,43.25,0,0,1-28.5,0" transform="translate(-18.52 -32.5)"/></g><g id="LINE-219" data-name="LINE"><line class="cls-9" x1="474.23" y1="437.36" x2="474.23" y2="549.86"/></g><g id="LWPOLYLINE-34" data-name="LWPOLYLINE"><rect class="cls-9" x="493.82" y="402.85" width="24" height="30"/></g><g id="LWPOLYLINE-35" data-name="LWPOLYLINE"><path class="cls-9" d="M536.25,582.35H420a4.3,4.3,0,0,1-3.71-4.34V473.9a3.9,3.9,0,0,1,3.72-4H536.33" transform="translate(-18.52 -32.5)"/></g><g id="LINE-220" data-name="LINE"><line class="cls-9" x1="498.16" y1="569.36" x2="513.16" y2="569.36"/></g><g id="CIRCLE-4" data-name="CIRCLE"><path class="cls-9" d="M516.68,450.3a7.5,7.5,0,1,1,7.5,7.5,7.5,7.5,0,0,1-7.5-7.5Z" transform="translate(-18.52 -32.5)"/></g><g id="LINE-221" data-name="LINE"><line class="cls-9" x1="505.82" y1="576.91" x2="505.82" y2="561.91"/></g><g id="LINE-222" data-name="LINE"><line class="cls-9" x1="498.16" y1="417.85" x2="513.16" y2="417.85"/></g><g id="LINE-223" data-name="LINE"><line class="cls-9" x1="505.82" y1="410.31" x2="505.82" y2="425.3"/></g><g id="LWPOLYLINE-36" data-name="LWPOLYLINE"><polyline class="cls-9" points="492.23 494.92 514.77 494.92 514.77 547.42 492.23 547.42"/></g><g id="LWPOLYLINE-37" data-name="LWPOLYLINE"><polyline class="cls-9" points="492.23 492.29 514.77 492.29 514.77 439.79 492.23 439.79"/></g><g id="LWPOLYLINE-38" data-name="LWPOLYLINE"><rect class="cls-9" x="517.77" y="437.35" width="6" height="112.5"/></g><g id="LINE-224" data-name="LINE"><line class="cls-9" x1="492.23" y1="437.36" x2="492.23" y2="549.86"/></g><g id="LINE-225" data-name="LINE"><line class="cls-9" x1="258.19" y1="246.73" x2="258.19" y2="264.73"/></g><g id="LWPOLYLINE-39" data-name="LWPOLYLINE"><path class="cls-9" d="M161.67,572.77l24.68,1.93a25.77,25.77,0,0,1,4.29.35,24.85,24.85,0,0,1-8.32,49l-33.66-2.64-.23,0a81,81,0,0,1-74.16-87.3l1.28-15.73c0-.32,0-.64.08-1a24.76,24.76,0,0,1,49.25,5.12l-.31,6.75a36.9,36.9,0,0,0,29.7,42.91,37.36,37.36,0,0,0,7.39.59Z" transform="translate(-18.52 -32.5)"/></g><g id="LWPOLYLINE-40" data-name="LWPOLYLINE"><path class="cls-9" d="M170,623.11a4.5,4.5,0,0,0,.73-9l-12.33-1c-1.21,0-2.42-.08-3.63-.16a76.57,76.57,0,0,1-71.23-81.56l1-12.33a4.5,4.5,0,1,0-9-.73" transform="translate(-18.52 -32.5)"/></g><g id="ELLIPSE-3" data-name="ELLIPSE"><path class="cls-9" d="M251,533.09c0-10-16.12-18-36-18s-36,8-36,18,16.12,18,36,18,36-8.06,36-18Z" transform="translate(-18.52 -32.5)"/></g><g id="LWPOLYLINE-41" data-name="LWPOLYLINE"><rect class="cls-9" x="115.15" y="369.21" width="99" height="48"/></g><g id="LWPOLYLINE-42" data-name="LWPOLYLINE"><path class="cls-9" d="M363.08,614.55l10.68-16.42,0,0a1.33,1.33,0,0,1,1.84-.32l28,19.67,0,0a1.32,1.32,0,0,1,.25,1.85L392.1,634.94" transform="translate(-18.52 -32.5)"/></g><g id="LWPOLYLINE-43" data-name="LWPOLYLINE"><line class="cls-9" x1="348.99" y1="584.93" x2="352.8" y2="579.07"/></g><g id="LWPOLYLINE-44" data-name="LWPOLYLINE"><line class="cls-9" x1="373.6" y1="593.67" x2="369.37" y2="599.25"/></g><g id="ARC-7" data-name="ARC"><path class="cls-9" d="M363.63,613.7a17.77,17.77,0,0,0,29.08,20.43" transform="translate(-18.52 -32.5)"/></g><g id="ARC-8" data-name="ARC"><path class="cls-9" d="M368,616.7a12.49,12.49,0,0,0,20.43,14.36" transform="translate(-18.52 -32.5)"/></g><g id="ARC-9" data-name="ARC"><path class="cls-9" d="M371.32,611.56a6.89,6.89,0,0,0-1.4-7.53" transform="translate(-18.52 -32.5)"/></g><g id="ARC-10" data-name="ARC"><path class="cls-9" d="M399.68,624.93a6.93,6.93,0,0,0-7.57,1.24" transform="translate(-18.52 -32.5)"/></g><g id="ARC-11" data-name="ARC"><path class="cls-9" d="M90.49,356.43a12.75,12.75,0,0,0,25.5,0" transform="translate(-18.52 -32.5)"/></g><g id="ARC-12" data-name="ARC"><path class="cls-9" d="M122,356.43a12.75,12.75,0,1,0,25.5,0" transform="translate(-18.52 -32.5)"/></g><g id="ARC-13" data-name="ARC"><path class="cls-9" d="M179,356.43a12.75,12.75,0,1,1-25.5,0" transform="translate(-18.52 -32.5)"/></g><g id="CIRCLE-5" data-name="CIRCLE"><path class="cls-9" d="M272.06,575.1a9,9,0,1,1,9,9,9,9,0,0,1-9-9Z" transform="translate(-18.52 -32.5)"/></g><g id="LWPOLYLINE-45" data-name="LWPOLYLINE"><path class="cls-9" d="M289,506.65v-6h39a1.5,1.5,0,0,1,1.5,1.5v70.5h-6v18H283v-84h6" transform="translate(-18.52 -32.5)"/></g><g id="LWPOLYLINE-46" data-name="LWPOLYLINE"><polyline class="cls-10" points="270.48 474.16 304.98 474.16 304.98 540.16"/></g><g id="LWPOLYLINE-47" data-name="LWPOLYLINE"><rect class="cls-9" x="264.48" y="474.16" width="40.5" height="84"/></g></g><g id="KITCHEN"><g id="LWPOLYLINE-48" data-name="LWPOLYLINE"><rect class="cls-11" x="49.29" y="260.93" width="133.85" height="63"/></g><g id="LWPOLYLINE-49" data-name="LWPOLYLINE"><polyline class="cls-11" points="174.38 146.95 174.38 193.9 16.77 193.88 16.77 146.95"/></g><g id="LINE-226" data-name="LINE"><line class="cls-11" x1="146.9" y1="151.89" x2="146.9" y2="193.9"/></g><g id="LINE-227" data-name="LINE"><line class="cls-11" x1="99.31" y1="151.88" x2="99.31" y2="193.88"/></g><path class="cls-4" d="M128.8,203a2.38,2.38,0,1,1,2.38-2.37A2.37,2.37,0,0,1,128.8,203Z" transform="translate(-18.52 -32.5)"/><path class="cls-4" d="M146.48,203a2.38,2.38,0,1,1,2.37-2.37A2.37,2.37,0,0,1,146.48,203Z" transform="translate(-18.52 -32.5)"/><path class="cls-4" d="M128.8,218.27a2.38,2.38,0,1,1,2.38-2.38A2.37,2.37,0,0,1,128.8,218.27Z" transform="translate(-18.52 -32.5)"/><path class="cls-4" d="M146.48,218.27a2.38,2.38,0,1,1,2.37-2.38A2.37,2.37,0,0,1,146.48,218.27Z" transform="translate(-18.52 -32.5)"/><line class="cls-4" x1="119.04" y1="191" x2="101.52" y2="175.8"/><g id="LINE-228" data-name="LINE"><line class="cls-4" x1="119.04" y1="191.76" x2="119.04" y2="159.69"/></g><rect class="cls-4" x="101.52" y="160.44" width="35.35" height="30.56"/><line class="cls-4" x1="101.52" y1="175.8" x2="136.87" y2="175.8"/><g id="CIRCLE-6" data-name="CIRCLE"><path class="cls-4" d="M158.85,206.44a1.37,1.37,0,1,1,1.37,1.37,1.37,1.37,0,0,1-1.37-1.37Z" transform="translate(-18.52 -32.5)"/></g><g id="CIRCLE-7" data-name="CIRCLE"><path class="cls-4" d="M158.85,211a1.37,1.37,0,1,1,1.37,1.37,1.37,1.37,0,0,1-1.37-1.37Z" transform="translate(-18.52 -32.5)"/></g><g id="CIRCLE-8" data-name="CIRCLE"><path class="cls-4" d="M158.85,215.65a1.37,1.37,0,1,1,1.37,1.37,1.37,1.37,0,0,1-1.37-1.37Z" transform="translate(-18.52 -32.5)"/></g><g id="CIRCLE-9" data-name="CIRCLE"><path class="cls-4" d="M158.85,220.05a1.37,1.37,0,1,1,1.37,1.37,1.36,1.36,0,0,1-1.37-1.37Z" transform="translate(-18.52 -32.5)"/></g><rect class="cls-4" x="100.29" y="159.69" width="44.99" height="32.07"/><line class="cls-4" x1="101.52" y1="191" x2="119.04" y2="175.8"/><line class="cls-4" x1="136.87" y1="160.44" x2="119.04" y2="175.8"/><line class="cls-4" x1="119.04" y1="160.44" x2="136.87" y2="175.8"/><line class="cls-4" x1="101.52" y1="160.44" x2="119.04" y2="175.8"/><line class="cls-4" x1="101.52" y1="175.8" x2="119.04" y2="160.44"/><line class="cls-4" x1="136.87" y1="191" x2="119.04" y2="175.8"/><line class="cls-4" x1="136.87" y1="175.8" x2="119.04" y2="191"/></g><g id="APPLIANCES"><g id="LWPOLYLINE-50" data-name="LWPOLYLINE"><rect class="cls-5" x="129.81" y="24.8" width="35.25" height="33.75"/></g><g id="LWPOLYLINE-51" data-name="LWPOLYLINE"><polyline class="cls-5" points="136 58.55 136 59.67 158.88 59.67 158.88 58.55"/></g><g id="LINE-229" data-name="LINE"><line class="cls-12" x1="180.27" y1="294.63" x2="180.27" y2="260.93"/></g><g id="LINE-230" data-name="LINE"><line class="cls-12" x1="144.93" y1="294.63" x2="144.93" y2="260.93"/></g><g id="LINE-231" data-name="LINE"><line class="cls-12" x1="144.93" y1="294.63" x2="180.27" y2="294.63"/></g><line class="cls-11" x1="63.23" y1="151.89" x2="63.23" y2="193.72"/></g><g id="SINKS"><g id="CIRCLE-10" data-name="CIRCLE"><path class="cls-7" d="M55.48,143.39a1.5,1.5,0,1,1,1.5,1.5,1.5,1.5,0,0,1-1.5-1.5Z" transform="translate(-18.52 -32.5)"/></g><g id="LWPOLYLINE-52" data-name="LWPOLYLINE"><rect class="cls-7" x="24.9" y="113.45" width="0.38" height="3.75"/></g><g id="LWPOLYLINE-53" data-name="LWPOLYLINE"><rect class="cls-7" x="24.9" y="108.95" width="0.38" height="3.75"/></g><g id="LWPOLYLINE-54" data-name="LWPOLYLINE"><rect class="cls-7" x="24.9" y="104.45" width="0.38" height="3.75"/></g><g id="LWPOLYLINE-55" data-name="LWPOLYLINE"><polyline class="cls-13" points="25.27 116.61 29.02 116.61 29.02 114.05 25.27 114.05"/></g><g id="LWPOLYLINE-56" data-name="LWPOLYLINE"><polyline class="cls-13" points="25.27 105.05 29.02 105.05 29.02 107.61 25.27 107.61"/></g><g id="LINE-232" data-name="LINE"><polyline class="cls-13" points="25.03 111.35 37.27 111.35 37.27 110.3 25.09 110.3"/></g><g id="ELLIPSE-4" data-name="ELLIPSE"><path class="cls-7" d="M57.73,130.27c5,0,9,5.88,9,13.12s-4,13.13-9,13.13-9-5.88-9-13.13,4-13.12,9-13.12Z" transform="translate(-18.52 -32.5)"/></g><g id="SPLINE"><path class="cls-7" d="M467.37,164.51h.17l.06,0,.1-.06.05,0,0,0,.07-.09a.53.53,0,0,0,.06-.1l0-.06s0,0,0-.05a.49.49,0,0,0,0-.12" transform="translate(-18.52 -32.5)"/></g><g id="SPLINE-2" data-name="SPLINE"><path class="cls-7" d="M448.84,163.92a.49.49,0,0,0,0,.12s0,0,0,.05l0,.06a.53.53,0,0,0,.06.1l0,.05s0,0,0,0l.09.07.1.06.05,0h.18" transform="translate(-18.52 -32.5)"/></g><g id="SPLINE-3" data-name="SPLINE"><path class="cls-7" d="M449.43,135.26h-.17l-.06,0-.1.06-.05,0s0,0,0,0l-.07.09a.53.53,0,0,0-.06.1s0,0,0,.06,0,0,0,0a.49.49,0,0,0,0,.12" transform="translate(-18.52 -32.5)"/></g><g id="SPLINE-4" data-name="SPLINE"><path class="cls-7" d="M468,135.85a.49.49,0,0,0,0-.12s0,0,0,0,0,0,0-.06a.53.53,0,0,0-.06-.1l0-.05,0,0-.09-.07-.1-.06-.05,0h-.18" transform="translate(-18.52 -32.5)"/></g><g id="ELLIPSE-5" data-name="ELLIPSE"><path class="cls-7" d="M467.37,135.26h0" transform="translate(-18.52 -32.5)"/></g><g id="ELLIPSE-6" data-name="ELLIPSE"><path class="cls-7" d="M449.47,135.26h0" transform="translate(-18.52 -32.5)"/></g><g id="LINE-233" data-name="LINE"><line class="cls-7" x1="448.81" y1="102.76" x2="430.95" y2="102.76"/></g><g id="ELLIPSE-7" data-name="ELLIPSE"><path class="cls-7" d="M467.33,164.51h0" transform="translate(-18.52 -32.5)"/></g><g id="LINE-234" data-name="LINE"><line class="cls-7" x1="448.81" y1="132.01" x2="430.95" y2="132.01"/></g><g id="ELLIPSE-8" data-name="ELLIPSE"><path class="cls-7" d="M449.43,164.51h0" transform="translate(-18.52 -32.5)"/></g><g id="LINE-235" data-name="LINE"><line class="cls-7" x1="430.32" y1="131.38" x2="430.32" y2="103.4"/></g><g id="ELLIPSE-9" data-name="ELLIPSE"><path class="cls-7" d="M468,163.92v0" transform="translate(-18.52 -32.5)"/></g><g id="ELLIPSE-10" data-name="ELLIPSE"><path class="cls-7" d="M468,135.89v0" transform="translate(-18.52 -32.5)"/></g><g id="LINE-236" data-name="LINE"><line class="cls-7" x1="449.44" y1="131.38" x2="449.44" y2="103.4"/></g><g id="CIRCLE-11" data-name="CIRCLE"><path class="cls-7" d="M457.08,149.89a1.32,1.32,0,1,1,1.32,1.31,1.32,1.32,0,0,1-1.32-1.31Z" transform="translate(-18.52 -32.5)"/></g><g id="CIRCLE-12" data-name="CIRCLE"><path class="cls-7" d="M456.49,149.89a1.91,1.91,0,1,1,1.91,1.91,1.91,1.91,0,0,1-1.91-1.91Z" transform="translate(-18.52 -32.5)"/></g><g id="LWPOLYLINE-57" data-name="LWPOLYLINE"><polyline class="cls-7" points="453.72 118.51 453.72 118.98 456.91 118.98 456.91 115.79 453.72 115.79 453.72 116.26"/></g><g id="LWPOLYLINE-58" data-name="LWPOLYLINE"><rect class="cls-13" x="443.5" y="116.26" width="12" height="2.25"/></g><g id="LWPOLYLINE-59" data-name="LWPOLYLINE"><rect class="cls-7" x="453.72" y="109.79" width="3.19" height="3.19"/></g><g id="LWPOLYLINE-60" data-name="LWPOLYLINE"><rect class="cls-7" x="453.72" y="121.79" width="3.19" height="3.19"/></g><g id="LWPOLYLINE-61" data-name="LWPOLYLINE"><rect class="cls-7" x="454.9" y="121.79" width="0.83" height="3.19"/></g><g id="LWPOLYLINE-62" data-name="LWPOLYLINE"><rect class="cls-7" x="454.9" y="109.79" width="0.83" height="3.19"/></g><g id="SPLINE-5" data-name="SPLINE"><path class="cls-7" d="M467.37,188.51h.17l.06,0,.1.06.05,0s0,0,0,0l.07.09a.53.53,0,0,1,.06.1s0,0,0,.06,0,0,0,0a.49.49,0,0,1,0,.12" transform="translate(-18.52 -32.5)"/></g><g id="SPLINE-6" data-name="SPLINE"><path class="cls-7" d="M448.84,189.1a.49.49,0,0,1,0-.12s0,0,0,0,0,0,0-.06a.53.53,0,0,1,.06-.1l0-.05,0,0,.09-.07.1-.06.05,0h.18" transform="translate(-18.52 -32.5)"/></g><g id="SPLINE-7" data-name="SPLINE"><path class="cls-7" d="M449.43,217.76h-.17l-.06,0-.1-.06-.05,0,0,0-.07-.09a.53.53,0,0,1-.06-.1l0-.06s0,0,0-.05a.49.49,0,0,1,0-.12" transform="translate(-18.52 -32.5)"/></g><g id="SPLINE-8" data-name="SPLINE"><path class="cls-7" d="M468,217.17a.49.49,0,0,1,0,.12s0,0,0,.05l0,.06a.53.53,0,0,1-.06.1l0,.05s0,0,0,0l-.09.07-.1.06-.05,0h-.18" transform="translate(-18.52 -32.5)"/></g><g id="ELLIPSE-11" data-name="ELLIPSE"><path class="cls-7" d="M467.37,217.76h0" transform="translate(-18.52 -32.5)"/></g><g id="ELLIPSE-12" data-name="ELLIPSE"><path class="cls-7" d="M449.47,217.76h0" transform="translate(-18.52 -32.5)"/></g><g id="LINE-237" data-name="LINE"><line class="cls-7" x1="448.81" y1="185.26" x2="430.95" y2="185.26"/></g><g id="ELLIPSE-13" data-name="ELLIPSE"><path class="cls-7" d="M467.33,188.51h0" transform="translate(-18.52 -32.5)"/></g><g id="LINE-238" data-name="LINE"><line class="cls-7" x1="448.81" y1="156.01" x2="430.95" y2="156.01"/></g><g id="ELLIPSE-14" data-name="ELLIPSE"><path class="cls-7" d="M449.43,188.51h0" transform="translate(-18.52 -32.5)"/></g><g id="LINE-239" data-name="LINE"><line class="cls-7" x1="430.32" y1="156.65" x2="430.32" y2="184.63"/></g><g id="ELLIPSE-15" data-name="ELLIPSE"><path class="cls-7" d="M468,189.1v0" transform="translate(-18.52 -32.5)"/></g><g id="ELLIPSE-16" data-name="ELLIPSE"><path class="cls-7" d="M468,217.13v0" transform="translate(-18.52 -32.5)"/></g><g id="LINE-240" data-name="LINE"><line class="cls-7" x1="449.44" y1="156.65" x2="449.44" y2="184.63"/></g><g id="CIRCLE-13" data-name="CIRCLE"><path class="cls-7" d="M457.08,203.14a1.32,1.32,0,1,1,1.32,1.31,1.32,1.32,0,0,1-1.32-1.31Z" transform="translate(-18.52 -32.5)"/></g><g id="CIRCLE-14" data-name="CIRCLE"><path class="cls-7" d="M456.49,203.14a1.91,1.91,0,1,1,1.91,1.91,1.91,1.91,0,0,1-1.91-1.91Z" transform="translate(-18.52 -32.5)"/></g><g id="LWPOLYLINE-63" data-name="LWPOLYLINE"><polyline class="cls-7" points="453.72 169.51 453.72 169.04 456.91 169.04 456.91 172.23 453.72 172.23 453.72 171.76"/></g><g id="LWPOLYLINE-64" data-name="LWPOLYLINE"><rect class="cls-13" x="443.5" y="169.51" width="12" height="2.25"/></g><g id="LWPOLYLINE-65" data-name="LWPOLYLINE"><rect class="cls-7" x="453.72" y="175.04" width="3.19" height="3.19"/></g><g id="LWPOLYLINE-66" data-name="LWPOLYLINE"><rect class="cls-7" x="453.72" y="163.04" width="3.19" height="3.19"/></g><g id="LWPOLYLINE-67" data-name="LWPOLYLINE"><rect class="cls-7" x="454.9" y="163.04" width="0.83" height="3.19"/></g><g id="LWPOLYLINE-68" data-name="LWPOLYLINE"><rect class="cls-7" x="454.9" y="175.04" width="0.83" height="3.19"/></g><g id="LWPOLYLINE-69" data-name="LWPOLYLINE"><rect class="cls-7" x="112.77" y="291.09" width="1.69" height="3"/></g><g id="LWPOLYLINE-70" data-name="LWPOLYLINE"><polyline class="cls-7" points="112.77 291.28 112.3 291.28 112.3 293.9 112.77 293.9"/></g><g id="LWPOLYLINE-71" data-name="LWPOLYLINE"><polyline class="cls-7" points="114.46 293.9 114.93 293.9 114.93 291.28 114.46 291.28"/></g><g id="LINE-241" data-name="LINE"><line class="cls-7" x1="114.46" y1="291.48" x2="112.77" y2="291.48"/></g><g id="CIRCLE-15" data-name="CIRCLE"><path class="cls-7" d="M144.13,326.22a1.13,1.13,0,1,0,0-2.25,1.13,1.13,0,0,0,0,2.25Z" transform="translate(-18.52 -32.5)"/></g><g id="LWPOLYLINE-72" data-name="LWPOLYLINE"><polyline class="cls-7" points="118.86 291.28 118.3 291.28 118.3 293.9 120.93 293.9 120.93 291.28 120.36 291.28"/></g><g id="LWPOLYLINE-73" data-name="LWPOLYLINE"><polyline class="cls-7" points="125.33 291.28 124.3 291.28 124.3 293.9 126.93 293.9 126.93 291.28 125.89 291.28"/></g><g id="LWPOLYLINE-74" data-name="LWPOLYLINE"><polyline class="cls-7" points="125.33 291.5 125.33 289.69 125.89 289.69 125.89 291.5"/></g><rect class="cls-7" x="151.84" y="322.92" width="4.33" height="4.31" transform="translate(-189.59 446.59) rotate(-90)"/><g id="LWPOLYLINE-75" data-name="LWPOLYLINE"><rect class="cls-7" x="118.86" y="279.84" width="1.5" height="13.5"/></g><g id="LWPOLYLINE-76" data-name="LWPOLYLINE"><polyline class="cls-7" points="118.86 289.59 97.11 289.59 97.11 264.09 142.11 264.09 142.11 289.59 120.36 289.59"/></g><rect class="cls-7" x="154.49" y="324.47" width="0.8" height="1.19" transform="translate(-188.69 447.46) rotate(-90)"/><line class="cls-7" x1="137.28" y1="293.09" x2="137.28" y2="292.05"/><rect class="cls-13" x="146.96" y="318.73" width="12.16" height="1.7" transform="translate(-185.06 440.12) rotate(-90)"/></g><g id="SILLS"><g id="LINE-242" data-name="LINE"><line class="cls-14" x1="70.01" y1="620.11" x2="524.05" y2="646.25"/></g><line class="cls-14" x1="523.27" y1="624.31" x2="69.12" y2="597.74"/></g><g id="WINDOW_GLAZING" data-name="WINDOW GLAZING"><g id="LINE-243" data-name="LINE"><line class="cls-15" x1="348.65" y1="622.06" x2="405.41" y2="625.43"/></g><g id="LINE-244" data-name="LINE"><line class="cls-15" x1="405.32" y1="627" x2="348.55" y2="623.63"/></g><g id="LINE-245" data-name="LINE"><line class="cls-15" x1="449.05" y1="627.8" x2="505.82" y2="631.16"/></g><g id="LINE-246" data-name="LINE"><line class="cls-15" x1="505.72" y1="632.73" x2="448.96" y2="629.36"/></g><g id="LINE-247" data-name="LINE"><line class="cls-15" x1="79.13" y1="606.49" x2="135.89" y2="609.85"/></g><g id="LINE-248" data-name="LINE"><line class="cls-15" x1="135.8" y1="611.42" x2="79.03" y2="608.05"/></g><g id="LINE-249" data-name="LINE"><line class="cls-15" x1="179.53" y1="612.22" x2="236.3" y2="615.59"/></g><g id="LINE-250" data-name="LINE"><line class="cls-15" x1="236.2" y1="617.15" x2="179.44" y2="613.78"/></g></g><g id="MULLIONS"><g id="LWPOLYLINE-77" data-name="LWPOLYLINE"><rect class="cls-6" x="87.7" y="637.58" width="8.62" height="3.56" transform="translate(-570.25 660.28) rotate(-86.55)"/></g><g id="LWPOLYLINE-78" data-name="LWPOLYLINE"><rect class="cls-6" x="94.44" y="637.29" width="2.62" height="3.94" transform="translate(-566.62 663.92) rotate(-86.55)"/></g><g id="LWPOLYLINE-79" data-name="LWPOLYLINE"><line class="cls-14" x1="179.51" y1="612.29" x2="179.46" y2="613.04"/></g><line class="cls-5" x1="518.65" y1="657.8" x2="54.06" y2="630.99"/><g id="LINE-251" data-name="LINE"><line class="cls-6" x1="142.64" y1="615.42" x2="74.89" y2="611.34"/></g><g id="LINE-252" data-name="LINE"><line class="cls-6" x1="142.64" y1="606.75" x2="74.89" y2="602.67"/></g><g id="LWPOLYLINE-80" data-name="LWPOLYLINE"><rect class="cls-6" x="87.58" y="637.64" width="8.62" height="3.56" transform="translate(-570.42 660.22) rotate(-86.55)"/></g><g id="LWPOLYLINE-81" data-name="LWPOLYLINE"><rect class="cls-6" x="155.84" y="641.72" width="8.62" height="3.56" transform="translate(-510.33 732.19) rotate(-86.55)"/></g><g id="LWPOLYLINE-82" data-name="LWPOLYLINE"><rect class="cls-6" x="94.32" y="637.35" width="2.62" height="3.94" transform="translate(-566.79 663.86) rotate(-86.55)"/></g><g id="LWPOLYLINE-83" data-name="LWPOLYLINE"><rect class="cls-6" x="155.1" y="641.06" width="2.62" height="3.94" transform="translate(-513.38 728.01) rotate(-86.55)"/></g><g id="LINE-253" data-name="LINE"><line class="cls-6" x1="243.05" y1="621.15" x2="175.3" y2="617.07"/></g><g id="LINE-254" data-name="LINE"><line class="cls-6" x1="243.05" y1="612.48" x2="175.3" y2="608.4"/></g><g id="LWPOLYLINE-84" data-name="LWPOLYLINE"><rect class="cls-6" x="187.99" y="643.37" width="8.62" height="3.56" transform="translate(-481.77 765.83) rotate(-86.55)"/></g><g id="LWPOLYLINE-85" data-name="LWPOLYLINE"><rect class="cls-6" x="256.24" y="647.45" width="8.62" height="3.56" transform="translate(-421.68 837.8) rotate(-86.55)"/></g><g id="LWPOLYLINE-86" data-name="LWPOLYLINE"><rect class="cls-6" x="194.73" y="643.08" width="2.62" height="3.94" transform="translate(-478.14 769.47) rotate(-86.55)"/></g><g id="LWPOLYLINE-87" data-name="LWPOLYLINE"><rect class="cls-6" x="255.5" y="646.8" width="2.62" height="3.94" transform="translate(-424.73 833.63) rotate(-86.55)"/></g><g id="LINE-255" data-name="LINE"><line class="cls-6" x1="412.16" y1="630.99" x2="344.41" y2="626.91"/></g><g id="LINE-256" data-name="LINE"><line class="cls-6" x1="412.16" y1="622.32" x2="344.41" y2="618.24"/></g><g id="LWPOLYLINE-88" data-name="LWPOLYLINE"><rect class="cls-6" x="357.1" y="653.22" width="8.62" height="3.56" transform="translate(-332.64 943.9) rotate(-86.55)"/></g><g id="LWPOLYLINE-89" data-name="LWPOLYLINE"><rect class="cls-6" x="425.36" y="657.3" width="8.62" height="3.56" transform="translate(-272.56 1015.87) rotate(-86.55)"/></g><g id="LWPOLYLINE-90" data-name="LWPOLYLINE"><rect class="cls-6" x="363.84" y="652.92" width="2.62" height="3.94" transform="translate(-329.02 947.53) rotate(-86.55)"/></g><g id="LWPOLYLINE-91" data-name="LWPOLYLINE"><rect class="cls-6" x="424.62" y="656.64" width="2.62" height="3.94" transform="translate(-275.61 1011.69) rotate(-86.55)"/></g><g id="LINE-257" data-name="LINE"><line class="cls-6" x1="512.19" y1="636.72" x2="444.44" y2="632.65"/></g><g id="LINE-258" data-name="LINE"><line class="cls-6" x1="512.57" y1="628.05" x2="444.82" y2="623.97"/></g><g id="LWPOLYLINE-92" data-name="LWPOLYLINE"><rect class="cls-6" x="457.51" y="658.95" width="8.62" height="3.56" transform="translate(-243.99 1049.51) rotate(-86.55)"/></g><g id="LWPOLYLINE-93" data-name="LWPOLYLINE"><rect class="cls-6" x="525.76" y="663.03" width="8.62" height="3.56" transform="translate(-183.91 1121.48) rotate(-86.55)"/></g><g id="LWPOLYLINE-94" data-name="LWPOLYLINE"><rect class="cls-6" x="464.25" y="658.65" width="2.62" height="3.94" transform="translate(-240.37 1053.14) rotate(-86.55)"/></g><g id="LWPOLYLINE-95" data-name="LWPOLYLINE"><rect class="cls-6" x="525.02" y="662.37" width="2.62" height="3.94" transform="translate(-186.96 1117.3) rotate(-86.55)"/></g></g><g id="DOOR_SWING" data-name="DOOR SWING"><g id="ARC-14" data-name="ARC"><path class="cls-5" d="M341.25,428.56a52.51,52.51,0,0,0,52.5-52.5" transform="translate(-18.52 -32.5)"/></g></g><g id="DOOR_SWING_MAIN" data-name="DOOR SWING MAIN"><g id="ARC-15" data-name="ARC"><path class="cls-14" d="M233.35,73.73A54,54,0,0,0,247.9,110.6" transform="translate(-18.52 -32.5)"/></g></g><g id="DOORS"><g id="LWPOLYLINE-96" data-name="LWPOLYLINE"><polygon class="cls-16" points="267.22 39.67 268.83 41.24 229.38 78.11 227.76 76.54 267.22 39.67"/></g><g id="LWPOLYLINE-97" data-name="LWPOLYLINE"><rect class="cls-16" x="322.73" y="343.56" width="52.5" height="2.25"/></g><g id="LWPOLYLINE-98" data-name="LWPOLYLINE"><polygon class="cls-16" points="110 78.44 112.24 78.33 112.24 130.83 110 130.94 110 78.44"/></g><g id="LWPOLYLINE-99" data-name="LWPOLYLINE"><rect class="cls-16" x="351.87" y="206.42" width="52.63" height="2.63"/></g><g id="LWPOLYLINE-100" data-name="LWPOLYLINE"><rect class="cls-16" x="319.94" y="226.87" width="2.63" height="45"/></g><g id="LWPOLYLINE-101" data-name="LWPOLYLINE"><rect class="cls-16" x="271.98" y="144.4" width="2.63" height="45"/></g><g id="LWPOLYLINE-102" data-name="LWPOLYLINE"><rect class="cls-16" x="271.98" y="93.29" width="2.63" height="45"/></g><g id="LWPOLYLINE-103" data-name="LWPOLYLINE"><rect class="cls-16" x="124.19" y="67.04" width="45" height="2.63"/></g><g id="LWPOLYLINE-104" data-name="LWPOLYLINE"><rect class="cls-16" x="319.94" y="271.87" width="2.63" height="45"/></g></g><g id="WALLS"><g id="LWPOLYLINE-105" data-name="LWPOLYLINE"><polygon class="cls-17" points="370.85 80.24 322.75 80.24 322.77 201.69 353.89 201.69 353.89 206.63 302.14 206.63 302.14 210.75 353.89 210.75 353.89 214.69 322.77 214.69 322.77 227.88 315.26 227.88 315.26 214.69 279.25 214.69 279.25 330.06 315.25 330.06 315.25 316.88 322.76 316.88 322.73 343.56 315.23 343.56 315.24 337.56 271.75 337.56 271.75 189.43 279.25 189.43 279.25 202.25 315.23 202.25 315.23 134.24 279.25 134.24 279.25 144.43 271.75 144.43 271.75 41.24 268.83 41.24 268.83 32.24 274.83 32.24 274.83 11.1 483.5 11.24 483.51 211.74 431.89 211.74 431.89 392.23 532.54 392.23 532.54 655.49 526.4 655.11 526.23 658.11 511.93 657.28 513.13 636.45 514.58 611.36 523.57 611.87 523.57 399.73 412.39 399.73 412.39 214.71 404.89 214.69 404.89 201.74 467.13 201.74 467.13 80.24 424.85 80.29 424.85 74.24 462.25 74.23 462.25 20.24 370.85 20.24 370.85 80.24"/></g><g id="LWPOLYLINE-106" data-name="LWPOLYLINE"><polygon class="cls-17" points="271.75 415.56 315.23 415.56 315.23 396.06 322.73 396.06 322.73 600.28 342.36 601.46 340.4 635.52 335.98 635.26 335.3 647.11 323.55 646.43 322.87 658.41 294.41 656.79 294.5 655.3 277.1 654.29 277.01 655.79 248.56 654.15 249.25 642.21 242.38 641.81 245.02 595.87 315.23 599.86 315.23 457.56 271.75 457.56 271.75 415.56"/></g><g id="LWPOLYLINE-107" data-name="LWPOLYLINE"><rect class="cls-17" x="159.42" y="638.92" width="32.59" height="28.5" transform="translate(-504.98 758.63) rotate(-86.71)"/></g><g id="LWPOLYLINE-108" data-name="LWPOLYLINE"><rect class="cls-17" x="429.22" y="654.49" width="32.59" height="28.5" transform="translate(-266.2 1042.66) rotate(-86.71)"/></g><g id="LWPOLYLINE-109" data-name="LWPOLYLINE"><polygon class="cls-17" points="109.94 136.92 16.73 136.92 16.73 125.83 23.4 125.83 23.4 128.83 24.9 128.83 24.9 92.83 23.4 92.83 23.4 95.83 16.73 95.83 16.73 84.74 52.75 84.74 52.75 30.66 109.94 30.66 109.94 78.42 117.45 78.42 117.45 69.67 124.19 69.67 124.19 62.17 120.44 62.17 120.44 20.17 174.44 19.98 174.44 62.17 169.19 62.17 169.19 69.67 181.88 69.67 181.88 41.24 214.84 41.24 214.84 32.24 181.94 32.24 181.91 11.24 43.75 11.24 43.75 75.74 0.29 75.74 0.25 269.84 40.29 269.84 40.29 448.56 10.63 448.56 10.63 639.08 32.43 640.33 32.34 641.83 60.8 643.47 61.49 631.47 70.16 631.95 72.8 585.97 17.81 582.81 17.81 457.56 49.29 457.56 49.29 260.84 9.25 260.84 9.27 193.78 16.77 193.78 16.73 151.78 63.23 151.79 63.23 151.88 174.37 151.88 174.38 193.81 181.88 193.81 181.88 136.87 117.5 136.92 117.5 130.92 109.94 130.92 109.94 136.92"/></g></g><g id="OUTLINE"><g id="MTEXT"><path class="cls-18" d="M175.92,203.73l1.35,5.07,1.32-5.07h.79l-1.7,6.39h-.75l-1.34-5-1.36,5h-.74l-1.7-6.39h.81l1.31,5.07,1.36-5.07Z" transform="translate(-18.52 -32.5)"/><path class="cls-18" d="M181.15,207.41v2.71h-.82v-6.39h2.37c1.28,0,2.09.64,2.09,1.85a1.69,1.69,0,0,1-1.62,1.8l1.88,2.74h-.93l-1.84-2.71Zm0-.7h1.53c.84,0,1.3-.42,1.3-1.13s-.46-1.14-1.3-1.14h-1.53Z" transform="translate(-18.52 -32.5)"/></g><g id="MTEXT-2" data-name="MTEXT"><path class="cls-18" d="M54.11,207.41v2.7h-.82v-6.39h2.37c1.28,0,2.09.65,2.09,1.86a1.69,1.69,0,0,1-1.62,1.8L58,210.11h-.94l-1.83-2.7Zm0-.7h1.53c.84,0,1.3-.42,1.3-1.13s-.46-1.14-1.3-1.14H54.11Z" transform="translate(-18.52 -32.5)"/><path class="cls-18" d="M60.9,203.35h.78L59.1,211h-.78Z" transform="translate(-18.52 -32.5)"/><path class="cls-18" d="M62.49,210.11v-6.39H66.4v.73H63.32v2.16h2.89v.73H63.32v2.77Z" transform="translate(-18.52 -32.5)"/></g><g id="MTEXT-3" data-name="MTEXT"><path class="cls-18" d="M175.62,307.06h2a3.2,3.2,0,0,1,0,6.39h-2Zm2,5.65a2.47,2.47,0,0,0,0-4.92h-1.21v4.92Z" transform="translate(-18.52 -32.5)"/><path class="cls-18" d="M185.45,307.06l1.36,5.08,1.31-5.08h.79l-1.7,6.39h-.75l-1.34-5-1.36,5H183l-1.7-6.39h.81l1.32,5.08,1.35-5.08Z" transform="translate(-18.52 -32.5)"/></g><g id="MTEXT-4" data-name="MTEXT"><path class="cls-18" d="M161.76,71.18l1.35,5.08,1.31-5.08h.79l-1.7,6.39h-.74l-1.35-5-1.36,5h-.74l-1.7-6.39h.82l1.31,5.08,1.35-5.08Z" transform="translate(-18.52 -32.5)"/><path class="cls-18" d="M167.86,70.8h.78l-2.58,7.64h-.78Z" transform="translate(-18.52 -32.5)"/><path class="cls-18" d="M169.45,71.18h2.05a3.2,3.2,0,0,1,0,6.39h-2.05Zm2,5.65a2.47,2.47,0,0,0,0-4.92h-1.22v4.92Z" transform="translate(-18.52 -32.5)"/></g><g id="MTEXT-5" data-name="MTEXT"><path class="cls-18" d="M251.67,32.5v.73h-3.26v2h3V36h-3v2.18h3.26v.74H247.6V32.5Z" transform="translate(-18.52 -32.5)"/><path class="cls-18" d="M257.92,38.89h-.6l-3.57-5.08v5.08H253V32.5h.78l3.4,4.86V32.5h.78Z" transform="translate(-18.52 -32.5)"/><path class="cls-18" d="M259,32.5h5.27v.73H262v5.66h-.83V33.23H259Z" transform="translate(-18.52 -32.5)"/><path class="cls-18" d="M266.15,36.18v2.71h-.82V32.5h2.37c1.28,0,2.1.64,2.1,1.85a1.7,1.7,0,0,1-1.63,1.8l1.89,2.74h-.94l-1.83-2.71Zm0-.7h1.53c.85,0,1.3-.42,1.3-1.13s-.45-1.13-1.3-1.13h-1.53Z" transform="translate(-18.52 -32.5)"/><path class="cls-18" d="M274.94,32.5h.88l-2.33,3.75v2.64h-.81V36.25l-2.32-3.75h.9l1.84,3Z" transform="translate(-18.52 -32.5)"/></g><polygon class="cls-18" points="243.24 26.42 250.31 14.22 236.17 14.22 236.17 14.22 243.24 26.42"/><path class="cls-18" d="M409.79,530.34l-2-4.87v4.87H407V524h.93l2.16,5.25,2.16-5.25h.89v6.39h-.78v-4.87l-2,4.87Z" transform="translate(-18.52 -32.5)"/><path class="cls-18" d="M417.38,524l2.49,6.39H419l-.74-1.92h-2.63l-.73,1.92h-.83l2.5-6.39Zm-1.44,3.75H418L417,525Z" transform="translate(-18.52 -32.5)"/><path class="cls-18" d="M421.13,528.68a1.57,1.57,0,0,0,1.62,1.06c.83,0,1.42-.41,1.42-1.11,0-.5-.28-.83-1-1l-1.15-.31c-.88-.22-1.53-.67-1.53-1.64a1.9,1.9,0,0,1,2.11-1.81,2.18,2.18,0,0,1,2.34,1.69h-.83a1.44,1.44,0,0,0-1.51-1c-.76,0-1.33.39-1.33,1.05s.36.8,1,1l1.1.28c1,.26,1.59.81,1.59,1.71,0,1.16-.94,1.86-2.21,1.86a2.29,2.29,0,0,1-2.45-1.76Z" transform="translate(-18.52 -32.5)"/><path class="cls-18" d="M425.54,524h5.27v.73h-2.22v5.66h-.83v-5.66h-2.22Z" transform="translate(-18.52 -32.5)"/><path class="cls-18" d="M436,524v.73h-3.26v2h3v.73h-3v2.17H436v.74h-4.07V524Z" transform="translate(-18.52 -32.5)"/><path class="cls-18" d="M438.06,527.64v2.7h-.82V524h2.37c1.28,0,2.09.65,2.09,1.86a1.69,1.69,0,0,1-1.62,1.8l1.88,2.73H441l-1.84-2.7Zm0-.7h1.53c.84,0,1.3-.43,1.3-1.13s-.46-1.14-1.3-1.14h-1.53Z" transform="translate(-18.52 -32.5)"/><path class="cls-18" d="M449.71,528.54c0,1.17-.81,1.8-2.12,1.8h-2.31V524h2.1c1.32,0,2.11.6,2.11,1.7a1.36,1.36,0,0,1-.94,1.38A1.54,1.54,0,0,1,449.71,528.54Zm-2.33-1.81c.85,0,1.32-.34,1.32-1s-.47-1-1.32-1h-1.3v2.06Zm-1.3,2.9h1.51c.86,0,1.32-.44,1.32-1.11s-.46-1.1-1.32-1.1h-1.51Z" transform="translate(-18.52 -32.5)"/><path class="cls-18" d="M454.94,524v.73h-3.26v2h3v.73h-3v2.17h3.26v.74h-4.07V524Z" transform="translate(-18.52 -32.5)"/><path class="cls-18" d="M456.23,524h2a3.2,3.2,0,0,1,0,6.39h-2Zm2,5.65a2.47,2.47,0,0,0,0-4.92h-1.22v4.92Z" transform="translate(-18.52 -32.5)"/><path class="cls-18" d="M463.34,527.64v2.7h-.82V524h2.37c1.28,0,2.09.65,2.09,1.86a1.69,1.69,0,0,1-1.62,1.8l1.88,2.73h-.93l-1.83-2.7Zm0-.7h1.53c.84,0,1.3-.43,1.3-1.13s-.46-1.14-1.3-1.14h-1.53Z" transform="translate(-18.52 -32.5)"/><path class="cls-18" d="M470.75,530.44a3.32,3.32,0,1,1,2.89-3.29A3,3,0,0,1,470.75,530.44Zm0-5.84c-1.23,0-2.06,1-2.06,2.55s.83,2.55,2.06,2.55,2.07-1.05,2.07-2.55S472,524.6,470.75,524.6Z" transform="translate(-18.52 -32.5)"/><path class="cls-18" d="M477.34,530.44a3.32,3.32,0,0,1,0-6.58c1.69,0,2.89,1.35,2.89,3.29A3,3,0,0,1,477.34,530.44Zm0-5.84c-1.23,0-2.06,1-2.06,2.55s.83,2.55,2.06,2.55,2.07-1.05,2.07-2.55S478.58,524.6,477.34,524.6Z" transform="translate(-18.52 -32.5)"/><path class="cls-18" d="M484.17,530.34l-2-4.87v4.87h-.78V524h.93l2.16,5.25,2.16-5.25h.89v6.39h-.78v-4.87l-2,4.87Z" transform="translate(-18.52 -32.5)"/><path class="cls-18" d="M424.49,541.53h-.8v-5.41l-1.58.81v-.83l1.89-1h.49Z" transform="translate(-18.52 -32.5)"/><path class="cls-18" d="M427.69,535.78a1.23,1.23,0,0,0-1.25,1.28h-.84a2.06,2.06,0,0,1,2.09-2,1.75,1.75,0,0,1,1.95,1.8c0,.81-.65,1.45-1.29,2.18l-1.63,1.78h3v.72H425.6V541l2.06-2.27c.67-.72,1.19-1.25,1.19-1.86A1.05,1.05,0,0,0,427.69,535.78Z" transform="translate(-18.52 -32.5)"/><path class="cls-18" d="M431,536.12a.51.51,0,0,1-.46-.52.56.56,0,1,1,1.11,0,1.4,1.4,0,0,1-.22.66l-.54.88h-.53Z" transform="translate(-18.52 -32.5)"/><path class="cls-18" d="M432.37,538.45h2.51v.73h-2.51Z" transform="translate(-18.52 -32.5)"/><path class="cls-18" d="M437.42,535.78a1.23,1.23,0,0,0-1.25,1.28h-.85a2.07,2.07,0,0,1,2.1-2,1.74,1.74,0,0,1,1.94,1.8c0,.81-.64,1.45-1.29,2.18l-1.62,1.78h3.05v.72h-4.18V541l2.06-2.27c.67-.72,1.19-1.25,1.19-1.86A1,1,0,0,0,437.42,535.78Z" transform="translate(-18.52 -32.5)"/><path class="cls-18" d="M440.22,535.14h.69v2.28h-.69Zm1.24,0h.69v2.28h-.69Z" transform="translate(-18.52 -32.5)"/><path class="cls-18" d="M447.63,539.14l1.71,2.39h-.88l-1.28-1.8-1.29,1.8h-.84l1.7-2.36-1.61-2.26h.9l1.16,1.66,1.2-1.66h.85Z" transform="translate(-18.52 -32.5)"/><path class="cls-18" d="M454.47,541.53h-.8v-5.41l-1.58.81v-.83l1.89-1h.49Z" transform="translate(-18.52 -32.5)"/><path class="cls-18" d="M457.89,541.53h-.8v-5.41l-1.58.81v-.83l1.89-1h.49Z" transform="translate(-18.52 -32.5)"/><path class="cls-18" d="M459.09,535.14h.7v2.28h-.7Z" transform="translate(-18.52 -32.5)"/><path class="cls-18" d="M460.63,538.45h2.5v.73h-2.5Z" transform="translate(-18.52 -32.5)"/><path class="cls-18" d="M465.67,535.78a1.23,1.23,0,0,0-1.25,1.28h-.84a2.06,2.06,0,0,1,2.09-2,1.75,1.75,0,0,1,1.95,1.8c0,.81-.65,1.45-1.29,2.18l-1.63,1.78h3.05v.72h-4.17V541l2.06-2.27c.67-.72,1.19-1.25,1.19-1.86A1.05,1.05,0,0,0,465.67,535.78Z" transform="translate(-18.52 -32.5)"/><path class="cls-18" d="M468.48,535.14h.68v2.28h-.68Zm1.24,0h.68v2.28h-.68Z" transform="translate(-18.52 -32.5)"/><path class="cls-18" d="M168.23,486.61v-.71h2.31v.43a2.58,2.58,0,0,1-2.65,2.81,3.31,3.31,0,0,1,0-6.57,2.41,2.41,0,0,1,2.52,2h-.82a1.68,1.68,0,0,0-1.7-1.22c-1.24,0-2.09,1-2.09,2.55s.84,2.56,2.11,2.56a1.78,1.78,0,0,0,1.87-1.81Z" transform="translate(-18.52 -32.5)"/><path class="cls-18" d="M172.5,486.34v2.71h-.82v-6.39h2.37c1.28,0,2.09.65,2.09,1.85a1.68,1.68,0,0,1-1.62,1.8l1.88,2.74h-.93l-1.84-2.71Zm0-.69H174c.84,0,1.3-.43,1.3-1.14s-.46-1.13-1.3-1.13H172.5Z" transform="translate(-18.52 -32.5)"/><path class="cls-18" d="M181.49,482.66v.73h-3.26v2h3v.73h-3v2.17h3.26v.74h-4.07v-6.39Z" transform="translate(-18.52 -32.5)"/><path class="cls-18" d="M185.5,482.66l2.5,6.39h-.83l-.74-1.92h-2.64l-.72,1.92h-.84l2.5-6.39Zm-1.44,3.75h2.09l-1-2.73Z" transform="translate(-18.52 -32.5)"/><path class="cls-18" d="M188,482.66h5.28v.73H191v5.66h-.82v-5.66H188Z" transform="translate(-18.52 -32.5)"/><path class="cls-18" d="M197.42,486.34v2.71h-.82v-6.39H199c1.28,0,2.09.65,2.09,1.85a1.68,1.68,0,0,1-1.62,1.8l1.88,2.74h-.94l-1.83-2.71Zm0-.69H199c.84,0,1.3-.43,1.3-1.14s-.46-1.13-1.3-1.13h-1.53Z" transform="translate(-18.52 -32.5)"/><path class="cls-18" d="M204.82,489.14a3.31,3.31,0,1,1,2.9-3.28A3,3,0,0,1,204.82,489.14Zm0-5.83c-1.22,0-2.06,1.05-2.06,2.55s.84,2.55,2.06,2.55,2.07-1.06,2.07-2.55S206.06,483.31,204.82,483.31Z" transform="translate(-18.52 -32.5)"/><path class="cls-18" d="M211.42,489.14a3.31,3.31,0,1,1,2.89-3.28A3,3,0,0,1,211.42,489.14Zm0-5.83c-1.23,0-2.06,1.05-2.06,2.55s.83,2.55,2.06,2.55,2.07-1.06,2.07-2.55S212.66,483.31,211.42,483.31Z" transform="translate(-18.52 -32.5)"/><path class="cls-18" d="M218.25,489.05l-2-4.87v4.87h-.78v-6.39h.93l2.16,5.25,2.16-5.25h.89v6.39h-.78v-4.87l-2,4.87Z" transform="translate(-18.52 -32.5)"/><path class="cls-18" d="M170.9,494.49a1.23,1.23,0,0,0-1.25,1.28h-.84a2.06,2.06,0,0,1,2.09-2,1.74,1.74,0,0,1,1.94,1.8c0,.81-.64,1.45-1.29,2.18l-1.62,1.78h3v.72h-4.17v-.54l2.06-2.27c.66-.73,1.18-1.26,1.18-1.86A1,1,0,0,0,170.9,494.49Z" transform="translate(-18.52 -32.5)"/><path class="cls-18" d="M175.7,494.49a1.24,1.24,0,0,0-1.25,1.28h-.84a2.07,2.07,0,0,1,2.09-2,1.75,1.75,0,0,1,2,1.8c0,.81-.65,1.45-1.29,2.18l-1.62,1.78h3v.72h-4.17v-.54l2.06-2.27c.67-.73,1.19-1.26,1.19-1.86A1,1,0,0,0,175.7,494.49Z" transform="translate(-18.52 -32.5)"/><path class="cls-18" d="M179.05,494.83a.51.51,0,0,1-.46-.52.56.56,0,1,1,1.12.05,1.42,1.42,0,0,1-.23.66l-.53.88h-.53Z" transform="translate(-18.52 -32.5)"/><path class="cls-18" d="M180.38,497.16h2.51v.73h-2.51Z" transform="translate(-18.52 -32.5)"/><path class="cls-18" d="M184.57,498.75a1.16,1.16,0,0,0,1.18.91c.94,0,1.61-1.07,1.61-2.45,0-.06,0-.21,0-.28a1.66,1.66,0,0,1-1.61,1.1,2.14,2.14,0,1,1,2-3,4.44,4.44,0,0,1,.37,1.95c0,2.08-1,3.41-2.34,3.41a1.9,1.9,0,0,1-2-1.59Zm1.23-4.29a1.35,1.35,0,0,0-1.37,1.43,1.38,1.38,0,1,0,1.37-1.43Z" transform="translate(-18.52 -32.5)"/><path class="cls-18" d="M188.9,493.85h.69v2.28h-.69Zm1.24,0h.68v2.28h-.68Z" transform="translate(-18.52 -32.5)"/><path class="cls-18" d="M196.31,497.85l1.71,2.39h-.88l-1.28-1.8-1.29,1.8h-.84l1.7-2.36-1.61-2.26h.89l1.17,1.66,1.2-1.66h.85Z" transform="translate(-18.52 -32.5)"/><path class="cls-18" d="M203.15,500.24h-.8v-5.41l-1.58.81v-.83l1.89-1h.49Z" transform="translate(-18.52 -32.5)"/><path class="cls-18" d="M207.86,495.34a1.16,1.16,0,0,0-1.18-.9c-.93,0-1.61,1.07-1.61,2.44,0,.06,0,.22,0,.28a1.68,1.68,0,0,1,1.61-1.09,2.06,2.06,0,0,1,2.08,2.12,2.08,2.08,0,0,1-2.15,2.15,2,2,0,0,1-1.9-1.22,4.49,4.49,0,0,1-.38-2c0-2.07,1-3.4,2.34-3.4a1.88,1.88,0,0,1,2,1.58Zm-1.23,4.3a1.45,1.45,0,1,0-1.38-1.44A1.36,1.36,0,0,0,206.63,499.64Z" transform="translate(-18.52 -32.5)"/><path class="cls-18" d="M209.47,493.85h.71v2.28h-.71Z" transform="translate(-18.52 -32.5)"/><path class="cls-18" d="M211,497.16h2.51v.73H211Z" transform="translate(-18.52 -32.5)"/><path class="cls-18" d="M215.38,500.24h-.82l2.25-5.66h-3.28v-.73h4.13v.64Z" transform="translate(-18.52 -32.5)"/><path class="cls-18" d="M218.54,493.85h.69v2.28h-.69Zm1.24,0h.68v2.28h-.68Z" transform="translate(-18.52 -32.5)"/><path class="cls-18" d="M96.12,202.46a1.58,1.58,0,0,0,1.63,1.06c.83,0,1.41-.4,1.41-1.11,0-.5-.28-.82-1-1L97,201.1c-.89-.23-1.53-.68-1.53-1.65a1.89,1.89,0,0,1,2.1-1.81,2.18,2.18,0,0,1,2.34,1.69h-.82a1.47,1.47,0,0,0-1.52-1c-.76,0-1.32.39-1.32,1s.35.8,1,1l1.09.28c1,.26,1.59.81,1.59,1.72,0,1.15-.93,1.85-2.2,1.85a2.3,2.3,0,0,1-2.46-1.76Z" transform="translate(-18.52 -32.5)"/><path class="cls-18" d="M101.93,201.56v2.56h-.83v-6.38h2.4c1.29,0,2.1.65,2.1,1.91s-.81,1.91-2.1,1.91Zm1.55-3.11h-1.55v2.39h1.55a1.2,1.2,0,1,0,0-2.39Z" transform="translate(-18.52 -32.5)"/><path class="cls-18" d="M97.52,215.66a3.32,3.32,0,1,1,2.9-3.29A3,3,0,0,1,97.52,215.66Zm0-5.84c-1.23,0-2.06,1.05-2.06,2.55s.83,2.55,2.06,2.55,2.07-1,2.07-2.55S98.76,209.82,97.52,209.82Z" transform="translate(-18.52 -32.5)"/><path class="cls-18" d="M103.27,215.57l-2.46-6.39h.86l2,5.3,2-5.3h.83L104,215.57Z" transform="translate(-18.52 -32.5)"/><path class="cls-18" d="M384.06,173l-2-4.87V173h-.78v-6.39h.92l2.17,5.24,2.15-5.24h.9V173h-.78v-4.87l-2,4.87Z" transform="translate(-18.52 -32.5)"/><path class="cls-18" d="M391.64,166.65l2.5,6.39h-.84l-.73-1.93h-2.64L389.2,173h-.83l2.5-6.39Zm-1.44,3.74h2.08l-1-2.72Z" transform="translate(-18.52 -32.5)"/><path class="cls-18" d="M395.39,171.37a1.58,1.58,0,0,0,1.63,1.06c.83,0,1.41-.4,1.41-1.11,0-.5-.28-.82-1-1l-1.14-.3c-.89-.23-1.53-.68-1.53-1.65a1.89,1.89,0,0,1,2.1-1.81,2.18,2.18,0,0,1,2.34,1.69h-.82a1.47,1.47,0,0,0-1.52-1c-.76,0-1.32.4-1.32,1.05s.35.8,1,1l1.09.28c1,.26,1.59.81,1.59,1.72,0,1.15-.93,1.85-2.2,1.85a2.29,2.29,0,0,1-2.46-1.76Z" transform="translate(-18.52 -32.5)"/><path class="cls-18" d="M399.8,166.65h5.28v.72h-2.23V173H402v-5.67H399.8Z" transform="translate(-18.52 -32.5)"/><path class="cls-18" d="M410.21,166.65v.72H407v2h3v.73h-3v2.18h3.25V173h-4.06v-6.39Z" transform="translate(-18.52 -32.5)"/><path class="cls-18" d="M412.32,170.33V173h-.82v-6.39h2.37c1.28,0,2.1.64,2.1,1.85a1.7,1.7,0,0,1-1.63,1.8l1.89,2.74h-.94l-1.83-2.71Zm0-.7h1.53c.85,0,1.3-.42,1.3-1.13s-.45-1.14-1.3-1.14h-1.53Z" transform="translate(-18.52 -32.5)"/><path class="cls-18" d="M391.51,182.43c0,1.16-.82,1.8-2.13,1.8h-2.31v-6.39h2.1c1.33,0,2.12.59,2.12,1.7a1.37,1.37,0,0,1-.94,1.38A1.54,1.54,0,0,1,391.51,182.43Zm-2.34-1.81c.86,0,1.33-.35,1.33-1s-.47-1-1.33-1h-1.3v2.06Zm-1.3,2.89h1.51c.87,0,1.32-.44,1.32-1.1s-.45-1.1-1.32-1.1h-1.51Z" transform="translate(-18.52 -32.5)"/><path class="cls-18" d="M395.29,177.84l2.5,6.39H397l-.74-1.93h-2.64l-.72,1.93H392l2.5-6.39Zm-1.44,3.75h2.09l-1.05-2.73Z" transform="translate(-18.52 -32.5)"/><path class="cls-18" d="M397.74,177.84H403v.73h-2.23v5.66H400v-5.66h-2.23Z" transform="translate(-18.52 -32.5)"/><path class="cls-18" d="M409.34,177.84v6.39h-.82v-2.92h-3.61v2.92h-.82v-6.39h.82v2.74h3.61v-2.74Z" transform="translate(-18.52 -32.5)"/></g></svg>