<svg xmlns="http://www.w3.org/2000/svg" viewBox="0 0 661.95 746.44"><defs><style>.cls-1,.cls-12,.cls-13,.cls-15,.cls-2,.cls-4,.cls-6,.cls-7,.cls-9{fill:none;}.cls-1,.cls-10,.cls-12,.cls-2,.cls-3,.cls-4,.cls-5,.cls-7,.cls-8,.cls-9{stroke:#000;}.cls-1,.cls-10,.cls-12,.cls-2,.cls-3,.cls-4,.cls-5{stroke-linecap:round;stroke-linejoin:round;}.cls-1{stroke-width:0.15px;}.cls-2,.cls-3,.cls-7{stroke-width:0.35px;}.cls-10,.cls-11,.cls-3,.cls-5,.cls-8{fill:#fff;}.cls-10,.cls-11,.cls-4,.cls-6,.cls-8,.cls-9{stroke-width:0.25px;}.cls-12,.cls-14,.cls-5{stroke-width:0.5px;}.cls-11,.cls-14,.cls-6{stroke:#231f20;}.cls-11,.cls-13,.cls-14,.cls-6,.cls-7,.cls-8,.cls-9{stroke-miterlimit:10;}.cls-13{stroke:#2babe2;stroke-width:0.7px;}.cls-14{fill:#ccc;}.cls-16{fill:#231f20;}</style></defs><title>108Leonard_WEB_15A-2ndFl_v3</title><g id="FLOOR_PATTERN" data-name="FLOOR PATTERN"><g id="LINE"><line class="cls-1" x1="498.23" y1="428.65" x2="420.62" y2="428.65"/></g><g id="LINE-2" data-name="LINE"><line class="cls-1" x1="239.12" y1="428.65" x2="107.2" y2="428.65"/></g><g id="LINE-3" data-name="LINE"><line class="cls-1" x1="390.62" y1="428.65" x2="386.12" y2="428.65"/></g><g id="LINE-4" data-name="LINE"><line class="cls-1" x1="273.62" y1="428.65" x2="269.12" y2="428.65"/></g><g id="LINE-5" data-name="LINE"><line class="cls-1" x1="498.23" y1="420.4" x2="420.62" y2="420.4"/></g><g id="LINE-6" data-name="LINE"><line class="cls-1" x1="239.12" y1="420.4" x2="107.2" y2="420.4"/></g><g id="LINE-7" data-name="LINE"><line class="cls-1" x1="390.62" y1="420.4" x2="386.12" y2="420.4"/></g><g id="LINE-8" data-name="LINE"><line class="cls-1" x1="273.62" y1="420.4" x2="269.12" y2="420.4"/></g><g id="LINE-9" data-name="LINE"><line class="cls-1" x1="498.23" y1="412.15" x2="420.62" y2="412.15"/></g><g id="LINE-10" data-name="LINE"><line class="cls-1" x1="239.12" y1="412.15" x2="107.2" y2="412.15"/></g><g id="LINE-11" data-name="LINE"><line class="cls-1" x1="390.62" y1="412.15" x2="386.12" y2="412.15"/></g><g id="LINE-12" data-name="LINE"><line class="cls-1" x1="273.62" y1="412.15" x2="269.12" y2="412.15"/></g><g id="LINE-13" data-name="LINE"><line class="cls-1" x1="498.23" y1="403.9" x2="386.12" y2="403.9"/></g><g id="LINE-14" data-name="LINE"><line class="cls-1" x1="273.62" y1="403.9" x2="107.2" y2="403.9"/></g><g id="LINE-15" data-name="LINE"><line class="cls-1" x1="498.23" y1="395.65" x2="386.12" y2="395.65"/></g><g id="LINE-16" data-name="LINE"><line class="cls-1" x1="273.62" y1="395.65" x2="107.2" y2="395.65"/></g><g id="LINE-17" data-name="LINE"><line class="cls-1" x1="498.23" y1="387.4" x2="386.12" y2="387.4"/></g><g id="LINE-18" data-name="LINE"><line class="cls-1" x1="169.32" y1="387.4" x2="107.2" y2="387.4"/></g><g id="LINE-19" data-name="LINE"><line class="cls-1" x1="273.62" y1="387.4" x2="199.15" y2="387.4"/></g><g id="LINE-20" data-name="LINE"><line class="cls-1" x1="498.23" y1="379.15" x2="386.12" y2="379.15"/></g><g id="LINE-21" data-name="LINE"><line class="cls-1" x1="164.76" y1="379.15" x2="107.2" y2="379.15"/></g><g id="LINE-22" data-name="LINE"><line class="cls-1" x1="273.62" y1="379.15" x2="203.7" y2="379.15"/></g><g id="LINE-23" data-name="LINE"><line class="cls-1" x1="498.23" y1="370.9" x2="386.12" y2="370.9"/></g><g id="LINE-24" data-name="LINE"><line class="cls-1" x1="132.24" y1="370.9" x2="107.2" y2="370.9"/></g><g id="LINE-25" data-name="LINE"><line class="cls-1" x1="273.62" y1="370.9" x2="204.53" y2="370.9"/></g><g id="LINE-26" data-name="LINE"><line class="cls-1" x1="163.93" y1="370.9" x2="145.93" y2="370.9"/></g><g id="LINE-27" data-name="LINE"><line class="cls-1" x1="498.23" y1="362.65" x2="386.12" y2="362.65"/></g><g id="LINE-28" data-name="LINE"><line class="cls-1" x1="128.59" y1="362.65" x2="107.2" y2="362.65"/></g><g id="LINE-29" data-name="LINE"><line class="cls-1" x1="273.62" y1="362.65" x2="204.83" y2="362.65"/></g><g id="LINE-30" data-name="LINE"><line class="cls-1" x1="163.64" y1="362.65" x2="149.58" y2="362.65"/></g><g id="LINE-31" data-name="LINE"><line class="cls-1" x1="498.23" y1="354.4" x2="495.23" y2="354.4"/></g><g id="LINE-32" data-name="LINE"><line class="cls-1" x1="132.97" y1="354.4" x2="107.2" y2="354.4"/></g><g id="LINE-33" data-name="LINE"><line class="cls-1" x1="479.84" y1="354.4" x2="386.12" y2="354.4"/></g><g id="LINE-34" data-name="LINE"><line class="cls-1" x1="273.62" y1="354.4" x2="205.12" y2="354.4"/></g><g id="LINE-35" data-name="LINE"><line class="cls-1" x1="163.34" y1="354.4" x2="145.19" y2="354.4"/></g><g id="LINE-36" data-name="LINE"><line class="cls-1" x1="498.23" y1="346.15" x2="495.23" y2="346.15"/></g><g id="LINE-37" data-name="LINE"><line class="cls-1" x1="273.62" y1="346.15" x2="107.2" y2="346.15"/></g><g id="LINE-38" data-name="LINE"><line class="cls-1" x1="479.84" y1="346.15" x2="386.12" y2="346.15"/></g><g id="LINE-39" data-name="LINE"><line class="cls-1" x1="498.23" y1="337.9" x2="495.23" y2="337.9"/></g><g id="LINE-40" data-name="LINE"><line class="cls-1" x1="128.6" y1="337.9" x2="107.2" y2="337.9"/></g><g id="LINE-41" data-name="LINE"><line class="cls-1" x1="479.83" y1="337.9" x2="386.12" y2="337.9"/></g><g id="LINE-42" data-name="LINE"><line class="cls-1" x1="273.62" y1="337.9" x2="160.12" y2="337.9"/></g><g id="LINE-43" data-name="LINE"><line class="cls-1" x1="498.23" y1="329.65" x2="495.23" y2="329.65"/></g><g id="LINE-44" data-name="LINE"><line class="cls-1" x1="119.98" y1="329.65" x2="107.2" y2="329.65"/></g><g id="LINE-45" data-name="LINE"><line class="cls-1" x1="479.83" y1="329.65" x2="386.12" y2="329.65"/></g><g id="LINE-46" data-name="LINE"><line class="cls-1" x1="273.62" y1="329.65" x2="190.73" y2="329.65"/></g><g id="LINE-47" data-name="LINE"><line class="cls-1" x1="182.87" y1="329.65" x2="160.12" y2="329.65"/></g><g id="LINE-48" data-name="LINE"><line class="cls-1" x1="498.23" y1="321.4" x2="495.22" y2="321.4"/></g><g id="LINE-49" data-name="LINE"><line class="cls-1" x1="117.49" y1="321.4" x2="107.2" y2="321.4"/></g><g id="LINE-50" data-name="LINE"><line class="cls-1" x1="479.83" y1="321.4" x2="386.12" y2="321.4"/></g><g id="LINE-51" data-name="LINE"><line class="cls-1" x1="273.62" y1="321.4" x2="196.96" y2="321.4"/></g><g id="LINE-52" data-name="LINE"><line class="cls-1" x1="176.64" y1="321.4" x2="160.12" y2="321.4"/></g><g id="LINE-53" data-name="LINE"><line class="cls-1" x1="498.23" y1="313.15" x2="495.22" y2="313.15"/></g><g id="LINE-54" data-name="LINE"><line class="cls-1" x1="117.43" y1="313.15" x2="107.2" y2="313.15"/></g><g id="LINE-55" data-name="LINE"><line class="cls-1" x1="479.83" y1="313.15" x2="386.03" y2="313.15"/></g><g id="LINE-56" data-name="LINE"><line class="cls-1" x1="273.67" y1="313.15" x2="199.75" y2="313.15"/></g><g id="LINE-57" data-name="LINE"><line class="cls-1" x1="173.85" y1="313.15" x2="160.12" y2="313.15"/></g><g id="LINE-58" data-name="LINE"><line class="cls-1" x1="498.23" y1="304.9" x2="495.22" y2="304.9"/></g><g id="LINE-59" data-name="LINE"><line class="cls-1" x1="117.43" y1="304.9" x2="107.2" y2="304.9"/></g><g id="LINE-60" data-name="LINE"><line class="cls-1" x1="479.83" y1="304.9" x2="373.89" y2="304.9"/></g><g id="LINE-61" data-name="LINE"><line class="cls-1" x1="285.36" y1="304.9" x2="201.24" y2="304.9"/></g><g id="LINE-62" data-name="LINE"><line class="cls-1" x1="172.35" y1="304.9" x2="160.12" y2="304.9"/></g><g id="LINE-63" data-name="LINE"><line class="cls-1" x1="498.23" y1="296.65" x2="495.22" y2="296.65"/></g><g id="LINE-64" data-name="LINE"><line class="cls-1" x1="117.43" y1="296.65" x2="107.2" y2="296.65"/></g><g id="LINE-65" data-name="LINE"><line class="cls-1" x1="479.82" y1="296.65" x2="374.63" y2="296.65"/></g><g id="LINE-66" data-name="LINE"><line class="cls-1" x1="284.63" y1="296.65" x2="201.84" y2="296.65"/></g><g id="LINE-67" data-name="LINE"><line class="cls-1" x1="171.76" y1="296.65" x2="160.12" y2="296.65"/></g><g id="LINE-68" data-name="LINE"><line class="cls-1" x1="498.23" y1="288.4" x2="495.22" y2="288.4"/></g><g id="LINE-69" data-name="LINE"><line class="cls-1" x1="117.43" y1="288.4" x2="107.2" y2="288.4"/></g><g id="LINE-70" data-name="LINE"><line class="cls-1" x1="479.82" y1="288.4" x2="374.63" y2="288.4"/></g><g id="LINE-71" data-name="LINE"><line class="cls-1" x1="284.63" y1="288.4" x2="201.65" y2="288.4"/></g><g id="LINE-72" data-name="LINE"><line class="cls-1" x1="171.95" y1="288.4" x2="160.12" y2="288.4"/></g><g id="LINE-73" data-name="LINE"><line class="cls-1" x1="498.23" y1="280.15" x2="495.22" y2="280.15"/></g><g id="LINE-74" data-name="LINE"><line class="cls-1" x1="117.43" y1="280.15" x2="107.2" y2="280.15"/></g><g id="LINE-75" data-name="LINE"><line class="cls-1" x1="479.82" y1="280.15" x2="374.63" y2="280.15"/></g><g id="LINE-76" data-name="LINE"><line class="cls-1" x1="284.63" y1="280.15" x2="200.63" y2="280.15"/></g><g id="LINE-77" data-name="LINE"><line class="cls-1" x1="172.97" y1="280.15" x2="160.12" y2="280.15"/></g><g id="LINE-78" data-name="LINE"><line class="cls-1" x1="498.23" y1="271.9" x2="495.21" y2="271.9"/></g><g id="LINE-79" data-name="LINE"><line class="cls-1" x1="117.43" y1="271.9" x2="107.2" y2="271.9"/></g><g id="LINE-80" data-name="LINE"><line class="cls-1" x1="479.82" y1="271.9" x2="198.57" y2="271.9"/></g><g id="LINE-81" data-name="LINE"><line class="cls-1" x1="175.02" y1="271.9" x2="160.12" y2="271.9"/></g><g id="LINE-82" data-name="LINE"><line class="cls-1" x1="498.23" y1="263.65" x2="495.21" y2="263.65"/></g><g id="LINE-83" data-name="LINE"><line class="cls-1" x1="118.18" y1="263.65" x2="107.2" y2="263.65"/></g><g id="LINE-84" data-name="LINE"><line class="cls-1" x1="479.82" y1="263.65" x2="194.72" y2="263.65"/></g><g id="LINE-85" data-name="LINE"><line class="cls-1" x1="178.88" y1="263.65" x2="160.12" y2="263.65"/></g><g id="LINE-86" data-name="LINE"><line class="cls-1" x1="498.23" y1="255.4" x2="160.12" y2="255.4"/></g><g id="LINE-87" data-name="LINE"><line class="cls-1" x1="122.79" y1="255.4" x2="107.2" y2="255.4"/></g><g id="LINE-88" data-name="LINE"><line class="cls-1" x1="498.23" y1="247.15" x2="107.2" y2="247.15"/></g><g id="LINE-89" data-name="LINE"><line class="cls-1" x1="498.23" y1="238.9" x2="107.2" y2="238.9"/></g><g id="LINE-90" data-name="LINE"><line class="cls-1" x1="498.23" y1="230.65" x2="205.25" y2="230.65"/></g><g id="LINE-91" data-name="LINE"><line class="cls-1" x1="163.79" y1="230.65" x2="107.2" y2="230.65"/></g><g id="LINE-92" data-name="LINE"><line class="cls-1" x1="498.23" y1="222.4" x2="204.96" y2="222.4"/></g><g id="LINE-93" data-name="LINE"><line class="cls-1" x1="164.09" y1="222.4" x2="107.2" y2="222.4"/></g><g id="LINE-94" data-name="LINE"><line class="cls-1" x1="498.23" y1="214.15" x2="204.65" y2="214.15"/></g><g id="LINE-95" data-name="LINE"><line class="cls-1" x1="164.39" y1="214.15" x2="107.2" y2="214.15"/></g><g id="LINE-96" data-name="LINE"><line class="cls-1" x1="498.23" y1="205.9" x2="202.17" y2="205.9"/></g><g id="LINE-97" data-name="LINE"><line class="cls-1" x1="166.88" y1="205.9" x2="107.2" y2="205.9"/></g><g id="LINE-98" data-name="LINE"><line class="cls-1" x1="498.23" y1="197.65" x2="396.71" y2="197.65"/></g><g id="LINE-99" data-name="LINE"><line class="cls-1" x1="175.51" y1="197.65" x2="107.2" y2="197.65"/></g><g id="LINE-100" data-name="LINE"><line class="cls-1" x1="261.7" y1="197.65" x2="193.54" y2="197.65"/></g><g id="LINE-101" data-name="LINE"><line class="cls-1" x1="498.23" y1="189.4" x2="396.71" y2="189.4"/></g><g id="LINE-102" data-name="LINE"><line class="cls-1" x1="115.95" y1="189.4" x2="107.2" y2="189.4"/></g><g id="LINE-103" data-name="LINE"><line class="cls-1" x1="261.7" y1="189.4" x2="133.67" y2="189.4"/></g><g id="LINE-104" data-name="LINE"><line class="cls-1" x1="498.23" y1="181.15" x2="396.71" y2="181.15"/></g><g id="LINE-105" data-name="LINE"><line class="cls-1" x1="118.77" y1="181.15" x2="107.2" y2="181.15"/></g><g id="LINE-106" data-name="LINE"><line class="cls-1" x1="261.7" y1="181.15" x2="130.85" y2="181.15"/></g><g id="LINE-107" data-name="LINE"><line class="cls-1" x1="498.23" y1="172.9" x2="396.71" y2="172.9"/></g><g id="LINE-108" data-name="LINE"><line class="cls-1" x1="261.7" y1="172.9" x2="107.2" y2="172.9"/></g><g id="LWPOLYLINE"><line class="cls-1" x1="489.05" y1="436.9" x2="436.55" y2="436.9"/></g><g id="LWPOLYLINE-2" data-name="LWPOLYLINE"><line class="cls-1" x1="436.55" y1="448.9" x2="489.05" y2="448.9"/></g><g id="LWPOLYLINE-3" data-name="LWPOLYLINE"><line class="cls-1" x1="398.94" y1="462.78" x2="398.94" y2="518.53"/></g><g id="LWPOLYLINE-4" data-name="LWPOLYLINE"><line class="cls-1" x1="408.19" y1="462.78" x2="408.19" y2="518.53"/></g><g id="LWPOLYLINE-5" data-name="LWPOLYLINE"><line class="cls-1" x1="498.23" y1="219.49" x2="498.23" y2="166.77"/></g><g id="LWPOLYLINE-6" data-name="LWPOLYLINE"><line class="cls-1" x1="510.23" y1="219.49" x2="510.23" y2="166.77"/></g><g id="LWPOLYLINE-7" data-name="LWPOLYLINE"><line class="cls-1" x1="169.4" y1="436.9" x2="221.9" y2="436.9"/></g><g id="LWPOLYLINE-8" data-name="LWPOLYLINE"><line class="cls-1" x1="221.9" y1="448.9" x2="169.4" y2="448.9"/></g><g id="LINE-109" data-name="LINE"><line class="cls-1" x1="137.3" y1="156.26" x2="137.3" y2="12.26"/></g><g id="LINE-110" data-name="LINE"><line class="cls-1" x1="173.3" y1="156.26" x2="173.3" y2="12.26"/></g><g id="LINE-111" data-name="LINE"><line class="cls-1" x1="209.3" y1="156.26" x2="209.3" y2="12.26"/></g><g id="LINE-112" data-name="LINE"><line class="cls-1" x1="245.3" y1="156.26" x2="245.3" y2="12.26"/></g><g id="LINE-113" data-name="LINE"><line class="cls-1" x1="281.3" y1="119.89" x2="281.3" y2="12.26"/></g><g id="LINE-114" data-name="LINE"><line class="cls-1" x1="317.3" y1="119.89" x2="317.3" y2="73.85"/></g><g id="LINE-115" data-name="LINE"><line class="cls-1" x1="317.3" y1="73.85" x2="317.3" y2="12.26"/></g><g id="LINE-116" data-name="LINE"><line class="cls-1" x1="353.3" y1="119.89" x2="353.3" y2="45.36"/></g><g id="LINE-117" data-name="LINE"><line class="cls-1" x1="353.3" y1="60.95" x2="353.3" y2="12.25"/></g><g id="LINE-118" data-name="LINE"><line class="cls-1" x1="389.3" y1="156.26" x2="389.3" y2="12.25"/></g><g id="LINE-119" data-name="LINE"><line class="cls-1" x1="425.3" y1="156.26" x2="425.3" y2="63.19"/></g><g id="LINE-120" data-name="LINE"><line class="cls-1" x1="425.3" y1="51.56" x2="425.3" y2="12.25"/></g><g id="LINE-121" data-name="LINE"><line class="cls-1" x1="461.3" y1="156.26" x2="461.3" y2="69.08"/></g><g id="LINE-122" data-name="LINE"><line class="cls-1" x1="461.3" y1="23.81" x2="461.3" y2="12.25"/></g><g id="LINE-123" data-name="LINE"><line class="cls-1" x1="461.3" y1="64.82" x2="461.3" y2="50.23"/></g><g id="LINE-124" data-name="LINE"><line class="cls-1" x1="497.3" y1="156.26" x2="497.3" y2="12.25"/></g><g id="LINE-125" data-name="LINE"><line class="cls-1" x1="502.46" y1="134.3" x2="383.18" y2="134.3"/></g><g id="LINE-126" data-name="LINE"><line class="cls-1" x1="275.18" y1="134.3" x2="108.7" y2="134.3"/></g><g id="LINE-127" data-name="LINE"><line class="cls-1" x1="502.46" y1="98.3" x2="370" y2="98.3"/></g><g id="LINE-128" data-name="LINE"><polyline class="cls-1" points="108.7 98.3 294.06 98.3 372.98 98.3"/></g><g id="LINE-129" data-name="LINE"><line class="cls-1" x1="502.47" y1="62.3" x2="490.26" y2="62.3"/></g><g id="LINE-130" data-name="LINE"><line class="cls-1" x1="347.1" y1="62.3" x2="108.7" y2="62.3"/></g><g id="LINE-131" data-name="LINE"><line class="cls-1" x1="480.52" y1="62.3" x2="459.29" y2="62.3"/></g><g id="LINE-132" data-name="LINE"><line class="cls-1" x1="424.59" y1="62.3" x2="356.93" y2="62.3"/></g><g id="LINE-133" data-name="LINE"><line class="cls-1" x1="502.47" y1="26.3" x2="490.12" y2="26.3"/></g><g id="LINE-134" data-name="LINE"><line class="cls-1" x1="457.93" y1="26.3" x2="108.7" y2="26.3"/></g><g id="LWPOLYLINE-9" data-name="LWPOLYLINE"><polygon class="cls-1" points="108.7 12.26 108.7 156.26 261.7 156.26 275.18 156.26 275.18 119.89 383.18 119.89 383.18 156.26 396.71 156.26 502.46 156.26 502.47 12.25 108.7 12.26"/></g><g id="LINE-135" data-name="LINE"><line class="cls-1" x1="29.3" y1="734.19" x2="29.3" y2="448.67"/></g><g id="LINE-136" data-name="LINE"><line class="cls-1" x1="65.3" y1="734.19" x2="65.3" y2="448.67"/></g><g id="LINE-137" data-name="LINE"><line class="cls-1" x1="96.7" y1="710.3" x2="12.25" y2="710.3"/></g><g id="LINE-138" data-name="LINE"><line class="cls-1" x1="96.7" y1="674.3" x2="12.25" y2="674.3"/></g><g id="LINE-139" data-name="LINE"><line class="cls-1" x1="96.7" y1="638.3" x2="12.25" y2="638.3"/></g><g id="LINE-140" data-name="LINE"><line class="cls-1" x1="96.7" y1="602.3" x2="12.25" y2="602.3"/></g><g id="LINE-141" data-name="LINE"><line class="cls-1" x1="96.7" y1="566.3" x2="12.25" y2="566.3"/></g><g id="LINE-142" data-name="LINE"><line class="cls-1" x1="96.7" y1="530.3" x2="12.25" y2="530.3"/></g><g id="LINE-143" data-name="LINE"><line class="cls-1" x1="96.7" y1="494.3" x2="12.25" y2="494.3"/></g><g id="LINE-144" data-name="LINE"><line class="cls-1" x1="96.7" y1="458.3" x2="12.25" y2="458.3"/></g><g id="LWPOLYLINE-10" data-name="LWPOLYLINE"><rect class="cls-1" x="12.25" y="448.67" width="84.45" height="285.52"/></g><g id="LWPOLYLINE-11" data-name="LWPOLYLINE"><polygon class="cls-1" points="498.23 436.9 498.23 166.77 396.71 166.77 396.71 203.89 261.7 203.89 261.7 166.76 107.2 166.76 107.2 430.82 136.92 430.82 136.92 436.9 498.23 436.9"/></g></g><g id="FURNITURE"><g id="LWPOLYLINE-12" data-name="LWPOLYLINE"><path class="cls-2" d="M168.88,255.55v89.68a1.51,1.51,0,0,1-1.55,1.45l-8-.29-14.26-.51a20.19,20.19,0,0,1-18.9-20.15V275a20.19,20.19,0,0,1,18.9-20.15l14.26-.51,8-.29h0A1.5,1.5,0,0,1,168.88,255.55Z" transform="translate(-8.76 -5.89)"/></g><g id="LWPOLYLINE-13" data-name="LWPOLYLINE"><path class="cls-2" d="M126.19,275v50.73a20.19,20.19,0,0,0,18.9,20.15l14.26.51a7.86,7.86,0,0,0-6.1-6.22l-6.89-.25a14.19,14.19,0,0,1-14.17-14.19V275a14.19,14.19,0,0,1,14.17-14.19l6.89-.25a7.86,7.86,0,0,0,6.1-6.22l-14.26.51A20.19,20.19,0,0,0,126.19,275Z" transform="translate(-8.76 -5.89)"/></g><g id="LWPOLYLINE-14" data-name="LWPOLYLINE"><rect class="cls-3" x="477.22" y="262.71" width="21" height="94.54"/></g><g id="LWPOLYLINE-15" data-name="LWPOLYLINE"><line class="cls-3" x1="498.23" y1="355" x2="477.24" y2="355"/></g><g id="LWPOLYLINE-16" data-name="LWPOLYLINE"><line class="cls-3" x1="477.21" y1="264.96" x2="498.21" y2="264.96"/></g><g id="LWPOLYLINE-17" data-name="LWPOLYLINE"><rect class="cls-3" x="284.63" y="279.11" width="90" height="27" rx="1.5" ry="1.5"/></g><g id="LINE-145" data-name="LINE"><line class="cls-2" x1="273.63" y1="387.41" x2="386.13" y2="387.41"/></g><g id="CIRCLE"><path class="cls-2" d="M414.44,434.23a7.5,7.5,0,1,1,7.5-7.5,7.5,7.5,0,0,1-7.5,7.5Z" transform="translate(-8.76 -5.89)"/></g><g id="LINE-146" data-name="LINE"><line class="cls-2" x1="405.62" y1="413.34" x2="405.62" y2="428.34"/></g><g id="LINE-147" data-name="LINE"><line class="cls-2" x1="413.17" y1="420.99" x2="398.17" y2="420.99"/></g><g id="LWPOLYLINE-18" data-name="LWPOLYLINE"><rect class="cls-2" x="390.62" y="408.99" width="30" height="24"/></g><g id="CIRCLE-2" data-name="CIRCLE"><path class="cls-2" d="M262.83,434.23a7.5,7.5,0,1,1,7.5-7.5,7.5,7.5,0,0,1-7.5,7.5Z" transform="translate(-8.76 -5.89)"/></g><g id="LINE-148" data-name="LINE"><line class="cls-2" x1="254.12" y1="413.34" x2="254.12" y2="428.34"/></g><g id="LINE-149" data-name="LINE"><line class="cls-2" x1="246.57" y1="420.99" x2="261.57" y2="420.99"/></g><g id="LWPOLYLINE-19" data-name="LWPOLYLINE"><rect class="cls-2" x="239.12" y="408.99" width="30" height="24"/></g><g id="LWPOLYLINE-20" data-name="LWPOLYLINE"><polyline class="cls-2" points="331.19 405.41 331.19 427.95 383.69 427.95 383.69 405.41"/></g><g id="LWPOLYLINE-21" data-name="LWPOLYLINE"><polyline class="cls-2" points="328.56 405.41 328.56 427.95 276.06 427.95 276.06 405.41"/></g><g id="LWPOLYLINE-22" data-name="LWPOLYLINE"><path class="cls-2" d="M394.88,436.81V320.51a4.3,4.3,0,0,0-4.34-3.71h-104a3.88,3.88,0,0,0-4.11,3.65V436.89" transform="translate(-8.76 -5.89)"/></g><g id="LWPOLYLINE-23" data-name="LWPOLYLINE"><rect class="cls-2" x="273.62" y="430.95" width="112.5" height="6"/></g><g id="LINE-150" data-name="LINE"><line class="cls-2" x1="273.63" y1="405.41" x2="386.13" y2="405.41"/></g><g id="LWPOLYLINE-24" data-name="LWPOLYLINE"><path class="cls-3" d="M378.76,62.82V47.64a9.11,9.11,0,0,0-9.11-9.12H369a9.11,9.11,0,1,0-16.5,0H311.94a9.11,9.11,0,0,0-9.11,9.12,2.28,2.28,0,0,0-2.28-2.28H299a2.28,2.28,0,0,0-2.28,2.28v19A8.35,8.35,0,0,0,305.1,75h51.64A2.28,2.28,0,0,0,359,72.69v-.75h10.63A9.11,9.11,0,0,0,378.76,62.82Z" transform="translate(-8.76 -5.89)"/></g><g id="LWPOLYLINE-25" data-name="LWPOLYLINE"><path class="cls-3" d="M296.75,66.62v-19A2.28,2.28,0,0,1,299,45.36h1.52a2.28,2.28,0,0,1,2.28,2.28v19a2.28,2.28,0,0,0,2.27,2.28h51.64A2.28,2.28,0,0,1,359,71.18v1.51A2.28,2.28,0,0,1,356.74,75H305.1A8.35,8.35,0,0,1,296.75,66.62Z" transform="translate(-8.76 -5.89)"/></g><g id="LWPOLYLINE-26" data-name="LWPOLYLINE"><path class="cls-3" d="M305.1,68.9a2.28,2.28,0,0,1-2.27-2.28v-19a9.11,9.11,0,0,1,9.11-9.12h40.59a9.11,9.11,0,0,0,16.5,0h.62a9.11,9.11,0,0,1,9.11,9.12V62.82a9.11,9.11,0,0,1-9.11,9.12H359v-.76a2.28,2.28,0,0,0-2.28-2.28Z" transform="translate(-8.76 -5.89)"/></g><g id="CIRCLE-3" data-name="CIRCLE"><path class="cls-2" d="M147.84,379.33a10.5,10.5,0,1,1,10.5-10.5,10.5,10.5,0,0,1-10.5,10.5Z" transform="translate(-8.76 -5.89)"/></g><g id="LINE-151" data-name="LINE"><line class="cls-2" x1="139.08" y1="373.44" x2="139.08" y2="352.44"/></g><g id="LINE-152" data-name="LINE"><line class="cls-2" x1="128.58" y1="362.94" x2="149.58" y2="362.94"/></g><g id="ELLIPSE"><path class="cls-2" d="M195.56,336.8c8.32,0,15.07-16.27,15.07-36.34s-6.75-36.34-15.07-36.34-15.07,16.27-15.07,36.34,6.75,36.34,15.07,36.34Z" transform="translate(-8.76 -5.89)"/></g><g id="CIRCLE-4" data-name="CIRCLE"><path class="cls-2" d="M494.15,84.77a9,9,0,1,1,9-9,9,9,0,0,1-9,9Z" transform="translate(-8.76 -5.89)"/></g><g id="LWPOLYLINE-27" data-name="LWPOLYLINE"><path class="cls-2" d="M495.77,54.75,480.91,67.52l0,0a1.32,1.32,0,0,1-1.86-.21L457.66,40.61l0,0a1.33,1.33,0,0,1,.27-1.85l15.73-11.67" transform="translate(-8.76 -5.89)"/></g><g id="LWPOLYLINE-28" data-name="LWPOLYLINE"><line class="cls-2" x1="483.57" y1="44.86" x2="478.26" y2="49.42"/></g><g id="LWPOLYLINE-29" data-name="LWPOLYLINE"><line class="cls-2" x1="462.4" y1="29.57" x2="468.02" y2="25.39"/></g><g id="ARC"><path class="cls-2" d="M495,55.42a17.77,17.77,0,0,0-22.18-27.77" transform="translate(-8.76 -5.89)"/></g><g id="ARC-2" data-name="ARC"><path class="cls-2" d="M491.67,51.32A12.49,12.49,0,0,0,476.08,31.8" transform="translate(-8.76 -5.89)"/></g><g id="ARC-3" data-name="ARC"><path class="cls-2" d="M487,55.31a6.91,6.91,0,0,0-.77,7.63" transform="translate(-8.76 -5.89)"/></g><g id="ARC-4" data-name="ARC"><path class="cls-2" d="M463.55,34.53a6.92,6.92,0,0,0,7.61.93" transform="translate(-8.76 -5.89)"/></g><g id="LWPOLYLINE-30" data-name="LWPOLYLINE"><path class="cls-2" d="M213.18,379.83a20.19,20.19,0,0,1-40.38,0l-.75-21.09v-.06a1.5,1.5,0,0,1,1.5-1.5h38.94a1.5,1.5,0,0,1,1.45,1.55Z" transform="translate(-8.76 -5.89)"/></g><g id="LWPOLYLINE-31" data-name="LWPOLYLINE"><path class="cls-2" d="M178.8,379.71l-.24-6.89a7.87,7.87,0,0,0-6.23-6.1l.51,14.26a20.19,20.19,0,0,0,40.3,0l.51-14.26a7.86,7.86,0,0,0-6.22,6.1l-.25,6.89a14.19,14.19,0,0,1-28.38,0Z" transform="translate(-8.76 -5.89)"/></g><g id="LWPOLYLINE-32" data-name="LWPOLYLINE"><path class="cls-2" d="M213.48,221.47a20.2,20.2,0,0,0-40.39,0l-.75,21.09a1.5,1.5,0,0,0,1.45,1.55h38.94a1.5,1.5,0,0,0,1.5-1.5v-.05Z" transform="translate(-8.76 -5.89)"/></g><g id="LWPOLYLINE-33" data-name="LWPOLYLINE"><path class="cls-2" d="M179.09,221.59l-.24,6.89a7.86,7.86,0,0,1-6.22,6.09l.51-14.26a20.19,20.19,0,0,1,40.3,0l.5,14.26a7.86,7.86,0,0,1-6.22-6.09l-.24-6.89a14.2,14.2,0,0,0-28.39,0Z" transform="translate(-8.76 -5.89)"/></g><g id="LWPOLYLINE-34" data-name="LWPOLYLINE"><path class="cls-2" d="M469.81,75.2,453.33,88.42h0a3,3,0,0,1-4.21-.47L430.26,64.32a3,3,0,0,1,.47-4.21l16.49-13.18a3,3,0,0,1,4.21.47L470.27,71A3,3,0,0,1,469.81,75.2Z" transform="translate(-8.76 -5.89)"/></g></g><g id="STAIR"><g id="LINE-153" data-name="LINE"><line class="cls-1" x1="573.24" y1="462.68" x2="634.28" y2="462.68"/></g><g id="LINE-154" data-name="LINE"><line class="cls-1" x1="565.75" y1="459.68" x2="505.73" y2="459.68"/></g><g id="LINE-155" data-name="LINE"><line class="cls-1" x1="565.75" y1="441.68" x2="505.73" y2="441.68"/></g><g id="LINE-156" data-name="LINE"><line class="cls-1" x1="573.25" y1="336.67" x2="641.54" y2="336.68"/></g><g id="LINE-157" data-name="LINE"><line class="cls-1" x1="565.75" y1="387.68" x2="505.75" y2="387.68"/></g><g id="LINE-158" data-name="LINE"><line class="cls-1" x1="565.75" y1="423.68" x2="505.73" y2="423.68"/></g><g id="LINE-159" data-name="LINE"><line class="cls-1" x1="565.75" y1="405.68" x2="505.75" y2="405.68"/></g><g id="LINE-160" data-name="LINE"><line class="cls-1" x1="565.75" y1="369.68" x2="505.75" y2="369.68"/></g><g id="LINE-161" data-name="LINE"><line class="cls-1" x1="565.75" y1="333.68" x2="505.75" y2="333.68"/></g><g id="LINE-162" data-name="LINE"><line class="cls-1" x1="565.75" y1="351.68" x2="505.75" y2="351.68"/></g><g id="LINE-163" data-name="LINE"><line class="cls-1" x1="573.24" y1="354.68" x2="640.5" y2="354.68"/></g><g id="LINE-164" data-name="LINE"><line class="cls-1" x1="573.24" y1="372.68" x2="639.46" y2="372.68"/></g><g id="LINE-165" data-name="LINE"><line class="cls-1" x1="573.24" y1="390.68" x2="638.43" y2="390.68"/></g><g id="LINE-166" data-name="LINE"><line class="cls-1" x1="573.24" y1="408.68" x2="637.39" y2="408.68"/></g><g id="LINE-167" data-name="LINE"><line class="cls-1" x1="573.24" y1="426.68" x2="636.35" y2="426.68"/></g><g id="LINE-168" data-name="LINE"><line class="cls-1" x1="573.24" y1="444.68" x2="635.32" y2="444.68"/></g><g id="LINE-169" data-name="LINE"><polyline class="cls-4" points="539.72 459.68 539.72 305.5 545.32 305.5"/></g><g id="LINE-170" data-name="LINE"><line class="cls-4" x1="545.32" y1="305.5" x2="605" y2="305.5"/></g><g id="LINE-171" data-name="LINE"><line class="cls-4" x1="605" y1="422.04" x2="605" y2="305.5"/></g><polyline class="cls-4" points="608.73 418.3 605 422.04 601.26 418.3"/></g><g id="STAIR_RAILING" data-name="STAIR RAILING"><g id="LINE-172" data-name="LINE"><polygon class="cls-3" points="629.77 462.68 638.08 318.45 642.57 318.71 642.44 320.95 640.2 320.82 632.03 462.68 629.77 462.68"/></g><g id="LINE-173" data-name="LINE"><polygon class="cls-3" points="505.73 477.68 510.24 477.68 510.23 315.68 505.75 315.68 505.75 317.93 507.98 317.93 507.99 475.43 505.73 475.43 505.73 477.68"/></g><g id="LINE-174" data-name="LINE"><polyline class="cls-3" points="634.02 467.18 561.24 467.18 561.25 329.18 577.71 329.18 577.74 462.68 575.49 462.68 575.46 331.43 563.5 331.43 563.49 464.93 634.15 464.93"/></g></g><g id="A-CURTAIN_WALL" data-name="A-CURTAIN WALL"><g id="LINE-175" data-name="LINE"><line class="cls-1" x1="396.71" y1="166.76" x2="502.46" y2="166.76"/></g><g id="LINE-176" data-name="LINE"><line class="cls-1" x1="107.2" y1="166.76" x2="261.7" y2="166.76"/></g><g id="LINE-177" data-name="LINE"><line class="cls-1" x1="107.2" y1="721.41" x2="107.2" y2="454.82"/></g><g id="LINE-178" data-name="LINE"><line class="cls-1" x1="107.2" y1="430.82" x2="107.2" y2="166.76"/></g><g id="LINE-179" data-name="LINE"><line class="cls-1" x1="396.71" y1="156.26" x2="502.46" y2="156.26"/></g><g id="LINE-180" data-name="LINE"><line class="cls-1" x1="96.7" y1="156.26" x2="261.7" y2="156.26"/></g><g id="LINE-181" data-name="LINE"><line class="cls-1" x1="96.7" y1="720.99" x2="96.7" y2="156.26"/></g></g><g id="A-Elevator_Cab" data-name="A-Elevator Cab"><g id="LWPOLYLINE-35" data-name="LWPOLYLINE"><polygon class="cls-2" points="398.94 519.85 312.69 519.78 312.69 462.78 398.94 462.78 398.94 519.85"/></g></g><g id="DOOR_SWING" data-name="DOOR SWING"><g id="ARC-5" data-name="ARC"><path class="cls-4" d="M221.71,162.15c0-28.26-24.17-51.18-54-51.18" transform="translate(-8.76 -5.89)"/></g><g id="ARC-6" data-name="ARC"><path class="cls-4" d="M454.22,165a54,54,0,0,1,54-54" transform="translate(-8.76 -5.89)"/></g><g id="ARC-7" data-name="ARC"><path class="cls-4" d="M108.12,517.72a54,54,0,0,1-54-54" transform="translate(-8.76 -5.89)"/></g></g><g id="DOOR"><g id="LWPOLYLINE-36" data-name="LWPOLYLINE"><polygon class="cls-5" points="505.73 496.58 503.49 496.47 503.49 548.97 505.73 549.09 505.73 496.58"/></g><g id="LWPOLYLINE-37" data-name="LWPOLYLINE"><polygon class="cls-5" points="437.27 560.28 437.15 562.53 489.65 562.53 489.77 560.28 437.27 560.28"/></g><g id="LINE-182" data-name="LINE"><rect class="cls-5" x="502.96" y="166.77" width="2.63" height="54.48"/></g><g id="LINE-183" data-name="LINE"><rect class="cls-5" x="435.23" y="441.59" width="53.82" height="2.63"/></g><g id="LWPOLYLINE-38" data-name="LWPOLYLINE"><rect class="cls-5" x="169.15" y="441.59" width="55.04" height="2.63"/></g></g><g id="CLOSET"><g id="LWPOLYLINE-39" data-name="LWPOLYLINE"><polyline class="cls-2" points="560.32 245.92 622.56 245.92 625.17 200.57"/></g><g id="LWPOLYLINE-40" data-name="LWPOLYLINE"><polyline class="cls-2" points="631.16 200.92 628.31 250.42 560.32 250.42"/></g><g id="LWPOLYLINE-41" data-name="LWPOLYLINE"><polyline class="cls-2" points="548.51 583.15 610.65 583.15 604.07 697.53 500.15 697.53"/></g><g id="LWPOLYLINE-42" data-name="LWPOLYLINE"><polyline class="cls-2" points="548.51 578.65 615.42 578.65 608.32 702.03 500.15 702.03"/></g></g><g id="HANGERS"><g id="LINE-184" data-name="LINE"><line class="cls-6" x1="541.77" y1="686.28" x2="552.06" y2="713.28"/></g><g id="LINE-185" data-name="LINE"><line class="cls-6" x1="547.49" y1="686.28" x2="557.79" y2="713.28"/></g><g id="LINE-186" data-name="LINE"><line class="cls-6" x1="535.3" y1="686.28" x2="535.3" y2="713.28"/></g><g id="LINE-187" data-name="LINE"><line class="cls-6" x1="539.17" y1="686.28" x2="539.17" y2="713.28"/></g><g id="LINE-188" data-name="LINE"><line class="cls-6" x1="527.56" y1="686.28" x2="527.56" y2="713.28"/></g><g id="LINE-189" data-name="LINE"><line class="cls-6" x1="531.43" y1="686.28" x2="531.43" y2="713.28"/></g><g id="LINE-190" data-name="LINE"><line class="cls-6" x1="591.02" y1="234.65" x2="601.31" y2="261.65"/></g><g id="LINE-191" data-name="LINE"><line class="cls-6" x1="596.74" y1="234.65" x2="607.04" y2="261.65"/></g><g id="LINE-192" data-name="LINE"><line class="cls-6" x1="584.55" y1="234.65" x2="584.55" y2="261.65"/></g><g id="LINE-193" data-name="LINE"><line class="cls-6" x1="588.42" y1="234.65" x2="588.42" y2="261.65"/></g><g id="LINE-194" data-name="LINE"><line class="cls-6" x1="576.81" y1="234.65" x2="576.81" y2="261.65"/></g><g id="LINE-195" data-name="LINE"><line class="cls-6" x1="580.68" y1="234.65" x2="580.68" y2="261.65"/></g><g id="LINE-196" data-name="LINE"><line class="cls-6" x1="640.99" y1="220.59" x2="613.5" y2="229.5"/></g><g id="LINE-197" data-name="LINE"><line class="cls-6" x1="640.7" y1="226.3" x2="613.21" y2="235.22"/></g><g id="LINE-198" data-name="LINE"><line class="cls-6" x1="641.32" y1="214.13" x2="614.35" y2="212.76"/></g><g id="LINE-199" data-name="LINE"><line class="cls-6" x1="641.12" y1="218" x2="614.16" y2="216.63"/></g><g id="LINE-200" data-name="LINE"><line class="cls-6" x1="641.71" y1="206.4" x2="614.75" y2="205.03"/></g><g id="LINE-201" data-name="LINE"><line class="cls-6" x1="641.52" y1="210.26" x2="614.55" y2="208.89"/></g><g id="LINE-202" data-name="LINE"><line class="cls-6" x1="624.19" y1="604.36" x2="596.55" y2="612.8"/></g><g id="LINE-203" data-name="LINE"><line class="cls-6" x1="623.8" y1="610.07" x2="596.16" y2="618.51"/></g><g id="LINE-204" data-name="LINE"><line class="cls-6" x1="624.62" y1="597.91" x2="597.68" y2="596.08"/></g><g id="LINE-205" data-name="LINE"><line class="cls-6" x1="624.36" y1="601.77" x2="597.42" y2="599.94"/></g><g id="LINE-206" data-name="LINE"><line class="cls-6" x1="625.15" y1="590.18" x2="598.21" y2="588.36"/></g><g id="LINE-207" data-name="LINE"><line class="cls-6" x1="624.88" y1="594.04" x2="597.95" y2="592.22"/></g></g><g id="BATH_FIXTURE_EXTERIOR" data-name="BATH FIXTURE EXTERIOR"><g id="LWPOLYLINE-43" data-name="LWPOLYLINE"><rect class="cls-7" x="239.08" y="448.48" width="33.07" height="120.42"/></g><g id="LWPOLYLINE-44" data-name="LWPOLYLINE"><path class="cls-2" d="M170.2,571.37a276.15,276.15,0,0,1-2.76,40.43" transform="translate(-8.76 -5.89)"/></g><g id="LWPOLYLINE-45" data-name="LWPOLYLINE"><path class="cls-2" d="M162,621.39a12.15,12.15,0,0,1-2.84,1.29,44,44,0,0,1-12.64,1.85" transform="translate(-8.76 -5.89)"/></g><g id="ARC-8" data-name="ARC"><path class="cls-2" d="M162,621.39a15.55,15.55,0,0,0,5.41-9.63" transform="translate(-8.76 -5.89)"/></g><g id="LWPOLYLINE-46" data-name="LWPOLYLINE"><path class="cls-2" d="M170.2,571.37a276.24,276.24,0,0,0-2.76-40.43" transform="translate(-8.76 -5.89)"/></g><g id="LWPOLYLINE-47" data-name="LWPOLYLINE"><path class="cls-2" d="M162,521.35a12.15,12.15,0,0,0-2.84-1.29,44,44,0,0,0-12.64-1.85" transform="translate(-8.76 -5.89)"/></g><g id="ARC-9" data-name="ARC"><path class="cls-2" d="M167.44,531a15.55,15.55,0,0,0-5.41-9.63" transform="translate(-8.76 -5.89)"/></g><g id="LWPOLYLINE-48" data-name="LWPOLYLINE"><path class="cls-2" d="M122.91,571.37a276.15,276.15,0,0,0,2.76,40.43" transform="translate(-8.76 -5.89)"/></g><g id="LWPOLYLINE-49" data-name="LWPOLYLINE"><path class="cls-2" d="M131.07,621.39a12.33,12.33,0,0,0,2.84,1.29,44,44,0,0,0,12.64,1.85" transform="translate(-8.76 -5.89)"/></g><g id="ARC-10" data-name="ARC"><path class="cls-2" d="M125.66,611.76a15.59,15.59,0,0,0,5.41,9.63" transform="translate(-8.76 -5.89)"/></g><g id="LWPOLYLINE-50" data-name="LWPOLYLINE"><path class="cls-2" d="M122.91,571.37a276.24,276.24,0,0,1,2.76-40.43" transform="translate(-8.76 -5.89)"/></g><g id="LWPOLYLINE-51" data-name="LWPOLYLINE"><path class="cls-2" d="M131.07,521.35a12.33,12.33,0,0,1,2.84-1.29,44,44,0,0,1,12.64-1.85" transform="translate(-8.76 -5.89)"/></g><g id="ARC-11" data-name="ARC"><path class="cls-2" d="M131.07,521.35a15.59,15.59,0,0,0-5.41,9.63" transform="translate(-8.76 -5.89)"/></g><line class="cls-2" x1="176.67" y1="721.43" x2="211.87" y2="721.43"/><line class="cls-7" x1="272.15" y1="461.47" x2="278.15" y2="461.47"/><line class="cls-7" x1="272.15" y1="555.97" x2="278.15" y2="555.97"/><line class="cls-7" x1="272.15" y1="513.69" x2="278.15" y2="513.69"/><line class="cls-7" x1="272.15" y1="504.28" x2="278.15" y2="504.28"/></g><g id="BATH_FIXTURES" data-name="BATH FIXTURES"><g id="ELLIPSE-2" data-name="ELLIPSE"><path class="cls-8" d="M168.6,727.24v-6.45c-.84-.07-1.41-.27-1.41-.5l-.28-5.31h0c0-.18,1-.32,2.28-.32s2.24.15,2.22.33h0l-.28,5.31c0,.23-.57.43-1.41.5v6.45" transform="translate(-8.76 -5.89)"/></g><g id="LWPOLYLINE-52" data-name="LWPOLYLINE"><path class="cls-8" d="M153.33,727.32v-3.53h-2.17a1.15,1.15,0,0,1,0-2.3h3a1.14,1.14,0,0,1,1.15,1.15,1.17,1.17,0,0,1-.31.79v3.89" transform="translate(-8.76 -5.89)"/></g><path class="cls-9" d="M187.71,727.07V726h-1.28v-1.1a.6.6,0,0,0-.6-.6h-.28v-1.25a.56.56,0,1,0-1.11,0v1.25h-.28a.6.6,0,0,0-.6.6V726h-1.28v1.07" transform="translate(-8.76 -5.89)"/><g id="ARC-12" data-name="ARC"><path class="cls-4" d="M256.26,681.29a7.48,7.48,0,0,0-9.82,0" transform="translate(-8.76 -5.89)"/></g><g id="ARC-13" data-name="ARC"><path class="cls-4" d="M260.18,686.71a14.64,14.64,0,0,0-3.92-5.42" transform="translate(-8.76 -5.89)"/></g><g id="ARC-14" data-name="ARC"><path class="cls-4" d="M246.44,681.29a14.73,14.73,0,0,0-3.91,5.42" transform="translate(-8.76 -5.89)"/></g><g id="ARC-15" data-name="ARC"><path class="cls-4" d="M256.26,681.29a7.48,7.48,0,0,0-9.82,0" transform="translate(-8.76 -5.89)"/></g><g id="ARC-16" data-name="ARC"><path class="cls-4" d="M246.44,681.29a14.69,14.69,0,0,0-4,5.74" transform="translate(-8.76 -5.89)"/></g><g id="ARC-17" data-name="ARC"><path class="cls-4" d="M260.14,686.63a14.57,14.57,0,0,0-3.88-5.34" transform="translate(-8.76 -5.89)"/></g><g id="ARC-18" data-name="ARC"><path class="cls-4" d="M261.9,695.3a22.25,22.25,0,0,0-1.76-8.67" transform="translate(-8.76 -5.89)"/></g><g id="ARC-19" data-name="ARC"><path class="cls-4" d="M242.56,686.63a22.25,22.25,0,0,0-1.76,8.67" transform="translate(-8.76 -5.89)"/></g><g id="ARC-20" data-name="ARC"><path class="cls-4" d="M263,715.05a1.87,1.87,0,0,0-1-1.83" transform="translate(-8.76 -5.89)"/></g><g id="ARC-21" data-name="ARC"><path class="cls-4" d="M262.62,719.92c.14-1.63.27-3.26.37-4.9" transform="translate(-8.76 -5.89)"/></g><g id="ARC-22" data-name="ARC"><path class="cls-4" d="M262,713.22a24,24,0,0,0-10.6-2.47" transform="translate(-8.76 -5.89)"/></g><g id="ARC-23" data-name="ARC"><path class="cls-4" d="M261.58,713q.33-8.88.32-17.76" transform="translate(-8.76 -5.89)"/></g><g id="ARC-24" data-name="ARC"><path class="cls-4" d="M240.8,695.28q0,8.88.33,17.76" transform="translate(-8.76 -5.89)"/></g><g id="ARC-25" data-name="ARC"><path class="cls-4" d="M239.71,715c.11,1.64.23,3.27.37,4.9" transform="translate(-8.76 -5.89)"/></g><g id="ARC-26" data-name="ARC"><path class="cls-4" d="M240.76,713.22a1.87,1.87,0,0,0-1,1.83" transform="translate(-8.76 -5.89)"/></g><g id="ARC-27" data-name="ARC"><path class="cls-4" d="M251.35,710.75a24,24,0,0,0-10.59,2.47" transform="translate(-8.76 -5.89)"/></g><g id="LINE-208" data-name="LINE"><line class="cls-4" x1="232.49" y1="715.1" x2="252.64" y2="715.1"/></g><g id="ARC-28" data-name="ARC"><path class="cls-4" d="M261.46,721a1.16,1.16,0,0,0,1.16-1.07" transform="translate(-8.76 -5.89)"/></g><g id="ARC-29" data-name="ARC"><path class="cls-4" d="M240.08,719.92a1.17,1.17,0,0,0,1.17,1.07" transform="translate(-8.76 -5.89)"/></g><g id="CIRCLE-5" data-name="CIRCLE"><path class="cls-4" d="M146.55,573.16a1.8,1.8,0,1,1,1.8-1.79,1.8,1.8,0,0,1-1.8,1.79Z" transform="translate(-8.76 -5.89)"/></g><g id="LWPOLYLINE-53" data-name="LWPOLYLINE"><path class="cls-4" d="M168.33,571.37a276,276,0,0,1-2.74,40.11" transform="translate(-8.76 -5.89)"/></g><g id="LWPOLYLINE-54" data-name="LWPOLYLINE"><path class="cls-4" d="M160.93,619.87a9.9,9.9,0,0,1-2.28,1,41.64,41.64,0,0,1-12.1,1.77" transform="translate(-8.76 -5.89)"/></g><g id="ARC-30" data-name="ARC"><path class="cls-4" d="M160.93,619.87a13.73,13.73,0,0,0,4.66-8.39" transform="translate(-8.76 -5.89)"/></g><g id="LWPOLYLINE-55" data-name="LWPOLYLINE"><path class="cls-4" d="M168.33,571.37a276,276,0,0,0-2.74-40.11" transform="translate(-8.76 -5.89)"/></g><g id="LWPOLYLINE-56" data-name="LWPOLYLINE"><path class="cls-4" d="M160.93,522.87a9.9,9.9,0,0,0-2.28-1,42,42,0,0,0-12.1-1.77" transform="translate(-8.76 -5.89)"/></g><g id="ARC-31" data-name="ARC"><path class="cls-4" d="M165.59,531.26a13.75,13.75,0,0,0-4.66-8.39" transform="translate(-8.76 -5.89)"/></g><g id="LWPOLYLINE-57" data-name="LWPOLYLINE"><path class="cls-4" d="M124.77,571.37a277.46,277.46,0,0,0,2.74,40.11" transform="translate(-8.76 -5.89)"/></g><g id="LWPOLYLINE-58" data-name="LWPOLYLINE"><path class="cls-4" d="M132.17,619.87a10.1,10.1,0,0,0,2.28,1,41.69,41.69,0,0,0,12.1,1.77" transform="translate(-8.76 -5.89)"/></g><g id="ARC-32" data-name="ARC"><path class="cls-4" d="M127.51,611.48a13.77,13.77,0,0,0,4.66,8.39" transform="translate(-8.76 -5.89)"/></g><g id="LWPOLYLINE-59" data-name="LWPOLYLINE"><path class="cls-4" d="M124.77,571.37a277.46,277.46,0,0,1,2.74-40.11" transform="translate(-8.76 -5.89)"/></g><g id="LWPOLYLINE-60" data-name="LWPOLYLINE"><path class="cls-4" d="M132.17,522.87a10.1,10.1,0,0,1,2.28-1,42,42,0,0,1,12.1-1.77" transform="translate(-8.76 -5.89)"/></g><g id="ARC-33" data-name="ARC"><path class="cls-4" d="M132.17,522.87a13.8,13.8,0,0,0-4.66,8.39" transform="translate(-8.76 -5.89)"/></g><g id="ARC-34" data-name="ARC"><path class="cls-4" d="M125.88,625.12a1.4,1.4,0,0,0-1.54,1.26,1.41,1.41,0,1,0,2.8.27,1.45,1.45,0,0,0,0-.36" transform="translate(-8.76 -5.89)"/></g><g id="ARC-35" data-name="ARC"><path class="cls-4" d="M125.11,625.93a.85.85,0,0,0,0,1.21.85.85,0,0,0,1.21,0" transform="translate(-8.76 -5.89)"/></g><g id="ARC-36" data-name="ARC"><path class="cls-10" d="M126.37,627.1l12.15-13a.85.85,0,0,0,0-1.21.86.86,0,0,0-1.21,0l-12.16,13" transform="translate(-8.76 -5.89)"/></g><g id="LINE-209" data-name="LINE"><line class="cls-4" x1="120.47" y1="625.81" x2="122.38" y2="623.76"/></g><g id="LINE-210" data-name="LINE"><line class="cls-4" x1="113.48" y1="615.45" x2="111.57" y2="617.49"/></g><g id="LINE-211" data-name="LINE"><line class="cls-4" x1="114.55" y1="616.45" x2="112.64" y2="618.5"/></g><g id="LINE-212" data-name="LINE"><line class="cls-4" x1="111.57" y1="617.49" x2="120.47" y2="625.81"/></g><g id="LINE-213" data-name="LINE"><line class="cls-4" x1="113.48" y1="615.45" x2="117.3" y2="619.02"/></g><g id="LINE-214" data-name="LINE"><line class="cls-4" x1="118.56" y1="620.19" x2="122.38" y2="623.76"/></g><g id="LINE-215" data-name="LINE"><line class="cls-4" x1="113.45" y1="617.63" x2="112.37" y2="616.63"/></g><g id="LINE-216" data-name="LINE"><line class="cls-4" x1="113.78" y1="617.28" x2="112.7" y2="616.28"/></g><g id="ELLIPSE-3" data-name="ELLIPSE"><path class="cls-4" d="M130.07,628.65a4.29,4.29,0,0,0-1.87,1.94l0,.1" transform="translate(-8.76 -5.89)"/></g><g id="ELLIPSE-4" data-name="ELLIPSE"><path class="cls-4" d="M128.89,631.38a4.34,4.34,0,0,0,1.87-1.94,1,1,0,0,1,0-.1" transform="translate(-8.76 -5.89)"/></g><g id="ARC-37" data-name="ARC"><path class="cls-4" d="M122.39,625.31a3.56,3.56,0,0,0,4.78,4.47" transform="translate(-8.76 -5.89)"/></g><g id="ARC-38" data-name="ARC"><path class="cls-4" d="M129.09,627.74a3.59,3.59,0,0,0-.36-3.17" transform="translate(-8.76 -5.89)"/></g><g id="ARC-39" data-name="ARC"><path class="cls-4" d="M127.47,623.4a3.59,3.59,0,0,0-3.18-.14" transform="translate(-8.76 -5.89)"/></g></g><g id="SINK"><rect class="cls-9" x="266.81" y="527.18" width="1.33" height="2.46"/><path class="cls-9" d="M276.23,536.21a1.91,1.91,0,1,1,1.9-1.9A1.91,1.91,0,0,1,276.23,536.21Z" transform="translate(-8.76 -5.89)"/><path class="cls-9" d="M276.3,542.2a1.9,1.9,0,1,1,1.9-1.9A1.9,1.9,0,0,1,276.3,542.2Z" transform="translate(-8.76 -5.89)"/><path class="cls-9" d="M273.29,540.93v13.29a.72.72,0,0,1-.72.72h-17.7a.72.72,0,0,1-.72-.72V526.4a.72.72,0,0,1,.72-.72h17.7a.72.72,0,0,1,.72.72v13.27" transform="translate(-8.76 -5.89)"/><path class="cls-8" d="M266.11,540.93a.64.64,0,0,1-.64-.63h0a.64.64,0,0,1,.64-.63h10.55a.64.64,0,0,1,.65.63h0a.64.64,0,0,1-.65.63Z" transform="translate(-8.76 -5.89)"/><rect class="cls-9" x="266.81" y="539.22" width="1.33" height="2.46"/><path class="cls-9" d="M276.23,548.25a1.9,1.9,0,1,1,1.9-1.9A1.9,1.9,0,0,1,276.23,548.25Z" transform="translate(-8.76 -5.89)"/><rect class="cls-9" x="266.81" y="476.36" width="1.33" height="2.46"/><path class="cls-9" d="M276.23,485.39a1.9,1.9,0,1,1,1.9-1.9A1.9,1.9,0,0,1,276.23,485.39Z" transform="translate(-8.76 -5.89)"/><path class="cls-9" d="M276.3,491.39a1.91,1.91,0,1,1,1.9-1.9A1.9,1.9,0,0,1,276.3,491.39Z" transform="translate(-8.76 -5.89)"/><path class="cls-9" d="M273.29,490.12V503.4a.72.72,0,0,1-.72.72h-17.7a.72.72,0,0,1-.72-.72V475.59a.72.72,0,0,1,.72-.72h17.7a.72.72,0,0,1,.72.72v13.26" transform="translate(-8.76 -5.89)"/><path class="cls-8" d="M266.11,490.12a.64.64,0,0,1-.64-.63h0a.64.64,0,0,1,.64-.64h10.55a.65.65,0,0,1,.65.64h0a.64.64,0,0,1-.65.63Z" transform="translate(-8.76 -5.89)"/><rect class="cls-9" x="266.81" y="488.41" width="1.33" height="2.46"/><path class="cls-9" d="M276.23,497.44a1.91,1.91,0,1,1,1.9-1.91A1.91,1.91,0,0,1,276.23,497.44Z" transform="translate(-8.76 -5.89)"/></g><g id="BATH_GLAZING" data-name="BATH GLAZING"><g id="LINE-217" data-name="LINE"><polyline class="cls-11" points="114.51 632.6 264.53 632.6 264.53 631.04 114.51 631.04"/></g><g id="LINE-218" data-name="LINE"><polyline class="cls-11" points="214 632.74 214 715.59 215.55 715.59 215.55 632.74"/></g><g id="LINE-219" data-name="LINE"><line class="cls-11" x1="165.45" y1="631.04" x2="165.45" y2="632.6"/></g></g><g id="EXTERIOR_WINDOW" data-name="EXTERIOR WINDOW"><g id="LWPOLYLINE-61" data-name="LWPOLYLINE"><polygon class="cls-12" points="96.69 740.72 0.25 740.72 0.25 436.67 96.7 436.67 96.7 448.67 12.25 448.67 12.25 734.19 96.69 734.19 96.69 740.72"/></g><g id="LWPOLYLINE-62" data-name="LWPOLYLINE"><polygon class="cls-12" points="96.7 156.26 96.7 0.26 502.47 0.25 502.47 12.25 108.7 12.26 108.7 156.26 96.7 156.26"/></g></g><g id="WINDOW_GLAZING" data-name="WINDOW GLAZING"><g id="LWPOLYLINE-63" data-name="LWPOLYLINE"><rect class="cls-13" x="158.95" y="105.08" width="1.5" height="54"/></g><g id="LWPOLYLINE-64" data-name="LWPOLYLINE"><rect class="cls-13" x="45.36" y="457.82" width="54" height="1.5"/></g><g id="LWPOLYLINE-65" data-name="LWPOLYLINE"><line class="cls-13" x1="99.7" y1="168.6" x2="99.7" y2="216.69"/><line class="cls-13" x1="98.2" y1="216.69" x2="98.2" y2="168.6"/></g><g id="LWPOLYLINE-66" data-name="LWPOLYLINE"><line class="cls-13" x1="99.7" y1="217.35" x2="99.7" y2="281.5"/><line class="cls-13" x1="98.2" y1="281.5" x2="98.2" y2="217.35"/></g><g id="LWPOLYLINE-67" data-name="LWPOLYLINE"><line class="cls-13" x1="99.7" y1="719.09" x2="99.69" y2="630.4"/><line class="cls-13" x1="98.19" y1="630.4" x2="98.2" y2="719.09"/></g><g id="LWPOLYLINE-68" data-name="LWPOLYLINE"><line class="cls-13" x1="98.19" y1="617.06" x2="98.2" y2="629.74"/><line class="cls-13" x1="99.7" y1="629.74" x2="99.69" y2="617.06"/></g><g id="LWPOLYLINE-69" data-name="LWPOLYLINE"><line class="cls-13" x1="99.7" y1="282.16" x2="99.7" y2="360.66"/><line class="cls-13" x1="98.2" y1="360.66" x2="98.2" y2="282.16"/></g><g id="LWPOLYLINE-70" data-name="LWPOLYLINE"><line class="cls-13" x1="99.7" y1="361.32" x2="99.7" y2="428.99"/><line class="cls-13" x1="98.2" y1="428.99" x2="98.2" y2="361.32"/></g><g id="LWPOLYLINE-71" data-name="LWPOLYLINE"><rect class="cls-13" x="497.96" y="105.08" width="1.5" height="54"/></g><g id="LWPOLYLINE-72" data-name="LWPOLYLINE"><line class="cls-13" x1="98.02" y1="513.69" x2="98.02" y2="616.24"/><line class="cls-13" x1="99.52" y1="616.24" x2="99.52" y2="513.69"/></g><g id="LWPOLYLINE-73" data-name="LWPOLYLINE"><line class="cls-13" x1="259.87" y1="159.22" x2="214.74" y2="159.22"/><line class="cls-13" x1="214.74" y1="157.72" x2="259.87" y2="157.72"/></g><g id="LWPOLYLINE-74" data-name="LWPOLYLINE"><line class="cls-13" x1="157.12" y1="159.22" x2="109.03" y2="159.22"/><line class="cls-13" x1="109.03" y1="157.72" x2="157.12" y2="157.72"/></g><g id="LWPOLYLINE-75" data-name="LWPOLYLINE"><line class="cls-13" x1="398.52" y1="159.25" x2="443.65" y2="159.25"/><line class="cls-13" x1="443.65" y1="157.75" x2="398.52" y2="157.75"/></g></g><g id="MULLION"><g id="LWPOLYLINE-76" data-name="LWPOLYLINE"><polygon class="cls-2" points="158.95 157.58 157.78 157.58 157.78 159.45 158.95 159.45 158.95 166.77 155.95 166.77 155.95 159.45 157.12 159.45 157.12 157.58 155.95 157.58 155.95 156.27 158.95 156.27 158.95 157.58"/></g><g id="LWPOLYLINE-77" data-name="LWPOLYLINE"><polygon class="cls-2" points="215.91 156.27 215.91 157.58 214.74 157.58 214.74 159.45 215.91 159.45 215.91 166.77 212.91 166.77 212.91 159.45 214.08 159.45 214.08 157.58 212.91 157.58 212.91 156.27 215.91 156.27"/></g><g id="LWPOLYLINE-78" data-name="LWPOLYLINE"><polygon class="cls-2" points="261.7 156.26 261.7 157.57 260.53 157.57 260.53 159.45 261.7 159.45 261.7 166.76 258.7 166.76 258.7 159.45 259.87 159.45 259.87 157.57 258.7 157.57 258.7 156.26 261.7 156.26"/></g><g id="LWPOLYLINE-79" data-name="LWPOLYLINE"><polygon class="cls-2" points="107.2 717.99 107.2 720.99 99.89 720.99 99.89 719.82 98.02 719.82 98.02 720.99 96.7 720.99 96.7 717.99 98.02 717.99 98.02 719.16 99.89 719.16 99.89 717.99 107.2 717.99"/></g><g id="LWPOLYLINE-80" data-name="LWPOLYLINE"><polygon class="cls-2" points="107.2 628.57 107.2 631.57 99.89 631.57 99.89 630.4 98.01 630.4 98.01 631.57 96.7 631.57 96.7 628.57 98.01 628.57 98.01 629.74 99.89 629.74 99.89 628.57 107.2 628.57"/></g><g id="LWPOLYLINE-81" data-name="LWPOLYLINE"><polygon class="cls-2" points="107.2 615.07 107.2 618.07 99.89 618.07 99.89 616.9 98.01 616.9 98.01 618.07 96.7 618.07 96.7 615.07 98.01 615.07 98.01 616.24 99.89 616.24 99.89 615.07 107.2 615.07"/></g><g id="LWPOLYLINE-82" data-name="LWPOLYLINE"><polygon class="cls-2" points="107.2 427.82 107.2 430.82 99.89 430.82 99.89 429.65 98.01 429.65 98.01 430.82 96.7 430.82 96.7 427.82 98.01 427.82 98.01 428.99 99.89 428.99 99.89 427.82 107.2 427.82"/></g><g id="LWPOLYLINE-83" data-name="LWPOLYLINE"><polygon class="cls-2" points="107.2 359.49 107.2 362.49 99.89 362.49 99.89 361.32 98.01 361.32 98.01 362.49 96.7 362.49 96.7 359.49 98.01 359.49 98.01 360.66 99.89 360.66 99.89 359.49 107.2 359.49"/></g><g id="LWPOLYLINE-84" data-name="LWPOLYLINE"><polygon class="cls-2" points="107.2 280.33 107.2 283.33 99.89 283.33 99.89 282.16 98.01 282.16 98.01 283.33 96.7 283.33 96.7 280.33 98.01 280.33 98.01 281.5 99.89 281.5 99.89 280.33 107.2 280.33"/></g><g id="LWPOLYLINE-85" data-name="LWPOLYLINE"><polygon class="cls-2" points="107.2 215.52 107.2 218.52 99.89 218.52 99.89 217.35 98.01 217.35 98.01 218.52 96.7 218.52 96.7 215.52 98.01 215.52 98.01 216.69 99.89 216.69 99.89 215.52 107.2 215.52"/></g><g id="LWPOLYLINE-86" data-name="LWPOLYLINE"><polygon class="cls-2" points="107.2 166.77 107.2 169.77 99.89 169.77 99.89 168.6 98.01 168.6 98.01 169.77 96.7 169.77 96.7 166.77 98.01 166.77 98.01 167.94 99.89 167.94 99.89 166.77 107.2 166.77"/></g><g id="LWPOLYLINE-87" data-name="LWPOLYLINE"><polygon class="cls-2" points="110.2 166.77 107.2 166.77 107.2 159.45 108.37 159.45 108.37 157.58 107.2 157.58 107.2 156.27 110.2 156.27 110.2 157.58 109.03 157.58 109.03 159.45 110.2 159.45 110.2 166.77"/></g><g id="LWPOLYLINE-88" data-name="LWPOLYLINE"><polygon class="cls-2" points="399.71 166.77 396.71 166.77 396.71 159.45 397.88 159.45 397.88 157.58 396.71 157.58 396.71 156.27 399.71 156.27 399.71 157.58 398.54 157.58 398.54 159.45 399.71 159.45 399.71 166.77"/></g><g id="LWPOLYLINE-89" data-name="LWPOLYLINE"><polygon class="cls-2" points="499.46 157.58 500.63 157.58 500.63 159.45 499.46 159.45 499.46 166.77 502.46 166.77 502.46 159.45 501.29 159.45 501.29 157.58 502.46 157.58 502.46 156.27 499.46 156.27 499.46 157.58"/></g><g id="LWPOLYLINE-90" data-name="LWPOLYLINE"><polygon class="cls-2" points="442.5 156.27 442.5 157.58 443.67 157.58 443.67 159.45 442.5 159.45 442.5 166.77 445.5 166.77 445.5 159.45 444.33 159.45 444.33 157.58 445.5 157.58 445.5 156.27 442.5 156.27"/></g><g id="LWPOLYLINE-91" data-name="LWPOLYLINE"><polygon class="cls-2" points="97.86 457.82 97.86 456.65 99.74 456.65 99.74 457.82 107.05 457.82 107.05 454.82 99.74 454.82 99.74 455.99 97.86 455.99 97.86 454.82 96.55 454.82 96.55 457.82 97.86 457.82"/></g><g id="LWPOLYLINE-92" data-name="LWPOLYLINE"><polygon class="cls-2" points="96.55 514.78 97.86 514.78 97.86 513.62 99.74 513.62 99.74 514.78 107.05 514.78 107.05 511.79 99.74 511.79 99.74 512.96 97.86 512.96 97.86 511.79 96.55 511.79 96.55 514.78"/></g></g><g id="WALL"><polygon class="cls-14" points="502.47 0.25 502.46 166.77 625.19 166.77 625.17 200.57 649.37 200.57 645.64 265.39 560.32 265.42 560.32 233.05 510.23 233.05 510.23 219.49 506.3 219.49 506.3 271.99 502.17 271.99 502.17 219.49 498.23 219.49 498.23 436.9 489.05 436.9 489.05 448.9 498.23 448.9 498.23 496.61 505.73 496.45 505.73 278.72 645.21 278.72 628.96 555.03 505.78 555.03 505.78 549.03 498.28 549.03 498.28 555.03 489.71 555.03 489.71 562.53 509.96 562.53 523.01 562.53 523.01 584.65 548.51 584.65 548.51 562.53 628.53 562.53 619.38 721.53 500.15 721.53 500.15 696.03 431.15 696.03 431.15 562.9 437.21 562.9 437.21 555.03 408.02 555.03 408.02 518.28 399.02 518.28 399.02 535.53 304.52 535.53 304.52 459.03 399.02 459.03 399.02 464.28 408.02 464.28 408.02 448.9 436.55 448.9 436.55 444.96 386.15 444.96 386.15 440.84 436.55 440.84 436.55 436.9 221.9 436.9 221.9 440.84 272.81 440.84 272.81 444.96 221.9 444.96 221.9 448.9 272.15 448.9 272.15 454.15 278.15 454.15 278.15 563.65 272.15 563.65 272.15 631.1 264.28 631.1 264.28 638.6 272.15 638.6 272.15 715.1 209.9 715.1 209.9 727.1 185.9 727.1 185.9 721.1 107.2 721.41 107.19 720.99 96.69 720.99 96.69 731.22 0.25 731.22 0.25 742.47 96.69 742.47 96.69 746.19 283.77 746.19 283.77 565.53 421.77 565.53 421.77 746.19 627.72 746.19 661.69 156.29 514.46 156.29 514.47 0.25 502.47 0.25"/><g id="LWPOLYLINE-93" data-name="LWPOLYLINE"><polygon class="cls-14" points="96.7 430.82 96.7 454.82 136.92 454.82 136.92 448.9 169.4 448.9 169.4 436.9 136.92 436.9 136.92 430.82 96.7 430.82"/></g><g id="LWPOLYLINE-94" data-name="LWPOLYLINE"><circle class="cls-14" cx="124.81" cy="187.82" r="9"/></g><g id="LWPOLYLINE-95" data-name="LWPOLYLINE"><polygon class="cls-14" points="573.21 333.68 565.75 333.68 565.74 462.68 573.24 462.68 573.21 333.68"/></g><g id="LWPOLYLINE-96" data-name="LWPOLYLINE"><polyline class="cls-14" points="107.41 636.99 114.7 636.99 114.7 629.49 107.41 629.49"/></g><rect class="cls-15" x="280.32" y="134.3" width="94.31" height="23.42"/><rect class="cls-15" x="280.32" y="166.77" width="94.31" height="27.24"/><polygon class="cls-14" points="374.63 134.3 374.63 157.72 280.32 157.72 280.32 134.3 280.32 128.22 280.32 119.89 275.18 119.89 275.18 156.26 261.7 156.26 261.7 203.89 280.32 203.89 280.32 197.65 280.32 194.01 280.32 166.77 374.63 166.77 374.63 194.01 374.63 197.65 374.63 203.89 396.71 203.89 396.71 156.26 383.18 156.26 383.18 119.89 374.63 119.89 374.63 128.22 374.63 134.3"/></g><g id="OUTLINE"><path class="cls-16" d="M307.23,246.22l-2-4.87v4.87h-.78v-6.39h.93l2.16,5.25,2.16-5.25h.89v6.39h-.78v-4.87l-2,4.87Z" transform="translate(-8.76 -5.89)"/><path class="cls-16" d="M314.81,239.83l2.5,6.39h-.83l-.74-1.92h-2.63l-.73,1.92h-.84l2.5-6.39Zm-1.43,3.75h2.08l-1-2.73Z" transform="translate(-8.76 -5.89)"/><path class="cls-16" d="M318.57,244.56a1.56,1.56,0,0,0,1.62,1.06c.83,0,1.41-.41,1.41-1.11,0-.5-.28-.83-1-1l-1.14-.31c-.89-.22-1.53-.67-1.53-1.64a1.89,1.89,0,0,1,2.1-1.81,2.18,2.18,0,0,1,2.34,1.68h-.82a1.47,1.47,0,0,0-1.52-1c-.76,0-1.32.39-1.32,1.05s.35.8,1,1l1.09.28c1,.26,1.59.81,1.59,1.71,0,1.16-.93,1.86-2.2,1.86a2.3,2.3,0,0,1-2.46-1.76Z" transform="translate(-8.76 -5.89)"/><path class="cls-16" d="M323,239.83h5.28v.73H326v5.66h-.82v-5.66H323Z" transform="translate(-8.76 -5.89)"/><path class="cls-16" d="M333.39,239.83v.73h-3.26v2h3v.73h-3v2.17h3.26v.74h-4.07v-6.39Z" transform="translate(-8.76 -5.89)"/><path class="cls-16" d="M335.5,243.52v2.7h-.83v-6.39h2.38c1.28,0,2.09.65,2.09,1.86a1.7,1.7,0,0,1-1.63,1.8l1.89,2.73h-.94l-1.83-2.7Zm0-.7H337c.84,0,1.3-.43,1.3-1.13s-.46-1.14-1.3-1.14H335.5Z" transform="translate(-8.76 -5.89)"/><path class="cls-16" d="M347.15,244.42c0,1.17-.81,1.8-2.13,1.8h-2.31v-6.39h2.11c1.32,0,2.11.6,2.11,1.7a1.36,1.36,0,0,1-.94,1.38A1.54,1.54,0,0,1,347.15,244.42Zm-2.33-1.81c.85,0,1.32-.34,1.32-1s-.47-1-1.32-1h-1.31v2.06Zm-1.31,2.89H345c.87,0,1.33-.43,1.33-1.1s-.46-1.1-1.33-1.1h-1.51Z" transform="translate(-8.76 -5.89)"/><path class="cls-16" d="M352.38,239.83v.73h-3.26v2h3v.73h-3v2.17h3.26v.74h-4.07v-6.39Z" transform="translate(-8.76 -5.89)"/><path class="cls-16" d="M353.66,239.83h2a3.2,3.2,0,0,1,0,6.39h-2Zm2,5.65a2.47,2.47,0,0,0,0-4.92h-1.21v4.92Z" transform="translate(-8.76 -5.89)"/><path class="cls-16" d="M360.78,243.52v2.7H360v-6.39h2.37c1.28,0,2.09.65,2.09,1.86a1.69,1.69,0,0,1-1.62,1.8l1.88,2.73h-.94l-1.83-2.7Zm0-.7h1.53c.84,0,1.3-.43,1.3-1.13s-.46-1.14-1.3-1.14h-1.53Z" transform="translate(-8.76 -5.89)"/><path class="cls-16" d="M368.18,246.32a3.32,3.32,0,1,1,2.9-3.29A3,3,0,0,1,368.18,246.32Zm0-5.84c-1.22,0-2.06,1.05-2.06,2.55s.84,2.55,2.06,2.55,2.08-1.05,2.08-2.55S369.42,240.48,368.18,240.48Z" transform="translate(-8.76 -5.89)"/><path class="cls-16" d="M374.78,246.32A3,3,0,0,1,371.9,243c0-1.94,1.2-3.29,2.88-3.29a3.32,3.32,0,0,1,0,6.58Zm0-5.84c-1.23,0-2.06,1.05-2.06,2.55s.83,2.55,2.06,2.55,2.07-1.05,2.07-2.55S376,240.48,374.78,240.48Z" transform="translate(-8.76 -5.89)"/><path class="cls-16" d="M381.61,246.22l-2-4.87v4.87h-.78v-6.39h.93l2.16,5.25,2.16-5.25H385v6.39h-.78v-4.87l-2,4.87Z" transform="translate(-8.76 -5.89)"/><path class="cls-16" d="M321.68,251.66a1.23,1.23,0,0,0-1.25,1.28h-.85a2.07,2.07,0,0,1,2.1-2,1.74,1.74,0,0,1,1.94,1.8c0,.81-.64,1.45-1.29,2.18l-1.62,1.78h3.05v.72h-4.18v-.54l2.06-2.27c.67-.72,1.19-1.26,1.19-1.86A1,1,0,0,0,321.68,251.66Z" transform="translate(-8.76 -5.89)"/><path class="cls-16" d="M326.68,257.41h-.8V252l-1.59.81V252l1.9-1h.49Z" transform="translate(-8.76 -5.89)"/><path class="cls-16" d="M328.29,252a.51.51,0,0,1-.46-.52.56.56,0,1,1,1.11.05,1.4,1.4,0,0,1-.22.66l-.54.88h-.53Z" transform="translate(-8.76 -5.89)"/><path class="cls-16" d="M329.62,254.33h2.51v.73h-2.51Z" transform="translate(-8.76 -5.89)"/><path class="cls-16" d="M333.81,255.93a1.16,1.16,0,0,0,1.18.9c.93,0,1.61-1.07,1.61-2.44,0-.07,0-.22,0-.29a1.66,1.66,0,0,1-1.61,1.1,2.14,2.14,0,1,1,2-3,4.47,4.47,0,0,1,.38,1.95c0,2.08-1,3.41-2.34,3.41a1.89,1.89,0,0,1-2-1.58Zm1.23-4.3a1.35,1.35,0,0,0-1.37,1.43,1.38,1.38,0,1,0,1.37-1.43Z" transform="translate(-8.76 -5.89)"/><path class="cls-16" d="M338.14,251h.68v2.28h-.68Zm1.24,0h.68v2.28h-.68Z" transform="translate(-8.76 -5.89)"/><path class="cls-16" d="M345.54,255l1.72,2.39h-.88l-1.28-1.8-1.3,1.8H343l1.71-2.36-1.61-2.26H344l1.17,1.66,1.19-1.66h.86Z" transform="translate(-8.76 -5.89)"/><path class="cls-16" d="M352.39,257.41h-.81V252l-1.58.81V252l1.9-1h.49Z" transform="translate(-8.76 -5.89)"/><path class="cls-16" d="M354.5,254.53h-.65V251h3.5v.73h-2.81v1.93a1.77,1.77,0,0,1,1.16-.41,2,2,0,0,1,2,2.13,2,2,0,0,1-2.07,2.11,2.06,2.06,0,0,1-2.19-1.92h.8a1.36,1.36,0,1,0,1.38-1.61A1.45,1.45,0,0,0,354.5,254.53Z" transform="translate(-8.76 -5.89)"/><path class="cls-16" d="M358.35,251h.71v2.28h-.71Z" transform="translate(-8.76 -5.89)"/><path class="cls-16" d="M359.89,254.33h2.51v.73h-2.51Z" transform="translate(-8.76 -5.89)"/><path class="cls-16" d="M363.37,254.22c0-1.95.95-3.29,2.38-3.29s2.38,1.34,2.38,3.29-.95,3.29-2.38,3.29S363.37,256.17,363.37,254.22Zm.8,0c0,1.49.54,2.55,1.58,2.55s1.58-1.06,1.58-2.55-.55-2.55-1.58-2.55S364.17,252.73,364.17,254.22Z" transform="translate(-8.76 -5.89)"/><path class="cls-16" d="M369,251h.69v2.28H369Zm1.24,0h.69v2.28h-.69Z" transform="translate(-8.76 -5.89)"/><path class="cls-16" d="M347.76,491v2.56h-.82v-6.39h2.39a1.84,1.84,0,0,1,2.1,1.92c0,1.25-.81,1.91-2.1,1.91Zm1.55-3.11h-1.55v2.38h1.55c.87,0,1.31-.46,1.31-1.18A1.14,1.14,0,0,0,349.31,487.93Z" transform="translate(-8.76 -5.89)"/><path class="cls-16" d="M353.35,490.9v2.7h-.83v-6.39h2.38c1.28,0,2.09.65,2.09,1.86a1.69,1.69,0,0,1-1.63,1.79l1.89,2.74h-.94l-1.83-2.7Zm0-.7h1.53c.84,0,1.3-.43,1.3-1.13s-.46-1.14-1.3-1.14h-1.53Z" transform="translate(-8.76 -5.89)"/><path class="cls-16" d="M359.09,493.6h-.83v-6.39h.83Z" transform="translate(-8.76 -5.89)"/><path class="cls-16" d="M362.53,493.6l-2.47-6.39h.87l2,5.31,2-5.31h.84l-2.47,6.39Z" transform="translate(-8.76 -5.89)"/><path class="cls-16" d="M369,487.21l2.5,6.39h-.84l-.74-1.92h-2.63l-.73,1.92h-.83l2.5-6.39ZM367.53,491h2.08l-1-2.73Z" transform="translate(-8.76 -5.89)"/><path class="cls-16" d="M371.42,487.21h5.28v.73h-2.23v5.66h-.82v-5.66h-2.23Z" transform="translate(-8.76 -5.89)"/><path class="cls-16" d="M381.83,487.21v.73h-3.25v2h2.95v.73h-2.95v2.17h3.25v.74h-4.07v-6.39Z" transform="translate(-8.76 -5.89)"/><path class="cls-16" d="M573.41,200.42l1.35,5.08,1.31-5.08h.79l-1.69,6.39h-.75l-1.34-5-1.37,5H571l-1.69-6.39h.81l1.31,5.08,1.35-5.08Z" transform="translate(-8.76 -5.89)"/><path class="cls-16" d="M578.64,206.81h-.82v-6.39h.82Z" transform="translate(-8.76 -5.89)"/><path class="cls-16" d="M582.64,200.33a2.39,2.39,0,0,1,2.49,2h-.81a1.67,1.67,0,0,0-1.68-1.23c-1.21,0-2,1-2,2.55s.82,2.55,2,2.55a1.67,1.67,0,0,0,1.68-1.24h.81a2.39,2.39,0,0,1-2.49,2c-1.61,0-2.86-1.3-2.86-3.29S581,200.33,582.64,200.33Z" transform="translate(-8.76 -5.89)"/><path class="cls-16" d="M523.33,637.81l1.35,5.08,1.31-5.08h.79l-1.69,6.39h-.75l-1.35-5-1.36,5h-.74l-1.69-6.39H520l1.31,5.08,1.35-5.08Z" transform="translate(-8.76 -5.89)"/><path class="cls-16" d="M528.56,644.2h-.83v-6.39h.83Z" transform="translate(-8.76 -5.89)"/><path class="cls-16" d="M532.56,637.71a2.4,2.4,0,0,1,2.49,2h-.81a1.67,1.67,0,0,0-1.68-1.23c-1.22,0-2,1-2,2.55s.81,2.55,2,2.55a1.67,1.67,0,0,0,1.68-1.24h.81a2.4,2.4,0,0,1-2.49,2c-1.61,0-2.86-1.3-2.86-3.29S531,637.71,532.56,637.71Z" transform="translate(-8.76 -5.89)"/><path class="cls-16" d="M331.82,148.85v-6.39h3.9v.73h-3.08v2.15h2.89v.73h-2.89v2.78Z" transform="translate(-8.76 -5.89)"/><path class="cls-16" d="M337.68,146.29v2.56h-.82v-6.39h2.39c1.29,0,2.11.66,2.11,1.92s-.82,1.91-2.11,1.91Zm1.55-3.11h-1.55v2.38h1.55c.87,0,1.31-.47,1.31-1.18A1.14,1.14,0,0,0,339.23,143.18Z" transform="translate(-8.76 -5.89)"/><path class="cls-16" d="M331.82,195.3v-6.39h3.9v.72h-3.08v2.16h2.89v.73h-2.89v2.78Z" transform="translate(-8.76 -5.89)"/><path class="cls-16" d="M337.68,192.74v2.56h-.82v-6.39h2.39c1.29,0,2.11.65,2.11,1.91a1.85,1.85,0,0,1-2.11,1.92Zm1.55-3.12h-1.55V192h1.55c.87,0,1.31-.47,1.31-1.19A1.14,1.14,0,0,0,339.23,189.62Z" transform="translate(-8.76 -5.89)"/><path class="cls-16" d="M346.57,498.4v.73h-3.26v2h2.95v.73h-2.95v2.18h3.26v.73H342.5V498.4Z" transform="translate(-8.76 -5.89)"/><path class="cls-16" d="M347.85,498.4h.83v5.66h3.25v.73h-4.08Z" transform="translate(-8.76 -5.89)"/><path class="cls-16" d="M357.16,498.4v.73h-3.25v2h2.95v.73h-2.95v2.18h3.25v.73H353.1V498.4Z" transform="translate(-8.76 -5.89)"/><path class="cls-16" d="M360.38,504.79l-2.47-6.39h.86l2,5.31,2-5.31h.83l-2.46,6.39Z" transform="translate(-8.76 -5.89)"/><path class="cls-16" d="M366.81,498.4l2.5,6.39h-.83l-.74-1.92h-2.63l-.73,1.92h-.83l2.5-6.39Zm-1.43,3.75h2.08l-1-2.73Z" transform="translate(-8.76 -5.89)"/><path class="cls-16" d="M369.27,498.4h5.27v.73h-2.22v5.66h-.83v-5.66h-2.22Z" transform="translate(-8.76 -5.89)"/><path class="cls-16" d="M377.79,504.89a3.32,3.32,0,1,1,2.89-3.29A3,3,0,0,1,377.79,504.89Zm0-5.84c-1.23,0-2.06,1.05-2.06,2.55s.83,2.55,2.06,2.55,2.07-1,2.07-2.55S379,499.05,377.79,499.05Z" transform="translate(-8.76 -5.89)"/><path class="cls-16" d="M382.64,502.09v2.7h-.82V498.4h2.37c1.28,0,2.09.65,2.09,1.86a1.69,1.69,0,0,1-1.62,1.8l1.89,2.73h-.94l-1.83-2.7Zm0-.7h1.53c.84,0,1.3-.42,1.3-1.13s-.46-1.14-1.3-1.14h-1.53Z" transform="translate(-8.76 -5.89)"/><path class="cls-16" d="M541,468.48h2a3.2,3.2,0,0,1,0,6.39h-2Zm2,5.65a2.47,2.47,0,0,0,0-4.92h-1.22v4.92Z" transform="translate(-8.76 -5.89)"/><path class="cls-16" d="M552.21,474.87h-.61L548,469.79v5.08h-.79v-6.39H548l3.41,4.86v-4.86h.78Z" transform="translate(-8.76 -5.89)"/><path class="cls-16" d="M257.3,91.39l-2-4.87v4.87h-.78V85h.92l2.17,5.25L259.74,85h.9v6.39h-.78V86.52l-2,4.87Z" transform="translate(-8.76 -5.89)"/><path class="cls-16" d="M264.88,85l2.5,6.39h-.84l-.74-1.92h-2.63l-.73,1.92h-.83l2.5-6.39Zm-1.44,3.75h2.08l-1-2.73Z" transform="translate(-8.76 -5.89)"/><path class="cls-16" d="M268.63,89.73a1.57,1.57,0,0,0,1.62,1.06c.84,0,1.42-.41,1.42-1.11,0-.5-.28-.83-1-1l-1.15-.31c-.88-.22-1.53-.67-1.53-1.64a1.9,1.9,0,0,1,2.11-1.81,2.18,2.18,0,0,1,2.34,1.69h-.82a1.46,1.46,0,0,0-1.52-1c-.76,0-1.32.39-1.32,1s.35.8,1,1l1.09.28c1,.26,1.59.81,1.59,1.71,0,1.16-.94,1.86-2.21,1.86a2.29,2.29,0,0,1-2.45-1.76Z" transform="translate(-8.76 -5.89)"/><path class="cls-16" d="M273,85h5.28v.73h-2.23v5.66h-.82V85.73H273Z" transform="translate(-8.76 -5.89)"/><path class="cls-16" d="M283.45,85v.73H280.2v2h2.95v.73H280.2v2.17h3.25v.74h-4.07V85Z" transform="translate(-8.76 -5.89)"/><path class="cls-16" d="M285.56,88.69v2.7h-.82V85h2.37c1.28,0,2.09.65,2.09,1.86a1.69,1.69,0,0,1-1.62,1.8l1.88,2.73h-.93l-1.83-2.7Zm0-.7h1.53c.84,0,1.3-.43,1.3-1.13s-.46-1.14-1.3-1.14h-1.53Z" transform="translate(-8.76 -5.89)"/><path class="cls-16" d="M297.21,89.59c0,1.17-.81,1.8-2.12,1.8h-2.31V85h2.1c1.32,0,2.11.6,2.11,1.7a1.35,1.35,0,0,1-.93,1.38A1.55,1.55,0,0,1,297.21,89.59Zm-2.33-1.81c.85,0,1.32-.34,1.32-1s-.47-1-1.32-1h-1.3v2.06Zm-1.3,2.9h1.51c.86,0,1.32-.44,1.32-1.11s-.46-1.1-1.32-1.1h-1.51Z" transform="translate(-8.76 -5.89)"/><path class="cls-16" d="M302.44,85v.73h-3.25v2h2.95v.73h-2.95v2.17h3.25v.74h-4.07V85Z" transform="translate(-8.76 -5.89)"/><path class="cls-16" d="M303.73,85h2a3.2,3.2,0,0,1,0,6.39h-2Zm2,5.65a2.47,2.47,0,0,0,0-4.92h-1.22v4.92Z" transform="translate(-8.76 -5.89)"/><path class="cls-16" d="M310.84,88.69v2.7H310V85h2.37c1.28,0,2.1.65,2.1,1.86a1.7,1.7,0,0,1-1.63,1.8l1.89,2.73h-.94L312,88.69Zm0-.7h1.53c.85,0,1.3-.43,1.3-1.13s-.45-1.14-1.3-1.14h-1.53Z" transform="translate(-8.76 -5.89)"/><path class="cls-16" d="M318.25,91.49a3,3,0,0,1-2.88-3.29c0-1.94,1.2-3.29,2.88-3.29s2.89,1.35,2.89,3.29A3,3,0,0,1,318.25,91.49Zm0-5.84c-1.23,0-2.06,1-2.06,2.55s.83,2.55,2.06,2.55,2.07-1,2.07-2.55S319.49,85.65,318.25,85.65Z" transform="translate(-8.76 -5.89)"/><path class="cls-16" d="M324.84,91.49a3.32,3.32,0,1,1,2.9-3.29A3,3,0,0,1,324.84,91.49Zm0-5.84c-1.22,0-2.06,1-2.06,2.55s.84,2.55,2.06,2.55,2.07-1,2.07-2.55S326.08,85.65,324.84,85.65Z" transform="translate(-8.76 -5.89)"/><path class="cls-16" d="M331.68,91.39l-2-4.87v4.87h-.78V85h.92L332,90.25,334.12,85h.9v6.39h-.78V86.52l-2,4.87Z" transform="translate(-8.76 -5.89)"/><path class="cls-16" d="M338.38,85h5.28v.73h-2.23v5.66h-.82V85.73h-2.23Z" transform="translate(-8.76 -5.89)"/><path class="cls-16" d="M348.79,85v.73h-3.25v2h2.95v.73h-2.95v2.17h3.25v.74h-4.06V85Z" transform="translate(-8.76 -5.89)"/><path class="cls-16" d="M350.9,88.69v2.7h-.82V85h2.37c1.28,0,2.1.65,2.1,1.86a1.7,1.7,0,0,1-1.63,1.8l1.89,2.73h-.94L352,88.69Zm0-.7h1.53c.85,0,1.3-.43,1.3-1.13s-.45-1.14-1.3-1.14H350.9Z" transform="translate(-8.76 -5.89)"/><path class="cls-16" d="M356.64,88.69v2.7h-.82V85h2.37c1.28,0,2.1.65,2.1,1.86a1.7,1.7,0,0,1-1.63,1.8l1.89,2.73h-.94l-1.83-2.7Zm0-.7h1.53c.85,0,1.3-.43,1.3-1.13s-.45-1.14-1.3-1.14h-1.53Z" transform="translate(-8.76 -5.89)"/><path class="cls-16" d="M364.29,85l2.5,6.39H366l-.73-1.92h-2.64l-.73,1.92H361l2.5-6.39Zm-1.44,3.75h2.08l-1-2.73Z" transform="translate(-8.76 -5.89)"/><path class="cls-16" d="M370,84.91a2.4,2.4,0,0,1,2.49,2h-.81A1.67,1.67,0,0,0,370,85.65c-1.22,0-2,1-2,2.55s.81,2.55,2,2.55a1.67,1.67,0,0,0,1.68-1.24h.81a2.4,2.4,0,0,1-2.49,2c-1.61,0-2.86-1.3-2.86-3.29S368.43,84.91,370,84.91Z" transform="translate(-8.76 -5.89)"/><path class="cls-16" d="M377.72,85v.73h-3.26v2h3v.73h-3v2.17h3.26v.74h-4.07V85Z" transform="translate(-8.76 -5.89)"/><path class="cls-16" d="M291.43,96.83a1.24,1.24,0,0,0-1.25,1.28h-.84a2.07,2.07,0,0,1,2.09-2,1.75,1.75,0,0,1,1.95,1.8c0,.81-.65,1.45-1.29,2.18l-1.62,1.78h3v.72h-4.17V102l2.06-2.26c.67-.73,1.19-1.26,1.19-1.87A1.05,1.05,0,0,0,291.43,96.83Z" transform="translate(-8.76 -5.89)"/><path class="cls-16" d="M296.43,102.58h-.8V97.17l-1.58.81v-.83l1.9-1h.48Z" transform="translate(-8.76 -5.89)"/><path class="cls-16" d="M298.05,97.17a.51.51,0,0,1-.46-.52.56.56,0,1,1,1.11,0,1.31,1.31,0,0,1-.23.66l-.53.88h-.53Z" transform="translate(-8.76 -5.89)"/><path class="cls-16" d="M299.38,99.5h2.51v.73h-2.51Z" transform="translate(-8.76 -5.89)"/><path class="cls-16" d="M304.94,102.58h-.8V97.17l-1.58.81v-.83l1.89-1h.49Z" transform="translate(-8.76 -5.89)"/><path class="cls-16" d="M308.36,102.58h-.8V97.17L306,98v-.83l1.89-1h.49Z" transform="translate(-8.76 -5.89)"/><path class="cls-16" d="M309.56,96.19h.69v2.28h-.69Zm1.24,0h.68v2.28h-.68Z" transform="translate(-8.76 -5.89)"/><path class="cls-16" d="M317,100.19l1.72,2.39h-.88l-1.28-1.8-1.29,1.8h-.85l1.71-2.36L314.48,98h.89l1.17,1.66L317.73,98h.86Z" transform="translate(-8.76 -5.89)"/><path class="cls-16" d="M323.81,102.58H323V97.17l-1.59.81v-.83l1.9-1h.49Z" transform="translate(-8.76 -5.89)"/><path class="cls-16" d="M324.94,100.85a1.65,1.65,0,0,1,1.25-1.63,1.49,1.49,0,0,1-1-1.43,2,2,0,0,1,3.9,0,1.5,1.5,0,0,1-1,1.43,1.66,1.66,0,0,1,1.25,1.63,2.21,2.21,0,0,1-4.36,0Zm3.57-.07a1.4,1.4,0,1,0-1.4,1.23A1.26,1.26,0,0,0,328.51,100.78Zm-.22-3a1.18,1.18,0,1,0-1.18,1A1.08,1.08,0,0,0,328.29,97.83Z" transform="translate(-8.76 -5.89)"/><path class="cls-16" d="M330,96.19h.71v2.28H330Z" transform="translate(-8.76 -5.89)"/><path class="cls-16" d="M331.53,99.5H334v.73h-2.51Z" transform="translate(-8.76 -5.89)"/><path class="cls-16" d="M335,99.39c0-2,.95-3.29,2.38-3.29s2.38,1.34,2.38,3.29-.95,3.29-2.38,3.29S335,101.34,335,99.39Zm.8,0c0,1.49.54,2.55,1.58,2.55s1.58-1.06,1.58-2.55-.55-2.55-1.58-2.55S335.81,97.9,335.81,99.39Z" transform="translate(-8.76 -5.89)"/><path class="cls-16" d="M340.6,96.19h.69v2.28h-.69Zm1.24,0h.69v2.28h-.69Z" transform="translate(-8.76 -5.89)"/><path class="cls-16" d="M48.28,583.45l-2-4.87v4.87h-.78v-6.39h.92l2.17,5.25,2.15-5.25h.89v6.39h-.78v-4.87l-2,4.87Z" transform="translate(-8.76 -5.89)"/><path class="cls-16" d="M55.87,577.06l2.49,6.39h-.83l-.74-1.92H54.16l-.73,1.92H52.6l2.5-6.39Zm-1.44,3.75h2.08l-1-2.73Z" transform="translate(-8.76 -5.89)"/><path class="cls-16" d="M59.62,581.79a1.57,1.57,0,0,0,1.62,1.06c.84,0,1.42-.41,1.42-1.11,0-.5-.28-.83-1-1l-1.15-.3c-.88-.23-1.53-.68-1.53-1.65A1.9,1.9,0,0,1,61.07,577a2.18,2.18,0,0,1,2.34,1.69h-.83a1.44,1.44,0,0,0-1.51-1c-.76,0-1.33.39-1.33,1.05s.36.8,1,1l1.1.28c1,.26,1.59.81,1.59,1.71,0,1.16-.94,1.86-2.21,1.86a2.29,2.29,0,0,1-2.45-1.76Z" transform="translate(-8.76 -5.89)"/><path class="cls-16" d="M64,577.06H69.3v.73H67.08v5.66h-.83v-5.66H64Z" transform="translate(-8.76 -5.89)"/><path class="cls-16" d="M74.44,577.06v.73H71.18v2h3v.73h-3v2.17h3.26v.74H70.37v-6.39Z" transform="translate(-8.76 -5.89)"/><path class="cls-16" d="M76.55,580.75v2.7h-.82v-6.39H78.1c1.28,0,2.09.65,2.09,1.86a1.69,1.69,0,0,1-1.62,1.8l1.88,2.73h-.93l-1.84-2.7Zm0-.7h1.53c.84,0,1.3-.43,1.3-1.13s-.46-1.14-1.3-1.14H76.55Z" transform="translate(-8.76 -5.89)"/><path class="cls-16" d="M56,592.85c0,1.16-.81,1.8-2.13,1.8H51.58v-6.39h2.11c1.32,0,2.11.59,2.11,1.69a1.38,1.38,0,0,1-.94,1.39A1.54,1.54,0,0,1,56,592.85ZM53.69,591c.85,0,1.32-.34,1.32-1s-.47-1-1.32-1h-1.3V591Zm-1.3,2.9h1.5c.87,0,1.33-.44,1.33-1.11s-.46-1.1-1.33-1.1h-1.5Z" transform="translate(-8.76 -5.89)"/><path class="cls-16" d="M59.8,588.26l2.5,6.39h-.83l-.74-1.93H58.1l-.73,1.93h-.84l2.5-6.39ZM58.37,592h2.08l-1-2.72Z" transform="translate(-8.76 -5.89)"/><path class="cls-16" d="M62.25,588.26h5.28V589H65.3v5.67h-.82V589H62.25Z" transform="translate(-8.76 -5.89)"/><path class="cls-16" d="M73.85,588.26v6.39H73v-2.92H69.42v2.92H68.6v-6.39h.82V591H73v-2.73Z" transform="translate(-8.76 -5.89)"/><path class="cls-16" d="M188.47,536.61l-2-4.87v4.87h-.78v-6.39h.93l2.16,5.24,2.15-5.24h.9v6.39H191v-4.87l-2,4.87Z" transform="translate(-8.76 -5.89)"/><path class="cls-16" d="M196.05,530.22l2.5,6.39h-.83l-.74-1.93h-2.64l-.72,1.93h-.84l2.5-6.39ZM194.62,534h2.08l-1-2.72Z" transform="translate(-8.76 -5.89)"/><path class="cls-16" d="M199.8,534.94a1.58,1.58,0,0,0,1.63,1.06c.83,0,1.41-.4,1.41-1.11,0-.5-.28-.82-1-1l-1.14-.3c-.89-.23-1.53-.68-1.53-1.64a1.89,1.89,0,0,1,2.1-1.82,2.18,2.18,0,0,1,2.34,1.69h-.82a1.47,1.47,0,0,0-1.52-1c-.76,0-1.32.4-1.32,1s.35.8,1,1l1.09.28c1,.26,1.59.81,1.59,1.72,0,1.15-.93,1.85-2.2,1.85a2.29,2.29,0,0,1-2.46-1.76Z" transform="translate(-8.76 -5.89)"/><path class="cls-16" d="M204.21,530.22h5.28V531h-2.23v5.66h-.82V531h-2.23Z" transform="translate(-8.76 -5.89)"/><path class="cls-16" d="M214.63,530.22V531h-3.26v2h2.95v.72h-2.95v2.18h3.26v.74h-4.07v-6.39Z" transform="translate(-8.76 -5.89)"/><path class="cls-16" d="M216.74,533.9v2.71h-.83v-6.39h2.38c1.28,0,2.09.64,2.09,1.85a1.7,1.7,0,0,1-1.63,1.8l1.89,2.74h-.94l-1.83-2.71Zm0-.7h1.52c.85,0,1.31-.42,1.31-1.13s-.46-1.13-1.31-1.13h-1.52Z" transform="translate(-8.76 -5.89)"/><path class="cls-16" d="M196.2,546c0,1.17-.81,1.8-2.12,1.8h-2.31v-6.39h2.1c1.32,0,2.11.59,2.11,1.7a1.36,1.36,0,0,1-.93,1.38A1.55,1.55,0,0,1,196.2,546Zm-2.33-1.81c.85,0,1.32-.34,1.32-1s-.47-1-1.32-1h-1.3v2.06Zm-1.3,2.89h1.51c.86,0,1.32-.43,1.32-1.1s-.46-1.1-1.32-1.1h-1.51Z" transform="translate(-8.76 -5.89)"/><path class="cls-16" d="M200,541.41l2.49,6.39h-.83l-.74-1.92h-2.63l-.73,1.92h-.83l2.5-6.39Zm-1.44,3.75h2.08l-1-2.73Z" transform="translate(-8.76 -5.89)"/><path class="cls-16" d="M202.44,541.41h5.28v.73h-2.23v5.66h-.82v-5.66h-2.23Z" transform="translate(-8.76 -5.89)"/><path class="cls-16" d="M214,541.41v6.39h-.82v-2.91h-3.61v2.91h-.83v-6.39h.83v2.74h3.61v-2.74Z" transform="translate(-8.76 -5.89)"/><path class="cls-16" d="M42.94,599.56h5.28v.73H46V606h-.82v-5.66H42.94Z" transform="translate(-8.76 -5.89)"/><path class="cls-16" d="M53.35,599.56v.73H50.1v2h2.95V603H50.1v2.17h3.25V606H49.29v-6.39Z" transform="translate(-8.76 -5.89)"/><path class="cls-16" d="M55.46,603.24V606h-.82v-6.39H57c1.28,0,2.1.65,2.1,1.85a1.7,1.7,0,0,1-1.63,1.8L59.37,606h-.94l-1.83-2.71Zm0-.69H57c.85,0,1.3-.43,1.3-1.14s-.45-1.13-1.3-1.13H55.46Z" transform="translate(-8.76 -5.89)"/><path class="cls-16" d="M61.2,603.24V606h-.82v-6.39h2.37c1.28,0,2.1.65,2.1,1.85a1.7,1.7,0,0,1-1.63,1.8L65.11,606h-.94l-1.83-2.71Zm0-.69h1.53c.85,0,1.3-.43,1.3-1.14s-.45-1.13-1.3-1.13H61.2Z" transform="translate(-8.76 -5.89)"/><path class="cls-16" d="M68.85,599.56l2.5,6.39h-.84L69.78,604H67.14L66.41,606h-.83l2.5-6.39Zm-1.44,3.75h2.08l-1-2.73Z" transform="translate(-8.76 -5.89)"/><path class="cls-16" d="M74.6,599.47a2.4,2.4,0,0,1,2.49,2h-.81a1.67,1.67,0,0,0-1.68-1.22c-1.22,0-2,1-2,2.54s.81,2.55,2,2.55a1.67,1.67,0,0,0,1.68-1.23h.81a2.4,2.4,0,0,1-2.49,2c-1.61,0-2.86-1.3-2.86-3.29A3,3,0,0,1,74.6,599.47Z" transform="translate(-8.76 -5.89)"/><path class="cls-16" d="M82.28,599.56v.73H79v2h3V603H79v2.17h3.26V606H78.21v-6.39Z" transform="translate(-8.76 -5.89)"/><path class="cls-16" d="M40.35,617.14h-.8v-5.41l-1.58.81v-.83l1.89-1h.49Z" transform="translate(-8.76 -5.89)"/><path class="cls-16" d="M42.46,614.26h-.65v-3.51h3.5v.73H42.5v1.92a1.86,1.86,0,0,1,1.17-.4,2,2,0,0,1,2,2.12,2,2,0,0,1-2.07,2.11,2.06,2.06,0,0,1-2.19-1.91h.8a1.36,1.36,0,1,0,1.38-1.61A1.45,1.45,0,0,0,42.46,614.26Z" transform="translate(-8.76 -5.89)"/><path class="cls-16" d="M46.84,611.73a.51.51,0,0,1-.46-.52.56.56,0,1,1,1.11,0,1.31,1.31,0,0,1-.23.66l-.53.88H46.2Z" transform="translate(-8.76 -5.89)"/><path class="cls-16" d="M48.17,614.06h2.51v.73H48.17Z" transform="translate(-8.76 -5.89)"/><path class="cls-16" d="M55.2,612.24a1.17,1.17,0,0,0-1.18-.91c-.93,0-1.61,1.08-1.61,2.45,0,.06,0,.22,0,.28A1.68,1.68,0,0,1,54,613a2.13,2.13,0,0,1-.07,4.26,2,2,0,0,1-1.9-1.21,4.49,4.49,0,0,1-.38-2c0-2.07,1-3.4,2.34-3.4a1.88,1.88,0,0,1,2,1.58ZM54,616.54a1.45,1.45,0,1,0-1.38-1.44A1.36,1.36,0,0,0,54,616.54Z" transform="translate(-8.76 -5.89)"/><path class="cls-16" d="M57.35,611.73a.51.51,0,0,1-.46-.52.56.56,0,1,1,1.12,0,1.42,1.42,0,0,1-.23.66l-.53.88h-.53Zm1.59,0a.51.51,0,0,1-.45-.52.56.56,0,1,1,1.11,0,1.42,1.42,0,0,1-.23.66l-.53.88h-.53Z" transform="translate(-8.76 -5.89)"/><path class="cls-16" d="M64.92,614.75l1.72,2.39h-.88l-1.28-1.8-1.29,1.8h-.85l1.71-2.36-1.61-2.26h.89l1.17,1.66,1.19-1.66h.86Z" transform="translate(-8.76 -5.89)"/><path class="cls-16" d="M70.26,615h2v-1.54h.76V615h1.12v.69H73.06v1.44H72.3V615.7h-3v-.59l2.46-4.36h.83Z" transform="translate(-8.76 -5.89)"/><path class="cls-16" d="M75.07,611.73a.51.51,0,0,1-.46-.52.56.56,0,1,1,1.12,0,1.42,1.42,0,0,1-.23.66l-.53.88h-.53Z" transform="translate(-8.76 -5.89)"/><path class="cls-16" d="M76.4,614.06h2.51v.73H76.4Z" transform="translate(-8.76 -5.89)"/><path class="cls-16" d="M79.68,615.4a1.64,1.64,0,0,1,1.25-1.62,1.49,1.49,0,0,1-1-1.44,2,2,0,0,1,3.9,0,1.51,1.51,0,0,1-1,1.44A1.65,1.65,0,0,1,84,615.4a2.21,2.21,0,0,1-4.36,0Zm3.57-.06a1.4,1.4,0,1,0-1.4,1.23A1.26,1.26,0,0,0,83.25,615.34Zm-.22-3a1.18,1.18,0,1,0-1.18,1.05A1.09,1.09,0,0,0,83,612.39Z" transform="translate(-8.76 -5.89)"/><path class="cls-16" d="M85.22,611.73a.51.51,0,0,1-.46-.52.56.56,0,1,1,1.12,0,1.42,1.42,0,0,1-.23.66l-.53.88h-.53Zm1.6,0a.51.51,0,0,1-.46-.52.56.56,0,1,1,1.11,0,1.31,1.31,0,0,1-.23.66l-.53.88h-.53Z" transform="translate(-8.76 -5.89)"/></g></svg>