<?xml version="1.0" encoding="utf-8"?>
<!-- Generator: Adobe Illustrator 16.0.4, SVG Export Plug-In . SVG Version: 6.00 Build 0)  -->
<!DOCTYPE svg PUBLIC "-//W3C//DTD SVG 1.1//EN" "http://www.w3.org/Graphics/SVG/1.1/DTD/svg11.dtd">
<svg version="1.1" id="Layer_1" xmlns="http://www.w3.org/2000/svg" xmlns:xlink="http://www.w3.org/1999/xlink" x="0px" y="0px"
	 width="232px" height="105.774px" viewBox="-89 86.774 232 105.774" enable-background="new -89 86.774 232 105.774"
	 xml:space="preserve">
<g>
	<defs>
		<rect id="SVGID_1_" x="-72" y="-374.04" width="1224" height="792"/>
	</defs>
	<clipPath id="SVGID_2_">
		<use xlink:href="#SVGID_1_"  overflow="visible"/>
	</clipPath>
	<g clip-path="url(#SVGID_2_)" enable-background="new    ">
		<path fill="#D1D3D4" d="M4.869,135.478c-0.792,0-1.219-0.546-1.219-1.442v-1.786h4.301v1.646c0,0.896-0.399,1.449-1.17,1.449
			c-0.463,0-0.799-0.252-0.911-0.567C5.737,135.184,5.338,135.478,4.869,135.478z M4.407,133.11v0.848
			c0,0.42,0.21,0.645,0.539,0.645c0.336,0,0.539-0.225,0.539-0.645v-0.848H4.407z M6.186,133.839c0,0.428,0.168,0.651,0.512,0.651
			c0.343,0,0.497-0.224,0.497-0.651v-0.729H6.186V133.839z"/>
		<path fill="#D1D3D4" d="M5.254,138.003H3.65v-0.889h4.301v1.771c0,0.904-0.483,1.506-1.366,1.506c-0.687,0-1.12-0.378-1.268-0.98
			l-1.667,1.135v-1.009l1.604-1.064V138.003z M5.989,138.003v0.827c0,0.448,0.238,0.679,0.596,0.679c0.364,0,0.603-0.23,0.603-0.679
			v-0.827H5.989z"/>
	</g>
	<g enable-background="new    ">
		<path fill="#D1D3D4" d="M3.58,144.962c0-1.197,0.938-2.031,2.221-2.031c1.288,0,2.22,0.834,2.22,2.031S7.089,147,5.801,147
			C4.519,147,3.58,146.159,3.58,144.962z M7.223,144.962c0-0.68-0.582-1.121-1.422-1.121c-0.841,0-1.422,0.441-1.422,1.121
			c0,0.686,0.581,1.135,1.422,1.135C6.641,146.097,7.223,145.647,7.223,144.962z"/>
	</g>
	<g enable-background="new    ">
		<path fill="#D1D3D4" d="M7.951,151.186l-4.301,1.646v-0.91l1.036-0.385v-1.611l-1.036-0.379v-0.896l4.301,1.646V151.186z
			 M5.443,150.204v1.051l1.429-0.525L5.443,150.204z"/>
	</g>
	<g enable-background="new    ">
		<path fill="#D1D3D4" d="M7.951,154.88v1.52c0,1.303-0.841,2.123-2.15,2.123s-2.15-0.82-2.15-2.123v-1.52H7.951z M4.441,156.364
			c0,0.82,0.525,1.268,1.359,1.268c0.84,0,1.365-0.447,1.365-1.268v-0.595H4.441V156.364z"/>
	</g>
	<g enable-background="new    ">
		<path fill="#D1D3D4" d="M7.951,163.345l-2.893,0.742l2.893,0.708v0.882l-4.301-1.12v-0.819l2.837-0.757l-2.837-0.757v-0.818
			l4.301-1.121v0.903l-2.893,0.7l2.893,0.757V163.345z"/>
	</g>
	<g enable-background="new    ">
		<path fill="#D1D3D4" d="M7.951,169.679l-4.301,1.646v-0.91l1.036-0.386v-1.61L3.65,168.04v-0.896l4.301,1.646V169.679z
			 M5.443,168.698v1.051l1.429-0.525L5.443,168.698z"/>
	</g>
	<g enable-background="new    ">
		<path fill="#D1D3D4" d="M7.951,175.602v0.945l-2.669-1.562H3.65v-0.89h1.632l2.669-1.548v0.974l-1.821,1.044L7.951,175.602z"/>
	</g>
</g>
<g>
	<defs>
		<rect id="SVGID_3_" x="-72" y="-374.04" width="1224" height="792"/>
	</defs>
	<clipPath id="SVGID_4_">
		<use xlink:href="#SVGID_3_"  overflow="visible"/>
	</clipPath>
	<g clip-path="url(#SVGID_4_)" enable-background="new    ">
		<path fill="#D1D3D4" d="M138.375,124.354v0.896h-3.51v2.003h-0.791v-2.899H138.375z"/>
	</g>
	<g enable-background="new    ">
		<path fill="#D1D3D4" d="M138.375,131.677l-4.301,1.646v-0.91l1.036-0.386v-1.61l-1.036-0.378v-0.896l4.301,1.646V131.677z
			 M135.867,130.696v1.051l1.429-0.525L135.867,130.696z"/>
	</g>
	<g enable-background="new    ">
		<path fill="#D1D3D4" d="M134.074,135.378h4.301v2.865h-0.785v-1.976h-1.093v1.828h-0.777v-1.828h-1.646V135.378z"/>
	</g>
	<g enable-background="new    ">
		<path fill="#D1D3D4" d="M138.375,142.38l-4.301,1.646v-0.91l1.036-0.386v-1.61l-1.036-0.378v-0.896l4.301,1.646V142.38z
			 M135.867,141.399v1.051l1.429-0.525L135.867,141.399z"/>
	</g>
	<g enable-background="new    ">
		<path fill="#D1D3D4" d="M138.375,148.309v0.945l-2.669-1.562h-1.632v-0.89h1.632l2.669-1.548v0.974l-1.821,1.044L138.375,148.309z
			"/>
		<path fill="#D1D3D4" d="M138.375,153.657h-0.785v-2.039h-0.938v1.85h-0.763v-1.85h-1.023v2.039h-0.791v-2.922h4.301V153.657z"/>
		<path fill="#D1D3D4" d="M138.375,155.11v3.67h-0.785v-1.387h-3.516v-0.902h3.516v-1.381H138.375z"/>
		<path fill="#D1D3D4" d="M138.375,160.13v3.67h-0.785v-1.387h-3.516v-0.903h3.516v-1.38H138.375z"/>
		<path fill="#D1D3D4" d="M138.375,168.3h-0.785v-2.037h-0.938v1.848h-0.763v-1.848h-1.023v2.037h-0.791v-2.92h4.301V168.3z"/>
	</g>
	<g enable-background="new    ">
		<path fill="#D1D3D4" d="M135.3,176.37c-0.378,0.119-0.554,0.436-0.554,0.855c0,0.434,0.196,0.721,0.54,0.721
			c0.259,0,0.399-0.154,0.483-0.525l0.175-0.77c0.14-0.617,0.469-1.094,1.177-1.094c0.777,0,1.323,0.645,1.323,1.549
			c0,0.98-0.518,1.547-1.246,1.688v-0.89c0.287-0.098,0.511-0.343,0.511-0.791c0-0.406-0.196-0.68-0.504-0.68
			c-0.245,0-0.393,0.161-0.47,0.483l-0.182,0.785c-0.161,0.699-0.561,1.127-1.212,1.127c-0.833,0-1.338-0.687-1.338-1.597
			c0-0.96,0.477-1.64,1.296-1.786V176.37z"/>
	</g>
	<g enable-background="new    ">
		<path fill="#D1D3D4" d="M138.375,180.688v3.67h-0.785v-1.387h-3.516v-0.904h3.516v-1.379H138.375z"/>
	</g>
</g>
<g>
	<defs>
		<rect id="SVGID_5_" x="-72" y="-374.04" width="1224" height="792"/>
	</defs>
	<clipPath id="SVGID_6_">
		<use xlink:href="#SVGID_5_"  overflow="visible"/>
	</clipPath>
	<g clip-path="url(#SVGID_6_)" enable-background="new    ">
		<path fill="#D1D3D4" d="M46.33,124.639h0.896v3.51h2.003v0.791h-2.9V124.639z"/>
		<path fill="#D1D3D4" d="M53.794,124.639v0.785h-2.038v0.938h1.849v0.763h-1.849v1.023h2.038v0.791h-2.921v-4.301H53.794z"/>
	</g>
	<g enable-background="new    ">
		<path fill="#D1D3D4" d="M58.112,129.01c-1.198,0-2.031-0.938-2.031-2.221c0-1.288,0.833-2.22,2.031-2.22
			c1.197,0,2.038,0.932,2.038,2.22C60.15,128.071,59.31,129.01,58.112,129.01z M58.112,125.367c-0.68,0-1.121,0.582-1.121,1.422
			c0,0.841,0.441,1.422,1.121,1.422c0.686,0,1.134-0.581,1.134-1.422C59.247,125.949,58.798,125.367,58.112,125.367z"/>
	</g>
	<g enable-background="new    ">
		<path fill="#D1D3D4" d="M65.764,128.939h-0.708l-2.031-2.864v2.864h-0.862v-4.301h0.841l1.898,2.718v-2.718h0.861V128.939z"/>
	</g>
	<g enable-background="new    ">
		<path fill="#D1D3D4" d="M70.216,124.639l1.646,4.301h-0.91l-0.385-1.036h-1.611l-0.378,1.036H67.68l1.646-4.301H70.216z
			 M69.235,127.146h1.051l-0.525-1.429L69.235,127.146z"/>
	</g>
	<g enable-background="new    ">
		<path fill="#D1D3D4" d="M74.66,127.336v1.604h-0.89v-4.301h1.772c0.903,0,1.506,0.483,1.506,1.366c0,0.687-0.379,1.12-0.98,1.268
			l1.135,1.667h-1.01l-1.064-1.604H74.66z M74.66,126.601h0.826c0.448,0,0.68-0.238,0.68-0.596c0-0.364-0.231-0.603-0.68-0.603
			H74.66V126.601z"/>
		<path fill="#D1D3D4" d="M78.705,124.639h1.521c1.303,0,2.122,0.841,2.122,2.15s-0.819,2.15-2.122,2.15h-1.521V124.639z
			 M80.19,128.148c0.819,0,1.268-0.525,1.268-1.359c0-0.84-0.448-1.365-1.268-1.365h-0.595v2.725H80.19z"/>
	</g>
	<g enable-background="new    ">
		<path fill="#D1D3D4" d="M88.289,127.714c0.119,0.378,0.434,0.554,0.854,0.554c0.435,0,0.723-0.196,0.723-0.54
			c0-0.259-0.154-0.399-0.525-0.483l-0.771-0.175c-0.615-0.14-1.092-0.469-1.092-1.177c0-0.777,0.645-1.323,1.547-1.323
			c0.98,0,1.549,0.518,1.688,1.246h-0.89c-0.098-0.287-0.343-0.511-0.791-0.511c-0.406,0-0.68,0.196-0.68,0.504
			c0,0.245,0.161,0.393,0.483,0.47l0.784,0.182c0.701,0.161,1.128,0.561,1.128,1.212c0,0.833-0.687,1.338-1.597,1.338
			c-0.96,0-1.639-0.477-1.786-1.296H88.289z"/>
	</g>
	<g enable-background="new    ">
		<path fill="#D1D3D4" d="M92.467,124.639h3.67v0.785H94.75v3.516h-0.902v-3.516h-1.381V124.639z"/>
	</g>
</g>
<g>
	<defs>
		<rect id="SVGID_7_" x="-72" y="-374.04" width="1224" height="792"/>
	</defs>
	<clipPath id="SVGID_8_">
		<use xlink:href="#SVGID_7_"  overflow="visible"/>
	</clipPath>
	<g clip-path="url(#SVGID_8_)" enable-background="new    ">
		<path fill="#D1D3D4" d="M43.182,178.272c1.016,0,1.639,0.595,1.8,1.456h-0.89c-0.147-0.392-0.413-0.658-0.911-0.658
			c-0.686,0-1.092,0.603-1.092,1.422c0,0.812,0.406,1.422,1.092,1.422c0.498,0,0.764-0.266,0.911-0.665h0.89
			c-0.161,0.868-0.785,1.464-1.8,1.464c-1.148,0-2.003-0.903-2.003-2.221C41.179,179.176,42.033,178.272,43.182,178.272z"/>
	</g>
	<g enable-background="new    ">
		<path fill="#D1D3D4" d="M49.21,178.342l1.646,4.301h-0.91l-0.385-1.036h-1.611l-0.378,1.036h-0.896l1.646-4.301H49.21z
			 M48.229,180.85h1.051l-0.525-1.429L48.229,180.85z"/>
	</g>
	<g enable-background="new    ">
		<path fill="#D1D3D4" d="M52.232,178.342h3.67v0.785h-1.387v3.516h-0.903v-3.516h-1.38V178.342z"/>
	</g>
	<g enable-background="new    ">
		<path fill="#D1D3D4" d="M61.769,178.342v4.301h-0.896v-1.807h-1.947v1.807h-0.896v-4.301h0.896v1.709h1.947v-1.709H61.769z"/>
	</g>
	<g enable-background="new    ">
		<path fill="#D1D3D4" d="M67.046,178.342v0.785h-2.038v0.938h1.849v0.763h-1.849v1.023h2.038v0.791h-2.921v-4.301H67.046z"/>
		<path fill="#D1D3D4" d="M69.621,181.039v1.604h-0.89v-4.301h1.772c0.904,0,1.506,0.483,1.506,1.366c0,0.687-0.378,1.12-0.98,1.268
			l1.135,1.667h-1.009l-1.064-1.604H69.621z M69.621,180.304h0.827c0.448,0,0.679-0.238,0.679-0.596
			c0-0.364-0.231-0.603-0.679-0.603h-0.827V180.304z"/>
	</g>
	<g enable-background="new    ">
		<path fill="#D1D3D4" d="M75.654,182.643h-0.896v-4.301h0.896V182.643z"/>
	</g>
	<g enable-background="new    ">
		<path fill="#D1D3D4" d="M81.605,182.643h-0.707l-2.031-2.864v2.864h-0.861v-4.301h0.841l1.897,2.718v-2.718h0.861V182.643z"/>
		<path fill="#D1D3D4" d="M86.345,178.342v0.785h-2.038v0.938h1.849v0.763h-1.849v1.023h2.038v0.791h-2.921v-4.301H86.345z"/>
		<path fill="#D1D3D4" d="M90.508,178.342h0.896v3.51h2.004v0.791h-2.9V178.342z"/>
	</g>
	<g enable-background="new    ">
		<path fill="#D1D3D4" d="M100.834,182.643h-0.707l-2.031-2.864v2.864h-0.861v-4.301h0.841l1.897,2.718v-2.718h0.861V182.643z"/>
	</g>
</g>
<g>
	<defs>
		<rect id="SVGID_9_" x="-72" y="-374.04" width="1224" height="792"/>
	</defs>
	<clipPath id="SVGID_10_">
		<use xlink:href="#SVGID_9_"  overflow="visible"/>
	</clipPath>
	<path clip-path="url(#SVGID_10_)" d="M53.688,161.696l11.874,0.688v-6.094h-0.594v-0.734h0.735v-1.296h-0.75v0.187h-1.641v-1.953
		h-2.391v-0.25h-1.828v0.22H53.5v0.405h0.203L53.688,161.696z"/>
</g>
<g>
	<defs>
		<rect id="SVGID_11_" x="15.156" y="142.666" width="112.014" height="25.276"/>
	</defs>
	<clipPath id="SVGID_12_">
		<use xlink:href="#SVGID_11_"  overflow="visible"/>
	</clipPath>
	<path clip-path="url(#SVGID_12_)" fill="none" stroke="#D0D2D3" stroke-width="1.092" stroke-miterlimit="10" d="M124.484,144.342
		v21.925l-107.979-6.719l0.051-15.206H124.484z"/>
</g>
<g>
	<defs>
		<rect id="SVGID_13_" x="-196" y="-286.707" width="1224" height="792"/>
	</defs>
	<clipPath id="SVGID_14_">
		<use xlink:href="#SVGID_13_"  overflow="visible"/>
	</clipPath>
	<path clip-path="url(#SVGID_14_)" d="M-61.642,127.503v17.912l5.435,3.567l-0.008-17.905L-61.642,127.503z"/>
</g>
<g>
	<defs>
		<rect id="SVGID_15_" x="-196" y="-286.707" width="1224" height="792"/>
	</defs>
	<clipPath id="SVGID_16_">
		<use xlink:href="#SVGID_15_"  overflow="visible"/>
	</clipPath>
	<path clip-path="url(#SVGID_16_)" fill="none" stroke="#D1D3D4" stroke-width="0.145" stroke-miterlimit="10" d="M-10.588,147.583
		l-13.516,7.637l-60.952-40.146"/>
</g>
<g>
	<defs>
		<rect id="SVGID_17_" x="-196" y="-286.707" width="1224" height="792"/>
	</defs>
	<clipPath id="SVGID_18_">
		<use xlink:href="#SVGID_17_"  overflow="visible"/>
	</clipPath>
	<path clip-path="url(#SVGID_18_)" fill="none" stroke="#D1D3D4" stroke-width="0.145" stroke-miterlimit="10" d="M-10.588,150.575
		l-13.516,7.635l-60.952-40.146"/>
</g>
<g>
	<defs>
		<rect id="SVGID_19_" x="-196" y="-286.707" width="1224" height="792"/>
	</defs>
	<clipPath id="SVGID_20_">
		<use xlink:href="#SVGID_19_"  overflow="visible"/>
	</clipPath>
	<path clip-path="url(#SVGID_20_)" fill="none" stroke="#D1D3D4" stroke-width="0.145" stroke-miterlimit="10" d="M-10.588,153.566
		l-13.516,7.634l-60.952-40.144"/>
</g>
<g>
	<defs>
		<rect id="SVGID_21_" x="-196" y="-286.707" width="1224" height="792"/>
	</defs>
	<clipPath id="SVGID_22_">
		<use xlink:href="#SVGID_21_"  overflow="visible"/>
	</clipPath>
	<path clip-path="url(#SVGID_22_)" fill="none" stroke="#D1D3D4" stroke-width="0.145" stroke-miterlimit="10" d="M-10.588,156.559
		l-13.516,7.633l-60.952-40.144"/>
</g>
<g>
	<defs>
		<rect id="SVGID_23_" x="-196" y="-286.707" width="1224" height="792"/>
	</defs>
	<clipPath id="SVGID_24_">
		<use xlink:href="#SVGID_23_"  overflow="visible"/>
	</clipPath>
	<path clip-path="url(#SVGID_24_)" fill="none" stroke="#D1D3D4" stroke-width="0.145" stroke-miterlimit="10" d="M-10.588,159.55
		l-13.516,7.634l-60.952-40.146"/>
</g>
<g>
	<defs>
		<rect id="SVGID_25_" x="-196" y="-286.707" width="1224" height="792"/>
	</defs>
	<clipPath id="SVGID_26_">
		<use xlink:href="#SVGID_25_"  overflow="visible"/>
	</clipPath>
	<path clip-path="url(#SVGID_26_)" fill="none" stroke="#D1D3D4" stroke-width="0.145" stroke-miterlimit="10" d="M-10.588,162.54
		l-13.516,7.635l-60.952-40.146"/>
</g>
<g>
	<defs>
		<rect id="SVGID_27_" x="-196" y="-286.707" width="1224" height="792"/>
	</defs>
	<clipPath id="SVGID_28_">
		<use xlink:href="#SVGID_27_"  overflow="visible"/>
	</clipPath>
	<path clip-path="url(#SVGID_28_)" fill="none" stroke="#D1D3D4" stroke-width="0.145" stroke-miterlimit="10" d="M-10.588,165.532
		l-13.516,7.635l-60.952-40.146"/>
</g>
<g>
	<defs>
		<rect id="SVGID_29_" x="-196" y="-286.707" width="1224" height="792"/>
	</defs>
	<clipPath id="SVGID_30_">
		<use xlink:href="#SVGID_29_"  overflow="visible"/>
	</clipPath>
	<path clip-path="url(#SVGID_30_)" fill="none" stroke="#D1D3D4" stroke-width="0.145" stroke-miterlimit="10" d="M-10.588,168.522
		l-13.516,7.635l-60.952-40.144"/>
</g>
<g>
	<defs>
		<rect id="SVGID_31_" x="-196" y="-286.707" width="1224" height="792"/>
	</defs>
	<clipPath id="SVGID_32_">
		<use xlink:href="#SVGID_31_"  overflow="visible"/>
	</clipPath>
	<path clip-path="url(#SVGID_32_)" fill="none" stroke="#D1D3D4" stroke-width="0.145" stroke-miterlimit="10" d="M-10.588,171.515
		l-13.516,7.634l-60.952-40.144"/>
</g>
<g>
	<defs>
		<rect id="SVGID_33_" x="-196" y="-286.707" width="1224" height="792"/>
	</defs>
	<clipPath id="SVGID_34_">
		<use xlink:href="#SVGID_33_"  overflow="visible"/>
	</clipPath>
	<path clip-path="url(#SVGID_34_)" fill="none" stroke="#D1D3D4" stroke-width="0.145" stroke-miterlimit="10" d="M-10.588,174.505
		l-13.516,7.635l-60.952-40.145"/>
</g>
<g>
	<defs>
		<rect id="SVGID_35_" x="-196" y="-286.707" width="1224" height="792"/>
	</defs>
	<clipPath id="SVGID_36_">
		<use xlink:href="#SVGID_35_"  overflow="visible"/>
	</clipPath>
	<path clip-path="url(#SVGID_36_)" fill="none" stroke="#D1D3D4" stroke-width="0.145" stroke-miterlimit="10" d="M-10.588,177.497
		l-13.516,7.635l-60.952-40.146"/>
</g>
<g>
	<defs>
		<rect id="SVGID_37_" x="-196" y="-286.707" width="1224" height="792"/>
	</defs>
	<clipPath id="SVGID_38_">
		<use xlink:href="#SVGID_37_"  overflow="visible"/>
	</clipPath>
	<path clip-path="url(#SVGID_38_)" fill="none" stroke="#000000" stroke-width="0.145" stroke-miterlimit="10" d="M-73.5,117.771
		v-1.611"/>
</g>
<g>
	<defs>
		<rect id="SVGID_39_" x="-196" y="-286.707" width="1224" height="792"/>
	</defs>
	<clipPath id="SVGID_40_">
		<use xlink:href="#SVGID_39_"  overflow="visible"/>
	</clipPath>
	<path clip-path="url(#SVGID_40_)" fill="none" stroke="#000000" stroke-width="0.145" stroke-miterlimit="10" d="M-67.568,118.546
		v-1.808"/>
</g>
<g>
	<defs>
		<rect id="SVGID_41_" x="-196" y="-286.707" width="1224" height="792"/>
	</defs>
	<clipPath id="SVGID_42_">
		<use xlink:href="#SVGID_41_"  overflow="visible"/>
	</clipPath>
	<path clip-path="url(#SVGID_42_)" fill="none" stroke="#000000" stroke-width="0.145" stroke-miterlimit="10" d="M-72.432,115.499
		v-1.809"/>
</g>
<g>
	<defs>
		<rect id="SVGID_43_" x="-196" y="-286.707" width="1224" height="792"/>
	</defs>
	<clipPath id="SVGID_44_">
		<use xlink:href="#SVGID_43_"  overflow="visible"/>
	</clipPath>
	<path clip-path="url(#SVGID_44_)" fill="none" stroke="#000000" stroke-width="0.145" stroke-miterlimit="10" d="M-61.86,115.238
		v-1.807"/>
</g>
<g>
	<defs>
		<rect id="SVGID_45_" x="-196" y="-286.707" width="1224" height="792"/>
	</defs>
	<clipPath id="SVGID_46_">
		<use xlink:href="#SVGID_45_"  overflow="visible"/>
	</clipPath>
	<path clip-path="url(#SVGID_46_)" fill="none" stroke="#000000" stroke-width="0.145" stroke-miterlimit="10" d="M-22.468,145.007
		v-1.58"/>
</g>
<g>
	<defs>
		<rect id="SVGID_47_" x="-196" y="-286.707" width="1224" height="792"/>
	</defs>
	<clipPath id="SVGID_48_">
		<use xlink:href="#SVGID_47_"  overflow="visible"/>
	</clipPath>
	<path clip-path="url(#SVGID_48_)" fill="none" stroke="#000000" stroke-width="0.145" stroke-miterlimit="10" d="M-44.393,133.249
		v-1.58"/>
</g>
<g>
	<defs>
		<rect id="SVGID_49_" x="-196" y="-286.707" width="1224" height="792"/>
	</defs>
	<clipPath id="SVGID_50_">
		<use xlink:href="#SVGID_49_"  overflow="visible"/>
	</clipPath>
	<path clip-path="url(#SVGID_50_)" fill="none" stroke="#000000" stroke-width="0.145" stroke-miterlimit="10" d="M-75.515,114.884
		v2.679"/>
</g>
<g>
	<defs>
		<rect id="SVGID_51_" x="-196" y="-286.707" width="1224" height="792"/>
	</defs>
	<clipPath id="SVGID_52_">
		<use xlink:href="#SVGID_51_"  overflow="visible"/>
	</clipPath>
	<path clip-path="url(#SVGID_52_)" fill="none" stroke="#000000" stroke-width="0.145" stroke-miterlimit="10" d="M-65.826,109.128
		v1.847"/>
</g>
<g>
	<defs>
		<rect id="SVGID_53_" x="-196" y="-286.707" width="1224" height="792"/>
	</defs>
	<clipPath id="SVGID_54_">
		<use xlink:href="#SVGID_53_"  overflow="visible"/>
	</clipPath>
	<path clip-path="url(#SVGID_54_)" fill="none" stroke="#000000" stroke-width="0.145" stroke-miterlimit="10" d="M-22.468,145.007
		l0.854,0.543"/>
</g>
<g>
	<defs>
		<rect id="SVGID_55_" x="-196" y="-286.707" width="1224" height="792"/>
	</defs>
	<clipPath id="SVGID_56_">
		<use xlink:href="#SVGID_55_"  overflow="visible"/>
	</clipPath>
	<path clip-path="url(#SVGID_56_)" fill="none" stroke="#000000" stroke-width="0.145" stroke-miterlimit="10" d="M-69.144,109.188
		v-4.786"/>
</g>
<g>
	<defs>
		<rect id="SVGID_57_" x="-196" y="-286.707" width="1224" height="792"/>
	</defs>
	<clipPath id="SVGID_58_">
		<use xlink:href="#SVGID_57_"  overflow="visible"/>
	</clipPath>
	<path clip-path="url(#SVGID_58_)" fill="none" stroke="#000000" stroke-width="0.145" stroke-miterlimit="10" d="M-78.76,103.083
		V97.94"/>
</g>
<g>
	<defs>
		<rect id="SVGID_59_" x="-196" y="-286.707" width="1224" height="792"/>
	</defs>
	<clipPath id="SVGID_60_">
		<use xlink:href="#SVGID_59_"  overflow="visible"/>
	</clipPath>
	<path clip-path="url(#SVGID_60_)" fill="none" stroke="#000000" stroke-width="0.145" stroke-miterlimit="10" d="M-75.06,98.958
		v-2.266"/>
</g>
<g>
	<defs>
		<rect id="SVGID_61_" x="-196" y="-286.707" width="1224" height="792"/>
	</defs>
	<clipPath id="SVGID_62_">
		<use xlink:href="#SVGID_61_"  overflow="visible"/>
	</clipPath>
	<path clip-path="url(#SVGID_62_)" fill="none" stroke="#000000" stroke-width="0.145" stroke-miterlimit="10" d="M-75.083,107.005
		v-6.783"/>
</g>
<g>
	<defs>
		<rect id="SVGID_63_" x="-196" y="-286.707" width="1224" height="792"/>
	</defs>
	<clipPath id="SVGID_64_">
		<use xlink:href="#SVGID_63_"  overflow="visible"/>
	</clipPath>
	<path clip-path="url(#SVGID_64_)" fill="none" stroke="#000000" stroke-width="0.145" stroke-miterlimit="10" d="M-71.262,103.036
		v-5.007"/>
</g>
<g>
	<defs>
		<rect id="SVGID_65_" x="-196" y="-286.707" width="1224" height="792"/>
	</defs>
	<clipPath id="SVGID_66_">
		<use xlink:href="#SVGID_65_"  overflow="visible"/>
	</clipPath>
	<path clip-path="url(#SVGID_66_)" fill="none" stroke="#000000" stroke-width="0.145" stroke-miterlimit="10" d="M-75.06,99.075
		v-2.269"/>
</g>
<g>
	<defs>
		<rect id="SVGID_67_" x="-196" y="-286.707" width="1224" height="792"/>
	</defs>
	<clipPath id="SVGID_68_">
		<use xlink:href="#SVGID_67_"  overflow="visible"/>
	</clipPath>
	<path clip-path="url(#SVGID_68_)" fill="none" stroke="#000000" stroke-width="0.145" stroke-miterlimit="10" d="M-70.905,104.598
		v-1.603"/>
</g>
<g>
	<defs>
		<rect id="SVGID_69_" x="-196" y="-286.707" width="1224" height="792"/>
	</defs>
	<clipPath id="SVGID_70_">
		<use xlink:href="#SVGID_69_"  overflow="visible"/>
	</clipPath>
	<path clip-path="url(#SVGID_70_)" fill="none" stroke="#000000" stroke-width="0.145" stroke-miterlimit="10" d="M-79.192,104.817
		v-1.602"/>
</g>
<g>
	<defs>
		<rect id="SVGID_71_" x="-196" y="-286.707" width="1224" height="792"/>
	</defs>
	<clipPath id="SVGID_72_">
		<use xlink:href="#SVGID_71_"  overflow="visible"/>
	</clipPath>
	<path clip-path="url(#SVGID_72_)" fill="none" stroke="#000000" stroke-width="0.145" stroke-miterlimit="10" d="M-75.415,112.843
		v-4.756"/>
</g>
<g>
	<defs>
		<rect id="SVGID_73_" x="-196" y="-286.707" width="1224" height="792"/>
	</defs>
	<clipPath id="SVGID_74_">
		<use xlink:href="#SVGID_73_"  overflow="visible"/>
	</clipPath>
	<path clip-path="url(#SVGID_74_)" fill="none" stroke="#000000" stroke-width="0.145" stroke-miterlimit="10" d="M-80.805,109.234
		v-4.637"/>
</g>
<g>
	<defs>
		<rect id="SVGID_75_" x="-196" y="-286.707" width="1224" height="792"/>
	</defs>
	<clipPath id="SVGID_76_">
		<use xlink:href="#SVGID_75_"  overflow="visible"/>
	</clipPath>
	<path clip-path="url(#SVGID_76_)" fill="none" stroke="#000000" stroke-width="0.145" stroke-miterlimit="10" d="M-73.297,116.253
		l-2.217,1.31l-8.1-5.332v-2.664l2.808-1.644"/>
</g>
<g>
	<defs>
		<rect id="SVGID_77_" x="-196" y="-286.707" width="1224" height="792"/>
	</defs>
	<clipPath id="SVGID_78_">
		<use xlink:href="#SVGID_77_"  overflow="visible"/>
	</clipPath>
	<path clip-path="url(#SVGID_78_)" fill="none" stroke="#000000" stroke-width="0.145" stroke-miterlimit="10" d="M-73.527,116.204
		l1.112-0.654"/>
</g>
<g>
	<defs>
		<rect id="SVGID_79_" x="-196" y="-286.707" width="1224" height="792"/>
	</defs>
	<clipPath id="SVGID_80_">
		<use xlink:href="#SVGID_79_"  overflow="visible"/>
	</clipPath>
	<path clip-path="url(#SVGID_80_)" fill="none" stroke="#000000" stroke-width="0.145" stroke-miterlimit="10" d="M-75.481,112.816
		l-5.321-3.504"/>
</g>
<g>
	<defs>
		<rect id="SVGID_81_" x="-196" y="-286.707" width="1224" height="792"/>
	</defs>
	<clipPath id="SVGID_82_">
		<use xlink:href="#SVGID_81_"  overflow="visible"/>
	</clipPath>
	<path clip-path="url(#SVGID_82_)" fill="none" stroke="#000000" stroke-width="0.145" stroke-miterlimit="10" d="M-75.067,105.251
		l4.074-2.396"/>
</g>
<g>
	<defs>
		<rect id="SVGID_83_" x="-196" y="-286.707" width="1224" height="792"/>
	</defs>
	<clipPath id="SVGID_84_">
		<use xlink:href="#SVGID_83_"  overflow="visible"/>
	</clipPath>
	<path clip-path="url(#SVGID_84_)" fill="none" stroke="#000000" stroke-width="0.145" stroke-miterlimit="10" d="M-75.394,107.329
		l4.4-2.588"/>
</g>
<g>
	<defs>
		<rect id="SVGID_85_" x="-91.601" y="87.333" width="82.749" height="104.496"/>
	</defs>
	<clipPath id="SVGID_86_">
		<use xlink:href="#SVGID_85_"  overflow="visible"/>
	</clipPath>
	<path clip-path="url(#SVGID_86_)" fill="none" stroke="#000000" stroke-width="0.145" stroke-miterlimit="10" d="M-75.871,101.546
		c0.315,0.904,0.068,1.638-0.552,1.639c-0.619,0.002-1.376-0.73-1.692-1.633c-0.314-0.904-0.067-1.637,0.552-1.639
		C-76.941,99.911-76.186,100.643-75.871,101.546z M-74.256,101.577c-0.315,0.903-0.067,1.637,0.552,1.639s1.377-0.729,1.692-1.633
		c0.314-0.904,0.068-1.639-0.552-1.64C-73.186,99.941-73.941,100.673-74.256,101.577z"/>
</g>
<g>
	<defs>
		<rect id="SVGID_87_" x="-196" y="-286.707" width="1224" height="792"/>
	</defs>
	<clipPath id="SVGID_88_">
		<use xlink:href="#SVGID_87_"  overflow="visible"/>
	</clipPath>
	<path clip-path="url(#SVGID_88_)" fill="none" stroke="#000000" stroke-width="0.145" stroke-miterlimit="10" d="M-75.415,108.13
		l6.317-3.713"/>
</g>
<g>
	<defs>
		<rect id="SVGID_89_" x="-196" y="-286.707" width="1224" height="792"/>
	</defs>
	<clipPath id="SVGID_90_">
		<use xlink:href="#SVGID_89_"  overflow="visible"/>
	</clipPath>
	<path clip-path="url(#SVGID_90_)" fill="none" stroke="#000000" stroke-width="0.145" stroke-miterlimit="10" d="M-75.515,112.878
		l6.277-3.688"/>
</g>
<g>
	<defs>
		<rect id="SVGID_91_" x="-196" y="-286.707" width="1224" height="792"/>
	</defs>
	<clipPath id="SVGID_92_">
		<use xlink:href="#SVGID_91_"  overflow="visible"/>
	</clipPath>
	<path clip-path="url(#SVGID_92_)" fill="none" stroke="#000000" stroke-width="0.145" stroke-miterlimit="10" d="M-79.401,103.214
		l0.61-0.356"/>
</g>
<g>
	<defs>
		<rect id="SVGID_93_" x="-196" y="-286.707" width="1224" height="792"/>
	</defs>
	<clipPath id="SVGID_94_">
		<use xlink:href="#SVGID_93_"  overflow="visible"/>
	</clipPath>
	<path clip-path="url(#SVGID_94_)" fill="none" stroke="#000000" stroke-width="0.145" stroke-miterlimit="10" d="M-80.806,104.579
		l5.324,3.506"/>
</g>
<g>
	<defs>
		<rect id="SVGID_95_" x="-196" y="-286.707" width="1224" height="792"/>
	</defs>
	<clipPath id="SVGID_96_">
		<use xlink:href="#SVGID_95_"  overflow="visible"/>
	</clipPath>
	<path clip-path="url(#SVGID_96_)" fill="none" stroke="#000000" stroke-width="0.145" stroke-miterlimit="10" d="M-83.614,109.55
		l8.099,5.334"/>
</g>
<g>
	<defs>
		<rect id="SVGID_97_" x="-196" y="-286.707" width="1224" height="792"/>
	</defs>
	<clipPath id="SVGID_98_">
		<use xlink:href="#SVGID_97_"  overflow="visible"/>
	</clipPath>
	<path clip-path="url(#SVGID_98_)" fill="none" stroke="#000000" stroke-width="0.145" stroke-miterlimit="10" d="M-71.185,102.794
		l0.279,0.201"/>
</g>
<g>
	<defs>
		<rect id="SVGID_99_" x="-196" y="-286.707" width="1224" height="792"/>
	</defs>
	<clipPath id="SVGID_100_">
		<use xlink:href="#SVGID_99_"  overflow="visible"/>
	</clipPath>
	<path clip-path="url(#SVGID_100_)" fill="none" stroke="#000000" stroke-width="0.145" stroke-miterlimit="10" d="M-79.192,103.636
		l-1.612,0.961"/>
</g>
<g>
	<defs>
		<rect id="SVGID_101_" x="-196" y="-286.707" width="1224" height="792"/>
	</defs>
	<clipPath id="SVGID_102_">
		<use xlink:href="#SVGID_101_"  overflow="visible"/>
	</clipPath>
	<path clip-path="url(#SVGID_102_)" fill="none" stroke="#000000" stroke-width="0.145" stroke-miterlimit="10" d="M-83.614,111.165
		l-1.442,0.859"/>
</g>
<g>
	<defs>
		<rect id="SVGID_103_" x="-196" y="-286.707" width="1224" height="792"/>
	</defs>
	<clipPath id="SVGID_104_">
		<use xlink:href="#SVGID_103_"  overflow="visible"/>
	</clipPath>
	<path clip-path="url(#SVGID_104_)" fill="none" stroke="#000000" stroke-width="0.145" stroke-miterlimit="10" d="M-69.081,106.986
		l3.255,2.142"/>
</g>
<g>
	<defs>
		<rect id="SVGID_105_" x="-196" y="-286.707" width="1224" height="792"/>
	</defs>
	<clipPath id="SVGID_106_">
		<use xlink:href="#SVGID_105_"  overflow="visible"/>
	</clipPath>
	<path clip-path="url(#SVGID_106_)" fill="none" stroke="#000000" stroke-width="0.145" stroke-miterlimit="10" d="M-75.19,100.407
		l3.944-2.363"/>
</g>
<g>
	<defs>
		<rect id="SVGID_107_" x="-196" y="-286.707" width="1224" height="792"/>
	</defs>
	<clipPath id="SVGID_108_">
		<use xlink:href="#SVGID_107_"  overflow="visible"/>
	</clipPath>
	<path clip-path="url(#SVGID_108_)" fill="none" stroke="#000000" stroke-width="0.145" stroke-miterlimit="10" d="M-78.76,97.991
		l1.552-0.912"/>
</g>
<g>
	<defs>
		<rect id="SVGID_109_" x="-196" y="-286.707" width="1224" height="792"/>
	</defs>
	<clipPath id="SVGID_110_">
		<use xlink:href="#SVGID_109_"  overflow="visible"/>
	</clipPath>
	<path clip-path="url(#SVGID_110_)" fill="none" stroke="#000000" stroke-width="0.145" stroke-miterlimit="10" d="M-75.19,99.163
		l2.377-1.398"/>
</g>
<g>
	<defs>
		<rect id="SVGID_111_" x="-196" y="-286.707" width="1224" height="792"/>
	</defs>
	<clipPath id="SVGID_112_">
		<use xlink:href="#SVGID_111_"  overflow="visible"/>
	</clipPath>
	<path clip-path="url(#SVGID_112_)" fill="none" stroke="#000000" stroke-width="0.145" stroke-miterlimit="10" d="M-75.05,96.863
		l2.187-1.286"/>
</g>
<g>
	<defs>
		<rect id="SVGID_113_" x="-196" y="-286.707" width="1224" height="792"/>
	</defs>
	<clipPath id="SVGID_114_">
		<use xlink:href="#SVGID_113_"  overflow="visible"/>
	</clipPath>
	<path clip-path="url(#SVGID_114_)" fill="none" stroke="#000000" stroke-width="0.145" stroke-miterlimit="10" d="M-78.76,97.94
		l3.679,2.514"/>
</g>
<g>
	<defs>
		<rect id="SVGID_115_" x="-196" y="-286.707" width="1224" height="792"/>
	</defs>
	<clipPath id="SVGID_116_">
		<use xlink:href="#SVGID_115_"  overflow="visible"/>
	</clipPath>
	<path clip-path="url(#SVGID_116_)" fill="none" stroke="#000000" stroke-width="0.145" stroke-miterlimit="10" d="M-72.951,96.821
		l1.703,1.122"/>
</g>
<g>
	<defs>
		<rect id="SVGID_117_" x="-196" y="-286.707" width="1224" height="792"/>
	</defs>
	<clipPath id="SVGID_118_">
		<use xlink:href="#SVGID_117_"  overflow="visible"/>
	</clipPath>
	<path clip-path="url(#SVGID_118_)" fill="none" stroke="#000000" stroke-width="0.145" stroke-miterlimit="10" d="M-70.905,103.415
		l1.803,1.188"/>
</g>
<g>
	<defs>
		<rect id="SVGID_119_" x="-196" y="-286.707" width="1224" height="792"/>
	</defs>
	<clipPath id="SVGID_120_">
		<use xlink:href="#SVGID_119_"  overflow="visible"/>
	</clipPath>
	<path clip-path="url(#SVGID_120_)" fill="none" stroke="#000000" stroke-width="0.145" stroke-miterlimit="10" d="M-77.234,97.694
		L-75,99.163"/>
</g>
<g>
	<defs>
		<rect id="SVGID_121_" x="-196" y="-286.707" width="1224" height="792"/>
	</defs>
	<clipPath id="SVGID_122_">
		<use xlink:href="#SVGID_121_"  overflow="visible"/>
	</clipPath>
	<path clip-path="url(#SVGID_122_)" fill="none" stroke="#000000" stroke-width="0.145" stroke-miterlimit="10" d="M-77.047,95.59
		l1.988,1.31"/>
</g>
<g>
	<defs>
		<rect id="SVGID_123_" x="-196" y="-286.707" width="1224" height="792"/>
	</defs>
	<clipPath id="SVGID_124_">
		<use xlink:href="#SVGID_123_"  overflow="visible"/>
	</clipPath>
	<path clip-path="url(#SVGID_124_)" fill="none" stroke="#000000" stroke-width="0.145" stroke-miterlimit="10" d="M-73.985,94.849
		l1.143,0.754"/>
</g>
<g>
	<defs>
		<rect id="SVGID_125_" x="-91.601" y="87.333" width="82.749" height="104.496"/>
	</defs>
	<clipPath id="SVGID_126_">
		<use xlink:href="#SVGID_125_"  overflow="visible"/>
	</clipPath>
	<path clip-path="url(#SVGID_126_)" fill="none" stroke="#000000" stroke-width="0.145" stroke-miterlimit="10" d="M-77.042,93.027
		c-0.046,0.091-0.203,0.264-0.218,0.334l0.129,0.343c0.13,0.174,0.606,0.334,1.4,0.109c0.794-0.227,2.457-1.107,2.609-2.001
		l-0.266-0.5c0,0-0.247-0.079-0.517-0.009"/>
</g>
<g>
	<defs>
		<rect id="SVGID_127_" x="-196" y="-286.707" width="1224" height="792"/>
	</defs>
	<clipPath id="SVGID_128_">
		<use xlink:href="#SVGID_127_"  overflow="visible"/>
	</clipPath>
	<path clip-path="url(#SVGID_128_)" fill="none" stroke="#000000" stroke-width="0.145" stroke-miterlimit="10" d="M-76.295,89.765
		l1.128,0.547l0.348-0.146l0.781-1.096"/>
</g>
<g>
	<defs>
		<rect id="SVGID_129_" x="-91.601" y="87.333" width="82.749" height="104.496"/>
	</defs>
	<clipPath id="SVGID_130_">
		<use xlink:href="#SVGID_129_"  overflow="visible"/>
	</clipPath>
	<path clip-path="url(#SVGID_130_)" fill="none" stroke="#000000" stroke-width="0.145" stroke-miterlimit="10" d="M-73.318,92.266
		c0.231,1.014-0.403,2.024-1.418,2.256c-0.651,0.148-1.332-0.059-1.79-0.545l-0.077-0.059 M-76.896,93.431
		c-0.412-0.956,0.03-2.064,0.985-2.476c0.148-0.064,0.304-0.108,0.464-0.132c0.61-0.105,1.231,0.108,1.649,0.566
		c0.222,0.25,0.302,0.446,0.302,0.446"/>
</g>
<g>
	<defs>
		<rect id="SVGID_131_" x="-91.601" y="87.333" width="82.749" height="104.496"/>
	</defs>
	<clipPath id="SVGID_132_">
		<use xlink:href="#SVGID_131_"  overflow="visible"/>
	</clipPath>
	<path clip-path="url(#SVGID_132_)" fill="none" stroke="#000000" stroke-width="0.145" stroke-miterlimit="10" d="M-73.766,95.093
		c0,0,0.006-0.164-0.01-0.203c-0.015-0.047-0.054-0.082-0.102-0.091c-0.065-0.016-0.331,0.061-0.331,0.061s-0.004-0.045-0.004-0.104
		v-0.048l0.1-0.429 M-74.659,95.075c-0.021,0.079,0.06,0.163,0.076,0.218c0.024,0.079,0.205,0.134,0.363,0.019"/>
</g>
<g>
	<defs>
		<rect id="SVGID_133_" x="-196" y="-286.707" width="1224" height="792"/>
	</defs>
	<clipPath id="SVGID_134_">
		<use xlink:href="#SVGID_133_"  overflow="visible"/>
	</clipPath>
	<path clip-path="url(#SVGID_134_)" fill="none" stroke="#000000" stroke-width="0.145" stroke-miterlimit="10" d="M-75.665,95.802
		v-0.176l0.243-0.407l-0.042-0.145L-75.914,95l-0.402-0.246l0.163-0.473"/>
</g>
<g>
	<defs>
		<rect id="SVGID_135_" x="-196" y="-286.707" width="1224" height="792"/>
	</defs>
	<clipPath id="SVGID_136_">
		<use xlink:href="#SVGID_135_"  overflow="visible"/>
	</clipPath>
	<path clip-path="url(#SVGID_136_)" fill="none" stroke="#000000" stroke-width="0.145" stroke-miterlimit="10" d="M-78.742,102.856
		l3.675,2.419"/>
</g>
<g>
	<defs>
		<rect id="SVGID_137_" x="-196" y="-286.707" width="1224" height="792"/>
	</defs>
	<clipPath id="SVGID_138_">
		<use xlink:href="#SVGID_137_"  overflow="visible"/>
	</clipPath>
	<path clip-path="url(#SVGID_138_)" fill="none" stroke="#000000" stroke-width="0.145" stroke-miterlimit="10" d="M-79.16,104.575
		l3.849,2.533"/>
</g>
<g>
	<defs>
		<rect id="SVGID_139_" x="-196" y="-286.707" width="1224" height="792"/>
	</defs>
	<clipPath id="SVGID_140_">
		<use xlink:href="#SVGID_139_"  overflow="visible"/>
	</clipPath>
	<path clip-path="url(#SVGID_140_)" fill="none" stroke="#000000" stroke-width="0.145" stroke-miterlimit="10" d="M-76.09,94.768
		l-1.144,0.754"/>
</g>
<g>
	<defs>
		<rect id="SVGID_141_" x="-196" y="-286.707" width="1224" height="792"/>
	</defs>
	<clipPath id="SVGID_142_">
		<use xlink:href="#SVGID_141_"  overflow="visible"/>
	</clipPath>
	<path clip-path="url(#SVGID_142_)" fill="none" stroke="#000000" stroke-width="0.145" stroke-miterlimit="10" d="M-72.952,97.827
		v-2.133"/>
</g>
<g>
	<defs>
		<rect id="SVGID_143_" x="-196" y="-286.707" width="1224" height="792"/>
	</defs>
	<clipPath id="SVGID_144_">
		<use xlink:href="#SVGID_143_"  overflow="visible"/>
	</clipPath>
	<path clip-path="url(#SVGID_144_)" fill="none" stroke="#000000" stroke-width="0.145" stroke-miterlimit="10" d="M-77.234,97.694
		v-2.188"/>
</g>
<g>
	<defs>
		<rect id="SVGID_145_" x="-196" y="-286.707" width="1224" height="792"/>
	</defs>
	<clipPath id="SVGID_146_">
		<use xlink:href="#SVGID_145_"  overflow="visible"/>
	</clipPath>
	<path clip-path="url(#SVGID_146_)" fill="none" stroke="#000000" stroke-width="0.145" stroke-miterlimit="10" d="M-44.393,131.669
		l12.515,7.961"/>
</g>
<g>
	<defs>
		<rect id="SVGID_147_" x="-196" y="-286.707" width="1224" height="792"/>
	</defs>
	<clipPath id="SVGID_148_">
		<use xlink:href="#SVGID_147_"  overflow="visible"/>
	</clipPath>
	<path clip-path="url(#SVGID_148_)" fill="none" stroke="#000000" stroke-width="0.145" stroke-miterlimit="10" d="M-29.798,132.319
		l5.188,3.051"/>
</g>
<g>
	<defs>
		<rect id="SVGID_149_" x="-196" y="-286.707" width="1224" height="792"/>
	</defs>
	<clipPath id="SVGID_150_">
		<use xlink:href="#SVGID_149_"  overflow="visible"/>
	</clipPath>
	<path clip-path="url(#SVGID_150_)" fill="none" stroke="#000000" stroke-width="0.145" stroke-miterlimit="10" d="M-72.432,115.521
		l4.862,3.093"/>
</g>
<g>
	<defs>
		<rect id="SVGID_151_" x="-196" y="-286.707" width="1224" height="792"/>
	</defs>
	<clipPath id="SVGID_152_">
		<use xlink:href="#SVGID_151_"  overflow="visible"/>
	</clipPath>
	<path clip-path="url(#SVGID_152_)" fill="none" stroke="#000000" stroke-width="0.145" stroke-miterlimit="10" d="M-72.432,113.628
		l4.862,3.093"/>
</g>
<g>
	<defs>
		<rect id="SVGID_153_" x="-196" y="-286.707" width="1224" height="792"/>
	</defs>
	<clipPath id="SVGID_154_">
		<use xlink:href="#SVGID_153_"  overflow="visible"/>
	</clipPath>
	<path clip-path="url(#SVGID_154_)" fill="none" stroke="#000000" stroke-width="0.145" stroke-miterlimit="10" d="M-66.723,110.339
		l4.861,3.093"/>
</g>
<g>
	<defs>
		<rect id="SVGID_155_" x="-196" y="-286.707" width="1224" height="792"/>
	</defs>
	<clipPath id="SVGID_156_">
		<use xlink:href="#SVGID_155_"  overflow="visible"/>
	</clipPath>
	<path clip-path="url(#SVGID_156_)" fill="none" stroke="#000000" stroke-width="0.145" stroke-miterlimit="10" d="M-61.86,114.335
		l31.578,18.123"/>
</g>
<g>
	<defs>
		<rect id="SVGID_157_" x="-196" y="-286.707" width="1224" height="792"/>
	</defs>
	<clipPath id="SVGID_158_">
		<use xlink:href="#SVGID_157_"  overflow="visible"/>
	</clipPath>
	<path clip-path="url(#SVGID_158_)" fill="none" stroke="#000000" stroke-width="0.145" stroke-miterlimit="10" d="M-42.315,129.968
		l8.496,4.877"/>
</g>
<g>
	<defs>
		<rect id="SVGID_159_" x="-196" y="-286.707" width="1224" height="792"/>
	</defs>
	<clipPath id="SVGID_160_">
		<use xlink:href="#SVGID_159_"  overflow="visible"/>
	</clipPath>
	<path clip-path="url(#SVGID_160_)" fill="none" stroke="#000000" stroke-width="0.145" stroke-miterlimit="10" d="M-17.278,142.013
		l0.455-0.27v-1.56l-7.799-4.478"/>
</g>
<g>
	<defs>
		<rect id="SVGID_161_" x="-196" y="-286.707" width="1224" height="792"/>
	</defs>
	<clipPath id="SVGID_162_">
		<use xlink:href="#SVGID_161_"  overflow="visible"/>
	</clipPath>
	<path clip-path="url(#SVGID_162_)" fill="none" stroke="#000000" stroke-width="0.145" stroke-miterlimit="10" d="M-15.721,144.108
		l-2.984,1.762l-2.889-1.83"/>
</g>
<g>
	<defs>
		<rect id="SVGID_163_" x="-196" y="-286.707" width="1224" height="792"/>
	</defs>
	<clipPath id="SVGID_164_">
		<use xlink:href="#SVGID_163_"  overflow="visible"/>
	</clipPath>
	<path clip-path="url(#SVGID_164_)" fill="none" stroke="#000000" stroke-width="0.145" stroke-miterlimit="10" d="M-18.713,148.565
		v-2.697"/>
</g>
<g>
	<defs>
		<rect id="SVGID_165_" x="-196" y="-286.707" width="1224" height="792"/>
	</defs>
	<clipPath id="SVGID_166_">
		<use xlink:href="#SVGID_165_"  overflow="visible"/>
	</clipPath>
	<path clip-path="url(#SVGID_166_)" fill="none" stroke="#000000" stroke-width="0.145" stroke-miterlimit="10" d="M-22.468,145.007
		l-4.284,2.509l-46.761-29.746"/>
</g>
<g>
	<defs>
		<rect id="SVGID_167_" x="-196" y="-286.707" width="1224" height="792"/>
	</defs>
	<clipPath id="SVGID_168_">
		<use xlink:href="#SVGID_167_"  overflow="visible"/>
	</clipPath>
	<path clip-path="url(#SVGID_168_)" fill="none" stroke="#000000" stroke-width="0.145" stroke-miterlimit="10" d="M-19.871,141.905
		l-6.882,4.031l-46.813-29.777"/>
</g>
<g>
	<defs>
		<rect id="SVGID_169_" x="-196" y="-286.707" width="1224" height="792"/>
	</defs>
	<clipPath id="SVGID_170_">
		<use xlink:href="#SVGID_169_"  overflow="visible"/>
	</clipPath>
	<path clip-path="url(#SVGID_170_)" fill="none" stroke="#000000" stroke-width="0.145" stroke-miterlimit="10" d="M-26.752,147.517
		v-1.579"/>
</g>
<g>
	<defs>
		<rect id="SVGID_171_" x="-196" y="-286.707" width="1224" height="792"/>
	</defs>
	<clipPath id="SVGID_172_">
		<use xlink:href="#SVGID_171_"  overflow="visible"/>
	</clipPath>
	<path clip-path="url(#SVGID_172_)" fill="none" stroke="#000000" stroke-width="0.145" stroke-miterlimit="10" d="M-24.625,135.37
		l-7.253,4.246"/>
</g>
<g>
	<defs>
		<rect id="SVGID_173_" x="-196" y="-286.707" width="1224" height="792"/>
	</defs>
	<clipPath id="SVGID_174_">
		<use xlink:href="#SVGID_173_"  overflow="visible"/>
	</clipPath>
	<path clip-path="url(#SVGID_174_)" fill="none" stroke="#000000" stroke-width="0.145" stroke-miterlimit="10" d="M-24.61,135.37
		v1.527l-7.244,4.241l-12.541-7.978"/>
</g>
<g>
	<defs>
		<rect id="SVGID_175_" x="-196" y="-286.707" width="1224" height="792"/>
	</defs>
	<clipPath id="SVGID_176_">
		<use xlink:href="#SVGID_175_"  overflow="visible"/>
	</clipPath>
	<path clip-path="url(#SVGID_176_)" fill="none" stroke="#000000" stroke-width="0.145" stroke-miterlimit="10" d="M-31.878,141.122
		v-1.492"/>
</g>
<g>
	<defs>
		<rect id="SVGID_177_" x="-196" y="-286.707" width="1224" height="792"/>
	</defs>
	<clipPath id="SVGID_178_">
		<use xlink:href="#SVGID_177_"  overflow="visible"/>
	</clipPath>
	<path clip-path="url(#SVGID_178_)" fill="none" stroke="#000000" stroke-width="0.145" stroke-miterlimit="10" d="M-29.798,132.319
		l-4.427,2.592"/>
</g>
<g>
	<defs>
		<rect id="SVGID_179_" x="-196" y="-286.707" width="1224" height="792"/>
	</defs>
	<clipPath id="SVGID_180_">
		<use xlink:href="#SVGID_179_"  overflow="visible"/>
	</clipPath>
	<path clip-path="url(#SVGID_180_)" fill="none" stroke="#000000" stroke-width="0.145" stroke-miterlimit="10" d="M-41.739,130.137
		l-2.654,1.554"/>
</g>
<g>
	<defs>
		<rect id="SVGID_181_" x="-196" y="-286.707" width="1224" height="792"/>
	</defs>
	<clipPath id="SVGID_182_">
		<use xlink:href="#SVGID_181_"  overflow="visible"/>
	</clipPath>
	<path clip-path="url(#SVGID_182_)" fill="none" stroke="#000000" stroke-width="0.145" stroke-miterlimit="10" d="M-61.86,115.206
		l-5.708,3.342"/>
</g>
<g>
	<defs>
		<rect id="SVGID_183_" x="-196" y="-286.707" width="1224" height="792"/>
	</defs>
	<clipPath id="SVGID_184_">
		<use xlink:href="#SVGID_183_"  overflow="visible"/>
	</clipPath>
	<path clip-path="url(#SVGID_184_)" fill="none" stroke="#000000" stroke-width="0.145" stroke-miterlimit="10" d="M-61.86,113.432
		l-5.708,3.341"/>
</g>
<g>
	<defs>
		<rect id="SVGID_185_" x="-196" y="-286.707" width="1224" height="792"/>
	</defs>
	<clipPath id="SVGID_186_">
		<use xlink:href="#SVGID_185_"  overflow="visible"/>
	</clipPath>
	<path clip-path="url(#SVGID_186_)" fill="none" stroke="#000000" stroke-width="0.145" stroke-miterlimit="10" d="M-66.736,110.339
		l-5.708,3.342"/>
</g>
<g>
	<defs>
		<rect id="SVGID_187_" x="-196" y="-286.707" width="1224" height="792"/>
	</defs>
	<clipPath id="SVGID_188_">
		<use xlink:href="#SVGID_187_"  overflow="visible"/>
	</clipPath>
	<path clip-path="url(#SVGID_188_)" fill="none" stroke="#000000" stroke-width="0.145" stroke-miterlimit="10" d="M-65.826,109.214
		l-9.568,5.6"/>
</g>
<g>
	<defs>
		<rect id="SVGID_189_" x="-196" y="-286.707" width="1224" height="792"/>
	</defs>
	<clipPath id="SVGID_190_">
		<use xlink:href="#SVGID_189_"  overflow="visible"/>
	</clipPath>
	<path clip-path="url(#SVGID_190_)" fill="none" stroke="#000000" stroke-width="0.145" stroke-miterlimit="10" d="M-16.897,140.165
		l-1.504,0.881"/>
</g>
<g>
	<defs>
		<rect id="SVGID_191_" x="-196" y="-286.707" width="1224" height="792"/>
	</defs>
	<clipPath id="SVGID_192_">
		<use xlink:href="#SVGID_191_"  overflow="visible"/>
	</clipPath>
	<g clip-path="url(#SVGID_192_)">
		<g enable-background="new    ">
			<path fill="#D1D3D4" d="M-82.522,155.448c0.749,0.523,0.746,1.113,0.195,1.586l-0.656-0.457c0.196-0.254,0.207-0.512-0.16-0.768
				c-0.508-0.354-1.275-0.289-1.913,0.08c-0.632,0.369-0.807,0.854-0.299,1.207c0.366,0.256,0.77,0.271,1.189,0.168l0.656,0.457
				c-0.794,0.311-1.717,0.258-2.466-0.264c-0.849-0.592-0.777-1.439,0.247-2.035S-83.371,154.856-82.522,155.448z"/>
		</g>
		<g enable-background="new    ">
			<path fill="#D1D3D4" d="M-78.021,158.657l-2.129,2.793l-0.672-0.469l0.521-0.668l-1.188-0.828l-1.084,0.275l-0.662-0.463
				l4.559-1.098L-78.021,158.657z M-80.694,159.288l0.775,0.539l0.724-0.916L-80.694,159.288z"/>
		</g>
		<g enable-background="new    ">
			<path fill="#D1D3D4" d="M-75.68,160.287l2.708,1.888l-0.61,0.355l-1.022-0.713l-2.734,1.59l-0.668-0.465l2.734-1.59l-1.018-0.711
				L-75.68,160.287z"/>
			<path fill="#D1D3D4" d="M-68.963,164.97l-3.345,1.947l-0.662-0.463l1.405-0.816l-1.437-1.002l-1.405,0.816l-0.662-0.461
				l3.345-1.945l0.662,0.461l-1.329,0.773l1.437,1.002l1.329-0.773L-68.963,164.97z"/>
			<path fill="#D1D3D4" d="M-65.384,167.466l-0.61,0.354l-1.504-1.049l-0.73,0.425l1.364,0.951l-0.594,0.346l-1.364-0.951
				l-0.795,0.463l1.504,1.049l-0.616,0.357l-2.155-1.502l3.345-1.947L-65.384,167.466z"/>
			<path fill="#D1D3D4" d="M-65.5,170.067l-1.248,0.727l-0.655-0.459l3.345-1.945l1.307,0.912c0.668,0.465,0.736,0.993,0.05,1.393
				c-0.534,0.311-1.151,0.312-1.71,0.068l-0.458,1.34l-0.744-0.52l0.462-1.273L-65.5,170.067z M-64.928,169.735l0.611,0.426
				c0.33,0.23,0.686,0.241,0.964,0.08c0.283-0.166,0.298-0.393-0.032-0.623l-0.611-0.426L-64.928,169.735z"/>
			<path fill="#D1D3D4" d="M-63.017,173.394l-0.662-0.461l3.345-1.946l0.662,0.461L-63.017,173.394z"/>
			<path fill="#D1D3D4" d="M-58.94,176.235l-0.522-0.363l0.729-2.342l-2.228,1.297l-0.636-0.443l3.345-1.946l0.62,0.433
				l-0.712,2.207l2.113-1.23l0.636,0.443L-58.94,176.235z"/>
			<path fill="#D1D3D4" d="M-52.016,176.786l-0.61,0.354l-1.504-1.049l-0.73,0.425l1.364,0.951l-0.594,0.346l-1.364-0.951
				l-0.795,0.463l1.504,1.049l-0.616,0.357l-2.155-1.502l3.345-1.947L-52.016,176.786z"/>
			<path fill="#D1D3D4" d="M-48.779,179.042l0.662,0.462l-2.729,1.588l1.479,1.03l-0.616,0.357l-2.14-1.49L-48.779,179.042z"/>
		</g>
		<g enable-background="new    ">
			<path fill="#D1D3D4" d="M-42.221,187.894l-0.523-0.365l0.729-2.342l-2.229,1.297l-0.635-0.443l3.346-1.945l0.619,0.432
				l-0.713,2.207l2.113-1.23l0.637,0.443L-42.221,187.894z"/>
		</g>
	</g>
</g>
<g>
	<defs>
		<rect id="SVGID_193_" x="-196" y="-286.707" width="1224" height="792"/>
	</defs>
	<clipPath id="SVGID_194_">
		<use xlink:href="#SVGID_193_"  overflow="visible"/>
	</clipPath>
	<path clip-path="url(#SVGID_194_)" fill="none" stroke="#000000" stroke-width="0.145" stroke-miterlimit="10" d="M-10.588,144.593
		l-13.516,7.635l-60.952-40.145"/>
</g>
<g>
	<defs>
		<rect id="SVGID_195_" x="-196" y="-286.707" width="1224" height="792"/>
	</defs>
	<clipPath id="SVGID_196_">
		<use xlink:href="#SVGID_195_"  overflow="visible"/>
	</clipPath>
	<path clip-path="url(#SVGID_196_)" fill="none" stroke="#000000" stroke-width="0.145" stroke-miterlimit="10" d="M-19.994,143.083
		l-1.62,0.951v2.682l2.904,1.847l2.986-1.748v-2.705l-1.211-0.772"/>
</g>
<g>
	<defs>
		<rect id="SVGID_197_" x="-196" y="-286.707" width="1224" height="792"/>
	</defs>
	<clipPath id="SVGID_198_">
		<use xlink:href="#SVGID_197_"  overflow="visible"/>
	</clipPath>
	<path clip-path="url(#SVGID_198_)" fill="none" stroke="#000000" stroke-width="0.145" stroke-miterlimit="10" d="M-24.083,152.238
		v35.763"/>
</g>
<g>
	<defs>
		<rect id="SVGID_199_" x="-196" y="-286.707" width="1224" height="792"/>
	</defs>
	<clipPath id="SVGID_200_">
		<use xlink:href="#SVGID_199_"  overflow="visible"/>
	</clipPath>
	<path clip-path="url(#SVGID_200_)" fill="none" stroke="#000000" stroke-width="0.145" stroke-miterlimit="10" d="M-16.897,183.007
		l-0.983,0.58"/>
</g>
<g>
	<defs>
		<rect id="SVGID_201_" x="-196" y="-286.707" width="1224" height="792"/>
	</defs>
	<clipPath id="SVGID_202_">
		<use xlink:href="#SVGID_201_"  overflow="visible"/>
	</clipPath>
	<path clip-path="url(#SVGID_202_)" fill="none" stroke="#000000" stroke-width="0.145" stroke-miterlimit="10" d="M-16.897,183.007
		l0.617,0.395l5.69-3.354v-35.475l-6.233-3.576"/>
</g>
<g>
	<defs>
		<rect id="SVGID_203_" x="-91.601" y="87.333" width="82.749" height="104.496"/>
	</defs>
	<clipPath id="SVGID_204_">
		<use xlink:href="#SVGID_203_"  overflow="visible"/>
	</clipPath>
	<path clip-path="url(#SVGID_204_)" fill="none" stroke="#000000" stroke-width="0.145" stroke-miterlimit="10" d="M-16.897,183.007
		v-0.857c0-0.146-0.062-0.287-0.172-0.385"/>
</g>
<g>
	<defs>
		<rect id="SVGID_205_" x="-91.601" y="87.333" width="82.749" height="104.496"/>
	</defs>
	<clipPath id="SVGID_206_">
		<use xlink:href="#SVGID_205_"  overflow="visible"/>
	</clipPath>
	<path clip-path="url(#SVGID_206_)" fill="none" stroke="#000000" stroke-width="0.145" stroke-miterlimit="10" d="M-16.272,183.401
		v-1.253c0-0.301-0.262-0.698-0.865-0.354c-0.424,0.258-0.742,0.722-0.742,1.168v1.383l-6.203,3.656l-9.339-6.467l-11.812-8.074
		l-9.906-6.799l-20.086-14.431l-9.832-7.084v-33.063 M-18.717,141.462c-0.732,0.127-1.288,0.791-1.288,1.59v1.121
		c0,0.438,0.69,0.793,1.545,0.793s1.545-0.354,1.545-0.793v-1.121c0-0.799-0.558-1.463-1.288-1.59v-0.172
		c0-0.078-0.099-0.17-0.258-0.17c-0.157,0-0.256,0.092-0.256,0.17V141.462z"/>
</g>
</svg>
