<?xml version="1.0" encoding="utf-8"?>
<!-- Generator: Adobe Illustrator 23.0.0, SVG Export Plug-In . SVG Version: 6.00 Build 0)  -->
<svg version="1.1" id="Layer_1" xmlns="http://www.w3.org/2000/svg" xmlns:xlink="http://www.w3.org/1999/xlink" x="0px" y="0px"
	 viewBox="0 0 123.3 164.8" style="enable-background:new 0 0 123.3 164.8;" xml:space="preserve">
<style type="text/css">
	.st0{fill:#D2D3D4;}
	.st1{clip-path:url(#SVGID_2_);}
	.st2{fill:#231F20;}
	.st3{clip-path:url(#SVGID_4_);}
	.st4{fill:none;stroke:#D1D3D4;stroke-width:1.09;stroke-miterlimit:10;}
	.st5{clip-path:url(#SVGID_6_);}
	.st6{fill:none;stroke:#231F20;stroke-width:0.15;stroke-miterlimit:10;}
	.st7{enable-background:new    ;}
	.st8{fill:#D1D3D4;}
	.st9{fill:none;stroke:#231F20;stroke-width:0.14;stroke-miterlimit:10;}
	.st10{clip-path:url(#SVGID_8_);}
	.st11{clip-path:url(#SVGID_10_);}
	.st12{clip-path:url(#SVGID_12_);}
	.st13{clip-path:url(#SVGID_14_);}
	.st14{clip-path:url(#SVGID_16_);}
	.st15{fill:none;stroke:#FFFFFF;stroke-width:0.15;stroke-miterlimit:10;}
</style>
<title>residence_R_7-12_key</title>
<g>
	<path class="st0" d="M14.3,117.1c-0.6,0-1-0.4-1-1.1v-1.4h3.4v1.3c0,0.7-0.3,1.1-0.9,1.1c-0.3,0-0.6-0.2-0.7-0.4
		C14.9,116.9,14.6,117.1,14.3,117.1z M13.9,115.2v0.7c0,0.3,0.2,0.5,0.4,0.5s0.4-0.2,0.4-0.5v-0.7H13.9z M15.3,115.8
		c0,0.3,0.1,0.5,0.4,0.5s0.4-0.2,0.4-0.5v-0.6h-0.8L15.3,115.8z"/>
	<path class="st0" d="M14.6,119.5h-1.3v-0.7h3.4v1.4c0.1,0.5-0.3,1.1-0.8,1.2c-0.1,0-0.2,0-0.3,0c-0.5,0-0.9-0.3-1-0.8l-1.3,0.9
		v-0.8l1.3-0.8L14.6,119.5z M15.1,119.5v0.7c0,0.3,0.2,0.5,0.5,0.5s0.5-0.2,0.5-0.5v-0.7H15.1z"/>
	<path class="st0" d="M13.3,124.6c0-0.9,0.8-1.6,1.7-1.6c0,0,0.1,0,0.1,0c0.9-0.1,1.7,0.6,1.7,1.5c0.1,0.9-0.6,1.7-1.5,1.7
		c-0.1,0-0.2,0-0.3,0c-0.9,0.1-1.7-0.6-1.7-1.5C13.3,124.7,13.3,124.6,13.3,124.6z M16.1,124.6c0-0.5-0.4-0.9-1.1-0.9
		s-1.1,0.3-1.1,0.9s0.5,0.9,1.1,0.9S16.1,125.1,16.1,124.6z"/>
	<path class="st0" d="M16.7,129.4l-3.4,1.3V130l0.8-0.3v-1.3l-0.8-0.3v-0.7l3.4,1.3V129.4z M14.7,128.7v0.8l1.1-0.4L14.7,128.7z"/>
	<path class="st0" d="M16.7,132.4v1.2c0.1,0.9-0.6,1.6-1.5,1.7c-0.1,0-0.2,0-0.2,0c-0.9,0.1-1.6-0.6-1.7-1.4c0-0.1,0-0.2,0-0.2v-1.2
		H16.7z M13.9,133.5c0,0.6,0.4,1,1,1c0,0,0,0,0.1,0c0.6,0,1-0.4,1.1-0.9c0,0,0,0,0-0.1v-0.5h-2.1V133.5z"/>
	<path class="st0" d="M16.7,139l-2.3,0.6l2.3,0.6v0.7l-3.4-0.8v-0.6l2.2-0.6l-2.2-0.6v-0.6l3.4-0.9v0.7l-2.3,0.6l2.3,0.6L16.7,139z"
		/>
	<path class="st0" d="M16.7,144l-3.4,1.3v-0.7l0.8-0.3V143l-0.8-0.3V142l3.4,1.3V144z M14.7,143.2v0.8l1.1-0.4L14.7,143.2z"/>
	<path class="st0" d="M16.7,148.6v0.8l-2.1-1.2h-1.3v-0.7h1.3l2.1-1.2v0.8l-1.4,0.8L16.7,148.6z"/>
	<path class="st0" d="M111.7,108.4v0.7h-2.8v1.6h-0.6v-2.3H111.7z"/>
	<path class="st0" d="M111.7,114.1l-3.4,1.3v-0.7l0.8-0.3v-1.3l-0.8-0.3v-0.7l3.4,1.3V114.1z M109.7,113.4v0.8l1.1-0.4L109.7,113.4z
		"/>
	<path class="st0" d="M108.3,117h3.4v2.2h-0.6v-1.5h-0.9v1.4h-0.6v-1.4h-1.3V117z"/>
	<path class="st0" d="M111.7,122.5l-3.4,1.3v-0.7l0.8-0.3v-1.3l-0.8-0.3v-0.7l3.4,1.3V122.5z M109.7,121.8v0.8l1.1-0.4L109.7,121.8z
		"/>
	<path class="st0" d="M111.7,127.2v0.7l-2.1-1.2h-1.3V126h1.3l2.1-1.2v0.8l-1.4,0.8L111.7,127.2z"/>
	<path class="st0" d="M111.7,131.8h-0.6v-1.6h-0.7v1.4h-0.6v-1.4h-0.8v1.6h-0.6v-2.3h3.4V131.8z"/>
	<path class="st0" d="M111.7,133.4v2.9h-0.6v-1.1h-2.8v-0.7h2.8v-1.1L111.7,133.4z"/>
	<path class="st0" d="M111.7,137.8v2.9h-0.6v-1.1h-2.8v-0.7h2.8v-1.1H111.7z"/>
	<path class="st0" d="M111.7,144.6h-0.6V143h-0.7v1.4h-0.6V143h-0.8v1.6h-0.6v-2.3h3.4V144.6z"/>
	<path class="st0" d="M109.2,149.2c-0.3,0.1-0.5,0.4-0.4,0.7c0,0.4,0.2,0.6,0.4,0.6s0.3-0.1,0.4-0.4l0.1-0.6c0-0.5,0.4-0.9,0.9-0.9
		c0.6,0,1,0.6,1,1.1c0,0,0,0,0,0.1c0.1,0.6-0.4,1.2-1,1.3v-0.7c0.3-0.1,0.4-0.3,0.4-0.6c0-0.3-0.2-0.5-0.4-0.5s-0.3,0.1-0.4,0.4
		l-0.1,0.6c-0.1,0.6-0.4,0.9-1,0.9s-1-0.5-1-1.2c-0.1-0.7,0.4-1.3,1-1.4L109.2,149.2L109.2,149.2z"/>
	<path class="st0" d="M111.7,152.6v2.9h-0.6v-1.1h-2.8v-0.7h2.8v-1.1L111.7,152.6z"/>
	<path class="st0" d="M43.1,112.6h0.7v2.8h1.6v0.6h-2.3V112.6z"/>
	<path class="st0" d="M49.3,112.6v0.6h-1.6v0.8h1.5v0.6h-1.5v0.8h1.6v0.6H47v-3.4L49.3,112.6z"/>
	<path class="st0" d="M52.4,116c-1,0.1-1.8-0.7-1.9-1.6c-0.1-1,0.7-1.8,1.6-1.9s1.8,0.7,1.9,1.6c0,0.1,0,0.1,0,0.2
		c0,0.9-0.6,1.6-1.5,1.7C52.4,116,52.4,116,52.4,116z M52.4,113.2c-0.5,0-0.9,0.4-0.9,1.1s0.3,1.1,0.9,1.1s0.9-0.5,0.9-1.1
		S52.9,113.2,52.4,113.2L52.4,113.2z"/>
	<path class="st0" d="M58.4,116h-0.6l-1.6-2.2v2.2h-0.7v-3.4h0.7l1.5,2.1v-2.1h0.7V116z"/>
	<path class="st0" d="M61.9,112.6l1.3,3.4h-0.7l-0.3-0.8h-1.3l-0.3,0.8h-0.7l1.3-3.4L61.9,112.6z M61.1,114.6h0.8l-0.4-1.1
		L61.1,114.6z"/>
	<path class="st0" d="M65.4,114.7v1.3h-0.7v-3.4h1.4c0.5-0.1,1.1,0.2,1.2,0.8c0,0.1,0,0.2,0,0.3c0,0.5-0.3,0.9-0.8,1l0.9,1.3h-0.8
		l-0.8-1.3L65.4,114.7z M65.4,114.2H66c0.3,0,0.5-0.2,0.5-0.5s-0.2-0.5-0.5-0.5h-0.7L65.4,114.2z"/>
	<path class="st0" d="M68.9,112.6h1.2c0.9,0.1,1.6,0.9,1.6,1.8c-0.1,0.8-0.7,1.5-1.6,1.6h-1.2V112.6z M70,115.4
		c0.6,0,1.1-0.5,1.1-1.1c0-0.6-0.5-1.1-1.1-1.1h-0.5v2.1H70z"/>
	<path class="st0" d="M76.1,115c0.1,0.3,0.4,0.5,0.7,0.4c0.3,0,0.6-0.2,0.6-0.4s-0.1-0.3-0.4-0.4l-0.6-0.1c-0.5-0.1-0.8-0.4-0.8-0.9
		c0-0.6,0.6-1,1.2-1c0,0,0,0,0,0c0.6-0.1,1.2,0.4,1.3,1h-0.7c-0.1-0.3-0.3-0.4-0.6-0.4c-0.3,0-0.5,0.2-0.5,0.4s0.1,0.3,0.4,0.4
		l0.6,0.2c0.5,0.1,0.9,0.5,0.9,1c-0.1,0.6-0.6,1.1-1.2,1c0,0,0,0,0,0c-0.7,0.1-1.3-0.4-1.4-1L76.1,115z"/>
	<path class="st0" d="M79.4,112.6h2.9v0.6h-1.1v2.8h-0.7v-2.8h-1.1V112.6z"/>
	<path class="st0" d="M40.6,147.9c0.7,0,1.3,0.4,1.4,1.1h-0.7c-0.1-0.3-0.4-0.5-0.7-0.5c-0.5,0-0.8,0.5-0.8,1.1s0.3,1.1,0.8,1.1
		c0.3,0,0.6-0.2,0.7-0.5H42c-0.1,0.7-0.7,1.2-1.4,1.1c-1-0.1-1.7-1-1.6-1.9C39.2,148.6,39.8,147.9,40.6,147.9z"/>
	<path class="st0" d="M45.4,147.9l1.3,3.4H46l-0.3-0.8h-1.3l-0.3,0.8h-0.7l1.3-3.4H45.4z M44.6,149.9h0.8l-0.4-1.2L44.6,149.9z"/>
	<path class="st0" d="M47.8,147.9h2.9v0.6h-1.1v2.8h-0.7v-2.8h-1.1V147.9z"/>
	<path class="st0" d="M55.2,147.9v3.4h-0.7v-1.4H53v1.4h-0.7v-3.4H53v1.3h1.5v-1.3H55.2z"/>
	<path class="st0" d="M59.4,147.9v0.6h-1.6v0.7h1.5v0.6h-1.5v0.8h1.6v0.6h-2.3v-3.4L59.4,147.9z"/>
	<path class="st0" d="M61.8,150v1.3h-0.7v-3.4h1.4c0.5-0.1,1.1,0.3,1.2,0.8c0,0.1,0,0.2,0,0.3c0,0.5-0.3,0.9-0.8,1l0.9,1.3H63
		l-0.8-1.3H61.8z M61.8,149.4h0.6c0.4,0,0.5-0.2,0.5-0.5s-0.2-0.5-0.5-0.5h-0.6V149.4z"/>
	<path class="st0" d="M66.2,151.3h-0.7v-3.4h0.7V151.3z"/>
	<path class="st0" d="M70.8,151.3h-0.6l-1.6-2.3v2.2H68v-3.4h0.7l1.5,2.1v-2.1h0.7V151.3z"/>
	<path class="st0" d="M75,147.9v0.6h-1.6v0.7h1.4v0.6h-1.5v0.8H75v0.6h-2.3v-3.4L75,147.9z"/>
	<path class="st0" d="M79.1,147.9h0.7v2.8h1.6v0.6h-2.3V147.9z"/>
	<path class="st0" d="M85.9,151.3h-0.6l-1.6-2.3v2.2h-0.7v-3.4h0.7l1.5,2.1v-2.1h0.7V151.3L85.9,151.3z"/>
</g>
<g id="Layer_4">
	<g>
		<defs>
			<rect id="SVGID_1_" x="24.2" y="124.7" width="76.1" height="17.2"/>
		</defs>
		<clipPath id="SVGID_2_">
			<use xlink:href="#SVGID_1_"  style="overflow:visible;"/>
		</clipPath>
		<g class="st1">
			<polygon class="st2" points="84.4,133.7 85.8,133.7 85.8,134 86.8,134 86.8,133.7 89.1,133.7 89.1,135.8 88.4,135.8 88.4,137.6 
				89.4,137.6 89.4,140.3 84.1,140.1 84.1,138.2 84.4,138.2 84.4,136.3 84,136.3 84,134.4 84.4,134.4 			"/>
			<g>
				<defs>
					<rect id="SVGID_3_" x="24.2" y="124.7" width="76.1" height="17.2"/>
				</defs>
				<clipPath id="SVGID_4_">
					<use xlink:href="#SVGID_3_"  style="overflow:visible;"/>
				</clipPath>
				<g class="st3">
					<polygon class="st4" points="98.5,125.8 98.5,140.7 25.1,136.2 25.2,125.8 					"/>
				</g>
			</g>
		</g>
	</g>
	<g>
		<defs>
			<rect id="SVGID_5_" x="24.1" y="8.8" width="67.6" height="81.6"/>
		</defs>
		<clipPath id="SVGID_6_">
			<use xlink:href="#SVGID_5_"  style="overflow:visible;"/>
		</clipPath>
		<g class="st5">
			<polyline class="st6" points="90.4,57.2 78.7,63.8 29.5,31.5 			"/>
			<polyline class="st6" points="90.4,59.4 78.7,66 29.5,33.7 			"/>
			<polyline class="st6" points="90.4,61.6 78.7,68.2 29.5,35.9 			"/>
			<polyline class="st6" points="90.4,63.8 78.7,70.4 29.5,38.1 			"/>
			<polyline class="st6" points="90.4,66 78.7,72.7 29.5,40.3 			"/>
			<polyline class="st6" points="90.4,68.2 78.7,74.9 29.5,42.5 			"/>
			<polyline class="st6" points="90.4,70.4 78.7,77.1 29.5,44.7 			"/>
			<polyline class="st6" points="90.4,72.7 78.7,79.3 29.5,46.9 			"/>
			<polyline class="st6" points="90.4,74.9 78.7,81.5 29.5,49.2 			"/>
			<polyline class="st6" points="90.4,77.1 78.7,83.7 29.5,51.4 			"/>
			<polyline class="st6" points="90.4,79.3 78.7,85.9 29.5,53.6 			"/>
			<g class="st7">
				<path class="st8" d="M34.5,63.2c0.6,0.4,0.6,0.8,0.1,1.2L34.1,64c0.1-0.2,0.2-0.4-0.1-0.6c-0.4-0.3-0.9-0.2-1.4,0.1
					c-0.5,0.3-0.6,0.6-0.2,0.9c0.3,0.2,0.6,0.2,0.9,0.1l0.5,0.3c-0.6,0.2-1.3,0.2-1.8-0.2c-0.6-0.4-0.6-1.1,0.2-1.5
					S33.8,62.7,34.5,63.2z"/>
			</g>
			<g class="st7">
				<path class="st8" d="M37.8,65.5l-1.6,2l-0.5-0.3l0.4-0.5l-0.9-0.6l-0.8,0.2L34,66l3.3-0.8L37.8,65.5z M35.8,66l0.6,0.4l0.5-0.7
					L35.8,66z"/>
			</g>
			<g class="st7">
				<path class="st8" d="M39.5,66.7l2,1.4l-0.4,0.3l-0.8-0.5l-2,1.2l-0.5-0.3l2-1.2L39.1,67L39.5,66.7z"/>
				<path class="st8" d="M44.8,70.4l-2.5,1.4l-0.5-0.3l1-0.6l-1.1-0.7l-1,0.6l-0.5-0.3l2.5-1.4l0.5,0.3l-1,0.6l1.1,0.7l1-0.6
					L44.8,70.4z"/>
				<path class="st8" d="M47.7,72.5l-0.4,0.3l-1.1-0.8l-0.5,0.3l1,0.7l-0.4,0.3l-1-0.7l-0.6,0.3l1.1,0.8l-0.5,0.3l-1.6-1.1l2.5-1.4
					L47.7,72.5z"/>
				<path class="st8" d="M48,74.6l-0.9,0.5l-0.5-0.3l2.5-1.4l1,0.7c0.5,0.3,0.5,0.7,0,1c-0.4,0.2-0.8,0.2-1.3,0l-0.3,1l-0.5-0.4
					l0.3-0.9L48,74.6z M48.4,74.3l0.5,0.3c0.2,0.2,0.5,0.2,0.7,0.1c0.2-0.1,0.2-0.3,0-0.5l-0.5-0.3L48.4,74.3z"/>
				<path class="st8" d="M50.1,77.2l-0.5-0.3l2.5-1.4l0.5,0.3L50.1,77.2z"/>
				<path class="st8" d="M53.4,79.6l-0.4-0.3l0.5-1.7l-1.6,1l-0.5-0.3l2.5-1.4l0.5,0.3l-0.5,1.6l1.6-0.9l0.5,0.3L53.4,79.6z"/>
				<path class="st8" d="M58.9,80.2l-0.4,0.3l-1.1-0.8L56.8,80l1,0.7l-0.4,0.3l-1-0.7l-0.6,0.3l1.1,0.8l-0.5,0.3l-1.6-1.1l2.5-1.4
					L58.9,80.2z"/>
				<path class="st8" d="M61.9,82.3l0.5,0.3l-2,1.2l1.1,0.8L61,84.8l-1.6-1.1L61.9,82.3z"/>
			</g>
			<g class="st7">
				<path class="st8" d="M64.2,87l-0.4-0.3l0.5-1.7l-1.6,1l-0.5-0.3l2.5-1.4l0.5,0.3l-0.5,1.6l1.5-0.9l0.5,0.3L64.2,87z"/>
			</g>
			<polyline class="st9" points="90.4,55 78.7,61.6 29.5,29.3 			"/>
			<line class="st9" x1="78.8" y1="59.4" x2="78.8" y2="88"/>
			<line class="st9" x1="84.7" y1="84" x2="84" y2="84.4"/>
			<polyline class="st9" points="84.7,84 85.2,84.3 90.4,81.2 90.4,52.8 			"/>
			<polyline class="st9" points="90.4,52.8 78.7,59.4 29.5,27 			"/>
			<g>
				<defs>
					<rect id="SVGID_7_" x="24.1" y="8.8" width="67.6" height="81.6"/>
				</defs>
				<clipPath id="SVGID_8_">
					<use xlink:href="#SVGID_7_"  style="overflow:visible;"/>
				</clipPath>
				<g class="st10">
					<path class="st9" d="M84.7,84v-0.6c0-0.1,0-0.2-0.1-0.3"/>
					<path class="st9" d="M85.2,84.3v-0.9c0-0.2-0.2-0.5-0.6-0.3c-0.3,0.2-0.5,0.5-0.6,0.9v1L78.8,88l-6.9-4.8l-8.7-6l-7.3-5
						L45,64.8L29.5,53.7V27l1.1-0.6"/>
				</g>
			</g>
			<line class="st9" x1="80.6" y1="53.9" x2="80.6" y2="52.8"/>
			<line class="st9" x1="36.6" y1="29.1" x2="36.6" y2="31.1"/>
			<line class="st9" x1="80.6" y1="53.9" x2="81.3" y2="54.3"/>
			<line class="st9" x1="80.6" y1="52.8" x2="81.3" y2="53.2"/>
			<line class="st9" x1="36.9" y1="17.3" x2="36.9" y2="15.8"/>
			<line class="st9" x1="36.9" y1="17.4" x2="36.9" y2="15.7"/>
			<line class="st9" x1="36.7" y1="27.6" x2="36.7" y2="24.1"/>
			<polyline class="st9" points="37.8,30.4 36.6,31.1 30.6,27.1 30.6,25.2 32.7,24 			"/>
			<polyline class="st9" points="36.9,22 39.7,20.3 39.7,16.6 39.7,16.6 38.5,15.8 			"/>
			<g>
				<defs>
					<rect id="SVGID_9_" x="24.1" y="8.8" width="67.6" height="81.6"/>
				</defs>
				<clipPath id="SVGID_10_">
					<use xlink:href="#SVGID_9_"  style="overflow:visible;"/>
				</clipPath>
				<g class="st11">
					<path class="st9" d="M36.3,19.2c0.2,0.7,0,1.2-0.4,1.2s-1-0.5-1.2-1.2s0-1.2,0.4-1.2S36.1,18.6,36.3,19.2z"/>
					<path class="st9" d="M37.5,19.3c-0.2,0.7,0,1.2,0.4,1.2s1-0.5,1.2-1.2s0-1.2-0.4-1.2S37.7,18.6,37.5,19.3z"/>
				</g>
			</g>
			<line class="st9" x1="36.7" y1="24.1" x2="41.2" y2="21.5"/>
			<line class="st9" x1="32.7" y1="21.5" x2="36.7" y2="24.1"/>
			<line class="st9" x1="30.6" y1="25.1" x2="36.6" y2="29.1"/>
			<polyline class="st9" points="39.8,20.1 40,20.3 40,21.5 40,21.6 36.9,23.4 36.9,23.3 36.9,18.3 			"/>
			<polyline class="st9" points="33.9,20.8 32.7,21.5 32.7,24.9 32.7,25 36.6,27.6 			"/>
			<polyline class="st9" points="41.3,23.2 43.7,24.8 43.7,26.1 			"/>
			<line class="st9" x1="36.8" y1="18.4" x2="39.7" y2="16.6"/>
			<line class="st9" x1="34.2" y1="16.6" x2="35.3" y2="15.9"/>
			<line class="st9" x1="34.2" y1="16.6" x2="36.9" y2="18.4"/>
			<polyline class="st9" points="40,20.6 41.3,21.5 41.3,21.5 41.3,24.9 41.2,24.9 36.6,27.6 			"/>
			<line class="st9" x1="35.3" y1="14.8" x2="36.9" y2="15.8"/>
			<line class="st9" x1="37.7" y1="14.3" x2="38.5" y2="14.8"/>
			<g>
				<defs>
					<rect id="SVGID_11_" x="24.1" y="8.8" width="67.6" height="81.6"/>
				</defs>
				<clipPath id="SVGID_12_">
					<use xlink:href="#SVGID_11_"  style="overflow:visible;"/>
				</clipPath>
				<g class="st12">
					<path class="st9" d="M35.5,12.9c-0.1,0.1-0.1,0.2-0.2,0.2l0.1,0.2c0.1,0.1,0.5,0.2,1,0.1s1.8-0.8,1.9-1.5l-0.2-0.4
						c-0.1,0-0.3,0-0.4,0"/>
				</g>
			</g>
			<polyline class="st9" points="36,10.5 36.8,10.9 37.1,10.8 37.7,10 			"/>
			<g>
				<defs>
					<rect id="SVGID_13_" x="24.1" y="8.8" width="67.6" height="81.6"/>
				</defs>
				<clipPath id="SVGID_14_">
					<use xlink:href="#SVGID_13_"  style="overflow:visible;"/>
				</clipPath>
				<g class="st13">
					<path class="st9" d="M38.2,12.4c0,0.2,0,0.4,0,0.6c-0.2,0.8-0.9,1.2-1.6,1.1c-0.3-0.1-0.5-0.2-0.7-0.4h-0.1"/>
					<path class="st9" d="M35.6,13.2c0-0.1-0.1-0.2-0.1-0.3c-0.1-0.8,0.4-1.5,1.2-1.6c0,0,0,0,0,0c0.5-0.1,0.9,0.1,1.2,0.4
						c0.1,0.1,0.2,0.2,0.2,0.3"/>
					<path class="st9" d="M37.9,14.5c0,0,0-0.1,0-0.1c0,0,0-0.1-0.1-0.1c-0.1,0-0.2,0-0.2,0.1v-0.1l0.1-0.3"/>
					<path class="st9" d="M37.2,14.4c0,0.1,0,0.1,0,0.2s0.2,0.1,0.3,0"/>
				</g>
			</g>
			<polyline class="st9" points="36.5,15 36.5,14.9 36.6,14.6 36.6,14.4 36.3,14.4 36,14.2 36.1,13.9 			"/>
			<line class="st9" x1="34.2" y1="20.2" x2="36.9" y2="22"/>
			<polyline class="st9" points="36.9,23.4 33.9,21.5 33.8,21.4 33.8,20.4 33.8,20.4 34.2,20.2 34.2,20.2 34.2,16.6 			"/>
			<polyline class="st9" points="36.2,14.2 35.3,14.8 35.3,14.8 35.3,16.4 36.9,17.4 36.9,17.4 38.5,16.5 38.5,14.9 38.5,14.9 
				36.9,15.8 			"/>
			<line class="st9" x1="63.2" y1="43.7" x2="73" y2="49.9"/>
			<polyline class="st9" points="85.6,51.8 83.4,53.1 81.3,51.7 			"/>
			<line class="st9" x1="83.4" y1="56.2" x2="83.4" y2="53.1"/>
			<polyline class="st9" points="81.3,52.4 76.8,55 37.8,30.1 			"/>
			<line class="st6" x1="90.4" y1="52.8" x2="43.7" y2="25.7"/>
			<line class="st6" x1="74.4" y1="44" x2="46.7" y2="28"/>
			<line class="st9" x1="76.8" y1="56.2" x2="76.8" y2="55"/>
			<line class="st9" x1="73" y1="51.3" x2="73" y2="49.9"/>
			<polygon class="st9" points="78.8,46.5 78.8,47.8 73,51.3 63.2,45 63.2,43.7 67.5,41.2 73.3,44.6 74.5,43.9 			"/>
			<line class="st9" x1="78.8" y1="46.5" x2="73" y2="49.9"/>
			<line class="st9" x1="46.7" y1="27.9" x2="42.5" y2="30.4"/>
			<polygon class="st9" points="38.9,29.5 38.9,28.1 38.9,28.1 42.9,25.7 46.7,27.9 46.7,29.1 46.7,29.1 42.5,31.7 			"/>
			<polyline class="st9" points="80.6,53.9 76.8,56.2 37.8,31.3 37.8,31.3 37.8,30.1 38.9,29.5 			"/>
			<line class="st9" x1="42.5" y1="30.3" x2="38.9" y2="28.1"/>
			<line class="st9" x1="42.5" y1="31.6" x2="42.5" y2="30.3"/>
			<polyline class="st9" points="84.8,51.3 85.1,51.1 85.1,50.2 78.8,46.6 			"/>
			<line class="st9" x1="85.1" y1="50.2" x2="84.6" y2="50.5"/>
			<line class="st9" x1="43.7" y1="24.9" x2="36.6" y2="29.1"/>
			<polyline class="st9" points="82.5,51 81.3,51.7 81.3,54.9 83.4,56.2 85.6,55 85.6,51.8 84.7,51.2 			"/>
			<g>
				<defs>
					<rect id="SVGID_15_" x="24.1" y="8.8" width="67.6" height="81.6"/>
				</defs>
				<clipPath id="SVGID_16_">
					<use xlink:href="#SVGID_15_"  style="overflow:visible;"/>
				</clipPath>
				<g class="st14">
					<path class="st9" d="M83.4,49.8c-0.6,0.1-1,0.6-1,1.2v0.8c0,0.3,0.5,0.6,1.1,0.6s1.1-0.3,1.1-0.6V51c0-0.6-0.4-1.1-1-1.2v-0.1
						c0,0-0.1-0.1-0.2-0.1s-0.2,0.1-0.2,0.1L83.4,49.8z"/>
				</g>
			</g>
			<polygon class="st2" points="71,65.3 67.6,63.1 67.6,60.9 71,63.2 			"/>
			<polygon class="st2" points="71,63.1 67.6,60.9 67.6,58.8 71,61 			"/>
			<polygon class="st2" points="71,60.8 67.6,58.7 67.6,56.5 71,58.7 			"/>
			<polygon class="st2" points="71,58.6 67.6,56.5 67.6,54.3 71,56.5 			"/>
			<line class="st15" x1="67.6" y1="56.5" x2="71" y2="58.7"/>
			<line class="st15" x1="67.6" y1="58.7" x2="71" y2="60.9"/>
			<line class="st15" x1="67.6" y1="60.9" x2="71" y2="63.1"/>
			<polygon class="st2" points="71,69.7 67.6,67.5 67.6,65.3 71,67.6 			"/>
			<polygon class="st2" points="71,67.5 67.6,65.3 67.6,63.1 71,65.4 			"/>
			<line class="st15" x1="67.6" y1="63.1" x2="71" y2="65.3"/>
			<line class="st15" x1="67.6" y1="65.3" x2="71" y2="67.5"/>
		</g>
	</g>
</g>
</svg>
