<svg id="Layer_1" data-name="Layer 1" xmlns="http://www.w3.org/2000/svg" xmlns:xlink="http://www.w3.org/1999/xlink" viewBox="0 0 189.94 92.56"><defs><style>.cls-1,.cls-12,.cls-16,.cls-3,.cls-4{fill:none;}.cls-2{fill:#d2d3d4;}.cls-3,.cls-4{stroke:#231f20;}.cls-12,.cls-16,.cls-3,.cls-4{stroke-miterlimit:10;}.cls-12,.cls-3{stroke-width:0.15px;}.cls-4{stroke-width:0.14px;}.cls-5{clip-path:url(#clip-path);}.cls-6{font-size:5.19px;fill:#d1d3d4;font-family:Calibre-Semibold, Calibre;font-weight:700;}.cls-7{letter-spacing:0.22em;}.cls-8{letter-spacing:0.18em;}.cls-9{letter-spacing:0.24em;}.cls-10{letter-spacing:0.24em;}.cls-11{fill:#231f20;}.cls-12{stroke:#fff;}.cls-13{clip-path:url(#clip-path-5);}.cls-14{fill:#010101;}.cls-15{opacity:0.5;}.cls-16{stroke:#d0d2d3;stroke-width:1.09px;}</style><clipPath id="clip-path"><rect class="cls-1" x="0.63" y="1.38" width="68.19" height="86.1"/></clipPath><clipPath id="clip-path-5"><rect class="cls-1" x="92.27" y="50.57" width="77.8" height="17.56"/></clipPath></defs><title>Artboard 2residence_I_key

residence_I_key_horizontal</title><path class="cls-2" d="M83.55,43.8c-.62,0-1-.43-1-1.14v-1.4H86v1.29c0,.71-.32,1.14-.92,1.14a.75.75,0,0,1-.72-.44A.82.82,0,0,1,83.55,43.8Zm-.36-1.86v.66c0,.33.16.51.42.51s.42-.18.42-.51v-.66Zm1.39.57c0,.33.13.51.4.51s.39-.18.39-.51v-.57h-.79Z"/><path class="cls-2" d="M83.85,46.21H82.59v-.7H86V46.9a1,1,0,0,1-1.08,1.18,1,1,0,0,1-1-.77l-1.31.89v-.79l1.26-.83Zm.58,0v.64c0,.36.18.54.46.54s.48-.18.48-.54v-.64Z"/><path class="cls-2" d="M82.54,51.24a1.75,1.75,0,1,1,1.74,1.6A1.6,1.6,0,0,1,82.54,51.24Zm2.85,0c0-.53-.45-.88-1.11-.88s-1.12.35-1.12.88.46.89,1.12.89S85.39,51.78,85.39,51.24Z"/><path class="cls-2" d="M86,56.13l-3.38,1.29v-.71l.81-.3V55.14l-.81-.29v-.71L86,55.43Zm-2-.77v.83l1.12-.41Z"/><path class="cls-2" d="M86,59v1.2a1.69,1.69,0,0,1-3.38,0V59Zm-2.76,1.17a1.07,1.07,0,0,0,2.14,0v-.47H83.21Z"/><path class="cls-2" d="M86,65.68l-2.27.59,2.27.55v.69l-3.38-.87V66l2.23-.59-2.23-.6v-.64L86,63.28V64l-2.27.55,2.27.59Z"/><path class="cls-2" d="M86,70.66,82.59,72v-.71l.81-.3V69.67l-.81-.29v-.71L86,70Zm-2-.77v.83l1.12-.41Z"/><path class="cls-2" d="M86,75.32v.74l-2.1-1.22H82.59v-.7h1.28L86,72.93v.76l-1.43.82Z"/><path class="cls-2" d="M180.94,35.06v.7h-2.75v1.57h-.62V35.06Z"/><path class="cls-2" d="M180.94,40.81l-3.37,1.29v-.71l.81-.31V39.82l-.81-.3v-.7l3.37,1.29ZM179,40v.82l1.12-.41Z"/><path class="cls-2" d="M177.57,43.72h3.37V46h-.61V44.41h-.86v1.44h-.61V44.41h-1.29v-.69Z"/><path class="cls-2" d="M180.94,49.21l-3.37,1.29v-.71l.81-.3V48.22l-.81-.29v-.71l3.37,1.3Zm-2-.77v.83l1.12-.41Z"/><path class="cls-2" d="M180.94,53.87v.74l-2.09-1.23h-1.28v-.7h1.28l2.09-1.21v.76l-1.43.82Z"/><path class="cls-2" d="M180.94,58.5h-.61V56.9h-.74v1.45H179V56.9h-.8v1.6h-.62V56.21h3.37Z"/><path class="cls-2" d="M180.94,60.07V63h-.61V61.86h-2.76v-.7h2.76V60.07Z"/><path class="cls-2" d="M180.94,64.44v2.88h-.61V66.23h-2.76v-.71h2.76V64.44Z"/><path class="cls-2" d="M180.94,71.28h-.61v-1.6h-.74v1.46H179V69.68h-.8v1.6h-.62V69h3.37Z"/><path class="cls-2" d="M178.53,75.91a.64.64,0,0,0-.44.67c0,.34.16.57.43.57s.31-.12.38-.41l.13-.61a.93.93,0,0,1,.93-.85,1.08,1.08,0,0,1,1,1.21,1.21,1.21,0,0,1-1,1.32v-.69a.61.61,0,0,0,.4-.63c0-.31-.16-.53-.4-.53s-.31.13-.37.38l-.14.62c-.13.55-.44.88-.95.88a1.11,1.11,0,0,1-1.05-1.25,1.27,1.27,0,0,1,1-1.4v.72Z"/><path class="cls-2" d="M180.94,79.3v2.88h-.61V81.09h-2.76v-.71h2.76V79.3Z"/><path class="cls-2" d="M112.39,39.3h.7v2.76h1.57v.62h-2.27Z"/><path class="cls-2" d="M118.57,39.3v.62H117v.73h1.45v.6H117v.81h1.6v.62h-2.29V39.3Z"/><path class="cls-2" d="M121.64,42.73a1.75,1.75,0,1,1,1.6-1.74A1.61,1.61,0,0,1,121.64,42.73Zm0-2.85c-.53,0-.87.45-.87,1.11s.34,1.12.87,1.12.89-.46.89-1.12S122.18,39.88,121.64,39.88Z"/><path class="cls-2" d="M127.66,42.68h-.56l-1.59-2.25v2.25h-.67V39.3h.66L127,41.44V39.3h.68Z"/><path class="cls-2" d="M131.16,39.3l1.29,3.38h-.71l-.31-.82h-1.26l-.3.82h-.7l1.29-3.38Zm-.77,2h.82l-.41-1.12Z"/><path class="cls-2" d="M134.65,41.42v1.26H134V39.3h1.39a1.05,1.05,0,0,1,1.19,1.08,1,1,0,0,1-.77,1l.89,1.31h-.79L135,41.42Zm0-.58h.65c.35,0,.53-.19.53-.47s-.18-.47-.53-.47h-.65Z"/><path class="cls-2" d="M138.15,39.3h1.19a1.69,1.69,0,0,1,0,3.38h-1.19Zm1.17,2.76a1.07,1.07,0,0,0,0-2.14h-.47v2.14Z"/><path class="cls-2" d="M145.36,41.72a.63.63,0,0,0,.67.43c.34,0,.56-.15.56-.42s-.12-.32-.41-.38l-.61-.14c-.48-.11-.85-.37-.85-.92a1.09,1.09,0,0,1,1.21-1,1.22,1.22,0,0,1,1.33,1h-.7a.59.59,0,0,0-.62-.4c-.32,0-.54.15-.54.39s.13.31.38.37l.62.14c.55.13.88.44.88,1,0,.66-.54,1-1.25,1a1.28,1.28,0,0,1-1.4-1Z"/><path class="cls-2" d="M148.64,39.3h2.88v.62h-1.09v2.76h-.71V39.92h-1.08Z"/><path class="cls-2" d="M109.91,74.55a1.34,1.34,0,0,1,1.42,1.14h-.7a.72.72,0,0,0-.72-.52c-.54,0-.85.48-.85,1.12s.31,1.11.85,1.11a.72.72,0,0,0,.72-.52h.7A1.35,1.35,0,0,1,109.91,78a1.75,1.75,0,0,1,0-3.48Z"/><path class="cls-2" d="M114.65,74.6,115.94,78h-.71l-.31-.82h-1.26l-.3.82h-.7L114,74.6Zm-.77,2h.82l-.41-1.12Z"/><path class="cls-2" d="M117,74.6h2.88v.62h-1.09V78h-.71V75.22H117Z"/><path class="cls-2" d="M124.51,74.6V78h-.7V76.56h-1.53V78h-.7V74.6h.7v1.34h1.53V74.6Z"/><path class="cls-2" d="M128.66,74.6v.62h-1.6V76h1.45v.6h-1.45v.8h1.6V78h-2.29V74.6Z"/><path class="cls-2" d="M131.12,76.72V78h-.7V74.6h1.39A1,1,0,0,1,133,75.67a1,1,0,0,1-.77,1l.89,1.31h-.79l-.84-1.26Zm0-.58h.64c.36,0,.54-.19.54-.47s-.18-.47-.54-.47h-.64Z"/><path class="cls-2" d="M135.43,78h-.7V74.6h.7Z"/><path class="cls-2" d="M140.1,78h-.55L138,75.73V78h-.67V74.6h.66l1.49,2.13V74.6h.67Z"/><path class="cls-2" d="M144.25,74.6v.62h-1.6V76h1.45v.6h-1.45v.8h1.6V78H142V74.6Z"/><path class="cls-2" d="M148.39,74.6h.7v2.75h1.57V78h-2.27Z"/><path class="cls-2" d="M155.21,78h-.56l-1.59-2.25V78h-.68V74.6H153l1.49,2.13V74.6h.68V78Z"/><polyline class="cls-3" points="67.36 51.03 56.22 57.32 6 24.24"/><polyline class="cls-3" points="67.36 53.49 56.22 59.78 6 26.7"/><polyline class="cls-3" points="67.36 55.96 56.22 62.25 6 29.17"/><polyline class="cls-3" points="67.36 58.42 56.22 64.71 6 31.63"/><polyline class="cls-3" points="67.36 60.89 56.22 67.18 6 34.1"/><polyline class="cls-3" points="67.36 63.35 56.22 69.64 6 36.56"/><polyline class="cls-3" points="67.36 65.81 56.22 72.11 6 39.03"/><polyline class="cls-3" points="67.36 68.28 56.22 74.57 6 41.49"/><polyline class="cls-3" points="67.36 70.74 56.22 77.03 6 43.96"/><polyline class="cls-3" points="67.36 73.21 56.22 79.5 6 46.42"/><polyline class="cls-3" points="67.36 75.67 56.22 81.96 6 48.89"/><line class="cls-4" x1="15.52" y1="26.46" x2="15.52" y2="25.13"/><line class="cls-4" x1="20.41" y1="27.1" x2="20.41" y2="25.61"/><line class="cls-4" x1="16.4" y1="24.59" x2="16.4" y2="23.1"/><line class="cls-4" x1="25.11" y1="24.38" x2="25.11" y2="22.89"/><line class="cls-4" x1="57.57" y1="48.9" x2="57.57" y2="47.6"/><line class="cls-4" x1="39.51" y1="39.22" x2="39.51" y2="37.91"/><line class="cls-4" x1="13.86" y1="24.08" x2="13.86" y2="26.29"/><line class="cls-4" x1="21.85" y1="19.34" x2="21.85" y2="20.86"/><line class="cls-4" x1="57.57" y1="48.9" x2="58.27" y2="49.35"/><line class="cls-4" x1="19.11" y1="19.39" x2="19.11" y2="15.45"/><line class="cls-4" x1="11.19" y1="14.36" x2="11.19" y2="10.12"/><line class="cls-4" x1="14.24" y1="10.96" x2="14.24" y2="9.1"/><line class="cls-4" x1="14.22" y1="17.59" x2="14.22" y2="12"/><line class="cls-4" x1="17.37" y1="14.32" x2="17.37" y2="10.2"/><line class="cls-4" x1="14.24" y1="11.06" x2="14.24" y2="9.19"/><line class="cls-4" x1="17.66" y1="15.61" x2="17.66" y2="14.29"/><line class="cls-4" x1="10.83" y1="15.79" x2="10.83" y2="14.47"/><line class="cls-4" x1="13.95" y1="22.4" x2="13.95" y2="18.48"/><line class="cls-4" x1="9.51" y1="19.43" x2="9.51" y2="15.61"/><polyline class="cls-4" points="15.69 25.21 13.86 26.29 7.19 21.9 7.19 19.7 9.5 18.35"/><line class="cls-4" x1="15.5" y1="25.17" x2="16.42" y2="24.63"/><line class="cls-4" x1="13.89" y1="22.38" x2="9.51" y2="19.49"/><line class="cls-4" x1="14.23" y1="16.15" x2="17.59" y2="14.17"/><line class="cls-4" x1="13.96" y1="17.86" x2="17.59" y2="15.73"/><g class="cls-5"><path class="cls-4" d="M13.57,13.09c.26.75.06,1.35-.45,1.35s-1.14-.6-1.4-1.34-.05-1.35.46-1.35S13.31,12.35,13.57,13.09Z"/><path class="cls-4" d="M14.9,13.12c-.26.74-.05,1.35.46,1.35s1.13-.6,1.39-1.35.06-1.34-.45-1.35S15.16,12.37,14.9,13.12Z"/></g><line class="cls-4" x1="13.95" y1="18.52" x2="19.15" y2="15.46"/><line class="cls-4" x1="13.86" y1="22.43" x2="19.04" y2="19.39"/><line class="cls-4" x1="10.66" y1="14.47" x2="11.16" y2="14.17"/><line class="cls-4" x1="9.5" y1="15.59" x2="13.89" y2="18.48"/><line class="cls-4" x1="7.19" y1="19.69" x2="13.86" y2="24.08"/><line class="cls-4" x1="17.43" y1="14.12" x2="17.66" y2="14.29"/><line class="cls-4" x1="10.83" y1="14.82" x2="9.51" y2="15.61"/><line class="cls-4" x1="7.19" y1="21.02" x2="6" y2="21.73"/><line class="cls-4" x1="19.17" y1="17.58" x2="21.85" y2="19.34"/><line class="cls-4" x1="14.13" y1="12.16" x2="17.38" y2="10.21"/><line class="cls-4" x1="11.19" y1="10.17" x2="12.47" y2="9.41"/><line class="cls-4" x1="14.13" y1="11.13" x2="16.09" y2="9.98"/><line class="cls-4" x1="14.25" y1="9.24" x2="16.05" y2="8.18"/><line class="cls-4" x1="11.19" y1="10.12" x2="14.22" y2="12.2"/><line class="cls-4" x1="15.98" y1="9.2" x2="17.38" y2="10.13"/><line class="cls-4" x1="17.66" y1="14.63" x2="19.15" y2="15.61"/><line class="cls-4" x1="12.45" y1="9.92" x2="14.29" y2="11.13"/><line class="cls-4" x1="12.6" y1="8.19" x2="14.24" y2="9.27"/><line class="cls-4" x1="15.12" y1="7.58" x2="16.07" y2="8.2"/><g class="cls-5"><path class="cls-4" d="M12.61,6.08a1.81,1.81,0,0,0-.18.27l.1.28c.11.15.5.28,1.16.09s2-.91,2.15-1.64l-.22-.42a1,1,0,0,0-.43,0"/></g><polyline class="cls-4" points="13.22 3.39 14.15 3.84 14.44 3.72 15.08 2.81"/><g class="cls-5"><path class="cls-4" d="M15.67,5.45a1.43,1.43,0,0,1,0,.65,1.55,1.55,0,0,1-1.83,1.21A1.51,1.51,0,0,1,13,6.86L13,6.81"/><path class="cls-4" d="M12.73,6.41A1.27,1.27,0,0,1,12.62,6a1.55,1.55,0,0,1,1.3-1.77,1.51,1.51,0,0,1,1.36.46,1.67,1.67,0,0,1,.25.37"/><path class="cls-4" d="M15.31,7.78a1.16,1.16,0,0,0,0-.17s0-.06-.09-.07a.87.87,0,0,0-.27,0V7.46L15,7.11"/><path class="cls-4" d="M14.57,7.76c0,.07,0,.14.06.18s.17.11.3,0"/></g><polyline class="cls-4" points="13.74 8.36 13.74 8.22 13.94 7.88 13.91 7.76 13.54 7.7 13.2 7.5 13.34 7.11"/><line class="cls-4" x1="11.21" y1="14.17" x2="14.23" y2="16.17"/><line class="cls-4" x1="10.86" y1="15.59" x2="14.03" y2="17.68"/><line class="cls-4" x1="13.39" y1="7.51" x2="12.45" y2="8.13"/><line class="cls-4" x1="15.98" y1="10.03" x2="15.98" y2="8.27"/><line class="cls-4" x1="12.45" y1="9.92" x2="12.45" y2="8.12"/><line class="cls-4" x1="39.51" y1="37.91" x2="49.82" y2="44.47"/><line class="cls-4" x1="51.53" y1="38.45" x2="55.81" y2="40.96"/><line class="cls-4" x1="16.4" y1="24.61" x2="20.41" y2="27.16"/><line class="cls-4" x1="16.4" y1="23.05" x2="20.41" y2="25.6"/><line class="cls-4" x1="21.11" y1="20.34" x2="25.11" y2="22.89"/><line class="cls-4" x1="25.11" y1="23.63" x2="51.13" y2="38.56"/><line class="cls-4" x1="41.22" y1="36.51" x2="48.22" y2="40.53"/><polyline class="cls-4" points="61.85 46.44 62.22 46.22 62.22 44.93 55.8 41.24"/><polyline class="cls-4" points="63.13 48.16 60.67 49.61 58.29 48.11"/><line class="cls-4" x1="60.67" y1="51.84" x2="60.67" y2="49.61"/><polyline class="cls-4" points="57.57 48.9 54.04 50.97 15.51 26.46"/><polyline class="cls-4" points="59.71 46.35 54.04 49.67 15.47 25.13"/><line class="cls-4" x1="54.04" y1="50.97" x2="54.04" y2="49.67"/><line class="cls-4" x1="55.79" y1="40.96" x2="49.82" y2="44.46"/><polyline class="cls-4" points="55.81 40.96 55.81 42.22 49.84 45.72 39.51 39.14"/><line class="cls-4" x1="49.82" y1="45.7" x2="49.82" y2="44.47"/><line class="cls-4" x1="51.53" y1="38.45" x2="47.88" y2="40.59"/><line class="cls-4" x1="41.69" y1="36.65" x2="39.51" y2="37.93"/><line class="cls-4" x1="25.11" y1="24.35" x2="20.41" y2="27.1"/><line class="cls-4" x1="25.11" y1="22.89" x2="20.41" y2="25.64"/><line class="cls-4" x1="21.1" y1="20.34" x2="16.39" y2="23.09"/><line class="cls-4" x1="21.85" y1="19.41" x2="13.96" y2="24.03"/><line class="cls-4" x1="62.16" y1="44.91" x2="60.92" y2="45.64"/><text class="cls-6" transform="matrix(0.82, 0.57, -0.86, 0.5, 3.95, 58.2)"><tspan class="cls-7">C</tspan><tspan class="cls-8" x="4.25" y="0">A</tspan><tspan class="cls-9" x="8.42" y="0">THER</tspan><tspan class="cls-10" x="25.37" y="0">I</tspan><tspan class="cls-9" x="27.88" y="0">NE L</tspan><tspan x="42.54" y="0">N</tspan></text><polyline class="cls-4" points="67.36 48.56 56.22 54.85 6 21.77"/><polyline class="cls-4" points="59.61 47.32 58.27 48.1 58.27 50.31 60.67 51.83 63.13 50.39 63.13 48.16 62.13 47.53"/><line class="cls-4" x1="56.24" y1="54.86" x2="56.24" y2="84.33"/><line class="cls-4" x1="62.16" y1="80.21" x2="61.35" y2="80.69"/><polyline class="cls-4" points="62.16 80.21 62.67 80.54 67.36 77.78 67.36 48.55 62.22 45.6"/><g class="cls-5"><path class="cls-4" d="M62.16,80.21v-.7a.43.43,0,0,0-.14-.32"/><path class="cls-4" d="M62.68,80.54v-1c0-.25-.22-.58-.72-.3a1.23,1.23,0,0,0-.61,1v1.14l-5.11,3L48.55,79l-9.74-6.65-8.16-5.6L14.1,54.86,6,49V21.78"/><path class="cls-4" d="M60.66,46a1.32,1.32,0,0,0-1.06,1.31v.93c0,.36.57.65,1.27.65s1.28-.29,1.28-.65v-.93A1.32,1.32,0,0,0,61.09,46v-.14c0-.06-.09-.14-.22-.14s-.21.08-.21.14Z"/></g><polygon class="cls-11" points="43.53 68.61 40.33 66.5 40.33 64.17 43.53 66.28 43.53 68.61"/><polygon class="cls-11" points="43.53 66.15 40.33 64.04 40.33 61.71 43.53 63.81 43.53 66.15"/><polygon class="cls-11" points="43.53 63.67 40.33 61.56 40.33 59.23 43.53 61.34 43.53 63.67"/><polygon class="cls-11" points="43.53 61.2 40.33 59.09 40.33 56.77 43.53 58.88 43.53 61.2"/><polygon class="cls-11" points="43.53 58.74 40.33 56.64 40.33 54.31 43.53 56.42 43.53 58.74"/><polygon class="cls-11" points="43.53 56.3 40.33 54.19 40.33 51.86 43.53 53.95 43.53 56.3"/><polygon class="cls-11" points="43.53 53.83 40.33 51.73 40.33 49.4 43.53 51.51 43.53 53.83"/><polygon class="cls-11" points="43.53 51.37 40.33 49.26 40.33 46.94 43.53 49.05 43.53 51.37"/><line class="cls-12" x1="40.33" y1="49.31" x2="43.53" y2="51.42"/><line class="cls-12" x1="40.33" y1="51.77" x2="43.53" y2="53.88"/><line class="cls-12" x1="40.33" y1="54.24" x2="43.53" y2="56.34"/><line class="cls-12" x1="40.33" y1="56.7" x2="43.53" y2="58.81"/><line class="cls-12" x1="40.33" y1="59.15" x2="43.53" y2="61.26"/><line class="cls-12" x1="40.33" y1="61.62" x2="43.53" y2="63.73"/><line class="cls-12" x1="40.33" y1="64.09" x2="43.53" y2="66.2"/><g class="cls-13"><polygon class="cls-14" points="142.17 58.9 142.77 58.9 142.77 59.05 143.82 59.05 143.82 59.25 145.15 59.25 145.15 58.84 146.45 58.84 146.45 58.96 148.03 58.96 148.03 59.68 148.15 59.68 148.15 61.13 147.79 61.13 147.79 65.72 142.17 65.39 142.17 58.9"/><g class="cls-13"><polygon class="cls-16" points="168.21 51.74 168.21 66.97 93.21 62.3 93.24 51.74 168.21 51.74"/></g></g></svg>