<?xml version="1.0" encoding="utf-8"?>
<!-- Generator: Adobe Illustrator 23.0.0, SVG Export Plug-In . SVG Version: 6.00 Build 0)  -->
<svg version="1.1" id="Layer_1" xmlns="http://www.w3.org/2000/svg" xmlns:xlink="http://www.w3.org/1999/xlink" x="0px" y="0px"
	 viewBox="0 0 189.9 92.6" style="enable-background:new 0 0 189.9 92.6;" xml:space="preserve">
<style type="text/css">
	.st0{fill:#D2D3D4;}
	.st1{fill:#231F20;}
	.st2{clip-path:url(#SVGID_2_);}
	.st3{fill:none;stroke:#D1D3D4;stroke-width:1.09;stroke-miterlimit:10;}
	.st4{clip-path:url(#SVGID_4_);}
	.st5{enable-background:new    ;}
	.st6{fill:#D1D3D4;}
	.st7{fill:none;stroke:#231F20;stroke-width:0.15;stroke-miterlimit:10;}
	.st8{fill:none;stroke:#231F20;stroke-width:0.14;stroke-miterlimit:10;}
	.st9{clip-path:url(#SVGID_6_);}
	.st10{clip-path:url(#SVGID_8_);}
	.st11{fill:none;stroke:#231F20;stroke-width:0.14;stroke-linejoin:bevel;}
	.st12{clip-path:url(#SVGID_10_);}
	.st13{clip-path:url(#SVGID_12_);}
	.st14{clip-path:url(#SVGID_14_);}
	.st15{clip-path:url(#SVGID_16_);}
	.st16{clip-path:url(#SVGID_18_);}
	.st17{fill:none;stroke:#FFFFFF;stroke-width:0.15;stroke-miterlimit:10;}
</style>
<title>residence_A_4-12_key_horizontal</title>
<g>
	<g>
		<path class="st0" d="M83.6,43.8c-0.6,0-1-0.4-1-1.1v-1.4H86v1.3c0,0.7-0.3,1.1-0.9,1.1c-0.3,0-0.6-0.2-0.7-0.4
			C84.2,43.6,83.9,43.8,83.6,43.8z M83.2,41.9v0.7c0,0.3,0.2,0.5,0.4,0.5s0.4-0.2,0.4-0.5v-0.7H83.2z M84.6,42.5
			c0,0.3,0.1,0.5,0.4,0.5s0.4-0.2,0.4-0.5v-0.6h-0.8V42.5z"/>
		<path class="st0" d="M83.8,46.2h-1.3v-0.7H86v1.4c0.1,0.5-0.3,1.1-0.8,1.2c-0.1,0-0.2,0-0.3,0c-0.5,0-0.9-0.3-1-0.8l-1.3,0.9v-0.8
			l1.3-0.8L83.8,46.2z M84.4,46.2v0.6c0,0.4,0.2,0.5,0.5,0.5s0.5-0.2,0.5-0.5v-0.6H84.4z"/>
		<path class="st0" d="M82.5,51.2c-0.1-1,0.6-1.8,1.6-1.9c1-0.1,1.8,0.6,1.9,1.6s-0.6,1.8-1.6,1.9c-0.1,0-0.1,0-0.2,0
			c-0.9,0.1-1.7-0.6-1.7-1.5C82.5,51.3,82.5,51.3,82.5,51.2z M85.4,51.2c0-0.5-0.4-0.9-1.1-0.9s-1.1,0.3-1.1,0.9s0.5,0.9,1.1,0.9
			S85.4,51.8,85.4,51.2z"/>
		<path class="st0" d="M86,56.1l-3.4,1.3v-0.7l0.8-0.3v-1.3l-0.8-0.3v-0.7l3.4,1.3V56.1z M84,55.4v0.8l1.1-0.4L84,55.4z"/>
		<path class="st0" d="M86,59v1.2c0,0.9-0.8,1.7-1.7,1.7c-0.9,0-1.7-0.8-1.7-1.7V59H86z M83.2,60.2c0,0.6,0.5,1.1,1.1,1.1
			c0.6,0,1.1-0.5,1.1-1.1v-0.5h-2.2L83.2,60.2z"/>
		<path class="st0" d="M86,65.7l-2.3,0.6l2.3,0.6v0.7l-3.4-0.9V66l2.2-0.6l-2.2-0.6v-0.6l3.4-0.9V64l-2.3,0.6l2.3,0.6V65.7z"/>
		<path class="st0" d="M86,70.7L82.6,72v-0.7l0.8-0.3v-1.3l-0.8-0.3v-0.7L86,70V70.7z M84,69.9v0.8l1.1-0.4L84,69.9z"/>
		<path class="st0" d="M86,75.3v0.7l-2.1-1.2h-1.3v-0.7h1.3l2.1-1.2v0.8l-1.4,0.8L86,75.3z"/>
		<path class="st0" d="M180.9,35.1v0.7h-2.8v1.6h-0.6v-2.3H180.9z"/>
		<path class="st0" d="M180.9,40.8l-3.4,1.3v-0.7l0.8-0.3v-1.3l-0.8-0.3v-0.7l3.4,1.3V40.8z M179,40v0.8l1.1-0.4L179,40z"/>
		<path class="st0" d="M177.6,43.7h3.4V46h-0.6v-1.6h-0.9v1.4h-0.6v-1.4h-1.3V43.7z"/>
		<path class="st0" d="M180.9,49.2l-3.4,1.3v-0.7l0.8-0.3v-1.3l-0.8-0.3v-0.7l3.4,1.3V49.2z M178.9,48.4v0.8l1.1-0.4L178.9,48.4z"/>
		<path class="st0" d="M180.9,53.9v0.7l-2.1-1.2h-1.3v-0.7h1.3l2.1-1.2v0.8l-1.4,0.8L180.9,53.9z"/>
		<path class="st0" d="M180.9,58.5h-0.6v-1.6h-0.7v1.5H179v-1.5h-0.8v1.6h-0.6v-2.3h3.4L180.9,58.5z"/>
		<path class="st0" d="M180.9,60.1V63h-0.6v-1.1h-2.8v-0.7h2.8v-1.1H180.9z"/>
		<path class="st0" d="M180.9,64.4v2.9h-0.6v-1.1h-2.8v-0.7h2.8v-1.1H180.9z"/>
		<path class="st0" d="M180.9,71.3h-0.6v-1.6h-0.7v1.5H179v-1.5h-0.8v1.6h-0.6V69h3.4L180.9,71.3z"/>
		<path class="st0" d="M178.5,75.9c-0.3,0.1-0.5,0.4-0.4,0.7c0,0.3,0.2,0.6,0.4,0.6s0.3-0.1,0.4-0.4l0.1-0.6c0-0.5,0.4-0.9,0.9-0.8
			c0.6,0,1,0.6,1,1.1c0,0,0,0,0,0.1c0.1,0.6-0.4,1.2-1,1.3v-0.7c0.3-0.1,0.4-0.4,0.4-0.6c0-0.3-0.2-0.5-0.4-0.5s-0.3,0.1-0.4,0.4
			l-0.1,0.6c-0.1,0.6-0.4,0.9-0.9,0.9c-0.6,0-1.1-0.5-1.1-1.2c0,0,0-0.1,0-0.1c-0.1-0.7,0.4-1.3,1-1.4L178.5,75.9L178.5,75.9z"/>
		<path class="st0" d="M180.9,79.3v2.9h-0.6v-1.1h-2.8v-0.7h2.8v-1.1H180.9z"/>
		<path class="st0" d="M112.4,39.3h0.7v2.8h1.6v0.6h-2.3V39.3z"/>
		<path class="st0" d="M118.6,39.3v0.6H117v0.7h1.4v0.6H117v0.8h1.6v0.6h-2.3v-3.4H118.6z"/>
		<path class="st0" d="M121.6,42.7c-1,0.1-1.8-0.6-1.9-1.6c-0.1-1,0.6-1.8,1.6-1.9c1-0.1,1.8,0.6,1.9,1.6c0,0.1,0,0.1,0,0.2
			c0.1,0.9-0.6,1.7-1.5,1.7C121.7,42.7,121.7,42.7,121.6,42.7z M121.6,39.9c-0.5,0-0.9,0.5-0.9,1.1s0.3,1.1,0.9,1.1s0.9-0.5,0.9-1.1
			S122.2,39.9,121.6,39.9z"/>
		<path class="st0" d="M127.7,42.7h-0.6l-1.6-2.2v2.2h-0.7v-3.4h0.7l1.5,2.1v-2.1h0.7L127.7,42.7z"/>
		<path class="st0" d="M131.2,39.3l1.3,3.4h-0.7l-0.3-0.8h-1.3l-0.3,0.8h-0.7l1.3-3.4H131.2z M130.4,41.3h0.8l-0.4-1.1L130.4,41.3z"
			/>
		<path class="st0" d="M134.6,41.4v1.3H134v-3.4h1.4c0.6-0.1,1.1,0.3,1.2,0.9c0,0.1,0,0.1,0,0.2c0,0.5-0.3,0.9-0.8,1l0.9,1.3h-0.8
			l-0.9-1.3H134.6z M134.6,40.8h0.6c0.4,0,0.5-0.2,0.5-0.5s-0.2-0.5-0.5-0.5h-0.6V40.8z"/>
		<path class="st0" d="M138.1,39.3h1.2c0.9,0,1.7,0.8,1.7,1.7c0,0.9-0.8,1.7-1.7,1.7h-1.2V39.3z M139.3,42.1c0.6,0,1.1-0.5,1.1-1.1
			c0-0.6-0.5-1.1-1.1-1.1h-0.5v2.1H139.3z"/>
		<path class="st0" d="M145.4,41.7c0.1,0.3,0.4,0.5,0.7,0.4c0.3,0,0.6-0.2,0.6-0.4s-0.1-0.3-0.4-0.4l-0.6-0.1
			c-0.5-0.1-0.9-0.4-0.9-0.9c0-0.6,0.6-1,1.2-1c0,0,0,0,0,0c0.6-0.1,1.2,0.4,1.3,1h-0.7c-0.1-0.3-0.3-0.4-0.6-0.4
			c-0.3,0-0.5,0.2-0.5,0.4s0.1,0.3,0.4,0.4l0.6,0.1c0.6,0.1,0.9,0.4,0.9,1c0,0.7-0.5,1-1.2,1c-0.7,0.1-1.3-0.4-1.4-1L145.4,41.7z"/>
		<path class="st0" d="M148.6,39.3h2.9v0.6h-1.1v2.8h-0.7v-2.8h-1.1V39.3z"/>
		<path class="st0" d="M109.9,74.6c0.7,0,1.3,0.4,1.4,1.1h-0.7c-0.1-0.3-0.4-0.5-0.7-0.5c-0.5,0-0.8,0.5-0.8,1.1s0.3,1.1,0.8,1.1
			c0.3,0,0.6-0.2,0.7-0.5h0.7c-0.1,0.7-0.7,1.2-1.4,1.1c-1-0.1-1.7-1-1.6-1.9C108.4,75.3,109.1,74.6,109.9,74.6L109.9,74.6z"/>
		<path class="st0" d="M114.7,74.6l1.3,3.4h-0.7l-0.3-0.8h-1.3l-0.3,0.8h-0.7l1.3-3.4H114.7z M113.9,76.6h0.8l-0.4-1.1L113.9,76.6z"
			/>
		<path class="st0" d="M117,74.6h2.9v0.6h-1.1V78h-0.7v-2.8H117V74.6z"/>
		<path class="st0" d="M124.5,74.6V78h-0.7v-1.4h-1.5V78h-0.7v-3.4h0.7v1.3h1.5v-1.3H124.5z"/>
		<path class="st0" d="M128.7,74.6v0.6h-1.6V76h1.5v0.6h-1.4v0.8h1.6V78h-2.3v-3.4H128.7z"/>
		<path class="st0" d="M131.1,76.7V78h-0.7v-3.4h1.4c0.5-0.1,1.1,0.2,1.2,0.8c0,0.1,0,0.2,0,0.3c0,0.5-0.3,0.9-0.8,1l0.9,1.3h-0.8
			l-0.8-1.3L131.1,76.7z M131.1,76.1h0.6c0.4,0,0.5-0.2,0.5-0.5s-0.2-0.5-0.5-0.5h-0.6V76.1z"/>
		<path class="st0" d="M135.4,78h-0.7v-3.4h0.7V78z"/>
		<path class="st0" d="M140.1,78h-0.6l-1.6-2.3V78h-0.7v-3.4h0.7l1.5,2.1v-2.1h0.7L140.1,78z"/>
		<path class="st0" d="M144.2,74.6v0.6h-1.6V76h1.4v0.6h-1.4v0.8h1.6V78H142v-3.4H144.2z"/>
		<path class="st0" d="M148.4,74.6h0.7v2.8h1.6V78h-2.3V74.6z"/>
		<path class="st0" d="M155.2,78h-0.6l-1.6-2.2V78h-0.7v-3.4h0.6l1.5,2.1v-2.1h0.7L155.2,78L155.2,78z"/>
	</g>
	<g id="Layer_3">
		<polygon class="st1" points="103.3,52.3 103.3,54.6 103.5,54.6 103.5,55.2 103.3,55.2 103.3,56.5 102.7,56.5 102.7,57.2 
			101.5,57.2 101.5,58 98.8,58 98.8,57.9 97.7,57.9 97.7,58.7 93.3,58.7 93.3,52.3 		"/>
		<g>
			<defs>
				<rect id="SVGID_1_" x="92.3" y="51.1" width="77" height="17.4"/>
			</defs>
			<clipPath id="SVGID_2_">
				<use xlink:href="#SVGID_1_"  style="overflow:visible;"/>
			</clipPath>
			<g class="st2">
				<polygon class="st3" points="167.4,52.3 167.4,67.3 93.3,62.7 93.3,52.3 				"/>
			</g>
		</g>
		<g>
			<defs>
				<rect id="SVGID_3_" x="3" y="2.6" width="71.4" height="78.6"/>
			</defs>
			<clipPath id="SVGID_4_">
				<use xlink:href="#SVGID_3_"  style="overflow:visible;"/>
			</clipPath>
			<g class="st4">
				<g class="st5">
					<path class="st6" d="M9.6,57.5l0.5,0.3L8,59.1l1.2,0.7l-0.5,0.3L7,59.1L9.6,57.5z"/>
					<path class="st6" d="M14.4,60.5L14,60.8L12.7,60l-0.6,0.4l1.1,0.7l-0.4,0.3l-1.1-0.7l-0.6,0.4l1.2,0.8l-0.5,0.3l-1.7-1.1
						l2.5-1.7L14.4,60.5z"/>
					<path class="st6" d="M14.3,63.7c-0.7-0.4-0.7-1.1,0.1-1.6c0.8-0.5,1.8-0.5,2.5-0.1c0.7,0.4,0.7,1.1-0.1,1.6
						C16.1,64.1,15.1,64.2,14.3,63.7z M16.5,62.3c-0.4-0.3-1-0.2-1.5,0.1c-0.5,0.3-0.6,0.7-0.2,1c0.4,0.3,1,0.2,1.5-0.1
						C16.8,63,16.9,62.6,16.5,62.3z"/>
					<path class="st6" d="M19.1,66.6l-0.4-0.3l0.5-1.9l-1.7,1.1L17,65.3l2.5-1.7L20,64l-0.5,1.8l1.6-1l0.5,0.3L19.1,66.6z"/>
					<path class="st6" d="M24.5,66.7L22.9,69l-0.5-0.3l0.4-0.5l-1-0.6L21,67.8l-0.5-0.3l3.5-1L24.5,66.7z M22.4,67.3l0.6,0.4
						l0.5-0.7L22.4,67.3z"/>
					<path class="st6" d="M25.7,69.5l-0.9,0.6l-0.5-0.3l2.5-1.7l1.1,0.7c0.5,0.3,0.6,0.7,0.1,1.1c-0.4,0.3-0.9,0.3-1.3,0.1l-0.3,1.1
						l-0.6-0.4l0.3-1L25.7,69.5z M26.1,69.3l0.5,0.3c0.3,0.2,0.5,0.2,0.8,0c0.2-0.1,0.2-0.3-0.1-0.5l-0.5-0.3L26.1,69.3z"/>
					<path class="st6" d="M30.1,70.3l0.9,0.6c0.8,0.5,0.8,1.1,0,1.6c-0.8,0.5-1.8,0.5-2.5,0l-0.9-0.6L30.1,70.3z M28.9,72.2
						c0.5,0.3,1.1,0.3,1.6-0.1c0.5-0.3,0.5-0.7,0-1l-0.4-0.2l-1.6,1.1L28.9,72.2z"/>
				</g>
				<g class="st5">
					<path class="st6" d="M34.1,75.1c-0.2,0.2-0.1,0.4,0.2,0.5c0.3,0.2,0.5,0.2,0.7,0.1c0.2-0.1,0.1-0.2,0-0.4l-0.4-0.4
						c-0.3-0.3-0.4-0.6,0-0.9c0.5-0.3,1.2-0.3,1.7,0.1c0.6,0.4,0.6,0.8,0.3,1.1l-0.5-0.3c0.1-0.1,0.1-0.3-0.2-0.5
						c-0.2-0.2-0.5-0.2-0.7-0.1c-0.1,0.1-0.1,0.2,0,0.4l0.4,0.4c0.3,0.3,0.3,0.6,0,0.9c-0.5,0.3-1.2,0.3-1.7-0.1
						c-0.6-0.4-0.7-0.8-0.3-1.2L34.1,75.1z"/>
				</g>
				<g class="st5">
					<path class="st6" d="M38.6,75.6l2.2,1.4l-0.5,0.3l-0.8-0.5l-2.1,1.4l-0.5-0.3l2.1-1.4l-0.8-0.5L38.6,75.6z"/>
				</g>
				<line class="st7" x1="60.4" y1="47" x2="60.4" y2="43.3"/>
				<line class="st7" x1="11.4" y1="17.6" x2="11.4" y2="14.5"/>
				<line class="st7" x1="21.5" y1="21.5" x2="21.5" y2="23.2"/>
				<line class="st7" x1="17" y1="19" x2="17" y2="20.6"/>
				<line class="st7" x1="22.8" y1="20.9" x2="22.8" y2="22.5"/>
				<line class="st8" x1="22.8" y1="22.5" x2="21.5" y2="23.2"/>
				<line class="st8" x1="22.7" y1="20.9" x2="21.6" y2="21.6"/>
				<line class="st8" x1="53.7" y1="35.5" x2="48.8" y2="38.4"/>
				<line class="st8" x1="57.5" y1="38.5" x2="53.3" y2="41"/>
				<line class="st7" x1="28.7" y1="24.3" x2="28.7" y2="26"/>
				<line class="st8" x1="32.8" y1="22.9" x2="52.8" y2="36"/>
				<line class="st8" x1="53.7" y1="35.5" x2="57.5" y2="38"/>
				<line class="st8" x1="32.8" y1="22.4" x2="53.2" y2="35.8"/>
				<line class="st8" x1="8.9" y1="16.6" x2="11" y2="17.8"/>
				<line class="st8" x1="17" y1="19" x2="21.5" y2="21.6"/>
				<line class="st8" x1="22.8" y1="20.9" x2="28.8" y2="24.4"/>
				<line class="st8" x1="22.8" y1="22.5" x2="28.7" y2="26"/>
				<line class="st8" x1="48.8" y1="38.4" x2="53.3" y2="41"/>
				<line class="st7" x1="60.4" y1="36.4" x2="60.4" y2="34.6"/>
				<polyline class="st7" points="52.9,44.4 52.2,44 51.3,44.5 12.6,22.1 12.6,20.2 				"/>
				<polyline class="st7" points="22.3,15.9 18.4,13.4 9.7,18.5 51.3,42.6 				"/>
				<line class="st7" x1="51.3" y1="42.6" x2="51.3" y2="44.5"/>
				<line class="st7" x1="52.2" y1="42" x2="51.3" y2="42.6"/>
				<polyline class="st7" points="52.2,44 52.2,42 48.8,40.1 				"/>
				<line class="st7" x1="60.5" y1="50.5" x2="60.5" y2="48.4"/>
				<polyline class="st7" points="65,42.6 67.6,44.2 67.6,46.3 60.5,50.5 52.9,46.1 52.9,44 55.9,42.2 				"/>
				<polyline class="st7" points="67.6,44.2 60.5,48.4 52.9,44 				"/>
				<polyline class="st8" points="10.5,19 10.5,20 12.6,21.2 				"/>
				<line class="st8" x1="17" y1="20.6" x2="21.5" y2="23.2"/>
				<line class="st8" x1="48.8" y1="40.1" x2="48.8" y2="38.4"/>
				<line class="st8" x1="53.3" y1="43.7" x2="53.3" y2="41"/>
				<polyline class="st8" points="63.4,35.5 60.4,37.2 57.5,35.5 				"/>
				<polyline class="st7" points="63.4,39.2 63.7,39.4 63.7,40.7 60.4,42.6 57.2,40.7 57.2,39.5 57.5,39.3 				"/>
				<line class="st7" x1="60.4" y1="42.6" x2="60.4" y2="37.2"/>
				<polyline class="st7" points="63.7,39.8 65,40.6 65,44.3 60.4,47 55.9,44.4 55.9,40.7 57.2,40 				"/>
				<polyline class="st7" points="65,40.6 60.4,43.3 56,40.7 				"/>
				<polyline class="st7" points="8.9,16.5 4.6,19.1 4.6,50 				"/>
				<polyline class="st7" points="13.8,13.7 16.9,11.9 22.7,15.7 				"/>
				<line class="st7" x1="60.4" y1="51.5" x2="60.4" y2="79.4"/>
				<line class="st7" x1="60.4" y1="79.4" x2="30.6" y2="62.1"/>
				<polyline class="st7" points="68.9,51.2 60.4,56.2 4.6,23.8 				"/>
				<polyline class="st7" points="68.9,53.5 60.4,58.5 4.6,26.1 				"/>
				<polyline class="st7" points="68.9,55.9 60.4,60.8 4.6,28.5 				"/>
				<polyline class="st7" points="68.9,58.2 60.4,63.1 4.6,30.8 				"/>
				<polyline class="st7" points="68.9,60.5 60.4,65.4 4.6,33.1 				"/>
				<polyline class="st7" points="68.9,62.8 60.4,67.8 4.6,35.4 				"/>
				<polyline class="st7" points="68.9,65.2 60.4,70.1 4.6,37.8 				"/>
				<polyline class="st7" points="68.9,67.5 60.4,72.4 4.6,40.1 				"/>
				<line class="st7" x1="68.9" y1="69.8" x2="66.9" y2="71"/>
				<polyline class="st7" points="62.4,73.6 60.4,74.7 4.6,42.4 				"/>
				<line class="st7" x1="66.9" y1="73.3" x2="68.9" y2="72.1"/>
				<polyline class="st7" points="62.4,75.9 60.4,77.1 4.6,44.7 				"/>
				<polyline class="st7" points="68.9,48.9 60.4,53.8 4.6,21.5 				"/>
				<line class="st7" x1="28.2" y1="60.7" x2="4.6" y2="47"/>
				<polyline class="st8" points="10.2,12.4 8.9,13.1 8.9,16.6 				"/>
				<polyline class="st8" points="12.6,12.4 13.8,13.1 13.8,16.1 				"/>
				<polyline class="st8" points="8.9,13.1 11.4,14.5 13.8,13.1 				"/>
				<polyline class="st7" points="61.4,33.2 62,33.6 62,35.4 60.4,36.4 58.7,35.4 58.7,33.6 59.6,33.1 				"/>
				<polyline class="st8" points="62,33.6 60.4,34.6 58.7,33.6 				"/>
				<g>
					<defs>
						<rect id="SVGID_5_" x="3.2" y="2.6" width="71.3" height="78.5"/>
					</defs>
					<clipPath id="SVGID_6_">
						<use xlink:href="#SVGID_5_"  style="overflow:visible;"/>
					</clipPath>
					<g class="st9">
						<path class="st7" d="M58.9,31.7c0,0.1-0.2,0.2-0.2,0.3l0.1,0.3c0.1,0.1,0.5,0.3,1.1,0.1s1.9-0.9,2-1.6l-0.2-0.4
							c-0.1,0-0.3,0-0.4,0"/>
					</g>
				</g>
				<polyline class="st7" points="59.5,29.1 60.3,29.6 60.6,29.4 61.2,28.6 				"/>
				<g>
					<defs>
						<rect id="SVGID_7_" x="3.2" y="2.6" width="71.3" height="78.5"/>
					</defs>
					<clipPath id="SVGID_8_">
						<use xlink:href="#SVGID_7_"  style="overflow:visible;"/>
					</clipPath>
					<g class="st10">
						<path class="st7" d="M61.8,31.1c0,0.2,0,0.4,0,0.6c-0.2,0.8-0.9,1.3-1.7,1.2c0,0,0,0,0,0c-0.3-0.1-0.6-0.2-0.8-0.4l-0.1,0"/>
						<path class="st7" d="M59,32c-0.1-0.1-0.1-0.2-0.1-0.4c-0.1-0.8,0.4-1.5,1.2-1.6c0.5-0.1,1,0.1,1.3,0.5
							c0.1,0.1,0.2,0.2,0.2,0.3"/>
						<path class="st7" d="M59.8,38.3c0.2,0.7,0,1.3-0.4,1.3S58.3,39,58,38.3s-0.1-1.3,0.4-1.3S59.5,37.6,59.8,38.3z"/>
						<path class="st7" d="M61,38.3c-0.2,0.7-0.1,1.3,0.4,1.3s1.1-0.6,1.3-1.3s0-1.3-0.4-1.3S61.3,37.6,61,38.3z"/>
						<path class="st11" d="M61.4,33.3c0-0.1,0-0.1,0-0.2c0,0,0-0.1-0.1-0.1c-0.1,0-0.2,0-0.3,0V33l0.1-0.3"/>
						<path class="st8" d="M60.7,33.3c0,0.1,0,0.1,0.1,0.2s0.2,0.1,0.3,0"/>
					</g>
				</g>
				<polyline class="st8" points="59.9,33.8 59.9,33.7 60.1,33.4 60.1,33.3 59.7,33.2 59.4,33 59.6,32.7 				"/>
				<polyline class="st7" points="58.7,34.8 57.5,35.5 57.5,39.5 60.4,41.2 63.4,39.5 63.4,35.5 62.1,34.7 				"/>
				<g>
					<defs>
						<rect id="SVGID_9_" x="3.2" y="2.6" width="71.3" height="78.5"/>
					</defs>
					<clipPath id="SVGID_10_">
						<use xlink:href="#SVGID_9_"  style="overflow:visible;"/>
					</clipPath>
					<g class="st12">
						<path class="st8" d="M11.2,11.1c-0.6,0.1-1,0.6-1,1.2v0.9c0,0.3,0.5,0.6,1.2,0.6s1.2-0.3,1.2-0.6v-0.9c0-0.6-0.4-1.1-1-1.2
							v-0.1c0-0.1-0.1-0.1-0.2-0.1s-0.2,0.1-0.2,0.1L11.2,11.1z"/>
					</g>
				</g>
				<polyline class="st7" points="68.9,46.6 60.4,51.5 4.6,19.2 				"/>
				<polyline class="st7" points="30.6,62.5 28.9,61.6 27.5,62.4 29.5,63.6 30.6,63 				"/>
				<line class="st7" x1="30.6" y1="62.5" x2="28.9" y2="61.6"/>
				<line class="st7" x1="30.6" y1="63.9" x2="29.8" y2="63.4"/>
				<g>
					<defs>
						<rect id="SVGID_11_" x="3.2" y="2.6" width="71.3" height="78.5"/>
					</defs>
					<clipPath id="SVGID_12_">
						<use xlink:href="#SVGID_11_"  style="overflow:visible;"/>
					</clipPath>
					<g class="st13">
						<path class="st7" d="M29.3,59.7c-0.2,0.2-0.3,0.4-0.3,0.7v1.2"/>
					</g>
				</g>
				<polyline class="st7" points="28.6,63.1 28.2,63.3 4.6,50 				"/>
				<line class="st7" x1="28.2" y1="63.3" x2="28.2" y2="62.8"/>
				<g>
					<defs>
						<rect id="SVGID_13_" x="3.2" y="2.6" width="71.3" height="78.5"/>
					</defs>
					<clipPath id="SVGID_14_">
						<use xlink:href="#SVGID_13_"  style="overflow:visible;"/>
					</clipPath>
					<g class="st14">
						<path class="st7" d="M66.9,75.6v-4.5l-4.5,2.5v4.6l-2,1.2l-15-7.1l-12.1-6.1l-2.8-1.6v-3.2c-0.1-0.7-0.5-1.4-1.2-1.7
							c-0.3-0.2-0.8-0.1-1.1,0.2c-0.1,0.1-0.1,0.3-0.1,0.5V62"/>
					</g>
				</g>
				<polyline class="st7" points="63.7,75.9 63.7,74.8 63,75.2 63,76.3 				"/>
				<g>
					<defs>
						<rect id="SVGID_15_" x="3.2" y="2.6" width="71.3" height="78.5"/>
					</defs>
					<clipPath id="SVGID_16_">
						<use xlink:href="#SVGID_15_"  style="overflow:visible;"/>
					</clipPath>
					<g class="st15">
						<path class="st7" d="M67.6,45.8l1.3,0.8v27.8l-2,1.2c-1-0.3-2.1-0.2-3,0.2l-1,0.6c-0.2,0.1-0.3,0.2-0.5,0.3"/>
					</g>
				</g>
				<polyline class="st8" points="28.7,26 32.8,23.5 32.8,21.9 23.1,15.5 17,19 				"/>
				<line class="st8" x1="32.8" y1="21.9" x2="28.7" y2="24.3"/>
				<g>
					<defs>
						<rect id="SVGID_17_" x="3.2" y="2.6" width="71.3" height="78.5"/>
					</defs>
					<clipPath id="SVGID_18_">
						<use xlink:href="#SVGID_17_"  style="overflow:visible;"/>
					</clipPath>
					<g class="st16">
						<g class="st5">
							<path class="st6" d="M161.6,51.9c0.6,0.4,0.6,0.9,0.2,1.2l-0.5-0.4c0.2-0.2,0.2-0.4-0.1-0.6c-0.4-0.3-1-0.2-1.5,0.1
								c-0.5,0.3-0.6,0.7-0.2,0.9c0.3,0.2,0.6,0.2,0.9,0.1l0.5,0.4c-0.6,0.2-1.3,0.2-1.9-0.2c-0.7-0.5-0.6-1.1,0.2-1.6
								C159.9,51.4,160.9,51.4,161.6,51.9z"/>
						</g>
						<g class="st5">
							<path class="st6" d="M165.1,54.4l-1.6,2.2l-0.5-0.4l0.4-0.5l-0.9-0.6l-0.8,0.2l-0.5-0.4l3.5-0.9L165.1,54.4z M163,54.8
								l0.6,0.4l0.6-0.7L163,54.8z"/>
						</g>
						<g class="st5">
							<path class="st6" d="M166.9,55.6l2.1,1.5l-0.5,0.3l-0.8-0.6l-2.1,1.2l-0.5-0.4l2.1-1.2l-0.8-0.6L166.9,55.6z"/>
							<path class="st6" d="M172.5,59.5l-2.6,1.5l-0.5-0.4l1.1-0.6l-1.1-0.8l-1.1,0.6l-0.5-0.4l2.6-1.5l0.5,0.4l-1,0.6l1.1,0.8
								l1-0.6L172.5,59.5z"/>
							<path class="st6" d="M175.6,61.7l-0.5,0.3l-1.2-0.8l-0.6,0.3l1.1,0.7l-0.5,0.3l-1.1-0.7l-0.6,0.4l1.2,0.8l-0.5,0.3l-1.7-1.2
								l2.6-1.5L175.6,61.7z"/>
							<path class="st6" d="M175.8,63.9l-1,0.6l-0.5-0.4l2.6-1.5l1,0.7c0.5,0.4,0.6,0.8,0,1.1c-0.4,0.2-0.9,0.2-1.3,0.1l-0.4,1
								l-0.6-0.4l0.4-1L175.8,63.9z M176.3,63.6l0.5,0.3c0.3,0.2,0.5,0.2,0.7,0.1c0.2-0.1,0.2-0.3,0-0.5l-0.5-0.3L176.3,63.6z"/>
							<path class="st6" d="M178.1,66.7l-0.5-0.4l2.6-1.5l0.5,0.4L178.1,66.7z"/>
							<path class="st6" d="M181.6,69.1l-0.4-0.3l0.6-1.8l-1.7,1l-0.5-0.3l2.6-1.5l0.5,0.3l-0.5,1.7l1.6-1l0.5,0.3L181.6,69.1z"/>
							<path class="st6" d="M187.3,69.8l-0.5,0.3l-1.2-0.8l-0.6,0.3l1.1,0.7l-0.5,0.3l-1.1-0.7l-0.6,0.4l1.2,0.8l-0.5,0.3l-1.7-1.2
								l2.6-1.5L187.3,69.8z"/>
							<path class="st6" d="M190.5,72l0.5,0.4l-2.1,1.2l1.2,0.8l-0.5,0.3l-1.7-1.2L190.5,72z"/>
						</g>
						<g class="st5">
							<path class="st6" d="M193,77.1l-0.4-0.3l0.6-1.8l-1.7,1l-0.5-0.3l2.6-1.5l0.5,0.3l-0.5,1.7l1.6-1l0.5,0.3L193,77.1z"/>
						</g>
						<path class="st8" d="M215.1,74.1v-1c0-0.2-0.2-0.5-0.7-0.3c-0.3,0.2-0.5,0.5-0.6,0.9v1.1l-5.5,3.2l-7.3-5l-9.2-6.3l-7.7-5.3
							l-11.4-7.9l-16.3-11.8V13.7l1.1-0.7"/>
						<path class="st8" d="M163.5,5.5c0.2,0.7,0,1.3-0.4,1.3s-1.1-0.6-1.3-1.3s-0.1-1.3,0.4-1.3S163.3,4.8,163.5,5.5z"/>
						<path class="st8" d="M164.8,5.5c-0.2,0.7-0.1,1.3,0.4,1.3s1.1-0.6,1.3-1.3s0.1-1.3-0.4-1.3S165,4.8,164.8,5.5z"/>
						<path class="st8" d="M165.5-1.8c0,0.2,0,0.4,0,0.6c-0.2,0.8-0.9,1.3-1.7,1.1c-0.3-0.1-0.6-0.2-0.8-0.4h-0.1"/>
						<path class="st8" d="M165.2,0.4c0-0.1,0-0.1,0-0.2c0,0,0-0.1-0.1-0.1c-0.1,0-0.2,0-0.3,0.1c0,0,0-0.1,0-0.1l0,0l0.1-0.3"/>
						<path class="st8" d="M164.5,0.4c0,0.1,0,0.1,0.1,0.2s0.2,0.1,0.3,0"/>
					</g>
				</g>
				<polygon class="st1" points="66.8,50.1 60.4,53.9 52.8,49.5 52.8,70.4 60.4,74.8 66.8,71 				"/>
				<polyline class="st17" points="52.8,51.8 60.4,56.2 66.8,52.5 				"/>
				<polyline class="st17" points="52.8,54.1 60.4,58.5 66.8,54.8 				"/>
				<polyline class="st17" points="52.8,56.4 60.4,60.8 66.8,57.1 				"/>
				<polyline class="st17" points="52.8,58.8 60.4,63.2 66.8,59.4 				"/>
				<polyline class="st17" points="52.8,61.1 60.4,65.5 66.8,61.7 				"/>
				<polyline class="st17" points="52.8,63.4 60.4,67.8 66.8,64.1 				"/>
				<polyline class="st17" points="52.8,65.7 60.4,70.1 66.8,66.4 				"/>
				<polyline class="st17" points="52.8,68.1 60.4,72.4 66.8,68.7 				"/>
				<line class="st17" x1="60.4" y1="53.9" x2="60.4" y2="74.8"/>
			</g>
		</g>
	</g>
</g>
</svg>
