<?xml version="1.0" encoding="utf-8"?>
<!-- Generator: Adobe Illustrator 23.0.0, SVG Export Plug-In . SVG Version: 6.00 Build 0)  -->
<svg version="1.1" id="Layer_1" xmlns="http://www.w3.org/2000/svg" xmlns:xlink="http://www.w3.org/1999/xlink" x="0px" y="0px"
	 viewBox="0 0 123.3 164.8" style="enable-background:new 0 0 123.3 164.8;" xml:space="preserve">
<style type="text/css">
	.st0{fill:#D2D3D4;}
	.st1{clip-path:url(#SVGID_2_);}
	.st2{fill:#231F20;}
	.st3{clip-path:url(#SVGID_4_);}
	.st4{fill:none;stroke:#D1D3D4;stroke-width:1.09;stroke-miterlimit:10;}
	.st5{clip-path:url(#SVGID_6_);}
	.st6{fill:none;stroke:#231F20;stroke-width:0.15;stroke-miterlimit:10;}
	.st7{enable-background:new    ;}
	.st8{fill:#D1D3D4;}
	.st9{fill:none;stroke:#231F20;stroke-width:0.14;stroke-miterlimit:10;}
	.st10{clip-path:url(#SVGID_8_);}
	.st11{clip-path:url(#SVGID_10_);}
	.st12{clip-path:url(#SVGID_12_);}
	.st13{clip-path:url(#SVGID_14_);}
	.st14{clip-path:url(#SVGID_16_);}
	.st15{fill:none;stroke:#FFFFFF;stroke-width:0.15;stroke-miterlimit:10;}
	.st16{fill:none;}
</style>
<title>residence_D_9-11_key</title>
<g>
	<path class="st0" d="M14.3,117.1c-0.6,0-1-0.4-1-1.1v-1.4h3.4v1.3c0,0.7-0.3,1.1-0.9,1.1c-0.3,0-0.6-0.2-0.7-0.4
		C14.9,116.9,14.6,117.1,14.3,117.1z M13.9,115.2v0.7c0,0.3,0.2,0.5,0.4,0.5s0.4-0.2,0.4-0.5v-0.7H13.9z M15.3,115.8
		c0,0.3,0.1,0.5,0.4,0.5s0.4-0.2,0.4-0.5v-0.6h-0.8L15.3,115.8z"/>
	<path class="st0" d="M14.6,119.5h-1.3v-0.7h3.4v1.4c0.1,0.5-0.3,1.1-0.8,1.2c-0.1,0-0.2,0-0.3,0c-0.5,0-0.9-0.3-1-0.8l-1.3,0.9
		v-0.8l1.3-0.8L14.6,119.5z M15.1,119.5v0.7c0,0.3,0.2,0.5,0.5,0.5s0.5-0.2,0.5-0.5v-0.7H15.1z"/>
	<path class="st0" d="M13.3,124.6c0-0.9,0.8-1.6,1.7-1.6c0,0,0.1,0,0.1,0c0.9-0.1,1.7,0.6,1.7,1.5c0.1,0.9-0.6,1.7-1.5,1.7
		c-0.1,0-0.2,0-0.3,0c-0.9,0.1-1.7-0.6-1.7-1.5C13.3,124.7,13.3,124.6,13.3,124.6z M16.1,124.6c0-0.5-0.4-0.9-1.1-0.9
		s-1.1,0.3-1.1,0.9s0.5,0.9,1.1,0.9S16.1,125.1,16.1,124.6z"/>
	<path class="st0" d="M16.7,129.4l-3.4,1.3V130l0.8-0.3v-1.3l-0.8-0.3v-0.7l3.4,1.3V129.4z M14.7,128.7v0.8l1.1-0.4L14.7,128.7z"/>
	<path class="st0" d="M16.7,132.4v1.2c0.1,0.9-0.6,1.6-1.5,1.7c-0.1,0-0.2,0-0.2,0c-0.9,0.1-1.6-0.6-1.7-1.4c0-0.1,0-0.2,0-0.2v-1.2
		H16.7z M13.9,133.5c0,0.6,0.4,1,1,1c0,0,0,0,0.1,0c0.6,0,1-0.4,1.1-0.9c0,0,0,0,0-0.1v-0.5h-2.1V133.5z"/>
	<path class="st0" d="M16.7,139l-2.3,0.6l2.3,0.6v0.7l-3.4-0.8v-0.6l2.2-0.6l-2.2-0.6v-0.6l3.4-0.9v0.7l-2.3,0.6l2.3,0.6L16.7,139z"
		/>
	<path class="st0" d="M16.7,144l-3.4,1.3v-0.7l0.8-0.3V143l-0.8-0.3V142l3.4,1.3V144z M14.7,143.2v0.8l1.1-0.4L14.7,143.2z"/>
	<path class="st0" d="M16.7,148.6v0.8l-2.1-1.2h-1.3v-0.7h1.3l2.1-1.2v0.8l-1.4,0.8L16.7,148.6z"/>
	<path class="st0" d="M111.7,108.4v0.7h-2.8v1.6h-0.6v-2.3H111.7z"/>
	<path class="st0" d="M111.7,114.1l-3.4,1.3v-0.7l0.8-0.3v-1.3l-0.8-0.3v-0.7l3.4,1.3V114.1z M109.7,113.4v0.8l1.1-0.4L109.7,113.4z
		"/>
	<path class="st0" d="M108.3,117h3.4v2.2h-0.6v-1.5h-0.9v1.4h-0.6v-1.4h-1.3V117z"/>
	<path class="st0" d="M111.7,122.5l-3.4,1.3v-0.7l0.8-0.3v-1.3l-0.8-0.3v-0.7l3.4,1.3V122.5z M109.7,121.8v0.8l1.1-0.4L109.7,121.8z
		"/>
	<path class="st0" d="M111.7,127.2v0.7l-2.1-1.2h-1.3V126h1.3l2.1-1.2v0.8l-1.4,0.8L111.7,127.2z"/>
	<path class="st0" d="M111.7,131.8h-0.6v-1.6h-0.7v1.4h-0.6v-1.4h-0.8v1.6h-0.6v-2.3h3.4V131.8z"/>
	<path class="st0" d="M111.7,133.4v2.9h-0.6v-1.1h-2.8v-0.7h2.8v-1.1L111.7,133.4z"/>
	<path class="st0" d="M111.7,137.8v2.9h-0.6v-1.1h-2.8v-0.7h2.8v-1.1H111.7z"/>
	<path class="st0" d="M111.7,144.6h-0.6V143h-0.7v1.4h-0.6V143h-0.8v1.6h-0.6v-2.3h3.4V144.6z"/>
	<path class="st0" d="M109.2,149.2c-0.3,0.1-0.5,0.4-0.4,0.7c0,0.4,0.2,0.6,0.4,0.6s0.3-0.1,0.4-0.4l0.1-0.6c0-0.5,0.4-0.9,0.9-0.9
		c0.6,0,1,0.6,1,1.1c0,0,0,0,0,0.1c0.1,0.6-0.4,1.2-1,1.3v-0.7c0.3-0.1,0.4-0.3,0.4-0.6c0-0.3-0.2-0.5-0.4-0.5s-0.3,0.1-0.4,0.4
		l-0.1,0.6c-0.1,0.6-0.4,0.9-1,0.9s-1-0.5-1-1.2c-0.1-0.7,0.4-1.3,1-1.4L109.2,149.2L109.2,149.2z"/>
	<path class="st0" d="M111.7,152.6v2.9h-0.6v-1.1h-2.8v-0.7h2.8v-1.1L111.7,152.6z"/>
	<path class="st0" d="M43.1,112.6h0.7v2.8h1.6v0.6h-2.3V112.6z"/>
	<path class="st0" d="M49.3,112.6v0.6h-1.6v0.8h1.5v0.6h-1.5v0.8h1.6v0.6H47v-3.4L49.3,112.6z"/>
	<path class="st0" d="M52.4,116c-1,0.1-1.8-0.7-1.9-1.6c-0.1-1,0.7-1.8,1.6-1.9s1.8,0.7,1.9,1.6c0,0.1,0,0.1,0,0.2
		c0,0.9-0.6,1.6-1.5,1.7C52.4,116,52.4,116,52.4,116z M52.4,113.2c-0.5,0-0.9,0.4-0.9,1.1s0.3,1.1,0.9,1.1s0.9-0.5,0.9-1.1
		S52.9,113.2,52.4,113.2L52.4,113.2z"/>
	<path class="st0" d="M58.4,116h-0.6l-1.6-2.2v2.2h-0.7v-3.4h0.7l1.5,2.1v-2.1h0.7V116z"/>
	<path class="st0" d="M61.9,112.6l1.3,3.4h-0.7l-0.3-0.8h-1.3l-0.3,0.8h-0.7l1.3-3.4L61.9,112.6z M61.1,114.6h0.8l-0.4-1.1
		L61.1,114.6z"/>
	<path class="st0" d="M65.4,114.7v1.3h-0.7v-3.4h1.4c0.5-0.1,1.1,0.2,1.2,0.8c0,0.1,0,0.2,0,0.3c0,0.5-0.3,0.9-0.8,1l0.9,1.3h-0.8
		l-0.8-1.3L65.4,114.7z M65.4,114.2H66c0.3,0,0.5-0.2,0.5-0.5s-0.2-0.5-0.5-0.5h-0.7L65.4,114.2z"/>
	<path class="st0" d="M68.9,112.6h1.2c0.9,0.1,1.6,0.9,1.6,1.8c-0.1,0.8-0.7,1.5-1.6,1.6h-1.2V112.6z M70,115.4
		c0.6,0,1.1-0.5,1.1-1.1c0-0.6-0.5-1.1-1.1-1.1h-0.5v2.1H70z"/>
	<path class="st0" d="M76.1,115c0.1,0.3,0.4,0.5,0.7,0.4c0.3,0,0.6-0.2,0.6-0.4s-0.1-0.3-0.4-0.4l-0.6-0.1c-0.5-0.1-0.8-0.4-0.8-0.9
		c0-0.6,0.6-1,1.2-1c0,0,0,0,0,0c0.6-0.1,1.2,0.4,1.3,1h-0.7c-0.1-0.3-0.3-0.4-0.6-0.4c-0.3,0-0.5,0.2-0.5,0.4s0.1,0.3,0.4,0.4
		l0.6,0.2c0.5,0.1,0.9,0.5,0.9,1c-0.1,0.6-0.6,1.1-1.2,1c0,0,0,0,0,0c-0.7,0.1-1.3-0.4-1.4-1L76.1,115z"/>
	<path class="st0" d="M79.4,112.6h2.9v0.6h-1.1v2.8h-0.7v-2.8h-1.1V112.6z"/>
	<path class="st0" d="M40.6,147.9c0.7,0,1.3,0.4,1.4,1.1h-0.7c-0.1-0.3-0.4-0.5-0.7-0.5c-0.5,0-0.8,0.5-0.8,1.1s0.3,1.1,0.8,1.1
		c0.3,0,0.6-0.2,0.7-0.5H42c-0.1,0.7-0.7,1.2-1.4,1.1c-1-0.1-1.7-1-1.6-1.9C39.2,148.6,39.8,147.9,40.6,147.9z"/>
	<path class="st0" d="M45.4,147.9l1.3,3.4H46l-0.3-0.8h-1.3l-0.3,0.8h-0.7l1.3-3.4H45.4z M44.6,149.9h0.8l-0.4-1.2L44.6,149.9z"/>
	<path class="st0" d="M47.8,147.9h2.9v0.6h-1.1v2.8h-0.7v-2.8h-1.1V147.9z"/>
	<path class="st0" d="M55.2,147.9v3.4h-0.7v-1.4H53v1.4h-0.7v-3.4H53v1.3h1.5v-1.3H55.2z"/>
	<path class="st0" d="M59.4,147.9v0.6h-1.6v0.7h1.5v0.6h-1.5v0.8h1.6v0.6h-2.3v-3.4L59.4,147.9z"/>
	<path class="st0" d="M61.8,150v1.3h-0.7v-3.4h1.4c0.5-0.1,1.1,0.3,1.2,0.8c0,0.1,0,0.2,0,0.3c0,0.5-0.3,0.9-0.8,1l0.9,1.3H63
		l-0.8-1.3H61.8z M61.8,149.4h0.6c0.4,0,0.5-0.2,0.5-0.5s-0.2-0.5-0.5-0.5h-0.6V149.4z"/>
	<path class="st0" d="M66.2,151.3h-0.7v-3.4h0.7V151.3z"/>
	<path class="st0" d="M70.8,151.3h-0.6l-1.6-2.3v2.2H68v-3.4h0.7l1.5,2.1v-2.1h0.7V151.3z"/>
	<path class="st0" d="M75,147.9v0.6h-1.6v0.7h1.4v0.6h-1.5v0.8H75v0.6h-2.3v-3.4L75,147.9z"/>
	<path class="st0" d="M79.1,147.9h0.7v2.8h1.6v0.6h-2.3V147.9z"/>
	<path class="st0" d="M85.9,151.3h-0.6l-1.6-2.3v2.2h-0.7v-3.4h0.7l1.5,2.1v-2.1h0.7V151.3L85.9,151.3z"/>
</g>
<g id="Layer_4">
	<g>
		<defs>
			<rect id="SVGID_1_" x="23.3" y="124.1" width="77.1" height="17.4"/>
		</defs>
		<clipPath id="SVGID_2_">
			<use xlink:href="#SVGID_1_"  style="overflow:visible;"/>
		</clipPath>
		<g class="st1">
			<polygon class="st2" points="36.3,134 39.2,134 39.2,132.3 40.3,132.3 40.3,132.4 41.2,132.4 41.2,132.3 44.3,132.3 44.3,136.9 
				36.3,136.4 			"/>
			<g>
				<defs>
					<rect id="SVGID_3_" x="23.3" y="124.1" width="77.1" height="17.4"/>
				</defs>
				<clipPath id="SVGID_4_">
					<use xlink:href="#SVGID_3_"  style="overflow:visible;"/>
				</clipPath>
				<g class="st3">
					<polygon class="st4" points="98.6,125.2 98.6,140.3 24.3,135.7 24.3,125.2 					"/>
				</g>
			</g>
		</g>
	</g>
	<g>
		<defs>
			<rect id="SVGID_5_" x="25.1" y="12.9" width="63.1" height="76.2"/>
		</defs>
		<clipPath id="SVGID_6_">
			<use xlink:href="#SVGID_5_"  style="overflow:visible;"/>
		</clipPath>
		<g class="st5">
			<polyline class="st6" points="87.1,57.7 76.1,63.8 30.2,33.6 			"/>
			<polyline class="st6" points="87.1,59.7 76.1,65.9 30.2,35.7 			"/>
			<polyline class="st6" points="87.1,61.8 76.1,68 30.2,37.8 			"/>
			<polyline class="st6" points="87.1,63.8 76.1,70 30.2,39.8 			"/>
			<polyline class="st6" points="87.1,65.9 76.1,72.1 30.2,41.9 			"/>
			<polyline class="st6" points="87.1,68 76.1,74.2 30.2,44 			"/>
			<polyline class="st6" points="87.1,70.1 76.1,76.2 30.2,46 			"/>
			<polyline class="st6" points="87.1,72.1 76.1,78.3 30.2,48.1 			"/>
			<polyline class="st6" points="87.1,74.2 76.1,80.3 30.2,50.2 			"/>
			<polyline class="st6" points="87.1,76.2 76.1,82.4 30.2,52.2 			"/>
			<polyline class="st6" points="87.1,78.3 76.1,84.5 30.2,54.3 			"/>
			<g class="st7">
				<path class="st8" d="M34.8,63.2c0.5,0.4,0.5,0.8,0.1,1.1L34.5,64c0.1-0.2,0.1-0.4-0.1-0.5c-0.3-0.2-0.9-0.2-1.3,0.1
					c-0.4,0.3-0.6,0.6-0.2,0.8c0.3,0.2,0.5,0.2,0.8,0.1l0.5,0.3c-0.5,0.2-1.2,0.2-1.7-0.2c-0.6-0.4-0.5-1,0.2-1.4
					C33.3,62.8,34.2,62.8,34.8,63.2z"/>
			</g>
			<g class="st7">
				<path class="st8" d="M37.9,65.4l-1.5,1.9L36,67l0.4-0.5L35.5,66l-0.7,0.2l-0.5-0.3l3.1-0.8L37.9,65.4z M36.1,65.9l0.5,0.4
					l0.5-0.6L36.1,65.9z"/>
			</g>
			<g class="st7">
				<path class="st8" d="M39.5,66.6l1.9,1.3L41,68.1l-0.7-0.5l-1.9,1.1l-0.5-0.3l1.9-1.1l-0.7-0.5L39.5,66.6z"/>
				<path class="st8" d="M44.4,70l-2.3,1.3L41.7,71l1-0.6l-1-0.7l-1,0.6L40.2,70l2.3-1.3L43,69l-0.9,0.5l1,0.7l0.9-0.5L44.4,70z"/>
				<path class="st8" d="M47.2,71.9l-0.4,0.2l-1-0.7l-0.5,0.3l0.9,0.7l-0.4,0.2L44.8,72l-0.5,0.3l1,0.7l-0.4,0.2l-1.5-1l2.3-1.3
					L47.2,71.9z"/>
				<path class="st8" d="M47.4,73.9l-0.9,0.5l-0.5-0.3l2.3-1.3l0.9,0.6c0.5,0.3,0.5,0.7,0,1c-0.4,0.2-0.8,0.2-1.2,0l-0.3,0.9
					l-0.5-0.4l0.3-0.9L47.4,73.9z M47.8,73.7l0.4,0.3c0.2,0.2,0.5,0.2,0.7,0.1c0.2-0.1,0.2-0.3,0-0.4l-0.4-0.3L47.8,73.7z"/>
				<path class="st8" d="M49.4,76.4l-0.5-0.3l2.3-1.3l0.5,0.3L49.4,76.4z"/>
				<path class="st8" d="M52.5,78.5l-0.4-0.2l0.5-1.6l-1.5,0.9l-0.4-0.3l2.3-1.3l0.4,0.3l-0.5,1.5l1.4-0.8l0.4,0.3L52.5,78.5z"/>
				<path class="st8" d="M57.5,79.1l-0.4,0.2l-1-0.7l-0.5,0.3l0.9,0.7l-0.4,0.2l-0.9-0.7l-0.5,0.3l1,0.7l-0.4,0.2l-1.5-1l2.3-1.3
					L57.5,79.1z"/>
				<path class="st8" d="M60.3,81.1l0.5,0.3l-1.9,1.1l1,0.7l-0.4,0.2l-1.5-1L60.3,81.1z"/>
			</g>
			<g class="st7">
				<path class="st8" d="M62.6,85.5l-0.4-0.2l0.5-1.6l-1.5,0.9l-0.4-0.3l2.3-1.3l0.4,0.3L63,84.7l1.4-0.8l0.4,0.3L62.6,85.5z"/>
			</g>
			<polyline class="st9" points="87.1,55.6 76.1,61.8 30.2,31.6 			"/>
			<line class="st9" x1="76.2" y1="59.7" x2="76.2" y2="86.5"/>
			<line class="st9" x1="81.7" y1="82.7" x2="81" y2="83.1"/>
			<polyline class="st9" points="81.7,82.7 82.2,82.9 87.1,80.1 87.1,53.5 			"/>
			<polyline class="st9" points="87.1,53.5 76.1,59.7 30.2,29.5 			"/>
			<g>
				<defs>
					<rect id="SVGID_7_" x="25.1" y="12.9" width="63.1" height="76.2"/>
				</defs>
				<clipPath id="SVGID_8_">
					<use xlink:href="#SVGID_7_"  style="overflow:visible;"/>
				</clipPath>
				<g class="st10">
					<path class="st9" d="M81.7,82.7v-0.6c0-0.1,0-0.2-0.1-0.3"/>
					<path class="st9" d="M82.2,82.9v-0.9c0-0.2-0.2-0.5-0.6-0.2c-0.3,0.2-0.5,0.5-0.5,0.8v1l-4.9,2.9L69.7,82l-8.2-5.6l-6.8-4.7
						l-10.1-7L30.2,54.3V29.5l1-0.6"/>
				</g>
			</g>
			<line class="st9" x1="77.9" y1="54.6" x2="77.9" y2="53.5"/>
			<line class="st9" x1="36.8" y1="31.4" x2="36.8" y2="33.3"/>
			<line class="st9" x1="77.9" y1="54.6" x2="78.5" y2="55"/>
			<line class="st9" x1="77.9" y1="53.5" x2="78.5" y2="53.9"/>
			<line class="st9" x1="37.1" y1="20.4" x2="37.1" y2="19"/>
			<line class="st9" x1="37.1" y1="20.5" x2="37.1" y2="18.9"/>
			<line class="st9" x1="36.8" y1="30" x2="36.8" y2="26.7"/>
			<polyline class="st9" points="37.9,32.6 36.8,33.3 31.2,29.6 31.2,27.8 33.1,26.6 			"/>
			<polyline class="st9" points="37.1,24.8 39.7,23.2 39.7,19.8 39.7,19.7 38.5,19 			"/>
			<g>
				<defs>
					<rect id="SVGID_9_" x="25.1" y="12.9" width="63.1" height="76.2"/>
				</defs>
				<clipPath id="SVGID_10_">
					<use xlink:href="#SVGID_9_"  style="overflow:visible;"/>
				</clipPath>
				<g class="st11">
					<path class="st9" d="M36.5,22.2c0.2,0.6,0,1.1-0.4,1.1s-1-0.5-1.2-1.1s0-1.1,0.4-1.1S36.3,21.6,36.5,22.2z"/>
					<path class="st9" d="M37.6,22.2c-0.2,0.6,0,1.1,0.4,1.1s1-0.5,1.2-1.1s0-1.1-0.4-1.1S37.8,21.6,37.6,22.2z"/>
				</g>
			</g>
			<line class="st9" x1="36.8" y1="26.8" x2="41.1" y2="24.3"/>
			<line class="st9" x1="33.1" y1="24.3" x2="36.8" y2="26.8"/>
			<line class="st9" x1="31.2" y1="27.7" x2="36.8" y2="31.4"/>
			<polyline class="st9" points="39.7,23.1 39.9,23.2 39.9,24.3 39.9,24.4 37.1,26.1 37.1,26 37.1,21.4 			"/>
			<polyline class="st9" points="34.2,23.7 33.1,24.3 33.1,27.5 33.1,27.6 36.8,30 			"/>
			<polyline class="st9" points="41.2,26 43.5,27.5 43.5,28.7 			"/>
			<line class="st9" x1="37" y1="21.4" x2="39.7" y2="19.8"/>
			<line class="st9" x1="34.5" y1="19.8" x2="35.6" y2="19.1"/>
			<line class="st9" x1="34.5" y1="19.7" x2="37.1" y2="21.5"/>
			<polyline class="st9" points="39.9,23.5 41.1,24.3 41.2,24.3 41.2,27.5 41.1,27.5 36.8,30 			"/>
			<line class="st9" x1="35.6" y1="18" x2="37.1" y2="19"/>
			<line class="st9" x1="37.8" y1="17.6" x2="38.6" y2="18.1"/>
			<g>
				<defs>
					<rect id="SVGID_11_" x="25.1" y="12.9" width="63.1" height="76.2"/>
				</defs>
				<clipPath id="SVGID_12_">
					<use xlink:href="#SVGID_11_"  style="overflow:visible;"/>
				</clipPath>
				<g class="st12">
					<path class="st9" d="M35.7,16.3c-0.1,0.1-0.1,0.2-0.2,0.2l0.1,0.2c0.1,0.1,0.4,0.2,1,0.1s1.7-0.8,1.8-1.4l-0.2-0.4
						c-0.1,0-0.2,0-0.4,0"/>
				</g>
			</g>
			<polyline class="st9" points="36.2,14.1 37,14.5 37.2,14.4 37.8,13.6 			"/>
			<g>
				<defs>
					<rect id="SVGID_13_" x="25.1" y="12.9" width="63.1" height="76.2"/>
				</defs>
				<clipPath id="SVGID_14_">
					<use xlink:href="#SVGID_13_"  style="overflow:visible;"/>
				</clipPath>
				<g class="st13">
					<path class="st9" d="M38.3,15.8c0,0.2,0,0.4,0,0.6c-0.1,0.7-0.8,1.1-1.5,1c0,0,0,0,0,0c-0.3-0.1-0.5-0.2-0.7-0.4L36,17"/>
					<path class="st9" d="M35.8,16.6c0-0.1-0.1-0.2-0.1-0.3c-0.1-0.7,0.4-1.4,1.1-1.5c0,0,0,0,0,0c0.4-0.1,0.9,0.1,1.1,0.4
						c0.1,0.1,0.2,0.2,0.2,0.3"/>
					<path class="st9" d="M38,17.8c0,0,0-0.1,0-0.1c0,0,0-0.1-0.1-0.1c-0.1,0-0.2,0-0.2,0v-0.1l0.1-0.3"/>
					<path class="st9" d="M37.3,17.8c0,0,0,0.1,0,0.1s0.2,0.1,0.3,0"/>
				</g>
			</g>
			<polyline class="st9" points="36.7,18.2 36.7,18.1 36.8,17.9 36.8,17.8 36.5,17.7 36.2,17.5 36.3,17.2 			"/>
			<line class="st9" x1="34.5" y1="23.1" x2="37.1" y2="24.8"/>
			<polyline class="st9" points="37,26.1 34.2,24.3 34.2,24.3 34.2,23.3 34.2,23.3 34.5,23.1 34.5,23.1 34.5,19.7 			"/>
			<polyline class="st9" points="36.4,17.5 35.6,18.1 35.6,18.1 35.6,19.6 37,20.5 37.1,20.5 38.5,19.7 38.5,18.1 38.5,18.1 
				37.1,19 			"/>
			<line class="st9" x1="61.6" y1="45" x2="70.8" y2="50.9"/>
			<polyline class="st9" points="82.6,52.6 80.5,53.8 78.5,52.6 			"/>
			<line class="st9" x1="80.5" y1="56.8" x2="80.5" y2="53.8"/>
			<polyline class="st9" points="78.5,53.2 74.3,55.6 37.9,32.4 			"/>
			<line class="st6" x1="87.1" y1="53.5" x2="43.5" y2="28.2"/>
			<line class="st6" x1="72.1" y1="45.3" x2="46.2" y2="30.4"/>
			<line class="st9" x1="74.3" y1="56.7" x2="74.3" y2="55.6"/>
			<line class="st9" x1="70.8" y1="52.1" x2="70.8" y2="50.9"/>
			<polygon class="st9" points="76.2,47.6 76.2,48.9 70.8,52.1 61.6,46.3 61.6,45.1 65.7,42.7 71.1,45.9 72.2,45.3 			"/>
			<line class="st9" x1="76.2" y1="47.7" x2="70.8" y2="50.8"/>
			<line class="st9" x1="46.2" y1="30.3" x2="42.3" y2="32.6"/>
			<polygon class="st9" points="38.9,31.8 38.9,30.5 38.9,30.5 42.7,28.2 46.2,30.3 46.2,31.4 46.2,31.5 42.3,33.9 			"/>
			<polyline class="st9" points="77.9,54.6 74.3,56.7 37.9,33.5 37.9,33.5 37.9,32.4 38.9,31.8 			"/>
			<line class="st9" x1="42.3" y1="32.6" x2="38.9" y2="30.5"/>
			<line class="st9" x1="42.3" y1="33.8" x2="42.3" y2="32.6"/>
			<polyline class="st9" points="81.8,52.1 82.1,51.9 82.1,51.1 76.2,47.8 			"/>
			<line class="st9" x1="82.1" y1="51.1" x2="81.6" y2="51.4"/>
			<line class="st9" x1="43.5" y1="27.5" x2="36.8" y2="31.4"/>
			<polyline class="st9" points="79.6,51.9 78.5,52.6 78.5,55.5 80.5,56.8 82.6,55.6 82.6,52.6 81.7,52.1 			"/>
			<g>
				<defs>
					<rect id="SVGID_15_" x="25.1" y="12.9" width="63.1" height="76.2"/>
				</defs>
				<clipPath id="SVGID_16_">
					<use xlink:href="#SVGID_15_"  style="overflow:visible;"/>
				</clipPath>
				<g class="st14">
					<path class="st9" d="M80.5,50.8c-0.5,0.1-0.9,0.6-0.9,1.1v0.8c0,0.3,0.5,0.5,1.1,0.5s1.1-0.2,1.1-0.5v-0.8c0-0.5-0.4-1-0.9-1.1
						v-0.1c0-0.1-0.1-0.1-0.2-0.1s-0.2,0.1-0.2,0.1V50.8z"/>
				</g>
			</g>
			<polygon class="st2" points="41.9,43.4 36.9,40 36.9,38.1 41.9,41.4 			"/>
			<polygon class="st2" points="41.9,45.4 36.9,42.2 36.9,40.2 41.9,43.5 			"/>
			<polygon class="st2" points="41.9,47.5 36.9,44.2 36.9,42.2 41.9,45.5 			"/>
			<line class="st15" x1="36.9" y1="42.2" x2="41.9" y2="45.5"/>
			<line class="st16" x1="36.9" y1="40.1" x2="41.9" y2="43.4"/>
			<line class="st15" x1="36.9" y1="40.1" x2="41.9" y2="43.4"/>
		</g>
	</g>
</g>
</svg>
