<?xml version="1.0" encoding="utf-8"?>
<!-- Generator: Adobe Illustrator 23.0.0, SVG Export Plug-In . SVG Version: 6.00 Build 0)  -->
<svg version="1.1" id="Layer_1" xmlns="http://www.w3.org/2000/svg" xmlns:xlink="http://www.w3.org/1999/xlink" x="0px" y="0px"
	 viewBox="0 0 189.9 92.6" style="enable-background:new 0 0 189.9 92.6;" xml:space="preserve">
<style type="text/css">
	.st0{fill:#D2D3D4;}
	.st1{fill:#231F20;}
	.st2{clip-path:url(#SVGID_2_);}
	.st3{fill:none;stroke:#D1D3D4;stroke-width:1.09;stroke-miterlimit:10;}
	.st4{clip-path:url(#SVGID_4_);}
	.st5{fill:none;stroke:#231F20;stroke-width:0.15;stroke-miterlimit:10;}
	.st6{enable-background:new    ;}
	.st7{fill:#D1D3D4;}
	.st8{fill:none;stroke:#231F20;stroke-width:0.14;stroke-miterlimit:10;}
	.st9{clip-path:url(#SVGID_6_);}
	.st10{clip-path:url(#SVGID_8_);}
	.st11{clip-path:url(#SVGID_10_);}
	.st12{clip-path:url(#SVGID_12_);}
	.st13{clip-path:url(#SVGID_14_);}
	.st14{fill:none;stroke:#FFFFFF;stroke-width:0.15;stroke-miterlimit:10;}
</style>
<title>residence_L_4-6_key_horizontal</title>
<g>
	<g>
		<path class="st0" d="M83.6,43.8c-0.6,0-1-0.4-1-1.1v-1.4H86v1.3c0,0.7-0.3,1.1-0.9,1.1c-0.3,0-0.6-0.2-0.7-0.4
			C84.2,43.6,83.9,43.8,83.6,43.8z M83.2,41.9v0.7c0,0.3,0.2,0.5,0.4,0.5s0.4-0.2,0.4-0.5v-0.7H83.2z M84.6,42.5
			c0,0.3,0.1,0.5,0.4,0.5s0.4-0.2,0.4-0.5v-0.6h-0.8V42.5z"/>
		<path class="st0" d="M83.8,46.2h-1.3v-0.7H86v1.4c0.1,0.5-0.3,1.1-0.8,1.2c-0.1,0-0.2,0-0.3,0c-0.5,0-0.9-0.3-1-0.8l-1.3,0.9v-0.8
			l1.3-0.8L83.8,46.2z M84.4,46.2v0.6c0,0.4,0.2,0.5,0.5,0.5s0.5-0.2,0.5-0.5v-0.6H84.4z"/>
		<path class="st0" d="M82.5,51.2c-0.1-1,0.6-1.8,1.6-1.9c1-0.1,1.8,0.6,1.9,1.6s-0.6,1.8-1.6,1.9c-0.1,0-0.1,0-0.2,0
			c-0.9,0.1-1.7-0.6-1.7-1.5C82.5,51.3,82.5,51.3,82.5,51.2z M85.4,51.2c0-0.5-0.4-0.9-1.1-0.9s-1.1,0.3-1.1,0.9s0.5,0.9,1.1,0.9
			S85.4,51.8,85.4,51.2z"/>
		<path class="st0" d="M86,56.1l-3.4,1.3v-0.7l0.8-0.3v-1.3l-0.8-0.3v-0.7l3.4,1.3V56.1z M84,55.4v0.8l1.1-0.4L84,55.4z"/>
		<path class="st0" d="M86,59v1.2c0,0.9-0.8,1.7-1.7,1.7c-0.9,0-1.7-0.8-1.7-1.7V59H86z M83.2,60.2c0,0.6,0.5,1.1,1.1,1.1
			c0.6,0,1.1-0.5,1.1-1.1v-0.5h-2.2L83.2,60.2z"/>
		<path class="st0" d="M86,65.7l-2.3,0.6l2.3,0.6v0.7l-3.4-0.9V66l2.2-0.6l-2.2-0.6v-0.6l3.4-0.9V64l-2.3,0.6l2.3,0.6V65.7z"/>
		<path class="st0" d="M86,70.7L82.6,72v-0.7l0.8-0.3v-1.3l-0.8-0.3v-0.7L86,70V70.7z M84,69.9v0.8l1.1-0.4L84,69.9z"/>
		<path class="st0" d="M86,75.3v0.7l-2.1-1.2h-1.3v-0.7h1.3l2.1-1.2v0.8l-1.4,0.8L86,75.3z"/>
		<path class="st0" d="M180.9,35.1v0.7h-2.8v1.6h-0.6v-2.3H180.9z"/>
		<path class="st0" d="M180.9,40.8l-3.4,1.3v-0.7l0.8-0.3v-1.3l-0.8-0.3v-0.7l3.4,1.3V40.8z M179,40v0.8l1.1-0.4L179,40z"/>
		<path class="st0" d="M177.6,43.7h3.4V46h-0.6v-1.6h-0.9v1.4h-0.6v-1.4h-1.3V43.7z"/>
		<path class="st0" d="M180.9,49.2l-3.4,1.3v-0.7l0.8-0.3v-1.3l-0.8-0.3v-0.7l3.4,1.3V49.2z M178.9,48.4v0.8l1.1-0.4L178.9,48.4z"/>
		<path class="st0" d="M180.9,53.9v0.7l-2.1-1.2h-1.3v-0.7h1.3l2.1-1.2v0.8l-1.4,0.8L180.9,53.9z"/>
		<path class="st0" d="M180.9,58.5h-0.6v-1.6h-0.7v1.5H179v-1.5h-0.8v1.6h-0.6v-2.3h3.4L180.9,58.5z"/>
		<path class="st0" d="M180.9,60.1V63h-0.6v-1.1h-2.8v-0.7h2.8v-1.1H180.9z"/>
		<path class="st0" d="M180.9,64.4v2.9h-0.6v-1.1h-2.8v-0.7h2.8v-1.1H180.9z"/>
		<path class="st0" d="M180.9,71.3h-0.6v-1.6h-0.7v1.5H179v-1.5h-0.8v1.6h-0.6V69h3.4L180.9,71.3z"/>
		<path class="st0" d="M178.5,75.9c-0.3,0.1-0.5,0.4-0.4,0.7c0,0.3,0.2,0.6,0.4,0.6s0.3-0.1,0.4-0.4l0.1-0.6c0-0.5,0.4-0.9,0.9-0.8
			c0.6,0,1,0.6,1,1.1c0,0,0,0,0,0.1c0.1,0.6-0.4,1.2-1,1.3v-0.7c0.3-0.1,0.4-0.4,0.4-0.6c0-0.3-0.2-0.5-0.4-0.5s-0.3,0.1-0.4,0.4
			l-0.1,0.6c-0.1,0.6-0.4,0.9-0.9,0.9c-0.6,0-1.1-0.5-1.1-1.2c0,0,0-0.1,0-0.1c-0.1-0.7,0.4-1.3,1-1.4L178.5,75.9L178.5,75.9z"/>
		<path class="st0" d="M180.9,79.3v2.9h-0.6v-1.1h-2.8v-0.7h2.8v-1.1H180.9z"/>
		<path class="st0" d="M112.4,39.3h0.7v2.8h1.6v0.6h-2.3V39.3z"/>
		<path class="st0" d="M118.6,39.3v0.6H117v0.7h1.4v0.6H117v0.8h1.6v0.6h-2.3v-3.4H118.6z"/>
		<path class="st0" d="M121.6,42.7c-1,0.1-1.8-0.6-1.9-1.6c-0.1-1,0.6-1.8,1.6-1.9c1-0.1,1.8,0.6,1.9,1.6c0,0.1,0,0.1,0,0.2
			c0.1,0.9-0.6,1.7-1.5,1.7C121.7,42.7,121.7,42.7,121.6,42.7z M121.6,39.9c-0.5,0-0.9,0.5-0.9,1.1s0.3,1.1,0.9,1.1s0.9-0.5,0.9-1.1
			S122.2,39.9,121.6,39.9z"/>
		<path class="st0" d="M127.7,42.7h-0.6l-1.6-2.2v2.2h-0.7v-3.4h0.7l1.5,2.1v-2.1h0.7L127.7,42.7z"/>
		<path class="st0" d="M131.2,39.3l1.3,3.4h-0.7l-0.3-0.8h-1.3l-0.3,0.8h-0.7l1.3-3.4H131.2z M130.4,41.3h0.8l-0.4-1.1L130.4,41.3z"
			/>
		<path class="st0" d="M134.6,41.4v1.3H134v-3.4h1.4c0.6-0.1,1.1,0.3,1.2,0.9c0,0.1,0,0.1,0,0.2c0,0.5-0.3,0.9-0.8,1l0.9,1.3h-0.8
			l-0.9-1.3H134.6z M134.6,40.8h0.6c0.4,0,0.5-0.2,0.5-0.5s-0.2-0.5-0.5-0.5h-0.6V40.8z"/>
		<path class="st0" d="M138.1,39.3h1.2c0.9,0,1.7,0.8,1.7,1.7c0,0.9-0.8,1.7-1.7,1.7h-1.2V39.3z M139.3,42.1c0.6,0,1.1-0.5,1.1-1.1
			c0-0.6-0.5-1.1-1.1-1.1h-0.5v2.1H139.3z"/>
		<path class="st0" d="M145.4,41.7c0.1,0.3,0.4,0.5,0.7,0.4c0.3,0,0.6-0.2,0.6-0.4s-0.1-0.3-0.4-0.4l-0.6-0.1
			c-0.5-0.1-0.9-0.4-0.9-0.9c0-0.6,0.6-1,1.2-1c0,0,0,0,0,0c0.6-0.1,1.2,0.4,1.3,1h-0.7c-0.1-0.3-0.3-0.4-0.6-0.4
			c-0.3,0-0.5,0.2-0.5,0.4s0.1,0.3,0.4,0.4l0.6,0.1c0.6,0.1,0.9,0.4,0.9,1c0,0.7-0.5,1-1.2,1c-0.7,0.1-1.3-0.4-1.4-1L145.4,41.7z"/>
		<path class="st0" d="M148.6,39.3h2.9v0.6h-1.1v2.8h-0.7v-2.8h-1.1V39.3z"/>
		<path class="st0" d="M109.9,74.6c0.7,0,1.3,0.4,1.4,1.1h-0.7c-0.1-0.3-0.4-0.5-0.7-0.5c-0.5,0-0.8,0.5-0.8,1.1s0.3,1.1,0.8,1.1
			c0.3,0,0.6-0.2,0.7-0.5h0.7c-0.1,0.7-0.7,1.2-1.4,1.1c-1-0.1-1.7-1-1.6-1.9C108.4,75.3,109.1,74.6,109.9,74.6L109.9,74.6z"/>
		<path class="st0" d="M114.7,74.6l1.3,3.4h-0.7l-0.3-0.8h-1.3l-0.3,0.8h-0.7l1.3-3.4H114.7z M113.9,76.6h0.8l-0.4-1.1L113.9,76.6z"
			/>
		<path class="st0" d="M117,74.6h2.9v0.6h-1.1V78h-0.7v-2.8H117V74.6z"/>
		<path class="st0" d="M124.5,74.6V78h-0.7v-1.4h-1.5V78h-0.7v-3.4h0.7v1.3h1.5v-1.3H124.5z"/>
		<path class="st0" d="M128.7,74.6v0.6h-1.6V76h1.5v0.6h-1.4v0.8h1.6V78h-2.3v-3.4H128.7z"/>
		<path class="st0" d="M131.1,76.7V78h-0.7v-3.4h1.4c0.5-0.1,1.1,0.2,1.2,0.8c0,0.1,0,0.2,0,0.3c0,0.5-0.3,0.9-0.8,1l0.9,1.3h-0.8
			l-0.8-1.3L131.1,76.7z M131.1,76.1h0.6c0.4,0,0.5-0.2,0.5-0.5s-0.2-0.5-0.5-0.5h-0.6V76.1z"/>
		<path class="st0" d="M135.4,78h-0.7v-3.4h0.7V78z"/>
		<path class="st0" d="M140.1,78h-0.6l-1.6-2.3V78h-0.7v-3.4h0.7l1.5,2.1v-2.1h0.7L140.1,78z"/>
		<path class="st0" d="M144.2,74.6v0.6h-1.6V76h1.4v0.6h-1.4v0.8h1.6V78H142v-3.4H144.2z"/>
		<path class="st0" d="M148.4,74.6h0.7v2.8h1.6V78h-2.3V74.6z"/>
		<path class="st0" d="M155.2,78h-0.6l-1.6-2.2V78h-0.7v-3.4h0.6l1.5,2.1v-2.1h0.7L155.2,78L155.2,78z"/>
	</g>
	<g id="_4-6_H">
		<polygon class="st1" points="118.4,63.7 126.3,64.2 126.3,58.6 125.8,58.6 125.8,58.8 124.7,58.8 124.7,57.3 123.4,57.3 
			122.1,57.3 118.4,57.3 		"/>
		<g>
			<defs>
				<rect id="SVGID_1_" x="92.1" y="50.7" width="76.6" height="17.3"/>
			</defs>
			<clipPath id="SVGID_2_">
				<use xlink:href="#SVGID_1_"  style="overflow:visible;"/>
			</clipPath>
			<g class="st2">
				<polygon class="st3" points="166.9,51.8 166.9,66.8 93,62.3 93,51.8 				"/>
			</g>
		</g>
		<g>
			<defs>
				<rect id="SVGID_3_" x="2.5" y="5.4" width="65.7" height="78.8"/>
			</defs>
			<clipPath id="SVGID_4_">
				<use xlink:href="#SVGID_3_"  style="overflow:visible;"/>
			</clipPath>
			<g class="st4">
				<polyline class="st5" points="66.6,51.8 55.2,58.2 7.3,26.8 				"/>
				<polyline class="st5" points="66.6,53.9 55.2,60.4 7.3,28.9 				"/>
				<polyline class="st5" points="66.6,56.1 55.2,62.5 7.3,31.1 				"/>
				<polyline class="st5" points="66.6,58.2 55.2,64.7 7.3,33.2 				"/>
				<polyline class="st5" points="66.6,60.4 55.2,66.8 7.3,35.4 				"/>
				<polyline class="st5" points="66.6,62.5 55.2,69 7.3,37.5 				"/>
				<polyline class="st5" points="66.6,64.7 55.2,71.1 7.3,39.7 				"/>
				<polyline class="st5" points="66.6,66.8 55.2,73.3 7.3,41.8 				"/>
				<polyline class="st5" points="66.6,69 55.2,75.4 7.3,44 				"/>
				<polyline class="st5" points="66.6,71.1 55.2,77.6 7.3,46.1 				"/>
				<polyline class="st5" points="66.6,73.3 55.2,79.7 7.3,48.3 				"/>
				<line class="st5" x1="66.6" y1="73.3" x2="55.2" y2="79.7"/>
				<g class="st6">
					<path class="st7" d="M12.1,57.6c0.5,0.4,0.5,0.8,0.1,1.1l-0.5-0.3c0.1-0.2,0.1-0.4-0.1-0.5c-0.4-0.3-0.9-0.2-1.4,0.1
						c-0.5,0.3-0.6,0.6-0.2,0.9c0.3,0.2,0.6,0.2,0.9,0.1l0.5,0.3c-0.6,0.2-1.2,0.2-1.8-0.2c-0.6-0.4-0.6-1,0.2-1.5
						C10.6,57.2,11.5,57.2,12.1,57.6z"/>
				</g>
				<g class="st6">
					<path class="st7" d="M15.4,59.9l-1.5,2l-0.5-0.3l0.4-0.5l-0.9-0.6l-0.8,0.2l-0.5-0.3l3.3-0.8L15.4,59.9z M13.5,60.3l0.6,0.4
						l0.5-0.7L13.5,60.3z"/>
				</g>
				<g class="st6">
					<path class="st7" d="M17.1,61.1l1.9,1.4l-0.4,0.3l-0.7-0.5l-2,1.1L15.4,63l2-1.1l-0.7-0.5L17.1,61.1z"/>
					<path class="st7" d="M22.2,64.6L19.8,66l-0.5-0.3l1-0.6l-1-0.7l-1,0.6l-0.5-0.3l2.4-1.4l0.5,0.3l-0.9,0.6l1,0.7l0.9-0.6
						L22.2,64.6z"/>
					<path class="st7" d="M25.1,66.6l-0.4,0.3l-1.1-0.8L23,66.4l1,0.7l-0.4,0.2l-1-0.7L22,67l1.1,0.8L22.7,68l-1.5-1.1l2.4-1.4
						L25.1,66.6z"/>
					<path class="st7" d="M25.3,68.7l-0.9,0.5l-0.5-0.3l2.4-1.4l0.9,0.7c0.5,0.3,0.5,0.7,0,1c-0.4,0.2-0.8,0.2-1.2,0l-0.3,1
						l-0.5-0.4l0.3-0.9L25.3,68.7z M25.7,68.5l0.4,0.3c0.2,0.2,0.5,0.2,0.7,0.1c0.2-0.1,0.2-0.3,0-0.4l-0.4-0.3L25.7,68.5z"/>
					<path class="st7" d="M27.4,71.3L26.9,71l2.4-1.4l0.5,0.3L27.4,71.3z"/>
					<path class="st7" d="M30.6,73.5l-0.4-0.3l0.5-1.7l-1.6,0.9l-0.5-0.3l2.4-1.4l0.4,0.3L31,72.7l1.5-0.9l0.5,0.3L30.6,73.5z"/>
					<path class="st7" d="M35.9,74.1l-0.4,0.3l-1.1-0.8l-0.5,0.3l1,0.7l-0.4,0.2l-1-0.7l-0.6,0.3l1.1,0.8l-0.4,0.3l-1.5-1.1l2.4-1.4
						L35.9,74.1z"/>
					<path class="st7" d="M38.8,76.2l0.5,0.3l-1.9,1.1l1.1,0.7l-0.4,0.3l-1.5-1.1L38.8,76.2z"/>
				</g>
				<g class="st6">
					<path class="st7" d="M41.1,80.8l-0.4-0.3l0.5-1.7l-1.6,0.9l-0.5-0.3l2.4-1.4l0.4,0.3L41.5,80l1.5-0.9l0.5,0.3L41.1,80.8z"/>
				</g>
				<polyline class="st8" points="66.6,49.6 55.2,56.1 7.3,24.6 				"/>
				<line class="st8" x1="55.2" y1="53.9" x2="55.2" y2="81.8"/>
				<line class="st8" x1="61" y1="77.8" x2="60.3" y2="78.2"/>
				<polyline class="st8" points="61,77.8 61.5,78.1 66.6,75.1 66.6,47.5 				"/>
				<polyline class="st8" points="66.6,47.5 55.2,53.9 7.3,22.4 				"/>
				<g>
					<defs>
						<rect id="SVGID_5_" x="2.5" y="5.4" width="65.4" height="78.8"/>
					</defs>
					<clipPath id="SVGID_6_">
						<use xlink:href="#SVGID_5_"  style="overflow:visible;"/>
					</clipPath>
					<g class="st9">
						<path class="st8" d="M61,77.8v-0.6c0-0.1,0-0.2-0.1-0.3"/>
						<path class="st8" d="M61.5,78.1v-0.9c0-0.2-0.2-0.5-0.6-0.3c-0.3,0.2-0.5,0.5-0.5,0.8v1l-5.1,3l-6.7-4.6L40,71.3l-7.1-4.9
							l-10.5-7.2l-15-10.9V22.4l1-0.6"/>
					</g>
				</g>
				<line class="st8" x1="57" y1="48.6" x2="57" y2="47.5"/>
				<line class="st8" x1="14.2" y1="24.5" x2="14.2" y2="26.4"/>
				<line class="st8" x1="57" y1="48.6" x2="57.6" y2="49"/>
				<line class="st8" x1="57" y1="47.5" x2="57.6" y2="47.9"/>
				<line class="st8" x1="14.5" y1="13" x2="14.5" y2="11.5"/>
				<line class="st8" x1="14.5" y1="13.1" x2="14.5" y2="11.5"/>
				<line class="st8" x1="14.3" y1="23" x2="14.3" y2="19.6"/>
				<polyline class="st8" points="15.4,25.7 14.2,26.4 8.4,22.6 8.4,20.6 10.4,19.5 				"/>
				<polyline class="st8" points="14.5,17.5 17.2,15.9 17.2,12.4 17.2,12.3 16,11.5 				"/>
				<g>
					<defs>
						<rect id="SVGID_7_" x="2.5" y="5.4" width="65.4" height="78.8"/>
					</defs>
					<clipPath id="SVGID_8_">
						<use xlink:href="#SVGID_7_"  style="overflow:visible;"/>
					</clipPath>
					<g class="st10">
						<path class="st8" d="M13.9,14.9c0.2,0.6,0.1,1.2-0.4,1.2s-1-0.5-1.2-1.2s-0.1-1.2,0.4-1.2S13.7,14.2,13.9,14.9z"/>
						<path class="st8" d="M15.1,14.9c-0.2,0.6,0,1.2,0.4,1.2s1-0.5,1.2-1.2s0-1.2-0.4-1.2S15.3,14.3,15.1,14.9z"/>
					</g>
				</g>
				<line class="st8" x1="14.3" y1="19.6" x2="18.7" y2="17"/>
				<line class="st8" x1="10.4" y1="17.1" x2="14.3" y2="19.6"/>
				<line class="st8" x1="8.4" y1="20.6" x2="14.2" y2="24.5"/>
				<polyline class="st8" points="17.3,15.8 17.5,15.9 17.5,17.1 17.5,17.1 14.5,18.9 14.5,18.8 14.5,14 				"/>
				<polyline class="st8" points="11.6,16.4 10.4,17.1 10.4,20.4 10.4,20.5 14.2,23 				"/>
				<polyline class="st8" points="18.8,18.8 21.1,20.3 21.1,21.6 				"/>
				<line class="st8" x1="14.4" y1="14.1" x2="17.3" y2="12.4"/>
				<line class="st8" x1="11.9" y1="12.3" x2="13" y2="11.7"/>
				<line class="st8" x1="11.9" y1="12.3" x2="14.5" y2="14.1"/>
				<polyline class="st8" points="17.5,16.2 18.8,17 18.8,17.1 18.8,20.3 18.7,20.4 14.2,23 				"/>
				<line class="st8" x1="13" y1="10.6" x2="14.5" y2="11.6"/>
				<line class="st8" x1="15.3" y1="10.1" x2="16.1" y2="10.6"/>
				<g>
					<defs>
						<rect id="SVGID_9_" x="2.5" y="5.4" width="65.4" height="78.8"/>
					</defs>
					<clipPath id="SVGID_10_">
						<use xlink:href="#SVGID_9_"  style="overflow:visible;"/>
					</clipPath>
					<g class="st11">
						<path class="st8" d="M13.1,8.8C13,8.8,13,8.9,12.9,9L13,9.2c0.1,0.1,0.4,0.2,1,0.1s1.8-0.8,1.9-1.4l-0.2-0.4
							c-0.1,0-0.2,0-0.4,0"/>
					</g>
				</g>
				<polyline class="st8" points="13.6,6.4 14.4,6.8 14.7,6.7 15.3,5.9 				"/>
				<g>
					<defs>
						<rect id="SVGID_11_" x="2.5" y="5.4" width="65.4" height="78.8"/>
					</defs>
					<clipPath id="SVGID_12_">
						<use xlink:href="#SVGID_11_"  style="overflow:visible;"/>
					</clipPath>
					<g class="st12">
						<path class="st8" d="M15.8,8.2c0.2,0.7-0.3,1.4-1,1.6c-0.2,0-0.4,0-0.6,0c-0.3-0.1-0.5-0.2-0.7-0.4h-0.1"/>
						<path class="st8" d="M13.2,9.1c0-0.1-0.1-0.2-0.1-0.3C13,8,13.5,7.3,14.2,7.2c0,0,0,0,0,0c0.4-0.1,0.9,0.1,1.2,0.4
							c0.1,0.1,0.2,0.2,0.2,0.3"/>
						<path class="st8" d="M15.4,10.2c0,0,0-0.1,0-0.1c0,0,0-0.1-0.1-0.1c-0.1,0-0.2,0-0.2,0v0l0.1-0.3"/>
						<path class="st8" d="M14.8,10.2c0,0.1,0,0.1,0,0.2s0.1,0.1,0.3,0"/>
					</g>
				</g>
				<polyline class="st8" points="14.1,10.8 14.1,10.6 14.3,10.3 14.2,10.2 13.9,10.2 13.6,10 13.7,9.7 				"/>
				<line class="st8" x1="11.9" y1="15.8" x2="14.5" y2="17.6"/>
				<polyline class="st8" points="14.5,19 11.6,17.1 11.5,17 11.5,16 11.5,16 11.8,15.8 11.9,15.8 11.9,12.3 				"/>
				<polyline class="st8" points="13.8,10 13,10.6 13,10.6 13,12.1 14.5,13.1 14.5,13.1 16,12.2 16,10.6 16,10.6 14.5,11.5 				"/>
				<line class="st8" x1="40.1" y1="38.7" x2="49.6" y2="44.7"/>
				<polyline class="st8" points="61.9,46.5 59.7,47.8 57.7,46.5 				"/>
				<line class="st8" x1="59.7" y1="50.9" x2="59.7" y2="47.8"/>
				<polyline class="st8" points="57.6,47.1 53.3,49.7 15.4,25.5 				"/>
				<line class="st5" x1="66.6" y1="47.5" x2="21.1" y2="21.1"/>
				<line class="st5" x1="51" y1="39" x2="24" y2="23.4"/>
				<line class="st8" x1="53.3" y1="50.8" x2="53.3" y2="49.7"/>
				<line class="st8" x1="49.6" y1="46" x2="49.6" y2="44.7"/>
				<polygon class="st8" points="55.3,41.4 55.3,42.7 49.6,46 40.1,40 40.1,38.7 44.3,36.2 49.9,39.6 51.1,38.9 				"/>
				<line class="st8" x1="55.3" y1="41.4" x2="49.6" y2="44.7"/>
				<line class="st8" x1="24" y1="23.3" x2="20" y2="25.7"/>
				<polygon class="st8" points="16.5,24.8 16.5,23.5 16.5,23.5 20.4,21.1 24,23.3 24,24.5 24,24.5 20,27 				"/>
				<polyline class="st8" points="57,48.6 53.3,50.8 15.4,26.6 15.4,26.6 15.4,25.5 16.5,24.9 				"/>
				<line class="st8" x1="20" y1="25.7" x2="16.5" y2="23.5"/>
				<line class="st8" x1="20" y1="27" x2="20" y2="25.7"/>
				<polyline class="st8" points="61.1,46 61.4,45.8 61.4,45 55.3,41.5 				"/>
				<line class="st8" x1="61.4" y1="45" x2="60.9" y2="45.2"/>
				<line class="st8" x1="21.1" y1="20.4" x2="14.2" y2="24.5"/>
				<polyline class="st8" points="58.8,45.8 57.6,46.5 57.6,49.5 59.7,50.9 61.9,49.6 61.9,46.5 61,46 				"/>
				<g>
					<defs>
						<rect id="SVGID_13_" x="2.5" y="5.4" width="65.4" height="78.8"/>
					</defs>
					<clipPath id="SVGID_14_">
						<use xlink:href="#SVGID_13_"  style="overflow:visible;"/>
					</clipPath>
					<g class="st13">
						<path class="st8" d="M59.7,44.6c-0.5,0.1-0.9,0.6-0.9,1.1v0.8c0,0.3,0.5,0.6,1.1,0.6s1.1-0.3,1.1-0.6v-0.8
							c0-0.6-0.4-1-0.9-1.1v-0.1c0-0.1-0.1-0.1-0.2-0.1s-0.2,0.1-0.2,0.1L59.7,44.6z"/>
					</g>
				</g>
				<polyline class="st1" points="20,45.9 20,52.3 24,54.9 23.9,48.4 				"/>
				<line class="st14" x1="23.9" y1="50.5" x2="20" y2="48"/>
				<line class="st14" x1="24" y1="52.7" x2="20" y2="50.2"/>
			</g>
		</g>
	</g>
</g>
</svg>
