<?xml version="1.0" encoding="utf-8"?>
<!-- Generator: Adobe Illustrator 23.0.0, SVG Export Plug-In . SVG Version: 6.00 Build 0)  -->
<svg version="1.1" id="Layer_1" xmlns="http://www.w3.org/2000/svg" xmlns:xlink="http://www.w3.org/1999/xlink" x="0px" y="0px"
	 viewBox="0 0 200.6 198.9" style="enable-background:new 0 0 200.6 198.9;" xml:space="preserve">
<style type="text/css">
	.st0{enable-background:new    ;}
	.st1{fill:#D1D3D4;}
	.st2{clip-path:url(#SVGID_2_);}
	.st3{fill:#231F20;}
	.st4{clip-path:url(#SVGID_4_);}
	.st5{opacity:0.5;}
	.st6{clip-path:url(#SVGID_6_);}
	.st7{clip-path:url(#SVGID_8_);}
	.st8{fill:none;stroke:#D1D3D4;stroke-width:0.5;stroke-miterlimit:10;}
	.st9{clip-path:url(#SVGID_10_);}
	.st10{fill:none;stroke:#D1D3D4;stroke-width:1.09;stroke-miterlimit:10;}
	.st11{clip-path:url(#SVGID_12_);}
	.st12{clip-path:url(#SVGID_14_);}
	.st13{fill:none;stroke:#231F20;stroke-width:0.15;stroke-miterlimit:10;}
	.st14{fill:none;stroke:#231F20;stroke-width:0.14;stroke-linejoin:bevel;}
	.st15{fill:none;stroke:#231F20;stroke-width:0.14;stroke-miterlimit:10;}
	.st16{clip-path:url(#SVGID_16_);}
	.st17{clip-path:url(#SVGID_18_);}
	.st18{clip-path:url(#SVGID_20_);}
	.st19{clip-path:url(#SVGID_22_);}
	.st20{clip-path:url(#SVGID_24_);}
	.st21{fill:none;stroke:#FFFFFF;stroke-width:0.13;stroke-miterlimit:10;}
	.st22{clip-path:url(#SVGID_26_);}
	.st23{clip-path:url(#SVGID_28_);}
	.st24{clip-path:url(#SVGID_30_);}
	.st25{clip-path:url(#SVGID_32_);}
	.st26{clip-path:url(#SVGID_34_);}
	.st27{clip-path:url(#SVGID_36_);}
	.st28{clip-path:url(#SVGID_38_);}
</style>
<title>residence_C_15_key</title>
<g>
	<g id="Layer_1_copy">
		<g>
			<g class="st0">
				<path class="st1" d="M34,143.2c-0.8,0-1.2-0.5-1.2-1.4V140h4.3v1.6c0,0.9-0.4,1.5-1.2,1.5c-0.5,0-0.8-0.3-0.9-0.6
					C34.9,142.9,34.5,143.2,34,143.2z M33.6,140.8v0.8c0,0.4,0.2,0.6,0.5,0.6c0.3,0,0.5-0.2,0.5-0.6v-0.8H33.6z M35.3,141.5
					c0,0.4,0.2,0.7,0.5,0.7c0.3,0,0.5-0.2,0.5-0.7v-0.7h-1V141.5z"/>
				<path class="st1" d="M34.4,145.7h-1.6v-0.9h4.3v1.8c0,0.9-0.5,1.5-1.4,1.5c-0.7,0-1.1-0.4-1.3-1l-1.7,1.1v-1l1.6-1.1V145.7z
					 M35.1,145.7v0.8c0,0.4,0.2,0.7,0.6,0.7c0.4,0,0.6-0.2,0.6-0.7v-0.8H35.1z"/>
			</g>
			<g class="st0">
				<path class="st1" d="M32.7,152.7c0-1.2,0.9-2,2.2-2c1.3,0,2.2,0.8,2.2,2c0,1.2-0.9,2-2.2,2C33.7,154.7,32.7,153.9,32.7,152.7z
					 M36.4,152.7c0-0.7-0.6-1.1-1.4-1.1c-0.8,0-1.4,0.4-1.4,1.1c0,0.7,0.6,1.1,1.4,1.1C35.8,153.8,36.4,153.4,36.4,152.7z"/>
			</g>
			<g class="st0">
				<path class="st1" d="M37.1,158.9l-4.3,1.6v-0.9l1-0.4v-1.6l-1-0.4v-0.9l4.3,1.6V158.9z M34.6,157.9v1.1l1.4-0.5L34.6,157.9z"/>
			</g>
			<g class="st0">
				<path class="st1" d="M37.1,162.6v1.5c0,1.3-0.8,2.1-2.2,2.1s-2.2-0.8-2.2-2.1v-1.5H37.1z M33.6,164.1c0,0.8,0.5,1.3,1.4,1.3
					c0.8,0,1.4-0.4,1.4-1.3v-0.6h-2.7V164.1z"/>
			</g>
			<g class="st0">
				<path class="st1" d="M37.1,171.1l-2.9,0.7l2.9,0.7v0.9l-4.3-1.1v-0.8l2.8-0.8l-2.8-0.8v-0.8l4.3-1.1v0.9l-2.9,0.7l2.9,0.8V171.1
					z"/>
			</g>
			<g class="st0">
				<path class="st1" d="M37.1,177.4l-4.3,1.6v-0.9l1-0.4v-1.6l-1-0.4v-0.9l4.3,1.6V177.4z M34.6,176.4v1.1l1.4-0.5L34.6,176.4z"/>
			</g>
			<g class="st0">
				<path class="st1" d="M37.1,183.3v0.9l-2.7-1.6h-1.6v-0.9h1.6l2.7-1.5v1l-1.8,1L37.1,183.3z"/>
			</g>
		</g>
		<g>
			<g class="st0">
				<path class="st1" d="M167.5,132.1v0.9H164v2h-0.8v-2.9H167.5z"/>
			</g>
			<g class="st0">
				<path class="st1" d="M167.5,139.4l-4.3,1.6v-0.9l1-0.4v-1.6l-1-0.4v-0.9l4.3,1.6V139.4z M165,138.4v1.1l1.4-0.5L165,138.4z"/>
			</g>
			<g class="st0">
				<path class="st1" d="M163.2,143.1h4.3v2.9h-0.8v-2h-1.1v1.8h-0.8V144h-1.6V143.1z"/>
			</g>
			<g class="st0">
				<path class="st1" d="M167.5,150.1l-4.3,1.6v-0.9l1-0.4v-1.6l-1-0.4v-0.9l4.3,1.6V150.1z M165,149.1v1.1l1.4-0.5L165,149.1z"/>
			</g>
			<g class="st0">
				<path class="st1" d="M167.5,156v0.9l-2.7-1.6h-1.6v-0.9h1.6l2.7-1.5v1l-1.8,1L167.5,156z"/>
				<path class="st1" d="M167.5,161.4h-0.8v-2h-0.9v1.8h-0.8v-1.8h-1v2h-0.8v-2.9h4.3V161.4z"/>
				<path class="st1" d="M167.5,162.8v3.7h-0.8v-1.4h-3.5v-0.9h3.5v-1.4H167.5z"/>
				<path class="st1" d="M167.5,167.8v3.7h-0.8v-1.4h-3.5v-0.9h3.5v-1.4H167.5z"/>
				<path class="st1" d="M167.5,176h-0.8v-2h-0.9v1.8h-0.8v-1.8h-1v2h-0.8V173h4.3V176z"/>
			</g>
			<g class="st0">
				<path class="st1" d="M164.5,184.1c-0.4,0.1-0.6,0.4-0.6,0.9c0,0.4,0.2,0.7,0.5,0.7c0.3,0,0.4-0.2,0.5-0.5l0.2-0.8
					c0.1-0.6,0.5-1.1,1.2-1.1c0.8,0,1.3,0.6,1.3,1.5c0,1-0.5,1.5-1.2,1.7v-0.9c0.3-0.1,0.5-0.3,0.5-0.8c0-0.4-0.2-0.7-0.5-0.7
					c-0.2,0-0.4,0.2-0.5,0.5l-0.2,0.8c-0.2,0.7-0.6,1.1-1.2,1.1c-0.8,0-1.3-0.7-1.3-1.6c0-1,0.5-1.6,1.3-1.8V184.1z"/>
			</g>
			<g class="st0">
				<path class="st1" d="M167.5,188.4v3.7h-0.8v-1.4h-3.5v-0.9h3.5v-1.4H167.5z"/>
			</g>
		</g>
		<g>
			<g class="st0">
				<path class="st1" d="M75.5,132.3h0.9v3.5h2v0.8h-2.9V132.3z"/>
				<path class="st1" d="M82.9,132.3v0.8h-2v0.9h1.8v0.8h-1.8v1h2v0.8H80v-4.3H82.9z"/>
			</g>
			<g class="st0">
				<path class="st1" d="M87.3,136.7c-1.2,0-2-0.9-2-2.2c0-1.3,0.8-2.2,2-2.2c1.2,0,2,0.9,2,2.2C89.3,135.8,88.5,136.7,87.3,136.7z
					 M87.3,133.1c-0.7,0-1.1,0.6-1.1,1.4c0,0.8,0.4,1.4,1.1,1.4c0.7,0,1.1-0.6,1.1-1.4C88.4,133.7,88,133.1,87.3,133.1z"/>
			</g>
			<g class="st0">
				<path class="st1" d="M94.9,136.7h-0.7l-2-2.9v2.9h-0.9v-4.3h0.8l1.9,2.7v-2.7h0.9V136.7z"/>
			</g>
			<g class="st0">
				<path class="st1" d="M99.4,132.3l1.6,4.3h-0.9l-0.4-1h-1.6l-0.4,1h-0.9l1.6-4.3H99.4z M98.4,134.9h1.1l-0.5-1.4L98.4,134.9z"/>
			</g>
			<g class="st0">
				<path class="st1" d="M103.8,135v1.6h-0.9v-4.3h1.8c0.9,0,1.5,0.5,1.5,1.4c0,0.7-0.4,1.1-1,1.3l1.1,1.7h-1l-1.1-1.6H103.8z
					 M103.8,134.3h0.8c0.4,0,0.7-0.2,0.7-0.6c0-0.4-0.2-0.6-0.7-0.6h-0.8V134.3z"/>
				<path class="st1" d="M107.9,132.3h1.5c1.3,0,2.1,0.8,2.1,2.2s-0.8,2.2-2.1,2.2h-1.5V132.3z M109.3,135.9c0.8,0,1.3-0.5,1.3-1.4
					c0-0.8-0.4-1.4-1.3-1.4h-0.6v2.7H109.3z"/>
			</g>
			<g class="st0">
				<path class="st1" d="M117.5,135.4c0.1,0.4,0.4,0.6,0.9,0.6c0.4,0,0.7-0.2,0.7-0.5c0-0.3-0.2-0.4-0.5-0.5l-0.8-0.2
					c-0.6-0.1-1.1-0.5-1.1-1.2c0-0.8,0.6-1.3,1.5-1.3c1,0,1.5,0.5,1.7,1.2H119c-0.1-0.3-0.3-0.5-0.8-0.5c-0.4,0-0.7,0.2-0.7,0.5
					c0,0.2,0.2,0.4,0.5,0.5l0.8,0.2c0.7,0.2,1.1,0.6,1.1,1.2c0,0.8-0.7,1.3-1.6,1.3c-1,0-1.6-0.5-1.8-1.3H117.5z"/>
			</g>
			<g class="st0">
				<path class="st1" d="M121.6,132.3h3.7v0.8h-1.4v3.5H123v-3.5h-1.4V132.3z"/>
			</g>
		</g>
		<g>
			<g class="st0">
				<path class="st1" d="M72.3,186c1,0,1.6,0.6,1.8,1.5h-0.9c-0.1-0.4-0.4-0.7-0.9-0.7c-0.7,0-1.1,0.6-1.1,1.4
					c0,0.8,0.4,1.4,1.1,1.4c0.5,0,0.8-0.3,0.9-0.7h0.9c-0.2,0.9-0.8,1.5-1.8,1.5c-1.1,0-2-0.9-2-2.2C70.3,186.9,71.2,186,72.3,186z"
					/>
			</g>
			<g class="st0">
				<path class="st1" d="M78.4,186l1.6,4.3h-0.9l-0.4-1h-1.6l-0.4,1h-0.9l1.6-4.3H78.4z M77.4,188.6h1.1l-0.5-1.4L77.4,188.6z"/>
			</g>
			<g class="st0">
				<path class="st1" d="M81.4,186h3.7v0.8h-1.4v3.5h-0.9v-3.5h-1.4V186z"/>
			</g>
			<g class="st0">
				<path class="st1" d="M90.9,186v4.3H90v-1.8h-1.9v1.8h-0.9V186h0.9v1.7H90V186H90.9z"/>
			</g>
			<g class="st0">
				<path class="st1" d="M96.2,186v0.8h-2v0.9H96v0.8h-1.8v1h2v0.8h-2.9V186H96.2z"/>
				<path class="st1" d="M98.8,188.7v1.6h-0.9V186h1.8c0.9,0,1.5,0.5,1.5,1.4c0,0.7-0.4,1.1-1,1.3l1.1,1.7h-1l-1.1-1.6H98.8z
					 M98.8,188h0.8c0.4,0,0.7-0.2,0.7-0.6c0-0.4-0.2-0.6-0.7-0.6h-0.8V188z"/>
			</g>
			<g class="st0">
				<path class="st1" d="M104.8,190.3h-0.9V186h0.9V190.3z"/>
			</g>
			<g class="st0">
				<path class="st1" d="M110.8,190.3h-0.7l-2-2.9v2.9h-0.9V186h0.8l1.9,2.7V186h0.9V190.3z"/>
				<path class="st1" d="M115.5,186v0.8h-2v0.9h1.8v0.8h-1.8v1h2v0.8h-2.9V186H115.5z"/>
				<path class="st1" d="M119.6,186h0.9v3.5h2v0.8h-2.9V186z"/>
			</g>
			<g class="st0">
				<path class="st1" d="M130,190.3h-0.7l-2-2.9v2.9h-0.9V186h0.8l1.9,2.7V186h0.9V190.3z"/>
			</g>
		</g>
	</g>
	<g>
		<g>
			<defs>
				<rect id="SVGID_1_" x="44.3" y="148.8" width="112" height="25.3"/>
			</defs>
			<clipPath id="SVGID_2_">
				<use xlink:href="#SVGID_1_"  style="overflow:visible;"/>
			</clipPath>
			<g class="st2">
				<polygon class="st3" points="95.7,152.4 120.6,152.4 120.6,166.2 104.3,165.2 104.3,163.4 104.3,162 104.3,160.3 103.2,160.3 
					103.2,158.4 99.9,158.4 99.9,157.8 97.4,157.8 97.4,155 95.7,155 				"/>
				<g>
					<defs>
						<rect id="SVGID_3_" x="44.3" y="148.8" width="112" height="25.3"/>
					</defs>
					<clipPath id="SVGID_4_">
						<use xlink:href="#SVGID_3_"  style="overflow:visible;"/>
					</clipPath>
					<g class="st4">
						<g class="st5">
							<g>
								<defs>
									<rect id="SVGID_5_" x="95.7" y="150.5" width="24.9" height="1.8"/>
								</defs>
								<clipPath id="SVGID_6_">
									<use xlink:href="#SVGID_5_"  style="overflow:visible;"/>
								</clipPath>
								<g class="st6">
									<polygon class="st3" points="99.5,150.5 99.5,150.9 95.7,150.9 95.7,152.3 120.6,152.3 120.6,150.9 112.6,150.9 
										112.6,150.5 									"/>
								</g>
							</g>
						</g>
						<g class="st5">
							<g>
								<defs>
									<rect id="SVGID_7_" x="99.9" y="164.9" width="20.7" height="5.3"/>
								</defs>
								<clipPath id="SVGID_8_">
									<use xlink:href="#SVGID_7_"  style="overflow:visible;"/>
								</clipPath>
								<g class="st7">
									<polygon class="st3" points="99.9,164.9 99.9,169.3 112.6,170.1 112.6,169.7 120.6,170.2 120.6,166.3 99.9,164.9 									
										"/>
								</g>
							</g>
						</g>
					</g>
				</g>
				<polygon class="st8" points="140.9,152.3 140.9,153.9 146.3,153.9 146.3,159.6 148.8,159.6 148.8,158 153.2,158.1 153.2,163 
					150.1,163 148.7,163 148.7,162.2 146.2,162.2 146.3,167.5 99.9,164.9 99.9,168.8 95.3,168.5 95.2,164.5 63.3,163 63.3,165.2 
					47.2,164.6 47.3,151.7 62.8,151.8 62.8,152.4 				"/>
				<g>
					<defs>
						<rect id="SVGID_9_" x="44.3" y="148.8" width="112" height="25.3"/>
					</defs>
					<clipPath id="SVGID_10_">
						<use xlink:href="#SVGID_9_"  style="overflow:visible;"/>
					</clipPath>
					<g class="st9">
						<polygon class="st10" points="153.6,150.5 153.6,172.4 45.6,165.7 45.7,150.5 						"/>
					</g>
				</g>
			</g>
		</g>
		<g>
			<defs>
				<rect id="SVGID_11_" x="112.1" y="10.5" width="82.8" height="100"/>
			</defs>
			<clipPath id="SVGID_12_">
				<use xlink:href="#SVGID_11_"  style="overflow:visible;"/>
			</clipPath>
			<g class="st11">
				<g>
					<defs>
						<rect id="SVGID_13_" x="112.1" y="10.5" width="82.8" height="100"/>
					</defs>
					<clipPath id="SVGID_14_">
						<use xlink:href="#SVGID_13_"  style="overflow:visible;"/>
					</clipPath>
					<g class="st12">
						<path class="st13" d="M5.6,53.2c-0.1,0.1-0.1,0.2-0.2,0.3l0.1,0.3C5.6,54,6,54.1,6.8,53.9s2.2-1,2.4-1.8l-0.2-0.5
							c-0.2,0-0.3,0-0.5,0"/>
						<path class="st13" d="M8.9,52.5C9,52.7,9,53,8.9,53.2c-0.2,0.9-1.1,1.5-2,1.3C6.6,54.5,6.2,54.3,6,54l0,0"/>
						<path class="st13" d="M5.7,53.5c-0.1-0.1-0.1-0.3-0.1-0.4c-0.1-0.9,0.5-1.8,1.4-1.9c0,0,0,0,0,0c0.7-0.1,1.4,0.2,1.8,0.9"/>
						<path class="st13" d="M6.6,60.9c0.3,0.8,0.1,1.5-0.5,1.5s-1.2-0.7-1.5-1.5s-0.1-1.5,0.5-1.5S6.3,60.1,6.6,60.9z"/>
						<path class="st13" d="M8.1,60.9c-0.3,0.8-0.1,1.5,0.5,1.5s1.2-0.7,1.5-1.5s0.1-1.5-0.5-1.5S8.4,60.1,8.1,60.9z"/>
						<path class="st14" d="M8.5,55c0-0.1,0-0.1,0-0.2c0,0-0.1-0.1-0.1-0.1c-0.1,0-0.2,0-0.3,0v-0.1l0.1-0.4"/>
						<path class="st15" d="M7.7,55c0,0.1,0,0.2,0.1,0.2s0.2,0.1,0.3,0"/>
						<path class="st13" d="M14.9,104.1v-5.2l-5.2,2.9v5.4l-2.3,1.4l-17.4-8.2l-14-7l-3.2-1.8v-3.7c-0.1-0.8-0.6-1.6-1.4-2
							c-0.4-0.3-0.9-0.2-1.2,0.2c-0.1,0.2-0.2,0.4-0.1,0.6v1.8"/>
						<path class="st13" d="M15.7,69.5l1.5,1v32.3l-2.3,1.3c-1.2-0.3-2.4-0.2-3.5,0.2l-1.2,0.7c-0.2,0.1-0.4,0.2-0.5,0.4"/>
					</g>
				</g>
				<polyline class="st13" points="193.3,69.3 178.9,77.4 118.7,37.8 				"/>
				<polyline class="st13" points="193.3,72 178.9,80.1 118.7,40.5 				"/>
				<polyline class="st13" points="193.3,74.7 178.9,82.8 118.7,43.2 				"/>
				<polyline class="st13" points="193.3,77.4 178.9,85.5 118.7,45.9 				"/>
				<polyline class="st13" points="193.3,80.1 178.9,88.2 118.7,48.6 				"/>
				<polyline class="st13" points="193.3,82.8 178.9,90.9 118.7,51.3 				"/>
				<polyline class="st13" points="193.3,85.5 178.9,93.6 118.7,54 				"/>
				<polyline class="st13" points="193.3,88.2 178.9,96.3 118.7,56.7 				"/>
				<polyline class="st13" points="193.3,90.9 178.9,99.1 118.7,59.4 				"/>
				<polyline class="st13" points="193.3,93.7 178.9,101.8 118.7,62.1 				"/>
				<polyline class="st13" points="193.3,96.4 178.9,104.5 118.7,64.8 				"/>
				<g class="st0">
					<path class="st1" d="M124.7,76.6c0.7,0.5,0.7,1,0.2,1.4l-0.6-0.4c0.2-0.2,0.2-0.5-0.1-0.7c-0.5-0.3-1.2-0.3-1.7,0.1
						c-0.6,0.3-0.7,0.8-0.3,1.1c0.3,0.2,0.7,0.2,1.1,0.2l0.6,0.4c-0.7,0.3-1.6,0.2-2.2-0.2c-0.8-0.5-0.7-1.3,0.2-1.8
						C122.7,76.1,123.9,76.1,124.7,76.6z"/>
				</g>
				<g class="st0">
					<path class="st1" d="M128.8,79.5l-1.9,2.5l-0.6-0.4l0.5-0.6l-1.1-0.7l-1,0.2l-0.6-0.4l4.1-1L128.8,79.5z M126.3,80.1l0.7,0.5
						l0.7-0.8L126.3,80.1z"/>
				</g>
				<g class="st0">
					<path class="st1" d="M130.9,81l2.4,1.7l-0.5,0.3l-0.9-0.6l-2.5,1.4l-0.6-0.4l2.5-1.4l-0.9-0.6L130.9,81z"/>
					<path class="st1" d="M137.3,85.5l-3,1.8l-0.6-0.4l1.3-0.7l-1.3-0.9l-1.3,0.7l-0.6-0.4l3-1.8l0.6,0.4l-1.2,0.7l1.3,0.9l1.2-0.7
						L137.3,85.5z"/>
				</g>
				<g class="st0">
					<path class="st1" d="M140.9,88l-0.5,0.3l-1.4-0.9l-0.7,0.4l1.2,0.9l-0.5,0.3l-1.2-0.9l-0.7,0.4l1.4,0.9l-0.6,0.3l-1.9-1.4
						l3-1.8L140.9,88z"/>
					<path class="st1" d="M141.2,90.6l-1.1,0.7l-0.6-0.4l3-1.8l1.2,0.8c0.6,0.4,0.7,0.9,0,1.3c-0.5,0.3-1,0.3-1.5,0.1l-0.4,1.2
						l-0.7-0.5l0.4-1.1L141.2,90.6z M141.7,90.3l0.6,0.4c0.3,0.2,0.6,0.2,0.9,0.1c0.3-0.1,0.3-0.4,0-0.6l-0.6-0.4L141.7,90.3z"/>
					<path class="st1" d="M143.8,93.9l-0.6-0.4l3-1.8l0.6,0.4L143.8,93.9z"/>
					<path class="st1" d="M147.9,96.7l-0.5-0.3l0.7-2.1l-2,1.2l-0.6-0.4l3-1.8l0.6,0.4l-0.6,2l1.9-1.1l0.6,0.4L147.9,96.7z"/>
					<path class="st1" d="M154.5,97.5l-0.5,0.3l-1.4-0.9l-0.7,0.4l1.2,0.9l-0.5,0.3l-1.2-0.9l-0.7,0.4l1.4,0.9l-0.6,0.3l-1.9-1.4
						l3-1.8L154.5,97.5z"/>
					<path class="st1" d="M158.2,100l0.6,0.4l-2.5,1.4l1.3,0.9l-0.6,0.3l-1.9-1.3L158.2,100z"/>
				</g>
				<g class="st0">
					<path class="st1" d="M161.1,105.9l-0.5-0.3l0.7-2.1l-2,1.2l-0.6-0.4l3-1.8l0.6,0.4l-0.6,2l1.9-1.1l0.6,0.4L161.1,105.9z"/>
				</g>
				<polyline class="st15" points="193.3,66.6 178.9,74.7 118.7,35.1 				"/>
				<line class="st15" x1="178.9" y1="71.9" x2="178.9" y2="107.1"/>
				<line class="st15" x1="186.3" y1="102.1" x2="185.4" y2="102.6"/>
				<polyline class="st15" points="186.3,102.1 186.8,102.4 193.3,98.7 193.3,63.8 				"/>
				<polyline class="st15" points="193.3,63.8 178.9,71.9 118.7,32.3 				"/>
				<g>
					<defs>
						<rect id="SVGID_15_" x="112.1" y="10.5" width="82.8" height="100"/>
					</defs>
					<clipPath id="SVGID_16_">
						<use xlink:href="#SVGID_15_"  style="overflow:visible;"/>
					</clipPath>
					<g class="st16">
						<path class="st15" d="M186.3,102.1v-0.8c0-0.1-0.1-0.3-0.2-0.3"/>
						<path class="st15" d="M186.8,102.4v-1.1c0-0.3-0.2-0.6-0.8-0.3c-0.4,0.2-0.6,0.6-0.7,1.1v1.2l-6.4,3.8l-8.4-5.8l-10.7-7.3
							l-9-6.2l-13.3-9.1L118.7,65V32.3l1.3-0.8"/>
					</g>
				</g>
				<line class="st15" x1="181.2" y1="65.3" x2="181.2" y2="63.8"/>
				<line class="st15" x1="127.3" y1="34.9" x2="127.3" y2="37.3"/>
				<line class="st15" x1="181.2" y1="65.3" x2="182" y2="65.8"/>
				<line class="st15" x1="181.2" y1="63.8" x2="182" y2="64.3"/>
				<line class="st15" x1="127.7" y1="20.5" x2="127.7" y2="18.6"/>
				<line class="st15" x1="127.7" y1="20.6" x2="127.7" y2="18.5"/>
				<line class="st15" x1="127.4" y1="33" x2="127.4" y2="28.7"/>
				<polyline class="st15" points="128.8,36.4 127.3,37.3 120,32.5 120,30 122.5,28.6 				"/>
				<polyline class="st15" points="127.7,26.1 131.1,24.1 131.1,19.6 131.1,19.5 129.6,18.5 				"/>
				<g>
					<defs>
						<rect id="SVGID_17_" x="112.1" y="10.5" width="82.8" height="100"/>
					</defs>
					<clipPath id="SVGID_18_">
						<use xlink:href="#SVGID_17_"  style="overflow:visible;"/>
					</clipPath>
					<g class="st17">
						<path class="st15" d="M127,22.8c0.3,0.8,0.1,1.5-0.5,1.5s-1.2-0.7-1.5-1.5s-0.1-1.5,0.5-1.5S126.7,22,127,22.8z"/>
						<path class="st15" d="M128.4,22.8c-0.3,0.8-0.1,1.5,0.5,1.5s1.2-0.7,1.5-1.5s0.1-1.5-0.5-1.5S128.7,22,128.4,22.8z"/>
					</g>
				</g>
				<line class="st15" x1="127.4" y1="28.8" x2="133" y2="25.5"/>
				<line class="st15" x1="122.5" y1="25.5" x2="127.4" y2="28.8"/>
				<line class="st15" x1="120" y1="30" x2="127.3" y2="34.9"/>
				<polyline class="st15" points="131.2,23.9 131.5,24.1 131.5,25.6 131.5,25.6 127.7,27.9 127.7,27.7 127.7,21.7 				"/>
				<polyline class="st15" points="124,24.7 122.5,25.6 122.5,29.8 122.5,29.8 127.3,33 				"/>
				<polyline class="st15" points="133.1,27.7 136.1,29.7 136.1,31.3 				"/>
				<line class="st15" x1="127.6" y1="21.8" x2="131.1" y2="19.6"/>
				<line class="st15" x1="124.3" y1="19.6" x2="125.8" y2="18.8"/>
				<line class="st15" x1="124.3" y1="19.5" x2="127.7" y2="21.8"/>
				<polyline class="st15" points="131.5,24.5 133,25.5 133.1,25.5 133.1,29.7 133,29.7 127.3,33 				"/>
				<line class="st15" x1="125.8" y1="17.3" x2="127.7" y2="18.6"/>
				<line class="st15" x1="128.7" y1="16.7" x2="129.6" y2="17.4"/>
				<g>
					<defs>
						<rect id="SVGID_19_" x="112.1" y="10.5" width="82.8" height="100"/>
					</defs>
					<clipPath id="SVGID_20_">
						<use xlink:href="#SVGID_19_"  style="overflow:visible;"/>
					</clipPath>
					<g class="st18">
						<path class="st15" d="M125.9,15.1c0,0.1-0.2,0.2-0.2,0.3l0.1,0.3c0.1,0.2,0.5,0.3,1.3,0.1s2.2-1,2.4-1.8l-0.2-0.5
							c-0.2,0-0.3,0-0.5,0"/>
					</g>
				</g>
				<polyline class="st15" points="126.6,12.1 127.6,12.6 127.9,12.5 128.6,11.5 				"/>
				<g>
					<defs>
						<rect id="SVGID_21_" x="112.1" y="10.5" width="82.8" height="100"/>
					</defs>
					<clipPath id="SVGID_22_">
						<use xlink:href="#SVGID_21_"  style="overflow:visible;"/>
					</clipPath>
					<g class="st19">
						<path class="st15" d="M129.3,14.4c0,0.2,0,0.5,0,0.7c-0.2,0.9-1.1,1.5-2,1.3c-0.3-0.1-0.7-0.2-0.9-0.5h-0.1"/>
						<path class="st15" d="M126,15.4c-0.1-0.1-0.1-0.3-0.1-0.4c-0.1-0.9,0.5-1.8,1.4-1.9c0.6-0.1,1.1,0.1,1.5,0.5
							c0.1,0.1,0.2,0.3,0.3,0.4"/>
						<path class="st15" d="M128.9,17c0-0.1,0-0.1,0-0.2c0,0,0-0.1-0.1-0.1c-0.1,0-0.2,0-0.3,0v-0.1l0.1-0.4"/>
						<path class="st15" d="M128.1,16.9c0,0.1,0.1,0.1,0.1,0.2s0.2,0.1,0.3,0"/>
					</g>
				</g>
				<polyline class="st15" points="127.2,17.6 127.2,17.4 127.4,17.1 127.3,16.9 126.9,16.9 126.6,16.6 126.7,16.2 				"/>
				<line class="st15" x1="124.4" y1="24" x2="127.7" y2="26.2"/>
				<polyline class="st15" points="127.7,27.9 124,25.5 123.9,25.5 123.9,24.2 123.9,24.2 124.3,24 124.3,24 124.3,19.5 				"/>
				<polyline class="st15" points="126.8,16.7 125.7,17.3 125.7,17.4 125.7,19.3 127.7,20.6 127.7,20.6 129.6,19.5 129.6,17.5 
					129.6,17.4 127.7,18.6 				"/>
				<line class="st15" x1="159.9" y1="52.7" x2="171.9" y2="60.4"/>
				<polyline class="st15" points="187.4,62.7 184.6,64.3 182,62.6 				"/>
				<line class="st15" x1="184.6" y1="68.1" x2="184.6" y2="64.3"/>
				<polyline class="st15" points="182,63.4 176.5,66.6 128.8,36.2 				"/>
				<line class="st13" x1="193.3" y1="63.8" x2="136.1" y2="30.7"/>
				<line class="st13" x1="173.6" y1="53.1" x2="139.7" y2="33.5"/>
				<line class="st15" x1="176.5" y1="68.1" x2="176.5" y2="66.6"/>
				<line class="st15" x1="171.9" y1="62" x2="171.9" y2="60.4"/>
				<polygon class="st15" points="179,56.2 179,57.8 171.9,62 159.9,54.4 159.9,52.8 165.2,49.7 172.3,53.9 173.8,53 				"/>
				<line class="st15" x1="179" y1="56.2" x2="171.9" y2="60.3"/>
				<line class="st15" x1="139.7" y1="33.4" x2="134.5" y2="36.4"/>
				<polygon class="st15" points="130.1,35.3 130.1,33.6 130.1,33.6 135.1,30.7 139.7,33.4 139.7,34.9 139.7,34.9 134.5,38.1 				
					"/>
				<polyline class="st15" points="181.2,65.3 176.5,68.1 128.8,37.6 128.8,37.6 128.8,36.2 130.1,35.3 				"/>
				<line class="st15" x1="134.5" y1="36.4" x2="130.1" y2="33.7"/>
				<line class="st15" x1="134.5" y1="38" x2="134.5" y2="36.4"/>
				<polyline class="st15" points="186.3,62 186.7,61.8 186.7,60.7 179,56.3 				"/>
				<line class="st15" x1="186.7" y1="60.7" x2="186.1" y2="61"/>
				<line class="st15" x1="136.1" y1="29.7" x2="127.3" y2="34.9"/>
				<polyline class="st15" points="183.5,61.7 182,62.6 182,66.4 184.6,68.1 187.4,66.5 187.4,62.7 186.3,62 				"/>
				<g>
					<defs>
						<rect id="SVGID_23_" x="112.1" y="10.5" width="82.8" height="100"/>
					</defs>
					<clipPath id="SVGID_24_">
						<use xlink:href="#SVGID_23_"  style="overflow:visible;"/>
					</clipPath>
					<g class="st20">
						<path class="st15" d="M184.6,60.3c-0.7,0.1-1.2,0.7-1.2,1.4v1c0,0.4,0.6,0.7,1.4,0.7s1.4-0.3,1.4-0.7v-1
							c0-0.7-0.5-1.3-1.2-1.4v-0.2c0-0.1-0.1-0.2-0.2-0.2s-0.2,0.1-0.2,0.2L184.6,60.3z"/>
					</g>
				</g>
				<polygon class="st3" points="153.3,51.8 153.3,53.4 161.8,58.7 161.8,57.2 				"/>
				<polygon class="st3" points="161.8,58.7 160.1,59.6 148.9,52.2 150.4,51.4 				"/>
				<line class="st21" x1="153.3" y1="53.2" x2="161.8" y2="58.7"/>
			</g>
		</g>
		<g>
			<defs>
				<rect id="SVGID_25_" x="6.1" y="3.4" width="87.8" height="109.4"/>
			</defs>
			<clipPath id="SVGID_26_">
				<use xlink:href="#SVGID_25_"  style="overflow:visible;"/>
			</clipPath>
			<g class="st22">
				<g class="st0">
					<path class="st1" d="M14.4,82.8l0.7,0.4l-2.6,1.7l1.5,0.9l-0.6,0.4l-2.2-1.4L14.4,82.8z"/>
					<path class="st1" d="M20.5,86.6L19.9,87l-1.5-1l-0.7,0.5l1.4,0.9l-0.6,0.4l-1.4-0.9l-0.8,0.5l1.5,1l-0.6,0.4l-2.2-1.4l3.2-2.1
						L20.5,86.6z"/>
					<path class="st1" d="M20.4,90.8c-0.9-0.6-0.8-1.4,0.1-2c1-0.6,2.3-0.7,3.2-0.1c0.9,0.6,0.8,1.4-0.1,2.1
						C22.7,91.3,21.3,91.3,20.4,90.8z M23.2,89c-0.5-0.3-1.3-0.2-1.9,0.2c-0.6,0.4-0.7,0.9-0.2,1.2c0.5,0.3,1.3,0.3,1.9-0.2
						C23.6,89.8,23.7,89.3,23.2,89z"/>
					<path class="st1" d="M26.5,94.5L26,94.1l0.6-2.4l-2.1,1.4l-0.7-0.4l3.2-2.1l0.6,0.4L27,93.3l2-1.3l0.7,0.4L26.5,94.5z"/>
				</g>
				<g class="st0">
					<path class="st1" d="M33.3,94.6l-2,2.9L30.6,97l0.5-0.7l-1.2-0.8l-1.1,0.3l-0.7-0.4l4.5-1.3L33.3,94.6z M30.7,95.4l0.8,0.5
						l0.7-0.9L30.7,95.4z"/>
				</g>
				<g class="st0">
					<path class="st1" d="M34.9,98.1l-1.2,0.8L33,98.5l3.2-2.1l1.3,0.8c0.7,0.4,0.8,0.9,0.1,1.4C37.1,99,36.5,99,36,98.8l-0.4,1.4
						l-0.8-0.5l0.4-1.3L34.9,98.1z M35.4,97.8l0.6,0.4c0.3,0.2,0.7,0.2,1,0c0.3-0.2,0.3-0.4-0.1-0.6l-0.6-0.4L35.4,97.8z"/>
				</g>
				<g class="st0">
					<path class="st1" d="M40.5,99.1l1.2,0.7c1,0.6,1,1.4,0,2.1c-1,0.6-2.2,0.7-3.2,0.1l-1.2-0.7L40.5,99.1z M39,101.5
						c0.6,0.4,1.4,0.3,2-0.1c0.6-0.4,0.7-0.9,0.1-1.3l-0.5-0.3l-2,1.3L39,101.5z"/>
				</g>
				<g class="st0">
					<path class="st1" d="M45.5,105.2c-0.2,0.2-0.1,0.5,0.2,0.7c0.3,0.2,0.7,0.2,1,0.1c0.2-0.1,0.2-0.3,0-0.5l-0.5-0.5
						c-0.4-0.4-0.5-0.7,0.1-1.1c0.6-0.4,1.5-0.3,2.2,0.1c0.7,0.5,0.8,1,0.3,1.4l-0.7-0.4c0.1-0.2,0.1-0.4-0.2-0.6
						c-0.3-0.2-0.7-0.2-0.9-0.1c-0.2,0.1-0.2,0.3,0,0.5l0.5,0.5c0.4,0.4,0.4,0.8-0.1,1.1c-0.6,0.4-1.5,0.3-2.2-0.1
						c-0.7-0.5-0.9-1-0.4-1.5L45.5,105.2z"/>
				</g>
				<g class="st0">
					<path class="st1" d="M51.2,105.7l2.8,1.7l-0.6,0.4l-1.1-0.7l-2.6,1.7l-0.7-0.4l2.6-1.7l-1-0.7L51.2,105.7z"/>
				</g>
				<line class="st13" x1="79" y1="69.5" x2="79" y2="64.9"/>
				<line class="st13" x1="16.7" y1="32.2" x2="16.7" y2="28.3"/>
				<line class="st13" x1="29.6" y1="37.2" x2="29.6" y2="39.3"/>
				<line class="st13" x1="23.9" y1="33.9" x2="23.9" y2="36.1"/>
				<line class="st13" x1="31.2" y1="36.3" x2="31.2" y2="38.5"/>
				<line class="st15" x1="31.2" y1="38.4" x2="29.6" y2="39.4"/>
				<line class="st15" x1="31.1" y1="36.4" x2="29.6" y2="37.3"/>
				<line class="st15" x1="70.5" y1="54.9" x2="64.2" y2="58.6"/>
				<line class="st15" x1="75.3" y1="58.7" x2="69.9" y2="61.9"/>
				<line class="st13" x1="38.7" y1="40.7" x2="38.7" y2="42.8"/>
				<line class="st15" x1="44" y1="38.9" x2="69.3" y2="55.6"/>
				<line class="st15" x1="70.4" y1="54.9" x2="75.3" y2="58.1"/>
				<line class="st15" x1="44" y1="38.3" x2="69.8" y2="55.2"/>
				<line class="st15" x1="13.6" y1="30.9" x2="16.2" y2="32.4"/>
				<line class="st15" x1="23.9" y1="33.9" x2="29.6" y2="37.2"/>
				<line class="st15" x1="31.2" y1="36.4" x2="38.8" y2="40.8"/>
				<line class="st15" x1="31.1" y1="38.5" x2="38.7" y2="42.8"/>
				<line class="st15" x1="64.2" y1="58.6" x2="69.9" y2="61.9"/>
				<line class="st13" x1="78.9" y1="56.1" x2="78.9" y2="53.8"/>
				<polyline class="st13" points="69.4,66.2 68.5,65.7 67.3,66.3 18.2,37.9 18.2,35.5 				"/>
				<polyline class="st13" points="30.5,30.1 25.7,26.9 14.6,33.4 67.3,63.9 				"/>
				<line class="st13" x1="67.3" y1="63.9" x2="67.3" y2="66.3"/>
				<line class="st13" x1="68.5" y1="63.2" x2="67.3" y2="63.9"/>
				<polyline class="st13" points="68.5,65.7 68.5,63.2 64.2,60.8 				"/>
				<line class="st13" x1="79" y1="73.9" x2="79" y2="71.3"/>
				<polyline class="st13" points="84.8,63.9 88,66 88,68.7 79,74 69.4,68.4 69.4,65.7 73.3,63.5 				"/>
				<polyline class="st13" points="88,66 79,71.3 69.4,65.7 				"/>
				<polyline class="st15" points="15.6,33.9 15.6,35.2 18.2,36.8 				"/>
				<line class="st15" x1="23.9" y1="36.1" x2="29.6" y2="39.4"/>
				<line class="st15" x1="64.2" y1="60.8" x2="64.2" y2="58.6"/>
				<line class="st15" x1="69.9" y1="65.4" x2="69.9" y2="61.9"/>
				<polyline class="st15" points="82.7,54.9 79,57.1 75.3,55 				"/>
				<polyline class="st13" points="82.7,59.7 83.1,59.9 83.1,61.5 79,63.9 74.9,61.5 74.9,60 75.3,59.8 				"/>
				<line class="st13" x1="79" y1="63.9" x2="79" y2="57.1"/>
				<polyline class="st13" points="83.1,60.4 84.8,61.4 84.8,66.1 79,69.5 73.3,66.2 73.3,61.5 74.9,60.6 				"/>
				<polyline class="st13" points="84.8,61.4 79,64.9 73.3,61.6 				"/>
				<polyline class="st13" points="13.6,30.9 8,34.1 8,73.3 				"/>
				<polyline class="st13" points="19.8,27.3 23.7,25 31.1,29.8 				"/>
				<line class="st13" x1="79" y1="75.2" x2="78.9" y2="110.6"/>
				<line class="st13" x1="78.9" y1="110.6" x2="41.1" y2="88.7"/>
				<polyline class="st13" points="89.7,74.9 79,81.1 8.1,40.1 				"/>
				<polyline class="st13" points="89.7,77.8 79,84.1 8.1,43 				"/>
				<polyline class="st13" points="89.7,80.8 79,87 8.1,46 				"/>
				<polyline class="st13" points="89.7,83.8 79,90 8.1,48.9 				"/>
				<polyline class="st13" points="89.7,86.7 79,92.9 8.1,51.9 				"/>
				<polyline class="st13" points="89.7,89.7 79,95.9 8.1,54.8 				"/>
				<polyline class="st13" points="89.7,92.6 79,98.8 8.1,57.8 				"/>
				<polyline class="st13" points="89.7,95.6 79,101.8 8.1,60.7 				"/>
				<line class="st13" x1="89.7" y1="98.5" x2="87.2" y2="100"/>
				<polyline class="st13" points="81.5,103.3 79,104.7 8.1,63.7 				"/>
				<line class="st13" x1="87.2" y1="102.9" x2="89.7" y2="101.4"/>
				<polyline class="st13" points="81.5,106.2 79,107.7 8.1,66.6 				"/>
				<polyline class="st13" points="89.7,71.9 79,78.2 8.1,37.1 				"/>
				<line class="st13" x1="38.1" y1="86.9" x2="8.1" y2="69.6"/>
				<polyline class="st15" points="15.2,25.6 13.6,26.5 13.6,30.9 				"/>
				<polyline class="st15" points="18.3,25.6 19.8,26.5 19.8,30.3 				"/>
				<polyline class="st15" points="13.6,26.5 16.7,28.3 19.8,26.5 				"/>
				<polyline class="st13" points="80.2,52 81,52.5 81,54.8 78.9,56.1 76.8,54.8 76.8,52.5 77.9,51.9 				"/>
				<polyline class="st15" points="81,52.5 78.9,53.8 76.8,52.5 				"/>
				<g>
					<defs>
						<rect id="SVGID_27_" x="6.3" y="3.4" width="87.6" height="109.4"/>
					</defs>
					<clipPath id="SVGID_28_">
						<use xlink:href="#SVGID_27_"  style="overflow:visible;"/>
					</clipPath>
					<g class="st23">
						<path class="st13" d="M77,50.1c-0.1,0.1-0.2,0.2-0.2,0.3l0.1,0.3c0.1,0.2,0.6,0.3,1.4,0.1s2.4-1.1,2.6-2l-0.3-0.5
							c-0.2,0-0.3,0-0.5,0"/>
					</g>
				</g>
				<polyline class="st13" points="77.7,46.8 78.8,47.4 79.2,47.2 80,46.2 				"/>
				<g>
					<defs>
						<rect id="SVGID_29_" x="6.3" y="3.4" width="87.6" height="109.4"/>
					</defs>
					<clipPath id="SVGID_30_">
						<use xlink:href="#SVGID_29_"  style="overflow:visible;"/>
					</clipPath>
					<g class="st24">
						<path class="st13" d="M80.7,49.3c0.1,0.3,0.1,0.5,0,0.8c-0.2,1-1.2,1.7-2.2,1.5c0,0,0,0,0,0c-0.4-0.1-0.7-0.3-1-0.5h-0.1"/>
						<path class="st13" d="M77.1,50.5C77.1,50.3,77,50.2,77,50c-0.2-1,0.5-2,1.6-2.1c0.8-0.1,1.6,0.3,1.9,1"/>
						<path class="st13" d="M78.2,58.5c0.3,0.9,0.1,1.6-0.6,1.6s-1.4-0.7-1.7-1.6s-0.1-1.6,0.6-1.6S77.8,57.6,78.2,58.5z"/>
						<path class="st13" d="M79.7,58.5c-0.3,0.9-0.1,1.6,0.6,1.6s1.4-0.7,1.7-1.6s0.1-1.6-0.6-1.6S80.1,57.7,79.7,58.5z"/>
						<path class="st14" d="M80.2,52.1c0-0.1,0-0.1,0-0.2c0,0-0.1-0.1-0.1-0.1c-0.1,0-0.2,0-0.3,0.1v-0.2l0.1-0.4"/>
						<path class="st15" d="M79.3,52.1c0,0.1,0.1,0.2,0.1,0.2s0.2,0.1,0.4,0"/>
					</g>
				</g>
				<polyline class="st15" points="78.3,52.8 78.3,52.7 78.6,52.2 78.6,52.1 78.1,52 77.7,51.8 77.9,51.3 				"/>
				<polyline class="st13" points="76.8,54.1 75.3,55 75.3,60 79,62.1 82.7,60 82.7,54.9 81,54 				"/>
				<g>
					<defs>
						<rect id="SVGID_31_" x="6.3" y="3.4" width="87.6" height="109.4"/>
					</defs>
					<clipPath id="SVGID_32_">
						<use xlink:href="#SVGID_31_"  style="overflow:visible;"/>
					</clipPath>
					<g class="st25">
						<path class="st15" d="M16.5,23.9c-0.8,0.1-1.3,0.8-1.3,1.6v1.1c0,0.4,0.7,0.8,1.5,0.8c0.9,0,1.5-0.4,1.5-0.8v-1.1
							c0-0.8-0.5-1.4-1.3-1.6v-0.2c0-0.1-0.1-0.2-0.2-0.2s-0.2,0.1-0.2,0.2L16.5,23.9z"/>
					</g>
				</g>
				<polyline class="st13" points="89.7,69 79,75.2 8.1,34.2 				"/>
				<polyline class="st13" points="41.1,89.2 39,88 37.1,89.1 39.7,90.6 41.1,89.8 				"/>
				<line class="st13" x1="41.1" y1="89.2" x2="39" y2="88"/>
				<line class="st13" x1="41.1" y1="90.9" x2="40.1" y2="90.4"/>
				<g>
					<defs>
						<rect id="SVGID_33_" x="6.3" y="3.4" width="87.6" height="109.4"/>
					</defs>
					<clipPath id="SVGID_34_">
						<use xlink:href="#SVGID_33_"  style="overflow:visible;"/>
					</clipPath>
					<g class="st26">
						<path class="st13" d="M39.4,85.7c-0.2,0.2-0.4,0.5-0.4,0.8V88"/>
					</g>
				</g>
				<polyline class="st13" points="38.6,89.9 38.1,90.3 8,73.3 				"/>
				<line class="st13" x1="38.1" y1="90.3" x2="38.1" y2="89.7"/>
				<g>
					<defs>
						<rect id="SVGID_35_" x="6.3" y="3.4" width="87.6" height="109.4"/>
					</defs>
					<clipPath id="SVGID_36_">
						<use xlink:href="#SVGID_35_"  style="overflow:visible;"/>
					</clipPath>
					<g class="st27">
						<path class="st13" d="M87.2,105.8v-5.7l-5.7,3.2v5.9l-2.5,1.5l-19.1-9l-15.3-7.7l-3.5-2v-4c-0.1-0.9-0.7-1.8-1.5-2.2
							c-0.5-0.3-1.1-0.1-1.4,0.4c-0.1,0.2-0.1,0.3-0.1,0.5v2"/>
					</g>
				</g>
				<polyline class="st13" points="83.1,106.2 83.1,104.8 82.2,105.3 82.2,106.8 				"/>
				<g>
					<defs>
						<rect id="SVGID_37_" x="6.3" y="3.4" width="87.6" height="109.4"/>
					</defs>
					<clipPath id="SVGID_38_">
						<use xlink:href="#SVGID_37_"  style="overflow:visible;"/>
					</clipPath>
					<g class="st28">
						<path class="st13" d="M88,67.9l1.7,1.1v35.4l-2.5,1.4c-1.3-0.4-2.6-0.3-3.8,0.3l-1.3,0.8c-0.2,0.1-0.4,0.3-0.6,0.4"/>
					</g>
				</g>
				<polyline class="st15" points="38.7,42.8 44,39.7 44,37.7 31.6,29.5 23.9,34 				"/>
				<line class="st15" x1="44" y1="37.7" x2="38.7" y2="40.8"/>
				<polygon class="st3" points="31.6,43.2 31.6,45.6 47.4,54.8 47.4,52.4 				"/>
				<polygon class="st3" points="31.6,45.7 29.8,46.8 45.7,55.9 47.4,54.8 				"/>
				<polygon class="st3" points="44,38.3 44,38.9 56.6,47.2 57.2,46.9 				"/>
				<line class="st21" x1="31.6" y1="45.7" x2="47.4" y2="54.8"/>
			</g>
		</g>
	</g>
</g>
</svg>
