<?xml version="1.0" encoding="utf-8"?>
<!-- Generator: Adobe Illustrator 23.0.0, SVG Export Plug-In . SVG Version: 6.00 Build 0)  -->
<svg version="1.1" id="Layer_1" xmlns="http://www.w3.org/2000/svg" xmlns:xlink="http://www.w3.org/1999/xlink" x="0px" y="0px"
	 viewBox="0 0 123.3 164.8" style="enable-background:new 0 0 123.3 164.8;" xml:space="preserve">
<style type="text/css">
	.st0{fill:#D2D3D4;}
	.st1{clip-path:url(#SVGID_2_);}
	.st2{fill:#231F20;}
	.st3{clip-path:url(#SVGID_4_);}
	.st4{fill:none;stroke:#D1D3D4;stroke-width:1.09;stroke-miterlimit:10;}
	.st5{clip-path:url(#SVGID_6_);}
	.st6{fill:none;stroke:#231F20;stroke-width:0.15;stroke-miterlimit:10;}
	.st7{enable-background:new    ;}
	.st8{fill:#D1D3D4;}
	.st9{fill:none;stroke:#231F20;stroke-width:0.14;stroke-miterlimit:10;}
	.st10{clip-path:url(#SVGID_8_);}
	.st11{clip-path:url(#SVGID_10_);}
	.st12{clip-path:url(#SVGID_12_);}
	.st13{clip-path:url(#SVGID_14_);}
	.st14{clip-path:url(#SVGID_16_);}
	.st15{fill:none;stroke:#FFFFFF;stroke-width:0.15;stroke-miterlimit:10;}
</style>
<title>residence_D_7-8_key</title>
<g>
	<path class="st0" d="M14.3,117.1c-0.6,0-1-0.4-1-1.1v-1.4h3.4v1.3c0,0.7-0.3,1.1-0.9,1.1c-0.3,0-0.6-0.2-0.7-0.4
		C14.9,116.9,14.6,117.1,14.3,117.1z M13.9,115.2v0.7c0,0.3,0.2,0.5,0.4,0.5s0.4-0.2,0.4-0.5v-0.7H13.9z M15.3,115.8
		c0,0.3,0.1,0.5,0.4,0.5s0.4-0.2,0.4-0.5v-0.6h-0.8L15.3,115.8z"/>
	<path class="st0" d="M14.6,119.5h-1.3v-0.7h3.4v1.4c0.1,0.5-0.3,1.1-0.8,1.2c-0.1,0-0.2,0-0.3,0c-0.5,0-0.9-0.3-1-0.8l-1.3,0.9
		v-0.8l1.3-0.8L14.6,119.5z M15.1,119.5v0.7c0,0.3,0.2,0.5,0.5,0.5s0.5-0.2,0.5-0.5v-0.7H15.1z"/>
	<path class="st0" d="M13.3,124.6c0-0.9,0.8-1.6,1.7-1.6c0,0,0.1,0,0.1,0c0.9-0.1,1.7,0.6,1.7,1.5c0.1,0.9-0.6,1.7-1.5,1.7
		c-0.1,0-0.2,0-0.3,0c-0.9,0.1-1.7-0.6-1.7-1.5C13.3,124.7,13.3,124.6,13.3,124.6z M16.1,124.6c0-0.5-0.4-0.9-1.1-0.9
		s-1.1,0.3-1.1,0.9s0.5,0.9,1.1,0.9S16.1,125.1,16.1,124.6z"/>
	<path class="st0" d="M16.7,129.4l-3.4,1.3V130l0.8-0.3v-1.3l-0.8-0.3v-0.7l3.4,1.3V129.4z M14.7,128.7v0.8l1.1-0.4L14.7,128.7z"/>
	<path class="st0" d="M16.7,132.4v1.2c0.1,0.9-0.6,1.6-1.5,1.7c-0.1,0-0.2,0-0.2,0c-0.9,0.1-1.6-0.6-1.7-1.4c0-0.1,0-0.2,0-0.2v-1.2
		H16.7z M13.9,133.5c0,0.6,0.4,1,1,1c0,0,0,0,0.1,0c0.6,0,1-0.4,1.1-0.9c0,0,0,0,0-0.1v-0.5h-2.1V133.5z"/>
	<path class="st0" d="M16.7,139l-2.3,0.6l2.3,0.6v0.7l-3.4-0.8v-0.6l2.2-0.6l-2.2-0.6v-0.6l3.4-0.9v0.7l-2.3,0.6l2.3,0.6L16.7,139z"
		/>
	<path class="st0" d="M16.7,144l-3.4,1.3v-0.7l0.8-0.3V143l-0.8-0.3V142l3.4,1.3V144z M14.7,143.2v0.8l1.1-0.4L14.7,143.2z"/>
	<path class="st0" d="M16.7,148.6v0.8l-2.1-1.2h-1.3v-0.7h1.3l2.1-1.2v0.8l-1.4,0.8L16.7,148.6z"/>
	<path class="st0" d="M111.7,108.4v0.7h-2.8v1.6h-0.6v-2.3H111.7z"/>
	<path class="st0" d="M111.7,114.1l-3.4,1.3v-0.7l0.8-0.3v-1.3l-0.8-0.3v-0.7l3.4,1.3V114.1z M109.7,113.4v0.8l1.1-0.4L109.7,113.4z
		"/>
	<path class="st0" d="M108.3,117h3.4v2.2h-0.6v-1.5h-0.9v1.4h-0.6v-1.4h-1.3V117z"/>
	<path class="st0" d="M111.7,122.5l-3.4,1.3v-0.7l0.8-0.3v-1.3l-0.8-0.3v-0.7l3.4,1.3V122.5z M109.7,121.8v0.8l1.1-0.4L109.7,121.8z
		"/>
	<path class="st0" d="M111.7,127.2v0.7l-2.1-1.2h-1.3V126h1.3l2.1-1.2v0.8l-1.4,0.8L111.7,127.2z"/>
	<path class="st0" d="M111.7,131.8h-0.6v-1.6h-0.7v1.4h-0.6v-1.4h-0.8v1.6h-0.6v-2.3h3.4V131.8z"/>
	<path class="st0" d="M111.7,133.4v2.9h-0.6v-1.1h-2.8v-0.7h2.8v-1.1L111.7,133.4z"/>
	<path class="st0" d="M111.7,137.8v2.9h-0.6v-1.1h-2.8v-0.7h2.8v-1.1H111.7z"/>
	<path class="st0" d="M111.7,144.6h-0.6V143h-0.7v1.4h-0.6V143h-0.8v1.6h-0.6v-2.3h3.4V144.6z"/>
	<path class="st0" d="M109.2,149.2c-0.3,0.1-0.5,0.4-0.4,0.7c0,0.4,0.2,0.6,0.4,0.6s0.3-0.1,0.4-0.4l0.1-0.6c0-0.5,0.4-0.9,0.9-0.9
		c0.6,0,1,0.6,1,1.1c0,0,0,0,0,0.1c0.1,0.6-0.4,1.2-1,1.3v-0.7c0.3-0.1,0.4-0.3,0.4-0.6c0-0.3-0.2-0.5-0.4-0.5s-0.3,0.1-0.4,0.4
		l-0.1,0.6c-0.1,0.6-0.4,0.9-1,0.9s-1-0.5-1-1.2c-0.1-0.7,0.4-1.3,1-1.4L109.2,149.2L109.2,149.2z"/>
	<path class="st0" d="M111.7,152.6v2.9h-0.6v-1.1h-2.8v-0.7h2.8v-1.1L111.7,152.6z"/>
	<path class="st0" d="M43.1,112.6h0.7v2.8h1.6v0.6h-2.3V112.6z"/>
	<path class="st0" d="M49.3,112.6v0.6h-1.6v0.8h1.5v0.6h-1.5v0.8h1.6v0.6H47v-3.4L49.3,112.6z"/>
	<path class="st0" d="M52.4,116c-1,0.1-1.8-0.7-1.9-1.6c-0.1-1,0.7-1.8,1.6-1.9s1.8,0.7,1.9,1.6c0,0.1,0,0.1,0,0.2
		c0,0.9-0.6,1.6-1.5,1.7C52.4,116,52.4,116,52.4,116z M52.4,113.2c-0.5,0-0.9,0.4-0.9,1.1s0.3,1.1,0.9,1.1s0.9-0.5,0.9-1.1
		S52.9,113.2,52.4,113.2L52.4,113.2z"/>
	<path class="st0" d="M58.4,116h-0.6l-1.6-2.2v2.2h-0.7v-3.4h0.7l1.5,2.1v-2.1h0.7V116z"/>
	<path class="st0" d="M61.9,112.6l1.3,3.4h-0.7l-0.3-0.8h-1.3l-0.3,0.8h-0.7l1.3-3.4L61.9,112.6z M61.1,114.6h0.8l-0.4-1.1
		L61.1,114.6z"/>
	<path class="st0" d="M65.4,114.7v1.3h-0.7v-3.4h1.4c0.5-0.1,1.1,0.2,1.2,0.8c0,0.1,0,0.2,0,0.3c0,0.5-0.3,0.9-0.8,1l0.9,1.3h-0.8
		l-0.8-1.3L65.4,114.7z M65.4,114.2H66c0.3,0,0.5-0.2,0.5-0.5s-0.2-0.5-0.5-0.5h-0.7L65.4,114.2z"/>
	<path class="st0" d="M68.9,112.6h1.2c0.9,0.1,1.6,0.9,1.6,1.8c-0.1,0.8-0.7,1.5-1.6,1.6h-1.2V112.6z M70,115.4
		c0.6,0,1.1-0.5,1.1-1.1c0-0.6-0.5-1.1-1.1-1.1h-0.5v2.1H70z"/>
	<path class="st0" d="M76.1,115c0.1,0.3,0.4,0.5,0.7,0.4c0.3,0,0.6-0.2,0.6-0.4s-0.1-0.3-0.4-0.4l-0.6-0.1c-0.5-0.1-0.8-0.4-0.8-0.9
		c0-0.6,0.6-1,1.2-1c0,0,0,0,0,0c0.6-0.1,1.2,0.4,1.3,1h-0.7c-0.1-0.3-0.3-0.4-0.6-0.4c-0.3,0-0.5,0.2-0.5,0.4s0.1,0.3,0.4,0.4
		l0.6,0.2c0.5,0.1,0.9,0.5,0.9,1c-0.1,0.6-0.6,1.1-1.2,1c0,0,0,0,0,0c-0.7,0.1-1.3-0.4-1.4-1L76.1,115z"/>
	<path class="st0" d="M79.4,112.6h2.9v0.6h-1.1v2.8h-0.7v-2.8h-1.1V112.6z"/>
	<path class="st0" d="M40.6,147.9c0.7,0,1.3,0.4,1.4,1.1h-0.7c-0.1-0.3-0.4-0.5-0.7-0.5c-0.5,0-0.8,0.5-0.8,1.1s0.3,1.1,0.8,1.1
		c0.3,0,0.6-0.2,0.7-0.5H42c-0.1,0.7-0.7,1.2-1.4,1.1c-1-0.1-1.7-1-1.6-1.9C39.2,148.6,39.8,147.9,40.6,147.9z"/>
	<path class="st0" d="M45.4,147.9l1.3,3.4H46l-0.3-0.8h-1.3l-0.3,0.8h-0.7l1.3-3.4H45.4z M44.6,149.9h0.8l-0.4-1.2L44.6,149.9z"/>
	<path class="st0" d="M47.8,147.9h2.9v0.6h-1.1v2.8h-0.7v-2.8h-1.1V147.9z"/>
	<path class="st0" d="M55.2,147.9v3.4h-0.7v-1.4H53v1.4h-0.7v-3.4H53v1.3h1.5v-1.3H55.2z"/>
	<path class="st0" d="M59.4,147.9v0.6h-1.6v0.7h1.5v0.6h-1.5v0.8h1.6v0.6h-2.3v-3.4L59.4,147.9z"/>
	<path class="st0" d="M61.8,150v1.3h-0.7v-3.4h1.4c0.5-0.1,1.1,0.3,1.2,0.8c0,0.1,0,0.2,0,0.3c0,0.5-0.3,0.9-0.8,1l0.9,1.3H63
		l-0.8-1.3H61.8z M61.8,149.4h0.6c0.4,0,0.5-0.2,0.5-0.5s-0.2-0.5-0.5-0.5h-0.6V149.4z"/>
	<path class="st0" d="M66.2,151.3h-0.7v-3.4h0.7V151.3z"/>
	<path class="st0" d="M70.8,151.3h-0.6l-1.6-2.3v2.2H68v-3.4h0.7l1.5,2.1v-2.1h0.7V151.3z"/>
	<path class="st0" d="M75,147.9v0.6h-1.6v0.7h1.4v0.6h-1.5v0.8H75v0.6h-2.3v-3.4L75,147.9z"/>
	<path class="st0" d="M79.1,147.9h0.7v2.8h1.6v0.6h-2.3V147.9z"/>
	<path class="st0" d="M85.9,151.3h-0.6l-1.6-2.3v2.2h-0.7v-3.4h0.7l1.5,2.1v-2.1h0.7V151.3L85.9,151.3z"/>
</g>
<g id="Layer_4">
	<g>
		<defs>
			<rect id="SVGID_1_" x="23.3" y="124.1" width="77.1" height="17.4"/>
		</defs>
		<clipPath id="SVGID_2_">
			<use xlink:href="#SVGID_1_"  style="overflow:visible;"/>
		</clipPath>
		<g class="st1">
			<polygon class="st2" points="36.3,134 39.2,134 39.2,132.3 40.3,132.3 40.3,132.4 41.2,132.4 41.2,132.3 44.3,132.3 44.3,136.9 
				36.3,136.4 			"/>
			<g>
				<defs>
					<rect id="SVGID_3_" x="23.3" y="124.1" width="77.1" height="17.4"/>
				</defs>
				<clipPath id="SVGID_4_">
					<use xlink:href="#SVGID_3_"  style="overflow:visible;"/>
				</clipPath>
				<g class="st3">
					<polygon class="st4" points="98.6,125.2 98.6,140.3 24.3,135.7 24.3,125.2 					"/>
				</g>
			</g>
		</g>
	</g>
	<g>
		<defs>
			<rect id="SVGID_5_" x="22.3" y="9.6" width="66" height="79.6"/>
		</defs>
		<clipPath id="SVGID_6_">
			<use xlink:href="#SVGID_5_"  style="overflow:visible;"/>
		</clipPath>
		<g class="st5">
			<polyline class="st6" points="86.8,56.6 75.3,63 27.3,31.5 			"/>
			<polyline class="st6" points="86.8,58.7 75.3,65.2 27.3,33.6 			"/>
			<polyline class="st6" points="86.8,60.9 75.3,67.3 27.3,35.8 			"/>
			<polyline class="st6" points="86.8,63 75.3,69.5 27.3,37.9 			"/>
			<polyline class="st6" points="86.8,65.2 75.3,71.7 27.3,40.1 			"/>
			<polyline class="st6" points="86.8,67.4 75.3,73.8 27.3,42.2 			"/>
			<polyline class="st6" points="86.8,69.5 75.3,76 27.3,44.4 			"/>
			<polyline class="st6" points="86.8,71.7 75.3,78.1 27.3,46.6 			"/>
			<polyline class="st6" points="86.8,73.8 75.3,80.3 27.3,48.7 			"/>
			<polyline class="st6" points="86.8,76 75.3,82.4 27.3,50.9 			"/>
			<polyline class="st6" points="86.8,78.1 75.3,84.6 27.3,53 			"/>
			<g class="st7">
				<path class="st8" d="M32.1,62.4c0.5,0.4,0.5,0.8,0.1,1.1l-0.5-0.3c0.1-0.2,0.1-0.4-0.1-0.5c-0.4-0.3-0.9-0.2-1.4,0.1
					c-0.5,0.3-0.6,0.6-0.2,0.9c0.3,0.2,0.6,0.2,0.9,0.1l0.5,0.3c-0.6,0.2-1.2,0.2-1.8-0.2c-0.6-0.4-0.6-1,0.2-1.5
					C30.6,62,31.5,62,32.1,62.4z"/>
			</g>
			<g class="st7">
				<path class="st8" d="M35.4,64.7l-1.5,2l-0.5-0.3l0.4-0.5l-0.9-0.6l-0.8,0.2l-0.5-0.3l3.3-0.8L35.4,64.7z M33.4,65.2l0.6,0.4
					l0.5-0.7L33.4,65.2z"/>
			</g>
			<g class="st7">
				<path class="st8" d="M37,65.9l1.9,1.4l-0.4,0.3L37.8,67l-2,1.1l-0.5-0.3l2-1.1l-0.7-0.5L37,65.9z"/>
				<path class="st8" d="M42.2,69.4l-2.4,1.4l-0.5-0.3l1-0.6l-1-0.7l-1,0.6l-0.5-0.3l2.4-1.4l0.5,0.3l-1,0.6l1,0.7l1-0.6L42.2,69.4z
					"/>
				<path class="st8" d="M45.1,71.5l-0.4,0.3L43.6,71L43,71.3l1,0.7l-0.4,0.2l-1-0.7L42,71.8l1.1,0.8l-0.4,0.3l-1.6-1.1l2.4-1.4
					L45.1,71.5z"/>
				<path class="st8" d="M45.3,73.5l-0.9,0.5l-0.5-0.3l2.4-1.4l0.9,0.7c0.5,0.3,0.5,0.7,0,1c-0.4,0.2-0.8,0.2-1.2,0l-0.3,1l-0.5-0.4
					l0.3-0.9L45.3,73.5z M45.7,73.3l0.4,0.3c0.2,0.2,0.5,0.2,0.7,0.1c0.2-0.1,0.2-0.3,0-0.4l-0.4-0.3L45.7,73.3z"/>
				<path class="st8" d="M47.4,76.1l-0.5-0.3l2.4-1.4l0.5,0.3L47.4,76.1z"/>
				<path class="st8" d="M50.6,78.4l-0.4-0.3l0.5-1.7l-1.6,0.9l-0.5-0.3l2.4-1.4l0.4,0.3l-0.5,1.6l1.5-0.9L53,77L50.6,78.4z"/>
				<path class="st8" d="M55.9,79l-0.4,0.3l-1.1-0.8l-0.5,0.3l1,0.7l-0.4,0.2l-1-0.7l-0.6,0.3l1.1,0.8l-0.4,0.3L52,79.3l2.4-1.4
					L55.9,79z"/>
				<path class="st8" d="M58.9,81l0.5,0.3l-2,1.1l1.1,0.7L58,83.5l-1.5-1.1L58.9,81z"/>
			</g>
			<g class="st7">
				<path class="st8" d="M61.1,85.7l-0.4-0.3l0.5-1.7l-1.6,0.9l-0.5-0.3l2.4-1.4l0.4,0.3l-0.5,1.6l1.5-0.9l0.5,0.3L61.1,85.7z"/>
			</g>
			<polyline class="st9" points="86.8,54.4 75.3,60.9 27.3,29.3 			"/>
			<line class="st9" x1="75.3" y1="58.7" x2="75.3" y2="86.7"/>
			<line class="st9" x1="81.2" y1="82.7" x2="80.5" y2="83.1"/>
			<polyline class="st9" points="81.2,82.7 81.6,83 86.8,80 86.8,52.2 			"/>
			<polyline class="st9" points="86.8,52.2 75.3,58.7 27.3,27.1 			"/>
			<g>
				<defs>
					<rect id="SVGID_7_" x="22.3" y="9.6" width="65.8" height="79.6"/>
				</defs>
				<clipPath id="SVGID_8_">
					<use xlink:href="#SVGID_7_"  style="overflow:visible;"/>
				</clipPath>
				<g class="st10">
					<path class="st9" d="M81.2,82.7v-0.6c0-0.1,0-0.2-0.1-0.3"/>
					<path class="st9" d="M81.6,83v-0.9c0-0.2-0.2-0.5-0.6-0.3c-0.3,0.2-0.5,0.5-0.5,0.8v1l-5.1,3L68.6,82l-8.5-5.8L53,71.3L42.4,64
						L27.3,53.1v-26l1-0.6"/>
				</g>
			</g>
			<line class="st9" x1="77.2" y1="53.4" x2="77.2" y2="52.2"/>
			<line class="st9" x1="34.2" y1="29.1" x2="34.2" y2="31.1"/>
			<line class="st9" x1="77.2" y1="53.4" x2="77.8" y2="53.8"/>
			<line class="st9" x1="77.2" y1="52.2" x2="77.8" y2="52.6"/>
			<line class="st9" x1="34.5" y1="17.7" x2="34.5" y2="16.2"/>
			<line class="st9" x1="34.5" y1="17.7" x2="34.5" y2="16.1"/>
			<line class="st9" x1="34.2" y1="27.7" x2="34.2" y2="24.2"/>
			<polyline class="st9" points="35.3,30.4 34.2,31.1 28.3,27.2 28.3,25.3 30.4,24.1 			"/>
			<polyline class="st9" points="34.5,22.2 37.2,20.6 37.2,17 37.2,16.9 36,16.1 			"/>
			<g>
				<defs>
					<rect id="SVGID_9_" x="22.3" y="9.6" width="65.8" height="79.6"/>
				</defs>
				<clipPath id="SVGID_10_">
					<use xlink:href="#SVGID_9_"  style="overflow:visible;"/>
				</clipPath>
				<g class="st11">
					<path class="st9" d="M33.9,19.5c0.2,0.6,0,1.2-0.4,1.2s-1-0.5-1.2-1.2s0-1.2,0.4-1.2S33.7,18.9,33.9,19.5z"/>
					<path class="st9" d="M35.1,19.5c-0.2,0.7,0,1.2,0.4,1.2s1-0.5,1.2-1.2s0-1.2-0.4-1.2S35.3,18.9,35.1,19.5z"/>
				</g>
			</g>
			<line class="st9" x1="34.2" y1="24.3" x2="38.7" y2="21.7"/>
			<line class="st9" x1="30.4" y1="21.7" x2="34.2" y2="24.3"/>
			<line class="st9" x1="28.3" y1="25.3" x2="34.2" y2="29.1"/>
			<polyline class="st9" points="37.3,20.4 37.5,20.6 37.5,21.7 37.5,21.8 34.5,23.5 34.5,23.5 34.5,18.6 			"/>
			<polyline class="st9" points="31.5,21 30.4,21.7 30.4,25.1 30.4,25.1 34.2,27.6 			"/>
			<polyline class="st9" points="38.8,23.5 41.2,25 41.2,26.3 			"/>
			<line class="st9" x1="34.4" y1="18.7" x2="37.2" y2="17"/>
			<line class="st9" x1="31.8" y1="17" x2="33" y2="16.3"/>
			<line class="st9" x1="31.8" y1="16.9" x2="34.5" y2="18.7"/>
			<polyline class="st9" points="37.5,20.9 38.8,21.7 38.8,21.7 38.8,25 38.7,25 34.2,27.7 			"/>
			<line class="st9" x1="33" y1="15.2" x2="34.5" y2="16.2"/>
			<line class="st9" x1="35.3" y1="14.7" x2="36" y2="15.2"/>
			<g>
				<defs>
					<rect id="SVGID_11_" x="22.3" y="9.6" width="65.8" height="79.6"/>
				</defs>
				<clipPath id="SVGID_12_">
					<use xlink:href="#SVGID_11_"  style="overflow:visible;"/>
				</clipPath>
				<g class="st12">
					<path class="st9" d="M33.1,13.4c-0.1,0.1-0.1,0.2-0.2,0.2l0.1,0.2c0.1,0.1,0.4,0.2,1,0.1s1.8-0.8,1.9-1.4l-0.2-0.4
						c-0.1,0-0.2,0-0.4,0"/>
				</g>
			</g>
			<polyline class="st9" points="33.6,11 34.4,11.4 34.7,11.3 35.2,10.5 			"/>
			<g>
				<defs>
					<rect id="SVGID_13_" x="22.3" y="9.6" width="65.8" height="79.6"/>
				</defs>
				<clipPath id="SVGID_14_">
					<use xlink:href="#SVGID_13_"  style="overflow:visible;"/>
				</clipPath>
				<g class="st13">
					<path class="st9" d="M35.8,12.8c0.2,0.7-0.3,1.5-1,1.6c-0.2,0-0.4,0-0.6,0c-0.3-0.1-0.5-0.2-0.7-0.4h-0.1"/>
					<path class="st9" d="M33.2,13.7c0-0.1-0.1-0.2-0.1-0.3c-0.1-0.7,0.4-1.4,1.1-1.5c0,0,0,0,0,0c0.4-0.1,0.9,0.1,1.2,0.4
						c0.1,0.1,0.2,0.2,0.2,0.3"/>
					<path class="st9" d="M35.4,14.9c0,0,0-0.1,0-0.1c0,0,0-0.1-0.1-0.1c-0.1,0-0.2,0-0.2,0v-0.1l0.1-0.3"/>
					<path class="st9" d="M34.8,14.9c0,0.1,0,0.1,0.1,0.1s0.2,0.1,0.3,0"/>
				</g>
			</g>
			<polyline class="st9" points="34.1,15.4 34.1,15.2 34.2,15 34.2,14.9 33.9,14.8 33.6,14.6 33.7,14.3 			"/>
			<line class="st9" x1="31.9" y1="20.5" x2="34.5" y2="22.2"/>
			<polyline class="st9" points="34.5,23.6 31.5,21.7 31.5,21.7 31.5,20.7 31.5,20.6 31.8,20.5 31.8,20.5 31.8,16.9 			"/>
			<polyline class="st9" points="33.8,14.6 32.9,15.2 32.9,15.2 32.9,16.7 34.5,17.8 34.5,17.7 36,16.9 36,15.3 36,15.3 34.5,16.1 
							"/>
			<line class="st9" x1="60.2" y1="43.4" x2="69.7" y2="49.5"/>
			<polyline class="st9" points="82,51.3 79.9,52.6 77.8,51.2 			"/>
			<line class="st9" x1="79.9" y1="55.7" x2="79.9" y2="52.6"/>
			<polyline class="st9" points="77.8,51.9 73.4,54.4 35.3,30.2 			"/>
			<line class="st6" x1="86.8" y1="52.2" x2="41.2" y2="25.8"/>
			<line class="st6" x1="71.1" y1="43.7" x2="44.1" y2="28"/>
			<line class="st9" x1="73.4" y1="55.6" x2="73.4" y2="54.4"/>
			<line class="st9" x1="69.7" y1="50.8" x2="69.7" y2="49.5"/>
			<polygon class="st9" points="75.4,46.1 75.4,47.5 69.7,50.8 60.2,44.7 60.2,43.4 64.4,40.9 70.1,44.3 71.2,43.6 			"/>
			<line class="st9" x1="75.4" y1="46.1" x2="69.7" y2="49.5"/>
			<line class="st9" x1="44.1" y1="28" x2="40" y2="30.4"/>
			<polygon class="st9" points="36.5,29.5 36.4,28.2 36.4,28.1 40.4,25.8 44.1,28 44.1,29.1 44.1,29.2 40,31.7 			"/>
			<polyline class="st9" points="77.2,53.4 73.4,55.6 35.3,31.3 35.3,31.3 35.3,30.2 36.4,29.5 			"/>
			<line class="st9" x1="40" y1="30.4" x2="36.5" y2="28.2"/>
			<line class="st9" x1="40" y1="31.6" x2="40" y2="30.4"/>
			<polyline class="st9" points="81.2,50.8 81.5,50.6 81.5,49.8 75.4,46.2 			"/>
			<line class="st9" x1="81.5" y1="49.7" x2="81.1" y2="50"/>
			<line class="st9" x1="41.2" y1="25" x2="34.2" y2="29.1"/>
			<polyline class="st9" points="79,50.5 77.8,51.2 77.8,54.3 79.9,55.6 82,54.4 82,51.3 81.2,50.7 			"/>
			<g>
				<defs>
					<rect id="SVGID_15_" x="22.3" y="9.6" width="65.8" height="79.6"/>
				</defs>
				<clipPath id="SVGID_16_">
					<use xlink:href="#SVGID_15_"  style="overflow:visible;"/>
				</clipPath>
				<g class="st14">
					<path class="st9" d="M79.9,49.4C79.4,49.5,79,50,79,50.5v0.8c0,0.3,0.5,0.6,1.1,0.6s1.1-0.2,1.1-0.6v-0.8c0-0.6-0.4-1-0.9-1.2
						v-0.1c0-0.1-0.1-0.1-0.2-0.1s-0.2,0.1-0.2,0.1L79.9,49.4z"/>
				</g>
			</g>
			<polygon class="st2" points="39.6,48.1 34.3,44.7 34.3,42.5 39.6,46 			"/>
			<polygon class="st2" points="39.6,50.3 34.3,46.8 34.3,44.7 39.6,48.2 			"/>
			<line class="st15" x1="34.3" y1="44.7" x2="39.6" y2="48.2"/>
		</g>
	</g>
</g>
</svg>
