<svg xmlns="http://www.w3.org/2000/svg" xmlns:xlink="http://www.w3.org/1999/xlink" width="146" height="182.613" viewBox="0 0 146 182.613"><defs><path id="a" d="M-70 -381.24H1154V410.76H-70z"/></defs><defs><path id="b" d="M-70 -381.24H1154V410.76H-70z"/></defs><defs><path id="c" d="M-70 -381.24H1154V410.76H-70z"/></defs><defs><path id="d" d="M-70 -381.24H1154V410.76H-70z"/></defs><defs><path id="e" d="M-70 -381.24H1154V410.76H-70z"/></defs><defs><path id="f" d="M-70 -381.24H1154V410.76H-70z"/></defs><defs><path id="g" d="M-70 -381.24H1154V410.76H-70z"/></defs><defs><path id="h" d="M-70 -381.24H1154V410.76H-70z"/></defs><defs><path id="i" d="M-70 -381.24H1154V410.76H-70z"/></defs><clipPath id="j"><use xlink:href="#i" overflow="visible"/></clipPath><g clip-path="url(#j)"><text transform="rotate(90 -59.493 65.143)"><tspan x="0" y="0" fill="#D1D3D4" font-family="'Calibre-Semibold'" font-size="7" letter-spacing="1">BR</tspan><tspan x="10.892" y="0" fill="#D1D3D4" font-family="'Calibre-Semibold'" font-size="7" letter-spacing="1">O</tspan><tspan x="16.709" y="0" fill="#D1D3D4" font-family="'Calibre-Semibold'" font-size="7" letter-spacing="1">A</tspan><tspan x="22.631" y="0" fill="#D1D3D4" font-family="'Calibre-Semibold'" font-size="7" letter-spacing="1">D</tspan><tspan x="28.364" y="0" fill="#D1D3D4" font-family="'Calibre-Semibold'" font-size="7" letter-spacing="1">W</tspan><tspan x="35.202" y="0" fill="#D1D3D4" font-family="'Calibre-Semibold'" font-size="7" letter-spacing="1">A</tspan><tspan x="40.635" y="0" fill="#D1D3D4" font-family="'Calibre-Semibold'" font-size="7">Y</tspan></text></g><g clip-path="url(#j)"><text transform="rotate(90 9.667 126.407)"><tspan x="0" y="0" fill="#D1D3D4" font-family="'Calibre-Semibold'" font-size="7" letter-spacing="1">L</tspan><tspan x="5.096" y="0" fill="#D1D3D4" font-family="'Calibre-Semibold'" font-size="7" letter-spacing="1">A</tspan><tspan x="11.025" y="0" fill="#D1D3D4" font-family="'Calibre-Semibold'" font-size="7" letter-spacing="1">F</tspan><tspan x="15.799" y="0" fill="#D1D3D4" font-family="'Calibre-Semibold'" font-size="7" letter-spacing="1">A</tspan><tspan x="21.238" y="0" fill="#D1D3D4" font-family="'Calibre-Semibold'" font-size="7" letter-spacing="1">YETTE </tspan><tspan x="51.387" y="0" fill="#D1D3D4" font-family="'Calibre-Semibold'" font-size="7" letter-spacing="1">S</tspan><tspan x="56.566" y="0" fill="#D1D3D4" font-family="'Calibre-Semibold'" font-size="7">T</tspan></text></g><g clip-path="url(#j)"><text transform="translate(47.917 121.738)"><tspan x="0" y="0" fill="#D1D3D4" font-family="'Calibre-Semibold'" font-size="7" letter-spacing="1">LE</tspan><tspan x="9.961" y="0" fill="#D1D3D4" font-family="'Calibre-Semibold'" font-size="7" letter-spacing="1">O</tspan><tspan x="15.834" y="0" fill="#D1D3D4" font-family="'Calibre-Semibold'" font-size="7" letter-spacing="1">N</tspan><tspan x="21.658" y="0" fill="#D1D3D4" font-family="'Calibre-Semibold'" font-size="7" letter-spacing="1">A</tspan><tspan x="27.44" y="0" fill="#D1D3D4" font-family="'Calibre-Semibold'" font-size="7" letter-spacing="1">RD </tspan><tspan x="41.328" y="0" fill="#D1D3D4" font-family="'Calibre-Semibold'" font-size="7" letter-spacing="1">S</tspan><tspan x="46.368" y="0" fill="#D1D3D4" font-family="'Calibre-Semibold'" font-size="7">T</tspan></text></g><g clip-path="url(#j)"><text transform="translate(42.976 175.442)"><tspan x="0" y="0" fill="#D1D3D4" font-family="'Calibre-Semibold'" font-size="7" letter-spacing="1">C</tspan><tspan x="5.593" y="0" fill="#D1D3D4" font-family="'Calibre-Semibold'" font-size="7" letter-spacing="1">A</tspan><tspan x="11.074" y="0" fill="#D1D3D4" font-family="'Calibre-Semibold'" font-size="7" letter-spacing="1">T</tspan><tspan x="16.639" y="0" fill="#D1D3D4" font-family="'Calibre-Semibold'" font-size="7" letter-spacing="1">H</tspan><tspan x="22.736" y="0" fill="#D1D3D4" font-family="'Calibre-Semibold'" font-size="7" letter-spacing="1">ER</tspan><tspan x="33.369" y="0" fill="#D1D3D4" font-family="'Calibre-Semibold'" font-size="7" letter-spacing="1">I</tspan><tspan x="36.617" y="0" fill="#D1D3D4" font-family="'Calibre-Semibold'" font-size="7" letter-spacing="1">NE L</tspan><tspan x="55.845" y="0" fill="#D1D3D4" font-family="'Calibre-Semibold'" font-size="7">N</tspan></text></g><path clip-path="url(#j)" d="M89.344 137.142L101.562 137.142 101.562 146.028 101.307 146.028 101.307 147.051 97.258 147.051 97.258 146.94 91.423 146.949 91.423 145.168 89.765 145.168 89.765 145.38 88.776 145.38 88.776 143.663 88.964 143.663 88.964 140.732 89.354 140.732z"/><defs><path id="k" d="M17.156 135.466H129.17V160.743H17.156z"/></defs><clipPath id="l"><use xlink:href="#k" overflow="visible"/></clipPath><path clip-path="url(#l)" fill="none" stroke="#D0D2D3" stroke-width="1.092" stroke-miterlimit="10" d="M126.485 137.142L126.485 159.065 18.506 152.348 18.557 137.142z"/><g><defs><path id="m" d="M-70 -381.24H1154V410.76H-70z"/></defs><clipPath id="n"><use xlink:href="#m" overflow="visible"/></clipPath><path clip-path="url(#n)" d="M52.945 27.532L52.972 45.437 59.793 49.396 59.771 31.513z"/><path clip-path="url(#n)" fill="none" stroke="#D1D3D4" stroke-width=".154" stroke-miterlimit="10" d="M107.787 95.057L69.543 72.901"/><path clip-path="url(#n)" fill="none" stroke="#D1D3D4" stroke-width=".154" stroke-miterlimit="10" d="M118.618 58.995L107.806 65.298 36.261 23.851"/><path clip-path="url(#n)" fill="none" stroke="#D1D3D4" stroke-width=".154" stroke-miterlimit="10" d="M118.618 61.974L107.806 68.276 36.261 26.829"/><path clip-path="url(#n)" fill="none" stroke="#D1D3D4" stroke-width=".154" stroke-miterlimit="10" d="M118.618 64.952L107.806 71.255 36.261 29.807"/><path clip-path="url(#n)" fill="none" stroke="#D1D3D4" stroke-width=".154" stroke-miterlimit="10" d="M118.618 67.931L107.806 74.232 36.261 32.785"/><path clip-path="url(#n)" fill="none" stroke="#D1D3D4" stroke-width=".154" stroke-miterlimit="10" d="M118.618 70.909L107.806 77.211 36.261 35.764"/><path clip-path="url(#n)" fill="none" stroke="#D1D3D4" stroke-width=".154" stroke-miterlimit="10" d="M118.618 73.887L107.806 80.189 36.261 38.742"/><path clip-path="url(#n)" fill="none" stroke="#D1D3D4" stroke-width=".154" stroke-miterlimit="10" d="M118.618 76.865L107.806 83.168 36.261 41.72"/><path clip-path="url(#n)" fill="none" stroke="#D1D3D4" stroke-width=".154" stroke-miterlimit="10" d="M118.618 79.844L107.806 86.146 36.261 44.699"/><path clip-path="url(#n)" fill="none" stroke="#D1D3D4" stroke-width=".154" stroke-miterlimit="10" d="M118.619 82.821L116.075 84.306"/><path clip-path="url(#n)" fill="none" stroke="#D1D3D4" stroke-width=".154" stroke-miterlimit="10" d="M110.333 87.651L107.807 89.125 36.261 47.678"/><path clip-path="url(#n)" fill="none" stroke="#D1D3D4" stroke-width=".154" stroke-miterlimit="10" d="M116.075 87.283L118.619 85.8"/><path clip-path="url(#n)" fill="none" stroke="#D1D3D4" stroke-width=".154" stroke-miterlimit="10" d="M110.333 90.63L107.807 92.104 36.261 50.655"/><path clip-path="url(#n)" fill="none" stroke="#D1D3D4" stroke-width=".154" stroke-miterlimit="10" d="M118.618 56.017L107.806 62.32 36.261 20.872"/><g clip-path="url(#n)"><text transform="matrix(.8479 .5302 -.8381 .5455 39.002 68.88)"><tspan x="0" y="0" fill="#D1D3D4" font-family="'Calibre-Semibold'" font-size="6.297" letter-spacing="1">LE</tspan><tspan x="9.464" y="-.001" fill="#D1D3D4" font-family="'Calibre-Semibold'" font-size="6.297" letter-spacing="1">O</tspan><tspan x="15" y="-.001" fill="#D1D3D4" font-family="'Calibre-Semibold'" font-size="6.297" letter-spacing="1">NAR</tspan><tspan x="31.006" y="-.001" fill="#D1D3D4" font-family="'Calibre-Semibold'" font-size="6.297" letter-spacing="1">D</tspan><tspan x="36.346" y="-.001" fill="#D1D3D4" font-family="'Calibre-Semibold'" font-size="6.297" letter-spacing="1"> </tspan><tspan x="39.193" y="0" fill="#D1D3D4" font-family="'Calibre-Semibold'" font-size="6.297" letter-spacing="1">S</tspan><tspan x="43.971" y="-.001" fill="#D1D3D4" font-family="'Calibre-Semibold'" font-size="6.297">T</tspan></text></g><path clip-path="url(#n)" fill="none" stroke="#000" stroke-width=".154" stroke-miterlimit="10" d="M107.805 53.568L107.805 48.858"/><path clip-path="url(#n)" fill="none" stroke="#000" stroke-width=".154" stroke-miterlimit="10" d="M44.906 15.849L44.906 11.953"/><path clip-path="url(#n)" fill="none" stroke="#000" stroke-width=".154" stroke-miterlimit="10" d="M57.983 20.907L57.983 23.078"/><path clip-path="url(#n)" fill="none" stroke="#000" stroke-width=".154" stroke-miterlimit="10" d="M52.209 17.621L52.209 19.792"/><path clip-path="url(#n)" fill="none" stroke="#000" stroke-width=".154" stroke-miterlimit="10" d="M59.54 20.053L59.54 22.225"/><path clip-path="url(#n)" fill="none" stroke="#000" stroke-width=".145" stroke-miterlimit="10" d="M59.55 22.19L57.965 23.118"/><path clip-path="url(#n)" fill="none" stroke="#000" stroke-width=".145" stroke-miterlimit="10" d="M59.471 20.133L58.003 20.992"/><path clip-path="url(#n)" fill="none" stroke="#000" stroke-width=".145" stroke-miterlimit="10" d="M99.232 38.807L92.898 42.514"/><path clip-path="url(#n)" fill="none" stroke="#000" stroke-width=".145" stroke-miterlimit="10" d="M104.086 42.672L98.658 45.849"/><path clip-path="url(#n)" fill="none" stroke="#000" stroke-width=".154" stroke-miterlimit="10" d="M67.153 24.44L67.153 26.611"/><path clip-path="url(#n)" fill="none" stroke="#000" stroke-width=".145" stroke-miterlimit="10" d="M72.456 22.672L98.08 39.501"/><path clip-path="url(#n)" fill="none" stroke="#000" stroke-width=".145" stroke-miterlimit="10" d="M99.202 38.8L104.086 42.008"/><path clip-path="url(#n)" fill="none" stroke="#000" stroke-width=".145" stroke-miterlimit="10" d="M72.456 22.004L98.576 39.16"/><path clip-path="url(#n)" fill="none" stroke="#000" stroke-width=".145" stroke-miterlimit="10" d="M41.823 14.575L44.481 16.114"/><path clip-path="url(#n)" fill="none" stroke="#000" stroke-width=".145" stroke-miterlimit="10" d="M52.209 17.621L57.982 20.971"/><path clip-path="url(#n)" fill="none" stroke="#000" stroke-width=".145" stroke-miterlimit="10" d="M59.558 20.133L67.229 24.577"/><path clip-path="url(#n)" fill="none" stroke="#000" stroke-width=".145" stroke-miterlimit="10" d="M59.515 22.191L67.153 26.617"/><path clip-path="url(#n)" fill="none" stroke="#000" stroke-width=".145" stroke-miterlimit="10" d="M92.926 42.523L98.667 45.85"/><path clip-path="url(#n)" fill="none" stroke="#000" stroke-width=".154" stroke-miterlimit="10" d="M107.775 39.979L107.775 37.666"/><path clip-path="url(#n)" fill="none" stroke="#000" stroke-width=".154" stroke-miterlimit="10" d="M98.133 50.235L97.217 49.686 96.065 50.359 46.477 21.632 46.477 19.199"/><path clip-path="url(#n)" fill="none" stroke="#000" stroke-width=".154" stroke-miterlimit="10" d="M58.91 13.775L53.993 10.546 42.817 17.089 96.064 47.924"/><path clip-path="url(#n)" fill="none" stroke="#000" stroke-width=".154" stroke-miterlimit="10" d="M96.065 47.923L96.065 50.356"/><path clip-path="url(#n)" fill="none" stroke="#000" stroke-width=".154" stroke-miterlimit="10" d="M97.223 47.232L96.065 47.909"/><path clip-path="url(#n)" fill="none" stroke="#000" stroke-width=".154" stroke-miterlimit="10" d="M97.223 49.686L97.223 47.232 92.926 44.742"/><path clip-path="url(#n)" fill="none" stroke="#000" stroke-width=".154" stroke-miterlimit="10" d="M107.855 58.034L107.855 55.36"/><path clip-path="url(#n)" fill="none" stroke="#000" stroke-width=".154" stroke-miterlimit="10" d="M113.702 47.899L116.951 50.033 116.951 52.72 107.854 58.044 98.133 52.412 98.133 49.732 102.042 47.446"/><path clip-path="url(#n)" fill="none" stroke="#000" stroke-width=".154" stroke-miterlimit="10" d="M116.951 50.033L107.853 55.359 98.133 49.733"/><path clip-path="url(#n)" fill="none" stroke="#000" stroke-width=".145" stroke-miterlimit="10" d="M43.792 17.636L43.792 18.947 46.478 20.518"/><path clip-path="url(#n)" fill="none" stroke="#000" stroke-width=".145" stroke-miterlimit="10" d="M52.209 19.789L57.982 23.135"/><path clip-path="url(#n)" fill="none" stroke="#000" stroke-width=".141" stroke-miterlimit="10" d="M92.901 44.732L92.901 42.521"/><path clip-path="url(#n)" fill="none" stroke="#000" stroke-width=".141" stroke-miterlimit="10" d="M98.667 49.38L98.667 45.856"/><path clip-path="url(#n)" fill="none" stroke="#000" stroke-width=".145" stroke-miterlimit="10" d="M111.584 38.845L107.811 41.054 104.085 38.892"/><path clip-path="url(#n)" fill="none" stroke="#000" stroke-width=".154" stroke-miterlimit="10" d="M111.584 43.646L111.94 43.854 111.94 45.502 107.818 47.911 103.666 45.506 103.666 43.982 104.085 43.736"/><path clip-path="url(#n)" fill="none" stroke="#000" stroke-width=".154" stroke-miterlimit="10" d="M107.813 47.906L107.813 41.054"/><path clip-path="url(#n)" fill="none" stroke="#000" stroke-width=".154" stroke-miterlimit="10" d="M111.941 44.369L113.703 45.39 113.703 50.13 107.805 53.576 102.042 50.237 102.042 45.486 103.666 44.536"/><path clip-path="url(#n)" fill="none" stroke="#000" stroke-width=".154" stroke-miterlimit="10" d="M113.702 45.391L107.805 48.859 102.086 45.546"/><path clip-path="url(#n)" fill="none" stroke="#000" stroke-width=".154" stroke-miterlimit="10" d="M41.823 14.547L36.182 17.85 36.182 57.437"/><path clip-path="url(#n)" fill="none" stroke="#000" stroke-width=".154" stroke-miterlimit="10" d="M48.064 10.894L52.017 8.581 59.451 13.463"/><path clip-path="url(#n)" fill="none" stroke="#000" stroke-width=".154" stroke-miterlimit="10" d="M107.806 59.343L107.767 95.08"/><path clip-path="url(#n)" fill="none" stroke="#D1D3D4" stroke-width=".154" stroke-miterlimit="10" d="M66.522 71.15L36.249 53.611"/><path clip-path="url(#n)" fill="none" stroke="#000" stroke-width=".145" stroke-miterlimit="10" d="M43.455 9.211L41.822 10.167 41.822 14.575"/><path clip-path="url(#n)" fill="none" stroke="#000" stroke-width=".145" stroke-miterlimit="10" d="M46.546 9.224L48.063 10.104 48.063 13.979"/><path clip-path="url(#n)" fill="none" stroke="#000" stroke-width=".145" stroke-miterlimit="10" d="M41.823 10.166L44.906 11.952 48.065 10.103"/><path clip-path="url(#n)" fill="none" stroke="#000" stroke-width=".154" stroke-miterlimit="10" d="M109.085 35.895L109.893 36.425 109.893 38.742 107.774 39.979 105.637 38.741 105.637 36.426 106.739 35.781"/><path clip-path="url(#n)" fill="none" stroke="#000" stroke-width=".145" stroke-miterlimit="10" d="M109.896 36.427L107.774 37.667 105.635 36.427"/></g><g><defs><path id="o" d="M34.4 0H125.029V97.295H34.4z"/></defs><clipPath id="p"><use xlink:href="#o" overflow="visible"/></clipPath><path clip-path="url(#p)" fill="none" stroke="#000" stroke-width=".154" stroke-miterlimit="10" d="M105.805 33.933c-.045.091-.203.264-.218.334l.129.342c.13.174.606.335 1.399.108.794-.225 2.457-1.106 2.609-1.999l-.266-.5s-.247-.079-.517-.009"/></g><g><defs><path id="q" d="M-70 -381.24H1154V410.76H-70z"/></defs><clipPath id="r"><use xlink:href="#q" overflow="visible"/></clipPath><path clip-path="url(#r)" fill="none" stroke="#000" stroke-width=".154" stroke-miterlimit="10" d="M106.551 30.669L107.68 31.216 108.027 31.07 108.808 29.976"/></g><g><defs><path id="s" d="M34.4 0H125.029V97.295H34.4z"/></defs><clipPath id="t"><use xlink:href="#s" overflow="visible"/></clipPath><path clip-path="url(#t)" fill="none" stroke="#000" stroke-width=".154" stroke-miterlimit="10" d="M109.528 33.17a1.883 1.883 0 0 1-3.207 1.711l-.077-.059m-.293-.486a1.884 1.884 0 0 1 1.448-2.609 1.816 1.816 0 0 1 1.65.566c.222.25.302.445.302.445m-2.374 9.713c.315.903.068 1.637-.552 1.639s-1.377-.729-1.692-1.633c-.315-.904-.068-1.638.552-1.639.62-.003 1.377.729 1.692 1.633zm1.613.03c-.315.903-.068 1.637.552 1.639s1.377-.73 1.692-1.633c.314-.904.068-1.638-.552-1.64-.62-.001-1.377.73-1.692 1.634z"/><path clip-path="url(#t)" fill="none" stroke="#000" stroke-width=".145" stroke-linejoin="bevel" stroke-miterlimit="10" d="M109.081 35.998s.005-.164-.01-.203a.138.138 0 0 0-.103-.091c-.064-.016-.331.062-.331.062s-.003-.045-.003-.105v-.048l.1-.429"/><path clip-path="url(#t)" fill="none" stroke="#000" stroke-width=".145" stroke-miterlimit="10" d="M108.188 35.979c-.021.078.06.163.076.217.024.079.205.135.363.019"/></g><g><defs><path id="u" d="M-70 -381.24H1154V410.76H-70z"/></defs><clipPath id="v"><use xlink:href="#u" overflow="visible"/></clipPath><path clip-path="url(#v)" fill="none" stroke="#000" stroke-width=".145" stroke-miterlimit="10" d="M107.182 36.707L107.182 36.532 107.425 36.124 107.383 35.979 106.933 35.904 106.531 35.659 106.694 35.185"/><path clip-path="url(#v)" fill="none" stroke="#000" stroke-width=".154" stroke-miterlimit="10" d="M105.637 37.983L104.085 38.892 104.085 43.947 107.818 46.109 111.585 43.909 111.585 38.845 109.899 37.867"/></g><g><defs><path id="w" d="M34.4 0H125.029V97.295H34.4z"/></defs><clipPath id="x"><use xlink:href="#w" overflow="visible"/></clipPath><path clip-path="url(#x)" fill="none" stroke="#000" stroke-width=".145" stroke-miterlimit="10" d="M44.743 7.509c-.731.127-1.288.791-1.288 1.59v1.122c0 .438.691.793 1.545.793s1.545-.355 1.545-.793V9.099c0-.798-.557-1.462-1.288-1.59v-.17c0-.079-.098-.172-.258-.172-.157 0-.256.093-.256.172v.17z"/></g><g><defs><path id="y" d="M-70 -381.24H1154V410.76H-70z"/></defs><clipPath id="z"><use xlink:href="#y" overflow="visible"/></clipPath><path clip-path="url(#z)" fill="none" stroke="#000" stroke-width=".154" stroke-miterlimit="10" d="M118.618 53.038L107.806 59.341 36.261 17.895"/><path clip-path="url(#z)" fill="none" stroke="#000" stroke-width=".154" stroke-miterlimit="10" d="M69.543 73.447L67.455 72.241 65.571 73.339 68.179 74.847 69.543 74.053"/><path clip-path="url(#z)" fill="none" stroke="#000" stroke-width=".154" stroke-miterlimit="10" d="M69.543 73.447L67.455 72.241"/><path clip-path="url(#z)" fill="none" stroke="#000" stroke-width=".154" stroke-miterlimit="10" d="M69.543 75.19L68.563 74.623"/></g><g><defs><path id="A" d="M34.4 0H125.029V97.295H34.4z"/></defs><clipPath id="B"><use xlink:href="#A" overflow="visible"/></clipPath><path clip-path="url(#B)" fill="none" stroke="#000" stroke-width=".154" stroke-miterlimit="10" d="M67.878 69.868c-.285.242-.419.651-.419.861v1.541"/></g><g><defs><path id="C" d="M-70 -381.24H1154V410.76H-70z"/></defs><clipPath id="D"><use xlink:href="#C" overflow="visible"/></clipPath><path clip-path="url(#D)" fill="none" stroke="#000" stroke-width=".154" stroke-miterlimit="10" d="M67.049 74.193L66.517 74.503 36.183 57.414"/><path clip-path="url(#D)" fill="none" stroke="#000" stroke-width=".154" stroke-miterlimit="10" d="M66.521 74.503L66.521 73.888"/></g><g><defs><path id="E" d="M34.4 0H125.029V97.295H34.4z"/></defs><clipPath id="F"><use xlink:href="#E" overflow="visible"/></clipPath><path clip-path="url(#F)" fill="none" stroke="#000" stroke-width=".154" stroke-miterlimit="10" d="M116.075 90.228v-5.765l-5.742 3.188v5.933l-2.568 1.497-19.247-9.11-15.437-7.77-3.538-1.993v-4.051c0-.263-.245-1.495-1.51-2.227-1.067-.62-1.513.485-1.513.874v1.981"/></g><g><defs><path id="G" d="M-70 -381.24H1154V410.76H-70z"/></defs><clipPath id="H"><use xlink:href="#G" overflow="visible"/></clipPath><path clip-path="url(#H)" fill="none" stroke="#000" stroke-width=".154" stroke-miterlimit="10" d="M112.012 90.639L112.012 89.143 111.078 89.683 111.078 91.18"/></g><g><defs><path id="I" d="M34.4 0H125.029V97.295H34.4z"/></defs><clipPath id="J"><use xlink:href="#I" overflow="visible"/></clipPath><path clip-path="url(#J)" fill="none" stroke="#000" stroke-width=".154" stroke-miterlimit="10" d="M116.951 51.975l1.654 1.085v35.703l-2.53 1.466c-.087-.032-2.168-.641-3.842.285l-1.321.766a1.995 1.995 0 0 0-.58.429"/></g><g><defs><path id="K" d="M-70 -381.24H1154V410.76H-70z"/></defs><clipPath id="L"><use xlink:href="#K" overflow="visible"/></clipPath><path clip-path="url(#L)" fill="none" stroke="#000" stroke-width=".145" stroke-miterlimit="10" d="M67.153 26.611L72.457 23.452 72.457 21.407 59.958 13.17 52.211 17.647"/><path clip-path="url(#L)" fill="none" stroke="#000" stroke-width=".145" stroke-miterlimit="10" d="M72.456 21.398L67.167 24.517"/></g><g><defs><path id="M" d="M34.4 0H125.029V97.295H34.4z"/></defs></g><g><defs><path id="N" d="M-70 -381.24H1154V410.76H-70z"/></defs></g></svg>