<?xml version="1.0" encoding="utf-8"?>
<!-- Generator: Adobe Illustrator 23.0.0, SVG Export Plug-In . SVG Version: 6.00 Build 0)  -->
<svg version="1.1" id="Layer_1" xmlns="http://www.w3.org/2000/svg" xmlns:xlink="http://www.w3.org/1999/xlink" x="0px" y="0px"
	 viewBox="0 0 123.3 164.8" style="enable-background:new 0 0 123.3 164.8;" xml:space="preserve">
<style type="text/css">
	.st0{fill:#D2D3D4;}
	.st1{clip-path:url(#SVGID_2_);}
	.st2{fill:#231F20;}
	.st3{clip-path:url(#SVGID_4_);}
	.st4{fill:none;stroke:#D1D3D4;stroke-width:1.09;stroke-miterlimit:10;}
	.st5{clip-path:url(#SVGID_6_);}
	.st6{fill:none;stroke:#231F20;stroke-width:0.15;stroke-miterlimit:10;}
	.st7{enable-background:new    ;}
	.st8{fill:#D1D3D4;}
	.st9{fill:none;stroke:#231F20;stroke-width:0.14;stroke-miterlimit:10;}
	.st10{clip-path:url(#SVGID_8_);}
	.st11{clip-path:url(#SVGID_10_);}
	.st12{clip-path:url(#SVGID_12_);}
	.st13{clip-path:url(#SVGID_14_);}
	.st14{clip-path:url(#SVGID_16_);}
</style>
<title>residence_R_6_key</title>
<g>
	<path class="st0" d="M14.3,117.1c-0.6,0-1-0.4-1-1.1v-1.4h3.4v1.3c0,0.7-0.3,1.1-0.9,1.1c-0.3,0-0.6-0.2-0.7-0.4
		C14.9,116.9,14.6,117.1,14.3,117.1z M13.9,115.2v0.7c0,0.3,0.2,0.5,0.4,0.5s0.4-0.2,0.4-0.5v-0.7H13.9z M15.3,115.8
		c0,0.3,0.1,0.5,0.4,0.5s0.4-0.2,0.4-0.5v-0.6h-0.8L15.3,115.8z"/>
	<path class="st0" d="M14.6,119.5h-1.3v-0.7h3.4v1.4c0.1,0.5-0.3,1.1-0.8,1.2c-0.1,0-0.2,0-0.3,0c-0.5,0-0.9-0.3-1-0.8l-1.3,0.9
		v-0.8l1.3-0.8L14.6,119.5z M15.1,119.5v0.7c0,0.3,0.2,0.5,0.5,0.5s0.5-0.2,0.5-0.5v-0.7H15.1z"/>
	<path class="st0" d="M13.3,124.6c0-0.9,0.8-1.6,1.7-1.6c0,0,0.1,0,0.1,0c0.9-0.1,1.7,0.6,1.7,1.5c0.1,0.9-0.6,1.7-1.5,1.7
		c-0.1,0-0.2,0-0.3,0c-0.9,0.1-1.7-0.6-1.7-1.5C13.3,124.7,13.3,124.6,13.3,124.6z M16.1,124.6c0-0.5-0.4-0.9-1.1-0.9
		s-1.1,0.3-1.1,0.9s0.5,0.9,1.1,0.9S16.1,125.1,16.1,124.6z"/>
	<path class="st0" d="M16.7,129.4l-3.4,1.3V130l0.8-0.3v-1.3l-0.8-0.3v-0.7l3.4,1.3V129.4z M14.7,128.7v0.8l1.1-0.4L14.7,128.7z"/>
	<path class="st0" d="M16.7,132.4v1.2c0.1,0.9-0.6,1.6-1.5,1.7c-0.1,0-0.2,0-0.2,0c-0.9,0.1-1.6-0.6-1.7-1.4c0-0.1,0-0.2,0-0.2v-1.2
		H16.7z M13.9,133.5c0,0.6,0.4,1,1,1c0,0,0,0,0.1,0c0.6,0,1-0.4,1.1-0.9c0,0,0,0,0-0.1v-0.5h-2.1V133.5z"/>
	<path class="st0" d="M16.7,139l-2.3,0.6l2.3,0.6v0.7l-3.4-0.8v-0.6l2.2-0.6l-2.2-0.6v-0.6l3.4-0.9v0.7l-2.3,0.6l2.3,0.6L16.7,139z"
		/>
	<path class="st0" d="M16.7,144l-3.4,1.3v-0.7l0.8-0.3V143l-0.8-0.3V142l3.4,1.3V144z M14.7,143.2v0.8l1.1-0.4L14.7,143.2z"/>
	<path class="st0" d="M16.7,148.6v0.8l-2.1-1.2h-1.3v-0.7h1.3l2.1-1.2v0.8l-1.4,0.8L16.7,148.6z"/>
	<path class="st0" d="M111.7,108.4v0.7h-2.8v1.6h-0.6v-2.3H111.7z"/>
	<path class="st0" d="M111.7,114.1l-3.4,1.3v-0.7l0.8-0.3v-1.3l-0.8-0.3v-0.7l3.4,1.3V114.1z M109.7,113.4v0.8l1.1-0.4L109.7,113.4z
		"/>
	<path class="st0" d="M108.3,117h3.4v2.2h-0.6v-1.5h-0.9v1.4h-0.6v-1.4h-1.3V117z"/>
	<path class="st0" d="M111.7,122.5l-3.4,1.3v-0.7l0.8-0.3v-1.3l-0.8-0.3v-0.7l3.4,1.3V122.5z M109.7,121.8v0.8l1.1-0.4L109.7,121.8z
		"/>
	<path class="st0" d="M111.7,127.2v0.7l-2.1-1.2h-1.3V126h1.3l2.1-1.2v0.8l-1.4,0.8L111.7,127.2z"/>
	<path class="st0" d="M111.7,131.8h-0.6v-1.6h-0.7v1.4h-0.6v-1.4h-0.8v1.6h-0.6v-2.3h3.4V131.8z"/>
	<path class="st0" d="M111.7,133.4v2.9h-0.6v-1.1h-2.8v-0.7h2.8v-1.1L111.7,133.4z"/>
	<path class="st0" d="M111.7,137.8v2.9h-0.6v-1.1h-2.8v-0.7h2.8v-1.1H111.7z"/>
	<path class="st0" d="M111.7,144.6h-0.6V143h-0.7v1.4h-0.6V143h-0.8v1.6h-0.6v-2.3h3.4V144.6z"/>
	<path class="st0" d="M109.2,149.2c-0.3,0.1-0.5,0.4-0.4,0.7c0,0.4,0.2,0.6,0.4,0.6s0.3-0.1,0.4-0.4l0.1-0.6c0-0.5,0.4-0.9,0.9-0.9
		c0.6,0,1,0.6,1,1.1c0,0,0,0,0,0.1c0.1,0.6-0.4,1.2-1,1.3v-0.7c0.3-0.1,0.4-0.3,0.4-0.6c0-0.3-0.2-0.5-0.4-0.5s-0.3,0.1-0.4,0.4
		l-0.1,0.6c-0.1,0.6-0.4,0.9-1,0.9s-1-0.5-1-1.2c-0.1-0.7,0.4-1.3,1-1.4L109.2,149.2L109.2,149.2z"/>
	<path class="st0" d="M111.7,152.6v2.9h-0.6v-1.1h-2.8v-0.7h2.8v-1.1L111.7,152.6z"/>
	<path class="st0" d="M43.1,112.6h0.7v2.8h1.6v0.6h-2.3V112.6z"/>
	<path class="st0" d="M49.3,112.6v0.6h-1.6v0.8h1.5v0.6h-1.5v0.8h1.6v0.6H47v-3.4L49.3,112.6z"/>
	<path class="st0" d="M52.4,116c-1,0.1-1.8-0.7-1.9-1.6c-0.1-1,0.7-1.8,1.6-1.9s1.8,0.7,1.9,1.6c0,0.1,0,0.1,0,0.2
		c0,0.9-0.6,1.6-1.5,1.7C52.4,116,52.4,116,52.4,116z M52.4,113.2c-0.5,0-0.9,0.4-0.9,1.1s0.3,1.1,0.9,1.1s0.9-0.5,0.9-1.1
		S52.9,113.2,52.4,113.2L52.4,113.2z"/>
	<path class="st0" d="M58.4,116h-0.6l-1.6-2.2v2.2h-0.7v-3.4h0.7l1.5,2.1v-2.1h0.7V116z"/>
	<path class="st0" d="M61.9,112.6l1.3,3.4h-0.7l-0.3-0.8h-1.3l-0.3,0.8h-0.7l1.3-3.4L61.9,112.6z M61.1,114.6h0.8l-0.4-1.1
		L61.1,114.6z"/>
	<path class="st0" d="M65.4,114.7v1.3h-0.7v-3.4h1.4c0.5-0.1,1.1,0.2,1.2,0.8c0,0.1,0,0.2,0,0.3c0,0.5-0.3,0.9-0.8,1l0.9,1.3h-0.8
		l-0.8-1.3L65.4,114.7z M65.4,114.2H66c0.3,0,0.5-0.2,0.5-0.5s-0.2-0.5-0.5-0.5h-0.7L65.4,114.2z"/>
	<path class="st0" d="M68.9,112.6h1.2c0.9,0.1,1.6,0.9,1.6,1.8c-0.1,0.8-0.7,1.5-1.6,1.6h-1.2V112.6z M70,115.4
		c0.6,0,1.1-0.5,1.1-1.1c0-0.6-0.5-1.1-1.1-1.1h-0.5v2.1H70z"/>
	<path class="st0" d="M76.1,115c0.1,0.3,0.4,0.5,0.7,0.4c0.3,0,0.6-0.2,0.6-0.4s-0.1-0.3-0.4-0.4l-0.6-0.1c-0.5-0.1-0.8-0.4-0.8-0.9
		c0-0.6,0.6-1,1.2-1c0,0,0,0,0,0c0.6-0.1,1.2,0.4,1.3,1h-0.7c-0.1-0.3-0.3-0.4-0.6-0.4c-0.3,0-0.5,0.2-0.5,0.4s0.1,0.3,0.4,0.4
		l0.6,0.2c0.5,0.1,0.9,0.5,0.9,1c-0.1,0.6-0.6,1.1-1.2,1c0,0,0,0,0,0c-0.7,0.1-1.3-0.4-1.4-1L76.1,115z"/>
	<path class="st0" d="M79.4,112.6h2.9v0.6h-1.1v2.8h-0.7v-2.8h-1.1V112.6z"/>
	<path class="st0" d="M40.6,147.9c0.7,0,1.3,0.4,1.4,1.1h-0.7c-0.1-0.3-0.4-0.5-0.7-0.5c-0.5,0-0.8,0.5-0.8,1.1s0.3,1.1,0.8,1.1
		c0.3,0,0.6-0.2,0.7-0.5H42c-0.1,0.7-0.7,1.2-1.4,1.1c-1-0.1-1.7-1-1.6-1.9C39.2,148.6,39.8,147.9,40.6,147.9z"/>
	<path class="st0" d="M45.4,147.9l1.3,3.4H46l-0.3-0.8h-1.3l-0.3,0.8h-0.7l1.3-3.4H45.4z M44.6,149.9h0.8l-0.4-1.2L44.6,149.9z"/>
	<path class="st0" d="M47.8,147.9h2.9v0.6h-1.1v2.8h-0.7v-2.8h-1.1V147.9z"/>
	<path class="st0" d="M55.2,147.9v3.4h-0.7v-1.4H53v1.4h-0.7v-3.4H53v1.3h1.5v-1.3H55.2z"/>
	<path class="st0" d="M59.4,147.9v0.6h-1.6v0.7h1.5v0.6h-1.5v0.8h1.6v0.6h-2.3v-3.4L59.4,147.9z"/>
	<path class="st0" d="M61.8,150v1.3h-0.7v-3.4h1.4c0.5-0.1,1.1,0.3,1.2,0.8c0,0.1,0,0.2,0,0.3c0,0.5-0.3,0.9-0.8,1l0.9,1.3H63
		l-0.8-1.3H61.8z M61.8,149.4h0.6c0.4,0,0.5-0.2,0.5-0.5s-0.2-0.5-0.5-0.5h-0.6V149.4z"/>
	<path class="st0" d="M66.2,151.3h-0.7v-3.4h0.7V151.3z"/>
	<path class="st0" d="M70.8,151.3h-0.6l-1.6-2.3v2.2H68v-3.4h0.7l1.5,2.1v-2.1h0.7V151.3z"/>
	<path class="st0" d="M75,147.9v0.6h-1.6v0.7h1.4v0.6h-1.5v0.8H75v0.6h-2.3v-3.4L75,147.9z"/>
	<path class="st0" d="M79.1,147.9h0.7v2.8h1.6v0.6h-2.3V147.9z"/>
	<path class="st0" d="M85.9,151.3h-0.6l-1.6-2.3v2.2h-0.7v-3.4h0.7l1.5,2.1v-2.1h0.7V151.3L85.9,151.3z"/>
</g>
<g id="Layer_4">
	<g>
		<defs>
			<rect id="SVGID_1_" x="24.2" y="124.7" width="76.1" height="17.2"/>
		</defs>
		<clipPath id="SVGID_2_">
			<use xlink:href="#SVGID_1_"  style="overflow:visible;"/>
		</clipPath>
		<g class="st1">
			<polygon class="st2" points="84.4,133.7 85.8,133.7 85.8,134 86.8,134 86.8,133.7 89.1,133.7 89.1,135.8 88.4,135.8 88.4,137.6 
				89.4,137.6 89.4,140.3 84.1,140.1 84.1,138.2 84.4,138.2 84.4,136.3 84,136.3 84,134.4 84.4,134.4 			"/>
			<g>
				<defs>
					<rect id="SVGID_3_" x="24.2" y="124.7" width="76.1" height="17.2"/>
				</defs>
				<clipPath id="SVGID_4_">
					<use xlink:href="#SVGID_3_"  style="overflow:visible;"/>
				</clipPath>
				<g class="st3">
					<polygon class="st4" points="98.5,125.8 98.5,140.7 25.1,136.2 25.2,125.8 					"/>
				</g>
			</g>
		</g>
	</g>
	<g>
		<defs>
			<rect id="SVGID_5_" x="24.8" y="11.5" width="64" height="77.3"/>
		</defs>
		<clipPath id="SVGID_6_">
			<use xlink:href="#SVGID_5_"  style="overflow:visible;"/>
		</clipPath>
		<g class="st5">
			<polyline class="st6" points="87.1,56.9 76,63.1 29.4,32.5 			"/>
			<polyline class="st6" points="87.1,59 76,65.2 29.4,34.6 			"/>
			<polyline class="st6" points="87.1,61.1 76,67.3 29.4,36.7 			"/>
			<polyline class="st6" points="87.1,63.2 76,69.4 29.4,38.8 			"/>
			<polyline class="st6" points="87.1,65.2 76,71.5 29.4,40.9 			"/>
			<polyline class="st6" points="87.1,67.3 76,73.6 29.4,43 			"/>
			<polyline class="st6" points="87.1,69.4 76,75.7 29.4,45.1 			"/>
			<polyline class="st6" points="87.1,71.5 76,77.8 29.4,47.2 			"/>
			<polyline class="st6" points="87.1,73.6 76,79.9 29.4,49.2 			"/>
			<polyline class="st6" points="87.1,75.7 76,82 29.4,51.3 			"/>
			<polyline class="st6" points="87.1,77.8 76,84.1 29.4,53.4 			"/>
			<g class="st7">
				<path class="st8" d="M34.1,62.5c0.5,0.4,0.5,0.8,0.1,1.1l-0.5-0.3c0.1-0.2,0.1-0.4-0.1-0.5c-0.4-0.2-0.9-0.2-1.3,0.1
					c-0.4,0.3-0.6,0.6-0.2,0.8c0.3,0.2,0.5,0.2,0.8,0.1l0.5,0.3c-0.6,0.2-1.2,0.2-1.7-0.2c-0.6-0.4-0.5-1,0.2-1.4
					C32.6,62.1,33.5,62.1,34.1,62.5z"/>
			</g>
			<g class="st7">
				<path class="st8" d="M37.2,64.8l-1.5,1.9l-0.5-0.3l0.4-0.5l-0.8-0.6l-0.8,0.2l-0.5-0.3l3.2-0.8L37.2,64.8z M35.4,65.2l0.5,0.4
					l0.5-0.6L35.4,65.2z"/>
			</g>
			<g class="st7">
				<path class="st8" d="M38.9,65.9l1.9,1.3l-0.4,0.2L39.6,67l-1.9,1.1l-0.5-0.3l1.9-1.1l-0.7-0.5L38.9,65.9z"/>
				<path class="st8" d="M43.9,69.4l-2.3,1.4l-0.5-0.3l1-0.6l-1-0.7l-1,0.6l-0.5-0.3l2.3-1.4l0.5,0.3l-0.9,0.5l1,0.7l0.9-0.5
					L43.9,69.4z"/>
				<path class="st8" d="M46.7,71.3l-0.4,0.2l-1.1-0.7l-0.5,0.3l1,0.7L45.2,72l-1-0.7l-0.6,0.3l1.1,0.7l-0.4,0.2l-1.5-1l2.3-1.4
					L46.7,71.3z"/>
				<path class="st8" d="M46.9,73.3L46,73.8l-0.5-0.3l2.3-1.4l0.9,0.6c0.5,0.3,0.5,0.7,0,1c-0.4,0.2-0.8,0.2-1.2,0l-0.3,0.9
					l-0.5-0.4l0.3-0.9L46.9,73.3z M47.3,73.1l0.4,0.3c0.2,0.2,0.5,0.2,0.7,0.1c0.2-0.1,0.2-0.3,0-0.4l-0.4-0.3L47.3,73.1z"/>
				<path class="st8" d="M48.9,75.9l-0.5-0.3l2.3-1.4l0.5,0.3L48.9,75.9z"/>
				<path class="st8" d="M52.1,78l-0.4-0.3l0.5-1.6l-1.6,0.9l-0.4-0.3l2.3-1.4l0.4,0.3l-0.5,1.5l1.5-0.9l0.4,0.3L52.1,78z"/>
				<path class="st8" d="M57.2,78.6l-0.4,0.2l-1.1-0.7l-0.5,0.3l1,0.7l-0.4,0.2l-1-0.7L54.2,79l1.1,0.7L54.9,80l-1.5-1l2.3-1.4
					L57.2,78.6z"/>
				<path class="st8" d="M60.1,80.6l0.5,0.3L58.6,82l1,0.7L59.2,83l-1.5-1L60.1,80.6z"/>
			</g>
			<g class="st7">
				<path class="st8" d="M62.3,85.1l-0.4-0.3l0.5-1.6l-1.6,0.9l-0.4-0.3l2.3-1.4l0.4,0.3l-0.5,1.5l1.5-0.9l0.4,0.3L62.3,85.1z"/>
			</g>
			<polyline class="st9" points="87.1,54.8 76,61 29.4,30.4 			"/>
			<line class="st9" x1="76" y1="58.9" x2="76" y2="86.1"/>
			<line class="st9" x1="81.7" y1="82.2" x2="81" y2="82.6"/>
			<polyline class="st9" points="81.7,82.2 82.1,82.5 87.1,79.6 87.1,52.7 			"/>
			<polyline class="st9" points="87.1,52.7 76,58.9 29.4,28.3 			"/>
			<g>
				<defs>
					<rect id="SVGID_7_" x="24.8" y="11.5" width="63.6" height="77.3"/>
				</defs>
				<clipPath id="SVGID_8_">
					<use xlink:href="#SVGID_7_"  style="overflow:visible;"/>
				</clipPath>
				<g class="st10">
					<path class="st9" d="M81.7,82.2v-0.6c0-0.1,0-0.2-0.1-0.3"/>
					<path class="st9" d="M82.1,82.5v-0.9c0-0.2-0.2-0.5-0.6-0.2c-0.3,0.2-0.5,0.5-0.5,0.8v1l-5,2.9l-6.5-4.5l-8.2-5.7l-6.9-4.8
						l-10.3-7L29.4,53.5V28.3l1-0.6"/>
				</g>
			</g>
			<line class="st9" x1="77.8" y1="53.8" x2="77.8" y2="52.7"/>
			<line class="st9" x1="36.1" y1="30.2" x2="36.1" y2="32.1"/>
			<line class="st9" x1="77.8" y1="53.8" x2="78.4" y2="54.1"/>
			<line class="st9" x1="77.8" y1="52.7" x2="78.4" y2="53"/>
			<line class="st9" x1="36.4" y1="19.1" x2="36.4" y2="17.7"/>
			<line class="st9" x1="36.4" y1="19.2" x2="36.4" y2="17.6"/>
			<line class="st9" x1="36.2" y1="28.8" x2="36.2" y2="25.5"/>
			<polyline class="st9" points="37.2,31.5 36.1,32.1 30.4,28.4 30.4,26.5 32.4,25.4 			"/>
			<polyline class="st9" points="36.4,23.5 39.1,22 39.1,18.5 39.1,18.4 37.9,17.6 			"/>
			<g>
				<defs>
					<rect id="SVGID_9_" x="24.8" y="11.5" width="63.6" height="77.3"/>
				</defs>
				<clipPath id="SVGID_10_">
					<use xlink:href="#SVGID_9_"  style="overflow:visible;"/>
				</clipPath>
				<g class="st11">
					<path class="st9" d="M35.8,20.9c0.2,0.6,0,1.1-0.4,1.1s-1-0.5-1.2-1.1s0-1.1,0.4-1.1S35.6,20.3,35.8,20.9z"/>
					<path class="st9" d="M37,20.9c-0.2,0.6,0,1.1,0.4,1.1s1-0.5,1.2-1.1s0-1.1-0.4-1.1S37.2,20.3,37,20.9z"/>
				</g>
			</g>
			<line class="st9" x1="36.2" y1="25.5" x2="40.5" y2="23"/>
			<line class="st9" x1="32.4" y1="23" x2="36.2" y2="25.5"/>
			<line class="st9" x1="30.4" y1="26.5" x2="36.1" y2="30.2"/>
			<polyline class="st9" points="39.1,21.8 39.3,21.9 39.3,23 39.3,23.1 36.4,24.8 36.4,24.7 36.4,20.1 			"/>
			<polyline class="st9" points="33.5,22.4 32.4,23 32.4,26.3 32.4,26.4 36.1,28.8 			"/>
			<polyline class="st9" points="40.6,24.7 42.9,26.2 42.9,27.5 			"/>
			<line class="st9" x1="36.3" y1="20.1" x2="39.1" y2="18.5"/>
			<line class="st9" x1="33.8" y1="18.4" x2="34.9" y2="17.8"/>
			<line class="st9" x1="33.8" y1="18.4" x2="36.4" y2="20.1"/>
			<polyline class="st9" points="39.3,22.2 40.5,23 40.5,23 40.5,26.2 40.5,26.3 36.1,28.9 			"/>
			<line class="st9" x1="34.9" y1="16.7" x2="36.4" y2="17.7"/>
			<line class="st9" x1="37.2" y1="16.2" x2="37.9" y2="16.7"/>
			<g>
				<defs>
					<rect id="SVGID_11_" x="24.8" y="11.5" width="63.6" height="77.3"/>
				</defs>
				<clipPath id="SVGID_12_">
					<use xlink:href="#SVGID_11_"  style="overflow:visible;"/>
				</clipPath>
				<g class="st12">
					<path class="st9" d="M35,15c0,0.1-0.1,0.2-0.2,0.2l0.1,0.2c0.1,0.1,0.4,0.2,1,0.1s1.7-0.8,1.8-1.4l-0.2-0.4c-0.1,0-0.2,0-0.4,0
						"/>
				</g>
			</g>
			<polyline class="st9" points="35.5,12.7 36.3,13.1 36.6,12.9 37.1,12.2 			"/>
			<g>
				<defs>
					<rect id="SVGID_13_" x="24.8" y="11.5" width="63.6" height="77.3"/>
				</defs>
				<clipPath id="SVGID_14_">
					<use xlink:href="#SVGID_13_"  style="overflow:visible;"/>
				</clipPath>
				<g class="st13">
					<path class="st9" d="M37.6,14.4c0,0.2,0,0.4,0,0.6c-0.2,0.7-0.8,1.1-1.5,1c-0.3,0-0.5-0.2-0.7-0.4h0"/>
					<path class="st9" d="M35.1,15.2c0-0.1-0.1-0.2-0.1-0.3c-0.1-0.7,0.4-1.4,1.1-1.5c0.4-0.1,0.9,0.1,1.2,0.4
						c0.1,0.1,0.2,0.2,0.2,0.3"/>
					<path class="st9" d="M37.3,16.4c0,0,0-0.1,0-0.1c0,0,0-0.1-0.1-0.1c-0.1,0-0.2,0-0.2,0v-0.1l0.1-0.3"/>
					<path class="st9" d="M36.7,16.4c0,0,0,0.1,0,0.1s0.2,0.1,0.3,0"/>
				</g>
			</g>
			<polyline class="st9" points="36,16.9 36,16.8 36.2,16.5 36.1,16.4 35.8,16.3 35.5,16.2 35.6,15.8 			"/>
			<line class="st9" x1="33.8" y1="21.8" x2="36.4" y2="23.5"/>
			<polyline class="st9" points="36.4,24.9 33.5,23 33.5,23 33.5,22 33.5,22 33.8,21.8 33.8,21.8 33.8,18.4 			"/>
			<polyline class="st9" points="35.7,16.2 34.9,16.7 34.9,16.8 34.9,18.2 36.4,19.2 36.4,19.2 37.9,18.3 37.9,16.8 37.9,16.8 
				36.4,17.6 			"/>
			<line class="st9" x1="61.3" y1="44.1" x2="70.6" y2="50"/>
			<polyline class="st9" points="82.5,51.8 80.4,53 78.4,51.7 			"/>
			<line class="st9" x1="80.4" y1="56" x2="80.4" y2="53"/>
			<polyline class="st9" points="78.4,52.3 74.2,54.8 37.2,31.2 			"/>
			<line class="st6" x1="87.1" y1="52.7" x2="42.9" y2="27"/>
			<line class="st6" x1="71.9" y1="44.4" x2="45.7" y2="29.2"/>
			<line class="st9" x1="74.2" y1="55.9" x2="74.2" y2="54.8"/>
			<line class="st9" x1="70.6" y1="51.3" x2="70.6" y2="50"/>
			<polygon class="st9" points="76.1,46.7 76.1,48 70.6,51.3 61.3,45.4 61.3,44.1 65.4,41.7 70.9,45 72,44.3 			"/>
			<line class="st9" x1="76.1" y1="46.7" x2="70.6" y2="50"/>
			<line class="st9" x1="45.7" y1="29.1" x2="41.7" y2="31.5"/>
			<polygon class="st9" points="38.3,30.6 38.3,29.3 38.3,29.3 42.1,27 45.7,29.1 45.7,30.2 45.7,30.3 41.7,32.7 			"/>
			<polyline class="st9" points="77.8,53.8 74.2,55.9 37.2,32.4 37.2,32.4 37.2,31.2 38.3,30.6 			"/>
			<line class="st9" x1="41.7" y1="31.4" x2="38.3" y2="29.3"/>
			<line class="st9" x1="41.7" y1="32.7" x2="41.7" y2="31.4"/>
			<polyline class="st9" points="81.8,51.2 82.1,51.1 82.1,50.2 76.1,46.8 			"/>
			<line class="st9" x1="82.1" y1="50.2" x2="81.6" y2="50.5"/>
			<line class="st9" x1="42.9" y1="26.3" x2="36.1" y2="30.2"/>
			<polyline class="st9" points="79.6,51 78.4,51.7 78.4,54.7 80.4,56 82.5,54.8 82.5,51.8 81.7,51.2 			"/>
			<g>
				<defs>
					<rect id="SVGID_15_" x="24.8" y="11.5" width="63.6" height="77.3"/>
				</defs>
				<clipPath id="SVGID_16_">
					<use xlink:href="#SVGID_15_"  style="overflow:visible;"/>
				</clipPath>
				<g class="st14">
					<path class="st9" d="M80.4,49.9c-0.5,0.1-0.9,0.6-0.9,1.1v0.8c0,0.3,0.5,0.6,1.1,0.6s1.1-0.2,1.1-0.6V51c0-0.5-0.4-1-0.9-1.1
						v-0.1c0-0.1-0.1-0.1-0.2-0.1s-0.2,0.1-0.2,0.1V49.9z"/>
				</g>
			</g>
			<polygon class="st2" points="68.7,70.8 65.4,68.8 65.4,66.7 68.7,68.7 			"/>
		</g>
	</g>
</g>
</svg>
