<?xml version="1.0" encoding="utf-8"?>
<!-- Generator: Adobe Illustrator 23.0.0, SVG Export Plug-In . SVG Version: 6.00 Build 0)  -->
<svg version="1.1" id="Layer_1" xmlns="http://www.w3.org/2000/svg" xmlns:xlink="http://www.w3.org/1999/xlink" x="0px" y="0px"
	 viewBox="0 0 189.9 92.6" style="enable-background:new 0 0 189.9 92.6;" xml:space="preserve">
<style type="text/css">
	.st0{fill:#D2D3D4;}
	.st1{clip-path:url(#SVGID_2_);}
	.st2{fill:#231F20;}
	.st3{clip-path:url(#SVGID_4_);}
	.st4{fill:none;stroke:#D1D3D4;stroke-width:1.09;stroke-miterlimit:10;}
	.st5{clip-path:url(#SVGID_6_);}
	.st6{fill:none;stroke:#231F20;stroke-width:0.15;stroke-miterlimit:10;}
	.st7{enable-background:new    ;}
	.st8{fill:#D1D3D4;}
	.st9{fill:none;stroke:#231F20;stroke-width:0.14;stroke-miterlimit:10;}
	.st10{clip-path:url(#SVGID_8_);}
	.st11{clip-path:url(#SVGID_10_);}
	.st12{clip-path:url(#SVGID_12_);}
	.st13{clip-path:url(#SVGID_14_);}
	.st14{clip-path:url(#SVGID_16_);}
</style>
<title>residence_J_3_key_horizontal</title>
<g>
	<path class="st0" d="M83.6,43.8c-0.6,0-1-0.4-1-1.1v-1.4H86v1.3c0,0.7-0.3,1.1-0.9,1.1c-0.3,0-0.6-0.2-0.7-0.4
		C84.2,43.6,83.9,43.8,83.6,43.8z M83.2,41.9v0.7c0,0.3,0.2,0.5,0.4,0.5s0.4-0.2,0.4-0.5v-0.7H83.2z M84.6,42.5
		c0,0.3,0.1,0.5,0.4,0.5s0.4-0.2,0.4-0.5v-0.6h-0.8V42.5z"/>
	<path class="st0" d="M83.8,46.2h-1.3v-0.7H86v1.4c0.1,0.5-0.3,1.1-0.8,1.2c-0.1,0-0.2,0-0.3,0c-0.5,0-0.9-0.3-1-0.8l-1.3,0.9v-0.8
		l1.3-0.8L83.8,46.2z M84.4,46.2v0.6c0,0.4,0.2,0.5,0.5,0.5s0.5-0.2,0.5-0.5v-0.6H84.4z"/>
	<path class="st0" d="M82.5,51.2c-0.1-1,0.6-1.8,1.6-1.9c1-0.1,1.8,0.6,1.9,1.6s-0.6,1.8-1.6,1.9c-0.1,0-0.1,0-0.2,0
		c-0.9,0.1-1.7-0.6-1.7-1.5C82.5,51.3,82.5,51.3,82.5,51.2z M85.4,51.2c0-0.5-0.4-0.9-1.1-0.9s-1.1,0.3-1.1,0.9s0.5,0.9,1.1,0.9
		S85.4,51.8,85.4,51.2z"/>
	<path class="st0" d="M86,56.1l-3.4,1.3v-0.7l0.8-0.3v-1.3l-0.8-0.3v-0.7l3.4,1.3V56.1z M84,55.4v0.8l1.1-0.4L84,55.4z"/>
	<path class="st0" d="M86,59v1.2c0,0.9-0.8,1.7-1.7,1.7c-0.9,0-1.7-0.8-1.7-1.7V59H86z M83.2,60.2c0,0.6,0.5,1.1,1.1,1.1
		c0.6,0,1.1-0.5,1.1-1.1v-0.5h-2.2L83.2,60.2z"/>
	<path class="st0" d="M86,65.7l-2.3,0.6l2.3,0.6v0.7l-3.4-0.9V66l2.2-0.6l-2.2-0.6v-0.6l3.4-0.9V64l-2.3,0.6l2.3,0.6V65.7z"/>
	<path class="st0" d="M86,70.7L82.6,72v-0.7l0.8-0.3v-1.3l-0.8-0.3v-0.7L86,70V70.7z M84,69.9v0.8l1.1-0.4L84,69.9z"/>
	<path class="st0" d="M86,75.3v0.7l-2.1-1.2h-1.3v-0.7h1.3l2.1-1.2v0.8l-1.4,0.8L86,75.3z"/>
	<path class="st0" d="M180.9,35.1v0.7h-2.8v1.6h-0.6v-2.3H180.9z"/>
	<path class="st0" d="M180.9,40.8l-3.4,1.3v-0.7l0.8-0.3v-1.3l-0.8-0.3v-0.7l3.4,1.3V40.8z M179,40v0.8l1.1-0.4L179,40z"/>
	<path class="st0" d="M177.6,43.7h3.4V46h-0.6v-1.6h-0.9v1.4h-0.6v-1.4h-1.3V43.7z"/>
	<path class="st0" d="M180.9,49.2l-3.4,1.3v-0.7l0.8-0.3v-1.3l-0.8-0.3v-0.7l3.4,1.3V49.2z M178.9,48.4v0.8l1.1-0.4L178.9,48.4z"/>
	<path class="st0" d="M180.9,53.9v0.7l-2.1-1.2h-1.3v-0.7h1.3l2.1-1.2v0.8l-1.4,0.8L180.9,53.9z"/>
	<path class="st0" d="M180.9,58.5h-0.6v-1.6h-0.7v1.5H179v-1.5h-0.8v1.6h-0.6v-2.3h3.4L180.9,58.5z"/>
	<path class="st0" d="M180.9,60.1V63h-0.6v-1.1h-2.8v-0.7h2.8v-1.1H180.9z"/>
	<path class="st0" d="M180.9,64.4v2.9h-0.6v-1.1h-2.8v-0.7h2.8v-1.1H180.9z"/>
	<path class="st0" d="M180.9,71.3h-0.6v-1.6h-0.7v1.5H179v-1.5h-0.8v1.6h-0.6V69h3.4L180.9,71.3z"/>
	<path class="st0" d="M178.5,75.9c-0.3,0.1-0.5,0.4-0.4,0.7c0,0.3,0.2,0.6,0.4,0.6s0.3-0.1,0.4-0.4l0.1-0.6c0-0.5,0.4-0.9,0.9-0.8
		c0.6,0,1,0.6,1,1.1c0,0,0,0,0,0.1c0.1,0.6-0.4,1.2-1,1.3v-0.7c0.3-0.1,0.4-0.4,0.4-0.6c0-0.3-0.2-0.5-0.4-0.5s-0.3,0.1-0.4,0.4
		l-0.1,0.6c-0.1,0.6-0.4,0.9-0.9,0.9c-0.6,0-1.1-0.5-1.1-1.2c0,0,0-0.1,0-0.1c-0.1-0.7,0.4-1.3,1-1.4L178.5,75.9L178.5,75.9z"/>
	<path class="st0" d="M180.9,79.3v2.9h-0.6v-1.1h-2.8v-0.7h2.8v-1.1H180.9z"/>
	<path class="st0" d="M112.4,39.3h0.7v2.8h1.6v0.6h-2.3V39.3z"/>
	<path class="st0" d="M118.6,39.3v0.6H117v0.7h1.4v0.6H117v0.8h1.6v0.6h-2.3v-3.4H118.6z"/>
	<path class="st0" d="M121.6,42.7c-1,0.1-1.8-0.6-1.9-1.6c-0.1-1,0.6-1.8,1.6-1.9c1-0.1,1.8,0.6,1.9,1.6c0,0.1,0,0.1,0,0.2
		c0.1,0.9-0.6,1.7-1.5,1.7C121.7,42.7,121.7,42.7,121.6,42.7z M121.6,39.9c-0.5,0-0.9,0.5-0.9,1.1s0.3,1.1,0.9,1.1s0.9-0.5,0.9-1.1
		S122.2,39.9,121.6,39.9z"/>
	<path class="st0" d="M127.7,42.7h-0.6l-1.6-2.2v2.2h-0.7v-3.4h0.7l1.5,2.1v-2.1h0.7L127.7,42.7z"/>
	<path class="st0" d="M131.2,39.3l1.3,3.4h-0.7l-0.3-0.8h-1.3l-0.3,0.8h-0.7l1.3-3.4H131.2z M130.4,41.3h0.8l-0.4-1.1L130.4,41.3z"
		/>
	<path class="st0" d="M134.6,41.4v1.3H134v-3.4h1.4c0.6-0.1,1.1,0.3,1.2,0.9c0,0.1,0,0.1,0,0.2c0,0.5-0.3,0.9-0.8,1l0.9,1.3h-0.8
		l-0.9-1.3H134.6z M134.6,40.8h0.6c0.4,0,0.5-0.2,0.5-0.5s-0.2-0.5-0.5-0.5h-0.6V40.8z"/>
	<path class="st0" d="M138.1,39.3h1.2c0.9,0,1.7,0.8,1.7,1.7c0,0.9-0.8,1.7-1.7,1.7h-1.2V39.3z M139.3,42.1c0.6,0,1.1-0.5,1.1-1.1
		c0-0.6-0.5-1.1-1.1-1.1h-0.5v2.1H139.3z"/>
	<path class="st0" d="M145.4,41.7c0.1,0.3,0.4,0.5,0.7,0.4c0.3,0,0.6-0.2,0.6-0.4s-0.1-0.3-0.4-0.4l-0.6-0.1
		c-0.5-0.1-0.9-0.4-0.9-0.9c0-0.6,0.6-1,1.2-1c0,0,0,0,0,0c0.6-0.1,1.2,0.4,1.3,1h-0.7c-0.1-0.3-0.3-0.4-0.6-0.4
		c-0.3,0-0.5,0.2-0.5,0.4s0.1,0.3,0.4,0.4l0.6,0.1c0.6,0.1,0.9,0.4,0.9,1c0,0.7-0.5,1-1.2,1c-0.7,0.1-1.3-0.4-1.4-1L145.4,41.7z"/>
	<path class="st0" d="M148.6,39.3h2.9v0.6h-1.1v2.8h-0.7v-2.8h-1.1V39.3z"/>
	<path class="st0" d="M109.9,74.6c0.7,0,1.3,0.4,1.4,1.1h-0.7c-0.1-0.3-0.4-0.5-0.7-0.5c-0.5,0-0.8,0.5-0.8,1.1s0.3,1.1,0.8,1.1
		c0.3,0,0.6-0.2,0.7-0.5h0.7c-0.1,0.7-0.7,1.2-1.4,1.1c-1-0.1-1.7-1-1.6-1.9C108.4,75.3,109.1,74.6,109.9,74.6L109.9,74.6z"/>
	<path class="st0" d="M114.7,74.6l1.3,3.4h-0.7l-0.3-0.8h-1.3l-0.3,0.8h-0.7l1.3-3.4H114.7z M113.9,76.6h0.8l-0.4-1.1L113.9,76.6z"
		/>
	<path class="st0" d="M117,74.6h2.9v0.6h-1.1V78h-0.7v-2.8H117V74.6z"/>
	<path class="st0" d="M124.5,74.6V78h-0.7v-1.4h-1.5V78h-0.7v-3.4h0.7v1.3h1.5v-1.3H124.5z"/>
	<path class="st0" d="M128.7,74.6v0.6h-1.6V76h1.5v0.6h-1.4v0.8h1.6V78h-2.3v-3.4H128.7z"/>
	<path class="st0" d="M131.1,76.7V78h-0.7v-3.4h1.4c0.5-0.1,1.1,0.2,1.2,0.8c0,0.1,0,0.2,0,0.3c0,0.5-0.3,0.9-0.8,1l0.9,1.3h-0.8
		l-0.8-1.3L131.1,76.7z M131.1,76.1h0.6c0.4,0,0.5-0.2,0.5-0.5s-0.2-0.5-0.5-0.5h-0.6V76.1z"/>
	<path class="st0" d="M135.4,78h-0.7v-3.4h0.7V78z"/>
	<path class="st0" d="M140.1,78h-0.6l-1.6-2.3V78h-0.7v-3.4h0.7l1.5,2.1v-2.1h0.7L140.1,78z"/>
	<path class="st0" d="M144.2,74.6v0.6h-1.6V76h1.4v0.6h-1.4v0.8h1.6V78H142v-3.4H144.2z"/>
	<path class="st0" d="M148.4,74.6h0.7v2.8h1.6V78h-2.3V74.6z"/>
	<path class="st0" d="M155.2,78h-0.6l-1.6-2.2V78h-0.7v-3.4h0.6l1.5,2.1v-2.1h0.7L155.2,78L155.2,78z"/>
</g>
<g id="Layer_4">
	<g>
		<defs>
			<rect id="SVGID_1_" x="92.3" y="51.4" width="76.9" height="17.4"/>
		</defs>
		<clipPath id="SVGID_2_">
			<use xlink:href="#SVGID_1_"  style="overflow:visible;"/>
		</clipPath>
		<g class="st1">
			<polygon class="st2" points="135.8,59.4 136.5,59.4 136.5,59.5 136.8,59.5 137.4,59.5 137.4,59.4 138.9,59.4 138.9,60.4 
				139.4,60.4 139.4,61.9 141.7,61.9 141.7,66.2 135.7,65.8 135.7,61 136,61 136,60.4 135.8,60.4 			"/>
			<g>
				<defs>
					<rect id="SVGID_3_" x="92.3" y="51.4" width="76.9" height="17.4"/>
				</defs>
				<clipPath id="SVGID_4_">
					<use xlink:href="#SVGID_3_"  style="overflow:visible;"/>
				</clipPath>
				<g class="st3">
					<polygon class="st4" points="167.4,52.6 167.4,67.7 93.3,63 93.3,52.6 					"/>
				</g>
			</g>
		</g>
	</g>
	<g>
		<defs>
			<rect id="SVGID_5_" x="2.7" y="6.1" width="64.1" height="77.3"/>
		</defs>
		<clipPath id="SVGID_6_">
			<use xlink:href="#SVGID_5_"  style="overflow:visible;"/>
		</clipPath>
		<g class="st5">
			<polyline class="st6" points="65.5,51.8 54.4,58 7.8,27.4 			"/>
			<polyline class="st6" points="65.5,53.9 54.4,60.1 7.8,29.5 			"/>
			<polyline class="st6" points="65.5,56 54.4,62.2 7.8,31.6 			"/>
			<polyline class="st6" points="65.5,58 54.4,64.3 7.8,33.7 			"/>
			<polyline class="st6" points="65.5,60.1 54.4,66.4 7.8,35.8 			"/>
			<polyline class="st6" points="65.5,62.2 54.4,68.5 7.8,37.9 			"/>
			<polyline class="st6" points="65.5,64.3 54.4,70.6 7.8,40 			"/>
			<polyline class="st6" points="65.5,66.4 54.4,72.7 7.8,42 			"/>
			<polyline class="st6" points="65.5,68.5 54.4,74.8 7.8,44.2 			"/>
			<polyline class="st6" points="65.5,70.6 54.4,76.9 7.8,46.2 			"/>
			<polyline class="st6" points="65.5,72.7 54.4,79 7.8,48.3 			"/>
			<g class="st7">
				<path class="st8" d="M12.5,57.4c0.5,0.4,0.5,0.8,0.1,1.1l-0.5-0.3c0.1-0.2,0.1-0.4-0.1-0.5c-0.4-0.2-0.9-0.2-1.3,0.1
					c-0.4,0.3-0.6,0.6-0.2,0.8c0.3,0.2,0.5,0.2,0.8,0.1l0.5,0.3c-0.6,0.2-1.2,0.2-1.7-0.2c-0.6-0.4-0.5-1,0.2-1.4
					C10.9,57,11.9,57,12.5,57.4z"/>
			</g>
			<g class="st7">
				<path class="st8" d="M15.6,59.7l-1.5,1.9l-0.5-0.3l0.4-0.5l-0.8-0.6l-0.8,0.2L12,60.1l3.2-0.8L15.6,59.7z M13.7,60.1l0.5,0.4
					l0.5-0.6L13.7,60.1z"/>
			</g>
			<g class="st7">
				<path class="st8" d="M17.2,60.8l1.9,1.3l-0.4,0.2L18,61.9L16.1,63l-0.5-0.3l1.9-1.1L16.8,61L17.2,60.8z"/>
				<path class="st8" d="M22.2,64.3l-2.3,1.4l-0.5-0.3l1-0.6l-1-0.7l-1,0.6L18,64.3l2.3-1.4l0.5,0.3l-0.9,0.5l1,0.7l0.9-0.5
					L22.2,64.3z"/>
				<path class="st8" d="M25,66.2l-0.4,0.2l-1.1-0.7L23,66l1,0.7l-0.4,0.2l-1-0.7l-0.6,0.3l1.1,0.7l-0.4,0.2l-1.5-1l2.3-1.4L25,66.2
					z"/>
				<path class="st8" d="M25.3,68.2l-0.9,0.5l-0.5-0.3l2.3-1.4l0.9,0.6c0.5,0.3,0.5,0.7,0,1c-0.4,0.2-0.8,0.2-1.2,0l-0.3,0.9
					l-0.5-0.4l0.3-0.9L25.3,68.2z M25.7,68l0.4,0.3c0.2,0.2,0.5,0.2,0.7,0.1c0.2-0.1,0.2-0.3,0-0.4l-0.4-0.3L25.7,68z"/>
				<path class="st8" d="M27.3,70.8l-0.5-0.3l2.3-1.4l0.5,0.3L27.3,70.8z"/>
				<path class="st8" d="M30.4,72.9l-0.4-0.3l0.5-1.6L29,72l-0.4-0.3l2.3-1.4l0.4,0.3l-0.5,1.5l1.5-0.9l0.4,0.3L30.4,72.9z"/>
				<path class="st8" d="M35.6,73.5l-0.4,0.2L34.1,73l-0.5,0.3l1,0.7l-0.4,0.2l-1-0.7l-0.6,0.3l1.1,0.7l-0.4,0.2l-1.5-1l2.3-1.4
					L35.6,73.5z"/>
				<path class="st8" d="M38.4,75.5l0.5,0.3L37,76.9l1,0.7l-0.4,0.2l-1.5-1L38.4,75.5z"/>
			</g>
			<g class="st7">
				<path class="st8" d="M40.6,80l-0.4-0.3l0.5-1.6l-1.6,0.9l-0.4-0.3l2.3-1.4l0.4,0.3L41,79.2l1.5-0.9l0.4,0.3L40.6,80z"/>
			</g>
			<polyline class="st9" points="65.5,49.7 54.4,55.9 7.8,25.3 			"/>
			<line class="st9" x1="54.4" y1="53.8" x2="54.4" y2="81"/>
			<line class="st9" x1="60.1" y1="77.1" x2="59.4" y2="77.5"/>
			<polyline class="st9" points="60.1,77.1 60.5,77.4 65.5,74.5 65.5,47.5 			"/>
			<polyline class="st9" points="65.5,47.5 54.4,53.8 7.8,23.2 			"/>
			<g>
				<defs>
					<rect id="SVGID_7_" x="2.7" y="6.1" width="64.1" height="77.3"/>
				</defs>
				<clipPath id="SVGID_8_">
					<use xlink:href="#SVGID_7_"  style="overflow:visible;"/>
				</clipPath>
				<g class="st10">
					<path class="st9" d="M60.1,77.1v-0.6c0-0.1,0-0.2-0.1-0.3"/>
					<path class="st9" d="M60.5,77.4v-0.9c0-0.2-0.2-0.5-0.6-0.2c-0.3,0.2-0.5,0.5-0.5,0.8v1l-5,2.9l-6.5-4.5l-8.2-5.7l-6.9-4.8
						L22.4,59L7.8,48.4V23.2l1-0.6"/>
				</g>
			</g>
			<line class="st9" x1="56.2" y1="48.7" x2="56.2" y2="47.6"/>
			<line class="st9" x1="14.4" y1="25.1" x2="14.4" y2="27"/>
			<line class="st9" x1="56.2" y1="48.7" x2="56.8" y2="49"/>
			<line class="st9" x1="56.2" y1="47.6" x2="56.8" y2="47.9"/>
			<line class="st9" x1="14.8" y1="14" x2="14.8" y2="12.6"/>
			<line class="st9" x1="14.8" y1="14.1" x2="14.8" y2="12.5"/>
			<line class="st9" x1="14.5" y1="23.7" x2="14.5" y2="20.4"/>
			<polyline class="st9" points="15.6,26.3 14.4,27 8.8,23.3 8.8,21.4 10.7,20.3 			"/>
			<polyline class="st9" points="14.8,18.4 17.4,16.9 17.4,13.3 17.4,13.3 16.2,12.5 			"/>
			<g>
				<defs>
					<rect id="SVGID_9_" x="2.7" y="6.1" width="64.1" height="77.3"/>
				</defs>
				<clipPath id="SVGID_10_">
					<use xlink:href="#SVGID_9_"  style="overflow:visible;"/>
				</clipPath>
				<g class="st11">
					<path class="st9" d="M14.2,15.8c0.2,0.6,0.1,1.1-0.4,1.1s-1-0.5-1.2-1.1s-0.1-1.1,0.4-1.1S14,15.2,14.2,15.8z"/>
					<path class="st9" d="M15.3,15.8c-0.2,0.6-0.1,1.1,0.4,1.1c0.4,0,1-0.5,1.2-1.1s0-1.1-0.4-1.1S15.6,15.2,15.3,15.8z"/>
				</g>
			</g>
			<line class="st9" x1="14.5" y1="20.4" x2="18.9" y2="17.9"/>
			<line class="st9" x1="10.7" y1="17.9" x2="14.5" y2="20.4"/>
			<line class="st9" x1="8.8" y1="21.4" x2="14.4" y2="25.1"/>
			<polyline class="st9" points="17.5,16.7 17.7,16.8 17.7,17.9 17.7,18 14.8,19.7 14.8,19.6 14.8,15 			"/>
			<polyline class="st9" points="11.9,17.3 10.7,17.9 10.7,21.2 10.8,21.2 14.5,23.7 			"/>
			<polyline class="st9" points="19,19.6 21.2,21.1 21.2,22.4 			"/>
			<line class="st9" x1="14.7" y1="15" x2="17.4" y2="13.4"/>
			<line class="st9" x1="12.2" y1="13.3" x2="13.3" y2="12.7"/>
			<line class="st9" x1="12.2" y1="13.3" x2="14.8" y2="15"/>
			<polyline class="st9" points="17.7,17.1 18.9,17.9 18.9,17.9 18.9,21.1 18.8,21.2 14.4,23.7 			"/>
			<line class="st9" x1="13.3" y1="11.6" x2="14.8" y2="12.6"/>
			<line class="st9" x1="15.5" y1="11.1" x2="16.3" y2="11.6"/>
			<g>
				<defs>
					<rect id="SVGID_11_" x="2.7" y="6.1" width="64.1" height="77.3"/>
				</defs>
				<clipPath id="SVGID_12_">
					<use xlink:href="#SVGID_11_"  style="overflow:visible;"/>
				</clipPath>
				<g class="st12">
					<path class="st9" d="M13.4,9.8c0,0.1-0.1,0.2-0.1,0.2l0.1,0.2c0.1,0.1,0.4,0.2,1,0.1S16,9.6,16.1,9l-0.2-0.4
						c-0.1,0-0.2,0-0.4,0"/>
				</g>
			</g>
			<polyline class="st9" points="13.9,7.6 14.7,7.9 14.9,7.8 15.5,7.1 			"/>
			<g>
				<defs>
					<rect id="SVGID_13_" x="2.7" y="6.1" width="64.1" height="77.3"/>
				</defs>
				<clipPath id="SVGID_14_">
					<use xlink:href="#SVGID_13_"  style="overflow:visible;"/>
				</clipPath>
				<g class="st13">
					<path class="st9" d="M16,9.3c0,0.2,0,0.4,0,0.6c-0.2,0.7-0.9,1.1-1.6,1c-0.3-0.1-0.5-0.2-0.7-0.4h-0.1"/>
					<path class="st9" d="M13.5,10.1c0-0.1-0.1-0.2-0.1-0.3c-0.1-0.7,0.4-1.4,1.1-1.5c0,0,0,0,0,0c0.4-0.1,0.9,0.1,1.2,0.4
						c0.1,0.1,0.2,0.2,0.2,0.3"/>
					<path class="st9" d="M15.7,11.3c0,0,0-0.1,0-0.1c0,0,0-0.1-0.1-0.1c-0.1,0-0.2,0-0.2,0.1V11l0.1-0.3"/>
					<path class="st9" d="M15.1,11.3c0,0.1,0,0.1,0,0.1s0.1,0.1,0.2,0"/>
				</g>
			</g>
			<polyline class="st9" points="14.3,11.8 14.3,11.7 14.5,11.4 14.5,11.3 14.2,11.2 13.9,11.1 14,10.7 			"/>
			<line class="st9" x1="12.2" y1="16.7" x2="14.8" y2="18.4"/>
			<polyline class="st9" points="14.7,19.8 11.9,17.9 11.9,17.9 11.9,16.9 11.9,16.9 12.1,16.7 12.2,16.7 12.2,13.3 			"/>
			<polyline class="st9" points="14,11.1 13.2,11.6 13.2,11.6 13.2,13.1 14.7,14.1 14.8,14.1 16.2,13.2 16.2,11.7 16.2,11.7 
				14.8,12.5 			"/>
			<line class="st9" x1="39.7" y1="39" x2="49" y2="44.9"/>
			<polyline class="st9" points="60.9,46.7 58.8,47.9 56.8,46.6 			"/>
			<line class="st9" x1="58.8" y1="50.9" x2="58.8" y2="47.9"/>
			<polyline class="st9" points="56.8,47.2 52.5,49.7 15.6,26.1 			"/>
			<line class="st6" x1="65.5" y1="47.6" x2="21.2" y2="21.9"/>
			<line class="st6" x1="50.3" y1="39.3" x2="24" y2="24.1"/>
			<line class="st9" x1="52.5" y1="50.8" x2="52.5" y2="49.7"/>
			<line class="st9" x1="49" y1="46.2" x2="49" y2="44.9"/>
			<polygon class="st9" points="54.5,41.6 54.5,42.9 49,46.2 39.7,40.3 39.7,39 43.8,36.6 49.3,39.8 50.4,39.2 			"/>
			<line class="st9" x1="54.5" y1="41.6" x2="49" y2="44.8"/>
			<line class="st9" x1="24" y1="24" x2="20" y2="26.4"/>
			<polygon class="st9" points="16.7,25.5 16.6,24.2 16.6,24.2 20.5,21.9 24,24 24,25.1 24,25.2 20,27.6 			"/>
			<polyline class="st9" points="56.2,48.7 52.5,50.8 15.6,27.3 15.6,27.2 15.6,26.1 16.6,25.5 			"/>
			<line class="st9" x1="20" y1="26.3" x2="16.7" y2="24.2"/>
			<line class="st9" x1="20" y1="27.6" x2="20" y2="26.3"/>
			<polyline class="st9" points="60.1,46.1 60.4,46 60.4,45.2 54.5,41.7 			"/>
			<line class="st9" x1="60.4" y1="45.1" x2="60" y2="45.4"/>
			<line class="st9" x1="21.2" y1="21.2" x2="14.4" y2="25.1"/>
			<polyline class="st9" points="57.9,45.9 56.8,46.6 56.8,49.6 58.8,50.9 60.9,49.6 60.9,46.7 60.1,46.1 			"/>
			<g>
				<defs>
					<rect id="SVGID_15_" x="2.7" y="6.1" width="64.1" height="77.3"/>
				</defs>
				<clipPath id="SVGID_16_">
					<use xlink:href="#SVGID_15_"  style="overflow:visible;"/>
				</clipPath>
				<g class="st14">
					<path class="st9" d="M58.8,44.8c-0.5,0.1-0.9,0.6-0.9,1.1v0.8c0,0.3,0.5,0.6,1.1,0.6s1.1-0.2,1.1-0.6v-0.8c0-0.5-0.4-1-0.9-1.1
						v-0.1c0,0-0.1-0.1-0.2-0.1s-0.2,0.1-0.2,0.1V44.8z"/>
				</g>
			</g>
			<polygon class="st2" points="38,66.1 34.1,63.5 34.1,61.5 38,64.1 			"/>
		</g>
	</g>
</g>
</svg>
