<?xml version="1.0" encoding="utf-8"?>
<!-- Generator: Adobe Illustrator 23.0.0, SVG Export Plug-In . SVG Version: 6.00 Build 0)  -->
<svg version="1.1" id="Layer_1" xmlns="http://www.w3.org/2000/svg" xmlns:xlink="http://www.w3.org/1999/xlink" x="0px" y="0px"
	 viewBox="0 0 123.3 164.8" style="enable-background:new 0 0 123.3 164.8;" xml:space="preserve">
<style type="text/css">
	.st0{fill:#D2D3D4;}
	.st1{clip-path:url(#SVGID_2_);}
	.st2{fill:none;stroke:#231F20;stroke-width:0.14;stroke-miterlimit:10;}
	.st3{clip-path:url(#SVGID_4_);}
	.st4{clip-path:url(#SVGID_6_);}
	.st5{fill:#231F20;}
	.st6{clip-path:url(#SVGID_8_);}
	.st7{fill:none;stroke:#D1D3D4;stroke-width:1.09;stroke-miterlimit:10;}
	.st8{clip-path:url(#SVGID_10_);}
	.st9{fill:none;stroke:#231F20;stroke-width:0.15;stroke-miterlimit:10;}
	.st10{enable-background:new    ;}
	.st11{fill:#D1D3D4;}
	.st12{clip-path:url(#SVGID_12_);}
	.st13{clip-path:url(#SVGID_14_);}
	.st14{clip-path:url(#SVGID_16_);}
	.st15{clip-path:url(#SVGID_18_);}
	.st16{clip-path:url(#SVGID_20_);}
	.st17{fill:none;stroke:#FFFFFF;stroke-width:0.15;stroke-miterlimit:10;}
</style>
<title>residence_J_4-11_key</title>
<g>
	<path class="st0" d="M14.3,117.1c-0.6,0-1-0.4-1-1.1v-1.4h3.4v1.3c0,0.7-0.3,1.1-0.9,1.1c-0.3,0-0.6-0.2-0.7-0.4
		C14.9,116.9,14.6,117.1,14.3,117.1z M13.9,115.2v0.7c0,0.3,0.2,0.5,0.4,0.5s0.4-0.2,0.4-0.5v-0.7H13.9z M15.3,115.8
		c0,0.3,0.1,0.5,0.4,0.5s0.4-0.2,0.4-0.5v-0.6h-0.8L15.3,115.8z"/>
	<path class="st0" d="M14.6,119.5h-1.3v-0.7h3.4v1.4c0.1,0.5-0.3,1.1-0.8,1.2c-0.1,0-0.2,0-0.3,0c-0.5,0-0.9-0.3-1-0.8l-1.3,0.9
		v-0.8l1.3-0.8L14.6,119.5z M15.1,119.5v0.7c0,0.3,0.2,0.5,0.5,0.5s0.5-0.2,0.5-0.5v-0.7H15.1z"/>
	<path class="st0" d="M13.3,124.6c0-0.9,0.8-1.6,1.7-1.6c0,0,0.1,0,0.1,0c0.9-0.1,1.7,0.6,1.7,1.5c0.1,0.9-0.6,1.7-1.5,1.7
		c-0.1,0-0.2,0-0.3,0c-0.9,0.1-1.7-0.6-1.7-1.5C13.3,124.7,13.3,124.6,13.3,124.6z M16.1,124.6c0-0.5-0.4-0.9-1.1-0.9
		s-1.1,0.3-1.1,0.9s0.5,0.9,1.1,0.9S16.1,125.1,16.1,124.6z"/>
	<path class="st0" d="M16.7,129.4l-3.4,1.3V130l0.8-0.3v-1.3l-0.8-0.3v-0.7l3.4,1.3V129.4z M14.7,128.7v0.8l1.1-0.4L14.7,128.7z"/>
	<path class="st0" d="M16.7,132.4v1.2c0.1,0.9-0.6,1.6-1.5,1.7c-0.1,0-0.2,0-0.2,0c-0.9,0.1-1.6-0.6-1.7-1.4c0-0.1,0-0.2,0-0.2v-1.2
		H16.7z M13.9,133.5c0,0.6,0.4,1,1,1c0,0,0,0,0.1,0c0.6,0,1-0.4,1.1-0.9c0,0,0,0,0-0.1v-0.5h-2.1V133.5z"/>
	<path class="st0" d="M16.7,139l-2.3,0.6l2.3,0.6v0.7l-3.4-0.8v-0.6l2.2-0.6l-2.2-0.6v-0.6l3.4-0.9v0.7l-2.3,0.6l2.3,0.6L16.7,139z"
		/>
	<path class="st0" d="M16.7,144l-3.4,1.3v-0.7l0.8-0.3V143l-0.8-0.3V142l3.4,1.3V144z M14.7,143.2v0.8l1.1-0.4L14.7,143.2z"/>
	<path class="st0" d="M16.7,148.6v0.8l-2.1-1.2h-1.3v-0.7h1.3l2.1-1.2v0.8l-1.4,0.8L16.7,148.6z"/>
	<path class="st0" d="M111.7,108.4v0.7h-2.8v1.6h-0.6v-2.3H111.7z"/>
	<path class="st0" d="M111.7,114.1l-3.4,1.3v-0.7l0.8-0.3v-1.3l-0.8-0.3v-0.7l3.4,1.3V114.1z M109.7,113.4v0.8l1.1-0.4L109.7,113.4z
		"/>
	<path class="st0" d="M108.3,117h3.4v2.2h-0.6v-1.5h-0.9v1.4h-0.6v-1.4h-1.3V117z"/>
	<path class="st0" d="M111.7,122.5l-3.4,1.3v-0.7l0.8-0.3v-1.3l-0.8-0.3v-0.7l3.4,1.3V122.5z M109.7,121.8v0.8l1.1-0.4L109.7,121.8z
		"/>
	<path class="st0" d="M111.7,127.2v0.7l-2.1-1.2h-1.3V126h1.3l2.1-1.2v0.8l-1.4,0.8L111.7,127.2z"/>
	<path class="st0" d="M111.7,131.8h-0.6v-1.6h-0.7v1.4h-0.6v-1.4h-0.8v1.6h-0.6v-2.3h3.4V131.8z"/>
	<path class="st0" d="M111.7,133.4v2.9h-0.6v-1.1h-2.8v-0.7h2.8v-1.1L111.7,133.4z"/>
	<path class="st0" d="M111.7,137.8v2.9h-0.6v-1.1h-2.8v-0.7h2.8v-1.1H111.7z"/>
	<path class="st0" d="M111.7,144.6h-0.6V143h-0.7v1.4h-0.6V143h-0.8v1.6h-0.6v-2.3h3.4V144.6z"/>
	<path class="st0" d="M109.2,149.2c-0.3,0.1-0.5,0.4-0.4,0.7c0,0.4,0.2,0.6,0.4,0.6s0.3-0.1,0.4-0.4l0.1-0.6c0-0.5,0.4-0.9,0.9-0.9
		c0.6,0,1,0.6,1,1.1c0,0,0,0,0,0.1c0.1,0.6-0.4,1.2-1,1.3v-0.7c0.3-0.1,0.4-0.3,0.4-0.6c0-0.3-0.2-0.5-0.4-0.5s-0.3,0.1-0.4,0.4
		l-0.1,0.6c-0.1,0.6-0.4,0.9-1,0.9s-1-0.5-1-1.2c-0.1-0.7,0.4-1.3,1-1.4L109.2,149.2L109.2,149.2z"/>
	<path class="st0" d="M111.7,152.6v2.9h-0.6v-1.1h-2.8v-0.7h2.8v-1.1L111.7,152.6z"/>
	<path class="st0" d="M43.1,112.6h0.7v2.8h1.6v0.6h-2.3V112.6z"/>
	<path class="st0" d="M49.3,112.6v0.6h-1.6v0.8h1.5v0.6h-1.5v0.8h1.6v0.6H47v-3.4L49.3,112.6z"/>
	<path class="st0" d="M52.4,116c-1,0.1-1.8-0.7-1.9-1.6c-0.1-1,0.7-1.8,1.6-1.9s1.8,0.7,1.9,1.6c0,0.1,0,0.1,0,0.2
		c0,0.9-0.6,1.6-1.5,1.7C52.4,116,52.4,116,52.4,116z M52.4,113.2c-0.5,0-0.9,0.4-0.9,1.1s0.3,1.1,0.9,1.1s0.9-0.5,0.9-1.1
		S52.9,113.2,52.4,113.2L52.4,113.2z"/>
	<path class="st0" d="M58.4,116h-0.6l-1.6-2.2v2.2h-0.7v-3.4h0.7l1.5,2.1v-2.1h0.7V116z"/>
	<path class="st0" d="M61.9,112.6l1.3,3.4h-0.7l-0.3-0.8h-1.3l-0.3,0.8h-0.7l1.3-3.4L61.9,112.6z M61.1,114.6h0.8l-0.4-1.1
		L61.1,114.6z"/>
	<path class="st0" d="M65.4,114.7v1.3h-0.7v-3.4h1.4c0.5-0.1,1.1,0.2,1.2,0.8c0,0.1,0,0.2,0,0.3c0,0.5-0.3,0.9-0.8,1l0.9,1.3h-0.8
		l-0.8-1.3L65.4,114.7z M65.4,114.2H66c0.3,0,0.5-0.2,0.5-0.5s-0.2-0.5-0.5-0.5h-0.7L65.4,114.2z"/>
	<path class="st0" d="M68.9,112.6h1.2c0.9,0.1,1.6,0.9,1.6,1.8c-0.1,0.8-0.7,1.5-1.6,1.6h-1.2V112.6z M70,115.4
		c0.6,0,1.1-0.5,1.1-1.1c0-0.6-0.5-1.1-1.1-1.1h-0.5v2.1H70z"/>
	<path class="st0" d="M76.1,115c0.1,0.3,0.4,0.5,0.7,0.4c0.3,0,0.6-0.2,0.6-0.4s-0.1-0.3-0.4-0.4l-0.6-0.1c-0.5-0.1-0.8-0.4-0.8-0.9
		c0-0.6,0.6-1,1.2-1c0,0,0,0,0,0c0.6-0.1,1.2,0.4,1.3,1h-0.7c-0.1-0.3-0.3-0.4-0.6-0.4c-0.3,0-0.5,0.2-0.5,0.4s0.1,0.3,0.4,0.4
		l0.6,0.2c0.5,0.1,0.9,0.5,0.9,1c-0.1,0.6-0.6,1.1-1.2,1c0,0,0,0,0,0c-0.7,0.1-1.3-0.4-1.4-1L76.1,115z"/>
	<path class="st0" d="M79.4,112.6h2.9v0.6h-1.1v2.8h-0.7v-2.8h-1.1V112.6z"/>
	<path class="st0" d="M40.6,147.9c0.7,0,1.3,0.4,1.4,1.1h-0.7c-0.1-0.3-0.4-0.5-0.7-0.5c-0.5,0-0.8,0.5-0.8,1.1s0.3,1.1,0.8,1.1
		c0.3,0,0.6-0.2,0.7-0.5H42c-0.1,0.7-0.7,1.2-1.4,1.1c-1-0.1-1.7-1-1.6-1.9C39.2,148.6,39.8,147.9,40.6,147.9z"/>
	<path class="st0" d="M45.4,147.9l1.3,3.4H46l-0.3-0.8h-1.3l-0.3,0.8h-0.7l1.3-3.4H45.4z M44.6,149.9h0.8l-0.4-1.2L44.6,149.9z"/>
	<path class="st0" d="M47.8,147.9h2.9v0.6h-1.1v2.8h-0.7v-2.8h-1.1V147.9z"/>
	<path class="st0" d="M55.2,147.9v3.4h-0.7v-1.4H53v1.4h-0.7v-3.4H53v1.3h1.5v-1.3H55.2z"/>
	<path class="st0" d="M59.4,147.9v0.6h-1.6v0.7h1.5v0.6h-1.5v0.8h1.6v0.6h-2.3v-3.4L59.4,147.9z"/>
	<path class="st0" d="M61.8,150v1.3h-0.7v-3.4h1.4c0.5-0.1,1.1,0.3,1.2,0.8c0,0.1,0,0.2,0,0.3c0,0.5-0.3,0.9-0.8,1l0.9,1.3H63
		l-0.8-1.3H61.8z M61.8,149.4h0.6c0.4,0,0.5-0.2,0.5-0.5s-0.2-0.5-0.5-0.5h-0.6V149.4z"/>
	<path class="st0" d="M66.2,151.3h-0.7v-3.4h0.7V151.3z"/>
	<path class="st0" d="M70.8,151.3h-0.6l-1.6-2.3v2.2H68v-3.4h0.7l1.5,2.1v-2.1h0.7V151.3z"/>
	<path class="st0" d="M75,147.9v0.6h-1.6v0.7h1.4v0.6h-1.5v0.8H75v0.6h-2.3v-3.4L75,147.9z"/>
	<path class="st0" d="M79.1,147.9h0.7v2.8h1.6v0.6h-2.3V147.9z"/>
	<path class="st0" d="M85.9,151.3h-0.6l-1.6-2.3v2.2h-0.7v-3.4h0.7l1.5,2.1v-2.1h0.7V151.3L85.9,151.3z"/>
</g>
<g id="Layer_4">
	<g>
		<defs>
			<line id="SVGID_1_" x1="24.6" y1="90.4" x2="92.1" y2="90.4"/>
		</defs>
		<clipPath id="SVGID_2_">
			<use xlink:href="#SVGID_1_"  style="overflow:visible;"/>
		</clipPath>
		<g class="st1">
			<path class="st2" d="M39.5,8.5c-0.1,0-0.3,0-0.4,0"/>
		</g>
	</g>
	<g>
		<defs>
			<line id="SVGID_3_" x1="24.6" y1="90.4" x2="92.1" y2="90.4"/>
		</defs>
		<clipPath id="SVGID_4_">
			<use xlink:href="#SVGID_3_"  style="overflow:visible;"/>
		</clipPath>
		<g class="st3">
			<path class="st2" d="M37.8,8.1c0.5-0.1,1,0.1,1.3,0.5"/>
		</g>
	</g>
	<g>
		<defs>
			<rect id="SVGID_5_" x="23.7" y="124.4" width="76.9" height="17.4"/>
		</defs>
		<clipPath id="SVGID_6_">
			<use xlink:href="#SVGID_5_"  style="overflow:visible;"/>
		</clipPath>
		<g class="st4">
			<polygon class="st5" points="67.2,132.3 67.8,132.3 67.8,132.5 68.1,132.5 68.7,132.5 68.7,132.3 70.2,132.3 70.2,133.4 
				70.7,133.4 70.7,134.8 73.1,134.8 73.1,139.1 67,138.7 67,133.9 67.3,133.9 67.3,133.3 67.2,133.3 			"/>
			<g>
				<defs>
					<rect id="SVGID_7_" x="23.7" y="124.4" width="76.9" height="17.4"/>
				</defs>
				<clipPath id="SVGID_8_">
					<use xlink:href="#SVGID_7_"  style="overflow:visible;"/>
				</clipPath>
				<g class="st6">
					<polygon class="st7" points="98.8,125.5 98.8,140.6 24.6,136 24.6,125.5 					"/>
				</g>
			</g>
		</g>
	</g>
	<g>
		<defs>
			<rect id="SVGID_9_" x="23.9" y="9.9" width="66.7" height="80.5"/>
		</defs>
		<clipPath id="SVGID_10_">
			<use xlink:href="#SVGID_9_"  style="overflow:visible;"/>
		</clipPath>
		<g class="st8">
			<polyline class="st9" points="89.1,57.5 77.6,64 29,32.1 			"/>
			<polyline class="st9" points="89.1,59.7 77.6,66.2 29,34.3 			"/>
			<polyline class="st9" points="89.1,61.8 77.6,68.4 29,36.4 			"/>
			<polyline class="st9" points="89.1,64 77.6,70.6 29,38.6 			"/>
			<polyline class="st9" points="89.1,66.2 77.6,72.7 29,40.8 			"/>
			<polyline class="st9" points="89.1,68.4 77.6,74.9 29,43 			"/>
			<polyline class="st9" points="89.1,70.6 77.6,77.1 29,45.2 			"/>
			<polyline class="st9" points="89.1,72.8 77.6,79.3 29,47.3 			"/>
			<polyline class="st9" points="89.1,74.9 77.6,81.5 29,49.5 			"/>
			<polyline class="st9" points="89.1,77.1 77.6,83.6 29,51.7 			"/>
			<polyline class="st9" points="89.1,79.3 77.6,85.8 29,53.9 			"/>
			<g class="st10">
				<path class="st11" d="M33.9,63.4c0.5,0.4,0.5,0.8,0.1,1.1l-0.5-0.3c0.1-0.2,0.1-0.4-0.1-0.6c-0.4-0.3-0.9-0.2-1.4,0.1
					c-0.5,0.3-0.6,0.6-0.2,0.9c0.3,0.2,0.6,0.2,0.9,0.1l0.5,0.3c-0.6,0.2-1.2,0.2-1.8-0.2c-0.6-0.4-0.6-1,0.2-1.5
					C32.3,62.9,33.2,62.9,33.9,63.4z"/>
			</g>
			<g class="st10">
				<path class="st11" d="M37.1,65.7l-1.5,2l-0.5-0.3l0.4-0.5l-0.9-0.6l-0.8,0.2l-0.5-0.3l3.3-0.8L37.1,65.7z M35.2,66.2l0.6,0.4
					l0.5-0.7L35.2,66.2z"/>
			</g>
			<g class="st10">
				<path class="st11" d="M38.8,66.9l2,1.4l-0.4,0.3L39.6,68l-2,1.2l-0.5-0.3l2-1.2l-0.7-0.5L38.8,66.9z"/>
				<path class="st11" d="M44,70.5l-2.4,1.4l-0.5-0.3l1-0.6l-1-0.7l-1,0.6l-0.5-0.3l2.4-1.4l0.5,0.3l-1,0.6l1,0.7l1-0.6L44,70.5z"/>
				<path class="st11" d="M47,72.5l-0.4,0.3L45.4,72l-0.5,0.3l1,0.7l-0.4,0.2l-1-0.7l-0.6,0.3l1.1,0.8l-0.4,0.3L43,72.8l2.4-1.4
					L47,72.5z"/>
				<path class="st11" d="M47.2,74.6l-0.9,0.5l-0.5-0.3l2.4-1.4l1,0.7c0.5,0.3,0.5,0.7,0,1c-0.4,0.2-0.8,0.2-1.2,0l-0.3,1l-0.5-0.4
					l0.3-0.9L47.2,74.6z M47.6,74.4l0.4,0.3c0.2,0.2,0.5,0.2,0.7,0.1c0.2-0.1,0.2-0.3,0-0.5L48.3,74L47.6,74.4z"/>
				<path class="st11" d="M49.3,77.3l-0.5-0.3l2.4-1.4l0.5,0.3L49.3,77.3z"/>
				<path class="st11" d="M52.6,79.5l-0.4-0.3l0.5-1.7l-1.6,0.9l-0.5-0.3l2.4-1.4l0.5,0.3L53,78.7l1.5-0.9l0.5,0.3L52.6,79.5z"/>
				<path class="st11" d="M57.9,80.2l-0.4,0.3l-1.1-0.8L55.9,80l1,0.7l-0.4,0.2l-1-0.7l-0.6,0.3l1.1,0.8l-0.4,0.3l-1.6-1.1l2.4-1.4
					L57.9,80.2z"/>
				<path class="st11" d="M60.9,82.2l0.5,0.3l-2,1.1l1.1,0.7l-0.4,0.3l-1.6-1.1L60.9,82.2z"/>
			</g>
			<g class="st10">
				<path class="st11" d="M63.2,86.9l-0.4-0.3l0.5-1.7l-1.6,0.9l-0.5-0.3l2.4-1.4l0.5,0.3l-0.5,1.6l1.5-0.9l0.5,0.3L63.2,86.9z"/>
			</g>
			<polyline class="st2" points="89.1,55.3 77.6,61.8 29,29.9 			"/>
			<line class="st2" x1="77.6" y1="59.6" x2="77.6" y2="87.9"/>
			<line class="st2" x1="83.5" y1="83.9" x2="82.8" y2="84.3"/>
			<polyline class="st2" points="83.5,83.9 83.9,84.2 89.1,81.2 89.1,53.1 			"/>
			<polyline class="st2" points="89.1,53.1 77.6,59.6 29,27.7 			"/>
			<g>
				<defs>
					<rect id="SVGID_11_" x="23.9" y="9.9" width="66.5" height="80.5"/>
				</defs>
				<clipPath id="SVGID_12_">
					<use xlink:href="#SVGID_11_"  style="overflow:visible;"/>
				</clipPath>
				<g class="st12">
					<path class="st2" d="M83.5,83.9v-0.6c0-0.1,0-0.2-0.1-0.3"/>
					<path class="st2" d="M83.9,84.2v-0.9c0-0.2-0.2-0.5-0.6-0.3c-0.3,0.2-0.5,0.5-0.5,0.8v1l-5.2,3l-6.8-4.7l-8.6-5.9l-7.2-5
						L44.2,65L29,54V27.7l1.1-0.6"/>
				</g>
			</g>
			<line class="st2" x1="79.4" y1="54.2" x2="79.4" y2="53.1"/>
			<line class="st2" x1="36" y1="29.7" x2="36" y2="31.7"/>
			<line class="st2" x1="79.4" y1="54.2" x2="80.1" y2="54.6"/>
			<line class="st2" x1="79.4" y1="53.1" x2="80.1" y2="53.5"/>
			<line class="st2" x1="36.3" y1="18.1" x2="36.3" y2="16.6"/>
			<line class="st2" x1="36.3" y1="18.2" x2="36.3" y2="16.5"/>
			<line class="st2" x1="36" y1="28.2" x2="36" y2="24.8"/>
			<polyline class="st2" points="37.1,31 36,31.7 30,27.8 30,25.9 32.1,24.6 			"/>
			<polyline class="st2" points="36.3,22.7 39.1,21.1 39.1,17.4 39.1,17.4 37.8,16.6 			"/>
			<g>
				<defs>
					<rect id="SVGID_13_" x="23.9" y="9.9" width="66.5" height="80.5"/>
				</defs>
				<clipPath id="SVGID_14_">
					<use xlink:href="#SVGID_13_"  style="overflow:visible;"/>
				</clipPath>
				<g class="st13">
					<path class="st2" d="M35.7,20c0.2,0.7,0,1.2-0.4,1.2s-1-0.5-1.2-1.2s0-1.2,0.4-1.2S35.5,19.3,35.7,20z"/>
					<path class="st2" d="M36.9,20c-0.2,0.7,0,1.2,0.4,1.2s1-0.5,1.2-1.2s0-1.2-0.4-1.2S37.1,19.4,36.9,20z"/>
				</g>
			</g>
			<line class="st2" x1="36" y1="24.8" x2="40.5" y2="22.2"/>
			<line class="st2" x1="32.1" y1="22.2" x2="36" y2="24.8"/>
			<line class="st2" x1="30" y1="25.8" x2="36" y2="29.7"/>
			<polyline class="st2" points="39.1,20.9 39.3,21.1 39.3,22.2 39.3,22.3 36.3,24.1 36.3,24 36.3,19.1 			"/>
			<polyline class="st2" points="33.3,21.5 32.1,22.2 32.1,25.6 32.1,25.7 36,28.2 			"/>
			<polyline class="st2" points="40.7,24 43,25.5 43,26.8 			"/>
			<line class="st2" x1="36.2" y1="19.2" x2="39.1" y2="17.4"/>
			<line class="st2" x1="33.6" y1="17.4" x2="34.7" y2="16.7"/>
			<line class="st2" x1="33.6" y1="17.4" x2="36.3" y2="19.2"/>
			<polyline class="st2" points="39.3,21.4 40.6,22.2 40.6,22.2 40.6,25.5 40.5,25.6 36,28.3 			"/>
			<line class="st2" x1="34.8" y1="15.6" x2="36.3" y2="16.6"/>
			<line class="st2" x1="37.1" y1="15.1" x2="37.8" y2="15.6"/>
			<g>
				<defs>
					<rect id="SVGID_15_" x="23.9" y="9.9" width="66.5" height="80.5"/>
				</defs>
				<clipPath id="SVGID_16_">
					<use xlink:href="#SVGID_15_"  style="overflow:visible;"/>
				</clipPath>
				<g class="st14">
					<path class="st2" d="M34.8,13.8c-0.1,0.1-0.1,0.2-0.2,0.2l0.1,0.2c0.1,0.1,0.5,0.2,1,0.1s1.8-0.8,1.9-1.5l-0.2-0.4
						c-0.1,0-0.2,0-0.4,0"/>
				</g>
			</g>
			<polyline class="st2" points="35.4,11.4 36.2,11.8 36.5,11.7 37,10.9 			"/>
			<g>
				<defs>
					<rect id="SVGID_17_" x="23.9" y="9.9" width="66.5" height="80.5"/>
				</defs>
				<clipPath id="SVGID_18_">
					<use xlink:href="#SVGID_17_"  style="overflow:visible;"/>
				</clipPath>
				<g class="st15">
					<path class="st2" d="M37.6,13.2c0,0.2,0,0.4,0,0.6c-0.2,0.7-0.9,1.2-1.6,1.1c-0.3-0.1-0.5-0.2-0.7-0.4l-0.1-0.1"/>
					<path class="st2" d="M35,14.1c0-0.1-0.1-0.2-0.1-0.3c-0.1-0.7,0.4-1.4,1.1-1.6c0.4-0.1,0.9,0.1,1.2,0.4
						c0.1,0.1,0.2,0.2,0.2,0.3"/>
					<path class="st2" d="M37.2,15.3c0,0,0-0.1,0-0.1c0,0,0-0.1-0.1-0.1c-0.1,0-0.2,0-0.2,0c0,0,0,0,0-0.1l0,0l0.1-0.3"/>
					<path class="st2" d="M36.6,15.3c0,0.1,0,0.1,0,0.2c0.1,0.1,0.2,0.1,0.3,0c0,0,0,0,0,0"/>
				</g>
			</g>
			<polyline class="st2" points="35.8,15.8 35.8,15.7 36,15.4 36,15.3 35.7,15.2 35.4,15 35.5,14.7 			"/>
			<line class="st2" x1="33.6" y1="21" x2="36.3" y2="22.7"/>
			<polyline class="st2" points="36.2,24.1 33.3,22.2 33.2,22.2 33.2,21.1 33.2,21.1 33.6,21 33.6,21 33.6,17.4 			"/>
			<polyline class="st2" points="35.5,15.1 34.7,15.6 34.7,15.6 34.7,17.2 36.3,18.2 36.3,18.2 37.8,17.3 37.8,15.7 37.8,15.7 
				36.3,16.6 			"/>
			<line class="st2" x1="62.2" y1="44.1" x2="71.9" y2="50.3"/>
			<polyline class="st2" points="84.4,52.1 82.2,53.4 80.1,52.1 			"/>
			<line class="st2" x1="82.2" y1="56.5" x2="82.2" y2="53.4"/>
			<polyline class="st2" points="80.1,52.7 75.7,55.3 37.1,30.8 			"/>
			<line class="st9" x1="89.1" y1="53.1" x2="43" y2="26.4"/>
			<line class="st9" x1="73.3" y1="44.5" x2="46" y2="28.6"/>
			<line class="st2" x1="75.7" y1="56.5" x2="75.7" y2="55.3"/>
			<line class="st2" x1="71.9" y1="51.6" x2="71.9" y2="50.3"/>
			<polygon class="st2" points="77.7,46.9 77.7,48.2 71.9,51.6 62.2,45.5 62.2,44.2 66.5,41.6 72.2,45.1 73.4,44.4 			"/>
			<line class="st2" x1="77.7" y1="46.9" x2="71.9" y2="50.3"/>
			<line class="st2" x1="46" y1="28.5" x2="41.8" y2="31"/>
			<polygon class="st2" points="38.3,30.1 38.2,28.7 38.2,28.7 42.2,26.4 46,28.5 46,29.7 46,29.8 41.8,32.3 			"/>
			<polyline class="st2" points="79.4,54.2 75.7,56.5 37.1,31.9 37.1,31.9 37.1,30.8 38.2,30.1 			"/>
			<line class="st2" x1="41.8" y1="31" x2="38.3" y2="28.8"/>
			<line class="st2" x1="41.8" y1="32.3" x2="41.8" y2="31"/>
			<polyline class="st2" points="83.6,51.6 83.9,51.4 83.9,50.6 77.7,47 			"/>
			<line class="st2" x1="83.9" y1="50.5" x2="83.4" y2="50.8"/>
			<line class="st2" x1="43" y1="25.6" x2="36" y2="29.7"/>
			<polyline class="st2" points="81.2,51.4 80.1,52.1 80.1,55.2 82.2,56.5 84.4,55.3 84.4,52.1 83.5,51.6 			"/>
			<g>
				<defs>
					<rect id="SVGID_19_" x="23.9" y="9.9" width="66.5" height="80.5"/>
				</defs>
				<clipPath id="SVGID_20_">
					<use xlink:href="#SVGID_19_"  style="overflow:visible;"/>
				</clipPath>
				<g class="st16">
					<path class="st2" d="M82.2,50.2c-0.6,0.1-0.9,0.6-0.9,1.2v0.8c0,0.3,0.5,0.6,1.1,0.6s1.1-0.3,1.1-0.6v-0.8c0-0.6-0.4-1-0.9-1.2
						v-0.1c0-0.1-0.1-0.1-0.2-0.1s-0.2,0.1-0.2,0.1L82.2,50.2z"/>
				</g>
			</g>
			<polygon class="st5" points="60.5,70.2 56.2,67.4 56.2,65.3 60.5,68.1 			"/>
			<polygon class="st5" points="60.5,68.1 56.2,65.2 56.2,63 60.5,65.8 			"/>
			<polygon class="st5" points="60.5,65.8 56.2,63.1 56.2,60.9 60.5,63.7 			"/>
			<polygon class="st5" points="60.5,63.7 56.2,60.8 56.2,58.8 60.5,61.5 			"/>
			<polygon class="st5" points="60.5,61.5 56.2,58.7 56.2,56.5 60.5,59.3 			"/>
			<polygon class="st5" points="60.5,59.3 56.2,56.5 56.2,54.4 60.5,57.1 			"/>
			<polygon class="st5" points="60.5,57.1 56.2,54.3 56.2,52.2 60.5,55 			"/>
			<polygon class="st5" points="60.5,55 56.2,52.2 56.2,50 60.5,52.8 			"/>
			<line class="st17" x1="56.2" y1="52.2" x2="60.5" y2="55"/>
			<line class="st17" x1="56.2" y1="54.3" x2="60.5" y2="57.1"/>
			<line class="st17" x1="56.2" y1="56.5" x2="60.5" y2="59.3"/>
			<line class="st17" x1="56.2" y1="58.7" x2="60.5" y2="61.5"/>
			<line class="st17" x1="56.2" y1="60.9" x2="60.5" y2="63.7"/>
			<line class="st17" x1="56.2" y1="63" x2="60.5" y2="65.9"/>
			<line class="st17" x1="56.2" y1="65.2" x2="60.5" y2="68.1"/>
		</g>
	</g>
</g>
</svg>
