<?xml version="1.0" encoding="utf-8"?>
<!-- Generator: Adobe Illustrator 23.0.0, SVG Export Plug-In . SVG Version: 6.00 Build 0)  -->
<svg version="1.1" id="Layer_1" xmlns="http://www.w3.org/2000/svg" xmlns:xlink="http://www.w3.org/1999/xlink" x="0px" y="0px"
	 viewBox="0 0 123.3 164.8" style="enable-background:new 0 0 123.3 164.8;" xml:space="preserve">
<style type="text/css">
	.st0{fill:#D2D3D4;}
	.st1{clip-path:url(#SVGID_2_);}
	.st2{fill:#231F20;}
	.st3{clip-path:url(#SVGID_4_);}
	.st4{fill:none;stroke:#D1D3D4;stroke-width:1.09;stroke-miterlimit:10;}
	.st5{clip-path:url(#SVGID_6_);}
	.st6{fill:none;stroke:#231F20;stroke-width:0.15;stroke-miterlimit:10;}
	.st7{enable-background:new    ;}
	.st8{fill:#D1D3D4;}
	.st9{fill:none;stroke:#231F20;stroke-width:0.14;stroke-miterlimit:10;}
	.st10{clip-path:url(#SVGID_8_);}
	.st11{clip-path:url(#SVGID_10_);}
	.st12{clip-path:url(#SVGID_12_);}
	.st13{clip-path:url(#SVGID_14_);}
	.st14{clip-path:url(#SVGID_16_);}
</style>
<title>residence_R_4_key</title>
<g>
	<path class="st0" d="M14.3,117.1c-0.6,0-1-0.4-1-1.1v-1.4h3.4v1.3c0,0.7-0.3,1.1-0.9,1.1c-0.3,0-0.6-0.2-0.7-0.4
		C14.9,116.9,14.6,117.1,14.3,117.1z M13.9,115.2v0.7c0,0.3,0.2,0.5,0.4,0.5s0.4-0.2,0.4-0.5v-0.7H13.9z M15.3,115.8
		c0,0.3,0.1,0.5,0.4,0.5s0.4-0.2,0.4-0.5v-0.6h-0.8L15.3,115.8z"/>
	<path class="st0" d="M14.6,119.5h-1.3v-0.7h3.4v1.4c0.1,0.5-0.3,1.1-0.8,1.2c-0.1,0-0.2,0-0.3,0c-0.5,0-0.9-0.3-1-0.8l-1.3,0.9
		v-0.8l1.3-0.8L14.6,119.5z M15.1,119.5v0.7c0,0.3,0.2,0.5,0.5,0.5s0.5-0.2,0.5-0.5v-0.7H15.1z"/>
	<path class="st0" d="M13.3,124.6c0-0.9,0.8-1.6,1.7-1.6c0,0,0.1,0,0.1,0c0.9-0.1,1.7,0.6,1.7,1.5c0.1,0.9-0.6,1.7-1.5,1.7
		c-0.1,0-0.2,0-0.3,0c-0.9,0.1-1.7-0.6-1.7-1.5C13.3,124.7,13.3,124.6,13.3,124.6z M16.1,124.6c0-0.5-0.4-0.9-1.1-0.9
		s-1.1,0.3-1.1,0.9s0.5,0.9,1.1,0.9S16.1,125.1,16.1,124.6z"/>
	<path class="st0" d="M16.7,129.4l-3.4,1.3V130l0.8-0.3v-1.3l-0.8-0.3v-0.7l3.4,1.3V129.4z M14.7,128.7v0.8l1.1-0.4L14.7,128.7z"/>
	<path class="st0" d="M16.7,132.4v1.2c0.1,0.9-0.6,1.6-1.5,1.7c-0.1,0-0.2,0-0.2,0c-0.9,0.1-1.6-0.6-1.7-1.4c0-0.1,0-0.2,0-0.2v-1.2
		H16.7z M13.9,133.5c0,0.6,0.4,1,1,1c0,0,0,0,0.1,0c0.6,0,1-0.4,1.1-0.9c0,0,0,0,0-0.1v-0.5h-2.1V133.5z"/>
	<path class="st0" d="M16.7,139l-2.3,0.6l2.3,0.6v0.7l-3.4-0.8v-0.6l2.2-0.6l-2.2-0.6v-0.6l3.4-0.9v0.7l-2.3,0.6l2.3,0.6L16.7,139z"
		/>
	<path class="st0" d="M16.7,144l-3.4,1.3v-0.7l0.8-0.3V143l-0.8-0.3V142l3.4,1.3V144z M14.7,143.2v0.8l1.1-0.4L14.7,143.2z"/>
	<path class="st0" d="M16.7,148.6v0.8l-2.1-1.2h-1.3v-0.7h1.3l2.1-1.2v0.8l-1.4,0.8L16.7,148.6z"/>
	<path class="st0" d="M111.7,108.4v0.7h-2.8v1.6h-0.6v-2.3H111.7z"/>
	<path class="st0" d="M111.7,114.1l-3.4,1.3v-0.7l0.8-0.3v-1.3l-0.8-0.3v-0.7l3.4,1.3V114.1z M109.7,113.4v0.8l1.1-0.4L109.7,113.4z
		"/>
	<path class="st0" d="M108.3,117h3.4v2.2h-0.6v-1.5h-0.9v1.4h-0.6v-1.4h-1.3V117z"/>
	<path class="st0" d="M111.7,122.5l-3.4,1.3v-0.7l0.8-0.3v-1.3l-0.8-0.3v-0.7l3.4,1.3V122.5z M109.7,121.8v0.8l1.1-0.4L109.7,121.8z
		"/>
	<path class="st0" d="M111.7,127.2v0.7l-2.1-1.2h-1.3V126h1.3l2.1-1.2v0.8l-1.4,0.8L111.7,127.2z"/>
	<path class="st0" d="M111.7,131.8h-0.6v-1.6h-0.7v1.4h-0.6v-1.4h-0.8v1.6h-0.6v-2.3h3.4V131.8z"/>
	<path class="st0" d="M111.7,133.4v2.9h-0.6v-1.1h-2.8v-0.7h2.8v-1.1L111.7,133.4z"/>
	<path class="st0" d="M111.7,137.8v2.9h-0.6v-1.1h-2.8v-0.7h2.8v-1.1H111.7z"/>
	<path class="st0" d="M111.7,144.6h-0.6V143h-0.7v1.4h-0.6V143h-0.8v1.6h-0.6v-2.3h3.4V144.6z"/>
	<path class="st0" d="M109.2,149.2c-0.3,0.1-0.5,0.4-0.4,0.7c0,0.4,0.2,0.6,0.4,0.6s0.3-0.1,0.4-0.4l0.1-0.6c0-0.5,0.4-0.9,0.9-0.9
		c0.6,0,1,0.6,1,1.1c0,0,0,0,0,0.1c0.1,0.6-0.4,1.2-1,1.3v-0.7c0.3-0.1,0.4-0.3,0.4-0.6c0-0.3-0.2-0.5-0.4-0.5s-0.3,0.1-0.4,0.4
		l-0.1,0.6c-0.1,0.6-0.4,0.9-1,0.9s-1-0.5-1-1.2c-0.1-0.7,0.4-1.3,1-1.4L109.2,149.2L109.2,149.2z"/>
	<path class="st0" d="M111.7,152.6v2.9h-0.6v-1.1h-2.8v-0.7h2.8v-1.1L111.7,152.6z"/>
	<path class="st0" d="M43.1,112.6h0.7v2.8h1.6v0.6h-2.3V112.6z"/>
	<path class="st0" d="M49.3,112.6v0.6h-1.6v0.8h1.5v0.6h-1.5v0.8h1.6v0.6H47v-3.4L49.3,112.6z"/>
	<path class="st0" d="M52.4,116c-1,0.1-1.8-0.7-1.9-1.6c-0.1-1,0.7-1.8,1.6-1.9s1.8,0.7,1.9,1.6c0,0.1,0,0.1,0,0.2
		c0,0.9-0.6,1.6-1.5,1.7C52.4,116,52.4,116,52.4,116z M52.4,113.2c-0.5,0-0.9,0.4-0.9,1.1s0.3,1.1,0.9,1.1s0.9-0.5,0.9-1.1
		S52.9,113.2,52.4,113.2L52.4,113.2z"/>
	<path class="st0" d="M58.4,116h-0.6l-1.6-2.2v2.2h-0.7v-3.4h0.7l1.5,2.1v-2.1h0.7V116z"/>
	<path class="st0" d="M61.9,112.6l1.3,3.4h-0.7l-0.3-0.8h-1.3l-0.3,0.8h-0.7l1.3-3.4L61.9,112.6z M61.1,114.6h0.8l-0.4-1.1
		L61.1,114.6z"/>
	<path class="st0" d="M65.4,114.7v1.3h-0.7v-3.4h1.4c0.5-0.1,1.1,0.2,1.2,0.8c0,0.1,0,0.2,0,0.3c0,0.5-0.3,0.9-0.8,1l0.9,1.3h-0.8
		l-0.8-1.3L65.4,114.7z M65.4,114.2H66c0.3,0,0.5-0.2,0.5-0.5s-0.2-0.5-0.5-0.5h-0.7L65.4,114.2z"/>
	<path class="st0" d="M68.9,112.6h1.2c0.9,0.1,1.6,0.9,1.6,1.8c-0.1,0.8-0.7,1.5-1.6,1.6h-1.2V112.6z M70,115.4
		c0.6,0,1.1-0.5,1.1-1.1c0-0.6-0.5-1.1-1.1-1.1h-0.5v2.1H70z"/>
	<path class="st0" d="M76.1,115c0.1,0.3,0.4,0.5,0.7,0.4c0.3,0,0.6-0.2,0.6-0.4s-0.1-0.3-0.4-0.4l-0.6-0.1c-0.5-0.1-0.8-0.4-0.8-0.9
		c0-0.6,0.6-1,1.2-1c0,0,0,0,0,0c0.6-0.1,1.2,0.4,1.3,1h-0.7c-0.1-0.3-0.3-0.4-0.6-0.4c-0.3,0-0.5,0.2-0.5,0.4s0.1,0.3,0.4,0.4
		l0.6,0.2c0.5,0.1,0.9,0.5,0.9,1c-0.1,0.6-0.6,1.1-1.2,1c0,0,0,0,0,0c-0.7,0.1-1.3-0.4-1.4-1L76.1,115z"/>
	<path class="st0" d="M79.4,112.6h2.9v0.6h-1.1v2.8h-0.7v-2.8h-1.1V112.6z"/>
	<path class="st0" d="M40.6,147.9c0.7,0,1.3,0.4,1.4,1.1h-0.7c-0.1-0.3-0.4-0.5-0.7-0.5c-0.5,0-0.8,0.5-0.8,1.1s0.3,1.1,0.8,1.1
		c0.3,0,0.6-0.2,0.7-0.5H42c-0.1,0.7-0.7,1.2-1.4,1.1c-1-0.1-1.7-1-1.6-1.9C39.2,148.6,39.8,147.9,40.6,147.9z"/>
	<path class="st0" d="M45.4,147.9l1.3,3.4H46l-0.3-0.8h-1.3l-0.3,0.8h-0.7l1.3-3.4H45.4z M44.6,149.9h0.8l-0.4-1.2L44.6,149.9z"/>
	<path class="st0" d="M47.8,147.9h2.9v0.6h-1.1v2.8h-0.7v-2.8h-1.1V147.9z"/>
	<path class="st0" d="M55.2,147.9v3.4h-0.7v-1.4H53v1.4h-0.7v-3.4H53v1.3h1.5v-1.3H55.2z"/>
	<path class="st0" d="M59.4,147.9v0.6h-1.6v0.7h1.5v0.6h-1.5v0.8h1.6v0.6h-2.3v-3.4L59.4,147.9z"/>
	<path class="st0" d="M61.8,150v1.3h-0.7v-3.4h1.4c0.5-0.1,1.1,0.3,1.2,0.8c0,0.1,0,0.2,0,0.3c0,0.5-0.3,0.9-0.8,1l0.9,1.3H63
		l-0.8-1.3H61.8z M61.8,149.4h0.6c0.4,0,0.5-0.2,0.5-0.5s-0.2-0.5-0.5-0.5h-0.6V149.4z"/>
	<path class="st0" d="M66.2,151.3h-0.7v-3.4h0.7V151.3z"/>
	<path class="st0" d="M70.8,151.3h-0.6l-1.6-2.3v2.2H68v-3.4h0.7l1.5,2.1v-2.1h0.7V151.3z"/>
	<path class="st0" d="M75,147.9v0.6h-1.6v0.7h1.4v0.6h-1.5v0.8H75v0.6h-2.3v-3.4L75,147.9z"/>
	<path class="st0" d="M79.1,147.9h0.7v2.8h1.6v0.6h-2.3V147.9z"/>
	<path class="st0" d="M85.9,151.3h-0.6l-1.6-2.3v2.2h-0.7v-3.4h0.7l1.5,2.1v-2.1h0.7V151.3L85.9,151.3z"/>
</g>
<g id="Layer_4">
	<g>
		<defs>
			<rect id="SVGID_1_" x="24.2" y="124.7" width="76.1" height="17.2"/>
		</defs>
		<clipPath id="SVGID_2_">
			<use xlink:href="#SVGID_1_"  style="overflow:visible;"/>
		</clipPath>
		<g class="st1">
			<polygon class="st2" points="84.4,133.7 85.8,133.7 85.8,134 86.8,134 86.8,133.7 89.1,133.7 89.1,135.8 88.4,135.8 88.4,137.6 
				89.4,137.6 89.4,140.3 84.1,140.1 84.1,138.2 84.4,138.2 84.4,136.3 84,136.3 84,134.4 84.4,134.4 			"/>
			<g>
				<defs>
					<rect id="SVGID_3_" x="24.2" y="124.7" width="76.1" height="17.2"/>
				</defs>
				<clipPath id="SVGID_4_">
					<use xlink:href="#SVGID_3_"  style="overflow:visible;"/>
				</clipPath>
				<g class="st3">
					<polygon class="st4" points="98.5,125.8 98.5,140.7 25.1,136.2 25.2,125.8 					"/>
				</g>
			</g>
		</g>
	</g>
	<g>
		<defs>
			<rect id="SVGID_5_" x="24.3" y="5.8" width="67.8" height="81.8"/>
		</defs>
		<clipPath id="SVGID_6_">
			<use xlink:href="#SVGID_5_"  style="overflow:visible;"/>
		</clipPath>
		<g class="st5">
			<polyline class="st6" points="91.1,53.9 79.3,60.5 30,28 			"/>
			<polyline class="st6" points="91.1,56.1 79.3,62.7 30,30.3 			"/>
			<polyline class="st6" points="91.1,58.3 79.3,64.9 30,32.5 			"/>
			<polyline class="st6" points="91.1,60.5 79.3,67.1 30,34.7 			"/>
			<polyline class="st6" points="91.1,62.7 79.3,69.4 30,36.9 			"/>
			<polyline class="st6" points="91.1,64.9 79.3,71.6 30,39.1 			"/>
			<polyline class="st6" points="91.1,67.2 79.3,73.8 30,41.3 			"/>
			<polyline class="st6" points="91.1,69.4 79.3,76 30,43.6 			"/>
			<polyline class="st6" points="91.1,71.6 79.3,78.2 30,45.8 			"/>
			<polyline class="st6" points="91.1,73.8 79.3,80.4 30,48 			"/>
			<polyline class="st6" points="91.1,76 79.3,82.7 30,50.2 			"/>
			<g class="st7">
				<path class="st8" d="M34.9,59.9c0.6,0.4,0.6,0.8,0.2,1.2l-0.5-0.3c0.1-0.2,0.2-0.4-0.1-0.6c-0.4-0.3-0.9-0.2-1.4,0.1
					c-0.5,0.3-0.6,0.6-0.2,0.9c0.3,0.2,0.6,0.2,0.9,0.1l0.5,0.3c-0.6,0.2-1.3,0.2-1.8-0.2c-0.6-0.4-0.6-1.1,0.2-1.5
					S34.3,59.4,34.9,59.9z"/>
			</g>
			<g class="st7">
				<path class="st8" d="M38.2,62.2l-1.6,2.1l-0.5-0.3l0.4-0.5l-0.9-0.6L34.9,63l-0.5-0.3l3.4-0.8L38.2,62.2z M36.3,62.7l0.6,0.4
					l0.5-0.7L36.3,62.7z"/>
			</g>
			<g class="st7">
				<path class="st8" d="M40,63.4l2,1.4l-0.4,0.3l-0.8-0.5l-2,1.2l-0.5-0.3l2-1.2l-0.8-0.5L40,63.4z"/>
				<path class="st8" d="M45.3,67.1l-2.5,1.4l-0.5-0.3l1-0.6l-1.1-0.7l-1,0.6l-0.5-0.3l2.5-1.4l0.5,0.3l-1,0.6l1.1,0.7l1-0.6
					L45.3,67.1z"/>
				<path class="st8" d="M48.2,69.2l-0.4,0.3l-1.1-0.8L46.1,69l1,0.7l-0.4,0.3l-1-0.7l-0.6,0.3l1.1,0.8l-0.5,0.3l-1.6-1.1l2.5-1.4
					L48.2,69.2z"/>
				<path class="st8" d="M48.5,71.3l-0.9,0.5l-0.5-0.3l2.5-1.4l1,0.7c0.5,0.3,0.5,0.7,0,1c-0.4,0.2-0.8,0.2-1.3,0l-0.3,1l-0.6-0.4
					l0.3-0.9L48.5,71.3z M48.9,71.1l0.5,0.3c0.2,0.2,0.5,0.2,0.7,0.1c0.2-0.1,0.2-0.3,0-0.5l-0.5-0.3L48.9,71.1z"/>
				<path class="st8" d="M50.6,74l-0.5-0.3l2.5-1.4l0.5,0.3L50.6,74z"/>
				<path class="st8" d="M54,76.3L53.6,76l0.5-1.7l-1.6,1L52,74.9l2.5-1.4l0.5,0.3l-0.5,1.6l1.6-0.9l0.5,0.3L54,76.3z"/>
				<path class="st8" d="M59.4,76.9l-0.4,0.3l-1.1-0.8l-0.5,0.3l1,0.7l-0.4,0.3l-1-0.7l-0.6,0.3l1.1,0.8l-0.5,0.3l-1.6-1.1l2.5-1.4
					L59.4,76.9z"/>
				<path class="st8" d="M62.4,79l0.5,0.3l-2,1.2l1.1,0.8l-0.5,0.3L60,80.5L62.4,79z"/>
			</g>
			<g class="st7">
				<path class="st8" d="M64.7,83.8l-0.4-0.3l0.5-1.7l-1.6,1l-0.5-0.3l2.5-1.4l0.5,0.3l-0.5,1.6l1.6-0.9l0.5,0.3L64.7,83.8z"/>
			</g>
			<polyline class="st9" points="91.1,51.6 79.3,58.3 30,25.8 			"/>
			<line class="st9" x1="79.3" y1="56" x2="79.3" y2="84.8"/>
			<line class="st9" x1="85.3" y1="80.7" x2="84.6" y2="81.2"/>
			<polyline class="st9" points="85.3,80.7 85.8,81 91.1,77.9 91.1,49.4 			"/>
			<polyline class="st9" points="91.1,49.4 79.3,56 30,23.6 			"/>
			<g>
				<defs>
					<rect id="SVGID_7_" x="24.3" y="5.8" width="67.8" height="81.8"/>
				</defs>
				<clipPath id="SVGID_8_">
					<use xlink:href="#SVGID_7_"  style="overflow:visible;"/>
				</clipPath>
				<g class="st10">
					<path class="st9" d="M85.3,80.7v-0.6c0-0.1,0-0.2-0.1-0.3"/>
					<path class="st9" d="M85.8,81v-0.9c0-0.2-0.2-0.5-0.6-0.3c-0.3,0.2-0.5,0.5-0.6,0.9v1l-5.3,3.1L72.4,80l-8.8-6l-7.3-5
						l-10.9-7.5L30,50.3V23.6l1-0.6"/>
				</g>
			</g>
			<line class="st9" x1="81.2" y1="50.6" x2="81.2" y2="49.4"/>
			<line class="st9" x1="37" y1="25.7" x2="37" y2="27.6"/>
			<line class="st9" x1="81.2" y1="50.6" x2="81.8" y2="51"/>
			<line class="st9" x1="81.2" y1="49.4" x2="81.8" y2="49.8"/>
			<line class="st9" x1="37.4" y1="13.9" x2="37.4" y2="12.3"/>
			<line class="st9" x1="37.4" y1="13.9" x2="37.4" y2="12.3"/>
			<line class="st9" x1="37.1" y1="24.1" x2="37.1" y2="20.6"/>
			<polyline class="st9" points="38.2,26.9 37,27.6 31,23.7 31,21.7 33.1,20.5 			"/>
			<polyline class="st9" points="37.3,18.5 40.2,16.9 40.2,13.2 40.2,13.1 38.9,12.3 			"/>
			<g>
				<defs>
					<rect id="SVGID_9_" x="24.3" y="5.8" width="67.8" height="81.8"/>
				</defs>
				<clipPath id="SVGID_10_">
					<use xlink:href="#SVGID_9_"  style="overflow:visible;"/>
				</clipPath>
				<g class="st11">
					<path class="st9" d="M36.8,15.8c0.2,0.7,0,1.2-0.4,1.2s-1-0.5-1.3-1.2s0-1.2,0.4-1.2S36.5,15.1,36.8,15.8z"/>
					<path class="st9" d="M38,15.8c-0.2,0.7,0,1.2,0.4,1.2s1-0.5,1.2-1.2s0-1.2-0.4-1.2S38.2,15.1,38,15.8z"/>
				</g>
			</g>
			<line class="st9" x1="37.1" y1="20.7" x2="41.7" y2="18"/>
			<line class="st9" x1="33.1" y1="18" x2="37.1" y2="20.7"/>
			<line class="st9" x1="31" y1="21.7" x2="37" y2="25.7"/>
			<polyline class="st9" points="40.2,16.7 40.4,16.9 40.4,18 40.4,18.1 37.3,19.9 37.3,19.8 37.3,14.9 			"/>
			<polyline class="st9" points="34.3,17.3 33.1,18 33.1,21.5 33.1,21.5 37,24.1 			"/>
			<polyline class="st9" points="41.8,19.8 44.2,21.4 44.2,22.7 			"/>
			<line class="st9" x1="37.3" y1="14.9" x2="40.2" y2="13.2"/>
			<line class="st9" x1="34.6" y1="13.1" x2="35.8" y2="12.5"/>
			<line class="st9" x1="34.6" y1="13.1" x2="37.3" y2="15"/>
			<polyline class="st9" points="40.4,17.2 41.7,18 41.7,18 41.7,21.4 41.7,21.4 37,24.2 			"/>
			<line class="st9" x1="35.8" y1="11.3" x2="37.4" y2="12.3"/>
			<line class="st9" x1="38.2" y1="10.8" x2="39" y2="11.3"/>
			<g>
				<defs>
					<rect id="SVGID_11_" x="24.3" y="5.8" width="67.8" height="81.8"/>
				</defs>
				<clipPath id="SVGID_12_">
					<use xlink:href="#SVGID_11_"  style="overflow:visible;"/>
				</clipPath>
				<g class="st12">
					<path class="st9" d="M35.9,9.5c-0.1,0.1-0.1,0.2-0.2,0.2l0.1,0.3c0.1,0.1,0.5,0.2,1,0.1s1.8-0.8,1.9-1.5l-0.2-0.4
						c-0.1,0-0.3,0-0.4,0"/>
				</g>
			</g>
			<polyline class="st9" points="36.4,7.1 37.3,7.4 37.5,7.3 38.1,6.5 			"/>
			<g>
				<defs>
					<rect id="SVGID_13_" x="24.3" y="5.8" width="67.8" height="81.8"/>
				</defs>
				<clipPath id="SVGID_14_">
					<use xlink:href="#SVGID_13_"  style="overflow:visible;"/>
				</clipPath>
				<g class="st13">
					<path class="st9" d="M38.7,8.9c0,0.2,0,0.4,0,0.6c-0.1,0.8-0.9,1.2-1.6,1.1c-0.3-0.1-0.5-0.2-0.7-0.4l-0.1-0.1"/>
					<path class="st9" d="M36,9.8c0-0.1-0.1-0.2-0.1-0.3c-0.1-0.8,0.4-1.5,1.2-1.6c0.5-0.1,0.9,0.1,1.2,0.4c0.1,0.1,0.2,0.2,0.2,0.3
						"/>
					<path class="st9" d="M38.3,11c0,0,0-0.1,0-0.1c0,0,0-0.1-0.1-0.1c-0.1,0-0.2,0-0.2,0c0,0,0,0,0-0.1l0,0l0.1-0.3"/>
					<path class="st9" d="M37.7,11c0,0.1,0,0.1,0.1,0.2s0.2,0.1,0.3,0"/>
				</g>
			</g>
			<polyline class="st9" points="36.9,11.5 36.9,11.4 37.1,11.1 37.1,11 36.7,10.9 36.4,10.7 36.5,10.4 			"/>
			<line class="st9" x1="34.6" y1="16.8" x2="37.3" y2="18.5"/>
			<polyline class="st9" points="37.3,20 34.3,18 34.3,18 34.3,17 34.3,16.9 34.6,16.8 34.6,16.7 34.6,13.1 			"/>
			<polyline class="st9" points="36.6,10.8 35.7,11.3 35.7,11.4 35.7,12.9 37.3,14 37.3,13.9 38.9,13 38.9,11.4 38.9,11.4 
				37.4,12.3 			"/>
			<line class="st9" x1="63.7" y1="40.3" x2="73.6" y2="46.5"/>
			<polyline class="st9" points="86.2,48.4 84,49.7 81.9,48.4 			"/>
			<line class="st9" x1="84" y1="52.9" x2="84" y2="49.7"/>
			<polyline class="st9" points="81.8,49 77.3,51.7 38.2,26.7 			"/>
			<line class="st6" x1="91.1" y1="49.4" x2="44.2" y2="22.2"/>
			<line class="st6" x1="74.9" y1="40.6" x2="47.2" y2="24.5"/>
			<line class="st9" x1="77.3" y1="52.8" x2="77.3" y2="51.7"/>
			<line class="st9" x1="73.6" y1="47.9" x2="73.6" y2="46.5"/>
			<polygon class="st9" points="79.4,43.1 79.4,44.5 73.6,47.9 63.7,41.7 63.7,40.3 68.1,37.8 73.9,41.2 75.1,40.5 			"/>
			<line class="st9" x1="79.4" y1="43.1" x2="73.6" y2="46.5"/>
			<line class="st9" x1="47.2" y1="24.5" x2="43" y2="26.9"/>
			<polygon class="st9" points="39.4,26 39.3,24.7 39.3,24.6 43.4,22.2 47.2,24.5 47.2,25.7 47.2,25.7 43,28.3 			"/>
			<polyline class="st9" points="81.2,50.6 77.3,52.8 38.2,27.9 38.2,27.9 38.2,26.7 39.3,26.1 			"/>
			<line class="st9" x1="43" y1="26.9" x2="39.4" y2="24.7"/>
			<line class="st9" x1="43" y1="28.2" x2="43" y2="26.9"/>
			<polyline class="st9" points="85.4,47.9 85.7,47.7 85.7,46.8 79.4,43.2 			"/>
			<line class="st9" x1="85.7" y1="46.8" x2="85.2" y2="47.1"/>
			<line class="st9" x1="44.2" y1="21.5" x2="37" y2="25.7"/>
			<polyline class="st9" points="83.1,47.7 81.8,48.4 81.8,51.5 84,52.9 86.2,51.6 86.2,48.4 85.3,47.9 			"/>
			<g>
				<defs>
					<rect id="SVGID_15_" x="24.3" y="5.8" width="67.8" height="81.8"/>
				</defs>
				<clipPath id="SVGID_16_">
					<use xlink:href="#SVGID_15_"  style="overflow:visible;"/>
				</clipPath>
				<g class="st14">
					<path class="st9" d="M84,46.5c-0.6,0.1-1,0.6-1,1.2v0.8c0,0.3,0.5,0.6,1.1,0.6s1.2-0.3,1.2-0.6v-0.8c0-0.6-0.4-1.1-1-1.2v-0.1
						c0-0.1-0.1-0.1-0.2-0.1s-0.2,0.1-0.2,0.1L84,46.5z"/>
				</g>
			</g>
			<polygon class="st2" points="71.5,73.1 68.1,70.9 68.1,68.7 71.5,70.8 			"/>
		</g>
	</g>
</g>
</svg>
