<?xml version="1.0" encoding="utf-8"?>
<!-- Generator: Adobe Illustrator 23.0.0, SVG Export Plug-In . SVG Version: 6.00 Build 0)  -->
<svg version="1.1" id="Layer_1" xmlns="http://www.w3.org/2000/svg" xmlns:xlink="http://www.w3.org/1999/xlink" x="0px" y="0px"
	 viewBox="0 0 123.3 164.8" style="enable-background:new 0 0 123.3 164.8;" xml:space="preserve">
<style type="text/css">
	.st0{fill:#D2D3D4;}
	.st1{clip-path:url(#SVGID_2_);}
	.st2{fill:#231F20;}
	.st3{clip-path:url(#SVGID_4_);}
	.st4{fill:none;stroke:#D1D3D4;stroke-width:1.09;stroke-miterlimit:10;}
	.st5{clip-path:url(#SVGID_6_);}
	.st6{fill:none;stroke:#231F20;stroke-width:0.15;stroke-miterlimit:10;}
	.st7{enable-background:new    ;}
	.st8{fill:#D1D3D4;}
	.st9{fill:none;stroke:#231F20;stroke-width:0.14;stroke-miterlimit:10;}
	.st10{clip-path:url(#SVGID_8_);}
	.st11{clip-path:url(#SVGID_10_);}
	.st12{clip-path:url(#SVGID_12_);}
	.st13{clip-path:url(#SVGID_14_);}
	.st14{clip-path:url(#SVGID_16_);}
</style>
<title>residence_P_46_key</title>
<g>
	<path class="st0" d="M14.3,117.1c-0.6,0-1-0.4-1-1.1v-1.4h3.4v1.3c0,0.7-0.3,1.1-0.9,1.1c-0.3,0-0.6-0.2-0.7-0.4
		C14.9,116.9,14.6,117.1,14.3,117.1z M13.9,115.2v0.7c0,0.3,0.2,0.5,0.4,0.5s0.4-0.2,0.4-0.5v-0.7H13.9z M15.3,115.8
		c0,0.3,0.1,0.5,0.4,0.5s0.4-0.2,0.4-0.5v-0.6h-0.8L15.3,115.8z"/>
	<path class="st0" d="M14.6,119.5h-1.3v-0.7h3.4v1.4c0.1,0.5-0.3,1.1-0.8,1.2c-0.1,0-0.2,0-0.3,0c-0.5,0-0.9-0.3-1-0.8l-1.3,0.9
		v-0.8l1.3-0.8L14.6,119.5z M15.1,119.5v0.7c0,0.3,0.2,0.5,0.5,0.5s0.5-0.2,0.5-0.5v-0.7H15.1z"/>
	<path class="st0" d="M13.3,124.6c0-0.9,0.8-1.6,1.7-1.6c0,0,0.1,0,0.1,0c0.9-0.1,1.7,0.6,1.7,1.5c0.1,0.9-0.6,1.7-1.5,1.7
		c-0.1,0-0.2,0-0.3,0c-0.9,0.1-1.7-0.6-1.7-1.5C13.3,124.7,13.3,124.6,13.3,124.6z M16.1,124.6c0-0.5-0.4-0.9-1.1-0.9
		s-1.1,0.3-1.1,0.9s0.5,0.9,1.1,0.9S16.1,125.1,16.1,124.6z"/>
	<path class="st0" d="M16.7,129.4l-3.4,1.3V130l0.8-0.3v-1.3l-0.8-0.3v-0.7l3.4,1.3V129.4z M14.7,128.7v0.8l1.1-0.4L14.7,128.7z"/>
	<path class="st0" d="M16.7,132.4v1.2c0.1,0.9-0.6,1.6-1.5,1.7c-0.1,0-0.2,0-0.2,0c-0.9,0.1-1.6-0.6-1.7-1.4c0-0.1,0-0.2,0-0.2v-1.2
		H16.7z M13.9,133.5c0,0.6,0.4,1,1,1c0,0,0,0,0.1,0c0.6,0,1-0.4,1.1-0.9c0,0,0,0,0-0.1v-0.5h-2.1V133.5z"/>
	<path class="st0" d="M16.7,139l-2.3,0.6l2.3,0.6v0.7l-3.4-0.8v-0.6l2.2-0.6l-2.2-0.6v-0.6l3.4-0.9v0.7l-2.3,0.6l2.3,0.6L16.7,139z"
		/>
	<path class="st0" d="M16.7,144l-3.4,1.3v-0.7l0.8-0.3V143l-0.8-0.3V142l3.4,1.3V144z M14.7,143.2v0.8l1.1-0.4L14.7,143.2z"/>
	<path class="st0" d="M16.7,148.6v0.8l-2.1-1.2h-1.3v-0.7h1.3l2.1-1.2v0.8l-1.4,0.8L16.7,148.6z"/>
	<path class="st0" d="M111.7,108.4v0.7h-2.8v1.6h-0.6v-2.3H111.7z"/>
	<path class="st0" d="M111.7,114.1l-3.4,1.3v-0.7l0.8-0.3v-1.3l-0.8-0.3v-0.7l3.4,1.3V114.1z M109.7,113.4v0.8l1.1-0.4L109.7,113.4z
		"/>
	<path class="st0" d="M108.3,117h3.4v2.2h-0.6v-1.5h-0.9v1.4h-0.6v-1.4h-1.3V117z"/>
	<path class="st0" d="M111.7,122.5l-3.4,1.3v-0.7l0.8-0.3v-1.3l-0.8-0.3v-0.7l3.4,1.3V122.5z M109.7,121.8v0.8l1.1-0.4L109.7,121.8z
		"/>
	<path class="st0" d="M111.7,127.2v0.7l-2.1-1.2h-1.3V126h1.3l2.1-1.2v0.8l-1.4,0.8L111.7,127.2z"/>
	<path class="st0" d="M111.7,131.8h-0.6v-1.6h-0.7v1.4h-0.6v-1.4h-0.8v1.6h-0.6v-2.3h3.4V131.8z"/>
	<path class="st0" d="M111.7,133.4v2.9h-0.6v-1.1h-2.8v-0.7h2.8v-1.1L111.7,133.4z"/>
	<path class="st0" d="M111.7,137.8v2.9h-0.6v-1.1h-2.8v-0.7h2.8v-1.1H111.7z"/>
	<path class="st0" d="M111.7,144.6h-0.6V143h-0.7v1.4h-0.6V143h-0.8v1.6h-0.6v-2.3h3.4V144.6z"/>
	<path class="st0" d="M109.2,149.2c-0.3,0.1-0.5,0.4-0.4,0.7c0,0.4,0.2,0.6,0.4,0.6s0.3-0.1,0.4-0.4l0.1-0.6c0-0.5,0.4-0.9,0.9-0.9
		c0.6,0,1,0.6,1,1.1c0,0,0,0,0,0.1c0.1,0.6-0.4,1.2-1,1.3v-0.7c0.3-0.1,0.4-0.3,0.4-0.6c0-0.3-0.2-0.5-0.4-0.5s-0.3,0.1-0.4,0.4
		l-0.1,0.6c-0.1,0.6-0.4,0.9-1,0.9s-1-0.5-1-1.2c-0.1-0.7,0.4-1.3,1-1.4L109.2,149.2L109.2,149.2z"/>
	<path class="st0" d="M111.7,152.6v2.9h-0.6v-1.1h-2.8v-0.7h2.8v-1.1L111.7,152.6z"/>
	<path class="st0" d="M43.1,112.6h0.7v2.8h1.6v0.6h-2.3V112.6z"/>
	<path class="st0" d="M49.3,112.6v0.6h-1.6v0.8h1.5v0.6h-1.5v0.8h1.6v0.6H47v-3.4L49.3,112.6z"/>
	<path class="st0" d="M52.4,116c-1,0.1-1.8-0.7-1.9-1.6c-0.1-1,0.7-1.8,1.6-1.9s1.8,0.7,1.9,1.6c0,0.1,0,0.1,0,0.2
		c0,0.9-0.6,1.6-1.5,1.7C52.4,116,52.4,116,52.4,116z M52.4,113.2c-0.5,0-0.9,0.4-0.9,1.1s0.3,1.1,0.9,1.1s0.9-0.5,0.9-1.1
		S52.9,113.2,52.4,113.2L52.4,113.2z"/>
	<path class="st0" d="M58.4,116h-0.6l-1.6-2.2v2.2h-0.7v-3.4h0.7l1.5,2.1v-2.1h0.7V116z"/>
	<path class="st0" d="M61.9,112.6l1.3,3.4h-0.7l-0.3-0.8h-1.3l-0.3,0.8h-0.7l1.3-3.4L61.9,112.6z M61.1,114.6h0.8l-0.4-1.1
		L61.1,114.6z"/>
	<path class="st0" d="M65.4,114.7v1.3h-0.7v-3.4h1.4c0.5-0.1,1.1,0.2,1.2,0.8c0,0.1,0,0.2,0,0.3c0,0.5-0.3,0.9-0.8,1l0.9,1.3h-0.8
		l-0.8-1.3L65.4,114.7z M65.4,114.2H66c0.3,0,0.5-0.2,0.5-0.5s-0.2-0.5-0.5-0.5h-0.7L65.4,114.2z"/>
	<path class="st0" d="M68.9,112.6h1.2c0.9,0.1,1.6,0.9,1.6,1.8c-0.1,0.8-0.7,1.5-1.6,1.6h-1.2V112.6z M70,115.4
		c0.6,0,1.1-0.5,1.1-1.1c0-0.6-0.5-1.1-1.1-1.1h-0.5v2.1H70z"/>
	<path class="st0" d="M76.1,115c0.1,0.3,0.4,0.5,0.7,0.4c0.3,0,0.6-0.2,0.6-0.4s-0.1-0.3-0.4-0.4l-0.6-0.1c-0.5-0.1-0.8-0.4-0.8-0.9
		c0-0.6,0.6-1,1.2-1c0,0,0,0,0,0c0.6-0.1,1.2,0.4,1.3,1h-0.7c-0.1-0.3-0.3-0.4-0.6-0.4c-0.3,0-0.5,0.2-0.5,0.4s0.1,0.3,0.4,0.4
		l0.6,0.2c0.5,0.1,0.9,0.5,0.9,1c-0.1,0.6-0.6,1.1-1.2,1c0,0,0,0,0,0c-0.7,0.1-1.3-0.4-1.4-1L76.1,115z"/>
	<path class="st0" d="M79.4,112.6h2.9v0.6h-1.1v2.8h-0.7v-2.8h-1.1V112.6z"/>
	<path class="st0" d="M40.6,147.9c0.7,0,1.3,0.4,1.4,1.1h-0.7c-0.1-0.3-0.4-0.5-0.7-0.5c-0.5,0-0.8,0.5-0.8,1.1s0.3,1.1,0.8,1.1
		c0.3,0,0.6-0.2,0.7-0.5H42c-0.1,0.7-0.7,1.2-1.4,1.1c-1-0.1-1.7-1-1.6-1.9C39.2,148.6,39.8,147.9,40.6,147.9z"/>
	<path class="st0" d="M45.4,147.9l1.3,3.4H46l-0.3-0.8h-1.3l-0.3,0.8h-0.7l1.3-3.4H45.4z M44.6,149.9h0.8l-0.4-1.2L44.6,149.9z"/>
	<path class="st0" d="M47.8,147.9h2.9v0.6h-1.1v2.8h-0.7v-2.8h-1.1V147.9z"/>
	<path class="st0" d="M55.2,147.9v3.4h-0.7v-1.4H53v1.4h-0.7v-3.4H53v1.3h1.5v-1.3H55.2z"/>
	<path class="st0" d="M59.4,147.9v0.6h-1.6v0.7h1.5v0.6h-1.5v0.8h1.6v0.6h-2.3v-3.4L59.4,147.9z"/>
	<path class="st0" d="M61.8,150v1.3h-0.7v-3.4h1.4c0.5-0.1,1.1,0.3,1.2,0.8c0,0.1,0,0.2,0,0.3c0,0.5-0.3,0.9-0.8,1l0.9,1.3H63
		l-0.8-1.3H61.8z M61.8,149.4h0.6c0.4,0,0.5-0.2,0.5-0.5s-0.2-0.5-0.5-0.5h-0.6V149.4z"/>
	<path class="st0" d="M66.2,151.3h-0.7v-3.4h0.7V151.3z"/>
	<path class="st0" d="M70.8,151.3h-0.6l-1.6-2.3v2.2H68v-3.4h0.7l1.5,2.1v-2.1h0.7V151.3z"/>
	<path class="st0" d="M75,147.9v0.6h-1.6v0.7h1.4v0.6h-1.5v0.8H75v0.6h-2.3v-3.4L75,147.9z"/>
	<path class="st0" d="M79.1,147.9h0.7v2.8h1.6v0.6h-2.3V147.9z"/>
	<path class="st0" d="M85.9,151.3h-0.6l-1.6-2.3v2.2h-0.7v-3.4h0.7l1.5,2.1v-2.1h0.7V151.3L85.9,151.3z"/>
</g>
<g id="Layer_4">
	<g>
		<defs>
			<rect id="SVGID_1_" x="23.3" y="124.1" width="76.8" height="17.3"/>
		</defs>
		<clipPath id="SVGID_2_">
			<use xlink:href="#SVGID_1_"  style="overflow:visible;"/>
		</clipPath>
		<g class="st1">
			<polygon class="st2" points="88.7,135 93.8,135 93.8,133.6 94.9,133.6 94.9,131.9 98.2,131.9 98.2,140.5 89.5,140 89.5,139.8 
				89.2,139.8 89.2,137.3 88.1,137.3 88.1,135.3 88.7,135.3 			"/>
			<g>
				<defs>
					<rect id="SVGID_3_" x="23.3" y="124.1" width="76.8" height="17.3"/>
				</defs>
				<clipPath id="SVGID_4_">
					<use xlink:href="#SVGID_3_"  style="overflow:visible;"/>
				</clipPath>
				<g class="st3">
					<polygon class="st4" points="98.2,125.2 98.2,140.3 24.2,135.7 24.2,125.2 					"/>
				</g>
			</g>
		</g>
	</g>
	<g>
		<defs>
			<rect id="SVGID_5_" x="28.5" y="13.2" width="59" height="71.2"/>
		</defs>
		<clipPath id="SVGID_6_">
			<use xlink:href="#SVGID_5_"  style="overflow:visible;"/>
		</clipPath>
		<g class="st5">
			<polyline class="st6" points="85.9,55.2 75.7,61 32.8,32.8 			"/>
			<polyline class="st6" points="85.9,57.2 75.7,63 32.8,34.7 			"/>
			<polyline class="st6" points="85.9,59.1 75.7,64.9 32.8,36.6 			"/>
			<polyline class="st6" points="85.9,61 75.7,66.8 32.8,38.6 			"/>
			<polyline class="st6" points="85.9,63 75.7,68.7 32.8,40.5 			"/>
			<polyline class="st6" points="85.9,64.9 75.7,70.7 32.8,42.4 			"/>
			<polyline class="st6" points="85.9,66.8 75.7,72.6 32.8,44.4 			"/>
			<polyline class="st6" points="85.9,68.8 75.7,74.5 32.8,46.3 			"/>
			<polyline class="st6" points="85.9,70.7 75.7,76.4 32.8,48.2 			"/>
			<polyline class="st6" points="85.9,72.6 75.7,78.4 32.8,50.2 			"/>
			<polyline class="st6" points="85.9,74.5 75.7,80.3 32.8,52.1 			"/>
			<g class="st7">
				<path class="st8" d="M37.1,60.5c0.5,0.3,0.5,0.7,0.1,1l-0.4-0.3c0.1-0.2,0.1-0.3-0.1-0.5c-0.3-0.2-0.8-0.2-1.2,0.1
					c-0.4,0.2-0.5,0.5-0.2,0.8c0.2,0.2,0.5,0.2,0.8,0.1l0.4,0.3c-0.5,0.2-1.1,0.2-1.6-0.2c-0.5-0.4-0.5-0.9,0.2-1.3
					C35.7,60.1,36.5,60.1,37.1,60.5z"/>
			</g>
			<g class="st7">
				<path class="st8" d="M40,62.5l-1.4,1.8L38.2,64l0.3-0.4L37.7,63L37,63.2l-0.4-0.3l2.9-0.7L40,62.5z M38.3,62.9l0.5,0.3l0.5-0.6
					L38.3,62.9z"/>
			</g>
			<g class="st7">
				<path class="st8" d="M41.5,63.6l1.7,1.2L42.8,65l-0.7-0.5l-1.8,1L40,65.3l1.8-1l-0.7-0.5L41.5,63.6z"/>
				<path class="st8" d="M46.1,66.8L43.9,68l-0.4-0.3l0.9-0.5l-0.9-0.6l-0.9,0.5l-0.4-0.3l2.1-1.2l0.4,0.3l-0.9,0.5l0.9,0.6l0.9-0.5
					L46.1,66.8z"/>
				<path class="st8" d="M48.7,68.6l-0.4,0.2l-1-0.7l-0.5,0.3l0.9,0.6l-0.4,0.2l-0.9-0.6l-0.5,0.3l1,0.7l-0.4,0.2l-1.4-1l2.1-1.2
					L48.7,68.6z"/>
				<path class="st8" d="M48.9,70.4l-0.8,0.5l-0.4-0.3l2.1-1.2l0.8,0.6c0.4,0.3,0.5,0.6,0,0.9c-0.3,0.2-0.7,0.2-1.1,0l-0.3,0.9
					l-0.5-0.3l0.3-0.8L48.9,70.4z M49.2,70.2l0.4,0.3c0.2,0.1,0.4,0.2,0.6,0.1c0.2-0.1,0.2-0.3,0-0.4l-0.4-0.3L49.2,70.2z"/>
				<path class="st8" d="M50.7,72.7l-0.4-0.3l2.1-1.2l0.4,0.3L50.7,72.7z"/>
				<path class="st8" d="M53.6,74.8l-0.3-0.2l0.5-1.5l-1.4,0.8l-0.4-0.3l2.1-1.2l0.4,0.3L54,74l1.4-0.8l0.4,0.3L53.6,74.8z"/>
				<path class="st8" d="M58.4,75.3L58,75.5l-1-0.7l-0.5,0.3l0.9,0.6L57,76l-0.9-0.6l-0.5,0.3l1,0.7l-0.4,0.2l-1.4-1l2.1-1.2
					L58.4,75.3z"/>
				<path class="st8" d="M61,77.1l0.4,0.3l-1.8,1l1,0.7l-0.4,0.2l-1.4-1L61,77.1z"/>
			</g>
			<g class="st7">
				<path class="st8" d="M63,81.3l-0.3-0.2l0.5-1.5l-1.4,0.8l-0.4-0.3l2.1-1.2l0.4,0.3l-0.5,1.4l1.4-0.8l0.4,0.3L63,81.3z"/>
			</g>
			<polyline class="st9" points="85.9,53.3 75.7,59.1 32.8,30.9 			"/>
			<line class="st9" x1="75.7" y1="57.1" x2="75.7" y2="82.2"/>
			<line class="st9" x1="80.9" y1="78.6" x2="80.3" y2="79"/>
			<polyline class="st9" points="80.9,78.6 81.3,78.9 85.9,76.2 85.9,51.4 			"/>
			<polyline class="st9" points="85.9,51.4 75.7,57.1 32.8,28.9 			"/>
			<g>
				<defs>
					<rect id="SVGID_7_" x="28.5" y="13.2" width="58.6" height="71.2"/>
				</defs>
				<clipPath id="SVGID_8_">
					<use xlink:href="#SVGID_7_"  style="overflow:visible;"/>
				</clipPath>
				<g class="st10">
					<path class="st9" d="M80.9,78.6v-0.6c0-0.1,0-0.2-0.1-0.2"/>
					<path class="st9" d="M81.3,78.9v-0.8c0-0.2-0.2-0.4-0.6-0.2c-0.3,0.2-0.5,0.4-0.5,0.8v0.9l-4.6,2.7l-6-4.2l-7.6-5.2l-6.4-4.4
						l-9.5-6.5l-13.5-9.8V28.9l0.9-0.6"/>
				</g>
			</g>
			<line class="st9" x1="77.4" y1="52.4" x2="77.4" y2="51.4"/>
			<line class="st9" x1="38.9" y1="30.7" x2="38.9" y2="32.4"/>
			<line class="st9" x1="77.4" y1="52.4" x2="77.9" y2="52.7"/>
			<line class="st9" x1="77.4" y1="51.4" x2="77.9" y2="51.7"/>
			<line class="st9" x1="39.2" y1="20.4" x2="39.2" y2="19.1"/>
			<line class="st9" x1="39.2" y1="20.5" x2="39.2" y2="19"/>
			<line class="st9" x1="39" y1="29.4" x2="39" y2="26.3"/>
			<polyline class="st9" points="40,31.8 38.9,32.4 33.7,29 33.7,27.3 35.5,26.2 			"/>
			<polyline class="st9" points="39.2,24.5 41.7,23.1 41.7,19.8 41.7,19.8 40.6,19.1 			"/>
			<g>
				<defs>
					<rect id="SVGID_9_" x="28.5" y="13.2" width="58.6" height="71.2"/>
				</defs>
				<clipPath id="SVGID_10_">
					<use xlink:href="#SVGID_9_"  style="overflow:visible;"/>
				</clipPath>
				<g class="st11">
					<path class="st9" d="M38.7,22.1c0.2,0.6,0,1.1-0.4,1.1s-0.9-0.5-1.1-1.1s0-1,0.4-1S38.5,21.5,38.7,22.1z"/>
					<path class="st9" d="M39.7,22.1c-0.2,0.6,0,1.1,0.3,1.1s0.9-0.5,1.1-1.1s0-1-0.4-1S39.9,21.5,39.7,22.1z"/>
				</g>
			</g>
			<line class="st9" x1="39" y1="26.4" x2="43" y2="24"/>
			<line class="st9" x1="35.5" y1="24.1" x2="39" y2="26.4"/>
			<line class="st9" x1="33.7" y1="27.3" x2="38.9" y2="30.7"/>
			<polyline class="st9" points="41.7,22.9 41.9,23 41.9,24.1 41.9,24.1 39.2,25.7 39.2,25.6 39.2,21.3 			"/>
			<polyline class="st9" points="36.5,23.5 35.5,24.1 35.5,27.1 35.5,27.1 38.9,29.4 			"/>
			<polyline class="st9" points="43.1,25.6 45.2,27 45.2,28.1 			"/>
			<line class="st9" x1="39.1" y1="21.4" x2="41.7" y2="19.8"/>
			<line class="st9" x1="36.8" y1="19.8" x2="37.8" y2="19.2"/>
			<line class="st9" x1="36.8" y1="19.8" x2="39.2" y2="21.4"/>
			<polyline class="st9" points="41.9,23.3 43,24 43,24 43,27 43,27 38.9,29.4 			"/>
			<line class="st9" x1="37.8" y1="18.2" x2="39.2" y2="19.1"/>
			<line class="st9" x1="39.9" y1="17.8" x2="40.6" y2="18.2"/>
			<g>
				<defs>
					<rect id="SVGID_11_" x="28.5" y="13.2" width="58.6" height="71.2"/>
				</defs>
				<clipPath id="SVGID_12_">
					<use xlink:href="#SVGID_11_"  style="overflow:visible;"/>
				</clipPath>
				<g class="st12">
					<path class="st9" d="M37.9,16.6c-0.1,0.1-0.1,0.1-0.1,0.2l0.1,0.2c0.1,0.1,0.4,0.2,0.9,0.1s1.6-0.7,1.7-1.3l-0.2-0.3
						c-0.1,0-0.2,0-0.3,0"/>
				</g>
			</g>
			<polyline class="st9" points="38.4,14.5 39.1,14.9 39.3,14.8 39.9,14.1 			"/>
			<g>
				<defs>
					<rect id="SVGID_13_" x="28.5" y="13.2" width="58.6" height="71.2"/>
				</defs>
				<clipPath id="SVGID_14_">
					<use xlink:href="#SVGID_13_"  style="overflow:visible;"/>
				</clipPath>
				<g class="st13">
					<path class="st9" d="M40.3,16.1c0,0.2,0,0.3,0,0.5c-0.1,0.7-0.8,1.1-1.4,0.9c-0.2-0.1-0.5-0.2-0.6-0.4l0,0"/>
					<path class="st9" d="M38,16.9c0-0.1-0.1-0.2-0.1-0.3c-0.1-0.7,0.3-1.3,1-1.4c0.4-0.1,0.8,0.1,1.1,0.4c0.1,0.1,0.2,0.2,0.2,0.3"
						/>
					<path class="st9" d="M40,17.9c0,0,0-0.1,0-0.1c0,0,0-0.1-0.1-0.1c-0.1,0-0.1,0-0.2,0v-0.1l0.1-0.3"/>
					<path class="st9" d="M39.5,17.9c0,0,0,0.1,0,0.1s0.1,0.1,0.2,0"/>
				</g>
			</g>
			<polyline class="st9" points="38.8,18.4 38.8,18.3 39,18 38.9,17.9 38.7,17.9 38.4,17.7 38.5,17.4 			"/>
			<line class="st9" x1="36.8" y1="23" x2="39.2" y2="24.5"/>
			<polyline class="st9" points="39.2,25.8 36.6,24 36.5,24 36.5,23.1 36.5,23.1 36.8,23 36.8,22.9 36.8,19.8 			"/>
			<polyline class="st9" points="38.5,17.7 37.8,18.2 37.8,18.3 37.8,19.6 39.2,20.5 39.2,20.5 40.6,19.7 40.6,18.3 40.6,18.3 
				39.2,19.1 			"/>
			<line class="st9" x1="62.2" y1="43.4" x2="70.7" y2="48.9"/>
			<polyline class="st9" points="81.7,50.5 79.8,51.7 77.9,50.5 			"/>
			<line class="st9" x1="79.8" y1="54.4" x2="79.8" y2="51.7"/>
			<polyline class="st9" points="77.9,51 74,53.3 40,31.6 			"/>
			<line class="st6" x1="85.9" y1="51.4" x2="45.2" y2="27.7"/>
			<line class="st6" x1="71.9" y1="43.7" x2="47.8" y2="29.7"/>
			<line class="st9" x1="74" y1="54.4" x2="74" y2="53.3"/>
			<line class="st9" x1="70.7" y1="50.1" x2="70.7" y2="48.9"/>
			<polygon class="st9" points="75.8,45.9 75.8,47.1 70.7,50.1 62.2,44.6 62.2,43.5 65.9,41.2 71,44.3 72,43.7 			"/>
			<line class="st9" x1="75.8" y1="45.9" x2="70.7" y2="48.9"/>
			<line class="st9" x1="47.8" y1="29.7" x2="44.1" y2="31.8"/>
			<polygon class="st9" points="40.9,31 40.9,29.8 40.9,29.8 44.5,27.7 47.8,29.7 47.8,30.7 47.8,30.7 44.1,33 			"/>
			<polyline class="st9" points="77.4,52.4 74,54.4 40,32.7 40,32.7 40,31.6 40.9,31 			"/>
			<line class="st9" x1="44.1" y1="31.8" x2="40.9" y2="29.8"/>
			<line class="st9" x1="44.1" y1="32.9" x2="44.1" y2="31.8"/>
			<polyline class="st9" points="81,50.1 81.3,49.9 81.3,49.1 75.8,46 			"/>
			<line class="st9" x1="81.3" y1="49.1" x2="80.8" y2="49.4"/>
			<line class="st9" x1="45.2" y1="27" x2="38.9" y2="30.7"/>
			<polyline class="st9" points="79,49.9 77.9,50.5 77.9,53.2 79.8,54.4 81.7,53.3 81.7,50.5 80.9,50 			"/>
			<g>
				<defs>
					<rect id="SVGID_15_" x="28.5" y="13.2" width="58.6" height="71.2"/>
				</defs>
				<clipPath id="SVGID_16_">
					<use xlink:href="#SVGID_15_"  style="overflow:visible;"/>
				</clipPath>
				<g class="st14">
					<path class="st9" d="M79.8,48.8c-0.5,0.1-0.8,0.5-0.8,1v0.7c0,0.3,0.4,0.5,1,0.5s1-0.2,1-0.5v-0.7c0-0.5-0.3-0.9-0.8-1v-0.1
						c0,0-0.1-0.1-0.2-0.1s-0.2,0.1-0.2,0.1L79.8,48.8z"/>
				</g>
			</g>
			<polygon class="st2" points="75.7,76.4 70.1,72.7 70.1,70.8 75.7,74.6 			"/>
			<polygon class="st2" points="82.2,72.8 75.8,76.4 75.8,74.5 82.2,70.8 			"/>
			<polygon class="st2" points="75.7,72.6 70.1,68.8 70.1,67 75.7,70.7 			"/>
			<polygon class="st2" points="82.2,68.9 75.8,72.5 75.8,70.7 82.2,67 			"/>
		</g>
	</g>
</g>
</svg>
