<svg xmlns="http://www.w3.org/2000/svg" xmlns:xlink="http://www.w3.org/1999/xlink" width="187.777" height="187.161" viewBox="0 0 187.777 187.161"><defs><path id="a" d="M-47.611 -375.839H1176.389V416.161H-47.611z"/></defs><defs><path id="b" d="M-47.611 -375.839H1176.389V416.161H-47.611z"/></defs><defs><path id="c" d="M-47.611 -375.839H1176.389V416.161H-47.611z"/></defs><defs><path id="d" d="M-47.611 -375.839H1176.389V416.161H-47.611z"/></defs><defs><path id="e" d="M-47.611 -375.839H1176.389V416.161H-47.611z"/></defs><defs><path id="f" d="M-47.611 -375.839H1176.389V416.161H-47.611z"/></defs><defs><path id="g" d="M-47.611 -375.839H1176.389V416.161H-47.611z"/></defs><clipPath id="h"><use xlink:href="#g" overflow="visible"/></clipPath><g clip-path="url(#h)"><text transform="rotate(90 -50.999 79.038)"><tspan x="0" y="0" fill="#D1D3D4" font-family="'Calibre-Semibold'" font-size="7" letter-spacing="1">BR</tspan><tspan x="10.892" y="0" fill="#D1D3D4" font-family="'Calibre-Semibold'" font-size="7" letter-spacing="1">O</tspan><tspan x="16.709" y="0" fill="#D1D3D4" font-family="'Calibre-Semibold'" font-size="7" letter-spacing="1">A</tspan><tspan x="22.631" y="0" fill="#D1D3D4" font-family="'Calibre-Semibold'" font-size="7" letter-spacing="1">D</tspan><tspan x="28.364" y="0" fill="#D1D3D4" font-family="'Calibre-Semibold'" font-size="7" letter-spacing="1">W</tspan><tspan x="35.202" y="0" fill="#D1D3D4" font-family="'Calibre-Semibold'" font-size="7" letter-spacing="1">A</tspan><tspan x="40.635" y="0" fill="#D1D3D4" font-family="'Calibre-Semibold'" font-size="7">Y</tspan></text></g><g clip-path="url(#h)"><text transform="rotate(90 18.16 140.303)"><tspan x="0" y="0" fill="#D1D3D4" font-family="'Calibre-Semibold'" font-size="7" letter-spacing="1">L</tspan><tspan x="5.096" y="0" fill="#D1D3D4" font-family="'Calibre-Semibold'" font-size="7" letter-spacing="1">A</tspan><tspan x="11.025" y="0" fill="#D1D3D4" font-family="'Calibre-Semibold'" font-size="7" letter-spacing="1">F</tspan><tspan x="15.799" y="0" fill="#D1D3D4" font-family="'Calibre-Semibold'" font-size="7" letter-spacing="1">A</tspan><tspan x="21.238" y="0" fill="#D1D3D4" font-family="'Calibre-Semibold'" font-size="7" letter-spacing="1">YETTE </tspan><tspan x="51.387" y="0" fill="#D1D3D4" font-family="'Calibre-Semibold'" font-size="7" letter-spacing="1">S</tspan><tspan x="56.566" y="0" fill="#D1D3D4" font-family="'Calibre-Semibold'" font-size="7">T</tspan></text></g><g clip-path="url(#h)"><text transform="translate(70.307 127.14)"><tspan x="0" y="0" fill="#D1D3D4" font-family="'Calibre-Semibold'" font-size="7" letter-spacing="1">LE</tspan><tspan x="9.961" y="0" fill="#D1D3D4" font-family="'Calibre-Semibold'" font-size="7" letter-spacing="1">O</tspan><tspan x="15.834" y="0" fill="#D1D3D4" font-family="'Calibre-Semibold'" font-size="7" letter-spacing="1">N</tspan><tspan x="21.658" y="0" fill="#D1D3D4" font-family="'Calibre-Semibold'" font-size="7" letter-spacing="1">A</tspan><tspan x="27.44" y="0" fill="#D1D3D4" font-family="'Calibre-Semibold'" font-size="7" letter-spacing="1">RD </tspan><tspan x="41.328" y="0" fill="#D1D3D4" font-family="'Calibre-Semibold'" font-size="7" letter-spacing="1">S</tspan><tspan x="46.368" y="0" fill="#D1D3D4" font-family="'Calibre-Semibold'" font-size="7">T</tspan></text></g><g clip-path="url(#h)"><text transform="translate(65.365 180.844)"><tspan x="0" y="0" fill="#D1D3D4" font-family="'Calibre-Semibold'" font-size="7" letter-spacing="1">C</tspan><tspan x="5.593" y="0" fill="#D1D3D4" font-family="'Calibre-Semibold'" font-size="7" letter-spacing="1">A</tspan><tspan x="11.074" y="0" fill="#D1D3D4" font-family="'Calibre-Semibold'" font-size="7" letter-spacing="1">T</tspan><tspan x="16.639" y="0" fill="#D1D3D4" font-family="'Calibre-Semibold'" font-size="7" letter-spacing="1">H</tspan><tspan x="22.736" y="0" fill="#D1D3D4" font-family="'Calibre-Semibold'" font-size="7" letter-spacing="1">ER</tspan><tspan x="33.369" y="0" fill="#D1D3D4" font-family="'Calibre-Semibold'" font-size="7" letter-spacing="1">I</tspan><tspan x="36.617" y="0" fill="#D1D3D4" font-family="'Calibre-Semibold'" font-size="7" letter-spacing="1">NE L</tspan><tspan x="55.845" y="0" fill="#D1D3D4" font-family="'Calibre-Semibold'" font-size="7">N</tspan></text></g><path clip-path="url(#h)" d="M40.915 151.866L47.373 151.866 47.373 152.116 50.061 152.116 50.061 152.335 51.467 152.335 51.467 152.101 52.904 152.101 52.904 152.71 53.17 152.71 53.17 155.022 54.936 155.022 54.936 154.883 57.561 155.022 57.561 155.866 57.826 155.866 57.826 158.804 40.915 157.663z"/><defs><path id="i" d="M39.545 140.867H151.559V166.144H39.545z"/></defs><clipPath id="j"><use xlink:href="#i" overflow="visible"/></clipPath><path clip-path="url(#j)" fill="none" stroke="#D0D2D3" stroke-width="1.092" stroke-miterlimit="10" d="M148.875 142.543L148.875 164.467 40.896 157.749 40.946 142.543z"/><defs><path id="k" d="M-47.611 -375.839H1176.389V416.161H-47.611z"/></defs><clipPath id="l"><use xlink:href="#k" overflow="visible"/></clipPath><path clip-path="url(#l)" d="M79.3 59.555L79.3 86.331 84.219 83.445 84.205 56.736z"/><path clip-path="url(#l)" fill="none" stroke="#D1D3D4" stroke-width=".154" stroke-miterlimit="10" d="M73.387 98.657L35.144 76.503"/><path clip-path="url(#l)" fill="none" stroke="#D1D3D4" stroke-width=".154" stroke-miterlimit="10" d="M84.219 62.597L73.407 68.898 1.862 27.452"/><path clip-path="url(#l)" fill="none" stroke="#D1D3D4" stroke-width=".154" stroke-miterlimit="10" d="M84.219 65.574L73.407 71.878 1.862 30.431"/><path clip-path="url(#l)" fill="none" stroke="#D1D3D4" stroke-width=".154" stroke-miterlimit="10" d="M84.219 68.553L73.407 74.856 1.862 33.408"/><path clip-path="url(#l)" fill="none" stroke="#D1D3D4" stroke-width=".154" stroke-miterlimit="10" d="M84.219 71.531L73.407 77.834 1.862 36.387"/><path clip-path="url(#l)" fill="none" stroke="#D1D3D4" stroke-width=".154" stroke-miterlimit="10" d="M84.219 74.51L73.407 80.812 1.862 39.365"/><path clip-path="url(#l)" fill="none" stroke="#D1D3D4" stroke-width=".154" stroke-miterlimit="10" d="M84.219 77.488L73.407 83.791 1.862 42.344"/><path clip-path="url(#l)" fill="none" stroke="#D1D3D4" stroke-width=".154" stroke-miterlimit="10" d="M84.219 80.467L73.407 86.77 1.862 45.321"/><path clip-path="url(#l)" fill="none" stroke="#D1D3D4" stroke-width=".154" stroke-miterlimit="10" d="M84.219 83.445L73.407 89.747 1.862 48.3"/><path clip-path="url(#l)" fill="none" stroke="#D1D3D4" stroke-width=".154" stroke-miterlimit="10" d="M84.219 86.423L81.675 87.907"/><path clip-path="url(#l)" fill="none" stroke="#D1D3D4" stroke-width=".154" stroke-miterlimit="10" d="M75.933 91.253L73.407 92.726 1.862 51.279"/><path clip-path="url(#l)" fill="none" stroke="#D1D3D4" stroke-width=".154" stroke-miterlimit="10" d="M81.675 90.884L84.219 89.401"/><path clip-path="url(#l)" fill="none" stroke="#D1D3D4" stroke-width=".154" stroke-miterlimit="10" d="M75.933 94.231L73.407 95.704 1.862 54.257"/><path clip-path="url(#l)" fill="none" stroke="#D1D3D4" stroke-width=".154" stroke-miterlimit="10" d="M84.219 59.618L73.407 65.921 1.862 24.474"/><g clip-path="url(#l)"><text transform="matrix(.8479 .5302 -.8381 .5455 4.602 72.481)"><tspan x="0" y="0" fill="#D1D3D4" font-family="'Calibre-Semibold'" font-size="6.297" letter-spacing="1">LE</tspan><tspan x="9.464" y="-.001" fill="#D1D3D4" font-family="'Calibre-Semibold'" font-size="6.297" letter-spacing="1">O</tspan><tspan x="15" y="-.001" fill="#D1D3D4" font-family="'Calibre-Semibold'" font-size="6.297" letter-spacing="1">N</tspan><tspan x="20.49" y="0" fill="#D1D3D4" font-family="'Calibre-Semibold'" font-size="6.297" letter-spacing="1">A</tspan><tspan x="25.944" y="0" fill="#D1D3D4" font-family="'Calibre-Semibold'" font-size="6.297" letter-spacing="1">R</tspan><tspan x="31" y="0" fill="#D1D3D4" font-family="'Calibre-Semibold'" font-size="6.297" letter-spacing="1">D</tspan><tspan x="36.34" y="-.001" fill="#D1D3D4" font-family="'Calibre-Semibold'" font-size="6.297" letter-spacing="1"> </tspan><tspan x="39.185" y="0" fill="#D1D3D4" font-family="'Calibre-Semibold'" font-size="6.297" letter-spacing="1">S</tspan><tspan x="43.971" y="-.001" fill="#D1D3D4" font-family="'Calibre-Semibold'" font-size="6.297">T</tspan></text></g><path clip-path="url(#l)" fill="none" stroke="#000" stroke-width=".154" stroke-miterlimit="10" d="M73.405 57.17L73.405 52.46"/><path clip-path="url(#l)" fill="none" stroke="#000" stroke-width=".154" stroke-miterlimit="10" d="M10.506 19.45L10.506 15.554"/><path clip-path="url(#l)" fill="none" stroke="#000" stroke-width=".154" stroke-miterlimit="10" d="M23.583 24.509L23.583 26.68"/><path clip-path="url(#l)" fill="none" stroke="#000" stroke-width=".154" stroke-miterlimit="10" d="M17.81 21.223L17.81 23.394"/><path clip-path="url(#l)" fill="none" stroke="#000" stroke-width=".154" stroke-miterlimit="10" d="M25.14 23.653L25.14 25.825"/><path clip-path="url(#l)" fill="none" stroke="#000" stroke-width=".145" stroke-miterlimit="10" d="M25.15 25.792L23.565 26.72"/><path clip-path="url(#l)" fill="none" stroke="#000" stroke-width=".145" stroke-miterlimit="10" d="M25.071 23.734L23.603 24.594"/><path clip-path="url(#l)" fill="none" stroke="#000" stroke-width=".145" stroke-miterlimit="10" d="M64.833 42.408L58.499 46.115"/><path clip-path="url(#l)" fill="none" stroke="#000" stroke-width=".145" stroke-miterlimit="10" d="M69.686 46.273L64.258 49.45"/><path clip-path="url(#l)" fill="none" stroke="#000" stroke-width=".154" stroke-miterlimit="10" d="M32.753 28.042L32.753 30.213"/><path clip-path="url(#l)" fill="none" stroke="#000" stroke-width=".145" stroke-miterlimit="10" d="M38.056 26.273L63.68 43.103"/><path clip-path="url(#l)" fill="none" stroke="#000" stroke-width=".145" stroke-miterlimit="10" d="M64.802 42.4L69.686 45.608"/><path clip-path="url(#l)" fill="none" stroke="#000" stroke-width=".145" stroke-miterlimit="10" d="M38.056 25.605L64.177 42.762"/><path clip-path="url(#l)" fill="none" stroke="#000" stroke-width=".145" stroke-miterlimit="10" d="M7.423 18.176L10.081 19.716"/><path clip-path="url(#l)" fill="none" stroke="#000" stroke-width=".145" stroke-miterlimit="10" d="M17.81 21.223L23.583 24.571"/><path clip-path="url(#l)" fill="none" stroke="#000" stroke-width=".145" stroke-miterlimit="10" d="M25.158 23.734L32.83 28.179"/><path clip-path="url(#l)" fill="none" stroke="#000" stroke-width=".145" stroke-miterlimit="10" d="M25.115 25.793L32.753 30.218"/><path clip-path="url(#l)" fill="none" stroke="#000" stroke-width=".145" stroke-miterlimit="10" d="M58.526 46.125L64.268 49.451"/><path clip-path="url(#l)" fill="none" stroke="#000" stroke-width=".154" stroke-miterlimit="10" d="M73.375 43.58L73.375 41.267"/><path clip-path="url(#l)" fill="none" stroke="#000" stroke-width=".154" stroke-miterlimit="10" d="M63.734 53.837L62.818 53.287 61.666 53.961 12.077 25.233 12.077 22.801"/><path clip-path="url(#l)" fill="none" stroke="#000" stroke-width=".154" stroke-miterlimit="10" d="M24.511 17.377L19.594 14.148 8.417 20.69 61.665 51.525"/><path clip-path="url(#l)" fill="none" stroke="#000" stroke-width=".154" stroke-miterlimit="10" d="M61.665 51.524L61.665 53.957"/><path clip-path="url(#l)" fill="none" stroke="#000" stroke-width=".154" stroke-miterlimit="10" d="M62.823 50.833L61.665 51.51"/><path clip-path="url(#l)" fill="none" stroke="#000" stroke-width=".154" stroke-miterlimit="10" d="M62.823 53.287L62.823 50.834 58.526 48.344"/><path clip-path="url(#l)" fill="none" stroke="#000" stroke-width=".154" stroke-miterlimit="10" d="M73.456 61.636L73.456 58.962"/><path clip-path="url(#l)" fill="none" stroke="#000" stroke-width=".154" stroke-miterlimit="10" d="M79.303 51.501L82.552 53.634 82.552 56.321 73.455 61.646 63.734 56.014 63.734 53.334 67.643 51.047"/><path clip-path="url(#l)" fill="none" stroke="#000" stroke-width=".154" stroke-miterlimit="10" d="M82.552 53.635L73.454 58.961 63.733 53.335"/><path clip-path="url(#l)" fill="none" stroke="#000" stroke-width=".145" stroke-miterlimit="10" d="M9.392 21.237L9.392 22.549 12.078 24.119"/><path clip-path="url(#l)" fill="none" stroke="#000" stroke-width=".145" stroke-miterlimit="10" d="M17.81 23.391L23.583 26.735"/><path clip-path="url(#l)" fill="none" stroke="#000" stroke-width=".141" stroke-miterlimit="10" d="M58.501 48.334L58.501 46.123"/><path clip-path="url(#l)" fill="none" stroke="#000" stroke-width=".141" stroke-miterlimit="10" d="M64.267 52.981L64.267 49.458"/><path clip-path="url(#l)" fill="none" stroke="#000" stroke-width=".145" stroke-miterlimit="10" d="M77.185 42.445L73.411 44.654 69.686 42.492"/><path clip-path="url(#l)" fill="none" stroke="#000" stroke-width=".154" stroke-miterlimit="10" d="M77.185 47.248L77.541 47.455 77.541 49.103 73.419 51.513 69.266 49.106 69.266 47.584 69.686 47.338"/><path clip-path="url(#l)" fill="none" stroke="#000" stroke-width=".154" stroke-miterlimit="10" d="M73.414 51.507L73.414 44.655"/><path clip-path="url(#l)" fill="none" stroke="#000" stroke-width=".154" stroke-miterlimit="10" d="M77.542 47.971L79.303 48.991 79.303 53.731 73.405 57.178 67.642 53.839 67.642 49.088 69.266 48.138"/><path clip-path="url(#l)" fill="none" stroke="#000" stroke-width=".154" stroke-miterlimit="10" d="M79.303 48.991L73.406 52.461 67.687 49.147"/><path clip-path="url(#l)" fill="none" stroke="#000" stroke-width=".154" stroke-miterlimit="10" d="M7.423 18.149L1.782 21.451 1.782 61.038"/><path clip-path="url(#l)" fill="none" stroke="#000" stroke-width=".154" stroke-miterlimit="10" d="M13.665 14.496L17.617 12.183 25.051 17.064"/><path clip-path="url(#l)" fill="none" stroke="#000" stroke-width=".154" stroke-miterlimit="10" d="M73.406 62.944L73.367 98.682"/><path clip-path="url(#l)" fill="none" stroke="#D1D3D4" stroke-width=".154" stroke-miterlimit="10" d="M32.123 74.752L1.849 57.213"/><path clip-path="url(#l)" fill="none" stroke="#000" stroke-width=".145" stroke-miterlimit="10" d="M9.055 12.813L7.422 13.768 7.422 18.176"/><path clip-path="url(#l)" fill="none" stroke="#000" stroke-width=".145" stroke-miterlimit="10" d="M12.146 12.825L13.664 13.705 13.664 17.58"/><path clip-path="url(#l)" fill="none" stroke="#000" stroke-width=".145" stroke-miterlimit="10" d="M7.423 13.767L10.506 15.553 13.665 13.704"/><path clip-path="url(#l)" fill="none" stroke="#000" stroke-width=".154" stroke-miterlimit="10" d="M74.686 39.496L75.493 40.026 75.493 42.343 73.375 43.581 71.237 42.342 71.237 40.027 72.339 39.382"/><path clip-path="url(#l)" fill="none" stroke="#000" stroke-width=".145" stroke-miterlimit="10" d="M75.496 40.028L73.375 41.268 71.235 40.028"/><g><defs><path id="m" d="M0 0H90.629V100.896H0z"/></defs><clipPath id="n"><use xlink:href="#m" overflow="visible"/></clipPath><path clip-path="url(#n)" fill="none" stroke="#000" stroke-width=".154" stroke-miterlimit="10" d="M71.406 37.534c-.045.091-.203.264-.218.334l.129.342c.13.174.606.335 1.399.108.794-.226 2.457-1.106 2.609-1.999l-.266-.5s-.247-.079-.517-.01"/></g><g><defs><path id="o" d="M-47.611 -375.839H1176.389V416.161H-47.611z"/></defs><clipPath id="p"><use xlink:href="#o" overflow="visible"/></clipPath><path clip-path="url(#p)" fill="none" stroke="#000" stroke-width=".154" stroke-miterlimit="10" d="M72.151 34.271L73.28 34.817 73.627 34.672 74.408 33.576"/></g><g><defs><path id="q" d="M0 0H90.629V100.896H0z"/></defs><clipPath id="r"><use xlink:href="#q" overflow="visible"/></clipPath><path clip-path="url(#r)" fill="none" stroke="#000" stroke-width=".154" stroke-miterlimit="10" d="M75.128 36.771a1.884 1.884 0 0 1-3.207 1.711l-.077-.06m-.293-.485a1.883 1.883 0 0 1 1.448-2.608 1.815 1.815 0 0 1 1.65.565c.222.25.302.446.302.446m-2.373 9.712c.315.904.068 1.638-.552 1.64s-1.377-.73-1.692-1.633c-.315-.904-.068-1.639.552-1.64.619-.002 1.377.729 1.692 1.633zm1.612.03c-.315.904-.068 1.638.552 1.64.62.002 1.377-.73 1.692-1.634.314-.903.068-1.637-.552-1.639s-1.377.73-1.692 1.633z"/><path clip-path="url(#r)" fill="none" stroke="#000" stroke-width=".145" stroke-linejoin="bevel" stroke-miterlimit="10" d="M74.682 39.6s.005-.164-.01-.203a.136.136 0 0 0-.103-.091c-.064-.017-.331.062-.331.062s-.003-.045-.003-.104v-.048l.1-.43"/><path clip-path="url(#r)" fill="none" stroke="#000" stroke-width=".145" stroke-miterlimit="10" d="M73.789 39.58c-.021.079.06.163.076.218.024.078.205.135.363.019"/></g><g><defs><path id="s" d="M-47.611 -375.839H1176.389V416.161H-47.611z"/></defs><clipPath id="t"><use xlink:href="#s" overflow="visible"/></clipPath><path clip-path="url(#t)" fill="none" stroke="#000" stroke-width=".145" stroke-miterlimit="10" d="M72.782 40.308L72.782 40.133 73.025 39.725 72.983 39.58 72.533 39.506 72.131 39.26 72.294 38.786"/><path clip-path="url(#t)" fill="none" stroke="#000" stroke-width=".154" stroke-miterlimit="10" d="M71.237 41.585L69.686 42.493 69.686 47.549 73.418 49.711 77.186 47.511 77.186 42.446 75.5 41.469"/></g><g><defs><path id="u" d="M0 0H90.629V100.896H0z"/></defs><clipPath id="v"><use xlink:href="#u" overflow="visible"/></clipPath><path clip-path="url(#v)" fill="none" stroke="#000" stroke-width=".145" stroke-miterlimit="10" d="M10.344 11.11c-.731.127-1.288.791-1.288 1.59v1.122c0 .438.691.793 1.545.793s1.545-.355 1.545-.793V12.7c0-.798-.557-1.462-1.288-1.59v-.17c0-.079-.098-.172-.258-.172-.157 0-.256.093-.256.172v.17z"/></g><g><defs><path id="w" d="M-47.611 -375.839H1176.389V416.161H-47.611z"/></defs><clipPath id="x"><use xlink:href="#w" overflow="visible"/></clipPath><path clip-path="url(#x)" fill="none" stroke="#000" stroke-width=".154" stroke-miterlimit="10" d="M84.219 56.64L73.407 62.942 1.862 21.495"/><path clip-path="url(#x)" fill="none" stroke="#000" stroke-width=".154" stroke-miterlimit="10" d="M35.143 77.049L33.055 75.842 31.171 76.94 33.779 78.448 35.143 77.654"/><path clip-path="url(#x)" fill="none" stroke="#000" stroke-width=".154" stroke-miterlimit="10" d="M35.143 77.049L33.055 75.842"/><path clip-path="url(#x)" fill="none" stroke="#000" stroke-width=".154" stroke-miterlimit="10" d="M35.144 78.791L34.164 78.225"/></g><g><defs><path id="y" d="M0 0H90.629V100.896H0z"/></defs><clipPath id="z"><use xlink:href="#y" overflow="visible"/></clipPath><path clip-path="url(#z)" fill="none" stroke="#000" stroke-width=".154" stroke-miterlimit="10" d="M33.479 73.469c-.285.243-.419.652-.419.862v1.541"/></g><g><defs><path id="A" d="M-47.611 -375.839H1176.389V416.161H-47.611z"/></defs><clipPath id="B"><use xlink:href="#A" overflow="visible"/></clipPath><path clip-path="url(#B)" fill="none" stroke="#000" stroke-width=".154" stroke-miterlimit="10" d="M32.649 77.795L32.117 78.104 1.783 61.016"/><path clip-path="url(#B)" fill="none" stroke="#000" stroke-width=".154" stroke-miterlimit="10" d="M32.121 78.104L32.121 77.489"/></g><g><defs><path id="C" d="M0 0H90.629V100.896H0z"/></defs><clipPath id="D"><use xlink:href="#C" overflow="visible"/></clipPath><path clip-path="url(#D)" fill="none" stroke="#000" stroke-width=".154" stroke-miterlimit="10" d="M81.675 93.829v-5.765l-5.742 3.188v5.934l-2.568 1.497-19.247-9.11-15.437-7.77-3.538-1.993v-4.051c0-.263-.245-1.495-1.51-2.227-1.067-.62-1.513.485-1.513.874v1.981"/></g><g><defs><path id="E" d="M-47.611 -375.839H1176.389V416.161H-47.611z"/></defs><clipPath id="F"><use xlink:href="#E" overflow="visible"/></clipPath><path clip-path="url(#F)" fill="none" stroke="#000" stroke-width=".154" stroke-miterlimit="10" d="M77.612 94.24L77.612 92.743 76.678 93.284 76.678 94.781"/></g><g><defs><path id="G" d="M0 0H90.629V100.896H0z"/></defs><clipPath id="H"><use xlink:href="#G" overflow="visible"/></clipPath><path clip-path="url(#H)" fill="none" stroke="#000" stroke-width=".154" stroke-miterlimit="10" d="M82.552 55.576l1.654 1.085v35.703l-2.53 1.466c-.087-.032-2.168-.641-3.842.284l-1.321.767a1.995 1.995 0 0 0-.58.429"/></g><g><defs><path id="I" d="M-47.611 -375.839H1176.389V416.161H-47.611z"/></defs><clipPath id="J"><use xlink:href="#I" overflow="visible"/></clipPath><path clip-path="url(#J)" fill="none" stroke="#000" stroke-width=".145" stroke-miterlimit="10" d="M32.753 30.213L38.057 27.054 38.057 25.009 25.558 16.771 17.812 21.249"/><path clip-path="url(#J)" fill="none" stroke="#000" stroke-width=".145" stroke-miterlimit="10" d="M38.056 25L32.767 28.118"/></g><g><defs><path id="K" d="M0 0H90.629V100.896H0z"/></defs></g><g><defs><path id="L" d="M-47.611 -375.839H1176.389V416.161H-47.611z"/></defs><clipPath id="M"><use xlink:href="#L" overflow="visible"/></clipPath><path clip-path="url(#M)" d="M111.574 21.15L111.574 48.072 121.721 54.755 121.682 27.771z"/></g><g><defs><path id="N" d="M105.029 -3.6H187.777V100.89500000000001H105.029z"/></defs></g><g><defs><path id="O" d="M-47.611 -375.839H1176.389V416.161H-47.611z"/></defs><clipPath id="P"><use xlink:href="#O" overflow="visible"/></clipPath><path clip-path="url(#P)" fill="none" stroke="#D1D3D4" stroke-width=".145" stroke-miterlimit="10" d="M186.041 56.651L172.526 64.286 111.574 24.142"/><path clip-path="url(#P)" fill="none" stroke="#D1D3D4" stroke-width=".145" stroke-miterlimit="10" d="M186.041 59.643L172.526 67.278 111.574 27.133"/><path clip-path="url(#P)" fill="none" stroke="#D1D3D4" stroke-width=".145" stroke-miterlimit="10" d="M186.041 62.634L172.526 70.269 111.574 30.124"/><path clip-path="url(#P)" fill="none" stroke="#D1D3D4" stroke-width=".145" stroke-miterlimit="10" d="M186.041 65.626L172.526 73.26 111.574 33.114"/><path clip-path="url(#P)" fill="none" stroke="#D1D3D4" stroke-width=".145" stroke-miterlimit="10" d="M186.041 68.617L172.526 76.251 111.574 36.106"/><path clip-path="url(#P)" fill="none" stroke="#D1D3D4" stroke-width=".145" stroke-miterlimit="10" d="M186.041 71.608L172.526 79.242 111.574 39.098"/><path clip-path="url(#P)" fill="none" stroke="#D1D3D4" stroke-width=".145" stroke-miterlimit="10" d="M186.041 74.6L172.526 82.234 111.574 42.089"/><path clip-path="url(#P)" fill="none" stroke="#D1D3D4" stroke-width=".145" stroke-miterlimit="10" d="M186.041 77.591L172.526 85.226 111.574 45.08"/><path clip-path="url(#P)" fill="none" stroke="#D1D3D4" stroke-width=".145" stroke-miterlimit="10" d="M186.041 80.582L172.526 88.217 111.574 48.072"/><path clip-path="url(#P)" fill="none" stroke="#D1D3D4" stroke-width=".145" stroke-miterlimit="10" d="M186.041 83.573L172.526 91.207 111.574 51.063"/><path clip-path="url(#P)" fill="none" stroke="#D1D3D4" stroke-width=".145" stroke-miterlimit="10" d="M186.041 86.564L172.526 94.198 111.574 54.055"/><path clip-path="url(#P)" fill="none" stroke="#000" stroke-width=".145" stroke-miterlimit="10" d="M123.13 26.838L123.13 25.227"/><path clip-path="url(#P)" fill="none" stroke="#000" stroke-width=".145" stroke-miterlimit="10" d="M129.061 27.614L129.061 25.806"/><path clip-path="url(#P)" fill="none" stroke="#000" stroke-width=".145" stroke-miterlimit="10" d="M124.198 24.566L124.198 22.759"/><path clip-path="url(#P)" fill="none" stroke="#000" stroke-width=".145" stroke-miterlimit="10" d="M134.77 24.307L134.77 22.499"/><path clip-path="url(#P)" fill="none" stroke="#000" stroke-width=".145" stroke-miterlimit="10" d="M174.161 54.074L174.161 52.495"/><path clip-path="url(#P)" fill="none" stroke="#000" stroke-width=".145" stroke-miterlimit="10" d="M152.236 42.315L152.236 40.737"/><path clip-path="url(#P)" fill="none" stroke="#000" stroke-width=".145" stroke-miterlimit="10" d="M121.115 23.951L121.115 26.631"/><path clip-path="url(#P)" fill="none" stroke="#000" stroke-width=".145" stroke-miterlimit="10" d="M130.804 18.196L130.804 20.042"/><path clip-path="url(#P)" fill="none" stroke="#000" stroke-width=".145" stroke-miterlimit="10" d="M174.161 54.074L175.015 54.617"/><path clip-path="url(#P)" fill="none" stroke="#000" stroke-width=".145" stroke-miterlimit="10" d="M127.486 18.257L127.486 13.47"/><path clip-path="url(#P)" fill="none" stroke="#000" stroke-width=".145" stroke-miterlimit="10" d="M117.869 12.151L117.869 7.009"/><path clip-path="url(#P)" fill="none" stroke="#000" stroke-width=".145" stroke-miterlimit="10" d="M121.57 8.026L121.57 5.76"/><path clip-path="url(#P)" fill="none" stroke="#000" stroke-width=".145" stroke-miterlimit="10" d="M121.548 16.073L121.548 9.29"/><path clip-path="url(#P)" fill="none" stroke="#000" stroke-width=".145" stroke-miterlimit="10" d="M125.368 12.104L125.368 7.097"/><path clip-path="url(#P)" fill="none" stroke="#000" stroke-width=".145" stroke-miterlimit="10" d="M121.57 8.143L121.57 5.874"/><path clip-path="url(#P)" fill="none" stroke="#000" stroke-width=".145" stroke-miterlimit="10" d="M125.724 13.665L125.724 12.062"/><path clip-path="url(#P)" fill="none" stroke="#000" stroke-width=".145" stroke-miterlimit="10" d="M117.437 13.885L117.437 12.283"/><path clip-path="url(#P)" fill="none" stroke="#000" stroke-width=".145" stroke-miterlimit="10" d="M121.215 21.911L121.215 17.155"/><path clip-path="url(#P)" fill="none" stroke="#000" stroke-width=".145" stroke-miterlimit="10" d="M115.825 18.303L115.825 13.665"/><path clip-path="url(#P)" fill="none" stroke="#000" stroke-width=".145" stroke-miterlimit="10" d="M123.332 25.321L121.115 26.63 113.015 21.298 113.015 18.634 115.823 16.991"/><path clip-path="url(#P)" fill="none" stroke="#000" stroke-width=".145" stroke-miterlimit="10" d="M123.103 25.271L124.214 24.617"/><path clip-path="url(#P)" fill="none" stroke="#000" stroke-width=".145" stroke-miterlimit="10" d="M121.148 21.884L115.827 18.379"/><path clip-path="url(#P)" fill="none" stroke="#000" stroke-width=".145" stroke-miterlimit="10" d="M121.562 14.32L125.636 11.924"/><path clip-path="url(#P)" fill="none" stroke="#000" stroke-width=".145" stroke-miterlimit="10" d="M121.236 16.397L125.636 13.809"/></g><g><defs><path id="Q" d="M105.029 -3.6H187.777V100.89500000000001H105.029z"/></defs><clipPath id="R"><use xlink:href="#Q" overflow="visible"/></clipPath><path clip-path="url(#R)" fill="none" stroke="#000" stroke-width=".145" stroke-miterlimit="10" d="M120.76 10.614c.315.904.068 1.638-.552 1.639-.619.002-1.376-.73-1.692-1.633-.314-.904-.067-1.637.552-1.639.62-.002 1.377.728 1.692 1.633zm1.613.03c-.315.904-.067 1.637.552 1.639s1.377-.73 1.692-1.633c.314-.904.068-1.638-.552-1.639-.62-.002-1.377.729-1.692 1.633z"/></g><g><defs><path id="S" d="M-47.611 -375.839H1176.389V416.161H-47.611z"/></defs><clipPath id="T"><use xlink:href="#S" overflow="visible"/></clipPath><path clip-path="url(#T)" fill="none" stroke="#000" stroke-width=".145" stroke-miterlimit="10" d="M121.215 17.198L127.532 13.485"/><path clip-path="url(#T)" fill="none" stroke="#000" stroke-width=".145" stroke-miterlimit="10" d="M121.115 21.946L127.392 18.257"/><path clip-path="url(#T)" fill="none" stroke="#000" stroke-width=".145" stroke-miterlimit="10" d="M117.228 12.282L117.838 11.925"/><path clip-path="url(#T)" fill="none" stroke="#000" stroke-width=".145" stroke-miterlimit="10" d="M115.824 13.646L121.148 17.153"/><path clip-path="url(#T)" fill="none" stroke="#000" stroke-width=".145" stroke-miterlimit="10" d="M113.015 18.617L121.114 23.951"/><path clip-path="url(#T)" fill="none" stroke="#000" stroke-width=".145" stroke-miterlimit="10" d="M125.445 11.862L125.724 12.062"/><path clip-path="url(#T)" fill="none" stroke="#000" stroke-width=".145" stroke-miterlimit="10" d="M117.437 12.704L115.825 13.665"/><path clip-path="url(#T)" fill="none" stroke="#000" stroke-width=".145" stroke-miterlimit="10" d="M113.015 20.232L111.573 21.093"/><path clip-path="url(#T)" fill="none" stroke="#000" stroke-width=".145" stroke-miterlimit="10" d="M127.549 16.055L130.804 18.196"/><path clip-path="url(#T)" fill="none" stroke="#000" stroke-width=".145" stroke-miterlimit="10" d="M121.439 9.474L125.383 7.111"/><path clip-path="url(#T)" fill="none" stroke="#000" stroke-width=".145" stroke-miterlimit="10" d="M117.869 7.059L119.421 6.147"/><path clip-path="url(#T)" fill="none" stroke="#000" stroke-width=".145" stroke-miterlimit="10" d="M121.439 8.23L123.816 6.832"/><path clip-path="url(#T)" fill="none" stroke="#000" stroke-width=".145" stroke-miterlimit="10" d="M121.579 5.931L123.766 4.645"/><path clip-path="url(#T)" fill="none" stroke="#000" stroke-width=".145" stroke-miterlimit="10" d="M117.869 7.008L121.548 9.522"/><path clip-path="url(#T)" fill="none" stroke="#000" stroke-width=".145" stroke-miterlimit="10" d="M123.679 5.889L125.382 7.011"/><path clip-path="url(#T)" fill="none" stroke="#000" stroke-width=".145" stroke-miterlimit="10" d="M125.724 12.483L127.527 13.67"/><path clip-path="url(#T)" fill="none" stroke="#000" stroke-width=".145" stroke-miterlimit="10" d="M119.395 6.762L121.629 8.23"/><path clip-path="url(#T)" fill="none" stroke="#000" stroke-width=".145" stroke-miterlimit="10" d="M119.582 4.658L121.571 5.968"/><path clip-path="url(#T)" fill="none" stroke="#000" stroke-width=".145" stroke-miterlimit="10" d="M122.644 3.916L123.787 4.67"/></g><g><defs><path id="U" d="M105.029 -3.6H187.777V100.89500000000001H105.029z"/></defs><clipPath id="V"><use xlink:href="#U" overflow="visible"/></clipPath><path clip-path="url(#V)" fill="none" stroke="#000" stroke-width=".145" stroke-miterlimit="10" d="M119.588 2.095c-.046.091-.203.264-.218.334l.129.343c.13.174.606.334 1.399.109.794-.227 2.457-1.107 2.609-2.001l-.266-.5s-.247-.079-.517-.009"/></g><g><defs><path id="W" d="M-47.611 -375.839H1176.389V416.161H-47.611z"/></defs></g><g><defs><path id="X" d="M105.029 -3.6H187.777V100.89500000000001H105.029z"/></defs><clipPath id="Y"><use xlink:href="#X" overflow="visible"/></clipPath><path clip-path="url(#Y)" fill="none" stroke="#000" stroke-width=".145" stroke-miterlimit="10" d="M123.312 1.333a1.884 1.884 0 0 1-3.208 1.711l-.077-.059m-.293-.487a1.884 1.884 0 0 1 1.449-2.608 1.815 1.815 0 0 1 1.649.566c.222.25.302.446.302.446"/><path clip-path="url(#Y)" fill="none" stroke="#000" stroke-width=".145" stroke-miterlimit="10" d="M122.864 4.162s.006-.164-.01-.203a.135.135 0 0 0-.102-.091c-.065-.016-.331.061-.331.061s-.004-.045-.004-.104v-.049l.1-.429m-.545.795c-.021.079.06.163.076.218.024.079.205.134.363.019"/></g><g><defs><path id="Z" d="M-47.611 -375.839H1176.389V416.161H-47.611z"/></defs><clipPath id="aa"><use xlink:href="#Z" overflow="visible"/></clipPath><path clip-path="url(#aa)" fill="none" stroke="#000" stroke-width=".145" stroke-miterlimit="10" d="M120.965 4.87L120.965 4.694 121.208 4.287 121.166 4.142 120.716 4.068 120.314 3.822 120.477 3.349"/><path clip-path="url(#aa)" fill="none" stroke="#000" stroke-width=".145" stroke-miterlimit="10" d="M117.889 11.924L121.562 14.344"/><path clip-path="url(#aa)" fill="none" stroke="#000" stroke-width=".145" stroke-miterlimit="10" d="M117.471 13.643L121.32 16.177"/><path clip-path="url(#aa)" fill="none" stroke="#000" stroke-width=".145" stroke-miterlimit="10" d="M120.539 3.835L119.395 4.589"/><path clip-path="url(#aa)" fill="none" stroke="#000" stroke-width=".145" stroke-miterlimit="10" d="M123.678 6.896L123.678 4.763"/><path clip-path="url(#aa)" fill="none" stroke="#000" stroke-width=".145" stroke-miterlimit="10" d="M119.395 6.762L119.395 4.574"/><path clip-path="url(#aa)" fill="none" stroke="#000" stroke-width=".145" stroke-miterlimit="10" d="M152.236 40.737L164.751 48.697"/><path clip-path="url(#aa)" fill="none" stroke="#000" stroke-width=".145" stroke-miterlimit="10" d="M166.831 41.388L172.019 44.438"/><path clip-path="url(#aa)" fill="none" stroke="#000" stroke-width=".145" stroke-miterlimit="10" d="M124.198 24.59L129.06 27.683"/><path clip-path="url(#aa)" fill="none" stroke="#000" stroke-width=".145" stroke-miterlimit="10" d="M124.198 22.696L129.06 25.788"/><path clip-path="url(#aa)" fill="none" stroke="#000" stroke-width=".145" stroke-miterlimit="10" d="M129.908 19.406L134.769 22.499"/><path clip-path="url(#aa)" fill="none" stroke="#000" stroke-width=".145" stroke-miterlimit="10" d="M134.77 23.403L166.348 41.526"/><path clip-path="url(#aa)" fill="none" stroke="#000" stroke-width=".145" stroke-miterlimit="10" d="M154.315 39.036L162.811 43.912"/><path clip-path="url(#aa)" fill="none" stroke="#000" stroke-width=".145" stroke-miterlimit="10" d="M179.351 51.08L179.807 50.812 179.807 49.251 172.008 44.773"/><path clip-path="url(#aa)" fill="none" stroke="#000" stroke-width=".145" stroke-miterlimit="10" d="M180.908 53.177L177.925 54.937 175.035 53.106"/><path clip-path="url(#aa)" fill="none" stroke="#000" stroke-width=".145" stroke-miterlimit="10" d="M177.917 57.634L177.917 54.937"/><path clip-path="url(#aa)" fill="none" stroke="#000" stroke-width=".145" stroke-miterlimit="10" d="M174.161 54.074L169.877 56.583 123.116 26.837"/><path clip-path="url(#aa)" fill="none" stroke="#000" stroke-width=".145" stroke-miterlimit="10" d="M176.76 50.974L169.877 55.003 123.064 25.227"/><path clip-path="url(#aa)" fill="none" stroke="#000" stroke-width=".145" stroke-miterlimit="10" d="M169.877 56.583L169.877 55.005"/><path clip-path="url(#aa)" fill="none" stroke="#000" stroke-width=".145" stroke-miterlimit="10" d="M172.003 44.438L164.75 48.685"/><path clip-path="url(#aa)" fill="none" stroke="#000" stroke-width=".145" stroke-miterlimit="10" d="M172.019 44.438L172.019 45.966 164.776 50.206 152.235 42.229"/><path clip-path="url(#aa)" fill="none" stroke="#000" stroke-width=".145" stroke-miterlimit="10" d="M164.751 50.189L164.751 48.697"/><path clip-path="url(#aa)" fill="none" stroke="#000" stroke-width=".145" stroke-miterlimit="10" d="M166.831 41.388L162.405 43.979"/><path clip-path="url(#aa)" fill="none" stroke="#000" stroke-width=".145" stroke-miterlimit="10" d="M154.891 39.204L152.236 40.758"/><path clip-path="url(#aa)" fill="none" stroke="#000" stroke-width=".145" stroke-miterlimit="10" d="M134.77 24.273L129.062 27.615"/><path clip-path="url(#aa)" fill="none" stroke="#000" stroke-width=".145" stroke-miterlimit="10" d="M134.77 22.499L129.062 25.841"/><path clip-path="url(#aa)" fill="none" stroke="#000" stroke-width=".145" stroke-miterlimit="10" d="M129.893 19.406L124.185 22.748"/><path clip-path="url(#aa)" fill="none" stroke="#000" stroke-width=".145" stroke-miterlimit="10" d="M130.804 18.282L121.236 23.882"/><path clip-path="url(#aa)" fill="none" stroke="#000" stroke-width=".145" stroke-miterlimit="10" d="M179.732 49.233L178.229 50.113"/><g clip-path="url(#aa)"><text transform="matrix(.8203 .5719 -.8644 .5029 109.08 65.357)"><tspan x="0" y="0" fill="#D1D3D4" font-family="'Calibre-Semibold'" font-size="6.297" letter-spacing="1">C</tspan><tspan x="5.165" y="0" fill="#D1D3D4" font-family="'Calibre-Semibold'" font-size="6.297" letter-spacing="1">A</tspan><tspan x="10.226" y="0" fill="#D1D3D4" font-family="'Calibre-Semibold'" font-size="6.297" letter-spacing="1">THERINE L</tspan><tspan x="51.648" y="0" fill="#D1D3D4" font-family="'Calibre-Semibold'" font-size="6.297">N</tspan></text></g><path clip-path="url(#aa)" fill="none" stroke="#000" stroke-width=".145" stroke-miterlimit="10" d="M186.041 53.66L172.526 61.295 111.574 21.15"/><path clip-path="url(#aa)" fill="none" stroke="#000" stroke-width=".145" stroke-miterlimit="10" d="M176.637 52.151L175.016 53.102 175.016 55.783 177.919 57.631 180.908 55.883 180.908 53.178 179.696 52.405"/><path clip-path="url(#aa)" fill="none" stroke="#000" stroke-width=".145" stroke-miterlimit="10" d="M172.547 61.306L172.547 97.068"/><path clip-path="url(#aa)" fill="none" stroke="#000" stroke-width=".145" stroke-miterlimit="10" d="M179.732 92.075L178.75 92.655"/><path clip-path="url(#aa)" fill="none" stroke="#000" stroke-width=".145" stroke-miterlimit="10" d="M179.732 92.075L180.351 92.47 186.041 89.115 186.041 53.642 179.808 50.064"/></g><g><defs><path id="ab" d="M105.029 -3.6H187.777V100.89500000000001H105.029z"/></defs><clipPath id="ac"><use xlink:href="#ab" overflow="visible"/></clipPath><path clip-path="url(#ac)" fill="none" stroke="#000" stroke-width=".145" stroke-miterlimit="10" d="M179.731 92.075v-.859a.522.522 0 0 0-.171-.385"/><path clip-path="url(#ac)" fill="none" stroke="#000" stroke-width=".145" stroke-miterlimit="10" d="M180.358 92.47v-1.253c0-.301-.262-.698-.866-.354-.424.258-.742.722-.742 1.167v1.384l-6.203 3.655-9.339-6.466-11.812-8.075-9.905-6.798-20.085-14.431-9.832-7.084V21.15m66.339 29.379c-.732.127-1.288.791-1.288 1.59v1.121c0 .438.691.793 1.545.793s1.545-.354 1.545-.793v-1.121c0-.799-.557-1.463-1.288-1.59v-.171c0-.079-.099-.171-.258-.171-.157 0-.256.092-.256.171v.171z"/></g><g><defs><path id="ad" d="M-47.611 -375.839H1176.389V416.161H-47.611z"/></defs></g></svg>