<?xml version="1.0" encoding="utf-8"?>
<!-- Generator: Adobe Illustrator 23.0.0, SVG Export Plug-In . SVG Version: 6.00 Build 0)  -->
<svg version="1.1" id="Layer_1" xmlns="http://www.w3.org/2000/svg" xmlns:xlink="http://www.w3.org/1999/xlink" x="0px" y="0px"
	 viewBox="0 0 347 105.1" style="enable-background:new 0 0 347 105.1;" xml:space="preserve">
<style type="text/css">
	.st0{fill:#D1D3D4;}
	.st1{clip-path:url(#SVGID_2_);}
	.st2{fill:#231F20;}
	.st3{clip-path:url(#SVGID_4_);}
	.st4{opacity:0.5;}
	.st5{clip-path:url(#SVGID_6_);}
	.st6{clip-path:url(#SVGID_8_);}
	.st7{fill:none;stroke:#D1D3D4;stroke-width:0.5;stroke-miterlimit:10;}
	.st8{clip-path:url(#SVGID_10_);}
	.st9{fill:none;stroke:#D1D3D4;stroke-width:1.09;stroke-miterlimit:10;}
	.st10{clip-path:url(#SVGID_12_);}
	.st11{clip-path:url(#SVGID_14_);}
	.st12{fill:none;stroke:#231F20;stroke-width:0.15;stroke-miterlimit:10;}
	.st13{fill:none;stroke:#231F20;stroke-width:0.14;stroke-linejoin:bevel;}
	.st14{fill:none;stroke:#231F20;stroke-width:0.14;stroke-miterlimit:10;}
	.st15{enable-background:new    ;}
	.st16{clip-path:url(#SVGID_16_);}
	.st17{clip-path:url(#SVGID_18_);}
	.st18{clip-path:url(#SVGID_20_);}
	.st19{clip-path:url(#SVGID_22_);}
	.st20{clip-path:url(#SVGID_24_);}
	.st21{fill:none;stroke:#FFFFFF;stroke-width:0.13;stroke-miterlimit:10;}
	.st22{clip-path:url(#SVGID_26_);}
	.st23{clip-path:url(#SVGID_28_);}
	.st24{clip-path:url(#SVGID_30_);}
	.st25{clip-path:url(#SVGID_32_);}
	.st26{clip-path:url(#SVGID_34_);}
	.st27{clip-path:url(#SVGID_36_);}
	.st28{clip-path:url(#SVGID_38_);}
	.st29{clip-path:url(#SVGID_40_);}
</style>
<title>residence_C_15_key_horizontal</title>
<g>
	<g id="Layer_1_copy">
		<g>
			<path class="st0" d="M209.9,51.6c-0.8,0-1.2-0.5-1.2-1.4v-1.8h4.4V50c0,0.9-0.4,1.5-1.2,1.5c-0.4,0-0.8-0.2-0.9-0.6
				C210.8,51.3,210.3,51.6,209.9,51.6z M209.4,49.2v0.8c0,0.4,0.2,0.6,0.5,0.6s0.5-0.2,0.5-0.6v-0.8H209.4z M211.2,50
				c0,0.4,0.2,0.7,0.5,0.7s0.5-0.2,0.5-0.7v-0.7h-1V50z"/>
			<path class="st0" d="M210.2,54.1h-1.6v-0.9h4.4V55c0.1,0.7-0.4,1.4-1.1,1.5c-0.1,0-0.1,0-0.2,0c-0.6,0-1.2-0.4-1.3-1l-1.7,1.1v-1
				l1.6-1.1L210.2,54.1z M211,54.1V55c0,0.5,0.2,0.7,0.6,0.7s0.6-0.2,0.6-0.7v-0.8L211,54.1z"/>
		</g>
		<g>
			<path class="st0" d="M208.6,61.1c-0.1-1.2,0.8-2.3,2-2.4c1.2-0.1,2.3,0.8,2.4,2c0.1,1.2-0.8,2.3-2,2.4c-0.1,0-0.2,0-0.2,0
				c-1.1,0.1-2.1-0.7-2.2-1.9C208.6,61.2,208.6,61.1,208.6,61.1z M212.2,61.1c0-0.7-0.6-1.1-1.4-1.1s-1.4,0.4-1.4,1.1
				s0.6,1.1,1.4,1.1S212.2,61.8,212.2,61.1z"/>
		</g>
		<g>
			<path class="st0" d="M213,67.3l-4.4,1.7v-1l1-0.4v-1.6l-1-0.4v-0.9l4.3,1.7L213,67.3z M210.5,66.3v1l1.4-0.5L210.5,66.3z"/>
		</g>
		<g>
			<path class="st0" d="M213,71v1.5c0,1.2-1,2.2-2.2,2.2c-1.2,0-2.1-1-2.1-2.2V71H213z M209.5,72.5c0.1,0.8,0.7,1.3,1.5,1.2
				c0.7-0.1,1.2-0.6,1.2-1.2v-0.6h-2.7V72.5z"/>
		</g>
		<g>
			<path class="st0" d="M213,79.5l-2.9,0.8l2.9,0.7v0.9l-4.3-1.1v-0.8l2.8-0.8l-2.8-0.8v-0.8l4.3-1.1v0.9l-2.9,0.7l2.9,0.8V79.5z"/>
		</g>
		<g>
			<path class="st0" d="M213,85.8l-4.3,1.6v-0.9l1-0.4v-1.6l-1-0.4v-0.9l4.3,1.7V85.8z M210.5,84.8v1.1l1.4-0.5L210.5,84.8z"/>
		</g>
		<g>
			<path class="st0" d="M213,91.7v1l-2.7-1.6h-1.6v-0.9h1.6l2.7-1.6v1l-1.8,1L213,91.7z"/>
		</g>
		<g>
			<path class="st0" d="M343.4,40.5v0.9h-3.5v2h-0.8v-2.9H343.4z"/>
		</g>
		<g>
			<path class="st0" d="M343.4,47.8l-4.3,1.6v-0.9l1-0.4v-1.6l-1-0.4v-0.9l4.3,1.7V47.8z M340.9,46.8v1l1.4-0.5L340.9,46.8z"/>
		</g>
		<g>
			<path class="st0" d="M339.1,51.5h4.3v2.9h-0.8v-2h-1.1v1.8h-0.8v-1.8h-1.6V51.5z"/>
		</g>
		<g>
			<path class="st0" d="M343.4,58.5l-4.3,1.7v-0.9l1-0.4v-1.6l-1-0.4V56l4.3,1.6V58.5z M340.9,57.5v1l1.4-0.5L340.9,57.5z"/>
		</g>
		<g>
			<path class="st0" d="M343.4,64.4v0.9l-2.7-1.6h-1.6v-0.9h1.6l2.7-1.5v1l-1.8,1L343.4,64.4z"/>
			<path class="st0" d="M343.4,69.8h-0.8v-2h-0.9v1.8h-0.8v-1.9h-1v2h-0.8v-2.9h4.3L343.4,69.8L343.4,69.8z"/>
			<path class="st0" d="M343.4,71.2v3.7h-0.8v-1.4h-3.5v-0.9h3.5v-1.4H343.4z"/>
			<path class="st0" d="M343.4,76.2v3.7h-0.8v-1.4h-3.5v-0.9h3.5v-1.4H343.4z"/>
			<path class="st0" d="M343.4,84.4h-0.8v-2h-0.9v1.8h-0.8v-1.9h-1v2h-0.8v-2.9h4.3L343.4,84.4L343.4,84.4z"/>
		</g>
		<g>
			<path class="st0" d="M340.3,92.5c-0.4,0.1-0.6,0.5-0.5,0.9c0,0.4,0.2,0.7,0.5,0.7s0.4-0.2,0.5-0.5l0.2-0.8
				c0.1-0.6,0.5-1.1,1.2-1.1c0.8,0,1.4,0.7,1.3,1.4c0,0,0,0.1,0,0.1c0.1,0.8-0.5,1.5-1.2,1.7V94c0.3-0.1,0.5-0.4,0.5-0.8
				c0-0.4-0.2-0.7-0.5-0.7s-0.4,0.2-0.5,0.5l-0.2,0.8c-0.2,0.7-0.6,1.1-1.2,1.1c-0.8,0-1.3-0.7-1.3-1.6c-0.1-0.8,0.5-1.6,1.3-1.8
				L340.3,92.5L340.3,92.5z"/>
		</g>
		<g>
			<path class="st0" d="M343.4,96.8v3.7h-0.8v-1.4h-3.5v-0.9h3.5v-1.4H343.4z"/>
		</g>
		<g>
			<path class="st0" d="M251.3,40.8h0.9v3.5h2v0.8h-2.9V40.8z"/>
			<path class="st0" d="M258.8,40.8v0.8h-2v0.9h1.9v0.8h-1.9v1h2V45h-2.9v-4.3L258.8,40.8z"/>
		</g>
		<g>
			<path class="st0" d="M263.1,45.1c-1.2,0.1-2.3-0.8-2.4-2c-0.1-1.2,0.8-2.3,2-2.4c1.2-0.1,2.3,0.8,2.4,2c0,0.1,0,0.2,0,0.2
				c0.1,1.1-0.8,2.1-1.9,2.2C263.2,45.1,263.1,45.1,263.1,45.1z M263.1,41.5c-0.7,0-1.1,0.6-1.1,1.4s0.4,1.4,1.1,1.4
				s1.1-0.6,1.1-1.4S263.8,41.5,263.1,41.5z"/>
		</g>
		<g>
			<path class="st0" d="M270.8,45.1h-0.7l-2-2.9v2.9h-0.9v-4.3h0.8l1.9,2.7v-2.7h0.9L270.8,45.1L270.8,45.1z"/>
		</g>
		<g>
			<path class="st0" d="M275.2,40.8l1.6,4.3H276l-0.4-1H274l-0.4,1h-0.9l1.6-4.3H275.2z M274.2,43.3h1l-0.5-1.4L274.2,43.3z"/>
		</g>
		<g>
			<path class="st0" d="M279.7,43.5v1.6h-0.9v-4.3h1.8c0.7-0.1,1.4,0.4,1.5,1.1c0,0.1,0,0.1,0,0.2c0,0.6-0.4,1.2-1,1.3l1.1,1.7h-1
				l-1.1-1.6L279.7,43.5z M279.7,42.7h0.8c0.5,0,0.7-0.2,0.7-0.6s-0.2-0.6-0.7-0.6h-0.8V42.7z"/>
			<path class="st0" d="M283.7,40.8h1.5c1.2,0,2.1,1,2.1,2.2c0,1.2-1,2.1-2.1,2.1h-1.5V40.8z M285.2,44.3c0.8-0.1,1.3-0.7,1.2-1.5
				c-0.1-0.7-0.6-1.2-1.2-1.2h-0.6v2.7H285.2z"/>
		</g>
		<g>
			<path class="st0" d="M293.3,43.8c0.1,0.4,0.5,0.6,0.9,0.6c0.4,0,0.7-0.2,0.7-0.5s-0.2-0.4-0.5-0.5l-0.8-0.2
				c-0.6-0.1-1.1-0.5-1.1-1.2c0-0.8,0.7-1.4,1.5-1.3c0,0,0,0,0.1,0c0.8-0.1,1.5,0.5,1.7,1.2h-0.9c-0.1-0.3-0.4-0.6-0.8-0.5
				c-0.4,0-0.7,0.2-0.7,0.5s0.2,0.4,0.5,0.5l0.8,0.2c0.7,0.2,1.1,0.6,1.1,1.2c0,0.8-0.7,1.3-1.6,1.3c-0.8,0.1-1.6-0.5-1.8-1.3
				L293.3,43.8z"/>
		</g>
		<g>
			<path class="st0" d="M297.5,40.8h3.7v0.8h-1.4v3.5h-0.9v-3.5h-1.4V40.8z"/>
		</g>
		<g>
			<path class="st0" d="M248.2,94.4c0.9-0.1,1.7,0.6,1.8,1.5h-0.9c-0.1-0.4-0.5-0.7-0.9-0.7c-0.7,0-1.1,0.6-1.1,1.4s0.4,1.4,1.1,1.4
				c0.4,0,0.8-0.3,0.9-0.7h0.9c-0.1,0.9-0.9,1.5-1.8,1.5c-1.2-0.1-2.1-1.2-2-2.4C246.3,95.3,247.1,94.5,248.2,94.4L248.2,94.4z"/>
		</g>
		<g>
			<path class="st0" d="M254.2,94.5l1.6,4.3H255l-0.4-1H253l-0.4,1h-0.9l1.6-4.3H254.2z M253.2,97h1.1l-0.5-1.4L253.2,97z"/>
		</g>
		<g>
			<path class="st0" d="M257.2,94.5h3.7v0.8h-1.4v3.5h-0.9v-3.5h-1.4V94.5z"/>
		</g>
		<g>
			<path class="st0" d="M266.8,94.5v4.3h-0.9V97h-1.9v1.8H263v-4.3h0.9v1.7h1.9v-1.8H266.8z"/>
		</g>
		<g>
			<path class="st0" d="M272,94.5v0.8h-2v0.9h1.9V97H270v1h2v0.8h-2.9v-4.3L272,94.5z"/>
			<path class="st0" d="M274.6,97.2v1.6h-0.9v-4.3h1.8c0.7-0.1,1.4,0.4,1.5,1.1c0,0.1,0,0.1,0,0.2c0,0.6-0.4,1.2-1,1.3l1.1,1.7h-1
				l-1.1-1.6H274.6z M274.6,96.4h0.8c0.5,0,0.7-0.2,0.7-0.6s-0.2-0.6-0.7-0.6h-0.8V96.4z"/>
		</g>
		<g>
			<path class="st0" d="M280.7,98.8h-0.9v-4.3h0.9V98.8z"/>
		</g>
		<g>
			<path class="st0" d="M286.6,98.8h-0.7l-2-2.9v2.9H283v-4.3h0.8l1.9,2.7v-2.7h0.9L286.6,98.8z"/>
			<path class="st0" d="M291.4,94.5v0.8h-2v0.9h1.9V97h-1.9v1h2v0.8h-2.9v-4.3L291.4,94.5z"/>
			<path class="st0" d="M295.5,94.5h0.9V98h2v0.8h-2.9V94.5z"/>
		</g>
		<g>
			<path class="st0" d="M305.8,98.8h-0.7l-2-2.9v2.9h-0.9v-4.3h0.8l1.9,2.7v-2.7h0.9L305.8,98.8z"/>
		</g>
	</g>
	<g>
		<g>
			<defs>
				<rect id="SVGID_1_" x="218.8" y="57.1" width="112" height="25.3"/>
			</defs>
			<clipPath id="SVGID_2_">
				<use xlink:href="#SVGID_1_"  style="overflow:visible;"/>
			</clipPath>
			<g class="st1">
				<polygon class="st2" points="270.1,60.7 295,60.7 295,74.5 278.8,73.5 278.8,71.8 278.8,70.3 278.8,68.6 277.6,68.6 277.6,66.7 
					274.4,66.7 274.4,66.1 271.9,66.1 271.9,63.3 270.1,63.3 				"/>
				<g>
					<defs>
						<rect id="SVGID_3_" x="218.8" y="57.1" width="112" height="25.3"/>
					</defs>
					<clipPath id="SVGID_4_">
						<use xlink:href="#SVGID_3_"  style="overflow:visible;"/>
					</clipPath>
					<g class="st3">
						<g class="st4">
							<g>
								<defs>
									<rect id="SVGID_5_" x="270.1" y="58.8" width="24.9" height="1.8"/>
								</defs>
								<clipPath id="SVGID_6_">
									<use xlink:href="#SVGID_5_"  style="overflow:visible;"/>
								</clipPath>
								<g class="st5">
									<polygon class="st2" points="273.9,58.8 273.9,59.2 270.1,59.2 270.1,60.6 295,60.6 295,59.2 287.1,59.2 287.1,58.8 
																			"/>
								</g>
							</g>
						</g>
						<g class="st4">
							<g>
								<defs>
									<rect id="SVGID_7_" x="274.4" y="73.2" width="20.7" height="5.3"/>
								</defs>
								<clipPath id="SVGID_8_">
									<use xlink:href="#SVGID_7_"  style="overflow:visible;"/>
								</clipPath>
								<g class="st6">
									<polygon class="st2" points="274.4,73.2 274.4,77.6 287,78.3 287,78 295,78.5 295,74.6 274.4,73.2 									"/>
								</g>
							</g>
						</g>
					</g>
				</g>
				<polygon class="st7" points="315.4,60.6 315.4,62.2 320.8,62.2 320.8,67.9 323.3,67.9 323.3,66.3 327.6,66.4 327.6,71.3 
					324.6,71.3 323.2,71.3 323.2,70.5 320.7,70.5 320.8,75.8 274.4,73.2 274.3,77 269.7,76.8 269.7,72.8 237.7,71.3 237.7,73.5 
					221.7,72.9 221.8,60 237.2,60.1 237.2,60.7 				"/>
				<g>
					<defs>
						<rect id="SVGID_9_" x="218.8" y="57.1" width="112" height="25.3"/>
					</defs>
					<clipPath id="SVGID_10_">
						<use xlink:href="#SVGID_9_"  style="overflow:visible;"/>
					</clipPath>
					<g class="st8">
						<polygon class="st9" points="328.1,58.8 328.1,80.7 220.1,74 220.2,58.8 						"/>
					</g>
				</g>
			</g>
		</g>
		<g>
			<defs>
				<rect id="SVGID_11_" x="109.8" y="1.9" width="82.8" height="100"/>
			</defs>
			<clipPath id="SVGID_12_">
				<use xlink:href="#SVGID_11_"  style="overflow:visible;"/>
			</clipPath>
			<g class="st10">
				<g>
					<defs>
						<rect id="SVGID_13_" x="109.8" y="1.9" width="82.8" height="100"/>
					</defs>
					<clipPath id="SVGID_14_">
						<use xlink:href="#SVGID_13_"  style="overflow:visible;"/>
					</clipPath>
					<g class="st11">
						<path class="st12" d="M3.3,44.6c0,0.1-0.2,0.2-0.2,0.3l0.1,0.3c0.1,0.2,0.5,0.3,1.3,0.1s2.2-1,2.4-1.8L6.6,43
							c-0.2,0-0.3,0-0.5,0"/>
						<path class="st12" d="M6.6,43.9c0.1,0.2,0.1,0.5,0,0.7c-0.2,0.9-1.1,1.5-2,1.3c-0.3-0.1-0.7-0.2-0.9-0.5l-0.1,0"/>
						<path class="st12" d="M3.4,44.9c-0.1-0.1-0.1-0.3-0.1-0.4c-0.1-0.9,0.5-1.8,1.4-1.9c0.6-0.1,1.1,0.1,1.5,0.5
							c0.1,0.1,0.2,0.3,0.3,0.4"/>
						<path class="st12" d="M4.3,52.3c0.3,0.8,0.1,1.5-0.5,1.5s-1.2-0.7-1.5-1.5s-0.1-1.5,0.5-1.5S4,51.5,4.3,52.3z"/>
						<path class="st12" d="M5.8,52.3c-0.3,0.8-0.1,1.5,0.5,1.5s1.2-0.7,1.5-1.5c0.3-0.8,0.1-1.5-0.5-1.5S6.1,51.5,5.8,52.3z"/>
						<path class="st13" d="M6.2,46.4c0-0.1,0-0.1,0-0.2c0,0,0-0.1-0.1-0.1c-0.1,0-0.2,0-0.3,0c0,0,0-0.1,0-0.1l0,0l0.1-0.4"/>
						<path class="st14" d="M5.4,46.4c0,0.1,0.1,0.1,0.1,0.2s0.2,0.1,0.3,0"/>
						<path class="st12" d="M12.6,95.5v-5.2l-5.2,2.9v5.4L5,99.9l-17.4-8.2l-14-7l-3.2-1.8v-3.7c-0.1-0.8-0.6-1.6-1.4-2
							c-1-0.6-1.4,0.4-1.4,0.8v1.8"/>
						<path class="st12" d="M13.3,60.9l1.5,1v32.3l-2.3,1.3c-1.2-0.3-2.4-0.2-3.5,0.3l-1.2,0.7c-0.2,0.1-0.4,0.2-0.5,0.4"/>
					</g>
				</g>
				<polyline class="st12" points="190.9,60.7 176.6,68.8 116.3,29.2 				"/>
				<polyline class="st12" points="190.9,63.4 176.6,71.5 116.3,31.9 				"/>
				<polyline class="st12" points="190.9,66.1 176.6,74.2 116.3,34.6 				"/>
				<polyline class="st12" points="190.9,68.8 176.6,76.9 116.3,37.3 				"/>
				<polyline class="st12" points="190.9,71.5 176.6,79.6 116.3,40 				"/>
				<polyline class="st12" points="190.9,74.2 176.6,82.3 116.3,42.7 				"/>
				<polyline class="st12" points="190.9,76.9 176.6,85 116.3,45.4 				"/>
				<polyline class="st12" points="190.9,79.6 176.6,87.7 116.3,48.1 				"/>
				<polyline class="st12" points="190.9,82.3 176.6,90.4 116.3,50.8 				"/>
				<polyline class="st12" points="190.9,85 176.6,93.1 116.3,53.5 				"/>
				<polyline class="st12" points="190.9,87.7 176.6,95.8 116.3,56.2 				"/>
				<g class="st15">
					<path class="st0" d="M122.4,68c0.7,0.5,0.7,1,0.2,1.4L122,69c0.2-0.2,0.2-0.5-0.1-0.7c-0.5-0.3-1.2-0.3-1.7,0.1
						c-0.6,0.3-0.7,0.8-0.3,1.1c0.3,0.2,0.7,0.2,1.1,0.2l0.6,0.4c-0.7,0.3-1.5,0.2-2.2-0.2c-0.8-0.5-0.7-1.3,0.2-1.8
						C120.4,67.5,121.6,67.5,122.4,68z"/>
				</g>
				<g class="st15">
					<path class="st0" d="M126.4,70.9l-1.9,2.5l-0.6-0.4l0.5-0.6l-1.1-0.7l-1,0.2l-0.6-0.4l4.1-1L126.4,70.9z M124,71.5l0.7,0.5
						l0.7-0.8L124,71.5z"/>
				</g>
				<g class="st15">
					<path class="st0" d="M128.5,72.4l2.4,1.7l-0.5,0.3l-0.9-0.6l-2.5,1.4l-0.6-0.4l2.5-1.4l-0.9-0.6L128.5,72.4z"/>
					<path class="st0" d="M135,76.9l-3,1.8l-0.6-0.4l1.3-0.7l-1.3-0.9l-1.3,0.7l-0.6-0.4l3-1.8l0.6,0.4l-1.2,0.7l1.3,0.9l1.2-0.7
						L135,76.9z"/>
				</g>
				<g class="st15">
					<path class="st0" d="M138.6,79.4l-0.5,0.3l-1.4-0.9l-0.7,0.4l1.2,0.9l-0.5,0.3l-1.2-0.9l-0.7,0.4l1.4,0.9l-0.6,0.3l-1.9-1.4
						l3-1.8L138.6,79.4z"/>
					<path class="st0" d="M138.9,82l-1.1,0.7l-0.6-0.4l3-1.8l1.2,0.8c0.6,0.4,0.7,0.9,0,1.3c-0.5,0.3-1,0.3-1.5,0.1l-0.4,1.2
						l-0.7-0.5l0.4-1.1L138.9,82z M139.4,81.7l0.6,0.4c0.3,0.2,0.6,0.2,0.9,0.1c0.3-0.1,0.3-0.4,0-0.6l-0.6-0.4L139.4,81.7z"/>
					<path class="st0" d="M141.5,85.2l-0.6-0.4l3-1.8l0.6,0.4L141.5,85.2z"/>
					<path class="st0" d="M145.6,88.1l-0.5-0.3l0.7-2.1l-2,1.2l-0.6-0.4l3-1.8l0.6,0.4l-0.6,2l1.9-1.1l0.6,0.4L145.6,88.1z"/>
					<path class="st0" d="M152.2,88.8l-0.5,0.3l-1.4-0.9l-0.7,0.4l1.2,0.9l-0.5,0.3l-1.2-0.9l-0.7,0.4l1.4,0.9l-0.6,0.3l-1.9-1.4
						l3-1.8L152.2,88.8z"/>
					<path class="st0" d="M155.9,91.4l0.6,0.4l-2.5,1.4l1.3,0.9l-0.6,0.3l-1.9-1.3L155.9,91.4z"/>
				</g>
				<g class="st15">
					<path class="st0" d="M158.8,97.3l-0.5-0.3l0.7-2.1l-2,1.2l-0.6-0.4l3-1.8l0.6,0.4l-0.6,2l1.9-1.1l0.6,0.4L158.8,97.3z"/>
				</g>
				<polyline class="st14" points="190.9,58 176.6,66.1 116.3,26.5 				"/>
				<line class="st14" x1="176.6" y1="63.3" x2="176.6" y2="98.4"/>
				<line class="st14" x1="183.9" y1="93.5" x2="183.1" y2="94"/>
				<polyline class="st14" points="183.9,93.5 184.5,93.8 190.9,90.1 190.9,55.2 				"/>
				<polyline class="st14" points="190.9,55.2 176.6,63.3 116.3,23.7 				"/>
				<g>
					<defs>
						<rect id="SVGID_15_" x="109.8" y="1.9" width="82.8" height="100"/>
					</defs>
					<clipPath id="SVGID_16_">
						<use xlink:href="#SVGID_15_"  style="overflow:visible;"/>
					</clipPath>
					<g class="st16">
						<path class="st14" d="M183.9,93.5v-0.8c0-0.1-0.1-0.3-0.2-0.3"/>
						<path class="st14" d="M184.5,93.8v-1.1c0-0.3-0.2-0.6-0.8-0.3c-0.4,0.2-0.6,0.6-0.7,1v1.3l-6.4,3.8l-8.4-5.8l-10.7-7.3l-9-6.2
							L135.3,70l-18.9-13.7V23.7l1.3-0.8"/>
					</g>
				</g>
				<line class="st14" x1="178.9" y1="56.7" x2="178.9" y2="55.2"/>
				<line class="st14" x1="125" y1="26.2" x2="125" y2="28.7"/>
				<line class="st14" x1="178.9" y1="56.7" x2="179.7" y2="57.2"/>
				<line class="st14" x1="178.9" y1="55.2" x2="179.7" y2="55.7"/>
				<line class="st14" x1="125.4" y1="11.8" x2="125.4" y2="10"/>
				<line class="st14" x1="125.4" y1="11.9" x2="125.4" y2="9.9"/>
				<line class="st14" x1="125.1" y1="24.4" x2="125.1" y2="20.1"/>
				<polyline class="st14" points="126.4,27.8 125,28.7 117.6,23.8 117.6,21.4 120.2,20 				"/>
				<polyline class="st14" points="125.4,17.5 128.8,15.5 128.8,11 128.8,10.9 127.3,9.9 				"/>
				<g>
					<defs>
						<rect id="SVGID_17_" x="109.8" y="1.9" width="82.8" height="100"/>
					</defs>
					<clipPath id="SVGID_18_">
						<use xlink:href="#SVGID_17_"  style="overflow:visible;"/>
					</clipPath>
					<g class="st17">
						<path class="st14" d="M124.7,14.2c0.3,0.8,0.1,1.5-0.5,1.5s-1.2-0.7-1.5-1.5s-0.1-1.5,0.5-1.5S124.4,13.4,124.7,14.2z"/>
						<path class="st14" d="M126.1,14.2c-0.3,0.8-0.1,1.5,0.5,1.5s1.2-0.7,1.5-1.5c0.3-0.8,0.1-1.5-0.5-1.5S126.4,13.4,126.1,14.2z"
							/>
					</g>
				</g>
				<line class="st14" x1="125.1" y1="20.1" x2="130.7" y2="16.9"/>
				<line class="st14" x1="120.2" y1="16.9" x2="125.1" y2="20.2"/>
				<line class="st14" x1="117.6" y1="21.4" x2="125" y2="26.2"/>
				<polyline class="st14" points="128.9,15.3 129.1,15.5 129.1,16.9 129.1,17 125.4,19.2 125.4,19.1 125.4,13.1 				"/>
				<polyline class="st14" points="121.6,16.1 120.2,16.9 120.2,21.1 120.2,21.2 125,24.4 				"/>
				<polyline class="st14" points="130.8,19.1 133.7,21 133.7,22.6 				"/>
				<line class="st14" x1="125.3" y1="13.1" x2="128.8" y2="11"/>
				<line class="st14" x1="122" y1="11" x2="123.4" y2="10.1"/>
				<line class="st14" x1="122" y1="10.9" x2="125.4" y2="13.2"/>
				<polyline class="st14" points="129.1,15.9 130.7,16.9 130.7,16.9 130.7,21 130.6,21.1 125,24.4 				"/>
				<line class="st14" x1="123.5" y1="8.7" x2="125.4" y2="10"/>
				<line class="st14" x1="126.3" y1="8.1" x2="127.3" y2="8.8"/>
				<g>
					<defs>
						<rect id="SVGID_19_" x="109.8" y="1.9" width="82.8" height="100"/>
					</defs>
					<clipPath id="SVGID_20_">
						<use xlink:href="#SVGID_19_"  style="overflow:visible;"/>
					</clipPath>
					<g class="st18">
						<path class="st14" d="M123.6,6.5c0,0.1-0.2,0.2-0.2,0.3l0.1,0.3c0.1,0.2,0.6,0.3,1.3,0.1s2.2-1,2.4-1.8l-0.2-0.4
							c-0.2,0-0.3,0-0.5,0"/>
					</g>
				</g>
				<polyline class="st14" points="124.3,3.5 125.3,4 125.6,3.9 126.3,2.9 				"/>
				<g>
					<defs>
						<rect id="SVGID_21_" x="109.8" y="1.9" width="82.8" height="100"/>
					</defs>
					<clipPath id="SVGID_22_">
						<use xlink:href="#SVGID_21_"  style="overflow:visible;"/>
					</clipPath>
					<g class="st19">
						<path class="st14" d="M127,5.8c0.1,0.2,0.1,0.5,0,0.7c-0.2,0.9-1.1,1.5-2,1.3c-0.3-0.1-0.6-0.3-0.9-0.5L124,7.3"/>
						<path class="st14" d="M123.7,6.8c-0.1-0.1-0.1-0.3-0.1-0.4c-0.1-0.9,0.5-1.8,1.4-1.9c0.6-0.1,1.1,0.1,1.5,0.5
							c0.1,0.1,0.2,0.3,0.3,0.4"/>
						<path class="st14" d="M126.6,8.3c0-0.1,0-0.1,0-0.2c0,0,0-0.1-0.1-0.1c-0.1,0-0.2,0-0.3,0.1V8l0.1-0.4"/>
						<path class="st14" d="M125.8,8.3c0,0.1,0,0.1,0.1,0.2c0.1,0.1,0.2,0.1,0.3,0c0,0,0,0,0,0"/>
					</g>
				</g>
				<polyline class="st14" points="124.8,9 124.8,8.8 125.1,8.4 125,8.3 124.6,8.2 124.2,8 124.4,7.6 				"/>
				<line class="st14" x1="122.1" y1="15.4" x2="125.4" y2="17.5"/>
				<polyline class="st14" points="125.3,19.3 121.7,16.9 121.6,16.9 121.6,15.6 121.6,15.6 122,15.4 122,15.4 122,10.9 				"/>
				<polyline class="st14" points="124.4,8 123.4,8.7 123.4,8.8 123.4,10.7 125.3,12 125.4,11.9 127.3,10.8 127.3,8.9 127.3,8.8 
					125.4,9.9 				"/>
				<line class="st14" x1="157.6" y1="44.1" x2="169.6" y2="51.7"/>
				<polyline class="st14" points="185,54 182.3,55.6 179.7,54 				"/>
				<line class="st14" x1="182.3" y1="59.5" x2="182.3" y2="55.6"/>
				<polyline class="st14" points="179.7,54.8 174.2,58 126.4,27.5 				"/>
				<line class="st12" x1="191" y1="55.2" x2="133.7" y2="22.1"/>
				<line class="st12" x1="171.3" y1="44.5" x2="137.4" y2="24.9"/>
				<line class="st14" x1="174.2" y1="59.4" x2="174.2" y2="58"/>
				<line class="st14" x1="169.6" y1="53.4" x2="169.6" y2="51.7"/>
				<polygon class="st14" points="176.7,47.5 176.7,49.2 169.6,53.4 157.6,45.8 157.6,44.1 162.9,41 170,45.3 171.4,44.4 				"/>
				<line class="st14" x1="176.7" y1="47.5" x2="169.6" y2="51.7"/>
				<line class="st14" x1="137.4" y1="24.8" x2="132.2" y2="27.8"/>
				<polygon class="st14" points="127.8,26.7 127.8,25 127.8,25 132.8,22.1 137.4,24.8 137.4,26.2 137.4,26.3 132.2,29.5 				"/>
				<polyline class="st14" points="178.9,56.7 174.2,59.4 126.4,29 126.4,29 126.4,27.5 127.8,26.7 				"/>
				<line class="st14" x1="132.2" y1="27.8" x2="127.8" y2="25"/>
				<line class="st14" x1="132.2" y1="29.4" x2="132.2" y2="27.8"/>
				<polyline class="st14" points="184,53.4 184.4,53.2 184.4,52.1 176.7,47.7 				"/>
				<line class="st14" x1="184.4" y1="52.1" x2="183.8" y2="52.4"/>
				<line class="st14" x1="133.7" y1="21.1" x2="125" y2="26.2"/>
				<polyline class="st14" points="181.2,53.1 179.7,54 179.7,57.8 182.3,59.5 185,57.9 185,54 183.9,53.3 				"/>
				<g>
					<defs>
						<rect id="SVGID_23_" x="109.8" y="1.9" width="82.8" height="100"/>
					</defs>
					<clipPath id="SVGID_24_">
						<use xlink:href="#SVGID_23_"  style="overflow:visible;"/>
					</clipPath>
					<g class="st20">
						<path class="st14" d="M182.3,51.7c-0.7,0.1-1.2,0.7-1.2,1.4v1c0,0.4,0.6,0.7,1.4,0.7s1.4-0.3,1.4-0.7v-1
							c0-0.7-0.5-1.3-1.2-1.4v-0.2c0-0.1-0.1-0.2-0.2-0.2s-0.2,0.1-0.2,0.2V51.7z"/>
					</g>
				</g>
				<polygon class="st2" points="151,43.2 151,44.8 159.5,50 159.5,48.6 				"/>
				<polygon class="st2" points="159.5,50 157.8,51 146.6,43.6 148.1,42.8 				"/>
				<line class="st21" x1="151" y1="44.6" x2="159.5" y2="50"/>
			</g>
		</g>
		<g>
			<defs>
				<rect id="SVGID_25_" x="3.8" y="-5.2" width="87.8" height="109.4"/>
			</defs>
			<clipPath id="SVGID_26_">
				<use xlink:href="#SVGID_25_"  style="overflow:visible;"/>
			</clipPath>
			<g class="st22">
				<g class="st15">
					<path class="st0" d="M12,74.2l0.7,0.4l-2.6,1.7l1.5,0.9L11,77.6l-2.2-1.4L12,74.2z"/>
					<path class="st0" d="M18.2,78l-0.6,0.4l-1.5-1l-0.7,0.5l1.4,0.9l-0.6,0.4l-1.4-0.9L14,78.8l1.5,1L15,80.1l-2.2-1.4l3.2-2.1
						L18.2,78z"/>
					<path class="st0" d="M18.1,82.1c-0.9-0.6-0.8-1.4,0.1-2c1-0.6,2.3-0.7,3.2-0.1c0.9,0.6,0.8,1.4-0.1,2.1
						C20.4,82.6,19,82.7,18.1,82.1z M20.8,80.3c-0.5-0.3-1.3-0.2-1.9,0.2c-0.6,0.4-0.7,0.9-0.2,1.2c0.5,0.3,1.3,0.3,1.9-0.2
						C21.3,81.2,21.4,80.7,20.8,80.3z"/>
					<path class="st0" d="M24.2,85.8l-0.5-0.3l0.6-2.4l-2.1,1.4l-0.7-0.4l3.2-2.1l0.6,0.4l-0.6,2.2l2-1.3l0.7,0.4L24.2,85.8z"/>
				</g>
				<g class="st15">
					<path class="st0" d="M31,86l-2,2.9l-0.7-0.4l0.5-0.7L27.6,87l-1.1,0.3l-0.7-0.4l4.5-1.3L31,86z M28.4,86.7l0.8,0.5l0.7-0.9
						L28.4,86.7z"/>
				</g>
				<g class="st15">
					<path class="st0" d="M32.5,89.5l-1.2,0.8l-0.7-0.4l3.2-2.1l1.3,0.8c0.7,0.4,0.8,0.9,0.1,1.4c-0.5,0.3-1.1,0.4-1.7,0.2l-0.4,1.4
						L32.5,91l0.4-1.3L32.5,89.5z M33.1,89.2l0.6,0.4c0.3,0.2,0.7,0.2,1,0c0.3-0.2,0.3-0.4-0.1-0.6L34,88.6L33.1,89.2z"/>
				</g>
				<g class="st15">
					<path class="st0" d="M38.1,90.4l1.2,0.7c1,0.6,1,1.4,0,2.1s-2.2,0.7-3.2,0.1l-1.2-0.7L38.1,90.4z M36.6,92.9
						c0.6,0.4,1.4,0.3,2-0.1c0.6-0.4,0.7-0.9,0.1-1.3l-0.5-0.3l-2,1.3L36.6,92.9z"/>
				</g>
				<g class="st15">
					<path class="st0" d="M43.2,96.5c-0.2,0.2-0.1,0.5,0.2,0.7c0.3,0.2,0.7,0.2,1,0.1c0.2-0.1,0.2-0.3,0-0.5l-0.5-0.4
						c-0.4-0.4-0.5-0.7,0.1-1.1c0.6-0.4,1.5-0.3,2.2,0.1c0.7,0.5,0.8,1,0.3,1.4l-0.7-0.4c0.1-0.2,0.1-0.4-0.2-0.6
						c-0.3-0.2-0.7-0.2-0.9-0.1c-0.2,0.1-0.2,0.3,0,0.5l0.5,0.5c0.4,0.4,0.4,0.8-0.1,1.1c-0.6,0.4-1.5,0.3-2.2-0.1
						c-0.7-0.5-0.9-1-0.4-1.5L43.2,96.5z"/>
				</g>
				<g class="st15">
					<path class="st0" d="M48.9,97.1l2.8,1.7l-0.6,0.4L50,98.6l-2.6,1.7l-0.7-0.4l2.6-1.7l-1-0.7L48.9,97.1z"/>
				</g>
				<line class="st12" x1="76.7" y1="60.9" x2="76.7" y2="56.2"/>
				<line class="st12" x1="14.4" y1="23.5" x2="14.4" y2="19.7"/>
				<line class="st12" x1="27.3" y1="28.6" x2="27.3" y2="30.7"/>
				<line class="st12" x1="21.6" y1="25.3" x2="21.6" y2="27.5"/>
				<line class="st12" x1="28.8" y1="27.7" x2="28.8" y2="29.9"/>
				<line class="st14" x1="28.9" y1="29.8" x2="27.3" y2="30.8"/>
				<line class="st14" x1="28.8" y1="27.8" x2="27.3" y2="28.6"/>
				<line class="st14" x1="68.2" y1="46.3" x2="61.9" y2="50"/>
				<line class="st14" x1="73" y1="50.1" x2="67.6" y2="53.3"/>
				<line class="st12" x1="36.4" y1="32.1" x2="36.4" y2="34.2"/>
				<line class="st14" x1="41.6" y1="30.3" x2="67" y2="47"/>
				<line class="st14" x1="68.1" y1="46.3" x2="73" y2="49.5"/>
				<line class="st14" x1="41.6" y1="29.6" x2="67.5" y2="46.6"/>
				<line class="st14" x1="11.3" y1="22.3" x2="13.9" y2="23.8"/>
				<line class="st14" x1="21.6" y1="25.3" x2="27.3" y2="28.6"/>
				<line class="st14" x1="28.9" y1="27.8" x2="36.5" y2="32.2"/>
				<line class="st14" x1="28.8" y1="29.8" x2="36.4" y2="34.2"/>
				<line class="st14" x1="61.9" y1="50" x2="67.6" y2="53.3"/>
				<line class="st12" x1="76.6" y1="47.5" x2="76.6" y2="45.2"/>
				<polyline class="st12" points="67.1,57.6 66.2,57.1 65,57.7 15.9,29.3 15.9,26.9 				"/>
				<polyline class="st12" points="28.2,21.5 23.4,18.3 12.3,24.8 65,55.3 				"/>
				<line class="st12" x1="65" y1="55.3" x2="65" y2="57.7"/>
				<line class="st12" x1="66.2" y1="54.6" x2="65" y2="55.3"/>
				<polyline class="st12" points="66.2,57.1 66.2,54.6 61.9,52.2 				"/>
				<line class="st12" x1="76.7" y1="65.3" x2="76.7" y2="62.7"/>
				<polyline class="st12" points="82.5,55.3 85.7,57.4 85.7,60.1 76.7,65.3 67.1,59.8 67.1,57.1 70.9,54.8 				"/>
				<polyline class="st12" points="85.7,57.4 76.7,62.7 67.1,57.1 				"/>
				<polyline class="st14" points="13.2,25.3 13.2,26.6 15.9,28.2 				"/>
				<line class="st14" x1="21.6" y1="27.5" x2="27.3" y2="30.8"/>
				<line class="st14" x1="61.9" y1="52.2" x2="61.9" y2="50"/>
				<line class="st14" x1="67.6" y1="56.8" x2="67.6" y2="53.3"/>
				<polyline class="st14" points="80.4,46.3 76.7,48.5 73,46.4 				"/>
				<polyline class="st12" points="80.4,51.1 80.8,51.3 80.8,52.9 76.7,55.3 72.6,52.9 72.6,51.4 73,51.2 				"/>
				<line class="st12" x1="76.7" y1="55.3" x2="76.7" y2="48.5"/>
				<polyline class="st12" points="80.8,51.8 82.5,52.8 82.5,57.5 76.7,60.9 70.9,57.6 70.9,52.9 72.6,52 				"/>
				<polyline class="st12" points="82.5,52.8 76.7,56.2 71,53 				"/>
				<polyline class="st12" points="11.3,22.3 5.7,25.5 5.7,64.7 				"/>
				<polyline class="st12" points="17.5,18.6 21.4,16.4 28.8,21.2 				"/>
				<line class="st12" x1="76.7" y1="66.6" x2="76.6" y2="102"/>
				<line class="st12" x1="76.6" y1="102" x2="38.8" y2="80.1"/>
				<polyline class="st12" points="87.4,66.3 76.7,72.5 5.8,31.5 				"/>
				<polyline class="st12" points="87.4,69.2 76.7,75.5 5.8,34.4 				"/>
				<polyline class="st12" points="87.4,72.2 76.7,78.4 5.8,37.4 				"/>
				<polyline class="st12" points="87.4,75.1 76.7,81.4 5.8,40.3 				"/>
				<polyline class="st12" points="87.4,78.1 76.7,84.3 5.8,43.3 				"/>
				<polyline class="st12" points="87.4,81 76.7,87.3 5.8,46.2 				"/>
				<polyline class="st12" points="87.4,84 76.7,90.2 5.8,49.2 				"/>
				<polyline class="st12" points="87.4,86.9 76.7,93.2 5.8,52.1 				"/>
				<line class="st12" x1="87.4" y1="89.9" x2="84.8" y2="91.3"/>
				<polyline class="st12" points="79.2,94.7 76.7,96.1 5.8,55.1 				"/>
				<line class="st12" x1="84.8" y1="94.3" x2="87.4" y2="92.8"/>
				<polyline class="st12" points="79.2,97.6 76.7,99.1 5.8,58 				"/>
				<polyline class="st12" points="87.4,63.3 76.7,69.6 5.8,28.5 				"/>
				<line class="st12" x1="35.8" y1="78.3" x2="5.8" y2="61"/>
				<polyline class="st14" points="12.9,17 11.3,17.9 11.3,22.3 				"/>
				<polyline class="st14" points="16,17 17.5,17.9 17.5,21.7 				"/>
				<polyline class="st14" points="11.3,17.9 14.4,19.7 17.5,17.9 				"/>
				<polyline class="st12" points="77.9,43.4 78.7,43.9 78.7,46.2 76.6,47.5 74.5,46.2 74.5,43.9 75.6,43.3 				"/>
				<polyline class="st14" points="78.7,43.9 76.6,45.2 74.5,43.9 				"/>
				<g>
					<defs>
						<rect id="SVGID_27_" x="3.9" y="-5.2" width="87.6" height="109.4"/>
					</defs>
					<clipPath id="SVGID_28_">
						<use xlink:href="#SVGID_27_"  style="overflow:visible;"/>
					</clipPath>
					<g class="st23">
						<path class="st12" d="M74.7,41.5c-0.1,0.1-0.2,0.2-0.2,0.3l0.1,0.3c0.1,0.2,0.6,0.3,1.4,0.1s2.4-1.1,2.6-2l-0.3-0.5
							c-0.2,0-0.3,0-0.5,0"/>
					</g>
				</g>
				<polyline class="st12" points="75.4,38.2 76.5,38.8 76.9,38.6 77.6,37.5 				"/>
				<g>
					<defs>
						<rect id="SVGID_29_" x="3.9" y="-5.2" width="87.6" height="109.4"/>
					</defs>
					<clipPath id="SVGID_30_">
						<use xlink:href="#SVGID_29_"  style="overflow:visible;"/>
					</clipPath>
					<g class="st24">
						<path class="st12" d="M78.3,40.7c0.1,0.3,0.1,0.5,0,0.8c-0.2,1-1.2,1.7-2.2,1.5c0,0,0,0,0,0c-0.4-0.1-0.7-0.3-1-0.5l-0.1-0.1"
							/>
						<path class="st12" d="M74.8,41.9c-0.1-0.1-0.1-0.3-0.1-0.5c-0.1-1,0.6-2,1.6-2.1c0.6-0.1,1.2,0.1,1.6,0.6
							c0.1,0.1,0.2,0.3,0.3,0.5"/>
						<path class="st12" d="M75.8,49.9c0.3,0.9,0.1,1.6-0.6,1.6s-1.4-0.7-1.7-1.6s-0.1-1.6,0.5-1.6S75.5,49,75.8,49.9z"/>
						<path class="st12" d="M77.4,49.9c-0.3,0.9-0.1,1.6,0.5,1.6s1.4-0.7,1.7-1.6s0.1-1.6-0.6-1.6S77.7,49,77.4,49.9z"/>
						<path class="st13" d="M77.9,43.5c0-0.1,0-0.1,0-0.2c0,0-0.1-0.1-0.1-0.1c-0.1,0-0.2,0-0.3,0.1v-0.2l0.1-0.4"/>
						<path class="st14" d="M77,43.5c0,0.1,0.1,0.2,0.1,0.2s0.2,0.1,0.4,0"/>
					</g>
				</g>
				<polyline class="st14" points="76,44.2 76,44 76.3,43.6 76.2,43.5 75.8,43.4 75.4,43.2 75.6,42.7 				"/>
				<polyline class="st12" points="74.5,45.5 73,46.4 73,51.4 76.7,53.5 80.4,51.3 80.4,46.3 78.7,45.3 				"/>
				<g>
					<defs>
						<rect id="SVGID_31_" x="3.9" y="-5.2" width="87.6" height="109.4"/>
					</defs>
					<clipPath id="SVGID_32_">
						<use xlink:href="#SVGID_31_"  style="overflow:visible;"/>
					</clipPath>
					<g class="st25">
						<path class="st14" d="M14.2,15.3c-0.8,0.1-1.3,0.8-1.3,1.6V18c0,0.4,0.7,0.8,1.5,0.8S16,18.4,16,18v-1.1
							c0-0.8-0.5-1.4-1.3-1.6v-0.2c0-0.1-0.1-0.2-0.3-0.2s-0.2,0.1-0.2,0.2L14.2,15.3z"/>
					</g>
				</g>
				<polyline class="st12" points="87.4,60.4 76.7,66.6 5.8,25.6 				"/>
				<polyline class="st12" points="38.8,80.6 36.7,79.4 34.8,80.5 37.4,82 38.8,81.2 				"/>
				<line class="st12" x1="38.8" y1="80.6" x2="36.7" y2="79.4"/>
				<line class="st12" x1="38.8" y1="82.3" x2="37.8" y2="81.8"/>
				<g>
					<defs>
						<rect id="SVGID_33_" x="3.9" y="-5.2" width="87.6" height="109.4"/>
					</defs>
					<clipPath id="SVGID_34_">
						<use xlink:href="#SVGID_33_"  style="overflow:visible;"/>
					</clipPath>
					<g class="st26">
						<path class="st12" d="M37.1,77.1c-0.2,0.2-0.4,0.5-0.4,0.8v1.5"/>
					</g>
				</g>
				<polyline class="st12" points="36.3,81.3 35.8,81.6 5.7,64.7 				"/>
				<line class="st12" x1="35.8" y1="81.6" x2="35.8" y2="81"/>
				<g>
					<defs>
						<rect id="SVGID_35_" x="3.9" y="-5.2" width="87.6" height="109.4"/>
					</defs>
					<clipPath id="SVGID_36_">
						<use xlink:href="#SVGID_35_"  style="overflow:visible;"/>
					</clipPath>
					<g class="st27">
						<path class="st12" d="M84.8,97.2v-5.7l-5.7,3.2v5.9l-2.5,1.5l-19.1-9l-15.3-7.7l-3.5-2v-4c-0.1-0.9-0.7-1.7-1.5-2.2
							c-0.5-0.3-1.1-0.1-1.4,0.4c-0.1,0.2-0.1,0.3-0.1,0.5v2"/>
					</g>
				</g>
				<polyline class="st12" points="80.8,97.6 80.8,96.1 79.9,96.7 79.9,98.2 				"/>
				<g>
					<defs>
						<rect id="SVGID_37_" x="3.9" y="-5.2" width="87.6" height="109.4"/>
					</defs>
					<clipPath id="SVGID_38_">
						<use xlink:href="#SVGID_37_"  style="overflow:visible;"/>
					</clipPath>
					<g class="st28">
						<path class="st12" d="M85.7,59.3l1.6,1.1v35.4l-2.5,1.5c-1.3-0.4-2.6-0.3-3.8,0.3l-1.3,0.8c-0.2,0.1-0.4,0.2-0.6,0.4"/>
					</g>
				</g>
				<polyline class="st14" points="36.4,34.2 41.6,31.1 41.6,29 29.3,20.9 21.6,25.3 				"/>
				<line class="st14" x1="41.6" y1="29" x2="36.4" y2="32.1"/>
				<g>
					<defs>
						<rect id="SVGID_39_" x="3.9" y="-5.2" width="87.6" height="109.4"/>
					</defs>
					<clipPath id="SVGID_40_">
						<use xlink:href="#SVGID_39_"  style="overflow:visible;"/>
					</clipPath>
					<g class="st29">
						<g class="st15">
							<path class="st0" d="M205,67.1c0.7,0.5,0.7,1.1,0.2,1.6l-0.6-0.5c0.2-0.2,0.2-0.5-0.2-0.8c-0.5-0.3-1.3-0.3-1.9,0.1
								c-0.6,0.4-0.8,0.8-0.3,1.2c0.4,0.3,0.8,0.3,1.2,0.2l0.6,0.5c-0.8,0.3-1.7,0.3-2.4-0.3c-0.8-0.6-0.8-1.4,0.2-2
								C202.9,66.5,204.2,66.5,205,67.1z"/>
						</g>
						<g class="st15">
							<path class="st0" d="M209.5,70.3l-2.1,2.8l-0.7-0.5l0.5-0.7l-1.2-0.8l-1.1,0.3l-0.7-0.5l4.5-1.1L209.5,70.3z M206.8,70.9
								l0.8,0.5l0.7-0.9L206.8,70.9z"/>
						</g>
						<g class="st15">
							<path class="st0" d="M211.8,71.9l2.7,1.9l-0.6,0.3l-1-0.7l-2.7,1.6l-0.7-0.5l2.7-1.6l-1-0.7L211.8,71.9z"/>
						</g>
						<g class="st15">
							<path class="st0" d="M218.9,76.8l-3.3,1.9l-0.7-0.5l1.4-0.8l-1.4-1l-1.4,0.8l-0.7-0.5l3.3-1.9l0.7,0.5l-1.3,0.8l1.4,1
								l1.3-0.8L218.9,76.8z"/>
							<path class="st0" d="M222.8,79.6l-0.6,0.3l-1.5-1l-0.7,0.4l1.3,0.9l-0.6,0.3l-1.3-0.9l-0.8,0.5l1.5,1l-0.6,0.4l-2.1-1.5
								l3.3-1.9L222.8,79.6z"/>
							<path class="st0" d="M223.1,82.4l-1.2,0.7l-0.6-0.5l3.3-1.9l1.3,0.9c0.7,0.5,0.7,1,0.1,1.4c-0.5,0.3-1.1,0.3-1.7,0.1
								l-0.4,1.3l-0.7-0.5l0.5-1.3L223.1,82.4z M223.7,82.1l0.6,0.4c0.3,0.2,0.7,0.2,1,0.1c0.3-0.2,0.3-0.4,0-0.6l-0.6-0.4
								L223.7,82.1z"/>
							<path class="st0" d="M226,86l-0.7-0.5l3.3-1.9l0.7,0.5L226,86z"/>
							<path class="st0" d="M230.5,89.1l-0.5-0.4l0.7-2.3l-2.2,1.3l-0.6-0.4l3.3-1.9l0.6,0.4l-0.7,2.2l2.1-1.2l0.6,0.4L230.5,89.1z"
								/>
							<path class="st0" d="M237.7,89.9l-0.6,0.3l-1.5-1l-0.7,0.4l1.3,0.9l-0.6,0.3l-1.3-0.9l-0.8,0.5l1.5,1l-0.6,0.4l-2.1-1.5
								l3.3-1.9L237.7,89.9z"/>
							<path class="st0" d="M241.8,92.7l0.7,0.5l-2.7,1.6l1.5,1l-0.6,0.4l-2.1-1.5L241.8,92.7z"/>
						</g>
						<g class="st15">
							<path class="st0" d="M244.9,99.1l-0.5-0.4l0.7-2.3l-2.2,1.3l-0.6-0.4l3.3-1.9l0.6,0.4l-0.7,2.2l2.1-1.2l0.6,0.4L244.9,99.1z"
								/>
						</g>
						<path class="st14" d="M272.4,95v-0.8c0-0.1-0.1-0.3-0.2-0.4"/>
						<path class="st14" d="M273,95.4v-1.2c0-0.3-0.3-0.7-0.9-0.3c-0.4,0.2-0.7,0.7-0.7,1.2v1.4l-7,4.1l-9.3-6.4l-11.7-8l-9.8-6.7
							l-14.5-10l-20.7-15V18.6l1.4-0.9"/>
						<path class="st14" d="M207.5,8.2c0.3,0.9,0.1,1.6-0.6,1.6s-1.4-0.7-1.7-1.6s-0.1-1.6,0.6-1.6S207.2,7.3,207.5,8.2z"/>
						<path class="st14" d="M209.1,8.2c-0.3,0.9-0.1,1.6,0.6,1.6s1.4-0.7,1.7-1.6s0.1-1.6-0.6-1.6S209.4,7.3,209.1,8.2z"/>
						<path class="st14" d="M206.4-0.2c0,0.1-0.2,0.3-0.2,0.3l0.1,0.3c0.1,0.2,0.6,0.3,1.4,0.1s2.4-1.1,2.6-2L210-2
							c-0.2,0-0.3,0-0.5,0"/>
						<path class="st14" d="M210.1-1c0.1,0.3,0.1,0.5,0,0.8c-0.2,1-1.2,1.7-2.2,1.5c-0.4-0.1-0.7-0.3-1-0.6l-0.1-0.1"/>
						<path class="st14" d="M206.5,0.2c-0.1-0.1-0.1-0.3-0.1-0.5c-0.2-1,0.5-2,1.5-2.1c0,0,0,0,0.1,0c0.6-0.1,1.2,0.1,1.6,0.6
							c0.1,0.1,0.2,0.3,0.3,0.4"/>
						<path class="st14" d="M209.6,1.8c0-0.1,0-0.1,0-0.2c0,0-0.1-0.1-0.1-0.1c-0.1,0-0.2,0-0.3,0.1V1.4l0.1-0.4"/>
						<path class="st14" d="M208.7,1.8c0,0.1,0.1,0.2,0.1,0.2c0,0.1,0.2,0.1,0.4,0"/>
						<path class="st14" d="M270.7,49.2c-0.7,0.2-1.3,0.8-1.3,1.6v1.1c0,0.4,0.7,0.8,1.5,0.8s1.5-0.4,1.5-0.8v-1.1
							c0-0.8-0.5-1.4-1.3-1.6V49c0-0.1-0.1-0.2-0.2-0.2s-0.3,0.1-0.3,0.2V49.2z"/>
					</g>
				</g>
				<polygon class="st2" points="29.3,34.6 29.3,37 45.1,46.2 45.1,43.8 				"/>
				<polygon class="st2" points="29.3,37 27.5,38.1 43.3,47.3 45.1,46.2 				"/>
				<polygon class="st2" points="41.6,29.6 41.7,30.3 54.3,38.6 54.9,38.3 				"/>
				<line class="st21" x1="29.3" y1="37.1" x2="45.1" y2="46.2"/>
			</g>
		</g>
	</g>
</g>
</svg>
