<?xml version="1.0" encoding="utf-8"?>
<!-- Generator: Adobe Illustrator 23.0.0, SVG Export Plug-In . SVG Version: 6.00 Build 0)  -->
<svg version="1.1" id="Layer_1" xmlns="http://www.w3.org/2000/svg" xmlns:xlink="http://www.w3.org/1999/xlink" x="0px" y="0px"
	 viewBox="0 0 189.9 92.6" style="enable-background:new 0 0 189.9 92.6;" xml:space="preserve">
<style type="text/css">
	.st0{fill:#D2D3D4;}
	.st1{clip-path:url(#SVGID_2_);}
	.st2{enable-background:new    ;}
	.st3{fill:#D1D3D4;}
	.st4{fill:none;stroke:#231F20;stroke-width:0.15;stroke-miterlimit:10;}
	.st5{fill:none;stroke:#231F20;stroke-width:0.14;stroke-miterlimit:10;}
	.st6{clip-path:url(#SVGID_4_);}
	.st7{clip-path:url(#SVGID_6_);}
	.st8{fill:none;stroke:#231F20;stroke-width:0.14;stroke-linejoin:bevel;}
	.st9{clip-path:url(#SVGID_8_);}
	.st10{clip-path:url(#SVGID_10_);}
	.st11{clip-path:url(#SVGID_12_);}
	.st12{clip-path:url(#SVGID_14_);}
	.st13{clip-path:url(#SVGID_16_);}
	.st14{fill:#231F20;}
	.st15{fill:none;stroke:#FFFFFF;stroke-width:0.15;stroke-miterlimit:10;}
	.st16{fill:#010101;}
	.st17{clip-path:url(#SVGID_18_);}
	.st18{fill:none;stroke:#D1D3D4;stroke-width:1.09;stroke-miterlimit:10;}
</style>
<title>residence_H_7-12_key_horizontal</title>
<g>
	<g>
		<path class="st0" d="M83.6,43.8c-0.6,0-1-0.4-1-1.1v-1.4H86v1.3c0,0.7-0.3,1.1-0.9,1.1c-0.3,0-0.6-0.2-0.7-0.4
			C84.2,43.6,83.9,43.8,83.6,43.8z M83.2,41.9v0.7c0,0.3,0.2,0.5,0.4,0.5s0.4-0.2,0.4-0.5v-0.7H83.2z M84.6,42.5
			c0,0.3,0.1,0.5,0.4,0.5s0.4-0.2,0.4-0.5v-0.6h-0.8V42.5z"/>
		<path class="st0" d="M83.8,46.2h-1.3v-0.7H86v1.4c0.1,0.5-0.3,1.1-0.8,1.2c-0.1,0-0.2,0-0.3,0c-0.5,0-0.9-0.3-1-0.8l-1.3,0.9v-0.8
			l1.3-0.8L83.8,46.2z M84.4,46.2v0.6c0,0.4,0.2,0.5,0.5,0.5s0.5-0.2,0.5-0.5v-0.6H84.4z"/>
		<path class="st0" d="M82.5,51.2c-0.1-1,0.6-1.8,1.6-1.9c1-0.1,1.8,0.6,1.9,1.6s-0.6,1.8-1.6,1.9c-0.1,0-0.1,0-0.2,0
			c-0.9,0.1-1.7-0.6-1.7-1.5C82.5,51.3,82.5,51.3,82.5,51.2z M85.4,51.2c0-0.5-0.4-0.9-1.1-0.9s-1.1,0.3-1.1,0.9s0.5,0.9,1.1,0.9
			S85.4,51.8,85.4,51.2z"/>
		<path class="st0" d="M86,56.1l-3.4,1.3v-0.7l0.8-0.3v-1.3l-0.8-0.3v-0.7l3.4,1.3V56.1z M84,55.4v0.8l1.1-0.4L84,55.4z"/>
		<path class="st0" d="M86,59v1.2c0,0.9-0.8,1.7-1.7,1.7c-0.9,0-1.7-0.8-1.7-1.7V59H86z M83.2,60.2c0,0.6,0.5,1.1,1.1,1.1
			c0.6,0,1.1-0.5,1.1-1.1v-0.5h-2.2L83.2,60.2z"/>
		<path class="st0" d="M86,65.7l-2.3,0.6l2.3,0.6v0.7l-3.4-0.9V66l2.2-0.6l-2.2-0.6v-0.6l3.4-0.9V64l-2.3,0.6l2.3,0.6V65.7z"/>
		<path class="st0" d="M86,70.7L82.6,72v-0.7l0.8-0.3v-1.3l-0.8-0.3v-0.7L86,70V70.7z M84,69.9v0.8l1.1-0.4L84,69.9z"/>
		<path class="st0" d="M86,75.3v0.7l-2.1-1.2h-1.3v-0.7h1.3l2.1-1.2v0.8l-1.4,0.8L86,75.3z"/>
		<path class="st0" d="M180.9,35.1v0.7h-2.8v1.6h-0.6v-2.3H180.9z"/>
		<path class="st0" d="M180.9,40.8l-3.4,1.3v-0.7l0.8-0.3v-1.3l-0.8-0.3v-0.7l3.4,1.3V40.8z M179,40v0.8l1.1-0.4L179,40z"/>
		<path class="st0" d="M177.6,43.7h3.4V46h-0.6v-1.6h-0.9v1.4h-0.6v-1.4h-1.3V43.7z"/>
		<path class="st0" d="M180.9,49.2l-3.4,1.3v-0.7l0.8-0.3v-1.3l-0.8-0.3v-0.7l3.4,1.3V49.2z M178.9,48.4v0.8l1.1-0.4L178.9,48.4z"/>
		<path class="st0" d="M180.9,53.9v0.7l-2.1-1.2h-1.3v-0.7h1.3l2.1-1.2v0.8l-1.4,0.8L180.9,53.9z"/>
		<path class="st0" d="M180.9,58.5h-0.6v-1.6h-0.7v1.5H179v-1.5h-0.8v1.6h-0.6v-2.3h3.4L180.9,58.5z"/>
		<path class="st0" d="M180.9,60.1V63h-0.6v-1.1h-2.8v-0.7h2.8v-1.1H180.9z"/>
		<path class="st0" d="M180.9,64.4v2.9h-0.6v-1.1h-2.8v-0.7h2.8v-1.1H180.9z"/>
		<path class="st0" d="M180.9,71.3h-0.6v-1.6h-0.7v1.5H179v-1.5h-0.8v1.6h-0.6V69h3.4L180.9,71.3z"/>
		<path class="st0" d="M178.5,75.9c-0.3,0.1-0.5,0.4-0.4,0.7c0,0.3,0.2,0.6,0.4,0.6s0.3-0.1,0.4-0.4l0.1-0.6c0-0.5,0.4-0.9,0.9-0.8
			c0.6,0,1,0.6,1,1.1c0,0,0,0,0,0.1c0.1,0.6-0.4,1.2-1,1.3v-0.7c0.3-0.1,0.4-0.4,0.4-0.6c0-0.3-0.2-0.5-0.4-0.5s-0.3,0.1-0.4,0.4
			l-0.1,0.6c-0.1,0.6-0.4,0.9-0.9,0.9c-0.6,0-1.1-0.5-1.1-1.2c0,0,0-0.1,0-0.1c-0.1-0.7,0.4-1.3,1-1.4L178.5,75.9L178.5,75.9z"/>
		<path class="st0" d="M180.9,79.3v2.9h-0.6v-1.1h-2.8v-0.7h2.8v-1.1H180.9z"/>
		<path class="st0" d="M112.4,39.3h0.7v2.8h1.6v0.6h-2.3V39.3z"/>
		<path class="st0" d="M118.6,39.3v0.6H117v0.7h1.4v0.6H117v0.8h1.6v0.6h-2.3v-3.4H118.6z"/>
		<path class="st0" d="M121.6,42.7c-1,0.1-1.8-0.6-1.9-1.6c-0.1-1,0.6-1.8,1.6-1.9c1-0.1,1.8,0.6,1.9,1.6c0,0.1,0,0.1,0,0.2
			c0.1,0.9-0.6,1.7-1.5,1.7C121.7,42.7,121.7,42.7,121.6,42.7z M121.6,39.9c-0.5,0-0.9,0.5-0.9,1.1s0.3,1.1,0.9,1.1s0.9-0.5,0.9-1.1
			S122.2,39.9,121.6,39.9z"/>
		<path class="st0" d="M127.7,42.7h-0.6l-1.6-2.2v2.2h-0.7v-3.4h0.7l1.5,2.1v-2.1h0.7L127.7,42.7z"/>
		<path class="st0" d="M131.2,39.3l1.3,3.4h-0.7l-0.3-0.8h-1.3l-0.3,0.8h-0.7l1.3-3.4H131.2z M130.4,41.3h0.8l-0.4-1.1L130.4,41.3z"
			/>
		<path class="st0" d="M134.6,41.4v1.3H134v-3.4h1.4c0.6-0.1,1.1,0.3,1.2,0.9c0,0.1,0,0.1,0,0.2c0,0.5-0.3,0.9-0.8,1l0.9,1.3h-0.8
			l-0.9-1.3H134.6z M134.6,40.8h0.6c0.4,0,0.5-0.2,0.5-0.5s-0.2-0.5-0.5-0.5h-0.6V40.8z"/>
		<path class="st0" d="M138.1,39.3h1.2c0.9,0,1.7,0.8,1.7,1.7c0,0.9-0.8,1.7-1.7,1.7h-1.2V39.3z M139.3,42.1c0.6,0,1.1-0.5,1.1-1.1
			c0-0.6-0.5-1.1-1.1-1.1h-0.5v2.1H139.3z"/>
		<path class="st0" d="M145.4,41.7c0.1,0.3,0.4,0.5,0.7,0.4c0.3,0,0.6-0.2,0.6-0.4s-0.1-0.3-0.4-0.4l-0.6-0.1
			c-0.5-0.1-0.9-0.4-0.9-0.9c0-0.6,0.6-1,1.2-1c0,0,0,0,0,0c0.6-0.1,1.2,0.4,1.3,1h-0.7c-0.1-0.3-0.3-0.4-0.6-0.4
			c-0.3,0-0.5,0.2-0.5,0.4s0.1,0.3,0.4,0.4l0.6,0.1c0.6,0.1,0.9,0.4,0.9,1c0,0.7-0.5,1-1.2,1c-0.7,0.1-1.3-0.4-1.4-1L145.4,41.7z"/>
		<path class="st0" d="M148.6,39.3h2.9v0.6h-1.1v2.8h-0.7v-2.8h-1.1V39.3z"/>
		<path class="st0" d="M109.9,74.6c0.7,0,1.3,0.4,1.4,1.1h-0.7c-0.1-0.3-0.4-0.5-0.7-0.5c-0.5,0-0.8,0.5-0.8,1.1s0.3,1.1,0.8,1.1
			c0.3,0,0.6-0.2,0.7-0.5h0.7c-0.1,0.7-0.7,1.2-1.4,1.1c-1-0.1-1.7-1-1.6-1.9C108.4,75.3,109.1,74.6,109.9,74.6L109.9,74.6z"/>
		<path class="st0" d="M114.7,74.6l1.3,3.4h-0.7l-0.3-0.8h-1.3l-0.3,0.8h-0.7l1.3-3.4H114.7z M113.9,76.6h0.8l-0.4-1.1L113.9,76.6z"
			/>
		<path class="st0" d="M117,74.6h2.9v0.6h-1.1V78h-0.7v-2.8H117V74.6z"/>
		<path class="st0" d="M124.5,74.6V78h-0.7v-1.4h-1.5V78h-0.7v-3.4h0.7v1.3h1.5v-1.3H124.5z"/>
		<path class="st0" d="M128.7,74.6v0.6h-1.6V76h1.5v0.6h-1.4v0.8h1.6V78h-2.3v-3.4H128.7z"/>
		<path class="st0" d="M131.1,76.7V78h-0.7v-3.4h1.4c0.5-0.1,1.1,0.2,1.2,0.8c0,0.1,0,0.2,0,0.3c0,0.5-0.3,0.9-0.8,1l0.9,1.3h-0.8
			l-0.8-1.3L131.1,76.7z M131.1,76.1h0.6c0.4,0,0.5-0.2,0.5-0.5s-0.2-0.5-0.5-0.5h-0.6V76.1z"/>
		<path class="st0" d="M135.4,78h-0.7v-3.4h0.7V78z"/>
		<path class="st0" d="M140.1,78h-0.6l-1.6-2.3V78h-0.7v-3.4h0.7l1.5,2.1v-2.1h0.7L140.1,78z"/>
		<path class="st0" d="M144.2,74.6v0.6h-1.6V76h1.4v0.6h-1.4v0.8h1.6V78H142v-3.4H144.2z"/>
		<path class="st0" d="M148.4,74.6h0.7v2.8h1.6V78h-2.3V74.6z"/>
		<path class="st0" d="M155.2,78h-0.6l-1.6-2.2V78h-0.7v-3.4h0.6l1.5,2.1v-2.1h0.7L155.2,78L155.2,78z"/>
		<g>
			<defs>
				<rect id="SVGID_1_" x="6.6" y="5.8" width="65.6" height="72.2"/>
			</defs>
			<clipPath id="SVGID_2_">
				<use xlink:href="#SVGID_1_"  style="overflow:visible;"/>
			</clipPath>
			<g class="st1">
				<g class="st2">
					<path class="st3" d="M12.6,56.3l0.5,0.3l-1.9,1.2l1.1,0.7l-0.4,0.3l-1.6-1L12.6,56.3z"/>
					<path class="st3" d="M17,59.1l-0.4,0.3l-1.1-0.7L15,59l1,0.6l-0.4,0.3l-1-0.6L14,59.6l1.1,0.7l-0.4,0.3l-1.6-1l2.3-1.5L17,59.1
						z"/>
					<path class="st3" d="M17,62.1c-0.7-0.4-0.6-1,0.1-1.5c0.7-0.5,1.7-0.5,2.3-0.1c0.7,0.4,0.6,1-0.1,1.5
						C18.6,62.4,17.6,62.5,17,62.1z M19,60.8c-0.4-0.2-0.9-0.2-1.4,0.1c-0.5,0.3-0.5,0.7-0.2,0.9c0.4,0.2,0.9,0.2,1.4-0.1
						C19.3,61.4,19.3,61,19,60.8z"/>
					<path class="st3" d="M21.4,64.8L21,64.5l0.4-1.7l-1.6,1l-0.5-0.3l2.3-1.5l0.5,0.3l-0.4,1.6l1.5-1l0.5,0.3L21.4,64.8z"/>
					<path class="st3" d="M26.3,64.9l-1.4,2.1l-0.5-0.3l0.4-0.5l-0.9-0.6l-0.8,0.2l-0.5-0.3l3.2-1L26.3,64.9z M24.4,65.4l0.6,0.4
						l0.5-0.7L24.4,65.4z"/>
					<path class="st3" d="M27.4,67.4L26.6,68l-0.5-0.3l2.3-1.5l1,0.6c0.5,0.3,0.6,0.7,0.1,1c-0.4,0.2-0.8,0.3-1.2,0.1l-0.3,1
						l-0.6-0.3l0.3-0.9L27.4,67.4z M27.8,67.2l0.5,0.3c0.2,0.2,0.5,0.1,0.7,0c0.2-0.1,0.2-0.3,0-0.4l-0.5-0.3L27.8,67.2z"/>
					<path class="st3" d="M31.5,68.1l0.8,0.5c0.7,0.4,0.7,1,0,1.5s-1.6,0.5-2.3,0l-0.8-0.5L31.5,68.1z M30.4,69.8
						c0.5,0.3,1,0.2,1.4,0c0.5-0.3,0.5-0.6,0-0.9l-0.3-0.2l-1.5,1L30.4,69.8z"/>
				</g>
				<g class="st2">
					<path class="st3" d="M35.1,72.5c-0.1,0.2-0.1,0.3,0.2,0.5c0.2,0.1,0.5,0.2,0.7,0.1c0.1-0.1,0.1-0.2,0-0.4l-0.3-0.3
						c-0.3-0.3-0.3-0.5,0-0.8c0.4-0.3,1.1-0.2,1.6,0.1c0.5,0.3,0.6,0.7,0.3,1L37,72.4c0.1-0.1,0.1-0.3-0.2-0.5
						c-0.2-0.1-0.5-0.2-0.6-0.1c-0.1,0.1-0.1,0.2,0,0.3l0.3,0.3c0.3,0.3,0.3,0.6,0,0.8c-0.5,0.3-1.1,0.2-1.6-0.1
						c-0.5-0.3-0.6-0.7-0.3-1.1L35.1,72.5z"/>
				</g>
				<g class="st2">
					<path class="st3" d="M39.3,72.9l2,1.3l-0.4,0.3L40.1,74l-1.9,1.2l-0.5-0.3l1.9-1.2l-0.8-0.5L39.3,72.9z"/>
				</g>
				<line class="st4" x1="59.3" y1="46.7" x2="59.3" y2="43.3"/>
				<line class="st4" x1="14.2" y1="19.6" x2="14.2" y2="16.8"/>
				<line class="st4" x1="23.6" y1="23.3" x2="23.6" y2="24.8"/>
				<line class="st4" x1="19.4" y1="20.9" x2="19.4" y2="22.5"/>
				<line class="st4" x1="24.7" y1="22.6" x2="24.7" y2="24.2"/>
				<line class="st5" x1="24.7" y1="24.2" x2="23.6" y2="24.8"/>
				<line class="st5" x1="24.6" y1="22.7" x2="23.6" y2="23.3"/>
				<line class="st5" x1="53.2" y1="36.1" x2="48.6" y2="38.8"/>
				<line class="st5" x1="56.6" y1="38.9" x2="52.8" y2="41.1"/>
				<line class="st4" x1="30.2" y1="25.8" x2="30.2" y2="27.4"/>
				<line class="st5" x1="34" y1="24.5" x2="52.3" y2="36.6"/>
				<line class="st5" x1="53.1" y1="36.1" x2="56.6" y2="38.4"/>
				<line class="st5" x1="34" y1="24" x2="52.7" y2="36.3"/>
				<line class="st5" x1="12" y1="18.7" x2="13.9" y2="19.8"/>
				<line class="st5" x1="19.4" y1="20.9" x2="23.6" y2="23.3"/>
				<line class="st5" x1="24.7" y1="22.7" x2="30.2" y2="25.9"/>
				<line class="st5" x1="24.7" y1="24.2" x2="30.2" y2="27.4"/>
				<line class="st5" x1="48.6" y1="38.8" x2="52.8" y2="41.1"/>
				<line class="st4" x1="59.3" y1="36.9" x2="59.3" y2="35.3"/>
				<polyline class="st4" points="52.4,44.3 51.7,43.9 50.9,44.4 15.3,23.8 15.3,22 				"/>
				<polyline class="st4" points="24.2,18.1 20.7,15.8 12.7,20.5 50.9,42.6 				"/>
				<line class="st4" x1="50.9" y1="42.6" x2="50.9" y2="44.4"/>
				<line class="st4" x1="51.7" y1="42.1" x2="50.9" y2="42.6"/>
				<polyline class="st4" points="51.7,43.9 51.7,42.1 48.6,40.3 				"/>
				<line class="st4" x1="59.3" y1="49.9" x2="59.3" y2="48"/>
				<polyline class="st4" points="63.5,42.6 65.9,44.1 65.9,46.1 59.3,49.9 52.4,45.8 52.4,43.9 55.2,42.3 				"/>
				<polyline class="st4" points="65.9,44.1 59.3,48 52.4,43.9 				"/>
				<polyline class="st5" points="13.4,20.9 13.4,21.9 15.3,23 				"/>
				<line class="st5" x1="19.4" y1="22.5" x2="23.6" y2="24.9"/>
				<line class="st5" x1="48.6" y1="40.3" x2="48.6" y2="38.8"/>
				<line class="st5" x1="52.8" y1="43.7" x2="52.8" y2="41.2"/>
				<polyline class="st5" points="62,36.1 59.3,37.7 56.6,36.2 				"/>
				<polyline class="st4" points="62,39.6 62.3,39.7 62.3,40.9 59.3,42.6 56.3,40.9 56.3,39.8 56.6,39.6 				"/>
				<line class="st4" x1="59.3" y1="42.6" x2="59.3" y2="37.7"/>
				<polyline class="st4" points="62.3,40.1 63.5,40.8 63.5,44.2 59.3,46.7 55.2,44.3 55.2,40.9 56.3,40.2 				"/>
				<polyline class="st4" points="63.5,40.8 59.3,43.3 55.2,40.9 				"/>
				<polyline class="st4" points="12,18.7 7.9,21.1 7.9,49.5 				"/>
				<polyline class="st4" points="16.5,16.1 19.3,14.4 24.6,17.9 				"/>
				<line class="st4" x1="59.3" y1="50.8" x2="59.3" y2="76.4"/>
				<line class="st4" x1="59.3" y1="76.4" x2="31.9" y2="60.5"/>
				<polyline class="st4" points="67.1,50.6 59.3,55.1 8,25.4 				"/>
				<polyline class="st4" points="67.1,52.7 59.3,57.2 8,27.5 				"/>
				<polyline class="st4" points="67.1,54.8 59.3,59.4 8,29.6 				"/>
				<polyline class="st4" points="67.1,57 59.3,61.5 8,31.8 				"/>
				<polyline class="st4" points="67.1,59.1 59.3,63.6 8,33.9 				"/>
				<polyline class="st4" points="67.1,61.2 59.3,65.8 8,36 				"/>
				<polyline class="st4" points="67.1,63.4 59.3,67.9 8,38.2 				"/>
				<polyline class="st4" points="67.1,65.5 59.3,70 8,40.3 				"/>
				<line class="st4" x1="67.1" y1="67.7" x2="65.2" y2="68.7"/>
				<polyline class="st4" points="61.1,71.1 59.3,72.2 8,42.5 				"/>
				<line class="st4" x1="65.2" y1="70.8" x2="67.1" y2="69.8"/>
				<polyline class="st4" points="61.1,73.2 59.3,74.3 8,44.6 				"/>
				<polyline class="st4" points="67.1,48.4 59.3,53 8,23.2 				"/>
				<line class="st4" x1="29.7" y1="59.3" x2="8" y2="46.7"/>
				<polyline class="st5" points="13.2,14.9 12,15.6 12,18.7 				"/>
				<polyline class="st5" points="15.4,14.9 16.5,15.5 16.5,18.3 				"/>
				<polyline class="st5" points="12,15.6 14.2,16.8 16.5,15.5 				"/>
				<polyline class="st4" points="60.2,34 60.8,34.4 60.8,36 59.3,36.9 57.8,36 57.8,34.4 58.5,33.9 				"/>
				<polyline class="st5" points="60.8,34.4 59.3,35.3 57.8,34.4 				"/>
				<g>
					<defs>
						<rect id="SVGID_3_" x="6.7" y="5.8" width="65.5" height="72.2"/>
					</defs>
					<clipPath id="SVGID_4_">
						<use xlink:href="#SVGID_3_"  style="overflow:visible;"/>
					</clipPath>
					<g class="st6">
						<path class="st4" d="M57.9,32.6c-0.1,0.1-0.1,0.2-0.2,0.2l0.1,0.2c0.1,0.1,0.4,0.2,1,0.1s1.8-0.8,1.9-1.4l-0.2-0.4
							c-0.1,0-0.2,0-0.4,0"/>
					</g>
				</g>
				<polyline class="st4" points="58.4,30.3 59.2,30.6 59.5,30.5 60,29.8 				"/>
				<g>
					<defs>
						<rect id="SVGID_5_" x="6.7" y="5.8" width="65.5" height="72.2"/>
					</defs>
					<clipPath id="SVGID_6_">
						<use xlink:href="#SVGID_5_"  style="overflow:visible;"/>
					</clipPath>
					<g class="st7">
						<path class="st4" d="M60.5,32c0.2,0.7-0.3,1.4-1,1.6c-0.2,0-0.4,0-0.5,0c-0.3-0.1-0.5-0.2-0.7-0.4l0,0"/>
						<path class="st4" d="M58,32.9c0-0.1-0.1-0.2-0.1-0.3c-0.1-0.7,0.4-1.4,1.1-1.5c0.4-0.1,0.9,0.1,1.2,0.4
							c0.1,0.1,0.2,0.2,0.2,0.3"/>
						<path class="st4" d="M58.7,38.7c0.2,0.7,0,1.2-0.4,1.2s-1-0.5-1.2-1.2s0-1.2,0.4-1.2S58.5,38.1,58.7,38.7z"/>
						<path class="st4" d="M59.9,38.7c-0.2,0.6,0,1.2,0.4,1.2s1-0.5,1.2-1.2s0-1.2-0.4-1.2S60.1,38.1,59.9,38.7z"/>
						<path class="st8" d="M60.2,34.1c0,0,0-0.1,0-0.2c0,0,0-0.1-0.1-0.1c-0.1,0-0.2,0-0.2,0v-0.1l0.1-0.3"/>
						<path class="st5" d="M59.6,34.1c0,0.1,0,0.1,0.1,0.2s0.1,0.1,0.3,0"/>
					</g>
				</g>
				<polyline class="st5" points="58.9,34.6 58.9,34.5 59,34.2 59,34.1 58.7,34 58.4,33.8 58.5,33.5 				"/>
				<polyline class="st4" points="57.8,35.5 56.6,36.2 56.6,39.8 59.3,41.3 62,39.8 62,36.1 60.8,35.4 				"/>
				<g>
					<defs>
						<rect id="SVGID_7_" x="6.7" y="5.8" width="65.5" height="72.2"/>
					</defs>
					<clipPath id="SVGID_8_">
						<use xlink:href="#SVGID_7_"  style="overflow:visible;"/>
					</clipPath>
					<g class="st9">
						<path class="st5" d="M14.1,13.6c-0.5,0.1-0.9,0.6-0.9,1.1v0.8c0,0.3,0.5,0.6,1.1,0.6s1.1-0.2,1.1-0.6v-0.8
							c0-0.6-0.4-1-0.9-1.1v-0.1c0-0.1-0.1-0.1-0.2-0.1s-0.2,0.1-0.2,0.1L14.1,13.6z"/>
					</g>
				</g>
				<polyline class="st4" points="67.1,46.3 59.3,50.8 8,21.1 				"/>
				<polyline class="st4" points="31.9,60.9 30.4,60.1 29,60.8 30.9,61.9 31.9,61.4 				"/>
				<line class="st4" x1="31.9" y1="60.9" x2="30.4" y2="60.1"/>
				<line class="st4" x1="31.9" y1="62.2" x2="31.2" y2="61.8"/>
				<g>
					<defs>
						<rect id="SVGID_9_" x="6.7" y="5.8" width="65.5" height="72.2"/>
					</defs>
					<clipPath id="SVGID_10_">
						<use xlink:href="#SVGID_9_"  style="overflow:visible;"/>
					</clipPath>
					<g class="st10">
						<path class="st4" d="M30.7,58.4c-0.2,0.2-0.3,0.4-0.3,0.6v1.1"/>
					</g>
				</g>
				<polyline class="st4" points="30.1,61.5 29.7,61.7 7.9,49.4 				"/>
				<line class="st4" x1="29.7" y1="61.7" x2="29.7" y2="61.2"/>
				<g>
					<defs>
						<rect id="SVGID_11_" x="6.7" y="5.8" width="65.5" height="72.2"/>
					</defs>
					<clipPath id="SVGID_12_">
						<use xlink:href="#SVGID_11_"  style="overflow:visible;"/>
					</clipPath>
					<g class="st11">
						<path class="st4" d="M65.2,73v-4.2l-4.1,2.3v4.2l-1.8,1.1l-13.8-6.5l-11.1-5.6l-2.5-1.4V60c-0.1-0.7-0.5-1.3-1.1-1.6
							c-0.3-0.2-0.8-0.1-1,0.2c-0.1,0.1-0.1,0.3-0.1,0.4v1.4"/>
					</g>
				</g>
				<polyline class="st4" points="62.3,73.3 62.3,72.2 61.7,72.6 61.7,73.7 				"/>
				<g>
					<defs>
						<rect id="SVGID_13_" x="6.7" y="5.8" width="65.5" height="72.2"/>
					</defs>
					<clipPath id="SVGID_14_">
						<use xlink:href="#SVGID_13_"  style="overflow:visible;"/>
					</clipPath>
					<g class="st12">
						<path class="st4" d="M65.9,45.5l1.2,0.8v25.6L65.2,73c-0.9-0.3-1.9-0.2-2.8,0.2l-0.9,0.6c-0.2,0.1-0.3,0.2-0.4,0.3"/>
					</g>
				</g>
				<polyline class="st5" points="30.2,27.4 34,25.1 34,23.6 25,17.7 19.4,20.9 				"/>
				<line class="st5" x1="34" y1="23.6" x2="30.2" y2="25.8"/>
				<g>
					<defs>
						<rect id="SVGID_15_" x="6.7" y="5.8" width="65.5" height="72.2"/>
					</defs>
					<clipPath id="SVGID_16_">
						<use xlink:href="#SVGID_15_"  style="overflow:visible;"/>
					</clipPath>
					<g class="st13">
						<g class="st2">
							<path class="st3" d="M152.3,51.2c0.5,0.4,0.5,0.8,0.1,1.1L152,52c0.1-0.2,0.1-0.4-0.1-0.5c-0.4-0.3-0.9-0.2-1.4,0.1
								c-0.5,0.3-0.6,0.6-0.2,0.9c0.3,0.2,0.6,0.2,0.9,0.1l0.5,0.3c-0.6,0.2-1.2,0.2-1.8-0.2c-0.6-0.4-0.6-1,0.2-1.5
								C150.7,50.7,151.7,50.7,152.3,51.2z"/>
						</g>
						<g class="st2">
							<path class="st3" d="M155.5,53.5l-1.5,2l-0.5-0.3l0.4-0.5L153,54l-0.8,0.2l-0.5-0.3l3.3-0.8L155.5,53.5z M153.6,53.9l0.6,0.4
								l0.5-0.7L153.6,53.9z"/>
						</g>
						<g class="st2">
							<path class="st3" d="M157.2,54.6l1.9,1.4l-0.4,0.3l-0.7-0.5l-2,1.1l-0.5-0.3l2-1.1l-0.7-0.5L157.2,54.6z"/>
							<path class="st3" d="M162.3,58.2l-2.4,1.4l-0.5-0.3l1-0.6l-1-0.7l-1,0.6l-0.5-0.3l2.4-1.4l0.5,0.3l-0.9,0.6l1,0.7l0.9-0.6
								L162.3,58.2z"/>
							<path class="st3" d="M165.2,60.2l-0.4,0.3l-1.1-0.8l-0.5,0.3l1,0.7l-0.4,0.2l-1-0.7l-0.6,0.3l1.1,0.8l-0.4,0.3l-1.5-1.1
								l2.4-1.4L165.2,60.2z"/>
							<path class="st3" d="M165.4,62.2l-0.9,0.5l-0.5-0.3l2.4-1.4l0.9,0.7c0.5,0.3,0.5,0.7,0,1c-0.4,0.2-0.8,0.2-1.2,0l-0.3,1
								l-0.5-0.4l0.3-0.9L165.4,62.2z M165.8,62l0.4,0.3c0.2,0.2,0.5,0.2,0.7,0.1c0.2-0.1,0.2-0.3,0-0.4l-0.4-0.3L165.8,62z"/>
							<path class="st3" d="M167.5,64.8l-0.5-0.3l2.4-1.4l0.5,0.3L167.5,64.8z"/>
							<path class="st3" d="M170.7,67.1l-0.4-0.3l0.5-1.7l-1.6,0.9l-0.5-0.3l2.4-1.4l0.4,0.3l-0.5,1.6l1.5-0.9l0.5,0.3L170.7,67.1z"
								/>
							<path class="st3" d="M176,67.7l-0.4,0.3l-1.1-0.8l-0.5,0.3l1,0.7l-0.4,0.2l-1-0.7l-0.6,0.3l1.1,0.8l-0.4,0.3L172,68l2.4-1.4
								L176,67.7z"/>
							<path class="st3" d="M178.9,69.7l0.5,0.3l-2,1.1l1.1,0.7l-0.4,0.3l-1.5-1.1L178.9,69.7z"/>
						</g>
						<g class="st2">
							<path class="st3" d="M181.1,74.3l-0.4-0.3l0.5-1.7l-1.6,0.9l-0.5-0.3l2.4-1.4l0.4,0.3l-0.5,1.6l1.5-0.9l0.5,0.3L181.1,74.3z"
								/>
						</g>
						<path class="st5" d="M201.5,71.6v-0.9c0-0.2-0.2-0.5-0.6-0.2c-0.3,0.2-0.5,0.5-0.5,0.8v1l-5.1,3l-6.7-4.6l-8.5-5.8L173,60
							l-10.5-7.2l-15-10.8V16.1l1-0.6"/>
						<path class="st5" d="M154.1,8.5c0.2,0.6,0.1,1.2-0.4,1.2s-1-0.5-1.2-1.2s-0.1-1.2,0.4-1.2S153.8,7.9,154.1,8.5z"/>
						<path class="st5" d="M155.2,8.5c-0.2,0.6,0,1.2,0.4,1.2s1-0.5,1.2-1.2s0-1.2-0.4-1.2S155.4,7.9,155.2,8.5z"/>
						<path class="st5" d="M153.2,2.4c-0.1,0.1-0.1,0.2-0.2,0.2l0.1,0.2c0.1,0.1,0.4,0.2,1,0.1s1.8-0.8,1.9-1.4l-0.2-0.4
							c-0.1,0-0.2,0-0.4,0"/>
						<path class="st5" d="M155.9,1.9c0,0.2,0,0.4,0,0.6c-0.2,0.7-0.9,1.2-1.6,1c-0.3-0.1-0.5-0.2-0.7-0.4h-0.1"/>
						<path class="st5" d="M153.3,2.7c0-0.1-0.1-0.2-0.1-0.3c-0.1-0.7,0.4-1.4,1.1-1.5c0,0,0,0,0,0c0.4-0.1,0.9,0.1,1.2,0.4
							c0.1,0.1,0.2,0.2,0.2,0.3"/>
						<path class="st5" d="M155.6,3.9c0,0,0-0.1,0-0.2c0,0,0-0.1-0.1-0.1c-0.1,0-0.2,0-0.2,0V3.6l0.1-0.3"/>
						<path class="st5" d="M154.9,3.9c0,0,0,0.1,0.1,0.2c0.1,0,0.1,0.1,0.3,0"/>
					</g>
				</g>
				<polygon class="st14" points="20,30.2 20,43 24.9,45.9 24.9,33 				"/>
				<line class="st15" x1="20" y1="32.3" x2="24.9" y2="35.2"/>
				<line class="st15" x1="20" y1="34.5" x2="24.9" y2="37.3"/>
				<line class="st15" x1="20" y1="36.6" x2="24.9" y2="39.5"/>
				<line class="st15" x1="20" y1="38.8" x2="24.9" y2="41.6"/>
				<line class="st15" x1="20" y1="40.9" x2="24.9" y2="43.8"/>
			</g>
		</g>
	</g>
	<g id="_4-6_H">
		<polygon class="st16" points="142.3,52.1 150.9,52.1 150.9,58.9 150.4,58.9 143.8,58.8 143.8,57.6 142.7,57.6 142.7,57.7 
			142,57.7 142,54.5 142.3,54.5 		"/>
		<g>
			<defs>
				<rect id="SVGID_17_" x="92.8" y="50.8" width="76.6" height="17.3"/>
			</defs>
			<clipPath id="SVGID_18_">
				<use xlink:href="#SVGID_17_"  style="overflow:visible;"/>
			</clipPath>
			<g class="st17">
				<polygon class="st18" points="167.6,52 167.6,67 93.8,62.4 93.8,52 				"/>
			</g>
		</g>
	</g>
</g>
</svg>
