<?xml version="1.0" encoding="utf-8"?>
<!-- Generator: Adobe Illustrator 23.0.0, SVG Export Plug-In . SVG Version: 6.00 Build 0)  -->
<svg version="1.1" id="Layer_1" xmlns="http://www.w3.org/2000/svg" xmlns:xlink="http://www.w3.org/1999/xlink" x="0px" y="0px"
	 viewBox="0 0 200.6 198.9" style="enable-background:new 0 0 200.6 198.9;" xml:space="preserve">
<style type="text/css">
	.st0{enable-background:new    ;}
	.st1{fill:#D1D3D4;}
	.st2{fill:#010101;}
	.st3{clip-path:url(#SVGID_2_);}
	.st4{fill:none;stroke:#D1D3D4;stroke-width:1.09;stroke-miterlimit:10;}
	.st5{clip-path:url(#SVGID_4_);}
	.st6{fill:none;stroke:#231F20;stroke-width:0.15;stroke-miterlimit:10;}
	.st7{fill:none;stroke:#231F20;stroke-width:0.14;stroke-miterlimit:10;}
	.st8{clip-path:url(#SVGID_6_);}
	.st9{clip-path:url(#SVGID_8_);}
	.st10{fill:none;stroke:#231F20;stroke-width:0.14;stroke-linejoin:bevel;}
	.st11{clip-path:url(#SVGID_10_);}
	.st12{clip-path:url(#SVGID_12_);}
	.st13{clip-path:url(#SVGID_14_);}
	.st14{clip-path:url(#SVGID_16_);}
	.st15{clip-path:url(#SVGID_18_);}
	.st16{fill:#231F20;}
	.st17{fill:none;stroke:#FFFFFF;stroke-width:0.15;stroke-miterlimit:10;}
	.st18{clip-path:url(#SVGID_20_);}
	.st19{clip-path:url(#SVGID_22_);}
	.st20{clip-path:url(#SVGID_24_);}
	.st21{clip-path:url(#SVGID_26_);}
	.st22{clip-path:url(#SVGID_28_);}
	.st23{clip-path:url(#SVGID_30_);}
</style>
<title>residence_C_3-6_key</title>
<g>
	<g id="Layer_1_copy">
		<g>
			<g class="st0">
				<path class="st1" d="M34,143.2c-0.8,0-1.2-0.5-1.2-1.4V140h4.3v1.6c0,0.9-0.4,1.5-1.2,1.5c-0.5,0-0.8-0.3-0.9-0.6
					C34.9,142.9,34.5,143.2,34,143.2z M33.6,140.8v0.8c0,0.4,0.2,0.6,0.5,0.6c0.3,0,0.5-0.2,0.5-0.6v-0.8H33.6z M35.3,141.5
					c0,0.4,0.2,0.7,0.5,0.7c0.3,0,0.5-0.2,0.5-0.7v-0.7h-1V141.5z"/>
				<path class="st1" d="M34.4,145.7h-1.6v-0.9h4.3v1.8c0,0.9-0.5,1.5-1.4,1.5c-0.7,0-1.1-0.4-1.3-1l-1.7,1.1v-1l1.6-1.1V145.7z
					 M35.1,145.7v0.8c0,0.4,0.2,0.7,0.6,0.7c0.4,0,0.6-0.2,0.6-0.7v-0.8H35.1z"/>
			</g>
			<g class="st0">
				<path class="st1" d="M32.7,152.7c0-1.2,0.9-2,2.2-2c1.3,0,2.2,0.8,2.2,2c0,1.2-0.9,2-2.2,2C33.7,154.7,32.7,153.9,32.7,152.7z
					 M36.4,152.7c0-0.7-0.6-1.1-1.4-1.1c-0.8,0-1.4,0.4-1.4,1.1c0,0.7,0.6,1.1,1.4,1.1C35.8,153.8,36.4,153.4,36.4,152.7z"/>
			</g>
			<g class="st0">
				<path class="st1" d="M37.1,158.9l-4.3,1.6v-0.9l1-0.4v-1.6l-1-0.4v-0.9l4.3,1.6V158.9z M34.6,157.9v1.1l1.4-0.5L34.6,157.9z"/>
			</g>
			<g class="st0">
				<path class="st1" d="M37.1,162.6v1.5c0,1.3-0.8,2.1-2.2,2.1s-2.2-0.8-2.2-2.1v-1.5H37.1z M33.6,164.1c0,0.8,0.5,1.3,1.4,1.3
					c0.8,0,1.4-0.4,1.4-1.3v-0.6h-2.7V164.1z"/>
			</g>
			<g class="st0">
				<path class="st1" d="M37.1,171.1l-2.9,0.7l2.9,0.7v0.9l-4.3-1.1v-0.8l2.8-0.8l-2.8-0.8v-0.8l4.3-1.1v0.9l-2.9,0.7l2.9,0.8V171.1
					z"/>
			</g>
			<g class="st0">
				<path class="st1" d="M37.1,177.4l-4.3,1.6v-0.9l1-0.4v-1.6l-1-0.4v-0.9l4.3,1.6V177.4z M34.6,176.4v1.1l1.4-0.5L34.6,176.4z"/>
			</g>
			<g class="st0">
				<path class="st1" d="M37.1,183.3v0.9l-2.7-1.6h-1.6v-0.9h1.6l2.7-1.5v1l-1.8,1L37.1,183.3z"/>
			</g>
		</g>
		<g>
			<g class="st0">
				<path class="st1" d="M167.5,132.1v0.9H164v2h-0.8v-2.9H167.5z"/>
			</g>
			<g class="st0">
				<path class="st1" d="M167.5,139.4l-4.3,1.6v-0.9l1-0.4v-1.6l-1-0.4v-0.9l4.3,1.6V139.4z M165,138.4v1.1l1.4-0.5L165,138.4z"/>
			</g>
			<g class="st0">
				<path class="st1" d="M163.2,143.1h4.3v2.9h-0.8v-2h-1.1v1.8h-0.8V144h-1.6V143.1z"/>
			</g>
			<g class="st0">
				<path class="st1" d="M167.5,150.1l-4.3,1.6v-0.9l1-0.4v-1.6l-1-0.4v-0.9l4.3,1.6V150.1z M165,149.1v1.1l1.4-0.5L165,149.1z"/>
			</g>
			<g class="st0">
				<path class="st1" d="M167.5,156v0.9l-2.7-1.6h-1.6v-0.9h1.6l2.7-1.5v1l-1.8,1L167.5,156z"/>
				<path class="st1" d="M167.5,161.4h-0.8v-2h-0.9v1.8h-0.8v-1.8h-1v2h-0.8v-2.9h4.3V161.4z"/>
				<path class="st1" d="M167.5,162.8v3.7h-0.8v-1.4h-3.5v-0.9h3.5v-1.4H167.5z"/>
				<path class="st1" d="M167.5,167.8v3.7h-0.8v-1.4h-3.5v-0.9h3.5v-1.4H167.5z"/>
				<path class="st1" d="M167.5,176h-0.8v-2h-0.9v1.8h-0.8v-1.8h-1v2h-0.8V173h4.3V176z"/>
			</g>
			<g class="st0">
				<path class="st1" d="M164.5,184.1c-0.4,0.1-0.6,0.4-0.6,0.9c0,0.4,0.2,0.7,0.5,0.7c0.3,0,0.4-0.2,0.5-0.5l0.2-0.8
					c0.1-0.6,0.5-1.1,1.2-1.1c0.8,0,1.3,0.6,1.3,1.5c0,1-0.5,1.5-1.2,1.7v-0.9c0.3-0.1,0.5-0.3,0.5-0.8c0-0.4-0.2-0.7-0.5-0.7
					c-0.2,0-0.4,0.2-0.5,0.5l-0.2,0.8c-0.2,0.7-0.6,1.1-1.2,1.1c-0.8,0-1.3-0.7-1.3-1.6c0-1,0.5-1.6,1.3-1.8V184.1z"/>
			</g>
			<g class="st0">
				<path class="st1" d="M167.5,188.4v3.7h-0.8v-1.4h-3.5v-0.9h3.5v-1.4H167.5z"/>
			</g>
		</g>
		<g>
			<g class="st0">
				<path class="st1" d="M75.5,132.3h0.9v3.5h2v0.8h-2.9V132.3z"/>
				<path class="st1" d="M82.9,132.3v0.8h-2v0.9h1.8v0.8h-1.8v1h2v0.8H80v-4.3H82.9z"/>
			</g>
			<g class="st0">
				<path class="st1" d="M87.3,136.7c-1.2,0-2-0.9-2-2.2c0-1.3,0.8-2.2,2-2.2c1.2,0,2,0.9,2,2.2C89.3,135.8,88.5,136.7,87.3,136.7z
					 M87.3,133.1c-0.7,0-1.1,0.6-1.1,1.4c0,0.8,0.4,1.4,1.1,1.4c0.7,0,1.1-0.6,1.1-1.4C88.4,133.7,88,133.1,87.3,133.1z"/>
			</g>
			<g class="st0">
				<path class="st1" d="M94.9,136.7h-0.7l-2-2.9v2.9h-0.9v-4.3h0.8l1.9,2.7v-2.7h0.9V136.7z"/>
			</g>
			<g class="st0">
				<path class="st1" d="M99.4,132.3l1.6,4.3h-0.9l-0.4-1h-1.6l-0.4,1h-0.9l1.6-4.3H99.4z M98.4,134.9h1.1l-0.5-1.4L98.4,134.9z"/>
			</g>
			<g class="st0">
				<path class="st1" d="M103.8,135v1.6h-0.9v-4.3h1.8c0.9,0,1.5,0.5,1.5,1.4c0,0.7-0.4,1.1-1,1.3l1.1,1.7h-1l-1.1-1.6H103.8z
					 M103.8,134.3h0.8c0.4,0,0.7-0.2,0.7-0.6c0-0.4-0.2-0.6-0.7-0.6h-0.8V134.3z"/>
				<path class="st1" d="M107.9,132.3h1.5c1.3,0,2.1,0.8,2.1,2.2s-0.8,2.2-2.1,2.2h-1.5V132.3z M109.3,135.9c0.8,0,1.3-0.5,1.3-1.4
					c0-0.8-0.4-1.4-1.3-1.4h-0.6v2.7H109.3z"/>
			</g>
			<g class="st0">
				<path class="st1" d="M117.5,135.4c0.1,0.4,0.4,0.6,0.9,0.6c0.4,0,0.7-0.2,0.7-0.5c0-0.3-0.2-0.4-0.5-0.5l-0.8-0.2
					c-0.6-0.1-1.1-0.5-1.1-1.2c0-0.8,0.6-1.3,1.5-1.3c1,0,1.5,0.5,1.7,1.2H119c-0.1-0.3-0.3-0.5-0.8-0.5c-0.4,0-0.7,0.2-0.7,0.5
					c0,0.2,0.2,0.4,0.5,0.5l0.8,0.2c0.7,0.2,1.1,0.6,1.1,1.2c0,0.8-0.7,1.3-1.6,1.3c-1,0-1.6-0.5-1.8-1.3H117.5z"/>
			</g>
			<g class="st0">
				<path class="st1" d="M121.6,132.3h3.7v0.8h-1.4v3.5H123v-3.5h-1.4V132.3z"/>
			</g>
		</g>
		<g>
			<g class="st0">
				<path class="st1" d="M72.3,186c1,0,1.6,0.6,1.8,1.5h-0.9c-0.1-0.4-0.4-0.7-0.9-0.7c-0.7,0-1.1,0.6-1.1,1.4
					c0,0.8,0.4,1.4,1.1,1.4c0.5,0,0.8-0.3,0.9-0.7h0.9c-0.2,0.9-0.8,1.5-1.8,1.5c-1.1,0-2-0.9-2-2.2C70.3,186.9,71.2,186,72.3,186z"
					/>
			</g>
			<g class="st0">
				<path class="st1" d="M78.4,186l1.6,4.3h-0.9l-0.4-1h-1.6l-0.4,1h-0.9l1.6-4.3H78.4z M77.4,188.6h1.1l-0.5-1.4L77.4,188.6z"/>
			</g>
			<g class="st0">
				<path class="st1" d="M81.4,186h3.7v0.8h-1.4v3.5h-0.9v-3.5h-1.4V186z"/>
			</g>
			<g class="st0">
				<path class="st1" d="M90.9,186v4.3H90v-1.8h-1.9v1.8h-0.9V186h0.9v1.7H90V186H90.9z"/>
			</g>
			<g class="st0">
				<path class="st1" d="M96.2,186v0.8h-2v0.9H96v0.8h-1.8v1h2v0.8h-2.9V186H96.2z"/>
				<path class="st1" d="M98.8,188.7v1.6h-0.9V186h1.8c0.9,0,1.5,0.5,1.5,1.4c0,0.7-0.4,1.1-1,1.3l1.1,1.7h-1l-1.1-1.6H98.8z
					 M98.8,188h0.8c0.4,0,0.7-0.2,0.7-0.6c0-0.4-0.2-0.6-0.7-0.6h-0.8V188z"/>
			</g>
			<g class="st0">
				<path class="st1" d="M104.8,190.3h-0.9V186h0.9V190.3z"/>
			</g>
			<g class="st0">
				<path class="st1" d="M110.8,190.3h-0.7l-2-2.9v2.9h-0.9V186h0.8l1.9,2.7V186h0.9V190.3z"/>
				<path class="st1" d="M115.5,186v0.8h-2v0.9h1.8v0.8h-1.8v1h2v0.8h-2.9V186H115.5z"/>
				<path class="st1" d="M119.6,186h0.9v3.5h2v0.8h-2.9V186z"/>
			</g>
			<g class="st0">
				<path class="st1" d="M130,190.3h-0.7l-2-2.9v2.9h-0.9V186h0.8l1.9,2.7V186h0.9V190.3z"/>
			</g>
		</g>
	</g>
	<g>
		<polygon class="st2" points="74.3,159.8 73.1,159.8 73.1,161.5 74.3,161.5 74.3,168.4 82.6,169 82.6,160.1 82.6,156.9 82.6,151.4 
			74.3,151.4 		"/>
		<g>
			<defs>
				<rect id="SVGID_1_" x="44.1" y="149.8" width="112" height="25.3"/>
			</defs>
			<clipPath id="SVGID_2_">
				<use xlink:href="#SVGID_1_"  style="overflow:visible;"/>
			</clipPath>
			<g class="st3">
				<polygon class="st4" points="153.4,151.5 153.4,173.4 45.4,166.7 45.5,151.5 				"/>
			</g>
		</g>
		<g>
			<defs>
				<rect id="SVGID_3_" x="5" y="5.4" width="187.5" height="104.7"/>
			</defs>
			<clipPath id="SVGID_4_">
				<use xlink:href="#SVGID_3_"  style="overflow:visible;"/>
			</clipPath>
			<g class="st5">
				<g class="st0">
					<path class="st1" d="M12.9,80.6l0.6,0.4L11,82.7l1.5,0.9l-0.6,0.4l-2.1-1.3L12.9,80.6z"/>
					<path class="st1" d="M18.8,84.3l-0.6,0.4l-1.5-0.9l-0.7,0.4l1.3,0.8l-0.5,0.4l-1.3-0.8L14.8,85l1.5,0.9l-0.6,0.4L13.6,85l3.1-2
						L18.8,84.3z"/>
					<path class="st1" d="M18.7,88.2c-0.9-0.5-0.8-1.4,0.1-2c0.9-0.6,2.2-0.7,3.1-0.1s0.8,1.4-0.1,2C20.8,88.7,19.6,88.8,18.7,88.2z
						 M21.3,86.5c-0.5-0.3-1.2-0.2-1.8,0.2c-0.6,0.4-0.7,0.9-0.2,1.2c0.5,0.3,1.2,0.2,1.8-0.2C21.7,87.3,21.8,86.8,21.3,86.5z"/>
					<path class="st1" d="M24.5,91.8L24,91.5l0.6-2.3l-2.1,1.3l-0.6-0.4l3.1-2l0.6,0.4L25,90.7l1.9-1.3l0.6,0.4L24.5,91.8z"/>
				</g>
				<g class="st0">
					<path class="st1" d="M31,91.9l-1.9,2.8l-0.7-0.4l0.5-0.7l-1.2-0.7l-1,0.3l-0.6-0.4l4.3-1.3L31,91.9z M28.5,92.7l0.8,0.5
						l0.6-0.9L28.5,92.7z"/>
				</g>
				<g class="st0">
					<path class="st1" d="M32.5,95.3l-1.1,0.8l-0.6-0.4l3.1-2l1.3,0.8c0.7,0.4,0.7,0.9,0.1,1.3c-0.5,0.3-1.1,0.4-1.6,0.2l-0.4,1.3
						l-0.7-0.5l0.4-1.2L32.5,95.3z M33,95l0.6,0.4c0.3,0.2,0.7,0.2,0.9,0c0.3-0.2,0.3-0.4-0.1-0.6l-0.6-0.4L33,95z"/>
					<path class="st1" d="M37.9,96.2l1.1,0.7c0.9,0.6,0.9,1.4,0,2s-2.1,0.6-3.1,0.1l-1.1-0.7L37.9,96.2z M36.4,98.5
						c0.6,0.4,1.3,0.3,1.9-0.1c0.6-0.4,0.7-0.8,0.1-1.2L38,97l-2,1.3L36.4,98.5z"/>
				</g>
				<g class="st0">
					<path class="st1" d="M42.7,102.1c-0.2,0.2-0.1,0.5,0.2,0.6c0.3,0.2,0.7,0.2,0.9,0.1c0.2-0.1,0.2-0.3,0-0.5l-0.4-0.4
						c-0.3-0.3-0.5-0.7,0.1-1c0.6-0.4,1.4-0.3,2.1,0.1c0.7,0.4,0.8,0.9,0.3,1.3l-0.6-0.4c0.1-0.2,0.1-0.4-0.2-0.6
						c-0.3-0.2-0.6-0.2-0.9-0.1c-0.2,0.1-0.2,0.3,0,0.4l0.4,0.4c0.4,0.4,0.4,0.8-0.1,1.1c-0.6,0.4-1.5,0.3-2.1-0.1
						c-0.7-0.4-0.8-1-0.4-1.4L42.7,102.1z"/>
				</g>
				<g class="st0">
					<path class="st1" d="M48.2,102.6l2.7,1.7l-0.6,0.4l-1-0.6l-2.5,1.6l-0.7-0.4l2.5-1.6l-1-0.6L48.2,102.6z"/>
				</g>
				<line class="st6" x1="74.8" y1="68" x2="74.8" y2="63.5"/>
				<line class="st6" x1="15.1" y1="32.2" x2="15.1" y2="28.5"/>
				<line class="st6" x1="27.5" y1="37" x2="27.5" y2="39"/>
				<line class="st6" x1="22.1" y1="33.9" x2="22.1" y2="35.9"/>
				<line class="st6" x1="29" y1="36.2" x2="29" y2="38.2"/>
				<line class="st7" x1="29" y1="38.2" x2="27.5" y2="39.1"/>
				<line class="st7" x1="28.9" y1="36.2" x2="27.5" y2="37.1"/>
				<line class="st7" x1="66.7" y1="54" x2="60.7" y2="57.5"/>
				<line class="st7" x1="71.3" y1="57.6" x2="66.1" y2="60.6"/>
				<line class="st6" x1="36.2" y1="40.3" x2="36.2" y2="42.4"/>
				<line class="st7" x1="41.3" y1="38.7" x2="65.6" y2="54.6"/>
				<line class="st7" x1="66.6" y1="54" x2="71.3" y2="57"/>
				<line class="st7" x1="41.3" y1="38" x2="66.1" y2="54.3"/>
				<line class="st7" x1="12.2" y1="31" x2="14.7" y2="32.4"/>
				<line class="st7" x1="22.1" y1="33.9" x2="27.5" y2="37"/>
				<line class="st7" x1="29" y1="36.2" x2="36.3" y2="40.5"/>
				<line class="st7" x1="29" y1="38.2" x2="36.2" y2="42.4"/>
				<line class="st7" x1="60.7" y1="57.5" x2="66.1" y2="60.6"/>
				<line class="st6" x1="74.8" y1="55.1" x2="74.8" y2="52.9"/>
				<polyline class="st6" points="65.6,64.8 64.8,64.3 63.7,64.9 16.6,37.7 16.6,35.4 				"/>
				<polyline class="st6" points="28.4,30.2 23.8,27.1 13.1,33.4 63.7,62.6 				"/>
				<line class="st6" x1="63.7" y1="62.6" x2="63.7" y2="64.9"/>
				<line class="st6" x1="64.8" y1="62" x2="63.7" y2="62.6"/>
				<polyline class="st6" points="64.8,64.3 64.8,62 60.7,59.6 				"/>
				<line class="st6" x1="74.8" y1="72.2" x2="74.8" y2="69.7"/>
				<polyline class="st6" points="80.4,62.6 83.5,64.6 83.5,67.2 74.8,72.2 65.6,66.9 65.6,64.3 69.3,62.2 				"/>
				<polyline class="st6" points="83.5,64.6 74.8,69.7 65.6,64.3 				"/>
				<polyline class="st7" points="14.1,33.9 14.1,35.1 16.6,36.6 				"/>
				<line class="st7" x1="22.1" y1="35.9" x2="27.5" y2="39.1"/>
				<line class="st7" x1="60.7" y1="59.6" x2="60.7" y2="57.5"/>
				<line class="st7" x1="66.1" y1="64" x2="66.1" y2="60.7"/>
				<polyline class="st7" points="78.4,54 74.8,56.1 71.3,54 				"/>
				<polyline class="st6" points="78.4,58.5 78.7,58.8 78.7,60.3 74.8,62.6 70.9,60.3 70.9,58.9 71.3,58.6 				"/>
				<line class="st6" x1="74.8" y1="62.6" x2="74.8" y2="56.1"/>
				<polyline class="st6" points="78.7,59.2 80.4,60.2 80.4,64.7 74.8,68 69.3,64.8 69.3,60.3 70.9,59.4 				"/>
				<polyline class="st6" points="80.4,60.2 74.8,63.5 69.4,60.4 				"/>
				<polyline class="st6" points="12.2,31 6.8,34.1 6.8,71.6 				"/>
				<polyline class="st6" points="18.1,27.5 21.9,25.3 28.9,29.9 				"/>
				<line class="st6" x1="74.8" y1="73.4" x2="74.8" y2="107.3"/>
				<line class="st6" x1="74.8" y1="107.3" x2="38.5" y2="86.3"/>
				<polyline class="st6" points="85.1,73.1 74.8,79.1 6.9,39.8 				"/>
				<polyline class="st6" points="85.1,75.9 74.8,81.9 6.9,42.6 				"/>
				<polyline class="st6" points="85.1,78.8 74.8,84.8 6.9,45.4 				"/>
				<polyline class="st6" points="85.1,81.6 74.8,87.6 6.9,48.2 				"/>
				<polyline class="st6" points="85.1,84.4 74.8,90.4 6.9,51.1 				"/>
				<polyline class="st6" points="85.1,87.2 74.8,93.2 6.9,53.9 				"/>
				<polyline class="st6" points="85.1,90.1 74.8,96.1 6.9,56.7 				"/>
				<polyline class="st6" points="85.1,92.9 74.8,98.9 6.9,59.5 				"/>
				<line class="st6" x1="85.1" y1="95.7" x2="82.7" y2="97.1"/>
				<polyline class="st6" points="77.2,100.3 74.8,101.7 6.9,62.4 				"/>
				<line class="st6" x1="82.7" y1="99.9" x2="85.1" y2="98.6"/>
				<polyline class="st6" points="77.2,103.1 74.8,104.5 6.9,65.2 				"/>
				<polyline class="st6" points="85.1,70.3 74.8,76.3 6.9,37 				"/>
				<line class="st6" x1="35.6" y1="84.7" x2="6.9" y2="68"/>
				<polyline class="st7" points="13.8,25.9 12.2,26.8 12.2,31 				"/>
				<polyline class="st7" points="16.7,25.9 18.1,26.7 18.1,30.4 				"/>
				<polyline class="st7" points="12.2,26.8 15.1,28.5 18.1,26.7 				"/>
				<polyline class="st6" points="76,51.2 76.8,51.7 76.8,53.9 74.8,55.1 72.7,53.9 72.7,51.7 73.8,51.1 				"/>
				<polyline class="st7" points="76.8,51.7 74.8,52.9 72.7,51.7 				"/>
				<g>
					<defs>
						<rect id="SVGID_5_" x="5.2" y="10.1" width="86.7" height="99.3"/>
					</defs>
					<clipPath id="SVGID_6_">
						<use xlink:href="#SVGID_5_"  style="overflow:visible;"/>
					</clipPath>
					<g class="st8">
						<path class="st6" d="M72.9,49.3c-0.1,0.1-0.1,0.2-0.2,0.3l0.1,0.3c0.1,0.2,0.6,0.3,1.3,0.1s2.3-1,2.5-1.9l-0.2-0.5
							c-0.2,0-0.3,0-0.5,0"/>
					</g>
				</g>
				<polyline class="st6" points="73.6,46.2 74.7,46.8 75,46.6 75.8,45.6 				"/>
				<g>
					<defs>
						<rect id="SVGID_7_" x="5.2" y="10.1" width="86.7" height="99.3"/>
					</defs>
					<clipPath id="SVGID_8_">
						<use xlink:href="#SVGID_7_"  style="overflow:visible;"/>
					</clipPath>
					<g class="st9">
						<path class="st6" d="M76.4,48.6c0.1,0.2,0.1,0.5,0,0.8c-0.2,1-1.1,1.6-2.1,1.4c0,0,0,0,0,0c-0.4-0.1-0.7-0.3-0.9-0.5l-0.1-0.1
							"/>
						<path class="st6" d="M73,49.7c-0.1-0.1-0.1-0.3-0.1-0.4c-0.1-1,0.5-1.9,1.5-2c0.6-0.1,1.2,0.1,1.6,0.5
							c0.1,0.1,0.2,0.3,0.3,0.4"/>
						<path class="st6" d="M74,57.4c0.3,0.9,0.1,1.5-0.5,1.6s-1.3-0.7-1.6-1.5s-0.1-1.6,0.5-1.6S73.7,56.6,74,57.4z"/>
						<path class="st6" d="M75.6,57.5c-0.3,0.9-0.1,1.5,0.5,1.5s1.3-0.7,1.6-1.5s0.1-1.5-0.5-1.5S75.8,56.6,75.6,57.5z"/>
						<path class="st10" d="M76,51.3c0-0.1,0-0.1,0-0.2c0,0-0.1-0.1-0.1-0.1c-0.1,0-0.2,0-0.3,0.1v-0.2l0.1-0.4"/>
						<path class="st7" d="M75.2,51.3c0,0.1,0,0.2,0.1,0.2s0.2,0.1,0.3,0"/>
					</g>
				</g>
				<polyline class="st7" points="74.2,52 74.2,51.8 74.4,51.4 74.4,51.3 74,51.2 73.6,51 73.8,50.5 				"/>
				<polyline class="st6" points="72.8,53.2 71.3,54 71.3,58.8 74.8,60.9 78.4,58.8 78.4,54 76.8,53.1 				"/>
				<g>
					<defs>
						<rect id="SVGID_9_" x="5.2" y="10.1" width="86.7" height="99.3"/>
					</defs>
					<clipPath id="SVGID_10_">
						<use xlink:href="#SVGID_9_"  style="overflow:visible;"/>
					</clipPath>
					<g class="st11">
						<path class="st7" d="M15,24.3c-0.7,0.1-1.2,0.8-1.2,1.5v1.1c0,0.4,0.7,0.8,1.5,0.8c0.8,0,1.5-0.3,1.5-0.8v-1.1
							c0-0.7-0.5-1.4-1.2-1.5v-0.2c0-0.1-0.1-0.2-0.2-0.2S15,24,15,24.1V24.3z"/>
					</g>
				</g>
				<polyline class="st6" points="85.1,67.5 74.8,73.4 6.9,34.1 				"/>
				<polyline class="st6" points="38.5,86.8 36.5,85.7 34.7,86.7 37.2,88.2 38.5,87.4 				"/>
				<line class="st6" x1="38.5" y1="86.8" x2="36.5" y2="85.7"/>
				<line class="st6" x1="38.5" y1="88.5" x2="37.6" y2="87.9"/>
				<g>
					<defs>
						<rect id="SVGID_11_" x="5.2" y="10.1" width="86.7" height="99.3"/>
					</defs>
					<clipPath id="SVGID_12_">
						<use xlink:href="#SVGID_11_"  style="overflow:visible;"/>
					</clipPath>
					<g class="st12">
						<path class="st6" d="M36.9,83.4c-0.2,0.2-0.4,0.5-0.4,0.8v1.5"/>
					</g>
				</g>
				<polyline class="st6" points="36.1,87.5 35.6,87.8 6.8,71.6 				"/>
				<line class="st6" x1="35.6" y1="87.8" x2="35.6" y2="87.2"/>
				<g>
					<defs>
						<rect id="SVGID_13_" x="5.2" y="10.1" width="86.7" height="99.3"/>
					</defs>
					<clipPath id="SVGID_14_">
						<use xlink:href="#SVGID_13_"  style="overflow:visible;"/>
					</clipPath>
					<g class="st13">
						<path class="st6" d="M82.7,102.8v-5.5l-5.4,3v5.6l-2.4,1.4l-18.3-8.6l-14.6-7.4l-3.4-1.9v-3.8c-0.1-0.9-0.6-1.7-1.4-2.1
							c-0.4-0.3-1-0.2-1.3,0.3c-0.1,0.2-0.2,0.4-0.2,0.6v1.9"/>
					</g>
				</g>
				<polyline class="st6" points="78.8,103.1 78.8,101.7 77.9,102.2 77.9,103.7 				"/>
				<g>
					<defs>
						<rect id="SVGID_15_" x="5.2" y="10.1" width="86.7" height="99.3"/>
					</defs>
					<clipPath id="SVGID_16_">
						<use xlink:href="#SVGID_15_"  style="overflow:visible;"/>
					</clipPath>
					<g class="st14">
						<path class="st6" d="M83.5,66.5l1.6,1v33.9l-2.4,1.4c-1.2-0.4-2.5-0.3-3.7,0.3l-1.2,0.7c-0.2,0.1-0.4,0.2-0.6,0.4"/>
					</g>
				</g>
				<polyline class="st7" points="36.2,42.4 41.3,39.4 41.3,37.5 29.4,29.6 22.1,33.9 				"/>
				<line class="st7" x1="41.3" y1="37.5" x2="36.2" y2="40.4"/>
				<g>
					<defs>
						<rect id="SVGID_17_" x="5.2" y="10.1" width="86.7" height="99.3"/>
					</defs>
					<clipPath id="SVGID_18_">
						<use xlink:href="#SVGID_17_"  style="overflow:visible;"/>
					</clipPath>
					<g class="st15">
						<g class="st0">
							<path class="st1" d="M197.8,74c0.7,0.5,0.7,1.1,0.2,1.5l-0.6-0.4c0.2-0.2,0.2-0.5-0.2-0.7c-0.5-0.3-1.2-0.3-1.8,0.1
								c-0.6,0.3-0.8,0.8-0.3,1.1c0.3,0.2,0.7,0.3,1.1,0.2l0.6,0.4c-0.7,0.3-1.6,0.2-2.3-0.3c-0.8-0.6-0.7-1.4,0.2-1.9
								C195.8,73.4,197,73.4,197.8,74z"/>
						</g>
						<g class="st0">
							<path class="st1" d="M202.1,77l-2,2.6l-0.6-0.4l0.5-0.6l-1.1-0.8l-1,0.3l-0.6-0.4l4.3-1L202.1,77z M199.6,77.6l0.7,0.5
								l0.7-0.9L199.6,77.6z"/>
						</g>
						<g class="st0">
							<path class="st1" d="M204.3,78.6l2.6,1.8l-0.6,0.3l-1-0.7l-2.6,1.5l-0.6-0.4l2.6-1.5l-1-0.7L204.3,78.6z"/>
						</g>
						<g class="st0">
							<path class="st1" d="M211.1,83.3l-3.2,1.8l-0.6-0.4l1.3-0.8l-1.4-0.9l-1.3,0.8l-0.6-0.4l3.2-1.8l0.6,0.4l-1.3,0.7l1.4,0.9
								l1.3-0.7L211.1,83.3z"/>
						</g>
						<g class="st0">
							<path class="st1" d="M214.9,85.9l-0.6,0.3l-1.4-1l-0.7,0.4l1.3,0.9l-0.6,0.3l-1.3-0.9l-0.7,0.4l1.4,1l-0.6,0.3l-2-1.4
								l3.2-1.8L214.9,85.9z"/>
							<path class="st1" d="M215.2,88.6l-1.2,0.7l-0.6-0.4l3.2-1.8l1.2,0.9c0.6,0.4,0.7,0.9,0.1,1.3c-0.5,0.3-1.1,0.3-1.6,0.1
								l-0.4,1.3l-0.7-0.5l0.4-1.2L215.2,88.6z M215.7,88.3l0.6,0.4c0.3,0.2,0.7,0.2,0.9,0.1c0.3-0.2,0.3-0.4,0-0.6l-0.6-0.4
								L215.7,88.3z"/>
							<path class="st1" d="M217.9,92l-0.6-0.4l3.2-1.8l0.6,0.4L217.9,92z"/>
							<path class="st1" d="M222.2,95l-0.5-0.3l0.7-2.2l-2.1,1.2l-0.6-0.4l3.2-1.8l0.6,0.4l-0.7,2.1l2-1.2l0.6,0.4L222.2,95z"/>
							<path class="st1" d="M229.1,95.8l-0.6,0.3l-1.4-1l-0.7,0.4l1.3,0.9l-0.6,0.3l-1.3-0.9l-0.8,0.4l1.4,1l-0.6,0.3l-2-1.4
								l3.2-1.8L229.1,95.8z"/>
							<path class="st1" d="M233,98.5l0.6,0.4l-2.6,1.5l1.4,1l-0.6,0.3l-2-1.4L233,98.5z"/>
						</g>
						<g class="st0">
							<path class="st1" d="M236.1,104.6l-0.5-0.3l0.7-2.2l-2.1,1.2l-0.6-0.4l3.2-1.8l0.6,0.4l-0.7,2.1l2-1.2l0.6,0.4L236.1,104.6z"
								/>
						</g>
						<path class="st7" d="M262.9,101v-1.2c0-0.3-0.2-0.7-0.8-0.3c-0.4,0.2-0.7,0.6-0.7,1.1v1.3l-6.7,3.9l-8.9-6.1L234.6,92
							l-9.4-6.4L211.3,76l-19.8-14.3V27.5l1.4-0.8"/>
						<path class="st7" d="M200.2,17.5c0.3,0.9,0.1,1.5-0.5,1.5s-1.3-0.7-1.6-1.5s-0.1-1.6,0.5-1.6S199.9,16.6,200.2,17.5z"/>
						<path class="st7" d="M199.1,9.4c-0.1,0.1-0.1,0.2-0.2,0.3L199,10c0.1,0.2,0.6,0.3,1.3,0.1s2.3-1.1,2.5-1.9l-0.2-0.5
							c-0.2,0-0.3,0-0.5,0"/>
						<path class="st7" d="M202.6,8.7c0.2,1-0.4,1.9-1.4,2.1c-0.2,0.1-0.5,0.1-0.7,0c-0.4-0.1-0.7-0.3-0.9-0.5l-0.1-0.1"/>
						<path class="st7" d="M199.2,9.8c-0.1-0.1-0.1-0.3-0.1-0.4c-0.1-1,0.5-1.9,1.5-2c0.6-0.1,1.2,0.1,1.6,0.5
							c0.1,0.1,0.2,0.3,0.3,0.4"/>
					</g>
				</g>
				<polygon class="st16" points="50.4,79.1 50.4,90.4 55.5,93.3 55.5,82 				"/>
				<line class="st17" x1="50.4" y1="81.9" x2="55.5" y2="84.9"/>
				<line class="st17" x1="50.4" y1="84.7" x2="55.5" y2="87.7"/>
				<line class="st17" x1="50.4" y1="87.6" x2="55.5" y2="90.5"/>
				<g>
					<defs>
						<rect id="SVGID_19_" x="105.6" y="5.4" width="86.7" height="104.7"/>
					</defs>
					<clipPath id="SVGID_20_">
						<use xlink:href="#SVGID_19_"  style="overflow:visible;"/>
					</clipPath>
					<g class="st18">
						<path class="st6" d="M3.6,103.5V98l-5.4,3v5.6l-2.4,1.4l-18.3-8.7L-37.2,92l-3.4-1.9v-3.8c-0.1-0.9-0.6-1.7-1.4-2.1
							c-1-0.6-1.4,0.5-1.4,0.8v1.9"/>
						<path class="st6" d="M4.4,67.2l1.6,1V102l-2.4,1.4c-1.2-0.4-2.5-0.3-3.6,0.3l-1.3,0.7c-0.2,0.1-0.4,0.2-0.5,0.4"/>
					</g>
				</g>
				<polyline class="st6" points="190.7,66.9 175.6,75.4 112.4,33.9 				"/>
				<polyline class="st6" points="190.7,69.8 175.6,78.3 112.4,36.7 				"/>
				<polyline class="st6" points="190.7,72.6 175.6,81.1 112.4,39.6 				"/>
				<polyline class="st6" points="190.7,75.4 175.6,83.9 112.4,42.4 				"/>
				<polyline class="st6" points="190.7,78.3 175.6,86.8 112.4,45.2 				"/>
				<polyline class="st6" points="190.7,81.1 175.6,89.6 112.4,48.1 				"/>
				<polyline class="st6" points="190.7,84 175.6,92.5 112.4,50.9 				"/>
				<polyline class="st6" points="190.7,86.8 175.6,95.3 112.4,53.8 				"/>
				<polyline class="st6" points="190.7,89.6 175.6,98.1 112.4,56.6 				"/>
				<polyline class="st6" points="190.7,92.5 175.6,101 112.4,59.4 				"/>
				<polyline class="st6" points="190.7,95.3 175.6,103.8 112.4,62.3 				"/>
				<line class="st6" x1="190.7" y1="95.3" x2="175.6" y2="103.8"/>
				<g class="st0">
					<path class="st1" d="M118.8,74.6c0.7,0.5,0.7,1.1,0.2,1.5l-0.6-0.4c0.2-0.2,0.2-0.5-0.2-0.7c-0.5-0.3-1.2-0.3-1.8,0.1
						c-0.6,0.3-0.8,0.8-0.3,1.1c0.3,0.2,0.7,0.3,1.1,0.2l0.6,0.4c-0.8,0.3-1.6,0.2-2.3-0.3c-0.8-0.6-0.7-1.4,0.2-1.9
						S118,74,118.8,74.6z"/>
				</g>
				<g class="st0">
					<path class="st1" d="M123,77.6l-2,2.6l-0.6-0.4l0.5-0.6l-1.1-0.8l-1,0.3l-0.6-0.4l4.3-1L123,77.6z M120.5,78.2l0.7,0.5l0.7-0.9
						L120.5,78.2z"/>
				</g>
				<g class="st0">
					<path class="st1" d="M125.3,79.2l2.6,1.8l-0.6,0.3l-1-0.7l-2.6,1.5l-0.6-0.4l2.6-1.5l-1-0.7L125.3,79.2z"/>
					<path class="st1" d="M132,83.9l-3.2,1.8l-0.6-0.4l1.3-0.8l-1.4-0.9l-1.3,0.8l-0.6-0.4l3.2-1.8l0.6,0.4l-1.3,0.7l1.4,0.9
						l1.3-0.7L132,83.9z"/>
				</g>
				<g class="st0">
					<path class="st1" d="M135.8,86.5l-0.6,0.3l-1.4-1l-0.7,0.4l1.3,0.9l-0.6,0.3l-1.3-0.9l-0.8,0.4l1.4,1l-0.6,0.3l-2-1.4l3.2-1.8
						L135.8,86.5z"/>
					<path class="st1" d="M136.1,89.3l-1.2,0.7l-0.6-0.4l3.2-1.8l1.2,0.9c0.6,0.4,0.7,0.9,0.1,1.3c-0.5,0.3-1.1,0.3-1.6,0.1
						l-0.4,1.3l-0.7-0.5l0.4-1.2L136.1,89.3z M136.7,88.9l0.6,0.4c0.3,0.2,0.7,0.2,0.9,0.1c0.3-0.2,0.3-0.4,0-0.6l-0.6-0.4
						L136.7,88.9z"/>
				</g>
				<g class="st0">
					<path class="st1" d="M138.9,92.7l-0.6-0.4l3.2-1.8l0.6,0.4L138.9,92.7z"/>
					<path class="st1" d="M143.2,95.7l-0.5-0.3l0.7-2.2l-2.1,1.2l-0.6-0.4l3.2-1.8l0.6,0.4l-0.7,2.1l2-1.2l0.6,0.4L143.2,95.7z"/>
				</g>
				<g class="st0">
					<path class="st1" d="M150.1,96.5l-0.6,0.3l-1.4-1l-0.7,0.4l1.3,0.9l-0.6,0.3l-1.3-0.9l-0.8,0.4l1.4,1l-0.6,0.3l-2-1.4l3.2-1.8
						L150.1,96.5z"/>
					<path class="st1" d="M154,99.1l0.6,0.4l-2.6,1.5l1.4,1l-0.6,0.3l-2-1.4L154,99.1z"/>
				</g>
				<g class="st0">
					<path class="st1" d="M157,105.3l-0.5-0.3l0.7-2.2l-2.1,1.2l-0.6-0.4l3.2-1.8l0.6,0.4l-0.7,2.1l2-1.2l0.6,0.4L157,105.3z"/>
				</g>
				<polyline class="st7" points="190.7,64.1 175.6,72.6 112.4,31 				"/>
				<line class="st7" x1="175.7" y1="69.7" x2="175.7" y2="106.5"/>
				<line class="st7" x1="183.3" y1="101.3" x2="182.4" y2="101.9"/>
				<polyline class="st7" points="183.3,101.3 183.9,101.7 190.7,97.7 190.7,61.2 				"/>
				<polyline class="st7" points="190.7,61.2 175.6,69.7 112.4,28.2 				"/>
				<g>
					<defs>
						<rect id="SVGID_21_" x="105.6" y="5.4" width="86.7" height="104.7"/>
					</defs>
					<clipPath id="SVGID_22_">
						<use xlink:href="#SVGID_21_"  style="overflow:visible;"/>
					</clipPath>
					<g class="st19">
						<path class="st7" d="M183.3,101.3v-0.8c0-0.1-0.1-0.3-0.2-0.4"/>
						<path class="st7" d="M183.9,101.7v-1.2c0-0.3-0.2-0.7-0.8-0.3c-0.4,0.2-0.7,0.6-0.7,1.1v1.3l-6.7,3.9l-8.9-6.1l-11.2-7.7
							l-9.4-6.4l-13.9-9.6l-19.8-14.4V28.2l1.4-0.8"/>
					</g>
				</g>
				<line class="st7" x1="178.1" y1="62.7" x2="178.1" y2="61.2"/>
				<line class="st7" x1="121.5" y1="30.8" x2="121.5" y2="33.4"/>
				<line class="st7" x1="178.1" y1="62.7" x2="178.9" y2="63.2"/>
				<line class="st7" x1="178.1" y1="61.2" x2="178.9" y2="61.7"/>
				<line class="st7" x1="121.9" y1="15.7" x2="121.9" y2="13.8"/>
				<line class="st7" x1="121.9" y1="15.8" x2="121.9" y2="13.7"/>
				<line class="st7" x1="121.6" y1="28.9" x2="121.6" y2="24.4"/>
				<polyline class="st7" points="123,32.5 121.5,33.4 113.8,28.3 113.8,25.8 116.5,24.2 				"/>
				<polyline class="st7" points="121.9,21.7 125.5,19.6 125.5,14.8 125.5,14.8 123.9,13.7 				"/>
				<g>
					<defs>
						<rect id="SVGID_23_" x="105.6" y="5.4" width="86.7" height="104.7"/>
					</defs>
					<clipPath id="SVGID_24_">
						<use xlink:href="#SVGID_23_"  style="overflow:visible;"/>
					</clipPath>
					<g class="st20">
						<path class="st7" d="M121.2,18.2c0.3,0.9,0.1,1.6-0.5,1.6s-1.3-0.7-1.6-1.5s-0.1-1.6,0.5-1.6S120.8,17.3,121.2,18.2z"/>
						<path class="st7" d="M122.7,18.2c-0.3,0.9-0.1,1.5,0.5,1.6s1.3-0.7,1.6-1.5s0.1-1.6-0.5-1.6S123,17.3,122.7,18.2z"/>
					</g>
				</g>
				<line class="st7" x1="121.6" y1="24.4" x2="127.4" y2="21"/>
				<line class="st7" x1="116.5" y1="21" x2="121.6" y2="24.5"/>
				<line class="st7" x1="113.8" y1="25.8" x2="121.5" y2="30.8"/>
				<polyline class="st7" points="125.6,19.3 125.9,19.5 125.9,21.1 125.9,21.2 121.9,23.5 121.9,23.4 121.9,17 				"/>
				<polyline class="st7" points="118,20.2 116.5,21.1 116.5,25.5 116.5,25.5 121.5,28.9 				"/>
				<polyline class="st7" points="127.6,23.3 130.7,25.4 130.7,27.1 				"/>
				<line class="st7" x1="121.8" y1="17.1" x2="125.5" y2="14.9"/>
				<line class="st7" x1="118.4" y1="14.8" x2="119.9" y2="13.9"/>
				<line class="st7" x1="118.4" y1="14.8" x2="121.9" y2="17.1"/>
				<polyline class="st7" points="125.9,20 127.5,21 127.5,21 127.5,25.4 127.4,25.4 121.5,28.9 				"/>
				<line class="st7" x1="119.9" y1="12.4" x2="121.9" y2="13.8"/>
				<line class="st7" x1="122.9" y1="11.8" x2="123.9" y2="12.5"/>
				<g>
					<defs>
						<rect id="SVGID_25_" x="105.6" y="5.4" width="86.7" height="104.7"/>
					</defs>
					<clipPath id="SVGID_26_">
						<use xlink:href="#SVGID_25_"  style="overflow:visible;"/>
					</clipPath>
					<g class="st21">
						<path class="st7" d="M120,10.1c-0.1,0.1-0.2,0.2-0.2,0.3l0.1,0.3c0.1,0.2,0.6,0.3,1.3,0.1s2.3-1.1,2.5-1.9l-0.2-0.5
							c-0.2,0-0.3,0-0.5,0"/>
					</g>
				</g>
				<polyline class="st7" points="120.7,7 121.8,7.5 122.1,7.4 122.9,6.3 				"/>
				<g>
					<defs>
						<rect id="SVGID_27_" x="105.6" y="5.4" width="86.7" height="104.7"/>
					</defs>
					<clipPath id="SVGID_28_">
						<use xlink:href="#SVGID_27_"  style="overflow:visible;"/>
					</clipPath>
					<g class="st22">
						<path class="st7" d="M123.6,9.4c0.1,0.2,0.1,0.5,0,0.8c-0.2,1-1.1,1.6-2.1,1.4c-0.4-0.1-0.7-0.2-1-0.5l-0.1-0.1"/>
						<path class="st7" d="M120.2,10.5c-0.1-0.1-0.1-0.3-0.1-0.4c-0.1-1,0.5-1.9,1.5-2c0.6-0.1,1.2,0.1,1.6,0.5
							c0.1,0.1,0.2,0.3,0.3,0.4"/>
						<path class="st7" d="M123.1,12.1c0-0.1,0-0.1,0-0.2c0,0,0-0.1-0.1-0.1c-0.1,0-0.2,0-0.3,0.1v-0.1l0.1-0.4"/>
						<path class="st7" d="M122.3,12c0,0.1,0,0.2,0.1,0.2s0.2,0.1,0.3,0"/>
					</g>
				</g>
				<polyline class="st7" points="121.3,12.7 121.3,12.6 121.6,12.2 121.5,12 121.1,12 120.7,11.7 120.9,11.3 				"/>
				<line class="st7" x1="118.4" y1="19.4" x2="121.9" y2="21.7"/>
				<polyline class="st7" points="121.9,23.5 118,21 118,21 118,19.7 118,19.7 118.4,19.4 118.4,19.4 118.4,14.8 				"/>
				<polyline class="st7" points="120.9,11.7 119.8,12.5 119.8,12.5 119.8,14.5 121.9,15.9 121.9,15.8 123.9,14.7 123.9,12.6 
					123.9,12.6 121.9,13.7 				"/>
				<line class="st7" x1="155.7" y1="49.6" x2="168.3" y2="57.6"/>
				<polyline class="st7" points="184.5,60 181.6,61.7 178.9,59.9 				"/>
				<line class="st7" x1="181.6" y1="65.7" x2="181.6" y2="61.7"/>
				<polyline class="st7" points="178.9,60.8 173.1,64.1 123,32.2 				"/>
				<line class="st6" x1="190.7" y1="61.2" x2="130.7" y2="26.5"/>
				<line class="st6" x1="170.1" y1="50" x2="134.5" y2="29.4"/>
				<line class="st7" x1="173.1" y1="65.6" x2="173.1" y2="64.1"/>
				<line class="st7" x1="168.3" y1="59.3" x2="168.3" y2="57.6"/>
				<polygon class="st7" points="175.8,53.2 175.8,54.9 168.3,59.3 155.7,51.3 155.7,49.6 161.2,46.3 168.7,50.8 170.2,49.9 				"/>
				<line class="st7" x1="175.8" y1="53.2" x2="168.3" y2="57.5"/>
				<line class="st7" x1="134.5" y1="29.3" x2="129.1" y2="32.5"/>
				<polygon class="st7" points="124.5,31.3 124.5,29.5 124.5,29.5 129.7,26.5 134.5,29.3 134.5,30.8 134.5,30.9 129.1,34.2 				"/>
				<polyline class="st7" points="178.1,62.7 173.1,65.6 123,33.7 123,33.7 123,32.2 124.5,31.3 				"/>
				<line class="st7" x1="129.1" y1="32.4" x2="124.5" y2="29.6"/>
				<line class="st7" x1="129.1" y1="34.1" x2="129.1" y2="32.4"/>
				<polyline class="st7" points="183.4,59.3 183.8,59.1 183.8,58 175.8,53.3 				"/>
				<line class="st7" x1="183.8" y1="57.9" x2="183.2" y2="58.3"/>
				<line class="st7" x1="130.7" y1="25.5" x2="121.5" y2="30.8"/>
				<polyline class="st7" points="180.4,59 178.9,59.9 178.9,64 181.6,65.7 184.5,64.1 184.5,60 183.3,59.2 				"/>
				<g>
					<defs>
						<rect id="SVGID_29_" x="105.6" y="5.4" width="86.7" height="104.7"/>
					</defs>
					<clipPath id="SVGID_30_">
						<use xlink:href="#SVGID_29_"  style="overflow:visible;"/>
					</clipPath>
					<g class="st23">
						<path class="st7" d="M181.6,57.5c-0.7,0.1-1.2,0.8-1.2,1.5v1c0,0.4,0.6,0.8,1.5,0.8s1.5-0.3,1.5-0.8v-1c0-0.7-0.5-1.4-1.2-1.5
							v-0.2c0-0.1-0.1-0.2-0.2-0.2s-0.2,0.1-0.2,0.2V57.5z"/>
					</g>
				</g>
				<polygon class="st16" points="129.3,59.2 129.3,70.5 134.3,73.8 134.4,62.5 				"/>
				<line class="st17" x1="134.4" y1="65.3" x2="129.3" y2="62"/>
				<line class="st17" x1="134.3" y1="68.1" x2="129.3" y2="64.8"/>
				<line class="st17" x1="134.3" y1="71" x2="129.3" y2="67.7"/>
			</g>
		</g>
	</g>
</g>
</svg>
