<?xml version="1.0" encoding="utf-8"?>
<!-- Generator: Adobe Illustrator 16.0.4, SVG Export Plug-In . SVG Version: 6.00 Build 0)  -->
<!DOCTYPE svg PUBLIC "-//W3C//DTD SVG 1.1//EN" "http://www.w3.org/Graphics/SVG/1.1/DTD/svg11.dtd">
<svg version="1.1" id="Layer_1" xmlns="http://www.w3.org/2000/svg" xmlns:xlink="http://www.w3.org/1999/xlink" x="0px" y="0px"
	 width="143.667px" height="166.333px" viewBox="0 0 143.667 166.333" enable-background="new 0 0 143.667 166.333"
	 xml:space="preserve">
<path fill="#D1D3D4" d="M23.501,125.561c-0.621,0-0.956-0.429-0.956-1.132v-1.4h3.373v1.291c0,0.703-0.313,1.137-0.918,1.137
	c-0.362,0-0.626-0.197-0.714-0.445C24.182,125.329,23.869,125.561,23.501,125.561z M23.139,123.704v0.664
	c0,0.33,0.164,0.506,0.423,0.506c0.264,0,0.423-0.176,0.423-0.506v-0.664H23.139z M24.533,124.274c0,0.336,0.132,0.512,0.401,0.512
	c0.269,0,0.39-0.176,0.39-0.512v-0.57h-0.791V124.274z"/>
<path fill="#D1D3D4" d="M23.803,127.972h-1.258v-0.697h3.373v1.39c0,0.708-0.379,1.181-1.071,1.181
	c-0.538,0-0.879-0.297-0.994-0.769l-1.308,0.89v-0.791l1.258-0.835V127.972z M24.38,127.972v0.648c0,0.352,0.187,0.533,0.467,0.533
	c0.285,0,0.473-0.182,0.473-0.533v-0.648H24.38z"/>
<path fill="#D1D3D4" d="M22.49,133.009c0-0.939,0.736-1.594,1.741-1.594c1.011,0,1.741,0.654,1.741,1.594s-0.73,1.598-1.741,1.598
	C23.227,134.606,22.49,133.948,22.49,133.009z M25.347,133.009c0-0.533-0.456-0.879-1.115-0.879s-1.115,0.346-1.115,0.879
	c0,0.538,0.456,0.89,1.115,0.89S25.347,133.547,25.347,133.009z"/>
<path fill="#D1D3D4" d="M25.918,137.897l-3.373,1.291v-0.713l0.812-0.303v-1.264l-0.812-0.297v-0.703l3.373,1.291V137.897z
	 M23.951,137.129v0.824l1.121-0.412L23.951,137.129z"/>
<path fill="#D1D3D4" d="M25.918,140.81v1.191c0,1.021-0.659,1.665-1.687,1.665s-1.687-0.644-1.687-1.665v-1.191H25.918z
	 M23.166,141.974c0,0.643,0.412,0.994,1.065,0.994c0.659,0,1.071-0.352,1.071-0.994v-0.467h-2.137V141.974z"/>
<path fill="#D1D3D4" d="M25.918,147.45l-2.269,0.583l2.269,0.555v0.692l-3.373-0.879v-0.643l2.225-0.594l-2.225-0.594v-0.643
	l3.373-0.879v0.709l-2.269,0.549l2.269,0.594V147.45z"/>
<path fill="#D1D3D4" d="M25.918,152.429l-3.373,1.291v-0.715l0.812-0.301v-1.264l-0.812-0.297v-0.703l3.373,1.291V152.429z
	 M23.951,151.659v0.824l1.121-0.412L23.951,151.659z"/>
<path fill="#D1D3D4" d="M25.918,157.087v0.742l-2.093-1.226h-1.28v-0.698h1.28l2.093-1.213v0.764l-1.429,0.818L25.918,157.087z"/>
<path fill="#D1D3D4" d="M120.893,116.824v0.703h-2.752v1.571h-0.621v-2.274H120.893z"/>
<path fill="#D1D3D4" d="M120.893,122.575l-3.373,1.291v-0.715l0.813-0.302v-1.264l-0.813-0.296v-0.703l3.373,1.29V122.575z
	 M118.926,121.806v0.824l1.12-0.412L118.926,121.806z"/>
<path fill="#D1D3D4" d="M117.52,125.481h3.373v2.246h-0.615v-1.549h-0.857v1.434h-0.609v-1.434h-1.291V125.481z"/>
<path fill="#D1D3D4" d="M120.893,130.979l-3.373,1.291v-0.714l0.813-0.303v-1.264l-0.813-0.296v-0.703l3.373,1.291V130.979z
	 M118.926,130.21v0.824l1.12-0.412L118.926,130.21z"/>
<path fill="#D1D3D4" d="M120.893,135.632v0.741l-2.093-1.226h-1.28v-0.697h1.28l2.093-1.214V134l-1.429,0.818L120.893,135.632z"/>
<path fill="#D1D3D4" d="M120.893,140.263h-0.615v-1.6h-0.736v1.451h-0.599v-1.451h-0.802v1.6h-0.621v-2.291h3.373V140.263z"/>
<path fill="#D1D3D4" d="M120.893,141.838v2.879h-0.615v-1.088h-2.758v-0.708h2.758v-1.083H120.893z"/>
<path fill="#D1D3D4" d="M120.893,146.205v2.878h-0.615v-1.088h-2.758v-0.708h2.758v-1.082H120.893z"/>
<path fill="#D1D3D4" d="M120.893,153.05h-0.615v-1.6h-0.736v1.451h-0.599v-1.451h-0.802v1.6h-0.621v-2.291h3.373V153.05z"/>
<path fill="#D1D3D4" d="M118.48,157.677c-0.296,0.094-0.434,0.341-0.434,0.67c0,0.341,0.153,0.566,0.423,0.566
	c0.203,0,0.313-0.121,0.379-0.412l0.138-0.604c0.109-0.483,0.368-0.856,0.923-0.856c0.609,0,1.038,0.505,1.038,1.214
	c0,0.769-0.406,1.214-0.978,1.323v-0.697c0.225-0.077,0.4-0.27,0.4-0.621c0-0.318-0.153-0.532-0.396-0.532
	c-0.192,0-0.308,0.126-0.368,0.379l-0.143,0.615c-0.126,0.55-0.439,0.884-0.95,0.884c-0.653,0-1.049-0.538-1.049-1.252
	c0-0.752,0.373-1.285,1.016-1.4V157.677z"/>
<path fill="#D1D3D4" d="M120.893,161.065v2.879h-0.615v-1.088h-2.758v-0.709h2.758v-1.082H120.893z"/>
<path fill="#D1D3D4" d="M52.342,121.069h0.703v2.752h1.571v0.621h-2.274V121.069z"/>
<path fill="#D1D3D4" d="M58.521,121.069v0.615h-1.599v0.736h1.45v0.599h-1.45v0.802h1.599v0.621h-2.291v-3.373H58.521z"/>
<path fill="#D1D3D4" d="M61.597,124.497c-0.939,0-1.593-0.736-1.593-1.741c0-1.011,0.654-1.741,1.593-1.741s1.599,0.73,1.599,1.741
	C63.195,123.761,62.536,124.497,61.597,124.497z M61.597,121.641c-0.533,0-0.879,0.456-0.879,1.115s0.346,1.115,0.879,1.115
	c0.538,0,0.89-0.456,0.89-1.115S62.135,121.641,61.597,121.641z"/>
<path fill="#D1D3D4" d="M67.612,124.442h-0.555l-1.593-2.247v2.247h-0.675v-3.373h0.659l1.489,2.132v-2.132h0.675V124.442z"/>
<path fill="#D1D3D4" d="M71.111,121.069l1.291,3.373h-0.714l-0.302-0.812h-1.264l-0.296,0.812h-0.703l1.291-3.373H71.111z
	 M70.342,123.036h0.824l-0.412-1.121L70.342,123.036z"/>
<path fill="#D1D3D4" d="M74.605,123.185v1.258h-0.698v-3.373h1.39c0.708,0,1.181,0.379,1.181,1.071c0,0.538-0.297,0.879-0.769,0.994
	l0.89,1.308h-0.791l-0.835-1.258H74.605z M74.605,122.607h0.648c0.352,0,0.533-0.187,0.533-0.467c0-0.285-0.181-0.473-0.533-0.473
	h-0.648V122.607z"/>
<path fill="#D1D3D4" d="M78.104,121.069h1.192c1.021,0,1.665,0.659,1.665,1.687s-0.643,1.687-1.665,1.687h-1.192V121.069z
	 M79.269,123.821c0.643,0,0.994-0.412,0.994-1.065c0-0.659-0.352-1.071-0.994-1.071h-0.467v2.137H79.269z"/>
<path fill="#D1D3D4" d="M85.308,123.481c0.093,0.296,0.341,0.434,0.67,0.434c0.34,0,0.565-0.154,0.565-0.423
	c0-0.203-0.121-0.313-0.412-0.379l-0.604-0.138c-0.483-0.109-0.857-0.368-0.857-0.923c0-0.609,0.505-1.038,1.214-1.038
	c0.77,0,1.214,0.406,1.324,0.978h-0.698c-0.077-0.225-0.269-0.4-0.621-0.4c-0.319,0-0.533,0.153-0.533,0.396
	c0,0.191,0.126,0.308,0.379,0.367l0.615,0.144c0.549,0.126,0.884,0.439,0.884,0.95c0,0.653-0.538,1.049-1.252,1.049
	c-0.752,0-1.286-0.373-1.401-1.016H85.308z"/>
<path fill="#D1D3D4" d="M88.593,121.069h2.878v0.615h-1.087v2.758h-0.708v-2.758h-1.082V121.069z"/>
<path fill="#D1D3D4" d="M49.866,156.313c0.796,0,1.285,0.467,1.412,1.143H50.58c-0.115-0.308-0.324-0.517-0.714-0.517
	c-0.539,0-0.857,0.473-0.857,1.115c0,0.638,0.318,1.115,0.857,1.115c0.39,0,0.599-0.209,0.714-0.521h0.698
	c-0.126,0.681-0.615,1.147-1.412,1.147c-0.901,0-1.571-0.708-1.571-1.741C48.294,157.022,48.965,156.313,49.866,156.313z"/>
<path fill="#D1D3D4" d="M54.601,156.368l1.291,3.373h-0.714l-0.302-0.812h-1.264l-0.296,0.812h-0.703l1.291-3.373H54.601z
	 M53.832,158.335h0.824l-0.412-1.121L53.832,158.335z"/>
<path fill="#D1D3D4" d="M56.984,156.368h2.879v0.615h-1.088v2.758h-0.708v-2.758h-1.083V156.368z"/>
<path fill="#D1D3D4" d="M64.466,156.368v3.373h-0.703v-1.417h-1.527v1.417h-0.703v-3.373h0.703v1.341h1.527v-1.341H64.466z"/>
<path fill="#D1D3D4" d="M68.614,156.368v0.615h-1.599v0.736h1.45v0.599h-1.45v0.802h1.599v0.621h-2.291v-3.373H68.614z"/>
<path fill="#D1D3D4" d="M71.068,158.483v1.258h-0.697v-3.373h1.39c0.708,0,1.181,0.379,1.181,1.071c0,0.538-0.297,0.879-0.769,0.994
	l0.89,1.308h-0.791l-0.835-1.258H71.068z M71.068,157.906h0.648c0.352,0,0.533-0.187,0.533-0.467c0-0.285-0.181-0.473-0.533-0.473
	h-0.648V157.906z"/>
<path fill="#D1D3D4" d="M75.381,159.741h-0.703v-3.373h0.703V159.741z"/>
<path fill="#D1D3D4" d="M80.053,159.741h-0.555l-1.593-2.247v2.247H77.23v-3.373h0.659l1.489,2.132v-2.132h0.675V159.741z"/>
<path fill="#D1D3D4" d="M84.206,156.368v0.615h-1.599v0.736h1.45v0.599h-1.45v0.802h1.599v0.621h-2.291v-3.373H84.206z"/>
<path fill="#D1D3D4" d="M88.339,156.368h0.703v2.752h1.571v0.621h-2.274V156.368z"/>
<path fill="#D1D3D4" d="M95.161,159.741h-0.555l-1.593-2.247v2.247h-0.676v-3.373h0.659l1.488,2.132v-2.132h0.676V159.741z"/>
<polyline points="94.762,133.526 94.762,133.631 94.762,140.317 97.443,140.317 97.443,139.725 100.279,139.725 100.279,138.735 
	104.674,138.735 104.674,140.099 109.146,140.098 109.146,133.631 "/>
<g>
	<defs>
		<rect id="SVGID_1_" x="32.616" y="132.457" width="78.41" height="17.694"/>
	</defs>
	<clipPath id="SVGID_2_">
		<use xlink:href="#SVGID_1_"  overflow="visible"/>
	</clipPath>
	<polygon clip-path="url(#SVGID_2_)" fill="none" stroke="#D0D2D3" stroke-width="0.764" stroke-miterlimit="10" points="
		109.146,133.631 109.146,148.978 33.561,144.274 33.596,133.631 	"/>
</g>
<path fill="#D1D3D4" d="M7.854,57.309l0.527,0.329l-2.037,1.326l1.176,0.736l-0.46,0.299l-1.703-1.065L7.854,57.309z"/>
<path fill="#D1D3D4" d="M12.641,60.302l-0.455,0.296l-1.197-0.749l-0.545,0.354l1.086,0.68l-0.443,0.289L10,60.492l-0.594,0.386
	l1.197,0.749l-0.46,0.299l-1.716-1.073l2.497-1.625L12.641,60.302z"/>
<path fill="#D1D3D4" d="M12.565,63.492c-0.704-0.44-0.648-1.101,0.096-1.585c0.748-0.487,1.778-0.533,2.482-0.093
	c0.703,0.44,0.656,1.101-0.092,1.588C14.308,63.887,13.269,63.933,12.565,63.492z M14.68,62.116
	c-0.399-0.25-0.995-0.192-1.483,0.125c-0.488,0.318-0.567,0.7-0.167,0.949c0.403,0.252,1.003,0.197,1.492-0.12
	C15.009,62.752,15.083,62.368,14.68,62.116z"/>
<path fill="#D1D3D4" d="M17.268,66.381l-0.415-0.26l0.471-1.829l-1.664,1.083l-0.506-0.316l2.497-1.625l0.493,0.309l-0.462,1.725
	l1.578-1.027l0.506,0.316L17.268,66.381z"/>
<path fill="#D1D3D4" d="M22.543,66.493l-1.53,2.23l-0.535-0.334l0.377-0.533l-0.946-0.592l-0.824,0.253l-0.527-0.33l3.464-1.021
	L22.543,66.493z M20.512,67.081l0.616,0.386l0.521-0.733L20.512,67.081z"/>
<path fill="#D1D3D4" d="M23.755,69.249l-0.932,0.606l-0.522-0.327l2.497-1.625l1.041,0.651c0.531,0.332,0.605,0.736,0.093,1.069
	c-0.399,0.26-0.874,0.284-1.313,0.119l-0.301,1.046l-0.593-0.371l0.307-0.997L23.755,69.249z M24.182,68.971l0.486,0.304
	c0.264,0.165,0.537,0.159,0.745,0.024c0.211-0.137,0.215-0.312-0.049-0.477l-0.486-0.304L24.182,68.971z"/>
<path fill="#D1D3D4" d="M28.1,69.968l0.893,0.559c0.766,0.479,0.759,1.097-0.001,1.592c-0.761,0.495-1.73,0.512-2.496,0.033
	l-0.893-0.558L28.1,69.968z M26.936,71.839c0.48,0.301,1.049,0.268,1.533-0.047c0.488-0.318,0.529-0.681,0.049-0.982l-0.351-0.219
	l-1.582,1.029L26.936,71.839z"/>
<path fill="#D1D3D4" d="M32.032,74.706c-0.149,0.187-0.065,0.368,0.182,0.523c0.255,0.16,0.537,0.191,0.736,0.061
	c0.15-0.098,0.142-0.207-0.027-0.375l-0.351-0.35c-0.28-0.279-0.37-0.579,0.042-0.846c0.451-0.294,1.147-0.264,1.678,0.068
	c0.576,0.36,0.608,0.765,0.269,1.092l-0.522-0.327c0.108-0.145,0.095-0.32-0.169-0.484c-0.238-0.149-0.513-0.176-0.691-0.06
	c-0.143,0.093-0.134,0.207,0.011,0.355l0.355,0.357c0.317,0.318,0.336,0.625-0.042,0.872c-0.484,0.315-1.18,0.253-1.715-0.081
	c-0.562-0.352-0.686-0.782-0.297-1.146L32.032,74.706z"/>
<path fill="#D1D3D4" d="M36.432,75.178l2.156,1.349l-0.455,0.297l-0.814-0.51l-2.042,1.329l-0.531-0.332l2.042-1.329l-0.811-0.507
	L36.432,75.178z"/>
<line fill="none" stroke="#000000" stroke-width="0.119" stroke-miterlimit="10" x1="58.087" y1="46.992" x2="58.087" y2="43.366"/>
<line fill="none" stroke="#000000" stroke-width="0.119" stroke-miterlimit="10" x1="9.661" y1="17.951" x2="9.661" y2="14.951"/>
<line fill="none" stroke="#000000" stroke-width="0.119" stroke-miterlimit="10" x1="19.729" y1="21.845" x2="19.729" y2="23.517"/>
<line fill="none" stroke="#000000" stroke-width="0.119" stroke-miterlimit="10" x1="15.284" y1="19.315" x2="15.284" y2="20.987"/>
<line fill="none" stroke="#000000" stroke-width="0.119" stroke-miterlimit="10" x1="20.927" y1="21.188" x2="20.927" y2="22.859"/>
<line fill="none" stroke="#000000" stroke-width="0.112" stroke-miterlimit="10" x1="20.935" y1="22.833" x2="19.715" y2="23.547"/>
<line fill="none" stroke="#000000" stroke-width="0.112" stroke-miterlimit="10" x1="20.874" y1="21.25" x2="19.744" y2="21.911"/>
<line fill="none" stroke="#000000" stroke-width="0.112" stroke-miterlimit="10" x1="51.487" y1="35.627" x2="46.61" y2="38.48"/>
<line fill="none" stroke="#000000" stroke-width="0.112" stroke-miterlimit="10" x1="55.224" y1="38.603" x2="51.045" y2="41.048"/>
<line fill="none" stroke="#000000" stroke-width="0.119" stroke-miterlimit="10" x1="26.789" y1="24.566" x2="26.789" y2="26.237"/>
<line fill="none" stroke="#000000" stroke-width="0.112" stroke-miterlimit="10" x1="30.872" y1="23.204" x2="50.601" y2="36.161"/>
<line fill="none" stroke="#000000" stroke-width="0.112" stroke-miterlimit="10" x1="51.464" y1="35.621" x2="55.224" y2="38.091"/>
<line fill="none" stroke="#000000" stroke-width="0.112" stroke-miterlimit="10" x1="30.871" y1="22.69" x2="50.982" y2="35.898"/>
<line fill="none" stroke="#000000" stroke-width="0.112" stroke-miterlimit="10" x1="7.287" y1="16.97" x2="9.333" y2="18.155"/>
<line fill="none" stroke="#000000" stroke-width="0.112" stroke-miterlimit="10" x1="15.284" y1="19.315" x2="19.729" y2="21.894"/>
<line fill="none" stroke="#000000" stroke-width="0.112" stroke-miterlimit="10" x1="20.941" y1="21.25" x2="26.848" y2="24.671"/>
<line fill="none" stroke="#000000" stroke-width="0.112" stroke-miterlimit="10" x1="20.908" y1="22.834" x2="26.789" y2="26.242"/>
<line fill="none" stroke="#000000" stroke-width="0.112" stroke-miterlimit="10" x1="46.632" y1="38.488" x2="51.052" y2="41.049"/>
<line fill="none" stroke="#000000" stroke-width="0.119" stroke-miterlimit="10" x1="58.064" y1="36.529" x2="58.064" y2="34.748"/>
<polyline fill="none" stroke="#000000" stroke-width="0.119" stroke-miterlimit="10" points="50.641,44.426 49.936,44.002 
	49.049,44.522 10.87,22.403 10.87,20.531 "/>
<polyline fill="none" stroke="#000000" stroke-width="0.119" stroke-miterlimit="10" points="20.442,16.355 16.657,13.869 
	8.053,18.905 49.049,42.646 "/>
<line fill="none" stroke="#000000" stroke-width="0.119" stroke-miterlimit="10" x1="49.048" y1="42.646" x2="49.048" y2="44.519"/>
<line fill="none" stroke="#000000" stroke-width="0.119" stroke-miterlimit="10" x1="49.94" y1="42.113" x2="49.048" y2="42.635"/>
<polyline fill="none" stroke="#000000" stroke-width="0.119" stroke-miterlimit="10" points="49.94,44.002 49.94,42.113 
	46.632,40.196 "/>
<line fill="none" stroke="#000000" stroke-width="0.119" stroke-miterlimit="10" x1="58.126" y1="50.43" x2="58.126" y2="48.371"/>
<polyline fill="none" stroke="#000000" stroke-width="0.119" stroke-miterlimit="10" points="62.628,42.627 65.129,44.271 
	65.129,46.339 58.126,50.438 50.642,46.102 50.642,44.04 53.651,42.278 "/>
<polyline fill="none" stroke="#000000" stroke-width="0.119" stroke-miterlimit="10" points="65.129,44.271 58.125,48.371 
	50.641,44.04 "/>
<polyline fill="none" stroke="#000000" stroke-width="0.112" stroke-miterlimit="10" points="8.802,19.327 8.802,20.337 
	10.87,21.546 "/>
<line fill="none" stroke="#000000" stroke-width="0.112" stroke-miterlimit="10" x1="15.284" y1="20.985" x2="19.729" y2="23.56"/>
<line fill="none" stroke="#000000" stroke-width="0.109" stroke-miterlimit="10" x1="46.613" y1="40.189" x2="46.613" y2="38.487"/>
<line fill="none" stroke="#000000" stroke-width="0.109" stroke-miterlimit="10" x1="51.052" y1="43.768" x2="51.052" y2="41.054"/>
<polyline fill="none" stroke="#000000" stroke-width="0.112" stroke-miterlimit="10" points="60.998,35.656 58.091,37.356 
	55.225,35.692 "/>
<polyline fill="none" stroke="#000000" stroke-width="0.119" stroke-miterlimit="10" points="60.998,39.353 61.271,39.512 
	61.271,40.781 58.099,42.636 54.9,40.784 54.9,39.612 55.225,39.422 "/>
<line fill="none" stroke="#000000" stroke-width="0.119" stroke-miterlimit="10" x1="58.094" y1="42.632" x2="58.094" y2="37.356"/>
<polyline fill="none" stroke="#000000" stroke-width="0.119" stroke-miterlimit="10" points="61.272,39.909 62.628,40.695 
	62.628,44.344 58.087,46.998 53.65,44.427 53.65,40.769 54.901,40.037 "/>
<polyline fill="none" stroke="#000000" stroke-width="0.119" stroke-miterlimit="10" points="62.628,40.695 58.088,43.366 
	53.685,40.815 "/>
<polyline fill="none" stroke="#000000" stroke-width="0.119" stroke-miterlimit="10" points="7.287,16.949 2.944,19.491 
	2.944,49.97 "/>
<polyline fill="none" stroke="#000000" stroke-width="0.119" stroke-miterlimit="10" points="12.092,14.136 15.134,12.355 
	20.858,16.114 "/>
<line fill="none" stroke="#000000" stroke-width="0.119" stroke-miterlimit="10" x1="58.088" y1="51.438" x2="58.058" y2="78.953"/>
<line fill="none" stroke="#000000" stroke-width="0.117" stroke-miterlimit="10" x1="58.073" y1="78.934" x2="28.629" y2="61.876"/>
<polyline fill="none" stroke="#000000" stroke-width="0.117" stroke-miterlimit="10" points="66.413,51.17 58.089,56.022 
	3.005,24.111 "/>
<polyline fill="none" stroke="#000000" stroke-width="0.117" stroke-miterlimit="10" points="66.413,53.463 58.089,58.316 
	3.005,26.405 "/>
<polyline fill="none" stroke="#000000" stroke-width="0.117" stroke-miterlimit="10" points="66.413,55.756 58.089,60.609 
	3.005,28.697 "/>
<polyline fill="none" stroke="#000000" stroke-width="0.117" stroke-miterlimit="10" points="66.413,58.049 58.089,62.901 
	3.005,30.99 "/>
<polyline fill="none" stroke="#000000" stroke-width="0.117" stroke-miterlimit="10" points="66.413,60.343 58.089,65.195 
	3.005,33.284 "/>
<polyline fill="none" stroke="#000000" stroke-width="0.117" stroke-miterlimit="10" points="66.413,62.635 58.089,67.488 
	3.005,35.577 "/>
<polyline fill="none" stroke="#000000" stroke-width="0.117" stroke-miterlimit="10" points="66.413,64.929 58.089,69.782 
	3.005,37.87 "/>
<polyline fill="none" stroke="#000000" stroke-width="0.117" stroke-miterlimit="10" points="66.413,67.222 58.089,72.074 
	3.005,40.163 "/>
<line fill="none" stroke="#000000" stroke-width="0.117" stroke-miterlimit="10" x1="66.413" y1="69.514" x2="64.454" y2="70.657"/>
<polyline fill="none" stroke="#000000" stroke-width="0.117" stroke-miterlimit="10" points="60.033,73.233 58.088,74.367 
	3.005,42.456 "/>
<line fill="none" stroke="#000000" stroke-width="0.117" stroke-miterlimit="10" x1="64.455" y1="72.949" x2="66.414" y2="71.807"/>
<polyline fill="none" stroke="#000000" stroke-width="0.117" stroke-miterlimit="10" points="60.033,75.526 58.088,76.66 
	3.005,44.749 "/>
<polyline fill="none" stroke="#000000" stroke-width="0.117" stroke-miterlimit="10" points="66.413,48.877 58.089,53.73 
	3.005,21.818 "/>
<line fill="none" stroke="#000000" stroke-width="0.117" stroke-miterlimit="10" x1="26.303" y1="60.529" x2="2.995" y2="47.024"/>
<polyline fill="none" stroke="#000000" stroke-width="0.112" stroke-miterlimit="10" points="8.543,12.841 7.287,13.576 
	7.287,16.97 "/>
<polyline fill="none" stroke="#000000" stroke-width="0.112" stroke-miterlimit="10" points="10.923,12.85 12.092,13.528 
	12.092,16.511 "/>
<polyline fill="none" stroke="#000000" stroke-width="0.112" stroke-miterlimit="10" points="7.287,13.576 9.661,14.951 
	12.092,13.528 "/>
<polyline fill="none" stroke="#000000" stroke-width="0.119" stroke-miterlimit="10" points="59.073,33.385 59.694,33.793 
	59.694,35.577 58.064,36.53 56.418,35.576 56.418,33.794 57.267,33.297 "/>
<polyline fill="none" stroke="#000000" stroke-width="0.112" stroke-miterlimit="10" points="59.697,33.794 58.064,34.749 
	56.417,33.794 "/>
<g>
	<defs>
		<rect id="SVGID_3_" x="1.572" y="2.977" width="69.784" height="77.68"/>
	</defs>
	<clipPath id="SVGID_4_">
		<use xlink:href="#SVGID_3_"  overflow="visible"/>
	</clipPath>
	<path clip-path="url(#SVGID_4_)" fill="none" stroke="#000000" stroke-width="0.119" stroke-miterlimit="10" d="M56.548,31.874
		c-0.035,0.07-0.156,0.203-0.168,0.257l0.1,0.264c0.1,0.134,0.466,0.257,1.077,0.083c0.611-0.173,1.891-0.852,2.009-1.539
		l-0.206-0.386c0,0-0.189-0.06-0.398-0.007"/>
</g>
<polyline fill="none" stroke="#000000" stroke-width="0.119" stroke-miterlimit="10" points="57.122,29.361 57.991,29.782 
	58.258,29.67 58.859,28.828 "/>
<g>
	<defs>
		<rect id="SVGID_5_" x="1.572" y="2.977" width="69.784" height="77.68"/>
	</defs>
	<clipPath id="SVGID_6_">
		<use xlink:href="#SVGID_5_"  overflow="visible"/>
	</clipPath>
	<path clip-path="url(#SVGID_6_)" fill="none" stroke="#000000" stroke-width="0.119" stroke-miterlimit="10" d="M59.414,31.287
		c0.044,0.195,0.049,0.403,0.006,0.612c-0.16,0.784-0.927,1.291-1.711,1.13c-0.304-0.061-0.566-0.215-0.764-0.424l-0.06-0.046"/>
	<path clip-path="url(#SVGID_6_)" fill="none" stroke="#000000" stroke-width="0.119" stroke-miterlimit="10" d="M56.66,32.184
		c-0.048-0.112-0.082-0.23-0.101-0.356c-0.121-0.792,0.424-1.531,1.216-1.652c0.487-0.074,0.929,0.076,1.27,0.435
		c0.171,0.193,0.233,0.344,0.233,0.344"/>
	<path clip-path="url(#SVGID_6_)" fill="none" stroke="#000000" stroke-width="0.119" stroke-miterlimit="10" d="M57.45,38.433
		c0.243,0.696,0.052,1.26-0.425,1.262c-0.477,0.001-1.06-0.562-1.303-1.257c-0.243-0.696-0.052-1.261,0.425-1.262
		S57.207,37.736,57.45,38.433z"/>
	<path clip-path="url(#SVGID_6_)" fill="none" stroke="#000000" stroke-width="0.119" stroke-miterlimit="10" d="M58.691,38.456
		c-0.243,0.696-0.052,1.26,0.425,1.262c0.477,0.001,1.06-0.562,1.303-1.257c0.242-0.696,0.052-1.26-0.425-1.262
		S58.935,37.76,58.691,38.456z"/>
	
		<path clip-path="url(#SVGID_6_)" fill="none" stroke="#000000" stroke-width="0.112" stroke-linejoin="bevel" stroke-miterlimit="10" d="
		M59.07,33.464c0,0,0.004-0.126-0.008-0.156c-0.012-0.031-0.03-0.058-0.079-0.07c-0.049-0.013-0.255,0.047-0.255,0.047
		s-0.002-0.034-0.002-0.081v-0.036l0.077-0.331"/>
	<path clip-path="url(#SVGID_6_)" fill="none" stroke="#000000" stroke-width="0.112" stroke-miterlimit="10" d="M58.383,33.45
		c-0.016,0.061,0.046,0.125,0.058,0.167c0.019,0.061,0.158,0.104,0.28,0.015"/>
</g>
<polyline fill="none" stroke="#000000" stroke-width="0.112" stroke-miterlimit="10" points="57.607,34.01 57.607,33.876 
	57.794,33.561 57.763,33.45 57.416,33.393 57.106,33.203 57.232,32.839 "/>
<polyline fill="none" stroke="#000000" stroke-width="0.119" stroke-miterlimit="10" points="56.418,34.993 55.224,35.692 
	55.224,39.585 58.097,41.249 60.998,39.555 60.998,35.656 59.699,34.904 "/>
<g>
	<defs>
		<rect id="SVGID_7_" x="1.572" y="2.977" width="69.784" height="77.68"/>
	</defs>
	<clipPath id="SVGID_8_">
		<use xlink:href="#SVGID_7_"  overflow="visible"/>
	</clipPath>
	<path clip-path="url(#SVGID_8_)" fill="none" stroke="#000000" stroke-width="0.112" stroke-miterlimit="10" d="M9.535,11.53
		c-0.563,0.098-0.992,0.609-0.992,1.224v0.864c0,0.337,0.533,0.611,1.19,0.611c0.657,0,1.19-0.274,1.19-0.611v-0.864
		c0-0.615-0.43-1.125-0.992-1.224v-0.131c0-0.061-0.076-0.132-0.199-0.132c-0.121,0-0.197,0.071-0.197,0.132V11.53z"/>
</g>
<polyline fill="none" stroke="#000000" stroke-width="0.119" stroke-miterlimit="10" points="66.413,46.583 58.089,51.437 
	3.005,19.526 "/>
<polyline fill="none" stroke="#000000" stroke-width="0.119" stroke-miterlimit="10" points="28.629,62.297 27.021,61.367 
	25.571,62.213 27.579,63.375 28.629,62.763 "/>
<line fill="none" stroke="#000000" stroke-width="0.119" stroke-miterlimit="10" x1="28.629" y1="62.297" x2="27.021" y2="61.367"/>
<line fill="none" stroke="#000000" stroke-width="0.119" stroke-miterlimit="10" x1="28.629" y1="63.639" x2="27.874" y2="63.202"/>
<g>
	<defs>
		<rect id="SVGID_9_" x="1.572" y="2.977" width="69.784" height="77.68"/>
	</defs>
	<clipPath id="SVGID_10_">
		<use xlink:href="#SVGID_9_"  overflow="visible"/>
	</clipPath>
	<path clip-path="url(#SVGID_10_)" fill="none" stroke="#000000" stroke-width="0.119" stroke-miterlimit="10" d="M27.348,59.541
		c-0.219,0.187-0.323,0.502-0.323,0.664v1.186"/>
</g>
<polyline fill="none" stroke="#000000" stroke-width="0.119" stroke-miterlimit="10" points="26.708,62.871 26.299,63.11 
	2.944,49.953 "/>
<line fill="none" stroke="#000000" stroke-width="0.119" stroke-miterlimit="10" x1="26.302" y1="63.109" x2="26.302" y2="62.637"/>
<g>
	<defs>
		<rect id="SVGID_11_" x="1.572" y="2.977" width="69.784" height="77.68"/>
	</defs>
	<clipPath id="SVGID_12_">
		<use xlink:href="#SVGID_11_"  overflow="visible"/>
	</clipPath>
	<path clip-path="url(#SVGID_12_)" fill="none" stroke="#000000" stroke-width="0.119" stroke-miterlimit="10" d="M64.455,75.217
		v-4.439l-4.421,2.455v4.568l-1.977,1.153L43.238,71.94l-11.886-5.983l-2.724-1.534v-3.119c0-0.202-0.189-1.151-1.163-1.714
		c-0.821-0.477-1.164,0.373-1.164,0.673v1.525"/>
</g>
<polyline fill="none" stroke="#000000" stroke-width="0.119" stroke-miterlimit="10" points="61.327,75.533 61.327,74.38 
	60.607,74.797 60.607,75.95 "/>
<g>
	<defs>
		<rect id="SVGID_13_" x="1.572" y="2.977" width="69.784" height="77.68"/>
	</defs>
	<clipPath id="SVGID_14_">
		<use xlink:href="#SVGID_13_"  overflow="visible"/>
	</clipPath>
	<path clip-path="url(#SVGID_14_)" fill="none" stroke="#000000" stroke-width="0.119" stroke-miterlimit="10" d="M65.129,45.765
		l1.273,0.836v27.488l-1.948,1.128c-0.067-0.025-1.669-0.493-2.957,0.22l-1.017,0.59c-0.198,0.101-0.34,0.212-0.447,0.33"/>
</g>
<polyline fill="none" stroke="#000000" stroke-width="0.112" stroke-miterlimit="10" points="26.789,26.237 30.872,23.805 
	30.872,22.231 21.249,15.888 15.285,19.336 "/>
<line fill="none" stroke="#000000" stroke-width="0.112" stroke-miterlimit="10" x1="30.871" y1="22.224" x2="26.799" y2="24.624"/>
<g>
	<defs>
		<rect id="SVGID_15_" x="1.572" y="2.977" width="69.784" height="77.68"/>
	</defs>
	<clipPath id="SVGID_16_">
		<use xlink:href="#SVGID_15_"  overflow="visible"/>
	</clipPath>
</g>
<polygon points="3.005,19.561 2.944,35.499 11.842,40.631 11.842,24.645 "/>
<line fill="none" stroke="#FFFFFF" stroke-width="0.117" stroke-miterlimit="10" x1="2.944" y1="21.818" x2="11.842" y2="26.938"/>
<line fill="none" stroke="#FFFFFF" stroke-width="0.117" stroke-miterlimit="10" x1="2.944" y1="24.111" x2="11.842" y2="29.231"/>
<line fill="none" stroke="#FFFFFF" stroke-width="0.117" stroke-miterlimit="10" x1="2.944" y1="26.405" x2="11.842" y2="31.525"/>
<line fill="none" stroke="#FFFFFF" stroke-width="0.117" stroke-miterlimit="10" x1="2.944" y1="28.698" x2="11.842" y2="33.817"/>
<line fill="none" stroke="#FFFFFF" stroke-width="0.117" stroke-miterlimit="10" x1="2.944" y1="30.991" x2="11.842" y2="36.11"/>
<line fill="none" stroke="#FFFFFF" stroke-width="0.117" stroke-miterlimit="10" x1="2.944" y1="33.284" x2="11.842" y2="38.404"/>
<g>
	<defs>
		<rect id="SVGID_17_" x="78.044" y="0.205" width="63.715" height="80.452"/>
	</defs>
	<clipPath id="SVGID_18_">
		<use xlink:href="#SVGID_17_"  overflow="visible"/>
	</clipPath>
</g>
<polyline fill="none" stroke="#000000" stroke-width="0.117" stroke-miterlimit="10" points="140.4,46.593 129.995,52.471 
	83.066,21.563 "/>
<polyline fill="none" stroke="#000000" stroke-width="0.117" stroke-miterlimit="10" points="140.4,48.896 129.995,54.774 
	83.066,23.866 "/>
<polyline fill="none" stroke="#000000" stroke-width="0.117" stroke-miterlimit="10" points="140.4,51.199 129.995,57.076 
	83.066,26.169 "/>
<polyline fill="none" stroke="#000000" stroke-width="0.117" stroke-miterlimit="10" points="140.4,53.502 129.995,59.379 
	83.066,28.471 "/>
<polyline fill="none" stroke="#000000" stroke-width="0.117" stroke-miterlimit="10" points="140.4,55.806 129.995,61.683 
	83.066,30.774 "/>
<polyline fill="none" stroke="#000000" stroke-width="0.117" stroke-miterlimit="10" points="140.4,58.108 129.995,63.986 
	83.066,33.078 "/>
<polyline fill="none" stroke="#000000" stroke-width="0.117" stroke-miterlimit="10" points="140.4,60.412 129.995,66.289 
	83.066,35.381 "/>
<polyline fill="none" stroke="#000000" stroke-width="0.117" stroke-miterlimit="10" points="140.4,62.714 129.995,68.592 
	83.066,37.684 "/>
<polyline fill="none" stroke="#000000" stroke-width="0.117" stroke-miterlimit="10" points="140.4,65.017 129.995,70.896 
	83.066,39.987 "/>
<polyline fill="none" stroke="#000000" stroke-width="0.117" stroke-miterlimit="10" points="140.4,67.32 129.995,73.197 
	83.066,42.291 "/>
<polyline fill="none" stroke="#000000" stroke-width="0.117" stroke-miterlimit="10" points="140.4,69.624 129.995,75.5 
	83.066,44.594 "/>
<line fill="none" stroke="#000000" stroke-width="0.112" stroke-miterlimit="10" x1="91.964" y1="23.639" x2="91.964" y2="22.398"/>
<line fill="none" stroke="#000000" stroke-width="0.112" stroke-miterlimit="10" x1="96.53" y1="24.237" x2="96.53" y2="22.845"/>
<line fill="none" stroke="#000000" stroke-width="0.112" stroke-miterlimit="10" x1="92.786" y1="21.89" x2="92.786" y2="20.498"/>
<line fill="none" stroke="#000000" stroke-width="0.112" stroke-miterlimit="10" x1="100.925" y1="21.69" x2="100.925" y2="20.298"/>
<line fill="none" stroke="#000000" stroke-width="0.112" stroke-miterlimit="10" x1="131.253" y1="44.608" x2="131.253" y2="43.393"/>
<line fill="none" stroke="#000000" stroke-width="0.112" stroke-miterlimit="10" x1="114.373" y1="35.556" x2="114.373" y2="34.34"/>
<line fill="none" stroke="#000000" stroke-width="0.112" stroke-miterlimit="10" x1="90.412" y1="21.416" x2="90.412" y2="23.479"/>
<line fill="none" stroke="#000000" stroke-width="0.112" stroke-miterlimit="10" x1="97.872" y1="16.985" x2="97.872" y2="18.407"/>
<line fill="none" stroke="#000000" stroke-width="0.112" stroke-miterlimit="10" x1="131.253" y1="44.608" x2="131.911" y2="45.026"/>
<line fill="none" stroke="#000000" stroke-width="0.112" stroke-miterlimit="10" x1="95.317" y1="17.032" x2="95.317" y2="13.347"/>
<line fill="none" stroke="#000000" stroke-width="0.112" stroke-miterlimit="10" x1="87.913" y1="12.331" x2="87.913" y2="8.372"/>
<line fill="none" stroke="#000000" stroke-width="0.112" stroke-miterlimit="10" x1="90.763" y1="9.155" x2="90.763" y2="7.411"/>
<line fill="none" stroke="#000000" stroke-width="0.112" stroke-miterlimit="10" x1="90.746" y1="15.351" x2="90.746" y2="10.128"/>
<line fill="none" stroke="#000000" stroke-width="0.112" stroke-miterlimit="10" x1="93.687" y1="12.294" x2="93.687" y2="8.44"/>
<line fill="none" stroke="#000000" stroke-width="0.112" stroke-miterlimit="10" x1="90.763" y1="9.245" x2="90.763" y2="7.499"/>
<line fill="none" stroke="#000000" stroke-width="0.112" stroke-miterlimit="10" x1="93.961" y1="13.497" x2="93.961" y2="12.263"/>
<line fill="none" stroke="#000000" stroke-width="0.112" stroke-miterlimit="10" x1="87.581" y1="13.667" x2="87.581" y2="12.432"/>
<line fill="none" stroke="#000000" stroke-width="0.112" stroke-miterlimit="10" x1="90.49" y1="19.846" x2="90.49" y2="16.184"/>
<line fill="none" stroke="#000000" stroke-width="0.112" stroke-miterlimit="10" x1="86.339" y1="17.067" x2="86.339" y2="13.497"/>
<polyline fill="none" stroke="#000000" stroke-width="0.112" stroke-miterlimit="10" points="92.119,22.471 90.412,23.478 
	84.175,19.373 84.175,17.323 86.338,16.057 "/>
<line fill="none" stroke="#000000" stroke-width="0.112" stroke-miterlimit="10" x1="91.942" y1="22.433" x2="92.798" y2="21.929"/>
<line fill="none" stroke="#000000" stroke-width="0.112" stroke-miterlimit="10" x1="90.438" y1="19.825" x2="86.341" y2="17.126"/>
<line fill="none" stroke="#000000" stroke-width="0.112" stroke-miterlimit="10" x1="90.757" y1="14.001" x2="93.894" y2="12.156"/>
<line fill="none" stroke="#000000" stroke-width="0.112" stroke-miterlimit="10" x1="90.505" y1="15.601" x2="93.894" y2="13.608"/>
<g>
	<defs>
		<rect id="SVGID_19_" x="78.044" y="0.205" width="63.715" height="80.452"/>
	</defs>
	<clipPath id="SVGID_20_">
		<use xlink:href="#SVGID_19_"  overflow="visible"/>
	</clipPath>
	<path clip-path="url(#SVGID_20_)" fill="none" stroke="#000000" stroke-width="0.112" stroke-miterlimit="10" d="M90.139,11.147
		c0.243,0.696,0.052,1.261-0.425,1.262s-1.06-0.562-1.303-1.257c-0.242-0.696-0.051-1.26,0.425-1.262
		C89.313,9.89,89.896,10.452,90.139,11.147z"/>
	<path clip-path="url(#SVGID_20_)" fill="none" stroke="#000000" stroke-width="0.112" stroke-miterlimit="10" d="M91.381,11.171
		c-0.243,0.696-0.051,1.26,0.425,1.262c0.477,0.001,1.06-0.562,1.303-1.257c0.242-0.696,0.052-1.261-0.425-1.262
		S91.624,10.475,91.381,11.171z"/>
</g>
<line fill="none" stroke="#000000" stroke-width="0.112" stroke-miterlimit="10" x1="90.49" y1="16.217" x2="95.354" y2="13.358"/>
<line fill="none" stroke="#000000" stroke-width="0.112" stroke-miterlimit="10" x1="90.412" y1="19.873" x2="95.245" y2="17.033"/>
<line fill="none" stroke="#000000" stroke-width="0.112" stroke-miterlimit="10" x1="87.42" y1="12.433" x2="87.889" y2="12.157"/>
<line fill="none" stroke="#000000" stroke-width="0.112" stroke-miterlimit="10" x1="86.339" y1="13.482" x2="90.438" y2="16.183"/>
<line fill="none" stroke="#000000" stroke-width="0.112" stroke-miterlimit="10" x1="84.176" y1="17.309" x2="90.412" y2="21.417"/>
<line fill="none" stroke="#000000" stroke-width="0.112" stroke-miterlimit="10" x1="93.746" y1="12.109" x2="93.961" y2="12.263"/>
<line fill="none" stroke="#000000" stroke-width="0.112" stroke-miterlimit="10" x1="87.581" y1="12.757" x2="86.34" y2="13.497"/>
<line fill="none" stroke="#000000" stroke-width="0.112" stroke-miterlimit="10" x1="84.176" y1="18.554" x2="83.066" y2="19.215"/>
<line fill="none" stroke="#000000" stroke-width="0.112" stroke-miterlimit="10" x1="95.366" y1="15.337" x2="97.872" y2="16.986"/>
<line fill="none" stroke="#000000" stroke-width="0.112" stroke-miterlimit="10" x1="90.662" y1="10.271" x2="93.698" y2="8.452"/>
<line fill="none" stroke="#000000" stroke-width="0.112" stroke-miterlimit="10" x1="87.913" y1="8.411" x2="89.108" y2="7.708"/>
<line fill="none" stroke="#000000" stroke-width="0.112" stroke-miterlimit="10" x1="90.662" y1="9.312" x2="92.492" y2="8.235"/>
<line fill="none" stroke="#000000" stroke-width="0.112" stroke-miterlimit="10" x1="90.77" y1="7.542" x2="92.454" y2="6.552"/>
<line fill="none" stroke="#000000" stroke-width="0.112" stroke-miterlimit="10" x1="87.913" y1="8.372" x2="90.746" y2="10.308"/>
<line fill="none" stroke="#000000" stroke-width="0.112" stroke-miterlimit="10" x1="92.387" y1="7.51" x2="93.698" y2="8.374"/>
<line fill="none" stroke="#000000" stroke-width="0.112" stroke-miterlimit="10" x1="93.961" y1="12.587" x2="95.349" y2="13.501"/>
<line fill="none" stroke="#000000" stroke-width="0.112" stroke-miterlimit="10" x1="89.088" y1="8.182" x2="90.808" y2="9.312"/>
<line fill="none" stroke="#000000" stroke-width="0.112" stroke-miterlimit="10" x1="89.232" y1="6.562" x2="90.763" y2="7.57"/>
<line fill="none" stroke="#000000" stroke-width="0.112" stroke-miterlimit="10" x1="91.589" y1="5.991" x2="92.47" y2="6.572"/>
<g>
	<defs>
		<rect id="SVGID_21_" x="78.044" y="0.205" width="63.715" height="80.452"/>
	</defs>
	<clipPath id="SVGID_22_">
		<use xlink:href="#SVGID_21_"  overflow="visible"/>
	</clipPath>
	<path clip-path="url(#SVGID_22_)" fill="none" stroke="#000000" stroke-width="0.112" stroke-miterlimit="10" d="M89.237,4.589
		c-0.036,0.07-0.156,0.203-0.168,0.257l0.1,0.265c0.1,0.133,0.466,0.256,1.077,0.083c0.611-0.174,1.891-0.852,2.009-1.54
		l-0.206-0.386c0,0-0.189-0.06-0.398-0.007"/>
</g>
<polyline fill="none" stroke="#000000" stroke-width="0.112" stroke-miterlimit="10" points="89.811,2.077 90.68,2.498 
	90.947,2.386 91.548,1.542 "/>
<g>
	<defs>
		<rect id="SVGID_23_" x="78.044" y="0.205" width="63.715" height="80.452"/>
	</defs>
	<clipPath id="SVGID_24_">
		<use xlink:href="#SVGID_23_"  overflow="visible"/>
	</clipPath>
	<path clip-path="url(#SVGID_24_)" fill="none" stroke="#000000" stroke-width="0.112" stroke-miterlimit="10" d="M92.104,4.002
		c0.044,0.195,0.048,0.403,0.006,0.612c-0.16,0.784-0.927,1.291-1.711,1.13c-0.304-0.061-0.566-0.215-0.765-0.424l-0.059-0.046"/>
	<path clip-path="url(#SVGID_24_)" fill="none" stroke="#000000" stroke-width="0.112" stroke-miterlimit="10" d="M89.35,4.899
		c-0.048-0.111-0.082-0.23-0.101-0.356c-0.121-0.791,0.424-1.531,1.216-1.652c0.487-0.074,0.929,0.076,1.27,0.435
		c0.171,0.193,0.233,0.344,0.233,0.344"/>
	<path clip-path="url(#SVGID_24_)" fill="none" stroke="#000000" stroke-width="0.112" stroke-miterlimit="10" d="M91.759,6.18
		c0,0,0.005-0.126-0.008-0.156c-0.011-0.031-0.03-0.058-0.078-0.07C91.623,5.941,91.418,6,91.418,6s-0.003-0.034-0.003-0.08V5.884
		l0.077-0.331"/>
	<path clip-path="url(#SVGID_24_)" fill="none" stroke="#000000" stroke-width="0.112" stroke-miterlimit="10" d="M91.072,6.165
		c-0.016,0.061,0.046,0.125,0.058,0.168c0.019,0.061,0.158,0.103,0.28,0.015"/>
</g>
<polyline fill="none" stroke="#000000" stroke-width="0.112" stroke-miterlimit="10" points="90.297,6.726 90.297,6.59 
	90.484,6.276 90.452,6.166 90.104,6.108 89.796,5.918 89.922,5.554 "/>
<line fill="none" stroke="#000000" stroke-width="0.112" stroke-miterlimit="10" x1="87.928" y1="12.157" x2="90.757" y2="14.02"/>
<line fill="none" stroke="#000000" stroke-width="0.112" stroke-miterlimit="10" x1="87.606" y1="13.479" x2="90.569" y2="15.431"/>
<line fill="none" stroke="#000000" stroke-width="0.112" stroke-miterlimit="10" x1="89.969" y1="5.929" x2="89.088" y2="6.51"/>
<line fill="none" stroke="#000000" stroke-width="0.112" stroke-miterlimit="10" x1="92.386" y1="8.285" x2="92.386" y2="6.643"/>
<line fill="none" stroke="#000000" stroke-width="0.112" stroke-miterlimit="10" x1="89.088" y1="8.182" x2="89.088" y2="6.498"/>
<line fill="none" stroke="#000000" stroke-width="0.112" stroke-miterlimit="10" x1="114.373" y1="34.34" x2="124.009" y2="40.468"/>
<line fill="none" stroke="#000000" stroke-width="0.112" stroke-miterlimit="10" x1="125.61" y1="34.841" x2="129.605" y2="37.189"/>
<line fill="none" stroke="#000000" stroke-width="0.112" stroke-miterlimit="10" x1="92.786" y1="21.908" x2="96.53" y2="24.289"/>
<line fill="none" stroke="#000000" stroke-width="0.112" stroke-miterlimit="10" x1="92.786" y1="20.45" x2="96.53" y2="22.831"/>
<line fill="none" stroke="#000000" stroke-width="0.112" stroke-miterlimit="10" x1="97.182" y1="17.917" x2="100.925" y2="20.298"/>
<line fill="none" stroke="#000000" stroke-width="0.112" stroke-miterlimit="10" x1="100.925" y1="20.995" x2="125.238" y2="34.947"/>
<line fill="none" stroke="#000000" stroke-width="0.112" stroke-miterlimit="10" x1="115.974" y1="33.03" x2="122.515" y2="36.785"/>
<polyline fill="none" stroke="#000000" stroke-width="0.112" stroke-miterlimit="10" points="135.249,42.303 135.6,42.097 
	135.6,40.894 129.595,37.448 "/>
<polyline fill="none" stroke="#000000" stroke-width="0.112" stroke-miterlimit="10" points="136.448,43.918 134.151,45.273 
	131.926,43.864 "/>
<line fill="none" stroke="#000000" stroke-width="0.112" stroke-miterlimit="10" x1="134.145" y1="47.349" x2="134.145" y2="45.273"/>
<polyline fill="none" stroke="#000000" stroke-width="0.112" stroke-miterlimit="10" points="131.253,44.608 127.955,46.541 
	91.953,23.639 "/>
<polyline fill="none" stroke="#000000" stroke-width="0.112" stroke-miterlimit="10" points="133.254,42.221 127.955,45.324 
	91.912,22.398 "/>
<line fill="none" stroke="#000000" stroke-width="0.112" stroke-miterlimit="10" x1="127.955" y1="46.541" x2="127.955" y2="45.325"/>
<line fill="none" stroke="#000000" stroke-width="0.112" stroke-miterlimit="10" x1="129.592" y1="37.189" x2="124.008" y2="40.459"/>
<polyline fill="none" stroke="#000000" stroke-width="0.112" stroke-miterlimit="10" points="129.604,37.189 129.604,38.365 
	124.027,41.63 114.372,35.488 "/>
<line fill="none" stroke="#000000" stroke-width="0.112" stroke-miterlimit="10" x1="124.008" y1="41.618" x2="124.008" y2="40.469"/>
<line fill="none" stroke="#000000" stroke-width="0.112" stroke-miterlimit="10" x1="125.61" y1="34.841" x2="122.202" y2="36.836"/>
<line fill="none" stroke="#000000" stroke-width="0.112" stroke-miterlimit="10" x1="116.417" y1="33.16" x2="114.373" y2="34.356"/>
<line fill="none" stroke="#000000" stroke-width="0.112" stroke-miterlimit="10" x1="100.925" y1="21.664" x2="96.53" y2="24.237"/>
<line fill="none" stroke="#000000" stroke-width="0.112" stroke-miterlimit="10" x1="100.925" y1="20.298" x2="96.53" y2="22.871"/>
<line fill="none" stroke="#000000" stroke-width="0.112" stroke-miterlimit="10" x1="97.17" y1="17.917" x2="92.775" y2="20.49"/>
<line fill="none" stroke="#000000" stroke-width="0.112" stroke-miterlimit="10" x1="97.872" y1="17.052" x2="90.505" y2="21.363"/>
<line fill="none" stroke="#000000" stroke-width="0.112" stroke-miterlimit="10" x1="135.543" y1="40.881" x2="134.386" y2="41.56"/>
<path fill="#D1D3D4" d="M85.017,52.648c0.577,0.403,0.575,0.857,0.149,1.221l-0.505-0.353c0.152-0.194,0.159-0.393-0.123-0.59
	c-0.391-0.272-0.981-0.223-1.473,0.062c-0.486,0.283-0.621,0.656-0.23,0.928c0.282,0.197,0.594,0.21,0.916,0.129l0.505,0.353
	c-0.61,0.239-1.321,0.2-1.898-0.204c-0.653-0.455-0.598-1.108,0.19-1.567C83.336,52.17,84.363,52.193,85.017,52.648z"/>
<path fill="#D1D3D4" d="M88.482,55.119l-1.64,2.15l-0.518-0.361l0.402-0.513l-0.915-0.639l-0.835,0.211l-0.51-0.355l3.51-0.846
	L88.482,55.119z M86.424,55.604l0.597,0.416l0.557-0.706L86.424,55.604z"/>
<path fill="#D1D3D4" d="M90.279,56.371l2.086,1.455l-0.47,0.273l-0.788-0.55l-2.105,1.225l-0.514-0.358l2.105-1.225l-0.784-0.547
	L90.279,56.371z"/>
<path fill="#D1D3D4" d="M95.773,60.202L93.198,61.7l-0.51-0.355l1.082-0.629l-1.106-0.771l-1.082,0.629l-0.51-0.355l2.575-1.498
	l0.51,0.355l-1.023,0.596l1.106,0.771l1.023-0.595L95.773,60.202z"/>
<path fill="#D1D3D4" d="M98.851,62.347l-0.47,0.273l-1.158-0.808L96.66,62.14l1.051,0.733l-0.457,0.266l-1.051-0.733l-0.612,0.356
	l1.158,0.808l-0.474,0.275l-1.659-1.157l2.575-1.498L98.851,62.347z"/>
<path fill="#D1D3D4" d="M99.084,64.575l-0.96,0.559l-0.506-0.352l2.575-1.498l1.007,0.702c0.514,0.358,0.567,0.766,0.038,1.073
	c-0.411,0.239-0.886,0.24-1.316,0.053l-0.353,1.03l-0.574-0.4l0.355-0.98L99.084,64.575z M99.524,64.319l0.47,0.327
	c0.254,0.178,0.528,0.187,0.742,0.062c0.218-0.126,0.229-0.301-0.025-0.479l-0.47-0.328L99.524,64.319z"/>
<path fill="#D1D3D4" d="M101.317,67.361l-0.509-0.355l2.575-1.498l0.509,0.355L101.317,67.361z"/>
<path fill="#D1D3D4" d="M104.779,69.774l-0.402-0.28l0.561-1.802l-1.715,0.998l-0.489-0.341l2.575-1.498l0.478,0.333l-0.549,1.699
	l1.628-0.947l0.489,0.341L104.779,69.774z"/>
<path fill="#D1D3D4" d="M110.433,70.422l-0.47,0.273l-1.159-0.808l-0.562,0.327l1.052,0.732l-0.457,0.266l-1.052-0.733l-0.612,0.356
	l1.159,0.808l-0.474,0.275l-1.66-1.157l2.575-1.498L110.433,70.422z"/>
<path fill="#D1D3D4" d="M113.568,72.608l0.51,0.355l-2.102,1.223l1.139,0.794l-0.474,0.275l-1.648-1.149L113.568,72.608z"/>
<path fill="#D1D3D4" d="M116.007,77.602l-0.402-0.28l0.561-1.803l-1.715,0.998l-0.489-0.341l2.575-1.498l0.478,0.333l-0.55,1.699
	l1.628-0.947l0.49,0.341L116.007,77.602z"/>
<polyline fill="none" stroke="#000000" stroke-width="0.112" stroke-miterlimit="10" points="140.4,44.29 129.995,50.167 
	83.066,19.26 "/>
<polyline fill="none" stroke="#000000" stroke-width="0.112" stroke-miterlimit="10" points="133.159,43.128 131.911,43.859 
	131.911,45.924 134.147,47.347 136.447,46 136.447,43.918 135.514,43.324 "/>
<line fill="none" stroke="#000000" stroke-width="0.112" stroke-miterlimit="10" x1="130.011" y1="50.177" x2="130.011" y2="77.71"/>
<line fill="none" stroke="#000000" stroke-width="0.112" stroke-miterlimit="10" x1="135.543" y1="73.866" x2="134.786" y2="74.312"/>
<polyline fill="none" stroke="#000000" stroke-width="0.112" stroke-miterlimit="10" points="135.543,73.866 136.019,74.169 
	140.4,71.587 140.4,44.275 135.601,41.521 "/>
<g>
	<defs>
		<rect id="SVGID_25_" x="78.044" y="0.205" width="63.715" height="80.452"/>
	</defs>
	<clipPath id="SVGID_26_">
		<use xlink:href="#SVGID_25_"  overflow="visible"/>
	</clipPath>
	<path clip-path="url(#SVGID_26_)" fill="none" stroke="#000000" stroke-width="0.112" stroke-miterlimit="10" d="M135.542,73.866
		v-0.661c0-0.105-0.044-0.222-0.131-0.297"/>
	<path clip-path="url(#SVGID_26_)" fill="none" stroke="#000000" stroke-width="0.112" stroke-miterlimit="10" d="M136.024,74.17
		v-0.965c0-0.231-0.201-0.537-0.667-0.272c-0.326,0.198-0.571,0.555-0.571,0.898v1.065l-4.775,2.815l-7.191-4.978l-9.095-6.217
		l-7.625-5.234L90.636,50.171l-7.57-5.454V19.26"/>
	<path clip-path="url(#SVGID_26_)" fill="none" stroke="#000000" stroke-width="0.112" stroke-miterlimit="10" d="M134.142,41.879
		c-0.564,0.098-0.992,0.609-0.992,1.224v0.863c0,0.338,0.533,0.611,1.19,0.611c0.657,0,1.19-0.273,1.19-0.611v-0.863
		c0-0.615-0.43-1.126-0.992-1.224v-0.131c0-0.062-0.077-0.133-0.199-0.133c-0.121,0-0.197,0.071-0.197,0.133V41.879z"/>
</g>
<polygon points="136.587,46.483 136.587,62.564 140.399,60.412 140.399,44.294 "/>
<line fill="none" stroke="#FFFFFF" stroke-width="0.117" stroke-miterlimit="10" x1="136.587" y1="48.747" x2="140.399" y2="46.541"/>
<line fill="none" stroke="#FFFFFF" stroke-width="0.117" stroke-miterlimit="10" x1="136.587" y1="51.076" x2="140.399" y2="48.87"/>
<line fill="none" stroke="#FFFFFF" stroke-width="0.117" stroke-miterlimit="10" x1="136.587" y1="53.406" x2="140.399" y2="51.2"/>
<line fill="none" stroke="#FFFFFF" stroke-width="0.117" stroke-miterlimit="10" x1="136.587" y1="55.665" x2="140.399" y2="53.459"/>
<line fill="none" stroke="#FFFFFF" stroke-width="0.117" stroke-miterlimit="10" x1="136.587" y1="57.924" x2="140.399" y2="55.718"/>
<line fill="none" stroke="#FFFFFF" stroke-width="0.117" stroke-miterlimit="10" x1="136.587" y1="60.324" x2="140.399" y2="58.118"/>
</svg>
