<?xml version="1.0" encoding="utf-8"?>
<!-- Generator: Adobe Illustrator 23.0.0, SVG Export Plug-In . SVG Version: 6.00 Build 0)  -->
<svg version="1.1" id="Layer_1" xmlns="http://www.w3.org/2000/svg" xmlns:xlink="http://www.w3.org/1999/xlink" x="0px" y="0px"
	 viewBox="0 0 347 105.1" style="enable-background:new 0 0 347 105.1;" xml:space="preserve">
<style type="text/css">
	.st0{clip-path:url(#SVGID_2_);}
	.st1{clip-path:url(#SVGID_4_);}
	.st2{enable-background:new    ;}
	.st3{fill:#D1D3D4;}
	.st4{fill:#010101;}
	.st5{clip-path:url(#SVGID_6_);}
	.st6{opacity:0.5;}
	.st7{clip-path:url(#SVGID_8_);}
	.st8{clip-path:url(#SVGID_10_);}
	.st9{fill:none;stroke:#D1D3D4;stroke-width:0.5;stroke-miterlimit:10;}
	.st10{clip-path:url(#SVGID_12_);}
	.st11{fill:none;stroke:#D1D3D4;stroke-width:1.09;stroke-miterlimit:10;}
	.st12{clip-path:url(#SVGID_14_);}
	.st13{clip-path:url(#SVGID_16_);}
	.st14{fill:none;stroke:#231F20;stroke-width:0.15;stroke-miterlimit:10;}
	.st15{fill:none;stroke:#231F20;stroke-width:0.14;stroke-miterlimit:10;}
	.st16{clip-path:url(#SVGID_18_);}
	.st17{clip-path:url(#SVGID_20_);}
	.st18{clip-path:url(#SVGID_22_);}
	.st19{clip-path:url(#SVGID_24_);}
	.st20{clip-path:url(#SVGID_26_);}
	.st21{fill:#231F20;}
	.st22{clip-path:url(#SVGID_28_);}
	.st23{clip-path:url(#SVGID_30_);}
	.st24{clip-path:url(#SVGID_32_);}
	.st25{clip-path:url(#SVGID_34_);}
	.st26{fill:none;stroke:#FFFFFF;stroke-width:0.13;stroke-miterlimit:10;}
	.st27{clip-path:url(#SVGID_36_);}
	.st28{clip-path:url(#SVGID_38_);}
	.st29{clip-path:url(#SVGID_40_);}
	.st30{fill:none;stroke:#231F20;stroke-width:0.14;stroke-linejoin:bevel;}
	.st31{clip-path:url(#SVGID_42_);}
	.st32{clip-path:url(#SVGID_44_);}
	.st33{clip-path:url(#SVGID_46_);}
	.st34{clip-path:url(#SVGID_48_);}
	.st35{clip-path:url(#SVGID_50_);}
	.st36{clip-path:url(#SVGID_52_);}
	.st37{clip-path:url(#SVGID_54_);}
	.st38{clip-path:url(#SVGID_56_);}
	.st39{clip-path:url(#SVGID_58_);}
	.st40{clip-path:url(#SVGID_60_);}
	.st41{clip-path:url(#SVGID_62_);}
	.st42{clip-path:url(#SVGID_64_);}
	.st43{clip-path:url(#SVGID_66_);}
</style>
<title>residence_A_15_key_horizontal</title>
<g>
	<g>
		<g>
			<defs>
				<rect id="SVGID_1_" x="206.5" y="31.3" width="144.6" height="78.6"/>
			</defs>
			<clipPath id="SVGID_2_">
				<use xlink:href="#SVGID_1_"  style="overflow:visible;"/>
			</clipPath>
			<g class="st0">
				<g>
					<defs>
						<rect id="SVGID_3_" x="206.5" y="31.3" width="144.6" height="78.6"/>
					</defs>
					<clipPath id="SVGID_4_">
						<use xlink:href="#SVGID_3_"  style="overflow:visible;"/>
					</clipPath>
					<g class="st1">
						<g class="st2">
							<path class="st3" d="M248.6,94.6c1,0,1.6,0.6,1.8,1.5h-0.9c-0.1-0.4-0.4-0.7-0.9-0.7c-0.7,0-1.1,0.6-1.1,1.4
								c0,0.8,0.4,1.4,1.1,1.4c0.5,0,0.8-0.3,0.9-0.7h0.9c-0.2,0.9-0.8,1.5-1.8,1.5c-1.1,0-2-0.9-2-2.2
								C246.6,95.5,247.4,94.6,248.6,94.6z"/>
						</g>
						<g class="st2">
							<path class="st3" d="M254.6,94.7l1.6,4.3h-0.9l-0.4-1h-1.6l-0.4,1h-0.9l1.6-4.3H254.6z M253.6,97.2h1.1l-0.5-1.4L253.6,97.2z
								"/>
						</g>
						<g class="st2">
							<path class="st3" d="M257.6,94.7h3.7v0.8h-1.4V99H259v-3.5h-1.4V94.7z"/>
						</g>
						<g class="st2">
							<path class="st3" d="M267.2,94.7V99h-0.9v-1.8h-1.9V99h-0.9v-4.3h0.9v1.7h1.9v-1.7H267.2z"/>
						</g>
						<g class="st2">
							<path class="st3" d="M272.5,94.7v0.8h-2v0.9h1.8v0.8h-1.8v1h2V99h-2.9v-4.3H272.5z"/>
							<path class="st3" d="M275.6,97.4V99h-0.9v-4.3h1.8c0.9,0,1.5,0.5,1.5,1.4c0,0.7-0.4,1.1-1,1.3l1.1,1.7h-1l-1.1-1.6H275.6z
								 M275.6,96.7h0.8c0.4,0,0.7-0.2,0.7-0.6c0-0.4-0.2-0.6-0.7-0.6h-0.8V96.7z"/>
							<path class="st3" d="M281.1,99h-0.9v-4.3h0.9V99z"/>
							<path class="st3" d="M287,99h-0.7l-2-2.9V99h-0.9v-4.3h0.8l1.9,2.7v-2.7h0.9V99z"/>
							<path class="st3" d="M292.3,94.7v0.8h-2v0.9h1.8v0.8h-1.8v1h2V99h-2.9v-4.3H292.3z"/>
							<path class="st3" d="M297.6,94.7h0.9v3.5h2V99h-2.9V94.7z"/>
						</g>
						<g class="st2">
							<path class="st3" d="M306.3,99h-0.7l-2-2.9V99h-0.9v-4.3h0.8l1.9,2.7v-2.7h0.9V99z"/>
						</g>
					</g>
				</g>
				<g class="st2">
					<path class="st3" d="M210.3,51.8c-0.8,0-1.2-0.5-1.2-1.4v-1.8h4.3v1.6c0,0.9-0.4,1.4-1.2,1.4c-0.5,0-0.8-0.3-0.9-0.6
						C211.2,51.5,210.8,51.8,210.3,51.8z M209.8,49.5v0.8c0,0.4,0.2,0.6,0.5,0.6c0.3,0,0.5-0.2,0.5-0.6v-0.8H209.8z M211.6,50.2
						c0,0.4,0.2,0.7,0.5,0.7c0.3,0,0.5-0.2,0.5-0.7v-0.7h-1V50.2z"/>
					<path class="st3" d="M210.7,54.9h-1.6V54h4.3v1.8c0,0.9-0.5,1.5-1.4,1.5c-0.7,0-1.1-0.4-1.3-1l-1.7,1.1v-1l1.6-1.1V54.9z
						 M211.4,54.9v0.8c0,0.4,0.2,0.7,0.6,0.7c0.4,0,0.6-0.2,0.6-0.7v-0.8H211.4z"/>
				</g>
				<g class="st2">
					<path class="st3" d="M209,61.3c0-1.2,0.9-2,2.2-2c1.3,0,2.2,0.8,2.2,2s-0.9,2-2.2,2C209.9,63.4,209,62.5,209,61.3z M212.6,61.3
						c0-0.7-0.6-1.1-1.4-1.1c-0.8,0-1.4,0.4-1.4,1.1c0,0.7,0.6,1.1,1.4,1.1C212.1,62.5,212.6,62,212.6,61.3z"/>
				</g>
				<g class="st2">
					<path class="st3" d="M213.4,67.5l-4.3,1.6v-0.9l1-0.4v-1.6l-1-0.4V65l4.3,1.6V67.5z M210.9,66.6v1.1l1.4-0.5L210.9,66.6z"/>
				</g>
				<g class="st2">
					<path class="st3" d="M213.4,71.2v1.5c0,1.3-0.8,2.1-2.2,2.1s-2.2-0.8-2.2-2.1v-1.5H213.4z M209.9,72.7c0,0.8,0.5,1.3,1.4,1.3
						c0.8,0,1.4-0.4,1.4-1.3v-0.6h-2.7V72.7z"/>
				</g>
				<g class="st2">
					<path class="st3" d="M213.4,79.7l-2.9,0.7l2.9,0.7V82l-4.3-1.1v-0.8l2.8-0.8l-2.8-0.8v-0.8l4.3-1.1v0.9l-2.9,0.7l2.9,0.8V79.7z
						"/>
				</g>
				<g class="st2">
					<path class="st3" d="M213.4,86l-4.3,1.6v-0.9l1-0.4v-1.6l-1-0.4v-0.9l4.3,1.6V86z M210.9,85.1v1.1l1.4-0.5L210.9,85.1z"/>
				</g>
				<g class="st2">
					<path class="st3" d="M213.4,92v0.9l-2.7-1.6h-1.6v-0.9h1.6l2.7-1.5v1l-1.8,1L213.4,92z"/>
				</g>
				<g class="st2">
					<path class="st3" d="M343.8,40.7v0.9h-3.5v2h-0.8v-2.9H343.8z"/>
				</g>
				<g class="st2">
					<path class="st3" d="M343.8,48l-4.3,1.6v-0.9l1-0.4v-1.6l-1-0.4v-0.9l4.3,1.6V48z M341.3,47.1v1.1l1.4-0.5L341.3,47.1z"/>
				</g>
				<g class="st2">
					<path class="st3" d="M339.5,51.7h4.3v2.9H343v-2h-1.1v1.8h-0.8v-1.8h-1.6V51.7z"/>
				</g>
				<g class="st2">
					<path class="st3" d="M343.8,58.7l-4.3,1.6v-0.9l1-0.4v-1.6l-1-0.4v-0.9l4.3,1.6V58.7z M341.3,57.8v1.1l1.4-0.5L341.3,57.8z"/>
				</g>
				<g class="st2">
					<path class="st3" d="M343.8,64.7v0.9l-2.7-1.6h-1.6v-0.9h1.6l2.7-1.5v1l-1.8,1L343.8,64.7z"/>
					<path class="st3" d="M343.8,70.6H343v-2h-0.9v1.8h-0.8v-1.8h-1v2h-0.8v-2.9h4.3V70.6z"/>
					<path class="st3" d="M343.8,72.6v3.7H343v-1.4h-3.5v-0.9h3.5v-1.4H343.8z"/>
					<path class="st3" d="M343.8,78.1v3.7H343v-1.4h-3.5v-0.9h3.5v-1.4H343.8z"/>
					<path class="st3" d="M343.8,86.8H343v-2h-0.9v1.8h-0.8v-1.8h-1v2h-0.8v-2.9h4.3V86.8z"/>
				</g>
				<g class="st2">
					<path class="st3" d="M340.7,92.7c-0.4,0.1-0.6,0.4-0.6,0.9c0,0.4,0.2,0.7,0.5,0.7c0.3,0,0.4-0.2,0.5-0.5l0.2-0.8
						c0.1-0.6,0.5-1.1,1.2-1.1c0.8,0,1.3,0.6,1.3,1.5c0,1-0.5,1.5-1.2,1.7v-0.9c0.3-0.1,0.5-0.3,0.5-0.8c0-0.4-0.2-0.7-0.5-0.7
						c-0.2,0-0.4,0.2-0.5,0.5l-0.2,0.8c-0.2,0.7-0.6,1.1-1.2,1.1c-0.8,0-1.3-0.7-1.3-1.6c0-1,0.5-1.6,1.3-1.8V92.7z"/>
				</g>
				<g class="st2">
					<path class="st3" d="M343.8,97v3.7H343v-1.4h-3.5v-0.9h3.5V97H343.8z"/>
				</g>
				<g class="st2">
					<path class="st3" d="M251.7,41h0.9v3.5h2v0.8h-2.9V41z"/>
					<path class="st3" d="M259.6,41v0.8h-2v0.9h1.8v0.8h-1.8v1h2v0.8h-2.9V41H259.6z"/>
					<path class="st3" d="M263.5,45.4c-1.2,0-2-0.9-2-2.2c0-1.3,0.8-2.2,2-2.2c1.2,0,2,0.9,2,2.2C265.6,44.4,264.7,45.4,263.5,45.4z
						 M263.5,41.7c-0.7,0-1.1,0.6-1.1,1.4c0,0.8,0.4,1.4,1.1,1.4c0.7,0,1.1-0.6,1.1-1.4C264.7,42.3,264.2,41.7,263.5,41.7z"/>
					<path class="st3" d="M271.2,45.3h-0.7l-2-2.9v2.9h-0.9V41h0.8l1.9,2.7V41h0.9V45.3z"/>
				</g>
				<g class="st2">
					<path class="st3" d="M275.6,41l1.6,4.3h-0.9l-0.4-1h-1.6l-0.4,1h-0.9l1.6-4.3H275.6z M274.6,43.5h1.1l-0.5-1.4L274.6,43.5z"/>
				</g>
				<g class="st2">
					<path class="st3" d="M280.1,43.7v1.6h-0.9V41h1.8c0.9,0,1.5,0.5,1.5,1.4c0,0.7-0.4,1.1-1,1.3l1.1,1.7h-1l-1.1-1.6H280.1z
						 M280.1,43h0.8c0.4,0,0.7-0.2,0.7-0.6c0-0.4-0.2-0.6-0.7-0.6h-0.8V43z"/>
					<path class="st3" d="M284.5,41h1.5c1.3,0,2.1,0.8,2.1,2.2s-0.8,2.2-2.1,2.2h-1.5V41z M286,44.5c0.8,0,1.3-0.5,1.3-1.4
						c0-0.8-0.4-1.4-1.3-1.4h-0.6v2.7H286z"/>
				</g>
				<g class="st2">
					<path class="st3" d="M293.7,44.1c0.1,0.4,0.4,0.6,0.9,0.6c0.4,0,0.7-0.2,0.7-0.5c0-0.3-0.2-0.4-0.5-0.5l-0.8-0.2
						c-0.6-0.1-1.1-0.5-1.1-1.2c0-0.8,0.6-1.3,1.5-1.3c1,0,1.5,0.5,1.7,1.2h-0.9c-0.1-0.3-0.3-0.5-0.8-0.5c-0.4,0-0.7,0.2-0.7,0.5
						c0,0.2,0.2,0.4,0.5,0.5l0.8,0.2c0.7,0.2,1.1,0.6,1.1,1.2c0,0.8-0.7,1.3-1.6,1.3c-1,0-1.6-0.5-1.8-1.3H293.7z"/>
				</g>
				<g class="st2">
					<path class="st3" d="M297.9,41h3.7v0.8h-1.4v3.5h-0.9v-3.5h-1.4V41z"/>
				</g>
				<polygon class="st4" points="240.2,64.3 240.2,66.5 244.6,66.5 244.6,71.7 248.6,71.7 248.6,73.6 256.2,73.9 256.2,62.6 
					244.3,62.6 244.3,63.9 240.2,63.9 				"/>
				<g>
					<defs>
						<rect id="SVGID_5_" x="220.8" y="59" width="112" height="25.3"/>
					</defs>
					<clipPath id="SVGID_6_">
						<use xlink:href="#SVGID_5_"  style="overflow:visible;"/>
					</clipPath>
					<g class="st5">
						<g class="st6">
							<g>
								<defs>
									<rect id="SVGID_7_" x="244.3" y="60.5" width="11.9" height="2"/>
								</defs>
								<clipPath id="SVGID_8_">
									<use xlink:href="#SVGID_7_"  style="overflow:visible;"/>
								</clipPath>
								<g class="st7">
									<polygon class="st4" points="256.2,60.9 248.2,60.9 248.2,60.5 248.1,60.5 248.1,60.9 244.3,60.9 244.3,62.6 256.2,62.6 
																			"/>
								</g>
							</g>
						</g>
						<g class="st6">
							<g>
								<defs>
									<rect id="SVGID_9_" x="244.3" y="73.5" width="11.9" height="4.1"/>
								</defs>
								<clipPath id="SVGID_10_">
									<use xlink:href="#SVGID_9_"  style="overflow:visible;"/>
								</clipPath>
								<g class="st8">
									<polygon class="st4" points="256.2,77.6 256.2,73.9 244.4,73.5 244.3,73.5 244.3,77.2 									"/>
								</g>
							</g>
						</g>
					</g>
				</g>
				<polygon class="st9" points="317.4,62.5 317.4,64.1 322.8,64.2 322.8,69.8 325.3,69.8 325.3,68.2 329.7,68.3 329.7,73.2 
					326.6,73.2 325.2,73.2 325.2,72.4 322.7,72.4 322.8,77.7 276.4,75.1 276.4,79 271.8,78.7 271.7,74.7 239.8,73.2 239.8,75.5 
					223.7,74.8 223.8,62 239.3,62 239.3,62.6 				"/>
				<g>
					<defs>
						<rect id="SVGID_11_" x="220.8" y="59" width="112" height="25.3"/>
					</defs>
					<clipPath id="SVGID_12_">
						<use xlink:href="#SVGID_11_"  style="overflow:visible;"/>
					</clipPath>
					<g class="st10">
						<polygon class="st11" points="330.1,60.7 330.1,82.6 222.1,75.9 222.2,60.7 						"/>
					</g>
				</g>
			</g>
		</g>
		<g>
			<defs>
				<rect id="SVGID_13_" x="100.2" y="2.2" width="82.8" height="100"/>
			</defs>
			<clipPath id="SVGID_14_">
				<use xlink:href="#SVGID_13_"  style="overflow:visible;"/>
			</clipPath>
			<g class="st12">
				<g>
					<defs>
						<rect id="SVGID_15_" x="100.2" y="2.2" width="82.8" height="100"/>
					</defs>
					<clipPath id="SVGID_16_">
						<use xlink:href="#SVGID_15_"  style="overflow:visible;"/>
					</clipPath>
					<g class="st13">
						<path class="st14" d="M3.1,95.7v-5.2l-5.2,2.9v5.4l-2.3,1.4l-17.4-8.2l-14-7L-39,83v-3.6c-0.1-0.8-0.6-1.6-1.4-2
							c-0.4-0.3-0.9-0.2-1.2,0.2c-0.1,0.2-0.2,0.4-0.1,0.6V80"/>
						<path class="st14" d="M3.9,61.1l1.5,1v32.3l-2.3,1.3C2,95.4,0.7,95.5-0.3,96l-1.2,0.7c-0.2,0.1-0.4,0.2-0.5,0.4"/>
					</g>
				</g>
				<polyline class="st14" points="181.6,60.9 167.3,69 107,29.4 				"/>
				<polyline class="st14" points="181.6,63.6 167.3,71.7 107,32.1 				"/>
				<polyline class="st14" points="181.6,66.3 167.3,74.4 107,34.8 				"/>
				<polyline class="st14" points="181.6,69 167.3,77.1 107,37.5 				"/>
				<polyline class="st14" points="181.6,71.7 167.3,79.8 107,40.2 				"/>
				<polyline class="st14" points="181.6,74.4 167.3,82.5 107,42.9 				"/>
				<polyline class="st14" points="181.6,77.1 167.3,85.2 107,45.6 				"/>
				<polyline class="st14" points="181.6,79.8 167.3,87.9 107,48.3 				"/>
				<polyline class="st14" points="181.6,82.5 167.3,90.7 107,51 				"/>
				<polyline class="st14" points="181.6,85.2 167.3,93.4 107,53.7 				"/>
				<polyline class="st14" points="181.6,88 167.3,96.1 107,56.4 				"/>
				<g class="st2">
					<path class="st3" d="M113,68.2c0.7,0.5,0.7,1,0.2,1.4l-0.6-0.4c0.2-0.2,0.2-0.5-0.1-0.7c-0.5-0.3-1.2-0.3-1.7,0.1
						c-0.6,0.3-0.7,0.8-0.3,1.1c0.3,0.2,0.7,0.2,1.1,0.2l0.6,0.4c-0.7,0.3-1.5,0.2-2.2-0.2c-0.8-0.5-0.7-1.3,0.2-1.8
						C111.1,67.6,112.3,67.7,113,68.2z"/>
				</g>
				<g class="st2">
					<path class="st3" d="M117.1,71.1l-1.9,2.5l-0.6-0.4l0.5-0.6l-1.1-0.7l-1,0.2l-0.6-0.4l4.1-1L117.1,71.1z M114.7,71.7l0.7,0.5
						l0.7-0.8L114.7,71.7z"/>
				</g>
				<g class="st2">
					<path class="st3" d="M119.2,72.6l2.4,1.7l-0.5,0.3l-0.9-0.6l-2.5,1.4l-0.6-0.4l2.5-1.4l-0.9-0.6L119.2,72.6z"/>
				</g>
				<g class="st2">
					<path class="st3" d="M125.7,77.1l-3,1.8l-0.6-0.4l1.3-0.7l-1.3-0.9l-1.3,0.7l-0.6-0.4l3-1.8l0.6,0.4l-1.2,0.7l1.3,0.9l1.2-0.7
						L125.7,77.1z"/>
					<path class="st3" d="M129.3,79.6l-0.5,0.3l-1.4-0.9l-0.7,0.4l1.2,0.9l-0.5,0.3l-1.2-0.9l-0.7,0.4l1.4,0.9l-0.6,0.3l-1.9-1.4
						l3-1.8L129.3,79.6z"/>
					<path class="st3" d="M129.6,82.2l-1.1,0.7l-0.6-0.4l3-1.8l1.2,0.8c0.6,0.4,0.7,0.9,0,1.3c-0.5,0.3-1,0.3-1.5,0.1l-0.4,1.2
						l-0.7-0.5l0.4-1.1L129.6,82.2z M130.1,81.9l0.6,0.4c0.3,0.2,0.6,0.2,0.9,0.1c0.3-0.1,0.3-0.4,0-0.6l-0.6-0.4L130.1,81.9z"/>
					<path class="st3" d="M132.2,85.4l-0.6-0.4l3-1.8l0.6,0.4L132.2,85.4z"/>
					<path class="st3" d="M136.3,88.3l-0.5-0.3l0.7-2.1l-2,1.2l-0.6-0.4l3-1.8l0.6,0.4l-0.6,2l1.9-1.1l0.6,0.4L136.3,88.3z"/>
					<path class="st3" d="M142.9,89l-0.5,0.3l-1.4-0.9l-0.7,0.4l1.2,0.9L141,90l-1.2-0.9l-0.7,0.4l1.4,0.9l-0.6,0.3l-1.9-1.4l3-1.8
						L142.9,89z"/>
					<path class="st3" d="M146.6,91.6l0.6,0.4l-2.5,1.4l1.3,0.9l-0.6,0.3l-1.9-1.3L146.6,91.6z"/>
				</g>
				<g class="st2">
					<path class="st3" d="M149.5,97.5l-0.5-0.3l0.7-2.1l-2,1.2l-0.6-0.4l3-1.8l0.6,0.4l-0.6,2l1.9-1.1l0.6,0.4L149.5,97.5z"/>
				</g>
				<polyline class="st15" points="181.6,58.2 167.3,66.3 107,26.6 				"/>
				<line class="st15" x1="167.3" y1="63.5" x2="167.3" y2="98.7"/>
				<line class="st15" x1="174.6" y1="93.7" x2="173.7" y2="94.2"/>
				<polyline class="st15" points="174.6,93.7 175.2,94.1 181.6,90.3 181.6,55.4 				"/>
				<polyline class="st15" points="181.6,55.4 167.3,63.5 107,23.9 				"/>
				<g>
					<defs>
						<rect id="SVGID_17_" x="100.2" y="2.2" width="82.8" height="100"/>
					</defs>
					<clipPath id="SVGID_18_">
						<use xlink:href="#SVGID_17_"  style="overflow:visible;"/>
					</clipPath>
					<g class="st16">
						<path class="st15" d="M174.6,93.7v-0.8c0-0.1-0.1-0.3-0.2-0.3"/>
						<path class="st15" d="M175.2,94.1v-1.1c0-0.3-0.2-0.6-0.8-0.3c-0.4,0.2-0.6,0.6-0.7,1.1v1.2l-6.4,3.8l-8.5-5.9l-10.7-7.3
							l-9-6.2l-13.3-9.1L107,56.5V23.9l1.3-0.8"/>
					</g>
				</g>
				<line class="st15" x1="169.6" y1="56.9" x2="169.6" y2="55.4"/>
				<line class="st15" x1="115.6" y1="26.4" x2="115.6" y2="28.9"/>
				<line class="st15" x1="169.6" y1="56.9" x2="170.4" y2="57.3"/>
				<line class="st15" x1="169.6" y1="55.4" x2="170.4" y2="55.9"/>
				<line class="st15" x1="116" y1="12" x2="116" y2="10.1"/>
				<line class="st15" x1="116" y1="12.1" x2="116" y2="10.1"/>
				<line class="st15" x1="115.7" y1="24.6" x2="115.7" y2="20.3"/>
				<polyline class="st15" points="117.1,28 115.6,28.9 108.3,24 108.3,21.6 110.8,20.1 				"/>
				<polyline class="st15" points="116,17.7 119.5,15.7 119.5,11.2 119.5,11.1 117.9,10.1 				"/>
				<g>
					<defs>
						<rect id="SVGID_19_" x="100.2" y="2.2" width="82.8" height="100"/>
					</defs>
					<clipPath id="SVGID_20_">
						<use xlink:href="#SVGID_19_"  style="overflow:visible;"/>
					</clipPath>
					<g class="st17">
						<path class="st15" d="M115.3,14.4c0.3,0.8,0.1,1.5-0.5,1.5s-1.2-0.7-1.5-1.5s-0.1-1.5,0.5-1.5S115,13.5,115.3,14.4z"/>
						<path class="st15" d="M116.8,14.4c-0.3,0.8-0.1,1.5,0.5,1.5s1.2-0.7,1.5-1.5s0.1-1.5-0.5-1.5S117,13.6,116.8,14.4z"/>
					</g>
				</g>
				<line class="st15" x1="115.7" y1="20.3" x2="121.3" y2="17.1"/>
				<line class="st15" x1="110.8" y1="17.1" x2="115.7" y2="20.4"/>
				<line class="st15" x1="108.3" y1="21.6" x2="115.6" y2="26.4"/>
				<polyline class="st15" points="119.5,15.5 119.8,15.7 119.8,17.1 119.8,17.2 116,19.4 116,19.3 116,13.3 				"/>
				<polyline class="st15" points="112.3,16.2 110.8,17.1 110.8,21.3 110.8,21.4 115.6,24.6 				"/>
				<polyline class="st15" points="121.4,19.3 124.4,21.2 124.4,22.8 				"/>
				<line class="st15" x1="115.9" y1="13.3" x2="119.5" y2="11.2"/>
				<line class="st15" x1="112.7" y1="11.1" x2="114.1" y2="10.3"/>
				<line class="st15" x1="112.7" y1="11.1" x2="116" y2="13.4"/>
				<polyline class="st15" points="119.8,16 121.4,17.1 121.4,17.1 121.4,21.2 121.3,21.3 115.6,24.6 				"/>
				<line class="st15" x1="114.1" y1="8.9" x2="116" y2="10.2"/>
				<line class="st15" x1="117" y1="8.3" x2="118" y2="8.9"/>
				<g>
					<defs>
						<rect id="SVGID_21_" x="100.2" y="2.2" width="82.8" height="100"/>
					</defs>
					<clipPath id="SVGID_22_">
						<use xlink:href="#SVGID_21_"  style="overflow:visible;"/>
					</clipPath>
					<g class="st18">
						<path class="st15" d="M114.2,6.7c0,0.1-0.2,0.2-0.2,0.3l0.1,0.3c0.1,0.2,0.6,0.3,1.3,0.1s2.2-1,2.4-1.8l-0.2-0.4
							c-0.2,0-0.3,0-0.5,0"/>
					</g>
				</g>
				<polyline class="st15" points="114.9,3.7 115.9,4.2 116.2,4.1 116.9,3.1 				"/>
				<g>
					<defs>
						<rect id="SVGID_23_" x="100.2" y="2.2" width="82.8" height="100"/>
					</defs>
					<clipPath id="SVGID_24_">
						<use xlink:href="#SVGID_23_"  style="overflow:visible;"/>
					</clipPath>
					<g class="st19">
						<path class="st15" d="M117.6,6c0.1,0.2,0.1,0.5,0,0.7c-0.2,0.9-1.1,1.5-2,1.3c-0.3-0.1-0.7-0.2-0.9-0.5l-0.1-0.1"/>
						<path class="st15" d="M114.4,7c-0.1-0.1-0.1-0.3-0.1-0.4c-0.1-0.9,0.5-1.8,1.4-1.9c0.6-0.1,1.1,0.1,1.5,0.5
							c0.1,0.1,0.2,0.3,0.3,0.4"/>
						<path class="st15" d="M117.2,8.5c0-0.1,0-0.1,0-0.2c0,0-0.1-0.1-0.1-0.1c-0.1,0-0.2,0-0.3,0.1V8.2l0.1-0.4"/>
						<path class="st15" d="M116.4,8.5c0,0.1,0,0.1,0.1,0.2s0.2,0.1,0.3,0"/>
					</g>
				</g>
				<polyline class="st15" points="115.5,9.2 115.5,9 115.7,8.6 115.7,8.5 115.2,8.4 114.9,8.2 115,7.8 				"/>
				<line class="st15" x1="112.7" y1="15.6" x2="116" y2="17.7"/>
				<polyline class="st15" points="116,19.5 112.3,17.1 112.3,17.1 112.3,15.8 112.3,15.8 112.6,15.6 112.7,15.5 112.7,11.1 				"/>
				<polyline class="st15" points="115.1,8.2 114.1,8.9 114.1,9 114.1,10.9 116,12.1 116,12.1 117.9,11 117.9,9 117.9,9 116,10.1 
									"/>
				<line class="st15" x1="148.2" y1="44.3" x2="160.2" y2="52"/>
				<polyline class="st15" points="175.7,54.2 173,55.8 170.4,54.2 				"/>
				<line class="st15" x1="173" y1="59.7" x2="173" y2="55.8"/>
				<polyline class="st15" points="170.4,55 164.9,58.2 117.1,27.7 				"/>
				<line class="st14" x1="181.6" y1="55.4" x2="124.4" y2="22.3"/>
				<line class="st14" x1="161.9" y1="44.7" x2="128" y2="25.1"/>
				<line class="st15" x1="164.9" y1="59.6" x2="164.9" y2="58.2"/>
				<line class="st15" x1="160.2" y1="53.6" x2="160.2" y2="52"/>
				<polygon class="st15" points="167.4,47.7 167.4,49.4 160.3,53.6 148.2,46 148.2,44.3 153.5,41.2 160.6,45.5 162.1,44.6 				"/>
				<line class="st15" x1="167.4" y1="47.8" x2="160.2" y2="51.9"/>
				<line class="st15" x1="128" y1="25" x2="122.9" y2="28"/>
				<polygon class="st15" points="118.5,26.9 118.5,25.2 118.5,25.2 123.4,22.3 128,25 128,26.4 128,26.5 122.9,29.6 				"/>
				<polyline class="st15" points="169.6,56.9 164.9,59.6 117.1,29.2 117.1,29.2 117.1,27.7 118.5,26.9 				"/>
				<line class="st15" x1="122.9" y1="28" x2="118.5" y2="25.2"/>
				<line class="st15" x1="122.9" y1="29.6" x2="122.9" y2="28"/>
				<polyline class="st15" points="174.7,53.6 175.1,53.4 175.1,52.3 167.4,47.9 				"/>
				<line class="st15" x1="175.1" y1="52.3" x2="174.5" y2="52.6"/>
				<line class="st15" x1="124.4" y1="21.3" x2="115.6" y2="26.4"/>
				<polyline class="st15" points="171.8,53.3 170.4,54.2 170.4,58 173,59.7 175.7,58.1 175.7,54.2 174.6,53.5 				"/>
				<g>
					<defs>
						<rect id="SVGID_25_" x="100.2" y="2.2" width="82.8" height="100"/>
					</defs>
					<clipPath id="SVGID_26_">
						<use xlink:href="#SVGID_25_"  style="overflow:visible;"/>
					</clipPath>
					<g class="st20">
						<path class="st15" d="M173,51.8c-0.7,0.1-1.2,0.7-1.2,1.4v1c0,0.4,0.6,0.7,1.4,0.7s1.4-0.3,1.4-0.7v-1c0-0.7-0.5-1.3-1.2-1.4
							v-0.1c0-0.1-0.1-0.2-0.2-0.2s-0.2,0.1-0.2,0.2L173,51.8z"/>
					</g>
				</g>
				<polygon class="st21" points="117.1,27.8 117.1,29.2 124.9,34.2 124.9,32.8 				"/>
				<g>
					<defs>
						<rect id="SVGID_27_" x="100.2" y="2.2" width="82.8" height="100"/>
					</defs>
					<clipPath id="SVGID_28_">
						<use xlink:href="#SVGID_27_"  style="overflow:visible;"/>
					</clipPath>
					<g class="st22">
						<g class="st6">
							<g>
								<defs>
									<rect id="SVGID_29_" x="118.4" y="25.3" width="4.4" height="4.4"/>
								</defs>
								<clipPath id="SVGID_30_">
									<use xlink:href="#SVGID_29_"  style="overflow:visible;"/>
								</clipPath>
								<g class="st23">
									<polygon class="st21" points="118.5,25.3 118.4,26.9 122.9,29.7 122.9,29.6 122.8,28 									"/>
								</g>
							</g>
						</g>
					</g>
				</g>
				<polygon class="st21" points="117.1,29.2 115.9,29.8 123.9,35 124.9,34.2 				"/>
				<g>
					<defs>
						<rect id="SVGID_31_" x="100.2" y="2.2" width="82.8" height="100"/>
					</defs>
					<clipPath id="SVGID_32_">
						<use xlink:href="#SVGID_31_"  style="overflow:visible;"/>
					</clipPath>
					<g class="st24">
						<g class="st6">
							<g>
								<defs>
									<rect id="SVGID_33_" x="117.1" y="26.9" width="5.8" height="3.6"/>
								</defs>
								<clipPath id="SVGID_34_">
									<use xlink:href="#SVGID_33_"  style="overflow:visible;"/>
								</clipPath>
								<g class="st25">
									<polygon class="st21" points="118.4,26.9 117.1,27.7 121.5,30.5 122.9,29.7 									"/>
								</g>
							</g>
						</g>
					</g>
				</g>
				<line class="st26" x1="117" y1="29.2" x2="124.9" y2="34.2"/>
			</g>
		</g>
		<g>
			<defs>
				<rect id="SVGID_35_" x="9.7" y="2.9" width="80.2" height="100"/>
			</defs>
			<clipPath id="SVGID_36_">
				<use xlink:href="#SVGID_35_"  style="overflow:visible;"/>
			</clipPath>
			<g class="st27">
				<g class="st2">
					<path class="st3" d="M17.3,75.5l0.6,0.4l-2.4,1.6l1.4,0.9l-0.5,0.4l-2-1.2L17.3,75.5z"/>
					<path class="st3" d="M22.9,79l-0.5,0.4L21,78.4l-0.6,0.4l1.3,0.8L21.1,80l-1.3-0.8l-0.7,0.5l1.4,0.9L20,80.9l-2-1.3l2.9-1.9
						L22.9,79z"/>
					<path class="st3" d="M22.8,82.7c-0.8-0.5-0.8-1.3,0.1-1.9c0.9-0.6,2.1-0.6,2.9-0.1c0.8,0.5,0.8,1.3-0.1,1.9
						C24.9,83.2,23.7,83.2,22.8,82.7z M25.3,81.1c-0.5-0.3-1.2-0.2-1.7,0.2c-0.6,0.4-0.7,0.8-0.2,1.1c0.5,0.3,1.2,0.2,1.8-0.1
						C25.7,81.8,25.8,81.4,25.3,81.1z"/>
					<path class="st3" d="M28.4,86.1l-0.5-0.3l0.6-2.2l-2,1.3l-0.6-0.4l2.9-1.9l0.6,0.4l-0.5,2l1.9-1.2l0.6,0.4L28.4,86.1z"/>
				</g>
				<g class="st2">
					<path class="st3" d="M34.6,86.2l-1.8,2.6l-0.6-0.4l0.4-0.6l-1.1-0.7l-1,0.3l-0.6-0.4l4.1-1.2L34.6,86.2z M32.2,87l0.7,0.5
						l0.6-0.9L32.2,87z"/>
				</g>
				<g class="st2">
					<path class="st3" d="M36,89.5l-1.1,0.7l-0.6-0.4l2.9-1.9l1.2,0.8c0.6,0.4,0.7,0.9,0.1,1.3c-0.5,0.3-1,0.3-1.5,0.1l-0.4,1.2
						L36,90.9l0.4-1.2L36,89.5z M36.5,89.2l0.6,0.4c0.3,0.2,0.6,0.2,0.9,0c0.2-0.2,0.3-0.4-0.1-0.6l-0.6-0.4L36.5,89.2z"/>
					<path class="st3" d="M41.1,90.3l1.1,0.7c0.9,0.6,0.9,1.3,0,1.9c-0.9,0.6-2,0.6-2.9,0l-1.1-0.7L41.1,90.3z M39.8,92.5
						c0.6,0.4,1.2,0.3,1.8-0.1c0.6-0.4,0.6-0.8,0.1-1.2l-0.4-0.3l-1.9,1.2L39.8,92.5z"/>
				</g>
				<g class="st2">
					<path class="st3" d="M45.8,95.9c-0.2,0.2-0.1,0.4,0.2,0.6c0.3,0.2,0.6,0.2,0.9,0.1c0.2-0.1,0.2-0.2,0-0.4l-0.4-0.4
						c-0.3-0.3-0.4-0.7,0-1c0.5-0.3,1.4-0.3,2,0.1c0.7,0.4,0.7,0.9,0.3,1.3l-0.6-0.4c0.1-0.2,0.1-0.4-0.2-0.6
						c-0.3-0.2-0.6-0.2-0.8-0.1c-0.2,0.1-0.2,0.2,0,0.4l0.4,0.4c0.4,0.4,0.4,0.7,0,1c-0.6,0.4-1.4,0.3-2-0.1
						c-0.7-0.4-0.8-0.9-0.4-1.4L45.8,95.9z"/>
				</g>
				<g class="st2">
					<path class="st3" d="M51,96.5l2.5,1.6L53,98.4l-1-0.6l-2.4,1.6L49,99l2.4-1.6l-1-0.6L51,96.5z"/>
				</g>
				<line class="st14" x1="76.3" y1="63.3" x2="76.3" y2="59"/>
				<line class="st14" x1="19.4" y1="29.2" x2="19.4" y2="25.6"/>
				<line class="st14" x1="31.2" y1="33.8" x2="31.2" y2="35.7"/>
				<line class="st14" x1="26" y1="30.8" x2="26" y2="32.7"/>
				<line class="st14" x1="32.6" y1="33" x2="32.6" y2="34.9"/>
				<line class="st15" x1="32.6" y1="34.9" x2="31.2" y2="35.8"/>
				<line class="st15" x1="32.6" y1="33" x2="31.2" y2="33.8"/>
				<line class="st15" x1="68.6" y1="50" x2="62.8" y2="53.3"/>
				<line class="st15" x1="72.9" y1="53.5" x2="68" y2="56.3"/>
				<line class="st14" x1="39.5" y1="36.9" x2="39.5" y2="38.9"/>
				<line class="st15" x1="44.3" y1="35.3" x2="67.5" y2="50.6"/>
				<line class="st15" x1="68.5" y1="49.9" x2="72.9" y2="52.8"/>
				<line class="st15" x1="44.3" y1="34.7" x2="68" y2="50.3"/>
				<line class="st15" x1="16.6" y1="28" x2="19" y2="29.4"/>
				<line class="st15" x1="26" y1="30.8" x2="31.2" y2="33.8"/>
				<line class="st15" x1="32.6" y1="33" x2="39.6" y2="37.1"/>
				<line class="st15" x1="32.6" y1="34.9" x2="39.5" y2="38.9"/>
				<line class="st15" x1="62.8" y1="53.3" x2="68.1" y2="56.3"/>
				<line class="st14" x1="76.3" y1="51" x2="76.3" y2="48.9"/>
				<polyline class="st14" points="67.6,60.3 66.7,59.8 65.7,60.4 20.8,34.4 20.8,32.2 				"/>
				<polyline class="st14" points="32,27.3 27.6,24.4 17.5,30.3 65.7,58.2 				"/>
				<line class="st14" x1="65.7" y1="58.2" x2="65.7" y2="60.4"/>
				<line class="st14" x1="66.7" y1="57.6" x2="65.7" y2="58.2"/>
				<polyline class="st14" points="66.7,59.8 66.7,57.6 62.8,55.3 				"/>
				<line class="st14" x1="76.4" y1="67.4" x2="76.4" y2="64.9"/>
				<polyline class="st14" points="81.7,58.2 84.6,60.1 84.6,62.5 76.4,67.4 67.6,62.3 67.6,59.8 71.1,57.8 				"/>
				<polyline class="st14" points="84.6,60.1 76.4,64.9 67.6,59.8 				"/>
				<polyline class="st15" points="18.4,30.8 18.4,32 20.8,33.4 				"/>
				<line class="st15" x1="26" y1="32.7" x2="31.2" y2="35.8"/>
				<line class="st15" x1="62.8" y1="55.3" x2="62.8" y2="53.3"/>
				<line class="st15" x1="68.1" y1="59.5" x2="68.1" y2="56.3"/>
				<polyline class="st15" points="79.7,50 76.3,52 72.9,50 				"/>
				<polyline class="st14" points="79.7,54.3 80.1,54.5 80.1,56 76.3,58.2 72.6,56 72.6,54.6 72.9,54.4 				"/>
				<line class="st14" x1="76.3" y1="58.2" x2="76.3" y2="52"/>
				<polyline class="st14" points="80.1,55 81.7,55.9 81.7,60.2 76.3,63.3 71.1,60.3 71.1,56 72.6,55.1 				"/>
				<polyline class="st14" points="81.7,55.9 76.3,59 71.1,56 				"/>
				<polyline class="st14" points="16.6,28 11.5,31 11.5,66.8 				"/>
				<polyline class="st14" points="22.2,24.7 25.8,22.6 32.5,27 				"/>
				<line class="st14" x1="76.3" y1="68.5" x2="76.3" y2="100.9"/>
				<line class="st14" x1="76.3" y1="100.9" x2="41.7" y2="80.8"/>
				<polyline class="st14" points="86.1,68.2 76.3,73.9 11.5,36.4 				"/>
				<polyline class="st14" points="86.1,70.9 76.3,76.6 11.5,39.1 				"/>
				<polyline class="st14" points="86.1,73.6 76.3,79.3 11.5,41.8 				"/>
				<polyline class="st14" points="86.1,76.3 76.3,82 11.5,44.5 				"/>
				<polyline class="st14" points="86.1,79 76.3,84.7 11.5,47.2 				"/>
				<polyline class="st14" points="86.1,81.7 76.3,87.4 11.5,49.9 				"/>
				<polyline class="st14" points="86.1,84.4 76.3,90.1 11.5,52.6 				"/>
				<polyline class="st14" points="86.1,87.1 76.3,92.8 11.5,55.3 				"/>
				<line class="st14" x1="86.1" y1="89.8" x2="83.8" y2="91.2"/>
				<polyline class="st14" points="78.6,94.2 76.3,95.5 11.5,58 				"/>
				<line class="st14" x1="83.8" y1="93.8" x2="86.1" y2="92.5"/>
				<polyline class="st14" points="78.6,96.9 76.3,98.2 11.5,60.7 				"/>
				<polyline class="st14" points="86.1,65.5 76.3,71.2 11.5,33.7 				"/>
				<line class="st14" x1="38.9" y1="79.2" x2="11.5" y2="63.4"/>
				<polyline class="st15" points="18.1,23.2 16.6,24 16.6,28 				"/>
				<polyline class="st15" points="20.9,23.2 22.2,24 22.2,27.5 				"/>
				<polyline class="st15" points="16.6,24 19.4,25.6 22.2,24 				"/>
				<polyline class="st14" points="77.5,47.3 78.2,47.8 78.2,49.9 76.3,51 74.4,49.9 74.4,47.8 75.3,47.2 				"/>
				<polyline class="st15" points="78.2,47.8 76.3,48.9 74.3,47.8 				"/>
				<g>
					<defs>
						<rect id="SVGID_37_" x="9.9" y="2.9" width="80.1" height="100"/>
					</defs>
					<clipPath id="SVGID_38_">
						<use xlink:href="#SVGID_37_"  style="overflow:visible;"/>
					</clipPath>
					<g class="st28">
						<path class="st14" d="M74.5,45.5c0,0.1-0.2,0.2-0.2,0.3l0.1,0.3c0.1,0.2,0.6,0.3,1.3,0.1s2.2-1,2.4-1.8L77.8,44
							c-0.2,0-0.3,0-0.5,0"/>
					</g>
				</g>
				<polyline class="st14" points="75.2,42.6 76.2,43.1 76.5,43 77.2,42 				"/>
				<g>
					<defs>
						<rect id="SVGID_39_" x="9.9" y="2.9" width="80.1" height="100"/>
					</defs>
					<clipPath id="SVGID_40_">
						<use xlink:href="#SVGID_39_"  style="overflow:visible;"/>
					</clipPath>
					<g class="st29">
						<path class="st14" d="M77.9,44.8c0.1,0.2,0.1,0.5,0,0.7c-0.2,0.9-1.1,1.5-2,1.3c-0.3-0.1-0.6-0.3-0.9-0.5l-0.1-0.1"/>
						<path class="st14" d="M74.6,45.9c-0.1-0.1-0.1-0.3-0.1-0.4c-0.1-0.9,0.5-1.8,1.4-1.9c0,0,0,0,0,0c0.6-0.1,1.1,0.1,1.5,0.5
							c0.1,0.1,0.2,0.3,0.3,0.4"/>
						<path class="st14" d="M75.6,53.2c0.3,0.8,0.1,1.5-0.5,1.5s-1.2-0.7-1.5-1.5s-0.1-1.5,0.5-1.5S75.3,52.4,75.6,53.2z"/>
						<path class="st14" d="M77,53.3c-0.3,0.8-0.1,1.5,0.5,1.5s1.2-0.7,1.5-1.5s0.1-1.5-0.5-1.5S77.3,52.5,77,53.3z"/>
						<path class="st30" d="M77.5,47.4c0-0.1,0-0.1,0-0.2c0,0,0-0.1-0.1-0.1c-0.1,0-0.2,0-0.3,0.1v-0.1l0.1-0.4"/>
						<path class="st15" d="M76.7,47.4c0,0.1,0,0.2,0.1,0.2c0.1,0.1,0.2,0.1,0.3,0c0,0,0,0,0,0"/>
					</g>
				</g>
				<polyline class="st15" points="75.8,48 75.8,47.9 76,47.5 75.9,47.4 75.5,47.3 75.2,47.1 75.3,46.7 				"/>
				<polyline class="st14" points="74.4,49.2 72.9,50 72.9,54.6 76.3,56.6 79.7,54.6 79.7,50 78.2,49.1 				"/>
				<g>
					<defs>
						<rect id="SVGID_41_" x="9.9" y="2.9" width="80.1" height="100"/>
					</defs>
					<clipPath id="SVGID_42_">
						<use xlink:href="#SVGID_41_"  style="overflow:visible;"/>
					</clipPath>
					<g class="st31">
						<path class="st15" d="M19.2,21.6c-0.7,0.1-1.2,0.7-1.2,1.4v1c0,0.4,0.6,0.7,1.4,0.7s1.4-0.3,1.4-0.7v-1c0-0.7-0.5-1.3-1.2-1.4
							v-0.1c0-0.1-0.1-0.2-0.2-0.2s-0.2,0.1-0.2,0.2V21.6z"/>
					</g>
				</g>
				<polyline class="st14" points="86.1,62.8 76.3,68.5 11.5,31 				"/>
				<polyline class="st14" points="41.7,81.3 39.8,80.2 38.1,81.2 40.4,82.6 41.7,81.9 				"/>
				<line class="st14" x1="41.7" y1="81.3" x2="39.8" y2="80.2"/>
				<line class="st14" x1="41.7" y1="82.9" x2="40.8" y2="82.4"/>
				<g>
					<defs>
						<rect id="SVGID_43_" x="9.9" y="2.9" width="80.1" height="100"/>
					</defs>
					<clipPath id="SVGID_44_">
						<use xlink:href="#SVGID_43_"  style="overflow:visible;"/>
					</clipPath>
					<g class="st32">
						<path class="st14" d="M40.2,78.1c-0.2,0.2-0.4,0.5-0.4,0.8v1.4"/>
					</g>
				</g>
				<polyline class="st14" points="39.4,82 38.9,82.3 11.5,66.8 				"/>
				<line class="st14" x1="38.9" y1="82.3" x2="38.9" y2="81.7"/>
				<g>
					<defs>
						<rect id="SVGID_45_" x="9.9" y="2.9" width="80.1" height="100"/>
					</defs>
					<clipPath id="SVGID_46_">
						<use xlink:href="#SVGID_45_"  style="overflow:visible;"/>
					</clipPath>
					<g class="st33">
						<path class="st14" d="M83.8,96.5v-5.2l-5.2,2.9v5.4l-2.3,1.3l-17.4-8.2l-14-7l-3.2-1.8v-3.7c-0.1-0.8-0.6-1.6-1.4-2
							c-0.4-0.3-0.9-0.2-1.2,0.2c-0.1,0.2-0.2,0.4-0.1,0.6v1.8"/>
					</g>
				</g>
				<polyline class="st14" points="80.1,96.9 80.1,95.5 79.3,96 79.3,97.4 				"/>
				<g>
					<defs>
						<rect id="SVGID_47_" x="9.9" y="2.9" width="80.1" height="100"/>
					</defs>
					<clipPath id="SVGID_48_">
						<use xlink:href="#SVGID_47_"  style="overflow:visible;"/>
					</clipPath>
					<g class="st34">
						<path class="st14" d="M84.6,61.9l1.5,1v32.3l-2.3,1.3c-1.2-0.3-2.4-0.2-3.5,0.3l-1.2,0.7c-0.2,0.1-0.4,0.2-0.5,0.4"/>
					</g>
				</g>
				<polyline class="st15" points="39.5,38.9 44.3,36 44.3,34.2 33,26.7 26,30.8 				"/>
				<line class="st15" x1="44.3" y1="34.2" x2="39.5" y2="37"/>
				<g>
					<defs>
						<rect id="SVGID_49_" x="9.9" y="2.9" width="80.1" height="100"/>
					</defs>
					<clipPath id="SVGID_50_">
						<use xlink:href="#SVGID_49_"  style="overflow:visible;"/>
					</clipPath>
					<g class="st35">
						<g class="st2">
							<path class="st3" d="M193.7,69c0.7,0.5,0.7,1,0.2,1.4l-0.6-0.4c0.2-0.2,0.2-0.5-0.1-0.7c-0.5-0.3-1.2-0.3-1.7,0.1
								c-0.6,0.3-0.7,0.8-0.3,1.1c0.3,0.2,0.7,0.2,1.1,0.2l0.6,0.4c-0.7,0.3-1.5,0.2-2.2-0.2c-0.8-0.5-0.7-1.3,0.2-1.8
								C191.7,68.4,192.9,68.4,193.7,69z"/>
						</g>
						<g class="st2">
							<path class="st3" d="M197.8,71.9l-1.9,2.5l-0.6-0.4l0.5-0.6l-1.1-0.7l-1,0.2l-0.6-0.4l4.1-1L197.8,71.9z M195.4,72.4l0.7,0.5
								l0.7-0.8L195.4,72.4z"/>
						</g>
						<g class="st2">
							<path class="st3" d="M199.9,73.3l2.4,1.7l-0.5,0.3l-0.9-0.6l-2.5,1.4l-0.6-0.4l2.5-1.4l-0.9-0.6L199.9,73.3z"/>
						</g>
						<g class="st2">
							<path class="st3" d="M206.3,77.8l-3,1.8l-0.6-0.4l1.3-0.7l-1.3-0.9l-1.3,0.7l-0.6-0.4l3-1.8l0.6,0.4l-1.2,0.7l1.3,0.9
								l1.2-0.7L206.3,77.8z"/>
							<path class="st3" d="M210,80.3l-0.6,0.3l-1.4-0.9l-0.7,0.4l1.2,0.9l-0.5,0.3l-1.2-0.9l-0.7,0.4l1.4,0.9l-0.6,0.3l-1.9-1.4
								l3-1.8L210,80.3z"/>
							<path class="st3" d="M210.2,82.9l-1.1,0.7l-0.6-0.4l3-1.8l1.2,0.8c0.6,0.4,0.7,0.9,0,1.3c-0.5,0.3-1,0.3-1.5,0.1l-0.4,1.2
								l-0.7-0.5l0.4-1.1L210.2,82.9z M210.8,82.6l0.6,0.4c0.3,0.2,0.6,0.2,0.9,0.1c0.3-0.1,0.3-0.4,0-0.6l-0.6-0.4L210.8,82.6z"/>
							<path class="st3" d="M212.9,86.2l-0.6-0.4l3-1.8l0.6,0.4L212.9,86.2z"/>
							<path class="st3" d="M216.9,89l-0.5-0.3l0.7-2.1l-2,1.2l-0.6-0.4l3-1.8l0.6,0.4l-0.6,2l1.9-1.1l0.6,0.4L216.9,89z"/>
							<path class="st3" d="M223.6,89.8l-0.5,0.3l-1.4-0.9l-0.7,0.4l1.2,0.9l-0.5,0.3l-1.2-0.9l-0.7,0.4l1.4,0.9l-0.6,0.3l-1.9-1.4
								l3-1.8L223.6,89.8z"/>
							<path class="st3" d="M227.2,92.4l0.6,0.4l-2.5,1.4l1.3,0.9l-0.6,0.3l-1.9-1.3L227.2,92.4z"/>
						</g>
						<g class="st2">
							<path class="st3" d="M230.2,98.2l-0.5-0.3l0.7-2.1l-2,1.2l-0.6-0.4l3-1.8l0.6,0.4l-0.6,2l1.9-1.1l0.6,0.4L230.2,98.2z"/>
						</g>
						<path class="st15" d="M255.3,94.5v-0.8c0-0.1-0.1-0.3-0.1-0.3"/>
						<path class="st15" d="M255.9,94.8v-1.1c0-0.3-0.2-0.6-0.8-0.3c-0.4,0.2-0.6,0.6-0.7,1.1v1.2l-6.4,3.8l-8.4-5.8l-10.7-7.3
							l-9-6.2L206.6,71l-18.9-13.7V24.7l1.3-0.8"/>
						<path class="st15" d="M196,15.1c0.3,0.8,0.1,1.5-0.5,1.5s-1.2-0.7-1.5-1.5s-0.1-1.5,0.5-1.5S195.7,14.3,196,15.1z"/>
						<path class="st15" d="M197.4,15.2c-0.3,0.8-0.1,1.5,0.5,1.5s1.2-0.7,1.5-1.5s0.1-1.5-0.5-1.5S197.7,14.3,197.4,15.2z"/>
						<path class="st15" d="M194.9,7.4c0,0.1-0.2,0.2-0.2,0.3l0.1,0.3c0.1,0.1,0.6,0.3,1.3,0.1s2.2-1,2.4-1.8l-0.2-0.4
							c-0.2,0-0.3,0-0.5,0"/>
						<path class="st15" d="M198.3,6.7c0.1,0.2,0.1,0.5,0,0.7c-0.2,0.9-1.1,1.5-2,1.3c-0.3-0.1-0.7-0.2-0.9-0.5h-0.1"/>
						<path class="st15" d="M195,7.8c-0.1-0.1-0.1-0.3-0.1-0.4c-0.1-0.9,0.5-1.8,1.4-1.9c0.7-0.1,1.4,0.2,1.8,0.9"/>
						<path class="st15" d="M197.9,9.3c0-0.1,0-0.1,0-0.2c0,0,0-0.1-0.1-0.1c-0.1,0-0.2,0-0.3,0.1c0,0,0-0.1,0-0.1v0l0.1-0.4"/>
						<path class="st15" d="M197.1,9.3c0,0.1,0.1,0.1,0.1,0.2s0.2,0.1,0.3,0"/>
						<path class="st15" d="M253.7,52.6c-0.7,0.1-1.2,0.7-1.2,1.4v1c0,0.4,0.6,0.7,1.4,0.7s1.4-0.3,1.4-0.7v-1
							c0-0.7-0.5-1.3-1.2-1.4v-0.2c0-0.1-0.1-0.2-0.2-0.2s-0.2,0.1-0.2,0.2V52.6z"/>
					</g>
				</g>
				<polygon class="st21" points="57.4,53.4 57.4,55.6 65.7,60.3 65.7,58.2 				"/>
				<g>
					<defs>
						<rect id="SVGID_51_" x="9.9" y="2.9" width="80.1" height="100"/>
					</defs>
					<clipPath id="SVGID_52_">
						<use xlink:href="#SVGID_51_"  style="overflow:visible;"/>
					</clipPath>
					<g class="st36">
						<g class="st6">
							<g>
								<defs>
									<rect id="SVGID_53_" x="62.8" y="53.3" width="5.3" height="5.1"/>
								</defs>
								<clipPath id="SVGID_54_">
									<use xlink:href="#SVGID_53_"  style="overflow:visible;"/>
								</clipPath>
								<g class="st37">
									<polygon class="st21" points="62.8,53.3 62.8,55.2 68,58.4 68,56.3 									"/>
								</g>
							</g>
						</g>
					</g>
				</g>
				<polygon class="st21" points="57.4,55.6 55.7,56.6 64.1,61.5 65.7,60.4 				"/>
				<g>
					<defs>
						<rect id="SVGID_55_" x="9.9" y="2.9" width="80.1" height="100"/>
					</defs>
					<clipPath id="SVGID_56_">
						<use xlink:href="#SVGID_55_"  style="overflow:visible;"/>
					</clipPath>
					<g class="st38">
						<g class="st6">
							<g>
								<defs>
									<rect id="SVGID_57_" x="61.6" y="55.3" width="5.1" height="2.9"/>
								</defs>
								<clipPath id="SVGID_58_">
									<use xlink:href="#SVGID_57_"  style="overflow:visible;"/>
								</clipPath>
								<g class="st39">
									<polygon class="st21" points="62.8,55.3 61.6,55.8 65.7,58.2 65.7,58.2 66.7,57.6 									"/>
								</g>
							</g>
						</g>
					</g>
				</g>
				<line class="st26" x1="57.3" y1="55.6" x2="65.7" y2="60.4"/>
				<g>
					<defs>
						<rect id="SVGID_59_" x="9.9" y="2.9" width="80.1" height="100"/>
					</defs>
					<clipPath id="SVGID_60_">
						<use xlink:href="#SVGID_59_"  style="overflow:visible;"/>
					</clipPath>
					<g class="st40">
						<g class="st6">
							<g>
								<defs>
									<rect id="SVGID_61_" x="199.1" y="26" width="4.4" height="4.4"/>
								</defs>
								<clipPath id="SVGID_62_">
									<use xlink:href="#SVGID_61_"  style="overflow:visible;"/>
								</clipPath>
								<g class="st41">
									<polygon class="st21" points="199.1,26 199.1,27.7 203.5,30.5 203.5,30.4 203.5,28.8 									"/>
								</g>
							</g>
						</g>
					</g>
				</g>
				<g>
					<defs>
						<rect id="SVGID_63_" x="9.9" y="2.9" width="80.1" height="100"/>
					</defs>
					<clipPath id="SVGID_64_">
						<use xlink:href="#SVGID_63_"  style="overflow:visible;"/>
					</clipPath>
					<g class="st42">
						<g class="st6">
							<g>
								<defs>
									<rect id="SVGID_65_" x="197.8" y="27.7" width="5.8" height="3.6"/>
								</defs>
								<clipPath id="SVGID_66_">
									<use xlink:href="#SVGID_65_"  style="overflow:visible;"/>
								</clipPath>
								<g class="st43">
									<polygon class="st21" points="199.1,27.7 197.8,28.5 202.2,31.3 203.5,30.5 									"/>
								</g>
							</g>
						</g>
					</g>
				</g>
			</g>
		</g>
	</g>
</g>
</svg>
