<?xml version="1.0" encoding="utf-8"?>
<!-- Generator: Adobe Illustrator 23.0.0, SVG Export Plug-In . SVG Version: 6.00 Build 0)  -->
<svg version="1.1" id="Layer_1" xmlns="http://www.w3.org/2000/svg" xmlns:xlink="http://www.w3.org/1999/xlink" x="0px" y="0px"
	 viewBox="0 0 189.9 92.6" style="enable-background:new 0 0 189.9 92.6;" xml:space="preserve">
<style type="text/css">
	.st0{fill:#D2D3D4;}
	.st1{clip-path:url(#SVGID_2_);}
	.st2{fill:#231F20;}
	.st3{clip-path:url(#SVGID_4_);}
	.st4{fill:none;stroke:#D1D3D4;stroke-width:1.09;stroke-miterlimit:10;}
	.st5{clip-path:url(#SVGID_6_);}
	.st6{fill:none;stroke:#231F20;stroke-width:0.15;stroke-miterlimit:10;}
	.st7{enable-background:new    ;}
	.st8{fill:#D1D3D4;}
	.st9{fill:none;stroke:#231F20;stroke-width:0.14;stroke-miterlimit:10;}
	.st10{clip-path:url(#SVGID_8_);}
	.st11{clip-path:url(#SVGID_10_);}
	.st12{clip-path:url(#SVGID_12_);}
	.st13{clip-path:url(#SVGID_14_);}
	.st14{clip-path:url(#SVGID_16_);}
	.st15{fill:none;stroke:#FFFFFF;stroke-width:0.15;stroke-miterlimit:10;}
</style>
<title>residence_P_7-12_key_horizontal</title>
<g>
	<path class="st0" d="M83.6,43.8c-0.6,0-1-0.4-1-1.1v-1.4H86v1.3c0,0.7-0.3,1.1-0.9,1.1c-0.3,0-0.6-0.2-0.7-0.4
		C84.2,43.6,83.9,43.8,83.6,43.8z M83.2,41.9v0.7c0,0.3,0.2,0.5,0.4,0.5s0.4-0.2,0.4-0.5v-0.7H83.2z M84.6,42.5
		c0,0.3,0.1,0.5,0.4,0.5s0.4-0.2,0.4-0.5v-0.6h-0.8V42.5z"/>
	<path class="st0" d="M83.8,46.2h-1.3v-0.7H86v1.4c0.1,0.5-0.3,1.1-0.8,1.2c-0.1,0-0.2,0-0.3,0c-0.5,0-0.9-0.3-1-0.8l-1.3,0.9v-0.8
		l1.3-0.8L83.8,46.2z M84.4,46.2v0.6c0,0.4,0.2,0.5,0.5,0.5s0.5-0.2,0.5-0.5v-0.6H84.4z"/>
	<path class="st0" d="M82.5,51.2c-0.1-1,0.6-1.8,1.6-1.9c1-0.1,1.8,0.6,1.9,1.6s-0.6,1.8-1.6,1.9c-0.1,0-0.1,0-0.2,0
		c-0.9,0.1-1.7-0.6-1.7-1.5C82.5,51.3,82.5,51.3,82.5,51.2z M85.4,51.2c0-0.5-0.4-0.9-1.1-0.9s-1.1,0.3-1.1,0.9s0.5,0.9,1.1,0.9
		S85.4,51.8,85.4,51.2z"/>
	<path class="st0" d="M86,56.1l-3.4,1.3v-0.7l0.8-0.3v-1.3l-0.8-0.3v-0.7l3.4,1.3V56.1z M84,55.4v0.8l1.1-0.4L84,55.4z"/>
	<path class="st0" d="M86,59v1.2c0,0.9-0.8,1.7-1.7,1.7c-0.9,0-1.7-0.8-1.7-1.7V59H86z M83.2,60.2c0,0.6,0.5,1.1,1.1,1.1
		c0.6,0,1.1-0.5,1.1-1.1v-0.5h-2.2L83.2,60.2z"/>
	<path class="st0" d="M86,65.7l-2.3,0.6l2.3,0.6v0.7l-3.4-0.9V66l2.2-0.6l-2.2-0.6v-0.6l3.4-0.9V64l-2.3,0.6l2.3,0.6V65.7z"/>
	<path class="st0" d="M86,70.7L82.6,72v-0.7l0.8-0.3v-1.3l-0.8-0.3v-0.7L86,70V70.7z M84,69.9v0.8l1.1-0.4L84,69.9z"/>
	<path class="st0" d="M86,75.3v0.7l-2.1-1.2h-1.3v-0.7h1.3l2.1-1.2v0.8l-1.4,0.8L86,75.3z"/>
	<path class="st0" d="M180.9,35.1v0.7h-2.8v1.6h-0.6v-2.3H180.9z"/>
	<path class="st0" d="M180.9,40.8l-3.4,1.3v-0.7l0.8-0.3v-1.3l-0.8-0.3v-0.7l3.4,1.3V40.8z M179,40v0.8l1.1-0.4L179,40z"/>
	<path class="st0" d="M177.6,43.7h3.4V46h-0.6v-1.6h-0.9v1.4h-0.6v-1.4h-1.3V43.7z"/>
	<path class="st0" d="M180.9,49.2l-3.4,1.3v-0.7l0.8-0.3v-1.3l-0.8-0.3v-0.7l3.4,1.3V49.2z M178.9,48.4v0.8l1.1-0.4L178.9,48.4z"/>
	<path class="st0" d="M180.9,53.9v0.7l-2.1-1.2h-1.3v-0.7h1.3l2.1-1.2v0.8l-1.4,0.8L180.9,53.9z"/>
	<path class="st0" d="M180.9,58.5h-0.6v-1.6h-0.7v1.5H179v-1.5h-0.8v1.6h-0.6v-2.3h3.4L180.9,58.5z"/>
	<path class="st0" d="M180.9,60.1V63h-0.6v-1.1h-2.8v-0.7h2.8v-1.1H180.9z"/>
	<path class="st0" d="M180.9,64.4v2.9h-0.6v-1.1h-2.8v-0.7h2.8v-1.1H180.9z"/>
	<path class="st0" d="M180.9,71.3h-0.6v-1.6h-0.7v1.5H179v-1.5h-0.8v1.6h-0.6V69h3.4L180.9,71.3z"/>
	<path class="st0" d="M178.5,75.9c-0.3,0.1-0.5,0.4-0.4,0.7c0,0.3,0.2,0.6,0.4,0.6s0.3-0.1,0.4-0.4l0.1-0.6c0-0.5,0.4-0.9,0.9-0.8
		c0.6,0,1,0.6,1,1.1c0,0,0,0,0,0.1c0.1,0.6-0.4,1.2-1,1.3v-0.7c0.3-0.1,0.4-0.4,0.4-0.6c0-0.3-0.2-0.5-0.4-0.5s-0.3,0.1-0.4,0.4
		l-0.1,0.6c-0.1,0.6-0.4,0.9-0.9,0.9c-0.6,0-1.1-0.5-1.1-1.2c0,0,0-0.1,0-0.1c-0.1-0.7,0.4-1.3,1-1.4L178.5,75.9L178.5,75.9z"/>
	<path class="st0" d="M180.9,79.3v2.9h-0.6v-1.1h-2.8v-0.7h2.8v-1.1H180.9z"/>
	<path class="st0" d="M112.4,39.3h0.7v2.8h1.6v0.6h-2.3V39.3z"/>
	<path class="st0" d="M118.6,39.3v0.6H117v0.7h1.4v0.6H117v0.8h1.6v0.6h-2.3v-3.4H118.6z"/>
	<path class="st0" d="M121.6,42.7c-1,0.1-1.8-0.6-1.9-1.6c-0.1-1,0.6-1.8,1.6-1.9c1-0.1,1.8,0.6,1.9,1.6c0,0.1,0,0.1,0,0.2
		c0.1,0.9-0.6,1.7-1.5,1.7C121.7,42.7,121.7,42.7,121.6,42.7z M121.6,39.9c-0.5,0-0.9,0.5-0.9,1.1s0.3,1.1,0.9,1.1s0.9-0.5,0.9-1.1
		S122.2,39.9,121.6,39.9z"/>
	<path class="st0" d="M127.7,42.7h-0.6l-1.6-2.2v2.2h-0.7v-3.4h0.7l1.5,2.1v-2.1h0.7L127.7,42.7z"/>
	<path class="st0" d="M131.2,39.3l1.3,3.4h-0.7l-0.3-0.8h-1.3l-0.3,0.8h-0.7l1.3-3.4H131.2z M130.4,41.3h0.8l-0.4-1.1L130.4,41.3z"
		/>
	<path class="st0" d="M134.6,41.4v1.3H134v-3.4h1.4c0.6-0.1,1.1,0.3,1.2,0.9c0,0.1,0,0.1,0,0.2c0,0.5-0.3,0.9-0.8,1l0.9,1.3h-0.8
		l-0.9-1.3H134.6z M134.6,40.8h0.6c0.4,0,0.5-0.2,0.5-0.5s-0.2-0.5-0.5-0.5h-0.6V40.8z"/>
	<path class="st0" d="M138.1,39.3h1.2c0.9,0,1.7,0.8,1.7,1.7c0,0.9-0.8,1.7-1.7,1.7h-1.2V39.3z M139.3,42.1c0.6,0,1.1-0.5,1.1-1.1
		c0-0.6-0.5-1.1-1.1-1.1h-0.5v2.1H139.3z"/>
	<path class="st0" d="M145.4,41.7c0.1,0.3,0.4,0.5,0.7,0.4c0.3,0,0.6-0.2,0.6-0.4s-0.1-0.3-0.4-0.4l-0.6-0.1
		c-0.5-0.1-0.9-0.4-0.9-0.9c0-0.6,0.6-1,1.2-1c0,0,0,0,0,0c0.6-0.1,1.2,0.4,1.3,1h-0.7c-0.1-0.3-0.3-0.4-0.6-0.4
		c-0.3,0-0.5,0.2-0.5,0.4s0.1,0.3,0.4,0.4l0.6,0.1c0.6,0.1,0.9,0.4,0.9,1c0,0.7-0.5,1-1.2,1c-0.7,0.1-1.3-0.4-1.4-1L145.4,41.7z"/>
	<path class="st0" d="M148.6,39.3h2.9v0.6h-1.1v2.8h-0.7v-2.8h-1.1V39.3z"/>
	<path class="st0" d="M109.9,74.6c0.7,0,1.3,0.4,1.4,1.1h-0.7c-0.1-0.3-0.4-0.5-0.7-0.5c-0.5,0-0.8,0.5-0.8,1.1s0.3,1.1,0.8,1.1
		c0.3,0,0.6-0.2,0.7-0.5h0.7c-0.1,0.7-0.7,1.2-1.4,1.1c-1-0.1-1.7-1-1.6-1.9C108.4,75.3,109.1,74.6,109.9,74.6L109.9,74.6z"/>
	<path class="st0" d="M114.7,74.6l1.3,3.4h-0.7l-0.3-0.8h-1.3l-0.3,0.8h-0.7l1.3-3.4H114.7z M113.9,76.6h0.8l-0.4-1.1L113.9,76.6z"
		/>
	<path class="st0" d="M117,74.6h2.9v0.6h-1.1V78h-0.7v-2.8H117V74.6z"/>
	<path class="st0" d="M124.5,74.6V78h-0.7v-1.4h-1.5V78h-0.7v-3.4h0.7v1.3h1.5v-1.3H124.5z"/>
	<path class="st0" d="M128.7,74.6v0.6h-1.6V76h1.5v0.6h-1.4v0.8h1.6V78h-2.3v-3.4H128.7z"/>
	<path class="st0" d="M131.1,76.7V78h-0.7v-3.4h1.4c0.5-0.1,1.1,0.2,1.2,0.8c0,0.1,0,0.2,0,0.3c0,0.5-0.3,0.9-0.8,1l0.9,1.3h-0.8
		l-0.8-1.3L131.1,76.7z M131.1,76.1h0.6c0.4,0,0.5-0.2,0.5-0.5s-0.2-0.5-0.5-0.5h-0.6V76.1z"/>
	<path class="st0" d="M135.4,78h-0.7v-3.4h0.7V78z"/>
	<path class="st0" d="M140.1,78h-0.6l-1.6-2.3V78h-0.7v-3.4h0.7l1.5,2.1v-2.1h0.7L140.1,78z"/>
	<path class="st0" d="M144.2,74.6v0.6h-1.6V76h1.4v0.6h-1.4v0.8h1.6V78H142v-3.4H144.2z"/>
	<path class="st0" d="M148.4,74.6h0.7v2.8h1.6V78h-2.3V74.6z"/>
	<path class="st0" d="M155.2,78h-0.6l-1.6-2.2V78h-0.7v-3.4h0.6l1.5,2.1v-2.1h0.7L155.2,78L155.2,78z"/>
</g>
<g id="Layer_4">
	<g>
		<defs>
			<rect id="SVGID_1_" x="92.2" y="51" width="76.4" height="17.2"/>
		</defs>
		<clipPath id="SVGID_2_">
			<use xlink:href="#SVGID_1_"  style="overflow:visible;"/>
		</clipPath>
		<g class="st1">
			<polygon class="st2" points="157.2,61.8 162.3,61.8 162.3,60.5 163.4,60.5 163.4,58.8 166.8,58.8 166.8,67.3 158.1,66.8 
				158.1,66.6 157.8,66.6 157.8,64.1 156.7,64.1 156.7,62.2 157.2,62.2 			"/>
			<g>
				<defs>
					<rect id="SVGID_3_" x="92.2" y="51" width="76.4" height="17.2"/>
				</defs>
				<clipPath id="SVGID_4_">
					<use xlink:href="#SVGID_3_"  style="overflow:visible;"/>
				</clipPath>
				<g class="st3">
					<polygon class="st4" points="166.8,52.1 166.8,67.1 93.1,62.5 93.2,52.1 					"/>
				</g>
			</g>
		</g>
	</g>
	<g>
		<defs>
			<rect id="SVGID_5_" x="4" y="6.5" width="61.8" height="74.5"/>
		</defs>
		<clipPath id="SVGID_6_">
			<use xlink:href="#SVGID_5_"  style="overflow:visible;"/>
		</clipPath>
		<g class="st5">
			<polyline class="st6" points="64.6,50.5 53.9,56.6 8.9,27 			"/>
			<polyline class="st6" points="64.6,52.6 53.9,58.6 8.9,29.1 			"/>
			<polyline class="st6" points="64.6,54.6 53.9,60.6 8.9,31.1 			"/>
			<polyline class="st6" points="64.6,56.6 53.9,62.7 8.9,33.1 			"/>
			<polyline class="st6" points="64.6,58.6 53.9,64.7 8.9,35.1 			"/>
			<polyline class="st6" points="64.6,60.7 53.9,66.7 8.9,37.1 			"/>
			<polyline class="st6" points="64.6,62.7 53.9,68.7 8.9,39.2 			"/>
			<polyline class="st6" points="64.6,64.7 53.9,70.7 8.9,41.2 			"/>
			<polyline class="st6" points="64.6,66.7 53.9,72.8 8.9,43.2 			"/>
			<polyline class="st6" points="64.6,68.7 53.9,74.8 8.9,45.2 			"/>
			<polyline class="st6" points="64.6,70.8 53.9,76.8 8.9,47.2 			"/>
			<g class="st7">
				<path class="st8" d="M13.4,56c0.5,0.4,0.5,0.7,0.1,1.1l-0.4-0.3c0.1-0.2,0.1-0.3-0.1-0.5c-0.3-0.2-0.9-0.2-1.3,0.1
					c-0.4,0.2-0.5,0.6-0.2,0.8c0.2,0.2,0.5,0.2,0.8,0.1l0.4,0.3c-0.5,0.2-1.2,0.2-1.7-0.2c-0.6-0.4-0.5-1,0.2-1.4
					C11.9,55.6,12.8,55.6,13.4,56z"/>
			</g>
			<g class="st7">
				<path class="st8" d="M16.4,58.2L15,60l-0.5-0.3l0.3-0.4l-0.8-0.6l-0.7,0.2l-0.4-0.3l3.1-0.7L16.4,58.2z M14.6,58.6l0.5,0.4
					l0.5-0.6L14.6,58.6z"/>
			</g>
			<g class="st7">
				<path class="st8" d="M18,59.3l1.8,1.3l-0.4,0.2l-0.7-0.5l-1.8,1.1L16.5,61l1.8-1.1l-0.7-0.5L18,59.3z"/>
				<path class="st8" d="M22.8,62.6l-2.2,1.3l-0.4-0.3l0.9-0.5l-1-0.7l-0.9,0.5l-0.4-0.3l2.2-1.3l0.4,0.3l-0.9,0.5l1,0.7l0.9-0.5
					L22.8,62.6z"/>
				<path class="st8" d="M25.5,64.5l-0.4,0.2l-1-0.7l-0.5,0.3l0.9,0.6l-0.4,0.2l-0.9-0.6l-0.5,0.3l1,0.7l-0.4,0.2l-1.5-1l2.2-1.3
					L25.5,64.5z"/>
				<path class="st8" d="M25.7,66.4l-0.8,0.5l-0.4-0.3l2.2-1.3l0.9,0.6c0.4,0.3,0.5,0.7,0,0.9c-0.4,0.2-0.8,0.2-1.1,0l-0.3,0.9
					l-0.5-0.3l0.3-0.9L25.7,66.4z M26.1,66.2l0.4,0.3c0.2,0.2,0.5,0.2,0.6,0.1c0.2-0.1,0.2-0.3,0-0.4l-0.4-0.3L26.1,66.2z"/>
				<path class="st8" d="M27.7,68.9l-0.4-0.3l2.2-1.3l0.4,0.3L27.7,68.9z"/>
				<path class="st8" d="M30.7,71l-0.4-0.2l0.5-1.6L29.4,70L29,69.7l2.2-1.3l0.4,0.3l-0.5,1.5l1.4-0.8l0.4,0.3L30.7,71z"/>
				<path class="st8" d="M35.7,71.5l-0.4,0.2l-1-0.7l-0.5,0.3l0.9,0.6l-0.4,0.2l-0.9-0.6l-0.5,0.3l1,0.7l-0.4,0.2l-1.5-1l2.2-1.3
					L35.7,71.5z"/>
				<path class="st8" d="M38.4,73.5l0.4,0.3l-1.8,1.1l1,0.7l-0.4,0.2l-1.4-1L38.4,73.5z"/>
			</g>
			<g class="st7">
				<path class="st8" d="M40.6,77.8l-0.4-0.2l0.5-1.6l-1.5,0.9l-0.4-0.3l2.2-1.3l0.4,0.3L41,77l1.4-0.8l0.4,0.3L40.6,77.8z"/>
			</g>
			<polyline class="st9" points="64.6,48.5 53.9,54.6 8.9,25 			"/>
			<line class="st9" x1="53.9" y1="52.5" x2="53.9" y2="78.7"/>
			<line class="st9" x1="59.3" y1="75" x2="58.7" y2="75.4"/>
			<polyline class="st9" points="59.3,75 59.7,75.3 64.6,72.5 64.6,46.5 			"/>
			<polyline class="st9" points="64.6,46.5 53.9,52.5 8.9,23 			"/>
			<g>
				<defs>
					<rect id="SVGID_7_" x="4" y="6.5" width="61.8" height="74.5"/>
				</defs>
				<clipPath id="SVGID_8_">
					<use xlink:href="#SVGID_7_"  style="overflow:visible;"/>
				</clipPath>
				<g class="st10">
					<path class="st9" d="M59.3,75v-0.6c0-0.1,0-0.2-0.1-0.3"/>
					<path class="st9" d="M59.7,75.3v-0.8c0-0.2-0.2-0.5-0.6-0.2c-0.3,0.2-0.5,0.5-0.5,0.8v0.9l-4.8,2.8l-6.3-4.4l-8-5.4l-6.7-4.6
						L23,57.5L8.9,47.3V23l1-0.6"/>
				</g>
			</g>
			<line class="st9" x1="55.6" y1="47.6" x2="55.6" y2="46.5"/>
			<line class="st9" x1="15.3" y1="24.9" x2="15.3" y2="26.7"/>
			<line class="st9" x1="55.6" y1="47.6" x2="56.2" y2="47.9"/>
			<line class="st9" x1="55.6" y1="46.5" x2="56.2" y2="46.9"/>
			<line class="st9" x1="15.6" y1="14.1" x2="15.6" y2="12.7"/>
			<line class="st9" x1="15.6" y1="14.2" x2="15.6" y2="12.7"/>
			<line class="st9" x1="15.4" y1="23.5" x2="15.4" y2="20.3"/>
			<polyline class="st9" points="16.4,26 15.3,26.7 9.9,23.1 9.9,21.3 11.8,20.2 			"/>
			<polyline class="st9" points="15.6,18.4 18.2,16.9 18.2,13.5 18.2,13.4 17.1,12.7 			"/>
			<g>
				<defs>
					<rect id="SVGID_9_" x="4" y="6.5" width="61.8" height="74.5"/>
				</defs>
				<clipPath id="SVGID_10_">
					<use xlink:href="#SVGID_9_"  style="overflow:visible;"/>
				</clipPath>
				<g class="st11">
					<path class="st9" d="M15.1,15.9c0.2,0.6,0,1.1-0.4,1.1s-0.9-0.5-1.1-1.1s0-1.1,0.4-1.1S14.9,15.3,15.1,15.9z"/>
					<path class="st9" d="M16.2,15.9c-0.2,0.6,0,1.1,0.4,1.1s0.9-0.5,1.1-1.1s0-1.1-0.4-1.1S16.4,15.3,16.2,15.9z"/>
				</g>
			</g>
			<line class="st9" x1="15.4" y1="20.3" x2="19.6" y2="17.9"/>
			<line class="st9" x1="11.8" y1="17.9" x2="15.4" y2="20.3"/>
			<line class="st9" x1="9.9" y1="21.3" x2="15.3" y2="24.9"/>
			<polyline class="st9" points="18.2,16.7 18.4,16.9 18.4,17.9 18.4,18 15.6,19.6 15.6,19.6 15.6,15.1 			"/>
			<polyline class="st9" points="12.9,17.3 11.8,17.9 11.8,21.1 11.8,21.1 15.4,23.5 			"/>
			<polyline class="st9" points="19.7,19.5 21.9,21 21.9,22.2 			"/>
			<line class="st9" x1="15.6" y1="15.1" x2="18.2" y2="13.5"/>
			<line class="st9" x1="13.1" y1="13.5" x2="14.2" y2="12.9"/>
			<line class="st9" x1="13.1" y1="13.4" x2="15.6" y2="15.1"/>
			<polyline class="st9" points="18.4,17.1 19.6,17.9 19.6,17.9 19.6,21 19.6,21 15.3,23.5 			"/>
			<line class="st9" x1="14.2" y1="11.8" x2="15.6" y2="12.7"/>
			<line class="st9" x1="16.4" y1="11.4" x2="17.1" y2="11.8"/>
			<g>
				<defs>
					<rect id="SVGID_11_" x="4" y="6.5" width="61.8" height="74.5"/>
				</defs>
				<clipPath id="SVGID_12_">
					<use xlink:href="#SVGID_11_"  style="overflow:visible;"/>
				</clipPath>
				<g class="st12">
					<path class="st9" d="M14.3,10.1c0,0.1-0.1,0.2-0.1,0.2l0.1,0.2c0.1,0.1,0.4,0.2,0.9,0.1s1.7-0.8,1.8-1.4L16.8,9
						c-0.1,0-0.2,0-0.4,0"/>
				</g>
			</g>
			<polyline class="st9" points="14.8,7.9 15.6,8.3 15.8,8.2 16.3,7.4 			"/>
			<g>
				<defs>
					<rect id="SVGID_13_" x="4" y="6.5" width="61.8" height="74.5"/>
				</defs>
				<clipPath id="SVGID_14_">
					<use xlink:href="#SVGID_13_"  style="overflow:visible;"/>
				</clipPath>
				<g class="st13">
					<path class="st9" d="M16.8,9.6c0,0.2,0,0.4,0,0.5c-0.1,0.7-0.8,1.1-1.5,1c0,0,0,0,0,0c-0.3,0-0.5-0.2-0.7-0.4h-0.1"/>
					<path class="st9" d="M14.4,10.4c0-0.1-0.1-0.2-0.1-0.3c-0.1-0.7,0.3-1.3,1-1.5c0.4-0.1,0.8,0.1,1.1,0.4
						c0.1,0.1,0.1,0.2,0.2,0.3"/>
					<path class="st9" d="M16.5,11.5c0,0,0-0.1,0-0.1c0,0,0-0.1-0.1-0.1h-0.2v-0.1l0.1-0.3"/>
					<path class="st9" d="M15.9,11.5c0,0.1,0,0.1,0.1,0.1s0.1,0.1,0.2,0"/>
				</g>
			</g>
			<polyline class="st9" points="15.2,12 15.2,11.9 15.4,11.6 15.4,11.5 15.1,11.4 14.8,11.3 14.9,11 			"/>
			<line class="st9" x1="13.1" y1="16.8" x2="15.6" y2="18.4"/>
			<polyline class="st9" points="15.6,19.7 12.9,17.9 12.8,17.9 12.8,16.9 12.8,16.9 13.1,16.8 13.1,16.8 13.1,13.4 			"/>
			<polyline class="st9" points="14.9,11.3 14.2,11.8 14.2,11.9 14.2,13.3 15.6,14.2 15.6,14.2 17.1,13.4 17.1,11.9 17.1,11.9 
				15.6,12.7 			"/>
			<line class="st9" x1="39.7" y1="38.2" x2="48.6" y2="43.9"/>
			<polyline class="st9" points="60.1,45.6 58.1,46.8 56.2,45.6 			"/>
			<line class="st9" x1="58.1" y1="49.7" x2="58.1" y2="46.8"/>
			<polyline class="st9" points="56.2,46.2 52.1,48.6 16.4,25.8 			"/>
			<line class="st6" x1="64.6" y1="46.5" x2="21.9" y2="21.8"/>
			<line class="st6" x1="49.9" y1="38.5" x2="24.6" y2="23.8"/>
			<line class="st9" x1="52.1" y1="49.6" x2="52.1" y2="48.6"/>
			<line class="st9" x1="48.6" y1="45.1" x2="48.6" y2="43.9"/>
			<polygon class="st9" points="53.9,40.8 53.9,42 48.6,45.2 39.7,39.5 39.7,38.2 43.6,35.9 48.9,39.1 50,38.4 			"/>
			<line class="st9" x1="53.9" y1="40.8" x2="48.6" y2="43.9"/>
			<line class="st9" x1="24.6" y1="23.8" x2="20.7" y2="26"/>
			<polygon class="st9" points="17.5,25.2 17.5,24 17.5,23.9 21.1,21.8 24.6,23.8 24.6,24.9 24.6,24.9 20.7,27.3 			"/>
			<polyline class="st9" points="55.6,47.6 52.1,49.6 16.4,26.9 16.4,26.9 16.4,25.8 17.5,25.2 			"/>
			<line class="st9" x1="20.7" y1="26" x2="17.5" y2="24"/>
			<line class="st9" x1="20.7" y1="27.2" x2="20.7" y2="26"/>
			<polyline class="st9" points="59.4,45.1 59.7,45 59.7,44.2 53.9,40.8 			"/>
			<line class="st9" x1="59.7" y1="44.1" x2="59.2" y2="44.4"/>
			<line class="st9" x1="21.9" y1="21" x2="15.3" y2="24.9"/>
			<polyline class="st9" points="57.3,44.9 56.2,45.6 56.2,48.4 58.1,49.7 60.1,48.5 60.1,45.6 59.3,45.1 			"/>
			<g>
				<defs>
					<rect id="SVGID_15_" x="4" y="6.5" width="61.8" height="74.5"/>
				</defs>
				<clipPath id="SVGID_16_">
					<use xlink:href="#SVGID_15_"  style="overflow:visible;"/>
				</clipPath>
				<g class="st14">
					<path class="st9" d="M58.1,43.8c-0.5,0.1-0.9,0.5-0.9,1.1v0.8c0,0.3,0.5,0.5,1,0.5s1-0.2,1-0.5v-0.8c0-0.5-0.4-1-0.9-1.1v-0.1
						c0,0-0.1-0.1-0.2-0.1S58,43.7,58,43.7L58.1,43.8z"/>
				</g>
			</g>
			<polygon class="st2" points="53.9,56.6 47.9,52.7 47.9,50.7 53.8,54.6 			"/>
			<polygon class="st2" points="60.7,52.7 53.9,56.6 53.8,54.6 60.7,50.7 			"/>
			<polygon class="st2" points="53.9,58.6 47.9,54.7 47.9,52.7 53.9,56.6 			"/>
			<polygon class="st2" points="60.7,54.8 53.9,58.6 53.9,56.5 60.7,52.7 			"/>
			<polygon class="st2" points="53.9,60.6 47.9,56.7 47.9,54.7 53.9,58.6 			"/>
			<polygon class="st2" points="60.7,56.8 53.9,60.6 53.9,58.6 60.7,54.8 			"/>
			<polygon class="st2" points="53.9,62.7 47.9,58.7 47.9,56.7 53.9,60.6 			"/>
			<polygon class="st2" points="60.7,58.8 53.9,62.7 53.9,60.6 60.7,56.8 			"/>
			<polygon class="st2" points="53.8,64.6 47.9,60.7 47.9,58.8 53.8,62.7 			"/>
			<polygon class="st2" points="60.7,60.8 53.9,64.6 53.9,62.7 60.7,58.8 			"/>
			<polygon class="st2" points="53.9,66.7 47.9,62.8 47.9,60.8 53.9,64.7 			"/>
			<polygon class="st2" points="60.7,62.8 53.9,66.6 53.9,64.7 60.7,60.8 			"/>
			<polyline class="st15" points="47.9,52.7 53.9,56.6 60.7,52.7 			"/>
			<polyline class="st15" points="47.9,54.7 53.9,58.6 60.7,54.8 			"/>
			<polyline class="st15" points="47.9,56.7 53.9,60.6 60.7,56.8 			"/>
			<polyline class="st15" points="47.9,58.7 53.9,62.7 60.7,58.8 			"/>
			<polyline class="st15" points="47.9,60.7 53.9,64.7 60.7,60.8 			"/>
		</g>
	</g>
</g>
</svg>
