<?xml version="1.0" encoding="utf-8"?>
<!-- Generator: Adobe Illustrator 16.0.4, SVG Export Plug-In . SVG Version: 6.00 Build 0)  -->
<!DOCTYPE svg PUBLIC "-//W3C//DTD SVG 1.1//EN" "http://www.w3.org/Graphics/SVG/1.1/DTD/svg11.dtd">
<svg version="1.1" id="Layer_1" xmlns="http://www.w3.org/2000/svg" xmlns:xlink="http://www.w3.org/1999/xlink" x="0px" y="0px"
	 width="180.5px" height="72px" viewBox="0 0 180.5 72" enable-background="new 0 0 180.5 72" xml:space="preserve">
<path fill="#D1D3D4" d="M80.668,33.228c-0.621,0-0.956-0.429-0.956-1.132v-1.4h3.373v1.291c0,0.703-0.313,1.137-0.918,1.137
	c-0.362,0-0.626-0.197-0.714-0.445C81.349,32.996,81.036,33.228,80.668,33.228z M80.306,31.371v0.664
	c0,0.33,0.164,0.506,0.423,0.506c0.264,0,0.423-0.176,0.423-0.506v-0.664H80.306z M81.7,31.941c0,0.336,0.132,0.512,0.401,0.512
	c0.269,0,0.39-0.176,0.39-0.512v-0.57H81.7V31.941z"/>
<path fill="#D1D3D4" d="M80.97,35.639h-1.258v-0.697h3.373v1.39c0,0.708-0.379,1.181-1.071,1.181c-0.538,0-0.879-0.297-0.994-0.769
	l-1.308,0.89v-0.791l1.258-0.835V35.639z M81.547,35.639v0.648c0,0.352,0.187,0.533,0.467,0.533c0.285,0,0.473-0.182,0.473-0.533
	v-0.648H81.547z"/>
<path fill="#D1D3D4" d="M79.657,40.676c0-0.939,0.736-1.594,1.741-1.594c1.011,0,1.741,0.654,1.741,1.594s-0.73,1.598-1.741,1.598
	C80.394,42.273,79.657,41.615,79.657,40.676z M82.514,40.676c0-0.533-0.456-0.879-1.115-0.879s-1.115,0.346-1.115,0.879
	c0,0.538,0.456,0.89,1.115,0.89S82.514,41.214,82.514,40.676z"/>
<path fill="#D1D3D4" d="M83.085,45.564l-3.373,1.291v-0.713l0.812-0.303v-1.264l-0.812-0.297v-0.703l3.373,1.291V45.564z
	 M81.118,44.796v0.824l1.121-0.412L81.118,44.796z"/>
<path fill="#D1D3D4" d="M83.085,48.477v1.191c0,1.021-0.659,1.665-1.687,1.665s-1.687-0.644-1.687-1.665v-1.191H83.085z
	 M80.333,49.641c0,0.643,0.412,0.994,1.065,0.994c0.659,0,1.071-0.352,1.071-0.994v-0.467h-2.137V49.641z"/>
<path fill="#D1D3D4" d="M83.085,55.117L80.816,55.7l2.269,0.555v0.692l-3.373-0.879v-0.643l2.225-0.594l-2.225-0.594v-0.643
	l3.373-0.879v0.709l-2.269,0.549l2.269,0.594V55.117z"/>
<path fill="#D1D3D4" d="M83.085,60.096l-3.373,1.291v-0.715l0.812-0.301v-1.264l-0.812-0.297v-0.703l3.373,1.291V60.096z
	 M81.118,59.326v0.824l1.121-0.412L81.118,59.326z"/>
<path fill="#D1D3D4" d="M83.085,64.754v0.742l-2.093-1.226h-1.28v-0.698h1.28l2.093-1.213v0.764l-1.429,0.818L83.085,64.754z"/>
<path fill="#D1D3D4" d="M178.06,24.491v0.703h-2.752v1.571h-0.621v-2.274H178.06z"/>
<path fill="#D1D3D4" d="M178.06,30.242l-3.373,1.291v-0.715l0.813-0.302v-1.264l-0.813-0.296v-0.703l3.373,1.29V30.242z
	 M176.093,29.473v0.824l1.12-0.412L176.093,29.473z"/>
<path fill="#D1D3D4" d="M174.687,33.148h3.373v2.246h-0.615v-1.549h-0.857v1.434h-0.609v-1.434h-1.291V33.148z"/>
<path fill="#D1D3D4" d="M178.06,38.646l-3.373,1.291v-0.714l0.813-0.303v-1.264l-0.813-0.296v-0.703l3.373,1.291V38.646z
	 M176.093,37.877v0.824l1.12-0.412L176.093,37.877z"/>
<path fill="#D1D3D4" d="M178.06,43.299v0.741l-2.093-1.226h-1.28v-0.697h1.28l2.093-1.214v0.764l-1.429,0.818L178.06,43.299z"/>
<path fill="#D1D3D4" d="M178.06,47.93h-0.615v-1.6h-0.736v1.451h-0.599V46.33h-0.802v1.6h-0.621v-2.291h3.373V47.93z"/>
<path fill="#D1D3D4" d="M178.06,49.505v2.879h-0.615v-1.088h-2.758v-0.708h2.758v-1.083H178.06z"/>
<path fill="#D1D3D4" d="M178.06,53.872v2.878h-0.615v-1.088h-2.758v-0.708h2.758v-1.082H178.06z"/>
<path fill="#D1D3D4" d="M178.06,60.717h-0.615v-1.6h-0.736v1.451h-0.599v-1.451h-0.802v1.6h-0.621v-2.291h3.373V60.717z"/>
<path fill="#D1D3D4" d="M175.647,65.344c-0.296,0.094-0.434,0.341-0.434,0.67c0,0.341,0.153,0.566,0.423,0.566
	c0.203,0,0.313-0.121,0.379-0.412l0.138-0.604c0.109-0.483,0.368-0.856,0.923-0.856c0.609,0,1.038,0.505,1.038,1.214
	c0,0.769-0.406,1.214-0.978,1.323v-0.697c0.225-0.077,0.4-0.27,0.4-0.621c0-0.318-0.153-0.532-0.396-0.532
	c-0.192,0-0.308,0.126-0.368,0.379l-0.143,0.615c-0.126,0.55-0.439,0.884-0.95,0.884c-0.653,0-1.049-0.538-1.049-1.252
	c0-0.752,0.373-1.285,1.016-1.4V65.344z"/>
<path fill="#D1D3D4" d="M178.06,68.732v2.879h-0.615v-1.088h-2.758v-0.709h2.758v-1.082H178.06z"/>
<path fill="#D1D3D4" d="M109.509,28.736h0.703v2.752h1.571v0.621h-2.274V28.736z"/>
<path fill="#D1D3D4" d="M115.688,28.736v0.615h-1.599v0.736h1.45v0.599h-1.45v0.802h1.599v0.621h-2.291v-3.373H115.688z"/>
<path fill="#D1D3D4" d="M118.764,32.164c-0.939,0-1.593-0.736-1.593-1.741c0-1.011,0.654-1.741,1.593-1.741s1.599,0.73,1.599,1.741
	C120.362,31.428,119.703,32.164,118.764,32.164z M118.764,29.308c-0.533,0-0.879,0.456-0.879,1.115s0.346,1.115,0.879,1.115
	c0.538,0,0.89-0.456,0.89-1.115S119.302,29.308,118.764,29.308z"/>
<path fill="#D1D3D4" d="M124.779,32.109h-0.555l-1.593-2.247v2.247h-0.675v-3.373h0.659l1.489,2.132v-2.132h0.675V32.109z"/>
<path fill="#D1D3D4" d="M128.278,28.736l1.291,3.373h-0.714l-0.302-0.812h-1.264l-0.296,0.812h-0.703l1.291-3.373H128.278z
	 M127.509,30.703h0.824l-0.412-1.121L127.509,30.703z"/>
<path fill="#D1D3D4" d="M131.772,30.852v1.258h-0.698v-3.373h1.39c0.708,0,1.181,0.379,1.181,1.071c0,0.538-0.297,0.879-0.769,0.994
	l0.89,1.308h-0.791l-0.835-1.258H131.772z M131.772,30.274h0.648c0.352,0,0.533-0.187,0.533-0.467c0-0.285-0.181-0.473-0.533-0.473
	h-0.648V30.274z"/>
<path fill="#D1D3D4" d="M135.271,28.736h1.192c1.021,0,1.665,0.659,1.665,1.687s-0.643,1.687-1.665,1.687h-1.192V28.736z
	 M136.436,31.488c0.643,0,0.994-0.412,0.994-1.065c0-0.659-0.352-1.071-0.994-1.071h-0.467v2.137H136.436z"/>
<path fill="#D1D3D4" d="M142.475,31.148c0.093,0.296,0.341,0.434,0.67,0.434c0.34,0,0.565-0.154,0.565-0.423
	c0-0.203-0.121-0.313-0.412-0.379l-0.604-0.138c-0.483-0.109-0.857-0.368-0.857-0.923c0-0.609,0.505-1.038,1.214-1.038
	c0.77,0,1.214,0.406,1.324,0.978h-0.698c-0.077-0.225-0.269-0.4-0.621-0.4c-0.319,0-0.533,0.153-0.533,0.396
	c0,0.191,0.126,0.308,0.379,0.367l0.615,0.144c0.549,0.126,0.884,0.439,0.884,0.95c0,0.653-0.538,1.049-1.252,1.049
	c-0.752,0-1.286-0.373-1.401-1.016H142.475z"/>
<path fill="#D1D3D4" d="M145.76,28.736h2.878v0.615h-1.087v2.758h-0.708v-2.758h-1.082V28.736z"/>
<path fill="#D1D3D4" d="M107.033,63.98c0.796,0,1.285,0.467,1.412,1.143h-0.698c-0.115-0.308-0.324-0.517-0.714-0.517
	c-0.539,0-0.857,0.473-0.857,1.115c0,0.638,0.318,1.115,0.857,1.115c0.39,0,0.599-0.209,0.714-0.521h0.698
	c-0.126,0.681-0.615,1.147-1.412,1.147c-0.901,0-1.571-0.708-1.571-1.741C105.461,64.689,106.132,63.98,107.033,63.98z"/>
<path fill="#D1D3D4" d="M111.768,64.035l1.291,3.373h-0.714l-0.302-0.812h-1.264l-0.296,0.812h-0.703l1.291-3.373H111.768z
	 M110.999,66.002h0.824l-0.412-1.121L110.999,66.002z"/>
<path fill="#D1D3D4" d="M114.151,64.035h2.879v0.615h-1.088v2.758h-0.708V64.65h-1.083V64.035z"/>
<path fill="#D1D3D4" d="M121.633,64.035v3.373h-0.703v-1.417h-1.527v1.417H118.7v-3.373h0.703v1.341h1.527v-1.341H121.633z"/>
<path fill="#D1D3D4" d="M125.781,64.035v0.615h-1.599v0.736h1.45v0.599h-1.45v0.802h1.599v0.621h-2.291v-3.373H125.781z"/>
<path fill="#D1D3D4" d="M128.235,66.15v1.258h-0.697v-3.373h1.39c0.708,0,1.181,0.379,1.181,1.071c0,0.538-0.297,0.879-0.769,0.994
	l0.89,1.308h-0.791l-0.835-1.258H128.235z M128.235,65.573h0.648c0.352,0,0.533-0.187,0.533-0.467c0-0.285-0.181-0.473-0.533-0.473
	h-0.648V65.573z"/>
<path fill="#D1D3D4" d="M132.548,67.408h-0.703v-3.373h0.703V67.408z"/>
<path fill="#D1D3D4" d="M137.22,67.408h-0.555l-1.593-2.247v2.247h-0.675v-3.373h0.659l1.489,2.132v-2.132h0.675V67.408z"/>
<path fill="#D1D3D4" d="M141.373,64.035v0.615h-1.599v0.736h1.45v0.599h-1.45v0.802h1.599v0.621h-2.291v-3.373H141.373z"/>
<path fill="#D1D3D4" d="M145.506,64.035h0.703v2.752h1.571v0.621h-2.274V64.035z"/>
<path fill="#D1D3D4" d="M152.328,67.408h-0.555l-1.593-2.247v2.247h-0.676v-3.373h0.659l1.488,2.132v-2.132h0.676V67.408z"/>
<polygon points="110.943,47.109 110.112,47.109 110.112,48.306 110.943,48.306 110.943,53.132 116.747,53.561 116.747,47.284 
	116.616,47.284 116.616,45.082 116.747,45.082 116.747,41.247 110.943,41.247 "/>
<g>
	<defs>
		<rect id="SVGID_1_" x="89.783" y="40.124" width="78.41" height="17.694"/>
	</defs>
	<clipPath id="SVGID_2_">
		<use xlink:href="#SVGID_1_"  overflow="visible"/>
	</clipPath>
	<polygon clip-path="url(#SVGID_2_)" fill="none" stroke="#D1D3D4" stroke-width="0.764" stroke-miterlimit="10" points="
		166.313,41.298 166.313,56.645 90.728,51.941 90.763,41.298 	"/>
</g>
<polygon points="38.546,30.974 38.546,44.674 43.396,47.482 43.396,33.744 "/>
<path fill="#D1D3D4" d="M8.137,48.291l0.526,0.33l-2.038,1.326l1.177,0.735l-0.459,0.299L5.64,49.916L8.137,48.291z"/>
<path fill="#D1D3D4" d="M12.924,51.284l-0.456,0.296l-1.197-0.748l-0.545,0.354l1.086,0.68l-0.443,0.288l-1.086-0.68l-0.594,0.387
	l1.197,0.749l-0.459,0.299l-1.716-1.073l2.497-1.625L12.924,51.284z"/>
<path fill="#D1D3D4" d="M12.848,54.476c-0.704-0.44-0.648-1.101,0.096-1.585c0.749-0.487,1.778-0.533,2.482-0.094
	c0.703,0.44,0.657,1.101-0.092,1.588C14.59,54.869,13.551,54.915,12.848,54.476z M14.963,53.1c-0.399-0.25-0.996-0.192-1.484,0.125
	s-0.567,0.699-0.167,0.949c0.403,0.252,1.004,0.196,1.492-0.121S15.366,53.352,14.963,53.1z"/>
<path fill="#D1D3D4" d="M17.551,57.364l-0.416-0.26l0.471-1.829l-1.663,1.083l-0.506-0.316l2.497-1.625l0.493,0.309l-0.463,1.724
	l1.578-1.026l0.506,0.316L17.551,57.364z"/>
<path fill="#D1D3D4" d="M22.826,57.477l-1.53,2.229l-0.535-0.335l0.376-0.533l-0.946-0.592L19.366,58.5l-0.526-0.33l3.464-1.021
	L22.826,57.477z M20.794,58.063l0.617,0.386l0.521-0.732L20.794,58.063z"/>
<path fill="#D1D3D4" d="M24.038,60.232l-0.931,0.605l-0.522-0.326l2.497-1.625l1.041,0.65c0.531,0.332,0.604,0.736,0.092,1.07
	c-0.398,0.259-0.874,0.283-1.312,0.118l-0.301,1.047l-0.593-0.37l0.306-0.998L24.038,60.232z M24.465,59.955l0.485,0.303
	c0.264,0.164,0.538,0.159,0.745,0.024c0.211-0.138,0.214-0.312-0.05-0.478l-0.485-0.303L24.465,59.955z"/>
<path fill="#D1D3D4" d="M28.383,60.951l0.893,0.559c0.766,0.479,0.759,1.097-0.001,1.592c-0.76,0.494-1.73,0.512-2.496,0.033
	l-0.893-0.559L28.383,60.951z M27.217,62.822c0.481,0.301,1.05,0.268,1.534-0.048c0.488-0.317,0.529-0.681,0.048-0.981l-0.35-0.219
	l-1.582,1.029L27.217,62.822z"/>
<path fill="#D1D3D4" d="M32.315,65.688c-0.149,0.187-0.066,0.368,0.182,0.523c0.255,0.159,0.536,0.19,0.735,0.061
	c0.151-0.098,0.143-0.207-0.026-0.376l-0.352-0.349c-0.281-0.279-0.369-0.578,0.042-0.846c0.452-0.294,1.146-0.264,1.678,0.068
	c0.576,0.36,0.608,0.765,0.268,1.091l-0.523-0.326c0.109-0.145,0.096-0.32-0.168-0.484c-0.238-0.148-0.513-0.176-0.692-0.059
	c-0.143,0.092-0.133,0.207,0.011,0.354l0.355,0.356c0.318,0.318,0.337,0.627-0.042,0.873c-0.484,0.314-1.18,0.253-1.714-0.081
	c-0.563-0.353-0.686-0.782-0.297-1.146L32.315,65.688z"/>
<path fill="#D1D3D4" d="M36.715,66.161l2.156,1.349l-0.456,0.296l-0.814-0.509l-2.042,1.328l-0.531-0.332l2.042-1.328l-0.811-0.508
	L36.715,66.161z"/>
<line fill="none" stroke="#000000" stroke-width="0.119" stroke-miterlimit="10" x1="58.37" y1="37.975" x2="58.37" y2="34.35"/>
<line fill="none" stroke="#000000" stroke-width="0.119" stroke-miterlimit="10" x1="9.942" y1="8.934" x2="9.942" y2="5.934"/>
<line fill="none" stroke="#000000" stroke-width="0.119" stroke-miterlimit="10" x1="20.011" y1="12.828" x2="20.011" y2="14.5"/>
<line fill="none" stroke="#000000" stroke-width="0.119" stroke-miterlimit="10" x1="15.565" y1="10.299" x2="15.565" y2="11.97"/>
<line fill="none" stroke="#000000" stroke-width="0.119" stroke-miterlimit="10" x1="21.209" y1="12.17" x2="21.209" y2="13.842"/>
<line fill="none" stroke="#000000" stroke-width="0.112" stroke-miterlimit="10" x1="21.217" y1="13.816" x2="19.997" y2="14.53"/>
<line fill="none" stroke="#000000" stroke-width="0.112" stroke-miterlimit="10" x1="21.156" y1="12.232" x2="20.026" y2="12.894"/>
<line fill="none" stroke="#000000" stroke-width="0.112" stroke-miterlimit="10" x1="51.77" y1="26.609" x2="46.892" y2="29.464"/>
<line fill="none" stroke="#000000" stroke-width="0.112" stroke-miterlimit="10" x1="55.506" y1="29.586" x2="51.327" y2="32.031"/>
<line fill="none" stroke="#000000" stroke-width="0.119" stroke-miterlimit="10" x1="27.071" y1="15.549" x2="27.071" y2="17.22"/>
<line fill="none" stroke="#000000" stroke-width="0.112" stroke-miterlimit="10" x1="31.154" y1="14.188" x2="50.883" y2="27.145"/>
<line fill="none" stroke="#000000" stroke-width="0.112" stroke-miterlimit="10" x1="51.746" y1="26.604" x2="55.506" y2="29.074"/>
<line fill="none" stroke="#000000" stroke-width="0.112" stroke-miterlimit="10" x1="31.153" y1="13.673" x2="51.264" y2="26.881"/>
<line fill="none" stroke="#000000" stroke-width="0.112" stroke-miterlimit="10" x1="7.569" y1="7.953" x2="9.616" y2="9.139"/>
<line fill="none" stroke="#000000" stroke-width="0.112" stroke-miterlimit="10" x1="15.565" y1="10.299" x2="20.011" y2="12.877"/>
<line fill="none" stroke="#000000" stroke-width="0.112" stroke-miterlimit="10" x1="21.223" y1="12.232" x2="27.13" y2="15.654"/>
<line fill="none" stroke="#000000" stroke-width="0.112" stroke-miterlimit="10" x1="21.19" y1="13.817" x2="27.071" y2="17.225"/>
<line fill="none" stroke="#000000" stroke-width="0.112" stroke-miterlimit="10" x1="46.914" y1="29.471" x2="51.334" y2="32.032"/>
<line fill="none" stroke="#000000" stroke-width="0.119" stroke-miterlimit="10" x1="58.346" y1="27.512" x2="58.346" y2="25.73"/>
<polyline fill="none" stroke="#000000" stroke-width="0.119" stroke-miterlimit="10" points="50.923,35.409 50.218,34.985 
	49.331,35.505 11.152,13.387 11.152,11.514 "/>
<polyline fill="none" stroke="#000000" stroke-width="0.119" stroke-miterlimit="10" points="20.725,7.338 16.938,4.852 
	8.334,9.888 49.331,33.629 "/>
<line fill="none" stroke="#000000" stroke-width="0.119" stroke-miterlimit="10" x1="49.331" y1="33.629" x2="49.331" y2="35.502"/>
<line fill="none" stroke="#000000" stroke-width="0.119" stroke-miterlimit="10" x1="50.222" y1="33.096" x2="49.33" y2="33.618"/>
<polyline fill="none" stroke="#000000" stroke-width="0.119" stroke-miterlimit="10" points="50.222,34.985 50.222,33.097 
	46.914,31.18 "/>
<line fill="none" stroke="#000000" stroke-width="0.119" stroke-miterlimit="10" x1="58.409" y1="41.413" x2="58.409" y2="39.354"/>
<polyline fill="none" stroke="#000000" stroke-width="0.119" stroke-miterlimit="10" points="62.91,33.611 65.411,35.254 
	65.411,37.322 58.408,41.421 50.924,37.085 50.924,35.022 53.933,33.261 "/>
<polyline fill="none" stroke="#000000" stroke-width="0.119" stroke-miterlimit="10" points="65.411,35.254 58.406,39.354 
	50.923,35.022 "/>
<polyline fill="none" stroke="#000000" stroke-width="0.112" stroke-miterlimit="10" points="9.084,10.31 9.084,11.32 
	11.152,12.529 "/>
<line fill="none" stroke="#000000" stroke-width="0.112" stroke-miterlimit="10" x1="15.565" y1="11.968" x2="20.011" y2="14.543"/>
<line fill="none" stroke="#000000" stroke-width="0.109" stroke-miterlimit="10" x1="46.895" y1="31.172" x2="46.895" y2="29.471"/>
<line fill="none" stroke="#000000" stroke-width="0.109" stroke-miterlimit="10" x1="51.334" y1="34.75" x2="51.334" y2="32.037"/>
<polyline fill="none" stroke="#000000" stroke-width="0.112" stroke-miterlimit="10" points="61.279,26.639 58.374,28.34 
	55.506,26.676 "/>
<polyline fill="none" stroke="#000000" stroke-width="0.119" stroke-miterlimit="10" points="61.279,30.336 61.553,30.495 
	61.553,31.764 58.38,33.619 55.183,31.768 55.183,30.595 55.506,30.404 "/>
<line fill="none" stroke="#000000" stroke-width="0.119" stroke-miterlimit="10" x1="58.376" y1="33.615" x2="58.376" y2="28.34"/>
<polyline fill="none" stroke="#000000" stroke-width="0.119" stroke-miterlimit="10" points="61.554,30.893 62.91,31.678 
	62.91,35.327 58.369,37.981 53.932,35.41 53.932,31.752 55.183,31.021 "/>
<polyline fill="none" stroke="#000000" stroke-width="0.119" stroke-miterlimit="10" points="62.91,31.679 58.37,34.35 
	53.967,31.799 "/>
<polyline fill="none" stroke="#000000" stroke-width="0.119" stroke-miterlimit="10" points="7.569,7.932 3.226,10.475 
	3.226,40.953 "/>
<polyline fill="none" stroke="#000000" stroke-width="0.119" stroke-miterlimit="10" points="12.375,5.119 15.417,3.338 
	21.141,7.098 "/>
<line fill="none" stroke="#000000" stroke-width="0.119" stroke-miterlimit="10" x1="58.37" y1="42.42" x2="58.34" y2="69.936"/>
<line fill="none" stroke="#000000" stroke-width="0.117" stroke-miterlimit="10" x1="58.355" y1="69.917" x2="28.911" y2="52.859"/>
<polyline fill="none" stroke="#000000" stroke-width="0.117" stroke-miterlimit="10" points="66.695,42.153 58.371,47.006 
	3.287,15.094 "/>
<polyline fill="none" stroke="#000000" stroke-width="0.117" stroke-miterlimit="10" points="66.695,44.445 58.371,49.299 
	3.287,17.388 "/>
<polyline fill="none" stroke="#000000" stroke-width="0.117" stroke-miterlimit="10" points="66.695,46.739 58.371,51.592 
	3.287,19.68 "/>
<polyline fill="none" stroke="#000000" stroke-width="0.117" stroke-miterlimit="10" points="66.695,49.032 58.371,53.885 
	3.287,21.974 "/>
<polyline fill="none" stroke="#000000" stroke-width="0.117" stroke-miterlimit="10" points="66.695,51.326 58.371,56.178 
	3.287,24.267 "/>
<polyline fill="none" stroke="#000000" stroke-width="0.117" stroke-miterlimit="10" points="66.695,53.618 58.371,58.471 
	3.287,26.561 "/>
<polyline fill="none" stroke="#000000" stroke-width="0.117" stroke-miterlimit="10" points="66.695,55.912 58.371,60.765 
	3.287,28.853 "/>
<polyline fill="none" stroke="#000000" stroke-width="0.117" stroke-miterlimit="10" points="66.695,58.205 58.371,63.057 
	3.287,31.146 "/>
<line fill="none" stroke="#000000" stroke-width="0.117" stroke-miterlimit="10" x1="66.695" y1="60.498" x2="64.736" y2="61.641"/>
<polyline fill="none" stroke="#000000" stroke-width="0.117" stroke-miterlimit="10" points="60.315,64.217 58.371,65.35 
	3.288,33.439 "/>
<line fill="none" stroke="#000000" stroke-width="0.117" stroke-miterlimit="10" x1="64.736" y1="63.932" x2="66.695" y2="62.791"/>
<polyline fill="none" stroke="#000000" stroke-width="0.117" stroke-miterlimit="10" points="60.315,66.51 58.371,67.644 
	3.288,35.731 "/>
<polyline fill="none" stroke="#000000" stroke-width="0.117" stroke-miterlimit="10" points="66.695,39.86 58.371,44.713 
	3.287,12.801 "/>
<line fill="none" stroke="#000000" stroke-width="0.117" stroke-miterlimit="10" x1="26.585" y1="51.512" x2="3.277" y2="38.008"/>
<polyline fill="none" stroke="#000000" stroke-width="0.112" stroke-miterlimit="10" points="8.826,3.824 7.568,4.559 7.568,7.953 
	"/>
<polyline fill="none" stroke="#000000" stroke-width="0.112" stroke-miterlimit="10" points="11.205,3.834 12.374,4.512 
	12.374,7.494 "/>
<polyline fill="none" stroke="#000000" stroke-width="0.112" stroke-miterlimit="10" points="7.569,4.559 9.943,5.934 12.374,4.511 
	"/>
<polyline fill="none" stroke="#000000" stroke-width="0.119" stroke-miterlimit="10" points="59.355,24.367 59.977,24.775 
	59.977,26.56 58.346,27.513 56.7,26.559 56.7,24.777 57.548,24.279 "/>
<polyline fill="none" stroke="#000000" stroke-width="0.112" stroke-miterlimit="10" points="59.979,24.777 58.346,25.732 
	56.699,24.777 "/>
<g>
	<defs>
		<rect id="SVGID_3_" x="1.854" y="-3.978" width="65.775" height="75.618"/>
	</defs>
	<clipPath id="SVGID_4_">
		<use xlink:href="#SVGID_3_"  overflow="visible"/>
	</clipPath>
	<path clip-path="url(#SVGID_4_)" fill="none" stroke="#000000" stroke-width="0.119" stroke-miterlimit="10" d="M56.83,22.857
		c-0.035,0.07-0.156,0.203-0.168,0.257l0.1,0.264c0.1,0.134,0.466,0.257,1.077,0.083c0.611-0.173,1.891-0.852,2.009-1.539
		l-0.206-0.386c0,0-0.189-0.06-0.398-0.007"/>
</g>
<polyline fill="none" stroke="#000000" stroke-width="0.119" stroke-miterlimit="10" points="57.404,20.345 58.273,20.766 
	58.54,20.653 59.141,19.811 "/>
<g>
	<defs>
		<rect id="SVGID_5_" x="1.854" y="-3.978" width="65.775" height="75.618"/>
	</defs>
	<clipPath id="SVGID_6_">
		<use xlink:href="#SVGID_5_"  overflow="visible"/>
	</clipPath>
	<path clip-path="url(#SVGID_6_)" fill="none" stroke="#000000" stroke-width="0.119" stroke-miterlimit="10" d="M59.696,22.27
		c0.044,0.195,0.049,0.403,0.006,0.612c-0.16,0.784-0.927,1.291-1.711,1.13c-0.304-0.061-0.566-0.215-0.764-0.424l-0.06-0.046"/>
	<path clip-path="url(#SVGID_6_)" fill="none" stroke="#000000" stroke-width="0.119" stroke-miterlimit="10" d="M56.942,23.167
		c-0.048-0.112-0.082-0.229-0.101-0.356c-0.121-0.791,0.424-1.53,1.216-1.651c0.487-0.073,0.929,0.076,1.27,0.435
		c0.171,0.193,0.233,0.345,0.233,0.345"/>
	<path clip-path="url(#SVGID_6_)" fill="none" stroke="#000000" stroke-width="0.119" stroke-miterlimit="10" d="M57.732,29.416
		c0.243,0.695,0.052,1.26-0.425,1.262c-0.477,0.001-1.06-0.562-1.303-1.258c-0.243-0.695-0.052-1.26,0.425-1.262
		C56.906,28.158,57.489,28.72,57.732,29.416z"/>
	<path clip-path="url(#SVGID_6_)" fill="none" stroke="#000000" stroke-width="0.119" stroke-miterlimit="10" d="M58.974,29.438
		c-0.243,0.696-0.052,1.261,0.425,1.263c0.477,0,1.06-0.562,1.303-1.258c0.242-0.695,0.052-1.26-0.425-1.262
		C59.8,28.18,59.217,28.742,58.974,29.438z"/>
	
		<path clip-path="url(#SVGID_6_)" fill="none" stroke="#000000" stroke-width="0.112" stroke-linejoin="bevel" stroke-miterlimit="10" d="
		M59.352,24.447c0,0,0.004-0.126-0.008-0.156c-0.012-0.03-0.03-0.058-0.079-0.069c-0.049-0.013-0.255,0.047-0.255,0.047
		s-0.002-0.034-0.002-0.081v-0.036l0.077-0.331"/>
	<path clip-path="url(#SVGID_6_)" fill="none" stroke="#000000" stroke-width="0.112" stroke-miterlimit="10" d="M58.665,24.433
		c-0.016,0.062,0.046,0.125,0.058,0.167c0.019,0.061,0.158,0.104,0.28,0.016"/>
</g>
<polyline fill="none" stroke="#000000" stroke-width="0.112" stroke-miterlimit="10" points="57.89,24.992 57.89,24.859 
	58.077,24.544 58.044,24.434 57.698,24.376 57.389,24.186 57.515,23.822 "/>
<polyline fill="none" stroke="#000000" stroke-width="0.119" stroke-miterlimit="10" points="56.701,25.977 55.505,26.675 
	55.505,30.568 58.379,32.232 61.279,30.538 61.279,26.639 59.981,25.887 "/>
<g>
	<defs>
		<rect id="SVGID_7_" x="1.854" y="-3.978" width="65.775" height="75.618"/>
	</defs>
	<clipPath id="SVGID_8_">
		<use xlink:href="#SVGID_7_"  overflow="visible"/>
	</clipPath>
	<path clip-path="url(#SVGID_8_)" fill="none" stroke="#000000" stroke-width="0.112" stroke-miterlimit="10" d="M9.817,2.513
		C9.254,2.611,8.825,3.122,8.825,3.736v0.865c0,0.336,0.533,0.61,1.19,0.61c0.657,0,1.19-0.274,1.19-0.61V3.736
		c0-0.614-0.43-1.125-0.992-1.224V2.382c0-0.062-0.076-0.132-0.199-0.132c-0.121,0-0.197,0.07-0.197,0.132V2.513z"/>
</g>
<polyline fill="none" stroke="#000000" stroke-width="0.119" stroke-miterlimit="10" points="66.695,37.566 58.371,42.42 
	3.287,10.509 "/>
<polyline fill="none" stroke="#000000" stroke-width="0.119" stroke-miterlimit="10" points="28.911,53.28 27.303,52.351 
	25.853,53.196 27.861,54.357 28.911,53.746 "/>
<line fill="none" stroke="#000000" stroke-width="0.119" stroke-miterlimit="10" x1="28.911" y1="53.28" x2="27.303" y2="52.351"/>
<line fill="none" stroke="#000000" stroke-width="0.119" stroke-miterlimit="10" x1="28.911" y1="54.621" x2="28.156" y2="54.185"/>
<g>
	<defs>
		<rect id="SVGID_9_" x="1.854" y="-3.978" width="65.775" height="75.618"/>
	</defs>
	<clipPath id="SVGID_10_">
		<use xlink:href="#SVGID_9_"  overflow="visible"/>
	</clipPath>
	<path clip-path="url(#SVGID_10_)" fill="none" stroke="#000000" stroke-width="0.119" stroke-miterlimit="10" d="M27.629,50.523
		c-0.219,0.188-0.323,0.503-0.323,0.664v1.187"/>
</g>
<polyline fill="none" stroke="#000000" stroke-width="0.119" stroke-miterlimit="10" points="26.991,53.854 26.581,54.094 
	3.226,40.937 "/>
<line fill="none" stroke="#000000" stroke-width="0.119" stroke-miterlimit="10" x1="26.584" y1="54.093" x2="26.584" y2="53.619"/>
<g>
	<defs>
		<rect id="SVGID_11_" x="1.854" y="-3.978" width="65.775" height="75.618"/>
	</defs>
	<clipPath id="SVGID_12_">
		<use xlink:href="#SVGID_11_"  overflow="visible"/>
	</clipPath>
	<path clip-path="url(#SVGID_12_)" fill="none" stroke="#000000" stroke-width="0.119" stroke-miterlimit="10" d="M64.736,66.199
		v-4.438l-4.421,2.455v4.567l-1.977,1.153l-14.818-7.014l-11.886-5.983l-2.724-1.533v-3.119c0-0.202-0.189-1.151-1.163-1.715
		c-0.821-0.477-1.164,0.373-1.164,0.674v1.525"/>
</g>
<polyline fill="none" stroke="#000000" stroke-width="0.119" stroke-miterlimit="10" points="61.608,66.516 61.608,65.363 
	60.89,65.78 60.89,66.934 "/>
<g>
	<defs>
		<rect id="SVGID_13_" x="1.854" y="-3.978" width="65.775" height="75.618"/>
	</defs>
	<clipPath id="SVGID_14_">
		<use xlink:href="#SVGID_13_"  overflow="visible"/>
	</clipPath>
	<path clip-path="url(#SVGID_14_)" fill="none" stroke="#000000" stroke-width="0.119" stroke-miterlimit="10" d="M65.411,36.748
		l1.273,0.836v27.488l-1.948,1.127c-0.067-0.024-1.669-0.492-2.957,0.221l-1.017,0.59c-0.198,0.102-0.34,0.212-0.447,0.33"/>
</g>
<polyline fill="none" stroke="#000000" stroke-width="0.112" stroke-miterlimit="10" points="27.071,17.221 31.154,14.788 
	31.154,13.215 21.531,6.871 15.567,10.319 "/>
<line fill="none" stroke="#000000" stroke-width="0.112" stroke-miterlimit="10" x1="31.153" y1="13.207" x2="27.081" y2="15.607"/>
<g>
	<defs>
		<rect id="SVGID_15_" x="1.854" y="-3.978" width="65.775" height="75.618"/>
	</defs>
	<clipPath id="SVGID_16_">
		<use xlink:href="#SVGID_15_"  overflow="visible"/>
	</clipPath>
	<path clip-path="url(#SVGID_16_)" fill="none" stroke="#000000" stroke-width="0.112" stroke-miterlimit="10" d="M164.468,2.131
		c0.243,0.695,0.052,1.261-0.425,1.262s-1.06-0.562-1.303-1.257c-0.242-0.696-0.051-1.26,0.425-1.263
		C163.642,0.873,164.225,1.435,164.468,2.131z"/>
	<path clip-path="url(#SVGID_16_)" fill="none" stroke="#000000" stroke-width="0.112" stroke-miterlimit="10" d="M165.71,2.154
		c-0.243,0.695-0.051,1.26,0.425,1.262c0.477,0.001,1.06-0.562,1.303-1.257c0.242-0.696,0.052-1.261-0.425-1.262
		S165.953,1.458,165.71,2.154z"/>
	<path clip-path="url(#SVGID_16_)" fill="#D1D3D4" d="M159.347,43.631c0.577,0.403,0.575,0.857,0.15,1.221l-0.506-0.352
		c0.152-0.195,0.16-0.394-0.123-0.591c-0.391-0.272-0.982-0.223-1.472,0.062c-0.487,0.283-0.621,0.656-0.23,0.929
		c0.282,0.197,0.593,0.209,0.915,0.129l0.506,0.352c-0.611,0.239-1.322,0.2-1.899-0.203c-0.653-0.455-0.598-1.107,0.191-1.566
		C157.667,43.152,158.693,43.176,159.347,43.631z"/>
	<path clip-path="url(#SVGID_16_)" fill="#D1D3D4" d="M162.812,46.102l-1.64,2.15l-0.518-0.361l0.402-0.514l-0.916-0.639
		l-0.836,0.213l-0.509-0.355l3.51-0.847L162.812,46.102z M160.754,46.587l0.597,0.416l0.557-0.706L160.754,46.587z"/>
	<path clip-path="url(#SVGID_16_)" fill="#D1D3D4" d="M164.609,47.354l2.086,1.454l-0.47,0.273l-0.788-0.55l-2.105,1.226
		l-0.514-0.359l2.105-1.225l-0.784-0.547L164.609,47.354z"/>
	<path clip-path="url(#SVGID_16_)" fill="#D1D3D4" d="M170.103,51.185l-2.575,1.498l-0.509-0.355l1.082-0.63l-1.106-0.771
		l-1.082,0.631l-0.51-0.355l2.575-1.499l0.51,0.355l-1.023,0.596l1.106,0.771l1.023-0.595L170.103,51.185z"/>
	<path clip-path="url(#SVGID_16_)" fill="#D1D3D4" d="M173.181,53.33l-0.47,0.273l-1.158-0.808l-0.562,0.327l1.051,0.732
		l-0.458,0.266l-1.051-0.732l-0.612,0.356l1.158,0.808l-0.474,0.275l-1.66-1.156l2.575-1.499L173.181,53.33z"/>
	<path clip-path="url(#SVGID_16_)" fill="#D1D3D4" d="M173.414,55.558l-0.96,0.56l-0.505-0.353l2.575-1.498l1.007,0.701
		c0.514,0.358,0.567,0.766,0.039,1.073c-0.411,0.239-0.887,0.24-1.317,0.053l-0.354,1.031l-0.573-0.4l0.356-0.98L173.414,55.558z
		 M173.854,55.302l0.47,0.327c0.255,0.178,0.53,0.187,0.744,0.062c0.218-0.127,0.229-0.303-0.026-0.479l-0.47-0.327L173.854,55.302z
		"/>
	<path clip-path="url(#SVGID_16_)" fill="#D1D3D4" d="M175.647,58.344l-0.51-0.355l2.575-1.498l0.51,0.355L175.647,58.344z"/>
	<path clip-path="url(#SVGID_16_)" fill="#D1D3D4" d="M179.109,60.757l-0.402-0.28l0.562-1.803l-1.716,0.998l-0.489-0.342
		l2.575-1.498l0.477,0.333l-0.548,1.698l1.627-0.946l0.49,0.342L179.109,60.757z"/>
	<path clip-path="url(#SVGID_16_)" fill="none" stroke="#000000" stroke-width="0.112" stroke-miterlimit="10" d="M210.354,65.152
		v-0.965c0-0.23-0.201-0.537-0.667-0.271c-0.326,0.198-0.571,0.555-0.571,0.898v1.064l-4.775,2.814l-7.191-4.978l-9.095-6.217
		l-7.625-5.233l-15.464-11.111l-7.57-5.454V10.243"/>
</g>
</svg>
