<?xml version="1.0" encoding="utf-8"?>
<!-- Generator: Adobe Illustrator 23.0.0, SVG Export Plug-In . SVG Version: 6.00 Build 0)  -->
<svg version="1.1" id="Layer_1" xmlns="http://www.w3.org/2000/svg" xmlns:xlink="http://www.w3.org/1999/xlink" x="0px" y="0px"
	 viewBox="0 0 189.9 92.6" style="enable-background:new 0 0 189.9 92.6;" xml:space="preserve">
<style type="text/css">
	.st0{fill:#D2D3D4;}
	.st1{fill:#231F20;}
	.st2{clip-path:url(#SVGID_2_);}
	.st3{fill:none;stroke:#D1D3D4;stroke-width:1.09;stroke-miterlimit:10;}
	.st4{clip-path:url(#SVGID_4_);}
	.st5{enable-background:new    ;}
	.st6{fill:#D1D3D4;}
	.st7{fill:none;stroke:#231F20;stroke-width:0.15;stroke-miterlimit:10;}
	.st8{fill:none;stroke:#231F20;stroke-width:0.14;stroke-miterlimit:10;}
	.st9{clip-path:url(#SVGID_6_);}
	.st10{clip-path:url(#SVGID_8_);}
	.st11{fill:none;stroke:#231F20;stroke-width:0.14;stroke-linejoin:bevel;}
	.st12{clip-path:url(#SVGID_10_);}
	.st13{clip-path:url(#SVGID_12_);}
	.st14{clip-path:url(#SVGID_14_);}
	.st15{clip-path:url(#SVGID_16_);}
	.st16{clip-path:url(#SVGID_18_);}
	.st17{fill:none;stroke:#FFFFFF;stroke-width:0.15;stroke-miterlimit:10;}
</style>
<title>residence_F_3-12_key_horizontal</title>
<g>
	<g>
		<path class="st0" d="M83.6,43.8c-0.6,0-1-0.4-1-1.1v-1.4H86v1.3c0,0.7-0.3,1.1-0.9,1.1c-0.3,0-0.6-0.2-0.7-0.4
			C84.2,43.6,83.9,43.8,83.6,43.8z M83.2,41.9v0.7c0,0.3,0.2,0.5,0.4,0.5s0.4-0.2,0.4-0.5v-0.7H83.2z M84.6,42.5
			c0,0.3,0.1,0.5,0.4,0.5s0.4-0.2,0.4-0.5v-0.6h-0.8V42.5z"/>
		<path class="st0" d="M83.8,46.2h-1.3v-0.7H86v1.4c0.1,0.5-0.3,1.1-0.8,1.2c-0.1,0-0.2,0-0.3,0c-0.5,0-0.9-0.3-1-0.8l-1.3,0.9v-0.8
			l1.3-0.8L83.8,46.2z M84.4,46.2v0.6c0,0.4,0.2,0.5,0.5,0.5s0.5-0.2,0.5-0.5v-0.6H84.4z"/>
		<path class="st0" d="M82.5,51.2c-0.1-1,0.6-1.8,1.6-1.9c1-0.1,1.8,0.6,1.9,1.6s-0.6,1.8-1.6,1.9c-0.1,0-0.1,0-0.2,0
			c-0.9,0.1-1.7-0.6-1.7-1.5C82.5,51.3,82.5,51.3,82.5,51.2z M85.4,51.2c0-0.5-0.4-0.9-1.1-0.9s-1.1,0.3-1.1,0.9s0.5,0.9,1.1,0.9
			S85.4,51.8,85.4,51.2z"/>
		<path class="st0" d="M86,56.1l-3.4,1.3v-0.7l0.8-0.3v-1.3l-0.8-0.3v-0.7l3.4,1.3V56.1z M84,55.4v0.8l1.1-0.4L84,55.4z"/>
		<path class="st0" d="M86,59v1.2c0,0.9-0.8,1.7-1.7,1.7c-0.9,0-1.7-0.8-1.7-1.7V59H86z M83.2,60.2c0,0.6,0.5,1.1,1.1,1.1
			c0.6,0,1.1-0.5,1.1-1.1v-0.5h-2.2L83.2,60.2z"/>
		<path class="st0" d="M86,65.7l-2.3,0.6l2.3,0.6v0.7l-3.4-0.9V66l2.2-0.6l-2.2-0.6v-0.6l3.4-0.9V64l-2.3,0.6l2.3,0.6V65.7z"/>
		<path class="st0" d="M86,70.7L82.6,72v-0.7l0.8-0.3v-1.3l-0.8-0.3v-0.7L86,70V70.7z M84,69.9v0.8l1.1-0.4L84,69.9z"/>
		<path class="st0" d="M86,75.3v0.7l-2.1-1.2h-1.3v-0.7h1.3l2.1-1.2v0.8l-1.4,0.8L86,75.3z"/>
		<path class="st0" d="M180.9,35.1v0.7h-2.8v1.6h-0.6v-2.3H180.9z"/>
		<path class="st0" d="M180.9,40.8l-3.4,1.3v-0.7l0.8-0.3v-1.3l-0.8-0.3v-0.7l3.4,1.3V40.8z M179,40v0.8l1.1-0.4L179,40z"/>
		<path class="st0" d="M177.6,43.7h3.4V46h-0.6v-1.6h-0.9v1.4h-0.6v-1.4h-1.3V43.7z"/>
		<path class="st0" d="M180.9,49.2l-3.4,1.3v-0.7l0.8-0.3v-1.3l-0.8-0.3v-0.7l3.4,1.3V49.2z M178.9,48.4v0.8l1.1-0.4L178.9,48.4z"/>
		<path class="st0" d="M180.9,53.9v0.7l-2.1-1.2h-1.3v-0.7h1.3l2.1-1.2v0.8l-1.4,0.8L180.9,53.9z"/>
		<path class="st0" d="M180.9,58.5h-0.6v-1.6h-0.7v1.5H179v-1.5h-0.8v1.6h-0.6v-2.3h3.4L180.9,58.5z"/>
		<path class="st0" d="M180.9,60.1V63h-0.6v-1.1h-2.8v-0.7h2.8v-1.1H180.9z"/>
		<path class="st0" d="M180.9,64.4v2.9h-0.6v-1.1h-2.8v-0.7h2.8v-1.1H180.9z"/>
		<path class="st0" d="M180.9,71.3h-0.6v-1.6h-0.7v1.5H179v-1.5h-0.8v1.6h-0.6V69h3.4L180.9,71.3z"/>
		<path class="st0" d="M178.5,75.9c-0.3,0.1-0.5,0.4-0.4,0.7c0,0.3,0.2,0.6,0.4,0.6s0.3-0.1,0.4-0.4l0.1-0.6c0-0.5,0.4-0.9,0.9-0.8
			c0.6,0,1,0.6,1,1.1c0,0,0,0,0,0.1c0.1,0.6-0.4,1.2-1,1.3v-0.7c0.3-0.1,0.4-0.4,0.4-0.6c0-0.3-0.2-0.5-0.4-0.5s-0.3,0.1-0.4,0.4
			l-0.1,0.6c-0.1,0.6-0.4,0.9-0.9,0.9c-0.6,0-1.1-0.5-1.1-1.2c0,0,0-0.1,0-0.1c-0.1-0.7,0.4-1.3,1-1.4L178.5,75.9L178.5,75.9z"/>
		<path class="st0" d="M180.9,79.3v2.9h-0.6v-1.1h-2.8v-0.7h2.8v-1.1H180.9z"/>
		<path class="st0" d="M112.4,39.3h0.7v2.8h1.6v0.6h-2.3V39.3z"/>
		<path class="st0" d="M118.6,39.3v0.6H117v0.7h1.4v0.6H117v0.8h1.6v0.6h-2.3v-3.4H118.6z"/>
		<path class="st0" d="M121.6,42.7c-1,0.1-1.8-0.6-1.9-1.6c-0.1-1,0.6-1.8,1.6-1.9c1-0.1,1.8,0.6,1.9,1.6c0,0.1,0,0.1,0,0.2
			c0.1,0.9-0.6,1.7-1.5,1.7C121.7,42.7,121.7,42.7,121.6,42.7z M121.6,39.9c-0.5,0-0.9,0.5-0.9,1.1s0.3,1.1,0.9,1.1s0.9-0.5,0.9-1.1
			S122.2,39.9,121.6,39.9z"/>
		<path class="st0" d="M127.7,42.7h-0.6l-1.6-2.2v2.2h-0.7v-3.4h0.7l1.5,2.1v-2.1h0.7L127.7,42.7z"/>
		<path class="st0" d="M131.2,39.3l1.3,3.4h-0.7l-0.3-0.8h-1.3l-0.3,0.8h-0.7l1.3-3.4H131.2z M130.4,41.3h0.8l-0.4-1.1L130.4,41.3z"
			/>
		<path class="st0" d="M134.6,41.4v1.3H134v-3.4h1.4c0.6-0.1,1.1,0.3,1.2,0.9c0,0.1,0,0.1,0,0.2c0,0.5-0.3,0.9-0.8,1l0.9,1.3h-0.8
			l-0.9-1.3H134.6z M134.6,40.8h0.6c0.4,0,0.5-0.2,0.5-0.5s-0.2-0.5-0.5-0.5h-0.6V40.8z"/>
		<path class="st0" d="M138.1,39.3h1.2c0.9,0,1.7,0.8,1.7,1.7c0,0.9-0.8,1.7-1.7,1.7h-1.2V39.3z M139.3,42.1c0.6,0,1.1-0.5,1.1-1.1
			c0-0.6-0.5-1.1-1.1-1.1h-0.5v2.1H139.3z"/>
		<path class="st0" d="M145.4,41.7c0.1,0.3,0.4,0.5,0.7,0.4c0.3,0,0.6-0.2,0.6-0.4s-0.1-0.3-0.4-0.4l-0.6-0.1
			c-0.5-0.1-0.9-0.4-0.9-0.9c0-0.6,0.6-1,1.2-1c0,0,0,0,0,0c0.6-0.1,1.2,0.4,1.3,1h-0.7c-0.1-0.3-0.3-0.4-0.6-0.4
			c-0.3,0-0.5,0.2-0.5,0.4s0.1,0.3,0.4,0.4l0.6,0.1c0.6,0.1,0.9,0.4,0.9,1c0,0.7-0.5,1-1.2,1c-0.7,0.1-1.3-0.4-1.4-1L145.4,41.7z"/>
		<path class="st0" d="M148.6,39.3h2.9v0.6h-1.1v2.8h-0.7v-2.8h-1.1V39.3z"/>
		<path class="st0" d="M109.9,74.6c0.7,0,1.3,0.4,1.4,1.1h-0.7c-0.1-0.3-0.4-0.5-0.7-0.5c-0.5,0-0.8,0.5-0.8,1.1s0.3,1.1,0.8,1.1
			c0.3,0,0.6-0.2,0.7-0.5h0.7c-0.1,0.7-0.7,1.2-1.4,1.1c-1-0.1-1.7-1-1.6-1.9C108.4,75.3,109.1,74.6,109.9,74.6L109.9,74.6z"/>
		<path class="st0" d="M114.7,74.6l1.3,3.4h-0.7l-0.3-0.8h-1.3l-0.3,0.8h-0.7l1.3-3.4H114.7z M113.9,76.6h0.8l-0.4-1.1L113.9,76.6z"
			/>
		<path class="st0" d="M117,74.6h2.9v0.6h-1.1V78h-0.7v-2.8H117V74.6z"/>
		<path class="st0" d="M124.5,74.6V78h-0.7v-1.4h-1.5V78h-0.7v-3.4h0.7v1.3h1.5v-1.3H124.5z"/>
		<path class="st0" d="M128.7,74.6v0.6h-1.6V76h1.5v0.6h-1.4v0.8h1.6V78h-2.3v-3.4H128.7z"/>
		<path class="st0" d="M131.1,76.7V78h-0.7v-3.4h1.4c0.5-0.1,1.1,0.2,1.2,0.8c0,0.1,0,0.2,0,0.3c0,0.5-0.3,0.9-0.8,1l0.9,1.3h-0.8
			l-0.8-1.3L131.1,76.7z M131.1,76.1h0.6c0.4,0,0.5-0.2,0.5-0.5s-0.2-0.5-0.5-0.5h-0.6V76.1z"/>
		<path class="st0" d="M135.4,78h-0.7v-3.4h0.7V78z"/>
		<path class="st0" d="M140.1,78h-0.6l-1.6-2.3V78h-0.7v-3.4h0.7l1.5,2.1v-2.1h0.7L140.1,78z"/>
		<path class="st0" d="M144.2,74.6v0.6h-1.6V76h1.4v0.6h-1.4v0.8h1.6V78H142v-3.4H144.2z"/>
		<path class="st0" d="M148.4,74.6h0.7v2.8h1.6V78h-2.3V74.6z"/>
		<path class="st0" d="M155.2,78h-0.6l-1.6-2.2V78h-0.7v-3.4h0.6l1.5,2.1v-2.1h0.7L155.2,78L155.2,78z"/>
	</g>
	<g id="Layer_4">
		<polygon class="st1" points="118.8,52.7 129.9,52.7 129.9,55.8 126.5,55.8 126.5,57.3 126.8,57.3 126.8,58.1 125.4,58.1 
			125.4,58.2 123.8,58.2 123.8,58.1 122.5,58.1 122.5,58.2 118.7,58.2 118.7,56.4 118.8,56.4 		"/>
		<g>
			<defs>
				<rect id="SVGID_1_" x="92.5" y="51.5" width="76.7" height="17.3"/>
			</defs>
			<clipPath id="SVGID_2_">
				<use xlink:href="#SVGID_1_"  style="overflow:visible;"/>
			</clipPath>
			<g class="st2">
				<polygon class="st3" points="167.3,52.7 167.3,67.7 93.4,63.1 93.4,52.7 				"/>
			</g>
		</g>
		<g>
			<defs>
				<rect id="SVGID_3_" x="7" y="5.4" width="66.2" height="72.8"/>
			</defs>
			<clipPath id="SVGID_4_">
				<use xlink:href="#SVGID_3_"  style="overflow:visible;"/>
			</clipPath>
			<g class="st4">
				<g class="st5">
					<path class="st6" d="M13,56.3l0.5,0.3l-1.9,1.3l1.1,0.7l-0.4,0.3l-1.6-1L13,56.3z"/>
					<path class="st6" d="M17.5,59.1l-0.4,0.3L16,58.7L15.5,59l1,0.6l-0.4,0.3l-1-0.6l-0.6,0.4l1.1,0.7l-0.4,0.3l-1.6-1l2.4-1.5
						L17.5,59.1z"/>
					<path class="st6" d="M17.5,62.1c-0.7-0.4-0.6-1,0.1-1.5c0.7-0.5,1.7-0.5,2.3-0.1s0.6,1-0.1,1.5C19.1,62.5,18.1,62.5,17.5,62.1z
						 M19.5,60.8c-0.4-0.2-0.9-0.2-1.4,0.1c-0.5,0.3-0.5,0.7-0.2,0.9c0.4,0.2,0.9,0.2,1.4-0.1C19.8,61.4,19.8,61,19.5,60.8z"/>
					<path class="st6" d="M21.9,64.8l-0.4-0.2l0.4-1.7l-1.6,1l-0.5-0.3l2.4-1.5l0.5,0.3L22.3,64l1.5-1l0.5,0.3L21.9,64.8z"/>
					<path class="st6" d="M26.9,64.9L25.4,67l-0.5-0.3l0.4-0.5l-0.9-0.6l-0.8,0.2l-0.5-0.3l3.3-1L26.9,64.9z M25,65.5l0.6,0.4
						l0.5-0.7L25,65.5z"/>
					<path class="st6" d="M28,67.5l-0.9,0.6l-0.5-0.3l2.4-1.5l1,0.6c0.5,0.3,0.6,0.7,0.1,1c-0.4,0.2-0.8,0.3-1.2,0.1l-0.3,1L28,68.6
						l0.3-0.9L28,67.5z M28.4,67.2l0.5,0.3c0.2,0.2,0.5,0.1,0.7,0c0.2-0.1,0.2-0.3,0-0.4l-0.5-0.3L28.4,67.2z"/>
					<path class="st6" d="M32.1,68.2l0.8,0.5c0.7,0.4,0.7,1,0,1.5s-1.6,0.5-2.3,0l-0.8-0.5L32.1,68.2z M31,69.9c0.5,0.3,1,0.2,1.4,0
						c0.5-0.3,0.5-0.6,0-0.9l-0.3-0.2l-1.5,1L31,69.9z"/>
				</g>
				<g class="st5">
					<path class="st6" d="M35.8,72.6c-0.1,0.2-0.1,0.3,0.2,0.5c0.2,0.2,0.5,0.2,0.7,0.1c0.1-0.1,0.1-0.2,0-0.4l-0.3-0.3
						c-0.3-0.3-0.3-0.5,0-0.8c0.4-0.3,1.1-0.3,1.6,0.1c0.5,0.3,0.6,0.7,0.3,1l-0.5-0.3c0.1-0.1,0.1-0.3-0.2-0.5
						c-0.2-0.1-0.5-0.2-0.7-0.1c-0.1,0.1-0.1,0.2,0,0.3l0.3,0.3c0.3,0.3,0.3,0.6,0,0.8c-0.5,0.3-1.1,0.2-1.6-0.1
						c-0.5-0.3-0.6-0.7-0.3-1.1L35.8,72.6z"/>
				</g>
				<g class="st5">
					<path class="st6" d="M40,73.1l2,1.3l-0.4,0.3l-0.8-0.5l-1.9,1.3l-0.5-0.3l1.9-1.3l-0.8-0.5L40,73.1z"/>
				</g>
				<line class="st7" x1="60.2" y1="46.6" x2="60.2" y2="43.2"/>
				<line class="st7" x1="14.7" y1="19.3" x2="14.7" y2="16.5"/>
				<line class="st7" x1="24.1" y1="23" x2="24.1" y2="24.5"/>
				<line class="st7" x1="20" y1="20.6" x2="20" y2="22.1"/>
				<line class="st7" x1="25.3" y1="22.3" x2="25.3" y2="23.9"/>
				<line class="st8" x1="25.3" y1="23.9" x2="24.1" y2="24.5"/>
				<line class="st8" x1="25.2" y1="22.4" x2="24.2" y2="23"/>
				<line class="st8" x1="54" y1="35.9" x2="49.4" y2="38.6"/>
				<line class="st8" x1="57.5" y1="38.7" x2="53.6" y2="41"/>
				<line class="st7" x1="30.8" y1="25.5" x2="30.8" y2="27.1"/>
				<line class="st8" x1="34.6" y1="24.2" x2="53.2" y2="36.4"/>
				<line class="st8" x1="54" y1="35.9" x2="57.5" y2="38.2"/>
				<line class="st8" x1="34.6" y1="23.7" x2="53.5" y2="36.2"/>
				<line class="st8" x1="12.4" y1="18.4" x2="14.4" y2="19.5"/>
				<line class="st8" x1="20" y1="20.6" x2="24.1" y2="23"/>
				<line class="st8" x1="25.3" y1="22.4" x2="30.8" y2="25.6"/>
				<line class="st8" x1="25.2" y1="23.9" x2="30.8" y2="27.1"/>
				<line class="st8" x1="49.4" y1="38.6" x2="53.6" y2="41"/>
				<line class="st7" x1="60.2" y1="36.7" x2="60.2" y2="35.1"/>
				<polyline class="st7" points="53.2,44.2 52.5,43.8 51.7,44.3 15.8,23.5 15.8,21.7 				"/>
				<polyline class="st7" points="24.8,17.8 21.3,15.4 13.2,20.2 51.7,42.5 				"/>
				<line class="st7" x1="51.7" y1="42.5" x2="51.7" y2="44.2"/>
				<line class="st7" x1="52.5" y1="42" x2="51.7" y2="42.5"/>
				<polyline class="st7" points="52.5,43.8 52.5,42 49.4,40.2 				"/>
				<line class="st7" x1="60.2" y1="49.8" x2="60.2" y2="47.9"/>
				<polyline class="st7" points="64.5,42.5 66.8,44 66.8,46 60.2,49.8 53.2,45.7 53.2,43.8 56,42.2 				"/>
				<polyline class="st7" points="66.8,44 60.2,47.9 53.2,43.8 				"/>
				<polyline class="st8" points="13.9,20.6 13.9,21.5 15.8,22.7 				"/>
				<line class="st8" x1="20" y1="22.1" x2="24.1" y2="24.6"/>
				<line class="st8" x1="49.4" y1="40.2" x2="49.4" y2="38.6"/>
				<line class="st8" x1="53.6" y1="43.5" x2="53.6" y2="41"/>
				<polyline class="st8" points="62.9,35.9 60.2,37.5 57.5,36 				"/>
				<polyline class="st7" points="62.9,39.4 63.2,39.5 63.2,40.7 60.2,42.5 57.2,40.7 57.2,39.6 57.5,39.5 				"/>
				<line class="st7" x1="60.2" y1="42.5" x2="60.2" y2="37.5"/>
				<polyline class="st7" points="63.2,39.9 64.5,40.7 64.5,44.1 60.2,46.6 56,44.2 56,40.7 57.2,40 				"/>
				<polyline class="st7" points="64.5,40.7 60.2,43.2 56,40.8 				"/>
				<polyline class="st7" points="12.4,18.3 8.4,20.7 8.4,49.4 				"/>
				<polyline class="st7" points="17,15.7 19.8,14 25.2,17.6 				"/>
				<line class="st7" x1="60.2" y1="50.8" x2="60.2" y2="76.6"/>
				<line class="st7" x1="60.2" y1="76.6" x2="32.5" y2="60.6"/>
				<polyline class="st7" points="68,50.5 60.2,55.1 8.4,25.1 				"/>
				<polyline class="st7" points="68,52.7 60.2,57.2 8.4,27.2 				"/>
				<polyline class="st7" points="68,54.8 60.2,59.4 8.4,29.4 				"/>
				<polyline class="st7" points="68,57 60.2,61.5 8.4,31.5 				"/>
				<polyline class="st7" points="68,59.1 60.2,63.7 8.4,33.7 				"/>
				<polyline class="st7" points="68,61.3 60.2,65.8 8.4,35.8 				"/>
				<polyline class="st7" points="68,63.4 60.2,68 8.4,38 				"/>
				<polyline class="st7" points="68,65.6 60.2,70.2 8.4,40.2 				"/>
				<line class="st7" x1="68" y1="67.7" x2="66.2" y2="68.8"/>
				<polyline class="st7" points="62,71.2 60.2,72.3 8.4,42.3 				"/>
				<line class="st7" x1="66.2" y1="71" x2="68" y2="69.9"/>
				<polyline class="st7" points="62,73.4 60.2,74.5 8.4,44.5 				"/>
				<polyline class="st7" points="68,48.3 60.2,52.9 8.4,22.9 				"/>
				<line class="st7" x1="30.3" y1="59.3" x2="8.4" y2="46.6"/>
				<polyline class="st8" points="13.6,14.5 12.4,15.2 12.4,18.4 				"/>
				<polyline class="st8" points="15.9,14.5 17,15.1 17,17.9 				"/>
				<polyline class="st8" points="12.4,15.2 14.7,16.5 17,15.1 				"/>
				<polyline class="st7" points="61.1,33.8 61.7,34.2 61.7,35.8 60.2,36.7 58.6,35.8 58.6,34.2 59.4,33.7 				"/>
				<polyline class="st8" points="61.7,34.2 60.2,35.1 58.6,34.2 				"/>
				<g>
					<defs>
						<rect id="SVGID_5_" x="7.1" y="5.4" width="66.1" height="72.8"/>
					</defs>
					<clipPath id="SVGID_6_">
						<use xlink:href="#SVGID_5_"  style="overflow:visible;"/>
					</clipPath>
					<g class="st9">
						<path class="st7" d="M58.8,32.4c-0.1,0.1-0.1,0.2-0.2,0.2l0.1,0.2c0.1,0.1,0.4,0.2,1,0.1s1.8-0.8,1.9-1.5l-0.2-0.4
							c-0.1,0-0.3,0-0.4,0"/>
					</g>
				</g>
				<polyline class="st7" points="59.3,30 60.1,30.4 60.3,30.3 60.9,29.5 				"/>
				<g>
					<defs>
						<rect id="SVGID_7_" x="7.1" y="5.4" width="66.1" height="72.8"/>
					</defs>
					<clipPath id="SVGID_8_">
						<use xlink:href="#SVGID_7_"  style="overflow:visible;"/>
					</clipPath>
					<g class="st10">
						<path class="st7" d="M61.4,31.8c0.2,0.7-0.3,1.5-1.1,1.6c-0.2,0-0.4,0-0.5,0c-0.3-0.1-0.5-0.2-0.7-0.4L59.1,33"/>
						<path class="st7" d="M58.8,32.7c0-0.1-0.1-0.2-0.1-0.3c-0.1-0.7,0.4-1.4,1.1-1.6c0,0,0,0,0,0c0.4-0.1,0.9,0.1,1.2,0.4
							c0.1,0.1,0.2,0.2,0.2,0.3"/>
						<path class="st7" d="M59.6,38.5c0.2,0.7,0,1.2-0.4,1.2s-1-0.5-1.2-1.2s0-1.2,0.4-1.2S59.4,37.9,59.6,38.5z"/>
						<path class="st7" d="M60.8,38.5c-0.2,0.7,0,1.2,0.4,1.2s1-0.5,1.2-1.2s0-1.2-0.4-1.2S61,37.9,60.8,38.5z"/>
						<path class="st11" d="M61.1,33.9c0,0,0-0.1,0-0.1c0,0,0-0.1-0.1-0.1c-0.1,0-0.2,0-0.2,0v-0.1l0.1-0.3"/>
						<path class="st8" d="M60.5,33.8c0,0.1,0,0.1,0,0.2c0.1,0.1,0.2,0.1,0.3,0c0,0,0,0,0,0"/>
					</g>
				</g>
				<polyline class="st8" points="59.7,34.4 59.7,34.2 59.9,34 59.9,33.8 59.6,33.8 59.3,33.6 59.4,33.3 				"/>
				<polyline class="st7" points="58.6,35.3 57.5,36 57.5,39.6 60.2,41.2 62.9,39.6 62.9,35.9 61.7,35.2 				"/>
				<g>
					<defs>
						<rect id="SVGID_9_" x="7.1" y="5.4" width="66.1" height="72.8"/>
					</defs>
					<clipPath id="SVGID_10_">
						<use xlink:href="#SVGID_9_"  style="overflow:visible;"/>
					</clipPath>
					<g class="st12">
						<path class="st8" d="M14.6,13.2c-0.5,0.1-0.9,0.6-0.9,1.1v0.8c0,0.3,0.5,0.6,1.1,0.6s1.1-0.3,1.1-0.6v-0.8
							c0-0.6-0.4-1-0.9-1.1v-0.1c0-0.1-0.1-0.1-0.2-0.1s-0.2,0.1-0.2,0.1V13.2z"/>
					</g>
				</g>
				<polyline class="st7" points="68,46.2 60.2,50.8 8.4,20.8 				"/>
				<polyline class="st7" points="32.5,61 31,60.1 29.6,60.9 31.5,62 32.5,61.4 				"/>
				<line class="st7" x1="32.5" y1="61" x2="31" y2="60.1"/>
				<line class="st7" x1="32.5" y1="62.2" x2="31.8" y2="61.8"/>
				<g>
					<defs>
						<rect id="SVGID_11_" x="7.1" y="5.4" width="66.1" height="72.8"/>
					</defs>
					<clipPath id="SVGID_12_">
						<use xlink:href="#SVGID_11_"  style="overflow:visible;"/>
					</clipPath>
					<g class="st13">
						<path class="st7" d="M31.3,58.4C31.1,58.5,31,58.8,31,59v1.1"/>
					</g>
				</g>
				<polyline class="st7" points="30.7,61.5 30.3,61.7 8.4,49.4 				"/>
				<line class="st7" x1="30.3" y1="61.7" x2="30.3" y2="61.3"/>
				<g>
					<defs>
						<rect id="SVGID_13_" x="7.1" y="5.4" width="66.1" height="72.8"/>
					</defs>
					<clipPath id="SVGID_14_">
						<use xlink:href="#SVGID_13_"  style="overflow:visible;"/>
					</clipPath>
					<g class="st14">
						<path class="st7" d="M66.2,73.1v-4.2L62,71.2v4.3l-1.9,1.1L46.2,70l-11.2-5.6L32.5,63v-3c-0.1-0.7-0.5-1.3-1.1-1.6
							c-0.3-0.2-0.8-0.1-1,0.2c-0.1,0.1-0.1,0.3-0.1,0.4v1.4"/>
					</g>
				</g>
				<polyline class="st7" points="63.2,73.4 63.2,72.3 62.6,72.7 62.6,73.8 				"/>
				<g>
					<defs>
						<rect id="SVGID_15_" x="7.1" y="5.4" width="66.1" height="72.8"/>
					</defs>
					<clipPath id="SVGID_16_">
						<use xlink:href="#SVGID_15_"  style="overflow:visible;"/>
					</clipPath>
					<g class="st15">
						<path class="st7" d="M66.8,45.4l1.2,0.8V72l-1.8,1.1c-0.9-0.3-1.9-0.2-2.8,0.2l-1,0.6c-0.2,0.1-0.3,0.2-0.4,0.3"/>
					</g>
				</g>
				<polyline class="st8" points="30.8,27.1 34.6,24.8 34.6,23.3 25.6,17.4 20,20.6 				"/>
				<line class="st8" x1="34.6" y1="23.3" x2="30.8" y2="25.6"/>
				<g>
					<defs>
						<rect id="SVGID_17_" x="7.1" y="5.4" width="66.1" height="72.8"/>
					</defs>
					<clipPath id="SVGID_18_">
						<use xlink:href="#SVGID_17_"  style="overflow:visible;"/>
					</clipPath>
					<g class="st16">
						<g class="st5">
							<path class="st6" d="M154,51.1c0.5,0.4,0.5,0.8,0.1,1.1l-0.5-0.3c0.1-0.2,0.1-0.4-0.1-0.6c-0.4-0.3-0.9-0.2-1.4,0.1
								c-0.5,0.3-0.6,0.6-0.2,0.9c0.3,0.2,0.6,0.2,0.9,0.1l0.5,0.3c-0.6,0.2-1.2,0.2-1.8-0.2c-0.6-0.4-0.6-1,0.2-1.5
								C152.4,50.6,153.4,50.7,154,51.1z"/>
						</g>
						<g class="st5">
							<path class="st6" d="M157.2,53.4l-1.5,2l-0.5-0.3l0.4-0.5l-0.9-0.6l-0.8,0.2l-0.5-0.3l3.3-0.8L157.2,53.4z M155.3,53.9
								l0.6,0.4l0.5-0.7L155.3,53.9z"/>
						</g>
						<g class="st5">
							<path class="st6" d="M158.9,54.6l2,1.4l-0.4,0.3l-0.7-0.5l-2,1.1l-0.5-0.3l2-1.1l-0.7-0.5L158.9,54.6z"/>
							<path class="st6" d="M164.1,58.2l-2.4,1.4l-0.5-0.3l1-0.6l-1-0.7l-1,0.6l-0.5-0.3l2.4-1.4l0.5,0.3l-1,0.6l1,0.7l1-0.6
								L164.1,58.2z"/>
							<path class="st6" d="M167,60.2l-0.4,0.3l-1.1-0.8l-0.5,0.3l1,0.7l-0.4,0.2l-1-0.7l-0.6,0.3l1.1,0.8l-0.4,0.3l-1.6-1.1
								l2.4-1.4L167,60.2z"/>
							<path class="st6" d="M167.2,62.3l-0.9,0.5l-0.5-0.3l2.4-1.4l0.9,0.7c0.5,0.3,0.5,0.7,0,1c-0.4,0.2-0.8,0.2-1.2,0l-0.3,1
								l-0.5-0.4l0.3-0.9L167.2,62.3z M167.6,62l0.4,0.3c0.2,0.2,0.5,0.2,0.7,0.1c0.2-0.1,0.2-0.3,0-0.4l-0.4-0.3L167.6,62z"/>
							<path class="st6" d="M169.3,64.9l-0.5-0.3l2.4-1.4l0.5,0.3L169.3,64.9z"/>
							<path class="st6" d="M172.6,67.1l-0.4-0.3l0.5-1.7l-1.6,0.9l-0.5-0.3l2.4-1.4l0.4,0.3l-0.5,1.6l1.5-0.9l0.5,0.3L172.6,67.1z"
								/>
							<path class="st6" d="M177.9,67.7l-0.4,0.3l-1.1-0.8l-0.5,0.3l1,0.7l-0.4,0.2l-1-0.7l-0.6,0.3l1.1,0.8l-0.4,0.3l-1.6-1.1
								l2.4-1.4L177.9,67.7z"/>
							<path class="st6" d="M180.8,69.8l0.5,0.3l-2,1.1l1.1,0.7l-0.4,0.3l-1.5-1.1L180.8,69.8z"/>
						</g>
						<g class="st5">
							<path class="st6" d="M183.1,74.5l-0.4-0.3l0.5-1.7l-1.6,0.9l-0.5-0.3l2.4-1.4L184,72l-0.5,1.6l1.5-0.9l0.5,0.3L183.1,74.5z"
								/>
						</g>
						<path class="st8" d="M203.7,71.8v-0.9c0-0.2-0.2-0.5-0.6-0.3c-0.3,0.2-0.5,0.5-0.5,0.8v1l-5.1,3l-6.8-4.7l-8.6-5.8l-7.2-4.9
							l-10.6-7.3l-15.1-10.9V15.7l1-0.6"/>
						<path class="st8" d="M155.8,8.1c0.2,0.7,0,1.2-0.4,1.2s-1-0.5-1.2-1.2s-0.1-1.2,0.4-1.2S155.6,7.4,155.8,8.1z"/>
						<path class="st8" d="M157,8.1c-0.2,0.6-0.1,1.2,0.4,1.2s1-0.5,1.2-1.2s0-1.2-0.4-1.2S157.2,7.4,157,8.1z"/>
						<path class="st8" d="M155,1.9c-0.1,0.1-0.1,0.2-0.2,0.2l0.1,0.2c0.1,0.1,0.4,0.2,1,0.1s1.8-0.8,1.9-1.5l-0.2-0.4
							c-0.1,0-0.3,0-0.4,0"/>
						<path class="st8" d="M157.6,1.4c0,0.2,0,0.4,0,0.6c-0.2,0.7-0.9,1.2-1.6,1.1c-0.3-0.1-0.5-0.2-0.7-0.4l-0.1,0"/>
						<path class="st8" d="M155.1,2.2c0-0.1-0.1-0.2-0.1-0.3c-0.1-0.7,0.4-1.4,1.1-1.6c0.4-0.1,0.9,0.1,1.2,0.4
							c0.1,0.1,0.2,0.2,0.2,0.3"/>
						<path class="st8" d="M157.3,3.4c0,0,0-0.1,0-0.2c0,0,0-0.1-0.1-0.1c-0.1,0-0.2,0-0.2,0c0,0,0-0.1,0-0.1l0,0l0.1-0.3"/>
						<path class="st8" d="M156.7,3.4c0,0.1,0,0.1,0,0.2s0.1,0.1,0.3,0"/>
					</g>
				</g>
				<polygon class="st1" points="41.6,42.2 41.6,63.7 33.5,59.1 33.5,37.5 				"/>
				<line class="st17" x1="33.5" y1="39.7" x2="41.6" y2="44.3"/>
				<line class="st17" x1="33.5" y1="41.8" x2="41.6" y2="46.5"/>
				<line class="st17" x1="33.5" y1="44" x2="41.6" y2="48.6"/>
				<line class="st17" x1="33.5" y1="46.2" x2="41.6" y2="50.8"/>
				<line class="st17" x1="33.5" y1="48.3" x2="41.6" y2="52.9"/>
				<line class="st17" x1="33.5" y1="50.5" x2="41.6" y2="55.1"/>
				<line class="st17" x1="33.5" y1="52.6" x2="41.6" y2="57.2"/>
				<line class="st17" x1="33.5" y1="54.8" x2="41.6" y2="59.4"/>
				<line class="st17" x1="33.5" y1="56.9" x2="41.6" y2="61.5"/>
			</g>
		</g>
	</g>
</g>
</svg>
