<?xml version="1.0" encoding="utf-8"?>
<!-- Generator: Adobe Illustrator 23.0.0, SVG Export Plug-In . SVG Version: 6.00 Build 0)  -->
<svg version="1.1" id="Layer_1" xmlns="http://www.w3.org/2000/svg" xmlns:xlink="http://www.w3.org/1999/xlink" x="0px" y="0px"
	 viewBox="0 0 123.3 164.8" style="enable-background:new 0 0 123.3 164.8;" xml:space="preserve">
<style type="text/css">
	.st0{fill:#D2D3D4;}
	.st1{fill:#231F20;}
	.st2{clip-path:url(#SVGID_2_);}
	.st3{fill:none;stroke:#D1D3D4;stroke-width:1.09;stroke-miterlimit:10;}
	.st4{clip-path:url(#SVGID_4_);}
	.st5{enable-background:new    ;}
	.st6{fill:#D1D3D4;}
	.st7{fill:none;stroke:#231F20;stroke-width:0.15;stroke-miterlimit:10;}
	.st8{fill:none;stroke:#231F20;stroke-width:0.14;stroke-miterlimit:10;}
	.st9{clip-path:url(#SVGID_6_);}
	.st10{clip-path:url(#SVGID_8_);}
	.st11{fill:none;stroke:#231F20;stroke-width:0.14;stroke-linejoin:bevel;}
	.st12{clip-path:url(#SVGID_10_);}
	.st13{clip-path:url(#SVGID_12_);}
	.st14{clip-path:url(#SVGID_14_);}
	.st15{clip-path:url(#SVGID_16_);}
	.st16{fill:none;stroke:#FFFFFF;stroke-width:0.15;stroke-miterlimit:10;}
</style>
<title>residence_A_4-12_key</title>
<g>
	<g>
		<path class="st0" d="M14.3,117.1c-0.6,0-1-0.4-1-1.1v-1.4h3.4v1.3c0,0.7-0.3,1.1-0.9,1.1c-0.3,0-0.6-0.2-0.7-0.4
			C14.9,116.9,14.6,117.1,14.3,117.1z M13.9,115.2v0.7c0,0.3,0.2,0.5,0.4,0.5s0.4-0.2,0.4-0.5v-0.7H13.9z M15.3,115.8
			c0,0.3,0.1,0.5,0.4,0.5s0.4-0.2,0.4-0.5v-0.6h-0.8L15.3,115.8z"/>
		<path class="st0" d="M14.6,119.5h-1.3v-0.7h3.4v1.4c0.1,0.5-0.3,1.1-0.8,1.2c-0.1,0-0.2,0-0.3,0c-0.5,0-0.9-0.3-1-0.8l-1.3,0.9
			v-0.8l1.3-0.8L14.6,119.5z M15.1,119.5v0.7c0,0.3,0.2,0.5,0.5,0.5s0.5-0.2,0.5-0.5v-0.7H15.1z"/>
		<path class="st0" d="M13.3,124.6c0-0.9,0.8-1.6,1.7-1.6c0,0,0.1,0,0.1,0c0.9-0.1,1.7,0.6,1.7,1.5c0.1,0.9-0.6,1.7-1.5,1.7
			c-0.1,0-0.2,0-0.3,0c-0.9,0.1-1.7-0.6-1.7-1.5C13.3,124.7,13.3,124.6,13.3,124.6z M16.1,124.6c0-0.5-0.4-0.9-1.1-0.9
			s-1.1,0.3-1.1,0.9s0.5,0.9,1.1,0.9S16.1,125.1,16.1,124.6z"/>
		<path class="st0" d="M16.7,129.4l-3.4,1.3V130l0.8-0.3v-1.3l-0.8-0.3v-0.7l3.4,1.3V129.4z M14.7,128.7v0.8l1.1-0.4L14.7,128.7z"/>
		<path class="st0" d="M16.7,132.4v1.2c0.1,0.9-0.6,1.6-1.5,1.7c-0.1,0-0.2,0-0.2,0c-0.9,0.1-1.6-0.6-1.7-1.4c0-0.1,0-0.2,0-0.2
			v-1.2H16.7z M13.9,133.5c0,0.6,0.4,1,1,1c0,0,0,0,0.1,0c0.6,0,1-0.4,1.1-0.9c0,0,0,0,0-0.1v-0.5h-2.1V133.5z"/>
		<path class="st0" d="M16.7,139l-2.3,0.6l2.3,0.6v0.7l-3.4-0.8v-0.6l2.2-0.6l-2.2-0.6v-0.6l3.4-0.9v0.7l-2.3,0.6l2.3,0.6L16.7,139z
			"/>
		<path class="st0" d="M16.7,144l-3.4,1.3v-0.7l0.8-0.3V143l-0.8-0.3V142l3.4,1.3V144z M14.7,143.2v0.8l1.1-0.4L14.7,143.2z"/>
		<path class="st0" d="M16.7,148.6v0.8l-2.1-1.2h-1.3v-0.7h1.3l2.1-1.2v0.8l-1.4,0.8L16.7,148.6z"/>
		<path class="st0" d="M111.7,108.4v0.7h-2.8v1.6h-0.6v-2.3H111.7z"/>
		<path class="st0" d="M111.7,114.1l-3.4,1.3v-0.7l0.8-0.3v-1.3l-0.8-0.3v-0.7l3.4,1.3V114.1z M109.7,113.4v0.8l1.1-0.4L109.7,113.4
			z"/>
		<path class="st0" d="M108.3,117h3.4v2.2h-0.6v-1.5h-0.9v1.4h-0.6v-1.4h-1.3V117z"/>
		<path class="st0" d="M111.7,122.5l-3.4,1.3v-0.7l0.8-0.3v-1.3l-0.8-0.3v-0.7l3.4,1.3V122.5z M109.7,121.8v0.8l1.1-0.4L109.7,121.8
			z"/>
		<path class="st0" d="M111.7,127.2v0.7l-2.1-1.2h-1.3V126h1.3l2.1-1.2v0.8l-1.4,0.8L111.7,127.2z"/>
		<path class="st0" d="M111.7,131.8h-0.6v-1.6h-0.7v1.4h-0.6v-1.4h-0.8v1.6h-0.6v-2.3h3.4V131.8z"/>
		<path class="st0" d="M111.7,133.4v2.9h-0.6v-1.1h-2.8v-0.7h2.8v-1.1L111.7,133.4z"/>
		<path class="st0" d="M111.7,137.8v2.9h-0.6v-1.1h-2.8v-0.7h2.8v-1.1H111.7z"/>
		<path class="st0" d="M111.7,144.6h-0.6V143h-0.7v1.4h-0.6V143h-0.8v1.6h-0.6v-2.3h3.4V144.6z"/>
		<path class="st0" d="M109.2,149.2c-0.3,0.1-0.5,0.4-0.4,0.7c0,0.4,0.2,0.6,0.4,0.6s0.3-0.1,0.4-0.4l0.1-0.6c0-0.5,0.4-0.9,0.9-0.9
			c0.6,0,1,0.6,1,1.1c0,0,0,0,0,0.1c0.1,0.6-0.4,1.2-1,1.3v-0.7c0.3-0.1,0.4-0.3,0.4-0.6c0-0.3-0.2-0.5-0.4-0.5s-0.3,0.1-0.4,0.4
			l-0.1,0.6c-0.1,0.6-0.4,0.9-1,0.9s-1-0.5-1-1.2c-0.1-0.7,0.4-1.3,1-1.4L109.2,149.2L109.2,149.2z"/>
		<path class="st0" d="M111.7,152.6v2.9h-0.6v-1.1h-2.8v-0.7h2.8v-1.1L111.7,152.6z"/>
		<path class="st0" d="M43.1,112.6h0.7v2.8h1.6v0.6h-2.3V112.6z"/>
		<path class="st0" d="M49.3,112.6v0.6h-1.6v0.8h1.5v0.6h-1.5v0.8h1.6v0.6H47v-3.4L49.3,112.6z"/>
		<path class="st0" d="M52.4,116c-1,0.1-1.8-0.7-1.9-1.6c-0.1-1,0.7-1.8,1.6-1.9s1.8,0.7,1.9,1.6c0,0.1,0,0.1,0,0.2
			c0,0.9-0.6,1.6-1.5,1.7C52.4,116,52.4,116,52.4,116z M52.4,113.2c-0.5,0-0.9,0.4-0.9,1.1s0.3,1.1,0.9,1.1s0.9-0.5,0.9-1.1
			S52.9,113.2,52.4,113.2L52.4,113.2z"/>
		<path class="st0" d="M58.4,116h-0.6l-1.6-2.2v2.2h-0.7v-3.4h0.7l1.5,2.1v-2.1h0.7V116z"/>
		<path class="st0" d="M61.9,112.6l1.3,3.4h-0.7l-0.3-0.8h-1.3l-0.3,0.8h-0.7l1.3-3.4L61.9,112.6z M61.1,114.6h0.8l-0.4-1.1
			L61.1,114.6z"/>
		<path class="st0" d="M65.4,114.7v1.3h-0.7v-3.4h1.4c0.5-0.1,1.1,0.2,1.2,0.8c0,0.1,0,0.2,0,0.3c0,0.5-0.3,0.9-0.8,1l0.9,1.3h-0.8
			l-0.8-1.3L65.4,114.7z M65.4,114.2H66c0.3,0,0.5-0.2,0.5-0.5s-0.2-0.5-0.5-0.5h-0.7L65.4,114.2z"/>
		<path class="st0" d="M68.9,112.6h1.2c0.9,0.1,1.6,0.9,1.6,1.8c-0.1,0.8-0.7,1.5-1.6,1.6h-1.2V112.6z M70,115.4
			c0.6,0,1.1-0.5,1.1-1.1c0-0.6-0.5-1.1-1.1-1.1h-0.5v2.1H70z"/>
		<path class="st0" d="M76.1,115c0.1,0.3,0.4,0.5,0.7,0.4c0.3,0,0.6-0.2,0.6-0.4s-0.1-0.3-0.4-0.4l-0.6-0.1
			c-0.5-0.1-0.8-0.4-0.8-0.9c0-0.6,0.6-1,1.2-1c0,0,0,0,0,0c0.6-0.1,1.2,0.4,1.3,1h-0.7c-0.1-0.3-0.3-0.4-0.6-0.4
			c-0.3,0-0.5,0.2-0.5,0.4s0.1,0.3,0.4,0.4l0.6,0.2c0.5,0.1,0.9,0.5,0.9,1c-0.1,0.6-0.6,1.1-1.2,1c0,0,0,0,0,0
			c-0.7,0.1-1.3-0.4-1.4-1L76.1,115z"/>
		<path class="st0" d="M79.4,112.6h2.9v0.6h-1.1v2.8h-0.7v-2.8h-1.1V112.6z"/>
		<path class="st0" d="M40.6,147.9c0.7,0,1.3,0.4,1.4,1.1h-0.7c-0.1-0.3-0.4-0.5-0.7-0.5c-0.5,0-0.8,0.5-0.8,1.1s0.3,1.1,0.8,1.1
			c0.3,0,0.6-0.2,0.7-0.5H42c-0.1,0.7-0.7,1.2-1.4,1.1c-1-0.1-1.7-1-1.6-1.9C39.2,148.6,39.8,147.9,40.6,147.9z"/>
		<path class="st0" d="M45.4,147.9l1.3,3.4H46l-0.3-0.8h-1.3l-0.3,0.8h-0.7l1.3-3.4H45.4z M44.6,149.9h0.8l-0.4-1.2L44.6,149.9z"/>
		<path class="st0" d="M47.8,147.9h2.9v0.6h-1.1v2.8h-0.7v-2.8h-1.1V147.9z"/>
		<path class="st0" d="M55.2,147.9v3.4h-0.7v-1.4H53v1.4h-0.7v-3.4H53v1.3h1.5v-1.3H55.2z"/>
		<path class="st0" d="M59.4,147.9v0.6h-1.6v0.7h1.5v0.6h-1.5v0.8h1.6v0.6h-2.3v-3.4L59.4,147.9z"/>
		<path class="st0" d="M61.8,150v1.3h-0.7v-3.4h1.4c0.5-0.1,1.1,0.3,1.2,0.8c0,0.1,0,0.2,0,0.3c0,0.5-0.3,0.9-0.8,1l0.9,1.3H63
			l-0.8-1.3H61.8z M61.8,149.4h0.6c0.4,0,0.5-0.2,0.5-0.5s-0.2-0.5-0.5-0.5h-0.6V149.4z"/>
		<path class="st0" d="M66.2,151.3h-0.7v-3.4h0.7V151.3z"/>
		<path class="st0" d="M70.8,151.3h-0.6l-1.6-2.3v2.2H68v-3.4h0.7l1.5,2.1v-2.1h0.7V151.3z"/>
		<path class="st0" d="M75,147.9v0.6h-1.6v0.7h1.4v0.6h-1.5v0.8H75v0.6h-2.3v-3.4L75,147.9z"/>
		<path class="st0" d="M79.1,147.9h0.7v2.8h1.6v0.6h-2.3V147.9z"/>
		<path class="st0" d="M85.9,151.3h-0.6l-1.6-2.3v2.2h-0.7v-3.4h0.7l1.5,2.1v-2.1h0.7V151.3L85.9,151.3z"/>
	</g>
	<g id="Layer_3">
		<polygon class="st1" points="34.4,125.5 34.4,127.8 34.5,127.8 34.5,128.5 34.4,128.5 34.4,129.8 33.7,129.8 33.7,130.4 
			32.5,130.4 32.5,131.2 29.8,131.2 29.8,131.1 28.7,131.1 28.7,131.9 24.3,131.9 24.3,125.5 		"/>
		<g>
			<defs>
				<rect id="SVGID_1_" x="23.3" y="124.4" width="77" height="17.4"/>
			</defs>
			<clipPath id="SVGID_2_">
				<use xlink:href="#SVGID_1_"  style="overflow:visible;"/>
			</clipPath>
			<g class="st2">
				<polygon class="st3" points="98.4,125.5 98.4,140.6 24.3,136 24.3,125.5 				"/>
			</g>
		</g>
		<g>
			<defs>
				<rect id="SVGID_3_" x="26.8" y="8.4" width="71.4" height="78.6"/>
			</defs>
			<clipPath id="SVGID_4_">
				<use xlink:href="#SVGID_3_"  style="overflow:visible;"/>
			</clipPath>
			<g class="st4">
				<g class="st5">
					<path class="st6" d="M33.3,63.3l0.5,0.3L31.8,65l1.2,0.7L32.5,66L30.8,65L33.3,63.3z"/>
					<path class="st6" d="M38.1,66.3l-0.5,0.3l-1.2-0.8l-0.6,0.4l1.1,0.7l-0.4,0.3l-1.1-0.7l-0.6,0.4l1.2,0.8L35.6,68l-1.7-1.1
						l2.5-1.7L38.1,66.3z"/>
					<path class="st6" d="M38.1,69.6c-0.7-0.4-0.7-1.1,0.1-1.6c0.8-0.5,1.8-0.5,2.5-0.1s0.7,1.1-0.1,1.6C39.8,70,38.8,70,38.1,69.6z
						 M40.2,68.2c-0.4-0.3-1-0.2-1.5,0.1c-0.5,0.3-0.6,0.7-0.2,1c0.4,0.3,1,0.2,1.5-0.1C40.5,68.8,40.6,68.4,40.2,68.2z"/>
					<path class="st6" d="M42.8,72.5l-0.4-0.3l0.5-1.9l-1.7,1.1l-0.5-0.3l2.5-1.7l0.5,0.3l-0.5,1.8l1.6-1l0.5,0.3L42.8,72.5z"/>
					<path class="st6" d="M48.2,72.6l-1.6,2.3l-0.5-0.3l0.4-0.5l-1-0.6l-0.8,0.3l-0.5-0.3l3.5-1L48.2,72.6z M46.1,73.2l0.6,0.4
						l0.5-0.7L46.1,73.2z"/>
					<path class="st6" d="M49.4,75.4L48.5,76l-0.5-0.3l2.5-1.7l1.1,0.7c0.5,0.3,0.6,0.7,0.1,1.1c-0.4,0.3-0.9,0.3-1.3,0.1L50,76.9
						l-0.6-0.4l0.3-1L49.4,75.4z M49.9,75.1l0.5,0.3c0.3,0.2,0.5,0.2,0.8,0c0.2-0.1,0.2-0.3,0-0.5l-0.5-0.3L49.9,75.1z"/>
					<path class="st6" d="M53.8,76.1l0.9,0.6c0.8,0.5,0.8,1.1,0,1.6c-0.8,0.5-1.8,0.5-2.5,0l-0.9-0.6L53.8,76.1z M52.6,78
						c0.5,0.3,1.1,0.3,1.6-0.1c0.5-0.3,0.5-0.7,0-1l-0.4-0.2l-1.6,1.1L52.6,78z"/>
				</g>
				<g class="st5">
					<path class="st6" d="M57.9,80.9c-0.2,0.2-0.1,0.4,0.2,0.5c0.3,0.2,0.5,0.2,0.7,0.1c0.2-0.1,0.1-0.2,0-0.4l-0.4-0.4
						c-0.3-0.3-0.4-0.6,0-0.9c0.5-0.3,1.2-0.3,1.7,0.1c0.6,0.4,0.6,0.8,0.3,1.1l-0.5-0.3c0.1-0.1,0.1-0.3-0.2-0.5
						c-0.2-0.2-0.5-0.2-0.7-0.1c-0.1,0.1-0.1,0.2,0,0.4l0.4,0.4c0.3,0.3,0.3,0.6,0,0.9c-0.5,0.3-1.2,0.3-1.7-0.1
						c-0.6-0.4-0.7-0.8-0.3-1.2L57.9,80.9z"/>
				</g>
				<g class="st5">
					<path class="st6" d="M62.3,81.4l2.2,1.4l-0.5,0.3l-0.8-0.5l-2.1,1.4l-0.5-0.3l2.1-1.4l-0.8-0.5L62.3,81.4z"/>
				</g>
				<line class="st7" x1="84.2" y1="52.8" x2="84.2" y2="49.2"/>
				<line class="st7" x1="35.1" y1="23.4" x2="35.1" y2="20.4"/>
				<line class="st7" x1="45.3" y1="27.4" x2="45.3" y2="29"/>
				<line class="st7" x1="40.8" y1="24.8" x2="40.8" y2="26.5"/>
				<line class="st7" x1="46.5" y1="26.7" x2="46.5" y2="28.4"/>
				<line class="st8" x1="46.5" y1="28.4" x2="45.3" y2="29.1"/>
				<line class="st8" x1="46.4" y1="26.8" x2="45.3" y2="27.4"/>
				<line class="st8" x1="77.5" y1="41.3" x2="72.5" y2="44.2"/>
				<line class="st8" x1="81.2" y1="44.3" x2="77" y2="46.8"/>
				<line class="st7" x1="52.4" y1="30.1" x2="52.4" y2="31.8"/>
				<line class="st8" x1="56.6" y1="28.7" x2="76.6" y2="41.9"/>
				<line class="st8" x1="77.4" y1="41.3" x2="81.2" y2="43.8"/>
				<line class="st8" x1="56.6" y1="28.2" x2="76.9" y2="41.6"/>
				<line class="st8" x1="32.7" y1="22.4" x2="34.7" y2="23.6"/>
				<line class="st8" x1="40.8" y1="24.8" x2="45.3" y2="27.4"/>
				<line class="st8" x1="46.5" y1="26.8" x2="52.5" y2="30.2"/>
				<line class="st8" x1="46.5" y1="28.4" x2="52.4" y2="31.8"/>
				<line class="st8" x1="72.5" y1="44.2" x2="77" y2="46.8"/>
				<line class="st7" x1="84.1" y1="42.2" x2="84.1" y2="40.4"/>
				<polyline class="st7" points="76.6,50.2 75.9,49.8 75,50.3 36.3,27.9 36.3,26 				"/>
				<polyline class="st7" points="46,21.8 42.2,19.3 33.5,24.4 75,48.4 				"/>
				<line class="st7" x1="75" y1="48.4" x2="75" y2="50.3"/>
				<line class="st7" x1="75.9" y1="47.9" x2="75" y2="48.4"/>
				<polyline class="st7" points="75.9,49.8 75.9,47.9 72.5,46 				"/>
				<line class="st7" x1="84.2" y1="56.3" x2="84.2" y2="54.2"/>
				<polyline class="st7" points="88.8,48.4 91.3,50.1 91.3,52.2 84.2,56.3 76.6,51.9 76.6,49.8 79.7,48.1 				"/>
				<polyline class="st7" points="91.3,50.1 84.2,54.2 76.6,49.8 				"/>
				<polyline class="st8" points="34.2,24.8 34.2,25.8 36.3,27 				"/>
				<line class="st8" x1="40.8" y1="26.5" x2="45.3" y2="29.1"/>
				<line class="st8" x1="72.5" y1="45.9" x2="72.5" y2="44.2"/>
				<line class="st8" x1="77" y1="49.6" x2="77" y2="46.8"/>
				<polyline class="st8" points="87.1,41.3 84.2,43.1 81.2,41.4 				"/>
				<polyline class="st7" points="87.1,45.1 87.4,45.3 87.4,46.5 84.2,48.4 80.9,46.5 80.9,45.4 81.2,45.2 				"/>
				<line class="st7" x1="84.2" y1="48.4" x2="84.2" y2="43.1"/>
				<polyline class="st7" points="87.4,45.7 88.8,46.5 88.8,50.2 84.2,52.8 79.7,50.2 79.7,46.5 80.9,45.8 				"/>
				<polyline class="st7" points="88.8,46.5 84.2,49.2 79.7,46.6 				"/>
				<polyline class="st7" points="32.7,22.4 28.3,25 28.3,55.8 				"/>
				<polyline class="st7" points="37.5,19.5 40.6,17.7 46.4,21.5 				"/>
				<line class="st7" x1="84.2" y1="57.3" x2="84.1" y2="85.2"/>
				<line class="st7" x1="84.1" y1="85.2" x2="54.3" y2="67.9"/>
				<polyline class="st7" points="92.6,57.1 84.2,62 28.3,29.6 				"/>
				<polyline class="st7" points="92.6,59.4 84.2,64.3 28.3,32 				"/>
				<polyline class="st7" points="92.6,61.7 84.2,66.6 28.3,34.3 				"/>
				<polyline class="st7" points="92.6,64 84.2,69 28.3,36.6 				"/>
				<polyline class="st7" points="92.6,66.4 84.2,71.3 28.3,39 				"/>
				<polyline class="st7" points="92.6,68.7 84.2,73.6 28.3,41.3 				"/>
				<polyline class="st7" points="92.6,71 84.2,75.9 28.3,43.6 				"/>
				<polyline class="st7" points="92.6,73.3 84.2,78.2 28.3,45.9 				"/>
				<line class="st7" x1="92.6" y1="75.7" x2="90.6" y2="76.8"/>
				<polyline class="st7" points="86.1,79.4 84.2,80.6 28.3,48.2 				"/>
				<line class="st7" x1="90.6" y1="79.1" x2="92.6" y2="78"/>
				<polyline class="st7" points="86.1,81.8 84.2,82.9 28.3,50.6 				"/>
				<polyline class="st7" points="92.6,54.8 84.2,59.7 28.3,27.3 				"/>
				<line class="st7" x1="51.9" y1="66.6" x2="28.3" y2="52.9"/>
				<polyline class="st8" points="33.9,18.2 32.7,19 32.7,22.4 				"/>
				<polyline class="st8" points="36.3,18.2 37.5,18.9 37.5,22 				"/>
				<polyline class="st8" points="32.7,19 35.1,20.4 37.5,18.9 				"/>
				<polyline class="st7" points="85.2,39 85.8,39.5 85.8,41.3 84.1,42.2 82.5,41.3 82.5,39.5 83.3,39 				"/>
				<polyline class="st8" points="85.8,39.5 84.1,40.4 82.4,39.5 				"/>
				<g>
					<defs>
						<rect id="SVGID_5_" x="26.9" y="8.4" width="71.3" height="78.5"/>
					</defs>
					<clipPath id="SVGID_6_">
						<use xlink:href="#SVGID_5_"  style="overflow:visible;"/>
					</clipPath>
					<g class="st9">
						<path class="st7" d="M82.6,37.5c-0.1,0.1-0.1,0.2-0.2,0.3l0.1,0.3c0.1,0.1,0.5,0.3,1.1,0.1s1.9-0.9,2-1.6l-0.2-0.4
							c-0.1,0-0.3,0-0.4,0"/>
					</g>
				</g>
				<polyline class="st7" points="83.2,35 84.1,35.4 84.3,35.3 84.9,34.4 				"/>
				<g>
					<defs>
						<rect id="SVGID_7_" x="26.9" y="8.4" width="71.3" height="78.5"/>
					</defs>
					<clipPath id="SVGID_8_">
						<use xlink:href="#SVGID_7_"  style="overflow:visible;"/>
					</clipPath>
					<g class="st10">
						<path class="st7" d="M85.5,36.9c0,0.2,0,0.4,0,0.6c-0.2,0.8-0.9,1.3-1.7,1.2c-0.3-0.1-0.6-0.2-0.8-0.4h-0.1"/>
						<path class="st7" d="M82.7,37.8c0-0.1-0.1-0.2-0.1-0.4c-0.1-0.8,0.4-1.5,1.2-1.7c0.5-0.1,1,0.1,1.3,0.4
							c0.1,0.1,0.2,0.2,0.2,0.3"/>
						<path class="st7" d="M83.5,44.2c0.2,0.7,0,1.3-0.4,1.3s-1.1-0.6-1.3-1.3s0-1.3,0.4-1.3S83.3,43.5,83.5,44.2z"/>
						<path class="st7" d="M84.8,44.2c-0.2,0.7-0.1,1.3,0.4,1.3s1.1-0.6,1.3-1.3s0-1.3-0.4-1.3S85,43.5,84.8,44.2z"/>
						<path class="st11" d="M85.1,39.1c0-0.1,0-0.1,0-0.2c0,0,0-0.1-0.1-0.1c-0.1,0-0.2,0-0.3,0c0,0,0-0.1,0-0.1l0,0l0.1-0.3"/>
						<path class="st8" d="M84.4,39.1c0,0.1,0,0.1,0.1,0.2s0.2,0.1,0.3,0"/>
					</g>
				</g>
				<polyline class="st8" points="83.7,39.7 83.7,39.5 83.8,39.2 83.8,39.1 83.5,39.1 83.2,38.9 83.3,38.5 				"/>
				<polyline class="st7" points="82.5,40.7 81.2,41.4 81.2,45.3 84.2,47 87.1,45.3 87.1,41.3 85.8,40.6 				"/>
				<g>
					<defs>
						<rect id="SVGID_9_" x="26.9" y="8.4" width="71.3" height="78.5"/>
					</defs>
					<clipPath id="SVGID_10_">
						<use xlink:href="#SVGID_9_"  style="overflow:visible;"/>
					</clipPath>
					<g class="st12">
						<path class="st8" d="M35,16.9c-0.6,0.1-1,0.6-1,1.2V19c0,0.3,0.5,0.6,1.2,0.6s1.2-0.3,1.2-0.6v-0.9c0-0.6-0.4-1.1-1-1.2v-0.1
							c0-0.1-0.1-0.1-0.2-0.1S35,16.7,35,16.8L35,16.9z"/>
					</g>
				</g>
				<polyline class="st7" points="92.6,52.4 84.2,57.3 28.3,25 				"/>
				<polyline class="st7" points="54.3,68.3 52.7,67.4 51.2,68.3 53.2,69.4 54.3,68.8 				"/>
				<line class="st7" x1="54.3" y1="68.3" x2="52.7" y2="67.4"/>
				<line class="st7" x1="54.3" y1="69.7" x2="53.5" y2="69.3"/>
				<g>
					<defs>
						<rect id="SVGID_11_" x="26.9" y="8.4" width="71.3" height="78.5"/>
					</defs>
					<clipPath id="SVGID_12_">
						<use xlink:href="#SVGID_11_"  style="overflow:visible;"/>
					</clipPath>
					<g class="st13">
						<path class="st7" d="M53,65.6c-0.2,0.2-0.3,0.4-0.3,0.7v1.2"/>
					</g>
				</g>
				<polyline class="st7" points="52.3,68.9 51.9,69.2 28.3,55.8 				"/>
				<line class="st7" x1="51.9" y1="69.2" x2="51.9" y2="68.7"/>
				<g>
					<defs>
						<rect id="SVGID_13_" x="26.9" y="8.4" width="71.3" height="78.5"/>
					</defs>
					<clipPath id="SVGID_14_">
						<use xlink:href="#SVGID_13_"  style="overflow:visible;"/>
					</clipPath>
					<g class="st14">
						<path class="st7" d="M90.6,81.4v-4.5l-4.5,2.5v4.6l-2,1.2l-15-7.1l-12-6.1l-2.8-1.6v-3.2c-0.1-0.7-0.5-1.4-1.2-1.7
							c-0.3-0.2-0.8-0.1-1.1,0.2c-0.1,0.1-0.1,0.3-0.1,0.5v1.6"/>
					</g>
				</g>
				<polyline class="st7" points="87.4,81.8 87.4,80.6 86.7,81 86.7,82.2 				"/>
				<g>
					<defs>
						<rect id="SVGID_15_" x="26.9" y="8.4" width="71.3" height="78.5"/>
					</defs>
					<clipPath id="SVGID_16_">
						<use xlink:href="#SVGID_15_"  style="overflow:visible;"/>
					</clipPath>
					<g class="st15">
						<path class="st7" d="M91.3,51.6l1.3,0.8v27.9l-2,1.2c-1-0.3-2.1-0.2-3,0.2l-1,0.6c-0.2,0.1-0.3,0.2-0.4,0.3"/>
					</g>
				</g>
				<polyline class="st8" points="52.4,31.8 56.6,29.3 56.6,27.8 46.8,21.3 40.8,24.8 				"/>
				<line class="st8" x1="56.6" y1="27.7" x2="52.4" y2="30.2"/>
				<polygon class="st1" points="90.6,56 84.2,59.7 76.6,55.3 76.6,76.2 84.2,80.6 90.6,76.9 				"/>
				<polyline class="st16" points="76.6,57.6 84.2,62 90.6,58.3 				"/>
				<polyline class="st16" points="76.6,59.9 84.2,64.3 90.6,60.6 				"/>
				<polyline class="st16" points="76.6,62.2 84.2,66.7 90.6,62.9 				"/>
				<polyline class="st16" points="76.6,64.6 84.2,69 90.6,65.3 				"/>
				<polyline class="st16" points="76.6,66.9 84.2,71.3 90.6,67.6 				"/>
				<polyline class="st16" points="76.6,69.3 84.2,73.7 90.6,69.9 				"/>
				<polyline class="st16" points="76.6,71.6 84.2,76 90.6,72.2 				"/>
				<polyline class="st16" points="76.6,73.9 84.2,78.3 90.6,74.6 				"/>
				<line class="st16" x1="84.2" y1="59.7" x2="84.2" y2="80.6"/>
			</g>
		</g>
	</g>
</g>
</svg>
