<?xml version="1.0" encoding="utf-8"?>
<!-- Generator: Adobe Illustrator 23.0.0, SVG Export Plug-In . SVG Version: 6.00 Build 0)  -->
<svg version="1.1" id="Layer_1" xmlns="http://www.w3.org/2000/svg" xmlns:xlink="http://www.w3.org/1999/xlink" x="0px" y="0px"
	 viewBox="0 0 347 105.1" style="enable-background:new 0 0 347 105.1;" xml:space="preserve">
<style type="text/css">
	.st0{fill:#D1D3D4;}
	.st1{fill:#231F20;}
	.st2{clip-path:url(#SVGID_2_);}
	.st3{fill:none;stroke:#D1D3D4;stroke-width:1.09;stroke-miterlimit:10;}
	.st4{clip-path:url(#SVGID_4_);}
	.st5{enable-background:new    ;}
	.st6{fill:none;stroke:#231F20;stroke-width:0.15;stroke-miterlimit:10;}
	.st7{fill:none;stroke:#231F20;stroke-width:0.14;stroke-miterlimit:10;}
	.st8{clip-path:url(#SVGID_6_);}
	.st9{clip-path:url(#SVGID_8_);}
	.st10{fill:none;stroke:#231F20;stroke-width:0.14;stroke-linejoin:bevel;}
	.st11{clip-path:url(#SVGID_10_);}
	.st12{clip-path:url(#SVGID_12_);}
	.st13{clip-path:url(#SVGID_14_);}
	.st14{clip-path:url(#SVGID_16_);}
	.st15{clip-path:url(#SVGID_18_);}
	.st16{fill:none;stroke:#FFFFFF;stroke-width:0.15;stroke-miterlimit:10;}
	.st17{clip-path:url(#SVGID_20_);}
	.st18{clip-path:url(#SVGID_22_);}
	.st19{clip-path:url(#SVGID_24_);}
	.st20{clip-path:url(#SVGID_26_);}
	.st21{clip-path:url(#SVGID_28_);}
	.st22{clip-path:url(#SVGID_30_);}
	.st23{clip-path:url(#SVGID_32_);}
	.st24{clip-path:url(#SVGID_34_);}
</style>
<title>residence_N_4_key_horizontal</title>
<g>
	<g id="Layer_1_copy">
		<g>
			<path class="st0" d="M209.9,51.6c-0.8,0-1.2-0.5-1.2-1.4v-1.8h4.4V50c0,0.9-0.4,1.5-1.2,1.5c-0.4,0-0.8-0.2-0.9-0.6
				C210.8,51.3,210.3,51.6,209.9,51.6z M209.4,49.2v0.8c0,0.4,0.2,0.6,0.5,0.6s0.5-0.2,0.5-0.6v-0.8H209.4z M211.2,50
				c0,0.4,0.2,0.7,0.5,0.7s0.5-0.2,0.5-0.7v-0.7h-1V50z"/>
			<path class="st0" d="M210.2,54.1h-1.6v-0.9h4.4V55c0.1,0.7-0.4,1.4-1.1,1.5c-0.1,0-0.1,0-0.2,0c-0.6,0-1.2-0.4-1.3-1l-1.7,1.1v-1
				l1.6-1.1L210.2,54.1z M211,54.1V55c0,0.5,0.2,0.7,0.6,0.7s0.6-0.2,0.6-0.7v-0.8L211,54.1z"/>
		</g>
		<g>
			<path class="st0" d="M208.6,61.1c-0.1-1.2,0.8-2.3,2-2.4c1.2-0.1,2.3,0.8,2.4,2c0.1,1.2-0.8,2.3-2,2.4c-0.1,0-0.2,0-0.2,0
				c-1.1,0.1-2.1-0.7-2.2-1.9C208.6,61.2,208.6,61.1,208.6,61.1z M212.2,61.1c0-0.7-0.6-1.1-1.4-1.1s-1.4,0.4-1.4,1.1
				s0.6,1.1,1.4,1.1S212.2,61.8,212.2,61.1z"/>
		</g>
		<g>
			<path class="st0" d="M213,67.3l-4.4,1.7v-1l1-0.4v-1.6l-1-0.4v-0.9l4.3,1.7L213,67.3z M210.5,66.3v1l1.4-0.5L210.5,66.3z"/>
		</g>
		<g>
			<path class="st0" d="M213,71v1.5c0,1.2-1,2.2-2.2,2.2c-1.2,0-2.1-1-2.1-2.2V71H213z M209.5,72.5c0.1,0.8,0.7,1.3,1.5,1.2
				c0.7-0.1,1.2-0.6,1.2-1.2v-0.6h-2.7V72.5z"/>
		</g>
		<g>
			<path class="st0" d="M213,79.5l-2.9,0.8l2.9,0.7v0.9l-4.3-1.1v-0.8l2.8-0.8l-2.8-0.8v-0.8l4.3-1.1v0.9l-2.9,0.7l2.9,0.8V79.5z"/>
		</g>
		<g>
			<path class="st0" d="M213,85.8l-4.3,1.6v-0.9l1-0.4v-1.6l-1-0.4v-0.9l4.3,1.7V85.8z M210.5,84.8v1.1l1.4-0.5L210.5,84.8z"/>
		</g>
		<g>
			<path class="st0" d="M213,91.7v1l-2.7-1.6h-1.6v-0.9h1.6l2.7-1.6v1l-1.8,1L213,91.7z"/>
		</g>
		<g>
			<path class="st0" d="M343.4,40.5v0.9h-3.5v2h-0.8v-2.9H343.4z"/>
		</g>
		<g>
			<path class="st0" d="M343.4,47.8l-4.3,1.6v-0.9l1-0.4v-1.6l-1-0.4v-0.9l4.3,1.7V47.8z M340.9,46.8v1l1.4-0.5L340.9,46.8z"/>
		</g>
		<g>
			<path class="st0" d="M339.1,51.5h4.3v2.9h-0.8v-2h-1.1v1.8h-0.8v-1.8h-1.6V51.5z"/>
		</g>
		<g>
			<path class="st0" d="M343.4,58.5l-4.3,1.7v-0.9l1-0.4v-1.6l-1-0.4V56l4.3,1.6V58.5z M340.9,57.5v1l1.4-0.5L340.9,57.5z"/>
		</g>
		<g>
			<path class="st0" d="M343.4,64.4v0.9l-2.7-1.6h-1.6v-0.9h1.6l2.7-1.5v1l-1.8,1L343.4,64.4z"/>
			<path class="st0" d="M343.4,69.8h-0.8v-2h-0.9v1.8h-0.8v-1.9h-1v2h-0.8v-2.9h4.3L343.4,69.8L343.4,69.8z"/>
			<path class="st0" d="M343.4,71.2v3.7h-0.8v-1.4h-3.5v-0.9h3.5v-1.4H343.4z"/>
			<path class="st0" d="M343.4,76.2v3.7h-0.8v-1.4h-3.5v-0.9h3.5v-1.4H343.4z"/>
			<path class="st0" d="M343.4,84.4h-0.8v-2h-0.9v1.8h-0.8v-1.9h-1v2h-0.8v-2.9h4.3L343.4,84.4L343.4,84.4z"/>
		</g>
		<g>
			<path class="st0" d="M340.3,92.5c-0.4,0.1-0.6,0.5-0.5,0.9c0,0.4,0.2,0.7,0.5,0.7s0.4-0.2,0.5-0.5l0.2-0.8
				c0.1-0.6,0.5-1.1,1.2-1.1c0.8,0,1.4,0.7,1.3,1.4c0,0,0,0.1,0,0.1c0.1,0.8-0.5,1.5-1.2,1.7V94c0.3-0.1,0.5-0.4,0.5-0.8
				c0-0.4-0.2-0.7-0.5-0.7s-0.4,0.2-0.5,0.5l-0.2,0.8c-0.2,0.7-0.6,1.1-1.2,1.1c-0.8,0-1.3-0.7-1.3-1.6c-0.1-0.8,0.5-1.6,1.3-1.8
				L340.3,92.5L340.3,92.5z"/>
		</g>
		<g>
			<path class="st0" d="M343.4,96.8v3.7h-0.8v-1.4h-3.5v-0.9h3.5v-1.4H343.4z"/>
		</g>
		<g>
			<path class="st0" d="M251.3,40.8h0.9v3.5h2v0.8h-2.9V40.8z"/>
			<path class="st0" d="M258.8,40.8v0.8h-2v0.9h1.9v0.8h-1.9v1h2V45h-2.9v-4.3L258.8,40.8z"/>
		</g>
		<g>
			<path class="st0" d="M263.1,45.1c-1.2,0.1-2.3-0.8-2.4-2c-0.1-1.2,0.8-2.3,2-2.4c1.2-0.1,2.3,0.8,2.4,2c0,0.1,0,0.2,0,0.2
				c0.1,1.1-0.8,2.1-1.9,2.2C263.2,45.1,263.1,45.1,263.1,45.1z M263.1,41.5c-0.7,0-1.1,0.6-1.1,1.4s0.4,1.4,1.1,1.4
				s1.1-0.6,1.1-1.4S263.8,41.5,263.1,41.5z"/>
		</g>
		<g>
			<path class="st0" d="M270.8,45.1h-0.7l-2-2.9v2.9h-0.9v-4.3h0.8l1.9,2.7v-2.7h0.9L270.8,45.1L270.8,45.1z"/>
		</g>
		<g>
			<path class="st0" d="M275.2,40.8l1.6,4.3H276l-0.4-1H274l-0.4,1h-0.9l1.6-4.3H275.2z M274.2,43.3h1l-0.5-1.4L274.2,43.3z"/>
		</g>
		<g>
			<path class="st0" d="M279.7,43.5v1.6h-0.9v-4.3h1.8c0.7-0.1,1.4,0.4,1.5,1.1c0,0.1,0,0.1,0,0.2c0,0.6-0.4,1.2-1,1.3l1.1,1.7h-1
				l-1.1-1.6L279.7,43.5z M279.7,42.7h0.8c0.5,0,0.7-0.2,0.7-0.6s-0.2-0.6-0.7-0.6h-0.8V42.7z"/>
			<path class="st0" d="M283.7,40.8h1.5c1.2,0,2.1,1,2.1,2.2c0,1.2-1,2.1-2.1,2.1h-1.5V40.8z M285.2,44.3c0.8-0.1,1.3-0.7,1.2-1.5
				c-0.1-0.7-0.6-1.2-1.2-1.2h-0.6v2.7H285.2z"/>
		</g>
		<g>
			<path class="st0" d="M293.3,43.8c0.1,0.4,0.5,0.6,0.9,0.6c0.4,0,0.7-0.2,0.7-0.5s-0.2-0.4-0.5-0.5l-0.8-0.2
				c-0.6-0.1-1.1-0.5-1.1-1.2c0-0.8,0.7-1.4,1.5-1.3c0,0,0,0,0.1,0c0.8-0.1,1.5,0.5,1.7,1.2h-0.9c-0.1-0.3-0.4-0.6-0.8-0.5
				c-0.4,0-0.7,0.2-0.7,0.5s0.2,0.4,0.5,0.5l0.8,0.2c0.7,0.2,1.1,0.6,1.1,1.2c0,0.8-0.7,1.3-1.6,1.3c-0.8,0.1-1.6-0.5-1.8-1.3
				L293.3,43.8z"/>
		</g>
		<g>
			<path class="st0" d="M297.5,40.8h3.7v0.8h-1.4v3.5h-0.9v-3.5h-1.4V40.8z"/>
		</g>
		<g>
			<path class="st0" d="M248.2,94.4c0.9-0.1,1.7,0.6,1.8,1.5h-0.9c-0.1-0.4-0.5-0.7-0.9-0.7c-0.7,0-1.1,0.6-1.1,1.4s0.4,1.4,1.1,1.4
				c0.4,0,0.8-0.3,0.9-0.7h0.9c-0.1,0.9-0.9,1.5-1.8,1.5c-1.2-0.1-2.1-1.2-2-2.4C246.3,95.3,247.1,94.5,248.2,94.4L248.2,94.4z"/>
		</g>
		<g>
			<path class="st0" d="M254.2,94.5l1.6,4.3H255l-0.4-1H253l-0.4,1h-0.9l1.6-4.3H254.2z M253.2,97h1.1l-0.5-1.4L253.2,97z"/>
		</g>
		<g>
			<path class="st0" d="M257.2,94.5h3.7v0.8h-1.4v3.5h-0.9v-3.5h-1.4V94.5z"/>
		</g>
		<g>
			<path class="st0" d="M266.8,94.5v4.3h-0.9V97h-1.9v1.8H263v-4.3h0.9v1.7h1.9v-1.8H266.8z"/>
		</g>
		<g>
			<path class="st0" d="M272,94.5v0.8h-2v0.9h1.9V97H270v1h2v0.8h-2.9v-4.3L272,94.5z"/>
			<path class="st0" d="M274.6,97.2v1.6h-0.9v-4.3h1.8c0.7-0.1,1.4,0.4,1.5,1.1c0,0.1,0,0.1,0,0.2c0,0.6-0.4,1.2-1,1.3l1.1,1.7h-1
				l-1.1-1.6H274.6z M274.6,96.4h0.8c0.5,0,0.7-0.2,0.7-0.6s-0.2-0.6-0.7-0.6h-0.8V96.4z"/>
		</g>
		<g>
			<path class="st0" d="M280.7,98.8h-0.9v-4.3h0.9V98.8z"/>
		</g>
		<g>
			<path class="st0" d="M286.6,98.8h-0.7l-2-2.9v2.9H283v-4.3h0.8l1.9,2.7v-2.7h0.9L286.6,98.8z"/>
			<path class="st0" d="M291.4,94.5v0.8h-2v0.9h1.9V97h-1.9v1h2v0.8h-2.9v-4.3L291.4,94.5z"/>
			<path class="st0" d="M295.5,94.5h0.9V98h2v0.8h-2.9V94.5z"/>
		</g>
		<g>
			<path class="st0" d="M305.8,98.8h-0.7l-2-2.9v2.9h-0.9v-4.3h0.8l1.9,2.7v-2.7h0.9L305.8,98.8z"/>
		</g>
	</g>
	<g>
		<polyline class="st1" points="308.2,60.1 308.2,60.3 308.2,69.8 312,69.8 312,69 316.1,69 316.1,67.6 322.4,67.6 322.4,69.5 
			328.8,69.5 328.8,60.3 		"/>
		<g>
			<defs>
				<rect id="SVGID_1_" x="219.4" y="58.6" width="112" height="25.3"/>
			</defs>
			<clipPath id="SVGID_2_">
				<use xlink:href="#SVGID_1_"  style="overflow:visible;"/>
			</clipPath>
			<g class="st2">
				<polygon class="st3" points="328.8,60.3 328.8,82.2 220.8,75.5 220.8,60.3 				"/>
			</g>
		</g>
		<g>
			<defs>
				<rect id="SVGID_3_" x="3.1" y="0.1" width="187.4" height="104.8"/>
			</defs>
			<clipPath id="SVGID_4_">
				<use xlink:href="#SVGID_3_"  style="overflow:visible;"/>
			</clipPath>
			<g class="st4">
				<g class="st5">
					<path class="st0" d="M11,75.3l0.7,0.4l-2.5,1.6l1.5,0.9L10,78.7l-2.1-1.3L11,75.3z"/>
					<path class="st0" d="M16.9,79l-0.6,0.4l-1.5-0.9l-0.7,0.4l1.3,0.8L15,80.1l-1.3-0.8l-0.7,0.5l1.5,0.9L13.8,81l-2.1-1.3l3.1-2
						L16.9,79z"/>
				</g>
				<g class="st5">
					<path class="st0" d="M16.8,83c-0.9-0.5-0.8-1.4,0.1-2c0.9-0.6,2.2-0.7,3.1-0.1c0.9,0.5,0.8,1.4-0.1,2
						C19,83.4,17.7,83.5,16.8,83z M19.4,81.3c-0.5-0.3-1.2-0.2-1.8,0.2c-0.6,0.4-0.7,0.9-0.2,1.2c0.5,0.3,1.2,0.2,1.8-0.2
						C19.8,82,19.9,81.6,19.4,81.3z"/>
				</g>
				<g class="st5">
					<path class="st0" d="M22.6,86.5l-0.5-0.3l0.6-2.3l-2.1,1.3L20,84.9l3.1-2l0.6,0.4l-0.6,2.1l1.9-1.3l0.6,0.4L22.6,86.5z"/>
				</g>
				<g class="st5">
					<path class="st0" d="M29.1,86.6l-1.9,2.8L26.6,89l0.5-0.7l-1.2-0.7l-1,0.3l-0.7-0.4l4.3-1.3L29.1,86.6z M26.6,87.4l0.8,0.5
						l0.6-0.9L26.6,87.4z"/>
				</g>
				<g class="st5">
					<path class="st0" d="M30.6,90l-1.1,0.8l-0.6-0.4l3.1-2l1.3,0.8c0.7,0.4,0.7,0.9,0.1,1.3c-0.5,0.3-1.1,0.4-1.6,0.2l-0.4,1.3
						l-0.7-0.5l0.4-1.2L30.6,90z M31.1,89.7l0.6,0.4c0.3,0.2,0.7,0.2,0.9,0c0.3-0.2,0.3-0.4-0.1-0.6L32,89.1L31.1,89.7z"/>
					<path class="st0" d="M36,90.9l1.1,0.7c0.9,0.6,0.9,1.4,0,2c-0.9,0.6-2.1,0.6-3.1,0l-1.1-0.7L36,90.9z M34.5,93.2
						c0.6,0.4,1.3,0.3,1.9-0.1c0.6-0.4,0.7-0.8,0.1-1.2l-0.4-0.3l-2,1.3L34.5,93.2z"/>
				</g>
				<g class="st5">
					<path class="st0" d="M40.8,96.8c-0.2,0.2-0.1,0.5,0.2,0.6c0.3,0.2,0.7,0.2,0.9,0.1c0.2-0.1,0.2-0.3,0-0.5l-0.4-0.4
						c-0.3-0.3-0.5-0.7,0.1-1c0.6-0.4,1.4-0.3,2.1,0.1c0.7,0.4,0.7,0.9,0.3,1.3l-0.6-0.4c0.1-0.2,0.1-0.4-0.2-0.6
						c-0.3-0.2-0.6-0.2-0.9-0.1c-0.2,0.1-0.2,0.3,0,0.4l0.4,0.4c0.4,0.4,0.4,0.8-0.1,1.1c-0.6,0.4-1.5,0.3-2.1-0.1
						c-0.7-0.4-0.8-1-0.4-1.4L40.8,96.8z"/>
				</g>
				<g class="st5">
					<path class="st0" d="M46.3,97.3l2.7,1.7l-0.6,0.4l-1-0.6l-2.5,1.6l-0.7-0.4l2.5-1.6l-1-0.6L46.3,97.3z"/>
				</g>
				<line class="st6" x1="72.9" y1="62.7" x2="72.9" y2="58.2"/>
				<line class="st6" x1="13.2" y1="26.9" x2="13.2" y2="23.2"/>
				<line class="st6" x1="25.6" y1="31.7" x2="25.6" y2="33.8"/>
				<line class="st6" x1="20.1" y1="28.6" x2="20.1" y2="30.6"/>
				<line class="st6" x1="27.1" y1="30.9" x2="27.1" y2="33"/>
				<line class="st7" x1="27.1" y1="32.9" x2="25.6" y2="33.8"/>
				<line class="st7" x1="27" y1="31" x2="25.6" y2="31.8"/>
				<line class="st7" x1="64.8" y1="48.7" x2="58.8" y2="52.2"/>
				<line class="st7" x1="69.4" y1="52.3" x2="64.2" y2="55.4"/>
				<line class="st6" x1="34.3" y1="35" x2="34.3" y2="37.1"/>
				<line class="st7" x1="39.4" y1="33.4" x2="63.7" y2="49.3"/>
				<line class="st7" x1="64.7" y1="48.7" x2="69.4" y2="51.7"/>
				<line class="st7" x1="39.4" y1="32.7" x2="64.1" y2="49"/>
				<line class="st7" x1="10.3" y1="25.7" x2="12.8" y2="27.1"/>
				<line class="st7" x1="20.1" y1="28.6" x2="25.6" y2="31.8"/>
				<line class="st7" x1="27.1" y1="31" x2="34.4" y2="35.2"/>
				<line class="st7" x1="27.1" y1="32.9" x2="34.3" y2="37.1"/>
				<line class="st7" x1="58.8" y1="52.2" x2="64.2" y2="55.4"/>
				<line class="st6" x1="72.9" y1="49.8" x2="72.9" y2="47.6"/>
				<polyline class="st6" points="63.7,59.5 62.8,59 61.8,59.6 14.7,32.4 14.7,30.1 				"/>
				<polyline class="st6" points="26.5,24.9 21.9,21.9 11.2,28.1 61.8,57.3 				"/>
				<line class="st6" x1="61.8" y1="57.3" x2="61.8" y2="59.6"/>
				<line class="st6" x1="62.9" y1="56.7" x2="61.8" y2="57.3"/>
				<polyline class="st6" points="62.8,59 62.8,56.7 58.8,54.3 				"/>
				<line class="st6" x1="72.9" y1="66.9" x2="72.9" y2="64.4"/>
				<polyline class="st6" points="78.5,57.3 81.6,59.3 81.6,61.9 72.9,66.9 63.7,61.6 63.7,59 67.4,56.9 				"/>
				<polyline class="st6" points="81.6,59.3 72.9,64.4 63.7,59 				"/>
				<polyline class="st7" points="12.2,28.6 12.2,29.8 14.7,31.3 				"/>
				<line class="st7" x1="20.1" y1="30.6" x2="25.6" y2="33.8"/>
				<line class="st7" x1="58.8" y1="54.3" x2="58.8" y2="52.2"/>
				<line class="st7" x1="64.2" y1="58.7" x2="64.2" y2="55.4"/>
				<polyline class="st7" points="76.5,48.7 72.9,50.8 69.4,48.8 				"/>
				<polyline class="st6" points="76.5,53.3 76.8,53.5 76.8,55 72.9,57.3 69,55 69,53.6 69.4,53.4 				"/>
				<line class="st6" x1="72.9" y1="57.3" x2="72.9" y2="50.8"/>
				<polyline class="st6" points="76.8,54 78.5,54.9 78.5,59.4 72.9,62.7 67.4,59.5 67.4,55 69,54.1 				"/>
				<polyline class="st6" points="78.5,54.9 72.9,58.2 67.5,55.1 				"/>
				<polyline class="st6" points="10.3,25.7 4.9,28.8 4.9,66.3 				"/>
				<polyline class="st6" points="16.2,22.2 20,20 27,24.6 				"/>
				<line class="st6" x1="72.9" y1="68.2" x2="72.9" y2="102.1"/>
				<line class="st6" x1="72.9" y1="102" x2="36.6" y2="81"/>
				<polyline class="st6" points="83.2,67.8 72.9,73.8 5,34.5 				"/>
				<polyline class="st6" points="83.2,70.7 72.9,76.6 5,37.3 				"/>
				<polyline class="st6" points="83.2,73.5 72.9,79.5 5,40.1 				"/>
				<polyline class="st6" points="83.2,76.3 72.9,82.3 5,43 				"/>
				<polyline class="st6" points="83.2,79.1 72.9,85.1 5,45.8 				"/>
				<polyline class="st6" points="83.2,82 72.9,87.9 5,48.6 				"/>
				<polyline class="st6" points="83.2,84.8 72.9,90.8 5,51.4 				"/>
				<polyline class="st6" points="83.2,87.6 72.9,93.6 5,54.3 				"/>
				<line class="st6" x1="83.2" y1="90.4" x2="80.7" y2="91.8"/>
				<polyline class="st6" points="75.3,95 72.9,96.4 5,57.1 				"/>
				<line class="st6" x1="80.7" y1="94.7" x2="83.2" y2="93.3"/>
				<polyline class="st6" points="75.3,97.8 72.9,99.2 5,59.9 				"/>
				<polyline class="st6" points="83.2,65 72.9,71 5,31.7 				"/>
				<line class="st6" x1="33.7" y1="79.4" x2="5" y2="62.7"/>
				<polyline class="st7" points="11.9,20.6 10.3,21.5 10.3,25.7 				"/>
				<polyline class="st7" points="14.8,20.6 16.2,21.5 16.2,25.1 				"/>
				<polyline class="st7" points="10.3,21.5 13.2,23.2 16.2,21.5 				"/>
				<polyline class="st6" points="74.1,45.9 74.9,46.4 74.9,48.6 72.9,49.8 70.8,48.6 70.8,46.4 71.9,45.8 				"/>
				<polyline class="st7" points="74.9,46.4 72.9,47.6 70.8,46.4 				"/>
				<g>
					<defs>
						<rect id="SVGID_5_" x="3.3" y="4.9" width="86.7" height="99.3"/>
					</defs>
					<clipPath id="SVGID_6_">
						<use xlink:href="#SVGID_5_"  style="overflow:visible;"/>
					</clipPath>
					<g class="st8">
						<path class="st6" d="M71,44.1c-0.1,0.1-0.1,0.2-0.2,0.3l0.1,0.3c0.1,0.2,0.6,0.3,1.3,0.1s2.3-1,2.5-1.9l-0.2-0.5
							c-0.2,0-0.3,0-0.5,0"/>
					</g>
				</g>
				<polyline class="st6" points="71.7,41 72.8,41.5 73.1,41.3 73.8,40.3 				"/>
				<g>
					<defs>
						<rect id="SVGID_7_" x="3.3" y="4.9" width="86.7" height="99.3"/>
					</defs>
					<clipPath id="SVGID_8_">
						<use xlink:href="#SVGID_7_"  style="overflow:visible;"/>
					</clipPath>
					<g class="st9">
						<path class="st6" d="M74.5,43.3c0.1,0.3,0.1,0.5,0,0.8c-0.2,1-1.1,1.6-2.1,1.4c-0.4-0.1-0.7-0.3-0.9-0.5l-0.1-0.1"/>
						<path class="st6" d="M71.1,44.4C71.1,44.3,71,44.2,71,44c-0.1-1,0.5-1.9,1.5-2c0.6-0.1,1.2,0.1,1.6,0.5
							c0.1,0.1,0.2,0.3,0.3,0.4"/>
						<path class="st6" d="M72.1,52.1c0.3,0.8,0.1,1.5-0.5,1.5S70.3,53,70,52.1s-0.1-1.5,0.5-1.5S71.8,51.3,72.1,52.1z"/>
						<path class="st6" d="M73.6,52.2c-0.3,0.8-0.1,1.5,0.5,1.5s1.3-0.7,1.6-1.5s0.1-1.5-0.5-1.5S73.9,51.3,73.6,52.2z"/>
						<path class="st10" d="M74.1,46c0-0.1,0-0.1,0-0.2c0,0,0-0.1-0.1-0.1c-0.1,0-0.2,0-0.3,0.1v-0.2l0.1-0.4"/>
						<path class="st7" d="M73.3,46c0,0.1,0,0.2,0.1,0.2s0.2,0.1,0.3,0"/>
					</g>
				</g>
				<polyline class="st7" points="72.3,46.7 72.3,46.5 72.5,46.1 72.5,46 72.1,45.9 71.7,45.7 71.8,45.2 				"/>
				<polyline class="st6" points="70.8,47.9 69.4,48.8 69.4,53.6 72.9,55.6 76.5,53.5 76.5,48.7 74.9,47.8 				"/>
				<g>
					<defs>
						<rect id="SVGID_9_" x="3.3" y="4.9" width="86.7" height="99.3"/>
					</defs>
					<clipPath id="SVGID_10_">
						<use xlink:href="#SVGID_9_"  style="overflow:visible;"/>
					</clipPath>
					<g class="st11">
						<path class="st7" d="M13.1,19c-0.7,0.1-1.2,0.8-1.2,1.5v1.1c0,0.4,0.7,0.8,1.5,0.8s1.5-0.3,1.5-0.8v-1.1
							c0-0.7-0.5-1.4-1.2-1.5v-0.2c0-0.1-0.1-0.2-0.2-0.2s-0.2,0.1-0.2,0.2L13.1,19z"/>
					</g>
				</g>
				<polyline class="st6" points="83.2,62.2 72.9,68.2 5,28.8 				"/>
				<polyline class="st6" points="36.6,81.5 34.6,80.4 32.8,81.4 35.3,82.9 36.6,82.1 				"/>
				<line class="st6" x1="36.6" y1="81.5" x2="34.6" y2="80.4"/>
				<line class="st6" x1="36.6" y1="83.2" x2="35.7" y2="82.7"/>
				<g>
					<defs>
						<rect id="SVGID_11_" x="3.3" y="4.9" width="86.7" height="99.3"/>
					</defs>
					<clipPath id="SVGID_12_">
						<use xlink:href="#SVGID_11_"  style="overflow:visible;"/>
					</clipPath>
					<g class="st12">
						<path class="st6" d="M35,78.2c-0.2,0.2-0.4,0.5-0.4,0.8v1.5"/>
					</g>
				</g>
				<polyline class="st6" points="34.2,82.2 33.7,82.5 4.9,66.3 				"/>
				<line class="st6" x1="33.7" y1="82.5" x2="33.7" y2="82"/>
				<g>
					<defs>
						<rect id="SVGID_13_" x="3.3" y="4.9" width="86.7" height="99.3"/>
					</defs>
					<clipPath id="SVGID_14_">
						<use xlink:href="#SVGID_13_"  style="overflow:visible;"/>
					</clipPath>
					<g class="st13">
						<path class="st6" d="M80.7,97.5V92l-5.4,3v5.6l-2.4,1.4l-18.3-8.6L40,86.1l-3.4-1.9v-3.8c-0.1-0.9-0.7-1.7-1.4-2.1
							c-0.4-0.3-1-0.2-1.3,0.3c-0.1,0.2-0.2,0.4-0.2,0.6v1.9"/>
					</g>
				</g>
				<polyline class="st6" points="76.9,97.8 76.9,96.4 76,96.9 76,98.4 				"/>
				<g>
					<defs>
						<rect id="SVGID_15_" x="3.3" y="4.9" width="86.7" height="99.3"/>
					</defs>
					<clipPath id="SVGID_16_">
						<use xlink:href="#SVGID_15_"  style="overflow:visible;"/>
					</clipPath>
					<g class="st14">
						<path class="st6" d="M81.6,61.2l1.6,1v33.9l-2.4,1.4c-1.2-0.4-2.5-0.3-3.7,0.3l-1.2,0.7c-0.2,0.1-0.4,0.2-0.6,0.4"/>
					</g>
				</g>
				<polyline class="st7" points="34.3,37.1 39.4,34.1 39.4,32.2 27.5,24.4 20.2,28.6 				"/>
				<line class="st7" x1="39.4" y1="32.2" x2="34.3" y2="35.1"/>
				<g>
					<defs>
						<rect id="SVGID_17_" x="3.3" y="4.9" width="86.7" height="99.3"/>
					</defs>
					<clipPath id="SVGID_18_">
						<use xlink:href="#SVGID_17_"  style="overflow:visible;"/>
					</clipPath>
					<g class="st15">
						<g class="st5">
							<path class="st0" d="M195.9,68.7c0.7,0.5,0.7,1,0.2,1.5l-0.6-0.4c0.2-0.2,0.2-0.5-0.2-0.7c-0.5-0.3-1.2-0.3-1.8,0.1
								c-0.6,0.3-0.8,0.8-0.3,1.1c0.3,0.2,0.7,0.3,1.1,0.2l0.6,0.4c-0.7,0.3-1.6,0.2-2.3-0.3c-0.8-0.6-0.7-1.4,0.2-1.9
								C193.8,68.1,195.1,68.1,195.9,68.7z"/>
						</g>
						<g class="st5">
							<path class="st0" d="M200.2,71.7l-2,2.6l-0.6-0.4l0.5-0.6l-1.1-0.8l-1,0.3l-0.6-0.4l4.3-1L200.2,71.7z M197.7,72.3l0.7,0.5
								l0.7-0.9L197.7,72.3z"/>
						</g>
						<g class="st5">
							<path class="st0" d="M202.4,73.3L205,75l-0.6,0.3l-1-0.7l-2.6,1.5l-0.6-0.4l2.6-1.5l-1-0.7L202.4,73.3z"/>
						</g>
						<g class="st5">
							<path class="st0" d="M209.2,78l-3.2,1.8l-0.6-0.4l1.3-0.8l-1.4-0.9l-1.3,0.8l-0.6-0.4l3.2-1.8l0.6,0.4l-1.3,0.7l1.4,0.9
								l1.3-0.7L209.2,78z"/>
						</g>
						<g class="st5">
							<path class="st0" d="M213,80.6l-0.6,0.3l-1.4-1l-0.7,0.4l1.3,0.9l-0.6,0.3l-1.3-0.9l-0.7,0.4l1.4,1l-0.6,0.3l-2-1.4l3.2-1.8
								L213,80.6z"/>
							<path class="st0" d="M213.3,83.3l-1.2,0.7l-0.6-0.4l3.2-1.8l1.2,0.9c0.6,0.4,0.7,0.9,0.1,1.3c-0.5,0.3-1.1,0.3-1.6,0.1
								l-0.4,1.3l-0.7-0.5l0.4-1.2L213.3,83.3z M213.8,83l0.6,0.4c0.3,0.2,0.6,0.2,0.9,0.1c0.3-0.2,0.3-0.4,0-0.6l-0.6-0.4L213.8,83
								z"/>
							<path class="st0" d="M216,86.8l-0.6-0.4l3.2-1.8l0.6,0.4L216,86.8z"/>
							<path class="st0" d="M220.3,89.7l-0.5-0.3l0.7-2.2l-2.1,1.2l-0.6-0.4l3.2-1.8l0.6,0.4l-0.7,2.1l2-1.2l0.6,0.4L220.3,89.7z"/>
							<path class="st0" d="M227.2,90.5l-0.6,0.3l-1.4-1l-0.7,0.4l1.3,0.9l-0.6,0.3l-1.3-0.9l-0.7,0.4l1.4,1l-0.6,0.3l-2-1.4
								l3.2-1.8L227.2,90.5z"/>
							<path class="st0" d="M231.1,93.2l0.6,0.4l-2.6,1.5l1.4,1l-0.6,0.3l-2-1.4L231.1,93.2z"/>
						</g>
						<g class="st5">
							<path class="st0" d="M234.1,99.3l-0.5-0.3l0.7-2.2l-2.1,1.2l-0.6-0.4l3.2-1.8l0.6,0.4l-0.7,2.1l2-1.2l0.6,0.4L234.1,99.3z"/>
						</g>
						<path class="st7" d="M260.4,95.3v-0.8c0-0.1-0.1-0.3-0.2-0.4"/>
						<path class="st7" d="M261,95.7v-1.2c0-0.3-0.2-0.7-0.8-0.3c-0.4,0.2-0.7,0.6-0.7,1.1v1.3l-6.7,3.9l-8.9-6.1l-11.2-7.7
							l-9.4-6.4l-13.9-9.6l-19.8-14.3V22.2l1.4-0.8"/>
						<path class="st7" d="M198.2,12.2c0.3,0.9,0.1,1.6-0.5,1.6s-1.3-0.7-1.6-1.6s-0.1-1.6,0.5-1.6S198,11.3,198.2,12.2z"/>
						<path class="st7" d="M199.8,12.2c-0.3,0.9-0.1,1.6,0.5,1.6s1.3-0.7,1.6-1.6s0.1-1.6-0.5-1.6S200.1,11.4,199.8,12.2z"/>
						<path class="st7" d="M197.1,4.1c0,0.1-0.2,0.2-0.2,0.3l0.1,0.3c0.1,0.2,0.6,0.3,1.3,0.1s2.3-1,2.5-1.9l-0.2-0.5
							c-0.2,0-0.3,0-0.5,0"/>
						<path class="st7" d="M200.7,3.4c0.1,0.2,0.1,0.5,0,0.8c-0.2,1-1.1,1.6-2.1,1.4c0,0,0,0,0,0c-0.4-0.1-0.7-0.3-0.9-0.5h-0.1"/>
						<path class="st7" d="M197.3,4.5c-0.1-0.1-0.1-0.3-0.1-0.4c-0.1-1,0.5-1.8,1.5-2c0.6-0.1,1.2,0.1,1.6,0.5
							c0.1,0.1,0.2,0.3,0.3,0.4"/>
						<path class="st7" d="M200.2,6.1c0-0.1,0-0.1,0-0.2c0,0-0.1-0.1-0.1-0.1c-0.1,0-0.2,0-0.3,0.1c0,0,0-0.1,0-0.1l0,0l0.1-0.4"/>
						<path class="st7" d="M199.4,6.1c0,0.1,0.1,0.2,0.1,0.2c0.1,0.1,0.3,0.1,0.4,0"/>
						<path class="st7" d="M258.7,51.5c-0.7,0.1-1.2,0.8-1.2,1.5v1.1c0,0.4,0.7,0.8,1.5,0.8s1.5-0.3,1.5-0.8V53
							c0-0.7-0.5-1.4-1.2-1.5v-0.2c0-0.1-0.1-0.2-0.2-0.2s-0.2,0.1-0.2,0.2V51.5z"/>
					</g>
				</g>
				<polygon class="st1" points="5,31.8 4.9,48.7 15.9,55 15.9,38 				"/>
				<line class="st16" x1="4.9" y1="34.5" x2="15.9" y2="40.8"/>
				<line class="st16" x1="4.9" y1="37.4" x2="15.9" y2="43.6"/>
				<line class="st16" x1="4.9" y1="40.2" x2="15.9" y2="46.5"/>
				<line class="st16" x1="4.9" y1="43" x2="15.9" y2="49.3"/>
				<line class="st16" x1="4.9" y1="45.8" x2="15.9" y2="52.1"/>
				<polygon class="st1" points="4.9,54.3 4.9,57.1 15.6,63.3 15.6,60.5 				"/>
				<g>
					<defs>
						<rect id="SVGID_19_" x="3.3" y="4.9" width="86.7" height="99.3"/>
					</defs>
					<clipPath id="SVGID_20_">
						<use xlink:href="#SVGID_19_"  style="overflow:visible;"/>
					</clipPath>
					<g class="st17">
						<path class="st1" d="M261.5,84.3l6.2-3.5v2.8l-6.2,3.5V84.3z"/>
					</g>
				</g>
				<g>
					<defs>
						<rect id="SVGID_21_" x="103.7" y="0.1" width="86.7" height="104.7"/>
					</defs>
					<clipPath id="SVGID_22_">
						<use xlink:href="#SVGID_21_"  style="overflow:visible;"/>
					</clipPath>
					<g class="st18">
						<path class="st6" d="M1.7,98.2v-5.5l-5.4,3v5.6l-2.4,1.4l-18.3-8.6l-14.6-7.4l-3.4-1.9V81c-0.1-0.9-0.6-1.7-1.4-2.1
							c-0.4-0.3-1-0.2-1.3,0.3c-0.1,0.2-0.2,0.4-0.2,0.6v1.9"/>
						<path class="st6" d="M2.5,61.9l1.6,1v33.9l-2.4,1.4c-1.2-0.4-2.5-0.3-3.7,0.3l-1.2,0.7c-0.2,0.1-0.4,0.2-0.5,0.4"/>
					</g>
				</g>
				<polyline class="st6" points="188.7,61.6 173.7,70.1 110.5,28.6 				"/>
				<polyline class="st6" points="188.7,64.5 173.7,73 110.5,31.4 				"/>
				<polyline class="st6" points="188.7,67.3 173.7,75.8 110.5,34.3 				"/>
				<polyline class="st6" points="188.7,70.1 173.7,78.6 110.5,37.1 				"/>
				<polyline class="st6" points="188.7,73 173.7,81.5 110.5,40 				"/>
				<polyline class="st6" points="188.7,75.8 173.7,84.3 110.5,42.8 				"/>
				<polyline class="st6" points="188.7,78.7 173.7,87.2 110.5,45.6 				"/>
				<polyline class="st6" points="188.7,81.5 173.7,90 110.5,48.5 				"/>
				<polyline class="st6" points="188.7,84.3 173.7,92.8 110.5,51.3 				"/>
				<polyline class="st6" points="188.7,87.2 173.7,95.7 110.5,54.1 				"/>
				<polyline class="st6" points="188.7,90 173.7,98.5 110.5,57 				"/>
				<line class="st6" x1="188.7" y1="90" x2="173.7" y2="98.5"/>
				<g class="st5">
					<path class="st0" d="M116.8,69.4c0.7,0.5,0.7,1.1,0.2,1.5l-0.6-0.4c0.2-0.2,0.2-0.5-0.2-0.7c-0.5-0.3-1.2-0.3-1.8,0.1
						c-0.6,0.3-0.8,0.8-0.3,1.1c0.3,0.2,0.7,0.3,1.1,0.2l0.6,0.4c-0.7,0.3-1.6,0.2-2.3-0.3c-0.8-0.6-0.7-1.4,0.2-1.9
						C114.8,68.8,116,68.8,116.8,69.4z"/>
				</g>
				<g class="st5">
					<path class="st0" d="M121.1,72.4l-2,2.6l-0.6-0.4L119,74l-1.1-0.8l-1,0.3l-0.6-0.4l4.3-1L121.1,72.4z M118.6,73l0.7,0.5
						l0.7-0.9L118.6,73z"/>
				</g>
				<g class="st5">
					<path class="st0" d="M123.3,74l2.6,1.8l-0.6,0.3l-1-0.7l-2.6,1.5l-0.6-0.4l2.6-1.5l-1-0.7L123.3,74z"/>
					<path class="st0" d="M130.1,78.7l-3.2,1.8l-0.6-0.4l1.3-0.8l-1.4-0.9l-1.3,0.8l-0.6-0.4l3.2-1.8l0.6,0.4l-1.3,0.7l1.4,0.9
						l1.3-0.7L130.1,78.7z"/>
					<path class="st0" d="M133.9,81.3l-0.6,0.3l-1.4-1l-0.7,0.4l1.3,0.9l-0.6,0.3l-1.3-0.9l-0.7,0.4l1.4,1l-0.6,0.3l-2-1.4l3.2-1.8
						L133.9,81.3z"/>
					<path class="st0" d="M134.2,84l-1.2,0.7l-0.6-0.4l3.2-1.8l1.2,0.9c0.6,0.4,0.7,0.9,0.1,1.3c-0.5,0.3-1.1,0.3-1.6,0.1l-0.4,1.3
						l-0.7-0.5l0.4-1.2L134.2,84z M134.7,83.7l0.6,0.4c0.3,0.2,0.6,0.2,0.9,0.1c0.3-0.2,0.3-0.4,0-0.6l-0.6-0.4L134.7,83.7z"/>
					<path class="st0" d="M136.9,87.4l-0.6-0.4l3.2-1.8l0.6,0.4L136.9,87.4z"/>
					<path class="st0" d="M141.2,90.4l-0.5-0.3l0.7-2.2l-2.1,1.2l-0.6-0.4l3.2-1.8l0.6,0.4l-0.7,2.1l2-1.2l0.6,0.4L141.2,90.4z"/>
					<path class="st0" d="M148.2,91.2l-0.6,0.3l-1.4-1l-0.7,0.4l1.3,0.9l-0.6,0.3l-1.3-0.9l-0.7,0.4l1.4,1L145,93l-2-1.4l3.2-1.8
						L148.2,91.2z"/>
					<path class="st0" d="M152,93.9l0.6,0.4l-2.6,1.5l1.4,1l-0.6,0.3l-2-1.4L152,93.9z"/>
				</g>
				<g class="st5">
					<path class="st0" d="M155.1,100l-0.5-0.3l0.7-2.2l-2.1,1.2l-0.6-0.4l3.2-1.8l0.6,0.4l-0.7,2.1l2-1.2l0.6,0.4L155.1,100z"/>
				</g>
				<polyline class="st7" points="188.7,58.8 173.7,67.3 110.5,25.8 				"/>
				<line class="st7" x1="173.7" y1="64.4" x2="173.7" y2="101.2"/>
				<line class="st7" x1="181.3" y1="96" x2="180.4" y2="96.6"/>
				<polyline class="st7" points="181.3,96 181.9,96.4 188.7,92.4 188.7,55.9 				"/>
				<polyline class="st7" points="188.7,55.9 173.7,64.4 110.5,22.9 				"/>
				<g>
					<defs>
						<rect id="SVGID_23_" x="103.7" y="0.1" width="86.7" height="104.7"/>
					</defs>
					<clipPath id="SVGID_24_">
						<use xlink:href="#SVGID_23_"  style="overflow:visible;"/>
					</clipPath>
					<g class="st19">
						<path class="st7" d="M181.3,96v-0.8c0-0.1-0.1-0.3-0.2-0.4"/>
						<path class="st7" d="M181.9,96.4v-1.2c0-0.3-0.2-0.7-0.8-0.3c-0.4,0.2-0.7,0.6-0.7,1.1v1.3l-6.7,3.9l-8.9-6.1l-11.2-7.7
							l-9.4-6.4l-13.9-9.6l-19.8-14.4V22.9l1.4-0.8"/>
					</g>
				</g>
				<line class="st7" x1="176.1" y1="57.4" x2="176.1" y2="55.9"/>
				<line class="st7" x1="119.5" y1="25.5" x2="119.5" y2="28.1"/>
				<line class="st7" x1="176.1" y1="57.4" x2="176.9" y2="57.9"/>
				<line class="st7" x1="176.1" y1="55.9" x2="176.9" y2="56.4"/>
				<line class="st7" x1="120" y1="10.4" x2="120" y2="8.5"/>
				<line class="st7" x1="120" y1="10.6" x2="120" y2="8.4"/>
				<line class="st7" x1="119.6" y1="23.6" x2="119.6" y2="19.1"/>
				<polyline class="st7" points="121.1,27.2 119.5,28.1 111.8,23 111.8,20.5 114.5,18.9 				"/>
				<polyline class="st7" points="119.9,16.4 123.6,14.3 123.6,9.6 123.6,9.5 122,8.4 				"/>
				<g>
					<defs>
						<rect id="SVGID_25_" x="103.7" y="0.1" width="86.7" height="104.7"/>
					</defs>
					<clipPath id="SVGID_26_">
						<use xlink:href="#SVGID_25_"  style="overflow:visible;"/>
					</clipPath>
					<g class="st20">
						<path class="st7" d="M119.2,12.9c0.3,0.9,0.1,1.6-0.5,1.6s-1.3-0.7-1.6-1.6s-0.1-1.6,0.5-1.6S118.9,12,119.2,12.9z"/>
						<path class="st7" d="M120.7,12.9c-0.3,0.9-0.1,1.6,0.5,1.6s1.3-0.7,1.6-1.6s0.1-1.6-0.5-1.6S121,12.1,120.7,12.9z"/>
					</g>
				</g>
				<line class="st7" x1="119.6" y1="19.1" x2="125.5" y2="15.7"/>
				<line class="st7" x1="114.5" y1="15.8" x2="119.6" y2="19.2"/>
				<line class="st7" x1="111.8" y1="20.5" x2="119.5" y2="25.5"/>
				<polyline class="st7" points="123.6,14.1 123.9,14.3 123.9,15.8 123.9,15.9 119.9,18.2 119.9,18.1 119.9,11.8 				"/>
				<polyline class="st7" points="116,14.9 114.5,15.8 114.5,20.2 114.5,20.3 119.6,23.6 				"/>
				<polyline class="st7" points="125.6,18 128.7,20.1 128.7,21.8 				"/>
				<line class="st7" x1="119.8" y1="11.8" x2="123.6" y2="9.6"/>
				<line class="st7" x1="116.4" y1="9.5" x2="117.9" y2="8.6"/>
				<line class="st7" x1="116.4" y1="9.5" x2="119.9" y2="11.9"/>
				<polyline class="st7" points="123.9,14.7 125.6,15.8 125.6,15.8 125.6,20.1 125.5,20.1 119.5,23.6 				"/>
				<line class="st7" x1="118" y1="7.2" x2="120" y2="8.5"/>
				<line class="st7" x1="121" y1="6.5" x2="122" y2="7.2"/>
				<g>
					<defs>
						<rect id="SVGID_27_" x="103.7" y="0.1" width="86.7" height="104.7"/>
					</defs>
					<clipPath id="SVGID_28_">
						<use xlink:href="#SVGID_27_"  style="overflow:visible;"/>
					</clipPath>
					<g class="st21">
						<path class="st7" d="M118.1,4.8c-0.1,0.1-0.1,0.2-0.2,0.3l0.1,0.3c0.1,0.2,0.6,0.3,1.3,0.1s2.3-1,2.5-1.9l-0.3-0.5
							c-0.2,0-0.3,0-0.5,0"/>
					</g>
				</g>
				<polyline class="st7" points="118.8,1.7 119.9,2.2 120.2,2.1 120.9,1.1 				"/>
				<g>
					<defs>
						<rect id="SVGID_29_" x="103.7" y="0.1" width="86.7" height="104.7"/>
					</defs>
					<clipPath id="SVGID_30_">
						<use xlink:href="#SVGID_29_"  style="overflow:visible;"/>
					</clipPath>
					<g class="st22">
						<path class="st7" d="M121.6,4.1c0.1,0.2,0.1,0.5,0,0.8c-0.2,1-1.1,1.6-2.1,1.4c-0.4-0.1-0.7-0.2-0.9-0.5l-0.1-0.1"/>
						<path class="st7" d="M118.2,5.2c-0.1-0.1-0.1-0.3-0.1-0.4c-0.1-1,0.5-1.9,1.5-2c0.6-0.1,1.2,0.1,1.6,0.5
							c0.1,0.1,0.2,0.3,0.3,0.4"/>
						<path class="st7" d="M121.2,6.8c0-0.1,0-0.1,0-0.2c0,0-0.1-0.1-0.1-0.1c-0.1,0-0.2,0-0.3,0.1c0,0,0-0.1,0-0.1l0,0l0.1-0.4"/>
						<path class="st7" d="M120.3,6.8c0,0.1,0.1,0.2,0.1,0.2s0.2,0.1,0.3,0"/>
					</g>
				</g>
				<polyline class="st7" points="119.4,7.4 119.4,7.3 119.6,6.9 119.6,6.8 119.2,6.7 118.8,6.4 118.9,6 				"/>
				<line class="st7" x1="116.5" y1="14.1" x2="119.9" y2="16.4"/>
				<polyline class="st7" points="119.9,18.3 116.1,15.8 116,15.7 116,14.4 116,14.4 116.4,14.1 116.4,14.1 116.4,9.5 				"/>
				<polyline class="st7" points="119,6.5 117.9,7.2 117.9,7.2 117.9,9.2 119.9,10.6 120,10.6 122,9.4 122,7.3 122,7.3 120,8.4 				
					"/>
				<line class="st7" x1="153.7" y1="44.3" x2="166.3" y2="52.3"/>
				<polyline class="st7" points="182.5,54.7 179.7,56.4 176.9,54.6 				"/>
				<line class="st7" x1="179.6" y1="60.4" x2="179.6" y2="56.4"/>
				<polyline class="st7" points="176.9,55.5 171.1,58.8 121.1,26.9 				"/>
				<line class="st6" x1="188.7" y1="55.9" x2="128.7" y2="21.2"/>
				<line class="st6" x1="168.1" y1="44.7" x2="132.5" y2="24.1"/>
				<line class="st7" x1="171.1" y1="60.3" x2="171.1" y2="58.8"/>
				<line class="st7" x1="166.3" y1="54" x2="166.3" y2="52.3"/>
				<polygon class="st7" points="173.8,47.8 173.8,49.6 166.3,54 153.7,46 153.7,44.3 159.3,41 166.7,45.5 168.2,44.6 				"/>
				<line class="st7" x1="173.8" y1="47.9" x2="166.3" y2="52.3"/>
				<line class="st7" x1="132.5" y1="24" x2="127.1" y2="27.2"/>
				<polygon class="st7" points="122.5,26 122.5,24.3 122.5,24.2 127.7,21.2 132.5,24 132.5,25.5 132.5,25.6 127.1,28.9 				"/>
				<polyline class="st7" points="176.1,57.4 171.1,60.3 121.1,28.4 121.1,28.4 121.1,26.9 122.5,26 				"/>
				<line class="st7" x1="127.1" y1="27.1" x2="122.5" y2="24.3"/>
				<line class="st7" x1="127.1" y1="28.8" x2="127.1" y2="27.1"/>
				<polyline class="st7" points="181.4,54 181.8,53.8 181.8,52.7 173.8,48 				"/>
				<line class="st7" x1="181.8" y1="52.6" x2="181.2" y2="53"/>
				<line class="st7" x1="128.7" y1="20.2" x2="119.5" y2="25.5"/>
				<polyline class="st7" points="178.4,53.7 176.9,54.6 176.9,58.7 179.7,60.4 182.5,58.8 182.5,54.7 181.3,54 				"/>
				<g>
					<defs>
						<rect id="SVGID_31_" x="103.7" y="0.1" width="86.7" height="104.7"/>
					</defs>
					<clipPath id="SVGID_32_">
						<use xlink:href="#SVGID_31_"  style="overflow:visible;"/>
					</clipPath>
					<g class="st23">
						<path class="st7" d="M179.6,52.2c-0.7,0.1-1.2,0.8-1.2,1.5v1.1c0,0.4,0.6,0.8,1.5,0.8s1.5-0.3,1.5-0.8v-1.1
							c0-0.7-0.5-1.4-1.2-1.5V52c0-0.1-0.1-0.2-0.2-0.2s-0.2,0.1-0.2,0.2V52.2z"/>
					</g>
				</g>
				<polygon class="st1" points="182.5,62.3 182.5,79.3 188.7,75.8 188.7,58.8 				"/>
				<line class="st16" x1="182.5" y1="65.1" x2="188.8" y2="61.6"/>
				<line class="st16" x1="182.5" y1="68" x2="188.8" y2="64.4"/>
				<line class="st16" x1="182.5" y1="70.8" x2="188.7" y2="67.3"/>
				<line class="st16" x1="182.5" y1="73.6" x2="188.7" y2="70.1"/>
				<line class="st16" x1="182.5" y1="76.5" x2="188.8" y2="72.9"/>
				<g>
					<defs>
						<rect id="SVGID_33_" x="103.7" y="0.1" width="86.7" height="104.7"/>
					</defs>
					<clipPath id="SVGID_34_">
						<use xlink:href="#SVGID_33_"  style="overflow:visible;"/>
					</clipPath>
					<g class="st24">
						<path class="st1" d="M182.5,85l6.2-3.5v2.8l-6.2,3.5V85z"/>
					</g>
				</g>
			</g>
		</g>
	</g>
</g>
</svg>
