<?xml version="1.0" encoding="utf-8"?>
<!-- Generator: Adobe Illustrator 23.0.0, SVG Export Plug-In . SVG Version: 6.00 Build 0)  -->
<svg version="1.1" id="Layer_1" xmlns="http://www.w3.org/2000/svg" xmlns:xlink="http://www.w3.org/1999/xlink" x="0px" y="0px"
	 viewBox="0 0 189.9 92.6" style="enable-background:new 0 0 189.9 92.6;" xml:space="preserve">
<style type="text/css">
	.st0{fill:#D2D3D4;}
	.st1{fill:#231F20;}
	.st2{clip-path:url(#SVGID_2_);}
	.st3{fill:none;stroke:#D1D3D4;stroke-width:1.09;stroke-miterlimit:10;}
	.st4{clip-path:url(#SVGID_4_);}
	.st5{fill:none;stroke:#231F20;stroke-width:0.15;stroke-miterlimit:10;}
	.st6{enable-background:new    ;}
	.st7{fill:#D1D3D4;}
	.st8{fill:none;stroke:#231F20;stroke-width:0.14;stroke-miterlimit:10;}
	.st9{clip-path:url(#SVGID_6_);}
	.st10{clip-path:url(#SVGID_8_);}
	.st11{clip-path:url(#SVGID_10_);}
	.st12{clip-path:url(#SVGID_12_);}
	.st13{clip-path:url(#SVGID_14_);}
	.st14{fill:none;stroke:#FFFFFF;stroke-width:0.15;stroke-miterlimit:10;}
</style>
<title>residence_L_7-12_key_horizontal</title>
<g>
	<g>
		<path class="st0" d="M83.6,43.8c-0.6,0-1-0.4-1-1.1v-1.4H86v1.3c0,0.7-0.3,1.1-0.9,1.1c-0.3,0-0.6-0.2-0.7-0.4
			C84.2,43.6,83.9,43.8,83.6,43.8z M83.2,41.9v0.7c0,0.3,0.2,0.5,0.4,0.5s0.4-0.2,0.4-0.5v-0.7H83.2z M84.6,42.5
			c0,0.3,0.1,0.5,0.4,0.5s0.4-0.2,0.4-0.5v-0.6h-0.8V42.5z"/>
		<path class="st0" d="M83.8,46.2h-1.3v-0.7H86v1.4c0.1,0.5-0.3,1.1-0.8,1.2c-0.1,0-0.2,0-0.3,0c-0.5,0-0.9-0.3-1-0.8l-1.3,0.9v-0.8
			l1.3-0.8L83.8,46.2z M84.4,46.2v0.6c0,0.4,0.2,0.5,0.5,0.5s0.5-0.2,0.5-0.5v-0.6H84.4z"/>
		<path class="st0" d="M82.5,51.2c-0.1-1,0.6-1.8,1.6-1.9c1-0.1,1.8,0.6,1.9,1.6s-0.6,1.8-1.6,1.9c-0.1,0-0.1,0-0.2,0
			c-0.9,0.1-1.7-0.6-1.7-1.5C82.5,51.3,82.5,51.3,82.5,51.2z M85.4,51.2c0-0.5-0.4-0.9-1.1-0.9s-1.1,0.3-1.1,0.9s0.5,0.9,1.1,0.9
			S85.4,51.8,85.4,51.2z"/>
		<path class="st0" d="M86,56.1l-3.4,1.3v-0.7l0.8-0.3v-1.3l-0.8-0.3v-0.7l3.4,1.3V56.1z M84,55.4v0.8l1.1-0.4L84,55.4z"/>
		<path class="st0" d="M86,59v1.2c0,0.9-0.8,1.7-1.7,1.7c-0.9,0-1.7-0.8-1.7-1.7V59H86z M83.2,60.2c0,0.6,0.5,1.1,1.1,1.1
			c0.6,0,1.1-0.5,1.1-1.1v-0.5h-2.2L83.2,60.2z"/>
		<path class="st0" d="M86,65.7l-2.3,0.6l2.3,0.6v0.7l-3.4-0.9V66l2.2-0.6l-2.2-0.6v-0.6l3.4-0.9V64l-2.3,0.6l2.3,0.6V65.7z"/>
		<path class="st0" d="M86,70.7L82.6,72v-0.7l0.8-0.3v-1.3l-0.8-0.3v-0.7L86,70V70.7z M84,69.9v0.8l1.1-0.4L84,69.9z"/>
		<path class="st0" d="M86,75.3v0.7l-2.1-1.2h-1.3v-0.7h1.3l2.1-1.2v0.8l-1.4,0.8L86,75.3z"/>
		<path class="st0" d="M180.9,35.1v0.7h-2.8v1.6h-0.6v-2.3H180.9z"/>
		<path class="st0" d="M180.9,40.8l-3.4,1.3v-0.7l0.8-0.3v-1.3l-0.8-0.3v-0.7l3.4,1.3V40.8z M179,40v0.8l1.1-0.4L179,40z"/>
		<path class="st0" d="M177.6,43.7h3.4V46h-0.6v-1.6h-0.9v1.4h-0.6v-1.4h-1.3V43.7z"/>
		<path class="st0" d="M180.9,49.2l-3.4,1.3v-0.7l0.8-0.3v-1.3l-0.8-0.3v-0.7l3.4,1.3V49.2z M178.9,48.4v0.8l1.1-0.4L178.9,48.4z"/>
		<path class="st0" d="M180.9,53.9v0.7l-2.1-1.2h-1.3v-0.7h1.3l2.1-1.2v0.8l-1.4,0.8L180.9,53.9z"/>
		<path class="st0" d="M180.9,58.5h-0.6v-1.6h-0.7v1.5H179v-1.5h-0.8v1.6h-0.6v-2.3h3.4L180.9,58.5z"/>
		<path class="st0" d="M180.9,60.1V63h-0.6v-1.1h-2.8v-0.7h2.8v-1.1H180.9z"/>
		<path class="st0" d="M180.9,64.4v2.9h-0.6v-1.1h-2.8v-0.7h2.8v-1.1H180.9z"/>
		<path class="st0" d="M180.9,71.3h-0.6v-1.6h-0.7v1.5H179v-1.5h-0.8v1.6h-0.6V69h3.4L180.9,71.3z"/>
		<path class="st0" d="M178.5,75.9c-0.3,0.1-0.5,0.4-0.4,0.7c0,0.3,0.2,0.6,0.4,0.6s0.3-0.1,0.4-0.4l0.1-0.6c0-0.5,0.4-0.9,0.9-0.8
			c0.6,0,1,0.6,1,1.1c0,0,0,0,0,0.1c0.1,0.6-0.4,1.2-1,1.3v-0.7c0.3-0.1,0.4-0.4,0.4-0.6c0-0.3-0.2-0.5-0.4-0.5s-0.3,0.1-0.4,0.4
			l-0.1,0.6c-0.1,0.6-0.4,0.9-0.9,0.9c-0.6,0-1.1-0.5-1.1-1.2c0,0,0-0.1,0-0.1c-0.1-0.7,0.4-1.3,1-1.4L178.5,75.9L178.5,75.9z"/>
		<path class="st0" d="M180.9,79.3v2.9h-0.6v-1.1h-2.8v-0.7h2.8v-1.1H180.9z"/>
		<path class="st0" d="M112.4,39.3h0.7v2.8h1.6v0.6h-2.3V39.3z"/>
		<path class="st0" d="M118.6,39.3v0.6H117v0.7h1.4v0.6H117v0.8h1.6v0.6h-2.3v-3.4H118.6z"/>
		<path class="st0" d="M121.6,42.7c-1,0.1-1.8-0.6-1.9-1.6c-0.1-1,0.6-1.8,1.6-1.9c1-0.1,1.8,0.6,1.9,1.6c0,0.1,0,0.1,0,0.2
			c0.1,0.9-0.6,1.7-1.5,1.7C121.7,42.7,121.7,42.7,121.6,42.7z M121.6,39.9c-0.5,0-0.9,0.5-0.9,1.1s0.3,1.1,0.9,1.1s0.9-0.5,0.9-1.1
			S122.2,39.9,121.6,39.9z"/>
		<path class="st0" d="M127.7,42.7h-0.6l-1.6-2.2v2.2h-0.7v-3.4h0.7l1.5,2.1v-2.1h0.7L127.7,42.7z"/>
		<path class="st0" d="M131.2,39.3l1.3,3.4h-0.7l-0.3-0.8h-1.3l-0.3,0.8h-0.7l1.3-3.4H131.2z M130.4,41.3h0.8l-0.4-1.1L130.4,41.3z"
			/>
		<path class="st0" d="M134.6,41.4v1.3H134v-3.4h1.4c0.6-0.1,1.1,0.3,1.2,0.9c0,0.1,0,0.1,0,0.2c0,0.5-0.3,0.9-0.8,1l0.9,1.3h-0.8
			l-0.9-1.3H134.6z M134.6,40.8h0.6c0.4,0,0.5-0.2,0.5-0.5s-0.2-0.5-0.5-0.5h-0.6V40.8z"/>
		<path class="st0" d="M138.1,39.3h1.2c0.9,0,1.7,0.8,1.7,1.7c0,0.9-0.8,1.7-1.7,1.7h-1.2V39.3z M139.3,42.1c0.6,0,1.1-0.5,1.1-1.1
			c0-0.6-0.5-1.1-1.1-1.1h-0.5v2.1H139.3z"/>
		<path class="st0" d="M145.4,41.7c0.1,0.3,0.4,0.5,0.7,0.4c0.3,0,0.6-0.2,0.6-0.4s-0.1-0.3-0.4-0.4l-0.6-0.1
			c-0.5-0.1-0.9-0.4-0.9-0.9c0-0.6,0.6-1,1.2-1c0,0,0,0,0,0c0.6-0.1,1.2,0.4,1.3,1h-0.7c-0.1-0.3-0.3-0.4-0.6-0.4
			c-0.3,0-0.5,0.2-0.5,0.4s0.1,0.3,0.4,0.4l0.6,0.1c0.6,0.1,0.9,0.4,0.9,1c0,0.7-0.5,1-1.2,1c-0.7,0.1-1.3-0.4-1.4-1L145.4,41.7z"/>
		<path class="st0" d="M148.6,39.3h2.9v0.6h-1.1v2.8h-0.7v-2.8h-1.1V39.3z"/>
		<path class="st0" d="M109.9,74.6c0.7,0,1.3,0.4,1.4,1.1h-0.7c-0.1-0.3-0.4-0.5-0.7-0.5c-0.5,0-0.8,0.5-0.8,1.1s0.3,1.1,0.8,1.1
			c0.3,0,0.6-0.2,0.7-0.5h0.7c-0.1,0.7-0.7,1.2-1.4,1.1c-1-0.1-1.7-1-1.6-1.9C108.4,75.3,109.1,74.6,109.9,74.6L109.9,74.6z"/>
		<path class="st0" d="M114.7,74.6l1.3,3.4h-0.7l-0.3-0.8h-1.3l-0.3,0.8h-0.7l1.3-3.4H114.7z M113.9,76.6h0.8l-0.4-1.1L113.9,76.6z"
			/>
		<path class="st0" d="M117,74.6h2.9v0.6h-1.1V78h-0.7v-2.8H117V74.6z"/>
		<path class="st0" d="M124.5,74.6V78h-0.7v-1.4h-1.5V78h-0.7v-3.4h0.7v1.3h1.5v-1.3H124.5z"/>
		<path class="st0" d="M128.7,74.6v0.6h-1.6V76h1.5v0.6h-1.4v0.8h1.6V78h-2.3v-3.4H128.7z"/>
		<path class="st0" d="M131.1,76.7V78h-0.7v-3.4h1.4c0.5-0.1,1.1,0.2,1.2,0.8c0,0.1,0,0.2,0,0.3c0,0.5-0.3,0.9-0.8,1l0.9,1.3h-0.8
			l-0.8-1.3L131.1,76.7z M131.1,76.1h0.6c0.4,0,0.5-0.2,0.5-0.5s-0.2-0.5-0.5-0.5h-0.6V76.1z"/>
		<path class="st0" d="M135.4,78h-0.7v-3.4h0.7V78z"/>
		<path class="st0" d="M140.1,78h-0.6l-1.6-2.3V78h-0.7v-3.4h0.7l1.5,2.1v-2.1h0.7L140.1,78z"/>
		<path class="st0" d="M144.2,74.6v0.6h-1.6V76h1.4v0.6h-1.4v0.8h1.6V78H142v-3.4H144.2z"/>
		<path class="st0" d="M148.4,74.6h0.7v2.8h1.6V78h-2.3V74.6z"/>
		<path class="st0" d="M155.2,78h-0.6l-1.6-2.2V78h-0.7v-3.4h0.6l1.5,2.1v-2.1h0.7L155.2,78L155.2,78z"/>
	</g>
	<g id="_4-6_H">
		<polygon class="st1" points="118.4,63.7 126.3,64.2 126.3,58.6 125.8,58.6 125.8,58.8 124.7,58.8 124.7,57.3 123.4,57.3 
			122.1,57.3 118.4,57.3 		"/>
		<g>
			<defs>
				<rect id="SVGID_1_" x="92.1" y="50.7" width="76.6" height="17.3"/>
			</defs>
			<clipPath id="SVGID_2_">
				<use xlink:href="#SVGID_1_"  style="overflow:visible;"/>
			</clipPath>
			<g class="st2">
				<polygon class="st3" points="166.9,51.8 166.9,66.8 93,62.3 93,51.8 				"/>
			</g>
		</g>
		<g>
			<defs>
				<rect id="SVGID_3_" x="4.4" y="6.9" width="61.4" height="73.7"/>
			</defs>
			<clipPath id="SVGID_4_">
				<use xlink:href="#SVGID_3_"  style="overflow:visible;"/>
			</clipPath>
			<g class="st4">
				<polyline class="st5" points="64.6,50.2 54,56.2 9.2,26.8 				"/>
				<polyline class="st5" points="64.6,52.2 54,58.2 9.2,28.9 				"/>
				<polyline class="st5" points="64.6,54.2 54,60.2 9.2,30.9 				"/>
				<polyline class="st5" points="64.6,56.2 54,62.2 9.2,32.9 				"/>
				<polyline class="st5" points="64.6,58.2 54,64.2 9.2,34.9 				"/>
				<polyline class="st5" points="64.6,60.2 54,66.3 9.2,36.9 				"/>
				<polyline class="st5" points="64.6,62.3 54,68.3 9.2,38.9 				"/>
				<polyline class="st5" points="64.6,64.3 54,70.3 9.2,40.9 				"/>
				<polyline class="st5" points="64.6,66.3 54,72.3 9.2,42.9 				"/>
				<polyline class="st5" points="64.6,68.3 54,74.3 9.2,44.9 				"/>
				<polyline class="st5" points="64.6,70.3 54,76.3 9.2,46.9 				"/>
				<line class="st5" x1="64.6" y1="70.3" x2="54" y2="76.3"/>
				<g class="st6">
					<path class="st7" d="M13.7,55.6c0.5,0.4,0.5,0.7,0.1,1.1l-0.4-0.3c0.1-0.2,0.1-0.3-0.1-0.5c-0.3-0.2-0.9-0.2-1.3,0.1
						c-0.4,0.2-0.5,0.6-0.2,0.8c0.2,0.2,0.5,0.2,0.8,0.1l0.4,0.3c-0.5,0.2-1.1,0.2-1.7-0.2c-0.6-0.4-0.5-1,0.2-1.4
						C12.3,55.2,13.2,55.2,13.7,55.6z"/>
				</g>
				<g class="st6">
					<path class="st7" d="M16.8,57.8l-1.4,1.9l-0.5-0.3l0.3-0.4l-0.8-0.6l-0.7,0.2l-0.4-0.3l3.1-0.7L16.8,57.8z M15,58.2l0.5,0.4
						L16,58L15,58.2z"/>
				</g>
				<g class="st6">
					<path class="st7" d="M18.3,58.9l1.8,1.3l-0.4,0.2L19,59.9L17.2,61l-0.4-0.3l1.8-1.1l-0.7-0.5L18.3,58.9z"/>
					<path class="st7" d="M23.1,62.2l-2.2,1.3l-0.4-0.3l0.9-0.5l-1-0.7l-0.9,0.5L19,62.2l2.2-1.3l0.4,0.3l-0.9,0.5l1,0.7l0.9-0.5
						L23.1,62.2z"/>
					<path class="st7" d="M25.8,64.1l-0.4,0.2l-1-0.7l-0.5,0.3l0.9,0.6l-0.4,0.2l-0.9-0.6L23,64.4l1,0.7l-0.4,0.2l-1.4-1l2.2-1.3
						L25.8,64.1z"/>
					<path class="st7" d="M26,66l-0.8,0.5l-0.4-0.3l2.2-1.3l0.9,0.6c0.4,0.3,0.5,0.7,0,0.9c-0.4,0.2-0.8,0.2-1.1,0l-0.3,0.9L25.9,67
						l0.3-0.9L26,66z M26.4,65.8l0.4,0.3c0.2,0.2,0.5,0.2,0.6,0.1c0.2-0.1,0.2-0.3,0-0.4L27,65.4L26.4,65.8z"/>
					<path class="st7" d="M28,68.4l-0.4-0.3l2.2-1.3l0.4,0.3L28,68.4z"/>
					<path class="st7" d="M31,70.5l-0.4-0.2l0.5-1.6l-1.5,0.9l-0.4-0.3l2.2-1.3l0.4,0.3l-0.5,1.5l1.4-0.8l0.4,0.3L31,70.5z"/>
					<path class="st7" d="M35.9,71.1l-0.4,0.2l-1-0.7L34,70.9l0.9,0.6l-0.4,0.2l-0.9-0.6l-0.5,0.3l1,0.7l-0.4,0.2l-1.4-1l2.2-1.3
						L35.9,71.1z"/>
					<path class="st7" d="M38.7,73l0.4,0.3l-1.8,1.1l1,0.7l-0.4,0.2l-1.4-1L38.7,73z"/>
				</g>
				<g class="st6">
					<path class="st7" d="M40.8,77.3l-0.3-0.2l0.5-1.6l-1.5,0.9L39,76.1l2.2-1.3l0.4,0.3l-0.5,1.5l1.4-0.8L43,76L40.8,77.3z"/>
				</g>
				<polyline class="st8" points="64.6,48.2 54,54.2 9.2,24.8 				"/>
				<line class="st8" x1="54" y1="52.2" x2="54" y2="78.2"/>
				<line class="st8" x1="59.4" y1="74.5" x2="58.7" y2="74.9"/>
				<polyline class="st8" points="59.4,74.5 59.8,74.8 64.6,72 64.6,46.2 				"/>
				<polyline class="st8" points="64.6,46.2 54,52.2 9.2,22.8 				"/>
				<g>
					<defs>
						<rect id="SVGID_5_" x="4.4" y="6.9" width="61.3" height="73.7"/>
					</defs>
					<clipPath id="SVGID_6_">
						<use xlink:href="#SVGID_5_"  style="overflow:visible;"/>
					</clipPath>
					<g class="st9">
						<path class="st8" d="M59.4,74.5V74c0-0.1,0-0.2-0.1-0.3"/>
						<path class="st8" d="M59.8,74.8V74c0-0.2-0.2-0.5-0.6-0.2c-0.3,0.2-0.5,0.5-0.5,0.8v0.9L54,78.2l-6.3-4.3l-7.9-5.4l-6.7-4.6
							l-9.8-6.8L9.2,47V22.8l1-0.6"/>
					</g>
				</g>
				<line class="st8" x1="55.7" y1="47.2" x2="55.7" y2="46.2"/>
				<line class="st8" x1="15.6" y1="24.7" x2="15.6" y2="26.5"/>
				<line class="st8" x1="55.7" y1="47.2" x2="56.2" y2="47.6"/>
				<line class="st8" x1="55.7" y1="46.2" x2="56.2" y2="46.5"/>
				<line class="st8" x1="15.9" y1="14" x2="15.9" y2="12.6"/>
				<line class="st8" x1="15.9" y1="14.1" x2="15.9" y2="12.5"/>
				<line class="st8" x1="15.7" y1="23.3" x2="15.7" y2="20.1"/>
				<polyline class="st8" points="16.7,25.8 15.6,26.5 10.2,22.9 10.2,21.1 12.1,20 				"/>
				<polyline class="st8" points="15.9,18.2 18.5,16.7 18.5,13.4 18.5,13.3 17.4,12.6 				"/>
				<g>
					<defs>
						<rect id="SVGID_7_" x="4.4" y="6.9" width="61.3" height="73.7"/>
					</defs>
					<clipPath id="SVGID_8_">
						<use xlink:href="#SVGID_7_"  style="overflow:visible;"/>
					</clipPath>
					<g class="st10">
						<path class="st8" d="M15.4,15.7c0.2,0.6,0,1.1-0.4,1.1s-0.9-0.5-1.1-1.1s-0.1-1.1,0.4-1.1S15.2,15.1,15.4,15.7z"/>
						<path class="st8" d="M16.5,15.8c-0.2,0.6,0,1.1,0.4,1.1s0.9-0.5,1.1-1.1s0-1.1-0.4-1.1S16.7,15.1,16.5,15.8z"/>
					</g>
				</g>
				<line class="st8" x1="15.7" y1="20.1" x2="19.9" y2="17.7"/>
				<line class="st8" x1="12.1" y1="17.8" x2="15.7" y2="20.2"/>
				<line class="st8" x1="10.2" y1="21.1" x2="15.6" y2="24.7"/>
				<polyline class="st8" points="18.5,16.5 18.7,16.7 18.7,17.8 18.7,17.8 15.9,19.5 15.9,19.4 15.9,14.9 				"/>
				<polyline class="st8" points="13.2,17.1 12.1,17.8 12.1,20.9 12.1,20.9 15.7,23.3 				"/>
				<polyline class="st8" points="20,19.4 22.1,20.8 22.1,22 				"/>
				<line class="st8" x1="15.9" y1="15" x2="18.5" y2="13.4"/>
				<line class="st8" x1="13.5" y1="13.3" x2="14.5" y2="12.7"/>
				<line class="st8" x1="13.5" y1="13.3" x2="15.9" y2="15"/>
				<polyline class="st8" points="18.7,17 19.9,17.8 19.9,17.8 19.9,20.8 19.9,20.9 15.6,23.3 				"/>
				<line class="st8" x1="14.5" y1="11.7" x2="15.9" y2="12.6"/>
				<line class="st8" x1="16.7" y1="11.2" x2="17.4" y2="11.7"/>
				<g>
					<defs>
						<rect id="SVGID_9_" x="4.4" y="6.9" width="61.3" height="73.7"/>
					</defs>
					<clipPath id="SVGID_10_">
						<use xlink:href="#SVGID_9_"  style="overflow:visible;"/>
					</clipPath>
					<g class="st11">
						<path class="st8" d="M14.6,10c0,0.1-0.1,0.2-0.1,0.2l0.1,0.2c0.1,0.1,0.4,0.2,0.9,0.1c0.5-0.2,1.6-0.7,1.8-1.3l-0.2-0.3
							c-0.1,0-0.2,0-0.4,0"/>
					</g>
				</g>
				<polyline class="st8" points="15.1,7.8 15.9,8.2 16.1,8.1 16.6,7.3 				"/>
				<g>
					<defs>
						<rect id="SVGID_11_" x="4.4" y="6.9" width="61.3" height="73.7"/>
					</defs>
					<clipPath id="SVGID_12_">
						<use xlink:href="#SVGID_11_"  style="overflow:visible;"/>
					</clipPath>
					<g class="st12">
						<path class="st8" d="M17.1,9.5c0,0.2,0,0.4,0,0.5c-0.1,0.7-0.8,1.1-1.5,1c0,0,0,0,0,0c-0.3,0-0.5-0.2-0.7-0.4h-0.1"/>
						<path class="st8" d="M14.7,10.3c0-0.1-0.1-0.2-0.1-0.3c-0.1-0.7,0.4-1.3,1.1-1.4c0,0,0,0,0,0c0.4-0.1,0.8,0.1,1.1,0.4
							C16.9,9,17,9.1,17,9.2"/>
						<path class="st8" d="M16.8,11.4c0,0,0-0.1,0-0.1c0,0,0-0.1-0.1-0.1c-0.1,0-0.1,0-0.2,0v-0.1l0.1-0.3"/>
						<path class="st8" d="M16.2,11.4c0,0,0,0.1,0,0.1c0.1,0.1,0.2,0.1,0.2,0c0,0,0,0,0,0"/>
					</g>
				</g>
				<polyline class="st8" points="15.5,11.9 15.5,11.8 15.7,11.5 15.7,11.4 15.4,11.3 15.1,11.2 15.2,10.9 				"/>
				<line class="st8" x1="13.5" y1="16.6" x2="15.9" y2="18.2"/>
				<polyline class="st8" points="15.9,19.5 13.2,17.8 13.2,17.7 13.2,16.8 13.2,16.8 13.4,16.6 13.5,16.6 13.5,13.3 				"/>
				<polyline class="st8" points="15.3,11.2 14.5,11.7 14.5,11.7 14.5,13.1 15.9,14.1 15.9,14.1 17.4,13.2 17.4,11.8 17.4,11.8 
					16,12.6 				"/>
				<line class="st8" x1="39.8" y1="37.9" x2="48.7" y2="43.6"/>
				<polyline class="st8" points="60.2,45.3 58.2,46.5 56.3,45.2 				"/>
				<line class="st8" x1="58.2" y1="49.3" x2="58.2" y2="46.5"/>
				<polyline class="st8" points="56.2,45.8 52.2,48.2 16.7,25.6 				"/>
				<line class="st5" x1="64.6" y1="46.2" x2="22.1" y2="21.6"/>
				<line class="st5" x1="50" y1="38.2" x2="24.9" y2="23.6"/>
				<line class="st8" x1="52.2" y1="49.3" x2="52.2" y2="48.2"/>
				<line class="st8" x1="48.7" y1="44.8" x2="48.7" y2="43.6"/>
				<polygon class="st8" points="54,40.5 54,41.7 48.8,44.8 39.8,39.2 39.8,38 43.8,35.6 49,38.8 50.1,38.2 				"/>
				<line class="st8" x1="54" y1="40.5" x2="48.7" y2="43.6"/>
				<line class="st8" x1="24.9" y1="23.6" x2="21" y2="25.8"/>
				<polygon class="st8" points="17.8,25 17.8,23.8 17.8,23.8 21.4,21.6 24.9,23.6 24.9,24.7 24.9,24.7 21,27 				"/>
				<polyline class="st8" points="55.7,47.2 52.2,49.3 16.7,26.7 16.7,26.7 16.7,25.6 17.8,25 				"/>
				<line class="st8" x1="21" y1="25.8" x2="17.8" y2="23.8"/>
				<line class="st8" x1="21" y1="27" x2="21" y2="25.8"/>
				<polyline class="st8" points="59.4,44.8 59.7,44.7 59.7,43.9 54,40.6 				"/>
				<line class="st8" x1="59.7" y1="43.8" x2="59.3" y2="44.1"/>
				<line class="st8" x1="22.1" y1="20.9" x2="15.6" y2="24.7"/>
				<polyline class="st8" points="57.3,44.6 56.2,45.2 56.2,48.1 58.2,49.3 60.2,48.2 60.2,45.3 59.4,44.8 				"/>
				<g>
					<defs>
						<rect id="SVGID_13_" x="4.4" y="6.9" width="61.3" height="73.7"/>
					</defs>
					<clipPath id="SVGID_14_">
						<use xlink:href="#SVGID_13_"  style="overflow:visible;"/>
					</clipPath>
					<g class="st13">
						<path class="st8" d="M58.2,43.5c-0.5,0.1-0.9,0.6-0.9,1.1v0.8c0,0.3,0.5,0.5,1,0.5s1-0.2,1-0.5v-0.8c0-0.5-0.4-1-0.9-1.1v-0.1
							c0-0.1-0.1-0.1-0.2-0.1s-0.2,0.1-0.2,0.1L58.2,43.5z"/>
					</g>
				</g>
				<polygon class="st1" points="24.4,34.8 24.4,46.8 29.2,50 29.2,38 				"/>
				<line class="st14" x1="29.2" y1="40" x2="24.4" y2="36.8"/>
				<line class="st14" x1="29.2" y1="42" x2="24.4" y2="38.8"/>
				<line class="st14" x1="29.2" y1="44" x2="24.4" y2="40.8"/>
				<line class="st14" x1="29.2" y1="46" x2="24.4" y2="42.8"/>
				<line class="st14" x1="29.2" y1="48" x2="24.4" y2="44.8"/>
			</g>
		</g>
	</g>
</g>
</svg>
