<?xml version="1.0" encoding="utf-8"?>
<!-- Generator: Adobe Illustrator 23.0.0, SVG Export Plug-In . SVG Version: 6.00 Build 0)  -->
<svg version="1.1" id="Layer_1" xmlns="http://www.w3.org/2000/svg" xmlns:xlink="http://www.w3.org/1999/xlink" x="0px" y="0px"
	 viewBox="0 0 200.6 198.9" style="enable-background:new 0 0 200.6 198.9;" xml:space="preserve">
<style type="text/css">
	.st0{enable-background:new    ;}
	.st1{fill:#D1D3D4;}
	.st2{fill:#231F20;}
	.st3{clip-path:url(#SVGID_2_);}
	.st4{fill:none;stroke:#D1D3D4;stroke-width:1.09;stroke-miterlimit:10;}
	.st5{clip-path:url(#SVGID_4_);}
	.st6{fill:none;stroke:#231F20;stroke-width:0.15;stroke-miterlimit:10;}
	.st7{fill:none;stroke:#231F20;stroke-width:0.14;stroke-miterlimit:10;}
	.st8{clip-path:url(#SVGID_6_);}
	.st9{clip-path:url(#SVGID_8_);}
	.st10{fill:none;stroke:#231F20;stroke-width:0.14;stroke-linejoin:bevel;}
	.st11{clip-path:url(#SVGID_10_);}
	.st12{clip-path:url(#SVGID_12_);}
	.st13{clip-path:url(#SVGID_14_);}
	.st14{clip-path:url(#SVGID_16_);}
	.st15{clip-path:url(#SVGID_18_);}
	.st16{fill:none;stroke:#FFFFFF;stroke-width:0.15;stroke-miterlimit:10;}
	.st17{clip-path:url(#SVGID_20_);}
	.st18{clip-path:url(#SVGID_22_);}
	.st19{clip-path:url(#SVGID_24_);}
	.st20{clip-path:url(#SVGID_26_);}
	.st21{clip-path:url(#SVGID_28_);}
	.st22{clip-path:url(#SVGID_30_);}
</style>
<title>residence_E_4-12_key</title>
<g>
	<g id="Layer_1_copy">
		<g>
			<g class="st0">
				<path class="st1" d="M34,143.2c-0.8,0-1.2-0.5-1.2-1.4V140h4.3v1.6c0,0.9-0.4,1.5-1.2,1.5c-0.5,0-0.8-0.3-0.9-0.6
					C34.9,142.9,34.5,143.2,34,143.2z M33.6,140.8v0.8c0,0.4,0.2,0.6,0.5,0.6c0.3,0,0.5-0.2,0.5-0.6v-0.8H33.6z M35.3,141.5
					c0,0.4,0.2,0.7,0.5,0.7c0.3,0,0.5-0.2,0.5-0.7v-0.7h-1V141.5z"/>
				<path class="st1" d="M34.4,145.7h-1.6v-0.9h4.3v1.8c0,0.9-0.5,1.5-1.4,1.5c-0.7,0-1.1-0.4-1.3-1l-1.7,1.1v-1l1.6-1.1V145.7z
					 M35.1,145.7v0.8c0,0.4,0.2,0.7,0.6,0.7c0.4,0,0.6-0.2,0.6-0.7v-0.8H35.1z"/>
			</g>
			<g class="st0">
				<path class="st1" d="M32.7,152.7c0-1.2,0.9-2,2.2-2c1.3,0,2.2,0.8,2.2,2c0,1.2-0.9,2-2.2,2C33.7,154.7,32.7,153.9,32.7,152.7z
					 M36.4,152.7c0-0.7-0.6-1.1-1.4-1.1c-0.8,0-1.4,0.4-1.4,1.1c0,0.7,0.6,1.1,1.4,1.1C35.8,153.8,36.4,153.4,36.4,152.7z"/>
			</g>
			<g class="st0">
				<path class="st1" d="M37.1,158.9l-4.3,1.6v-0.9l1-0.4v-1.6l-1-0.4v-0.9l4.3,1.6V158.9z M34.6,157.9v1.1l1.4-0.5L34.6,157.9z"/>
			</g>
			<g class="st0">
				<path class="st1" d="M37.1,162.6v1.5c0,1.3-0.8,2.1-2.2,2.1s-2.2-0.8-2.2-2.1v-1.5H37.1z M33.6,164.1c0,0.8,0.5,1.3,1.4,1.3
					c0.8,0,1.4-0.4,1.4-1.3v-0.6h-2.7V164.1z"/>
			</g>
			<g class="st0">
				<path class="st1" d="M37.1,171.1l-2.9,0.7l2.9,0.7v0.9l-4.3-1.1v-0.8l2.8-0.8l-2.8-0.8v-0.8l4.3-1.1v0.9l-2.9,0.7l2.9,0.8V171.1
					z"/>
			</g>
			<g class="st0">
				<path class="st1" d="M37.1,177.4l-4.3,1.6v-0.9l1-0.4v-1.6l-1-0.4v-0.9l4.3,1.6V177.4z M34.6,176.4v1.1l1.4-0.5L34.6,176.4z"/>
			</g>
			<g class="st0">
				<path class="st1" d="M37.1,183.3v0.9l-2.7-1.6h-1.6v-0.9h1.6l2.7-1.5v1l-1.8,1L37.1,183.3z"/>
			</g>
		</g>
		<g>
			<g class="st0">
				<path class="st1" d="M167.5,132.1v0.9H164v2h-0.8v-2.9H167.5z"/>
			</g>
			<g class="st0">
				<path class="st1" d="M167.5,139.4l-4.3,1.6v-0.9l1-0.4v-1.6l-1-0.4v-0.9l4.3,1.6V139.4z M165,138.4v1.1l1.4-0.5L165,138.4z"/>
			</g>
			<g class="st0">
				<path class="st1" d="M163.2,143.1h4.3v2.9h-0.8v-2h-1.1v1.8h-0.8V144h-1.6V143.1z"/>
			</g>
			<g class="st0">
				<path class="st1" d="M167.5,150.1l-4.3,1.6v-0.9l1-0.4v-1.6l-1-0.4v-0.9l4.3,1.6V150.1z M165,149.1v1.1l1.4-0.5L165,149.1z"/>
			</g>
			<g class="st0">
				<path class="st1" d="M167.5,156v0.9l-2.7-1.6h-1.6v-0.9h1.6l2.7-1.5v1l-1.8,1L167.5,156z"/>
				<path class="st1" d="M167.5,161.4h-0.8v-2h-0.9v1.8h-0.8v-1.8h-1v2h-0.8v-2.9h4.3V161.4z"/>
				<path class="st1" d="M167.5,162.8v3.7h-0.8v-1.4h-3.5v-0.9h3.5v-1.4H167.5z"/>
				<path class="st1" d="M167.5,167.8v3.7h-0.8v-1.4h-3.5v-0.9h3.5v-1.4H167.5z"/>
				<path class="st1" d="M167.5,176h-0.8v-2h-0.9v1.8h-0.8v-1.8h-1v2h-0.8V173h4.3V176z"/>
			</g>
			<g class="st0">
				<path class="st1" d="M164.5,184.1c-0.4,0.1-0.6,0.4-0.6,0.9c0,0.4,0.2,0.7,0.5,0.7c0.3,0,0.4-0.2,0.5-0.5l0.2-0.8
					c0.1-0.6,0.5-1.1,1.2-1.1c0.8,0,1.3,0.6,1.3,1.5c0,1-0.5,1.5-1.2,1.7v-0.9c0.3-0.1,0.5-0.3,0.5-0.8c0-0.4-0.2-0.7-0.5-0.7
					c-0.2,0-0.4,0.2-0.5,0.5l-0.2,0.8c-0.2,0.7-0.6,1.1-1.2,1.1c-0.8,0-1.3-0.7-1.3-1.6c0-1,0.5-1.6,1.3-1.8V184.1z"/>
			</g>
			<g class="st0">
				<path class="st1" d="M167.5,188.4v3.7h-0.8v-1.4h-3.5v-0.9h3.5v-1.4H167.5z"/>
			</g>
		</g>
		<g>
			<g class="st0">
				<path class="st1" d="M75.5,132.3h0.9v3.5h2v0.8h-2.9V132.3z"/>
				<path class="st1" d="M82.9,132.3v0.8h-2v0.9h1.8v0.8h-1.8v1h2v0.8H80v-4.3H82.9z"/>
			</g>
			<g class="st0">
				<path class="st1" d="M87.3,136.7c-1.2,0-2-0.9-2-2.2c0-1.3,0.8-2.2,2-2.2c1.2,0,2,0.9,2,2.2C89.3,135.8,88.5,136.7,87.3,136.7z
					 M87.3,133.1c-0.7,0-1.1,0.6-1.1,1.4c0,0.8,0.4,1.4,1.1,1.4c0.7,0,1.1-0.6,1.1-1.4C88.4,133.7,88,133.1,87.3,133.1z"/>
			</g>
			<g class="st0">
				<path class="st1" d="M94.9,136.7h-0.7l-2-2.9v2.9h-0.9v-4.3h0.8l1.9,2.7v-2.7h0.9V136.7z"/>
			</g>
			<g class="st0">
				<path class="st1" d="M99.4,132.3l1.6,4.3h-0.9l-0.4-1h-1.6l-0.4,1h-0.9l1.6-4.3H99.4z M98.4,134.9h1.1l-0.5-1.4L98.4,134.9z"/>
			</g>
			<g class="st0">
				<path class="st1" d="M103.8,135v1.6h-0.9v-4.3h1.8c0.9,0,1.5,0.5,1.5,1.4c0,0.7-0.4,1.1-1,1.3l1.1,1.7h-1l-1.1-1.6H103.8z
					 M103.8,134.3h0.8c0.4,0,0.7-0.2,0.7-0.6c0-0.4-0.2-0.6-0.7-0.6h-0.8V134.3z"/>
				<path class="st1" d="M107.9,132.3h1.5c1.3,0,2.1,0.8,2.1,2.2s-0.8,2.2-2.1,2.2h-1.5V132.3z M109.3,135.9c0.8,0,1.3-0.5,1.3-1.4
					c0-0.8-0.4-1.4-1.3-1.4h-0.6v2.7H109.3z"/>
			</g>
			<g class="st0">
				<path class="st1" d="M117.5,135.4c0.1,0.4,0.4,0.6,0.9,0.6c0.4,0,0.7-0.2,0.7-0.5c0-0.3-0.2-0.4-0.5-0.5l-0.8-0.2
					c-0.6-0.1-1.1-0.5-1.1-1.2c0-0.8,0.6-1.3,1.5-1.3c1,0,1.5,0.5,1.7,1.2H119c-0.1-0.3-0.3-0.5-0.8-0.5c-0.4,0-0.7,0.2-0.7,0.5
					c0,0.2,0.2,0.4,0.5,0.5l0.8,0.2c0.7,0.2,1.1,0.6,1.1,1.2c0,0.8-0.7,1.3-1.6,1.3c-1,0-1.6-0.5-1.8-1.3H117.5z"/>
			</g>
			<g class="st0">
				<path class="st1" d="M121.6,132.3h3.7v0.8h-1.4v3.5H123v-3.5h-1.4V132.3z"/>
			</g>
		</g>
		<g>
			<g class="st0">
				<path class="st1" d="M72.3,186c1,0,1.6,0.6,1.8,1.5h-0.9c-0.1-0.4-0.4-0.7-0.9-0.7c-0.7,0-1.1,0.6-1.1,1.4
					c0,0.8,0.4,1.4,1.1,1.4c0.5,0,0.8-0.3,0.9-0.7h0.9c-0.2,0.9-0.8,1.5-1.8,1.5c-1.1,0-2-0.9-2-2.2C70.3,186.9,71.2,186,72.3,186z"
					/>
			</g>
			<g class="st0">
				<path class="st1" d="M78.4,186l1.6,4.3h-0.9l-0.4-1h-1.6l-0.4,1h-0.9l1.6-4.3H78.4z M77.4,188.6h1.1l-0.5-1.4L77.4,188.6z"/>
			</g>
			<g class="st0">
				<path class="st1" d="M81.4,186h3.7v0.8h-1.4v3.5h-0.9v-3.5h-1.4V186z"/>
			</g>
			<g class="st0">
				<path class="st1" d="M90.9,186v4.3H90v-1.8h-1.9v1.8h-0.9V186h0.9v1.7H90V186H90.9z"/>
			</g>
			<g class="st0">
				<path class="st1" d="M96.2,186v0.8h-2v0.9H96v0.8h-1.8v1h2v0.8h-2.9V186H96.2z"/>
				<path class="st1" d="M98.8,188.7v1.6h-0.9V186h1.8c0.9,0,1.5,0.5,1.5,1.4c0,0.7-0.4,1.1-1,1.3l1.1,1.7h-1l-1.1-1.6H98.8z
					 M98.8,188h0.8c0.4,0,0.7-0.2,0.7-0.6c0-0.4-0.2-0.6-0.7-0.6h-0.8V188z"/>
			</g>
			<g class="st0">
				<path class="st1" d="M104.8,190.3h-0.9V186h0.9V190.3z"/>
			</g>
			<g class="st0">
				<path class="st1" d="M110.8,190.3h-0.7l-2-2.9v2.9h-0.9V186h0.8l1.9,2.7V186h0.9V190.3z"/>
				<path class="st1" d="M115.5,186v0.8h-2v0.9h1.8v0.8h-1.8v1h2v0.8h-2.9V186H115.5z"/>
				<path class="st1" d="M119.6,186h0.9v3.5h2v0.8h-2.9V186z"/>
			</g>
			<g class="st0">
				<path class="st1" d="M130,190.3h-0.7l-2-2.9v2.9h-0.9V186h0.8l1.9,2.7V186h0.9V190.3z"/>
			</g>
		</g>
	</g>
	<g>
		<polygon class="st2" points="45.5,161.4 52,161.4 52,161.7 54.6,161.7 54.6,161.9 56,161.9 56,161.7 57.5,161.7 57.5,162.3 
			57.7,162.3 57.7,164.6 59.5,164.6 59.5,164.4 62.1,164.6 62.1,165.4 62.4,165.4 62.4,168.4 45.5,167.2 		"/>
		<g>
			<defs>
				<rect id="SVGID_1_" x="44.1" y="150.4" width="112" height="25.3"/>
			</defs>
			<clipPath id="SVGID_2_">
				<use xlink:href="#SVGID_1_"  style="overflow:visible;"/>
			</clipPath>
			<g class="st3">
				<polygon class="st4" points="153.4,152.1 153.4,174 45.5,167.3 45.5,152.1 				"/>
			</g>
		</g>
		<g>
			<defs>
				<rect id="SVGID_3_" x="4.7" y="5.9" width="187" height="104.5"/>
			</defs>
			<clipPath id="SVGID_4_">
				<use xlink:href="#SVGID_3_"  style="overflow:visible;"/>
			</clipPath>
			<g class="st5">
				<g class="st0">
					<path class="st1" d="M12.6,81.1l0.6,0.4l-2.5,1.6l1.4,0.9l-0.6,0.4l-2.1-1.3L12.6,81.1z"/>
					<path class="st1" d="M18.5,84.7l-0.6,0.4l-1.5-0.9l-0.7,0.4l1.3,0.8l-0.5,0.4L15.3,85l-0.7,0.5l1.5,0.9l-0.6,0.4l-2.1-1.3
						l3.1-2L18.5,84.7z"/>
					<path class="st1" d="M18.4,88.7c-0.9-0.5-0.8-1.4,0.1-2c0.9-0.6,2.2-0.7,3.1-0.1c0.9,0.5,0.8,1.4-0.1,2
						C20.6,89.1,19.3,89.2,18.4,88.7z M21,87c-0.5-0.3-1.2-0.2-1.8,0.2c-0.6,0.4-0.7,0.9-0.2,1.2c0.5,0.3,1.2,0.2,1.8-0.2
						C21.4,87.7,21.5,87.3,21,87z"/>
					<path class="st1" d="M24.2,92.2l-0.5-0.3l0.6-2.3l-2,1.3l-0.6-0.4l3.1-2l0.6,0.4l-0.6,2.1l1.9-1.3l0.6,0.4L24.2,92.2z"/>
				</g>
				<g class="st0">
					<path class="st1" d="M30.7,92.3l-1.9,2.8l-0.7-0.4l0.5-0.7l-1.2-0.7l-1,0.3l-0.6-0.4l4.3-1.3L30.7,92.3z M28.2,93.1l0.8,0.5
						l0.6-0.9L28.2,93.1z"/>
				</g>
				<g class="st0">
					<path class="st1" d="M32.2,95.7l-1.1,0.8l-0.6-0.4l3.1-2l1.3,0.8c0.7,0.4,0.7,0.9,0.1,1.3c-0.5,0.3-1.1,0.4-1.6,0.2l-0.4,1.3
						l-0.7-0.5l0.4-1.2L32.2,95.7z M32.7,95.4l0.6,0.4c0.3,0.2,0.7,0.2,0.9,0c0.3-0.2,0.3-0.4-0.1-0.6l-0.6-0.4L32.7,95.4z"/>
				</g>
				<g class="st0">
					<path class="st1" d="M37.6,96.6l1.1,0.7c0.9,0.6,0.9,1.3,0,2s-2.1,0.6-3.1,0.1l-1.1-0.7L37.6,96.6z M36.1,98.9
						c0.6,0.4,1.3,0.3,1.9-0.1c0.6-0.4,0.7-0.8,0.1-1.2l-0.4-0.3l-1.9,1.3L36.1,98.9z"/>
				</g>
				<g class="st0">
					<path class="st1" d="M42.4,102.4c-0.2,0.2-0.1,0.5,0.2,0.6c0.3,0.2,0.7,0.2,0.9,0.1c0.2-0.1,0.2-0.3,0-0.5l-0.4-0.4
						c-0.3-0.3-0.5-0.7,0.1-1c0.6-0.4,1.4-0.3,2.1,0.1c0.7,0.4,0.7,0.9,0.3,1.3l-0.6-0.4c0.1-0.2,0.1-0.4-0.2-0.6
						c-0.3-0.2-0.6-0.2-0.9-0.1c-0.2,0.1-0.2,0.3,0,0.4l0.4,0.4c0.4,0.4,0.4,0.8,0,1.1c-0.6,0.4-1.5,0.3-2.1-0.1
						c-0.7-0.4-0.8-1-0.4-1.4L42.4,102.4z"/>
				</g>
				<g class="st0">
					<path class="st1" d="M47.8,103l2.7,1.7l-0.6,0.4l-1-0.6l-2.5,1.6l-0.7-0.4l2.5-1.6l-1-0.6L47.8,103z"/>
				</g>
				<line class="st6" x1="74.3" y1="68.4" x2="74.3" y2="63.9"/>
				<line class="st6" x1="14.8" y1="32.7" x2="14.8" y2="29"/>
				<line class="st6" x1="27.2" y1="37.5" x2="27.2" y2="39.5"/>
				<line class="st6" x1="21.7" y1="34.3" x2="21.7" y2="36.4"/>
				<line class="st6" x1="28.6" y1="36.6" x2="28.6" y2="38.7"/>
				<line class="st7" x1="28.6" y1="38.7" x2="27.1" y2="39.5"/>
				<line class="st7" x1="28.6" y1="36.7" x2="27.2" y2="37.5"/>
				<line class="st7" x1="66.2" y1="54.4" x2="60.2" y2="57.9"/>
				<line class="st7" x1="70.8" y1="58" x2="65.7" y2="61.1"/>
				<line class="st6" x1="35.8" y1="40.8" x2="35.8" y2="42.8"/>
				<line class="st7" x1="40.9" y1="39.1" x2="65.1" y2="55"/>
				<line class="st7" x1="66.2" y1="54.4" x2="70.8" y2="57.4"/>
				<line class="st7" x1="40.9" y1="38.5" x2="65.6" y2="54.7"/>
				<line class="st7" x1="11.9" y1="31.5" x2="14.4" y2="32.9"/>
				<line class="st7" x1="21.7" y1="34.3" x2="27.2" y2="37.5"/>
				<line class="st7" x1="28.6" y1="36.7" x2="35.9" y2="40.9"/>
				<line class="st7" x1="28.6" y1="38.7" x2="35.8" y2="42.9"/>
				<line class="st7" x1="60.2" y1="57.9" x2="65.7" y2="61.1"/>
				<line class="st6" x1="74.3" y1="55.5" x2="74.3" y2="53.3"/>
				<polyline class="st6" points="65.2,65.2 64.3,64.7 63.2,65.3 16.3,38.1 16.3,35.8 				"/>
				<polyline class="st6" points="28,30.7 23.4,27.6 12.8,33.8 63.2,63 				"/>
				<line class="st6" x1="63.2" y1="63" x2="63.2" y2="65.3"/>
				<line class="st6" x1="64.3" y1="62.4" x2="63.2" y2="63"/>
				<polyline class="st6" points="64.3,64.7 64.3,62.4 60.2,60 				"/>
				<line class="st6" x1="74.4" y1="72.6" x2="74.4" y2="70.1"/>
				<polyline class="st6" points="79.9,63 83,65 83,67.6 74.4,72.6 65.2,67.3 65.2,64.7 68.9,62.6 				"/>
				<polyline class="st6" points="83,65 74.4,70.1 65.2,64.7 				"/>
				<polyline class="st7" points="13.7,34.4 13.7,35.6 16.3,37.1 				"/>
				<line class="st7" x1="21.7" y1="36.4" x2="27.2" y2="39.6"/>
				<line class="st7" x1="60.2" y1="60" x2="60.2" y2="57.9"/>
				<line class="st7" x1="65.7" y1="64.4" x2="65.7" y2="61.1"/>
				<polyline class="st7" points="77.9,54.4 74.3,56.5 70.8,54.5 				"/>
				<polyline class="st6" points="77.9,59 78.2,59.2 78.2,60.7 74.3,63 70.4,60.7 70.4,59.3 70.8,59.1 				"/>
				<line class="st6" x1="74.3" y1="63" x2="74.3" y2="56.5"/>
				<polyline class="st6" points="78.2,59.7 79.9,60.6 79.9,65.1 74.3,68.4 68.9,65.2 68.9,60.7 70.4,59.8 				"/>
				<polyline class="st6" points="79.9,60.6 74.3,63.9 68.9,60.8 				"/>
				<polyline class="st6" points="11.9,31.4 6.5,34.6 6.5,72 				"/>
				<polyline class="st6" points="17.8,28 21.5,25.8 28.5,30.4 				"/>
				<line class="st6" x1="74.3" y1="73.8" x2="74.3" y2="107.7"/>
				<line class="st6" x1="74.3" y1="107.6" x2="38.1" y2="86.7"/>
				<polyline class="st6" points="84.6,73.5 74.3,79.5 6.6,40.2 				"/>
				<polyline class="st6" points="84.6,76.3 74.3,82.3 6.6,43.1 				"/>
				<polyline class="st6" points="84.6,79.1 74.3,85.1 6.6,45.9 				"/>
				<polyline class="st6" points="84.6,82 74.3,87.9 6.6,48.7 				"/>
				<polyline class="st6" points="84.6,84.8 74.3,90.7 6.6,51.5 				"/>
				<polyline class="st6" points="84.6,87.6 74.3,93.6 6.6,54.3 				"/>
				<polyline class="st6" points="84.6,90.4 74.3,96.4 6.6,57.2 				"/>
				<polyline class="st6" points="84.6,93.2 74.3,99.2 6.6,60 				"/>
				<line class="st6" x1="84.6" y1="96.1" x2="82.2" y2="97.5"/>
				<polyline class="st6" points="76.7,100.6 74.3,102 6.6,62.8 				"/>
				<line class="st6" x1="82.2" y1="100.3" x2="84.6" y2="98.9"/>
				<polyline class="st6" points="76.7,103.4 74.3,104.8 6.6,65.6 				"/>
				<polyline class="st6" points="84.6,70.7 74.3,76.7 6.6,37.4 				"/>
				<line class="st6" x1="35.2" y1="85" x2="6.6" y2="68.4"/>
				<polyline class="st7" points="13.4,26.4 11.9,27.3 11.9,31.5 				"/>
				<polyline class="st7" points="16.3,26.4 17.8,27.2 17.8,30.9 				"/>
				<polyline class="st7" points="11.9,27.3 14.8,29 17.8,27.2 				"/>
				<polyline class="st6" points="75.5,51.6 76.3,52.1 76.3,54.3 74.3,55.5 72.3,54.3 72.3,52.1 73.3,51.5 				"/>
				<polyline class="st7" points="76.3,52.1 74.3,53.3 72.3,52.1 				"/>
				<g>
					<defs>
						<rect id="SVGID_5_" x="4.8" y="10.7" width="86.5" height="99.1"/>
					</defs>
					<clipPath id="SVGID_6_">
						<use xlink:href="#SVGID_5_"  style="overflow:visible;"/>
					</clipPath>
					<g class="st8">
						<path class="st6" d="M72.4,49.8c-0.1,0.1-0.2,0.2-0.2,0.3l0.1,0.3c0.1,0.2,0.6,0.3,1.3,0.1s2.3-1,2.5-1.9l-0.3-0.5
							c-0.2,0-0.3,0-0.5,0"/>
					</g>
				</g>
				<polyline class="st6" points="73.1,46.7 74.2,47.2 74.5,47.1 75.3,46 				"/>
				<g>
					<defs>
						<rect id="SVGID_7_" x="4.8" y="10.7" width="86.5" height="99.1"/>
					</defs>
					<clipPath id="SVGID_8_">
						<use xlink:href="#SVGID_7_"  style="overflow:visible;"/>
					</clipPath>
					<g class="st9">
						<path class="st6" d="M76,49.1c0.1,0.2,0.1,0.5,0,0.8c-0.2,1-1.1,1.6-2.1,1.4c0,0,0,0,0,0c-0.4-0.1-0.7-0.3-0.9-0.5l-0.1-0.1"
							/>
						<path class="st6" d="M72.6,50.2c-0.1-0.1-0.1-0.3-0.1-0.4c-0.1-1,0.5-1.9,1.5-2c0.6-0.1,1.2,0.1,1.6,0.5
							c0.1,0.1,0.2,0.3,0.3,0.4"/>
						<path class="st6" d="M73.5,57.8c0.3,0.9,0.1,1.5-0.5,1.5s-1.3-0.7-1.6-1.5s-0.1-1.5,0.5-1.5S73.2,57,73.5,57.8z"/>
						<path class="st6" d="M75.1,57.9c-0.3,0.9-0.1,1.5,0.5,1.5s1.3-0.7,1.6-1.5s0.1-1.5-0.5-1.5S75.4,57,75.1,57.9z"/>
						<path class="st10" d="M75.5,51.7c0-0.1,0-0.1,0-0.2c0,0-0.1-0.1-0.1-0.1c-0.1,0-0.2,0-0.3,0.1c0,0,0-0.1,0-0.1v0l0.1-0.4"/>
						<path class="st7" d="M74.7,51.7c0,0.1,0.1,0.2,0.1,0.2s0.2,0.1,0.3,0"/>
					</g>
				</g>
				<polyline class="st7" points="73.7,52.4 73.7,52.2 74,51.8 73.9,51.7 73.5,51.7 73.1,51.4 73.3,51 				"/>
				<polyline class="st6" points="72.3,53.6 70.8,54.5 70.8,59.3 74.3,61.3 77.9,59.2 77.9,54.4 76.3,53.5 				"/>
				<g>
					<defs>
						<rect id="SVGID_9_" x="4.8" y="10.7" width="86.5" height="99.1"/>
					</defs>
					<clipPath id="SVGID_10_">
						<use xlink:href="#SVGID_9_"  style="overflow:visible;"/>
					</clipPath>
					<g class="st11">
						<path class="st7" d="M14.6,24.8c-0.7,0.1-1.2,0.8-1.2,1.5v1.1c0,0.4,0.7,0.8,1.5,0.8s1.5-0.3,1.5-0.8v-1.1
							c0-0.7-0.5-1.4-1.2-1.5v-0.2c0-0.1-0.1-0.2-0.2-0.2s-0.2,0.1-0.2,0.2V24.8z"/>
					</g>
				</g>
				<polyline class="st6" points="84.6,67.9 74.3,73.8 6.6,34.6 				"/>
				<polyline class="st6" points="38.1,87.2 36.1,86 34.3,87.1 36.8,88.5 38.1,87.8 				"/>
				<line class="st6" x1="38.1" y1="87.2" x2="36.1" y2="86"/>
				<line class="st6" x1="38.1" y1="88.8" x2="37.2" y2="88.3"/>
				<g>
					<defs>
						<rect id="SVGID_11_" x="4.8" y="10.7" width="86.5" height="99.1"/>
					</defs>
					<clipPath id="SVGID_12_">
						<use xlink:href="#SVGID_11_"  style="overflow:visible;"/>
					</clipPath>
					<g class="st12">
						<path class="st6" d="M36.5,83.8c-0.2,0.2-0.4,0.5-0.4,0.8v1.5"/>
					</g>
				</g>
				<polyline class="st6" points="35.7,87.9 35.2,88.2 6.5,72 				"/>
				<line class="st6" x1="35.2" y1="88.2" x2="35.2" y2="87.6"/>
				<g>
					<defs>
						<rect id="SVGID_13_" x="4.8" y="10.7" width="86.5" height="99.1"/>
					</defs>
					<clipPath id="SVGID_14_">
						<use xlink:href="#SVGID_13_"  style="overflow:visible;"/>
					</clipPath>
					<g class="st13">
						<path class="st6" d="M82.2,103.1v-5.4l-5.4,3v5.6l-2.4,1.4L56.1,99l-14.6-7.3l-3.4-1.9V86c-0.1-0.9-0.6-1.7-1.4-2.1
							c-0.4-0.3-1-0.2-1.3,0.3c-0.1,0.2-0.2,0.4-0.2,0.6v1.9"/>
					</g>
				</g>
				<polyline class="st6" points="78.3,103.4 78.3,102 77.4,102.6 77.4,104 				"/>
				<g>
					<defs>
						<rect id="SVGID_15_" x="4.8" y="10.7" width="86.5" height="99.1"/>
					</defs>
					<clipPath id="SVGID_16_">
						<use xlink:href="#SVGID_15_"  style="overflow:visible;"/>
					</clipPath>
					<g class="st14">
						<path class="st6" d="M83,66.9l1.6,1v33.8l-2.4,1.4c-1.2-0.3-2.5-0.3-3.6,0.3l-1.2,0.7c-0.2,0.1-0.4,0.2-0.6,0.4"/>
					</g>
				</g>
				<polyline class="st7" points="35.8,42.8 40.9,39.9 40.9,37.9 29,30.1 21.7,34.4 				"/>
				<line class="st7" x1="40.9" y1="37.9" x2="35.8" y2="40.9"/>
				<g>
					<defs>
						<rect id="SVGID_17_" x="4.8" y="10.7" width="86.5" height="99.1"/>
					</defs>
					<clipPath id="SVGID_18_">
						<use xlink:href="#SVGID_17_"  style="overflow:visible;"/>
					</clipPath>
					<g class="st15">
						<g class="st0">
							<path class="st1" d="M197,74.3c0.7,0.5,0.7,1,0.2,1.5l-0.6-0.4c0.2-0.2,0.2-0.5-0.2-0.7c-0.5-0.3-1.2-0.3-1.8,0.1
								c-0.6,0.3-0.8,0.8-0.3,1.1c0.3,0.2,0.7,0.3,1.1,0.2l0.6,0.4c-0.8,0.3-1.6,0.2-2.3-0.2c-0.8-0.6-0.7-1.4,0.2-1.9
								C195,73.7,196.2,73.7,197,74.3z"/>
						</g>
						<g class="st0">
							<path class="st1" d="M201.3,77.3l-2,2.6l-0.6-0.4l0.5-0.6l-1.1-0.8l-1,0.3l-0.6-0.4l4.3-1L201.3,77.3z M198.8,77.9l0.7,0.5
								l0.7-0.9L198.8,77.9z"/>
						</g>
						<g class="st0">
							<path class="st1" d="M203.5,78.8l2.6,1.8l-0.6,0.3l-1-0.7l-2.6,1.5l-0.6-0.4l2.6-1.5l-1-0.7L203.5,78.8z"/>
						</g>
						<g class="st0">
							<path class="st1" d="M210.2,83.5l-3.2,1.8l-0.6-0.4l1.3-0.8l-1.4-0.9l-1.3,0.8l-0.6-0.4l3.2-1.8l0.6,0.4l-1.3,0.7l1.4,0.9
								l1.3-0.7L210.2,83.5z"/>
							<path class="st1" d="M214,86.2l-0.6,0.3l-1.4-1l-0.7,0.4l1.3,0.9l-0.6,0.3l-1.3-0.9l-0.7,0.4l1.4,1l-0.6,0.3l-2-1.4l3.2-1.8
								L214,86.2z"/>
							<path class="st1" d="M214.3,88.9l-1.2,0.7l-0.6-0.4l3.2-1.8l1.2,0.9c0.6,0.4,0.7,0.9,0,1.3c-0.5,0.3-1.1,0.3-1.6,0.1
								l-0.4,1.3l-0.7-0.5l0.4-1.2L214.3,88.9z M214.9,88.6l0.6,0.4c0.3,0.2,0.6,0.2,0.9,0.1c0.3-0.2,0.3-0.4,0-0.6l-0.6-0.4
								L214.9,88.6z"/>
							<path class="st1" d="M217.1,92.3l-0.6-0.4l3.2-1.8l0.6,0.4L217.1,92.3z"/>
							<path class="st1" d="M221.3,95.3l-0.5-0.3l0.7-2.2l-2.1,1.2l-0.6-0.4l3.2-1.8l0.6,0.4l-0.7,2.1l2-1.2l0.6,0.4L221.3,95.3z"/>
							<path class="st1" d="M228.3,96.1l-0.6,0.3l-1.4-1l-0.7,0.4l1.3,0.9l-0.6,0.3l-1.3-0.9l-0.8,0.4l1.4,1l-0.6,0.3l-2-1.4
								l3.2-1.8L228.3,96.1z"/>
							<path class="st1" d="M232.1,98.8l0.6,0.4l-2.6,1.5l1.4,1L231,102l-2-1.4L232.1,98.8z"/>
						</g>
						<g class="st0">
							<path class="st1" d="M235.2,104.9l-0.5-0.3l0.7-2.2l-2.1,1.2l-0.6-0.4l3.2-1.8l0.6,0.4l-0.7,2.1l2-1.2l0.6,0.4L235.2,104.9z"
								/>
						</g>
						<path class="st7" d="M262,101.3v-1.2c0-0.3-0.2-0.7-0.8-0.3c-0.4,0.2-0.7,0.6-0.7,1.1v1.3l-6.7,3.9l-8.8-6.1l-11.2-7.6
							l-9.4-6.4l-13.9-9.5l-19.8-14.3V28l1.4-0.8"/>
						<path class="st7" d="M199.4,18c0.3,0.9,0.1,1.5-0.5,1.5s-1.3-0.7-1.6-1.5s-0.1-1.5,0.5-1.5S199.1,17.1,199.4,18z"/>
						<path class="st7" d="M198.3,9.9c0,0.1-0.2,0.2-0.2,0.3l0.1,0.3c0.1,0.2,0.6,0.3,1.3,0.1s2.3-1,2.5-1.9l-0.2-0.5
							c-0.2,0-0.3,0-0.5,0"/>
						<path class="st7" d="M201.8,9.2c0.1,0.3,0.1,0.5,0,0.8c-0.2,1-1.1,1.6-2.1,1.4c-0.4-0.1-0.7-0.3-0.9-0.5l-0.1-0.1"/>
						<path class="st7" d="M198.4,10.3c-0.1-0.1-0.1-0.3-0.1-0.4c-0.1-1,0.5-1.9,1.5-2c0.6-0.1,1.2,0.1,1.6,0.5
							c0.1,0.1,0.2,0.3,0.3,0.4"/>
						<path class="st7" d="M200.5,11.9c0,0.1,0.1,0.2,0.1,0.2c0.1,0.1,0.3,0.1,0.4,0"/>
					</g>
				</g>
				<polygon class="st2" points="79.9,73.5 79.9,98.8 84.6,96.1 84.5,70.8 				"/>
				<line class="st16" x1="79.9" y1="76.3" x2="84.6" y2="73.6"/>
				<line class="st16" x1="79.9" y1="79.1" x2="84.6" y2="76.3"/>
				<line class="st16" x1="79.9" y1="81.9" x2="84.6" y2="79.2"/>
				<line class="st16" x1="79.9" y1="84.7" x2="84.6" y2="82"/>
				<line class="st16" x1="79.9" y1="87.5" x2="84.6" y2="84.8"/>
				<line class="st16" x1="79.9" y1="90.3" x2="84.6" y2="87.6"/>
				<line class="st16" x1="79.9" y1="93.2" x2="84.6" y2="90.4"/>
				<line class="st16" x1="79.9" y1="95.9" x2="84.6" y2="93.2"/>
				<g>
					<defs>
						<rect id="SVGID_19_" x="105.1" y="5.9" width="86.6" height="104.5"/>
					</defs>
					<clipPath id="SVGID_20_">
						<use xlink:href="#SVGID_19_"  style="overflow:visible;"/>
					</clipPath>
					<g class="st17">
						<path class="st6" d="M3.6,103.8v-5.4l-5.4,3v5.6l-2.4,1.4l-18.2-8.6l-14.6-7.3l-3.3-1.9v-3.8c-0.1-0.9-0.6-1.7-1.4-2.1
							c-1-0.6-1.4,0.5-1.4,0.8v1.9"/>
						<path class="st6" d="M4.4,67.6l1.6,1v33.8l-2.4,1.4c-1.2-0.3-2.5-0.3-3.6,0.3l-1.2,0.7c-0.2,0.1-0.4,0.2-0.5,0.4"/>
					</g>
				</g>
				<polyline class="st6" points="190.2,67.3 175.2,75.8 112.2,34.4 				"/>
				<polyline class="st6" points="190.2,70.1 175.2,78.6 112.2,37.2 				"/>
				<polyline class="st6" points="190.2,73 175.2,81.4 112.2,40 				"/>
				<polyline class="st6" points="190.2,75.8 175.2,84.3 112.2,42.8 				"/>
				<polyline class="st6" points="190.2,78.6 175.2,87.1 112.2,45.7 				"/>
				<polyline class="st6" points="190.2,81.5 175.2,89.9 112.2,48.5 				"/>
				<polyline class="st6" points="190.2,84.3 175.2,92.8 112.2,51.3 				"/>
				<polyline class="st6" points="190.2,87.1 175.2,95.6 112.2,54.2 				"/>
				<polyline class="st6" points="190.2,90 175.2,98.4 112.2,57 				"/>
				<polyline class="st6" points="190.2,92.8 175.2,101.3 112.2,59.8 				"/>
				<polyline class="st6" points="190.2,95.6 175.2,104.1 112.2,62.7 				"/>
				<line class="st6" x1="190.2" y1="95.6" x2="175.2" y2="104.1"/>
				<g class="st0">
					<path class="st1" d="M118.5,75c0.7,0.5,0.7,1,0.2,1.5l-0.6-0.4c0.2-0.2,0.2-0.5-0.2-0.7c-0.5-0.3-1.2-0.3-1.8,0.1
						c-0.6,0.3-0.8,0.8-0.3,1.1c0.3,0.2,0.7,0.3,1.1,0.2l0.6,0.4c-0.7,0.3-1.6,0.2-2.3-0.2c-0.8-0.6-0.7-1.4,0.2-1.9
						S117.7,74.4,118.5,75z"/>
				</g>
				<g class="st0">
					<path class="st1" d="M122.8,78l-2,2.6l-0.6-0.4l0.5-0.6l-1.1-0.8l-1,0.3l-0.6-0.4l4.3-1L122.8,78z M120.2,78.6l0.7,0.5l0.7-0.9
						L120.2,78.6z"/>
				</g>
				<g class="st0">
					<path class="st1" d="M125,79.5l2.6,1.8l-0.6,0.3l-1-0.7l-2.6,1.5l-0.6-0.4l2.6-1.5l-1-0.7L125,79.5z"/>
				</g>
				<g class="st0">
					<path class="st1" d="M131.7,84.2l-3.2,1.8l-0.6-0.4l1.3-0.8l-1.4-0.9l-1.3,0.8l-0.6-0.4l3.2-1.8l0.6,0.4l-1.3,0.7l1.4,0.9
						l1.3-0.7L131.7,84.2z"/>
					<path class="st1" d="M135.5,86.9l-0.6,0.3l-1.4-1l-0.7,0.4l1.3,0.9l-0.6,0.3l-1.3-0.9l-0.8,0.4l1.4,1l-0.6,0.3l-2-1.4l3.2-1.8
						L135.5,86.9z"/>
					<path class="st1" d="M135.8,89.6l-1.2,0.7l-0.6-0.4l3.2-1.8l1.2,0.9c0.6,0.4,0.7,0.9,0,1.3c-0.5,0.3-1.1,0.3-1.6,0.1l-0.4,1.3
						l-0.7-0.5l0.4-1.2L135.8,89.6z M136.3,89.3l0.6,0.4c0.3,0.2,0.6,0.2,0.9,0.1c0.3-0.2,0.3-0.4,0-0.6l-0.6-0.4L136.3,89.3z"/>
				</g>
				<g class="st0">
					<path class="st1" d="M138.6,93l-0.6-0.4l3.2-1.8l0.6,0.4L138.6,93z"/>
				</g>
				<g class="st0">
					<path class="st1" d="M142.8,96l-0.5-0.3l0.7-2.2l-2.1,1.2l-0.6-0.4l3.2-1.8l0.6,0.4l-0.7,2.1l2-1.2l0.6,0.4L142.8,96z"/>
					<path class="st1" d="M149.8,96.8l-0.6,0.3l-1.4-1l-0.7,0.4l1.3,0.9l-0.6,0.3l-1.3-0.9l-0.7,0.4l1.4,1l-0.6,0.3l-2-1.4l3.2-1.8
						L149.8,96.8z"/>
					<path class="st1" d="M153.6,99.5l0.6,0.4l-2.6,1.5l1.4,1l-0.6,0.3l-2-1.4L153.6,99.5z"/>
				</g>
				<g class="st0">
					<path class="st1" d="M156.6,105.6l-0.5-0.3l0.7-2.2l-2.1,1.2l-0.6-0.4l3.2-1.8l0.6,0.4l-0.7,2.1l2-1.2l0.6,0.4L156.6,105.6z"/>
				</g>
				<polyline class="st7" points="190.2,64.5 175.2,73 112.2,31.5 				"/>
				<line class="st7" x1="175.2" y1="70.1" x2="175.2" y2="106.8"/>
				<line class="st7" x1="182.9" y1="101.6" x2="181.9" y2="102.2"/>
				<polyline class="st7" points="182.9,101.6 183.5,102 190.2,98 190.2,61.6 				"/>
				<polyline class="st7" points="190.2,61.6 175.2,70.1 112.2,28.6 				"/>
				<g>
					<defs>
						<rect id="SVGID_21_" x="105.1" y="5.9" width="86.6" height="104.5"/>
					</defs>
					<clipPath id="SVGID_22_">
						<use xlink:href="#SVGID_21_"  style="overflow:visible;"/>
					</clipPath>
					<g class="st18">
						<path class="st7" d="M182.9,101.6v-0.8c0-0.1-0.1-0.3-0.2-0.4"/>
						<path class="st7" d="M183.5,102v-1.2c0-0.3-0.2-0.7-0.8-0.3c-0.4,0.2-0.7,0.6-0.7,1.1v1.3l-6.7,3.9l-8.8-6.1l-11.2-7.6
							l-9.4-6.4L132,77.1l-19.8-14.3V28.6l1.4-0.8"/>
					</g>
				</g>
				<line class="st7" x1="177.6" y1="63.1" x2="177.6" y2="61.6"/>
				<line class="st7" x1="121.2" y1="31.3" x2="121.2" y2="33.8"/>
				<line class="st7" x1="177.6" y1="63.1" x2="178.4" y2="63.6"/>
				<line class="st7" x1="177.6" y1="61.6" x2="178.4" y2="62.1"/>
				<line class="st7" x1="121.6" y1="16.2" x2="121.6" y2="14.3"/>
				<line class="st7" x1="121.6" y1="16.4" x2="121.6" y2="14.2"/>
				<line class="st7" x1="121.3" y1="29.4" x2="121.3" y2="24.9"/>
				<polyline class="st7" points="122.8,32.9 121.2,33.8 113.5,28.8 113.5,26.3 116.2,24.7 				"/>
				<polyline class="st7" points="121.6,22.2 125.2,20.1 125.2,15.4 125.2,15.3 123.6,14.2 				"/>
				<g>
					<defs>
						<rect id="SVGID_23_" x="105.1" y="5.9" width="86.6" height="104.5"/>
					</defs>
					<clipPath id="SVGID_24_">
						<use xlink:href="#SVGID_23_"  style="overflow:visible;"/>
					</clipPath>
					<g class="st19">
						<path class="st7" d="M120.9,18.7c0.3,0.9,0.1,1.5-0.5,1.5s-1.3-0.7-1.6-1.5s-0.1-1.5,0.5-1.5S120.6,17.8,120.9,18.7z"/>
						<path class="st7" d="M122.4,18.7c-0.3,0.9-0.1,1.5,0.5,1.6s1.3-0.7,1.6-1.5s0.1-1.5-0.5-1.5S122.7,17.9,122.4,18.7z"/>
					</g>
				</g>
				<line class="st7" x1="121.3" y1="24.9" x2="127.2" y2="21.5"/>
				<line class="st7" x1="116.2" y1="21.6" x2="121.3" y2="25"/>
				<line class="st7" x1="113.5" y1="26.3" x2="121.2" y2="31.3"/>
				<polyline class="st7" points="125.3,19.8 125.6,20.1 125.6,21.6 125.6,21.7 121.6,24 121.6,23.9 121.6,17.5 				"/>
				<polyline class="st7" points="117.7,20.7 116.2,21.6 116.2,26 116.2,26 121.2,29.4 				"/>
				<polyline class="st7" points="127.3,23.8 130.4,25.9 130.4,27.5 				"/>
				<line class="st7" x1="121.5" y1="17.6" x2="125.2" y2="15.4"/>
				<line class="st7" x1="118.1" y1="15.3" x2="119.6" y2="14.5"/>
				<line class="st7" x1="118.1" y1="15.3" x2="121.6" y2="17.6"/>
				<polyline class="st7" points="125.6,20.5 127.2,21.5 127.2,21.5 127.2,25.9 127.2,25.9 121.2,29.4 				"/>
				<line class="st7" x1="119.6" y1="13" x2="121.6" y2="14.3"/>
				<line class="st7" x1="122.7" y1="12.4" x2="123.7" y2="13"/>
				<g>
					<defs>
						<rect id="SVGID_25_" x="105.1" y="5.9" width="86.6" height="104.5"/>
					</defs>
					<clipPath id="SVGID_26_">
						<use xlink:href="#SVGID_25_"  style="overflow:visible;"/>
					</clipPath>
					<g class="st20">
						<path class="st7" d="M119.8,10.6c0,0.1-0.2,0.2-0.2,0.3l0.1,0.3c0.1,0.2,0.6,0.3,1.3,0.1s2.3-1,2.5-1.9L123.2,9
							c-0.2,0-0.3,0-0.5,0"/>
					</g>
				</g>
				<polyline class="st7" points="120.5,7.5 121.5,8.1 121.9,7.9 122.6,6.9 				"/>
				<g>
					<defs>
						<rect id="SVGID_27_" x="105.1" y="5.9" width="86.6" height="104.5"/>
					</defs>
					<clipPath id="SVGID_28_">
						<use xlink:href="#SVGID_27_"  style="overflow:visible;"/>
					</clipPath>
					<g class="st21">
						<path class="st7" d="M123.3,9.9c0.1,0.2,0.1,0.5,0,0.8c-0.2,1-1.1,1.6-2.1,1.4c0,0,0,0,0,0c-0.4-0.1-0.7-0.3-0.9-0.5h-0.1"/>
						<path class="st7" d="M119.9,11c-0.1-0.1-0.1-0.3-0.1-0.4c-0.1-1,0.5-1.9,1.5-2c0.6-0.1,1.2,0.1,1.6,0.5
							c0.1,0.1,0.2,0.3,0.3,0.4"/>
						<path class="st7" d="M122.9,12.6c0-0.1,0-0.1,0-0.2c0,0,0-0.1-0.1-0.1c-0.1,0-0.2,0-0.3,0.1v-0.1l0.1-0.4"/>
						<path class="st7" d="M122,12.6c0,0.1,0.1,0.1,0.1,0.2s0.2,0.1,0.3,0"/>
					</g>
				</g>
				<polyline class="st7" points="121.1,13.2 121.1,13.1 121.3,12.7 121.3,12.6 120.8,12.5 120.4,12.3 120.6,11.8 				"/>
				<line class="st7" x1="118.2" y1="19.9" x2="121.6" y2="22.2"/>
				<polyline class="st7" points="121.6,24 117.8,21.5 117.7,21.5 117.7,20.2 117.7,20.2 118.1,19.9 118.1,19.9 118.1,15.3 				"/>
				<polyline class="st7" points="120.7,12.3 119.6,13 119.6,13.1 119.6,15 121.6,16.4 121.6,16.4 123.6,15.2 123.6,13.1 
					123.6,13.1 121.7,14.2 				"/>
				<line class="st7" x1="155.3" y1="50" x2="167.9" y2="58"/>
				<polyline class="st7" points="184,60.4 181.2,62 178.5,60.3 				"/>
				<line class="st7" x1="181.2" y1="66.1" x2="181.2" y2="62"/>
				<polyline class="st7" points="178.4,61.2 172.7,64.5 122.7,32.7 				"/>
				<line class="st6" x1="190.2" y1="61.6" x2="130.4" y2="27"/>
				<line class="st6" x1="169.6" y1="50.4" x2="134.2" y2="29.9"/>
				<line class="st7" x1="172.7" y1="66" x2="172.7" y2="64.5"/>
				<line class="st7" x1="167.9" y1="59.7" x2="167.9" y2="58"/>
				<polygon class="st7" points="175.3,53.6 175.3,55.3 167.9,59.7 155.3,51.8 155.3,50 160.9,46.8 168.3,51.2 169.8,50.3 				"/>
				<line class="st7" x1="175.3" y1="53.6" x2="167.9" y2="58"/>
				<line class="st7" x1="134.2" y1="29.8" x2="128.8" y2="32.9"/>
				<polygon class="st7" points="124.2,31.8 124.2,30 124.2,30 129.4,27 134.2,29.8 134.2,31.3 134.2,31.4 128.8,34.7 				"/>
				<polyline class="st7" points="177.6,63.1 172.7,66 122.7,34.2 122.7,34.2 122.7,32.7 124.2,31.8 				"/>
				<line class="st7" x1="128.8" y1="32.9" x2="124.2" y2="30"/>
				<line class="st7" x1="128.8" y1="34.6" x2="128.8" y2="32.9"/>
				<polyline class="st7" points="183,59.7 183.4,59.5 183.4,58.4 175.3,53.7 				"/>
				<line class="st7" x1="183.4" y1="58.3" x2="182.7" y2="58.7"/>
				<line class="st7" x1="130.4" y1="25.9" x2="121.2" y2="31.3"/>
				<polyline class="st7" points="180,59.4 178.4,60.3 178.4,64.3 181.2,66.1 184,64.4 184,60.4 182.9,59.7 				"/>
				<g>
					<defs>
						<rect id="SVGID_29_" x="105.1" y="5.9" width="86.6" height="104.5"/>
					</defs>
					<clipPath id="SVGID_30_">
						<use xlink:href="#SVGID_29_"  style="overflow:visible;"/>
					</clipPath>
					<g class="st22">
						<path class="st7" d="M181.2,57.9c-0.7,0.1-1.2,0.8-1.2,1.5v1.1c0,0.4,0.6,0.8,1.5,0.8s1.5-0.3,1.5-0.8v-1.1
							c0-0.7-0.5-1.4-1.2-1.5v-0.2c0-0.1-0.1-0.2-0.2-0.2s-0.2,0.1-0.2,0.2L181.2,57.9z"/>
					</g>
				</g>
				<polygon class="st2" points="112.2,31.5 112.2,57 122.4,63.7 122.3,38.2 				"/>
				<line class="st16" x1="122.3" y1="41" x2="112.1" y2="34.3"/>
				<line class="st16" x1="122.3" y1="43.8" x2="112.2" y2="37.2"/>
				<line class="st16" x1="122.3" y1="46.7" x2="112.1" y2="39.9"/>
				<line class="st16" x1="122.3" y1="49.5" x2="112.1" y2="42.8"/>
				<line class="st16" x1="122.3" y1="52.3" x2="112.1" y2="45.7"/>
				<line class="st16" x1="122.3" y1="55.2" x2="112.1" y2="48.5"/>
				<line class="st16" x1="122.3" y1="58" x2="112.2" y2="51.3"/>
				<line class="st16" x1="122.3" y1="60.9" x2="112.2" y2="54.1"/>
			</g>
		</g>
	</g>
</g>
</svg>
