<?xml version="1.0" encoding="utf-8"?>
<!-- Generator: Adobe Illustrator 23.0.0, SVG Export Plug-In . SVG Version: 6.00 Build 0)  -->
<svg version="1.1" id="Layer_1" xmlns="http://www.w3.org/2000/svg" xmlns:xlink="http://www.w3.org/1999/xlink" x="0px" y="0px"
	 viewBox="0 0 123.3 164.8" style="enable-background:new 0 0 123.3 164.8;" xml:space="preserve">
<style type="text/css">
	.st0{fill:#D2D3D4;}
	.st1{clip-path:url(#SVGID_2_);}
	.st2{fill:#231F20;}
	.st3{clip-path:url(#SVGID_4_);}
	.st4{fill:none;stroke:#D1D3D4;stroke-width:1.09;stroke-miterlimit:10;}
	.st5{clip-path:url(#SVGID_6_);}
	.st6{fill:none;stroke:#231F20;stroke-width:0.15;stroke-miterlimit:10;}
	.st7{enable-background:new    ;}
	.st8{fill:#D1D3D4;}
	.st9{fill:none;stroke:#231F20;stroke-width:0.14;stroke-miterlimit:10;}
	.st10{clip-path:url(#SVGID_8_);}
	.st11{clip-path:url(#SVGID_10_);}
	.st12{clip-path:url(#SVGID_12_);}
	.st13{clip-path:url(#SVGID_14_);}
	.st14{clip-path:url(#SVGID_16_);}
	.st15{fill:none;stroke:#FFFFFF;stroke-width:0.15;stroke-miterlimit:10;}
</style>
<title>residence_K_3-11_key</title>
<g>
	<path class="st0" d="M14.3,117.1c-0.6,0-1-0.4-1-1.1v-1.4h3.4v1.3c0,0.7-0.3,1.1-0.9,1.1c-0.3,0-0.6-0.2-0.7-0.4
		C14.9,116.9,14.6,117.1,14.3,117.1z M13.9,115.2v0.7c0,0.3,0.2,0.5,0.4,0.5s0.4-0.2,0.4-0.5v-0.7H13.9z M15.3,115.8
		c0,0.3,0.1,0.5,0.4,0.5s0.4-0.2,0.4-0.5v-0.6h-0.8L15.3,115.8z"/>
	<path class="st0" d="M14.6,119.5h-1.3v-0.7h3.4v1.4c0.1,0.5-0.3,1.1-0.8,1.2c-0.1,0-0.2,0-0.3,0c-0.5,0-0.9-0.3-1-0.8l-1.3,0.9
		v-0.8l1.3-0.8L14.6,119.5z M15.1,119.5v0.7c0,0.3,0.2,0.5,0.5,0.5s0.5-0.2,0.5-0.5v-0.7H15.1z"/>
	<path class="st0" d="M13.3,124.6c0-0.9,0.8-1.6,1.7-1.6c0,0,0.1,0,0.1,0c0.9-0.1,1.7,0.6,1.7,1.5c0.1,0.9-0.6,1.7-1.5,1.7
		c-0.1,0-0.2,0-0.3,0c-0.9,0.1-1.7-0.6-1.7-1.5C13.3,124.7,13.3,124.6,13.3,124.6z M16.1,124.6c0-0.5-0.4-0.9-1.1-0.9
		s-1.1,0.3-1.1,0.9s0.5,0.9,1.1,0.9S16.1,125.1,16.1,124.6z"/>
	<path class="st0" d="M16.7,129.4l-3.4,1.3V130l0.8-0.3v-1.3l-0.8-0.3v-0.7l3.4,1.3V129.4z M14.7,128.7v0.8l1.1-0.4L14.7,128.7z"/>
	<path class="st0" d="M16.7,132.4v1.2c0.1,0.9-0.6,1.6-1.5,1.7c-0.1,0-0.2,0-0.2,0c-0.9,0.1-1.6-0.6-1.7-1.4c0-0.1,0-0.2,0-0.2v-1.2
		H16.7z M13.9,133.5c0,0.6,0.4,1,1,1c0,0,0,0,0.1,0c0.6,0,1-0.4,1.1-0.9c0,0,0,0,0-0.1v-0.5h-2.1V133.5z"/>
	<path class="st0" d="M16.7,139l-2.3,0.6l2.3,0.6v0.7l-3.4-0.8v-0.6l2.2-0.6l-2.2-0.6v-0.6l3.4-0.9v0.7l-2.3,0.6l2.3,0.6L16.7,139z"
		/>
	<path class="st0" d="M16.7,144l-3.4,1.3v-0.7l0.8-0.3V143l-0.8-0.3V142l3.4,1.3V144z M14.7,143.2v0.8l1.1-0.4L14.7,143.2z"/>
	<path class="st0" d="M16.7,148.6v0.8l-2.1-1.2h-1.3v-0.7h1.3l2.1-1.2v0.8l-1.4,0.8L16.7,148.6z"/>
	<path class="st0" d="M111.7,108.4v0.7h-2.8v1.6h-0.6v-2.3H111.7z"/>
	<path class="st0" d="M111.7,114.1l-3.4,1.3v-0.7l0.8-0.3v-1.3l-0.8-0.3v-0.7l3.4,1.3V114.1z M109.7,113.4v0.8l1.1-0.4L109.7,113.4z
		"/>
	<path class="st0" d="M108.3,117h3.4v2.2h-0.6v-1.5h-0.9v1.4h-0.6v-1.4h-1.3V117z"/>
	<path class="st0" d="M111.7,122.5l-3.4,1.3v-0.7l0.8-0.3v-1.3l-0.8-0.3v-0.7l3.4,1.3V122.5z M109.7,121.8v0.8l1.1-0.4L109.7,121.8z
		"/>
	<path class="st0" d="M111.7,127.2v0.7l-2.1-1.2h-1.3V126h1.3l2.1-1.2v0.8l-1.4,0.8L111.7,127.2z"/>
	<path class="st0" d="M111.7,131.8h-0.6v-1.6h-0.7v1.4h-0.6v-1.4h-0.8v1.6h-0.6v-2.3h3.4V131.8z"/>
	<path class="st0" d="M111.7,133.4v2.9h-0.6v-1.1h-2.8v-0.7h2.8v-1.1L111.7,133.4z"/>
	<path class="st0" d="M111.7,137.8v2.9h-0.6v-1.1h-2.8v-0.7h2.8v-1.1H111.7z"/>
	<path class="st0" d="M111.7,144.6h-0.6V143h-0.7v1.4h-0.6V143h-0.8v1.6h-0.6v-2.3h3.4V144.6z"/>
	<path class="st0" d="M109.2,149.2c-0.3,0.1-0.5,0.4-0.4,0.7c0,0.4,0.2,0.6,0.4,0.6s0.3-0.1,0.4-0.4l0.1-0.6c0-0.5,0.4-0.9,0.9-0.9
		c0.6,0,1,0.6,1,1.1c0,0,0,0,0,0.1c0.1,0.6-0.4,1.2-1,1.3v-0.7c0.3-0.1,0.4-0.3,0.4-0.6c0-0.3-0.2-0.5-0.4-0.5s-0.3,0.1-0.4,0.4
		l-0.1,0.6c-0.1,0.6-0.4,0.9-1,0.9s-1-0.5-1-1.2c-0.1-0.7,0.4-1.3,1-1.4L109.2,149.2L109.2,149.2z"/>
	<path class="st0" d="M111.7,152.6v2.9h-0.6v-1.1h-2.8v-0.7h2.8v-1.1L111.7,152.6z"/>
	<path class="st0" d="M43.1,112.6h0.7v2.8h1.6v0.6h-2.3V112.6z"/>
	<path class="st0" d="M49.3,112.6v0.6h-1.6v0.8h1.5v0.6h-1.5v0.8h1.6v0.6H47v-3.4L49.3,112.6z"/>
	<path class="st0" d="M52.4,116c-1,0.1-1.8-0.7-1.9-1.6c-0.1-1,0.7-1.8,1.6-1.9s1.8,0.7,1.9,1.6c0,0.1,0,0.1,0,0.2
		c0,0.9-0.6,1.6-1.5,1.7C52.4,116,52.4,116,52.4,116z M52.4,113.2c-0.5,0-0.9,0.4-0.9,1.1s0.3,1.1,0.9,1.1s0.9-0.5,0.9-1.1
		S52.9,113.2,52.4,113.2L52.4,113.2z"/>
	<path class="st0" d="M58.4,116h-0.6l-1.6-2.2v2.2h-0.7v-3.4h0.7l1.5,2.1v-2.1h0.7V116z"/>
	<path class="st0" d="M61.9,112.6l1.3,3.4h-0.7l-0.3-0.8h-1.3l-0.3,0.8h-0.7l1.3-3.4L61.9,112.6z M61.1,114.6h0.8l-0.4-1.1
		L61.1,114.6z"/>
	<path class="st0" d="M65.4,114.7v1.3h-0.7v-3.4h1.4c0.5-0.1,1.1,0.2,1.2,0.8c0,0.1,0,0.2,0,0.3c0,0.5-0.3,0.9-0.8,1l0.9,1.3h-0.8
		l-0.8-1.3L65.4,114.7z M65.4,114.2H66c0.3,0,0.5-0.2,0.5-0.5s-0.2-0.5-0.5-0.5h-0.7L65.4,114.2z"/>
	<path class="st0" d="M68.9,112.6h1.2c0.9,0.1,1.6,0.9,1.6,1.8c-0.1,0.8-0.7,1.5-1.6,1.6h-1.2V112.6z M70,115.4
		c0.6,0,1.1-0.5,1.1-1.1c0-0.6-0.5-1.1-1.1-1.1h-0.5v2.1H70z"/>
	<path class="st0" d="M76.1,115c0.1,0.3,0.4,0.5,0.7,0.4c0.3,0,0.6-0.2,0.6-0.4s-0.1-0.3-0.4-0.4l-0.6-0.1c-0.5-0.1-0.8-0.4-0.8-0.9
		c0-0.6,0.6-1,1.2-1c0,0,0,0,0,0c0.6-0.1,1.2,0.4,1.3,1h-0.7c-0.1-0.3-0.3-0.4-0.6-0.4c-0.3,0-0.5,0.2-0.5,0.4s0.1,0.3,0.4,0.4
		l0.6,0.2c0.5,0.1,0.9,0.5,0.9,1c-0.1,0.6-0.6,1.1-1.2,1c0,0,0,0,0,0c-0.7,0.1-1.3-0.4-1.4-1L76.1,115z"/>
	<path class="st0" d="M79.4,112.6h2.9v0.6h-1.1v2.8h-0.7v-2.8h-1.1V112.6z"/>
	<path class="st0" d="M40.6,147.9c0.7,0,1.3,0.4,1.4,1.1h-0.7c-0.1-0.3-0.4-0.5-0.7-0.5c-0.5,0-0.8,0.5-0.8,1.1s0.3,1.1,0.8,1.1
		c0.3,0,0.6-0.2,0.7-0.5H42c-0.1,0.7-0.7,1.2-1.4,1.1c-1-0.1-1.7-1-1.6-1.9C39.2,148.6,39.8,147.9,40.6,147.9z"/>
	<path class="st0" d="M45.4,147.9l1.3,3.4H46l-0.3-0.8h-1.3l-0.3,0.8h-0.7l1.3-3.4H45.4z M44.6,149.9h0.8l-0.4-1.2L44.6,149.9z"/>
	<path class="st0" d="M47.8,147.9h2.9v0.6h-1.1v2.8h-0.7v-2.8h-1.1V147.9z"/>
	<path class="st0" d="M55.2,147.9v3.4h-0.7v-1.4H53v1.4h-0.7v-3.4H53v1.3h1.5v-1.3H55.2z"/>
	<path class="st0" d="M59.4,147.9v0.6h-1.6v0.7h1.5v0.6h-1.5v0.8h1.6v0.6h-2.3v-3.4L59.4,147.9z"/>
	<path class="st0" d="M61.8,150v1.3h-0.7v-3.4h1.4c0.5-0.1,1.1,0.3,1.2,0.8c0,0.1,0,0.2,0,0.3c0,0.5-0.3,0.9-0.8,1l0.9,1.3H63
		l-0.8-1.3H61.8z M61.8,149.4h0.6c0.4,0,0.5-0.2,0.5-0.5s-0.2-0.5-0.5-0.5h-0.6V149.4z"/>
	<path class="st0" d="M66.2,151.3h-0.7v-3.4h0.7V151.3z"/>
	<path class="st0" d="M70.8,151.3h-0.6l-1.6-2.3v2.2H68v-3.4h0.7l1.5,2.1v-2.1h0.7V151.3z"/>
	<path class="st0" d="M75,147.9v0.6h-1.6v0.7h1.4v0.6h-1.5v0.8H75v0.6h-2.3v-3.4L75,147.9z"/>
	<path class="st0" d="M79.1,147.9h0.7v2.8h1.6v0.6h-2.3V147.9z"/>
	<path class="st0" d="M85.9,151.3h-0.6l-1.6-2.3v2.2h-0.7v-3.4h0.7l1.5,2.1v-2.1h0.7V151.3L85.9,151.3z"/>
</g>
<g id="Layer_4">
	<g>
		<defs>
			<rect id="SVGID_1_" x="24.3" y="124.4" width="76.1" height="17.2"/>
		</defs>
		<clipPath id="SVGID_2_">
			<use xlink:href="#SVGID_1_"  style="overflow:visible;"/>
		</clipPath>
		<g class="st1">
			<polygon class="st2" points="64,132.3 65.8,132.3 65.8,132.5 66.7,132.5 66.7,132.3 67.3,132.3 67.3,133.2 67.4,133.2 
				67.4,133.9 67.1,133.9 67.1,138.8 61.1,138.4 61.1,134 62.5,134 62.5,132.8 64,132.8 			"/>
			<g>
				<defs>
					<rect id="SVGID_3_" x="24.3" y="124.4" width="76.1" height="17.2"/>
				</defs>
				<clipPath id="SVGID_4_">
					<use xlink:href="#SVGID_3_"  style="overflow:visible;"/>
				</clipPath>
				<g class="st3">
					<polygon class="st4" points="98.5,125.6 98.5,140.5 25.2,135.9 25.2,125.6 					"/>
				</g>
			</g>
		</g>
	</g>
	<g>
		<defs>
			<rect id="SVGID_5_" x="24.3" y="8.6" width="67.9" height="81.9"/>
		</defs>
		<clipPath id="SVGID_6_">
			<use xlink:href="#SVGID_5_"  style="overflow:visible;"/>
		</clipPath>
		<g class="st5">
			<polyline class="st6" points="90.8,57 79.1,63.6 29.7,31.1 			"/>
			<polyline class="st6" points="90.8,59.2 79.1,65.8 29.7,33.3 			"/>
			<polyline class="st6" points="90.8,61.4 79.1,68 29.7,35.6 			"/>
			<polyline class="st6" points="90.8,63.6 79.1,70.2 29.7,37.8 			"/>
			<polyline class="st6" points="90.8,65.8 79.1,72.5 29.7,40 			"/>
			<polyline class="st6" points="90.8,68.1 79.1,74.7 29.7,42.2 			"/>
			<polyline class="st6" points="90.8,70.3 79.1,76.9 29.7,44.5 			"/>
			<polyline class="st6" points="90.8,72.5 79.1,79.1 29.7,46.7 			"/>
			<polyline class="st6" points="90.8,74.7 79.1,81.3 29.7,48.9 			"/>
			<polyline class="st6" points="90.8,76.9 79.1,83.6 29.7,51.1 			"/>
			<polyline class="st6" points="90.8,79.1 79.1,85.8 29.7,53.3 			"/>
			<g class="st7">
				<path class="st8" d="M34.6,63c0.6,0.4,0.6,0.8,0.2,1.2l-0.5-0.3c0.1-0.2,0.2-0.4-0.1-0.6c-0.4-0.3-0.9-0.2-1.4,0.1
					c-0.5,0.3-0.6,0.6-0.2,0.9c0.3,0.2,0.6,0.2,0.9,0.1l0.5,0.3c-0.6,0.2-1.3,0.2-1.8-0.2c-0.6-0.4-0.6-1.1,0.2-1.5
					C33,62.5,34,62.5,34.6,63z"/>
			</g>
			<g class="st7">
				<path class="st8" d="M38,65.3l-1.6,2.1L35.9,67l0.4-0.5l-0.9-0.6l-0.8,0.2l-0.5-0.3l3.4-0.8L38,65.3z M36,65.8l0.6,0.4l0.5-0.7
					L36,65.8z"/>
			</g>
			<g class="st7">
				<path class="st8" d="M39.7,66.5l2,1.4l-0.4,0.3l-0.8-0.5l-2,1.2L38,68.5l2-1.2l-0.8-0.5L39.7,66.5z"/>
				<path class="st8" d="M45,70.2l-2.5,1.4L42,71.3l1-0.6L42,70l-1,0.6l-0.5-0.3l2.5-1.4l0.5,0.3l-1,0.6l1.1,0.7l1-0.6L45,70.2z"/>
				<path class="st8" d="M48,72.3l-0.4,0.3l-1.1-0.8l-0.5,0.3l1,0.7L46.4,73l-1-0.7l-0.6,0.3l1.1,0.8l-0.5,0.3l-1.6-1.1l2.5-1.4
					L48,72.3z"/>
				<path class="st8" d="M48.2,74.4l-0.9,0.5l-0.5-0.3l2.5-1.4l1,0.7c0.5,0.3,0.5,0.7,0,1c-0.4,0.2-0.8,0.2-1.3,0l-0.3,1l-0.6-0.4
					l0.3-0.9L48.2,74.4z M48.6,74.2l0.5,0.3c0.2,0.2,0.5,0.2,0.7,0.1c0.2-0.1,0.2-0.3,0-0.5l-0.5-0.3L48.6,74.2z"/>
				<path class="st8" d="M50.4,77.1l-0.5-0.3l2.5-1.4l0.5,0.3L50.4,77.1z"/>
				<path class="st8" d="M53.7,79.4l-0.4-0.3l0.5-1.7l-1.6,1L51.7,78l2.5-1.4l0.5,0.3l-0.5,1.6l1.6-0.9l0.5,0.3L53.7,79.4z"/>
				<path class="st8" d="M59.1,80l-0.4,0.3l-1.1-0.8L57,79.8l1,0.7l-0.4,0.3l-1-0.7L56,80.4l1.1,0.8l-0.5,0.3l-1.6-1.1l2.5-1.4
					L59.1,80z"/>
				<path class="st8" d="M62.2,82.1l0.5,0.3l-2,1.2l1.1,0.8l-0.5,0.3l-1.6-1.1L62.2,82.1z"/>
			</g>
			<g class="st7">
				<path class="st8" d="M64.5,86.9l-0.4-0.3l0.5-1.7l-1.6,1l-0.5-0.3l2.5-1.4l0.5,0.3l-0.5,1.6l1.6-0.9l0.5,0.3L64.5,86.9z"/>
			</g>
			<polyline class="st9" points="90.8,54.7 79.1,61.4 29.7,28.9 			"/>
			<line class="st9" x1="79.1" y1="59.1" x2="79.1" y2="87.9"/>
			<line class="st9" x1="85.1" y1="83.8" x2="84.3" y2="84.3"/>
			<polyline class="st9" points="85.1,83.8 85.5,84.1 90.8,81 90.8,52.5 			"/>
			<polyline class="st9" points="90.8,52.5 79.1,59.1 29.7,26.7 			"/>
			<g>
				<defs>
					<rect id="SVGID_7_" x="24.3" y="8.6" width="67.9" height="81.9"/>
				</defs>
				<clipPath id="SVGID_8_">
					<use xlink:href="#SVGID_7_"  style="overflow:visible;"/>
				</clipPath>
				<g class="st10">
					<path class="st9" d="M85.1,83.8v-0.6c0-0.1,0-0.2-0.1-0.3"/>
					<path class="st9" d="M85.5,84.1v-0.9c0-0.2-0.2-0.5-0.7-0.3c-0.3,0.2-0.5,0.5-0.6,0.9v1l-5.3,3.1l-6.9-4.8l-8.8-6l-7.3-5
						l-10.9-7.5L29.7,53.4V26.7l1.1-0.7"/>
				</g>
			</g>
			<line class="st9" x1="81" y1="53.7" x2="81" y2="52.5"/>
			<line class="st9" x1="36.8" y1="28.8" x2="36.8" y2="30.7"/>
			<line class="st9" x1="81" y1="53.7" x2="81.6" y2="54.1"/>
			<line class="st9" x1="81" y1="52.5" x2="81.6" y2="52.9"/>
			<line class="st9" x1="37.1" y1="16.9" x2="37.1" y2="15.4"/>
			<line class="st9" x1="37.1" y1="17" x2="37.1" y2="15.3"/>
			<line class="st9" x1="36.8" y1="27.2" x2="36.8" y2="23.7"/>
			<polyline class="st9" points="38,30 36.8,30.7 30.7,26.8 30.7,24.8 32.8,23.6 			"/>
			<polyline class="st9" points="37.1,21.6 39.9,20 39.9,16.2 39.9,16.2 38.7,15.4 			"/>
			<g>
				<defs>
					<rect id="SVGID_9_" x="24.3" y="8.6" width="67.9" height="81.9"/>
				</defs>
				<clipPath id="SVGID_10_">
					<use xlink:href="#SVGID_9_"  style="overflow:visible;"/>
				</clipPath>
				<g class="st11">
					<path class="st9" d="M36.5,18.9c0.2,0.7,0,1.2-0.4,1.2s-1-0.5-1.2-1.2s0-1.2,0.4-1.2S36.2,18.2,36.5,18.9z"/>
					<path class="st9" d="M37.7,18.9c-0.2,0.7,0,1.2,0.4,1.2s1-0.5,1.2-1.2s0-1.2-0.4-1.2S37.9,18.2,37.7,18.9z"/>
				</g>
			</g>
			<line class="st9" x1="36.8" y1="23.7" x2="41.4" y2="21.1"/>
			<line class="st9" x1="32.8" y1="21.1" x2="36.8" y2="23.8"/>
			<line class="st9" x1="30.7" y1="24.8" x2="36.8" y2="28.8"/>
			<polyline class="st9" points="39.9,19.8 40.2,19.9 40.2,21.1 40.2,21.2 37.1,23 37.1,22.9 37.1,18 			"/>
			<polyline class="st9" points="34,20.4 32.8,21.1 32.8,24.6 32.8,24.6 36.8,27.2 			"/>
			<polyline class="st9" points="41.5,22.9 43.9,24.5 43.9,25.8 			"/>
			<line class="st9" x1="37" y1="18" x2="39.9" y2="16.3"/>
			<line class="st9" x1="34.3" y1="16.2" x2="35.5" y2="15.5"/>
			<line class="st9" x1="34.3" y1="16.2" x2="37.1" y2="18"/>
			<polyline class="st9" points="40.2,20.2 41.5,21.1 41.5,21.1 41.5,24.5 41.4,24.5 36.8,27.3 			"/>
			<line class="st9" x1="35.5" y1="14.4" x2="37.1" y2="15.4"/>
			<line class="st9" x1="37.9" y1="13.9" x2="38.7" y2="14.4"/>
			<g>
				<defs>
					<rect id="SVGID_11_" x="24.3" y="8.6" width="67.9" height="81.9"/>
				</defs>
				<clipPath id="SVGID_12_">
					<use xlink:href="#SVGID_11_"  style="overflow:visible;"/>
				</clipPath>
				<g class="st12">
					<path class="st9" d="M35.6,12.5c0,0.1-0.2,0.2-0.2,0.2l0.1,0.2c0.1,0.1,0.5,0.2,1,0.1s1.8-0.8,1.9-1.5l-0.2-0.4
						c-0.1,0-0.3,0-0.4,0"/>
				</g>
			</g>
			<polyline class="st9" points="36.2,10.1 37,10.5 37.3,10.4 37.8,9.6 			"/>
			<g>
				<defs>
					<rect id="SVGID_13_" x="24.3" y="8.6" width="67.9" height="81.9"/>
				</defs>
				<clipPath id="SVGID_14_">
					<use xlink:href="#SVGID_13_"  style="overflow:visible;"/>
				</clipPath>
				<g class="st13">
					<path class="st9" d="M38.4,12c0,0.2,0,0.4,0,0.6c-0.1,0.8-0.9,1.2-1.6,1.1c0,0,0,0,0,0c-0.3-0.1-0.5-0.2-0.7-0.4h-0.1"/>
					<path class="st9" d="M35.7,12.8c0-0.1-0.1-0.2-0.1-0.3c-0.1-0.8,0.4-1.5,1.2-1.6c0.5-0.1,0.9,0.1,1.2,0.4
						c0.1,0.1,0.2,0.2,0.2,0.3"/>
					<path class="st9" d="M38,14.1c0,0,0-0.1,0-0.1c0,0,0-0.1-0.1-0.1c-0.1,0-0.2,0-0.2,0.1v-0.1l0.1-0.3"/>
					<path class="st9" d="M37.4,14.1c0,0.1,0,0.1,0.1,0.2s0.2,0.1,0.3,0"/>
				</g>
			</g>
			<polyline class="st9" points="36.6,14.6 36.6,14.5 36.8,14.2 36.8,14.1 36.5,14 36.2,13.8 36.3,13.5 			"/>
			<line class="st9" x1="34.3" y1="19.8" x2="37.1" y2="21.6"/>
			<polyline class="st9" points="37,23 34,21.1 34,21.1 34,20 34,20 34.3,19.8 34.3,19.8 34.3,16.2 			"/>
			<polyline class="st9" points="36.3,13.8 35.5,14.4 35.5,14.4 35.5,16 37.1,17 37.1,17 38.7,16.1 38.7,14.5 38.7,14.5 37.1,15.4 
							"/>
			<line class="st9" x1="63.5" y1="43.4" x2="73.3" y2="49.6"/>
			<polyline class="st9" points="86,51.5 83.8,52.8 81.6,51.5 			"/>
			<line class="st9" x1="83.8" y1="56" x2="83.8" y2="52.8"/>
			<polyline class="st9" points="81.6,52.1 77.1,54.8 37.9,29.8 			"/>
			<line class="st6" x1="90.8" y1="52.5" x2="43.9" y2="25.3"/>
			<line class="st6" x1="74.7" y1="43.7" x2="46.9" y2="27.6"/>
			<line class="st9" x1="77.1" y1="55.9" x2="77.1" y2="54.8"/>
			<line class="st9" x1="73.3" y1="51" x2="73.3" y2="49.6"/>
			<polygon class="st9" points="79.2,46.2 79.2,47.6 73.3,51 63.5,44.8 63.5,43.4 67.8,40.9 73.6,44.3 74.8,43.6 			"/>
			<line class="st9" x1="79.2" y1="46.2" x2="73.3" y2="49.6"/>
			<line class="st9" x1="46.9" y1="27.5" x2="42.7" y2="30"/>
			<polygon class="st9" points="39.1,29.1 39.1,27.7 39.1,27.7 43.1,25.3 46.9,27.5 46.9,28.8 46.9,28.8 42.7,31.4 			"/>
			<polyline class="st9" points="81,53.7 77.1,55.9 37.9,31 37.9,31 37.9,29.8 39.1,29.1 			"/>
			<line class="st9" x1="42.7" y1="30" x2="39.1" y2="27.8"/>
			<line class="st9" x1="42.7" y1="31.3" x2="42.7" y2="30"/>
			<polyline class="st9" points="85.1,51 85.5,50.8 85.5,50 79.2,46.3 			"/>
			<line class="st9" x1="85.5" y1="49.9" x2="84.9" y2="50.2"/>
			<line class="st9" x1="43.9" y1="24.5" x2="36.8" y2="28.8"/>
			<polyline class="st9" points="82.8,50.8 81.6,51.5 81.6,54.6 83.8,56 86,54.7 86,51.5 85.1,51 			"/>
			<g>
				<defs>
					<rect id="SVGID_15_" x="24.3" y="8.6" width="67.9" height="81.9"/>
				</defs>
				<clipPath id="SVGID_16_">
					<use xlink:href="#SVGID_15_"  style="overflow:visible;"/>
				</clipPath>
				<g class="st14">
					<path class="st9" d="M83.8,49.6c-0.6,0.1-1,0.6-1,1.2v0.8c0,0.3,0.5,0.6,1.2,0.6s1.2-0.3,1.2-0.6v-0.8c0-0.6-0.4-1.1-1-1.2
						v-0.1c0-0.1-0.1-0.1-0.2-0.1s-0.2,0.1-0.2,0.1L83.8,49.6z"/>
				</g>
			</g>
			<polygon class="st2" points="57.6,69.5 53.6,66.8 53.6,64.7 57.6,67.2 			"/>
			<polygon class="st2" points="57.6,67.2 53.6,64.6 53.7,62.4 57.6,65 			"/>
			<polygon class="st2" points="57.6,65 53.6,62.4 53.6,60.2 57.6,62.8 			"/>
			<polygon class="st2" points="57.6,62.8 53.6,60.2 53.6,58 57.6,60.6 			"/>
			<polygon class="st2" points="57.6,60.6 53.6,57.9 53.6,55.8 57.6,58.4 			"/>
			<polygon class="st2" points="57.6,58.4 53.6,55.8 53.6,53.5 57.6,56 			"/>
			<polygon class="st2" points="57.6,56.1 53.6,53.5 53.6,51.4 57.6,54 			"/>
			<polygon class="st2" points="57.6,53.9 53.7,51.3 53.6,46.9 57.6,49.5 			"/>
			<line class="st15" x1="53.7" y1="51.3" x2="57.6" y2="53.9"/>
			<line class="st15" x1="53.6" y1="53.5" x2="57.6" y2="56.2"/>
			<line class="st15" x1="53.6" y1="55.8" x2="57.6" y2="58.3"/>
			<line class="st15" x1="53.6" y1="58" x2="57.6" y2="60.6"/>
			<line class="st15" x1="53.6" y1="60.2" x2="57.6" y2="62.8"/>
			<line class="st15" x1="53.7" y1="62.4" x2="57.6" y2="65"/>
			<line class="st15" x1="53.6" y1="64.6" x2="57.6" y2="67.2"/>
			<line class="st15" x1="57.6" y1="51.7" x2="53.6" y2="49.1"/>
		</g>
	</g>
</g>
</svg>
