<?xml version="1.0" encoding="utf-8"?>
<!-- Generator: Adobe Illustrator 23.0.0, SVG Export Plug-In . SVG Version: 6.00 Build 0)  -->
<svg version="1.1" id="Layer_1" xmlns="http://www.w3.org/2000/svg" xmlns:xlink="http://www.w3.org/1999/xlink" x="0px" y="0px"
	 viewBox="0 0 123.3 164.8" style="enable-background:new 0 0 123.3 164.8;" xml:space="preserve">
<style type="text/css">
	.st0{fill:#D2D3D4;}
	.st1{fill:#010101;}
	.st2{clip-path:url(#SVGID_2_);}
	.st3{fill:none;stroke:#D1D3D4;stroke-width:1.09;stroke-miterlimit:10;}
	.st4{clip-path:url(#SVGID_4_);}
	.st5{enable-background:new    ;}
	.st6{fill:#D1D3D4;}
	.st7{fill:none;stroke:#231F20;stroke-width:0.15;stroke-miterlimit:10;}
	.st8{fill:none;stroke:#231F20;stroke-width:0.14;stroke-miterlimit:10;}
	.st9{clip-path:url(#SVGID_6_);}
	.st10{clip-path:url(#SVGID_8_);}
	.st11{fill:none;stroke:#231F20;stroke-width:0.14;stroke-linejoin:bevel;}
	.st12{clip-path:url(#SVGID_10_);}
	.st13{clip-path:url(#SVGID_12_);}
	.st14{clip-path:url(#SVGID_14_);}
	.st15{clip-path:url(#SVGID_16_);}
	.st16{fill:#231F20;}
	.st17{fill:none;stroke:#FFFFFF;stroke-width:0.15;stroke-miterlimit:10;}
</style>
<title>residence_H_4-6_key</title>
<g>
	<g>
		<path class="st0" d="M14.3,117.1c-0.6,0-1-0.4-1-1.1v-1.4h3.4v1.3c0,0.7-0.3,1.1-0.9,1.1c-0.3,0-0.6-0.2-0.7-0.4
			C14.9,116.9,14.6,117.1,14.3,117.1z M13.9,115.2v0.7c0,0.3,0.2,0.5,0.4,0.5s0.4-0.2,0.4-0.5v-0.7H13.9z M15.3,115.8
			c0,0.3,0.1,0.5,0.4,0.5s0.4-0.2,0.4-0.5v-0.6h-0.8L15.3,115.8z"/>
		<path class="st0" d="M14.6,119.5h-1.3v-0.7h3.4v1.4c0.1,0.5-0.3,1.1-0.8,1.2c-0.1,0-0.2,0-0.3,0c-0.5,0-0.9-0.3-1-0.8l-1.3,0.9
			v-0.8l1.3-0.8L14.6,119.5z M15.1,119.5v0.7c0,0.3,0.2,0.5,0.5,0.5s0.5-0.2,0.5-0.5v-0.7H15.1z"/>
		<path class="st0" d="M13.3,124.6c0-0.9,0.8-1.6,1.7-1.6c0,0,0.1,0,0.1,0c0.9-0.1,1.7,0.6,1.7,1.5c0.1,0.9-0.6,1.7-1.5,1.7
			c-0.1,0-0.2,0-0.3,0c-0.9,0.1-1.7-0.6-1.7-1.5C13.3,124.7,13.3,124.6,13.3,124.6z M16.1,124.6c0-0.5-0.4-0.9-1.1-0.9
			s-1.1,0.3-1.1,0.9s0.5,0.9,1.1,0.9S16.1,125.1,16.1,124.6z"/>
		<path class="st0" d="M16.7,129.4l-3.4,1.3V130l0.8-0.3v-1.3l-0.8-0.3v-0.7l3.4,1.3V129.4z M14.7,128.7v0.8l1.1-0.4L14.7,128.7z"/>
		<path class="st0" d="M16.7,132.4v1.2c0.1,0.9-0.6,1.6-1.5,1.7c-0.1,0-0.2,0-0.2,0c-0.9,0.1-1.6-0.6-1.7-1.4c0-0.1,0-0.2,0-0.2
			v-1.2H16.7z M13.9,133.5c0,0.6,0.4,1,1,1c0,0,0,0,0.1,0c0.6,0,1-0.4,1.1-0.9c0,0,0,0,0-0.1v-0.5h-2.1V133.5z"/>
		<path class="st0" d="M16.7,139l-2.3,0.6l2.3,0.6v0.7l-3.4-0.8v-0.6l2.2-0.6l-2.2-0.6v-0.6l3.4-0.9v0.7l-2.3,0.6l2.3,0.6L16.7,139z
			"/>
		<path class="st0" d="M16.7,144l-3.4,1.3v-0.7l0.8-0.3V143l-0.8-0.3V142l3.4,1.3V144z M14.7,143.2v0.8l1.1-0.4L14.7,143.2z"/>
		<path class="st0" d="M16.7,148.6v0.8l-2.1-1.2h-1.3v-0.7h1.3l2.1-1.2v0.8l-1.4,0.8L16.7,148.6z"/>
		<path class="st0" d="M111.7,108.4v0.7h-2.8v1.6h-0.6v-2.3H111.7z"/>
		<path class="st0" d="M111.7,114.1l-3.4,1.3v-0.7l0.8-0.3v-1.3l-0.8-0.3v-0.7l3.4,1.3V114.1z M109.7,113.4v0.8l1.1-0.4L109.7,113.4
			z"/>
		<path class="st0" d="M108.3,117h3.4v2.2h-0.6v-1.5h-0.9v1.4h-0.6v-1.4h-1.3V117z"/>
		<path class="st0" d="M111.7,122.5l-3.4,1.3v-0.7l0.8-0.3v-1.3l-0.8-0.3v-0.7l3.4,1.3V122.5z M109.7,121.8v0.8l1.1-0.4L109.7,121.8
			z"/>
		<path class="st0" d="M111.7,127.2v0.7l-2.1-1.2h-1.3V126h1.3l2.1-1.2v0.8l-1.4,0.8L111.7,127.2z"/>
		<path class="st0" d="M111.7,131.8h-0.6v-1.6h-0.7v1.4h-0.6v-1.4h-0.8v1.6h-0.6v-2.3h3.4V131.8z"/>
		<path class="st0" d="M111.7,133.4v2.9h-0.6v-1.1h-2.8v-0.7h2.8v-1.1L111.7,133.4z"/>
		<path class="st0" d="M111.7,137.8v2.9h-0.6v-1.1h-2.8v-0.7h2.8v-1.1H111.7z"/>
		<path class="st0" d="M111.7,144.6h-0.6V143h-0.7v1.4h-0.6V143h-0.8v1.6h-0.6v-2.3h3.4V144.6z"/>
		<path class="st0" d="M109.2,149.2c-0.3,0.1-0.5,0.4-0.4,0.7c0,0.4,0.2,0.6,0.4,0.6s0.3-0.1,0.4-0.4l0.1-0.6c0-0.5,0.4-0.9,0.9-0.9
			c0.6,0,1,0.6,1,1.1c0,0,0,0,0,0.1c0.1,0.6-0.4,1.2-1,1.3v-0.7c0.3-0.1,0.4-0.3,0.4-0.6c0-0.3-0.2-0.5-0.4-0.5s-0.3,0.1-0.4,0.4
			l-0.1,0.6c-0.1,0.6-0.4,0.9-1,0.9s-1-0.5-1-1.2c-0.1-0.7,0.4-1.3,1-1.4L109.2,149.2L109.2,149.2z"/>
		<path class="st0" d="M111.7,152.6v2.9h-0.6v-1.1h-2.8v-0.7h2.8v-1.1L111.7,152.6z"/>
		<path class="st0" d="M43.1,112.6h0.7v2.8h1.6v0.6h-2.3V112.6z"/>
		<path class="st0" d="M49.3,112.6v0.6h-1.6v0.8h1.5v0.6h-1.5v0.8h1.6v0.6H47v-3.4L49.3,112.6z"/>
		<path class="st0" d="M52.4,116c-1,0.1-1.8-0.7-1.9-1.6c-0.1-1,0.7-1.8,1.6-1.9s1.8,0.7,1.9,1.6c0,0.1,0,0.1,0,0.2
			c0,0.9-0.6,1.6-1.5,1.7C52.4,116,52.4,116,52.4,116z M52.4,113.2c-0.5,0-0.9,0.4-0.9,1.1s0.3,1.1,0.9,1.1s0.9-0.5,0.9-1.1
			S52.9,113.2,52.4,113.2L52.4,113.2z"/>
		<path class="st0" d="M58.4,116h-0.6l-1.6-2.2v2.2h-0.7v-3.4h0.7l1.5,2.1v-2.1h0.7V116z"/>
		<path class="st0" d="M61.9,112.6l1.3,3.4h-0.7l-0.3-0.8h-1.3l-0.3,0.8h-0.7l1.3-3.4L61.9,112.6z M61.1,114.6h0.8l-0.4-1.1
			L61.1,114.6z"/>
		<path class="st0" d="M65.4,114.7v1.3h-0.7v-3.4h1.4c0.5-0.1,1.1,0.2,1.2,0.8c0,0.1,0,0.2,0,0.3c0,0.5-0.3,0.9-0.8,1l0.9,1.3h-0.8
			l-0.8-1.3L65.4,114.7z M65.4,114.2H66c0.3,0,0.5-0.2,0.5-0.5s-0.2-0.5-0.5-0.5h-0.7L65.4,114.2z"/>
		<path class="st0" d="M68.9,112.6h1.2c0.9,0.1,1.6,0.9,1.6,1.8c-0.1,0.8-0.7,1.5-1.6,1.6h-1.2V112.6z M70,115.4
			c0.6,0,1.1-0.5,1.1-1.1c0-0.6-0.5-1.1-1.1-1.1h-0.5v2.1H70z"/>
		<path class="st0" d="M76.1,115c0.1,0.3,0.4,0.5,0.7,0.4c0.3,0,0.6-0.2,0.6-0.4s-0.1-0.3-0.4-0.4l-0.6-0.1
			c-0.5-0.1-0.8-0.4-0.8-0.9c0-0.6,0.6-1,1.2-1c0,0,0,0,0,0c0.6-0.1,1.2,0.4,1.3,1h-0.7c-0.1-0.3-0.3-0.4-0.6-0.4
			c-0.3,0-0.5,0.2-0.5,0.4s0.1,0.3,0.4,0.4l0.6,0.2c0.5,0.1,0.9,0.5,0.9,1c-0.1,0.6-0.6,1.1-1.2,1c0,0,0,0,0,0
			c-0.7,0.1-1.3-0.4-1.4-1L76.1,115z"/>
		<path class="st0" d="M79.4,112.6h2.9v0.6h-1.1v2.8h-0.7v-2.8h-1.1V112.6z"/>
		<path class="st0" d="M40.6,147.9c0.7,0,1.3,0.4,1.4,1.1h-0.7c-0.1-0.3-0.4-0.5-0.7-0.5c-0.5,0-0.8,0.5-0.8,1.1s0.3,1.1,0.8,1.1
			c0.3,0,0.6-0.2,0.7-0.5H42c-0.1,0.7-0.7,1.2-1.4,1.1c-1-0.1-1.7-1-1.6-1.9C39.2,148.6,39.8,147.9,40.6,147.9z"/>
		<path class="st0" d="M45.4,147.9l1.3,3.4H46l-0.3-0.8h-1.3l-0.3,0.8h-0.7l1.3-3.4H45.4z M44.6,149.9h0.8l-0.4-1.2L44.6,149.9z"/>
		<path class="st0" d="M47.8,147.9h2.9v0.6h-1.1v2.8h-0.7v-2.8h-1.1V147.9z"/>
		<path class="st0" d="M55.2,147.9v3.4h-0.7v-1.4H53v1.4h-0.7v-3.4H53v1.3h1.5v-1.3H55.2z"/>
		<path class="st0" d="M59.4,147.9v0.6h-1.6v0.7h1.5v0.6h-1.5v0.8h1.6v0.6h-2.3v-3.4L59.4,147.9z"/>
		<path class="st0" d="M61.8,150v1.3h-0.7v-3.4h1.4c0.5-0.1,1.1,0.3,1.2,0.8c0,0.1,0,0.2,0,0.3c0,0.5-0.3,0.9-0.8,1l0.9,1.3H63
			l-0.8-1.3H61.8z M61.8,149.4h0.6c0.4,0,0.5-0.2,0.5-0.5s-0.2-0.5-0.5-0.5h-0.6V149.4z"/>
		<path class="st0" d="M66.2,151.3h-0.7v-3.4h0.7V151.3z"/>
		<path class="st0" d="M70.8,151.3h-0.6l-1.6-2.3v2.2H68v-3.4h0.7l1.5,2.1v-2.1h0.7V151.3z"/>
		<path class="st0" d="M75,147.9v0.6h-1.6v0.7h1.4v0.6h-1.5v0.8H75v0.6h-2.3v-3.4L75,147.9z"/>
		<path class="st0" d="M79.1,147.9h0.7v2.8h1.6v0.6h-2.3V147.9z"/>
		<path class="st0" d="M85.9,151.3h-0.6l-1.6-2.3v2.2h-0.7v-3.4h0.7l1.5,2.1v-2.1h0.7V151.3L85.9,151.3z"/>
	</g>
	<g id="_4-6_H">
		<polygon class="st1" points="72.8,126.4 81.4,126.4 81.4,133.2 80.9,133.2 74.3,133.2 74.3,131.9 73.2,131.9 73.2,132.1 
			72.5,132.1 72.5,128.9 72.8,128.9 		"/>
		<g>
			<defs>
				<rect id="SVGID_1_" x="23.3" y="125.2" width="76.6" height="17.3"/>
			</defs>
			<clipPath id="SVGID_2_">
				<use xlink:href="#SVGID_1_"  style="overflow:visible;"/>
			</clipPath>
			<g class="st2">
				<polygon class="st3" points="98.1,126.3 98.1,141.3 24.2,136.7 24.3,126.3 				"/>
			</g>
		</g>
		<g>
			<defs>
				<rect id="SVGID_3_" x="27.8" y="11.1" width="68.9" height="75.8"/>
			</defs>
			<clipPath id="SVGID_4_">
				<use xlink:href="#SVGID_3_"  style="overflow:visible;"/>
			</clipPath>
			<g class="st4">
				<g class="st5">
					<path class="st6" d="M33.9,64.3l0.5,0.3l-2,1.3l1.2,0.7l-0.5,0.3l-1.7-1L33.9,64.3z"/>
					<path class="st6" d="M38.6,67.2l-0.4,0.3L37,66.7l-0.5,0.3l1.1,0.7L37.1,68L36,67.4l-0.6,0.4l1.2,0.7l-0.5,0.3l-1.7-1l2.4-1.6
						L38.6,67.2z"/>
					<path class="st6" d="M38.5,70.3c-0.7-0.4-0.6-1.1,0.1-1.6c0.7-0.5,1.7-0.5,2.4-0.1s0.6,1.1-0.1,1.6
						C40.2,70.7,39.2,70.7,38.5,70.3z M40.6,69c-0.4-0.2-1-0.2-1.5,0.1c-0.5,0.3-0.6,0.7-0.2,0.9c0.4,0.2,1,0.2,1.5-0.1
						C40.9,69.6,41,69.2,40.6,69z"/>
					<path class="st6" d="M43.1,73.1l-0.4-0.3l0.5-1.8l-1.6,1.1l-0.5-0.3l2.4-1.6l0.5,0.3l-0.5,1.7l1.5-1l0.5,0.3L43.1,73.1z"/>
					<path class="st6" d="M48.3,73.2l-1.5,2.2l-0.5-0.3l0.4-0.5L45.7,74l-0.8,0.3l-0.5-0.3l3.4-1L48.3,73.2z M46.3,73.8l0.6,0.4
						l0.5-0.7L46.3,73.8z"/>
					<path class="st6" d="M49.5,75.9l-0.9,0.6l-0.5-0.3l2.4-1.6l1,0.6c0.5,0.3,0.6,0.7,0.1,1c-0.4,0.3-0.9,0.3-1.3,0.1l-0.3,1
						l-0.6-0.4l0.3-1L49.5,75.9z M49.9,75.7l0.5,0.3c0.3,0.2,0.5,0.2,0.7,0c0.2-0.1,0.2-0.3,0-0.5l-0.5-0.3L49.9,75.7z"/>
					<path class="st6" d="M53.8,76.6l0.9,0.5c0.7,0.5,0.7,1.1,0,1.6c-0.7,0.5-1.7,0.5-2.4,0l-0.9-0.5L53.8,76.6z M52.6,78.5
						c0.5,0.3,1,0.3,1.5-0.1c0.5-0.3,0.5-0.7,0-1l-0.3-0.2l-1.5,1L52.6,78.5z"/>
				</g>
				<g class="st5">
					<path class="st6" d="M57.6,81.3c-0.1,0.2-0.1,0.4,0.2,0.5c0.2,0.2,0.5,0.2,0.7,0.1c0.1-0.1,0.1-0.2,0-0.4l-0.3-0.3
						c-0.3-0.3-0.4-0.6,0-0.8c0.4-0.3,1.1-0.3,1.6,0.1c0.6,0.4,0.6,0.7,0.3,1.1l-0.5-0.3c0.1-0.1,0.1-0.3-0.2-0.5
						c-0.2-0.1-0.5-0.2-0.7-0.1c-0.1,0.1-0.1,0.2,0,0.3l0.3,0.3c0.3,0.3,0.3,0.6,0,0.9c-0.5,0.3-1.2,0.3-1.7-0.1
						c-0.6-0.3-0.7-0.8-0.3-1.1L57.6,81.3z"/>
				</g>
				<g class="st5">
					<path class="st6" d="M61.9,81.7L64,83l-0.4,0.3l-0.8-0.5l-2,1.3l-0.5-0.3l2-1.3L61.5,82L61.9,81.7z"/>
				</g>
				<line class="st7" x1="83.1" y1="54.2" x2="83.1" y2="50.7"/>
				<line class="st7" x1="35.7" y1="25.8" x2="35.7" y2="22.9"/>
				<line class="st7" x1="45.5" y1="29.6" x2="45.5" y2="31.3"/>
				<line class="st7" x1="41.2" y1="27.2" x2="41.2" y2="28.8"/>
				<line class="st7" x1="46.7" y1="29" x2="46.7" y2="30.6"/>
				<line class="st8" x1="46.7" y1="30.6" x2="45.5" y2="31.3"/>
				<line class="st8" x1="46.7" y1="29" x2="45.6" y2="29.7"/>
				<line class="st8" x1="76.6" y1="43.1" x2="71.8" y2="45.9"/>
				<line class="st8" x1="80.3" y1="46" x2="76.2" y2="48.4"/>
				<line class="st7" x1="52.5" y1="32.3" x2="52.5" y2="33.9"/>
				<line class="st8" x1="56.5" y1="31" x2="75.7" y2="43.6"/>
				<line class="st8" x1="76.6" y1="43.1" x2="80.3" y2="45.5"/>
				<line class="st8" x1="56.5" y1="30.5" x2="76.1" y2="43.4"/>
				<line class="st8" x1="33.4" y1="24.9" x2="35.4" y2="26"/>
				<line class="st8" x1="41.2" y1="27.2" x2="45.5" y2="29.7"/>
				<line class="st8" x1="46.7" y1="29" x2="52.5" y2="32.4"/>
				<line class="st8" x1="46.7" y1="30.6" x2="52.5" y2="33.9"/>
				<line class="st8" x1="71.9" y1="45.9" x2="76.2" y2="48.4"/>
				<line class="st7" x1="83" y1="44" x2="83" y2="42.2"/>
				<polyline class="st7" points="75.8,51.7 75.1,51.3 74.2,51.8 36.9,30.2 36.9,28.4 				"/>
				<polyline class="st7" points="46.2,24.3 42.5,21.8 34.1,26.8 74.2,50 				"/>
				<line class="st7" x1="74.2" y1="50" x2="74.2" y2="51.8"/>
				<line class="st7" x1="75.1" y1="49.5" x2="74.2" y2="50"/>
				<polyline class="st7" points="75.1,51.3 75.1,49.5 71.9,47.6 				"/>
				<line class="st7" x1="83.1" y1="57.6" x2="83.1" y2="55.6"/>
				<polyline class="st7" points="87.5,50 89.9,51.6 89.9,53.6 83.1,57.6 75.8,53.4 75.8,51.3 78.7,49.6 				"/>
				<polyline class="st7" points="89.9,51.6 83.1,55.6 75.8,51.3 				"/>
				<polyline class="st8" points="34.9,27.2 34.9,28.2 36.9,29.3 				"/>
				<line class="st8" x1="41.2" y1="28.8" x2="45.5" y2="31.3"/>
				<line class="st8" x1="71.8" y1="47.6" x2="71.8" y2="45.9"/>
				<line class="st8" x1="76.2" y1="51.1" x2="76.2" y2="48.4"/>
				<polyline class="st8" points="85.9,43.1 83.1,44.8 80.3,43.2 				"/>
				<polyline class="st7" points="85.9,46.8 86.2,46.9 86.2,48.2 83.1,50 79.9,48.2 79.9,47 80.3,46.8 				"/>
				<line class="st7" x1="83.1" y1="50" x2="83.1" y2="44.8"/>
				<polyline class="st7" points="86.2,47.3 87.5,48.1 87.5,51.6 83.1,54.2 78.7,51.7 78.7,48.1 79.9,47.4 				"/>
				<polyline class="st7" points="87.5,48.1 83.1,50.7 78.8,48.2 				"/>
				<polyline class="st7" points="33.4,24.9 29.1,27.3 29.1,57.1 				"/>
				<polyline class="st7" points="38.1,22.1 41.1,20.4 46.7,24 				"/>
				<line class="st7" x1="83.1" y1="58.6" x2="83" y2="85.5"/>
				<line class="st7" x1="83.1" y1="85.5" x2="54.3" y2="68.8"/>
				<polyline class="st7" points="91.2,58.3 83.1,63.1 29.2,31.9 				"/>
				<polyline class="st7" points="91.2,60.6 83.1,65.3 29.2,34.1 				"/>
				<polyline class="st7" points="91.2,62.8 83.1,67.6 29.2,36.3 				"/>
				<polyline class="st7" points="91.2,65 83.1,69.8 29.2,38.6 				"/>
				<polyline class="st7" points="91.2,67.3 83.1,72 29.2,40.8 				"/>
				<polyline class="st7" points="91.2,69.5 83.1,74.3 29.2,43.1 				"/>
				<polyline class="st7" points="91.2,71.8 83.1,76.5 29.2,45.3 				"/>
				<polyline class="st7" points="91.2,74 83.1,78.8 29.2,47.5 				"/>
				<line class="st7" x1="91.2" y1="76.2" x2="89.3" y2="77.4"/>
				<polyline class="st7" points="85,79.9 83.1,81 29.2,49.8 				"/>
				<line class="st7" x1="89.3" y1="79.6" x2="91.2" y2="78.5"/>
				<polyline class="st7" points="85,82.1 83.1,83.2 29.2,52 				"/>
				<polyline class="st7" points="91.2,56.1 83.1,60.8 29.2,29.6 				"/>
				<line class="st7" x1="52" y1="67.5" x2="29.2" y2="54.3"/>
				<polyline class="st8" points="34.6,20.8 33.4,21.5 33.4,24.9 				"/>
				<polyline class="st8" points="36.9,20.8 38.1,21.5 38.1,24.4 				"/>
				<polyline class="st8" points="33.4,21.5 35.7,22.9 38.1,21.5 				"/>
				<polyline class="st7" points="84,40.9 84.6,41.3 84.6,43.1 83,44 81.4,43.1 81.4,41.3 82.3,40.8 				"/>
				<polyline class="st8" points="84.6,41.3 83,42.3 81.4,41.3 				"/>
				<g>
					<defs>
						<rect id="SVGID_5_" x="27.8" y="11.1" width="68.9" height="75.8"/>
					</defs>
					<clipPath id="SVGID_6_">
						<use xlink:href="#SVGID_5_"  style="overflow:visible;"/>
					</clipPath>
					<g class="st9">
						<path class="st7" d="M81.6,39.4c-0.1,0.1-0.1,0.2-0.2,0.3l0.1,0.2c0.1,0.1,0.5,0.3,1.1,0.1s1.8-0.8,2-1.5l-0.2-0.4
							c-0.1,0-0.3,0-0.4,0"/>
					</g>
				</g>
				<polyline class="st7" points="82.1,37 83,37.4 83.2,37.3 83.8,36.5 				"/>
				<g>
					<defs>
						<rect id="SVGID_7_" x="27.8" y="11.1" width="68.9" height="75.8"/>
					</defs>
					<clipPath id="SVGID_8_">
						<use xlink:href="#SVGID_7_"  style="overflow:visible;"/>
					</clipPath>
					<g class="st10">
						<path class="st7" d="M84.4,38.9c0,0.2,0,0.4,0,0.6c-0.2,0.8-0.9,1.3-1.7,1.1c-0.3-0.1-0.5-0.2-0.7-0.4h-0.1"/>
						<path class="st7" d="M81.7,39.8c-0.3-0.7,0-1.6,0.7-1.9c0.1-0.1,0.3-0.1,0.4-0.1c0.5-0.1,0.9,0.1,1.2,0.4
							c0.1,0.1,0.2,0.2,0.2,0.3"/>
						<path class="st7" d="M82.4,45.9c0.2,0.7,0,1.2-0.4,1.2s-1-0.5-1.3-1.2s0-1.2,0.4-1.2S82.2,45.2,82.4,45.9z"/>
						<path class="st7" d="M83.7,45.9c-0.2,0.7-0.1,1.2,0.4,1.2s1-0.5,1.3-1.2s0-1.2-0.4-1.2S83.9,45.2,83.7,45.9z"/>
						<path class="st11" d="M84,41c0,0,0-0.1,0-0.2c0,0,0-0.1-0.1-0.1c-0.1,0-0.2,0-0.2,0v-0.1l0.1-0.3"/>
						<path class="st8" d="M83.3,41c0,0.1,0.1,0.1,0.1,0.2s0.2,0.1,0.3,0"/>
					</g>
				</g>
				<polyline class="st8" points="82.6,41.5 82.6,41.4 82.8,41.1 82.8,41 82.4,40.9 82.1,40.7 82.2,40.4 				"/>
				<polyline class="st7" points="81.4,42.5 80.3,43.2 80.3,47 83.1,48.6 85.9,47 85.9,43.1 84.6,42.4 				"/>
				<g>
					<defs>
						<rect id="SVGID_9_" x="27.8" y="11.1" width="68.9" height="75.8"/>
					</defs>
					<clipPath id="SVGID_10_">
						<use xlink:href="#SVGID_9_"  style="overflow:visible;"/>
					</clipPath>
					<g class="st12">
						<path class="st8" d="M35.6,19.5c-0.6,0.1-1,0.6-1,1.2v0.8c0,0.3,0.5,0.6,1.2,0.6s1.2-0.3,1.2-0.6v-0.8c0-0.6-0.4-1.1-1-1.2
							v-0.1c0-0.1-0.1-0.1-0.2-0.1s-0.2,0.1-0.2,0.1L35.6,19.5z"/>
					</g>
				</g>
				<polyline class="st7" points="91.2,53.8 83.1,58.6 29.2,27.4 				"/>
				<polyline class="st7" points="54.3,69.2 52.7,68.3 51.3,69.1 53.2,70.2 54.3,69.7 				"/>
				<line class="st7" x1="54.3" y1="69.2" x2="52.7" y2="68.3"/>
				<line class="st7" x1="54.3" y1="70.5" x2="53.5" y2="70.1"/>
				<g>
					<defs>
						<rect id="SVGID_11_" x="27.8" y="11.1" width="68.9" height="75.8"/>
					</defs>
					<clipPath id="SVGID_12_">
						<use xlink:href="#SVGID_11_"  style="overflow:visible;"/>
					</clipPath>
					<g class="st13">
						<path class="st7" d="M53,66.5c-0.2,0.2-0.3,0.4-0.3,0.7v1.2"/>
					</g>
				</g>
				<polyline class="st7" points="52.4,69.8 52,70 29.1,57.1 				"/>
				<line class="st7" x1="52" y1="70" x2="52" y2="69.5"/>
				<g>
					<defs>
						<rect id="SVGID_13_" x="27.8" y="11.1" width="68.9" height="75.8"/>
					</defs>
					<clipPath id="SVGID_14_">
						<use xlink:href="#SVGID_13_"  style="overflow:visible;"/>
					</clipPath>
					<g class="st14">
						<path class="st7" d="M89.3,81.8v-4.3L85,79.9v4.5l-2,1.1l-14.5-6.9l-11.6-5.8l-2.7-1.5v-3c-0.1-0.7-0.5-1.3-1.1-1.7
							C52.3,66.1,52,67,52,67.3v1.4"/>
					</g>
				</g>
				<polyline class="st7" points="86.2,82.1 86.2,81 85.5,81.4 85.5,82.6 				"/>
				<g>
					<defs>
						<rect id="SVGID_15_" x="27.8" y="11.1" width="68.9" height="75.8"/>
					</defs>
					<clipPath id="SVGID_16_">
						<use xlink:href="#SVGID_15_"  style="overflow:visible;"/>
					</clipPath>
					<g class="st15">
						<path class="st7" d="M90,53l1.2,0.8v26.9l-1.9,1.1c-1-0.3-2-0.2-2.9,0.2l-1,0.6c-0.2,0.1-0.3,0.2-0.4,0.3"/>
					</g>
				</g>
				<polyline class="st8" points="52.5,33.9 56.5,31.5 56.5,30 47,23.8 41.2,27.2 				"/>
				<line class="st8" x1="56.5" y1="30" x2="52.5" y2="32.3"/>
				<polygon class="st16" points="41.8,50.4 41.8,57.1 46.9,60.1 46.9,53.3 				"/>
				<line class="st17" x1="41.8" y1="52.6" x2="46.9" y2="55.6"/>
				<line class="st17" x1="41.8" y1="54.8" x2="46.9" y2="57.8"/>
			</g>
		</g>
	</g>
</g>
</svg>
