<svg id="Layer_1" data-name="Layer 1" xmlns="http://www.w3.org/2000/svg" xmlns:xlink="http://www.w3.org/1999/xlink" viewBox="0 0 189.94 92.56"><defs><style>.cls-1,.cls-12,.cls-16,.cls-3,.cls-4{fill:none;}.cls-2{fill:#d2d3d4;}.cls-3,.cls-4{stroke:#231f20;}.cls-12,.cls-16,.cls-3,.cls-4{stroke-miterlimit:10;}.cls-12,.cls-3{stroke-width:0.15px;}.cls-4{stroke-width:0.14px;}.cls-5{clip-path:url(#clip-path);}.cls-6{font-size:5.05px;fill:#d1d3d4;font-family:Calibre-Semibold, Calibre;font-weight:700;letter-spacing:0.22em;}.cls-7{letter-spacing:0.18em;}.cls-8{letter-spacing:0.24em;}.cls-9{letter-spacing:0.24em;}.cls-10{letter-spacing:0em;}.cls-11{fill:#231f20;}.cls-12{stroke:#fff;}.cls-13{clip-path:url(#clip-path-5);}.cls-14{fill:#010101;}.cls-15{opacity:0.5;}.cls-16{stroke:#d0d2d3;stroke-width:1.09px;}</style><clipPath id="clip-path"><rect class="cls-1" x="1.73" y="1.82" width="66.36" height="83.79"/></clipPath><clipPath id="clip-path-5"><rect class="cls-1" x="92.75" y="50.06" width="77.52" height="17.49"/></clipPath></defs><title>Artboard 2residence_I_key

residence_I_key_horizontalresidence_I_key

residence_I_key_horizontal</title><path class="cls-2" d="M83.55,43.8c-.62,0-1-.43-1-1.14v-1.4H86v1.29c0,.71-.32,1.14-.92,1.14a.75.75,0,0,1-.72-.44A.82.82,0,0,1,83.55,43.8Zm-.36-1.86v.66c0,.33.16.51.42.51s.42-.18.42-.51v-.66Zm1.39.57c0,.33.13.51.4.51s.39-.18.39-.51v-.57h-.79Z"/><path class="cls-2" d="M83.85,46.21H82.59v-.7H86V46.9a1,1,0,0,1-1.08,1.18,1,1,0,0,1-1-.77l-1.31.89v-.79l1.26-.83Zm.58,0v.64c0,.36.18.54.46.54s.48-.18.48-.54v-.64Z"/><path class="cls-2" d="M82.54,51.24a1.75,1.75,0,1,1,1.74,1.6A1.6,1.6,0,0,1,82.54,51.24Zm2.85,0c0-.53-.45-.88-1.11-.88s-1.12.35-1.12.88.46.89,1.12.89S85.39,51.78,85.39,51.24Z"/><path class="cls-2" d="M86,56.13l-3.38,1.29v-.71l.81-.3V55.14l-.81-.29v-.71L86,55.43Zm-2-.77v.83l1.12-.41Z"/><path class="cls-2" d="M86,59v1.2a1.69,1.69,0,0,1-3.38,0V59Zm-2.76,1.17a1.07,1.07,0,0,0,2.14,0v-.47H83.21Z"/><path class="cls-2" d="M86,65.68l-2.27.59,2.27.55v.69l-3.38-.87V66l2.23-.59-2.23-.6v-.64L86,63.28V64l-2.27.55,2.27.59Z"/><path class="cls-2" d="M86,70.66,82.59,72v-.71l.81-.3V69.67l-.81-.29v-.71L86,70Zm-2-.77v.83l1.12-.41Z"/><path class="cls-2" d="M86,75.32v.74l-2.1-1.22H82.59v-.7h1.28L86,72.93v.76l-1.43.82Z"/><path class="cls-2" d="M180.94,35.06v.7h-2.75v1.57h-.62V35.06Z"/><path class="cls-2" d="M180.94,40.81l-3.37,1.29v-.71l.81-.31V39.82l-.81-.3v-.7l3.37,1.29ZM179,40v.82l1.12-.41Z"/><path class="cls-2" d="M177.57,43.72h3.37V46h-.61V44.41h-.86v1.44h-.61V44.41h-1.29v-.69Z"/><path class="cls-2" d="M180.94,49.21l-3.37,1.29v-.71l.81-.3V48.22l-.81-.29v-.71l3.37,1.3Zm-2-.77v.83l1.12-.41Z"/><path class="cls-2" d="M180.94,53.87v.74l-2.09-1.23h-1.28v-.7h1.28l2.09-1.21v.76l-1.43.82Z"/><path class="cls-2" d="M180.94,58.5h-.61V56.9h-.74v1.45H179V56.9h-.8v1.6h-.62V56.21h3.37Z"/><path class="cls-2" d="M180.94,60.07V63h-.61V61.86h-2.76v-.7h2.76V60.07Z"/><path class="cls-2" d="M180.94,64.44v2.88h-.61V66.23h-2.76v-.71h2.76V64.44Z"/><path class="cls-2" d="M180.94,71.28h-.61v-1.6h-.74v1.46H179V69.68h-.8v1.6h-.62V69h3.37Z"/><path class="cls-2" d="M178.53,75.91a.64.64,0,0,0-.44.67c0,.34.16.57.43.57s.31-.12.38-.41l.13-.61a.93.93,0,0,1,.93-.85,1.08,1.08,0,0,1,1,1.21,1.21,1.21,0,0,1-1,1.32v-.69a.61.61,0,0,0,.4-.63c0-.31-.16-.53-.4-.53s-.31.13-.37.38l-.14.62c-.13.55-.44.88-.95.88a1.11,1.11,0,0,1-1.05-1.25,1.27,1.27,0,0,1,1-1.4v.72Z"/><path class="cls-2" d="M180.94,79.3v2.88h-.61V81.09h-2.76v-.71h2.76V79.3Z"/><path class="cls-2" d="M112.39,39.3h.7v2.76h1.57v.62h-2.27Z"/><path class="cls-2" d="M118.57,39.3v.62H117v.73h1.45v.6H117v.81h1.6v.62h-2.29V39.3Z"/><path class="cls-2" d="M121.64,42.73a1.75,1.75,0,1,1,1.6-1.74A1.61,1.61,0,0,1,121.64,42.73Zm0-2.85c-.53,0-.87.45-.87,1.11s.34,1.12.87,1.12.89-.46.89-1.12S122.18,39.88,121.64,39.88Z"/><path class="cls-2" d="M127.66,42.68h-.56l-1.59-2.25v2.25h-.67V39.3h.66L127,41.44V39.3h.68Z"/><path class="cls-2" d="M131.16,39.3l1.29,3.38h-.71l-.31-.82h-1.26l-.3.82h-.7l1.29-3.38Zm-.77,2h.82l-.41-1.12Z"/><path class="cls-2" d="M134.65,41.42v1.26H134V39.3h1.39a1.05,1.05,0,0,1,1.19,1.08,1,1,0,0,1-.77,1l.89,1.31h-.79L135,41.42Zm0-.58h.65c.35,0,.53-.19.53-.47s-.18-.47-.53-.47h-.65Z"/><path class="cls-2" d="M138.15,39.3h1.19a1.69,1.69,0,0,1,0,3.38h-1.19Zm1.17,2.76a1.07,1.07,0,0,0,0-2.14h-.47v2.14Z"/><path class="cls-2" d="M145.36,41.72a.63.63,0,0,0,.67.43c.34,0,.56-.15.56-.42s-.12-.32-.41-.38l-.61-.14c-.48-.11-.85-.37-.85-.92a1.09,1.09,0,0,1,1.21-1,1.22,1.22,0,0,1,1.33,1h-.7a.59.59,0,0,0-.62-.4c-.32,0-.54.15-.54.39s.13.31.38.37l.62.14c.55.13.88.44.88,1,0,.66-.54,1-1.25,1a1.28,1.28,0,0,1-1.4-1Z"/><path class="cls-2" d="M148.64,39.3h2.88v.62h-1.09v2.76h-.71V39.92h-1.08Z"/><path class="cls-2" d="M109.91,74.55a1.34,1.34,0,0,1,1.42,1.14h-.7a.72.72,0,0,0-.72-.52c-.54,0-.85.48-.85,1.12s.31,1.11.85,1.11a.72.72,0,0,0,.72-.52h.7A1.35,1.35,0,0,1,109.91,78a1.75,1.75,0,0,1,0-3.48Z"/><path class="cls-2" d="M114.65,74.6,115.94,78h-.71l-.31-.82h-1.26l-.3.82h-.7L114,74.6Zm-.77,2h.82l-.41-1.12Z"/><path class="cls-2" d="M117,74.6h2.88v.62h-1.09V78h-.71V75.22H117Z"/><path class="cls-2" d="M124.51,74.6V78h-.7V76.56h-1.53V78h-.7V74.6h.7v1.34h1.53V74.6Z"/><path class="cls-2" d="M128.66,74.6v.62h-1.6V76h1.45v.6h-1.45v.8h1.6V78h-2.29V74.6Z"/><path class="cls-2" d="M131.12,76.72V78h-.7V74.6h1.39A1,1,0,0,1,133,75.67a1,1,0,0,1-.77,1l.89,1.31h-.79l-.84-1.26Zm0-.58h.64c.36,0,.54-.19.54-.47s-.18-.47-.54-.47h-.64Z"/><path class="cls-2" d="M135.43,78h-.7V74.6h.7Z"/><path class="cls-2" d="M140.1,78h-.55L138,75.73V78h-.67V74.6h.66l1.49,2.13V74.6h.67Z"/><path class="cls-2" d="M144.25,74.6v.62h-1.6V76h1.45v.6h-1.45v.8h1.6V78H142V74.6Z"/><path class="cls-2" d="M148.39,74.6h.7v2.75h1.57V78h-2.27Z"/><path class="cls-2" d="M155.21,78h-.56l-1.59-2.25V78h-.68V74.6H153l1.49,2.13V74.6h.68V78Z"/><polyline class="cls-3" points="66.68 50.13 55.84 56.26 6.96 24.06"/><polyline class="cls-3" points="66.68 52.53 55.84 58.65 6.96 26.46"/><polyline class="cls-3" points="66.68 54.93 55.84 61.05 6.96 28.86"/><polyline class="cls-3" points="66.68 57.33 55.84 63.45 6.96 31.26"/><polyline class="cls-3" points="66.68 59.73 55.84 65.85 6.96 33.66"/><polyline class="cls-3" points="66.68 62.13 55.84 68.25 6.96 36.06"/><polyline class="cls-3" points="66.68 64.53 55.84 70.65 6.96 38.45"/><polyline class="cls-3" points="66.68 66.92 55.84 73.05 6.96 40.85"/><polyline class="cls-3" points="66.68 69.32 55.84 75.44 6.96 43.25"/><polyline class="cls-3" points="66.68 71.72 55.84 77.84 6.96 45.65"/><polyline class="cls-3" points="66.68 74.12 55.84 80.24 6.96 48.05"/><line class="cls-4" x1="16.23" y1="26.23" x2="16.23" y2="24.93"/><line class="cls-4" x1="20.99" y1="26.85" x2="20.99" y2="25.4"/><line class="cls-4" x1="17.09" y1="24.4" x2="17.09" y2="22.95"/><line class="cls-4" x1="25.56" y1="24.2" x2="25.56" y2="22.75"/><line class="cls-4" x1="57.15" y1="48.07" x2="57.15" y2="46.8"/><line class="cls-4" x1="39.57" y1="38.64" x2="39.57" y2="37.37"/><line class="cls-4" x1="14.61" y1="23.91" x2="14.61" y2="26.06"/><line class="cls-4" x1="22.38" y1="19.3" x2="22.38" y2="20.78"/><line class="cls-4" x1="57.15" y1="48.07" x2="57.84" y2="48.5"/><line class="cls-4" x1="19.72" y1="19.34" x2="19.72" y2="15.51"/><line class="cls-4" x1="12.01" y1="14.45" x2="12.01" y2="10.33"/><line class="cls-4" x1="14.98" y1="11.14" x2="14.98" y2="9.32"/><line class="cls-4" x1="14.96" y1="17.59" x2="14.96" y2="12.15"/><line class="cls-4" x1="18.02" y1="14.41" x2="18.02" y2="10.4"/><line class="cls-4" x1="14.98" y1="11.23" x2="14.98" y2="9.42"/><line class="cls-4" x1="18.31" y1="15.66" x2="18.31" y2="14.38"/><line class="cls-4" x1="11.66" y1="15.84" x2="11.66" y2="14.55"/><line class="cls-4" x1="14.69" y1="22.27" x2="14.69" y2="18.46"/><line class="cls-4" x1="10.37" y1="19.38" x2="10.37" y2="15.66"/><polyline class="cls-4" points="16.39 25.01 14.61 26.06 8.12 21.78 8.12 19.65 10.37 18.33"/><line class="cls-4" x1="16.21" y1="24.97" x2="17.1" y2="24.44"/><line class="cls-4" x1="14.64" y1="22.25" x2="10.37" y2="19.44"/><line class="cls-4" x1="14.97" y1="16.19" x2="18.24" y2="14.27"/><line class="cls-4" x1="14.71" y1="17.85" x2="18.24" y2="15.78"/><g class="cls-5"><path class="cls-4" d="M14.33,13.22c.25.72.05,1.31-.44,1.31s-1.11-.59-1.36-1.31,0-1.31.44-1.31S14.08,12.49,14.33,13.22Z"/><path class="cls-4" d="M15.62,13.24c-.25.73,0,1.31.45,1.31s1.1-.58,1.35-1.3.06-1.32-.44-1.32S15.88,12.52,15.62,13.24Z"/></g><line class="cls-4" x1="14.69" y1="18.5" x2="19.76" y2="15.52"/><line class="cls-4" x1="14.61" y1="22.3" x2="19.65" y2="19.34"/><line class="cls-4" x1="11.5" y1="14.55" x2="11.99" y2="14.27"/><line class="cls-4" x1="10.37" y1="15.65" x2="14.64" y2="18.46"/><line class="cls-4" x1="8.12" y1="19.63" x2="14.61" y2="23.91"/><line class="cls-4" x1="18.09" y1="14.22" x2="18.31" y2="14.38"/><line class="cls-4" x1="11.66" y1="14.89" x2="10.37" y2="15.66"/><line class="cls-4" x1="8.12" y1="20.93" x2="6.96" y2="21.62"/><line class="cls-4" x1="19.77" y1="17.58" x2="22.38" y2="19.3"/><line class="cls-4" x1="14.87" y1="12.3" x2="18.04" y2="10.41"/><line class="cls-4" x1="12.01" y1="10.37" x2="13.26" y2="9.63"/><line class="cls-4" x1="14.87" y1="11.3" x2="16.78" y2="10.18"/><line class="cls-4" x1="14.99" y1="9.46" x2="16.74" y2="8.43"/><line class="cls-4" x1="12.01" y1="10.32" x2="14.96" y2="12.34"/><line class="cls-4" x1="16.67" y1="9.43" x2="18.04" y2="10.33"/><line class="cls-4" x1="18.31" y1="14.71" x2="19.76" y2="15.67"/><line class="cls-4" x1="13.23" y1="10.13" x2="15.03" y2="11.3"/><line class="cls-4" x1="13.38" y1="8.44" x2="14.98" y2="9.49"/><line class="cls-4" x1="15.84" y1="7.85" x2="16.76" y2="8.45"/><g class="cls-5"><path class="cls-4" d="M13.39,6.39c0,.07-.16.21-.18.26l.11.28c.1.14.48.27,1.12.08s2-.88,2.09-1.6L16.32,5a.92.92,0,0,0-.42,0"/></g><polyline class="cls-4" points="13.99 3.77 14.89 4.21 15.17 4.09 15.8 3.21"/><g class="cls-5"><path class="cls-4" d="M16.38,5.77a1.53,1.53,0,0,1,0,.64A1.51,1.51,0,0,1,14.6,7.59a1.54,1.54,0,0,1-.8-.44l-.06-.05"/><path class="cls-4" d="M13.51,6.71a1.58,1.58,0,0,1-.11-.37,1.51,1.51,0,0,1,1.27-1.72A1.45,1.45,0,0,1,16,5.07a1.28,1.28,0,0,1,.24.36"/><path class="cls-4" d="M16,8a1,1,0,0,0,0-.16.1.1,0,0,0-.08-.07.81.81,0,0,0-.27.05V7.73l.08-.34"/><path class="cls-4" d="M15.3,8c0,.06,0,.13.06.17s.17.11.29,0"/></g><polyline class="cls-4" points="14.49 8.61 14.49 8.47 14.69 8.14 14.65 8.03 14.29 7.97 13.97 7.77 14.1 7.39"/><line class="cls-4" x1="12.03" y1="14.27" x2="14.97" y2="16.21"/><line class="cls-4" x1="11.69" y1="15.64" x2="14.78" y2="17.68"/><line class="cls-4" x1="14.15" y1="7.78" x2="13.23" y2="8.38"/><line class="cls-4" x1="16.67" y1="10.23" x2="16.67" y2="8.52"/><line class="cls-4" x1="13.23" y1="10.13" x2="13.23" y2="8.37"/><line class="cls-4" x1="39.57" y1="37.37" x2="49.6" y2="43.75"/><line class="cls-4" x1="51.27" y1="37.89" x2="55.43" y2="40.34"/><line class="cls-4" x1="17.09" y1="24.42" x2="20.99" y2="26.9"/><line class="cls-4" x1="17.09" y1="22.9" x2="20.99" y2="25.38"/><line class="cls-4" x1="21.66" y1="20.27" x2="25.56" y2="22.75"/><line class="cls-4" x1="25.56" y1="23.47" x2="50.89" y2="38"/><line class="cls-4" x1="41.24" y1="36.01" x2="48.05" y2="39.92"/><polyline class="cls-4" points="61.31 45.66 61.68 45.45 61.68 44.2 55.42 40.61"/><polyline class="cls-4" points="62.56 47.35 60.17 48.76 57.85 47.29"/><line class="cls-4" x1="60.16" y1="50.92" x2="60.16" y2="48.76"/><polyline class="cls-4" points="57.15 48.07 53.72 50.08 16.22 26.23"/><polyline class="cls-4" points="59.23 45.58 53.72 48.81 16.18 24.93"/><line class="cls-4" x1="53.71" y1="50.08" x2="53.71" y2="48.81"/><line class="cls-4" x1="55.42" y1="40.34" x2="49.6" y2="43.74"/><polyline class="cls-4" points="55.43 40.34 55.43 41.56 49.63 44.96 39.57 38.57"/><line class="cls-4" x1="49.6" y1="44.95" x2="49.6" y2="43.75"/><line class="cls-4" x1="51.27" y1="37.89" x2="47.72" y2="39.97"/><line class="cls-4" x1="41.7" y1="36.14" x2="39.57" y2="37.39"/><line class="cls-4" x1="25.56" y1="24.17" x2="20.99" y2="26.85"/><line class="cls-4" x1="25.56" y1="22.75" x2="20.99" y2="25.43"/><line class="cls-4" x1="21.65" y1="20.27" x2="17.07" y2="22.95"/><line class="cls-4" x1="22.38" y1="19.37" x2="14.71" y2="23.86"/><line class="cls-4" x1="61.62" y1="44.18" x2="60.41" y2="44.89"/><text class="cls-6" transform="matrix(0.82, 0.57, -0.86, 0.5, 4.9, 57.16)">C<tspan class="cls-7" x="4.14" y="0">A</tspan><tspan class="cls-8" x="8.2" y="0">THER</tspan><tspan class="cls-9" x="24.69" y="0">I</tspan><tspan class="cls-8" x="27.13" y="0">NE L</tspan><tspan class="cls-10" x="41.41" y="0">N</tspan></text><polyline class="cls-4" points="66.68 47.73 55.84 53.86 6.96 21.66"/><polyline class="cls-4" points="59.13 46.52 57.84 47.29 57.84 49.44 60.16 50.92 62.56 49.52 62.56 47.35 61.59 46.73"/><line class="cls-4" x1="55.86" y1="53.87" x2="55.86" y2="82.54"/><line class="cls-4" x1="61.62" y1="78.54" x2="60.83" y2="79"/><polyline class="cls-4" points="61.62 78.54 62.11 78.85 66.68 76.17 66.68 47.72 61.68 44.85"/><g class="cls-5"><path class="cls-4" d="M61.62,78.54v-.69a.43.43,0,0,0-.14-.31"/><path class="cls-4" d="M62.12,78.85v-1c0-.24-.21-.56-.7-.28a1.15,1.15,0,0,0-.59.93v1.11l-5,2.93-7.49-5.18L38.9,70.88,31,65.43,14.85,53.86,7,48.18V21.66"/><path class="cls-4" d="M60.16,45.22a1.28,1.28,0,0,0-1,1.28v.9c0,.35.55.63,1.23.63s1.24-.28,1.24-.63v-.9a1.28,1.28,0,0,0-1-1.28v-.13c0-.07-.08-.14-.21-.14s-.2.07-.2.14Z"/></g><polygon class="cls-11" points="37.24 63.12 34.12 61.07 34.12 58.8 37.24 60.85 37.24 63.12"/><polygon class="cls-11" points="37.24 60.73 34.12 58.67 34.12 56.4 37.24 58.45 37.24 60.73"/><polygon class="cls-11" points="37.24 58.31 34.13 56.26 34.13 53.99 37.24 56.05 37.24 58.31"/><polygon class="cls-11" points="37.24 55.91 34.12 53.85 34.12 51.6 37.24 53.65 37.24 55.91"/><polygon class="cls-11" points="37.24 53.52 34.12 51.47 34.12 49.2 37.24 51.25 37.24 53.52"/><polygon class="cls-11" points="37.24 51.14 34.12 49.09 34.12 46.81 37.24 48.86 37.24 51.14"/><polygon class="cls-11" points="37.24 48.74 34.12 46.69 34.12 44.42 37.24 46.48 37.24 48.74"/><polygon class="cls-11" points="37.24 46.34 34.12 44.28 34.12 42.03 37.24 44.08 37.24 46.34"/><line class="cls-12" x1="34.12" y1="44.34" x2="37.24" y2="46.39"/><line class="cls-12" x1="34.12" y1="46.73" x2="37.24" y2="48.78"/><line class="cls-12" x1="34.12" y1="49.13" x2="37.24" y2="51.18"/><line class="cls-12" x1="34.12" y1="51.53" x2="37.24" y2="53.58"/><line class="cls-12" x1="34.12" y1="53.92" x2="37.24" y2="55.97"/><line class="cls-12" x1="34.12" y1="56.32" x2="37.24" y2="58.37"/><line class="cls-12" x1="34.12" y1="58.72" x2="37.24" y2="60.77"/><g class="cls-13"><polygon class="cls-14" points="133.27 58.07 135.08 58.07 135.08 58.23 136.02 58.23 136.02 58.07 136.58 58.07 136.58 58.97 136.7 58.97 136.7 59.67 136.42 59.67 136.42 64.65 130.28 64.3 130.28 59.81 131.76 59.81 131.76 58.6 133.27 58.6 133.27 58.07"/><g class="cls-13"><polygon class="cls-16" points="168.41 51.22 168.41 66.39 93.69 61.74 93.72 51.22 168.41 51.22"/></g></g></svg>