<?xml version="1.0" encoding="utf-8"?>
<!-- Generator: Adobe Illustrator 23.0.0, SVG Export Plug-In . SVG Version: 6.00 Build 0)  -->
<svg version="1.1" id="Layer_1" xmlns="http://www.w3.org/2000/svg" xmlns:xlink="http://www.w3.org/1999/xlink" x="0px" y="0px"
	 viewBox="0 0 200.6 198.9" style="enable-background:new 0 0 200.6 198.9;" xml:space="preserve">
<style type="text/css">
	.st0{clip-path:url(#SVGID_2_);}
	.st1{clip-path:url(#SVGID_4_);}
	.st2{enable-background:new    ;}
	.st3{fill:#D1D3D4;}
	.st4{fill:#010101;}
	.st5{clip-path:url(#SVGID_6_);}
	.st6{opacity:0.5;}
	.st7{clip-path:url(#SVGID_8_);}
	.st8{clip-path:url(#SVGID_10_);}
	.st9{fill:none;stroke:#D1D3D4;stroke-width:0.5;stroke-miterlimit:10;}
	.st10{clip-path:url(#SVGID_12_);}
	.st11{fill:none;stroke:#D1D3D4;stroke-width:1.09;stroke-miterlimit:10;}
	.st12{clip-path:url(#SVGID_14_);}
	.st13{clip-path:url(#SVGID_16_);}
	.st14{fill:none;stroke:#231F20;stroke-width:0.15;stroke-miterlimit:10;}
	.st15{fill:none;stroke:#231F20;stroke-width:0.14;stroke-miterlimit:10;}
	.st16{clip-path:url(#SVGID_18_);}
	.st17{clip-path:url(#SVGID_20_);}
	.st18{clip-path:url(#SVGID_22_);}
	.st19{clip-path:url(#SVGID_24_);}
	.st20{clip-path:url(#SVGID_26_);}
	.st21{fill:#231F20;}
	.st22{clip-path:url(#SVGID_28_);}
	.st23{clip-path:url(#SVGID_30_);}
	.st24{clip-path:url(#SVGID_32_);}
	.st25{clip-path:url(#SVGID_34_);}
	.st26{fill:none;stroke:#FFFFFF;stroke-width:0.13;stroke-miterlimit:10;}
	.st27{clip-path:url(#SVGID_36_);}
	.st28{clip-path:url(#SVGID_38_);}
	.st29{clip-path:url(#SVGID_40_);}
	.st30{fill:none;stroke:#231F20;stroke-width:0.14;stroke-linejoin:bevel;}
	.st31{clip-path:url(#SVGID_42_);}
	.st32{clip-path:url(#SVGID_44_);}
	.st33{clip-path:url(#SVGID_46_);}
	.st34{clip-path:url(#SVGID_48_);}
	.st35{clip-path:url(#SVGID_50_);}
	.st36{clip-path:url(#SVGID_52_);}
	.st37{clip-path:url(#SVGID_54_);}
	.st38{clip-path:url(#SVGID_56_);}
	.st39{clip-path:url(#SVGID_58_);}
</style>
<title>residence_A_15_key</title>
<g>
	<g>
		<g>
			<defs>
				<rect id="SVGID_1_" x="29.8" y="122.7" width="144.5" height="78.6"/>
			</defs>
			<clipPath id="SVGID_2_">
				<use xlink:href="#SVGID_1_"  style="overflow:visible;"/>
			</clipPath>
			<g class="st0">
				<g>
					<defs>
						<rect id="SVGID_3_" x="29.8" y="122.7" width="144.5" height="78.6"/>
					</defs>
					<clipPath id="SVGID_4_">
						<use xlink:href="#SVGID_3_"  style="overflow:visible;"/>
					</clipPath>
					<g class="st1">
						<g class="st2">
							<path class="st3" d="M71.9,186c1,0,1.6,0.6,1.8,1.5h-0.9c-0.1-0.4-0.4-0.7-0.9-0.7c-0.7,0-1.1,0.6-1.1,1.4
								c0,0.8,0.4,1.4,1.1,1.4c0.5,0,0.8-0.3,0.9-0.7h0.9c-0.2,0.9-0.8,1.5-1.8,1.5c-1.1,0-2-0.9-2-2.2C69.9,187,70.7,186,71.9,186z
								"/>
						</g>
						<g class="st2">
							<path class="st3" d="M77.9,186.1l1.6,4.3h-0.9l-0.4-1h-1.6l-0.4,1h-0.9l1.6-4.3H77.9z M76.9,188.6H78l-0.5-1.4L76.9,188.6z"
								/>
						</g>
						<g class="st2">
							<path class="st3" d="M81,186.1h3.7v0.8h-1.4v3.5h-0.9v-3.5H81V186.1z"/>
						</g>
						<g class="st2">
							<path class="st3" d="M90.5,186.1v4.3h-0.9v-1.8h-1.9v1.8h-0.9v-4.3h0.9v1.7h1.9v-1.7H90.5z"/>
						</g>
						<g class="st2">
							<path class="st3" d="M95.8,186.1v0.8h-2v0.9h1.8v0.8h-1.8v1h2v0.8h-2.9v-4.3H95.8z"/>
							<path class="st3" d="M98.9,188.8v1.6H98v-4.3h1.8c0.9,0,1.5,0.5,1.5,1.4c0,0.7-0.4,1.1-1,1.3l1.1,1.7h-1l-1.1-1.6H98.9z
								 M98.9,188.1h0.8c0.4,0,0.7-0.2,0.7-0.6c0-0.4-0.2-0.6-0.7-0.6h-0.8V188.1z"/>
							<path class="st3" d="M104.4,190.4h-0.9v-4.3h0.9V190.4z"/>
							<path class="st3" d="M110.3,190.4h-0.7l-2-2.9v2.9h-0.9v-4.3h0.8l1.9,2.7v-2.7h0.9V190.4z"/>
							<path class="st3" d="M115.6,186.1v0.8h-2v0.9h1.8v0.8h-1.8v1h2v0.8h-2.9v-4.3H115.6z"/>
							<path class="st3" d="M120.9,186.1h0.9v3.5h2v0.8h-2.9V186.1z"/>
						</g>
						<g class="st2">
							<path class="st3" d="M129.6,190.4h-0.7l-2-2.9v2.9H126v-4.3h0.8l1.9,2.7v-2.7h0.9V190.4z"/>
						</g>
					</g>
				</g>
				<g class="st2">
					<path class="st3" d="M33.6,143.3c-0.8,0-1.2-0.5-1.2-1.4V140h4.3v1.6c0,0.9-0.4,1.5-1.2,1.5c-0.5,0-0.8-0.3-0.9-0.6
						C34.5,143,34.1,143.3,33.6,143.3z M33.1,140.9v0.8c0,0.4,0.2,0.6,0.5,0.6c0.3,0,0.5-0.2,0.5-0.6v-0.8H33.1z M34.9,141.6
						c0,0.4,0.2,0.7,0.5,0.7c0.3,0,0.5-0.2,0.5-0.7v-0.7h-1V141.6z"/>
					<path class="st3" d="M34,146.3h-1.6v-0.9h4.3v1.8c0,0.9-0.5,1.5-1.4,1.5c-0.7,0-1.1-0.4-1.3-1l-1.7,1.1v-1l1.6-1.1V146.3z
						 M34.7,146.3v0.8c0,0.4,0.2,0.7,0.6,0.7c0.4,0,0.6-0.2,0.6-0.7v-0.8H34.7z"/>
				</g>
				<g class="st2">
					<path class="st3" d="M32.3,152.7c0-1.2,0.9-2,2.2-2c1.3,0,2.2,0.8,2.2,2s-0.9,2-2.2,2C33.2,154.8,32.3,153.9,32.3,152.7z
						 M35.9,152.7c0-0.7-0.6-1.1-1.4-1.1c-0.8,0-1.4,0.4-1.4,1.1c0,0.7,0.6,1.1,1.4,1.1C35.4,153.9,35.9,153.4,35.9,152.7z"/>
				</g>
				<g class="st2">
					<path class="st3" d="M36.7,159l-4.3,1.6v-0.9l1-0.4v-1.6l-1-0.4v-0.9l4.3,1.6V159z M34.2,158v1.1l1.4-0.5L34.2,158z"/>
				</g>
				<g class="st2">
					<path class="st3" d="M36.7,162.7v1.5c0,1.3-0.8,2.1-2.2,2.1s-2.2-0.8-2.2-2.1v-1.5H36.7z M33.2,164.1c0,0.8,0.5,1.3,1.4,1.3
						c0.8,0,1.4-0.4,1.4-1.3v-0.6h-2.7V164.1z"/>
				</g>
				<g class="st2">
					<path class="st3" d="M36.7,171.1l-2.9,0.7l2.9,0.7v0.9l-4.3-1.1v-0.8l2.8-0.8l-2.8-0.8v-0.8l4.3-1.1v0.9l-2.9,0.7l2.9,0.8
						V171.1z"/>
				</g>
				<g class="st2">
					<path class="st3" d="M36.7,177.5l-4.3,1.6v-0.9l1-0.4v-1.6l-1-0.4v-0.9l4.3,1.6V177.5z M34.2,176.5v1.1l1.4-0.5L34.2,176.5z"/>
				</g>
				<g class="st2">
					<path class="st3" d="M36.7,183.4v0.9l-2.7-1.6h-1.6v-0.9H34l2.7-1.5v1l-1.8,1L36.7,183.4z"/>
				</g>
				<g class="st2">
					<path class="st3" d="M167.1,132.1v0.9h-3.5v2h-0.8v-2.9H167.1z"/>
				</g>
				<g class="st2">
					<path class="st3" d="M167.1,139.5l-4.3,1.6v-0.9l1-0.4v-1.6l-1-0.4v-0.9l4.3,1.6V139.5z M164.6,138.5v1.1l1.4-0.5L164.6,138.5z
						"/>
				</g>
				<g class="st2">
					<path class="st3" d="M162.8,143.2h4.3v2.9h-0.8v-2h-1.1v1.8h-0.8V144h-1.6V143.2z"/>
				</g>
				<g class="st2">
					<path class="st3" d="M167.1,150.2l-4.3,1.6v-0.9l1-0.4v-1.6l-1-0.4v-0.9l4.3,1.6V150.2z M164.6,149.2v1.1l1.4-0.5L164.6,149.2z
						"/>
				</g>
				<g class="st2">
					<path class="st3" d="M167.1,156.1v0.9l-2.7-1.6h-1.6v-0.9h1.6l2.7-1.5v1l-1.8,1L167.1,156.1z"/>
					<path class="st3" d="M167.1,162h-0.8v-2h-0.9v1.8h-0.8v-1.8h-1v2h-0.8v-2.9h4.3V162z"/>
					<path class="st3" d="M167.1,164v3.7h-0.8v-1.4h-3.5v-0.9h3.5V164H167.1z"/>
					<path class="st3" d="M167.1,169.5v3.7h-0.8v-1.4h-3.5v-0.9h3.5v-1.4H167.1z"/>
					<path class="st3" d="M167.1,178.3h-0.8v-2h-0.9v1.8h-0.8v-1.8h-1v2h-0.8v-2.9h4.3V178.3z"/>
				</g>
				<g class="st2">
					<path class="st3" d="M164,184.1c-0.4,0.1-0.6,0.4-0.6,0.9c0,0.4,0.2,0.7,0.5,0.7c0.3,0,0.4-0.2,0.5-0.5l0.2-0.8
						c0.1-0.6,0.5-1.1,1.2-1.1c0.8,0,1.3,0.6,1.3,1.5c0,1-0.5,1.5-1.2,1.7v-0.9c0.3-0.1,0.5-0.3,0.5-0.8c0-0.4-0.2-0.7-0.5-0.7
						c-0.2,0-0.4,0.2-0.5,0.5l-0.2,0.8c-0.2,0.7-0.6,1.1-1.2,1.1c-0.8,0-1.3-0.7-1.3-1.6c0-1,0.5-1.6,1.3-1.8V184.1z"/>
				</g>
				<g class="st2">
					<path class="st3" d="M167.1,188.5v3.7h-0.8v-1.4h-3.5v-0.9h3.5v-1.4H167.1z"/>
				</g>
				<g class="st2">
					<path class="st3" d="M75,132.4h0.9v3.5h2v0.8H75V132.4z"/>
					<path class="st3" d="M82.9,132.4v0.8h-2v0.9h1.8v0.8h-1.8v1h2v0.8H80v-4.3H82.9z"/>
					<path class="st3" d="M86.8,136.8c-1.2,0-2-0.9-2-2.2c0-1.3,0.8-2.2,2-2.2c1.2,0,2,0.9,2,2.2C88.9,135.9,88,136.8,86.8,136.8z
						 M86.8,133.1c-0.7,0-1.1,0.6-1.1,1.4c0,0.8,0.4,1.4,1.1,1.4c0.7,0,1.1-0.6,1.1-1.4C88,133.7,87.5,133.1,86.8,133.1z"/>
					<path class="st3" d="M94.5,136.7h-0.7l-2-2.9v2.9h-0.9v-4.3h0.8l1.9,2.7v-2.7h0.9V136.7z"/>
				</g>
				<g class="st2">
					<path class="st3" d="M98.9,132.4l1.6,4.3h-0.9l-0.4-1h-1.6l-0.4,1h-0.9l1.6-4.3H98.9z M97.9,134.9H99l-0.5-1.4L97.9,134.9z"/>
				</g>
				<g class="st2">
					<path class="st3" d="M103.4,135.1v1.6h-0.9v-4.3h1.8c0.9,0,1.5,0.5,1.5,1.4c0,0.7-0.4,1.1-1,1.3l1.1,1.7h-1l-1.1-1.6H103.4z
						 M103.4,134.4h0.8c0.4,0,0.7-0.2,0.7-0.6c0-0.4-0.2-0.6-0.7-0.6h-0.8V134.4z"/>
					<path class="st3" d="M107.8,132.4h1.5c1.3,0,2.1,0.8,2.1,2.2s-0.8,2.2-2.1,2.2h-1.5V132.4z M109.3,135.9c0.8,0,1.3-0.5,1.3-1.4
						c0-0.8-0.4-1.4-1.3-1.4h-0.6v2.7H109.3z"/>
				</g>
				<g class="st2">
					<path class="st3" d="M117,135.5c0.1,0.4,0.4,0.6,0.9,0.6c0.4,0,0.7-0.2,0.7-0.5c0-0.3-0.2-0.4-0.5-0.5l-0.8-0.2
						c-0.6-0.1-1.1-0.5-1.1-1.2c0-0.8,0.6-1.3,1.5-1.3c1,0,1.5,0.5,1.7,1.2h-0.9c-0.1-0.3-0.3-0.5-0.8-0.5c-0.4,0-0.7,0.2-0.7,0.5
						c0,0.2,0.2,0.4,0.5,0.5l0.8,0.2c0.7,0.2,1.1,0.6,1.1,1.2c0,0.8-0.7,1.3-1.6,1.3c-1,0-1.6-0.5-1.8-1.3H117z"/>
				</g>
				<g class="st2">
					<path class="st3" d="M121.2,132.4h3.7v0.8h-1.4v3.5h-0.9v-3.5h-1.4V132.4z"/>
				</g>
				<polygon class="st4" points="63.5,155.8 63.5,157.9 67.9,157.9 67.9,163.1 71.9,163.1 71.9,165 79.5,165.3 79.5,154 67.6,154 
					67.6,155.3 63.5,155.3 				"/>
				<g>
					<defs>
						<rect id="SVGID_5_" x="44.1" y="150.4" width="112" height="25.3"/>
					</defs>
					<clipPath id="SVGID_6_">
						<use xlink:href="#SVGID_5_"  style="overflow:visible;"/>
					</clipPath>
					<g class="st5">
						<g class="st6">
							<g>
								<defs>
									<rect id="SVGID_7_" x="67.6" y="151.9" width="11.9" height="2"/>
								</defs>
								<clipPath id="SVGID_8_">
									<use xlink:href="#SVGID_7_"  style="overflow:visible;"/>
								</clipPath>
								<g class="st7">
									<polygon class="st4" points="79.5,152.3 71.5,152.3 71.5,151.9 71.4,151.9 71.4,152.3 67.6,152.3 67.6,154 79.5,154 
																			"/>
								</g>
							</g>
						</g>
						<g class="st6">
							<g>
								<defs>
									<rect id="SVGID_9_" x="67.6" y="164.9" width="11.9" height="4.1"/>
								</defs>
								<clipPath id="SVGID_10_">
									<use xlink:href="#SVGID_9_"  style="overflow:visible;"/>
								</clipPath>
								<g class="st8">
									<polygon class="st4" points="79.5,169 79.5,165.3 67.7,164.9 67.6,164.9 67.6,168.6 									"/>
								</g>
							</g>
						</g>
					</g>
				</g>
				<polygon class="st9" points="140.7,153.9 140.7,155.6 146.1,155.6 146.1,161.2 148.6,161.2 148.6,159.6 153,159.8 153,164.6 
					149.9,164.6 148.5,164.6 148.5,163.8 146,163.8 146.1,169.1 99.7,166.6 99.7,170.4 95.1,170.1 95.1,166.1 63.1,164.6 
					63.1,166.9 47,166.3 47.2,153.4 62.6,153.4 62.6,154 				"/>
				<g>
					<defs>
						<rect id="SVGID_11_" x="44.1" y="150.4" width="112" height="25.3"/>
					</defs>
					<clipPath id="SVGID_12_">
						<use xlink:href="#SVGID_11_"  style="overflow:visible;"/>
					</clipPath>
					<g class="st10">
						<polygon class="st11" points="153.4,152.1 153.4,174.1 45.4,167.3 45.5,152.1 						"/>
					</g>
				</g>
			</g>
		</g>
		<g>
			<defs>
				<rect id="SVGID_13_" x="104.8" y="1.5" width="90.6" height="109.4"/>
			</defs>
			<clipPath id="SVGID_14_">
				<use xlink:href="#SVGID_13_"  style="overflow:visible;"/>
			</clipPath>
			<g class="st12">
				<g>
					<defs>
						<rect id="SVGID_15_" x="104.8" y="1.5" width="90.6" height="109.3"/>
					</defs>
					<clipPath id="SVGID_16_">
						<use xlink:href="#SVGID_15_"  style="overflow:visible;"/>
					</clipPath>
					<g class="st13">
						<path class="st14" d="M-0.5,65.9L1.2,67v35.4l-2.5,1.4c-1.3-0.4-2.6-0.3-3.8,0.3l-1.3,0.8c-0.2,0.1-0.4,0.3-0.6,0.4"/>
					</g>
				</g>
				<polyline class="st14" points="193.9,65.7 178.2,74.5 112.3,31.2 				"/>
				<polyline class="st14" points="193.9,68.6 178.2,77.5 112.3,34.1 				"/>
				<polyline class="st14" points="193.9,71.6 178.2,80.5 112.3,37.1 				"/>
				<polyline class="st14" points="193.9,74.6 178.2,83.4 112.3,40.1 				"/>
				<polyline class="st14" points="193.9,77.5 178.2,86.4 112.3,43 				"/>
				<polyline class="st14" points="193.9,80.5 178.2,89.3 112.3,46 				"/>
				<polyline class="st14" points="193.9,83.4 178.2,92.3 112.3,49 				"/>
				<polyline class="st14" points="193.9,86.4 178.2,95.3 112.3,51.9 				"/>
				<polyline class="st14" points="193.9,89.4 178.2,98.2 112.3,54.9 				"/>
				<polyline class="st14" points="193.9,92.3 178.2,101.2 112.3,57.8 				"/>
				<polyline class="st14" points="193.9,95.3 178.2,104.2 112.3,60.8 				"/>
				<g class="st2">
					<path class="st3" d="M118.9,73.7c0.7,0.5,0.7,1.1,0.2,1.6l-0.6-0.5c0.2-0.2,0.2-0.5-0.2-0.8c-0.5-0.3-1.3-0.3-1.9,0.1
						c-0.6,0.4-0.8,0.8-0.3,1.2c0.4,0.3,0.8,0.3,1.2,0.2l0.6,0.5c-0.8,0.3-1.7,0.3-2.4-0.3c-0.8-0.6-0.8-1.4,0.2-2
						C116.7,73.1,118.1,73.1,118.9,73.7z"/>
				</g>
				<g class="st2">
					<path class="st3" d="M123.3,76.8l-2.1,2.8l-0.7-0.5l0.5-0.7l-1.2-0.8l-1.1,0.3l-0.7-0.5l4.5-1.1L123.3,76.8z M120.7,77.5
						l0.8,0.5l0.7-0.9L120.7,77.5z"/>
				</g>
				<g class="st2">
					<path class="st3" d="M125.7,78.5l2.7,1.9l-0.6,0.3l-1-0.7l-2.7,1.6l-0.7-0.5l2.7-1.6l-1-0.7L125.7,78.5z"/>
				</g>
				<g class="st2">
					<path class="st3" d="M132.7,83.4l-3.3,1.9l-0.7-0.5l1.4-0.8l-1.4-1l-1.4,0.8l-0.7-0.5l3.3-1.9l0.7,0.5l-1.3,0.8l1.4,1l1.3-0.8
						L132.7,83.4z"/>
					<path class="st3" d="M136.7,86.1l-0.6,0.3l-1.5-1l-0.7,0.4l1.3,0.9l-0.6,0.3l-1.3-0.9l-0.8,0.5l1.5,1l-0.6,0.4l-2.1-1.5
						l3.3-1.9L136.7,86.1z"/>
					<path class="st3" d="M137,89l-1.2,0.7l-0.6-0.5l3.3-1.9l1.3,0.9c0.7,0.5,0.7,1,0.1,1.4c-0.5,0.3-1.1,0.3-1.7,0.1l-0.4,1.3
						l-0.7-0.5l0.5-1.3L137,89z M137.6,88.7l0.6,0.4c0.3,0.2,0.7,0.2,1,0.1c0.3-0.2,0.3-0.4,0-0.6l-0.6-0.4L137.6,88.7z"/>
					<path class="st3" d="M139.9,92.6l-0.7-0.5l3.3-1.9l0.7,0.5L139.9,92.6z"/>
					<path class="st3" d="M144.3,95.7l-0.5-0.4l0.7-2.3l-2.2,1.3l-0.6-0.4l3.3-1.9l0.6,0.4l-0.7,2.2l2.1-1.2l0.6,0.4L144.3,95.7z"/>
					<path class="st3" d="M151.6,96.5l-0.6,0.3l-1.5-1l-0.7,0.4l1.3,0.9l-0.6,0.3l-1.3-0.9l-0.8,0.5l1.5,1l-0.6,0.4l-2.1-1.5
						l3.3-1.9L151.6,96.5z"/>
					<path class="st3" d="M155.7,99.3l0.7,0.5l-2.7,1.6l1.5,1l-0.6,0.4l-2.1-1.5L155.7,99.3z"/>
				</g>
				<g class="st2">
					<path class="st3" d="M158.8,105.7l-0.5-0.4l0.7-2.3l-2.2,1.3l-0.6-0.4l3.3-1.9l0.6,0.4l-0.7,2.2l2.1-1.2l0.6,0.4L158.8,105.7z"
						/>
				</g>
				<polyline class="st15" points="193.9,62.7 178.2,71.6 112.3,28.2 				"/>
				<line class="st15" x1="178.3" y1="68.6" x2="178.3" y2="107"/>
				<line class="st15" x1="186.3" y1="101.6" x2="185.3" y2="102.1"/>
				<polyline class="st15" points="186.3,101.6 186.9,101.9 193.9,97.8 193.9,59.7 				"/>
				<polyline class="st15" points="193.9,59.7 178.2,68.6 112.3,25.2 				"/>
				<g>
					<defs>
						<rect id="SVGID_17_" x="104.8" y="1.5" width="90.6" height="109.3"/>
					</defs>
					<clipPath id="SVGID_18_">
						<use xlink:href="#SVGID_17_"  style="overflow:visible;"/>
					</clipPath>
					<g class="st16">
						<path class="st15" d="M186.3,101.6v-0.8c0-0.1-0.1-0.3-0.2-0.4"/>
						<path class="st15" d="M186.9,102v-1.2c0-0.3-0.3-0.7-0.9-0.3c-0.4,0.2-0.7,0.7-0.7,1.2v1.4l-7,4.1l-9.3-6.5l-11.7-8l-9.8-6.7
							l-14.5-10l-20.7-15V25.2l1.4-0.9"/>
					</g>
				</g>
				<line class="st15" x1="180.8" y1="61.3" x2="180.8" y2="59.7"/>
				<line class="st15" x1="121.7" y1="28" x2="121.7" y2="30.6"/>
				<line class="st15" x1="180.8" y1="61.3" x2="181.6" y2="61.8"/>
				<line class="st15" x1="180.8" y1="59.7" x2="181.6" y2="60.2"/>
				<line class="st15" x1="122.2" y1="12.2" x2="122.2" y2="10.2"/>
				<line class="st15" x1="122.2" y1="12.3" x2="122.2" y2="10.1"/>
				<line class="st15" x1="121.8" y1="26" x2="121.8" y2="21.3"/>
				<polyline class="st15" points="123.3,29.7 121.7,30.6 113.7,25.4 113.7,22.7 116.5,21.1 				"/>
				<polyline class="st15" points="122.2,18.5 125.9,16.3 125.9,11.3 125.9,11.2 124.3,10.1 				"/>
				<g>
					<defs>
						<rect id="SVGID_19_" x="104.8" y="1.5" width="90.6" height="109.3"/>
					</defs>
					<clipPath id="SVGID_20_">
						<use xlink:href="#SVGID_19_"  style="overflow:visible;"/>
					</clipPath>
					<g class="st17">
						<path class="st15" d="M121.4,14.8c0.3,0.9,0.1,1.6-0.6,1.6s-1.4-0.7-1.7-1.6s-0.1-1.6,0.6-1.6S121.1,13.9,121.4,14.8z"/>
						<path class="st15" d="M123,14.8c-0.3,0.9-0.1,1.6,0.6,1.6s1.4-0.7,1.7-1.6s0.1-1.6-0.6-1.6S123.3,13.9,123,14.8z"/>
					</g>
				</g>
				<line class="st15" x1="121.8" y1="21.3" x2="127.9" y2="17.8"/>
				<line class="st15" x1="116.5" y1="17.8" x2="121.8" y2="21.3"/>
				<line class="st15" x1="113.7" y1="22.7" x2="121.7" y2="28"/>
				<polyline class="st15" points="126,16 126.3,16.2 126.3,17.8 126.3,17.9 122.2,20.3 122.2,20.2 122.2,13.6 				"/>
				<polyline class="st15" points="118.1,16.9 116.5,17.8 116.5,22.4 116.5,22.5 121.8,26 				"/>
				<polyline class="st15" points="128.1,20.2 131.3,22.3 131.3,24 				"/>
				<line class="st15" x1="122" y1="13.6" x2="125.9" y2="11.3"/>
				<line class="st15" x1="118.5" y1="11.3" x2="120" y2="10.4"/>
				<line class="st15" x1="118.5" y1="11.2" x2="122.2" y2="13.7"/>
				<polyline class="st15" points="126.3,16.6 128,17.8 128,17.8 128,22.3 127.9,22.4 121.7,26 				"/>
				<line class="st15" x1="120.1" y1="8.8" x2="122.2" y2="10.2"/>
				<line class="st15" x1="123.2" y1="8.1" x2="124.3" y2="8.9"/>
				<g>
					<defs>
						<rect id="SVGID_21_" x="104.8" y="1.5" width="90.6" height="109.3"/>
					</defs>
					<clipPath id="SVGID_22_">
						<use xlink:href="#SVGID_21_"  style="overflow:visible;"/>
					</clipPath>
					<g class="st18">
						<path class="st15" d="M120.2,6.3c0,0.1-0.2,0.3-0.2,0.3l0.1,0.3c0.1,0.2,0.6,0.3,1.4,0.1s2.4-1.1,2.6-2l-0.3-0.5
							c-0.2,0-0.3,0-0.5,0"/>
					</g>
				</g>
				<polyline class="st15" points="120.9,3.1 122.1,3.7 122.4,3.5 123.2,2.4 				"/>
				<g>
					<defs>
						<rect id="SVGID_23_" x="104.8" y="1.5" width="90.6" height="109.3"/>
					</defs>
					<clipPath id="SVGID_24_">
						<use xlink:href="#SVGID_23_"  style="overflow:visible;"/>
					</clipPath>
					<g class="st19">
						<path class="st15" d="M123.9,5.6c0.1,0.3,0.1,0.5,0,0.8c-0.2,1-1.2,1.7-2.2,1.5c0,0,0,0,0,0c-0.4-0.1-0.7-0.3-1-0.5l-0.1-0.1"
							/>
						<path class="st15" d="M120.3,6.7c-0.1-0.1-0.1-0.3-0.1-0.4c-0.1-1,0.6-2,1.6-2.1c0.8-0.1,1.6,0.3,1.9,1"/>
						<path class="st15" d="M123.4,8.4c0-0.1,0-0.1,0-0.2c0,0-0.1-0.1-0.1-0.1c-0.1,0-0.2,0-0.3,0.1V8l0.1-0.4"/>
						<path class="st15" d="M122.6,8.4c0,0.1,0.1,0.2,0.1,0.2s0.2,0.1,0.4,0"/>
					</g>
				</g>
				<polyline class="st15" points="121.6,9.1 121.6,8.9 121.8,8.5 121.8,8.4 121.3,8.3 120.9,8.1 121.1,7.6 				"/>
				<line class="st15" x1="118.5" y1="16.1" x2="122.2" y2="18.5"/>
				<polyline class="st15" points="122.1,20.4 118.1,17.8 118.1,17.7 118.1,16.4 118.1,16.3 118.5,16.1 118.5,16.1 118.5,11.2 				
					"/>
				<polyline class="st15" points="121.2,8.1 120,8.8 120,8.9 120,11 122.1,12.4 122.2,12.3 124.3,11.1 124.3,8.9 124.3,8.9 
					122.2,10.1 				"/>
				<line class="st15" x1="157.4" y1="47.6" x2="170.5" y2="55.9"/>
				<polyline class="st15" points="187.5,58.4 184.5,60.2 181.6,58.3 				"/>
				<line class="st15" x1="184.5" y1="64.4" x2="184.5" y2="60.2"/>
				<polyline class="st15" points="181.6,59.2 175.6,62.8 123.3,29.4 				"/>
				<line class="st14" x1="193.9" y1="59.7" x2="131.3" y2="23.4"/>
				<line class="st14" x1="172.4" y1="48" x2="135.3" y2="26.5"/>
				<line class="st15" x1="175.6" y1="64.3" x2="175.6" y2="62.8"/>
				<line class="st15" x1="170.5" y1="57.7" x2="170.5" y2="55.9"/>
				<polygon class="st15" points="178.4,51.3 178.4,53.2 170.6,57.7 157.4,49.4 157.4,47.6 163.2,44.2 171,48.8 172.6,47.9 				"/>
				<line class="st15" x1="178.4" y1="51.3" x2="170.5" y2="55.9"/>
				<line class="st15" x1="135.3" y1="26.4" x2="129.6" y2="29.7"/>
				<polygon class="st15" points="124.8,28.5 124.8,26.6 124.8,26.6 130.2,23.4 135.3,26.4 135.3,28 135.3,28 129.6,31.5 				"/>
				<polyline class="st15" points="180.8,61.3 175.6,64.3 123.3,31 123.3,31 123.3,29.4 124.8,28.5 				"/>
				<line class="st15" x1="129.6" y1="29.7" x2="124.8" y2="26.7"/>
				<line class="st15" x1="129.6" y1="31.4" x2="129.6" y2="29.7"/>
				<polyline class="st15" points="186.4,57.7 186.8,57.5 186.8,56.3 178.4,51.4 				"/>
				<line class="st15" x1="186.8" y1="56.3" x2="186.1" y2="56.7"/>
				<line class="st15" x1="131.3" y1="22.4" x2="121.7" y2="28"/>
				<polyline class="st15" points="183.2,57.4 181.6,58.3 181.6,62.6 184.5,64.4 187.5,62.7 187.5,58.4 186.3,57.7 				"/>
				<g>
					<defs>
						<rect id="SVGID_25_" x="104.8" y="1.5" width="90.6" height="109.3"/>
					</defs>
					<clipPath id="SVGID_26_">
						<use xlink:href="#SVGID_25_"  style="overflow:visible;"/>
					</clipPath>
					<g class="st20">
						<path class="st15" d="M184.5,55.8c-0.7,0.1-1.3,0.8-1.3,1.6v1.1c0,0.4,0.7,0.8,1.5,0.8s1.5-0.3,1.5-0.8v-1.1
							c0-0.8-0.5-1.4-1.3-1.6v-0.2c0-0.1-0.1-0.2-0.2-0.2s-0.3,0.1-0.3,0.2V55.8z"/>
					</g>
				</g>
				<polygon class="st21" points="123.3,29.5 123.3,31 131.9,36.4 131.9,34.9 				"/>
				<g>
					<defs>
						<rect id="SVGID_27_" x="104.8" y="1.5" width="90.6" height="109.3"/>
					</defs>
					<clipPath id="SVGID_28_">
						<use xlink:href="#SVGID_27_"  style="overflow:visible;"/>
					</clipPath>
					<g class="st22">
						<g class="st6">
							<g>
								<defs>
									<rect id="SVGID_29_" x="124.8" y="26.7" width="4.8" height="4.9"/>
								</defs>
								<clipPath id="SVGID_30_">
									<use xlink:href="#SVGID_29_"  style="overflow:visible;"/>
								</clipPath>
								<g class="st23">
									<polygon class="st21" points="124.8,26.7 124.8,28.5 129.6,31.5 129.6,31.5 129.6,29.7 									"/>
								</g>
							</g>
						</g>
					</g>
				</g>
				<polygon class="st21" points="123.3,31 122.1,31.7 130.7,37.3 131.9,36.5 				"/>
				<g>
					<defs>
						<rect id="SVGID_31_" x="104.8" y="1.5" width="90.6" height="109.3"/>
					</defs>
					<clipPath id="SVGID_32_">
						<use xlink:href="#SVGID_31_"  style="overflow:visible;"/>
					</clipPath>
					<g class="st24">
						<g class="st6">
							<g>
								<defs>
									<rect id="SVGID_33_" x="123.3" y="28.5" width="6.3" height="4"/>
								</defs>
								<clipPath id="SVGID_34_">
									<use xlink:href="#SVGID_33_"  style="overflow:visible;"/>
								</clipPath>
								<g class="st25">
									<polygon class="st21" points="124.8,28.5 123.3,29.4 128.2,32.5 129.6,31.5 									"/>
								</g>
							</g>
						</g>
					</g>
				</g>
				<line class="st26" x1="123.3" y1="31" x2="131.9" y2="36.5"/>
			</g>
		</g>
		<g>
			<defs>
				<rect id="SVGID_35_" x="5.9" y="2.3" width="87.8" height="109.4"/>
			</defs>
			<clipPath id="SVGID_36_">
				<use xlink:href="#SVGID_35_"  style="overflow:visible;"/>
			</clipPath>
			<g class="st27">
				<g class="st2">
					<path class="st3" d="M14.2,81.6l0.7,0.4l-2.6,1.7l1.5,0.9l-0.6,0.4L11,83.7L14.2,81.6z"/>
					<path class="st3" d="M20.3,85.5l-0.6,0.4l-1.5-1l-0.7,0.5l1.4,0.9l-0.6,0.4l-1.4-0.9l-0.8,0.5l1.5,1l-0.6,0.4l-2.2-1.4l3.2-2.1
						L20.3,85.5z"/>
					<path class="st3" d="M20.3,89.6c-0.9-0.6-0.8-1.4,0.1-2c1-0.6,2.3-0.7,3.2-0.1c0.9,0.6,0.8,1.4-0.1,2.1
						C22.5,90.1,21.2,90.1,20.3,89.6z M23,87.8c-0.5-0.3-1.3-0.2-1.9,0.2c-0.6,0.4-0.7,0.9-0.2,1.2c0.5,0.3,1.3,0.3,1.9-0.2
						C23.4,88.6,23.5,88.1,23,87.8z"/>
					<path class="st3" d="M26.3,93.3L25.8,93l0.6-2.4L24.2,92l-0.7-0.4l3.2-2.1l0.6,0.4l-0.6,2.2l2-1.3l0.7,0.4L26.3,93.3z"/>
				</g>
				<g class="st2">
					<path class="st3" d="M33.1,93.4l-2,2.9l-0.7-0.4l0.5-0.7l-1.2-0.8l-1.1,0.3L28,94.3l4.5-1.3L33.1,93.4z M30.5,94.2l0.8,0.5
						l0.7-0.9L30.5,94.2z"/>
				</g>
				<g class="st2">
					<path class="st3" d="M34.7,97l-1.2,0.8l-0.7-0.4l3.2-2.1l1.3,0.8c0.7,0.4,0.8,0.9,0.1,1.4c-0.5,0.3-1.1,0.4-1.7,0.2L35.4,99
						l-0.8-0.5l0.4-1.3L34.7,97z M35.2,96.6l0.6,0.4c0.3,0.2,0.7,0.2,1,0c0.3-0.2,0.3-0.4-0.1-0.6L36.1,96L35.2,96.6z"/>
				</g>
				<g class="st2">
					<path class="st3" d="M40.3,97.9l1.2,0.7c1,0.6,1,1.4,0,2.1s-2.2,0.7-3.2,0.1l-1.2-0.7L40.3,97.9z M38.8,100.3
						c0.6,0.4,1.4,0.3,2-0.1c0.6-0.4,0.7-0.9,0.1-1.3l-0.5-0.3l-2,1.3L38.8,100.3z"/>
				</g>
				<g class="st2">
					<path class="st3" d="M45.3,104c-0.2,0.2-0.1,0.5,0.2,0.7c0.3,0.2,0.7,0.2,1,0.1c0.2-0.1,0.2-0.3,0-0.5l-0.5-0.4
						c-0.4-0.4-0.5-0.7,0.1-1.1c0.6-0.4,1.5-0.3,2.2,0.1c0.7,0.5,0.8,1,0.3,1.4l-0.7-0.4c0.1-0.2,0.1-0.4-0.2-0.6
						c-0.3-0.2-0.7-0.2-0.9-0.1c-0.2,0.1-0.2,0.3,0,0.5l0.5,0.5c0.4,0.4,0.4,0.8-0.1,1.1c-0.6,0.4-1.5,0.3-2.2-0.1
						c-0.7-0.5-0.9-1-0.4-1.5L45.3,104z"/>
				</g>
				<g class="st2">
					<path class="st3" d="M51,104.6l2.8,1.7l-0.6,0.4l-1.1-0.7l-2.6,1.7l-0.7-0.4l2.6-1.7l-1-0.7L51,104.6z"/>
				</g>
				<line class="st14" x1="78.7" y1="68.3" x2="78.7" y2="63.7"/>
				<line class="st14" x1="16.4" y1="31" x2="16.4" y2="27.1"/>
				<line class="st14" x1="29.4" y1="36" x2="29.4" y2="38.1"/>
				<line class="st14" x1="23.7" y1="32.7" x2="23.7" y2="34.9"/>
				<line class="st14" x1="30.9" y1="35.1" x2="30.9" y2="37.3"/>
				<line class="st15" x1="30.9" y1="37.3" x2="29.4" y2="38.2"/>
				<line class="st15" x1="30.9" y1="35.2" x2="29.4" y2="36.1"/>
				<line class="st15" x1="70.2" y1="53.7" x2="64" y2="57.4"/>
				<line class="st15" x1="75.1" y1="57.5" x2="69.7" y2="60.7"/>
				<line class="st14" x1="38.5" y1="39.5" x2="38.5" y2="41.6"/>
				<line class="st15" x1="43.7" y1="37.7" x2="69.1" y2="54.4"/>
				<line class="st15" x1="70.2" y1="53.7" x2="75.1" y2="56.9"/>
				<line class="st15" x1="43.7" y1="37.1" x2="69.6" y2="54.1"/>
				<line class="st15" x1="13.4" y1="29.7" x2="16" y2="31.2"/>
				<line class="st15" x1="23.7" y1="32.7" x2="29.4" y2="36"/>
				<line class="st15" x1="31" y1="35.2" x2="38.5" y2="39.6"/>
				<line class="st15" x1="30.9" y1="37.3" x2="38.5" y2="41.6"/>
				<line class="st15" x1="64" y1="57.4" x2="69.7" y2="60.7"/>
				<line class="st14" x1="78.7" y1="54.9" x2="78.7" y2="52.6"/>
				<polyline class="st14" points="69.2,65 68.2,64.5 67.1,65.2 18,36.7 18,34.3 				"/>
				<polyline class="st14" points="30.3,28.9 25.4,25.7 14.4,32.2 67.1,62.8 				"/>
				<line class="st14" x1="67.1" y1="62.8" x2="67.1" y2="65.2"/>
				<line class="st14" x1="68.2" y1="62.1" x2="67.1" y2="62.7"/>
				<polyline class="st14" points="68.2,64.5 68.2,62.1 64,59.6 				"/>
				<line class="st14" x1="78.8" y1="72.8" x2="78.8" y2="70.1"/>
				<polyline class="st14" points="84.6,62.7 87.8,64.8 87.8,67.5 78.8,72.8 69.2,67.2 69.2,64.5 73,62.3 				"/>
				<polyline class="st14" points="87.8,64.8 78.8,70.1 69.2,64.5 				"/>
				<polyline class="st15" points="15.3,32.8 15.3,34 18,35.6 				"/>
				<line class="st15" x1="23.7" y1="34.9" x2="29.4" y2="38.2"/>
				<line class="st15" x1="64" y1="59.6" x2="64" y2="57.4"/>
				<line class="st15" x1="69.7" y1="64.2" x2="69.7" y2="60.7"/>
				<polyline class="st15" points="82.5,53.8 78.7,55.9 75.1,53.8 				"/>
				<polyline class="st14" points="82.5,58.5 82.8,58.7 82.8,60.3 78.8,62.7 74.6,60.3 74.6,58.8 75.1,58.6 				"/>
				<line class="st14" x1="78.7" y1="62.7" x2="78.7" y2="55.9"/>
				<polyline class="st14" points="82.8,59.2 84.6,60.2 84.6,64.9 78.7,68.3 73,65 73,60.3 74.6,59.4 				"/>
				<polyline class="st14" points="84.6,60.2 78.7,63.7 73.1,60.4 				"/>
				<polyline class="st14" points="13.4,29.7 7.8,33 7.8,72.2 				"/>
				<polyline class="st14" points="19.6,26.1 23.5,23.8 30.8,28.6 				"/>
				<line class="st14" x1="78.7" y1="74.1" x2="78.7" y2="109.4"/>
				<line class="st14" x1="78.7" y1="109.4" x2="40.8" y2="87.5"/>
				<polyline class="st14" points="89.4,73.7 78.7,79.9 7.9,38.9 				"/>
				<polyline class="st14" points="89.4,76.7 78.7,82.9 7.9,41.8 				"/>
				<polyline class="st14" points="89.4,79.6 78.7,85.9 7.9,44.8 				"/>
				<polyline class="st14" points="89.4,82.6 78.7,88.8 7.9,47.8 				"/>
				<polyline class="st14" points="89.4,85.5 78.7,91.8 7.9,50.7 				"/>
				<polyline class="st14" points="89.4,88.5 78.7,94.7 7.9,53.7 				"/>
				<polyline class="st14" points="89.4,91.4 78.7,97.7 7.9,56.6 				"/>
				<polyline class="st14" points="89.4,94.4 78.7,100.6 7.9,59.5 				"/>
				<line class="st14" x1="89.4" y1="97.3" x2="86.9" y2="98.8"/>
				<polyline class="st14" points="81.2,102.1 78.7,103.6 7.9,62.5 				"/>
				<line class="st14" x1="86.9" y1="101.7" x2="89.4" y2="100.3"/>
				<polyline class="st14" points="81.2,105.1 78.7,106.5 7.9,65.4 				"/>
				<polyline class="st14" points="89.4,70.8 78.7,77 7.9,36 				"/>
				<line class="st14" x1="37.8" y1="85.8" x2="7.9" y2="68.4"/>
				<polyline class="st15" points="15,24.4 13.4,25.4 13.4,29.7 				"/>
				<polyline class="st15" points="18.1,24.4 19.6,25.3 19.6,29.1 				"/>
				<polyline class="st15" points="13.4,25.4 16.4,27.1 19.6,25.3 				"/>
				<polyline class="st14" points="80,50.8 80.8,51.4 80.8,53.7 78.7,54.9 76.6,53.7 76.6,51.4 77.7,50.7 				"/>
				<polyline class="st15" points="80.8,51.4 78.7,52.6 76.6,51.4 				"/>
				<g>
					<defs>
						<rect id="SVGID_37_" x="6" y="2.3" width="87.6" height="109.3"/>
					</defs>
					<clipPath id="SVGID_38_">
						<use xlink:href="#SVGID_37_"  style="overflow:visible;"/>
					</clipPath>
					<g class="st28">
						<path class="st14" d="M76.8,48.9c0,0.1-0.2,0.3-0.2,0.3l0.1,0.3c0.1,0.2,0.6,0.3,1.4,0.1s2.4-1.1,2.6-2l-0.3-0.5
							c-0.2,0-0.3,0-0.5,0"/>
					</g>
				</g>
				<polyline class="st14" points="77.5,45.7 78.6,46.2 78.9,46 79.7,45 				"/>
				<g>
					<defs>
						<rect id="SVGID_39_" x="6" y="2.3" width="87.6" height="109.3"/>
					</defs>
					<clipPath id="SVGID_40_">
						<use xlink:href="#SVGID_39_"  style="overflow:visible;"/>
					</clipPath>
					<g class="st29">
						<path class="st14" d="M80.4,48.1c0.1,0.3,0.1,0.5,0,0.8c-0.2,1-1.2,1.7-2.2,1.5c-0.4-0.1-0.7-0.3-1-0.5l-0.1-0.1"/>
						<path class="st14" d="M76.9,49.3c-0.1-0.1-0.1-0.3-0.1-0.5c-0.2-1,0.5-2,1.6-2.1c0.6-0.1,1.2,0.1,1.6,0.6
							c0.1,0.1,0.2,0.3,0.3,0.5"/>
						<path class="st14" d="M77.9,57.3c0.3,0.9,0.1,1.6-0.5,1.6s-1.4-0.7-1.7-1.6s-0.1-1.6,0.6-1.6S77.6,56.4,77.9,57.3z"/>
						<path class="st14" d="M79.5,57.4c-0.3,0.9-0.1,1.6,0.6,1.6s1.4-0.7,1.7-1.6s0.1-1.6-0.5-1.6S79.8,56.5,79.5,57.4z"/>
						<path class="st30" d="M80,50.9c0-0.1,0-0.1,0-0.2c0,0-0.1-0.1-0.1-0.1c-0.1,0-0.2,0-0.3,0.1c0,0,0-0.1,0-0.1v0l0.1-0.4"/>
						<path class="st15" d="M79.1,50.9c0,0.1,0.1,0.2,0.1,0.2s0.2,0.1,0.4,0"/>
					</g>
				</g>
				<polyline class="st15" points="78.1,51.6 78.1,51.5 78.4,51.1 78.3,50.9 77.9,50.8 77.5,50.6 77.6,50.1 				"/>
				<polyline class="st14" points="76.6,52.9 75.1,53.8 75.1,58.8 78.8,61 82.5,58.8 82.5,53.8 80.8,52.8 				"/>
				<g>
					<defs>
						<rect id="SVGID_41_" x="6" y="2.3" width="87.6" height="109.3"/>
					</defs>
					<clipPath id="SVGID_42_">
						<use xlink:href="#SVGID_41_"  style="overflow:visible;"/>
					</clipPath>
					<g class="st31">
						<path class="st15" d="M16.3,22.7c-0.7,0.1-1.3,0.8-1.3,1.6v1.1c0,0.4,0.7,0.8,1.5,0.8s1.5-0.4,1.5-0.8v-1.1
							c0-0.8-0.5-1.4-1.3-1.6v-0.2c0-0.1-0.1-0.2-0.2-0.2s-0.3,0.1-0.3,0.2V22.7z"/>
					</g>
				</g>
				<polyline class="st14" points="89.4,67.8 78.7,74.1 7.9,33 				"/>
				<polyline class="st14" points="40.8,88 38.8,86.8 36.9,87.9 39.5,89.4 40.8,88.6 				"/>
				<line class="st14" x1="40.8" y1="88" x2="38.8" y2="86.8"/>
				<line class="st14" x1="40.8" y1="89.8" x2="39.9" y2="89.2"/>
				<g>
					<defs>
						<rect id="SVGID_43_" x="6" y="2.3" width="87.6" height="109.3"/>
					</defs>
					<clipPath id="SVGID_44_">
						<use xlink:href="#SVGID_43_"  style="overflow:visible;"/>
					</clipPath>
					<g class="st32">
						<path class="st14" d="M39.2,84.5c-0.2,0.2-0.4,0.5-0.4,0.9v1.5"/>
					</g>
				</g>
				<polyline class="st14" points="38.4,88.8 37.8,89.1 7.8,72.2 				"/>
				<line class="st14" x1="37.8" y1="89.1" x2="37.8" y2="88.5"/>
				<g>
					<defs>
						<rect id="SVGID_45_" x="6" y="2.3" width="87.6" height="109.3"/>
					</defs>
					<clipPath id="SVGID_46_">
						<use xlink:href="#SVGID_45_"  style="overflow:visible;"/>
					</clipPath>
					<g class="st33">
						<path class="st14" d="M86.9,104.7v-5.7l-5.7,3.2v5.9l-2.6,1.5l-19.1-9l-15.3-7.7l-3.5-2v-4c-0.1-0.9-0.7-1.7-1.5-2.2
							c-0.5-0.3-1.1-0.1-1.4,0.4c-0.1,0.2-0.1,0.3-0.1,0.5v2"/>
					</g>
				</g>
				<polyline class="st14" points="82.9,105.1 82.9,103.6 82,104.1 82,105.6 				"/>
				<g>
					<defs>
						<rect id="SVGID_47_" x="6" y="2.3" width="87.6" height="109.3"/>
					</defs>
					<clipPath id="SVGID_48_">
						<use xlink:href="#SVGID_47_"  style="overflow:visible;"/>
					</clipPath>
					<g class="st34">
						<path class="st14" d="M87.8,66.8l1.6,1.1v35.4l-2.5,1.4c-1.3-0.4-2.6-0.3-3.8,0.3l-1.3,0.8c-0.2,0.1-0.4,0.2-0.6,0.4"/>
					</g>
				</g>
				<polyline class="st15" points="38.5,41.6 43.7,38.5 43.7,36.5 31.3,28.3 23.7,32.8 				"/>
				<line class="st15" x1="43.7" y1="36.5" x2="38.5" y2="39.6"/>
				<g>
					<defs>
						<rect id="SVGID_49_" x="6" y="2.3" width="87.6" height="109.3"/>
					</defs>
					<clipPath id="SVGID_50_">
						<use xlink:href="#SVGID_49_"  style="overflow:visible;"/>
					</clipPath>
					<g class="st35">
						<path class="st15" d="M275.1,102.8v-1.2c0-0.3-0.3-0.7-0.9-0.3c-0.4,0.2-0.7,0.7-0.7,1.2v1.4l-7,4.1l-9.2-6.4l-11.7-8
							l-9.8-6.7l-14.5-10l-20.7-15V26l1.5-0.8"/>
					</g>
				</g>
				<polygon class="st21" points="58,57.5 58,59.9 67.1,65.1 67.1,62.7 				"/>
				<g>
					<defs>
						<rect id="SVGID_51_" x="6" y="2.3" width="87.6" height="109.3"/>
					</defs>
					<clipPath id="SVGID_52_">
						<use xlink:href="#SVGID_51_"  style="overflow:visible;"/>
					</clipPath>
					<g class="st36">
						<g class="st6">
							<g>
								<defs>
									<rect id="SVGID_53_" x="63.9" y="57.4" width="5.8" height="5.6"/>
								</defs>
								<clipPath id="SVGID_54_">
									<use xlink:href="#SVGID_53_"  style="overflow:visible;"/>
								</clipPath>
								<g class="st37">
									<polygon class="st21" points="64,57.4 63.9,59.5 69.7,63 69.7,60.7 									"/>
								</g>
							</g>
						</g>
					</g>
				</g>
				<polygon class="st21" points="58,59.9 56.2,61 65.3,66.3 67.1,65.2 				"/>
				<g>
					<defs>
						<rect id="SVGID_55_" x="6" y="2.3" width="87.6" height="109.3"/>
					</defs>
					<clipPath id="SVGID_56_">
						<use xlink:href="#SVGID_55_"  style="overflow:visible;"/>
					</clipPath>
					<g class="st38">
						<g class="st6">
							<g>
								<defs>
									<rect id="SVGID_57_" x="62.7" y="59.5" width="5.6" height="3.2"/>
								</defs>
								<clipPath id="SVGID_58_">
									<use xlink:href="#SVGID_57_"  style="overflow:visible;"/>
								</clipPath>
								<g class="st39">
									<polygon class="st21" points="64,59.5 62.7,60.1 67.1,62.7 67.1,62.7 68.2,62.1 									"/>
								</g>
							</g>
						</g>
					</g>
				</g>
				<line class="st26" x1="58" y1="59.9" x2="67.1" y2="65.2"/>
			</g>
		</g>
	</g>
</g>
</svg>
