<?xml version="1.0" encoding="utf-8"?>
<!-- Generator: Adobe Illustrator 23.0.0, SVG Export Plug-In . SVG Version: 6.00 Build 0)  -->
<svg version="1.1" id="Layer_1" xmlns="http://www.w3.org/2000/svg" xmlns:xlink="http://www.w3.org/1999/xlink" x="0px" y="0px"
	 viewBox="0 0 123.3 164.8" style="enable-background:new 0 0 123.3 164.8;" xml:space="preserve">
<style type="text/css">
	.st0{fill:#D2D3D4;}
	.st1{clip-path:url(#SVGID_2_);}
	.st2{fill:#231F20;}
	.st3{clip-path:url(#SVGID_4_);}
	.st4{fill:none;stroke:#D1D3D4;stroke-width:1.09;stroke-miterlimit:10;}
	.st5{clip-path:url(#SVGID_6_);}
	.st6{enable-background:new    ;}
	.st7{fill:#D1D3D4;}
	.st8{fill:none;stroke:#231F20;stroke-width:0.15;stroke-miterlimit:10;}
	.st9{fill:none;stroke:#231F20;stroke-width:0.14;stroke-miterlimit:10;}
	.st10{clip-path:url(#SVGID_8_);}
	.st11{clip-path:url(#SVGID_10_);}
	.st12{fill:none;stroke:#231F20;stroke-width:0.14;stroke-linejoin:bevel;}
	.st13{clip-path:url(#SVGID_12_);}
	.st14{clip-path:url(#SVGID_14_);}
	.st15{clip-path:url(#SVGID_16_);}
	.st16{clip-path:url(#SVGID_18_);}
	.st17{fill:none;stroke:#FFFFFF;stroke-width:0.15;stroke-miterlimit:10;}
</style>
<title>residence_G_4-6_key</title>
<g>
	<path class="st0" d="M14.3,117.1c-0.6,0-1-0.4-1-1.1v-1.4h3.4v1.3c0,0.7-0.3,1.1-0.9,1.1c-0.3,0-0.6-0.2-0.7-0.4
		C14.9,116.9,14.6,117.1,14.3,117.1z M13.9,115.2v0.7c0,0.3,0.2,0.5,0.4,0.5s0.4-0.2,0.4-0.5v-0.7H13.9z M15.3,115.8
		c0,0.3,0.1,0.5,0.4,0.5s0.4-0.2,0.4-0.5v-0.6h-0.8L15.3,115.8z"/>
	<path class="st0" d="M14.6,119.5h-1.3v-0.7h3.4v1.4c0.1,0.5-0.3,1.1-0.8,1.2c-0.1,0-0.2,0-0.3,0c-0.5,0-0.9-0.3-1-0.8l-1.3,0.9
		v-0.8l1.3-0.8L14.6,119.5z M15.1,119.5v0.7c0,0.3,0.2,0.5,0.5,0.5s0.5-0.2,0.5-0.5v-0.7H15.1z"/>
	<path class="st0" d="M13.3,124.6c0-0.9,0.8-1.6,1.7-1.6c0,0,0.1,0,0.1,0c0.9-0.1,1.7,0.6,1.7,1.5c0.1,0.9-0.6,1.7-1.5,1.7
		c-0.1,0-0.2,0-0.3,0c-0.9,0.1-1.7-0.6-1.7-1.5C13.3,124.7,13.3,124.6,13.3,124.6z M16.1,124.6c0-0.5-0.4-0.9-1.1-0.9
		s-1.1,0.3-1.1,0.9s0.5,0.9,1.1,0.9S16.1,125.1,16.1,124.6z"/>
	<path class="st0" d="M16.7,129.4l-3.4,1.3V130l0.8-0.3v-1.3l-0.8-0.3v-0.7l3.4,1.3V129.4z M14.7,128.7v0.8l1.1-0.4L14.7,128.7z"/>
	<path class="st0" d="M16.7,132.4v1.2c0.1,0.9-0.6,1.6-1.5,1.7c-0.1,0-0.2,0-0.2,0c-0.9,0.1-1.6-0.6-1.7-1.4c0-0.1,0-0.2,0-0.2v-1.2
		H16.7z M13.9,133.5c0,0.6,0.4,1,1,1c0,0,0,0,0.1,0c0.6,0,1-0.4,1.1-0.9c0,0,0,0,0-0.1v-0.5h-2.1V133.5z"/>
	<path class="st0" d="M16.7,139l-2.3,0.6l2.3,0.6v0.7l-3.4-0.8v-0.6l2.2-0.6l-2.2-0.6v-0.6l3.4-0.9v0.7l-2.3,0.6l2.3,0.6L16.7,139z"
		/>
	<path class="st0" d="M16.7,144l-3.4,1.3v-0.7l0.8-0.3V143l-0.8-0.3V142l3.4,1.3V144z M14.7,143.2v0.8l1.1-0.4L14.7,143.2z"/>
	<path class="st0" d="M16.7,148.6v0.8l-2.1-1.2h-1.3v-0.7h1.3l2.1-1.2v0.8l-1.4,0.8L16.7,148.6z"/>
	<path class="st0" d="M111.7,108.4v0.7h-2.8v1.6h-0.6v-2.3H111.7z"/>
	<path class="st0" d="M111.7,114.1l-3.4,1.3v-0.7l0.8-0.3v-1.3l-0.8-0.3v-0.7l3.4,1.3V114.1z M109.7,113.4v0.8l1.1-0.4L109.7,113.4z
		"/>
	<path class="st0" d="M108.3,117h3.4v2.2h-0.6v-1.5h-0.9v1.4h-0.6v-1.4h-1.3V117z"/>
	<path class="st0" d="M111.7,122.5l-3.4,1.3v-0.7l0.8-0.3v-1.3l-0.8-0.3v-0.7l3.4,1.3V122.5z M109.7,121.8v0.8l1.1-0.4L109.7,121.8z
		"/>
	<path class="st0" d="M111.7,127.2v0.7l-2.1-1.2h-1.3V126h1.3l2.1-1.2v0.8l-1.4,0.8L111.7,127.2z"/>
	<path class="st0" d="M111.7,131.8h-0.6v-1.6h-0.7v1.4h-0.6v-1.4h-0.8v1.6h-0.6v-2.3h3.4V131.8z"/>
	<path class="st0" d="M111.7,133.4v2.9h-0.6v-1.1h-2.8v-0.7h2.8v-1.1L111.7,133.4z"/>
	<path class="st0" d="M111.7,137.8v2.9h-0.6v-1.1h-2.8v-0.7h2.8v-1.1H111.7z"/>
	<path class="st0" d="M111.7,144.6h-0.6V143h-0.7v1.4h-0.6V143h-0.8v1.6h-0.6v-2.3h3.4V144.6z"/>
	<path class="st0" d="M109.2,149.2c-0.3,0.1-0.5,0.4-0.4,0.7c0,0.4,0.2,0.6,0.4,0.6s0.3-0.1,0.4-0.4l0.1-0.6c0-0.5,0.4-0.9,0.9-0.9
		c0.6,0,1,0.6,1,1.1c0,0,0,0,0,0.1c0.1,0.6-0.4,1.2-1,1.3v-0.7c0.3-0.1,0.4-0.3,0.4-0.6c0-0.3-0.2-0.5-0.4-0.5s-0.3,0.1-0.4,0.4
		l-0.1,0.6c-0.1,0.6-0.4,0.9-1,0.9s-1-0.5-1-1.2c-0.1-0.7,0.4-1.3,1-1.4L109.2,149.2L109.2,149.2z"/>
	<path class="st0" d="M111.7,152.6v2.9h-0.6v-1.1h-2.8v-0.7h2.8v-1.1L111.7,152.6z"/>
	<path class="st0" d="M43.1,112.6h0.7v2.8h1.6v0.6h-2.3V112.6z"/>
	<path class="st0" d="M49.3,112.6v0.6h-1.6v0.8h1.5v0.6h-1.5v0.8h1.6v0.6H47v-3.4L49.3,112.6z"/>
	<path class="st0" d="M52.4,116c-1,0.1-1.8-0.7-1.9-1.6c-0.1-1,0.7-1.8,1.6-1.9s1.8,0.7,1.9,1.6c0,0.1,0,0.1,0,0.2
		c0,0.9-0.6,1.6-1.5,1.7C52.4,116,52.4,116,52.4,116z M52.4,113.2c-0.5,0-0.9,0.4-0.9,1.1s0.3,1.1,0.9,1.1s0.9-0.5,0.9-1.1
		S52.9,113.2,52.4,113.2L52.4,113.2z"/>
	<path class="st0" d="M58.4,116h-0.6l-1.6-2.2v2.2h-0.7v-3.4h0.7l1.5,2.1v-2.1h0.7V116z"/>
	<path class="st0" d="M61.9,112.6l1.3,3.4h-0.7l-0.3-0.8h-1.3l-0.3,0.8h-0.7l1.3-3.4L61.9,112.6z M61.1,114.6h0.8l-0.4-1.1
		L61.1,114.6z"/>
	<path class="st0" d="M65.4,114.7v1.3h-0.7v-3.4h1.4c0.5-0.1,1.1,0.2,1.2,0.8c0,0.1,0,0.2,0,0.3c0,0.5-0.3,0.9-0.8,1l0.9,1.3h-0.8
		l-0.8-1.3L65.4,114.7z M65.4,114.2H66c0.3,0,0.5-0.2,0.5-0.5s-0.2-0.5-0.5-0.5h-0.7L65.4,114.2z"/>
	<path class="st0" d="M68.9,112.6h1.2c0.9,0.1,1.6,0.9,1.6,1.8c-0.1,0.8-0.7,1.5-1.6,1.6h-1.2V112.6z M70,115.4
		c0.6,0,1.1-0.5,1.1-1.1c0-0.6-0.5-1.1-1.1-1.1h-0.5v2.1H70z"/>
	<path class="st0" d="M76.1,115c0.1,0.3,0.4,0.5,0.7,0.4c0.3,0,0.6-0.2,0.6-0.4s-0.1-0.3-0.4-0.4l-0.6-0.1c-0.5-0.1-0.8-0.4-0.8-0.9
		c0-0.6,0.6-1,1.2-1c0,0,0,0,0,0c0.6-0.1,1.2,0.4,1.3,1h-0.7c-0.1-0.3-0.3-0.4-0.6-0.4c-0.3,0-0.5,0.2-0.5,0.4s0.1,0.3,0.4,0.4
		l0.6,0.2c0.5,0.1,0.9,0.5,0.9,1c-0.1,0.6-0.6,1.1-1.2,1c0,0,0,0,0,0c-0.7,0.1-1.3-0.4-1.4-1L76.1,115z"/>
	<path class="st0" d="M79.4,112.6h2.9v0.6h-1.1v2.8h-0.7v-2.8h-1.1V112.6z"/>
	<path class="st0" d="M40.6,147.9c0.7,0,1.3,0.4,1.4,1.1h-0.7c-0.1-0.3-0.4-0.5-0.7-0.5c-0.5,0-0.8,0.5-0.8,1.1s0.3,1.1,0.8,1.1
		c0.3,0,0.6-0.2,0.7-0.5H42c-0.1,0.7-0.7,1.2-1.4,1.1c-1-0.1-1.7-1-1.6-1.9C39.2,148.6,39.8,147.9,40.6,147.9z"/>
	<path class="st0" d="M45.4,147.9l1.3,3.4H46l-0.3-0.8h-1.3l-0.3,0.8h-0.7l1.3-3.4H45.4z M44.6,149.9h0.8l-0.4-1.2L44.6,149.9z"/>
	<path class="st0" d="M47.8,147.9h2.9v0.6h-1.1v2.8h-0.7v-2.8h-1.1V147.9z"/>
	<path class="st0" d="M55.2,147.9v3.4h-0.7v-1.4H53v1.4h-0.7v-3.4H53v1.3h1.5v-1.3H55.2z"/>
	<path class="st0" d="M59.4,147.9v0.6h-1.6v0.7h1.5v0.6h-1.5v0.8h1.6v0.6h-2.3v-3.4L59.4,147.9z"/>
	<path class="st0" d="M61.8,150v1.3h-0.7v-3.4h1.4c0.5-0.1,1.1,0.3,1.2,0.8c0,0.1,0,0.2,0,0.3c0,0.5-0.3,0.9-0.8,1l0.9,1.3H63
		l-0.8-1.3H61.8z M61.8,149.4h0.6c0.4,0,0.5-0.2,0.5-0.5s-0.2-0.5-0.5-0.5h-0.6V149.4z"/>
	<path class="st0" d="M66.2,151.3h-0.7v-3.4h0.7V151.3z"/>
	<path class="st0" d="M70.8,151.3h-0.6l-1.6-2.3v2.2H68v-3.4h0.7l1.5,2.1v-2.1h0.7V151.3z"/>
	<path class="st0" d="M75,147.9v0.6h-1.6v0.7h1.4v0.6h-1.5v0.8H75v0.6h-2.3v-3.4L75,147.9z"/>
	<path class="st0" d="M79.1,147.9h0.7v2.8h1.6v0.6h-2.3V147.9z"/>
	<path class="st0" d="M85.9,151.3h-0.6l-1.6-2.3v2.2h-0.7v-3.4h0.7l1.5,2.1v-2.1h0.7V151.3L85.9,151.3z"/>
</g>
<g id="_4-6_H">
	<g>
		<defs>
			<rect id="SVGID_1_" x="23.5" y="124.4" width="76.7" height="17.3"/>
		</defs>
		<clipPath id="SVGID_2_">
			<use xlink:href="#SVGID_1_"  style="overflow:visible;"/>
		</clipPath>
		<g class="st1">
			<polygon class="st2" points="60.9,125.6 72.9,125.6 72.9,128 72.6,128 72.6,130 72.5,130 72.5,131.2 72.3,131.2 72.3,131.1 
				71.3,131.1 71.3,131.2 70,131.2 69.1,131.2 68.7,131.2 68.7,131 66.1,131 66.1,131.1 63.8,131.1 63.8,131.2 60.9,131.2 			"/>
			<g>
				<defs>
					<rect id="SVGID_3_" x="23.5" y="124.4" width="76.7" height="17.3"/>
				</defs>
				<clipPath id="SVGID_4_">
					<use xlink:href="#SVGID_3_"  style="overflow:visible;"/>
				</clipPath>
				<g class="st3">
					<polygon class="st4" points="98.3,125.6 98.3,140.6 24.4,136 24.5,125.6 					"/>
				</g>
			</g>
		</g>
	</g>
	<g>
		<defs>
			<rect id="SVGID_5_" x="27.4" y="8.3" width="71.2" height="78.4"/>
		</defs>
		<clipPath id="SVGID_6_">
			<use xlink:href="#SVGID_5_"  style="overflow:visible;"/>
		</clipPath>
		<g class="st5">
			<g class="st6">
				<path class="st7" d="M33.7,63.3l0.5,0.3L32.1,65l1.2,0.7L32.9,66L31.1,65L33.7,63.3z"/>
				<path class="st7" d="M38.5,66.3l-0.5,0.3l-1.2-0.8l-0.6,0.4l1.1,0.7l-0.4,0.3l-1.1-0.7l-0.6,0.4l1.2,0.8L36,68l-1.7-1.1l2.5-1.7
					L38.5,66.3z"/>
				<path class="st7" d="M38.4,69.6c-0.7-0.4-0.7-1.1,0.1-1.6c0.8-0.5,1.8-0.5,2.5-0.1s0.7,1.1-0.1,1.6C40.2,70,39.2,70,38.4,69.6z
					 M40.6,68.2c-0.4-0.3-1-0.2-1.5,0.1c-0.5,0.3-0.6,0.7-0.2,1c0.4,0.3,1,0.2,1.5-0.1C40.9,68.8,41,68.4,40.6,68.2z"/>
				<path class="st7" d="M43.2,72.5l-0.4-0.3l0.5-1.9l-1.7,1.1l-0.5-0.3l2.5-1.7l0.5,0.3l-0.5,1.7l1.6-1l0.5,0.3L43.2,72.5z"/>
				<path class="st7" d="M48.6,72.6L47,74.9l-0.5-0.3l0.4-0.5l-1-0.6l-0.8,0.3l-0.5-0.3l3.5-1L48.6,72.6z M46.5,73.2l0.6,0.4
					l0.5-0.7L46.5,73.2z"/>
				<path class="st7" d="M49.8,75.4L48.8,76l-0.5-0.3l2.5-1.7l1.1,0.7c0.5,0.3,0.6,0.7,0.1,1.1c-0.4,0.3-0.9,0.3-1.3,0.1L50.4,77
					l-0.6-0.4l0.3-1L49.8,75.4z M50.2,75.1l0.5,0.3c0.3,0.2,0.5,0.2,0.8,0c0.2-0.1,0.2-0.3-0.1-0.5l-0.5-0.3L50.2,75.1z"/>
				<path class="st7" d="M54.2,76.1l0.9,0.6c0.8,0.5,0.8,1.1,0,1.6c-0.8,0.5-1.7,0.5-2.5,0l-0.9-0.6L54.2,76.1z M53,78
					c0.5,0.3,1.1,0.3,1.6-0.1c0.5-0.3,0.5-0.7,0-1l-0.4-0.2l-1.6,1L53,78z"/>
			</g>
			<g class="st6">
				<path class="st7" d="M58.2,80.9c-0.2,0.2-0.1,0.4,0.2,0.5c0.3,0.2,0.5,0.2,0.7,0.1c0.2-0.1,0.1-0.2,0-0.4l-0.4-0.4
					c-0.3-0.3-0.4-0.6,0-0.9c0.5-0.3,1.2-0.3,1.7,0.1c0.6,0.4,0.6,0.8,0.3,1.1l-0.5-0.3c0.1-0.1,0.1-0.3-0.2-0.5
					c-0.2-0.2-0.5-0.2-0.7-0.1c-0.1,0.1-0.1,0.2,0,0.4l0.4,0.4c0.3,0.3,0.3,0.6,0,0.9c-0.5,0.3-1.2,0.3-1.7-0.1
					c-0.6-0.4-0.7-0.8-0.3-1.2L58.2,80.9z"/>
			</g>
			<g class="st6">
				<path class="st7" d="M62.6,81.4l2.2,1.4L64.4,83l-0.8-0.5l-2.1,1.4l-0.5-0.3l2.1-1.4l-0.8-0.5L62.6,81.4z"/>
			</g>
			<line class="st8" x1="84.5" y1="52.9" x2="84.5" y2="49.2"/>
			<line class="st8" x1="35.5" y1="23.5" x2="35.5" y2="20.5"/>
			<line class="st8" x1="45.7" y1="27.5" x2="45.7" y2="29.2"/>
			<line class="st8" x1="41.2" y1="24.9" x2="41.2" y2="26.6"/>
			<line class="st8" x1="46.9" y1="26.8" x2="46.9" y2="28.5"/>
			<line class="st9" x1="46.9" y1="28.5" x2="45.7" y2="29.2"/>
			<line class="st9" x1="46.8" y1="26.9" x2="45.7" y2="27.5"/>
			<line class="st9" x1="77.8" y1="41.4" x2="72.8" y2="44.3"/>
			<line class="st9" x1="81.6" y1="44.4" x2="77.3" y2="46.9"/>
			<line class="st8" x1="52.8" y1="30.2" x2="52.8" y2="31.9"/>
			<line class="st9" x1="56.9" y1="28.9" x2="76.9" y2="42"/>
			<line class="st9" x1="77.8" y1="41.4" x2="81.6" y2="43.9"/>
			<line class="st9" x1="56.9" y1="28.3" x2="77.3" y2="41.7"/>
			<line class="st9" x1="33.1" y1="22.5" x2="35.2" y2="23.8"/>
			<line class="st9" x1="41.2" y1="24.9" x2="45.7" y2="27.5"/>
			<line class="st9" x1="46.9" y1="26.9" x2="52.9" y2="30.3"/>
			<line class="st9" x1="46.9" y1="28.5" x2="52.8" y2="31.9"/>
			<line class="st9" x1="72.9" y1="44.3" x2="77.3" y2="46.9"/>
			<line class="st8" x1="84.4" y1="42.3" x2="84.4" y2="40.5"/>
			<polyline class="st8" points="76.9,50.3 76.2,49.9 75.3,50.4 36.7,28 36.7,26.1 			"/>
			<polyline class="st8" points="46.4,21.9 42.6,19.4 33.9,24.5 75.3,48.5 			"/>
			<line class="st8" x1="75.3" y1="48.5" x2="75.3" y2="50.4"/>
			<line class="st8" x1="76.2" y1="48" x2="75.3" y2="48.5"/>
			<polyline class="st8" points="76.2,49.9 76.2,48 72.9,46 			"/>
			<line class="st8" x1="84.5" y1="56.4" x2="84.5" y2="54.3"/>
			<polyline class="st8" points="89.1,48.5 91.6,50.2 91.6,52.2 84.5,56.4 76.9,52 76.9,49.9 80,48.1 			"/>
			<polyline class="st8" points="91.6,50.2 84.5,54.3 76.9,49.9 			"/>
			<polyline class="st9" points="34.6,24.9 34.6,26 36.7,27.2 			"/>
			<line class="st9" x1="41.2" y1="26.6" x2="45.7" y2="29.2"/>
			<line class="st9" x1="72.9" y1="46" x2="72.9" y2="44.3"/>
			<line class="st9" x1="77.3" y1="49.6" x2="77.3" y2="46.9"/>
			<polyline class="st9" points="87.4,41.4 84.5,43.2 81.6,41.5 			"/>
			<polyline class="st8" points="87.4,45.2 87.7,45.3 87.7,46.6 84.5,48.5 81.2,46.6 81.2,45.4 81.6,45.2 			"/>
			<line class="st8" x1="84.5" y1="48.5" x2="84.5" y2="43.2"/>
			<polyline class="st8" points="87.7,45.7 89.1,46.5 89.1,50.2 84.4,52.9 80,50.3 80,46.6 81.2,45.9 			"/>
			<polyline class="st8" points="89.1,46.5 84.5,49.2 80,46.7 			"/>
			<polyline class="st8" points="33.1,22.5 28.7,25.1 28.7,55.9 			"/>
			<polyline class="st8" points="38,19.7 41,17.9 46.8,21.7 			"/>
			<line class="st8" x1="84.5" y1="57.4" x2="84.4" y2="85.2"/>
			<line class="st8" x1="84.4" y1="85.2" x2="54.7" y2="67.9"/>
			<polyline class="st8" points="92.9,57.1 84.5,62 28.8,29.8 			"/>
			<polyline class="st8" points="92.9,59.4 84.5,64.3 28.8,32.1 			"/>
			<polyline class="st8" points="92.9,61.8 84.5,66.7 28.8,34.4 			"/>
			<polyline class="st8" points="92.9,64.1 84.5,69 28.8,36.7 			"/>
			<polyline class="st8" points="92.9,66.4 84.5,71.3 28.8,39 			"/>
			<polyline class="st8" points="92.9,68.7 84.5,73.6 28.8,41.4 			"/>
			<polyline class="st8" points="92.9,71 84.5,75.9 28.8,43.7 			"/>
			<polyline class="st8" points="92.9,73.3 84.5,78.3 28.8,46 			"/>
			<line class="st8" x1="92.9" y1="75.7" x2="90.9" y2="76.8"/>
			<polyline class="st8" points="86.4,79.4 84.5,80.6 28.8,48.3 			"/>
			<line class="st8" x1="90.9" y1="79.1" x2="92.9" y2="78"/>
			<polyline class="st8" points="86.4,81.8 84.5,82.9 28.8,50.6 			"/>
			<polyline class="st8" points="92.9,54.8 84.5,59.7 28.8,27.5 			"/>
			<line class="st8" x1="52.3" y1="66.6" x2="28.8" y2="52.9"/>
			<polyline class="st9" points="34.4,18.4 33.1,19.1 33.1,22.5 			"/>
			<polyline class="st9" points="36.8,18.4 38,19.1 38,22.1 			"/>
			<polyline class="st9" points="33.1,19.1 35.5,20.5 38,19.1 			"/>
			<polyline class="st8" points="85.4,39.2 86.1,39.6 86.1,41.4 84.4,42.3 82.8,41.4 82.8,39.6 83.6,39.1 			"/>
			<polyline class="st9" points="86.1,39.6 84.4,40.5 82.8,39.6 			"/>
			<g>
				<defs>
					<rect id="SVGID_7_" x="27.4" y="8.3" width="71.2" height="78.4"/>
				</defs>
				<clipPath id="SVGID_8_">
					<use xlink:href="#SVGID_7_"  style="overflow:visible;"/>
				</clipPath>
				<g class="st10">
					<path class="st8" d="M82.9,37.6c-0.1,0.1-0.1,0.2-0.2,0.3l0.1,0.3c0.1,0.1,0.5,0.3,1.1,0.1s1.9-0.9,2-1.6l-0.2-0.4
						c-0.1,0-0.3,0-0.4,0"/>
				</g>
			</g>
			<polyline class="st8" points="83.5,35.1 84.4,35.5 84.6,35.4 85.2,34.5 			"/>
			<g>
				<defs>
					<rect id="SVGID_9_" x="27.4" y="8.3" width="71.2" height="78.4"/>
				</defs>
				<clipPath id="SVGID_10_">
					<use xlink:href="#SVGID_9_"  style="overflow:visible;"/>
				</clipPath>
				<g class="st11">
					<path class="st8" d="M85.8,37c0,0.2,0,0.4,0,0.6c-0.2,0.8-0.9,1.3-1.7,1.2c0,0,0,0,0,0c-0.3-0.1-0.6-0.2-0.8-0.4h-0.1"/>
					<path class="st8" d="M83,37.9c0-0.1-0.1-0.2-0.1-0.4c-0.1-0.8,0.4-1.5,1.2-1.7c0.5-0.1,1,0.1,1.3,0.4c0.1,0.1,0.2,0.2,0.2,0.3"
						/>
					<path class="st8" d="M83.8,44.2c0.2,0.7,0,1.3-0.4,1.3s-1.1-0.6-1.3-1.3S82,43,82.5,43S83.6,43.5,83.8,44.2z"/>
					<path class="st8" d="M85.1,44.3c-0.2,0.7-0.1,1.3,0.4,1.3s1.1-0.6,1.3-1.3s0.1-1.3-0.4-1.3S85.3,43.6,85.1,44.3z"/>
					<path class="st12" d="M85.4,39.2c0-0.1,0-0.1,0-0.2c0,0,0-0.1-0.1-0.1c-0.1,0-0.2,0-0.3,0v-0.1l0.1-0.3"/>
					<path class="st9" d="M84.8,39.2c0,0.1,0,0.1,0.1,0.2s0.2,0.1,0.3,0"/>
				</g>
			</g>
			<polyline class="st9" points="84,39.8 84,39.6 84.2,39.3 84.1,39.2 83.8,39.2 83.5,39 83.6,38.6 			"/>
			<polyline class="st8" points="82.8,40.8 81.6,41.5 81.6,45.4 84.5,47.1 87.4,45.4 87.4,41.4 86.1,40.7 			"/>
			<g>
				<defs>
					<rect id="SVGID_11_" x="27.4" y="8.3" width="71.2" height="78.4"/>
				</defs>
				<clipPath id="SVGID_12_">
					<use xlink:href="#SVGID_11_"  style="overflow:visible;"/>
				</clipPath>
				<g class="st13">
					<path class="st9" d="M35.4,17c-0.6,0.1-1,0.6-1,1.2v0.9c0,0.3,0.5,0.6,1.2,0.6s1.2-0.3,1.2-0.6v-0.9c0-0.6-0.4-1.1-1-1.2v-0.1
						c0-0.1-0.1-0.1-0.2-0.1s-0.2,0.1-0.2,0.1V17z"/>
				</g>
			</g>
			<polyline class="st8" points="92.9,52.5 84.5,57.4 28.8,25.1 			"/>
			<polyline class="st8" points="54.7,68.4 53,67.4 51.6,68.3 53.6,69.5 54.7,68.8 			"/>
			<line class="st8" x1="54.7" y1="68.4" x2="53" y2="67.4"/>
			<line class="st8" x1="54.7" y1="69.7" x2="53.9" y2="69.3"/>
			<g>
				<defs>
					<rect id="SVGID_13_" x="27.4" y="8.3" width="71.2" height="78.4"/>
				</defs>
				<clipPath id="SVGID_14_">
					<use xlink:href="#SVGID_13_"  style="overflow:visible;"/>
				</clipPath>
				<g class="st14">
					<path class="st8" d="M53.4,65.6c-0.2,0.2-0.3,0.4-0.3,0.7v1.2"/>
				</g>
			</g>
			<polyline class="st8" points="52.7,69 52.3,69.2 28.7,55.9 			"/>
			<line class="st8" x1="52.3" y1="69.2" x2="52.3" y2="68.7"/>
			<g>
				<defs>
					<rect id="SVGID_15_" x="27.4" y="8.3" width="71.2" height="78.4"/>
				</defs>
				<clipPath id="SVGID_16_">
					<use xlink:href="#SVGID_15_"  style="overflow:visible;"/>
				</clipPath>
				<g class="st15">
					<path class="st8" d="M90.9,81.4V77l-4.5,2.5v4.6l-2,1.2l-15-7.1l-12-6l-2.8-1.6v-3.2c-0.1-0.7-0.5-1.4-1.2-1.7
						c-0.3-0.2-0.8-0.1-1.1,0.2c-0.1,0.1-0.1,0.3-0.1,0.5v1.5"/>
				</g>
			</g>
			<polyline class="st8" points="87.7,81.8 87.7,80.6 87,81 87,82.2 			"/>
			<g>
				<defs>
					<rect id="SVGID_17_" x="27.4" y="8.3" width="71.2" height="78.4"/>
				</defs>
				<clipPath id="SVGID_18_">
					<use xlink:href="#SVGID_17_"  style="overflow:visible;"/>
				</clipPath>
				<g class="st16">
					<path class="st8" d="M91.6,51.7l1.3,0.8v27.8l-2,1.1c-1-0.3-2.1-0.2-3,0.2l-1,0.6c-0.2,0.1-0.3,0.2-0.4,0.3"/>
				</g>
			</g>
			<polyline class="st9" points="52.8,31.9 56.9,29.5 56.9,27.9 47.2,21.5 41.2,24.9 			"/>
			<line class="st9" x1="56.9" y1="27.9" x2="52.8" y2="30.3"/>
			<polygon class="st2" points="55.8,57.1 55.8,64 47.1,59 47.1,52 			"/>
			<line class="st17" x1="47.1" y1="54.3" x2="55.8" y2="59.3"/>
			<line class="st17" x1="47.1" y1="56.6" x2="55.8" y2="61.7"/>
		</g>
	</g>
</g>
</svg>
