<?xml version="1.0" encoding="utf-8"?>
<!-- Generator: Adobe Illustrator 23.0.0, SVG Export Plug-In . SVG Version: 6.00 Build 0)  -->
<svg version="1.1" id="Layer_1" xmlns="http://www.w3.org/2000/svg" xmlns:xlink="http://www.w3.org/1999/xlink" x="0px" y="0px"
	 viewBox="0 0 347 105.1" style="enable-background:new 0 0 347 105.1;" xml:space="preserve">
<style type="text/css">
	.st0{clip-path:url(#SVGID_2_);}
	.st1{clip-path:url(#SVGID_4_);}
	.st2{fill:none;stroke:#231F20;stroke-width:0.15;stroke-miterlimit:10;}
	.st3{fill:none;stroke:#231F20;stroke-width:0.14;stroke-linejoin:bevel;}
	.st4{fill:none;stroke:#231F20;stroke-width:0.14;stroke-miterlimit:10;}
	.st5{enable-background:new    ;}
	.st6{fill:#D1D3D4;}
	.st7{clip-path:url(#SVGID_6_);}
	.st8{clip-path:url(#SVGID_8_);}
	.st9{clip-path:url(#SVGID_10_);}
	.st10{clip-path:url(#SVGID_12_);}
	.st11{clip-path:url(#SVGID_14_);}
	.st12{clip-path:url(#SVGID_16_);}
	.st13{opacity:0.5;}
	.st14{clip-path:url(#SVGID_18_);}
	.st15{fill:#231F20;}
	.st16{clip-path:url(#SVGID_20_);}
	.st17{clip-path:url(#SVGID_22_);}
	.st18{fill:none;stroke:#FFFFFF;stroke-width:0.13;stroke-miterlimit:10;}
	.st19{clip-path:url(#SVGID_24_);}
	.st20{clip-path:url(#SVGID_26_);}
	.st21{clip-path:url(#SVGID_28_);}
	.st22{clip-path:url(#SVGID_30_);}
	.st23{clip-path:url(#SVGID_32_);}
	.st24{clip-path:url(#SVGID_34_);}
	.st25{clip-path:url(#SVGID_36_);}
	.st26{clip-path:url(#SVGID_38_);}
	.st27{clip-path:url(#SVGID_40_);}
	.st28{clip-path:url(#SVGID_42_);}
	.st29{clip-path:url(#SVGID_44_);}
	.st30{clip-path:url(#SVGID_46_);}
	.st31{clip-path:url(#SVGID_48_);}
	.st32{clip-path:url(#SVGID_50_);}
	.st33{clip-path:url(#SVGID_52_);}
	.st34{clip-path:url(#SVGID_54_);}
	.st35{clip-path:url(#SVGID_56_);}
	.st36{clip-path:url(#SVGID_58_);}
	.st37{clip-path:url(#SVGID_60_);}
	.st38{clip-path:url(#SVGID_62_);}
	.st39{clip-path:url(#SVGID_64_);}
	.st40{clip-path:url(#SVGID_66_);}
	.st41{fill:none;stroke:#D1D3D4;stroke-width:0.5;stroke-miterlimit:10;}
	.st42{clip-path:url(#SVGID_68_);}
	.st43{fill:none;stroke:#D1D3D4;stroke-width:1.09;stroke-miterlimit:10;}
</style>
<title>residence_A_16_key_horizontal</title>
<g>
	<g>
		<g>
			<defs>
				<rect id="SVGID_1_" x="106.7" y="1.8" width="84.2" height="101.5"/>
			</defs>
			<clipPath id="SVGID_2_">
				<use xlink:href="#SVGID_1_"  style="overflow:visible;"/>
			</clipPath>
			<g class="st0">
				<g>
					<defs>
						<rect id="SVGID_3_" x="106.7" y="1.8" width="84.2" height="101.5"/>
					</defs>
					<clipPath id="SVGID_4_">
						<use xlink:href="#SVGID_3_"  style="overflow:visible;"/>
					</clipPath>
					<g class="st1">
						<path class="st2" d="M-1.3,45c0,0.1-0.2,0.2-0.2,0.3l0.1,0.3c0.1,0.2,0.6,0.3,1.3,0.1s2.3-1,2.4-1.8l-0.2-0.5
							c-0.2,0-0.3,0-0.5,0"/>
						<path class="st2" d="M2.2,44.3c0.1,0.2,0.1,0.5,0,0.7c-0.2,0.9-1.1,1.5-2,1.3c-0.3-0.1-0.7-0.2-0.9-0.5l-0.1-0.1"/>
						<path class="st2" d="M-1.1,45.4c-0.1-0.1-0.1-0.3-0.1-0.4c-0.2-0.9,0.5-1.8,1.4-2c0,0,0,0,0.1,0c0.6-0.1,1.1,0.1,1.5,0.5
							c0.1,0.1,0.2,0.3,0.3,0.4"/>
						<path class="st2" d="M-0.2,52.9c0.3,0.8,0.1,1.5-0.5,1.5s-1.3-0.7-1.5-1.5s-0.1-1.5,0.5-1.5S-0.5,52-0.2,52.9z"/>
						<path class="st2" d="M1.3,52.9c-0.3,0.8-0.1,1.5,0.5,1.5s1.3-0.7,1.6-1.5s0.1-1.5-0.5-1.5S1.6,52.1,1.3,52.9z"/>
						<path class="st3" d="M1.7,46.9c0-0.1,0-0.1,0-0.2c0,0-0.1-0.1-0.1-0.1c-0.1,0-0.2,0-0.3,0.1c0,0,0-0.1,0-0.1l0,0l0.1-0.4"/>
						<path class="st4" d="M0.9,46.9C0.9,47,1,47.1,1,47.1s0.2,0.1,0.3,0"/>
						<path class="st2" d="M8.2,96.8v-5.3l-5.3,2.9v5.4l-2.4,1.4l-17.7-8.4l-14.2-7.1l-3.3-1.8v-3.7c-0.1-0.8-0.6-1.6-1.4-2
							c-1-0.6-1.4,0.4-1.4,0.8v1.8"/>
						<path class="st2" d="M9,61.6l1.5,1v32.8l-2.3,1.3c-1.2-0.3-2.4-0.3-3.5,0.3l-1.2,0.7C3.2,97.9,3,98,2.9,98.2"/>
					</g>
				</g>
				<polyline class="st2" points="189.5,61.4 174.9,69.6 113.7,29.4 				"/>
				<polyline class="st2" points="189.5,64.2 174.9,72.4 113.7,32.1 				"/>
				<polyline class="st2" points="189.5,66.9 174.9,75.1 113.7,34.9 				"/>
				<polyline class="st2" points="189.5,69.7 174.9,77.9 113.7,37.6 				"/>
				<polyline class="st2" points="189.5,72.4 174.9,80.6 113.7,40.4 				"/>
				<polyline class="st2" points="189.5,75.2 174.9,83.4 113.7,43.1 				"/>
				<polyline class="st2" points="189.5,77.9 174.9,86.1 113.7,45.9 				"/>
				<polyline class="st2" points="189.5,80.7 174.9,88.9 113.7,48.6 				"/>
				<polyline class="st2" points="189.5,83.4 174.9,91.6 113.7,51.4 				"/>
				<polyline class="st2" points="189.5,86.2 174.9,94.4 113.7,54.1 				"/>
				<polyline class="st2" points="189.5,88.9 174.9,97.2 113.7,56.9 				"/>
				<g class="st5">
					<path class="st6" d="M119.8,68.8c0.7,0.5,0.7,1,0.2,1.4l-0.6-0.4c0.2-0.2,0.2-0.5-0.1-0.7c-0.5-0.3-1.2-0.3-1.7,0.1
						c-0.6,0.3-0.7,0.8-0.3,1.1c0.3,0.2,0.7,0.3,1.1,0.2l0.6,0.4c-0.7,0.3-1.6,0.2-2.3-0.2c-0.8-0.5-0.7-1.3,0.2-1.9
						S119,68.3,119.8,68.8z"/>
				</g>
				<g class="st5">
					<path class="st6" d="M123.9,71.8l-1.9,2.6l-0.6-0.4l0.5-0.6l-1.1-0.8l-1,0.2l-0.6-0.4l4.2-1L123.9,71.8z M121.5,72.4l0.7,0.5
						l0.7-0.8L121.5,72.4z"/>
				</g>
				<g class="st5">
					<path class="st6" d="M126.1,73.3l2.5,1.7l-0.6,0.3l-0.9-0.7l-2.5,1.5l-0.6-0.4l2.5-1.5l-0.9-0.7L126.1,73.3z"/>
				</g>
				<g class="st5">
					<path class="st6" d="M132.6,77.8l-3.1,1.8l-0.6-0.4l1.3-0.7l-1.3-0.9l-1.3,0.7l-0.6-0.4l3.1-1.8l0.6,0.4l-1.2,0.7l1.3,0.9
						l1.2-0.7L132.6,77.8z"/>
					<path class="st6" d="M136.3,80.4l-0.6,0.3l-1.4-1l-0.7,0.4L135,81l-0.5,0.3l-1.3-0.9l-0.7,0.4l1.4,1l-0.6,0.3l-2-1.4l3.1-1.8
						L136.3,80.4z"/>
					<path class="st6" d="M136.6,83l-1.1,0.7l-0.6-0.4l3.1-1.8l1.2,0.8c0.6,0.4,0.7,0.9,0.1,1.3c-0.5,0.3-1.1,0.3-1.6,0.1l-0.4,1.2
						l-0.7-0.5l0.4-1.2L136.6,83z M137.1,82.7l0.6,0.4c0.3,0.2,0.6,0.2,0.9,0.1c0.3-0.2,0.3-0.4,0-0.6l-0.6-0.4L137.1,82.7z"/>
					<path class="st6" d="M139.3,86.4l-0.6-0.4l3.1-1.8l0.6,0.4L139.3,86.4z"/>
					<path class="st6" d="M143.4,89.2l-0.5-0.3l0.7-2.1l-2,1.2l-0.6-0.4l3.1-1.8l0.6,0.4l-0.6,2l1.9-1.1l0.6,0.4L143.4,89.2z"/>
					<path class="st6" d="M150.2,90l-0.6,0.3l-1.4-1l-0.7,0.4l1.3,0.9l-0.5,0.3l-1.3-0.9l-0.7,0.4l1.4,1l-0.6,0.3l-2-1.4l3.1-1.8
						L150.2,90z"/>
					<path class="st6" d="M153.9,92.6l0.6,0.4l-2.5,1.4l1.4,0.9l-0.6,0.3l-2-1.4L153.9,92.6z"/>
				</g>
				<g class="st5">
					<path class="st6" d="M156.9,98.6l-0.5-0.3l0.7-2.1l-2,1.2l-0.6-0.4l3.1-1.8l0.6,0.4l-0.6,2l1.9-1.1l0.6,0.4L156.9,98.6z"/>
				</g>
				<polyline class="st4" points="189.5,58.7 174.9,66.9 113.7,26.6 				"/>
				<line class="st4" x1="174.9" y1="64.1" x2="174.9" y2="99.8"/>
				<line class="st4" x1="182.4" y1="94.7" x2="181.4" y2="95.3"/>
				<polyline class="st4" points="182.4,94.7 182.9,95.1 189.5,91.3 189.5,55.9 				"/>
				<polyline class="st4" points="189.5,55.9 174.9,64.1 113.7,23.8 				"/>
				<g>
					<defs>
						<rect id="SVGID_5_" x="106.7" y="1.8" width="84.2" height="101.5"/>
					</defs>
					<clipPath id="SVGID_6_">
						<use xlink:href="#SVGID_5_"  style="overflow:visible;"/>
					</clipPath>
					<g class="st7">
						<path class="st4" d="M182.4,94.7v-0.8c0-0.1-0.1-0.3-0.2-0.3"/>
						<path class="st4" d="M182.9,95.1v-1.1c0-0.3-0.2-0.6-0.8-0.3c-0.4,0.2-0.7,0.6-0.7,1.1V96l-6.5,3.8l-8.6-6l-10.9-7.4l-9.1-6.2
							l-13.5-9.2L113.7,57V23.8L115,23"/>
					</g>
				</g>
				<line class="st4" x1="177.3" y1="57.3" x2="177.3" y2="55.9"/>
				<line class="st4" x1="122.4" y1="26.4" x2="122.4" y2="28.9"/>
				<line class="st4" x1="177.3" y1="57.3" x2="178.1" y2="57.8"/>
				<line class="st4" x1="177.3" y1="55.9" x2="178.1" y2="56.4"/>
				<line class="st4" x1="122.8" y1="11.8" x2="122.8" y2="9.9"/>
				<line class="st4" x1="122.8" y1="11.9" x2="122.8" y2="9.8"/>
				<line class="st4" x1="122.5" y1="24.5" x2="122.5" y2="20.2"/>
				<polyline class="st4" points="123.9,28 122.4,28.9 115,24 115,21.5 117.6,20 				"/>
				<polyline class="st4" points="122.8,17.6 126.3,15.5 126.3,10.9 126.3,10.9 124.8,9.8 				"/>
				<g>
					<defs>
						<rect id="SVGID_7_" x="106.7" y="1.8" width="84.2" height="101.5"/>
					</defs>
					<clipPath id="SVGID_8_">
						<use xlink:href="#SVGID_7_"  style="overflow:visible;"/>
					</clipPath>
					<g class="st8">
						<path class="st4" d="M122.1,14.1c0.3,0.8,0.1,1.5-0.5,1.5s-1.3-0.7-1.6-1.5s-0.1-1.5,0.5-1.5S121.8,13.3,122.1,14.1z"/>
						<path class="st4" d="M123.6,14.2c-0.3,0.8-0.1,1.5,0.5,1.5s1.3-0.7,1.6-1.5s0.1-1.5-0.5-1.5S123.9,13.4,123.6,14.2z"/>
					</g>
				</g>
				<line class="st4" x1="122.5" y1="20.2" x2="128.2" y2="16.9"/>
				<line class="st4" x1="117.6" y1="16.9" x2="122.5" y2="20.2"/>
				<line class="st4" x1="115" y1="21.5" x2="122.4" y2="26.4"/>
				<polyline class="st4" points="126.4,15.3 126.7,15.5 126.7,17 126.7,17 122.8,19.3 122.8,19.2 122.8,13 				"/>
				<polyline class="st4" points="119.1,16.1 117.6,17 117.6,21.2 117.6,21.3 122.5,24.5 				"/>
				<polyline class="st4" points="128.3,19.2 131.3,21.1 131.3,22.8 				"/>
				<line class="st4" x1="122.7" y1="13.1" x2="126.3" y2="10.9"/>
				<line class="st4" x1="119.4" y1="10.9" x2="120.9" y2="10"/>
				<line class="st4" x1="119.4" y1="10.8" x2="122.8" y2="13.1"/>
				<polyline class="st4" points="126.7,15.9 128.3,16.9 128.3,16.9 128.3,21.1 128.2,21.2 122.4,24.6 				"/>
				<line class="st4" x1="120.9" y1="8.6" x2="122.8" y2="9.9"/>
				<line class="st4" x1="123.8" y1="8" x2="124.8" y2="8.6"/>
				<g>
					<defs>
						<rect id="SVGID_9_" x="106.7" y="1.8" width="84.2" height="101.5"/>
					</defs>
					<clipPath id="SVGID_10_">
						<use xlink:href="#SVGID_9_"  style="overflow:visible;"/>
					</clipPath>
					<g class="st9">
						<path class="st4" d="M121,6.3c-0.1,0.1-0.1,0.2-0.2,0.3l0.1,0.3c0.1,0.2,0.6,0.3,1.3,0.1s2.3-1,2.4-1.8l-0.2-0.5
							c-0.2,0-0.3,0-0.5,0"/>
					</g>
				</g>
				<polyline class="st4" points="121.7,3.3 122.8,3.8 123.1,3.7 123.8,2.7 				"/>
				<g>
					<defs>
						<rect id="SVGID_11_" x="106.7" y="1.8" width="84.2" height="101.5"/>
					</defs>
					<clipPath id="SVGID_12_">
						<use xlink:href="#SVGID_11_"  style="overflow:visible;"/>
					</clipPath>
					<g class="st10">
						<path class="st4" d="M124.4,5.6c0.1,0.2,0.1,0.5,0,0.7c-0.2,0.9-1.1,1.5-2,1.3c-0.3-0.1-0.7-0.2-0.9-0.5l-0.1-0.1"/>
						<path class="st4" d="M121.2,6.7c-0.1-0.1-0.1-0.3-0.1-0.4c-0.2-0.9,0.5-1.8,1.4-2c0,0,0,0,0.1,0c0.6-0.1,1.1,0.1,1.5,0.5
							c0.1,0.1,0.2,0.3,0.3,0.4"/>
						<path class="st4" d="M124,8.2c0-0.1,0-0.1,0-0.2c0,0-0.1-0.1-0.1-0.1c-0.1,0-0.2,0-0.3,0V7.9l0.1-0.4"/>
						<path class="st4" d="M123.2,8.2c0,0.1,0,0.1,0.1,0.2s0.2,0.1,0.3,0"/>
					</g>
				</g>
				<polyline class="st4" points="122.3,8.9 122.3,8.7 122.5,8.3 122.5,8.2 122.1,8.1 121.7,7.9 121.8,7.5 				"/>
				<line class="st4" x1="119.5" y1="15.4" x2="122.8" y2="17.6"/>
				<polyline class="st4" points="122.8,19.4 119.1,16.9 119,16.9 119,15.6 119,15.6 119.4,15.4 119.4,15.4 119.4,10.8 				"/>
				<polyline class="st4" points="121.9,7.9 120.8,8.6 120.8,8.7 120.8,10.6 122.8,11.9 122.8,11.9 124.8,10.8 124.8,8.7 124.8,8.7 
					122.9,9.9 				"/>
				<line class="st4" x1="155.6" y1="44.6" x2="167.8" y2="52.3"/>
				<polyline class="st4" points="183.5,54.7 180.7,56.3 178.1,54.6 				"/>
				<line class="st4" x1="180.7" y1="60.2" x2="180.7" y2="56.3"/>
				<polyline class="st4" points="178.1,55.4 172.5,58.7 123.9,27.7 				"/>
				<line class="st2" x1="189.5" y1="55.9" x2="131.3" y2="22.2"/>
				<line class="st2" x1="169.5" y1="45" x2="135" y2="25"/>
				<line class="st4" x1="172.5" y1="60.1" x2="172.5" y2="58.7"/>
				<line class="st4" x1="167.8" y1="54" x2="167.8" y2="52.3"/>
				<polygon class="st4" points="175,48 175,49.8 167.8,54 155.6,46.3 155.6,44.6 160.9,41.4 168.2,45.8 169.6,44.9 				"/>
				<line class="st4" x1="175" y1="48.1" x2="167.8" y2="52.3"/>
				<line class="st4" x1="135" y1="24.9" x2="129.8" y2="28"/>
				<polygon class="st4" points="125.3,26.9 125.3,25.2 125.3,25.1 130.4,22.2 135,24.9 135,26.4 135,26.5 129.8,29.7 				"/>
				<polyline class="st4" points="177.3,57.3 172.5,60.1 123.9,29.2 123.9,29.2 123.9,27.7 125.3,26.9 				"/>
				<line class="st4" x1="129.8" y1="28" x2="125.3" y2="25.2"/>
				<line class="st4" x1="129.8" y1="29.6" x2="129.8" y2="28"/>
				<polyline class="st4" points="182.4,54 182.8,53.8 182.8,52.7 175,48.2 				"/>
				<line class="st4" x1="182.8" y1="52.7" x2="182.2" y2="53"/>
				<line class="st4" x1="131.3" y1="21.2" x2="122.4" y2="26.4"/>
				<polyline class="st4" points="179.5,53.7 178.1,54.6 178.1,58.5 180.7,60.2 183.5,58.6 183.5,54.7 182.4,54 				"/>
				<g>
					<defs>
						<rect id="SVGID_13_" x="106.7" y="1.8" width="84.2" height="101.5"/>
					</defs>
					<clipPath id="SVGID_14_">
						<use xlink:href="#SVGID_13_"  style="overflow:visible;"/>
					</clipPath>
					<g class="st11">
						<path class="st4" d="M180.7,52.2c-0.7,0.1-1.2,0.7-1.2,1.5v1c0,0.4,0.6,0.7,1.4,0.7s1.4-0.3,1.4-0.7v-1c0-0.7-0.5-1.3-1.2-1.5
							v-0.2c0-0.1-0.1-0.2-0.2-0.2s-0.2,0.1-0.2,0.2V52.2z"/>
					</g>
				</g>
				<g>
					<defs>
						<rect id="SVGID_15_" x="106.7" y="1.8" width="84.2" height="101.5"/>
					</defs>
					<clipPath id="SVGID_16_">
						<use xlink:href="#SVGID_15_"  style="overflow:visible;"/>
					</clipPath>
					<g class="st12">
						<g class="st13">
							<g>
								<defs>
									<rect id="SVGID_17_" x="123.9" y="27.8" width="8" height="6.5"/>
								</defs>
								<clipPath id="SVGID_18_">
									<use xlink:href="#SVGID_17_"  style="overflow:visible;"/>
								</clipPath>
								<g class="st14">
									<polygon class="st15" points="123.9,27.8 123.9,29.2 131.9,34.3 131.9,32.9 									"/>
								</g>
							</g>
						</g>
					</g>
				</g>
				<polygon class="st15" points="125.3,25.2 125.3,26.9 129.8,29.7 129.8,28 				"/>
				<g>
					<defs>
						<rect id="SVGID_19_" x="106.7" y="1.8" width="84.2" height="101.5"/>
					</defs>
					<clipPath id="SVGID_20_">
						<use xlink:href="#SVGID_19_"  style="overflow:visible;"/>
					</clipPath>
					<g class="st16">
						<g class="st13">
							<g>
								<defs>
									<rect id="SVGID_21_" x="122.8" y="29.2" width="9.1" height="5.9"/>
								</defs>
								<clipPath id="SVGID_22_">
									<use xlink:href="#SVGID_21_"  style="overflow:visible;"/>
								</clipPath>
								<g class="st17">
									<polygon class="st15" points="123.9,29.2 122.8,29.9 130.8,35.1 131.9,34.3 									"/>
								</g>
							</g>
						</g>
					</g>
				</g>
				<polygon class="st15" points="125.3,26.9 123.9,27.7 128.4,30.6 129.8,29.7 				"/>
				<line class="st18" x1="125.2" y1="26.8" x2="129.8" y2="29.7"/>
			</g>
		</g>
		<g>
			<defs>
				<rect id="SVGID_23_" x="3.1" y="-0.9" width="81.5" height="101.5"/>
			</defs>
			<clipPath id="SVGID_24_">
				<use xlink:href="#SVGID_23_"  style="overflow:visible;"/>
			</clipPath>
			<g class="st19">
				<g class="st5">
					<path class="st6" d="M10.8,72.7l0.6,0.4L9,74.7l1.4,0.9L9.9,76l-2-1.3L10.8,72.7z"/>
					<path class="st6" d="M16.5,76.3L16,76.7l-1.4-0.9l-0.7,0.4l1.3,0.8l-0.5,0.3l-1.3-0.8L12.7,77l1.4,0.9l-0.5,0.4L11.5,77l3-2
						L16.5,76.3z"/>
					<path class="st6" d="M16.5,80.1c-0.8-0.5-0.8-1.3,0.1-1.9c0.9-0.6,2.1-0.6,3-0.1c0.8,0.5,0.8,1.3-0.1,1.9
						C18.5,80.6,17.3,80.7,16.5,80.1z M19,78.5c-0.5-0.3-1.2-0.2-1.8,0.2c-0.6,0.4-0.7,0.8-0.2,1.1c0.5,0.3,1.2,0.2,1.8-0.1
						C19.4,79.2,19.5,78.8,19,78.5z"/>
					<path class="st6" d="M22.1,83.6l-0.5-0.3l0.6-2.2l-2,1.3L19.6,82l3-2l0.6,0.4l-0.6,2.1l1.9-1.2l0.6,0.4L22.1,83.6z"/>
				</g>
				<g class="st5">
					<path class="st6" d="M28.4,83.7l-1.8,2.7L25.9,86l0.4-0.6l-1.1-0.7l-1,0.3l-0.6-0.4l4.1-1.2L28.4,83.7z M26,84.4l0.7,0.5
						l0.6-0.9L26,84.4z"/>
				</g>
				<g class="st5">
					<path class="st6" d="M29.8,87l-1.1,0.7l-0.6-0.4l3-2l1.2,0.8c0.6,0.4,0.7,0.9,0.1,1.3c-0.5,0.3-1,0.3-1.6,0.1l-0.4,1.3
						l-0.7-0.4l0.4-1.2L29.8,87z M30.4,86.7l0.6,0.4c0.3,0.2,0.6,0.2,0.9,0c0.3-0.2,0.3-0.4-0.1-0.6l-0.6-0.4L30.4,86.7z"/>
				</g>
				<g class="st5">
					<path class="st6" d="M35.1,87.9l1.1,0.7c0.9,0.6,0.9,1.3,0,1.9c-0.9,0.6-2.1,0.6-3,0l-1.1-0.7L35.1,87.9z M33.7,90.1
						c0.6,0.4,1.3,0.3,1.8-0.1c0.6-0.4,0.6-0.8,0.1-1.2l-0.4-0.3l-1.9,1.2L33.7,90.1z"/>
				</g>
				<g class="st5">
					<path class="st6" d="M39.8,93.5c-0.2,0.2-0.1,0.4,0.2,0.6c0.3,0.2,0.6,0.2,0.9,0.1c0.2-0.1,0.2-0.2,0-0.5l-0.4-0.4
						c-0.3-0.3-0.4-0.7,0-1c0.5-0.4,1.4-0.3,2,0.1c0.7,0.4,0.7,0.9,0.3,1.3l-0.6-0.4c0.1-0.2,0.1-0.4-0.2-0.6
						c-0.3-0.2-0.6-0.2-0.8-0.1c-0.2,0.1-0.2,0.2,0,0.4l0.4,0.4c0.4,0.4,0.4,0.7,0,1c-0.6,0.4-1.4,0.3-2.1-0.1
						c-0.7-0.4-0.8-0.9-0.4-1.4L39.8,93.5z"/>
				</g>
				<g class="st5">
					<path class="st6" d="M45,94.1l2.6,1.6L47.1,96l-1-0.6L43.6,97L43,96.6l2.4-1.6l-1-0.6L45,94.1z"/>
				</g>
				<line class="st2" x1="70.8" y1="60.4" x2="70.8" y2="56.1"/>
				<line class="st2" x1="12.9" y1="25.7" x2="12.9" y2="22.1"/>
				<line class="st2" x1="24.9" y1="30.4" x2="24.9" y2="32.4"/>
				<line class="st2" x1="19.6" y1="27.4" x2="19.6" y2="29.4"/>
				<line class="st2" x1="26.4" y1="29.6" x2="26.4" y2="31.6"/>
				<line class="st4" x1="26.4" y1="31.6" x2="24.9" y2="32.4"/>
				<line class="st4" x1="26.3" y1="29.7" x2="25" y2="30.5"/>
				<line class="st4" x1="62.9" y1="46.8" x2="57" y2="50.3"/>
				<line class="st4" x1="67.3" y1="50.4" x2="62.3" y2="53.3"/>
				<line class="st2" x1="33.4" y1="33.6" x2="33.4" y2="35.6"/>
				<line class="st4" x1="38.2" y1="32" x2="61.8" y2="47.5"/>
				<line class="st4" x1="62.8" y1="46.8" x2="67.3" y2="49.8"/>
				<line class="st4" x1="38.2" y1="31.4" x2="62.3" y2="47.2"/>
				<line class="st4" x1="10.1" y1="24.6" x2="12.5" y2="26"/>
				<line class="st4" x1="19.6" y1="27.4" x2="24.9" y2="30.4"/>
				<line class="st4" x1="26.4" y1="29.7" x2="33.5" y2="33.8"/>
				<line class="st4" x1="26.4" y1="31.6" x2="33.4" y2="35.6"/>
				<line class="st4" x1="57.1" y1="50.3" x2="62.4" y2="53.3"/>
				<line class="st2" x1="70.7" y1="47.9" x2="70.7" y2="45.8"/>
				<polyline class="st2" points="61.9,57.4 61,56.8 60,57.5 14.4,31 14.4,28.8 				"/>
				<polyline class="st2" points="25.8,23.8 21.3,20.9 11,26.9 60,55.2 				"/>
				<line class="st2" x1="60" y1="55.2" x2="60" y2="57.5"/>
				<line class="st2" x1="61" y1="54.6" x2="60" y2="55.2"/>
				<polyline class="st2" points="61,56.8 61,54.6 57.1,52.3 				"/>
				<line class="st2" x1="70.8" y1="64.5" x2="70.8" y2="62.1"/>
				<polyline class="st2" points="76.2,55.2 79.2,57.2 79.2,59.6 70.8,64.5 61.9,59.4 61.9,56.9 65.5,54.8 				"/>
				<polyline class="st2" points="79.2,57.2 70.8,62.1 61.9,56.9 				"/>
				<polyline class="st4" points="11.9,27.4 11.9,28.6 14.4,30 				"/>
				<line class="st4" x1="19.6" y1="29.4" x2="24.9" y2="32.4"/>
				<line class="st4" x1="57.1" y1="52.3" x2="57.1" y2="50.3"/>
				<line class="st4" x1="62.4" y1="56.6" x2="62.4" y2="53.3"/>
				<polyline class="st4" points="74.2,46.9 70.8,48.9 67.3,46.9 				"/>
				<polyline class="st2" points="74.2,51.3 74.6,51.5 74.6,53 70.8,55.2 67,53 67,51.6 67.3,51.4 				"/>
				<line class="st2" x1="70.8" y1="55.2" x2="70.8" y2="48.9"/>
				<polyline class="st2" points="74.6,52 76.2,52.9 76.2,57.3 70.8,60.4 65.5,57.4 65.5,53 67,52.1 				"/>
				<polyline class="st2" points="76.2,52.9 70.8,56.1 65.5,53 				"/>
				<polyline class="st2" points="10.1,24.5 4.9,27.6 4.9,64 				"/>
				<polyline class="st2" points="15.8,21.2 19.5,19 26.3,23.5 				"/>
				<line class="st2" x1="70.8" y1="65.7" x2="70.7" y2="98.6"/>
				<line class="st2" x1="70.8" y1="98.6" x2="35.6" y2="78.2"/>
				<polyline class="st2" points="80.7,65.4 70.8,71.2 5,33.1 				"/>
				<polyline class="st2" points="80.7,68.2 70.8,73.9 5,35.8 				"/>
				<polyline class="st2" points="80.7,70.9 70.8,76.7 5,38.6 				"/>
				<polyline class="st2" points="80.7,73.6 70.8,79.4 5,41.3 				"/>
				<polyline class="st2" points="80.7,76.4 70.8,82.2 5,44 				"/>
				<polyline class="st2" points="80.7,79.1 70.8,84.9 5,46.8 				"/>
				<polyline class="st2" points="80.7,81.8 70.8,87.6 5,49.5 				"/>
				<polyline class="st2" points="80.7,84.6 70.8,90.4 5,52.3 				"/>
				<line class="st2" x1="80.7" y1="87.3" x2="78.4" y2="88.7"/>
				<polyline class="st2" points="73.1,91.8 70.8,93.1 5,55 				"/>
				<line class="st2" x1="78.4" y1="91.4" x2="80.7" y2="90.1"/>
				<polyline class="st2" points="73.1,94.5 70.8,95.9 5,57.7 				"/>
				<polyline class="st2" points="80.7,62.7 70.8,68.5 5,30.4 				"/>
				<line class="st2" x1="32.8" y1="76.6" x2="5" y2="60.5"/>
				<polyline class="st4" points="11.6,19.6 10.1,20.5 10.1,24.6 				"/>
				<polyline class="st4" points="14.4,19.6 15.8,20.5 15.8,24 				"/>
				<polyline class="st4" points="10.1,20.5 12.9,22.1 15.8,20.5 				"/>
				<polyline class="st2" points="71.9,44.2 72.7,44.7 72.7,46.8 70.7,47.9 68.8,46.8 68.8,44.7 69.8,44.1 				"/>
				<polyline class="st4" points="72.7,44.7 70.7,45.8 68.8,44.7 				"/>
				<g>
					<defs>
						<rect id="SVGID_25_" x="3.3" y="-0.9" width="81.3" height="101.5"/>
					</defs>
					<clipPath id="SVGID_26_">
						<use xlink:href="#SVGID_25_"  style="overflow:visible;"/>
					</clipPath>
					<g class="st20">
						<path class="st2" d="M68.9,42.4c0,0.1-0.2,0.2-0.2,0.3l0.1,0.3c0.1,0.2,0.6,0.3,1.3,0.1s2.3-1,2.4-1.8l-0.2-0.5
							c-0.2,0-0.3,0-0.5,0"/>
					</g>
				</g>
				<polyline class="st2" points="69.6,39.4 70.7,39.9 71,39.7 71.7,38.7 				"/>
				<g>
					<defs>
						<rect id="SVGID_27_" x="3.3" y="-0.9" width="81.3" height="101.5"/>
					</defs>
					<clipPath id="SVGID_28_">
						<use xlink:href="#SVGID_27_"  style="overflow:visible;"/>
					</clipPath>
					<g class="st21">
						<path class="st2" d="M72.3,41.7c0.1,0.2,0.1,0.5,0,0.7c-0.2,0.9-1.1,1.5-2,1.3c-0.3-0.1-0.7-0.2-0.9-0.5l-0.1-0.1"/>
						<path class="st2" d="M69.1,42.7c-0.1-0.1-0.1-0.3-0.1-0.4c-0.2-0.9,0.5-1.8,1.4-2c0,0,0,0,0.1,0c0.6-0.1,1.1,0.1,1.5,0.5
							c0.1,0.1,0.2,0.3,0.3,0.4"/>
						<path class="st2" d="M70,50.2c0.3,0.8,0.1,1.5-0.5,1.5s-1.3-0.7-1.6-1.5s-0.1-1.5,0.5-1.5S69.7,49.4,70,50.2z"/>
						<path class="st2" d="M71.5,50.2c-0.3,0.8-0.1,1.5,0.5,1.5s1.3-0.7,1.6-1.5s0.1-1.5-0.5-1.5S71.8,49.4,71.5,50.2z"/>
						<path class="st3" d="M71.9,44.3c0-0.1,0-0.1,0-0.2c0,0-0.1-0.1-0.1-0.1c-0.1,0-0.2,0-0.3,0.1v-0.1l0.1-0.4"/>
						<path class="st4" d="M71.1,44.2c0,0.1,0,0.1,0.1,0.2s0.2,0.1,0.3,0"/>
					</g>
				</g>
				<polyline class="st4" points="70.2,44.9 70.2,44.8 70.4,44.4 70.4,44.2 70,44.2 69.6,44 69.7,43.5 				"/>
				<polyline class="st2" points="68.8,46.1 67.3,46.9 67.3,51.6 70.8,53.6 74.2,51.5 74.2,46.9 72.7,46 				"/>
				<g>
					<defs>
						<rect id="SVGID_29_" x="3.3" y="-0.9" width="81.3" height="101.5"/>
					</defs>
					<clipPath id="SVGID_30_">
						<use xlink:href="#SVGID_29_"  style="overflow:visible;"/>
					</clipPath>
					<g class="st22">
						<path class="st4" d="M12.8,18.1c-0.7,0.1-1.2,0.8-1.2,1.5v1c0,0.4,0.6,0.7,1.4,0.7s1.4-0.3,1.4-0.7v-1c0-0.7-0.5-1.3-1.2-1.5
							v-0.1c0-0.1-0.1-0.2-0.2-0.2s-0.2,0.1-0.2,0.2V18.1z"/>
					</g>
				</g>
				<polyline class="st2" points="80.7,59.9 70.8,65.7 5,27.6 				"/>
				<polyline class="st2" points="35.6,78.7 33.7,77.6 31.9,78.6 34.3,80 35.6,79.3 				"/>
				<line class="st2" x1="35.6" y1="78.7" x2="33.7" y2="77.6"/>
				<line class="st2" x1="35.6" y1="80.3" x2="34.7" y2="79.8"/>
				<g>
					<defs>
						<rect id="SVGID_31_" x="3.3" y="-0.9" width="81.3" height="101.5"/>
					</defs>
					<clipPath id="SVGID_32_">
						<use xlink:href="#SVGID_31_"  style="overflow:visible;"/>
					</clipPath>
					<g class="st23">
						<path class="st2" d="M34,75.4c-0.2,0.2-0.4,0.5-0.4,0.8v1.4"/>
					</g>
				</g>
				<polyline class="st2" points="33.3,79.4 32.8,79.7 4.9,64 				"/>
				<line class="st2" x1="32.8" y1="79.7" x2="32.8" y2="79.1"/>
				<g>
					<defs>
						<rect id="SVGID_33_" x="3.3" y="-0.9" width="81.3" height="101.5"/>
					</defs>
					<clipPath id="SVGID_34_">
						<use xlink:href="#SVGID_33_"  style="overflow:visible;"/>
					</clipPath>
					<g class="st24">
						<path class="st2" d="M78.4,94.1v-5.3l-5.3,2.9v5.4l-2.4,1.4L53,90.2l-14.2-7.1l-3.3-1.8v-3.7c-0.1-0.8-0.6-1.6-1.4-2
							c-0.4-0.3-1-0.2-1.2,0.2c-0.1,0.2-0.2,0.4-0.2,0.6v1.8"/>
					</g>
				</g>
				<polyline class="st2" points="74.6,94.5 74.6,93.1 73.8,93.6 73.8,95 				"/>
				<g>
					<defs>
						<rect id="SVGID_35_" x="3.3" y="-0.9" width="81.3" height="101.5"/>
					</defs>
					<clipPath id="SVGID_36_">
						<use xlink:href="#SVGID_35_"  style="overflow:visible;"/>
					</clipPath>
					<g class="st25">
						<path class="st2" d="M79.2,59l1.5,1v32.8l-2.3,1.3c-1.2-0.3-2.4-0.3-3.5,0.3l-1.2,0.7c-0.2,0.1-0.4,0.2-0.5,0.4"/>
					</g>
				</g>
				<polyline class="st4" points="33.4,35.6 38.2,32.7 38.2,30.8 26.8,23.3 19.6,27.4 				"/>
				<line class="st4" x1="38.2" y1="30.8" x2="33.4" y2="33.7"/>
				<g>
					<defs>
						<rect id="SVGID_37_" x="3.3" y="-0.9" width="81.3" height="101.5"/>
					</defs>
					<clipPath id="SVGID_38_">
						<use xlink:href="#SVGID_37_"  style="overflow:visible;"/>
					</clipPath>
					<g class="st26">
						<g class="st5">
							<path class="st6" d="M190,66.2c0.7,0.5,0.7,1,0.2,1.4l-0.6-0.4c0.2-0.2,0.2-0.5-0.1-0.7c-0.5-0.3-1.2-0.3-1.8,0.1
								c-0.6,0.3-0.7,0.8-0.3,1.1c0.3,0.2,0.7,0.2,1.1,0.2l0.6,0.4c-0.7,0.3-1.6,0.2-2.3-0.2c-0.8-0.5-0.7-1.3,0.2-1.9
								C188,65.6,189.2,65.6,190,66.2z"/>
						</g>
						<g class="st5">
							<path class="st6" d="M194.1,69.1l-1.9,2.6l-0.6-0.4l0.5-0.6l-1.1-0.8l-1,0.2l-0.6-0.4l4.2-1L194.1,69.1z M191.7,69.7l0.7,0.5
								l0.7-0.8L191.7,69.7z"/>
						</g>
						<g class="st5">
							<path class="st6" d="M196.3,70.6l2.5,1.7l-0.6,0.3l-0.9-0.7l-2.5,1.5l-0.6-0.4l2.5-1.5l-0.9-0.7L196.3,70.6z"/>
						</g>
						<g class="st5">
							<path class="st6" d="M202.8,75.2l-3.1,1.8l-0.6-0.4l1.3-0.7l-1.3-0.9l-1.3,0.7l-0.6-0.4l3.1-1.8l0.6,0.4l-1.2,0.7l1.3,0.9
								l1.2-0.7L202.8,75.2z"/>
							<path class="st6" d="M206.5,77.7L206,78l-1.4-1l-0.7,0.4l1.3,0.9l-0.5,0.3l-1.3-0.9l-0.7,0.4l1.4,1l-0.6,0.3l-2-1.4l3.1-1.8
								L206.5,77.7z"/>
							<path class="st6" d="M206.8,80.4l-1.1,0.7l-0.6-0.4l3.1-1.8l1.2,0.8c0.6,0.4,0.7,0.9,0.1,1.3c-0.5,0.3-1.1,0.3-1.6,0.1
								l-0.4,1.2l-0.7-0.5l0.4-1.2L206.8,80.4z M207.3,80.1l0.6,0.4c0.3,0.2,0.6,0.2,0.9,0.1c0.3-0.2,0.3-0.4,0-0.6l-0.6-0.4
								L207.3,80.1z"/>
							<path class="st6" d="M209.5,83.7l-0.6-0.4l3.1-1.8l0.6,0.4L209.5,83.7z"/>
							<path class="st6" d="M213.6,86.6l-0.5-0.3l0.7-2.1l-2,1.2l-0.6-0.4l3.1-1.8l0.6,0.4l-0.6,2l1.9-1.1l0.6,0.4L213.6,86.6z"/>
							<path class="st6" d="M220.4,87.3l-0.6,0.3l-1.4-1l-0.7,0.4L219,88l-0.5,0.3l-1.3-0.9l-0.7,0.4l1.4,1l-0.6,0.3l-2-1.4l3.1-1.8
								L220.4,87.3z"/>
							<path class="st6" d="M224.1,90l0.6,0.4l-2.5,1.4l1.4,0.9l-0.6,0.3l-2-1.4L224.1,90z"/>
						</g>
						<g class="st5">
							<path class="st6" d="M227.1,95.9l-0.5-0.3l0.7-2.1l-2,1.2l-0.6-0.4l3.1-1.8l0.6,0.4l-0.6,2l1.9-1.1l0.6,0.4L227.1,95.9z"/>
						</g>
						<path class="st4" d="M252.6,92.1v-0.8c0-0.1-0.1-0.3-0.2-0.4"/>
						<path class="st4" d="M253.1,92.4v-1.2c0-0.3-0.2-0.6-0.8-0.3c-0.4,0.2-0.6,0.6-0.7,1.1v1.3l-6.5,3.8l-8.6-5.9l-10.9-7.4
							l-9.1-6.2l-13.5-9.3l-19.2-13.9V21.2l1.3-0.8"/>
						<path class="st4" d="M192.3,11.5c0.3,0.8,0.1,1.5-0.5,1.5s-1.3-0.7-1.6-1.5s-0.1-1.5,0.5-1.5S192,10.6,192.3,11.5z"/>
						<path class="st4" d="M193.8,11.5c-0.3,0.8-0.1,1.5,0.5,1.5s1.3-0.7,1.6-1.5s0.1-1.5-0.5-1.5S194.1,10.7,193.8,11.5z"/>
						<path class="st4" d="M191.2,3.7c-0.1,0.1-0.1,0.2-0.2,0.3l0.1,0.3c0.1,0.2,0.6,0.3,1.3,0.1s2.3-1,2.4-1.8l-0.2-0.5
							c-0.2,0-0.3,0-0.5,0"/>
						<path class="st4" d="M194.6,3c0.1,0.2,0.1,0.5,0,0.7c-0.2,0.9-1.1,1.5-2,1.3c-0.3-0.1-0.7-0.3-0.9-0.5l-0.1-0.1"/>
						<path class="st4" d="M191.4,4c-0.1-0.1-0.1-0.3-0.1-0.4c-0.2-0.9,0.5-1.8,1.4-2c0,0,0,0,0,0c0.6-0.1,1.1,0.1,1.5,0.5
							c0.1,0.1,0.2,0.3,0.3,0.4"/>
						<path class="st4" d="M194.2,5.6c0-0.1,0-0.1,0-0.2c0,0,0-0.1-0.1-0.1c-0.1,0-0.2,0-0.3,0V5.2l0.1-0.4"/>
						<path class="st4" d="M193.4,5.5c0,0.1,0.1,0.2,0.1,0.2s0.2,0.1,0.3,0"/>
						<path class="st4" d="M250.9,49.6c-0.7,0.1-1.2,0.7-1.2,1.4v1c0,0.4,0.6,0.7,1.4,0.7s1.4-0.3,1.4-0.7v-1c0-0.7-0.5-1.3-1.2-1.5
							v-0.2c0-0.1-0.1-0.2-0.2-0.2s-0.2,0.1-0.2,0.2L250.9,49.6z"/>
					</g>
				</g>
				<g>
					<defs>
						<rect id="SVGID_39_" x="3.3" y="-0.9" width="81.3" height="101.5"/>
					</defs>
					<clipPath id="SVGID_40_">
						<use xlink:href="#SVGID_39_"  style="overflow:visible;"/>
					</clipPath>
					<g class="st27">
						<g class="st13">
							<g>
								<defs>
									<rect id="SVGID_41_" x="51.5" y="50.3" width="8.4" height="7"/>
								</defs>
								<clipPath id="SVGID_42_">
									<use xlink:href="#SVGID_41_"  style="overflow:visible;"/>
								</clipPath>
								<g class="st28">
									<polygon class="st15" points="51.5,50.3 51.5,52.5 59.9,57.4 59.9,55.1 51.5,50.3 									"/>
								</g>
							</g>
						</g>
					</g>
				</g>
				<polygon class="st15" points="57,50.3 57,52.2 62.3,55.5 62.3,53.3 				"/>
				<g>
					<defs>
						<rect id="SVGID_43_" x="3.3" y="-0.9" width="81.3" height="101.5"/>
					</defs>
					<clipPath id="SVGID_44_">
						<use xlink:href="#SVGID_43_"  style="overflow:visible;"/>
					</clipPath>
					<g class="st29">
						<g class="st13">
							<g>
								<defs>
									<rect id="SVGID_45_" x="49.7" y="52.6" width="10.2" height="5.9"/>
								</defs>
								<clipPath id="SVGID_46_">
									<use xlink:href="#SVGID_45_"  style="overflow:visible;"/>
								</clipPath>
								<g class="st30">
									<polygon class="st15" points="51.5,52.6 49.7,53.5 49.7,53.5 58.2,58.5 59.9,57.4 									"/>
								</g>
							</g>
						</g>
					</g>
				</g>
				<polygon class="st15" points="57.1,52.3 55.8,52.8 60,55.2 61,54.7 				"/>
				<line class="st18" x1="57.1" y1="52.3" x2="60.9" y2="54.6"/>
				<g>
					<defs>
						<rect id="SVGID_47_" x="3.3" y="-0.9" width="81.3" height="101.5"/>
					</defs>
					<clipPath id="SVGID_48_">
						<use xlink:href="#SVGID_47_"  style="overflow:visible;"/>
					</clipPath>
					<g class="st31">
						<g class="st13">
							<g>
								<defs>
									<rect id="SVGID_49_" x="194.1" y="25.1" width="8" height="6.5"/>
								</defs>
								<clipPath id="SVGID_50_">
									<use xlink:href="#SVGID_49_"  style="overflow:visible;"/>
								</clipPath>
								<g class="st32">
									<polygon class="st15" points="194.1,25.1 194.1,26.5 202.1,31.6 202.1,30.2 									"/>
								</g>
							</g>
						</g>
					</g>
				</g>
				<g>
					<defs>
						<rect id="SVGID_51_" x="3.3" y="-0.9" width="81.3" height="101.5"/>
					</defs>
					<clipPath id="SVGID_52_">
						<use xlink:href="#SVGID_51_"  style="overflow:visible;"/>
					</clipPath>
					<g class="st33">
						<g class="st13">
							<g>
								<defs>
									<rect id="SVGID_53_" x="192.9" y="26.5" width="9.1" height="5.9"/>
								</defs>
								<clipPath id="SVGID_54_">
									<use xlink:href="#SVGID_53_"  style="overflow:visible;"/>
								</clipPath>
								<g class="st34">
									<polygon class="st15" points="194.1,26.5 192.9,27.2 201,32.4 202.1,31.6 									"/>
								</g>
							</g>
						</g>
					</g>
				</g>
			</g>
		</g>
		<g>
			<defs>
				<rect id="SVGID_55_" x="206.6" y="31.3" width="144.6" height="78.6"/>
			</defs>
			<clipPath id="SVGID_56_">
				<use xlink:href="#SVGID_55_"  style="overflow:visible;"/>
			</clipPath>
			<g class="st35">
				<g>
					<defs>
						<rect id="SVGID_57_" x="206.6" y="31.3" width="144.6" height="78.6"/>
					</defs>
					<clipPath id="SVGID_58_">
						<use xlink:href="#SVGID_57_"  style="overflow:visible;"/>
					</clipPath>
					<g class="st36">
						<path class="st6" d="M248.7,94.6c0.9-0.1,1.7,0.6,1.8,1.4h-0.9c-0.1-0.4-0.5-0.7-0.9-0.7c-0.7,0-1.1,0.6-1.1,1.4
							s0.4,1.4,1.1,1.4c0.4,0,0.8-0.3,0.9-0.7h0.9c-0.1,0.9-0.9,1.5-1.8,1.5c-1.2-0.1-2.1-1.2-2-2.4
							C246.8,95.6,247.6,94.7,248.7,94.6z"/>
						<path class="st6" d="M254.7,94.7l1.6,4.3h-0.9l-0.4-1h-1.6l-0.4,1h-0.9l1.6-4.3H254.7z M253.7,97.2h1l-0.5-1.4L253.7,97.2z"/>
						<path class="st6" d="M257.7,94.7h3.7v0.8H260V99h-0.9v-3.5h-1.4L257.7,94.7z"/>
						<path class="st6" d="M267.3,94.7V99h-0.9v-1.8h-1.9V99h-0.9v-4.3h0.9v1.7h1.9v-1.7L267.3,94.7z"/>
						<path class="st6" d="M272.6,94.7v0.8h-2v0.9h1.9v0.8h-1.9v1h2V99h-2.9v-4.3L272.6,94.7z"/>
						<path class="st6" d="M275.7,97.4V99h-0.9v-4.3h1.8c0.7-0.1,1.4,0.4,1.5,1.1c0,0.1,0,0.1,0,0.2c0,0.6-0.4,1.2-1,1.3l1.2,1.7h-1
							l-1.1-1.6L275.7,97.4z M275.7,96.7h0.8c0.4,0,0.7-0.2,0.7-0.6s-0.2-0.6-0.7-0.6h-0.8V96.7z"/>
						<path class="st6" d="M281.2,99h-0.9v-4.3h0.9V99z"/>
						<path class="st6" d="M287.1,99h-0.7l-2-2.9V99h-0.9v-4.3h0.8l1.9,2.7v-2.7h0.9L287.1,99z"/>
						<path class="st6" d="M292.4,94.7v0.8h-2v0.9h1.9v0.8h-1.9v1h2V99h-2.9v-4.3L292.4,94.7z"/>
						<path class="st6" d="M297.7,94.7h0.9v3.5h2V99h-2.9L297.7,94.7z"/>
						<path class="st6" d="M306.4,99h-0.7l-2-2.9V99h-0.9v-4.3h0.8l1.9,2.7v-2.7h0.9L306.4,99z"/>
					</g>
				</g>
				<path class="st6" d="M210.4,51.8c-0.8,0-1.2-0.5-1.2-1.4v-1.8h4.3v1.7c0,0.9-0.4,1.5-1.2,1.5c-0.4,0-0.8-0.2-0.9-0.6
					C211.2,51.6,210.8,51.9,210.4,51.8z M209.9,49.5v0.8c0,0.4,0.2,0.7,0.5,0.7s0.5-0.2,0.5-0.7v-0.8H209.9z M211.7,50.2
					c0,0.4,0.2,0.7,0.5,0.7s0.5-0.2,0.5-0.7v-0.7h-1L211.7,50.2z"/>
				<path class="st6" d="M210.8,54.9h-1.6V54h4.3v1.8c0.1,0.7-0.4,1.4-1.1,1.5c-0.1,0-0.2,0-0.2,0c-0.6,0-1.2-0.4-1.3-1l-1.7,1.1v-1
					l1.6-1.1V54.9z M211.5,54.9v0.8c0,0.5,0.2,0.7,0.6,0.7s0.6-0.2,0.6-0.7v-0.8H211.5z"/>
				<path class="st6" d="M209.1,61.3c-0.1-1.2,0.8-2.3,2-2.4c1.2-0.1,2.3,0.8,2.4,2c0.1,1.2-0.8,2.3-2,2.4c-0.1,0-0.2,0-0.2,0
					c-1.1,0.1-2.1-0.7-2.2-1.9C209.1,61.4,209.1,61.4,209.1,61.3z M212.7,61.3c0-0.7-0.6-1.1-1.4-1.1s-1.4,0.4-1.4,1.1
					s0.6,1.1,1.4,1.1S212.7,62,212.7,61.3L212.7,61.3z"/>
				<path class="st6" d="M213.5,67.5l-4.3,1.7v-0.9l1-0.4v-1.6l-1-0.4V65l4.3,1.6V67.5z M211,66.5v1l1.4-0.5L211,66.5z"/>
				<path class="st6" d="M213.5,71.2v1.5c0,1.2-1,2.2-2.2,2.2c-1.2,0-2.1-1-2.1-2.2v-1.5H213.5z M210,72.7c0.1,0.8,0.7,1.3,1.5,1.2
					c0.7-0.1,1.2-0.6,1.2-1.2v-0.6H210V72.7z"/>
				<path class="st6" d="M213.5,79.7l-2.9,0.7l2.9,0.7V82l-4.3-1.1v-0.8l2.8-0.8l-2.8-0.8v-0.8l4.3-1.1v0.9l-2.9,0.7l2.9,0.8V79.7z"
					/>
				<path class="st6" d="M213.5,86l-4.3,1.6v-0.9l1-0.4v-1.6l-1-0.4v-0.9l4.3,1.7V86z M211,85v1l1.4-0.5L211,85z"/>
				<path class="st6" d="M213.5,92v0.9l-2.7-1.6h-1.6v-0.9h1.6l2.7-1.5v1l-1.8,1L213.5,92z"/>
				<path class="st6" d="M343.9,40.7v0.9h-3.5v2h-0.8v-2.9L343.9,40.7z"/>
				<path class="st6" d="M343.9,48l-4.3,1.7v-0.9l1-0.4v-1.6l-1-0.4v-0.9l4.3,1.7V48z M341.4,47v1l1.4-0.5L341.4,47z"/>
				<path class="st6" d="M339.6,51.7h4.3v2.9h-0.8v-2H342v1.8h-0.8v-1.8h-1.6L339.6,51.7z"/>
				<path class="st6" d="M343.9,58.7l-4.3,1.6v-0.9l1-0.4v-1.6l-1-0.4v-0.9l4.3,1.7V58.7z M341.4,57.7v1l1.4-0.5L341.4,57.7z"/>
				<path class="st6" d="M343.9,64.7v0.9l-2.7-1.6h-1.6v-0.9h1.6l2.7-1.5v1l-1.8,1L343.9,64.7z"/>
				<path class="st6" d="M343.9,70.6h-0.8v-2h-0.9v1.8h-0.8v-1.9h-1v2h-0.8v-2.9h4.3L343.9,70.6z"/>
				<path class="st6" d="M343.9,72.6v3.7h-0.8v-1.4h-3.5v-0.9h3.5v-1.4H343.9z"/>
				<path class="st6" d="M343.9,78.1v3.7h-0.8v-1.4h-3.5v-0.9h3.5v-1.4H343.9z"/>
				<path class="st6" d="M343.9,86.8h-0.8v-2h-0.9v1.8h-0.8v-1.9h-1v2h-0.8v-2.9h4.3L343.9,86.8z"/>
				<path class="st6" d="M340.8,92.7c-0.4,0.1-0.6,0.5-0.5,0.8c0,0.4,0.2,0.7,0.5,0.7s0.4-0.2,0.5-0.5l0.2-0.8
					c0.1-0.6,0.5-1.1,1.2-1.1c0.8,0,1.4,0.6,1.4,1.4c0,0,0,0.1,0,0.1c0.1,0.8-0.5,1.5-1.2,1.7v-0.9c0.3-0.1,0.5-0.4,0.5-0.8
					c0-0.4-0.2-0.7-0.5-0.7s-0.4,0.2-0.5,0.5l-0.2,0.8c-0.1,0.6-0.6,1.1-1.2,1.1c-0.8,0-1.3-0.7-1.3-1.6c-0.1-0.8,0.5-1.6,1.3-1.8
					L340.8,92.7z"/>
				<path class="st6" d="M343.9,97v3.7h-0.8v-1.3h-3.5v-0.9h3.5V97H343.9z"/>
				<path class="st6" d="M251.8,41h0.9v3.5h2v0.8h-2.9V41z"/>
				<path class="st6" d="M259.7,41v0.8h-2v0.9h1.9v0.8h-1.9v1h2v0.8h-2.9V41H259.7z"/>
				<path class="st6" d="M263.6,45.4c-1.2,0.1-2.3-0.8-2.4-2c-0.1-1.2,0.8-2.3,2-2.4c1.2-0.1,2.3,0.8,2.4,2c0,0.1,0,0.2,0,0.2
					c0.1,1.1-0.8,2.1-1.9,2.2C263.7,45.4,263.7,45.4,263.6,45.4z M263.6,41.7c-0.7,0-1.1,0.6-1.1,1.4s0.4,1.4,1.1,1.4
					s1.1-0.6,1.1-1.4S264.3,41.7,263.6,41.7z"/>
				<path class="st6" d="M271.3,45.3h-0.7l-2-2.9v2.9h-0.9V41h0.8l1.9,2.7V41h0.9L271.3,45.3z"/>
				<path class="st6" d="M275.7,41l1.6,4.3h-0.9l-0.4-1h-1.6l-0.4,1h-0.9l1.6-4.3H275.7z M274.7,43.5h1l-0.5-1.4L274.7,43.5z"/>
				<path class="st6" d="M280.2,43.7v1.6h-0.9V41h1.8c0.7-0.1,1.4,0.4,1.5,1.2c0,0.1,0,0.1,0,0.2c0,0.6-0.4,1.2-1,1.3l1.1,1.7h-1
					l-1.1-1.6H280.2z M280.2,43h0.8c0.5,0,0.7-0.2,0.7-0.6s-0.2-0.6-0.7-0.6h-0.8V43z"/>
				<path class="st6" d="M284.6,41h1.5c1.2,0,2.1,1,2.1,2.2c0,1.2-1,2.1-2.1,2.1h-1.5V41z M286.1,44.5c0.8,0,1.4-0.6,1.4-1.4
					s-0.6-1.4-1.4-1.4h-0.6v2.7H286.1z"/>
				<path class="st6" d="M293.8,44.1c0.1,0.4,0.5,0.6,0.9,0.5c0.4,0,0.7-0.2,0.7-0.5s-0.1-0.4-0.5-0.5l-0.8-0.2
					c-0.6-0.1-1.1-0.5-1.1-1.2c0-0.8,0.7-1.4,1.5-1.3c0,0,0.1,0,0.1,0c0.8-0.1,1.5,0.5,1.7,1.2h-0.9c-0.1-0.3-0.4-0.5-0.8-0.5
					c-0.4,0-0.7,0.2-0.7,0.5s0.2,0.4,0.5,0.5l0.8,0.2c0.7,0.2,1.1,0.6,1.1,1.2c0,0.8-0.7,1.3-1.6,1.3c-0.8,0.1-1.6-0.5-1.8-1.3
					H293.8z"/>
				<path class="st6" d="M298,41h3.7v0.8h-1.4v3.5h-0.9v-3.5H298V41z"/>
			</g>
		</g>
		<g>
			<defs>
				<rect id="SVGID_59_" x="219.7" y="58.6" width="112.8" height="25.3"/>
			</defs>
			<clipPath id="SVGID_60_">
				<use xlink:href="#SVGID_59_"  style="overflow:visible;"/>
			</clipPath>
			<g class="st37">
				<polygon class="st15" points="239.9,63.7 239.9,66.3 242.9,66.3 242.9,69.1 239.9,69.1 239.9,72.8 248.9,73 248.9,63.7 				"/>
				<g>
					<defs>
						<rect id="SVGID_61_" x="220.5" y="58.6" width="112" height="25.3"/>
					</defs>
					<clipPath id="SVGID_62_">
						<use xlink:href="#SVGID_61_"  style="overflow:visible;"/>
					</clipPath>
					<g class="st38">
						<g class="st13">
							<g>
								<defs>
									<rect id="SVGID_63_" x="239.9" y="62.3" width="4.8" height="1.4"/>
								</defs>
								<clipPath id="SVGID_64_">
									<use xlink:href="#SVGID_63_"  style="overflow:visible;"/>
								</clipPath>
								<g class="st39">
									<rect x="239.9" y="62.3" class="st15" width="4.8" height="1.4"/>
								</g>
							</g>
						</g>
						<g class="st13">
							<g>
								<defs>
									<rect id="SVGID_65_" x="248.9" y="63.7" width="2.3" height="6.1"/>
								</defs>
								<clipPath id="SVGID_66_">
									<use xlink:href="#SVGID_65_"  style="overflow:visible;"/>
								</clipPath>
								<g class="st40">
									<rect x="248.9" y="63.7" class="st15" width="2.3" height="6.1"/>
								</g>
							</g>
						</g>
					</g>
				</g>
				<polygon class="st41" points="317.1,62.1 317.1,63.7 322.5,63.8 322.5,69.4 325,69.4 325,67.8 329.4,67.9 329.4,72.8 
					326.3,72.8 324.9,72.8 324.9,72 322.4,72 322.5,77.3 276.1,74.7 276.1,78.6 271.5,78.3 271.5,74.3 239.5,72.8 239.5,75.1 
					223.4,74.4 223.6,61.5 239,61.6 239,62.2 				"/>
				<g>
					<defs>
						<rect id="SVGID_67_" x="220.5" y="58.6" width="112" height="25.3"/>
					</defs>
					<clipPath id="SVGID_68_">
						<use xlink:href="#SVGID_67_"  style="overflow:visible;"/>
					</clipPath>
					<g class="st42">
						<polygon class="st43" points="329.8,60.3 329.8,82.2 221.9,75.5 221.9,60.3 						"/>
					</g>
				</g>
			</g>
		</g>
	</g>
</g>
</svg>
