<?xml version="1.0" encoding="utf-8"?>
<!-- Generator: Adobe Illustrator 23.0.0, SVG Export Plug-In . SVG Version: 6.00 Build 0)  -->
<svg version="1.1" id="Layer_1" xmlns="http://www.w3.org/2000/svg" xmlns:xlink="http://www.w3.org/1999/xlink" x="0px" y="0px"
	 viewBox="0 0 200.6 198.9" style="enable-background:new 0 0 200.6 198.9;" xml:space="preserve">
<style type="text/css">
	.st0{enable-background:new    ;}
	.st1{fill:#D1D3D4;}
	.st2{fill:none;stroke:#231F20;stroke-width:0.14;stroke-miterlimit:10;}
	.st3{fill:#231F20;}
	.st4{clip-path:url(#SVGID_2_);}
	.st5{fill:none;stroke:#D1D3D4;stroke-width:1.09;stroke-miterlimit:10;}
	.st6{clip-path:url(#SVGID_4_);}
	.st7{fill:none;stroke:#231F20;stroke-width:0.15;stroke-miterlimit:10;}
	.st8{clip-path:url(#SVGID_6_);}
	.st9{clip-path:url(#SVGID_8_);}
	.st10{fill:none;stroke:#231F20;stroke-width:0.14;stroke-linejoin:bevel;}
	.st11{clip-path:url(#SVGID_10_);}
	.st12{clip-path:url(#SVGID_12_);}
	.st13{clip-path:url(#SVGID_14_);}
	.st14{clip-path:url(#SVGID_16_);}
	.st15{clip-path:url(#SVGID_18_);}
	.st16{fill:none;stroke:#FFFFFF;stroke-width:0.15;stroke-miterlimit:10;}
	.st17{clip-path:url(#SVGID_20_);}
	.st18{clip-path:url(#SVGID_22_);}
	.st19{clip-path:url(#SVGID_24_);}
	.st20{clip-path:url(#SVGID_26_);}
	.st21{clip-path:url(#SVGID_28_);}
	.st22{clip-path:url(#SVGID_30_);}
</style>
<title>residence_C_7-12_key</title>
<g>
	<g id="Layer_1_copy">
		<g>
			<g class="st0">
				<path class="st1" d="M34,143.2c-0.8,0-1.2-0.5-1.2-1.4V140h4.3v1.6c0,0.9-0.4,1.5-1.2,1.5c-0.5,0-0.8-0.3-0.9-0.6
					C34.9,142.9,34.5,143.2,34,143.2z M33.6,140.8v0.8c0,0.4,0.2,0.6,0.5,0.6c0.3,0,0.5-0.2,0.5-0.6v-0.8H33.6z M35.3,141.5
					c0,0.4,0.2,0.7,0.5,0.7c0.3,0,0.5-0.2,0.5-0.7v-0.7h-1V141.5z"/>
				<path class="st1" d="M34.4,145.7h-1.6v-0.9h4.3v1.8c0,0.9-0.5,1.5-1.4,1.5c-0.7,0-1.1-0.4-1.3-1l-1.7,1.1v-1l1.6-1.1V145.7z
					 M35.1,145.7v0.8c0,0.4,0.2,0.7,0.6,0.7c0.4,0,0.6-0.2,0.6-0.7v-0.8H35.1z"/>
			</g>
			<g class="st0">
				<path class="st1" d="M32.7,152.7c0-1.2,0.9-2,2.2-2c1.3,0,2.2,0.8,2.2,2c0,1.2-0.9,2-2.2,2C33.7,154.7,32.7,153.9,32.7,152.7z
					 M36.4,152.7c0-0.7-0.6-1.1-1.4-1.1c-0.8,0-1.4,0.4-1.4,1.1c0,0.7,0.6,1.1,1.4,1.1C35.8,153.8,36.4,153.4,36.4,152.7z"/>
			</g>
			<g class="st0">
				<path class="st1" d="M37.1,158.9l-4.3,1.6v-0.9l1-0.4v-1.6l-1-0.4v-0.9l4.3,1.6V158.9z M34.6,157.9v1.1l1.4-0.5L34.6,157.9z"/>
			</g>
			<g class="st0">
				<path class="st1" d="M37.1,162.6v1.5c0,1.3-0.8,2.1-2.2,2.1s-2.2-0.8-2.2-2.1v-1.5H37.1z M33.6,164.1c0,0.8,0.5,1.3,1.4,1.3
					c0.8,0,1.4-0.4,1.4-1.3v-0.6h-2.7V164.1z"/>
			</g>
			<g class="st0">
				<path class="st1" d="M37.1,171.1l-2.9,0.7l2.9,0.7v0.9l-4.3-1.1v-0.8l2.8-0.8l-2.8-0.8v-0.8l4.3-1.1v0.9l-2.9,0.7l2.9,0.8V171.1
					z"/>
			</g>
			<g class="st0">
				<path class="st1" d="M37.1,177.4l-4.3,1.6v-0.9l1-0.4v-1.6l-1-0.4v-0.9l4.3,1.6V177.4z M34.6,176.4v1.1l1.4-0.5L34.6,176.4z"/>
			</g>
			<g class="st0">
				<path class="st1" d="M37.1,183.3v0.9l-2.7-1.6h-1.6v-0.9h1.6l2.7-1.5v1l-1.8,1L37.1,183.3z"/>
			</g>
		</g>
		<g>
			<g class="st0">
				<path class="st1" d="M167.5,132.1v0.9H164v2h-0.8v-2.9H167.5z"/>
			</g>
			<g class="st0">
				<path class="st1" d="M167.5,139.4l-4.3,1.6v-0.9l1-0.4v-1.6l-1-0.4v-0.9l4.3,1.6V139.4z M165,138.4v1.1l1.4-0.5L165,138.4z"/>
			</g>
			<g class="st0">
				<path class="st1" d="M163.2,143.1h4.3v2.9h-0.8v-2h-1.1v1.8h-0.8V144h-1.6V143.1z"/>
			</g>
			<g class="st0">
				<path class="st1" d="M167.5,150.1l-4.3,1.6v-0.9l1-0.4v-1.6l-1-0.4v-0.9l4.3,1.6V150.1z M165,149.1v1.1l1.4-0.5L165,149.1z"/>
			</g>
			<g class="st0">
				<path class="st1" d="M167.5,156v0.9l-2.7-1.6h-1.6v-0.9h1.6l2.7-1.5v1l-1.8,1L167.5,156z"/>
				<path class="st1" d="M167.5,161.4h-0.8v-2h-0.9v1.8h-0.8v-1.8h-1v2h-0.8v-2.9h4.3V161.4z"/>
				<path class="st1" d="M167.5,162.8v3.7h-0.8v-1.4h-3.5v-0.9h3.5v-1.4H167.5z"/>
				<path class="st1" d="M167.5,167.8v3.7h-0.8v-1.4h-3.5v-0.9h3.5v-1.4H167.5z"/>
				<path class="st1" d="M167.5,176h-0.8v-2h-0.9v1.8h-0.8v-1.8h-1v2h-0.8V173h4.3V176z"/>
			</g>
			<g class="st0">
				<path class="st1" d="M164.5,184.1c-0.4,0.1-0.6,0.4-0.6,0.9c0,0.4,0.2,0.7,0.5,0.7c0.3,0,0.4-0.2,0.5-0.5l0.2-0.8
					c0.1-0.6,0.5-1.1,1.2-1.1c0.8,0,1.3,0.6,1.3,1.5c0,1-0.5,1.5-1.2,1.7v-0.9c0.3-0.1,0.5-0.3,0.5-0.8c0-0.4-0.2-0.7-0.5-0.7
					c-0.2,0-0.4,0.2-0.5,0.5l-0.2,0.8c-0.2,0.7-0.6,1.1-1.2,1.1c-0.8,0-1.3-0.7-1.3-1.6c0-1,0.5-1.6,1.3-1.8V184.1z"/>
			</g>
			<g class="st0">
				<path class="st1" d="M167.5,188.4v3.7h-0.8v-1.4h-3.5v-0.9h3.5v-1.4H167.5z"/>
			</g>
		</g>
		<g>
			<g class="st0">
				<path class="st1" d="M75.5,132.3h0.9v3.5h2v0.8h-2.9V132.3z"/>
				<path class="st1" d="M82.9,132.3v0.8h-2v0.9h1.8v0.8h-1.8v1h2v0.8H80v-4.3H82.9z"/>
			</g>
			<g class="st0">
				<path class="st1" d="M87.3,136.7c-1.2,0-2-0.9-2-2.2c0-1.3,0.8-2.2,2-2.2c1.2,0,2,0.9,2,2.2C89.3,135.8,88.5,136.7,87.3,136.7z
					 M87.3,133.1c-0.7,0-1.1,0.6-1.1,1.4c0,0.8,0.4,1.4,1.1,1.4c0.7,0,1.1-0.6,1.1-1.4C88.4,133.7,88,133.1,87.3,133.1z"/>
			</g>
			<g class="st0">
				<path class="st1" d="M94.9,136.7h-0.7l-2-2.9v2.9h-0.9v-4.3h0.8l1.9,2.7v-2.7h0.9V136.7z"/>
			</g>
			<g class="st0">
				<path class="st1" d="M99.4,132.3l1.6,4.3h-0.9l-0.4-1h-1.6l-0.4,1h-0.9l1.6-4.3H99.4z M98.4,134.9h1.1l-0.5-1.4L98.4,134.9z"/>
			</g>
			<g class="st0">
				<path class="st1" d="M103.8,135v1.6h-0.9v-4.3h1.8c0.9,0,1.5,0.5,1.5,1.4c0,0.7-0.4,1.1-1,1.3l1.1,1.7h-1l-1.1-1.6H103.8z
					 M103.8,134.3h0.8c0.4,0,0.7-0.2,0.7-0.6c0-0.4-0.2-0.6-0.7-0.6h-0.8V134.3z"/>
				<path class="st1" d="M107.9,132.3h1.5c1.3,0,2.1,0.8,2.1,2.2s-0.8,2.2-2.1,2.2h-1.5V132.3z M109.3,135.9c0.8,0,1.3-0.5,1.3-1.4
					c0-0.8-0.4-1.4-1.3-1.4h-0.6v2.7H109.3z"/>
			</g>
			<g class="st0">
				<path class="st1" d="M117.5,135.4c0.1,0.4,0.4,0.6,0.9,0.6c0.4,0,0.7-0.2,0.7-0.5c0-0.3-0.2-0.4-0.5-0.5l-0.8-0.2
					c-0.6-0.1-1.1-0.5-1.1-1.2c0-0.8,0.6-1.3,1.5-1.3c1,0,1.5,0.5,1.7,1.2H119c-0.1-0.3-0.3-0.5-0.8-0.5c-0.4,0-0.7,0.2-0.7,0.5
					c0,0.2,0.2,0.4,0.5,0.5l0.8,0.2c0.7,0.2,1.1,0.6,1.1,1.2c0,0.8-0.7,1.3-1.6,1.3c-1,0-1.6-0.5-1.8-1.3H117.5z"/>
			</g>
			<g class="st0">
				<path class="st1" d="M121.6,132.3h3.7v0.8h-1.4v3.5H123v-3.5h-1.4V132.3z"/>
			</g>
		</g>
		<g>
			<g class="st0">
				<path class="st1" d="M72.3,186c1,0,1.6,0.6,1.8,1.5h-0.9c-0.1-0.4-0.4-0.7-0.9-0.7c-0.7,0-1.1,0.6-1.1,1.4
					c0,0.8,0.4,1.4,1.1,1.4c0.5,0,0.8-0.3,0.9-0.7h0.9c-0.2,0.9-0.8,1.5-1.8,1.5c-1.1,0-2-0.9-2-2.2C70.3,186.9,71.2,186,72.3,186z"
					/>
			</g>
			<g class="st0">
				<path class="st1" d="M78.4,186l1.6,4.3h-0.9l-0.4-1h-1.6l-0.4,1h-0.9l1.6-4.3H78.4z M77.4,188.6h1.1l-0.5-1.4L77.4,188.6z"/>
			</g>
			<g class="st0">
				<path class="st1" d="M81.4,186h3.7v0.8h-1.4v3.5h-0.9v-3.5h-1.4V186z"/>
			</g>
			<g class="st0">
				<path class="st1" d="M90.9,186v4.3H90v-1.8h-1.9v1.8h-0.9V186h0.9v1.7H90V186H90.9z"/>
			</g>
			<g class="st0">
				<path class="st1" d="M96.2,186v0.8h-2v0.9H96v0.8h-1.8v1h2v0.8h-2.9V186H96.2z"/>
				<path class="st1" d="M98.8,188.7v1.6h-0.9V186h1.8c0.9,0,1.5,0.5,1.5,1.4c0,0.7-0.4,1.1-1,1.3l1.1,1.7h-1l-1.1-1.6H98.8z
					 M98.8,188h0.8c0.4,0,0.7-0.2,0.7-0.6c0-0.4-0.2-0.6-0.7-0.6h-0.8V188z"/>
			</g>
			<g class="st0">
				<path class="st1" d="M104.8,190.3h-0.9V186h0.9V190.3z"/>
			</g>
			<g class="st0">
				<path class="st1" d="M110.8,190.3h-0.7l-2-2.9v2.9h-0.9V186h0.8l1.9,2.7V186h0.9V190.3z"/>
				<path class="st1" d="M115.5,186v0.8h-2v0.9h1.8v0.8h-1.8v1h2v0.8h-2.9V186H115.5z"/>
				<path class="st1" d="M119.6,186h0.9v3.5h2v0.8h-2.9V186z"/>
			</g>
			<g class="st0">
				<path class="st1" d="M130,190.3h-0.7l-2-2.9v2.9h-0.9V186h0.8l1.9,2.7V186h0.9V190.3z"/>
			</g>
		</g>
	</g>
	<g>
		<polyline class="st2" points="125,7.7 126.2,8.3 126.5,8.1 127.3,7 		"/>
		<polygon class="st3" points="74.3,159.8 73.1,159.8 73.1,161.5 74.3,161.5 74.3,168.4 82.6,169 82.6,160.1 82.4,160.1 82.4,156.9 
			82.6,156.9 82.6,151.4 74.3,151.4 		"/>
		<g>
			<defs>
				<rect id="SVGID_1_" x="44.1" y="149.8" width="112" height="25.3"/>
			</defs>
			<clipPath id="SVGID_2_">
				<use xlink:href="#SVGID_1_"  style="overflow:visible;"/>
			</clipPath>
			<g class="st4">
				<polygon class="st5" points="153.4,151.5 153.4,173.4 45.4,166.7 45.5,151.5 				"/>
			</g>
		</g>
		<g>
			<defs>
				<rect id="SVGID_3_" x="5" y="5.4" width="187.5" height="104.3"/>
			</defs>
			<clipPath id="SVGID_4_">
				<use xlink:href="#SVGID_3_"  style="overflow:visible;"/>
			</clipPath>
			<g class="st6">
				<g class="st0">
					<path class="st1" d="M12.9,80.4l0.7,0.4l-2.5,1.6l1.5,0.9l-0.6,0.4l-2.1-1.3L12.9,80.4z"/>
					<path class="st1" d="M18.8,84.1l-0.6,0.4l-1.5-0.9L16.1,84l1.3,0.8l-0.5,0.4l-1.3-0.8l-0.7,0.5l1.5,0.9l-0.6,0.4l-2.1-1.3
						l3.1-2L18.8,84.1z"/>
					<path class="st1" d="M18.7,88c-0.9-0.5-0.8-1.3,0.1-1.9c0.9-0.6,2.2-0.6,3.1-0.1c0.9,0.5,0.8,1.4-0.1,1.9
						C20.9,88.5,19.6,88.5,18.7,88z M21.3,86.3c-0.5-0.3-1.2-0.2-1.8,0.1c-0.6,0.4-0.7,0.9-0.2,1.2c0.5,0.3,1.2,0.2,1.8-0.1
						C21.8,87.1,21.8,86.6,21.3,86.3z"/>
					<path class="st1" d="M24.5,91.6L24,91.2l0.6-2.2l-2.1,1.3l-0.6-0.4l3.1-2l0.6,0.4l-0.6,2.1l1.9-1.3l0.6,0.4L24.5,91.6z"/>
				</g>
				<g class="st0">
					<path class="st1" d="M31.1,91.7l-1.9,2.7L28.5,94l0.5-0.7l-1.2-0.7l-1,0.3l-0.6-0.4l4.3-1.2L31.1,91.7z M28.5,92.4l0.8,0.5
						l0.6-0.9L28.5,92.4z"/>
				</g>
				<g class="st0">
					<path class="st1" d="M32.5,95.1l-1.1,0.7l-0.6-0.4l3.1-2l1.3,0.8c0.7,0.4,0.7,0.9,0.1,1.3c-0.5,0.3-1.1,0.3-1.6,0.1L33.2,97
						l-0.7-0.5l0.4-1.2L32.5,95.1z M33.1,94.7l0.6,0.4c0.3,0.2,0.7,0.2,0.9,0c0.3-0.2,0.3-0.4-0.1-0.6l-0.6-0.4L33.1,94.7z"/>
				</g>
				<g class="st0">
					<path class="st1" d="M37.9,96l1.1,0.7c0.9,0.6,0.9,1.3,0,1.9c-0.9,0.6-2.1,0.6-3.1,0L34.8,98L37.9,96z M36.5,98.3
						c0.6,0.4,1.3,0.3,1.9-0.1c0.6-0.4,0.7-0.8,0.1-1.2L38,96.7L36,98L36.5,98.3z"/>
				</g>
				<g class="st0">
					<path class="st1" d="M42.8,101.8c-0.2,0.2-0.1,0.5,0.2,0.6c0.3,0.2,0.7,0.2,0.9,0.1c0.2-0.1,0.2-0.3,0-0.5l-0.4-0.4
						c-0.3-0.3-0.5-0.7,0.1-1c0.6-0.4,1.4-0.3,2.1,0.1c0.7,0.4,0.7,0.9,0.3,1.3l-0.6-0.4c0.1-0.2,0.1-0.4-0.2-0.6
						c-0.3-0.2-0.6-0.2-0.9-0.1c-0.2,0.1-0.2,0.3,0,0.4l0.4,0.4c0.4,0.4,0.4,0.8-0.1,1.1c-0.6,0.4-1.5,0.3-2.1-0.1
						c-0.7-0.4-0.8-1-0.4-1.4L42.8,101.8z"/>
				</g>
				<g class="st0">
					<path class="st1" d="M48.2,102.4l2.7,1.7l-0.6,0.4l-1-0.6l-2.5,1.6l-0.7-0.4l2.5-1.6l-1-0.6L48.2,102.4z"/>
				</g>
				<line class="st7" x1="74.8" y1="67.8" x2="74.8" y2="63.3"/>
				<line class="st7" x1="15.1" y1="32.1" x2="15.1" y2="28.4"/>
				<line class="st7" x1="27.6" y1="36.9" x2="27.6" y2="38.9"/>
				<line class="st7" x1="22.1" y1="33.8" x2="22.1" y2="35.8"/>
				<line class="st7" x1="29" y1="36.1" x2="29" y2="38.1"/>
				<line class="st2" x1="29" y1="38.1" x2="27.5" y2="39"/>
				<line class="st2" x1="29" y1="36.1" x2="27.6" y2="37"/>
				<line class="st2" x1="66.7" y1="53.8" x2="60.7" y2="57.3"/>
				<line class="st2" x1="71.3" y1="57.4" x2="66.2" y2="60.5"/>
				<line class="st7" x1="36.3" y1="40.2" x2="36.3" y2="42.3"/>
				<line class="st2" x1="41.3" y1="38.5" x2="65.6" y2="54.5"/>
				<line class="st2" x1="66.7" y1="53.8" x2="71.3" y2="56.8"/>
				<line class="st2" x1="41.3" y1="37.9" x2="66.1" y2="54.1"/>
				<line class="st2" x1="12.2" y1="30.9" x2="14.8" y2="32.3"/>
				<line class="st2" x1="22.1" y1="33.8" x2="27.6" y2="36.9"/>
				<line class="st2" x1="29" y1="36.1" x2="36.3" y2="40.3"/>
				<line class="st2" x1="29" y1="38.1" x2="36.3" y2="42.3"/>
				<line class="st2" x1="60.7" y1="57.3" x2="66.2" y2="60.5"/>
				<line class="st7" x1="74.8" y1="54.9" x2="74.8" y2="52.7"/>
				<polyline class="st7" points="65.7,64.6 64.8,64.1 63.7,64.7 16.6,37.5 16.6,35.3 				"/>
				<polyline class="st7" points="28.4,30.1 23.8,27.1 13.2,33.3 63.7,62.4 				"/>
				<line class="st7" x1="63.7" y1="62.4" x2="63.7" y2="64.7"/>
				<line class="st7" x1="64.8" y1="61.8" x2="63.7" y2="62.4"/>
				<polyline class="st7" points="64.8,64.1 64.8,61.8 60.7,59.4 				"/>
				<line class="st7" x1="74.9" y1="72" x2="74.9" y2="69.4"/>
				<polyline class="st7" points="80.4,62.4 83.5,64.4 83.5,66.9 74.9,72 65.7,66.7 65.7,64.1 69.4,62 				"/>
				<polyline class="st7" points="83.5,64.4 74.9,69.4 65.7,64.1 				"/>
				<polyline class="st2" points="14.1,33.8 14.1,35 16.6,36.5 				"/>
				<line class="st2" x1="22.1" y1="35.8" x2="27.6" y2="39"/>
				<line class="st2" x1="60.7" y1="59.4" x2="60.7" y2="57.3"/>
				<line class="st2" x1="66.2" y1="63.8" x2="66.2" y2="60.5"/>
				<polyline class="st2" points="78.4,53.8 74.8,55.9 71.3,53.9 				"/>
				<polyline class="st7" points="78.4,58.4 78.8,58.6 78.8,60.1 74.9,62.4 70.9,60.1 70.9,58.7 71.3,58.5 				"/>
				<line class="st7" x1="74.8" y1="62.4" x2="74.8" y2="55.9"/>
				<polyline class="st7" points="78.8,59 80.4,60 80.4,64.5 74.8,67.8 69.4,64.6 69.4,60.1 70.9,59.2 				"/>
				<polyline class="st7" points="80.4,60 74.8,63.3 69.4,60.2 				"/>
				<polyline class="st7" points="12.2,30.9 6.9,34 6.9,71.4 				"/>
				<polyline class="st7" points="18.1,27.4 21.9,25.2 29,29.8 				"/>
				<line class="st7" x1="74.8" y1="73.2" x2="74.8" y2="107"/>
				<line class="st7" x1="74.8" y1="107" x2="38.5" y2="86"/>
				<polyline class="st7" points="85.1,72.9 74.8,78.8 6.9,39.7 				"/>
				<polyline class="st7" points="85.1,75.7 74.8,81.7 6.9,42.5 				"/>
				<polyline class="st7" points="85.1,78.5 74.8,84.5 6.9,45.3 				"/>
				<polyline class="st7" points="85.1,81.3 74.8,87.3 6.9,48.1 				"/>
				<polyline class="st7" points="85.1,84.1 74.8,90.1 6.9,50.9 				"/>
				<polyline class="st7" points="85.1,86.9 74.8,92.9 6.9,53.7 				"/>
				<polyline class="st7" points="85.1,89.8 74.8,95.7 6.9,56.5 				"/>
				<polyline class="st7" points="85.1,92.6 74.8,98.5 6.9,59.4 				"/>
				<line class="st7" x1="85.1" y1="95.4" x2="82.7" y2="96.8"/>
				<polyline class="st7" points="77.2,100 74.8,101.4 6.9,62.2 				"/>
				<line class="st7" x1="82.7" y1="99.6" x2="85.1" y2="98.2"/>
				<polyline class="st7" points="77.2,102.8 74.8,104.2 6.9,65 				"/>
				<polyline class="st7" points="85.1,70.1 74.8,76 6.9,36.8 				"/>
				<line class="st7" x1="35.7" y1="84.4" x2="6.9" y2="67.8"/>
				<polyline class="st2" points="13.8,25.8 12.2,26.7 12.2,30.9 				"/>
				<polyline class="st2" points="16.7,25.8 18.1,26.7 18.1,30.3 				"/>
				<polyline class="st2" points="12.2,26.7 15.1,28.4 18.1,26.7 				"/>
				<polyline class="st7" points="76.1,51 76.8,51.5 76.8,53.7 74.8,54.9 72.8,53.7 72.8,51.5 73.8,50.9 				"/>
				<polyline class="st2" points="76.8,51.5 74.8,52.7 72.8,51.5 				"/>
				<g>
					<defs>
						<rect id="SVGID_5_" x="5.2" y="10.1" width="86.7" height="98.9"/>
					</defs>
					<clipPath id="SVGID_6_">
						<use xlink:href="#SVGID_5_"  style="overflow:visible;"/>
					</clipPath>
					<g class="st8">
						<path class="st7" d="M73,49.2c0,0.1-0.2,0.2-0.2,0.3l0.1,0.3c0.1,0.2,0.6,0.3,1.3,0.1s2.3-1,2.5-1.9l-0.3-0.5
							c-0.2,0-0.3,0-0.5,0"/>
					</g>
				</g>
				<polyline class="st7" points="73.7,46.1 74.7,46.6 75.1,46.5 75.8,45.4 				"/>
				<g>
					<defs>
						<rect id="SVGID_7_" x="5.2" y="10.1" width="86.7" height="98.9"/>
					</defs>
					<clipPath id="SVGID_8_">
						<use xlink:href="#SVGID_7_"  style="overflow:visible;"/>
					</clipPath>
					<g class="st9">
						<path class="st7" d="M76.5,48.5c0.1,0.2,0.1,0.5,0,0.8c-0.2,1-1.1,1.6-2.1,1.4c-0.4-0.1-0.7-0.2-0.9-0.5L73.4,50"/>
						<path class="st7" d="M73.1,49.6C73,49.4,73,49.3,73,49.1c-0.1-1,0.5-1.9,1.5-2c0.6-0.1,1.2,0.1,1.6,0.5
							c0.1,0.1,0.2,0.3,0.3,0.4"/>
						<path class="st7" d="M74.1,57.2c0.3,0.8,0.1,1.5-0.5,1.5s-1.3-0.7-1.6-1.5s-0.1-1.5,0.5-1.5S73.8,56.4,74.1,57.2z"/>
						<path class="st7" d="M75.6,57.3c-0.3,0.9-0.1,1.5,0.5,1.5s1.3-0.7,1.6-1.5s0.1-1.5-0.5-1.5S75.9,56.4,75.6,57.3z"/>
						<path class="st10" d="M76.1,51.1c0-0.1,0-0.1,0-0.2c0,0-0.1-0.1-0.1-0.1c-0.1,0-0.2,0-0.3,0.1v-0.2l0.1-0.4"/>
						<path class="st2" d="M75.2,51.1c0,0.1,0.1,0.2,0.1,0.2s0.2,0.1,0.3,0"/>
					</g>
				</g>
				<polyline class="st2" points="74.2,51.8 74.2,51.6 74.5,51.3 74.4,51.1 74,51 73.6,50.8 73.8,50.4 				"/>
				<polyline class="st7" points="72.8,53 71.3,53.9 71.3,58.7 74.9,60.7 78.4,58.6 78.4,53.8 76.8,52.9 				"/>
				<g>
					<defs>
						<rect id="SVGID_9_" x="5.2" y="10.1" width="86.7" height="98.9"/>
					</defs>
					<clipPath id="SVGID_10_">
						<use xlink:href="#SVGID_9_"  style="overflow:visible;"/>
					</clipPath>
					<g class="st11">
						<path class="st2" d="M15,24.2c-0.7,0.1-1.2,0.8-1.2,1.5v1.1c0,0.4,0.7,0.8,1.5,0.8c0.8,0,1.5-0.3,1.5-0.8v-1.1
							c0-0.7-0.5-1.4-1.2-1.5V24c0-0.1-0.1-0.2-0.2-0.2S15,24,15,24V24.2z"/>
					</g>
				</g>
				<polyline class="st7" points="85.1,67.2 74.8,73.2 6.9,34 				"/>
				<polyline class="st7" points="38.5,86.5 36.5,85.4 34.8,86.4 37.2,87.9 38.5,87.1 				"/>
				<line class="st7" x1="38.5" y1="86.5" x2="36.5" y2="85.4"/>
				<line class="st7" x1="38.5" y1="88.2" x2="37.6" y2="87.7"/>
				<g>
					<defs>
						<rect id="SVGID_11_" x="5.2" y="10.1" width="86.7" height="98.9"/>
					</defs>
					<clipPath id="SVGID_12_">
						<use xlink:href="#SVGID_11_"  style="overflow:visible;"/>
					</clipPath>
					<g class="st12">
						<path class="st7" d="M37,83.2c-0.2,0.2-0.4,0.5-0.4,0.8v1.5"/>
					</g>
				</g>
				<polyline class="st7" points="36.2,87.2 35.7,87.5 6.9,71.4 				"/>
				<line class="st7" x1="35.7" y1="87.5" x2="35.7" y2="86.9"/>
				<g>
					<defs>
						<rect id="SVGID_13_" x="5.2" y="10.1" width="86.7" height="98.9"/>
					</defs>
					<clipPath id="SVGID_14_">
						<use xlink:href="#SVGID_13_"  style="overflow:visible;"/>
					</clipPath>
					<g class="st13">
						<path class="st7" d="M82.7,102.4V97l-5.4,3v5.6l-2.4,1.4l-18.3-8.6L41.9,91l-3.4-1.9v-3.8c-0.1-0.9-0.6-1.7-1.4-2.1
							c-0.4-0.3-1-0.2-1.3,0.3c-0.1,0.2-0.2,0.4-0.2,0.6v1.9"/>
					</g>
				</g>
				<polyline class="st7" points="78.8,102.8 78.8,101.4 77.9,101.9 77.9,103.3 				"/>
				<g>
					<defs>
						<rect id="SVGID_15_" x="5.2" y="10.1" width="86.7" height="98.9"/>
					</defs>
					<clipPath id="SVGID_16_">
						<use xlink:href="#SVGID_15_"  style="overflow:visible;"/>
					</clipPath>
					<g class="st14">
						<path class="st7" d="M83.5,66.2l1.6,1V101l-2.4,1.4c-1.2-0.3-2.5-0.3-3.6,0.3l-1.3,0.7c-0.2,0.1-0.4,0.2-0.6,0.4"/>
					</g>
				</g>
				<polyline class="st2" points="36.3,42.3 41.3,39.3 41.3,37.3 29.4,29.5 22.1,33.8 				"/>
				<line class="st2" x1="41.3" y1="37.3" x2="36.3" y2="40.3"/>
				<g>
					<defs>
						<rect id="SVGID_17_" x="5.2" y="10.1" width="86.7" height="98.9"/>
					</defs>
					<clipPath id="SVGID_18_">
						<use xlink:href="#SVGID_17_"  style="overflow:visible;"/>
					</clipPath>
					<g class="st15">
						<g class="st0">
							<path class="st1" d="M197.9,73.7c0.7,0.5,0.7,1.1,0.2,1.5l-0.6-0.4c0.2-0.2,0.2-0.5-0.1-0.7c-0.5-0.3-1.2-0.3-1.8,0.1
								c-0.6,0.3-0.8,0.8-0.3,1.1c0.3,0.2,0.7,0.3,1.1,0.2l0.6,0.4c-0.8,0.3-1.6,0.2-2.3-0.3c-0.8-0.6-0.7-1.4,0.2-1.9
								S197.1,73.1,197.9,73.7z"/>
						</g>
						<g class="st0">
							<path class="st1" d="M202.2,76.7l-2,2.6l-0.6-0.4l0.5-0.6l-1.1-0.8l-1,0.3l-0.6-0.4l4.3-1L202.2,76.7z M199.6,77.3l0.7,0.5
								l0.7-0.9L199.6,77.3z"/>
						</g>
						<g class="st0">
							<path class="st1" d="M204.4,78.2l2.6,1.8l-0.6,0.3l-1-0.7l-2.6,1.5l-0.6-0.4l2.6-1.5l-1-0.7L204.4,78.2z"/>
							<path class="st1" d="M211.1,82.9l-3.2,1.8l-0.6-0.4l1.3-0.8l-1.4-0.9l-1.3,0.8l-0.6-0.4l3.2-1.8l0.6,0.4l-1.3,0.7l1.4,0.9
								l1.3-0.7L211.1,82.9z"/>
						</g>
						<g class="st0">
							<path class="st1" d="M214.9,85.6l-0.6,0.3l-1.4-1l-0.7,0.4l1.3,0.9l-0.6,0.3l-1.3-0.9l-0.8,0.4l1.4,1l-0.6,0.3l-2-1.4
								l3.2-1.8L214.9,85.6z"/>
							<path class="st1" d="M215.2,88.3L214,89l-0.6-0.4l3.2-1.8l1.2,0.9c0.6,0.4,0.7,0.9,0,1.3c-0.5,0.3-1.1,0.3-1.6,0.1l-0.4,1.3
								l-0.7-0.5l0.4-1.2L215.2,88.3z M215.8,88l0.6,0.4c0.3,0.2,0.7,0.2,0.9,0.1c0.3-0.2,0.3-0.4,0-0.6l-0.6-0.4L215.8,88z"/>
							<path class="st1" d="M218,91.7l-0.6-0.4l3.2-1.8l0.6,0.4L218,91.7z"/>
							<path class="st1" d="M222.2,94.7l-0.5-0.3l0.7-2.2l-2.1,1.2l-0.6-0.4l3.2-1.8l0.6,0.4l-0.7,2.1l2-1.2l0.6,0.4L222.2,94.7z"/>
							<path class="st1" d="M229.2,95.5l-0.6,0.3l-1.4-1l-0.7,0.4l1.3,0.9l-0.6,0.3l-1.3-0.9l-0.8,0.4l1.4,1l-0.6,0.3l-2-1.4
								l3.2-1.8L229.2,95.5z"/>
							<path class="st1" d="M233.1,98.2l0.6,0.4l-2.6,1.5l1.4,1l-0.6,0.3l-2-1.4L233.1,98.2z"/>
						</g>
						<g class="st0">
							<path class="st1" d="M236.1,104.3l-0.5-0.3l0.7-2.2l-2.1,1.2l-0.6-0.4l3.2-1.8l0.6,0.4l-0.7,2.1l2-1.2l0.6,0.4L236.1,104.3z"
								/>
						</g>
						<path class="st2" d="M263,100.6v-1.2c0-0.3-0.2-0.7-0.8-0.3c-0.4,0.2-0.7,0.6-0.7,1.1v1.3l-6.7,3.9l-8.9-6.1l-11.2-7.6
							l-9.4-6.4l-13.9-9.5l-19.9-14.3V27.4l1.4-0.8"/>
						<path class="st2" d="M200.3,17.4c0.3,0.9,0.1,1.5-0.5,1.5s-1.3-0.7-1.6-1.5s-0.1-1.5,0.5-1.5S200,16.6,200.3,17.4z"/>
						<path class="st2" d="M199.1,9.4c-0.1,0.1-0.1,0.2-0.2,0.3l0.1,0.3c0.1,0.2,0.6,0.3,1.3,0.1s2.3-1.1,2.5-1.9l-0.3-0.5
							c-0.2,0-0.3,0-0.5,0"/>
						<path class="st2" d="M202.7,8.7c0.2,1-0.4,1.9-1.3,2.1c-0.3,0.1-0.5,0.1-0.8,0c-0.4-0.1-0.7-0.2-0.9-0.5h-0.1"/>
						<path class="st2" d="M199.3,9.8c-0.1-0.1-0.1-0.3-0.1-0.4c-0.1-1,0.5-1.9,1.5-2c0.6-0.1,1.2,0.1,1.6,0.5
							c0.1,0.1,0.2,0.3,0.3,0.4"/>
					</g>
				</g>
				<polygon class="st3" points="50.4,62 50.4,78.8 56.4,82.3 56.4,65.4 				"/>
				<line class="st16" x1="50.4" y1="64.8" x2="56.4" y2="68.2"/>
				<line class="st16" x1="50.4" y1="67.6" x2="56.4" y2="71"/>
				<line class="st16" x1="50.4" y1="70.4" x2="56.4" y2="73.8"/>
				<line class="st16" x1="50.4" y1="73.2" x2="56.4" y2="76.7"/>
				<line class="st16" x1="50.4" y1="76" x2="56.4" y2="79.4"/>
				<g>
					<defs>
						<rect id="SVGID_19_" x="105.7" y="5.4" width="86.7" height="104.3"/>
					</defs>
					<clipPath id="SVGID_20_">
						<use xlink:href="#SVGID_19_"  style="overflow:visible;"/>
					</clipPath>
					<g class="st17">
						<path class="st7" d="M3.6,103.1v-5.4l-5.4,3v5.6l-2.4,1.4L-22.5,99l-14.7-7.3l-3.4-1.9V86c-0.1-0.9-0.7-1.7-1.4-2.1
							c-0.4-0.3-1-0.2-1.3,0.3c-0.1,0.2-0.2,0.4-0.2,0.6v1.9"/>
						<path class="st7" d="M4.4,66.9L6,68v33.7l-2.4,1.4c-1.2-0.4-2.5-0.3-3.7,0.3l-1.2,0.7c-0.2,0.1-0.4,0.2-0.5,0.4"/>
					</g>
				</g>
				<polyline class="st7" points="190.7,66.7 175.7,75.2 112.5,33.8 				"/>
				<polyline class="st7" points="190.7,69.5 175.7,78 112.5,36.6 				"/>
				<polyline class="st7" points="190.7,72.3 175.7,80.8 112.5,39.4 				"/>
				<polyline class="st7" points="190.7,75.2 175.7,83.6 112.5,42.3 				"/>
				<polyline class="st7" points="190.7,78 175.7,86.5 112.5,45.1 				"/>
				<polyline class="st7" points="190.7,80.8 175.7,89.3 112.5,47.9 				"/>
				<polyline class="st7" points="190.7,83.7 175.7,92.1 112.5,50.7 				"/>
				<polyline class="st7" points="190.7,86.5 175.7,94.9 112.5,53.6 				"/>
				<polyline class="st7" points="190.7,89.3 175.7,97.8 112.5,56.4 				"/>
				<polyline class="st7" points="190.7,92.1 175.7,100.6 112.5,59.2 				"/>
				<polyline class="st7" points="190.7,95 175.7,103.4 112.5,62 				"/>
				<line class="st7" x1="190.7" y1="95" x2="175.7" y2="103.4"/>
				<g class="st0">
					<path class="st1" d="M118.8,74.4c0.7,0.5,0.7,1.1,0.2,1.5l-0.6-0.4c0.2-0.2,0.2-0.5-0.1-0.7c-0.5-0.3-1.2-0.3-1.8,0.1
						c-0.6,0.3-0.8,0.8-0.3,1.1c0.3,0.2,0.7,0.3,1.1,0.2l0.6,0.4c-0.8,0.3-1.6,0.2-2.3-0.3c-0.8-0.6-0.7-1.4,0.2-1.9
						C116.7,73.8,118,73.8,118.8,74.4z"/>
				</g>
				<g class="st0">
					<path class="st1" d="M123.1,77.4l-2,2.6l-0.6-0.4l0.5-0.6l-1.1-0.8l-1,0.3l-0.6-0.4l4.3-1L123.1,77.4z M120.5,78l0.7,0.5
						l0.7-0.9L120.5,78z"/>
				</g>
				<g class="st0">
					<path class="st1" d="M125.3,78.9l2.6,1.8l-0.6,0.3l-1-0.7l-2.6,1.5l-0.6-0.4l2.6-1.5l-1-0.7L125.3,78.9z"/>
					<path class="st1" d="M132.1,83.6l-3.2,1.8l-0.6-0.4l1.3-0.8l-1.4-0.9l-1.3,0.8l-0.6-0.4l3.2-1.8l0.6,0.4l-1.3,0.7l1.4,0.9
						l1.3-0.7L132.1,83.6z"/>
				</g>
				<g class="st0">
					<path class="st1" d="M135.8,86.3l-0.6,0.3l-1.4-1l-0.7,0.4l1.3,0.9l-0.6,0.3l-1.3-0.9l-0.8,0.4l1.4,1l-0.6,0.3l-2-1.4l3.2-1.8
						L135.8,86.3z"/>
					<path class="st1" d="M136.1,89l-1.2,0.7l-0.6-0.4l3.2-1.8l1.2,0.9c0.6,0.4,0.7,0.9,0,1.3c-0.5,0.3-1.1,0.3-1.6,0.1l-0.4,1.3
						l-0.7-0.5l0.4-1.2L136.1,89z M136.7,88.7l0.6,0.4c0.3,0.2,0.7,0.2,0.9,0.1c0.3-0.2,0.3-0.4,0-0.6l-0.6-0.4L136.7,88.7z"/>
				</g>
				<g class="st0">
					<path class="st1" d="M138.9,92.4l-0.6-0.4l3.2-1.8l0.6,0.4L138.9,92.4z"/>
					<path class="st1" d="M143.1,95.4l-0.5-0.3l0.7-2.2l-2.1,1.2l-0.6-0.4l3.2-1.8l0.6,0.4l-0.7,2.1l2-1.2l0.6,0.4L143.1,95.4z"/>
				</g>
				<g class="st0">
					<path class="st1" d="M150.1,96.2l-0.6,0.3l-1.4-1l-0.7,0.4l1.3,0.9l-0.6,0.3l-1.3-0.9l-0.8,0.4l1.4,1l-0.6,0.3l-2-1.4l3.2-1.8
						L150.1,96.2z"/>
					<path class="st1" d="M154,98.9l0.6,0.4l-2.6,1.5l1.4,1l-0.6,0.3l-2-1.4L154,98.9z"/>
				</g>
				<g class="st0">
					<path class="st1" d="M157,105l-0.5-0.3l0.7-2.2l-2.1,1.2l-0.6-0.4l3.2-1.8l0.6,0.4l-0.7,2.1l2-1.2l0.6,0.4L157,105z"/>
				</g>
				<polyline class="st2" points="190.7,63.9 175.7,72.3 112.5,31 				"/>
				<line class="st2" x1="175.7" y1="69.5" x2="175.7" y2="106.2"/>
				<line class="st2" x1="183.4" y1="100.9" x2="182.4" y2="101.5"/>
				<polyline class="st2" points="183.4,100.9 183.9,101.3 190.7,97.4 190.7,61 				"/>
				<polyline class="st2" points="190.7,61 175.7,69.5 112.5,28.1 				"/>
				<g>
					<defs>
						<rect id="SVGID_21_" x="105.7" y="5.4" width="86.7" height="104.3"/>
					</defs>
					<clipPath id="SVGID_22_">
						<use xlink:href="#SVGID_21_"  style="overflow:visible;"/>
					</clipPath>
					<g class="st18">
						<path class="st2" d="M183.4,101v-0.8c0-0.1-0.1-0.3-0.2-0.4"/>
						<path class="st2" d="M184,101.3v-1.2c0-0.3-0.2-0.7-0.8-0.3c-0.4,0.2-0.7,0.6-0.7,1.1v1.3l-6.7,3.9l-8.9-6.1l-11.2-7.6
							l-9.4-6.4l-13.9-9.5l-19.8-14.3V28.1l1.4-0.8"/>
					</g>
				</g>
				<line class="st2" x1="178.1" y1="62.5" x2="178.1" y2="61"/>
				<line class="st2" x1="121.5" y1="30.7" x2="121.5" y2="33.3"/>
				<line class="st2" x1="178.1" y1="62.5" x2="178.9" y2="63"/>
				<line class="st2" x1="178.1" y1="61" x2="178.9" y2="61.5"/>
				<line class="st2" x1="121.9" y1="15.7" x2="121.9" y2="13.7"/>
				<line class="st2" x1="121.9" y1="15.8" x2="121.9" y2="13.6"/>
				<line class="st2" x1="121.6" y1="28.8" x2="121.6" y2="24.3"/>
				<polyline class="st2" points="123.1,32.4 121.5,33.3 113.8,28.2 113.8,25.7 116.5,24.1 				"/>
				<polyline class="st2" points="121.9,21.6 125.6,19.5 125.6,14.8 125.6,14.7 123.9,13.7 				"/>
				<g>
					<defs>
						<rect id="SVGID_23_" x="105.7" y="5.4" width="86.7" height="104.3"/>
					</defs>
					<clipPath id="SVGID_24_">
						<use xlink:href="#SVGID_23_"  style="overflow:visible;"/>
					</clipPath>
					<g class="st19">
						<path class="st2" d="M121.2,18.1c0.3,0.9,0.1,1.5-0.5,1.5s-1.3-0.7-1.6-1.5s-0.1-1.5,0.5-1.5S120.9,17.3,121.2,18.1z"/>
						<path class="st2" d="M122.7,18.1c-0.3,0.9-0.1,1.5,0.5,1.5s1.3-0.7,1.6-1.5s0.1-1.5-0.5-1.5S123,17.3,122.7,18.1z"/>
					</g>
				</g>
				<line class="st2" x1="121.6" y1="24.4" x2="127.5" y2="21"/>
				<line class="st2" x1="116.5" y1="21" x2="121.6" y2="24.4"/>
				<line class="st2" x1="113.8" y1="25.7" x2="121.5" y2="30.7"/>
				<polyline class="st2" points="125.6,19.3 125.9,19.5 125.9,21 125.9,21.1 121.9,23.4 121.9,23.3 121.9,17 				"/>
				<polyline class="st2" points="118,20.1 116.5,21 116.5,25.4 116.5,25.5 121.6,28.8 				"/>
				<polyline class="st2" points="127.6,23.3 130.7,25.3 130.7,27 				"/>
				<line class="st2" x1="121.8" y1="17" x2="125.6" y2="14.8"/>
				<line class="st2" x1="118.4" y1="14.8" x2="119.9" y2="13.9"/>
				<line class="st2" x1="118.4" y1="14.7" x2="121.9" y2="17.1"/>
				<polyline class="st2" points="125.9,19.9 127.5,21 127.6,21 127.6,25.3 127.5,25.4 121.5,28.8 				"/>
				<line class="st2" x1="119.9" y1="12.4" x2="121.9" y2="13.7"/>
				<line class="st2" x1="123" y1="11.8" x2="124" y2="12.5"/>
				<g>
					<defs>
						<rect id="SVGID_25_" x="105.7" y="5.4" width="86.7" height="104.3"/>
					</defs>
					<clipPath id="SVGID_26_">
						<use xlink:href="#SVGID_25_"  style="overflow:visible;"/>
					</clipPath>
					<g class="st20">
						<path class="st2" d="M120.1,10.1c0,0.1-0.2,0.2-0.2,0.3l0.1,0.3c0.1,0.2,0.6,0.3,1.3,0.1s2.3-1.1,2.5-1.9l-0.3-0.5
							c-0.2,0-0.3,0-0.5,0"/>
					</g>
				</g>
				<polyline class="st2" points="120.8,7 121.8,7.5 122.2,7.4 122.9,6.3 				"/>
				<g>
					<defs>
						<rect id="SVGID_27_" x="105.7" y="5.4" width="86.7" height="104.3"/>
					</defs>
					<clipPath id="SVGID_28_">
						<use xlink:href="#SVGID_27_"  style="overflow:visible;"/>
					</clipPath>
					<g class="st21">
						<path class="st2" d="M123.6,9.4c0.1,0.2,0.1,0.5,0,0.8c-0.2,1-1.1,1.6-2.1,1.4c-0.4-0.1-0.7-0.2-0.9-0.5l-0.1-0.1"/>
						<path class="st2" d="M120.2,10.4c-0.1-0.1-0.1-0.3-0.1-0.4c-0.1-1,0.5-1.9,1.5-2c0.6-0.1,1.2,0.1,1.6,0.5
							c0.1,0.1,0.2,0.3,0.3,0.4"/>
						<path class="st2" d="M123.2,12c0-0.1,0-0.1,0-0.2c0,0-0.1-0.1-0.1-0.1c-0.1,0-0.2,0-0.3,0.1c0,0,0-0.1,0-0.1v-0.1l0.1-0.4"/>
						<path class="st2" d="M122.3,12c0,0.1,0.1,0.1,0.1,0.2s0.2,0.1,0.3,0"/>
					</g>
				</g>
				<polyline class="st2" points="121.4,12.7 121.4,12.5 121.6,12.1 121.6,12 121.1,11.9 120.8,11.7 120.9,11.3 				"/>
				<line class="st2" x1="118.4" y1="19.4" x2="121.9" y2="21.6"/>
				<polyline class="st2" points="121.9,23.5 118.1,21 118,21 118,19.6 118,19.6 118.4,19.4 118.4,19.4 118.4,14.7 				"/>
				<polyline class="st2" points="121,11.7 119.9,12.4 119.9,12.5 119.9,14.5 121.9,15.8 121.9,15.8 123.9,14.6 123.9,12.6 
					123.9,12.5 121.9,13.7 				"/>
				<line class="st2" x1="155.7" y1="49.4" x2="168.3" y2="57.4"/>
				<polyline class="st2" points="184.5,59.8 181.7,61.4 178.9,59.7 				"/>
				<line class="st2" x1="181.7" y1="65.5" x2="181.7" y2="61.4"/>
				<polyline class="st2" points="178.9,60.5 173.2,63.9 123.1,32.1 				"/>
				<line class="st7" x1="190.7" y1="61" x2="130.7" y2="26.4"/>
				<line class="st7" x1="170.1" y1="49.8" x2="134.5" y2="29.3"/>
				<line class="st2" x1="173.2" y1="65.4" x2="173.2" y2="63.9"/>
				<line class="st2" x1="168.3" y1="59.1" x2="168.3" y2="57.4"/>
				<polygon class="st2" points="175.8,53 175.8,54.7 168.3,59.1 155.7,51.2 155.7,49.4 161.3,46.2 168.7,50.6 170.2,49.7 				"/>
				<line class="st2" x1="175.8" y1="53" x2="168.3" y2="57.4"/>
				<line class="st2" x1="134.5" y1="29.2" x2="129.1" y2="32.4"/>
				<polygon class="st2" points="124.5,31.2 124.5,29.5 124.5,29.4 129.7,26.4 134.5,29.2 134.5,30.7 134.5,30.8 129.1,34.1 				"/>
				<polyline class="st2" points="178.1,62.5 173.2,65.4 123.1,33.6 123.1,33.6 123.1,32.1 124.5,31.2 				"/>
				<line class="st2" x1="129.1" y1="32.3" x2="124.5" y2="29.5"/>
				<line class="st2" x1="129.1" y1="34" x2="129.1" y2="32.3"/>
				<polyline class="st2" points="183.4,59.1 183.9,58.9 183.9,57.8 175.8,53.1 				"/>
				<line class="st2" x1="183.9" y1="57.7" x2="183.2" y2="58.1"/>
				<line class="st2" x1="130.7" y1="25.4" x2="121.5" y2="30.7"/>
				<polyline class="st2" points="180.5,58.8 178.9,59.7 178.9,63.7 181.7,65.5 184.5,63.8 184.5,59.8 183.4,59 				"/>
				<g>
					<defs>
						<rect id="SVGID_29_" x="105.7" y="5.4" width="86.7" height="104.3"/>
					</defs>
					<clipPath id="SVGID_30_">
						<use xlink:href="#SVGID_29_"  style="overflow:visible;"/>
					</clipPath>
					<g class="st22">
						<path class="st2" d="M181.7,57.3c-0.7,0.1-1.2,0.8-1.2,1.5v1.1c0,0.4,0.7,0.8,1.5,0.8s1.5-0.3,1.5-0.8v-1.1
							c0-0.7-0.5-1.4-1.2-1.5v-0.2c0-0.1-0.1-0.2-0.2-0.2s-0.2,0.1-0.2,0.2V57.3z"/>
					</g>
				</g>
				<polygon class="st3" points="134.4,45.3 134.4,62.2 140.4,66.2 140.4,49.3 				"/>
				<line class="st16" x1="140.4" y1="52.1" x2="134.4" y2="48.1"/>
				<line class="st16" x1="140.4" y1="54.9" x2="134.4" y2="51"/>
				<line class="st16" x1="140.4" y1="57.7" x2="134.4" y2="53.8"/>
				<line class="st16" x1="140.4" y1="60.6" x2="134.4" y2="56.6"/>
				<line class="st16" x1="140.4" y1="63.4" x2="134.5" y2="59.5"/>
			</g>
		</g>
	</g>
</g>
</svg>
