<?xml version="1.0" encoding="utf-8"?>
<!-- Generator: Adobe Illustrator 23.0.0, SVG Export Plug-In . SVG Version: 6.00 Build 0)  -->
<svg version="1.1" id="Layer_1" xmlns="http://www.w3.org/2000/svg" xmlns:xlink="http://www.w3.org/1999/xlink" x="0px" y="0px"
	 viewBox="0 0 189.9 92.6" style="enable-background:new 0 0 189.9 92.6;" xml:space="preserve">
<style type="text/css">
	.st0{fill:#D2D3D4;}
	.st1{clip-path:url(#SVGID_2_);}
	.st2{clip-path:url(#SVGID_4_);}
	.st3{fill:none;stroke:#D1D3D4;stroke-width:1.09;stroke-miterlimit:10;}
	.st4{clip-path:url(#SVGID_6_);}
	.st5{fill:#231F20;}
	.st6{clip-path:url(#SVGID_8_);}
	.st7{clip-path:url(#SVGID_10_);}
	.st8{fill:none;stroke:#231F20;stroke-width:0.15;stroke-miterlimit:10;}
	.st9{enable-background:new    ;}
	.st10{fill:#D1D3D4;}
	.st11{fill:none;stroke:#231F20;stroke-width:0.14;stroke-miterlimit:10;}
	.st12{clip-path:url(#SVGID_12_);}
	.st13{clip-path:url(#SVGID_14_);}
	.st14{clip-path:url(#SVGID_16_);}
	.st15{clip-path:url(#SVGID_18_);}
	.st16{clip-path:url(#SVGID_20_);}
</style>
<title>residence_R_6_key_horizontal</title>
<g>
	<path class="st0" d="M83.6,43.8c-0.6,0-1-0.4-1-1.1v-1.4H86v1.3c0,0.7-0.3,1.1-0.9,1.1c-0.3,0-0.6-0.2-0.7-0.4
		C84.2,43.6,83.9,43.8,83.6,43.8z M83.2,41.9v0.7c0,0.3,0.2,0.5,0.4,0.5s0.4-0.2,0.4-0.5v-0.7H83.2z M84.6,42.5
		c0,0.3,0.1,0.5,0.4,0.5s0.4-0.2,0.4-0.5v-0.6h-0.8V42.5z"/>
	<path class="st0" d="M83.8,46.2h-1.3v-0.7H86v1.4c0.1,0.5-0.3,1.1-0.8,1.2c-0.1,0-0.2,0-0.3,0c-0.5,0-0.9-0.3-1-0.8l-1.3,0.9v-0.8
		l1.3-0.8L83.8,46.2z M84.4,46.2v0.6c0,0.4,0.2,0.5,0.5,0.5s0.5-0.2,0.5-0.5v-0.6H84.4z"/>
	<path class="st0" d="M82.5,51.2c-0.1-1,0.6-1.8,1.6-1.9c1-0.1,1.8,0.6,1.9,1.6s-0.6,1.8-1.6,1.9c-0.1,0-0.1,0-0.2,0
		c-0.9,0.1-1.7-0.6-1.7-1.5C82.5,51.3,82.5,51.3,82.5,51.2z M85.4,51.2c0-0.5-0.4-0.9-1.1-0.9s-1.1,0.3-1.1,0.9s0.5,0.9,1.1,0.9
		S85.4,51.8,85.4,51.2z"/>
	<path class="st0" d="M86,56.1l-3.4,1.3v-0.7l0.8-0.3v-1.3l-0.8-0.3v-0.7l3.4,1.3V56.1z M84,55.4v0.8l1.1-0.4L84,55.4z"/>
	<path class="st0" d="M86,59v1.2c0,0.9-0.8,1.7-1.7,1.7c-0.9,0-1.7-0.8-1.7-1.7V59H86z M83.2,60.2c0,0.6,0.5,1.1,1.1,1.1
		c0.6,0,1.1-0.5,1.1-1.1v-0.5h-2.2L83.2,60.2z"/>
	<path class="st0" d="M86,65.7l-2.3,0.6l2.3,0.6v0.7l-3.4-0.9V66l2.2-0.6l-2.2-0.6v-0.6l3.4-0.9V64l-2.3,0.6l2.3,0.6V65.7z"/>
	<path class="st0" d="M86,70.7L82.6,72v-0.7l0.8-0.3v-1.3l-0.8-0.3v-0.7L86,70V70.7z M84,69.9v0.8l1.1-0.4L84,69.9z"/>
	<path class="st0" d="M86,75.3v0.7l-2.1-1.2h-1.3v-0.7h1.3l2.1-1.2v0.8l-1.4,0.8L86,75.3z"/>
	<path class="st0" d="M180.9,35.1v0.7h-2.8v1.6h-0.6v-2.3H180.9z"/>
	<path class="st0" d="M180.9,40.8l-3.4,1.3v-0.7l0.8-0.3v-1.3l-0.8-0.3v-0.7l3.4,1.3V40.8z M179,40v0.8l1.1-0.4L179,40z"/>
	<path class="st0" d="M177.6,43.7h3.4V46h-0.6v-1.6h-0.9v1.4h-0.6v-1.4h-1.3V43.7z"/>
	<path class="st0" d="M180.9,49.2l-3.4,1.3v-0.7l0.8-0.3v-1.3l-0.8-0.3v-0.7l3.4,1.3V49.2z M178.9,48.4v0.8l1.1-0.4L178.9,48.4z"/>
	<path class="st0" d="M180.9,53.9v0.7l-2.1-1.2h-1.3v-0.7h1.3l2.1-1.2v0.8l-1.4,0.8L180.9,53.9z"/>
	<path class="st0" d="M180.9,58.5h-0.6v-1.6h-0.7v1.5H179v-1.5h-0.8v1.6h-0.6v-2.3h3.4L180.9,58.5z"/>
	<path class="st0" d="M180.9,60.1V63h-0.6v-1.1h-2.8v-0.7h2.8v-1.1H180.9z"/>
	<path class="st0" d="M180.9,64.4v2.9h-0.6v-1.1h-2.8v-0.7h2.8v-1.1H180.9z"/>
	<path class="st0" d="M180.9,71.3h-0.6v-1.6h-0.7v1.5H179v-1.5h-0.8v1.6h-0.6V69h3.4L180.9,71.3z"/>
	<path class="st0" d="M178.5,75.9c-0.3,0.1-0.5,0.4-0.4,0.7c0,0.3,0.2,0.6,0.4,0.6s0.3-0.1,0.4-0.4l0.1-0.6c0-0.5,0.4-0.9,0.9-0.8
		c0.6,0,1,0.6,1,1.1c0,0,0,0,0,0.1c0.1,0.6-0.4,1.2-1,1.3v-0.7c0.3-0.1,0.4-0.4,0.4-0.6c0-0.3-0.2-0.5-0.4-0.5s-0.3,0.1-0.4,0.4
		l-0.1,0.6c-0.1,0.6-0.4,0.9-0.9,0.9c-0.6,0-1.1-0.5-1.1-1.2c0,0,0-0.1,0-0.1c-0.1-0.7,0.4-1.3,1-1.4L178.5,75.9L178.5,75.9z"/>
	<path class="st0" d="M180.9,79.3v2.9h-0.6v-1.1h-2.8v-0.7h2.8v-1.1H180.9z"/>
	<path class="st0" d="M112.4,39.3h0.7v2.8h1.6v0.6h-2.3V39.3z"/>
	<path class="st0" d="M118.6,39.3v0.6H117v0.7h1.4v0.6H117v0.8h1.6v0.6h-2.3v-3.4H118.6z"/>
	<path class="st0" d="M121.6,42.7c-1,0.1-1.8-0.6-1.9-1.6c-0.1-1,0.6-1.8,1.6-1.9c1-0.1,1.8,0.6,1.9,1.6c0,0.1,0,0.1,0,0.2
		c0.1,0.9-0.6,1.7-1.5,1.7C121.7,42.7,121.7,42.7,121.6,42.7z M121.6,39.9c-0.5,0-0.9,0.5-0.9,1.1s0.3,1.1,0.9,1.1s0.9-0.5,0.9-1.1
		S122.2,39.9,121.6,39.9z"/>
	<path class="st0" d="M127.7,42.7h-0.6l-1.6-2.2v2.2h-0.7v-3.4h0.7l1.5,2.1v-2.1h0.7L127.7,42.7z"/>
	<path class="st0" d="M131.2,39.3l1.3,3.4h-0.7l-0.3-0.8h-1.3l-0.3,0.8h-0.7l1.3-3.4H131.2z M130.4,41.3h0.8l-0.4-1.1L130.4,41.3z"
		/>
	<path class="st0" d="M134.6,41.4v1.3H134v-3.4h1.4c0.6-0.1,1.1,0.3,1.2,0.9c0,0.1,0,0.1,0,0.2c0,0.5-0.3,0.9-0.8,1l0.9,1.3h-0.8
		l-0.9-1.3H134.6z M134.6,40.8h0.6c0.4,0,0.5-0.2,0.5-0.5s-0.2-0.5-0.5-0.5h-0.6V40.8z"/>
	<path class="st0" d="M138.1,39.3h1.2c0.9,0,1.7,0.8,1.7,1.7c0,0.9-0.8,1.7-1.7,1.7h-1.2V39.3z M139.3,42.1c0.6,0,1.1-0.5,1.1-1.1
		c0-0.6-0.5-1.1-1.1-1.1h-0.5v2.1H139.3z"/>
	<path class="st0" d="M145.4,41.7c0.1,0.3,0.4,0.5,0.7,0.4c0.3,0,0.6-0.2,0.6-0.4s-0.1-0.3-0.4-0.4l-0.6-0.1
		c-0.5-0.1-0.9-0.4-0.9-0.9c0-0.6,0.6-1,1.2-1c0,0,0,0,0,0c0.6-0.1,1.2,0.4,1.3,1h-0.7c-0.1-0.3-0.3-0.4-0.6-0.4
		c-0.3,0-0.5,0.2-0.5,0.4s0.1,0.3,0.4,0.4l0.6,0.1c0.6,0.1,0.9,0.4,0.9,1c0,0.7-0.5,1-1.2,1c-0.7,0.1-1.3-0.4-1.4-1L145.4,41.7z"/>
	<path class="st0" d="M148.6,39.3h2.9v0.6h-1.1v2.8h-0.7v-2.8h-1.1V39.3z"/>
	<path class="st0" d="M109.9,74.6c0.7,0,1.3,0.4,1.4,1.1h-0.7c-0.1-0.3-0.4-0.5-0.7-0.5c-0.5,0-0.8,0.5-0.8,1.1s0.3,1.1,0.8,1.1
		c0.3,0,0.6-0.2,0.7-0.5h0.7c-0.1,0.7-0.7,1.2-1.4,1.1c-1-0.1-1.7-1-1.6-1.9C108.4,75.3,109.1,74.6,109.9,74.6L109.9,74.6z"/>
	<path class="st0" d="M114.7,74.6l1.3,3.4h-0.7l-0.3-0.8h-1.3l-0.3,0.8h-0.7l1.3-3.4H114.7z M113.9,76.6h0.8l-0.4-1.1L113.9,76.6z"
		/>
	<path class="st0" d="M117,74.6h2.9v0.6h-1.1V78h-0.7v-2.8H117V74.6z"/>
	<path class="st0" d="M124.5,74.6V78h-0.7v-1.4h-1.5V78h-0.7v-3.4h0.7v1.3h1.5v-1.3H124.5z"/>
	<path class="st0" d="M128.7,74.6v0.6h-1.6V76h1.5v0.6h-1.4v0.8h1.6V78h-2.3v-3.4H128.7z"/>
	<path class="st0" d="M131.1,76.7V78h-0.7v-3.4h1.4c0.5-0.1,1.1,0.2,1.2,0.8c0,0.1,0,0.2,0,0.3c0,0.5-0.3,0.9-0.8,1l0.9,1.3h-0.8
		l-0.8-1.3L131.1,76.7z M131.1,76.1h0.6c0.4,0,0.5-0.2,0.5-0.5s-0.2-0.5-0.5-0.5h-0.6V76.1z"/>
	<path class="st0" d="M135.4,78h-0.7v-3.4h0.7V78z"/>
	<path class="st0" d="M140.1,78h-0.6l-1.6-2.3V78h-0.7v-3.4h0.7l1.5,2.1v-2.1h0.7L140.1,78z"/>
	<path class="st0" d="M144.2,74.6v0.6h-1.6V76h1.4v0.6h-1.4v0.8h1.6V78H142v-3.4H144.2z"/>
	<path class="st0" d="M148.4,74.6h0.7v2.8h1.6V78h-2.3V74.6z"/>
	<path class="st0" d="M155.2,78h-0.6l-1.6-2.2V78h-0.7v-3.4h0.6l1.5,2.1v-2.1h0.7L155.2,78L155.2,78z"/>
</g>
<g id="Layer_4">
	<g>
		<defs>
			<rect id="SVGID_1_" x="92.3" y="51.5" width="76.1" height="17.2"/>
		</defs>
		<clipPath id="SVGID_2_">
			<use xlink:href="#SVGID_1_"  style="overflow:visible;"/>
		</clipPath>
		<g class="st1">
			<g>
				<defs>
					<rect id="SVGID_3_" x="92.3" y="51.5" width="76.1" height="17.2"/>
				</defs>
				<clipPath id="SVGID_4_">
					<use xlink:href="#SVGID_3_"  style="overflow:visible;"/>
				</clipPath>
				<g class="st2">
					<polygon class="st3" points="166.6,52.7 166.6,67.6 93.3,63 93.3,52.7 					"/>
				</g>
			</g>
		</g>
	</g>
	<g>
		<defs>
			<rect id="SVGID_5_" x="92.4" y="51.2" width="76.1" height="17.2"/>
		</defs>
		<clipPath id="SVGID_6_">
			<use xlink:href="#SVGID_5_"  style="overflow:visible;"/>
		</clipPath>
		<g class="st4">
			<polygon class="st5" points="152.6,60.2 154,60.2 154,60.4 154.9,60.4 154.9,60.2 157.2,60.2 157.2,62.2 156.5,62.2 156.5,64.1 
				157.5,64.1 157.5,66.8 152.2,66.6 152.2,64.6 152.5,64.6 152.5,62.8 152.1,62.8 152.1,60.9 152.6,60.9 			"/>
			<g>
				<defs>
					<rect id="SVGID_7_" x="92.4" y="51.2" width="76.1" height="17.2"/>
				</defs>
				<clipPath id="SVGID_8_">
					<use xlink:href="#SVGID_7_"  style="overflow:visible;"/>
				</clipPath>
				<g class="st6">
					<polygon class="st3" points="166.6,52.3 166.6,67.2 93.3,62.6 93.3,52.3 					"/>
				</g>
			</g>
		</g>
	</g>
	<g>
		<defs>
			<rect id="SVGID_9_" x="4.5" y="3.4" width="64" height="77.3"/>
		</defs>
		<clipPath id="SVGID_10_">
			<use xlink:href="#SVGID_9_"  style="overflow:visible;"/>
		</clipPath>
		<g class="st7">
			<polyline class="st8" points="66.8,48.8 55.8,55.1 9.1,24.4 			"/>
			<polyline class="st8" points="66.8,50.9 55.8,57.2 9.1,26.5 			"/>
			<polyline class="st8" points="66.8,53 55.8,59.2 9.1,28.6 			"/>
			<polyline class="st8" points="66.8,55.1 55.8,61.3 9.1,30.7 			"/>
			<polyline class="st8" points="66.8,57.2 55.8,63.4 9.1,32.8 			"/>
			<polyline class="st8" points="66.8,59.3 55.8,65.5 9.1,34.9 			"/>
			<polyline class="st8" points="66.8,61.3 55.8,67.6 9.1,37 			"/>
			<polyline class="st8" points="66.8,63.5 55.8,69.7 9.1,39.1 			"/>
			<polyline class="st8" points="66.8,65.5 55.8,71.8 9.1,41.2 			"/>
			<polyline class="st8" points="66.8,67.6 55.8,73.9 9.1,43.3 			"/>
			<polyline class="st8" points="66.8,69.7 55.8,76 9.1,45.4 			"/>
			<g class="st9">
				<path class="st10" d="M13.8,54.4c0.5,0.4,0.5,0.8,0.1,1.1l-0.5-0.3c0.1-0.2,0.1-0.4-0.1-0.5c-0.4-0.2-0.9-0.2-1.3,0.1
					c-0.4,0.3-0.6,0.6-0.2,0.8c0.3,0.2,0.5,0.2,0.8,0.1l0.5,0.3c-0.6,0.2-1.2,0.2-1.7-0.2c-0.6-0.4-0.5-1,0.2-1.4
					C12.3,54,13.2,54,13.8,54.4z"/>
			</g>
			<g class="st9">
				<path class="st10" d="M17,56.7l-1.5,1.9L15,58.3l0.4-0.5l-0.8-0.6l-0.8,0.2l-0.5-0.3l3.2-0.8L17,56.7z M15.1,57.1l0.5,0.4
					l0.5-0.6L15.1,57.1z"/>
			</g>
			<g class="st9">
				<path class="st10" d="M18.6,57.8l1.9,1.3l-0.4,0.2l-0.7-0.5L17.5,60L17,59.7l1.9-1.1l-0.7-0.5L18.6,57.8z"/>
				<path class="st10" d="M23.6,61.3l-2.3,1.4l-0.5-0.3l1-0.6l-1-0.7l-1,0.6l-0.5-0.3l2.3-1.4l0.5,0.3l-0.9,0.5l1,0.7l0.9-0.5
					L23.6,61.3z"/>
				<path class="st10" d="M26.4,63.2L26,63.5l-1.1-0.7L24.4,63l1,0.7L25,63.9l-1-0.7l-0.6,0.3l1.1,0.7l-0.4,0.2l-1.5-1l2.3-1.4
					L26.4,63.2z"/>
				<path class="st10" d="M26.6,65.3l-0.9,0.5l-0.5-0.3l2.3-1.4l0.9,0.6c0.5,0.3,0.5,0.7,0,1c-0.4,0.2-0.8,0.2-1.2,0l-0.3,0.9
					l-0.5-0.4l0.3-0.9L26.6,65.3z M27,65l0.4,0.3c0.2,0.2,0.5,0.2,0.7,0.1c0.2-0.1,0.2-0.3,0-0.4l-0.4-0.3L27,65z"/>
				<path class="st10" d="M28.7,67.8l-0.5-0.3l2.3-1.4l0.5,0.3L28.7,67.8z"/>
				<path class="st10" d="M31.8,70l-0.4-0.3l0.5-1.6L30.4,69l-0.4-0.3l2.3-1.4l0.4,0.3l-0.5,1.5l1.5-0.9l0.4,0.3L31.8,70z"/>
				<path class="st10" d="M36.9,70.6l-0.4,0.2l-1.1-0.7l-0.5,0.3l1,0.7l-0.4,0.2l-1-0.7L34,70.9l1.1,0.7l-0.4,0.2l-1.5-1l2.3-1.4
					L36.9,70.6z"/>
				<path class="st10" d="M39.8,72.5l0.5,0.3L38.3,74l1,0.7L39,74.9l-1.5-1L39.8,72.5z"/>
			</g>
			<g class="st9">
				<path class="st10" d="M42,77l-0.4-0.3l0.5-1.6l-1.6,0.9l-0.4-0.3l2.3-1.4l0.4,0.3l-0.5,1.5l1.5-0.9l0.4,0.3L42,77z"/>
			</g>
			<polyline class="st11" points="66.8,46.7 55.8,53 9.1,22.3 			"/>
			<line class="st11" x1="55.8" y1="50.8" x2="55.8" y2="78"/>
			<line class="st11" x1="61.4" y1="74.2" x2="60.7" y2="74.6"/>
			<polyline class="st11" points="61.4,74.2 61.8,74.4 66.8,71.5 66.8,44.6 			"/>
			<polyline class="st11" points="66.8,44.6 55.8,50.8 9.1,20.2 			"/>
			<g>
				<defs>
					<rect id="SVGID_11_" x="4.5" y="3.4" width="63.5" height="77.3"/>
				</defs>
				<clipPath id="SVGID_12_">
					<use xlink:href="#SVGID_11_"  style="overflow:visible;"/>
				</clipPath>
				<g class="st12">
					<path class="st11" d="M61.4,74.2v-0.6c0-0.1,0-0.2-0.1-0.3"/>
					<path class="st11" d="M61.9,74.4v-0.9c0-0.2-0.2-0.5-0.6-0.2c-0.3,0.2-0.5,0.5-0.5,0.8v1l-5,2.9l-6.5-4.5L41,67.8l-7-4.8
						L23.8,56L9.1,45.4V20.2l1-0.6"/>
				</g>
			</g>
			<line class="st11" x1="57.5" y1="45.7" x2="57.5" y2="44.6"/>
			<line class="st11" x1="15.8" y1="22.2" x2="15.8" y2="24"/>
			<line class="st11" x1="57.5" y1="45.7" x2="58.2" y2="46.1"/>
			<line class="st11" x1="57.5" y1="44.6" x2="58.2" y2="45"/>
			<line class="st11" x1="16.1" y1="11" x2="16.1" y2="9.6"/>
			<line class="st11" x1="16.1" y1="11.1" x2="16.1" y2="9.5"/>
			<line class="st11" x1="15.9" y1="20.8" x2="15.9" y2="17.4"/>
			<polyline class="st11" points="17,23.4 15.8,24 10.1,20.3 10.1,18.5 12.1,17.3 			"/>
			<polyline class="st11" points="16.1,15.4 18.8,13.9 18.8,10.4 18.8,10.3 17.6,9.6 			"/>
			<g>
				<defs>
					<rect id="SVGID_13_" x="4.5" y="3.4" width="63.5" height="77.3"/>
				</defs>
				<clipPath id="SVGID_14_">
					<use xlink:href="#SVGID_13_"  style="overflow:visible;"/>
				</clipPath>
				<g class="st13">
					<path class="st11" d="M15.6,12.8c0.2,0.6,0,1.1-0.4,1.1s-1-0.5-1.2-1.1s-0.1-1.1,0.4-1.1S15.4,12.2,15.6,12.8z"/>
					<path class="st11" d="M16.7,12.9c-0.2,0.6,0,1.1,0.4,1.1s1-0.5,1.2-1.1s0-1.1-0.4-1.1S16.9,12.2,16.7,12.9z"/>
				</g>
			</g>
			<line class="st11" x1="15.9" y1="17.5" x2="20.2" y2="14.9"/>
			<line class="st11" x1="12.1" y1="15" x2="15.9" y2="17.5"/>
			<line class="st11" x1="10.1" y1="18.4" x2="15.8" y2="22.2"/>
			<polyline class="st11" points="18.8,13.7 19,13.9 19,15 19,15 16.1,16.8 16.1,16.7 16.1,12 			"/>
			<polyline class="st11" points="13.2,14.3 12.1,15 12.1,18.2 12.1,18.3 15.8,20.7 			"/>
			<polyline class="st11" points="20.3,16.6 22.6,18.1 22.6,19.4 			"/>
			<line class="st11" x1="16" y1="12" x2="18.8" y2="10.4"/>
			<line class="st11" x1="13.6" y1="10.4" x2="14.6" y2="9.7"/>
			<line class="st11" x1="13.6" y1="10.3" x2="16.1" y2="12.1"/>
			<polyline class="st11" points="19,14.1 20.3,14.9 20.3,15 20.3,18.2 20.2,18.2 15.8,20.8 			"/>
			<line class="st11" x1="14.7" y1="8.6" x2="16.1" y2="9.6"/>
			<line class="st11" x1="16.9" y1="8.1" x2="17.6" y2="8.6"/>
			<g>
				<defs>
					<rect id="SVGID_15_" x="4.5" y="3.4" width="63.5" height="77.3"/>
				</defs>
				<clipPath id="SVGID_16_">
					<use xlink:href="#SVGID_15_"  style="overflow:visible;"/>
				</clipPath>
				<g class="st14">
					<path class="st11" d="M14.8,6.9C14.7,7,14.6,7,14.6,7.1l0.1,0.2c0.1,0.1,0.4,0.2,1,0.1s1.7-0.8,1.8-1.4l-0.2-0.3
						c-0.1,0-0.2,0-0.4,0"/>
				</g>
			</g>
			<polyline class="st11" points="15.3,4.6 16.1,5 16.3,4.9 16.9,4.1 			"/>
			<g>
				<defs>
					<rect id="SVGID_17_" x="4.5" y="3.4" width="63.5" height="77.3"/>
				</defs>
				<clipPath id="SVGID_18_">
					<use xlink:href="#SVGID_17_"  style="overflow:visible;"/>
				</clipPath>
				<g class="st15">
					<path class="st11" d="M17.4,6.3c0,0.2,0,0.4,0,0.6c-0.1,0.7-0.8,1.2-1.5,1c0,0,0,0,0,0c-0.3-0.1-0.5-0.2-0.7-0.4l0,0"/>
					<path class="st11" d="M14.9,7.2c0-0.1-0.1-0.2-0.1-0.3c-0.1-0.7,0.4-1.4,1.1-1.5c0.4-0.1,0.8,0.1,1.1,0.4
						c0.1,0.1,0.2,0.2,0.2,0.3"/>
					<path class="st11" d="M17,8.3c0,0,0-0.1,0-0.1c0,0,0,0,0-0.1c-0.1,0-0.2,0-0.2,0V8l0.1-0.3"/>
					<path class="st11" d="M16.4,8.3c0,0.1,0,0.1,0,0.1s0.1,0.1,0.3,0"/>
				</g>
			</g>
			<polyline class="st11" points="15.7,8.8 15.7,8.7 15.9,8.4 15.9,8.3 15.5,8.3 15.3,8.1 15.4,7.8 			"/>
			<line class="st11" x1="13.6" y1="13.8" x2="16.1" y2="15.4"/>
			<polyline class="st11" points="16.1,16.8 13.3,15 13.2,14.9 13.2,13.9 13.2,13.9 13.5,13.8 13.6,13.8 13.6,10.3 			"/>
			<polyline class="st11" points="15.4,8.1 14.6,8.6 14.6,8.7 14.6,10.1 16.1,11.1 16.1,11.1 17.6,10.3 17.6,8.7 17.6,8.7 16.1,9.6 
							"/>
			<line class="st11" x1="41" y1="36" x2="50.3" y2="41.9"/>
			<polyline class="st11" points="62.3,43.7 60.2,44.9 58.2,43.6 			"/>
			<line class="st11" x1="60.2" y1="47.9" x2="60.2" y2="44.9"/>
			<polyline class="st11" points="58.2,44.2 53.9,46.7 17,23.2 			"/>
			<line class="st8" x1="66.8" y1="44.6" x2="22.6" y2="19"/>
			<line class="st8" x1="51.6" y1="36.3" x2="25.4" y2="21.1"/>
			<line class="st11" x1="53.9" y1="47.8" x2="53.9" y2="46.7"/>
			<line class="st11" x1="50.3" y1="43.2" x2="50.3" y2="41.9"/>
			<polygon class="st11" points="55.8,38.6 55.8,40 50.3,43.2 41,37.3 41,36 45.1,33.6 50.6,36.9 51.8,36.2 			"/>
			<line class="st11" x1="55.8" y1="38.6" x2="50.3" y2="41.9"/>
			<line class="st11" x1="25.4" y1="21" x2="21.4" y2="23.4"/>
			<polygon class="st11" points="18,22.5 18,21.2 18,21.2 21.9,19 25.4,21 25.4,22.2 25.4,22.2 21.4,24.6 			"/>
			<polyline class="st11" points="57.5,45.7 53.9,47.8 17,24.3 17,24.3 17,23.2 18,22.5 			"/>
			<line class="st11" x1="21.4" y1="23.4" x2="18" y2="21.2"/>
			<line class="st11" x1="21.4" y1="24.6" x2="21.4" y2="23.4"/>
			<polyline class="st11" points="61.5,43.2 61.8,43 61.8,42.2 55.8,38.7 			"/>
			<line class="st11" x1="61.8" y1="42.2" x2="61.3" y2="42.4"/>
			<line class="st11" x1="22.6" y1="18.2" x2="15.8" y2="22.2"/>
			<polyline class="st11" points="59.3,43 58.2,43.6 58.2,46.6 60.2,47.9 62.3,46.7 62.3,43.7 61.4,43.1 			"/>
			<g>
				<defs>
					<rect id="SVGID_19_" x="4.5" y="3.4" width="63.5" height="77.3"/>
				</defs>
				<clipPath id="SVGID_20_">
					<use xlink:href="#SVGID_19_"  style="overflow:visible;"/>
				</clipPath>
				<g class="st16">
					<path class="st11" d="M60.2,41.8c-0.5,0.1-0.9,0.6-0.9,1.1v0.8c0,0.3,0.5,0.5,1.1,0.5s1.1-0.2,1.1-0.5v-0.8
						c0-0.5-0.4-1-0.9-1.1v-0.1c0-0.1-0.1-0.1-0.2-0.1s-0.2,0.1-0.2,0.1V41.8z"/>
				</g>
			</g>
			<polygon class="st5" points="48.4,62.7 45.2,60.7 45.2,58.6 48.4,60.6 			"/>
		</g>
	</g>
</g>
</svg>
