<?xml version="1.0" encoding="utf-8"?>
<!-- Generator: Adobe Illustrator 23.0.0, SVG Export Plug-In . SVG Version: 6.00 Build 0)  -->
<svg version="1.1" id="Layer_1" xmlns="http://www.w3.org/2000/svg" xmlns:xlink="http://www.w3.org/1999/xlink" x="0px" y="0px"
	 viewBox="0 0 200.6 198.9" style="enable-background:new 0 0 200.6 198.9;" xml:space="preserve">
<style type="text/css">
	.st0{enable-background:new    ;}
	.st1{fill:#D1D3D4;}
	.st2{fill:#231F20;}
	.st3{clip-path:url(#SVGID_2_);}
	.st4{fill:none;stroke:#D1D3D4;stroke-width:1.09;stroke-miterlimit:10;}
	.st5{clip-path:url(#SVGID_4_);}
	.st6{fill:none;stroke:#231F20;stroke-width:0.15;stroke-miterlimit:10;}
	.st7{fill:none;stroke:#231F20;stroke-width:0.14;stroke-miterlimit:10;}
	.st8{clip-path:url(#SVGID_6_);}
	.st9{clip-path:url(#SVGID_8_);}
	.st10{fill:none;stroke:#231F20;stroke-width:0.14;stroke-linejoin:bevel;}
	.st11{clip-path:url(#SVGID_10_);}
	.st12{clip-path:url(#SVGID_12_);}
	.st13{clip-path:url(#SVGID_14_);}
	.st14{clip-path:url(#SVGID_16_);}
	.st15{clip-path:url(#SVGID_18_);}
	.st16{fill:none;stroke:#FFFFFF;stroke-width:0.15;stroke-miterlimit:10;}
	.st17{clip-path:url(#SVGID_20_);}
	.st18{clip-path:url(#SVGID_22_);}
	.st19{clip-path:url(#SVGID_24_);}
	.st20{clip-path:url(#SVGID_26_);}
	.st21{clip-path:url(#SVGID_28_);}
	.st22{clip-path:url(#SVGID_30_);}
</style>
<title>residence_M_5-12_key</title>
<g>
	<g id="Layer_1_copy">
		<g>
			<g class="st0">
				<path class="st1" d="M34,143.2c-0.8,0-1.2-0.5-1.2-1.4V140h4.3v1.6c0,0.9-0.4,1.5-1.2,1.5c-0.5,0-0.8-0.3-0.9-0.6
					C34.9,142.9,34.5,143.2,34,143.2z M33.6,140.8v0.8c0,0.4,0.2,0.6,0.5,0.6c0.3,0,0.5-0.2,0.5-0.6v-0.8H33.6z M35.3,141.5
					c0,0.4,0.2,0.7,0.5,0.7c0.3,0,0.5-0.2,0.5-0.7v-0.7h-1V141.5z"/>
				<path class="st1" d="M34.4,145.7h-1.6v-0.9h4.3v1.8c0,0.9-0.5,1.5-1.4,1.5c-0.7,0-1.1-0.4-1.3-1l-1.7,1.1v-1l1.6-1.1V145.7z
					 M35.1,145.7v0.8c0,0.4,0.2,0.7,0.6,0.7c0.4,0,0.6-0.2,0.6-0.7v-0.8H35.1z"/>
			</g>
			<g class="st0">
				<path class="st1" d="M32.7,152.7c0-1.2,0.9-2,2.2-2c1.3,0,2.2,0.8,2.2,2c0,1.2-0.9,2-2.2,2C33.7,154.7,32.7,153.9,32.7,152.7z
					 M36.4,152.7c0-0.7-0.6-1.1-1.4-1.1c-0.8,0-1.4,0.4-1.4,1.1c0,0.7,0.6,1.1,1.4,1.1C35.8,153.8,36.4,153.4,36.4,152.7z"/>
			</g>
			<g class="st0">
				<path class="st1" d="M37.1,158.9l-4.3,1.6v-0.9l1-0.4v-1.6l-1-0.4v-0.9l4.3,1.6V158.9z M34.6,157.9v1.1l1.4-0.5L34.6,157.9z"/>
			</g>
			<g class="st0">
				<path class="st1" d="M37.1,162.6v1.5c0,1.3-0.8,2.1-2.2,2.1s-2.2-0.8-2.2-2.1v-1.5H37.1z M33.6,164.1c0,0.8,0.5,1.3,1.4,1.3
					c0.8,0,1.4-0.4,1.4-1.3v-0.6h-2.7V164.1z"/>
			</g>
			<g class="st0">
				<path class="st1" d="M37.1,171.1l-2.9,0.7l2.9,0.7v0.9l-4.3-1.1v-0.8l2.8-0.8l-2.8-0.8v-0.8l4.3-1.1v0.9l-2.9,0.7l2.9,0.8V171.1
					z"/>
			</g>
			<g class="st0">
				<path class="st1" d="M37.1,177.4l-4.3,1.6v-0.9l1-0.4v-1.6l-1-0.4v-0.9l4.3,1.6V177.4z M34.6,176.4v1.1l1.4-0.5L34.6,176.4z"/>
			</g>
			<g class="st0">
				<path class="st1" d="M37.1,183.3v0.9l-2.7-1.6h-1.6v-0.9h1.6l2.7-1.5v1l-1.8,1L37.1,183.3z"/>
			</g>
		</g>
		<g>
			<g class="st0">
				<path class="st1" d="M167.5,132.1v0.9H164v2h-0.8v-2.9H167.5z"/>
			</g>
			<g class="st0">
				<path class="st1" d="M167.5,139.4l-4.3,1.6v-0.9l1-0.4v-1.6l-1-0.4v-0.9l4.3,1.6V139.4z M165,138.4v1.1l1.4-0.5L165,138.4z"/>
			</g>
			<g class="st0">
				<path class="st1" d="M163.2,143.1h4.3v2.9h-0.8v-2h-1.1v1.8h-0.8V144h-1.6V143.1z"/>
			</g>
			<g class="st0">
				<path class="st1" d="M167.5,150.1l-4.3,1.6v-0.9l1-0.4v-1.6l-1-0.4v-0.9l4.3,1.6V150.1z M165,149.1v1.1l1.4-0.5L165,149.1z"/>
			</g>
			<g class="st0">
				<path class="st1" d="M167.5,156v0.9l-2.7-1.6h-1.6v-0.9h1.6l2.7-1.5v1l-1.8,1L167.5,156z"/>
				<path class="st1" d="M167.5,161.4h-0.8v-2h-0.9v1.8h-0.8v-1.8h-1v2h-0.8v-2.9h4.3V161.4z"/>
				<path class="st1" d="M167.5,162.8v3.7h-0.8v-1.4h-3.5v-0.9h3.5v-1.4H167.5z"/>
				<path class="st1" d="M167.5,167.8v3.7h-0.8v-1.4h-3.5v-0.9h3.5v-1.4H167.5z"/>
				<path class="st1" d="M167.5,176h-0.8v-2h-0.9v1.8h-0.8v-1.8h-1v2h-0.8V173h4.3V176z"/>
			</g>
			<g class="st0">
				<path class="st1" d="M164.5,184.1c-0.4,0.1-0.6,0.4-0.6,0.9c0,0.4,0.2,0.7,0.5,0.7c0.3,0,0.4-0.2,0.5-0.5l0.2-0.8
					c0.1-0.6,0.5-1.1,1.2-1.1c0.8,0,1.3,0.6,1.3,1.5c0,1-0.5,1.5-1.2,1.7v-0.9c0.3-0.1,0.5-0.3,0.5-0.8c0-0.4-0.2-0.7-0.5-0.7
					c-0.2,0-0.4,0.2-0.5,0.5l-0.2,0.8c-0.2,0.7-0.6,1.1-1.2,1.1c-0.8,0-1.3-0.7-1.3-1.6c0-1,0.5-1.6,1.3-1.8V184.1z"/>
			</g>
			<g class="st0">
				<path class="st1" d="M167.5,188.4v3.7h-0.8v-1.4h-3.5v-0.9h3.5v-1.4H167.5z"/>
			</g>
		</g>
		<g>
			<g class="st0">
				<path class="st1" d="M75.5,132.3h0.9v3.5h2v0.8h-2.9V132.3z"/>
				<path class="st1" d="M82.9,132.3v0.8h-2v0.9h1.8v0.8h-1.8v1h2v0.8H80v-4.3H82.9z"/>
			</g>
			<g class="st0">
				<path class="st1" d="M87.3,136.7c-1.2,0-2-0.9-2-2.2c0-1.3,0.8-2.2,2-2.2c1.2,0,2,0.9,2,2.2C89.3,135.8,88.5,136.7,87.3,136.7z
					 M87.3,133.1c-0.7,0-1.1,0.6-1.1,1.4c0,0.8,0.4,1.4,1.1,1.4c0.7,0,1.1-0.6,1.1-1.4C88.4,133.7,88,133.1,87.3,133.1z"/>
			</g>
			<g class="st0">
				<path class="st1" d="M94.9,136.7h-0.7l-2-2.9v2.9h-0.9v-4.3h0.8l1.9,2.7v-2.7h0.9V136.7z"/>
			</g>
			<g class="st0">
				<path class="st1" d="M99.4,132.3l1.6,4.3h-0.9l-0.4-1h-1.6l-0.4,1h-0.9l1.6-4.3H99.4z M98.4,134.9h1.1l-0.5-1.4L98.4,134.9z"/>
			</g>
			<g class="st0">
				<path class="st1" d="M103.8,135v1.6h-0.9v-4.3h1.8c0.9,0,1.5,0.5,1.5,1.4c0,0.7-0.4,1.1-1,1.3l1.1,1.7h-1l-1.1-1.6H103.8z
					 M103.8,134.3h0.8c0.4,0,0.7-0.2,0.7-0.6c0-0.4-0.2-0.6-0.7-0.6h-0.8V134.3z"/>
				<path class="st1" d="M107.9,132.3h1.5c1.3,0,2.1,0.8,2.1,2.2s-0.8,2.2-2.1,2.2h-1.5V132.3z M109.3,135.9c0.8,0,1.3-0.5,1.3-1.4
					c0-0.8-0.4-1.4-1.3-1.4h-0.6v2.7H109.3z"/>
			</g>
			<g class="st0">
				<path class="st1" d="M117.5,135.4c0.1,0.4,0.4,0.6,0.9,0.6c0.4,0,0.7-0.2,0.7-0.5c0-0.3-0.2-0.4-0.5-0.5l-0.8-0.2
					c-0.6-0.1-1.1-0.5-1.1-1.2c0-0.8,0.6-1.3,1.5-1.3c1,0,1.5,0.5,1.7,1.2H119c-0.1-0.3-0.3-0.5-0.8-0.5c-0.4,0-0.7,0.2-0.7,0.5
					c0,0.2,0.2,0.4,0.5,0.5l0.8,0.2c0.7,0.2,1.1,0.6,1.1,1.2c0,0.8-0.7,1.3-1.6,1.3c-1,0-1.6-0.5-1.8-1.3H117.5z"/>
			</g>
			<g class="st0">
				<path class="st1" d="M121.6,132.3h3.7v0.8h-1.4v3.5H123v-3.5h-1.4V132.3z"/>
			</g>
		</g>
		<g>
			<g class="st0">
				<path class="st1" d="M72.3,186c1,0,1.6,0.6,1.8,1.5h-0.9c-0.1-0.4-0.4-0.7-0.9-0.7c-0.7,0-1.1,0.6-1.1,1.4
					c0,0.8,0.4,1.4,1.1,1.4c0.5,0,0.8-0.3,0.9-0.7h0.9c-0.2,0.9-0.8,1.5-1.8,1.5c-1.1,0-2-0.9-2-2.2C70.3,186.9,71.2,186,72.3,186z"
					/>
			</g>
			<g class="st0">
				<path class="st1" d="M78.4,186l1.6,4.3h-0.9l-0.4-1h-1.6l-0.4,1h-0.9l1.6-4.3H78.4z M77.4,188.6h1.1l-0.5-1.4L77.4,188.6z"/>
			</g>
			<g class="st0">
				<path class="st1" d="M81.4,186h3.7v0.8h-1.4v3.5h-0.9v-3.5h-1.4V186z"/>
			</g>
			<g class="st0">
				<path class="st1" d="M90.9,186v4.3H90v-1.8h-1.9v1.8h-0.9V186h0.9v1.7H90V186H90.9z"/>
			</g>
			<g class="st0">
				<path class="st1" d="M96.2,186v0.8h-2v0.9H96v0.8h-1.8v1h2v0.8h-2.9V186H96.2z"/>
				<path class="st1" d="M98.8,188.7v1.6h-0.9V186h1.8c0.9,0,1.5,0.5,1.5,1.4c0,0.7-0.4,1.1-1,1.3l1.1,1.7h-1l-1.1-1.6H98.8z
					 M98.8,188h0.8c0.4,0,0.7-0.2,0.7-0.6c0-0.4-0.2-0.6-0.7-0.6h-0.8V188z"/>
			</g>
			<g class="st0">
				<path class="st1" d="M104.8,190.3h-0.9V186h0.9V190.3z"/>
			</g>
			<g class="st0">
				<path class="st1" d="M110.8,190.3h-0.7l-2-2.9v2.9h-0.9V186h0.8l1.9,2.7V186h0.9V190.3z"/>
				<path class="st1" d="M115.5,186v0.8h-2v0.9h1.8v0.8h-1.8v1h2v0.8h-2.9V186H115.5z"/>
				<path class="st1" d="M119.6,186h0.9v3.5h2v0.8h-2.9V186z"/>
			</g>
			<g class="st0">
				<path class="st1" d="M130,190.3h-0.7l-2-2.9v2.9h-0.9V186h0.8l1.9,2.7V186h0.9V190.3z"/>
			</g>
		</g>
	</g>
	<g>
		<polygon class="st2" points="128.6,152.2 133.1,152.2 133.1,161.7 135,161.7 135,163.4 132.8,163.4 132.8,166.2 132.5,166.2 
			132.5,166.9 132.8,166.9 132.8,168.6 132.6,168.6 132.6,172.8 124.4,172.3 124.4,165.4 124.3,165.4 124.3,164 124.4,164 
			124.4,162.1 128.4,162.1 128.4,161.1 128.5,161.1 		"/>
		<g>
			<defs>
				<rect id="SVGID_1_" x="44.2" y="150.5" width="112" height="25.3"/>
			</defs>
			<clipPath id="SVGID_2_">
				<use xlink:href="#SVGID_1_"  style="overflow:visible;"/>
			</clipPath>
			<g class="st3">
				<polygon class="st4" points="153.6,152.2 153.6,174.1 45.6,167.4 45.6,152.2 				"/>
			</g>
		</g>
		<g>
			<defs>
				<rect id="SVGID_3_" x="4.7" y="3.8" width="187.8" height="106.4"/>
			</defs>
			<clipPath id="SVGID_4_">
				<use xlink:href="#SVGID_3_"  style="overflow:visible;"/>
			</clipPath>
			<g class="st5">
				<g class="st0">
					<path class="st1" d="M12.6,80.7l0.7,0.4l-2.5,1.6l1.5,0.9L11.7,84l-2.1-1.3L12.6,80.7z"/>
					<path class="st1" d="M18.6,84.4L18,84.8l-1.5-0.9l-0.7,0.4l1.3,0.8l-0.5,0.4l-1.3-0.8l-0.7,0.5L16,86l-0.6,0.4l-2.1-1.3l3.1-2
						L18.6,84.4z"/>
					<path class="st1" d="M18.5,88.4c-0.9-0.5-0.8-1.4,0.1-2c0.9-0.6,2.2-0.7,3.1-0.1s0.8,1.4-0.1,2C20.6,88.8,19.3,88.9,18.5,88.4z
						 M21.1,86.6c-0.5-0.3-1.2-0.2-1.8,0.2c-0.6,0.4-0.7,0.9-0.2,1.2c0.5,0.3,1.2,0.2,1.8-0.2C21.5,87.4,21.6,86.9,21.1,86.6z"/>
					<path class="st1" d="M24.3,91.9l-0.5-0.3l0.6-2.3l-2.1,1.3l-0.6-0.4l3.1-2l0.6,0.4l-0.6,2.1l2-1.3l0.6,0.4L24.3,91.9z"/>
				</g>
				<g class="st0">
					<path class="st1" d="M30.8,92l-1.9,2.8l-0.7-0.4l0.5-0.7L27.6,93l-1,0.3l-0.7-0.4l4.3-1.3L30.8,92z M28.3,92.8l0.8,0.5l0.6-0.9
						L28.3,92.8z"/>
				</g>
				<g class="st0">
					<path class="st1" d="M32.3,95.5l-1.2,0.8l-0.6-0.4l3.1-2l1.3,0.8c0.7,0.4,0.7,0.9,0.1,1.3c-0.5,0.3-1.1,0.4-1.6,0.2L33,97.4
						l-0.7-0.5l0.4-1.2L32.3,95.5z M32.9,95.1l0.6,0.4c0.3,0.2,0.7,0.2,0.9,0c0.3-0.2,0.3-0.4-0.1-0.6l-0.6-0.4L32.9,95.1z"/>
				</g>
				<g class="st0">
					<path class="st1" d="M37.7,96.3l1.1,0.7c0.9,0.6,0.9,1.4,0,2s-2.1,0.6-3.1,0l-1.1-0.7L37.7,96.3z M36.3,98.6
						c0.6,0.4,1.3,0.3,1.9-0.1c0.6-0.4,0.7-0.8,0.1-1.2l-0.4-0.3l-2,1.3L36.3,98.6z"/>
				</g>
				<g class="st0">
					<path class="st1" d="M42.6,102.2c-0.2,0.2-0.1,0.5,0.2,0.6c0.3,0.2,0.7,0.2,0.9,0.1c0.2-0.1,0.2-0.3,0-0.5l-0.4-0.4
						c-0.3-0.3-0.5-0.7,0.1-1c0.6-0.4,1.4-0.3,2.1,0.1c0.7,0.4,0.8,0.9,0.3,1.4L45,102c0.1-0.2,0.1-0.4-0.2-0.6
						c-0.3-0.2-0.6-0.2-0.9-0.1c-0.2,0.1-0.2,0.3,0,0.4l0.4,0.4c0.4,0.4,0.4,0.8-0.1,1.1c-0.6,0.4-1.5,0.3-2.1-0.1
						c-0.7-0.4-0.8-1-0.4-1.4L42.6,102.2z"/>
				</g>
				<g class="st0">
					<path class="st1" d="M48,102.8l2.7,1.7l-0.6,0.4l-1-0.6l-2.5,1.7l-0.7-0.4l2.5-1.7l-1-0.6L48,102.8z"/>
				</g>
				<line class="st6" x1="74.6" y1="68" x2="74.6" y2="63.5"/>
				<line class="st6" x1="14.8" y1="32.1" x2="14.8" y2="28.4"/>
				<line class="st6" x1="27.3" y1="36.9" x2="27.3" y2="39"/>
				<line class="st6" x1="21.8" y1="33.8" x2="21.8" y2="35.9"/>
				<line class="st6" x1="28.7" y1="36.1" x2="28.7" y2="38.2"/>
				<line class="st7" x1="28.8" y1="38.1" x2="27.2" y2="39"/>
				<line class="st7" x1="28.7" y1="36.2" x2="27.3" y2="37"/>
				<line class="st7" x1="66.5" y1="53.9" x2="60.5" y2="57.5"/>
				<line class="st7" x1="71.1" y1="57.6" x2="65.9" y2="60.6"/>
				<line class="st6" x1="36" y1="40.3" x2="36" y2="42.3"/>
				<line class="st7" x1="41" y1="38.6" x2="65.4" y2="54.6"/>
				<line class="st7" x1="66.4" y1="53.9" x2="71.1" y2="57"/>
				<line class="st7" x1="41" y1="38" x2="65.8" y2="54.3"/>
				<line class="st7" x1="11.9" y1="30.9" x2="14.4" y2="32.4"/>
				<line class="st7" x1="21.8" y1="33.8" x2="27.3" y2="37"/>
				<line class="st7" x1="28.8" y1="36.2" x2="36" y2="40.4"/>
				<line class="st7" x1="28.7" y1="38.1" x2="36" y2="42.3"/>
				<line class="st7" x1="60.5" y1="57.5" x2="65.9" y2="60.6"/>
				<line class="st6" x1="74.6" y1="55" x2="74.6" y2="52.8"/>
				<polyline class="st6" points="65.4,64.8 64.6,64.3 63.5,64.9 16.3,37.6 16.3,35.3 				"/>
				<polyline class="st6" points="28.1,30.1 23.5,27.1 12.8,33.3 63.5,62.6 				"/>
				<line class="st6" x1="63.5" y1="62.6" x2="63.5" y2="64.9"/>
				<line class="st6" x1="64.6" y1="61.9" x2="63.5" y2="62.6"/>
				<polyline class="st6" points="64.6,64.3 64.6,61.9 60.5,59.6 				"/>
				<line class="st6" x1="74.7" y1="72.2" x2="74.7" y2="69.7"/>
				<polyline class="st6" points="80.2,62.6 83.3,64.6 83.3,67.2 74.7,72.2 65.4,66.9 65.4,64.3 69.1,62.2 				"/>
				<polyline class="st6" points="83.3,64.6 74.7,69.7 65.4,64.3 				"/>
				<polyline class="st7" points="13.8,33.8 13.8,35.1 16.3,36.5 				"/>
				<line class="st7" x1="21.8" y1="35.9" x2="27.3" y2="39"/>
				<line class="st7" x1="60.5" y1="59.6" x2="60.5" y2="57.5"/>
				<line class="st7" x1="65.9" y1="64" x2="65.9" y2="60.6"/>
				<polyline class="st7" points="78.2,54 74.6,56.1 71.1,54 				"/>
				<polyline class="st6" points="78.2,58.5 78.6,58.7 78.6,60.3 74.6,62.6 70.7,60.3 70.7,58.8 71.1,58.6 				"/>
				<line class="st6" x1="74.6" y1="62.6" x2="74.6" y2="56.1"/>
				<polyline class="st6" points="78.6,59.2 80.2,60.2 80.2,64.7 74.6,68 69.1,64.8 69.1,60.3 70.7,59.4 				"/>
				<polyline class="st6" points="80.2,60.2 74.6,63.5 69.2,60.3 				"/>
				<polyline class="st6" points="11.9,30.9 6.5,34 6.5,71.6 				"/>
				<polyline class="st6" points="17.8,27.4 21.6,25.2 28.6,29.8 				"/>
				<line class="st6" x1="74.6" y1="73.5" x2="74.6" y2="107.4"/>
				<line class="st6" x1="74.6" y1="107.4" x2="38.2" y2="86.3"/>
				<polyline class="st6" points="84.9,73.1 74.6,79.1 6.6,39.7 				"/>
				<polyline class="st6" points="84.9,76 74.6,81.9 6.6,42.5 				"/>
				<polyline class="st6" points="84.9,78.8 74.6,84.8 6.6,45.4 				"/>
				<polyline class="st6" points="84.9,81.6 74.6,87.6 6.6,48.2 				"/>
				<polyline class="st6" points="84.9,84.4 74.6,90.4 6.6,51 				"/>
				<polyline class="st6" points="84.9,87.3 74.6,93.3 6.6,53.9 				"/>
				<polyline class="st6" points="84.9,90.1 74.6,96.1 6.6,56.7 				"/>
				<polyline class="st6" points="84.9,92.9 74.6,98.9 6.6,59.5 				"/>
				<line class="st6" x1="84.9" y1="95.8" x2="82.5" y2="97.2"/>
				<polyline class="st6" points="77,100.4 74.6,101.8 6.6,62.4 				"/>
				<line class="st6" x1="82.5" y1="100" x2="84.9" y2="98.6"/>
				<polyline class="st6" points="77,103.2 74.6,104.6 6.6,65.2 				"/>
				<polyline class="st6" points="84.9,70.3 74.6,76.3 6.6,36.9 				"/>
				<line class="st6" x1="35.4" y1="84.7" x2="6.6" y2="68"/>
				<polyline class="st7" points="13.4,25.8 11.9,26.7 11.9,30.9 				"/>
				<polyline class="st7" points="16.4,25.8 17.8,26.6 17.8,30.3 				"/>
				<polyline class="st7" points="11.9,26.7 14.8,28.4 17.8,26.6 				"/>
				<polyline class="st6" points="75.8,51.2 76.6,51.7 76.6,53.9 74.6,55 72.6,53.9 72.6,51.7 73.6,51.1 				"/>
				<polyline class="st7" points="76.6,51.7 74.6,52.8 72.6,51.7 				"/>
				<g>
					<defs>
						<rect id="SVGID_5_" x="4.8" y="10" width="86.8" height="99.5"/>
					</defs>
					<clipPath id="SVGID_6_">
						<use xlink:href="#SVGID_5_"  style="overflow:visible;"/>
					</clipPath>
					<g class="st8">
						<path class="st6" d="M72.7,49.3c0,0.1-0.2,0.2-0.2,0.3l0.1,0.3c0.1,0.2,0.6,0.3,1.3,0.1s2.3-1,2.5-1.9l-0.2-0.5
							c-0.2,0-0.3,0-0.5,0"/>
					</g>
				</g>
				<polyline class="st6" points="73.4,46.2 74.5,46.7 74.8,46.6 75.6,45.5 				"/>
				<g>
					<defs>
						<rect id="SVGID_7_" x="4.8" y="10" width="86.8" height="99.5"/>
					</defs>
					<clipPath id="SVGID_8_">
						<use xlink:href="#SVGID_7_"  style="overflow:visible;"/>
					</clipPath>
					<g class="st9">
						<path class="st6" d="M76.3,48.6c0.1,0.2,0.1,0.5,0,0.8c-0.2,1-1.1,1.6-2.1,1.4c-0.4-0.1-0.7-0.3-1-0.5l-0.1,0"/>
						<path class="st6" d="M72.9,49.7c-0.1-0.1-0.1-0.3-0.1-0.4c-0.1-1,0.5-1.9,1.5-2c0.6-0.1,1.2,0.1,1.6,0.5
							c0.1,0.1,0.2,0.3,0.3,0.4"/>
						<path class="st6" d="M73.8,57.4c0.3,0.9,0.1,1.5-0.5,1.6s-1.3-0.7-1.6-1.6s-0.1-1.5,0.5-1.5S73.5,56.5,73.8,57.4z"/>
						<path class="st6" d="M75.4,57.4c-0.3,0.9-0.1,1.5,0.5,1.5s1.3-0.7,1.6-1.5s0.1-1.5-0.5-1.5S75.7,56.6,75.4,57.4z"/>
						<path class="st10" d="M75.8,51.3c0-0.1,0-0.1,0-0.2c0,0-0.1-0.1-0.1-0.1c-0.1,0-0.2,0-0.3,0v-0.1l0.1-0.4"/>
						<path class="st7" d="M75,51.2c0,0.1,0.1,0.2,0.1,0.2s0.2,0.1,0.3,0"/>
					</g>
				</g>
				<polyline class="st7" points="74,51.9 74,51.8 74.3,51.4 74.2,51.2 73.8,51.2 73.4,50.9 73.6,50.5 				"/>
				<polyline class="st6" points="72.6,53.2 71.1,54 71.1,58.8 74.6,60.9 78.2,58.8 78.2,54 76.6,53 				"/>
				<g>
					<defs>
						<rect id="SVGID_9_" x="4.8" y="10" width="86.8" height="99.5"/>
					</defs>
					<clipPath id="SVGID_10_">
						<use xlink:href="#SVGID_9_"  style="overflow:visible;"/>
					</clipPath>
					<g class="st11">
						<path class="st7" d="M14.7,24.2c-0.7,0.1-1.2,0.8-1.2,1.5v1.1c0,0.4,0.7,0.8,1.5,0.8s1.5-0.3,1.5-0.8v-1.1
							c0-0.7-0.5-1.4-1.2-1.5V24c0-0.1-0.1-0.2-0.2-0.2s-0.2,0.1-0.2,0.2V24.2z"/>
					</g>
				</g>
				<polyline class="st6" points="84.9,67.5 74.6,73.4 6.6,34.1 				"/>
				<polyline class="st6" points="38.2,86.9 36.3,85.7 34.5,86.8 37,88.2 38.2,87.4 				"/>
				<line class="st6" x1="38.2" y1="86.9" x2="36.3" y2="85.7"/>
				<line class="st6" x1="38.2" y1="88.5" x2="37.3" y2="88"/>
				<g>
					<defs>
						<rect id="SVGID_11_" x="4.8" y="10" width="86.8" height="99.5"/>
					</defs>
					<clipPath id="SVGID_12_">
						<use xlink:href="#SVGID_11_"  style="overflow:visible;"/>
					</clipPath>
					<g class="st12">
						<path class="st6" d="M36.7,83.5c-0.2,0.2-0.4,0.5-0.4,0.8v1.5"/>
					</g>
				</g>
				<polyline class="st6" points="35.9,87.6 35.4,87.9 6.5,71.6 				"/>
				<line class="st6" x1="35.4" y1="87.9" x2="35.4" y2="87.3"/>
				<g>
					<defs>
						<rect id="SVGID_13_" x="4.8" y="10" width="86.8" height="99.5"/>
					</defs>
					<clipPath id="SVGID_14_">
						<use xlink:href="#SVGID_13_"  style="overflow:visible;"/>
					</clipPath>
					<g class="st13">
						<path class="st6" d="M82.5,102.8v-5.5l-5.5,3v5.7l-2.4,1.4l-18.3-8.7l-14.7-7.4l-3.4-1.9v-3.8c-0.1-0.9-0.7-1.7-1.4-2.1
							c-1-0.6-1.4,0.5-1.4,0.8v1.9"/>
					</g>
				</g>
				<polyline class="st6" points="78.6,103.2 78.6,101.8 77.7,102.3 77.7,103.7 				"/>
				<g>
					<defs>
						<rect id="SVGID_15_" x="4.8" y="10" width="86.8" height="99.5"/>
					</defs>
					<clipPath id="SVGID_16_">
						<use xlink:href="#SVGID_15_"  style="overflow:visible;"/>
					</clipPath>
					<g class="st14">
						<path class="st6" d="M83.3,66.4l1.6,1v33.9l-2.4,1.4c-1.2-0.3-2.5-0.3-3.7,0.3l-1.3,0.7c-0.2,0.1-0.4,0.2-0.6,0.4"/>
					</g>
				</g>
				<polyline class="st7" points="36,42.3 41,39.3 41,37.4 29.1,29.6 21.8,33.8 				"/>
				<line class="st7" x1="41" y1="37.4" x2="36" y2="40.3"/>
				<g>
					<defs>
						<rect id="SVGID_17_" x="4.8" y="10" width="86.8" height="99.5"/>
					</defs>
					<clipPath id="SVGID_18_">
						<use xlink:href="#SVGID_17_"  style="overflow:visible;"/>
					</clipPath>
					<g class="st15">
						<g class="st0">
							<path class="st1" d="M197.9,73.9c0.7,0.5,0.7,1.1,0.2,1.5l-0.6-0.4c0.2-0.2,0.2-0.5-0.2-0.7c-0.5-0.3-1.2-0.3-1.8,0.1
								c-0.6,0.3-0.8,0.8-0.3,1.1c0.3,0.2,0.7,0.3,1.1,0.2l0.6,0.4c-0.8,0.3-1.6,0.2-2.3-0.3c-0.8-0.6-0.7-1.4,0.2-1.9
								C195.8,73.3,197.1,73.4,197.9,73.9z"/>
						</g>
						<g class="st0">
							<path class="st1" d="M202.1,76.9l-2,2.6l-0.6-0.4l0.5-0.6l-1.1-0.8l-1,0.3l-0.6-0.4l4.3-1L202.1,76.9z M199.6,77.5l0.7,0.5
								l0.7-0.9L199.6,77.5z"/>
						</g>
						<g class="st0">
							<path class="st1" d="M204.3,78.5l2.6,1.8l-0.6,0.3l-1-0.7l-2.6,1.5l-0.6-0.4l2.6-1.5l-1-0.7L204.3,78.5z"/>
						</g>
						<g class="st0">
							<path class="st1" d="M211.1,83.2L208,85l-0.6-0.4l1.3-0.8l-1.4-0.9l-1.3,0.8l-0.6-0.4l3.2-1.8l0.6,0.4l-1.3,0.7l1.4,0.9
								l1.3-0.7L211.1,83.2z"/>
							<path class="st1" d="M214.9,85.8l-0.6,0.3l-1.4-1l-0.7,0.4l1.3,0.9l-0.6,0.3l-1.3-0.9l-0.8,0.4l1.4,1l-0.6,0.3l-2-1.4
								l3.2-1.8L214.9,85.8z"/>
							<path class="st1" d="M215.2,88.6l-1.2,0.7l-0.6-0.4l3.2-1.8l1.2,0.9c0.6,0.4,0.7,0.9,0.1,1.3c-0.5,0.3-1.1,0.3-1.6,0.1
								l-0.4,1.3l-0.7-0.5l0.4-1.2L215.2,88.6z M215.8,88.3l0.6,0.4c0.3,0.2,0.7,0.2,0.9,0.1c0.3-0.2,0.3-0.4,0-0.6l-0.6-0.4
								L215.8,88.3z"/>
							<path class="st1" d="M218,92l-0.6-0.4l3.2-1.8l0.6,0.4L218,92z"/>
							<path class="st1" d="M222.3,95l-0.5-0.3l0.7-2.2l-2.1,1.2l-0.6-0.4l3.2-1.8l0.6,0.4l-0.7,2.1l2-1.2l0.6,0.4L222.3,95z"/>
							<path class="st1" d="M229.2,95.8l-0.6,0.3l-1.4-1l-0.7,0.4l1.3,0.9l-0.6,0.3l-1.3-0.9l-0.8,0.4l1.4,1l-0.6,0.3l-2-1.4
								l3.2-1.8L229.2,95.8z"/>
							<path class="st1" d="M233.1,98.5l0.6,0.4l-2.6,1.5l1.4,1l-0.6,0.3l-2-1.4L233.1,98.5z"/>
						</g>
						<g class="st0">
							<path class="st1" d="M236.2,104.6l-0.5-0.3l0.7-2.2l-2.1,1.2l-0.6-0.4l3.2-1.8l0.6,0.4l-0.7,2.1l2-1.2l0.6,0.4L236.2,104.6z"
								/>
						</g>
						<path class="st7" d="M263.1,101v-1.2c0-0.3-0.2-0.7-0.8-0.3c-0.4,0.2-0.7,0.6-0.7,1.1v1.3l-6.7,4l-8.8-6.2l-11.2-7.7l-9.4-6.5
							l-14-9.6l-19.9-14.3V27.4l1.4-0.8"/>
						<path class="st7" d="M200.2,17.4c0.3,0.9,0.1,1.6-0.5,1.6s-1.3-0.7-1.6-1.5s-0.1-1.6,0.5-1.6S199.9,16.5,200.2,17.4z"/>
						<path class="st7" d="M199.1,9.3c0,0.1-0.2,0.2-0.2,0.3l0.1,0.3c0.1,0.2,0.6,0.3,1.3,0.1s2.3-1,2.5-1.9l-0.3-0.5
							c-0.2,0-0.3,0-0.5,0"/>
						<path class="st7" d="M202.7,8.6c0.1,0.2,0.1,0.5,0,0.8c-0.2,1-1.2,1.6-2.1,1.4c-0.4-0.1-0.7-0.3-0.9-0.5l-0.1-0.1"/>
						<path class="st7" d="M199.3,9.7c-0.1-0.1-0.1-0.3-0.1-0.4c-0.1-1,0.5-1.9,1.5-2c0.6-0.1,1.2,0.1,1.6,0.5
							c0.1,0.1,0.2,0.3,0.3,0.4"/>
					</g>
				</g>
				<polygon class="st2" points="22.2,46 22.2,68.6 18.7,66.6 18.7,44 				"/>
				<line class="st16" x1="18.7" y1="46.7" x2="22.2" y2="48.7"/>
				<line class="st16" x1="18.7" y1="49.6" x2="22.2" y2="51.6"/>
				<line class="st16" x1="18.7" y1="52.4" x2="22.2" y2="54.4"/>
				<line class="st16" x1="18.7" y1="55.2" x2="22.2" y2="57.2"/>
				<line class="st16" x1="18.7" y1="58.1" x2="22.2" y2="60.1"/>
				<line class="st16" x1="18.7" y1="60.9" x2="22.2" y2="62.9"/>
				<line class="st16" x1="18.7" y1="63.7" x2="22.2" y2="65.7"/>
				<g>
					<defs>
						<rect id="SVGID_19_" x="105.5" y="4.9" width="86.9" height="105.3"/>
					</defs>
					<clipPath id="SVGID_20_">
						<use xlink:href="#SVGID_19_"  style="overflow:visible;"/>
					</clipPath>
					<g class="st17">
						<path class="st6" d="M3.3,103.8v-5.5l-5.5,3v5.6l-2.4,1.4l-18.3-8.6l-14.7-7.4l-3.4-1.9v-3.8c-0.1-0.9-0.6-1.7-1.4-2.1
							c-0.4-0.3-1-0.2-1.3,0.3c-0.1,0.2-0.2,0.4-0.2,0.6v1.9"/>
						<path class="st6" d="M4.1,67.5l1.6,1v33.9l-2.4,1.4c-1.2-0.4-2.5-0.3-3.7,0.3l-1.2,0.7c-0.2,0.1-0.4,0.2-0.6,0.4"/>
					</g>
				</g>
				<polyline class="st6" points="190.7,67.2 175.6,75.8 112.3,34.2 				"/>
				<polyline class="st6" points="190.7,70.1 175.6,78.6 112.3,37 				"/>
				<polyline class="st6" points="190.7,72.9 175.6,81.4 112.3,39.8 				"/>
				<polyline class="st6" points="190.7,75.8 175.6,84.3 112.3,42.7 				"/>
				<polyline class="st6" points="190.7,78.6 175.6,87.1 112.3,45.5 				"/>
				<polyline class="st6" points="190.7,81.5 175.6,90 112.3,48.4 				"/>
				<polyline class="st6" points="190.7,84.3 175.6,92.8 112.3,51.2 				"/>
				<polyline class="st6" points="190.7,87.2 175.6,95.7 112.3,54.1 				"/>
				<polyline class="st6" points="190.7,90 175.6,98.5 112.3,56.9 				"/>
				<polyline class="st6" points="190.7,92.8 175.6,101.4 112.3,59.8 				"/>
				<polyline class="st6" points="190.7,95.7 175.6,104.2 112.3,62.6 				"/>
				<line class="st6" x1="190.7" y1="95.7" x2="175.6" y2="104.2"/>
				<g class="st0">
					<path class="st1" d="M118.7,74.9c0.7,0.5,0.7,1.1,0.2,1.5l-0.6-0.4c0.2-0.2,0.2-0.5-0.2-0.7c-0.5-0.3-1.2-0.3-1.8,0.1
						c-0.6,0.3-0.8,0.8-0.3,1.1c0.3,0.2,0.7,0.3,1.1,0.2l0.6,0.4c-0.8,0.3-1.6,0.2-2.3-0.3c-0.8-0.6-0.7-1.4,0.2-1.9
						C116.6,74.4,117.8,74.4,118.7,74.9z"/>
				</g>
				<g class="st0">
					<path class="st1" d="M122.9,78l-2,2.6l-0.6-0.4l0.5-0.6l-1.1-0.8l-1,0.3l-0.6-0.4l4.3-1L122.9,78z M120.4,78.6l0.7,0.5l0.7-0.9
						L120.4,78.6z"/>
				</g>
				<g class="st0">
					<path class="st1" d="M125.1,79.5l2.6,1.8l-0.6,0.3l-1-0.7l-2.6,1.5l-0.6-0.4l2.6-1.5l-1-0.7L125.1,79.5z"/>
				</g>
				<g class="st0">
					<path class="st1" d="M131.9,84.2l-3.2,1.8l-0.6-0.4l1.3-0.8l-1.4-0.9l-1.3,0.8l-0.6-0.4l3.2-1.8l0.6,0.4l-1.3,0.7l1.4,0.9
						l1.3-0.7L131.9,84.2z"/>
					<path class="st1" d="M135.7,86.9l-0.6,0.3l-1.4-1l-0.7,0.4l1.3,0.9l-0.6,0.3l-1.3-0.9l-0.8,0.4l1.4,1l-0.6,0.3l-2-1.4l3.2-1.8
						L135.7,86.9z"/>
					<path class="st1" d="M136,89.6l-1.2,0.7l-0.6-0.4l3.2-1.8l1.2,0.9c0.6,0.4,0.7,0.9,0,1.3c-0.5,0.3-1.1,0.3-1.6,0.1l-0.4,1.3
						l-0.7-0.5l0.4-1.2L136,89.6z M136.6,89.3l0.6,0.4c0.3,0.2,0.7,0.2,0.9,0.1c0.3-0.2,0.3-0.4,0-0.6l-0.6-0.4L136.6,89.3z"/>
				</g>
				<g class="st0">
					<path class="st1" d="M138.8,93.1l-0.6-0.4l3.2-1.8l0.6,0.4L138.8,93.1z"/>
				</g>
				<g class="st0">
					<path class="st1" d="M143.1,96l-0.5-0.3l0.7-2.2l-2.1,1.2l-0.6-0.4l3.2-1.8l0.6,0.4l-0.7,2.1l2-1.2l0.6,0.4L143.1,96z"/>
					<path class="st1" d="M150,96.8l-0.6,0.3l-1.4-1l-0.7,0.4l1.3,0.9l-0.6,0.3l-1.3-0.9l-0.8,0.4l1.4,1l-0.6,0.3l-2-1.4l3.2-1.8
						L150,96.8z"/>
					<path class="st1" d="M153.9,99.5l0.6,0.4l-2.6,1.5l1.4,1l-0.6,0.3l-2-1.4L153.9,99.5z"/>
				</g>
				<g class="st0">
					<path class="st1" d="M156.9,105.7l-0.5-0.3l0.7-2.2l-2.1,1.2l-0.6-0.4l3.2-1.8l0.6,0.4l-0.7,2.1l2-1.2l0.6,0.4L156.9,105.7z"/>
				</g>
				<polyline class="st7" points="190.7,64.4 175.6,72.9 112.3,31.3 				"/>
				<line class="st7" x1="175.6" y1="70" x2="175.6" y2="106.9"/>
				<line class="st7" x1="183.3" y1="101.7" x2="182.4" y2="102.3"/>
				<polyline class="st7" points="183.3,101.7 183.9,102.1 190.7,98.1 190.7,61.5 				"/>
				<polyline class="st7" points="190.7,61.5 175.6,70.1 112.3,28.4 				"/>
				<g>
					<defs>
						<rect id="SVGID_21_" x="105.5" y="4.9" width="86.9" height="105.3"/>
					</defs>
					<clipPath id="SVGID_22_">
						<use xlink:href="#SVGID_21_"  style="overflow:visible;"/>
					</clipPath>
					<g class="st18">
						<path class="st7" d="M183.3,101.7v-0.8c0-0.1-0.1-0.3-0.2-0.4"/>
						<path class="st7" d="M183.9,102.1v-1.2c0-0.3-0.2-0.7-0.8-0.3c-0.4,0.2-0.7,0.6-0.7,1.1v1.3l-6.7,4l-8.9-6.2l-11.2-7.7
							l-9.4-6.5l-13.9-9.6l-19.9-14.4V28.4l1.4-0.8"/>
					</g>
				</g>
				<line class="st7" x1="178.1" y1="63" x2="178.1" y2="61.5"/>
				<line class="st7" x1="121.4" y1="31.1" x2="121.4" y2="33.6"/>
				<line class="st7" x1="178.1" y1="63" x2="178.9" y2="63.5"/>
				<line class="st7" x1="178.1" y1="61.5" x2="178.9" y2="62"/>
				<line class="st7" x1="121.8" y1="16" x2="121.8" y2="14"/>
				<line class="st7" x1="121.8" y1="16.1" x2="121.8" y2="13.9"/>
				<line class="st7" x1="121.5" y1="29.2" x2="121.5" y2="24.6"/>
				<polyline class="st7" points="122.9,32.7 121.4,33.6 113.7,28.6 113.7,26 116.3,24.5 				"/>
				<polyline class="st7" points="121.8,21.9 125.4,19.8 125.4,15.1 125.4,15 123.8,14 				"/>
				<g>
					<defs>
						<rect id="SVGID_23_" x="105.5" y="4.9" width="86.9" height="105.3"/>
					</defs>
					<clipPath id="SVGID_24_">
						<use xlink:href="#SVGID_23_"  style="overflow:visible;"/>
					</clipPath>
					<g class="st19">
						<path class="st7" d="M121,18.4c0.3,0.9,0.1,1.5-0.5,1.6s-1.3-0.7-1.6-1.6s-0.1-1.5,0.5-1.5S120.7,17.6,121,18.4z"/>
						<path class="st7" d="M122.6,18.5c-0.3,0.9-0.1,1.5,0.5,1.5s1.3-0.7,1.6-1.5s0.1-1.5-0.5-1.6S122.9,17.6,122.6,18.5z"/>
					</g>
				</g>
				<line class="st7" x1="121.5" y1="24.7" x2="127.3" y2="21.3"/>
				<line class="st7" x1="116.3" y1="21.3" x2="121.5" y2="24.7"/>
				<line class="st7" x1="113.7" y1="26" x2="121.4" y2="31.1"/>
				<polyline class="st7" points="125.4,19.6 125.8,19.8 125.8,21.3 125.8,21.4 121.8,23.7 121.8,23.6 121.8,17.3 				"/>
				<polyline class="st7" points="117.9,20.4 116.3,21.3 116.3,25.7 116.3,25.8 121.4,29.1 				"/>
				<polyline class="st7" points="127.5,23.6 130.6,25.6 130.6,27.3 				"/>
				<line class="st7" x1="121.7" y1="17.3" x2="125.4" y2="15.1"/>
				<line class="st7" x1="118.3" y1="15" x2="119.8" y2="14.2"/>
				<line class="st7" x1="118.3" y1="15" x2="121.8" y2="17.4"/>
				<polyline class="st7" points="125.8,20.2 127.4,21.3 127.4,21.3 127.4,25.6 127.3,25.7 121.4,29.2 				"/>
				<line class="st7" x1="119.8" y1="12.7" x2="121.8" y2="14"/>
				<line class="st7" x1="122.8" y1="12.1" x2="123.8" y2="12.7"/>
				<g>
					<defs>
						<rect id="SVGID_25_" x="105.5" y="4.9" width="86.9" height="105.3"/>
					</defs>
					<clipPath id="SVGID_26_">
						<use xlink:href="#SVGID_25_"  style="overflow:visible;"/>
					</clipPath>
					<g class="st20">
						<path class="st7" d="M119.9,10.3c0,0.1-0.2,0.2-0.2,0.3l0.1,0.3c0.1,0.2,0.6,0.3,1.3,0.1s2.3-1.1,2.5-1.9l-0.2-0.5
							c-0.2,0-0.3,0-0.5,0"/>
					</g>
				</g>
				<polyline class="st7" points="120.6,7.2 121.7,7.7 122,7.6 122.8,6.6 				"/>
				<g>
					<defs>
						<rect id="SVGID_27_" x="105.5" y="4.9" width="86.9" height="105.3"/>
					</defs>
					<clipPath id="SVGID_28_">
						<use xlink:href="#SVGID_27_"  style="overflow:visible;"/>
					</clipPath>
					<g class="st21">
						<path class="st7" d="M123.4,9.6c0.1,0.2,0.1,0.5,0,0.8c-0.2,1-1.1,1.6-2.1,1.4c0,0,0,0,0,0c-0.4-0.1-0.7-0.3-0.9-0.5l-0.1-0.1
							"/>
						<path class="st7" d="M120.1,10.7c-0.1-0.1-0.1-0.3-0.1-0.4c-0.1-1,0.5-1.9,1.5-2c0.6-0.1,1.2,0.1,1.6,0.5
							c0.1,0.1,0.2,0.3,0.3,0.4"/>
						<path class="st7" d="M123,12.3c0-0.1,0-0.1,0-0.2c0,0-0.1-0.1-0.1-0.1c-0.1,0-0.2,0-0.3,0.1c0,0,0-0.1,0-0.1l0,0l0.1-0.4"/>
						<path class="st7" d="M122.2,12.3c0,0.1,0.1,0.1,0.1,0.2s0.2,0.1,0.3,0"/>
					</g>
				</g>
				<polyline class="st7" points="121.2,13 121.2,12.8 121.4,12.4 121.4,12.3 121,12.2 120.6,12 120.8,11.5 				"/>
				<line class="st7" x1="118.3" y1="19.7" x2="121.8" y2="22"/>
				<polyline class="st7" points="121.8,23.8 117.9,21.3 117.8,21.3 117.8,19.9 117.8,19.9 118.2,19.7 118.3,19.6 118.3,15 				"/>
				<polyline class="st7" points="120.8,12 119.7,12.7 119.7,12.8 119.7,14.8 121.8,16.1 121.8,16.1 123.8,14.9 123.8,12.8 
					123.8,12.8 121.8,14 				"/>
				<line class="st7" x1="155.6" y1="49.9" x2="168.2" y2="57.9"/>
				<polyline class="st7" points="184.5,60.3 181.6,62 178.9,60.2 				"/>
				<line class="st7" x1="181.6" y1="66" x2="181.6" y2="62"/>
				<polyline class="st7" points="178.9,61.1 173.1,64.4 122.9,32.5 				"/>
				<line class="st6" x1="190.7" y1="61.5" x2="130.6" y2="26.7"/>
				<line class="st6" x1="170" y1="50.3" x2="134.4" y2="29.6"/>
				<line class="st7" x1="173.1" y1="65.9" x2="173.1" y2="64.4"/>
				<line class="st7" x1="168.2" y1="59.6" x2="168.2" y2="57.9"/>
				<polygon class="st7" points="175.7,53.5 175.7,55.2 168.2,59.7 155.6,51.6 155.6,49.9 161.2,46.6 168.6,51.1 170.2,50.2 				"/>
				<line class="st7" x1="175.7" y1="53.5" x2="168.2" y2="57.9"/>
				<line class="st7" x1="134.4" y1="29.6" x2="129" y2="32.7"/>
				<polygon class="st7" points="124.4,31.6 124.3,29.8 124.3,29.8 129.6,26.7 134.4,29.6 134.4,31.1 134.4,31.1 129,34.5 				"/>
				<polyline class="st7" points="178,63 173.1,65.9 122.9,34 122.9,34 122.9,32.5 124.3,31.6 				"/>
				<line class="st7" x1="129" y1="32.7" x2="124.4" y2="29.8"/>
				<line class="st7" x1="129" y1="34.4" x2="129" y2="32.7"/>
				<polyline class="st7" points="183.4,59.6 183.8,59.4 183.8,58.3 175.7,53.6 				"/>
				<line class="st7" x1="183.8" y1="58.2" x2="183.1" y2="58.6"/>
				<line class="st7" x1="130.6" y1="25.7" x2="121.4" y2="31.1"/>
				<polyline class="st7" points="180.4,59.3 178.9,60.2 178.9,64.3 181.6,66 184.5,64.4 184.5,60.3 183.3,59.6 				"/>
				<g>
					<defs>
						<rect id="SVGID_29_" x="105.5" y="4.9" width="86.9" height="105.3"/>
					</defs>
					<clipPath id="SVGID_30_">
						<use xlink:href="#SVGID_29_"  style="overflow:visible;"/>
					</clipPath>
					<g class="st22">
						<path class="st7" d="M181.6,57.8c-0.7,0.1-1.2,0.8-1.2,1.5v1.1c0,0.4,0.6,0.8,1.5,0.8s1.5-0.3,1.5-0.8v-1.1
							c0-0.7-0.5-1.4-1.2-1.5v-0.2c0-0.1-0.1-0.2-0.2-0.2s-0.2,0.1-0.2,0.2V57.8z"/>
					</g>
				</g>
				<polygon class="st2" points="157.9,61.2 157.9,84 163,87.3 163,64.6 				"/>
				<line class="st16" x1="163" y1="67.5" x2="157.9" y2="64.2"/>
				<line class="st16" x1="163" y1="70.3" x2="157.9" y2="67"/>
				<line class="st16" x1="163" y1="73.2" x2="157.9" y2="69.8"/>
				<line class="st16" x1="163" y1="76" x2="157.9" y2="72.7"/>
				<line class="st16" x1="163" y1="78.8" x2="158" y2="75.5"/>
				<line class="st16" x1="163" y1="81.6" x2="157.9" y2="78.4"/>
				<line class="st16" x1="163" y1="84.5" x2="157.9" y2="81.2"/>
			</g>
		</g>
	</g>
</g>
</svg>
