<svg id="Layer_1" data-name="Layer 1" xmlns="http://www.w3.org/2000/svg" xmlns:xlink="http://www.w3.org/1999/xlink" viewBox="0 0 189.94 92.56"><defs><style>.cls-1,.cls-11,.cls-15,.cls-3,.cls-4{fill:none;}.cls-2{fill:#d2d3d4;}.cls-3,.cls-4{stroke:#231f20;}.cls-11,.cls-15,.cls-3,.cls-4{stroke-miterlimit:10;}.cls-11,.cls-3{stroke-width:0.15px;}.cls-4{stroke-width:0.14px;}.cls-5{clip-path:url(#clip-path);}.cls-6{font-size:5.26px;fill:#d1d3d4;font-family:Calibre-Semibold, Calibre;font-weight:700;}.cls-7{letter-spacing:0.22em;}.cls-8{letter-spacing:0.18em;}.cls-9{letter-spacing:0.24em;}.cls-10{fill:#231f20;}.cls-11{stroke:#fff;}.cls-12{clip-path:url(#clip-path-5);}.cls-13{fill:#010101;}.cls-14{opacity:0.5;}.cls-15{stroke:#d0d2d3;stroke-width:1.09px;}</style><clipPath id="clip-path"><rect class="cls-1" x="1.8" y="0.17" width="69.1" height="87.25"/></clipPath><clipPath id="clip-path-5"><rect class="cls-1" x="91.32" y="49.89" width="78.57" height="17.73"/></clipPath></defs><title>Artboard 2</title><path class="cls-2" d="M83.55,43.8c-.62,0-1-.43-1-1.14v-1.4H86v1.29c0,.71-.32,1.14-.92,1.14a.75.75,0,0,1-.72-.44A.82.82,0,0,1,83.55,43.8Zm-.36-1.86v.66c0,.33.16.51.42.51s.42-.18.42-.51v-.66Zm1.39.57c0,.33.13.51.4.51s.39-.18.39-.51v-.57h-.79Z"/><path class="cls-2" d="M83.85,46.21H82.59v-.7H86V46.9a1,1,0,0,1-1.08,1.18,1,1,0,0,1-1-.77l-1.31.89v-.79l1.26-.83Zm.58,0v.64c0,.36.18.54.46.54s.48-.18.48-.54v-.64Z"/><path class="cls-2" d="M82.54,51.24a1.75,1.75,0,1,1,1.74,1.6A1.6,1.6,0,0,1,82.54,51.24Zm2.85,0c0-.53-.45-.88-1.11-.88s-1.12.35-1.12.88.46.89,1.12.89S85.39,51.78,85.39,51.24Z"/><path class="cls-2" d="M86,56.13l-3.38,1.29v-.71l.81-.3V55.14l-.81-.29v-.71L86,55.43Zm-2-.77v.83l1.12-.41Z"/><path class="cls-2" d="M86,59v1.2a1.69,1.69,0,0,1-3.38,0V59Zm-2.76,1.17a1.07,1.07,0,0,0,2.14,0v-.47H83.21Z"/><path class="cls-2" d="M86,65.68l-2.27.59,2.27.55v.69l-3.38-.87V66l2.23-.59-2.23-.6v-.64L86,63.28V64l-2.27.55,2.27.59Z"/><path class="cls-2" d="M86,70.66,82.59,72v-.71l.81-.3V69.67l-.81-.29v-.71L86,70Zm-2-.77v.83l1.12-.41Z"/><path class="cls-2" d="M86,75.32v.74l-2.1-1.22H82.59v-.7h1.28L86,72.93v.76l-1.43.82Z"/><path class="cls-2" d="M180.94,35.06v.7h-2.75v1.57h-.62V35.06Z"/><path class="cls-2" d="M180.94,40.81l-3.37,1.29v-.71l.81-.31V39.82l-.81-.3v-.7l3.37,1.29ZM179,40v.82l1.12-.41Z"/><path class="cls-2" d="M177.57,43.72h3.37V46h-.61V44.41h-.86v1.44h-.61V44.41h-1.29v-.69Z"/><path class="cls-2" d="M180.94,49.21l-3.37,1.29v-.71l.81-.3V48.22l-.81-.29v-.71l3.37,1.3Zm-2-.77v.83l1.12-.41Z"/><path class="cls-2" d="M180.94,53.87v.74l-2.09-1.23h-1.28v-.7h1.28l2.09-1.21v.76l-1.43.82Z"/><path class="cls-2" d="M180.94,58.5h-.61V56.9h-.74v1.45H179V56.9h-.8v1.6h-.62V56.21h3.37Z"/><path class="cls-2" d="M180.94,60.07V63h-.61V61.86h-2.76v-.7h2.76V60.07Z"/><path class="cls-2" d="M180.94,64.44v2.88h-.61V66.23h-2.76v-.71h2.76V64.44Z"/><path class="cls-2" d="M180.94,71.28h-.61v-1.6h-.74v1.46H179V69.68h-.8v1.6h-.62V69h3.37Z"/><path class="cls-2" d="M178.53,75.91a.64.64,0,0,0-.44.67c0,.34.16.57.43.57s.31-.12.38-.41l.13-.61a.93.93,0,0,1,.93-.85,1.08,1.08,0,0,1,1,1.21,1.21,1.21,0,0,1-1,1.32v-.69a.61.61,0,0,0,.4-.63c0-.31-.16-.53-.4-.53s-.31.13-.37.38l-.14.62c-.13.55-.44.88-.95.88a1.11,1.11,0,0,1-1.05-1.25,1.27,1.27,0,0,1,1-1.4v.72Z"/><path class="cls-2" d="M180.94,79.3v2.88h-.61V81.09h-2.76v-.71h2.76V79.3Z"/><path class="cls-2" d="M112.39,39.3h.7v2.76h1.57v.62h-2.27Z"/><path class="cls-2" d="M118.57,39.3v.62H117v.73h1.45v.6H117v.81h1.6v.62h-2.29V39.3Z"/><path class="cls-2" d="M121.64,42.73a1.75,1.75,0,1,1,1.6-1.74A1.61,1.61,0,0,1,121.64,42.73Zm0-2.85c-.53,0-.87.45-.87,1.11s.34,1.12.87,1.12.89-.46.89-1.12S122.18,39.88,121.64,39.88Z"/><path class="cls-2" d="M127.66,42.68h-.56l-1.59-2.25v2.25h-.67V39.3h.66L127,41.44V39.3h.68Z"/><path class="cls-2" d="M131.16,39.3l1.29,3.38h-.71l-.31-.82h-1.26l-.3.82h-.7l1.29-3.38Zm-.77,2h.82l-.41-1.12Z"/><path class="cls-2" d="M134.65,41.42v1.26H134V39.3h1.39a1.05,1.05,0,0,1,1.19,1.08,1,1,0,0,1-.77,1l.89,1.31h-.79L135,41.42Zm0-.58h.65c.35,0,.53-.19.53-.47s-.18-.47-.53-.47h-.65Z"/><path class="cls-2" d="M138.15,39.3h1.19a1.69,1.69,0,0,1,0,3.38h-1.19Zm1.17,2.76a1.07,1.07,0,0,0,0-2.14h-.47v2.14Z"/><path class="cls-2" d="M145.36,41.72a.63.63,0,0,0,.67.43c.34,0,.56-.15.56-.42s-.12-.32-.41-.38l-.61-.14c-.48-.11-.85-.37-.85-.92a1.09,1.09,0,0,1,1.21-1,1.22,1.22,0,0,1,1.33,1h-.7a.59.59,0,0,0-.62-.4c-.32,0-.54.15-.54.39s.13.31.38.37l.62.14c.55.13.88.44.88,1,0,.66-.54,1-1.25,1a1.28,1.28,0,0,1-1.4-1Z"/><path class="cls-2" d="M148.64,39.3h2.88v.62h-1.09v2.76h-.71V39.92h-1.08Z"/><path class="cls-2" d="M109.91,74.55a1.34,1.34,0,0,1,1.42,1.14h-.7a.72.72,0,0,0-.72-.52c-.54,0-.85.48-.85,1.12s.31,1.11.85,1.11a.72.72,0,0,0,.72-.52h.7A1.35,1.35,0,0,1,109.91,78a1.75,1.75,0,0,1,0-3.48Z"/><path class="cls-2" d="M114.65,74.6,115.94,78h-.71l-.31-.82h-1.26l-.3.82h-.7L114,74.6Zm-.77,2h.82l-.41-1.12Z"/><path class="cls-2" d="M117,74.6h2.88v.62h-1.09V78h-.71V75.22H117Z"/><path class="cls-2" d="M124.51,74.6V78h-.7V76.56h-1.53V78h-.7V74.6h.7v1.34h1.53V74.6Z"/><path class="cls-2" d="M128.66,74.6v.62h-1.6V76h1.45v.6h-1.45v.8h1.6V78h-2.29V74.6Z"/><path class="cls-2" d="M131.12,76.72V78h-.7V74.6h1.39A1,1,0,0,1,133,75.67a1,1,0,0,1-.77,1l.89,1.31h-.79l-.84-1.26Zm0-.58h.64c.36,0,.54-.19.54-.47s-.18-.47-.54-.47h-.64Z"/><path class="cls-2" d="M135.43,78h-.7V74.6h.7Z"/><path class="cls-2" d="M140.1,78h-.55L138,75.73V78h-.67V74.6h.66l1.49,2.13V74.6h.67Z"/><path class="cls-2" d="M144.25,74.6v.62h-1.6V76h1.45v.6h-1.45v.8h1.6V78H142V74.6Z"/><path class="cls-2" d="M148.39,74.6h.7v2.75h1.57V78h-2.27Z"/><path class="cls-2" d="M155.21,78h-.56l-1.59-2.25V78h-.68V74.6H153l1.49,2.13V74.6h.68V78Z"/><polyline class="cls-3" points="69.43 50.48 58.14 56.85 7.25 23.33"/><polyline class="cls-3" points="69.43 52.98 58.14 59.35 7.25 25.83"/><polyline class="cls-3" points="69.43 55.48 58.14 61.85 7.25 28.33"/><polyline class="cls-3" points="69.43 57.97 58.14 64.35 7.25 30.83"/><polyline class="cls-3" points="69.43 60.47 58.14 66.85 7.25 33.32"/><polyline class="cls-3" points="69.43 62.97 58.14 69.34 7.25 35.82"/><polyline class="cls-3" points="69.43 65.47 58.14 71.84 7.25 38.32"/><polyline class="cls-3" points="69.43 67.97 58.14 74.34 7.25 40.82"/><polyline class="cls-3" points="69.43 70.46 58.14 76.84 7.25 43.32"/><polyline class="cls-3" points="69.43 72.96 58.14 79.33 7.25 45.81"/><polyline class="cls-3" points="69.43 75.46 58.14 81.83 7.25 48.31"/><line class="cls-4" x1="16.9" y1="25.59" x2="16.9" y2="24.24"/><line class="cls-4" x1="21.85" y1="26.23" x2="21.85" y2="24.72"/><line class="cls-4" x1="17.79" y1="23.69" x2="17.79" y2="22.18"/><line class="cls-4" x1="26.61" y1="23.47" x2="26.61" y2="21.96"/><line class="cls-4" x1="59.51" y1="48.33" x2="59.51" y2="47.01"/><line class="cls-4" x1="41.2" y1="38.51" x2="41.2" y2="37.19"/><line class="cls-4" x1="15.21" y1="23.17" x2="15.21" y2="25.41"/><line class="cls-4" x1="23.3" y1="18.37" x2="23.3" y2="19.91"/><line class="cls-4" x1="59.51" y1="48.33" x2="60.22" y2="48.78"/><line class="cls-4" x1="20.53" y1="18.42" x2="20.53" y2="14.42"/><line class="cls-4" x1="12.5" y1="13.32" x2="12.5" y2="9.03"/><line class="cls-4" x1="15.59" y1="9.88" x2="15.59" y2="7.99"/><line class="cls-4" x1="15.57" y1="16.6" x2="15.57" y2="10.93"/><line class="cls-4" x1="18.76" y1="13.28" x2="18.76" y2="9.1"/><line class="cls-4" x1="15.59" y1="9.98" x2="15.59" y2="8.08"/><line class="cls-4" x1="19.06" y1="14.59" x2="19.06" y2="13.25"/><line class="cls-4" x1="12.14" y1="14.77" x2="12.14" y2="13.43"/><line class="cls-4" x1="15.3" y1="21.47" x2="15.3" y2="17.5"/><line class="cls-4" x1="10.8" y1="18.46" x2="10.8" y2="14.59"/><polyline class="cls-4" points="17.07 24.32 15.21 25.41 8.45 20.96 8.45 18.74 10.79 17.36"/><line class="cls-4" x1="16.87" y1="24.28" x2="17.8" y2="23.73"/><line class="cls-4" x1="15.24" y1="21.45" x2="10.8" y2="18.52"/><line class="cls-4" x1="15.59" y1="15.13" x2="18.99" y2="13.13"/><line class="cls-4" x1="15.31" y1="16.87" x2="18.99" y2="14.71"/><g class="cls-5"><path class="cls-4" d="M14.92,12c.26.75.05,1.37-.46,1.37S13.31,12.8,13,12s0-1.36.46-1.36S14.65,11.28,14.92,12Z"/><path class="cls-4" d="M16.26,12.06c-.26.76-.05,1.37.46,1.37s1.15-.61,1.42-1.36.05-1.37-.46-1.37S16.53,11.31,16.26,12.06Z"/></g><line class="cls-4" x1="15.3" y1="17.54" x2="20.57" y2="14.44"/><line class="cls-4" x1="15.21" y1="21.5" x2="20.45" y2="18.42"/><line class="cls-4" x1="11.97" y1="13.43" x2="12.48" y2="13.13"/><line class="cls-4" x1="10.8" y1="14.57" x2="15.24" y2="17.5"/><line class="cls-4" x1="8.45" y1="18.72" x2="15.21" y2="23.17"/><line class="cls-4" x1="18.83" y1="13.08" x2="19.06" y2="13.25"/><line class="cls-4" x1="12.14" y1="13.78" x2="10.8" y2="14.59"/><line class="cls-4" x1="8.45" y1="20.07" x2="7.25" y2="20.79"/><line class="cls-4" x1="20.59" y1="16.58" x2="23.3" y2="18.37"/><line class="cls-4" x1="15.48" y1="11.09" x2="18.78" y2="9.11"/><line class="cls-4" x1="12.5" y1="9.07" x2="13.8" y2="8.31"/><line class="cls-4" x1="15.48" y1="10.05" x2="17.47" y2="8.88"/><line class="cls-4" x1="15.6" y1="8.13" x2="17.43" y2="7.05"/><line class="cls-4" x1="12.5" y1="9.03" x2="15.57" y2="11.13"/><line class="cls-4" x1="17.35" y1="8.09" x2="18.78" y2="9.03"/><line class="cls-4" x1="19.06" y1="13.6" x2="20.57" y2="14.59"/><line class="cls-4" x1="13.78" y1="8.82" x2="15.64" y2="10.05"/><line class="cls-4" x1="13.93" y1="7.07" x2="15.59" y2="8.16"/><line class="cls-4" x1="16.49" y1="6.45" x2="17.44" y2="7.08"/><g class="cls-5"><path class="cls-4" d="M13.94,4.93a2.52,2.52,0,0,0-.18.27l.1.29c.11.15.51.28,1.17.09s2-.92,2.18-1.67L17,3.49a.89.89,0,0,0-.43,0"/></g><polyline class="cls-4" points="14.56 2.2 15.5 2.66 15.79 2.54 16.45 1.62"/><g class="cls-5"><path class="cls-4" d="M17.05,4.29a1.47,1.47,0,0,1,0,.66A1.57,1.57,0,0,1,15.2,6.18a1.55,1.55,0,0,1-.83-.46l-.07,0"/><path class="cls-4" d="M14.06,5.26A1.66,1.66,0,0,1,14,4.88a1.58,1.58,0,0,1,1.32-1.8,1.53,1.53,0,0,1,1.38.48,1.67,1.67,0,0,1,.25.37"/><path class="cls-4" d="M16.67,6.65a1,1,0,0,0,0-.17.13.13,0,0,0-.09-.07.94.94,0,0,0-.28,0V6.33L16.38,6"/><path class="cls-4" d="M15.93,6.63c0,.07.05.14.06.19s.17.11.31,0"/></g><polyline class="cls-4" points="15.09 7.24 15.09 7.09 15.29 6.76 15.26 6.63 14.88 6.57 14.54 6.37 14.68 5.97"/><line class="cls-4" x1="12.52" y1="13.13" x2="15.59" y2="15.15"/><line class="cls-4" x1="12.17" y1="14.57" x2="15.38" y2="16.68"/><line class="cls-4" x1="14.73" y1="6.38" x2="13.78" y2="7.01"/><line class="cls-4" x1="17.35" y1="8.93" x2="17.35" y2="7.15"/><line class="cls-4" x1="13.78" y1="8.82" x2="13.78" y2="6.99"/><line class="cls-4" x1="41.2" y1="37.19" x2="51.65" y2="43.84"/><line class="cls-4" x1="53.39" y1="37.73" x2="57.72" y2="40.28"/><line class="cls-4" x1="17.79" y1="23.71" x2="21.85" y2="26.29"/><line class="cls-4" x1="17.79" y1="22.13" x2="21.85" y2="24.71"/><line class="cls-4" x1="22.56" y1="19.38" x2="26.61" y2="21.96"/><line class="cls-4" x1="26.61" y1="22.72" x2="52.98" y2="37.85"/><line class="cls-4" x1="42.94" y1="35.77" x2="50.03" y2="39.84"/><polyline class="cls-4" points="63.84 45.83 64.22 45.6 64.22 44.3 57.71 40.56"/><polyline class="cls-4" points="65.14 47.58 62.65 49.05 60.24 47.52"/><line class="cls-4" x1="62.64" y1="51.3" x2="62.64" y2="49.05"/><polyline class="cls-4" points="59.51 48.33 55.93 50.42 16.88 25.59"/><polyline class="cls-4" points="61.68 45.74 55.93 49.1 16.84 24.24"/><line class="cls-4" x1="55.93" y1="50.42" x2="55.93" y2="49.1"/><line class="cls-4" x1="57.71" y1="40.28" x2="51.65" y2="43.83"/><polyline class="cls-4" points="57.72 40.28 57.72 41.56 51.67 45.1 41.2 38.44"/><line class="cls-4" x1="51.65" y1="45.08" x2="51.65" y2="43.84"/><line class="cls-4" x1="53.39" y1="37.73" x2="49.69" y2="39.9"/><line class="cls-4" x1="43.42" y1="35.91" x2="41.2" y2="37.21"/><line class="cls-4" x1="26.61" y1="23.44" x2="21.85" y2="26.24"/><line class="cls-4" x1="26.61" y1="21.96" x2="21.85" y2="24.75"/><line class="cls-4" x1="22.54" y1="19.38" x2="17.78" y2="22.17"/><line class="cls-4" x1="23.3" y1="18.44" x2="15.31" y2="23.12"/><line class="cls-4" x1="64.16" y1="44.29" x2="62.9" y2="45.02"/><text class="cls-6" transform="matrix(0.82, 0.57, -0.86, 0.5, 5.16, 57.75)"><tspan class="cls-7">C</tspan><tspan class="cls-8" x="4.31" y="0">A</tspan><tspan class="cls-9" x="8.53" y="0">THERINE L</tspan><tspan x="43.12" y="0">N</tspan></text><polyline class="cls-4" points="69.43 47.98 58.14 54.36 7.25 20.84"/><polyline class="cls-4" points="61.57 46.72 60.22 47.52 60.22 49.76 62.65 51.3 65.14 49.84 65.14 47.58 64.13 46.94"/><line class="cls-4" x1="58.16" y1="54.37" x2="58.16" y2="84.23"/><line class="cls-4" x1="64.16" y1="80.06" x2="63.34" y2="80.54"/><polyline class="cls-4" points="64.16 80.06 64.67 80.39 69.43 77.59 69.43 47.97 64.22 44.98"/><g class="cls-5"><path class="cls-4" d="M64.16,80.06v-.72A.45.45,0,0,0,64,79"/><path class="cls-4" d="M64.68,80.39v-1c0-.25-.22-.58-.72-.29a1.21,1.21,0,0,0-.62,1v1.16l-5.18,3-7.8-5.4L40.5,72.09l-8.27-5.68-16.77-12L7.25,48.45V20.84"/><path class="cls-4" d="M62.64,45.37a1.33,1.33,0,0,0-1.08,1.33v.93c0,.37.58.66,1.29.66s1.29-.29,1.29-.66V46.7a1.32,1.32,0,0,0-1.07-1.33v-.14c0-.07-.08-.15-.22-.15s-.21.08-.21.15Z"/></g><polygon class="cls-10" points="58.1 56.76 51.75 52.58 51.75 50.23 58.1 54.41 58.1 56.76"/><polygon class="cls-10" points="62.92 54.08 58.21 56.76 58.21 54.37 62.92 51.73 62.92 54.08"/><polygon class="cls-10" points="58.1 59.26 51.75 55.08 51.75 52.72 58.1 56.9 58.1 59.26"/><polygon class="cls-10" points="62.92 56.59 58.21 59.27 58.21 56.88 62.92 54.22 62.92 56.59"/><polygon class="cls-10" points="58.1 61.76 51.75 57.58 51.75 55.21 58.1 59.38 58.1 61.76"/><polygon class="cls-10" points="62.92 59.08 58.21 61.76 58.21 59.37 62.92 56.71 62.92 59.08"/><polygon class="cls-10" points="58.1 64.25 51.75 60.07 51.75 57.71 58.1 61.89 58.1 64.25"/><polygon class="cls-10" points="62.92 61.57 58.21 64.25 58.21 61.86 62.92 59.2 62.92 61.57"/><polygon class="cls-10" points="58.1 66.75 51.75 62.57 51.75 60.2 58.1 64.38 58.1 66.75"/><polygon class="cls-10" points="62.92 64.08 58.21 66.75 58.21 64.36 62.92 61.7 62.92 64.08"/><polygon class="cls-10" points="58.1 69.25 51.75 65.07 51.75 62.7 58.1 66.89 58.1 69.25"/><polygon class="cls-10" points="62.92 66.57 58.21 69.25 58.21 66.86 62.92 64.2 62.92 66.57"/><polyline class="cls-11" points="51.75 52.65 58.14 56.85 62.92 54.16"/><polyline class="cls-11" points="51.75 55.14 58.14 59.35 62.92 56.66"/><polyline class="cls-11" points="51.75 57.64 58.14 61.85 62.92 59.15"/><polyline class="cls-11" points="51.75 60.14 58.14 64.35 62.92 61.65"/><polyline class="cls-11" points="51.75 62.64 58.14 66.85 62.92 64.15"/><g class="cls-12"><polygon class="cls-13" points="158.25 61.02 163.48 61.02 163.48 59.64 164.6 59.64 164.6 57.91 168.01 57.91 168.01 66.66 159.12 66.15 159.13 65.96 158.81 65.92 158.81 63.38 157.7 63.38 157.7 61.37 158.25 61.37 158.25 61.02"/><g class="cls-12"><polygon class="cls-15" points="168.01 51.07 168.01 66.45 92.27 61.73 92.3 51.07 168.01 51.07"/></g></g></svg>