<?xml version="1.0" encoding="utf-8"?>
<!-- Generator: Adobe Illustrator 23.0.0, SVG Export Plug-In . SVG Version: 6.00 Build 0)  -->
<svg version="1.1" id="Layer_1" xmlns="http://www.w3.org/2000/svg" xmlns:xlink="http://www.w3.org/1999/xlink" x="0px" y="0px"
	 viewBox="0 0 200.6 198.9" style="enable-background:new 0 0 200.6 198.9;" xml:space="preserve">
<style type="text/css">
	.st0{enable-background:new    ;}
	.st1{fill:#D1D3D4;}
	.st2{fill:#231F20;}
	.st3{clip-path:url(#SVGID_2_);}
	.st4{fill:none;stroke:#D1D3D4;stroke-width:1.09;stroke-miterlimit:10;}
	.st5{clip-path:url(#SVGID_4_);}
	.st6{fill:none;stroke:#231F20;stroke-width:0.15;stroke-miterlimit:10;}
	.st7{fill:none;stroke:#231F20;stroke-width:0.14;stroke-miterlimit:10;}
	.st8{clip-path:url(#SVGID_6_);}
	.st9{clip-path:url(#SVGID_8_);}
	.st10{fill:none;stroke:#231F20;stroke-width:0.14;stroke-linejoin:bevel;}
	.st11{clip-path:url(#SVGID_10_);}
	.st12{clip-path:url(#SVGID_12_);}
	.st13{clip-path:url(#SVGID_14_);}
	.st14{clip-path:url(#SVGID_16_);}
	.st15{clip-path:url(#SVGID_18_);}
	.st16{fill:none;stroke:#FFFFFF;stroke-width:0.15;stroke-miterlimit:10;}
	.st17{clip-path:url(#SVGID_20_);}
	.st18{clip-path:url(#SVGID_22_);}
	.st19{clip-path:url(#SVGID_24_);}
	.st20{clip-path:url(#SVGID_26_);}
	.st21{clip-path:url(#SVGID_28_);}
	.st22{clip-path:url(#SVGID_30_);}
	.st23{clip-path:url(#SVGID_32_);}
</style>
<title>residence_N_7-12_key</title>
<g>
	<g id="Layer_1_copy">
		<g>
			<g class="st0">
				<path class="st1" d="M34,143.2c-0.8,0-1.2-0.5-1.2-1.4V140h4.3v1.6c0,0.9-0.4,1.5-1.2,1.5c-0.5,0-0.8-0.3-0.9-0.6
					C34.9,142.9,34.5,143.2,34,143.2z M33.6,140.8v0.8c0,0.4,0.2,0.6,0.5,0.6c0.3,0,0.5-0.2,0.5-0.6v-0.8H33.6z M35.3,141.5
					c0,0.4,0.2,0.7,0.5,0.7c0.3,0,0.5-0.2,0.5-0.7v-0.7h-1V141.5z"/>
				<path class="st1" d="M34.4,145.7h-1.6v-0.9h4.3v1.8c0,0.9-0.5,1.5-1.4,1.5c-0.7,0-1.1-0.4-1.3-1l-1.7,1.1v-1l1.6-1.1V145.7z
					 M35.1,145.7v0.8c0,0.4,0.2,0.7,0.6,0.7c0.4,0,0.6-0.2,0.6-0.7v-0.8H35.1z"/>
			</g>
			<g class="st0">
				<path class="st1" d="M32.7,152.7c0-1.2,0.9-2,2.2-2c1.3,0,2.2,0.8,2.2,2c0,1.2-0.9,2-2.2,2C33.7,154.7,32.7,153.9,32.7,152.7z
					 M36.4,152.7c0-0.7-0.6-1.1-1.4-1.1c-0.8,0-1.4,0.4-1.4,1.1c0,0.7,0.6,1.1,1.4,1.1C35.8,153.8,36.4,153.4,36.4,152.7z"/>
			</g>
			<g class="st0">
				<path class="st1" d="M37.1,158.9l-4.3,1.6v-0.9l1-0.4v-1.6l-1-0.4v-0.9l4.3,1.6V158.9z M34.6,157.9v1.1l1.4-0.5L34.6,157.9z"/>
			</g>
			<g class="st0">
				<path class="st1" d="M37.1,162.6v1.5c0,1.3-0.8,2.1-2.2,2.1s-2.2-0.8-2.2-2.1v-1.5H37.1z M33.6,164.1c0,0.8,0.5,1.3,1.4,1.3
					c0.8,0,1.4-0.4,1.4-1.3v-0.6h-2.7V164.1z"/>
			</g>
			<g class="st0">
				<path class="st1" d="M37.1,171.1l-2.9,0.7l2.9,0.7v0.9l-4.3-1.1v-0.8l2.8-0.8l-2.8-0.8v-0.8l4.3-1.1v0.9l-2.9,0.7l2.9,0.8V171.1
					z"/>
			</g>
			<g class="st0">
				<path class="st1" d="M37.1,177.4l-4.3,1.6v-0.9l1-0.4v-1.6l-1-0.4v-0.9l4.3,1.6V177.4z M34.6,176.4v1.1l1.4-0.5L34.6,176.4z"/>
			</g>
			<g class="st0">
				<path class="st1" d="M37.1,183.3v0.9l-2.7-1.6h-1.6v-0.9h1.6l2.7-1.5v1l-1.8,1L37.1,183.3z"/>
			</g>
		</g>
		<g>
			<g class="st0">
				<path class="st1" d="M167.5,132.1v0.9H164v2h-0.8v-2.9H167.5z"/>
			</g>
			<g class="st0">
				<path class="st1" d="M167.5,139.4l-4.3,1.6v-0.9l1-0.4v-1.6l-1-0.4v-0.9l4.3,1.6V139.4z M165,138.4v1.1l1.4-0.5L165,138.4z"/>
			</g>
			<g class="st0">
				<path class="st1" d="M163.2,143.1h4.3v2.9h-0.8v-2h-1.1v1.8h-0.8V144h-1.6V143.1z"/>
			</g>
			<g class="st0">
				<path class="st1" d="M167.5,150.1l-4.3,1.6v-0.9l1-0.4v-1.6l-1-0.4v-0.9l4.3,1.6V150.1z M165,149.1v1.1l1.4-0.5L165,149.1z"/>
			</g>
			<g class="st0">
				<path class="st1" d="M167.5,156v0.9l-2.7-1.6h-1.6v-0.9h1.6l2.7-1.5v1l-1.8,1L167.5,156z"/>
				<path class="st1" d="M167.5,161.4h-0.8v-2h-0.9v1.8h-0.8v-1.8h-1v2h-0.8v-2.9h4.3V161.4z"/>
				<path class="st1" d="M167.5,162.8v3.7h-0.8v-1.4h-3.5v-0.9h3.5v-1.4H167.5z"/>
				<path class="st1" d="M167.5,167.8v3.7h-0.8v-1.4h-3.5v-0.9h3.5v-1.4H167.5z"/>
				<path class="st1" d="M167.5,176h-0.8v-2h-0.9v1.8h-0.8v-1.8h-1v2h-0.8V173h4.3V176z"/>
			</g>
			<g class="st0">
				<path class="st1" d="M164.5,184.1c-0.4,0.1-0.6,0.4-0.6,0.9c0,0.4,0.2,0.7,0.5,0.7c0.3,0,0.4-0.2,0.5-0.5l0.2-0.8
					c0.1-0.6,0.5-1.1,1.2-1.1c0.8,0,1.3,0.6,1.3,1.5c0,1-0.5,1.5-1.2,1.7v-0.9c0.3-0.1,0.5-0.3,0.5-0.8c0-0.4-0.2-0.7-0.5-0.7
					c-0.2,0-0.4,0.2-0.5,0.5l-0.2,0.8c-0.2,0.7-0.6,1.1-1.2,1.1c-0.8,0-1.3-0.7-1.3-1.6c0-1,0.5-1.6,1.3-1.8V184.1z"/>
			</g>
			<g class="st0">
				<path class="st1" d="M167.5,188.4v3.7h-0.8v-1.4h-3.5v-0.9h3.5v-1.4H167.5z"/>
			</g>
		</g>
		<g>
			<g class="st0">
				<path class="st1" d="M75.5,132.3h0.9v3.5h2v0.8h-2.9V132.3z"/>
				<path class="st1" d="M82.9,132.3v0.8h-2v0.9h1.8v0.8h-1.8v1h2v0.8H80v-4.3H82.9z"/>
			</g>
			<g class="st0">
				<path class="st1" d="M87.3,136.7c-1.2,0-2-0.9-2-2.2c0-1.3,0.8-2.2,2-2.2c1.2,0,2,0.9,2,2.2C89.3,135.8,88.5,136.7,87.3,136.7z
					 M87.3,133.1c-0.7,0-1.1,0.6-1.1,1.4c0,0.8,0.4,1.4,1.1,1.4c0.7,0,1.1-0.6,1.1-1.4C88.4,133.7,88,133.1,87.3,133.1z"/>
			</g>
			<g class="st0">
				<path class="st1" d="M94.9,136.7h-0.7l-2-2.9v2.9h-0.9v-4.3h0.8l1.9,2.7v-2.7h0.9V136.7z"/>
			</g>
			<g class="st0">
				<path class="st1" d="M99.4,132.3l1.6,4.3h-0.9l-0.4-1h-1.6l-0.4,1h-0.9l1.6-4.3H99.4z M98.4,134.9h1.1l-0.5-1.4L98.4,134.9z"/>
			</g>
			<g class="st0">
				<path class="st1" d="M103.8,135v1.6h-0.9v-4.3h1.8c0.9,0,1.5,0.5,1.5,1.4c0,0.7-0.4,1.1-1,1.3l1.1,1.7h-1l-1.1-1.6H103.8z
					 M103.8,134.3h0.8c0.4,0,0.7-0.2,0.7-0.6c0-0.4-0.2-0.6-0.7-0.6h-0.8V134.3z"/>
				<path class="st1" d="M107.9,132.3h1.5c1.3,0,2.1,0.8,2.1,2.2s-0.8,2.2-2.1,2.2h-1.5V132.3z M109.3,135.9c0.8,0,1.3-0.5,1.3-1.4
					c0-0.8-0.4-1.4-1.3-1.4h-0.6v2.7H109.3z"/>
			</g>
			<g class="st0">
				<path class="st1" d="M117.5,135.4c0.1,0.4,0.4,0.6,0.9,0.6c0.4,0,0.7-0.2,0.7-0.5c0-0.3-0.2-0.4-0.5-0.5l-0.8-0.2
					c-0.6-0.1-1.1-0.5-1.1-1.2c0-0.8,0.6-1.3,1.5-1.3c1,0,1.5,0.5,1.7,1.2H119c-0.1-0.3-0.3-0.5-0.8-0.5c-0.4,0-0.7,0.2-0.7,0.5
					c0,0.2,0.2,0.4,0.5,0.5l0.8,0.2c0.7,0.2,1.1,0.6,1.1,1.2c0,0.8-0.7,1.3-1.6,1.3c-1,0-1.6-0.5-1.8-1.3H117.5z"/>
			</g>
			<g class="st0">
				<path class="st1" d="M121.6,132.3h3.7v0.8h-1.4v3.5H123v-3.5h-1.4V132.3z"/>
			</g>
		</g>
		<g>
			<g class="st0">
				<path class="st1" d="M72.3,186c1,0,1.6,0.6,1.8,1.5h-0.9c-0.1-0.4-0.4-0.7-0.9-0.7c-0.7,0-1.1,0.6-1.1,1.4
					c0,0.8,0.4,1.4,1.1,1.4c0.5,0,0.8-0.3,0.9-0.7h0.9c-0.2,0.9-0.8,1.5-1.8,1.5c-1.1,0-2-0.9-2-2.2C70.3,186.9,71.2,186,72.3,186z"
					/>
			</g>
			<g class="st0">
				<path class="st1" d="M78.4,186l1.6,4.3h-0.9l-0.4-1h-1.6l-0.4,1h-0.9l1.6-4.3H78.4z M77.4,188.6h1.1l-0.5-1.4L77.4,188.6z"/>
			</g>
			<g class="st0">
				<path class="st1" d="M81.4,186h3.7v0.8h-1.4v3.5h-0.9v-3.5h-1.4V186z"/>
			</g>
			<g class="st0">
				<path class="st1" d="M90.9,186v4.3H90v-1.8h-1.9v1.8h-0.9V186h0.9v1.7H90V186H90.9z"/>
			</g>
			<g class="st0">
				<path class="st1" d="M96.2,186v0.8h-2v0.9H96v0.8h-1.8v1h2v0.8h-2.9V186H96.2z"/>
				<path class="st1" d="M98.8,188.7v1.6h-0.9V186h1.8c0.9,0,1.5,0.5,1.5,1.4c0,0.7-0.4,1.1-1,1.3l1.1,1.7h-1l-1.1-1.6H98.8z
					 M98.8,188h0.8c0.4,0,0.7-0.2,0.7-0.6c0-0.4-0.2-0.6-0.7-0.6h-0.8V188z"/>
			</g>
			<g class="st0">
				<path class="st1" d="M104.8,190.3h-0.9V186h0.9V190.3z"/>
			</g>
			<g class="st0">
				<path class="st1" d="M110.8,190.3h-0.7l-2-2.9v2.9h-0.9V186h0.8l1.9,2.7V186h0.9V190.3z"/>
				<path class="st1" d="M115.5,186v0.8h-2v0.9h1.8v0.8h-1.8v1h2v0.8h-2.9V186H115.5z"/>
				<path class="st1" d="M119.6,186h0.9v3.5h2v0.8h-2.9V186z"/>
			</g>
			<g class="st0">
				<path class="st1" d="M130,190.3h-0.7l-2-2.9v2.9h-0.9V186h0.8l1.9,2.7V186h0.9V190.3z"/>
			</g>
		</g>
	</g>
	<g>
		<polyline class="st2" points="133.1,151.9 133.1,152 133.1,161.6 136.9,161.6 136.9,160.7 141,160.7 141,159.3 147.3,159.3 
			147.3,161.3 153.6,161.3 153.6,152 		"/>
		<g>
			<defs>
				<rect id="SVGID_1_" x="44.3" y="150.4" width="112" height="25.3"/>
			</defs>
			<clipPath id="SVGID_2_">
				<use xlink:href="#SVGID_1_"  style="overflow:visible;"/>
			</clipPath>
			<g class="st3">
				<polygon class="st4" points="153.6,152 153.6,174 45.7,167.2 45.7,152 				"/>
			</g>
		</g>
		<g>
			<defs>
				<rect id="SVGID_3_" x="4.7" y="5.4" width="187.9" height="105"/>
			</defs>
			<clipPath id="SVGID_4_">
				<use xlink:href="#SVGID_3_"  style="overflow:visible;"/>
			</clipPath>
			<g class="st5">
				<g class="st0">
					<path class="st1" d="M12.6,80.8l0.7,0.4l-2.5,1.6l1.5,0.9l-0.6,0.4l-2.1-1.3L12.6,80.8z"/>
					<path class="st1" d="M18.5,84.5l-0.6,0.4l-1.5-0.9l-0.7,0.4l1.3,0.8l-0.5,0.4l-1.3-0.8l-0.7,0.5l1.5,0.9l-0.6,0.4l-2.1-1.3
						l3.1-2L18.5,84.5z"/>
				</g>
				<g class="st0">
					<path class="st1" d="M18.4,88.4c-0.9-0.5-0.8-1.4,0.1-2c0.9-0.6,2.2-0.7,3.1-0.1s0.8,1.4-0.1,2C20.6,88.9,19.3,89,18.4,88.4z
						 M21,86.7c-0.5-0.3-1.2-0.2-1.8,0.2c-0.6,0.4-0.7,0.9-0.2,1.2c0.5,0.3,1.2,0.2,1.8-0.2C21.4,87.5,21.5,87,21,86.7z"/>
				</g>
				<g class="st0">
					<path class="st1" d="M24.2,92l-0.5-0.3l0.6-2.3l-2.1,1.3l-0.6-0.4l3.1-2l0.6,0.4l-0.6,2.1l2-1.3l0.6,0.4L24.2,92z"/>
				</g>
				<g class="st0">
					<path class="st1" d="M30.8,92.1l-1.9,2.8l-0.7-0.4l0.5-0.7l-1.2-0.7l-1,0.3L25.8,93l4.3-1.3L30.8,92.1z M28.2,92.8l0.8,0.5
						l0.6-0.9L28.2,92.8z"/>
				</g>
				<g class="st0">
					<path class="st1" d="M32.3,95.5l-1.2,0.8l-0.6-0.4l3.1-2l1.3,0.8c0.7,0.4,0.7,0.9,0.1,1.3c-0.5,0.3-1.1,0.4-1.6,0.2L33,97.4
						L32.2,97l0.4-1.2L32.3,95.5z M32.8,95.2l0.6,0.4c0.3,0.2,0.7,0.2,0.9,0c0.3-0.2,0.3-0.4-0.1-0.6l-0.6-0.4L32.8,95.2z"/>
					<path class="st1" d="M37.6,96.4l1.1,0.7c0.9,0.6,0.9,1.4,0,2c-0.9,0.6-2.1,0.6-3.1,0l-1.1-0.7L37.6,96.4z M36.2,98.7
						c0.6,0.4,1.3,0.3,1.9-0.1c0.6-0.4,0.7-0.8,0.1-1.2l-0.4-0.3l-2,1.3L36.2,98.7z"/>
				</g>
				<g class="st0">
					<path class="st1" d="M42.5,102.2c-0.2,0.2-0.1,0.5,0.2,0.6c0.3,0.2,0.7,0.2,0.9,0.1c0.2-0.1,0.2-0.3,0-0.5l-0.4-0.4
						c-0.3-0.3-0.5-0.7,0.1-1c0.6-0.4,1.4-0.3,2.1,0.1c0.7,0.4,0.8,0.9,0.3,1.4L45,102c0.1-0.2,0.1-0.4-0.2-0.6
						c-0.3-0.2-0.6-0.2-0.9-0.1c-0.2,0.1-0.2,0.3,0,0.4l0.4,0.4c0.4,0.4,0.4,0.8-0.1,1.1c-0.6,0.4-1.5,0.3-2.1-0.1
						c-0.7-0.4-0.8-1-0.4-1.4L42.5,102.2z"/>
				</g>
				<g class="st0">
					<path class="st1" d="M47.9,102.8l2.7,1.7l-0.6,0.4l-1-0.6l-2.5,1.7l-0.7-0.4l2.5-1.7l-1-0.6L47.9,102.8z"/>
				</g>
				<line class="st6" x1="74.6" y1="68.1" x2="74.6" y2="63.6"/>
				<line class="st6" x1="14.8" y1="32.2" x2="14.8" y2="28.5"/>
				<line class="st6" x1="27.3" y1="37" x2="27.3" y2="39.1"/>
				<line class="st6" x1="21.8" y1="33.9" x2="21.8" y2="36"/>
				<line class="st6" x1="28.7" y1="36.2" x2="28.7" y2="38.3"/>
				<line class="st7" x1="28.8" y1="38.2" x2="27.2" y2="39.1"/>
				<line class="st7" x1="28.7" y1="36.3" x2="27.3" y2="37.1"/>
				<line class="st7" x1="66.5" y1="54" x2="60.5" y2="57.6"/>
				<line class="st7" x1="71.1" y1="57.7" x2="65.9" y2="60.8"/>
				<line class="st6" x1="36" y1="40.4" x2="36" y2="42.5"/>
				<line class="st7" x1="41" y1="38.7" x2="65.4" y2="54.7"/>
				<line class="st7" x1="66.4" y1="54" x2="71.1" y2="57.1"/>
				<line class="st7" x1="41" y1="38.1" x2="65.9" y2="54.4"/>
				<line class="st7" x1="11.9" y1="31" x2="14.4" y2="32.5"/>
				<line class="st7" x1="21.8" y1="33.9" x2="27.3" y2="37.1"/>
				<line class="st7" x1="28.8" y1="36.3" x2="36.1" y2="40.5"/>
				<line class="st7" x1="28.7" y1="38.2" x2="36" y2="42.5"/>
				<line class="st7" x1="60.5" y1="57.6" x2="65.9" y2="60.8"/>
				<line class="st6" x1="74.6" y1="55.2" x2="74.6" y2="53"/>
				<polyline class="st6" points="65.4,64.9 64.6,64.4 63.5,65 16.3,37.7 16.3,35.4 				"/>
				<polyline class="st6" points="28.1,30.2 23.5,27.2 12.9,33.4 63.5,62.7 				"/>
				<line class="st6" x1="63.5" y1="62.7" x2="63.5" y2="65"/>
				<line class="st6" x1="64.6" y1="62.1" x2="63.5" y2="62.7"/>
				<polyline class="st6" points="64.6,64.4 64.6,62.1 60.5,59.7 				"/>
				<line class="st6" x1="74.7" y1="72.3" x2="74.7" y2="69.8"/>
				<polyline class="st6" points="80.2,62.7 83.3,64.7 83.3,67.3 74.7,72.3 65.4,67 65.4,64.4 69.2,62.3 				"/>
				<polyline class="st6" points="83.3,64.7 74.7,69.8 65.4,64.4 				"/>
				<polyline class="st7" points="13.8,33.9 13.8,35.2 16.3,36.7 				"/>
				<line class="st7" x1="21.8" y1="36" x2="27.3" y2="39.2"/>
				<line class="st7" x1="60.5" y1="59.7" x2="60.5" y2="57.6"/>
				<line class="st7" x1="65.9" y1="64.1" x2="65.9" y2="60.8"/>
				<polyline class="st7" points="78.2,54.1 74.6,56.2 71.1,54.1 				"/>
				<polyline class="st6" points="78.2,58.7 78.6,58.8 78.6,60.4 74.7,62.7 70.7,60.4 70.7,59 71.1,58.7 				"/>
				<line class="st6" x1="74.6" y1="62.7" x2="74.6" y2="56.2"/>
				<polyline class="st6" points="78.6,59.3 80.2,60.3 80.2,64.8 74.6,68.1 69.2,64.9 69.2,60.4 70.7,59.5 				"/>
				<polyline class="st6" points="80.2,60.3 74.6,63.6 69.2,60.5 				"/>
				<polyline class="st6" points="11.9,31 6.5,34.1 6.5,71.8 				"/>
				<polyline class="st6" points="17.8,27.5 21.6,25.3 28.7,30 				"/>
				<line class="st6" x1="74.6" y1="73.6" x2="74.6" y2="107.6"/>
				<line class="st6" x1="74.6" y1="107.5" x2="38.3" y2="86.5"/>
				<polyline class="st6" points="84.9,73.2 74.6,79.2 6.6,39.8 				"/>
				<polyline class="st6" points="84.9,76.1 74.6,82.1 6.6,42.7 				"/>
				<polyline class="st6" points="84.9,78.9 74.6,84.9 6.6,45.5 				"/>
				<polyline class="st6" points="84.9,81.7 74.6,87.7 6.6,48.3 				"/>
				<polyline class="st6" points="84.9,84.6 74.6,90.6 6.6,51.2 				"/>
				<polyline class="st6" points="84.9,87.4 74.6,93.4 6.6,54 				"/>
				<polyline class="st6" points="84.9,90.2 74.6,96.2 6.6,56.8 				"/>
				<polyline class="st6" points="84.9,93.1 74.6,99.1 6.6,59.7 				"/>
				<line class="st6" x1="84.9" y1="95.9" x2="82.5" y2="97.3"/>
				<polyline class="st6" points="77,100.5 74.6,101.9 6.6,62.5 				"/>
				<line class="st6" x1="82.5" y1="100.1" x2="84.9" y2="98.7"/>
				<polyline class="st6" points="77,103.3 74.6,104.7 6.6,65.3 				"/>
				<polyline class="st6" points="84.9,70.4 74.6,76.4 6.6,37 				"/>
				<line class="st6" x1="35.4" y1="84.8" x2="6.6" y2="68.1"/>
				<polyline class="st7" points="13.4,25.9 11.9,26.8 11.9,31 				"/>
				<polyline class="st7" points="16.4,25.9 17.8,26.8 17.8,30.5 				"/>
				<polyline class="st7" points="11.9,26.8 14.8,28.5 17.8,26.8 				"/>
				<polyline class="st6" points="75.8,51.3 76.6,51.8 76.6,54 74.6,55.2 72.6,54 72.6,51.8 73.6,51.2 				"/>
				<polyline class="st7" points="76.6,51.8 74.6,53 72.6,51.8 				"/>
				<g>
					<defs>
						<rect id="SVGID_5_" x="4.8" y="10.1" width="86.9" height="99.5"/>
					</defs>
					<clipPath id="SVGID_6_">
						<use xlink:href="#SVGID_5_"  style="overflow:visible;"/>
					</clipPath>
					<g class="st8">
						<path class="st6" d="M72.7,49.4c-0.1,0.1-0.1,0.2-0.2,0.3l0.1,0.3c0.1,0.2,0.6,0.3,1.3,0.1s2.3-1,2.5-1.9l-0.2-0.5
							c-0.2,0-0.3,0-0.5,0"/>
					</g>
				</g>
				<polyline class="st6" points="73.4,46.3 74.5,46.8 74.8,46.7 75.6,45.7 				"/>
				<g>
					<defs>
						<rect id="SVGID_7_" x="4.8" y="10.1" width="86.9" height="99.5"/>
					</defs>
					<clipPath id="SVGID_8_">
						<use xlink:href="#SVGID_7_"  style="overflow:visible;"/>
					</clipPath>
					<g class="st9">
						<path class="st6" d="M76.3,48.7c0.1,0.3,0.1,0.5,0,0.8c-0.2,1-1.1,1.6-2.1,1.4c-0.4-0.1-0.7-0.2-1-0.5l-0.1-0.1"/>
						<path class="st6" d="M72.9,49.8c-0.1-0.1-0.1-0.3-0.1-0.4c-0.1-1,0.5-1.9,1.5-2c0.6-0.1,1.2,0.1,1.6,0.5
							c0.1,0.1,0.2,0.3,0.3,0.4"/>
						<path class="st6" d="M73.8,57.5c0.3,0.9,0.1,1.6-0.5,1.6s-1.3-0.7-1.6-1.5S71.7,56,72.2,56S73.6,56.7,73.8,57.5z"/>
						<path class="st6" d="M75.4,57.5c-0.3,0.9-0.1,1.6,0.5,1.6s1.3-0.7,1.6-1.5S77.6,56,77,56S75.7,56.7,75.4,57.5z"/>
						<path class="st10" d="M75.8,51.4c0-0.1,0-0.1,0-0.2c0,0-0.1-0.1-0.1-0.1c-0.1,0-0.2,0-0.3,0.1V51l0.1-0.4"/>
						<path class="st7" d="M75,51.4c0,0.1,0,0.2,0.1,0.2s0.2,0.1,0.3,0"/>
					</g>
				</g>
				<polyline class="st7" points="74,52 74,51.9 74.3,51.5 74.2,51.4 73.8,51.3 73.4,51.1 73.6,50.6 				"/>
				<polyline class="st6" points="72.6,53.3 71.1,54.1 71.1,58.9 74.7,61 78.2,58.9 78.2,54.1 76.6,53.2 				"/>
				<g>
					<defs>
						<rect id="SVGID_9_" x="4.8" y="10.1" width="86.9" height="99.5"/>
					</defs>
					<clipPath id="SVGID_10_">
						<use xlink:href="#SVGID_9_"  style="overflow:visible;"/>
					</clipPath>
					<g class="st11">
						<path class="st7" d="M14.7,24.3c-0.7,0.1-1.2,0.8-1.2,1.5v1.1c0,0.4,0.7,0.8,1.5,0.8s1.5-0.3,1.5-0.8v-1.1
							c0-0.7-0.5-1.4-1.2-1.5v-0.2c0-0.1-0.1-0.2-0.2-0.2s-0.2,0.1-0.2,0.2L14.7,24.3z"/>
					</g>
				</g>
				<polyline class="st6" points="84.9,67.6 74.6,73.6 6.6,34.2 				"/>
				<polyline class="st6" points="38.3,87 36.3,85.8 34.5,86.9 37,88.3 38.3,87.6 				"/>
				<line class="st6" x1="38.3" y1="87" x2="36.3" y2="85.8"/>
				<line class="st6" x1="38.3" y1="88.6" x2="37.3" y2="88.1"/>
				<g>
					<defs>
						<rect id="SVGID_11_" x="4.8" y="10.1" width="86.9" height="99.5"/>
					</defs>
					<clipPath id="SVGID_12_">
						<use xlink:href="#SVGID_11_"  style="overflow:visible;"/>
					</clipPath>
					<g class="st12">
						<path class="st6" d="M36.7,83.6c-0.2,0.2-0.4,0.5-0.4,0.8v1.5"/>
					</g>
				</g>
				<polyline class="st6" points="35.9,87.7 35.4,88 6.5,71.7 				"/>
				<line class="st6" x1="35.4" y1="88" x2="35.4" y2="87.4"/>
				<g>
					<defs>
						<rect id="SVGID_13_" x="4.8" y="10.1" width="86.9" height="99.5"/>
					</defs>
					<clipPath id="SVGID_14_">
						<use xlink:href="#SVGID_13_"  style="overflow:visible;"/>
					</clipPath>
					<g class="st13">
						<path class="st6" d="M82.5,102.9v-5.5l-5.5,3v5.6l-2.4,1.4l-18.3-8.6l-14.7-7.4l-3.4-1.9v-3.8c-0.1-0.9-0.6-1.7-1.4-2.1
							c-0.4-0.3-1-0.2-1.3,0.3c-0.1,0.2-0.2,0.4-0.2,0.6v1.9"/>
					</g>
				</g>
				<polyline class="st6" points="78.6,103.3 78.6,101.9 77.8,102.4 77.8,103.8 				"/>
				<g>
					<defs>
						<rect id="SVGID_15_" x="4.8" y="10.1" width="86.9" height="99.5"/>
					</defs>
					<clipPath id="SVGID_16_">
						<use xlink:href="#SVGID_15_"  style="overflow:visible;"/>
					</clipPath>
					<g class="st14">
						<path class="st6" d="M83.3,66.6l1.6,1v34l-2.4,1.4c-1.2-0.4-2.5-0.3-3.7,0.3l-1.2,0.7c-0.2,0.1-0.4,0.2-0.6,0.4"/>
					</g>
				</g>
				<polyline class="st7" points="36,42.5 41,39.5 41,37.5 29.1,29.7 21.8,33.9 				"/>
				<line class="st7" x1="41" y1="37.5" x2="36" y2="40.5"/>
				<g>
					<defs>
						<rect id="SVGID_17_" x="4.8" y="10.1" width="86.9" height="99.5"/>
					</defs>
					<clipPath id="SVGID_18_">
						<use xlink:href="#SVGID_17_"  style="overflow:visible;"/>
					</clipPath>
					<g class="st15">
						<g class="st0">
							<path class="st1" d="M197.9,74.1c0.7,0.5,0.7,1.1,0.2,1.5l-0.6-0.4c0.2-0.2,0.2-0.5-0.2-0.7c-0.5-0.3-1.2-0.3-1.8,0.1
								c-0.6,0.3-0.8,0.8-0.3,1.1c0.3,0.2,0.7,0.3,1.1,0.2l0.6,0.4c-0.8,0.3-1.6,0.2-2.3-0.3c-0.8-0.6-0.7-1.4,0.2-1.9
								C195.9,73.5,197.1,73.5,197.9,74.1z"/>
						</g>
						<g class="st0">
							<path class="st1" d="M202.2,77.1l-2,2.6l-0.6-0.4l0.5-0.6l-1.1-0.8l-1,0.3l-0.6-0.4l4.3-1L202.2,77.1z M199.7,77.7l0.7,0.5
								l0.7-0.9L199.7,77.7z"/>
						</g>
						<g class="st0">
							<path class="st1" d="M204.4,78.7l2.6,1.8l-0.6,0.3l-1-0.7l-2.6,1.5l-0.6-0.4l2.6-1.5l-1-0.7L204.4,78.7z"/>
						</g>
						<g class="st0">
							<path class="st1" d="M211.2,83.4l-3.2,1.8l-0.6-0.4l1.3-0.8l-1.4-0.9l-1.3,0.8l-0.6-0.4l3.2-1.8l0.6,0.4l-1.3,0.7l1.4,0.9
								l1.3-0.7L211.2,83.4z"/>
						</g>
						<g class="st0">
							<path class="st1" d="M215,86l-0.6,0.3l-1.4-1l-0.7,0.4l1.3,0.9l-0.6,0.3l-1.3-0.9l-0.8,0.4l1.4,1l-0.6,0.3l-2-1.4l3.2-1.8
								L215,86z"/>
							<path class="st1" d="M215.3,88.8l-1.2,0.7l-0.6-0.4l3.2-1.8l1.2,0.9c0.6,0.4,0.7,0.9,0,1.3c-0.5,0.3-1.1,0.3-1.6,0.1
								l-0.4,1.3l-0.7-0.5l0.4-1.2L215.3,88.8z M215.9,88.5l0.6,0.4c0.3,0.2,0.7,0.2,0.9,0.1c0.3-0.2,0.3-0.4,0-0.6l-0.6-0.4
								L215.9,88.5z"/>
							<path class="st1" d="M218.1,92.2l-0.6-0.4l3.2-1.8l0.6,0.4L218.1,92.2z"/>
							<path class="st1" d="M222.4,95.2l-0.5-0.3l0.7-2.2l-2.1,1.2l-0.6-0.4l3.2-1.8l0.6,0.4l-0.7,2.1l2-1.2l0.6,0.4L222.4,95.2z"/>
							<path class="st1" d="M229.3,96l-0.6,0.3l-1.4-1l-0.7,0.4l1.3,0.9l-0.6,0.3l-1.3-0.9l-0.8,0.4l1.4,1l-0.6,0.3l-2-1.4l3.2-1.8
								L229.3,96z"/>
							<path class="st1" d="M233.2,98.7l0.6,0.4l-2.6,1.5l1.4,1l-0.6,0.3l-2-1.4L233.2,98.7z"/>
						</g>
						<g class="st0">
							<path class="st1" d="M236.2,104.8l-0.5-0.3l0.7-2.2l-2.1,1.2l-0.6-0.4l3.2-1.8l0.6,0.4l-0.7,2.1l2-1.2l0.6,0.4L236.2,104.8z"
								/>
						</g>
						<path class="st7" d="M263.2,101.2V100c0-0.3-0.2-0.7-0.8-0.3c-0.4,0.2-0.7,0.6-0.7,1.1v1.3l-6.8,4l-8.9-6.2l-11.2-7.7
							l-9.4-6.5l-13.9-9.6l-19.9-14.4V27.5l1.4-0.8"/>
						<path class="st7" d="M200.3,17.5c0.3,0.9,0.1,1.6-0.5,1.6s-1.3-0.7-1.6-1.6s-0.1-1.6,0.5-1.6S200,16.6,200.3,17.5z"/>
						<path class="st7" d="M199.2,9.4c0,0.1-0.2,0.2-0.2,0.3l0.1,0.3c0.1,0.2,0.6,0.3,1.3,0.1s2.3-1.1,2.5-1.9l-0.3-0.5
							c-0.2,0-0.3,0-0.5,0"/>
						<path class="st7" d="M202.7,8.7c0.1,0.3,0.1,0.5,0,0.8c-0.2,1-1.1,1.6-2.1,1.4c-0.4-0.1-0.7-0.3-0.9-0.5h-0.1"/>
						<path class="st7" d="M199.3,9.8c-0.1-0.1-0.1-0.3-0.1-0.4c-0.1-1,0.5-1.9,1.5-2c0.6-0.1,1.2,0.1,1.6,0.5
							c0.1,0.1,0.2,0.3,0.3,0.4"/>
					</g>
				</g>
				<polygon class="st2" points="6.6,37.1 6.5,54.1 17.5,60.4 17.5,43.4 				"/>
				<line class="st16" x1="6.5" y1="39.9" x2="17.5" y2="46.2"/>
				<line class="st16" x1="6.5" y1="42.7" x2="17.5" y2="49"/>
				<line class="st16" x1="6.5" y1="45.5" x2="17.5" y2="51.8"/>
				<line class="st16" x1="6.5" y1="48.4" x2="17.5" y2="54.7"/>
				<line class="st16" x1="6.5" y1="51.2" x2="17.5" y2="57.5"/>
				<polygon class="st2" points="6.5,59.7 6.5,62.5 17.3,68.7 17.2,65.9 				"/>
				<g>
					<defs>
						<rect id="SVGID_19_" x="105.5" y="5.4" width="86.9" height="105"/>
					</defs>
					<clipPath id="SVGID_20_">
						<use xlink:href="#SVGID_19_"  style="overflow:visible;"/>
					</clipPath>
					<g class="st17">
						<path class="st6" d="M3.2,103.6v-5.5l-5.4,3v5.6l-2.4,1.4l-18.3-8.7l-14.7-7.4l-3.4-1.9v-3.9c-0.1-0.9-0.6-1.7-1.4-2.1
							c-0.4-0.3-1-0.2-1.3,0.3c-0.1,0.2-0.2,0.4-0.2,0.6V87"/>
						<path class="st6" d="M4.1,67.3l1.6,1v34l-2.4,1.4c-1.2-0.4-2.5-0.3-3.7,0.3l-1.2,0.7c-0.2,0.1-0.4,0.2-0.6,0.4"/>
					</g>
				</g>
				<polyline class="st6" points="190.7,67 175.6,75.5 112.3,33.9 				"/>
				<polyline class="st6" points="190.7,69.9 175.6,78.4 112.3,36.8 				"/>
				<polyline class="st6" points="190.7,72.7 175.6,81.2 112.3,39.6 				"/>
				<polyline class="st6" points="190.7,75.6 175.6,84.1 112.3,42.5 				"/>
				<polyline class="st6" points="190.7,78.4 175.6,86.9 112.3,45.3 				"/>
				<polyline class="st6" points="190.7,81.2 175.6,89.8 112.3,48.1 				"/>
				<polyline class="st6" points="190.7,84.1 175.6,92.6 112.3,51 				"/>
				<polyline class="st6" points="190.7,86.9 175.6,95.4 112.3,53.8 				"/>
				<polyline class="st6" points="190.7,89.8 175.6,98.3 112.3,56.7 				"/>
				<polyline class="st6" points="190.7,92.6 175.6,101.1 112.3,59.5 				"/>
				<polyline class="st6" points="190.7,95.5 175.6,104 112.3,62.4 				"/>
				<line class="st6" x1="190.7" y1="95.5" x2="175.6" y2="104"/>
				<g class="st0">
					<path class="st1" d="M118.7,74.8c0.7,0.5,0.7,1.1,0.2,1.5l-0.6-0.4c0.2-0.2,0.2-0.5-0.2-0.7c-0.5-0.3-1.2-0.3-1.8,0.1
						c-0.6,0.3-0.8,0.8-0.3,1.1c0.3,0.2,0.7,0.3,1.1,0.2l0.6,0.4c-0.8,0.3-1.6,0.2-2.3-0.3c-0.8-0.6-0.7-1.4,0.2-1.9
						C116.6,74.2,117.9,74.2,118.7,74.8z"/>
				</g>
				<g class="st0">
					<path class="st1" d="M123,77.8l-2,2.6l-0.6-0.4l0.5-0.6l-1.1-0.8l-1,0.3l-0.6-0.4l4.3-1L123,77.8z M120.4,78.4l0.7,0.5l0.7-0.9
						L120.4,78.4z"/>
				</g>
				<g class="st0">
					<path class="st1" d="M125.2,79.4l2.6,1.8l-0.6,0.3l-1-0.7l-2.6,1.5l-0.6-0.4l2.6-1.5l-1-0.7L125.2,79.4z"/>
					<path class="st1" d="M132,84.1l-3.2,1.8l-0.6-0.4l1.3-0.8l-1.4-0.9l-1.3,0.8l-0.6-0.4l3.2-1.8l0.6,0.4l-1.3,0.7l1.4,0.9
						l1.3-0.7L132,84.1z"/>
					<path class="st1" d="M135.8,86.7l-0.6,0.3l-1.4-1l-0.7,0.4l1.3,0.9l-0.6,0.3l-1.3-0.9l-0.8,0.4l1.4,1l-0.6,0.3l-2-1.4l3.2-1.8
						L135.8,86.7z"/>
					<path class="st1" d="M136.1,89.5l-1.2,0.7l-0.6-0.4l3.2-1.8l1.2,0.9c0.6,0.4,0.7,0.9,0,1.3c-0.5,0.3-1.1,0.3-1.6,0.1l-0.4,1.3
						l-0.7-0.5l0.4-1.2L136.1,89.5z M136.6,89.2l0.6,0.4c0.3,0.2,0.7,0.2,0.9,0.1c0.3-0.2,0.3-0.4,0-0.6l-0.6-0.4L136.6,89.2z"/>
					<path class="st1" d="M138.8,92.9l-0.6-0.4l3.2-1.8l0.6,0.4L138.8,92.9z"/>
					<path class="st1" d="M143.1,95.9l-0.5-0.3l0.7-2.2l-2.1,1.2l-0.6-0.4l3.2-1.8l0.6,0.4l-0.7,2.1l2-1.2l0.6,0.4L143.1,95.9z"/>
					<path class="st1" d="M150.1,96.7l-0.6,0.3l-1.4-1l-0.7,0.4l1.3,0.9l-0.6,0.3l-1.3-0.9l-0.8,0.4l1.4,1l-0.6,0.3l-2-1.4l3.2-1.8
						L150.1,96.7z"/>
					<path class="st1" d="M153.9,99.4l0.6,0.4l-2.6,1.5l1.4,1l-0.6,0.3l-2-1.4L153.9,99.4z"/>
				</g>
				<g class="st0">
					<path class="st1" d="M157,105.5l-0.5-0.3l0.7-2.2l-2.1,1.2l-0.6-0.4l3.2-1.8l0.6,0.4l-0.7,2.1l2-1.2l0.6,0.4L157,105.5z"/>
				</g>
				<polyline class="st7" points="190.7,64.2 175.6,72.7 112.3,31.1 				"/>
				<line class="st7" x1="175.6" y1="69.8" x2="175.6" y2="106.7"/>
				<line class="st7" x1="183.3" y1="101.5" x2="182.4" y2="102"/>
				<polyline class="st7" points="183.3,101.5 183.9,101.9 190.7,97.9 190.7,61.3 				"/>
				<polyline class="st7" points="190.7,61.3 175.6,69.8 112.3,28.2 				"/>
				<g>
					<defs>
						<rect id="SVGID_21_" x="105.5" y="5.4" width="86.9" height="105"/>
					</defs>
					<clipPath id="SVGID_22_">
						<use xlink:href="#SVGID_21_"  style="overflow:visible;"/>
					</clipPath>
					<g class="st18">
						<path class="st7" d="M183.3,101.5v-0.8c0-0.1-0.1-0.3-0.2-0.4"/>
						<path class="st7" d="M183.9,101.9v-1.2c0-0.3-0.2-0.7-0.8-0.3c-0.4,0.2-0.7,0.6-0.7,1.1v1.3l-6.7,3.9l-8.9-6.2l-11.2-7.7
							l-9.4-6.5l-13.9-9.6l-19.9-14.4V28.2l1.4-0.8"/>
					</g>
				</g>
				<line class="st7" x1="178.1" y1="62.8" x2="178.1" y2="61.3"/>
				<line class="st7" x1="121.4" y1="30.9" x2="121.4" y2="33.4"/>
				<line class="st7" x1="178.1" y1="62.8" x2="178.9" y2="63.3"/>
				<line class="st7" x1="178.1" y1="61.3" x2="178.9" y2="61.8"/>
				<line class="st7" x1="121.8" y1="15.7" x2="121.8" y2="13.8"/>
				<line class="st7" x1="121.8" y1="15.8" x2="121.8" y2="13.7"/>
				<line class="st7" x1="121.5" y1="28.9" x2="121.5" y2="24.4"/>
				<polyline class="st7" points="122.9,32.5 121.4,33.4 113.7,28.3 113.7,25.8 116.3,24.2 				"/>
				<polyline class="st7" points="121.8,21.7 125.4,19.6 125.4,14.8 125.4,14.8 123.8,13.7 				"/>
				<g>
					<defs>
						<rect id="SVGID_23_" x="105.5" y="5.4" width="86.9" height="105"/>
					</defs>
					<clipPath id="SVGID_24_">
						<use xlink:href="#SVGID_23_"  style="overflow:visible;"/>
					</clipPath>
					<g class="st19">
						<path class="st7" d="M121,18.2c0.3,0.9,0.1,1.6-0.5,1.6s-1.3-0.7-1.6-1.6s-0.1-1.5,0.5-1.5S120.7,17.3,121,18.2z"/>
						<path class="st7" d="M122.6,18.2c-0.3,0.9-0.1,1.6,0.5,1.6s1.3-0.7,1.6-1.6s0.1-1.5-0.5-1.5S122.9,17.4,122.6,18.2z"/>
					</g>
				</g>
				<line class="st7" x1="121.5" y1="24.4" x2="127.3" y2="21"/>
				<line class="st7" x1="116.3" y1="21.1" x2="121.5" y2="24.5"/>
				<line class="st7" x1="113.7" y1="25.8" x2="121.4" y2="30.9"/>
				<polyline class="st7" points="125.4,19.3 125.8,19.6 125.8,21.1 125.8,21.2 121.8,23.5 121.8,23.4 121.8,17 				"/>
				<polyline class="st7" points="117.9,20.2 116.3,21.1 116.3,25.5 116.3,25.6 121.4,28.9 				"/>
				<polyline class="st7" points="127.5,23.4 130.6,25.4 130.6,27.1 				"/>
				<line class="st7" x1="121.7" y1="17.1" x2="125.4" y2="14.9"/>
				<line class="st7" x1="118.3" y1="14.8" x2="119.8" y2="13.9"/>
				<line class="st7" x1="118.3" y1="14.8" x2="121.8" y2="17.1"/>
				<polyline class="st7" points="125.8,20 127.4,21 127.4,21.1 127.4,25.4 127.3,25.5 121.4,29 				"/>
				<line class="st7" x1="119.8" y1="12.4" x2="121.8" y2="13.8"/>
				<line class="st7" x1="122.8" y1="11.8" x2="123.8" y2="12.5"/>
				<g>
					<defs>
						<rect id="SVGID_25_" x="105.5" y="5.4" width="86.9" height="105"/>
					</defs>
					<clipPath id="SVGID_26_">
						<use xlink:href="#SVGID_25_"  style="overflow:visible;"/>
					</clipPath>
					<g class="st20">
						<path class="st7" d="M119.9,10.1c0,0.1-0.2,0.2-0.2,0.3l0.1,0.3c0.1,0.2,0.6,0.3,1.3,0.1s2.3-1.1,2.5-1.9l-0.3-0.5
							c-0.2,0-0.3,0-0.5,0"/>
					</g>
				</g>
				<polyline class="st7" points="120.6,7 121.7,7.5 122,7.4 122.8,6.3 				"/>
				<g>
					<defs>
						<rect id="SVGID_27_" x="105.5" y="5.4" width="86.9" height="105"/>
					</defs>
					<clipPath id="SVGID_28_">
						<use xlink:href="#SVGID_27_"  style="overflow:visible;"/>
					</clipPath>
					<g class="st21">
						<path class="st7" d="M123.5,9.4c0.1,0.2,0.1,0.5,0,0.8c-0.2,1-1.1,1.6-2.1,1.4c-0.4-0.1-0.7-0.3-0.9-0.5l-0.1-0.1"/>
						<path class="st7" d="M120.1,10.5c-0.1-0.1-0.1-0.3-0.1-0.4c-0.1-1,0.5-1.9,1.5-2c0.6-0.1,1.2,0.1,1.6,0.5
							c0.1,0.1,0.2,0.3,0.3,0.4"/>
						<path class="st7" d="M123,12.1c0-0.1,0-0.1,0-0.2c0,0-0.1-0.1-0.1-0.1c-0.1,0-0.2,0-0.3,0.1v-0.1l0.1-0.4"/>
						<path class="st7" d="M122.2,12c0,0.1,0,0.1,0.1,0.2s0.2,0.1,0.3,0"/>
					</g>
				</g>
				<polyline class="st7" points="121.2,12.7 121.2,12.6 121.5,12.2 121.4,12 121,12 120.6,11.7 120.8,11.3 				"/>
				<line class="st7" x1="118.3" y1="19.4" x2="121.8" y2="21.7"/>
				<polyline class="st7" points="121.8,23.6 117.9,21.1 117.8,21 117.8,19.7 117.8,19.7 118.2,19.4 118.3,19.4 118.3,14.8 				"/>
				<polyline class="st7" points="120.8,11.7 119.7,12.4 119.7,12.5 119.7,14.5 121.8,15.9 121.8,15.8 123.8,14.7 123.8,12.6 
					123.8,12.6 121.8,13.7 				"/>
				<line class="st7" x1="155.6" y1="49.6" x2="168.2" y2="57.7"/>
				<polyline class="st7" points="184.5,60.1 181.6,61.7 178.9,60 				"/>
				<line class="st7" x1="181.6" y1="65.8" x2="181.6" y2="61.7"/>
				<polyline class="st7" points="178.9,60.8 173.1,64.2 122.9,32.2 				"/>
				<line class="st6" x1="190.7" y1="61.3" x2="130.6" y2="26.5"/>
				<line class="st6" x1="170" y1="50" x2="134.4" y2="29.4"/>
				<line class="st7" x1="173.1" y1="65.7" x2="173.1" y2="64.2"/>
				<line class="st7" x1="168.2" y1="59.4" x2="168.2" y2="57.7"/>
				<polygon class="st7" points="175.8,53.2 175.8,55 168.3,59.4 155.6,51.4 155.6,49.7 161.2,46.4 168.7,50.8 170.2,50 				"/>
				<line class="st7" x1="175.8" y1="53.2" x2="168.2" y2="57.6"/>
				<line class="st7" x1="134.4" y1="29.3" x2="129" y2="32.5"/>
				<polygon class="st7" points="124.4,31.4 124.4,29.6 124.4,29.5 129.6,26.5 134.4,29.3 134.4,30.9 134.4,30.9 129,34.2 				"/>
				<polyline class="st7" points="178.1,62.8 173.1,65.7 122.9,33.7 122.9,33.7 122.9,32.2 124.4,31.4 				"/>
				<line class="st7" x1="129" y1="32.5" x2="124.4" y2="29.6"/>
				<line class="st7" x1="129" y1="34.2" x2="129" y2="32.5"/>
				<polyline class="st7" points="183.4,59.4 183.8,59.2 183.8,58 175.8,53.4 				"/>
				<line class="st7" x1="183.8" y1="58" x2="183.2" y2="58.4"/>
				<line class="st7" x1="130.6" y1="25.5" x2="121.4" y2="30.9"/>
				<polyline class="st7" points="180.4,59.1 178.9,60 178.9,64.1 181.6,65.8 184.5,64.1 184.5,60.1 183.3,59.3 				"/>
				<g>
					<defs>
						<rect id="SVGID_29_" x="105.5" y="5.4" width="86.9" height="105"/>
					</defs>
					<clipPath id="SVGID_30_">
						<use xlink:href="#SVGID_29_"  style="overflow:visible;"/>
					</clipPath>
					<g class="st22">
						<path class="st7" d="M181.6,57.5c-0.7,0.1-1.2,0.8-1.2,1.5v1.1c0,0.4,0.6,0.8,1.5,0.8s1.5-0.3,1.5-0.8v-1.1
							c0-0.7-0.5-1.4-1.2-1.5v-0.2c0-0.1-0.1-0.2-0.2-0.2s-0.2,0.1-0.2,0.2V57.5z"/>
					</g>
				</g>
				<polygon class="st2" points="184.5,67.7 184.5,84.7 190.7,81.2 190.7,64.2 				"/>
				<line class="st16" x1="184.5" y1="70.5" x2="190.8" y2="67"/>
				<line class="st16" x1="184.5" y1="73.4" x2="190.8" y2="69.8"/>
				<line class="st16" x1="184.5" y1="76.2" x2="190.7" y2="72.7"/>
				<line class="st16" x1="184.5" y1="79.1" x2="190.7" y2="75.5"/>
				<line class="st16" x1="184.5" y1="81.9" x2="190.8" y2="78.4"/>
				<g>
					<defs>
						<rect id="SVGID_31_" x="105.5" y="5.4" width="86.9" height="105"/>
					</defs>
					<clipPath id="SVGID_32_">
						<use xlink:href="#SVGID_31_"  style="overflow:visible;"/>
					</clipPath>
					<g class="st23">
						<path class="st2" d="M184.5,90.4l6.2-3.4v2.8l-6.2,3.5V90.4z"/>
					</g>
				</g>
			</g>
		</g>
	</g>
</g>
</svg>
