<?xml version="1.0" encoding="utf-8"?>
<!-- Generator: Adobe Illustrator 23.0.0, SVG Export Plug-In . SVG Version: 6.00 Build 0)  -->
<svg version="1.1" id="Layer_1" xmlns="http://www.w3.org/2000/svg" xmlns:xlink="http://www.w3.org/1999/xlink" x="0px" y="0px"
	 viewBox="0 0 347 105.1" style="enable-background:new 0 0 347 105.1;" xml:space="preserve">
<style type="text/css">
	.st0{fill:#D1D3D4;}
	.st1{clip-path:url(#SVGID_2_);}
	.st2{fill:#231F20;}
	.st3{clip-path:url(#SVGID_4_);}
	.st4{opacity:0.5;}
	.st5{clip-path:url(#SVGID_6_);}
	.st6{clip-path:url(#SVGID_8_);}
	.st7{fill:none;stroke:#D1D3D4;stroke-width:0.5;stroke-miterlimit:10;}
	.st8{clip-path:url(#SVGID_10_);}
	.st9{fill:none;stroke:#D1D3D4;stroke-width:1.09;stroke-miterlimit:10;}
	.st10{clip-path:url(#SVGID_12_);}
	.st11{enable-background:new    ;}
	.st12{fill:none;stroke:#231F20;stroke-width:0.15;stroke-miterlimit:10;}
	.st13{fill:none;stroke:#231F20;stroke-width:0.14;stroke-miterlimit:10;}
	.st14{clip-path:url(#SVGID_14_);}
	.st15{clip-path:url(#SVGID_16_);}
	.st16{fill:none;stroke:#231F20;stroke-width:0.14;stroke-linejoin:bevel;}
	.st17{clip-path:url(#SVGID_18_);}
	.st18{clip-path:url(#SVGID_20_);}
	.st19{clip-path:url(#SVGID_22_);}
	.st20{clip-path:url(#SVGID_24_);}
	.st21{clip-path:url(#SVGID_26_);}
	.st22{fill:none;stroke:#FFFFFF;stroke-width:0.13;stroke-miterlimit:10;}
	.st23{clip-path:url(#SVGID_28_);}
	.st24{clip-path:url(#SVGID_30_);}
	.st25{clip-path:url(#SVGID_32_);}
	.st26{clip-path:url(#SVGID_34_);}
	.st27{clip-path:url(#SVGID_36_);}
	.st28{clip-path:url(#SVGID_38_);}
	.st29{clip-path:url(#SVGID_40_);}
</style>
<title>residence_B_15_key_horizontal</title>
<g>
	<g id="Layer_1_copy">
		<g>
			<path class="st0" d="M209.9,51.6c-0.8,0-1.2-0.5-1.2-1.4v-1.8h4.4V50c0,0.9-0.4,1.5-1.2,1.5c-0.4,0-0.8-0.2-0.9-0.6
				C210.8,51.3,210.3,51.6,209.9,51.6z M209.4,49.2v0.8c0,0.4,0.2,0.6,0.5,0.6s0.5-0.2,0.5-0.6v-0.8H209.4z M211.2,50
				c0,0.4,0.2,0.7,0.5,0.7s0.5-0.2,0.5-0.7v-0.7h-1V50z"/>
			<path class="st0" d="M210.2,54.1h-1.6v-0.9h4.4V55c0.1,0.7-0.4,1.4-1.1,1.5c-0.1,0-0.1,0-0.2,0c-0.6,0-1.2-0.4-1.3-1l-1.7,1.1v-1
				l1.6-1.1L210.2,54.1z M211,54.1V55c0,0.5,0.2,0.7,0.6,0.7s0.6-0.2,0.6-0.7v-0.8L211,54.1z"/>
		</g>
		<g>
			<path class="st0" d="M208.6,61.1c-0.1-1.2,0.8-2.3,2-2.4c1.2-0.1,2.3,0.8,2.4,2c0.1,1.2-0.8,2.3-2,2.4c-0.1,0-0.2,0-0.2,0
				c-1.1,0.1-2.1-0.7-2.2-1.9C208.6,61.2,208.6,61.1,208.6,61.1z M212.2,61.1c0-0.7-0.6-1.1-1.4-1.1s-1.4,0.4-1.4,1.1
				s0.6,1.1,1.4,1.1S212.2,61.8,212.2,61.1z"/>
		</g>
		<g>
			<path class="st0" d="M213,67.3l-4.4,1.7v-1l1-0.4v-1.6l-1-0.4v-0.9l4.3,1.7L213,67.3z M210.5,66.3v1l1.4-0.5L210.5,66.3z"/>
		</g>
		<g>
			<path class="st0" d="M213,71v1.5c0,1.2-1,2.2-2.2,2.2c-1.2,0-2.1-1-2.1-2.2V71H213z M209.5,72.5c0.1,0.8,0.7,1.3,1.5,1.2
				c0.7-0.1,1.2-0.6,1.2-1.2v-0.6h-2.7V72.5z"/>
		</g>
		<g>
			<path class="st0" d="M213,79.5l-2.9,0.8l2.9,0.7v0.9l-4.3-1.1v-0.8l2.8-0.8l-2.8-0.8v-0.8l4.3-1.1v0.9l-2.9,0.7l2.9,0.8V79.5z"/>
		</g>
		<g>
			<path class="st0" d="M213,85.8l-4.3,1.6v-0.9l1-0.4v-1.6l-1-0.4v-0.9l4.3,1.7V85.8z M210.5,84.8v1.1l1.4-0.5L210.5,84.8z"/>
		</g>
		<g>
			<path class="st0" d="M213,91.7v1l-2.7-1.6h-1.6v-0.9h1.6l2.7-1.6v1l-1.8,1L213,91.7z"/>
		</g>
		<g>
			<path class="st0" d="M343.4,40.5v0.9h-3.5v2h-0.8v-2.9H343.4z"/>
		</g>
		<g>
			<path class="st0" d="M343.4,47.8l-4.3,1.6v-0.9l1-0.4v-1.6l-1-0.4v-0.9l4.3,1.7V47.8z M340.9,46.8v1l1.4-0.5L340.9,46.8z"/>
		</g>
		<g>
			<path class="st0" d="M339.1,51.5h4.3v2.9h-0.8v-2h-1.1v1.8h-0.8v-1.8h-1.6V51.5z"/>
		</g>
		<g>
			<path class="st0" d="M343.4,58.5l-4.3,1.7v-0.9l1-0.4v-1.6l-1-0.4V56l4.3,1.6V58.5z M340.9,57.5v1l1.4-0.5L340.9,57.5z"/>
		</g>
		<g>
			<path class="st0" d="M343.4,64.4v0.9l-2.7-1.6h-1.6v-0.9h1.6l2.7-1.5v1l-1.8,1L343.4,64.4z"/>
			<path class="st0" d="M343.4,69.8h-0.8v-2h-0.9v1.8h-0.8v-1.9h-1v2h-0.8v-2.9h4.3L343.4,69.8L343.4,69.8z"/>
			<path class="st0" d="M343.4,71.2v3.7h-0.8v-1.4h-3.5v-0.9h3.5v-1.4H343.4z"/>
			<path class="st0" d="M343.4,76.2v3.7h-0.8v-1.4h-3.5v-0.9h3.5v-1.4H343.4z"/>
			<path class="st0" d="M343.4,84.4h-0.8v-2h-0.9v1.8h-0.8v-1.9h-1v2h-0.8v-2.9h4.3L343.4,84.4L343.4,84.4z"/>
		</g>
		<g>
			<path class="st0" d="M340.3,92.5c-0.4,0.1-0.6,0.5-0.5,0.9c0,0.4,0.2,0.7,0.5,0.7s0.4-0.2,0.5-0.5l0.2-0.8
				c0.1-0.6,0.5-1.1,1.2-1.1c0.8,0,1.4,0.7,1.3,1.4c0,0,0,0.1,0,0.1c0.1,0.8-0.5,1.5-1.2,1.7V94c0.3-0.1,0.5-0.4,0.5-0.8
				c0-0.4-0.2-0.7-0.5-0.7s-0.4,0.2-0.5,0.5l-0.2,0.8c-0.2,0.7-0.6,1.1-1.2,1.1c-0.8,0-1.3-0.7-1.3-1.6c-0.1-0.8,0.5-1.6,1.3-1.8
				L340.3,92.5L340.3,92.5z"/>
		</g>
		<g>
			<path class="st0" d="M343.4,96.8v3.7h-0.8v-1.4h-3.5v-0.9h3.5v-1.4H343.4z"/>
		</g>
		<g>
			<path class="st0" d="M251.3,40.8h0.9v3.5h2v0.8h-2.9V40.8z"/>
			<path class="st0" d="M258.8,40.8v0.8h-2v0.9h1.9v0.8h-1.9v1h2V45h-2.9v-4.3L258.8,40.8z"/>
		</g>
		<g>
			<path class="st0" d="M263.1,45.1c-1.2,0.1-2.3-0.8-2.4-2c-0.1-1.2,0.8-2.3,2-2.4c1.2-0.1,2.3,0.8,2.4,2c0,0.1,0,0.2,0,0.2
				c0.1,1.1-0.8,2.1-1.9,2.2C263.2,45.1,263.1,45.1,263.1,45.1z M263.1,41.5c-0.7,0-1.1,0.6-1.1,1.4s0.4,1.4,1.1,1.4
				s1.1-0.6,1.1-1.4S263.8,41.5,263.1,41.5z"/>
		</g>
		<g>
			<path class="st0" d="M270.8,45.1h-0.7l-2-2.9v2.9h-0.9v-4.3h0.8l1.9,2.7v-2.7h0.9L270.8,45.1L270.8,45.1z"/>
		</g>
		<g>
			<path class="st0" d="M275.2,40.8l1.6,4.3H276l-0.4-1H274l-0.4,1h-0.9l1.6-4.3H275.2z M274.2,43.3h1l-0.5-1.4L274.2,43.3z"/>
		</g>
		<g>
			<path class="st0" d="M279.7,43.5v1.6h-0.9v-4.3h1.8c0.7-0.1,1.4,0.4,1.5,1.1c0,0.1,0,0.1,0,0.2c0,0.6-0.4,1.2-1,1.3l1.1,1.7h-1
				l-1.1-1.6L279.7,43.5z M279.7,42.7h0.8c0.5,0,0.7-0.2,0.7-0.6s-0.2-0.6-0.7-0.6h-0.8V42.7z"/>
			<path class="st0" d="M283.7,40.8h1.5c1.2,0,2.1,1,2.1,2.2c0,1.2-1,2.1-2.1,2.1h-1.5V40.8z M285.2,44.3c0.8-0.1,1.3-0.7,1.2-1.5
				c-0.1-0.7-0.6-1.2-1.2-1.2h-0.6v2.7H285.2z"/>
		</g>
		<g>
			<path class="st0" d="M293.3,43.8c0.1,0.4,0.5,0.6,0.9,0.6c0.4,0,0.7-0.2,0.7-0.5s-0.2-0.4-0.5-0.5l-0.8-0.2
				c-0.6-0.1-1.1-0.5-1.1-1.2c0-0.8,0.7-1.4,1.5-1.3c0,0,0,0,0.1,0c0.8-0.1,1.5,0.5,1.7,1.2h-0.9c-0.1-0.3-0.4-0.6-0.8-0.5
				c-0.4,0-0.7,0.2-0.7,0.5s0.2,0.4,0.5,0.5l0.8,0.2c0.7,0.2,1.1,0.6,1.1,1.2c0,0.8-0.7,1.3-1.6,1.3c-0.8,0.1-1.6-0.5-1.8-1.3
				L293.3,43.8z"/>
		</g>
		<g>
			<path class="st0" d="M297.5,40.8h3.7v0.8h-1.4v3.5h-0.9v-3.5h-1.4V40.8z"/>
		</g>
		<g>
			<path class="st0" d="M248.2,94.4c0.9-0.1,1.7,0.6,1.8,1.5h-0.9c-0.1-0.4-0.5-0.7-0.9-0.7c-0.7,0-1.1,0.6-1.1,1.4s0.4,1.4,1.1,1.4
				c0.4,0,0.8-0.3,0.9-0.7h0.9c-0.1,0.9-0.9,1.5-1.8,1.5c-1.2-0.1-2.1-1.2-2-2.4C246.3,95.3,247.1,94.5,248.2,94.4L248.2,94.4z"/>
		</g>
		<g>
			<path class="st0" d="M254.2,94.5l1.6,4.3H255l-0.4-1H253l-0.4,1h-0.9l1.6-4.3H254.2z M253.2,97h1.1l-0.5-1.4L253.2,97z"/>
		</g>
		<g>
			<path class="st0" d="M257.2,94.5h3.7v0.8h-1.4v3.5h-0.9v-3.5h-1.4V94.5z"/>
		</g>
		<g>
			<path class="st0" d="M266.8,94.5v4.3h-0.9V97h-1.9v1.8H263v-4.3h0.9v1.7h1.9v-1.8H266.8z"/>
		</g>
		<g>
			<path class="st0" d="M272,94.5v0.8h-2v0.9h1.9V97H270v1h2v0.8h-2.9v-4.3L272,94.5z"/>
			<path class="st0" d="M274.6,97.2v1.6h-0.9v-4.3h1.8c0.7-0.1,1.4,0.4,1.5,1.1c0,0.1,0,0.1,0,0.2c0,0.6-0.4,1.2-1,1.3l1.1,1.7h-1
				l-1.1-1.6H274.6z M274.6,96.4h0.8c0.5,0,0.7-0.2,0.7-0.6s-0.2-0.6-0.7-0.6h-0.8V96.4z"/>
		</g>
		<g>
			<path class="st0" d="M280.7,98.8h-0.9v-4.3h0.9V98.8z"/>
		</g>
		<g>
			<path class="st0" d="M286.6,98.8h-0.7l-2-2.9v2.9H283v-4.3h0.8l1.9,2.7v-2.7h0.9L286.6,98.8z"/>
			<path class="st0" d="M291.4,94.5v0.8h-2v0.9h1.9V97h-1.9v1h2v0.8h-2.9v-4.3L291.4,94.5z"/>
			<path class="st0" d="M295.5,94.5h0.9V98h2v0.8h-2.9V94.5z"/>
		</g>
		<g>
			<path class="st0" d="M305.8,98.8h-0.7l-2-2.9v2.9h-0.9v-4.3h0.8l1.9,2.7v-2.7h0.9L305.8,98.8z"/>
		</g>
	</g>
	<g>
		<g>
			<defs>
				<rect id="SVGID_1_" x="220.9" y="57.1" width="112" height="25.3"/>
			</defs>
			<clipPath id="SVGID_2_">
				<use xlink:href="#SVGID_1_"  style="overflow:visible;"/>
			</clipPath>
			<g class="st1">
				<polygon class="st2" points="271.8,72.7 271.8,69.2 272.9,69.2 272.9,66.3 271.8,66.3 271.8,62.5 272.7,62.5 272.7,60.6 
					256.5,60.7 256.5,72.2 				"/>
				<g>
					<defs>
						<rect id="SVGID_3_" x="220.9" y="57.1" width="112" height="25.3"/>
					</defs>
					<clipPath id="SVGID_4_">
						<use xlink:href="#SVGID_3_"  style="overflow:visible;"/>
					</clipPath>
					<g class="st3">
						<g class="st4">
							<g>
								<defs>
									<rect id="SVGID_5_" x="256.5" y="59" width="16.1" height="1.6"/>
								</defs>
								<clipPath id="SVGID_6_">
									<use xlink:href="#SVGID_5_"  style="overflow:visible;"/>
								</clipPath>
								<g class="st5">
									<polygon class="st2" points="256.5,59.1 256.5,60.6 257.4,60.6 272.7,60.6 272.7,59 									"/>
								</g>
							</g>
						</g>
						<g class="st4">
							<g>
								<defs>
									<rect id="SVGID_7_" x="256.5" y="72.4" width="15.3" height="4.5"/>
								</defs>
								<clipPath id="SVGID_8_">
									<use xlink:href="#SVGID_7_"  style="overflow:visible;"/>
								</clipPath>
								<g class="st6">
									<polygon class="st2" points="256.5,75.9 271.8,76.9 271.8,73 256.5,72.4 									"/>
								</g>
							</g>
						</g>
					</g>
				</g>
				<polygon class="st7" points="317.5,60.6 317.5,62.2 322.9,62.2 322.9,67.9 325.4,67.9 325.4,66.3 329.7,66.4 329.7,71.3 
					326.7,71.3 325.3,71.3 325.3,70.5 322.8,70.5 322.9,75.8 276.4,73.2 276.4,77 271.8,76.8 271.8,72.8 239.8,71.3 239.8,73.5 
					223.8,72.9 223.9,60 239.3,60.1 239.3,60.7 				"/>
				<g>
					<defs>
						<rect id="SVGID_9_" x="220.9" y="57.1" width="112" height="25.3"/>
					</defs>
					<clipPath id="SVGID_10_">
						<use xlink:href="#SVGID_9_"  style="overflow:visible;"/>
					</clipPath>
					<g class="st8">
						<polygon class="st9" points="330.2,58.8 330.2,80.7 222.2,74 222.3,58.8 						"/>
					</g>
				</g>
			</g>
		</g>
		<g>
			<defs>
				<rect id="SVGID_11_" x="8.7" y="0" width="83.6" height="104.2"/>
			</defs>
			<clipPath id="SVGID_12_">
				<use xlink:href="#SVGID_11_"  style="overflow:visible;"/>
			</clipPath>
			<g class="st10">
				<g class="st11">
					<path class="st0" d="M16.6,75.6l0.6,0.4l-2.5,1.6l1.4,0.9l-0.6,0.4l-2.1-1.3L16.6,75.6z"/>
					<path class="st0" d="M22.5,79.2l-0.6,0.4l-1.5-0.9l-0.7,0.4l1.3,0.8l-0.5,0.4l-1.3-0.8L18.5,80l1.5,0.9l-0.6,0.4l-2.1-1.3
						l3.1-2L22.5,79.2z"/>
					<path class="st0" d="M22.4,83.2c-0.9-0.5-0.8-1.4,0.1-1.9c0.9-0.6,2.2-0.7,3-0.1c0.9,0.5,0.8,1.4-0.1,2
						C24.5,83.6,23.2,83.7,22.4,83.2z M25,81.5c-0.5-0.3-1.2-0.2-1.8,0.2c-0.6,0.4-0.7,0.9-0.2,1.2c0.5,0.3,1.2,0.2,1.8-0.2
						C25.4,82.2,25.5,81.8,25,81.5z"/>
					<path class="st0" d="M28.1,86.7l-0.5-0.3l0.6-2.2l-2,1.3l-0.6-0.4l3.1-2l0.6,0.4l-0.6,2.1l1.9-1.3l0.6,0.4L28.1,86.7z"/>
				</g>
				<g class="st11">
					<path class="st0" d="M34.6,86.8l-1.9,2.7l-0.7-0.4l0.5-0.7l-1.2-0.7l-1,0.3l-0.6-0.4l4.3-1.3L34.6,86.8z M32.1,87.6l0.8,0.5
						l0.6-0.9L32.1,87.6z"/>
				</g>
				<g class="st11">
					<path class="st0" d="M36.1,90.2L35,91l-0.6-0.4l3.1-2l1.3,0.8c0.7,0.4,0.7,0.9,0.1,1.3c-0.5,0.3-1.1,0.4-1.6,0.2l-0.4,1.3
						l-0.7-0.5l0.4-1.2L36.1,90.2z M36.6,89.9l0.6,0.4c0.3,0.2,0.7,0.2,0.9,0c0.3-0.2,0.3-0.4-0.1-0.6l-0.6-0.4L36.6,89.9z"/>
					<path class="st0" d="M41.4,91.1l1.1,0.7c0.9,0.6,0.9,1.3,0,2s-2.1,0.6-3.1,0l-1.1-0.7L41.4,91.1z M40,93.4
						c0.6,0.4,1.3,0.3,1.9-0.1c0.6-0.4,0.7-0.8,0.1-1.2l-0.4-0.3l-1.9,1.3L40,93.4z"/>
				</g>
				<g class="st11">
					<path class="st0" d="M46.3,96.9c-0.2,0.2-0.1,0.5,0.2,0.6c0.3,0.2,0.7,0.2,0.9,0.1c0.2-0.1,0.2-0.3,0-0.5l-0.4-0.4
						c-0.3-0.3-0.5-0.7,0.1-1c0.6-0.4,1.4-0.3,2.1,0.1c0.7,0.4,0.7,0.9,0.3,1.3l-0.6-0.4c0.1-0.2,0.1-0.4-0.2-0.6
						c-0.3-0.2-0.6-0.2-0.8-0.1c-0.2,0.1-0.2,0.3,0,0.4l0.4,0.4c0.4,0.4,0.4,0.8,0,1.1c-0.6,0.4-1.4,0.3-2.1-0.1
						c-0.7-0.4-0.8-1-0.4-1.4L46.3,96.9z"/>
				</g>
				<g class="st11">
					<path class="st0" d="M51.7,97.5l2.6,1.7l-0.6,0.4l-1-0.6l-2.5,1.6l-0.7-0.4l2.5-1.6l-1-0.6L51.7,97.5z"/>
				</g>
				<line class="st12" x1="78.1" y1="62.9" x2="78.1" y2="58.5"/>
				<line class="st12" x1="18.7" y1="27.4" x2="18.7" y2="23.7"/>
				<line class="st12" x1="31.1" y1="32.1" x2="31.1" y2="34.2"/>
				<line class="st12" x1="25.6" y1="29" x2="25.6" y2="31.1"/>
				<line class="st12" x1="32.5" y1="31.3" x2="32.5" y2="33.4"/>
				<line class="st13" x1="32.5" y1="33.3" x2="31.1" y2="34.2"/>
				<line class="st13" x1="32.5" y1="31.4" x2="31.1" y2="32.2"/>
				<line class="st13" x1="70" y1="49" x2="64" y2="52.5"/>
				<line class="st13" x1="74.6" y1="52.7" x2="69.4" y2="55.7"/>
				<line class="st12" x1="39.7" y1="35.5" x2="39.7" y2="37.5"/>
				<line class="st13" x1="44.7" y1="33.8" x2="68.9" y2="49.7"/>
				<line class="st13" x1="69.9" y1="49" x2="74.6" y2="52"/>
				<line class="st13" x1="44.7" y1="33.2" x2="69.4" y2="49.3"/>
				<line class="st13" x1="15.8" y1="26.2" x2="18.3" y2="27.6"/>
				<line class="st13" x1="25.6" y1="29" x2="31.1" y2="32.2"/>
				<line class="st13" x1="32.6" y1="31.4" x2="39.8" y2="35.6"/>
				<line class="st13" x1="32.5" y1="33.3" x2="39.7" y2="37.5"/>
				<line class="st13" x1="64" y1="52.5" x2="69.4" y2="55.7"/>
				<line class="st12" x1="78" y1="50.1" x2="78" y2="47.9"/>
				<polyline class="st12" points="68.9,59.8 68.1,59.3 67,59.9 20.2,32.8 20.2,30.5 				"/>
				<polyline class="st12" points="32,25.4 27.3,22.4 16.8,28.5 67,57.6 				"/>
				<line class="st12" x1="67" y1="57.6" x2="67" y2="59.9"/>
				<line class="st12" x1="68.1" y1="57" x2="67" y2="57.6"/>
				<polyline class="st12" points="68.1,59.3 68.1,57 64,54.6 				"/>
				<line class="st12" x1="78.1" y1="67.2" x2="78.1" y2="64.6"/>
				<polyline class="st12" points="83.6,57.6 86.7,59.6 86.7,62.1 78.1,67.2 68.9,61.8 68.9,59.3 72.6,57.2 				"/>
				<polyline class="st12" points="86.7,59.6 78.1,64.6 68.9,59.3 				"/>
				<polyline class="st13" points="17.7,29 17.7,30.3 20.2,31.8 				"/>
				<line class="st13" x1="25.6" y1="31.1" x2="31.1" y2="34.2"/>
				<line class="st13" x1="64" y1="54.6" x2="64" y2="52.5"/>
				<line class="st13" x1="69.4" y1="59" x2="69.4" y2="55.7"/>
				<polyline class="st13" points="81.6,49.1 78.1,51.1 74.6,49.1 				"/>
				<polyline class="st12" points="81.6,53.6 82,53.8 82,55.3 78.1,57.6 74.2,55.3 74.2,53.9 74.6,53.7 				"/>
				<line class="st12" x1="78.1" y1="57.6" x2="78.1" y2="51.1"/>
				<polyline class="st12" points="82,54.3 83.6,55.2 83.6,59.7 78.1,63 72.6,59.8 72.6,55.3 74.2,54.4 				"/>
				<polyline class="st12" points="83.6,55.2 78.1,58.5 72.7,55.4 				"/>
				<polyline class="st12" points="15.8,26.1 10.5,29.2 10.5,66.6 				"/>
				<polyline class="st12" points="21.7,22.7 25.5,20.5 32.5,25.1 				"/>
				<line class="st12" x1="78.1" y1="68.4" x2="78" y2="102.1"/>
				<line class="st12" x1="78.1" y1="102.1" x2="42" y2="81.2"/>
				<polyline class="st12" points="88.3,68.1 78.1,74 10.6,34.9 				"/>
				<polyline class="st12" points="88.3,70.9 78.1,76.8 10.6,37.7 				"/>
				<polyline class="st12" points="88.3,73.7 78.1,79.6 10.6,40.5 				"/>
				<polyline class="st12" points="88.3,76.5 78.1,82.4 10.6,43.3 				"/>
				<polyline class="st12" points="88.3,79.3 78.1,85.2 10.6,46.2 				"/>
				<polyline class="st12" points="88.3,82.1 78.1,88.1 10.6,49 				"/>
				<polyline class="st12" points="88.3,84.9 78.1,90.9 10.6,51.8 				"/>
				<polyline class="st12" points="88.3,87.7 78.1,93.7 10.6,54.6 				"/>
				<line class="st12" x1="88.3" y1="90.5" x2="85.9" y2="91.9"/>
				<polyline class="st12" points="80.4,95.1 78.1,96.5 10.6,57.4 				"/>
				<line class="st12" x1="85.9" y1="94.7" x2="88.3" y2="93.3"/>
				<polyline class="st12" points="80.4,97.9 78.1,99.3 10.6,60.2 				"/>
				<polyline class="st12" points="88.3,65.2 78.1,71.2 10.6,32.1 				"/>
				<line class="st12" x1="39.1" y1="79.5" x2="10.6" y2="63"/>
				<polyline class="st13" points="17.4,21.1 15.8,22 15.8,26.2 				"/>
				<polyline class="st13" points="20.3,21.1 21.7,22 21.7,25.6 				"/>
				<polyline class="st13" points="15.8,22 18.7,23.7 21.7,22 				"/>
				<polyline class="st12" points="79.3,46.3 80,46.8 80,49 78,50.1 76,49 76,46.8 77.1,46.2 				"/>
				<polyline class="st13" points="80,46.8 78,48 76,46.8 				"/>
				<g>
					<defs>
						<rect id="SVGID_13_" x="8.8" y="0" width="83.4" height="104.2"/>
					</defs>
					<clipPath id="SVGID_14_">
						<use xlink:href="#SVGID_13_"  style="overflow:visible;"/>
					</clipPath>
					<g class="st14">
						<path class="st12" d="M76.2,44.4c-0.1,0.1-0.1,0.2-0.2,0.3l0.1,0.3c0.1,0.2,0.6,0.3,1.3,0.1s2.3-1,2.5-1.9l-0.2-0.5
							c-0.2,0-0.3,0-0.5,0"/>
					</g>
				</g>
				<polyline class="st12" points="76.9,41.3 77.9,41.9 78.3,41.7 79,40.7 				"/>
				<g>
					<defs>
						<rect id="SVGID_15_" x="8.8" y="0" width="83.4" height="104.2"/>
					</defs>
					<clipPath id="SVGID_16_">
						<use xlink:href="#SVGID_15_"  style="overflow:visible;"/>
					</clipPath>
					<g class="st15">
						<path class="st12" d="M79.7,43.7c0.1,0.2,0.1,0.5,0,0.8c-0.2,1-1.1,1.6-2.1,1.4c0,0,0,0,0,0c-0.4-0.1-0.7-0.3-0.9-0.5
							l-0.1-0.1"/>
						<path class="st12" d="M76.3,44.8c-0.1-0.1-0.1-0.3-0.1-0.4c-0.1-1,0.5-1.9,1.5-2c0.6-0.1,1.2,0.1,1.6,0.5
							c0.1,0.1,0.2,0.3,0.3,0.4"/>
						<path class="st12" d="M77.3,52.5c0.3,0.8,0.1,1.5-0.5,1.5s-1.3-0.7-1.6-1.5s-0.1-1.5,0.5-1.5S77,51.6,77.3,52.5z"/>
						<path class="st12" d="M78.8,52.5c-0.3,0.8-0.1,1.5,0.5,1.5s1.3-0.7,1.6-1.5S81,51,80.4,51S79.1,51.6,78.8,52.5z"/>
						<path class="st16" d="M79.3,46.4c0-0.1,0-0.1,0-0.2c0,0-0.1-0.1-0.1-0.1c-0.1,0-0.2,0-0.3,0.1c0,0,0-0.1,0-0.1l0,0l0.1-0.4"/>
						<path class="st13" d="M78.4,46.3c0,0.1,0.1,0.2,0.1,0.2s0.2,0.1,0.3,0"/>
					</g>
				</g>
				<polyline class="st13" points="77.5,47 77.5,46.9 77.7,46.5 77.7,46.3 77.2,46.3 76.9,46 77,45.6 				"/>
				<polyline class="st12" points="76,48.2 74.6,49.1 74.6,53.9 78.1,55.9 81.6,53.8 81.6,49.1 80,48.1 				"/>
				<g>
					<defs>
						<rect id="SVGID_17_" x="8.8" y="0" width="83.4" height="104.2"/>
					</defs>
					<clipPath id="SVGID_18_">
						<use xlink:href="#SVGID_17_"  style="overflow:visible;"/>
					</clipPath>
					<g class="st17">
						<path class="st13" d="M18.6,19.5c-0.7,0.1-1.2,0.8-1.2,1.5v1.1c0,0.4,0.6,0.8,1.5,0.8s1.5-0.3,1.5-0.8V21
							c0-0.7-0.5-1.4-1.2-1.5v-0.2c0-0.1-0.1-0.2-0.2-0.2s-0.2,0.1-0.2,0.2L18.6,19.5z"/>
					</g>
				</g>
				<polyline class="st12" points="88.3,62.4 78.1,68.4 10.6,29.3 				"/>
				<polyline class="st12" points="42,81.7 40,80.6 38.2,81.6 40.7,83 42,82.3 				"/>
				<line class="st12" x1="42" y1="81.7" x2="40" y2="80.6"/>
				<line class="st12" x1="42" y1="83.3" x2="41" y2="82.8"/>
				<g>
					<defs>
						<rect id="SVGID_19_" x="8.8" y="0" width="83.4" height="104.2"/>
					</defs>
					<clipPath id="SVGID_20_">
						<use xlink:href="#SVGID_19_"  style="overflow:visible;"/>
					</clipPath>
					<g class="st18">
						<path class="st12" d="M40.4,78.3c-0.2,0.2-0.4,0.5-0.4,0.8v1.4"/>
					</g>
				</g>
				<polyline class="st12" points="39.6,82.4 39.1,82.7 10.5,66.6 				"/>
				<line class="st12" x1="39.1" y1="82.7" x2="39.1" y2="82.1"/>
				<g>
					<defs>
						<rect id="SVGID_21_" x="8.8" y="0" width="83.4" height="104.2"/>
					</defs>
					<clipPath id="SVGID_22_">
						<use xlink:href="#SVGID_21_"  style="overflow:visible;"/>
					</clipPath>
					<g class="st19">
						<path class="st12" d="M85.9,97.5v-5.4l-5.4,3v5.6l-2.4,1.4l-18.1-8.6l-14.6-7.3L42,84.3v-3.8c-0.1-0.9-0.6-1.7-1.4-2.1
							c-1-0.6-1.4,0.5-1.4,0.8v1.9"/>
					</g>
				</g>
				<polyline class="st12" points="82,97.9 82,96.5 81.2,97 81.2,98.4 				"/>
				<g>
					<defs>
						<rect id="SVGID_23_" x="8.8" y="0" width="83.4" height="104.2"/>
					</defs>
					<clipPath id="SVGID_24_">
						<use xlink:href="#SVGID_23_"  style="overflow:visible;"/>
					</clipPath>
					<g class="st20">
						<path class="st12" d="M86.7,61.4l1.6,1v33.7l-2.4,1.4c-1.2-0.4-2.5-0.3-3.6,0.3L81,98.5c-0.2,0.1-0.4,0.2-0.5,0.4"/>
					</g>
				</g>
				<polyline class="st13" points="39.7,37.5 44.7,34.5 44.7,32.6 32.9,24.8 25.6,29.1 				"/>
				<line class="st13" x1="44.7" y1="32.6" x2="39.7" y2="35.5"/>
				<g>
					<defs>
						<rect id="SVGID_25_" x="8.8" y="0" width="83.4" height="104.2"/>
					</defs>
					<clipPath id="SVGID_26_">
						<use xlink:href="#SVGID_25_"  style="overflow:visible;"/>
					</clipPath>
					<g class="st21">
						<g class="st11">
							<path class="st0" d="M200.3,68.8c0.7,0.5,0.7,1,0.2,1.5l-0.6-0.4c0.2-0.2,0.2-0.5-0.2-0.7c-0.5-0.3-1.2-0.3-1.8,0.1
								c-0.6,0.3-0.8,0.8-0.3,1.1c0.3,0.2,0.7,0.3,1.1,0.2l0.6,0.4c-0.7,0.3-1.6,0.2-2.3-0.2c-0.8-0.6-0.7-1.4,0.2-1.9
								S199.5,68.3,200.3,68.8z"/>
						</g>
						<g class="st11">
							<path class="st0" d="M204.6,71.9l-2,2.6L202,74l0.5-0.6l-1.1-0.8l-1,0.3l-0.6-0.4l4.3-1L204.6,71.9z M202.1,72.4l0.7,0.5
								l0.7-0.9L202.1,72.4z"/>
						</g>
						<g class="st11">
							<path class="st0" d="M206.8,73.4l2.6,1.8l-0.6,0.3l-1-0.7l-2.6,1.5l-0.6-0.4l2.6-1.5l-1-0.7L206.8,73.4z"/>
						</g>
						<g class="st11">
							<path class="st0" d="M213.5,78.1l-3.1,1.8l-0.6-0.4l1.3-0.8l-1.4-0.9l-1.3,0.8l-0.6-0.4l3.1-1.8l0.6,0.4l-1.2,0.7l1.4,0.9
								l1.2-0.7L213.5,78.1z"/>
							<path class="st0" d="M217.3,80.7l-0.6,0.3l-1.4-1l-0.7,0.4l1.3,0.9l-0.6,0.3l-1.3-0.9l-0.7,0.4l1.4,1l-0.6,0.3l-2-1.4
								l3.1-1.8L217.3,80.7z"/>
							<path class="st0" d="M217.6,83.4l-1.2,0.7l-0.6-0.4l3.1-1.8l1.2,0.9c0.6,0.4,0.7,0.9,0.1,1.3c-0.5,0.3-1.1,0.3-1.6,0.1
								l-0.4,1.3l-0.7-0.5l0.4-1.2L217.6,83.4z M218.1,83.1l0.6,0.4c0.3,0.2,0.6,0.2,0.9,0.1c0.3-0.2,0.3-0.4,0-0.6l-0.6-0.4
								L218.1,83.1z"/>
							<path class="st0" d="M220.3,86.8l-0.6-0.4l3.1-1.8l0.6,0.4L220.3,86.8z"/>
							<path class="st0" d="M224.6,89.8l-0.5-0.3l0.7-2.2l-2.1,1.2l-0.6-0.4l3.1-1.8l0.6,0.4l-0.7,2.1l2-1.2l0.6,0.4L224.6,89.8z"/>
							<path class="st0" d="M231.5,90.6l-0.6,0.3l-1.4-1l-0.7,0.4l1.3,0.9l-0.6,0.3l-1.3-0.9l-0.7,0.4l1.4,1l-0.6,0.3l-2-1.4
								l3.1-1.8L231.5,90.6z"/>
							<path class="st0" d="M235.3,93.2l0.6,0.4l-2.6,1.5l1.4,1l-0.6,0.3l-2-1.4L235.3,93.2z"/>
						</g>
						<g class="st11">
							<path class="st0" d="M238.3,99.3l-0.5-0.3l0.7-2.2l-2.1,1.2l-0.6-0.4l3.1-1.8l0.6,0.4l-0.7,2.1l2-1.2l0.6,0.4L238.3,99.3z"/>
						</g>
						<path class="st13" d="M264.5,95.4v-0.8c0-0.1-0.1-0.3-0.2-0.4"/>
						<path class="st13" d="M265.1,95.8v-1.2c0-0.3-0.2-0.7-0.8-0.3c-0.4,0.2-0.7,0.6-0.7,1.1v1.3l-6.7,3.9l-8.8-6.1l-11.1-7.6
							l-9.3-6.4l-13.8-9.5L194,56.7v-34l1.4-0.8"/>
						<path class="st13" d="M202.7,12.8c0.3,0.9,0.1,1.6-0.5,1.6s-1.3-0.7-1.6-1.5s-0.1-1.5,0.5-1.6S202.4,11.9,202.7,12.8z"/>
						<path class="st13" d="M204.2,12.8c-0.3,0.9-0.1,1.6,0.5,1.6s1.3-0.7,1.6-1.5s0.1-1.5-0.5-1.6S204.5,11.9,204.2,12.8z"/>
						<path class="st13" d="M201.6,4.7c-0.1,0.1-0.2,0.2-0.2,0.3l0.1,0.3c0.1,0.2,0.6,0.3,1.3,0.1s2.3-1,2.5-1.9L205,3.1
							c-0.2,0-0.3,0-0.5,0"/>
						<path class="st13" d="M205.1,4c0.1,0.2,0.1,0.5,0,0.8c-0.2,1-1.1,1.6-2.1,1.4c0,0,0,0,0,0c-0.4-0.1-0.7-0.3-0.9-0.5L202,5.6"
							/>
						<path class="st13" d="M201.7,5.1c-0.1-0.1-0.1-0.3-0.1-0.4c-0.1-1,0.5-1.9,1.5-2c0.6-0.1,1.2,0.1,1.6,0.5
							c0.1,0.1,0.2,0.3,0.3,0.4"/>
						<path class="st13" d="M204.7,6.7c0-0.1,0-0.1,0-0.2c0,0-0.1-0.1-0.1-0.1c-0.1,0-0.2,0-0.3,0.1c0,0,0-0.1,0-0.1l0,0l0.1-0.4"/>
						<path class="st13" d="M203.8,6.7c0,0.1,0.1,0.2,0.1,0.2s0.2,0.1,0.4,0"/>
						<path class="st13" d="M262.8,51.8c-0.7,0.1-1.2,0.8-1.2,1.5v1.1c0,0.4,0.7,0.7,1.5,0.7s1.5-0.3,1.5-0.7v-1.1
							c0-0.7-0.5-1.4-1.2-1.5v-0.2c0-0.1-0.1-0.2-0.2-0.2s-0.2,0.1-0.2,0.2V51.8z"/>
					</g>
				</g>
				<polygon class="st2" points="49.9,47.8 49.8,50 58.5,55 58.5,52.7 				"/>
				<polygon class="st2" points="49.8,50 48.2,51.1 56.8,56.1 58.5,55 				"/>
				<line class="st22" x1="49.8" y1="50" x2="58.3" y2="54.9"/>
			</g>
		</g>
		<g>
			<defs>
				<rect id="SVGID_27_" x="104.7" y="0.9" width="86.3" height="104.2"/>
			</defs>
			<clipPath id="SVGID_28_">
				<use xlink:href="#SVGID_27_"  style="overflow:visible;"/>
			</clipPath>
			<g class="st23">
				<g>
					<defs>
						<rect id="SVGID_29_" x="104.7" y="0.9" width="86.3" height="104.2"/>
					</defs>
					<clipPath id="SVGID_30_">
						<use xlink:href="#SVGID_29_"  style="overflow:visible;"/>
					</clipPath>
					<g class="st24">
						<path class="st12" d="M3.4,98.4V93L-2,96v5.6l-2.4,1.4l-18.1-8.6l-14.6-7.3l-3.3-1.9v-3.8c-0.1-0.9-0.6-1.7-1.4-2.1
							c-0.4-0.3-1-0.2-1.3,0.3c-0.1,0.2-0.2,0.4-0.2,0.6V82"/>
						<path class="st12" d="M4.2,62.4l1.6,1v33.7l-2.4,1.4c-1.2-0.4-2.5-0.3-3.6,0.3l-1.2,0.7c-0.2,0.1-0.4,0.2-0.5,0.4"/>
					</g>
				</g>
				<polyline class="st12" points="189.3,62.1 174.4,70.6 111.6,29.3 				"/>
				<polyline class="st12" points="189.3,64.9 174.4,73.4 111.6,32.1 				"/>
				<polyline class="st12" points="189.3,67.8 174.4,76.2 111.6,34.9 				"/>
				<polyline class="st12" points="189.3,70.6 174.4,79 111.6,37.8 				"/>
				<polyline class="st12" points="189.3,73.4 174.4,81.9 111.6,40.6 				"/>
				<polyline class="st12" points="189.3,76.2 174.4,84.7 111.6,43.4 				"/>
				<polyline class="st12" points="189.3,79.1 174.4,87.5 111.6,46.2 				"/>
				<polyline class="st12" points="189.3,81.9 174.4,90.3 111.6,49 				"/>
				<polyline class="st12" points="189.3,84.7 174.4,93.1 111.6,51.9 				"/>
				<polyline class="st12" points="189.3,87.5 174.4,96 111.6,54.7 				"/>
				<polyline class="st12" points="189.3,90.3 174.4,98.8 111.6,57.5 				"/>
				<g class="st11">
					<path class="st0" d="M117.9,69.8c0.7,0.5,0.7,1,0.2,1.5l-0.6-0.4c0.2-0.2,0.2-0.5-0.2-0.7c-0.5-0.3-1.2-0.3-1.8,0.1
						c-0.6,0.3-0.8,0.8-0.3,1.1c0.3,0.2,0.7,0.3,1.1,0.2l0.6,0.4c-0.7,0.3-1.6,0.2-2.3-0.3c-0.8-0.6-0.7-1.4,0.2-1.9
						C115.8,69.2,117.1,69.2,117.9,69.8z"/>
				</g>
				<g class="st11">
					<path class="st0" d="M122.1,72.8l-2,2.6l-0.6-0.4l0.5-0.6l-1.1-0.8l-1,0.3l-0.6-0.4l4.3-1L122.1,72.8z M119.6,73.4l0.7,0.5
						L121,73L119.6,73.4z"/>
				</g>
				<g class="st11">
					<path class="st0" d="M124.3,74.3l2.6,1.8l-0.6,0.3l-1-0.7l-2.6,1.5l-0.6-0.4l2.6-1.5l-1-0.7L124.3,74.3z"/>
					<path class="st0" d="M131.1,79l-3.1,1.8l-0.6-0.4l1.3-0.8l-1.4-0.9l-1.3,0.8l-0.6-0.4l3.1-1.8l0.6,0.4l-1.2,0.7l1.4,0.9
						l1.2-0.7L131.1,79z"/>
				</g>
				<g class="st11">
					<path class="st0" d="M134.8,81.6l-0.6,0.3l-1.4-1l-0.7,0.4l1.3,0.9l-0.6,0.3l-1.3-0.9l-0.7,0.4l1.4,1l-0.6,0.3l-2-1.4l3.1-1.8
						L134.8,81.6z"/>
					<path class="st0" d="M135.1,84.3L134,85l-0.6-0.4l3.1-1.8l1.2,0.9c0.6,0.4,0.7,0.9,0.1,1.3c-0.5,0.3-1.1,0.3-1.6,0.1l-0.4,1.3
						l-0.7-0.5l0.4-1.2L135.1,84.3z M135.7,84l0.6,0.4c0.3,0.2,0.6,0.2,0.9,0.1c0.3-0.2,0.3-0.4,0-0.6l-0.6-0.4L135.7,84z"/>
					<path class="st0" d="M137.9,87.7l-0.6-0.4l3.1-1.8l0.6,0.4L137.9,87.7z"/>
					<path class="st0" d="M142.1,90.7l-0.5-0.3l0.7-2.2l-2.1,1.2l-0.6-0.4l3.1-1.8l0.6,0.4l-0.7,2.1l2-1.2l0.6,0.4L142.1,90.7z"/>
					<path class="st0" d="M149,91.5l-0.6,0.3l-1.4-1l-0.7,0.4l1.3,0.9l-0.6,0.3l-1.3-0.9l-0.7,0.4l1.4,1l-0.6,0.3l-2-1.4l3.1-1.8
						L149,91.5z"/>
					<path class="st0" d="M152.9,94.2l0.6,0.4l-2.6,1.5l1.4,1l-0.6,0.3l-2-1.4L152.9,94.2z"/>
				</g>
				<g class="st11">
					<path class="st0" d="M155.9,100.2l-0.5-0.3l0.7-2.2l-2.1,1.2l-0.6-0.4l3.1-1.8l0.6,0.4l-0.7,2.1l2-1.2l0.6,0.4L155.9,100.2z"/>
				</g>
				<polyline class="st13" points="189.3,59.3 174.4,67.8 111.6,26.5 				"/>
				<line class="st13" x1="174.4" y1="64.9" x2="174.4" y2="101.5"/>
				<line class="st13" x1="182" y1="96.3" x2="181.1" y2="96.8"/>
				<polyline class="st13" points="182,96.3 182.6,96.7 189.3,92.8 189.3,56.5 				"/>
				<polyline class="st13" points="189.3,56.5 174.4,64.9 111.6,23.6 				"/>
				<g>
					<defs>
						<rect id="SVGID_31_" x="104.7" y="0.9" width="86.3" height="104.2"/>
					</defs>
					<clipPath id="SVGID_32_">
						<use xlink:href="#SVGID_31_"  style="overflow:visible;"/>
					</clipPath>
					<g class="st25">
						<path class="st13" d="M182,96.3v-0.8c0-0.1-0.1-0.3-0.2-0.4"/>
						<path class="st13" d="M182.6,96.7v-1.2c0-0.3-0.2-0.7-0.8-0.3c-0.4,0.2-0.7,0.6-0.7,1.1v1.3l-6.7,3.9l-8.8-6.1l-11.1-7.6
							l-9.3-6.4l-13.8-9.5l-19.7-14.3v-34l1.4-0.8"/>
					</g>
				</g>
				<line class="st13" x1="176.8" y1="57.9" x2="176.8" y2="56.5"/>
				<line class="st13" x1="120.6" y1="26.2" x2="120.6" y2="28.8"/>
				<line class="st13" x1="176.8" y1="57.9" x2="177.6" y2="58.5"/>
				<line class="st13" x1="176.8" y1="56.5" x2="177.6" y2="57"/>
				<line class="st13" x1="121" y1="11.2" x2="121" y2="9.3"/>
				<line class="st13" x1="121" y1="11.4" x2="121" y2="9.2"/>
				<line class="st13" x1="120.7" y1="24.3" x2="120.7" y2="19.9"/>
				<polyline class="st13" points="122.1,27.9 120.6,28.8 112.9,23.8 112.9,21.2 115.6,19.7 				"/>
				<polyline class="st13" points="121,17.2 124.6,15.1 124.6,10.4 124.6,10.3 123,9.2 				"/>
				<g>
					<defs>
						<rect id="SVGID_33_" x="104.7" y="0.9" width="86.3" height="104.2"/>
					</defs>
					<clipPath id="SVGID_34_">
						<use xlink:href="#SVGID_33_"  style="overflow:visible;"/>
					</clipPath>
					<g class="st26">
						<path class="st13" d="M120.2,13.7c0.3,0.9,0.1,1.5-0.5,1.5s-1.3-0.7-1.6-1.5s-0.1-1.5,0.5-1.5S120,12.8,120.2,13.7z"/>
						<path class="st13" d="M121.8,13.7c-0.3,0.9-0.1,1.5,0.5,1.5s1.3-0.7,1.6-1.5s0.1-1.5-0.5-1.5S122.1,12.9,121.8,13.7z"/>
					</g>
				</g>
				<line class="st13" x1="120.7" y1="19.9" x2="126.5" y2="16.5"/>
				<line class="st13" x1="115.6" y1="16.5" x2="120.7" y2="19.9"/>
				<line class="st13" x1="112.9" y1="21.2" x2="120.6" y2="26.2"/>
				<polyline class="st13" points="124.6,14.8 124.9,15 124.9,16.5 124.9,16.6 121,19 121,18.8 121,12.5 				"/>
				<polyline class="st13" points="117.1,15.6 115.6,16.5 115.6,20.9 115.6,21 120.6,24.3 				"/>
				<polyline class="st13" points="126.7,18.8 129.7,20.8 129.7,22.5 				"/>
				<line class="st13" x1="120.9" y1="12.6" x2="124.6" y2="10.4"/>
				<line class="st13" x1="117.5" y1="10.3" x2="119" y2="9.5"/>
				<line class="st13" x1="117.5" y1="10.3" x2="121" y2="12.6"/>
				<polyline class="st13" points="124.9,15.4 126.6,16.5 126.6,16.5 126.6,20.8 126.5,20.9 120.6,24.4 				"/>
				<line class="st13" x1="119" y1="8" x2="121" y2="9.3"/>
				<line class="st13" x1="122" y1="7.4" x2="123" y2="8"/>
				<g>
					<defs>
						<rect id="SVGID_35_" x="104.7" y="0.9" width="86.3" height="104.2"/>
					</defs>
					<clipPath id="SVGID_36_">
						<use xlink:href="#SVGID_35_"  style="overflow:visible;"/>
					</clipPath>
					<g class="st27">
						<path class="st13" d="M119.2,5.6c-0.1,0.1-0.2,0.2-0.2,0.3l0.1,0.3c0.1,0.2,0.6,0.3,1.3,0.1s2.3-1,2.5-1.9L122.6,4
							c-0.2,0-0.3,0-0.5,0"/>
					</g>
				</g>
				<polyline class="st13" points="119.8,2.6 120.9,3.1 121.2,2.9 122,1.9 				"/>
				<g>
					<defs>
						<rect id="SVGID_37_" x="104.7" y="0.9" width="86.3" height="104.2"/>
					</defs>
					<clipPath id="SVGID_38_">
						<use xlink:href="#SVGID_37_"  style="overflow:visible;"/>
					</clipPath>
					<g class="st28">
						<path class="st13" d="M122.7,4.9c0.1,0.2,0.1,0.5,0,0.8c-0.2,1-1.1,1.6-2.1,1.4c0,0,0,0,0,0c-0.4-0.1-0.7-0.3-0.9-0.5
							l-0.1-0.1"/>
						<path class="st13" d="M119.3,6c-0.1-0.1-0.1-0.3-0.1-0.4c-0.1-1,0.5-1.9,1.5-2c0.6-0.1,1.2,0.1,1.6,0.5
							c0.1,0.1,0.2,0.3,0.3,0.4"/>
						<path class="st13" d="M122.2,7.6c0-0.1,0-0.1,0-0.2c0,0-0.1-0.1-0.1-0.1c-0.1,0-0.2,0-0.3,0.1c0,0,0-0.1,0-0.1l0,0l0.1-0.4"/>
						<path class="st13" d="M121.4,7.6c0,0.1,0.1,0.2,0.1,0.2s0.2,0.1,0.3,0"/>
					</g>
				</g>
				<polyline class="st13" points="120.4,8.3 120.4,8.1 120.7,7.7 120.6,7.6 120.2,7.5 119.8,7.3 120,6.8 				"/>
				<line class="st13" x1="117.5" y1="14.9" x2="121" y2="17.2"/>
				<polyline class="st13" points="121,19 117.2,16.5 117.1,16.5 117.1,15.2 117.1,15.1 117.5,14.9 117.5,14.9 117.5,10.3 				"/>
				<polyline class="st13" points="120,7.3 119,8 119,8.1 119,10 121,11.4 121,11.4 123,10.2 123,8.1 123,8.1 121,9.3 				"/>
				<line class="st13" x1="154.6" y1="44.9" x2="167.1" y2="52.8"/>
				<polyline class="st13" points="183.2,55.2 180.4,56.9 177.6,55.2 				"/>
				<line class="st13" x1="180.4" y1="60.9" x2="180.4" y2="56.9"/>
				<polyline class="st13" points="177.6,56 171.9,59.3 122.1,27.6 				"/>
				<line class="st12" x1="189.4" y1="56.5" x2="129.7" y2="21.9"/>
				<line class="st12" x1="168.9" y1="45.3" x2="133.5" y2="24.8"/>
				<line class="st13" x1="171.9" y1="60.8" x2="171.9" y2="59.3"/>
				<line class="st13" x1="167.1" y1="54.6" x2="167.1" y2="52.8"/>
				<polygon class="st13" points="174.5,48.4 174.5,50.2 167.1,54.6 154.6,46.6 154.6,44.9 160.1,41.7 167.5,46.1 169,45.2 				"/>
				<line class="st13" x1="174.5" y1="48.5" x2="167.1" y2="52.8"/>
				<line class="st13" x1="133.5" y1="24.7" x2="128.1" y2="27.9"/>
				<polygon class="st13" points="123.6,26.7 123.6,25 123.6,25 128.7,21.9 133.5,24.7 133.5,26.2 133.5,26.3 128.1,29.6 				"/>
				<polyline class="st13" points="176.8,57.9 171.9,60.8 122.1,29.1 122.1,29.1 122.1,27.6 123.6,26.8 				"/>
				<line class="st13" x1="128.1" y1="27.9" x2="123.6" y2="25"/>
				<line class="st13" x1="128.1" y1="29.5" x2="128.1" y2="27.9"/>
				<polyline class="st13" points="182.1,54.5 182.5,54.3 182.5,53.2 174.5,48.6 				"/>
				<line class="st13" x1="182.5" y1="53.2" x2="181.9" y2="53.5"/>
				<line class="st13" x1="129.7" y1="20.9" x2="120.6" y2="26.2"/>
				<polyline class="st13" points="179.2,54.3 177.6,55.2 177.6,59.2 180.4,60.9 183.2,59.3 183.2,55.2 182,54.5 				"/>
				<g>
					<defs>
						<rect id="SVGID_39_" x="104.7" y="0.9" width="86.3" height="104.2"/>
					</defs>
					<clipPath id="SVGID_40_">
						<use xlink:href="#SVGID_39_"  style="overflow:visible;"/>
					</clipPath>
					<g class="st29">
						<path class="st13" d="M180.4,52.7c-0.7,0.1-1.2,0.8-1.2,1.5v1.1c0,0.4,0.7,0.8,1.5,0.8s1.5-0.3,1.5-0.8v-1.1
							c0-0.7-0.5-1.4-1.2-1.5v-0.2c0-0.1-0.1-0.2-0.2-0.2s-0.2,0.1-0.2,0.2V52.7z"/>
					</g>
				</g>
				<polygon class="st2" points="130.3,32.8 130.3,34.3 138.7,39.7 138.7,38.2 				"/>
				<polygon class="st2" points="130.3,34.3 129.1,35.1 137.4,40.5 138.7,39.7 				"/>
				<line class="st22" x1="130.3" y1="34.3" x2="138.7" y2="39.7"/>
			</g>
		</g>
	</g>
</g>
</svg>
