<svg xmlns="http://www.w3.org/2000/svg" xmlns:xlink="http://www.w3.org/1999/xlink" width="187.777" height="196" viewBox="0 0 187.777 196"><defs><path id="a" d="M-47.611 -368H1176.389V424H-47.611z"/></defs><defs><path id="b" d="M-47.611 -368H1176.389V424H-47.611z"/></defs><defs><path id="c" d="M-47.611 -368H1176.389V424H-47.611z"/></defs><defs><path id="d" d="M-47.611 -368H1176.389V424H-47.611z"/></defs><defs><path id="e" d="M-47.611 -368H1176.389V424H-47.611z"/></defs><defs><path id="f" d="M-47.611 -368H1176.389V424H-47.611z"/></defs><defs><path id="g" d="M-47.611 -368H1176.389V424H-47.611z"/></defs><defs><path id="h" d="M-47.611 -368H1176.389V424H-47.611z"/></defs><clipPath id="i"><use xlink:href="#h" overflow="visible"/></clipPath><g clip-path="url(#i)"><text transform="rotate(90 -54.918 82.958)"><tspan x="0" y="0" fill="#D1D3D4" font-family="'Calibre-Semibold'" font-size="7" letter-spacing="1">BR</tspan><tspan x="10.892" y="0" fill="#D1D3D4" font-family="'Calibre-Semibold'" font-size="7" letter-spacing="1">O</tspan><tspan x="16.709" y="0" fill="#D1D3D4" font-family="'Calibre-Semibold'" font-size="7" letter-spacing="1">A</tspan><tspan x="22.631" y="0" fill="#D1D3D4" font-family="'Calibre-Semibold'" font-size="7" letter-spacing="1">D</tspan><tspan x="28.364" y="0" fill="#D1D3D4" font-family="'Calibre-Semibold'" font-size="7" letter-spacing="1">W</tspan><tspan x="35.202" y="0" fill="#D1D3D4" font-family="'Calibre-Semibold'" font-size="7" letter-spacing="1">A</tspan><tspan x="40.635" y="0" fill="#D1D3D4" font-family="'Calibre-Semibold'" font-size="7">Y</tspan></text></g><g clip-path="url(#i)"><text transform="rotate(90 14.241 144.222)"><tspan x="0" y="0" fill="#D1D3D4" font-family="'Calibre-Semibold'" font-size="7" letter-spacing="1">L</tspan><tspan x="5.096" y="0" fill="#D1D3D4" font-family="'Calibre-Semibold'" font-size="7" letter-spacing="1">A</tspan><tspan x="11.025" y="0" fill="#D1D3D4" font-family="'Calibre-Semibold'" font-size="7" letter-spacing="1">F</tspan><tspan x="15.799" y="0" fill="#D1D3D4" font-family="'Calibre-Semibold'" font-size="7" letter-spacing="1">A</tspan><tspan x="21.238" y="0" fill="#D1D3D4" font-family="'Calibre-Semibold'" font-size="7" letter-spacing="1">YETTE </tspan><tspan x="51.387" y="0" fill="#D1D3D4" font-family="'Calibre-Semibold'" font-size="7" letter-spacing="1">S</tspan><tspan x="56.566" y="0" fill="#D1D3D4" font-family="'Calibre-Semibold'" font-size="7">T</tspan></text></g><g clip-path="url(#i)"><text transform="translate(70.307 134.978)"><tspan x="0" y="0" fill="#D1D3D4" font-family="'Calibre-Semibold'" font-size="7" letter-spacing="1">LE</tspan><tspan x="9.961" y="0" fill="#D1D3D4" font-family="'Calibre-Semibold'" font-size="7" letter-spacing="1">O</tspan><tspan x="15.834" y="0" fill="#D1D3D4" font-family="'Calibre-Semibold'" font-size="7" letter-spacing="1">N</tspan><tspan x="21.658" y="0" fill="#D1D3D4" font-family="'Calibre-Semibold'" font-size="7" letter-spacing="1">A</tspan><tspan x="27.44" y="0" fill="#D1D3D4" font-family="'Calibre-Semibold'" font-size="7" letter-spacing="1">RD </tspan><tspan x="41.328" y="0" fill="#D1D3D4" font-family="'Calibre-Semibold'" font-size="7" letter-spacing="1">S</tspan><tspan x="46.368" y="0" fill="#D1D3D4" font-family="'Calibre-Semibold'" font-size="7">T</tspan></text></g><g clip-path="url(#i)"><text transform="translate(65.365 188.683)"><tspan x="0" y="0" fill="#D1D3D4" font-family="'Calibre-Semibold'" font-size="7" letter-spacing="1">C</tspan><tspan x="5.593" y="0" fill="#D1D3D4" font-family="'Calibre-Semibold'" font-size="7" letter-spacing="1">A</tspan><tspan x="11.074" y="0" fill="#D1D3D4" font-family="'Calibre-Semibold'" font-size="7" letter-spacing="1">T</tspan><tspan x="16.639" y="0" fill="#D1D3D4" font-family="'Calibre-Semibold'" font-size="7" letter-spacing="1">H</tspan><tspan x="22.736" y="0" fill="#D1D3D4" font-family="'Calibre-Semibold'" font-size="7" letter-spacing="1">ER</tspan><tspan x="33.369" y="0" fill="#D1D3D4" font-family="'Calibre-Semibold'" font-size="7" letter-spacing="1">I</tspan><tspan x="36.617" y="0" fill="#D1D3D4" font-family="'Calibre-Semibold'" font-size="7" letter-spacing="1">NE L</tspan><tspan x="55.845" y="0" fill="#D1D3D4" font-family="'Calibre-Semibold'" font-size="7">N</tspan></text></g><path clip-path="url(#i)" d="M69.774 158.685L68.587 158.685 68.587 160.393 69.774 160.393 69.774 167.288 78.066 167.9 78.066 158.935 77.878 158.935 77.878 155.788 78.066 155.788 78.066 150.31 69.774 150.31z"/><defs><path id="j" d="M39.545 148.706H151.559V173.983H39.545z"/></defs><clipPath id="k"><use xlink:href="#j" overflow="visible"/></clipPath><path clip-path="url(#k)" fill="none" stroke="#D0D2D3" stroke-width="1.092" stroke-miterlimit="10" d="M148.875 150.382L148.875 172.306 40.896 165.588 40.946 150.382z"/><defs><path id="l" d="M-47.611 -368H1176.389V424H-47.611z"/></defs><clipPath id="m"><use xlink:href="#l" overflow="visible"/></clipPath><path clip-path="url(#m)" d="M47.658 55.915L47.658 73.709 53.957 77.357 53.957 59.513z"/><path clip-path="url(#m)" fill="none" stroke="#D1D3D4" stroke-width=".154" stroke-miterlimit="10" d="M73.387 106.496L35.144 84.342"/><path clip-path="url(#m)" fill="none" stroke="#D1D3D4" stroke-width=".154" stroke-miterlimit="10" d="M84.219 70.436L73.407 76.737 1.862 35.291"/><path clip-path="url(#m)" fill="none" stroke="#D1D3D4" stroke-width=".154" stroke-miterlimit="10" d="M84.219 73.413L73.407 79.717 1.862 38.27"/><path clip-path="url(#m)" fill="none" stroke="#D1D3D4" stroke-width=".154" stroke-miterlimit="10" d="M84.219 76.392L73.407 82.695 1.862 41.247"/><path clip-path="url(#m)" fill="none" stroke="#D1D3D4" stroke-width=".154" stroke-miterlimit="10" d="M84.219 79.37L73.407 85.673 1.862 44.226"/><path clip-path="url(#m)" fill="none" stroke="#D1D3D4" stroke-width=".154" stroke-miterlimit="10" d="M84.219 82.349L73.407 88.651 1.862 47.204"/><path clip-path="url(#m)" fill="none" stroke="#D1D3D4" stroke-width=".154" stroke-miterlimit="10" d="M84.219 85.327L73.407 91.63 1.862 50.183"/><path clip-path="url(#m)" fill="none" stroke="#D1D3D4" stroke-width=".154" stroke-miterlimit="10" d="M84.219 88.306L73.407 94.608 1.862 53.16"/><path clip-path="url(#m)" fill="none" stroke="#D1D3D4" stroke-width=".154" stroke-miterlimit="10" d="M84.219 91.284L73.407 97.586 1.862 56.139"/><path clip-path="url(#m)" fill="none" stroke="#D1D3D4" stroke-width=".154" stroke-miterlimit="10" d="M84.219 94.262L81.675 95.746"/><path clip-path="url(#m)" fill="none" stroke="#D1D3D4" stroke-width=".154" stroke-miterlimit="10" d="M75.933 99.092L73.407 100.564 1.862 59.118"/><path clip-path="url(#m)" fill="none" stroke="#D1D3D4" stroke-width=".154" stroke-miterlimit="10" d="M81.675 98.723L84.219 97.24"/><path clip-path="url(#m)" fill="none" stroke="#D1D3D4" stroke-width=".154" stroke-miterlimit="10" d="M75.933 102.07L73.407 103.543 1.862 62.096"/><path clip-path="url(#m)" fill="none" stroke="#D1D3D4" stroke-width=".154" stroke-miterlimit="10" d="M84.219 67.457L73.407 73.76 1.862 32.312"/><g clip-path="url(#m)"><text transform="matrix(.8479 .5302 -.8381 .5455 4.602 80.32)"><tspan x="0" y="0" fill="#D1D3D4" font-family="'Calibre-Semibold'" font-size="6.297" letter-spacing="1">LE</tspan><tspan x="9.464" y="-.001" fill="#D1D3D4" font-family="'Calibre-Semibold'" font-size="6.297" letter-spacing="1">O</tspan><tspan x="15" y="-.001" fill="#D1D3D4" font-family="'Calibre-Semibold'" font-size="6.297" letter-spacing="1">N</tspan><tspan x="20.49" y="0" fill="#D1D3D4" font-family="'Calibre-Semibold'" font-size="6.297" letter-spacing="1">A</tspan><tspan x="25.944" y="0" fill="#D1D3D4" font-family="'Calibre-Semibold'" font-size="6.297" letter-spacing="1">R</tspan><tspan x="31" y="0" fill="#D1D3D4" font-family="'Calibre-Semibold'" font-size="6.297" letter-spacing="1">D</tspan><tspan x="36.34" y="-.001" fill="#D1D3D4" font-family="'Calibre-Semibold'" font-size="6.297" letter-spacing="1"> </tspan><tspan x="39.185" y="0" fill="#D1D3D4" font-family="'Calibre-Semibold'" font-size="6.297" letter-spacing="1">S</tspan><tspan x="43.971" y="-.001" fill="#D1D3D4" font-family="'Calibre-Semibold'" font-size="6.297">T</tspan></text></g><path clip-path="url(#m)" fill="none" stroke="#000" stroke-width=".154" stroke-miterlimit="10" d="M73.405 65.009L73.405 60.299"/><path clip-path="url(#m)" fill="none" stroke="#000" stroke-width=".154" stroke-miterlimit="10" d="M10.506 27.289L10.506 23.393"/><path clip-path="url(#m)" fill="none" stroke="#000" stroke-width=".154" stroke-miterlimit="10" d="M23.583 32.348L23.583 34.519"/><path clip-path="url(#m)" fill="none" stroke="#000" stroke-width=".154" stroke-miterlimit="10" d="M17.81 29.062L17.81 31.232"/><path clip-path="url(#m)" fill="none" stroke="#000" stroke-width=".154" stroke-miterlimit="10" d="M25.14 31.492L25.14 33.664"/><path clip-path="url(#m)" fill="none" stroke="#000" stroke-width=".145" stroke-miterlimit="10" d="M25.15 33.631L23.565 34.559"/><path clip-path="url(#m)" fill="none" stroke="#000" stroke-width=".145" stroke-miterlimit="10" d="M25.071 31.573L23.603 32.433"/><path clip-path="url(#m)" fill="none" stroke="#000" stroke-width=".145" stroke-miterlimit="10" d="M64.833 50.247L58.499 53.954"/><path clip-path="url(#m)" fill="none" stroke="#000" stroke-width=".145" stroke-miterlimit="10" d="M69.686 54.112L64.258 57.289"/><path clip-path="url(#m)" fill="none" stroke="#000" stroke-width=".154" stroke-miterlimit="10" d="M32.753 35.881L32.753 38.052"/><path clip-path="url(#m)" fill="none" stroke="#000" stroke-width=".145" stroke-miterlimit="10" d="M38.056 34.112L63.68 50.941"/><path clip-path="url(#m)" fill="none" stroke="#000" stroke-width=".145" stroke-miterlimit="10" d="M64.802 50.239L69.686 53.447"/><path clip-path="url(#m)" fill="none" stroke="#000" stroke-width=".145" stroke-miterlimit="10" d="M38.056 33.444L64.177 50.601"/><path clip-path="url(#m)" fill="none" stroke="#000" stroke-width=".145" stroke-miterlimit="10" d="M7.423 26.015L10.081 27.555"/><path clip-path="url(#m)" fill="none" stroke="#000" stroke-width=".145" stroke-miterlimit="10" d="M17.81 29.062L23.583 32.41"/><path clip-path="url(#m)" fill="none" stroke="#000" stroke-width=".145" stroke-miterlimit="10" d="M25.158 31.573L32.83 36.018"/><path clip-path="url(#m)" fill="none" stroke="#000" stroke-width=".145" stroke-miterlimit="10" d="M25.115 33.632L32.753 38.057"/><path clip-path="url(#m)" fill="none" stroke="#000" stroke-width=".145" stroke-miterlimit="10" d="M58.526 53.964L64.268 57.29"/><path clip-path="url(#m)" fill="none" stroke="#000" stroke-width=".154" stroke-miterlimit="10" d="M73.375 51.419L73.375 49.105"/><path clip-path="url(#m)" fill="none" stroke="#000" stroke-width=".154" stroke-miterlimit="10" d="M63.734 61.676L62.818 61.126 61.666 61.8 12.077 33.072 12.077 30.64"/><path clip-path="url(#m)" fill="none" stroke="#000" stroke-width=".154" stroke-miterlimit="10" d="M24.511 25.216L19.594 21.987 8.417 28.529 61.665 59.364"/><path clip-path="url(#m)" fill="none" stroke="#000" stroke-width=".154" stroke-miterlimit="10" d="M61.665 59.363L61.665 61.796"/><path clip-path="url(#m)" fill="none" stroke="#000" stroke-width=".154" stroke-miterlimit="10" d="M62.823 58.672L61.665 59.349"/><path clip-path="url(#m)" fill="none" stroke="#000" stroke-width=".154" stroke-miterlimit="10" d="M62.823 61.126L62.823 58.673 58.526 56.183"/><path clip-path="url(#m)" fill="none" stroke="#000" stroke-width=".154" stroke-miterlimit="10" d="M73.456 69.475L73.456 66.801"/><path clip-path="url(#m)" fill="none" stroke="#000" stroke-width=".154" stroke-miterlimit="10" d="M79.303 59.34L82.552 61.473 82.552 64.16 73.455 69.484 63.734 63.853 63.734 61.173 67.643 58.886"/><path clip-path="url(#m)" fill="none" stroke="#000" stroke-width=".154" stroke-miterlimit="10" d="M82.552 61.474L73.454 66.8 63.733 61.174"/><path clip-path="url(#m)" fill="none" stroke="#000" stroke-width=".145" stroke-miterlimit="10" d="M9.392 29.076L9.392 30.388 12.078 31.958"/><path clip-path="url(#m)" fill="none" stroke="#000" stroke-width=".145" stroke-miterlimit="10" d="M17.81 31.229L23.583 34.574"/><path clip-path="url(#m)" fill="none" stroke="#000" stroke-width=".141" stroke-miterlimit="10" d="M58.501 56.173L58.501 53.962"/><path clip-path="url(#m)" fill="none" stroke="#000" stroke-width=".141" stroke-miterlimit="10" d="M64.267 60.82L64.267 57.297"/><path clip-path="url(#m)" fill="none" stroke="#000" stroke-width=".145" stroke-miterlimit="10" d="M77.185 50.284L73.411 52.493 69.686 50.331"/><path clip-path="url(#m)" fill="none" stroke="#000" stroke-width=".154" stroke-miterlimit="10" d="M77.185 55.087L77.541 55.294 77.541 56.941 73.419 59.352 69.266 56.945 69.266 55.423 69.686 55.177"/><path clip-path="url(#m)" fill="none" stroke="#000" stroke-width=".154" stroke-miterlimit="10" d="M73.414 59.346L73.414 52.494"/><path clip-path="url(#m)" fill="none" stroke="#000" stroke-width=".154" stroke-miterlimit="10" d="M77.542 55.81L79.303 56.83 79.303 61.57 73.405 65.017 67.642 61.678 67.642 56.927 69.266 55.977"/><path clip-path="url(#m)" fill="none" stroke="#000" stroke-width=".154" stroke-miterlimit="10" d="M79.303 56.83L73.406 60.3 67.687 56.986"/><path clip-path="url(#m)" fill="none" stroke="#000" stroke-width=".154" stroke-miterlimit="10" d="M7.423 25.988L1.782 29.29 1.782 68.877"/><path clip-path="url(#m)" fill="none" stroke="#000" stroke-width=".154" stroke-miterlimit="10" d="M13.665 22.334L17.617 20.021 25.051 24.903"/><path clip-path="url(#m)" fill="none" stroke="#000" stroke-width=".154" stroke-miterlimit="10" d="M73.406 70.783L73.367 106.521"/><path clip-path="url(#m)" fill="none" stroke="#D1D3D4" stroke-width=".154" stroke-miterlimit="10" d="M32.123 82.591L1.849 65.052"/><path clip-path="url(#m)" fill="none" stroke="#000" stroke-width=".145" stroke-miterlimit="10" d="M9.055 20.652L7.422 21.607 7.422 26.015"/><path clip-path="url(#m)" fill="none" stroke="#000" stroke-width=".145" stroke-miterlimit="10" d="M12.146 20.664L13.664 21.544 13.664 25.419"/><path clip-path="url(#m)" fill="none" stroke="#000" stroke-width=".145" stroke-miterlimit="10" d="M7.423 21.606L10.506 23.392 13.665 21.543"/><path clip-path="url(#m)" fill="none" stroke="#000" stroke-width=".154" stroke-miterlimit="10" d="M74.686 47.335L75.493 47.865 75.493 50.182 73.375 51.42 71.237 50.181 71.237 47.866 72.339 47.221"/><path clip-path="url(#m)" fill="none" stroke="#000" stroke-width=".145" stroke-miterlimit="10" d="M75.496 47.867L73.375 49.106 71.235 47.867"/><g><defs><path id="n" d="M0 7.839H90.629V108.735H0z"/></defs><clipPath id="o"><use xlink:href="#n" overflow="visible"/></clipPath><path clip-path="url(#o)" fill="none" stroke="#000" stroke-width=".154" stroke-miterlimit="10" d="M71.406 45.373c-.045.091-.203.264-.218.334l.129.342c.13.174.606.335 1.399.108.794-.226 2.457-1.106 2.609-1.999l-.266-.5s-.247-.079-.517-.01"/></g><g><defs><path id="p" d="M-47.611 -368H1176.389V424H-47.611z"/></defs><clipPath id="q"><use xlink:href="#p" overflow="visible"/></clipPath><path clip-path="url(#q)" fill="none" stroke="#000" stroke-width=".154" stroke-miterlimit="10" d="M72.151 42.109L73.28 42.656 73.627 42.511 74.408 41.415"/></g><g><defs><path id="r" d="M0 7.839H90.629V108.735H0z"/></defs><clipPath id="s"><use xlink:href="#r" overflow="visible"/></clipPath><path clip-path="url(#s)" fill="none" stroke="#000" stroke-width=".154" stroke-miterlimit="10" d="M75.128 44.61a1.884 1.884 0 0 1-3.207 1.711l-.077-.06m-.293-.486a1.883 1.883 0 0 1 1.448-2.608 1.815 1.815 0 0 1 1.65.565c.222.25.302.446.302.446m-2.373 9.713c.315.904.068 1.638-.552 1.64s-1.377-.73-1.692-1.633c-.315-.904-.068-1.639.552-1.64.619-.002 1.377.729 1.692 1.633zm1.612.03c-.315.904-.068 1.638.552 1.64.62.002 1.377-.73 1.692-1.634.314-.903.068-1.637-.552-1.639s-1.377.73-1.692 1.633z"/><path clip-path="url(#s)" fill="none" stroke="#000" stroke-width=".145" stroke-linejoin="bevel" stroke-miterlimit="10" d="M74.682 47.438s.005-.164-.01-.203a.136.136 0 0 0-.103-.091c-.064-.017-.331.062-.331.062s-.003-.045-.003-.104v-.048l.1-.43"/><path clip-path="url(#s)" fill="none" stroke="#000" stroke-width=".145" stroke-miterlimit="10" d="M73.789 47.419c-.021.079.06.163.076.218.024.078.205.135.363.019"/></g><g><defs><path id="t" d="M-47.611 -368H1176.389V424H-47.611z"/></defs><clipPath id="u"><use xlink:href="#t" overflow="visible"/></clipPath><path clip-path="url(#u)" fill="none" stroke="#000" stroke-width=".145" stroke-miterlimit="10" d="M72.782 48.146L72.782 47.972 73.025 47.563 72.983 47.419 72.533 47.345 72.131 47.099 72.294 46.625"/><path clip-path="url(#u)" fill="none" stroke="#000" stroke-width=".154" stroke-miterlimit="10" d="M71.237 49.424L69.686 50.332 69.686 55.388 73.418 57.55 77.186 55.35 77.186 50.285 75.5 49.308"/></g><g><defs><path id="v" d="M0 7.839H90.629V108.735H0z"/></defs><clipPath id="w"><use xlink:href="#v" overflow="visible"/></clipPath><path clip-path="url(#w)" fill="none" stroke="#000" stroke-width=".145" stroke-miterlimit="10" d="M10.344 18.949c-.731.127-1.288.791-1.288 1.59v1.122c0 .438.691.793 1.545.793s1.545-.355 1.545-.793v-1.122c0-.798-.557-1.462-1.288-1.59v-.17c0-.079-.098-.172-.258-.172-.157 0-.256.093-.256.172v.17z"/></g><g><defs><path id="x" d="M-47.611 -368H1176.389V424H-47.611z"/></defs><clipPath id="y"><use xlink:href="#x" overflow="visible"/></clipPath><path clip-path="url(#y)" fill="none" stroke="#000" stroke-width=".154" stroke-miterlimit="10" d="M84.219 64.479L73.407 70.781 1.862 29.334"/><path clip-path="url(#y)" fill="none" stroke="#000" stroke-width=".154" stroke-miterlimit="10" d="M35.143 84.888L33.055 83.681 31.171 84.779 33.779 86.287 35.143 85.493"/><path clip-path="url(#y)" fill="none" stroke="#000" stroke-width=".154" stroke-miterlimit="10" d="M35.143 84.888L33.055 83.681"/><path clip-path="url(#y)" fill="none" stroke="#000" stroke-width=".154" stroke-miterlimit="10" d="M35.144 86.63L34.164 86.063"/></g><g><defs><path id="z" d="M0 7.839H90.629V108.735H0z"/></defs><clipPath id="A"><use xlink:href="#z" overflow="visible"/></clipPath><path clip-path="url(#A)" fill="none" stroke="#000" stroke-width=".154" stroke-miterlimit="10" d="M33.479 81.308c-.285.243-.419.652-.419.862v1.541"/></g><g><defs><path id="B" d="M-47.611 -368H1176.389V424H-47.611z"/></defs><clipPath id="C"><use xlink:href="#B" overflow="visible"/></clipPath><path clip-path="url(#C)" fill="none" stroke="#000" stroke-width=".154" stroke-miterlimit="10" d="M32.649 85.634L32.117 85.943 1.783 68.854"/><path clip-path="url(#C)" fill="none" stroke="#000" stroke-width=".154" stroke-miterlimit="10" d="M32.121 85.943L32.121 85.328"/></g><g><defs><path id="D" d="M0 7.839H90.629V108.735H0z"/></defs><clipPath id="E"><use xlink:href="#D" overflow="visible"/></clipPath><path clip-path="url(#E)" fill="none" stroke="#000" stroke-width=".154" stroke-miterlimit="10" d="M81.675 101.668v-5.765l-5.742 3.188v5.934l-2.568 1.497-19.247-9.11-15.437-7.77-3.538-1.993v-4.051c0-.263-.245-1.495-1.51-2.227-1.067-.62-1.513.485-1.513.874v1.981"/></g><g><defs><path id="F" d="M-47.611 -368H1176.389V424H-47.611z"/></defs><clipPath id="G"><use xlink:href="#F" overflow="visible"/></clipPath><path clip-path="url(#G)" fill="none" stroke="#000" stroke-width=".154" stroke-miterlimit="10" d="M77.612 102.079L77.612 100.582 76.678 101.123 76.678 102.62"/></g><g><defs><path id="H" d="M0 7.839H90.629V108.735H0z"/></defs><clipPath id="I"><use xlink:href="#H" overflow="visible"/></clipPath><path clip-path="url(#I)" fill="none" stroke="#000" stroke-width=".154" stroke-miterlimit="10" d="M82.552 63.415l1.654 1.085v35.703l-2.53 1.466c-.087-.032-2.168-.641-3.842.284l-1.321.767a1.995 1.995 0 0 0-.58.429"/></g><g><defs><path id="J" d="M-47.611 -368H1176.389V424H-47.611z"/></defs><clipPath id="K"><use xlink:href="#J" overflow="visible"/></clipPath><path clip-path="url(#K)" fill="none" stroke="#000" stroke-width=".145" stroke-miterlimit="10" d="M32.753 38.052L38.057 34.893 38.057 32.848 25.558 24.61 17.812 29.088"/><path clip-path="url(#K)" fill="none" stroke="#000" stroke-width=".145" stroke-miterlimit="10" d="M38.056 32.839L32.767 35.957"/></g><g><defs><path id="L" d="M0 7.839H90.629V108.735H0z"/></defs></g><g><defs><path id="M" d="M-47.611 -368H1176.389V424H-47.611z"/></defs><clipPath id="N"><use xlink:href="#M" overflow="visible"/></clipPath><path clip-path="url(#N)" d="M129.061 40.534L129.061 58.412 134.958 62.338 134.989 44.448z"/></g><g><defs><path id="O" d="M105.029 4.239H187.777V108.73400000000001H105.029z"/></defs></g><g><defs><path id="P" d="M-47.611 -368H1176.389V424H-47.611z"/></defs><clipPath id="Q"><use xlink:href="#P" overflow="visible"/></clipPath><path clip-path="url(#Q)" fill="none" stroke="#D1D3D4" stroke-width=".145" stroke-miterlimit="10" d="M186.041 64.49L172.526 72.125 111.574 31.98"/><path clip-path="url(#Q)" fill="none" stroke="#D1D3D4" stroke-width=".145" stroke-miterlimit="10" d="M186.041 67.481L172.526 75.117 111.574 34.972"/><path clip-path="url(#Q)" fill="none" stroke="#D1D3D4" stroke-width=".145" stroke-miterlimit="10" d="M186.041 70.473L172.526 78.107 111.574 37.963"/><path clip-path="url(#Q)" fill="none" stroke="#D1D3D4" stroke-width=".145" stroke-miterlimit="10" d="M186.041 73.465L172.526 81.099 111.574 40.953"/><path clip-path="url(#Q)" fill="none" stroke="#D1D3D4" stroke-width=".145" stroke-miterlimit="10" d="M186.041 76.456L172.526 84.09 111.574 43.945"/><path clip-path="url(#Q)" fill="none" stroke="#D1D3D4" stroke-width=".145" stroke-miterlimit="10" d="M186.041 79.447L172.526 87.081 111.574 46.937"/><path clip-path="url(#Q)" fill="none" stroke="#D1D3D4" stroke-width=".145" stroke-miterlimit="10" d="M186.041 82.438L172.526 90.073 111.574 49.928"/><path clip-path="url(#Q)" fill="none" stroke="#D1D3D4" stroke-width=".145" stroke-miterlimit="10" d="M186.041 85.43L172.526 93.064 111.574 52.919"/><path clip-path="url(#Q)" fill="none" stroke="#D1D3D4" stroke-width=".145" stroke-miterlimit="10" d="M186.041 88.421L172.526 96.056 111.574 55.911"/><path clip-path="url(#Q)" fill="none" stroke="#D1D3D4" stroke-width=".145" stroke-miterlimit="10" d="M186.041 91.412L172.526 99.046 111.574 58.902"/><path clip-path="url(#Q)" fill="none" stroke="#D1D3D4" stroke-width=".145" stroke-miterlimit="10" d="M186.041 94.403L172.526 102.037 111.574 61.894"/><path clip-path="url(#Q)" fill="none" stroke="#000" stroke-width=".145" stroke-miterlimit="10" d="M123.13 34.677L123.13 33.065"/><path clip-path="url(#Q)" fill="none" stroke="#000" stroke-width=".145" stroke-miterlimit="10" d="M129.061 35.453L129.061 33.645"/><path clip-path="url(#Q)" fill="none" stroke="#000" stroke-width=".145" stroke-miterlimit="10" d="M124.198 32.405L124.198 30.598"/><path clip-path="url(#Q)" fill="none" stroke="#000" stroke-width=".145" stroke-miterlimit="10" d="M134.77 32.146L134.77 30.338"/><path clip-path="url(#Q)" fill="none" stroke="#000" stroke-width=".145" stroke-miterlimit="10" d="M174.161 61.913L174.161 60.334"/><path clip-path="url(#Q)" fill="none" stroke="#000" stroke-width=".145" stroke-miterlimit="10" d="M152.236 50.154L152.236 48.576"/><path clip-path="url(#Q)" fill="none" stroke="#000" stroke-width=".145" stroke-miterlimit="10" d="M121.115 31.79L121.115 34.47"/><path clip-path="url(#Q)" fill="none" stroke="#000" stroke-width=".145" stroke-miterlimit="10" d="M130.804 26.035L130.804 27.881"/><path clip-path="url(#Q)" fill="none" stroke="#000" stroke-width=".145" stroke-miterlimit="10" d="M174.161 61.913L175.015 62.456"/><path clip-path="url(#Q)" fill="none" stroke="#000" stroke-width=".145" stroke-miterlimit="10" d="M127.486 26.096L127.486 21.309"/><path clip-path="url(#Q)" fill="none" stroke="#000" stroke-width=".145" stroke-miterlimit="10" d="M117.869 19.99L117.869 14.848"/><path clip-path="url(#Q)" fill="none" stroke="#000" stroke-width=".145" stroke-miterlimit="10" d="M121.57 15.865L121.57 13.599"/><path clip-path="url(#Q)" fill="none" stroke="#000" stroke-width=".145" stroke-miterlimit="10" d="M121.548 23.912L121.548 17.128"/><path clip-path="url(#Q)" fill="none" stroke="#000" stroke-width=".145" stroke-miterlimit="10" d="M125.368 19.942L125.368 14.936"/><path clip-path="url(#Q)" fill="none" stroke="#000" stroke-width=".145" stroke-miterlimit="10" d="M121.57 15.981L121.57 13.713"/><path clip-path="url(#Q)" fill="none" stroke="#000" stroke-width=".145" stroke-miterlimit="10" d="M125.724 21.503L125.724 19.901"/><path clip-path="url(#Q)" fill="none" stroke="#000" stroke-width=".145" stroke-miterlimit="10" d="M117.437 21.724L117.437 20.122"/><path clip-path="url(#Q)" fill="none" stroke="#000" stroke-width=".145" stroke-miterlimit="10" d="M121.215 29.75L121.215 24.994"/><path clip-path="url(#Q)" fill="none" stroke="#000" stroke-width=".145" stroke-miterlimit="10" d="M115.825 26.142L115.825 21.503"/><path clip-path="url(#Q)" fill="none" stroke="#000" stroke-width=".145" stroke-miterlimit="10" d="M123.332 33.16L121.115 34.469 113.015 29.137 113.015 26.473 115.823 24.83"/><path clip-path="url(#Q)" fill="none" stroke="#000" stroke-width=".145" stroke-miterlimit="10" d="M123.103 33.11L124.214 32.456"/><path clip-path="url(#Q)" fill="none" stroke="#000" stroke-width=".145" stroke-miterlimit="10" d="M121.148 29.723L115.827 26.218"/><path clip-path="url(#Q)" fill="none" stroke="#000" stroke-width=".145" stroke-miterlimit="10" d="M121.562 22.159L125.636 19.763"/><path clip-path="url(#Q)" fill="none" stroke="#000" stroke-width=".145" stroke-miterlimit="10" d="M121.236 24.236L125.636 21.648"/></g><g><defs><path id="R" d="M105.029 4.239H187.777V108.73400000000001H105.029z"/></defs><clipPath id="S"><use xlink:href="#R" overflow="visible"/></clipPath><path clip-path="url(#S)" fill="none" stroke="#000" stroke-width=".145" stroke-miterlimit="10" d="M120.76 18.453c.315.904.068 1.638-.552 1.639-.619.002-1.376-.73-1.692-1.633-.314-.904-.067-1.637.552-1.639.62-.003 1.377.728 1.692 1.633zm1.613.03c-.315.904-.067 1.637.552 1.639s1.377-.73 1.692-1.633c.314-.904.068-1.638-.552-1.639-.62-.002-1.377.729-1.692 1.633z"/></g><g><defs><path id="T" d="M-47.611 -368H1176.389V424H-47.611z"/></defs><clipPath id="U"><use xlink:href="#T" overflow="visible"/></clipPath><path clip-path="url(#U)" fill="none" stroke="#000" stroke-width=".145" stroke-miterlimit="10" d="M121.215 25.037L127.532 21.324"/><path clip-path="url(#U)" fill="none" stroke="#000" stroke-width=".145" stroke-miterlimit="10" d="M121.115 29.785L127.392 26.096"/><path clip-path="url(#U)" fill="none" stroke="#000" stroke-width=".145" stroke-miterlimit="10" d="M117.228 20.121L117.838 19.764"/><path clip-path="url(#U)" fill="none" stroke="#000" stroke-width=".145" stroke-miterlimit="10" d="M115.824 21.485L121.148 24.992"/><path clip-path="url(#U)" fill="none" stroke="#000" stroke-width=".145" stroke-miterlimit="10" d="M113.015 26.456L121.114 31.79"/><path clip-path="url(#U)" fill="none" stroke="#000" stroke-width=".145" stroke-miterlimit="10" d="M125.445 19.701L125.724 19.901"/><path clip-path="url(#U)" fill="none" stroke="#000" stroke-width=".145" stroke-miterlimit="10" d="M117.437 20.542L115.825 21.503"/><path clip-path="url(#U)" fill="none" stroke="#000" stroke-width=".145" stroke-miterlimit="10" d="M113.015 28.071L111.573 28.932"/><path clip-path="url(#U)" fill="none" stroke="#000" stroke-width=".145" stroke-miterlimit="10" d="M127.549 23.894L130.804 26.035"/><path clip-path="url(#U)" fill="none" stroke="#000" stroke-width=".145" stroke-miterlimit="10" d="M121.439 17.313L125.383 14.95"/><path clip-path="url(#U)" fill="none" stroke="#000" stroke-width=".145" stroke-miterlimit="10" d="M117.869 14.897L119.421 13.986"/><path clip-path="url(#U)" fill="none" stroke="#000" stroke-width=".145" stroke-miterlimit="10" d="M121.439 16.069L123.816 14.671"/><path clip-path="url(#U)" fill="none" stroke="#000" stroke-width=".145" stroke-miterlimit="10" d="M121.579 13.77L123.766 12.483"/><path clip-path="url(#U)" fill="none" stroke="#000" stroke-width=".145" stroke-miterlimit="10" d="M117.869 14.847L121.548 17.361"/><path clip-path="url(#U)" fill="none" stroke="#000" stroke-width=".145" stroke-miterlimit="10" d="M123.679 13.728L125.382 14.85"/><path clip-path="url(#U)" fill="none" stroke="#000" stroke-width=".145" stroke-miterlimit="10" d="M125.724 20.322L127.527 21.509"/><path clip-path="url(#U)" fill="none" stroke="#000" stroke-width=".145" stroke-miterlimit="10" d="M119.395 14.601L121.629 16.069"/><path clip-path="url(#U)" fill="none" stroke="#000" stroke-width=".145" stroke-miterlimit="10" d="M119.582 12.497L121.571 13.807"/><path clip-path="url(#U)" fill="none" stroke="#000" stroke-width=".145" stroke-miterlimit="10" d="M122.644 11.755L123.787 12.509"/></g><g><defs><path id="V" d="M105.029 4.239H187.777V108.73400000000001H105.029z"/></defs><clipPath id="W"><use xlink:href="#V" overflow="visible"/></clipPath><path clip-path="url(#W)" fill="none" stroke="#000" stroke-width=".145" stroke-miterlimit="10" d="M119.588 9.934c-.046.091-.203.264-.218.334l.129.343c.13.174.606.334 1.399.109.794-.227 2.457-1.107 2.609-2.001l-.266-.5s-.247-.079-.517-.009"/></g><g><defs><path id="X" d="M-47.611 -368H1176.389V424H-47.611z"/></defs><clipPath id="Y"><use xlink:href="#X" overflow="visible"/></clipPath><path clip-path="url(#Y)" fill="none" stroke="#000" stroke-width=".145" stroke-miterlimit="10" d="M120.334 6.671L121.463 7.218 121.81 7.072 122.591 5.976"/></g><g><defs><path id="Z" d="M105.029 4.239H187.777V108.73400000000001H105.029z"/></defs><clipPath id="aa"><use xlink:href="#Z" overflow="visible"/></clipPath><path clip-path="url(#aa)" fill="none" stroke="#000" stroke-width=".145" stroke-miterlimit="10" d="M123.312 9.172a1.884 1.884 0 0 1-3.208 1.711l-.077-.059m-.293-.487a1.884 1.884 0 0 1 1.449-2.608 1.815 1.815 0 0 1 1.649.566c.222.25.302.446.302.446"/><path clip-path="url(#aa)" fill="none" stroke="#000" stroke-width=".145" stroke-miterlimit="10" d="M122.864 12s.006-.164-.01-.203a.135.135 0 0 0-.102-.091c-.065-.016-.331.061-.331.061s-.004-.045-.004-.104v-.048l.1-.429m-.545.794c-.021.079.06.163.076.218.024.079.205.134.363.019"/></g><g><defs><path id="ab" d="M-47.611 -368H1176.389V424H-47.611z"/></defs><clipPath id="ac"><use xlink:href="#ab" overflow="visible"/></clipPath><path clip-path="url(#ac)" fill="none" stroke="#000" stroke-width=".145" stroke-miterlimit="10" d="M120.965 12.708L120.965 12.533 121.208 12.126 121.166 11.98 120.716 11.907 120.314 11.661 120.477 11.188"/><path clip-path="url(#ac)" fill="none" stroke="#000" stroke-width=".145" stroke-miterlimit="10" d="M117.889 19.763L121.562 22.183"/><path clip-path="url(#ac)" fill="none" stroke="#000" stroke-width=".145" stroke-miterlimit="10" d="M117.471 21.481L121.32 24.016"/><path clip-path="url(#ac)" fill="none" stroke="#000" stroke-width=".145" stroke-miterlimit="10" d="M120.539 11.674L119.395 12.428"/><path clip-path="url(#ac)" fill="none" stroke="#000" stroke-width=".145" stroke-miterlimit="10" d="M123.678 14.734L123.678 12.602"/><path clip-path="url(#ac)" fill="none" stroke="#000" stroke-width=".145" stroke-miterlimit="10" d="M119.395 14.601L119.395 12.413"/><path clip-path="url(#ac)" fill="none" stroke="#000" stroke-width=".145" stroke-miterlimit="10" d="M152.236 48.576L164.751 56.536"/><path clip-path="url(#ac)" fill="none" stroke="#000" stroke-width=".145" stroke-miterlimit="10" d="M166.831 49.227L172.019 52.276"/><path clip-path="url(#ac)" fill="none" stroke="#000" stroke-width=".145" stroke-miterlimit="10" d="M124.198 32.429L129.06 35.521"/><path clip-path="url(#ac)" fill="none" stroke="#000" stroke-width=".145" stroke-miterlimit="10" d="M124.198 30.535L129.06 33.627"/><path clip-path="url(#ac)" fill="none" stroke="#000" stroke-width=".145" stroke-miterlimit="10" d="M129.908 27.245L134.769 30.338"/><path clip-path="url(#ac)" fill="none" stroke="#000" stroke-width=".145" stroke-miterlimit="10" d="M134.77 31.242L166.348 49.365"/><path clip-path="url(#ac)" fill="none" stroke="#000" stroke-width=".145" stroke-miterlimit="10" d="M154.315 46.875L162.811 51.751"/><path clip-path="url(#ac)" fill="none" stroke="#000" stroke-width=".145" stroke-miterlimit="10" d="M179.351 58.919L179.807 58.65 179.807 57.09 172.008 52.612"/><path clip-path="url(#ac)" fill="none" stroke="#000" stroke-width=".145" stroke-miterlimit="10" d="M180.908 61.016L177.925 62.775 175.035 60.945"/><path clip-path="url(#ac)" fill="none" stroke="#000" stroke-width=".145" stroke-miterlimit="10" d="M177.917 65.473L177.917 62.775"/><path clip-path="url(#ac)" fill="none" stroke="#000" stroke-width=".145" stroke-miterlimit="10" d="M174.161 61.913L169.877 64.422 123.116 34.676"/><path clip-path="url(#ac)" fill="none" stroke="#000" stroke-width=".145" stroke-miterlimit="10" d="M176.76 58.812L169.877 62.842 123.064 33.065"/><path clip-path="url(#ac)" fill="none" stroke="#000" stroke-width=".145" stroke-miterlimit="10" d="M169.877 64.422L169.877 62.844"/><path clip-path="url(#ac)" fill="none" stroke="#000" stroke-width=".145" stroke-miterlimit="10" d="M172.003 52.276L164.75 56.523"/><path clip-path="url(#ac)" fill="none" stroke="#000" stroke-width=".145" stroke-miterlimit="10" d="M172.019 52.276L172.019 53.805 164.776 58.045 152.235 50.067"/><path clip-path="url(#ac)" fill="none" stroke="#000" stroke-width=".145" stroke-miterlimit="10" d="M164.751 58.028L164.751 56.536"/><path clip-path="url(#ac)" fill="none" stroke="#000" stroke-width=".145" stroke-miterlimit="10" d="M166.831 49.227L162.405 51.818"/><path clip-path="url(#ac)" fill="none" stroke="#000" stroke-width=".145" stroke-miterlimit="10" d="M154.891 47.043L152.236 48.597"/><path clip-path="url(#ac)" fill="none" stroke="#000" stroke-width=".145" stroke-miterlimit="10" d="M134.77 32.112L129.062 35.454"/><path clip-path="url(#ac)" fill="none" stroke="#000" stroke-width=".145" stroke-miterlimit="10" d="M134.77 30.338L129.062 33.68"/><path clip-path="url(#ac)" fill="none" stroke="#000" stroke-width=".145" stroke-miterlimit="10" d="M129.893 27.245L124.185 30.587"/><path clip-path="url(#ac)" fill="none" stroke="#000" stroke-width=".145" stroke-miterlimit="10" d="M130.804 26.121L121.236 31.721"/><path clip-path="url(#ac)" fill="none" stroke="#000" stroke-width=".145" stroke-miterlimit="10" d="M179.732 57.072L178.229 57.952"/><g clip-path="url(#ac)"><text transform="matrix(.8203 .5719 -.8644 .5029 109.08 73.196)"><tspan x="0" y="0" fill="#D1D3D4" font-family="'Calibre-Semibold'" font-size="6.297" letter-spacing="1">C</tspan><tspan x="5.165" y="0" fill="#D1D3D4" font-family="'Calibre-Semibold'" font-size="6.297" letter-spacing="1">A</tspan><tspan x="10.226" y="0" fill="#D1D3D4" font-family="'Calibre-Semibold'" font-size="6.297" letter-spacing="1">THERINE L</tspan><tspan x="51.648" y="0" fill="#D1D3D4" font-family="'Calibre-Semibold'" font-size="6.297">N</tspan></text></g><path clip-path="url(#ac)" fill="none" stroke="#000" stroke-width=".145" stroke-miterlimit="10" d="M186.041 61.499L172.526 69.134 111.574 28.989"/><path clip-path="url(#ac)" fill="none" stroke="#000" stroke-width=".145" stroke-miterlimit="10" d="M176.637 59.99L175.016 60.94 175.016 63.622 177.919 65.47 180.908 63.722 180.908 61.017 179.696 60.244"/><path clip-path="url(#ac)" fill="none" stroke="#000" stroke-width=".145" stroke-miterlimit="10" d="M172.547 69.145L172.547 104.907"/><path clip-path="url(#ac)" fill="none" stroke="#000" stroke-width=".145" stroke-miterlimit="10" d="M179.732 99.914L178.75 100.494"/><path clip-path="url(#ac)" fill="none" stroke="#000" stroke-width=".145" stroke-miterlimit="10" d="M179.732 99.914L180.351 100.309 186.041 96.954 186.041 61.48 179.808 57.903"/></g><g><defs><path id="ad" d="M105.029 4.239H187.777V108.73400000000001H105.029z"/></defs><clipPath id="ae"><use xlink:href="#ad" overflow="visible"/></clipPath><path clip-path="url(#ae)" fill="none" stroke="#000" stroke-width=".145" stroke-miterlimit="10" d="M179.731 99.914v-.859a.522.522 0 0 0-.171-.385"/><path clip-path="url(#ae)" fill="none" stroke="#000" stroke-width=".145" stroke-miterlimit="10" d="M180.358 100.309v-1.253c0-.301-.262-.698-.866-.354-.424.258-.742.722-.742 1.167v1.384l-6.203 3.655-9.339-6.466-11.812-8.075-9.905-6.798-20.085-14.431-9.832-7.084V28.989m66.339 29.379c-.732.127-1.288.791-1.288 1.59v1.121c0 .438.691.793 1.545.793s1.545-.354 1.545-.793v-1.121c0-.799-.557-1.463-1.288-1.59v-.171c0-.079-.099-.171-.258-.171-.157 0-.256.092-.256.171v.171z"/></g><g><defs><path id="af" d="M-47.611 -368H1176.389V424H-47.611z"/></defs></g></svg>