<?xml version="1.0" encoding="utf-8"?>
<!-- Generator: Adobe Illustrator 16.0.4, SVG Export Plug-In . SVG Version: 6.00 Build 0)  -->
<!DOCTYPE svg PUBLIC "-//W3C//DTD SVG 1.1//EN" "http://www.w3.org/Graphics/SVG/1.1/DTD/svg11.dtd">
<svg version="1.1" id="Layer_1" xmlns="http://www.w3.org/2000/svg" xmlns:xlink="http://www.w3.org/1999/xlink" x="0px" y="0px"
	 width="241.5px" height="98.13px" viewBox="-94.5 83.63 241.5 98.13" enable-background="new -94.5 83.63 241.5 98.13"
	 xml:space="preserve">
<g>
	<defs>
		<rect id="SVGID_1_" x="-70" y="-381.24" width="1224" height="792"/>
	</defs>
	<clipPath id="SVGID_2_">
		<use xlink:href="#SVGID_1_"  overflow="visible"/>
	</clipPath>
	<g clip-path="url(#SVGID_2_)" enable-background="new    ">
		<path fill="#D1D3D4" d="M6.869,128.278c-0.792,0-1.219-0.547-1.219-1.443v-1.786h4.301v1.646c0,0.896-0.399,1.45-1.17,1.45
			c-0.463,0-0.799-0.252-0.911-0.567C7.737,127.983,7.338,128.278,6.869,128.278z M6.407,125.911v0.847
			c0,0.421,0.21,0.645,0.539,0.645c0.336,0,0.539-0.224,0.539-0.645v-0.847H6.407z M8.186,126.639c0,0.427,0.168,0.651,0.512,0.651
			c0.343,0,0.497-0.225,0.497-0.651v-0.728H8.186V126.639z"/>
		<path fill="#D1D3D4" d="M7.254,130.804H5.65v-0.891h4.301v1.772c0,0.903-0.483,1.506-1.366,1.506c-0.687,0-1.12-0.378-1.268-0.98
			l-1.667,1.135v-1.009l1.604-1.064V130.804z M7.989,130.804v0.826c0,0.448,0.238,0.68,0.596,0.68c0.364,0,0.603-0.231,0.603-0.68
			v-0.826H7.989z"/>
	</g>
	<g enable-background="new    ">
		<path fill="#D1D3D4" d="M5.58,137.763c0-1.197,0.938-2.031,2.221-2.031c1.288,0,2.22,0.834,2.22,2.031s-0.932,2.038-2.22,2.038
			C6.519,139.801,5.58,138.96,5.58,137.763z M9.223,137.763c0-0.68-0.582-1.121-1.422-1.121c-0.841,0-1.422,0.441-1.422,1.121
			c0,0.686,0.581,1.135,1.422,1.135C8.641,138.897,9.223,138.448,9.223,137.763z"/>
	</g>
	<g enable-background="new    ">
		<path fill="#D1D3D4" d="M9.951,143.985l-4.301,1.646v-0.91l1.036-0.386v-1.61l-1.036-0.378v-0.896l4.301,1.646V143.985z
			 M7.443,143.005v1.051l1.429-0.525L7.443,143.005z"/>
	</g>
	<g enable-background="new    ">
		<path fill="#D1D3D4" d="M9.951,147.68v1.521c0,1.303-0.841,2.121-2.15,2.121s-2.15-0.818-2.15-2.121v-1.521H9.951z M6.441,149.165
			c0,0.818,0.525,1.268,1.359,1.268c0.84,0,1.365-0.449,1.365-1.268v-0.596H6.441V149.165z"/>
	</g>
	<g enable-background="new    ">
		<path fill="#D1D3D4" d="M9.951,156.145l-2.893,0.743l2.893,0.707v0.883l-4.301-1.121v-0.819l2.837-0.757l-2.837-0.756v-0.82
			l4.301-1.12v0.903l-2.893,0.701l2.893,0.756V156.145z"/>
	</g>
	<g enable-background="new    ">
		<path fill="#D1D3D4" d="M9.951,162.479l-4.301,1.646v-0.91l1.036-0.385v-1.611l-1.036-0.379v-0.896l4.301,1.646V162.479z
			 M7.443,161.497v1.051l1.429-0.525L7.443,161.497z"/>
	</g>
	<g enable-background="new    ">
		<path fill="#D1D3D4" d="M9.951,168.402v0.945l-2.669-1.562H5.65v-0.89h1.632l2.669-1.548v0.974l-1.821,1.044L9.951,168.402z"/>
	</g>
</g>
<g>
	<defs>
		<rect id="SVGID_3_" x="-70" y="-381.24" width="1224" height="792"/>
	</defs>
	<clipPath id="SVGID_4_">
		<use xlink:href="#SVGID_3_"  overflow="visible"/>
	</clipPath>
	<g clip-path="url(#SVGID_4_)" enable-background="new    ">
		<path fill="#D1D3D4" d="M140.375,117.153v0.896h-3.51v2.004h-0.791v-2.9H140.375z"/>
	</g>
	<g enable-background="new    ">
		<path fill="#D1D3D4" d="M140.375,124.477l-4.301,1.646v-0.91l1.036-0.385v-1.611l-1.036-0.379v-0.896l4.301,1.646V124.477z
			 M137.867,123.495v1.051l1.429-0.525L137.867,123.495z"/>
	</g>
	<g enable-background="new    ">
		<path fill="#D1D3D4" d="M136.074,128.178h4.301v2.864h-0.785v-1.975h-1.093v1.828h-0.777v-1.828h-1.646V128.178z"/>
	</g>
	<g enable-background="new    ">
		<path fill="#D1D3D4" d="M140.375,135.18l-4.301,1.646v-0.91l1.036-0.385v-1.611l-1.036-0.379v-0.896l4.301,1.646V135.18z
			 M137.867,134.198v1.051l1.429-0.525L137.867,134.198z"/>
	</g>
	<g enable-background="new    ">
		<path fill="#D1D3D4" d="M140.375,141.108v0.945l-2.669-1.562h-1.632v-0.889h1.632l2.669-1.548v0.974l-1.821,1.043L140.375,141.108
			z"/>
		<path fill="#D1D3D4" d="M140.375,146.456h-0.785v-2.037h-0.938v1.848h-0.763v-1.848h-1.023v2.037h-0.791v-2.92h4.301V146.456z"/>
		<path fill="#D1D3D4" d="M140.375,147.911v3.67h-0.785v-1.387h-3.516v-0.904h3.516v-1.379H140.375z"/>
		<path fill="#D1D3D4" d="M140.375,152.93v3.67h-0.785v-1.387h-3.516v-0.903h3.516v-1.38H140.375z"/>
		<path fill="#D1D3D4" d="M140.375,161.101h-0.785v-2.039h-0.938v1.85h-0.763v-1.85h-1.023v2.039h-0.791v-2.922h4.301V161.101z"/>
	</g>
	<g enable-background="new    ">
		<path fill="#D1D3D4" d="M137.3,169.171c-0.378,0.119-0.554,0.434-0.554,0.854c0,0.435,0.196,0.723,0.54,0.723
			c0.259,0,0.399-0.154,0.483-0.525l0.175-0.771c0.14-0.615,0.469-1.092,1.177-1.092c0.777,0,1.323,0.645,1.323,1.547
			c0,0.98-0.518,1.549-1.246,1.688v-0.89c0.287-0.098,0.511-0.343,0.511-0.791c0-0.406-0.196-0.68-0.504-0.68
			c-0.245,0-0.393,0.161-0.47,0.483l-0.182,0.784c-0.161,0.701-0.561,1.128-1.212,1.128c-0.833,0-1.338-0.687-1.338-1.597
			c0-0.96,0.477-1.639,1.296-1.786V169.171z"/>
	</g>
	<g enable-background="new    ">
		<path fill="#D1D3D4" d="M140.375,173.487v3.67h-0.785v-1.387h-3.516v-0.902h3.516v-1.381H140.375z"/>
	</g>
</g>
<g>
	<defs>
		<rect id="SVGID_5_" x="-70" y="-381.24" width="1224" height="792"/>
	</defs>
	<clipPath id="SVGID_6_">
		<use xlink:href="#SVGID_5_"  overflow="visible"/>
	</clipPath>
	<g clip-path="url(#SVGID_6_)" enable-background="new    ">
		<path fill="#D1D3D4" d="M48.33,117.438h0.896v3.51h2.003v0.791h-2.9V117.438z"/>
		<path fill="#D1D3D4" d="M55.794,117.438v0.785h-2.038v0.938h1.849v0.763h-1.849v1.023h2.038v0.791h-2.921v-4.301H55.794z"/>
	</g>
	<g enable-background="new    ">
		<path fill="#D1D3D4" d="M60.112,121.809c-1.198,0-2.031-0.938-2.031-2.221c0-1.288,0.833-2.22,2.031-2.22
			c1.197,0,2.038,0.932,2.038,2.22C62.15,120.87,61.31,121.809,60.112,121.809z M60.112,118.166c-0.68,0-1.121,0.582-1.121,1.422
			c0,0.841,0.441,1.422,1.121,1.422c0.686,0,1.134-0.581,1.134-1.422C61.247,118.748,60.798,118.166,60.112,118.166z"/>
	</g>
	<g enable-background="new    ">
		<path fill="#D1D3D4" d="M67.764,121.738h-0.708l-2.031-2.864v2.864h-0.862v-4.301h0.841l1.898,2.718v-2.718h0.861V121.738z"/>
	</g>
	<g enable-background="new    ">
		<path fill="#D1D3D4" d="M72.216,117.438l1.646,4.301h-0.91l-0.385-1.036h-1.611l-0.378,1.036H69.68l1.646-4.301H72.216z
			 M71.235,119.945h1.051l-0.525-1.429L71.235,119.945z"/>
	</g>
	<g enable-background="new    ">
		<path fill="#D1D3D4" d="M76.66,120.135v1.604h-0.89v-4.301h1.772c0.903,0,1.506,0.483,1.506,1.366c0,0.687-0.379,1.12-0.98,1.268
			l1.135,1.667h-1.01l-1.064-1.604H76.66z M76.66,119.399h0.826c0.448,0,0.68-0.238,0.68-0.596c0-0.364-0.231-0.603-0.68-0.603
			H76.66V119.399z"/>
		<path fill="#D1D3D4" d="M80.705,117.438h1.521c1.303,0,2.122,0.841,2.122,2.15s-0.819,2.15-2.122,2.15h-1.521V117.438z
			 M82.19,120.947c0.819,0,1.268-0.525,1.268-1.359c0-0.84-0.448-1.365-1.268-1.365h-0.595v2.725H82.19z"/>
	</g>
	<g enable-background="new    ">
		<path fill="#D1D3D4" d="M90.289,120.513c0.119,0.378,0.434,0.554,0.854,0.554c0.435,0,0.723-0.196,0.723-0.54
			c0-0.259-0.154-0.399-0.525-0.483l-0.771-0.175c-0.615-0.14-1.092-0.469-1.092-1.177c0-0.777,0.645-1.323,1.547-1.323
			c0.98,0,1.549,0.518,1.688,1.246h-0.89c-0.098-0.287-0.343-0.511-0.791-0.511c-0.406,0-0.68,0.196-0.68,0.504
			c0,0.245,0.161,0.393,0.483,0.47l0.784,0.182c0.701,0.161,1.128,0.561,1.128,1.212c0,0.833-0.687,1.338-1.597,1.338
			c-0.96,0-1.639-0.477-1.786-1.296H90.289z"/>
	</g>
	<g enable-background="new    ">
		<path fill="#D1D3D4" d="M94.467,117.438h3.67v0.785H96.75v3.516h-0.902v-3.516h-1.381V117.438z"/>
	</g>
</g>
<g>
	<defs>
		<rect id="SVGID_7_" x="-70" y="-381.24" width="1224" height="792"/>
	</defs>
	<clipPath id="SVGID_8_">
		<use xlink:href="#SVGID_7_"  overflow="visible"/>
	</clipPath>
	<g clip-path="url(#SVGID_8_)" enable-background="new    ">
		<path fill="#D1D3D4" d="M45.182,171.072c1.016,0,1.639,0.595,1.8,1.456h-0.89c-0.147-0.392-0.413-0.658-0.911-0.658
			c-0.686,0-1.092,0.603-1.092,1.422c0,0.812,0.406,1.422,1.092,1.422c0.498,0,0.764-0.266,0.911-0.665h0.89
			c-0.161,0.868-0.785,1.464-1.8,1.464c-1.148,0-2.003-0.903-2.003-2.221C43.179,171.976,44.033,171.072,45.182,171.072z"/>
	</g>
	<g enable-background="new    ">
		<path fill="#D1D3D4" d="M51.21,171.142l1.646,4.301h-0.91l-0.385-1.036h-1.611l-0.378,1.036h-0.896l1.646-4.301H51.21z
			 M50.229,173.649h1.051l-0.525-1.429L50.229,173.649z"/>
	</g>
	<g enable-background="new    ">
		<path fill="#D1D3D4" d="M54.232,171.142h3.67v0.785h-1.387v3.516h-0.903v-3.516h-1.38V171.142z"/>
	</g>
	<g enable-background="new    ">
		<path fill="#D1D3D4" d="M63.769,171.142v4.301h-0.896v-1.807h-1.947v1.807h-0.896v-4.301h0.896v1.709h1.947v-1.709H63.769z"/>
	</g>
	<g enable-background="new    ">
		<path fill="#D1D3D4" d="M69.046,171.142v0.785h-2.038v0.938h1.849v0.763h-1.849v1.023h2.038v0.791h-2.921v-4.301H69.046z"/>
		<path fill="#D1D3D4" d="M71.621,173.839v1.604h-0.89v-4.301h1.772c0.904,0,1.506,0.483,1.506,1.366c0,0.687-0.378,1.12-0.98,1.268
			l1.135,1.667h-1.009l-1.064-1.604H71.621z M71.621,173.104h0.827c0.448,0,0.679-0.238,0.679-0.596
			c0-0.364-0.231-0.603-0.679-0.603h-0.827V173.104z"/>
	</g>
	<g enable-background="new    ">
		<path fill="#D1D3D4" d="M77.654,175.442h-0.896v-4.301h0.896V175.442z"/>
	</g>
	<g enable-background="new    ">
		<path fill="#D1D3D4" d="M83.605,175.442h-0.707l-2.031-2.864v2.864h-0.861v-4.301h0.841l1.897,2.718v-2.718h0.861V175.442z"/>
		<path fill="#D1D3D4" d="M88.345,171.142v0.785h-2.038v0.938h1.849v0.763h-1.849v1.023h2.038v0.791h-2.921v-4.301H88.345z"/>
		<path fill="#D1D3D4" d="M92.508,171.142h0.896v3.51h2.004v0.791h-2.9V171.142z"/>
	</g>
	<g enable-background="new    ">
		<path fill="#D1D3D4" d="M102.834,175.442h-0.707l-2.031-2.864v2.864h-0.861v-4.301h0.841l1.897,2.718v-2.718h0.861V175.442z"/>
	</g>
</g>
<g>
	<defs>
		<rect id="SVGID_9_" x="-70" y="-381.24" width="1224" height="792"/>
	</defs>
	<clipPath id="SVGID_10_">
		<use xlink:href="#SVGID_9_"  overflow="visible"/>
	</clipPath>
	<path clip-path="url(#SVGID_10_)" d="M71.812,137.142h17.531v3.543h-0.39v2.92h-0.157v1.735h-0.358v-0.155h-1.47v0.155h-1.89h-1.25
		h-0.688v-0.202h-3.8l0.002,0.077l-3.375-0.015v0.14H71.75L71.812,137.142z"/>
</g>
<g>
	<defs>
		<rect id="SVGID_11_" x="17.156" y="135.466" width="112.014" height="25.277"/>
	</defs>
	<clipPath id="SVGID_12_">
		<use xlink:href="#SVGID_11_"  overflow="visible"/>
	</clipPath>
	<path clip-path="url(#SVGID_12_)" fill="none" stroke="#D0D2D3" stroke-width="1.092" stroke-miterlimit="10" d="M126.484,137.142
		v21.924l-107.979-6.717l0.051-15.207H126.484z"/>
</g>
<g>
	<defs>
		<rect id="SVGID_13_" x="-197.667" y="-297.24" width="1224" height="792"/>
	</defs>
	<clipPath id="SVGID_14_">
		<use xlink:href="#SVGID_13_"  overflow="visible"/>
	</clipPath>
	<path clip-path="url(#SVGID_14_)" d="M-56.681,122.011v17.842l-11.215-6.456v-17.883L-56.681,122.011z"/>
</g>
<g>
	<defs>
		<rect id="SVGID_15_" x="-197.667" y="-297.24" width="1224" height="792"/>
	</defs>
	<clipPath id="SVGID_16_">
		<use xlink:href="#SVGID_15_"  overflow="visible"/>
	</clipPath>
	<path clip-path="url(#SVGID_16_)" fill="none" stroke="#D1D3D4" stroke-width="0.154" stroke-miterlimit="10" d="M-19.88,179.058
		l-38.244-22.156"/>
</g>
<g>
	<defs>
		<rect id="SVGID_17_" x="-197.667" y="-297.24" width="1224" height="792"/>
	</defs>
	<clipPath id="SVGID_18_">
		<use xlink:href="#SVGID_17_"  overflow="visible"/>
	</clipPath>
	<path clip-path="url(#SVGID_18_)" fill="none" stroke="#D1D3D4" stroke-width="0.154" stroke-miterlimit="10" d="M-9.049,142.995
		l-10.812,6.303l-71.545-41.446"/>
</g>
<g>
	<defs>
		<rect id="SVGID_19_" x="-197.667" y="-297.24" width="1224" height="792"/>
	</defs>
	<clipPath id="SVGID_20_">
		<use xlink:href="#SVGID_19_"  overflow="visible"/>
	</clipPath>
	<path clip-path="url(#SVGID_20_)" fill="none" stroke="#D1D3D4" stroke-width="0.154" stroke-miterlimit="10" d="M-9.049,145.975
		l-10.812,6.302l-71.545-41.447"/>
</g>
<g>
	<defs>
		<rect id="SVGID_21_" x="-197.667" y="-297.24" width="1224" height="792"/>
	</defs>
	<clipPath id="SVGID_22_">
		<use xlink:href="#SVGID_21_"  overflow="visible"/>
	</clipPath>
	<path clip-path="url(#SVGID_22_)" fill="none" stroke="#D1D3D4" stroke-width="0.154" stroke-miterlimit="10" d="M-9.049,148.952
		l-10.812,6.303l-71.545-41.447"/>
</g>
<g>
	<defs>
		<rect id="SVGID_23_" x="-197.667" y="-297.24" width="1224" height="792"/>
	</defs>
	<clipPath id="SVGID_24_">
		<use xlink:href="#SVGID_23_"  overflow="visible"/>
	</clipPath>
	<path clip-path="url(#SVGID_24_)" fill="none" stroke="#D1D3D4" stroke-width="0.154" stroke-miterlimit="10" d="M-9.049,151.932
		l-10.812,6.301l-71.545-41.446"/>
</g>
<g>
	<defs>
		<rect id="SVGID_25_" x="-197.667" y="-297.24" width="1224" height="792"/>
	</defs>
	<clipPath id="SVGID_26_">
		<use xlink:href="#SVGID_25_"  overflow="visible"/>
	</clipPath>
	<path clip-path="url(#SVGID_26_)" fill="none" stroke="#D1D3D4" stroke-width="0.154" stroke-miterlimit="10" d="M-9.049,154.909
		l-10.812,6.303l-71.545-41.447"/>
</g>
<g>
	<defs>
		<rect id="SVGID_27_" x="-197.667" y="-297.24" width="1224" height="792"/>
	</defs>
	<clipPath id="SVGID_28_">
		<use xlink:href="#SVGID_27_"  overflow="visible"/>
	</clipPath>
	<path clip-path="url(#SVGID_28_)" fill="none" stroke="#D1D3D4" stroke-width="0.154" stroke-miterlimit="10" d="M-9.049,157.888
		l-10.812,6.302l-71.545-41.446"/>
</g>
<g>
	<defs>
		<rect id="SVGID_29_" x="-197.667" y="-297.24" width="1224" height="792"/>
	</defs>
	<clipPath id="SVGID_30_">
		<use xlink:href="#SVGID_29_"  overflow="visible"/>
	</clipPath>
	<path clip-path="url(#SVGID_30_)" fill="none" stroke="#D1D3D4" stroke-width="0.154" stroke-miterlimit="10" d="M-9.049,160.866
		l-10.812,6.303l-71.545-41.448"/>
</g>
<g>
	<defs>
		<rect id="SVGID_31_" x="-197.667" y="-297.24" width="1224" height="792"/>
	</defs>
	<clipPath id="SVGID_32_">
		<use xlink:href="#SVGID_31_"  overflow="visible"/>
	</clipPath>
	<path clip-path="url(#SVGID_32_)" fill="none" stroke="#D1D3D4" stroke-width="0.154" stroke-miterlimit="10" d="M-9.049,163.845
		l-10.812,6.302L-91.406,128.7"/>
</g>
<g>
	<defs>
		<rect id="SVGID_33_" x="-197.667" y="-297.24" width="1224" height="792"/>
	</defs>
	<clipPath id="SVGID_34_">
		<use xlink:href="#SVGID_33_"  overflow="visible"/>
	</clipPath>
	<path clip-path="url(#SVGID_34_)" fill="none" stroke="#D1D3D4" stroke-width="0.154" stroke-miterlimit="10" d="M-9.048,166.821
		l-2.544,1.485"/>
</g>
<g>
	<defs>
		<rect id="SVGID_35_" x="-197.667" y="-297.24" width="1224" height="792"/>
	</defs>
	<clipPath id="SVGID_36_">
		<use xlink:href="#SVGID_35_"  overflow="visible"/>
	</clipPath>
	<path clip-path="url(#SVGID_36_)" fill="none" stroke="#D1D3D4" stroke-width="0.154" stroke-miterlimit="10" d="M-17.334,171.651
		l-2.526,1.475l-71.545-41.447"/>
</g>
<g>
	<defs>
		<rect id="SVGID_37_" x="-197.667" y="-297.24" width="1224" height="792"/>
	</defs>
	<clipPath id="SVGID_38_">
		<use xlink:href="#SVGID_37_"  overflow="visible"/>
	</clipPath>
	<path clip-path="url(#SVGID_38_)" fill="none" stroke="#D1D3D4" stroke-width="0.154" stroke-miterlimit="10" d="M-11.592,171.284
		l2.544-1.484"/>
</g>
<g>
	<defs>
		<rect id="SVGID_39_" x="-197.667" y="-297.24" width="1224" height="792"/>
	</defs>
	<clipPath id="SVGID_40_">
		<use xlink:href="#SVGID_39_"  overflow="visible"/>
	</clipPath>
	<path clip-path="url(#SVGID_40_)" fill="none" stroke="#D1D3D4" stroke-width="0.154" stroke-miterlimit="10" d="M-17.334,174.63
		l-2.526,1.475l-71.545-41.449"/>
</g>
<g>
	<defs>
		<rect id="SVGID_41_" x="-197.667" y="-297.24" width="1224" height="792"/>
	</defs>
	<clipPath id="SVGID_42_">
		<use xlink:href="#SVGID_41_"  overflow="visible"/>
	</clipPath>
	<path clip-path="url(#SVGID_42_)" fill="none" stroke="#D1D3D4" stroke-width="0.154" stroke-miterlimit="10" d="M-9.049,140.018
		l-10.812,6.303l-71.545-41.448"/>
</g>
<g>
	<defs>
		<rect id="SVGID_43_" x="-197.667" y="-297.24" width="1224" height="792"/>
	</defs>
	<clipPath id="SVGID_44_">
		<use xlink:href="#SVGID_43_"  overflow="visible"/>
	</clipPath>
	<g clip-path="url(#SVGID_44_)" enable-background="new    ">
		<path fill="#D1D3D4" d="M-85.107,150.968l0.684,0.428l-2.646,1.721l1.528,0.957l-0.597,0.387l-2.212-1.383L-85.107,150.968z"/>
		<path fill="#D1D3D4" d="M-79.329,154.581l-0.592,0.385l-1.555-0.973l-0.707,0.461l1.411,0.881l-0.576,0.375l-1.411-0.881
			l-0.771,0.502l1.555,0.973l-0.597,0.387l-2.228-1.393l3.243-2.111L-79.329,154.581z"/>
	</g>
	<g enable-background="new    ">
		<path fill="#D1D3D4" d="M-78.988,158.999c-0.914-0.572-0.842-1.43,0.125-2.059c0.971-0.633,2.311-0.693,3.224-0.121
			c0.914,0.57,0.852,1.43-0.119,2.062C-76.725,159.511-78.075,159.569-78.988,158.999z M-76.242,157.21
			c-0.519-0.322-1.293-0.248-1.927,0.164c-0.634,0.412-0.736,0.908-0.217,1.232c0.523,0.328,1.304,0.256,1.938-0.156
			C-75.814,158.038-75.718,157.538-76.242,157.21z"/>
	</g>
	<g enable-background="new    ">
		<path fill="#D1D3D4" d="M-72.885,162.747l-0.54-0.338l0.611-2.373l-2.16,1.404l-0.658-0.41l3.243-2.111l0.642,0.402l-0.601,2.238
			l2.049-1.334l0.657,0.412L-72.885,162.747z"/>
		<path fill="#D1D3D4" d="M-66.471,162.62l-1.987,2.895l-0.695-0.434l0.488-0.693l-1.229-0.768l-1.07,0.328l-0.684-0.428
			l4.499-1.324L-66.471,162.62z M-69.11,163.382l0.802,0.502l0.676-0.951L-69.11,163.382z"/>
		<path fill="#D1D3D4" d="M-65.333,165.925l-1.21,0.787l-0.679-0.424l3.243-2.109l1.352,0.846c0.689,0.43,0.785,0.955,0.12,1.387
			c-0.518,0.338-1.134,0.371-1.704,0.156l-0.392,1.357l-0.77-0.48l0.397-1.295L-65.333,165.925z M-64.779,165.565l0.63,0.393
			c0.342,0.215,0.699,0.207,0.968,0.033c0.274-0.18,0.277-0.406-0.064-0.621l-0.63-0.393L-64.779,165.565z"/>
	</g>
	<g enable-background="new    ">
		<path fill="#D1D3D4" d="M-58.816,167.405l1.16,0.727c0.994,0.621,0.986,1.424-0.002,2.066c-0.988,0.645-2.247,0.664-3.241,0.043
			l-1.16-0.725L-58.816,167.405z M-60.329,169.837c0.625,0.391,1.363,0.348,1.992-0.062c0.633-0.412,0.687-0.883,0.062-1.275
			l-0.454-0.283l-2.054,1.338L-60.329,169.837z"/>
	</g>
	<g enable-background="new    ">
		<path fill="#D1D3D4" d="M-53.712,173.558c-0.195,0.242-0.086,0.479,0.235,0.68c0.331,0.207,0.698,0.248,0.957,0.08
			c0.195-0.129,0.184-0.271-0.036-0.488l-0.456-0.453c-0.364-0.363-0.48-0.752,0.054-1.1c0.586-0.381,1.49-0.342,2.179,0.088
			c0.749,0.469,0.79,0.994,0.348,1.418l-0.678-0.424c0.142-0.189,0.124-0.416-0.219-0.629c-0.31-0.193-0.667-0.229-0.898-0.076
			c-0.185,0.119-0.173,0.27,0.014,0.461l0.461,0.463c0.413,0.414,0.438,0.812-0.053,1.133c-0.628,0.408-1.533,0.328-2.228-0.105
			c-0.732-0.457-0.891-1.016-0.385-1.488L-53.712,173.558z"/>
	</g>
	<g enable-background="new    ">
		<path fill="#D1D3D4" d="M-48,174.171l2.799,1.75l-0.592,0.387l-1.058-0.662l-2.651,1.725l-0.689-0.432l2.651-1.725l-1.052-0.658
			L-48,174.171z"/>
	</g>
</g>
<g>
	<defs>
		<rect id="SVGID_45_" x="-197.667" y="-297.24" width="1224" height="792"/>
	</defs>
	<clipPath id="SVGID_46_">
		<use xlink:href="#SVGID_45_"  overflow="visible"/>
	</clipPath>
	<path clip-path="url(#SVGID_46_)" fill="none" stroke="#000000" stroke-width="0.154" stroke-miterlimit="10" d="M-19.862,137.568
		v-4.71"/>
</g>
<g>
	<defs>
		<rect id="SVGID_47_" x="-197.667" y="-297.24" width="1224" height="792"/>
	</defs>
	<clipPath id="SVGID_48_">
		<use xlink:href="#SVGID_47_"  overflow="visible"/>
	</clipPath>
	<path clip-path="url(#SVGID_48_)" fill="none" stroke="#000000" stroke-width="0.154" stroke-miterlimit="10" d="M-82.761,99.85
		v-3.896"/>
</g>
<g>
	<defs>
		<rect id="SVGID_49_" x="-197.667" y="-297.24" width="1224" height="792"/>
	</defs>
	<clipPath id="SVGID_50_">
		<use xlink:href="#SVGID_49_"  overflow="visible"/>
	</clipPath>
	<path clip-path="url(#SVGID_50_)" fill="none" stroke="#000000" stroke-width="0.154" stroke-miterlimit="10" d="M-69.684,104.907
		v2.172"/>
</g>
<g>
	<defs>
		<rect id="SVGID_51_" x="-197.667" y="-297.24" width="1224" height="792"/>
	</defs>
	<clipPath id="SVGID_52_">
		<use xlink:href="#SVGID_51_"  overflow="visible"/>
	</clipPath>
	<path clip-path="url(#SVGID_52_)" fill="none" stroke="#000000" stroke-width="0.154" stroke-miterlimit="10" d="M-75.458,101.622
		v2.17"/>
</g>
<g>
	<defs>
		<rect id="SVGID_53_" x="-197.667" y="-297.24" width="1224" height="792"/>
	</defs>
	<clipPath id="SVGID_54_">
		<use xlink:href="#SVGID_53_"  overflow="visible"/>
	</clipPath>
	<path clip-path="url(#SVGID_54_)" fill="none" stroke="#000000" stroke-width="0.154" stroke-miterlimit="10" d="M-68.127,104.054
		v2.172"/>
</g>
<g>
	<defs>
		<rect id="SVGID_55_" x="-197.667" y="-297.24" width="1224" height="792"/>
	</defs>
	<clipPath id="SVGID_56_">
		<use xlink:href="#SVGID_55_"  overflow="visible"/>
	</clipPath>
	<path clip-path="url(#SVGID_56_)" fill="none" stroke="#000000" stroke-width="0.145" stroke-miterlimit="10" d="M-68.117,106.19
		l-1.585,0.928"/>
</g>
<g>
	<defs>
		<rect id="SVGID_57_" x="-197.667" y="-297.24" width="1224" height="792"/>
	</defs>
	<clipPath id="SVGID_58_">
		<use xlink:href="#SVGID_57_"  overflow="visible"/>
	</clipPath>
	<path clip-path="url(#SVGID_58_)" fill="none" stroke="#000000" stroke-width="0.145" stroke-miterlimit="10" d="M-68.196,104.134
		l-1.468,0.859"/>
</g>
<g>
	<defs>
		<rect id="SVGID_59_" x="-197.667" y="-297.24" width="1224" height="792"/>
	</defs>
	<clipPath id="SVGID_60_">
		<use xlink:href="#SVGID_59_"  overflow="visible"/>
	</clipPath>
	<path clip-path="url(#SVGID_60_)" fill="none" stroke="#000000" stroke-width="0.145" stroke-miterlimit="10" d="M-28.435,122.808
		l-6.334,3.707"/>
</g>
<g>
	<defs>
		<rect id="SVGID_61_" x="-197.667" y="-297.24" width="1224" height="792"/>
	</defs>
	<clipPath id="SVGID_62_">
		<use xlink:href="#SVGID_61_"  overflow="visible"/>
	</clipPath>
	<path clip-path="url(#SVGID_62_)" fill="none" stroke="#000000" stroke-width="0.145" stroke-miterlimit="10" d="M-23.581,126.673
		l-5.428,3.177"/>
</g>
<g>
	<defs>
		<rect id="SVGID_63_" x="-197.667" y="-297.24" width="1224" height="792"/>
	</defs>
	<clipPath id="SVGID_64_">
		<use xlink:href="#SVGID_63_"  overflow="visible"/>
	</clipPath>
	<path clip-path="url(#SVGID_64_)" fill="none" stroke="#000000" stroke-width="0.154" stroke-miterlimit="10" d="M-60.514,108.44
		v2.171"/>
</g>
<g>
	<defs>
		<rect id="SVGID_65_" x="-197.667" y="-297.24" width="1224" height="792"/>
	</defs>
	<clipPath id="SVGID_66_">
		<use xlink:href="#SVGID_65_"  overflow="visible"/>
	</clipPath>
	<path clip-path="url(#SVGID_66_)" fill="none" stroke="#000000" stroke-width="0.145" stroke-miterlimit="10" d="M-55.211,106.673
		l25.624,16.828"/>
</g>
<g>
	<defs>
		<rect id="SVGID_67_" x="-197.667" y="-297.24" width="1224" height="792"/>
	</defs>
	<clipPath id="SVGID_68_">
		<use xlink:href="#SVGID_67_"  overflow="visible"/>
	</clipPath>
	<path clip-path="url(#SVGID_68_)" fill="none" stroke="#000000" stroke-width="0.145" stroke-miterlimit="10" d="M-28.465,122.8
		l4.884,3.209"/>
</g>
<g>
	<defs>
		<rect id="SVGID_69_" x="-197.667" y="-297.24" width="1224" height="792"/>
	</defs>
	<clipPath id="SVGID_70_">
		<use xlink:href="#SVGID_69_"  overflow="visible"/>
	</clipPath>
	<path clip-path="url(#SVGID_70_)" fill="none" stroke="#000000" stroke-width="0.145" stroke-miterlimit="10" d="M-55.211,106.005
		l26.12,17.156"/>
</g>
<g>
	<defs>
		<rect id="SVGID_71_" x="-197.667" y="-297.24" width="1224" height="792"/>
	</defs>
	<clipPath id="SVGID_72_">
		<use xlink:href="#SVGID_71_"  overflow="visible"/>
	</clipPath>
	<path clip-path="url(#SVGID_72_)" fill="none" stroke="#000000" stroke-width="0.145" stroke-miterlimit="10" d="M-85.844,98.575
		l2.658,1.539"/>
</g>
<g>
	<defs>
		<rect id="SVGID_73_" x="-197.667" y="-297.24" width="1224" height="792"/>
	</defs>
	<clipPath id="SVGID_74_">
		<use xlink:href="#SVGID_73_"  overflow="visible"/>
	</clipPath>
	<path clip-path="url(#SVGID_74_)" fill="none" stroke="#000000" stroke-width="0.145" stroke-miterlimit="10" d="M-75.458,101.622
		l5.773,3.35"/>
</g>
<g>
	<defs>
		<rect id="SVGID_75_" x="-197.667" y="-297.24" width="1224" height="792"/>
	</defs>
	<clipPath id="SVGID_76_">
		<use xlink:href="#SVGID_75_"  overflow="visible"/>
	</clipPath>
	<path clip-path="url(#SVGID_76_)" fill="none" stroke="#000000" stroke-width="0.145" stroke-miterlimit="10" d="M-68.109,104.134
		l7.671,4.443"/>
</g>
<g>
	<defs>
		<rect id="SVGID_77_" x="-197.667" y="-297.24" width="1224" height="792"/>
	</defs>
	<clipPath id="SVGID_78_">
		<use xlink:href="#SVGID_77_"  overflow="visible"/>
	</clipPath>
	<path clip-path="url(#SVGID_78_)" fill="none" stroke="#000000" stroke-width="0.145" stroke-miterlimit="10" d="M-68.152,106.191
		l7.638,4.427"/>
</g>
<g>
	<defs>
		<rect id="SVGID_79_" x="-197.667" y="-297.24" width="1224" height="792"/>
	</defs>
	<clipPath id="SVGID_80_">
		<use xlink:href="#SVGID_79_"  overflow="visible"/>
	</clipPath>
	<path clip-path="url(#SVGID_80_)" fill="none" stroke="#000000" stroke-width="0.145" stroke-miterlimit="10" d="M-34.741,126.523
		l5.741,3.327"/>
</g>
<g>
	<defs>
		<rect id="SVGID_81_" x="-197.667" y="-297.24" width="1224" height="792"/>
	</defs>
	<clipPath id="SVGID_82_">
		<use xlink:href="#SVGID_81_"  overflow="visible"/>
	</clipPath>
	<path clip-path="url(#SVGID_82_)" fill="none" stroke="#000000" stroke-width="0.154" stroke-miterlimit="10" d="M-19.892,123.979
		v-2.312"/>
</g>
<g>
	<defs>
		<rect id="SVGID_83_" x="-197.667" y="-297.24" width="1224" height="792"/>
	</defs>
	<clipPath id="SVGID_84_">
		<use xlink:href="#SVGID_83_"  overflow="visible"/>
	</clipPath>
	<path clip-path="url(#SVGID_84_)" fill="none" stroke="#000000" stroke-width="0.154" stroke-miterlimit="10" d="M-29.534,134.235
		l-0.916-0.549l-1.152,0.673l-49.587-28.728V103.2"/>
</g>
<g>
	<defs>
		<rect id="SVGID_85_" x="-197.667" y="-297.24" width="1224" height="792"/>
	</defs>
	<clipPath id="SVGID_86_">
		<use xlink:href="#SVGID_85_"  overflow="visible"/>
	</clipPath>
	<path clip-path="url(#SVGID_86_)" fill="none" stroke="#000000" stroke-width="0.154" stroke-miterlimit="10" d="M-68.757,97.775
		l-4.917-3.229l-11.176,6.543l53.248,30.836"/>
</g>
<g>
	<defs>
		<rect id="SVGID_87_" x="-197.667" y="-297.24" width="1224" height="792"/>
	</defs>
	<clipPath id="SVGID_88_">
		<use xlink:href="#SVGID_87_"  overflow="visible"/>
	</clipPath>
	<path clip-path="url(#SVGID_88_)" fill="none" stroke="#000000" stroke-width="0.154" stroke-miterlimit="10" d="M-31.603,131.923
		v2.434"/>
</g>
<g>
	<defs>
		<rect id="SVGID_89_" x="-197.667" y="-297.24" width="1224" height="792"/>
	</defs>
	<clipPath id="SVGID_90_">
		<use xlink:href="#SVGID_89_"  overflow="visible"/>
	</clipPath>
	<path clip-path="url(#SVGID_90_)" fill="none" stroke="#000000" stroke-width="0.154" stroke-miterlimit="10" d="M-30.444,131.232
		l-1.158,0.677"/>
</g>
<g>
	<defs>
		<rect id="SVGID_91_" x="-197.667" y="-297.24" width="1224" height="792"/>
	</defs>
	<clipPath id="SVGID_92_">
		<use xlink:href="#SVGID_91_"  overflow="visible"/>
	</clipPath>
	<path clip-path="url(#SVGID_92_)" fill="none" stroke="#000000" stroke-width="0.154" stroke-miterlimit="10" d="M-30.444,133.687
		v-2.454l-4.297-2.489"/>
</g>
<g>
	<defs>
		<rect id="SVGID_93_" x="-197.667" y="-297.24" width="1224" height="792"/>
	</defs>
	<clipPath id="SVGID_94_">
		<use xlink:href="#SVGID_93_"  overflow="visible"/>
	</clipPath>
	<path clip-path="url(#SVGID_94_)" fill="none" stroke="#000000" stroke-width="0.154" stroke-miterlimit="10" d="M-19.812,142.034
		v-2.674"/>
</g>
<g>
	<defs>
		<rect id="SVGID_95_" x="-197.667" y="-297.24" width="1224" height="792"/>
	</defs>
	<clipPath id="SVGID_96_">
		<use xlink:href="#SVGID_95_"  overflow="visible"/>
	</clipPath>
	<path clip-path="url(#SVGID_96_)" fill="none" stroke="#000000" stroke-width="0.154" stroke-miterlimit="10" d="M-13.965,131.899
		l3.249,2.135v2.687l-9.098,5.323l-9.721-5.631v-2.681l3.909-2.286"/>
</g>
<g>
	<defs>
		<rect id="SVGID_97_" x="-197.667" y="-297.24" width="1224" height="792"/>
	</defs>
	<clipPath id="SVGID_98_">
		<use xlink:href="#SVGID_97_"  overflow="visible"/>
	</clipPath>
	<path clip-path="url(#SVGID_98_)" fill="none" stroke="#000000" stroke-width="0.154" stroke-miterlimit="10" d="M-10.716,134.034
		l-9.098,5.325l-9.721-5.626"/>
</g>
<g>
	<defs>
		<rect id="SVGID_99_" x="-197.667" y="-297.24" width="1224" height="792"/>
	</defs>
	<clipPath id="SVGID_100_">
		<use xlink:href="#SVGID_99_"  overflow="visible"/>
	</clipPath>
	<path clip-path="url(#SVGID_100_)" fill="none" stroke="#000000" stroke-width="0.145" stroke-miterlimit="10" d="M-83.875,101.636
		v1.312l2.686,1.571"/>
</g>
<g>
	<defs>
		<rect id="SVGID_101_" x="-197.667" y="-297.24" width="1224" height="792"/>
	</defs>
	<clipPath id="SVGID_102_">
		<use xlink:href="#SVGID_101_"  overflow="visible"/>
	</clipPath>
	<path clip-path="url(#SVGID_102_)" fill="none" stroke="#000000" stroke-width="0.145" stroke-miterlimit="10" d="M-75.458,103.79
		l5.773,3.346"/>
</g>
<g>
	<defs>
		<rect id="SVGID_103_" x="-197.667" y="-297.24" width="1224" height="792"/>
	</defs>
	<clipPath id="SVGID_104_">
		<use xlink:href="#SVGID_103_"  overflow="visible"/>
	</clipPath>
	<path clip-path="url(#SVGID_104_)" fill="none" stroke="#000000" stroke-width="0.141" stroke-miterlimit="10" d="M-34.767,128.732
		v-2.211"/>
</g>
<g>
	<defs>
		<rect id="SVGID_105_" x="-197.667" y="-297.24" width="1224" height="792"/>
	</defs>
	<clipPath id="SVGID_106_">
		<use xlink:href="#SVGID_105_"  overflow="visible"/>
	</clipPath>
	<path clip-path="url(#SVGID_106_)" fill="none" stroke="#000000" stroke-width="0.141" stroke-miterlimit="10" d="M-29,133.38
		v-3.523"/>
</g>
<g>
	<defs>
		<rect id="SVGID_107_" x="-197.667" y="-297.24" width="1224" height="792"/>
	</defs>
	<clipPath id="SVGID_108_">
		<use xlink:href="#SVGID_107_"  overflow="visible"/>
	</clipPath>
	<path clip-path="url(#SVGID_108_)" fill="none" stroke="#000000" stroke-width="0.145" stroke-miterlimit="10" d="M-16.083,122.846
		l-3.773,2.209l-3.726-2.162"/>
</g>
<g>
	<defs>
		<rect id="SVGID_109_" x="-197.667" y="-297.24" width="1224" height="792"/>
	</defs>
	<clipPath id="SVGID_110_">
		<use xlink:href="#SVGID_109_"  overflow="visible"/>
	</clipPath>
	<path clip-path="url(#SVGID_110_)" fill="none" stroke="#000000" stroke-width="0.154" stroke-miterlimit="10" d="M-16.083,127.646
		l0.355,0.208v1.648l-4.121,2.408l-4.152-2.404v-1.524l0.419-0.246"/>
</g>
<g>
	<defs>
		<rect id="SVGID_111_" x="-197.667" y="-297.24" width="1224" height="792"/>
	</defs>
	<clipPath id="SVGID_112_">
		<use xlink:href="#SVGID_111_"  overflow="visible"/>
	</clipPath>
	<path clip-path="url(#SVGID_112_)" fill="none" stroke="#000000" stroke-width="0.154" stroke-miterlimit="10" d="M-19.854,131.907
		v-6.853"/>
</g>
<g>
	<defs>
		<rect id="SVGID_113_" x="-197.667" y="-297.24" width="1224" height="792"/>
	</defs>
	<clipPath id="SVGID_114_">
		<use xlink:href="#SVGID_113_"  overflow="visible"/>
	</clipPath>
	<path clip-path="url(#SVGID_114_)" fill="none" stroke="#000000" stroke-width="0.154" stroke-miterlimit="10" d="M-15.726,128.37
		l1.762,1.021v4.739l-5.898,3.447l-5.763-3.34v-4.751l1.624-0.95"/>
</g>
<g>
	<defs>
		<rect id="SVGID_115_" x="-197.667" y="-297.24" width="1224" height="792"/>
	</defs>
	<clipPath id="SVGID_116_">
		<use xlink:href="#SVGID_115_"  overflow="visible"/>
	</clipPath>
	<path clip-path="url(#SVGID_116_)" fill="none" stroke="#000000" stroke-width="0.154" stroke-miterlimit="10" d="M-13.965,129.392
		l-5.897,3.468l-5.719-3.313"/>
</g>
<g>
	<defs>
		<rect id="SVGID_117_" x="-197.667" y="-297.24" width="1224" height="792"/>
	</defs>
	<clipPath id="SVGID_118_">
		<use xlink:href="#SVGID_117_"  overflow="visible"/>
	</clipPath>
	<path clip-path="url(#SVGID_118_)" fill="none" stroke="#000000" stroke-width="0.154" stroke-miterlimit="10" d="M-85.844,98.548
		l-5.641,3.303v39.587"/>
</g>
<g>
	<defs>
		<rect id="SVGID_119_" x="-197.667" y="-297.24" width="1224" height="792"/>
	</defs>
	<clipPath id="SVGID_120_">
		<use xlink:href="#SVGID_119_"  overflow="visible"/>
	</clipPath>
	<path clip-path="url(#SVGID_120_)" fill="none" stroke="#000000" stroke-width="0.154" stroke-miterlimit="10" d="M-79.603,94.895
		l3.953-2.313l7.434,4.883"/>
</g>
<g>
	<defs>
		<rect id="SVGID_121_" x="-197.667" y="-297.24" width="1224" height="792"/>
	</defs>
	<clipPath id="SVGID_122_">
		<use xlink:href="#SVGID_121_"  overflow="visible"/>
	</clipPath>
	<path clip-path="url(#SVGID_122_)" fill="none" stroke="#000000" stroke-width="0.154" stroke-miterlimit="10" d="M-19.86,143.343
		l-0.039,35.738"/>
</g>
<g>
	<defs>
		<rect id="SVGID_123_" x="-197.667" y="-297.24" width="1224" height="792"/>
	</defs>
	<clipPath id="SVGID_124_">
		<use xlink:href="#SVGID_123_"  overflow="visible"/>
	</clipPath>
	<path clip-path="url(#SVGID_124_)" fill="none" stroke="#D1D3D4" stroke-width="0.154" stroke-miterlimit="10" d="M-61.145,155.15
		l-30.273-17.539"/>
</g>
<g>
	<defs>
		<rect id="SVGID_125_" x="-197.667" y="-297.24" width="1224" height="792"/>
	</defs>
	<clipPath id="SVGID_126_">
		<use xlink:href="#SVGID_125_"  overflow="visible"/>
	</clipPath>
	<path clip-path="url(#SVGID_126_)" fill="none" stroke="#000000" stroke-width="0.145" stroke-miterlimit="10" d="M-84.212,93.212
		l-1.633,0.955v4.408"/>
</g>
<g>
	<defs>
		<rect id="SVGID_127_" x="-197.667" y="-297.24" width="1224" height="792"/>
	</defs>
	<clipPath id="SVGID_128_">
		<use xlink:href="#SVGID_127_"  overflow="visible"/>
	</clipPath>
	<path clip-path="url(#SVGID_128_)" fill="none" stroke="#000000" stroke-width="0.145" stroke-miterlimit="10" d="M-81.121,93.225
		l1.517,0.88v3.875"/>
</g>
<g>
	<defs>
		<rect id="SVGID_129_" x="-197.667" y="-297.24" width="1224" height="792"/>
	</defs>
	<clipPath id="SVGID_130_">
		<use xlink:href="#SVGID_129_"  overflow="visible"/>
	</clipPath>
	<path clip-path="url(#SVGID_130_)" fill="none" stroke="#000000" stroke-width="0.145" stroke-miterlimit="10" d="M-85.844,94.167
		l3.083,1.785l3.159-1.849"/>
</g>
<g>
	<defs>
		<rect id="SVGID_131_" x="-197.667" y="-297.24" width="1224" height="792"/>
	</defs>
	<clipPath id="SVGID_132_">
		<use xlink:href="#SVGID_131_"  overflow="visible"/>
	</clipPath>
	<path clip-path="url(#SVGID_132_)" fill="none" stroke="#000000" stroke-width="0.154" stroke-miterlimit="10" d="M-18.582,119.896
		l0.808,0.529v2.318l-2.119,1.236l-2.137-1.238v-2.314l1.102-0.645"/>
</g>
<g>
	<defs>
		<rect id="SVGID_133_" x="-197.667" y="-297.24" width="1224" height="792"/>
	</defs>
	<clipPath id="SVGID_134_">
		<use xlink:href="#SVGID_133_"  overflow="visible"/>
	</clipPath>
	<path clip-path="url(#SVGID_134_)" fill="none" stroke="#000000" stroke-width="0.145" stroke-miterlimit="10" d="M-17.771,120.427
		l-2.123,1.24l-2.139-1.24"/>
</g>
<g>
	<defs>
		<rect id="SVGID_135_" x="-93.267" y="84" width="90.629" height="97.295"/>
	</defs>
	<clipPath id="SVGID_136_">
		<use xlink:href="#SVGID_135_"  overflow="visible"/>
	</clipPath>
	<path clip-path="url(#SVGID_136_)" fill="none" stroke="#000000" stroke-width="0.154" stroke-miterlimit="10" d="M-21.862,117.934
		c-0.045,0.091-0.203,0.264-0.218,0.334l0.129,0.342c0.13,0.175,0.606,0.335,1.399,0.108c0.794-0.225,2.457-1.106,2.609-2
		l-0.267-0.5c0,0-0.247-0.078-0.517-0.008"/>
</g>
<g>
	<defs>
		<rect id="SVGID_137_" x="-197.667" y="-297.24" width="1224" height="792"/>
	</defs>
	<clipPath id="SVGID_138_">
		<use xlink:href="#SVGID_137_"  overflow="visible"/>
	</clipPath>
	<path clip-path="url(#SVGID_138_)" fill="none" stroke="#000000" stroke-width="0.154" stroke-miterlimit="10" d="M-21.116,114.669
		l1.129,0.547l0.348-0.146l0.781-1.094"/>
</g>
<g>
	<defs>
		<rect id="SVGID_139_" x="-93.267" y="84" width="90.629" height="97.295"/>
	</defs>
	<clipPath id="SVGID_140_">
		<use xlink:href="#SVGID_139_"  overflow="visible"/>
	</clipPath>
	<path clip-path="url(#SVGID_140_)" fill="none" stroke="#000000" stroke-width="0.154" stroke-miterlimit="10" d="M-18.14,117.171
		c0.232,1.014-0.4,2.023-1.414,2.256c-0.652,0.149-1.334-0.059-1.793-0.545l-0.076-0.06 M-21.716,118.337
		c-0.412-0.956,0.028-2.064,0.983-2.477c0.148-0.064,0.305-0.109,0.464-0.133c0.611-0.105,1.232,0.108,1.65,0.566
		c0.223,0.25,0.303,0.444,0.303,0.444 M-20.69,126.452c0.315,0.902,0.068,1.637-0.552,1.639s-1.377-0.729-1.692-1.633
		c-0.314-0.904-0.067-1.639,0.553-1.64C-21.763,124.815-21.005,125.548-20.69,126.452z M-19.077,126.481
		c-0.314,0.902-0.068,1.637,0.553,1.639c0.619,0.002,1.377-0.729,1.691-1.633c0.314-0.904,0.068-1.638-0.552-1.64
		C-18.005,124.847-18.763,125.577-19.077,126.481z"/>
</g>
<g>
	<defs>
		<rect id="SVGID_141_" x="-93.267" y="84" width="90.629" height="97.295"/>
	</defs>
	<clipPath id="SVGID_142_">
		<use xlink:href="#SVGID_141_"  overflow="visible"/>
	</clipPath>
	
		<path clip-path="url(#SVGID_142_)" fill="none" stroke="#000000" stroke-width="0.145" stroke-linejoin="bevel" stroke-miterlimit="10" d="
		M-18.586,119.999c0,0,0.005-0.164-0.011-0.203c-0.016-0.047-0.055-0.082-0.103-0.092c-0.063-0.016-0.331,0.062-0.331,0.062
		s-0.003-0.045-0.003-0.105v-0.048l0.101-0.429"/>
</g>
<g>
	<defs>
		<rect id="SVGID_143_" x="-93.267" y="84" width="90.629" height="97.295"/>
	</defs>
	<clipPath id="SVGID_144_">
		<use xlink:href="#SVGID_143_"  overflow="visible"/>
	</clipPath>
	<path clip-path="url(#SVGID_144_)" fill="none" stroke="#000000" stroke-width="0.145" stroke-miterlimit="10" d="M-19.479,119.979
		c-0.021,0.078,0.061,0.163,0.076,0.217c0.024,0.079,0.205,0.135,0.363,0.02"/>
</g>
<g>
	<defs>
		<rect id="SVGID_145_" x="-197.667" y="-297.24" width="1224" height="792"/>
	</defs>
	<clipPath id="SVGID_146_">
		<use xlink:href="#SVGID_145_"  overflow="visible"/>
	</clipPath>
	<path clip-path="url(#SVGID_146_)" fill="none" stroke="#000000" stroke-width="0.145" stroke-miterlimit="10" d="M-20.485,120.708
		v-0.176l0.243-0.408l-0.042-0.145l-0.449-0.075l-0.402-0.245l0.162-0.474"/>
</g>
<g>
	<defs>
		<rect id="SVGID_147_" x="-197.667" y="-297.24" width="1224" height="792"/>
	</defs>
	<clipPath id="SVGID_148_">
		<use xlink:href="#SVGID_147_"  overflow="visible"/>
	</clipPath>
	<path clip-path="url(#SVGID_148_)" fill="none" stroke="#000000" stroke-width="0.154" stroke-miterlimit="10" d="M-22.03,121.983
		l-1.552,0.909v5.055l3.733,2.162l3.767-2.2v-5.063l-1.687-0.978"/>
</g>
<g>
	<defs>
		<rect id="SVGID_149_" x="-93.267" y="84" width="90.629" height="97.295"/>
	</defs>
	<clipPath id="SVGID_150_">
		<use xlink:href="#SVGID_149_"  overflow="visible"/>
	</clipPath>
	<path clip-path="url(#SVGID_150_)" fill="none" stroke="#000000" stroke-width="0.145" stroke-miterlimit="10" d="M-82.924,91.509
		c-0.731,0.127-1.288,0.791-1.288,1.591v1.122c0,0.438,0.691,0.793,1.545,0.793s1.545-0.355,1.545-0.793V93.1
		c0-0.798-0.557-1.462-1.288-1.591v-0.169c0-0.079-0.098-0.172-0.258-0.172c-0.157,0-0.256,0.093-0.256,0.172V91.509z"/>
</g>
<g>
	<defs>
		<rect id="SVGID_151_" x="-197.667" y="-297.24" width="1224" height="792"/>
	</defs>
	<clipPath id="SVGID_152_">
		<use xlink:href="#SVGID_151_"  overflow="visible"/>
	</clipPath>
	<path clip-path="url(#SVGID_152_)" fill="none" stroke="#000000" stroke-width="0.154" stroke-miterlimit="10" d="M-9.049,137.038
		l-10.812,6.303l-71.545-41.445"/>
</g>
<g>
	<defs>
		<rect id="SVGID_153_" x="-197.667" y="-297.24" width="1224" height="792"/>
	</defs>
	<clipPath id="SVGID_154_">
		<use xlink:href="#SVGID_153_"  overflow="visible"/>
	</clipPath>
	<path clip-path="url(#SVGID_154_)" fill="none" stroke="#000000" stroke-width="0.154" stroke-miterlimit="10" d="M-58.124,157.447
		l-2.088-1.206l-1.884,1.098l2.608,1.509l1.364-0.794"/>
</g>
<g>
	<defs>
		<rect id="SVGID_155_" x="-197.667" y="-297.24" width="1224" height="792"/>
	</defs>
	<clipPath id="SVGID_156_">
		<use xlink:href="#SVGID_155_"  overflow="visible"/>
	</clipPath>
	<path clip-path="url(#SVGID_156_)" fill="none" stroke="#000000" stroke-width="0.154" stroke-miterlimit="10" d="M-58.124,157.447
		l-2.088-1.206"/>
</g>
<g>
	<defs>
		<rect id="SVGID_157_" x="-197.667" y="-297.24" width="1224" height="792"/>
	</defs>
	<clipPath id="SVGID_158_">
		<use xlink:href="#SVGID_157_"  overflow="visible"/>
	</clipPath>
	<path clip-path="url(#SVGID_158_)" fill="none" stroke="#000000" stroke-width="0.154" stroke-miterlimit="10" d="M-58.124,159.19
		l-0.98-0.566"/>
</g>
<g>
	<defs>
		<rect id="SVGID_159_" x="-93.267" y="84" width="90.629" height="97.295"/>
	</defs>
	<clipPath id="SVGID_160_">
		<use xlink:href="#SVGID_159_"  overflow="visible"/>
	</clipPath>
	<path clip-path="url(#SVGID_160_)" fill="none" stroke="#000000" stroke-width="0.154" stroke-miterlimit="10" d="M-59.789,153.868
		c-0.285,0.242-0.419,0.651-0.419,0.861v1.541"/>
</g>
<g>
	<defs>
		<rect id="SVGID_161_" x="-197.667" y="-297.24" width="1224" height="792"/>
	</defs>
	<clipPath id="SVGID_162_">
		<use xlink:href="#SVGID_161_"  overflow="visible"/>
	</clipPath>
	<path clip-path="url(#SVGID_162_)" fill="none" stroke="#000000" stroke-width="0.154" stroke-miterlimit="10" d="M-60.618,158.193
		l-0.532,0.31l-30.334-17.088"/>
</g>
<g>
	<defs>
		<rect id="SVGID_163_" x="-197.667" y="-297.24" width="1224" height="792"/>
	</defs>
	<clipPath id="SVGID_164_">
		<use xlink:href="#SVGID_163_"  overflow="visible"/>
	</clipPath>
	<path clip-path="url(#SVGID_164_)" fill="none" stroke="#000000" stroke-width="0.154" stroke-miterlimit="10" d="M-61.146,158.503
		v-0.614"/>
</g>
<g>
	<defs>
		<rect id="SVGID_165_" x="-93.267" y="84" width="90.629" height="97.295"/>
	</defs>
	<clipPath id="SVGID_166_">
		<use xlink:href="#SVGID_165_"  overflow="visible"/>
	</clipPath>
	<path clip-path="url(#SVGID_166_)" fill="none" stroke="#000000" stroke-width="0.154" stroke-miterlimit="10" d="M-11.592,174.229
		v-5.765l-5.742,3.188v5.934l-2.567,1.496l-19.248-9.109l-15.437-7.77l-3.538-1.994v-4.051c0-0.263-0.245-1.494-1.51-2.227
		c-1.067-0.62-1.513,0.484-1.513,0.874v1.981"/>
</g>
<g>
	<defs>
		<rect id="SVGID_167_" x="-197.667" y="-297.24" width="1224" height="792"/>
	</defs>
	<clipPath id="SVGID_168_">
		<use xlink:href="#SVGID_167_"  overflow="visible"/>
	</clipPath>
	<path clip-path="url(#SVGID_168_)" fill="none" stroke="#000000" stroke-width="0.154" stroke-miterlimit="10" d="M-15.655,174.64
		v-1.496l-0.934,0.54v1.497"/>
</g>
<g>
	<defs>
		<rect id="SVGID_169_" x="-93.267" y="84" width="90.629" height="97.295"/>
	</defs>
	<clipPath id="SVGID_170_">
		<use xlink:href="#SVGID_169_"  overflow="visible"/>
	</clipPath>
	<path clip-path="url(#SVGID_170_)" fill="none" stroke="#000000" stroke-width="0.154" stroke-miterlimit="10" d="M-10.716,135.976
		l1.654,1.085v35.703l-2.53,1.466c-0.087-0.031-2.168-0.641-3.843,0.285l-1.32,0.766c-0.218,0.107-0.414,0.252-0.58,0.43"/>
</g>
<g>
	<defs>
		<rect id="SVGID_171_" x="-197.667" y="-297.24" width="1224" height="792"/>
	</defs>
	<clipPath id="SVGID_172_">
		<use xlink:href="#SVGID_171_"  overflow="visible"/>
	</clipPath>
	<path clip-path="url(#SVGID_172_)" fill="none" stroke="#000000" stroke-width="0.145" stroke-miterlimit="10" d="M-60.514,110.611
		l5.304-3.159v-2.045l-12.499-8.236l-7.747,4.477"/>
</g>
<g>
	<defs>
		<rect id="SVGID_173_" x="-197.667" y="-297.24" width="1224" height="792"/>
	</defs>
	<clipPath id="SVGID_174_">
		<use xlink:href="#SVGID_173_"  overflow="visible"/>
	</clipPath>
	<path clip-path="url(#SVGID_174_)" fill="none" stroke="#000000" stroke-width="0.145" stroke-miterlimit="10" d="M-55.211,105.398
		l-5.289,3.119"/>
</g>
</svg>
