<svg id="Layer_1" data-name="Layer 1" xmlns="http://www.w3.org/2000/svg" xmlns:xlink="http://www.w3.org/1999/xlink" viewBox="0 0 123.31 164.76"><defs><style>.cls-1,.cls-20,.cls-21,.cls-22,.cls-29{fill:none;}.cls-2{clip-path:url(#clip-path);}.cls-14,.cls-3{font-size:5.03px;}.cls-14,.cls-24,.cls-3{fill:#d1d3d4;font-family:Calibre-Semibold, Calibre;font-weight:700;}.cls-4{letter-spacing:0.22em;}.cls-5{letter-spacing:0.19em;}.cls-6{letter-spacing:0.21em;}.cls-7{letter-spacing:0.18em;}.cls-8{letter-spacing:0.15em;}.cls-9{letter-spacing:0.22em;}.cls-10{letter-spacing:0.22em;}.cls-11{letter-spacing:0.18em;}.cls-12{letter-spacing:0.2em;}.cls-13{letter-spacing:0.19em;}.cls-14{letter-spacing:0.2em;}.cls-15{letter-spacing:0.16em;}.cls-16{letter-spacing:0em;}.cls-17{fill:#010101;}.cls-18{clip-path:url(#clip-path-2);}.cls-19{opacity:0.5;}.cls-20{stroke:#d0d2d3;stroke-width:1.09px;}.cls-20,.cls-21,.cls-22,.cls-29{stroke-miterlimit:10;}.cls-21,.cls-22{stroke:#231f20;}.cls-21,.cls-29{stroke-width:0.15px;}.cls-22{stroke-width:0.14px;}.cls-23{clip-path:url(#clip-path-5);}.cls-24{font-size:5.24px;}.cls-25{letter-spacing:0.22em;}.cls-26{letter-spacing:0.18em;}.cls-27{letter-spacing:0.24em;}.cls-28{fill:#231f20;}.cls-29{stroke:#fff;}</style><clipPath id="clip-path"><rect class="cls-1" x="7.51" y="105.25" width="109.9" height="54.09"/></clipPath><clipPath id="clip-path-2"><rect class="cls-1" x="22.24" y="123.74" width="80.48" height="18.16"/></clipPath><clipPath id="clip-path-5"><rect class="cls-1" x="22.32" y="1.04" width="68.86" height="86.95"/></clipPath></defs><title>Artboard 1residence_I_key

residence_I_key_horizontalresidence_I_key

residence_I_key_horizontal</title><g class="cls-2"><text class="cls-3" transform="translate(13.98 115.96) rotate(90)"><tspan class="cls-4">BR</tspan><tspan class="cls-5" x="7.83" y="0">O</tspan><tspan class="cls-4" x="12" y="0">A</tspan><tspan class="cls-6" x="16.26" y="0">D</tspan><tspan class="cls-7" x="20.37" y="0">W</tspan><tspan class="cls-8" x="25.29" y="0">A</tspan><tspan x="29.19" y="0">Y</tspan></text><text class="cls-3" transform="translate(107.68 110.28) rotate(90)"><tspan class="cls-9">L</tspan><tspan class="cls-10" x="3.66" y="0">A</tspan><tspan class="cls-11" x="7.92" y="0">F</tspan><tspan class="cls-8" x="11.35" y="0">A</tspan><tspan class="cls-4" x="15.25" y="0">YETTE </tspan><tspan class="cls-6" x="36.91" y="0">S</tspan><tspan x="40.63" y="0">T</tspan></text><text class="cls-3" transform="translate(44.35 113.87)"><tspan class="cls-12">LEONARD </tspan><tspan class="cls-13" x="29.7" y="0">S</tspan><tspan x="33.32" y="0">T</tspan></text><text class="cls-14" transform="translate(40.79 152.46)">C<tspan class="cls-15" x="4.02" y="0">A</tspan><tspan class="cls-4" x="7.96" y="0">THERINE L</tspan><tspan class="cls-16" x="40.13" y="0">N</tspan></text><polygon class="cls-17" points="85.91 133.3 87.4 133.3 87.4 133.53 88.4 133.53 88.4 133.3 90.83 133.3 90.83 135.45 90.08 135.45 90.08 137.4 91.17 137.4 91.17 140.27 85.56 140.05 85.56 138 85.88 138 85.88 136.01 85.45 136.01 85.45 134 85.91 134 85.91 133.3"/><g class="cls-18"><polygon class="cls-20" points="100.79 124.94 100.79 140.69 23.21 135.87 23.25 124.94 100.79 124.94"/></g></g><polyline class="cls-21" points="89.71 51.17 78.47 57.52 27.75 24.12"/><polyline class="cls-21" points="89.71 53.66 78.47 60.01 27.75 26.61"/><polyline class="cls-21" points="89.71 56.15 78.47 62.5 27.75 29.09"/><polyline class="cls-21" points="89.71 58.63 78.47 64.99 27.75 31.58"/><polyline class="cls-21" points="89.71 61.12 78.47 67.48 27.75 34.07"/><polyline class="cls-21" points="89.71 63.61 78.47 69.97 27.75 36.56"/><polyline class="cls-21" points="89.71 66.1 78.47 72.45 27.75 39.05"/><polyline class="cls-21" points="89.71 68.59 78.47 74.94 27.75 41.54"/><polyline class="cls-21" points="89.71 71.08 78.47 77.43 27.75 44.03"/><polyline class="cls-21" points="89.71 73.57 78.47 79.92 27.75 46.52"/><polyline class="cls-21" points="89.71 76.06 78.47 82.41 27.75 49.01"/><line class="cls-22" x1="37.37" y1="26.36" x2="37.37" y2="25.02"/><line class="cls-22" x1="42.3" y1="27.01" x2="42.3" y2="25.5"/><line class="cls-22" x1="38.26" y1="24.47" x2="38.26" y2="22.97"/><line class="cls-22" x1="47.05" y1="24.26" x2="47.05" y2="22.75"/><line class="cls-22" x1="79.83" y1="49.02" x2="79.83" y2="47.71"/><line class="cls-22" x1="61.59" y1="39.24" x2="61.59" y2="37.93"/><line class="cls-22" x1="35.69" y1="23.96" x2="35.69" y2="26.19"/><line class="cls-22" x1="43.75" y1="19.17" x2="43.75" y2="20.71"/><line class="cls-22" x1="79.83" y1="49.02" x2="80.54" y2="49.48"/><line class="cls-22" x1="40.99" y1="19.22" x2="40.99" y2="15.24"/><line class="cls-22" x1="32.99" y1="14.14" x2="32.99" y2="9.86"/><line class="cls-22" x1="36.07" y1="10.71" x2="36.07" y2="8.82"/><line class="cls-22" x1="36.05" y1="17.4" x2="36.05" y2="11.76"/><line class="cls-22" x1="39.23" y1="14.1" x2="39.23" y2="9.94"/><line class="cls-22" x1="36.07" y1="10.81" x2="36.07" y2="8.92"/><line class="cls-22" x1="39.53" y1="15.4" x2="39.53" y2="14.07"/><line class="cls-22" x1="32.63" y1="15.58" x2="32.63" y2="14.25"/><line class="cls-22" x1="35.78" y1="22.26" x2="35.78" y2="18.3"/><line class="cls-22" x1="31.29" y1="19.26" x2="31.29" y2="15.4"/><polyline class="cls-22" points="37.54 25.1 35.69 26.19 28.95 21.75 28.95 19.54 31.29 18.17"/><line class="cls-22" x1="37.35" y1="25.06" x2="38.27" y2="24.51"/><line class="cls-22" x1="35.72" y1="22.24" x2="31.29" y2="19.32"/><line class="cls-22" x1="36.06" y1="15.95" x2="39.45" y2="13.95"/><line class="cls-22" x1="35.79" y1="17.67" x2="39.45" y2="15.52"/><g class="cls-23"><path class="cls-22" d="M35.4,12.86c.26.75.05,1.36-.46,1.36s-1.15-.6-1.41-1.35-.06-1.36.46-1.37S35.13,12.11,35.4,12.86Z"/><path class="cls-22" d="M36.74,12.89c-.26.75-.06,1.36.46,1.36s1.14-.61,1.41-1.36,0-1.36-.46-1.36S37,12.13,36.74,12.89Z"/></g><line class="cls-22" x1="35.78" y1="18.34" x2="41.03" y2="15.25"/><line class="cls-22" x1="35.69" y1="22.29" x2="40.91" y2="19.22"/><line class="cls-22" x1="32.46" y1="14.25" x2="32.97" y2="13.95"/><line class="cls-22" x1="31.29" y1="15.39" x2="35.72" y2="18.3"/><line class="cls-22" x1="28.95" y1="19.52" x2="35.69" y2="23.96"/><line class="cls-22" x1="39.29" y1="13.9" x2="39.53" y2="14.07"/><line class="cls-22" x1="32.63" y1="14.6" x2="31.29" y2="15.4"/><line class="cls-22" x1="28.95" y1="20.87" x2="27.75" y2="21.58"/><line class="cls-22" x1="41.05" y1="17.39" x2="43.75" y2="19.17"/><line class="cls-22" x1="35.96" y1="11.91" x2="39.24" y2="9.95"/><line class="cls-22" x1="32.99" y1="9.9" x2="34.28" y2="9.14"/><line class="cls-22" x1="35.96" y1="10.88" x2="37.94" y2="9.71"/><line class="cls-22" x1="36.08" y1="8.96" x2="37.9" y2="7.89"/><line class="cls-22" x1="32.99" y1="9.86" x2="36.05" y2="11.95"/><line class="cls-22" x1="37.83" y1="8.93" x2="39.24" y2="9.86"/><line class="cls-22" x1="39.53" y1="14.42" x2="41.03" y2="15.4"/><line class="cls-22" x1="34.26" y1="9.66" x2="36.12" y2="10.88"/><line class="cls-22" x1="34.42" y1="7.91" x2="36.07" y2="9"/><line class="cls-22" x1="36.96" y1="7.29" x2="37.92" y2="7.92"/><g class="cls-23"><path class="cls-22" d="M34.42,5.77c0,.08-.17.22-.18.28l.11.29c.11.14.5.27,1.16.09s2.05-.92,2.17-1.67l-.22-.41a.81.81,0,0,0-.43,0"/></g><polyline class="cls-22" points="35.04 3.06 35.98 3.51 36.27 3.39 36.92 2.48"/><g class="cls-23"><path class="cls-22" d="M37.52,5.14a1.62,1.62,0,0,1,0,.66A1.57,1.57,0,0,1,35.68,7a1.49,1.49,0,0,1-.83-.46l-.06,0"/><path class="cls-22" d="M34.54,6.11a1.6,1.6,0,0,1-.11-.39,1.57,1.57,0,0,1,1.32-1.78,1.51,1.51,0,0,1,1.37.47,1.67,1.67,0,0,1,.25.37"/><path class="cls-22" d="M37.15,7.49a1.23,1.23,0,0,0,0-.17.1.1,0,0,0-.09-.07.87.87,0,0,0-.27,0,.41.41,0,0,1,0-.09v0l.09-.35"/><path class="cls-22" d="M36.4,7.48c0,.06.05.13.07.18s.17.11.3,0"/></g><polyline class="cls-22" points="35.57 8.08 35.57 7.94 35.77 7.6 35.73 7.48 35.36 7.42 35.02 7.21 35.16 6.82"/><line class="cls-22" x1="33.01" y1="13.95" x2="36.06" y2="15.97"/><line class="cls-22" x1="32.66" y1="15.38" x2="35.86" y2="17.49"/><line class="cls-22" x1="35.21" y1="7.22" x2="34.26" y2="7.85"/><line class="cls-22" x1="37.82" y1="9.77" x2="37.82" y2="7.99"/><line class="cls-22" x1="34.26" y1="9.66" x2="34.26" y2="7.84"/><line class="cls-22" x1="61.59" y1="37.93" x2="72" y2="44.55"/><line class="cls-22" x1="73.73" y1="38.47" x2="78.05" y2="41.01"/><line class="cls-22" x1="38.26" y1="24.49" x2="42.3" y2="27.06"/><line class="cls-22" x1="38.26" y1="22.91" x2="42.3" y2="25.49"/><line class="cls-22" x1="43.01" y1="20.18" x2="47.05" y2="22.75"/><line class="cls-22" x1="47.05" y1="23.5" x2="73.33" y2="38.58"/><line class="cls-22" x1="63.32" y1="36.51" x2="70.39" y2="40.57"/><polyline class="cls-22" points="84.15 46.53 84.53 46.31 84.53 45.01 78.04 41.28"/><polyline class="cls-22" points="85.44 48.28 82.96 49.74 80.56 48.22"/><line class="cls-22" x1="82.95" y1="51.99" x2="82.95" y2="49.74"/><polyline class="cls-22" points="79.83 49.02 76.27 51.11 37.36 26.36"/><polyline class="cls-22" points="81.99 46.44 76.27 49.8 37.31 25.02"/><line class="cls-22" x1="76.26" y1="51.11" x2="76.26" y2="49.8"/><line class="cls-22" x1="78.03" y1="41.01" x2="72" y2="44.54"/><polyline class="cls-22" points="78.05 41.01 78.05 42.28 72.02 45.8 61.59 39.17"/><line class="cls-22" x1="72" y1="45.79" x2="72" y2="44.55"/><line class="cls-22" x1="73.73" y1="38.47" x2="70.05" y2="40.62"/><line class="cls-22" x1="63.8" y1="36.65" x2="61.59" y2="37.94"/><line class="cls-22" x1="47.05" y1="24.23" x2="42.3" y2="27.01"/><line class="cls-22" x1="47.05" y1="22.75" x2="42.3" y2="25.53"/><line class="cls-22" x1="43" y1="20.18" x2="38.25" y2="22.96"/><line class="cls-22" x1="43.75" y1="19.24" x2="35.79" y2="23.9"/><line class="cls-22" x1="84.47" y1="45" x2="83.21" y2="45.73"/><text class="cls-24" transform="matrix(0.82, 0.57, -0.86, 0.5, 25.61, 58.46)"><tspan class="cls-25">C</tspan><tspan class="cls-26" x="4.3" y="0">A</tspan><tspan class="cls-27" x="8.5" y="0">THERINE L</tspan><tspan x="42.96" y="0">N</tspan></text><polyline class="cls-22" points="89.71 48.68 78.47 55.03 27.75 21.63"/><polyline class="cls-22" points="81.89 47.42 80.54 48.21 80.54 50.45 82.96 51.98 85.44 50.53 85.44 48.28 84.44 47.63"/><line class="cls-22" x1="78.49" y1="55.04" x2="78.49" y2="84.8"/><line class="cls-22" x1="84.47" y1="80.64" x2="83.65" y2="81.12"/><polyline class="cls-22" points="84.47 80.64 84.98 80.97 89.71 78.18 89.71 48.66 84.53 45.69"/><g class="cls-23"><path class="cls-22" d="M84.46,80.64v-.71a.41.41,0,0,0-.14-.32"/><path class="cls-22" d="M85,81v-1c0-.25-.22-.58-.73-.3a1.23,1.23,0,0,0-.61,1v1.15l-5.16,3-7.77-5.38L60.89,72.7,52.65,67,35.93,55l-8.18-5.89V21.63"/><path class="cls-22" d="M83,46.07a1.33,1.33,0,0,0-1.07,1.33v.93c0,.37.57.66,1.28.66s1.29-.29,1.29-.66V47.4a1.33,1.33,0,0,0-1.07-1.33v-.14c0-.06-.08-.14-.22-.14s-.21.08-.21.14Z"/></g><polygon class="cls-28" points="72.1 60.73 68.87 58.6 68.87 56.25 72.1 58.38 72.1 60.73"/><polygon class="cls-28" points="72.1 58.24 68.87 56.11 68.87 53.76 72.1 55.88 72.1 58.24"/><polygon class="cls-28" points="72.1 55.75 68.87 53.63 68.87 51.27 72.1 53.41 72.1 55.75"/><polygon class="cls-28" points="72.1 53.26 68.87 51.13 68.87 48.79 72.1 50.92 72.1 53.26"/><line class="cls-29" x1="68.87" y1="51.2" x2="72.1" y2="53.33"/><line class="cls-29" x1="68.87" y1="53.69" x2="72.1" y2="55.81"/><line class="cls-29" x1="68.87" y1="56.18" x2="72.1" y2="58.3"/><polygon class="cls-28" points="72.1 65.71 68.87 63.58 68.87 61.23 72.1 63.35 72.1 65.71"/><polygon class="cls-28" points="72.1 63.22 68.87 61.09 68.87 58.73 72.1 60.85 72.1 63.22"/><line class="cls-29" x1="68.87" y1="58.67" x2="72.1" y2="60.79"/><line class="cls-29" x1="68.87" y1="61.16" x2="72.1" y2="63.28"/></svg>