<?xml version="1.0" encoding="utf-8"?>
<!-- Generator: Adobe Illustrator 23.0.0, SVG Export Plug-In . SVG Version: 6.00 Build 0)  -->
<svg version="1.1" id="Layer_1" xmlns="http://www.w3.org/2000/svg" xmlns:xlink="http://www.w3.org/1999/xlink" x="0px" y="0px"
	 viewBox="0 0 123.3 164.8" style="enable-background:new 0 0 123.3 164.8;" xml:space="preserve">
<style type="text/css">
	.st0{fill:#D2D3D4;}
	.st1{clip-path:url(#SVGID_2_);}
	.st2{fill:none;stroke:#231F20;stroke-width:0.15;stroke-miterlimit:10;}
	.st3{enable-background:new    ;}
	.st4{fill:#D1D3D4;}
	.st5{fill:none;stroke:#231F20;stroke-width:0.14;stroke-miterlimit:10;}
	.st6{clip-path:url(#SVGID_4_);}
	.st7{clip-path:url(#SVGID_6_);}
	.st8{clip-path:url(#SVGID_8_);}
	.st9{clip-path:url(#SVGID_10_);}
	.st10{clip-path:url(#SVGID_12_);}
	.st11{fill:#231F20;}
	.st12{fill:none;stroke:#FFFFFF;stroke-width:0.15;stroke-miterlimit:10;}
	.st13{clip-path:url(#SVGID_14_);}
	.st14{fill:none;stroke:#D1D3D4;stroke-width:1.09;stroke-miterlimit:10;}
</style>
<title>residence_L_7-12_key</title>
<g>
	<g>
		<path class="st0" d="M14.3,117.1c-0.6,0-1-0.4-1-1.1v-1.4h3.4v1.3c0,0.7-0.3,1.1-0.9,1.1c-0.3,0-0.6-0.2-0.7-0.4
			C14.9,116.9,14.6,117.1,14.3,117.1z M13.9,115.2v0.7c0,0.3,0.2,0.5,0.4,0.5s0.4-0.2,0.4-0.5v-0.7H13.9z M15.3,115.8
			c0,0.3,0.1,0.5,0.4,0.5s0.4-0.2,0.4-0.5v-0.6h-0.8L15.3,115.8z"/>
		<path class="st0" d="M14.6,119.5h-1.3v-0.7h3.4v1.4c0.1,0.5-0.3,1.1-0.8,1.2c-0.1,0-0.2,0-0.3,0c-0.5,0-0.9-0.3-1-0.8l-1.3,0.9
			v-0.8l1.3-0.8L14.6,119.5z M15.1,119.5v0.7c0,0.3,0.2,0.5,0.5,0.5s0.5-0.2,0.5-0.5v-0.7H15.1z"/>
		<path class="st0" d="M13.3,124.6c0-0.9,0.8-1.6,1.7-1.6c0,0,0.1,0,0.1,0c0.9-0.1,1.7,0.6,1.7,1.5c0.1,0.9-0.6,1.7-1.5,1.7
			c-0.1,0-0.2,0-0.3,0c-0.9,0.1-1.7-0.6-1.7-1.5C13.3,124.7,13.3,124.6,13.3,124.6z M16.1,124.6c0-0.5-0.4-0.9-1.1-0.9
			s-1.1,0.3-1.1,0.9s0.5,0.9,1.1,0.9S16.1,125.1,16.1,124.6z"/>
		<path class="st0" d="M16.7,129.4l-3.4,1.3V130l0.8-0.3v-1.3l-0.8-0.3v-0.7l3.4,1.3V129.4z M14.7,128.7v0.8l1.1-0.4L14.7,128.7z"/>
		<path class="st0" d="M16.7,132.4v1.2c0.1,0.9-0.6,1.6-1.5,1.7c-0.1,0-0.2,0-0.2,0c-0.9,0.1-1.6-0.6-1.7-1.4c0-0.1,0-0.2,0-0.2
			v-1.2H16.7z M13.9,133.5c0,0.6,0.4,1,1,1c0,0,0,0,0.1,0c0.6,0,1-0.4,1.1-0.9c0,0,0,0,0-0.1v-0.5h-2.1V133.5z"/>
		<path class="st0" d="M16.7,139l-2.3,0.6l2.3,0.6v0.7l-3.4-0.8v-0.6l2.2-0.6l-2.2-0.6v-0.6l3.4-0.9v0.7l-2.3,0.6l2.3,0.6L16.7,139z
			"/>
		<path class="st0" d="M16.7,144l-3.4,1.3v-0.7l0.8-0.3V143l-0.8-0.3V142l3.4,1.3V144z M14.7,143.2v0.8l1.1-0.4L14.7,143.2z"/>
		<path class="st0" d="M16.7,148.6v0.8l-2.1-1.2h-1.3v-0.7h1.3l2.1-1.2v0.8l-1.4,0.8L16.7,148.6z"/>
		<path class="st0" d="M111.7,108.4v0.7h-2.8v1.6h-0.6v-2.3H111.7z"/>
		<path class="st0" d="M111.7,114.1l-3.4,1.3v-0.7l0.8-0.3v-1.3l-0.8-0.3v-0.7l3.4,1.3V114.1z M109.7,113.4v0.8l1.1-0.4L109.7,113.4
			z"/>
		<path class="st0" d="M108.3,117h3.4v2.2h-0.6v-1.5h-0.9v1.4h-0.6v-1.4h-1.3V117z"/>
		<path class="st0" d="M111.7,122.5l-3.4,1.3v-0.7l0.8-0.3v-1.3l-0.8-0.3v-0.7l3.4,1.3V122.5z M109.7,121.8v0.8l1.1-0.4L109.7,121.8
			z"/>
		<path class="st0" d="M111.7,127.2v0.7l-2.1-1.2h-1.3V126h1.3l2.1-1.2v0.8l-1.4,0.8L111.7,127.2z"/>
		<path class="st0" d="M111.7,131.8h-0.6v-1.6h-0.7v1.4h-0.6v-1.4h-0.8v1.6h-0.6v-2.3h3.4V131.8z"/>
		<path class="st0" d="M111.7,133.4v2.9h-0.6v-1.1h-2.8v-0.7h2.8v-1.1L111.7,133.4z"/>
		<path class="st0" d="M111.7,137.8v2.9h-0.6v-1.1h-2.8v-0.7h2.8v-1.1H111.7z"/>
		<path class="st0" d="M111.7,144.6h-0.6V143h-0.7v1.4h-0.6V143h-0.8v1.6h-0.6v-2.3h3.4V144.6z"/>
		<path class="st0" d="M109.2,149.2c-0.3,0.1-0.5,0.4-0.4,0.7c0,0.4,0.2,0.6,0.4,0.6s0.3-0.1,0.4-0.4l0.1-0.6c0-0.5,0.4-0.9,0.9-0.9
			c0.6,0,1,0.6,1,1.1c0,0,0,0,0,0.1c0.1,0.6-0.4,1.2-1,1.3v-0.7c0.3-0.1,0.4-0.3,0.4-0.6c0-0.3-0.2-0.5-0.4-0.5s-0.3,0.1-0.4,0.4
			l-0.1,0.6c-0.1,0.6-0.4,0.9-1,0.9s-1-0.5-1-1.2c-0.1-0.7,0.4-1.3,1-1.4L109.2,149.2L109.2,149.2z"/>
		<path class="st0" d="M111.7,152.6v2.9h-0.6v-1.1h-2.8v-0.7h2.8v-1.1L111.7,152.6z"/>
		<path class="st0" d="M43.1,112.6h0.7v2.8h1.6v0.6h-2.3V112.6z"/>
		<path class="st0" d="M49.3,112.6v0.6h-1.6v0.8h1.5v0.6h-1.5v0.8h1.6v0.6H47v-3.4L49.3,112.6z"/>
		<path class="st0" d="M52.4,116c-1,0.1-1.8-0.7-1.9-1.6c-0.1-1,0.7-1.8,1.6-1.9s1.8,0.7,1.9,1.6c0,0.1,0,0.1,0,0.2
			c0,0.9-0.6,1.6-1.5,1.7C52.4,116,52.4,116,52.4,116z M52.4,113.2c-0.5,0-0.9,0.4-0.9,1.1s0.3,1.1,0.9,1.1s0.9-0.5,0.9-1.1
			S52.9,113.2,52.4,113.2L52.4,113.2z"/>
		<path class="st0" d="M58.4,116h-0.6l-1.6-2.2v2.2h-0.7v-3.4h0.7l1.5,2.1v-2.1h0.7V116z"/>
		<path class="st0" d="M61.9,112.6l1.3,3.4h-0.7l-0.3-0.8h-1.3l-0.3,0.8h-0.7l1.3-3.4L61.9,112.6z M61.1,114.6h0.8l-0.4-1.1
			L61.1,114.6z"/>
		<path class="st0" d="M65.4,114.7v1.3h-0.7v-3.4h1.4c0.5-0.1,1.1,0.2,1.2,0.8c0,0.1,0,0.2,0,0.3c0,0.5-0.3,0.9-0.8,1l0.9,1.3h-0.8
			l-0.8-1.3L65.4,114.7z M65.4,114.2H66c0.3,0,0.5-0.2,0.5-0.5s-0.2-0.5-0.5-0.5h-0.7L65.4,114.2z"/>
		<path class="st0" d="M68.9,112.6h1.2c0.9,0.1,1.6,0.9,1.6,1.8c-0.1,0.8-0.7,1.5-1.6,1.6h-1.2V112.6z M70,115.4
			c0.6,0,1.1-0.5,1.1-1.1c0-0.6-0.5-1.1-1.1-1.1h-0.5v2.1H70z"/>
		<path class="st0" d="M76.1,115c0.1,0.3,0.4,0.5,0.7,0.4c0.3,0,0.6-0.2,0.6-0.4s-0.1-0.3-0.4-0.4l-0.6-0.1
			c-0.5-0.1-0.8-0.4-0.8-0.9c0-0.6,0.6-1,1.2-1c0,0,0,0,0,0c0.6-0.1,1.2,0.4,1.3,1h-0.7c-0.1-0.3-0.3-0.4-0.6-0.4
			c-0.3,0-0.5,0.2-0.5,0.4s0.1,0.3,0.4,0.4l0.6,0.2c0.5,0.1,0.9,0.5,0.9,1c-0.1,0.6-0.6,1.1-1.2,1c0,0,0,0,0,0
			c-0.7,0.1-1.3-0.4-1.4-1L76.1,115z"/>
		<path class="st0" d="M79.4,112.6h2.9v0.6h-1.1v2.8h-0.7v-2.8h-1.1V112.6z"/>
		<path class="st0" d="M40.6,147.9c0.7,0,1.3,0.4,1.4,1.1h-0.7c-0.1-0.3-0.4-0.5-0.7-0.5c-0.5,0-0.8,0.5-0.8,1.1s0.3,1.1,0.8,1.1
			c0.3,0,0.6-0.2,0.7-0.5H42c-0.1,0.7-0.7,1.2-1.4,1.1c-1-0.1-1.7-1-1.6-1.9C39.2,148.6,39.8,147.9,40.6,147.9z"/>
		<path class="st0" d="M45.4,147.9l1.3,3.4H46l-0.3-0.8h-1.3l-0.3,0.8h-0.7l1.3-3.4H45.4z M44.6,149.9h0.8l-0.4-1.2L44.6,149.9z"/>
		<path class="st0" d="M47.8,147.9h2.9v0.6h-1.1v2.8h-0.7v-2.8h-1.1V147.9z"/>
		<path class="st0" d="M55.2,147.9v3.4h-0.7v-1.4H53v1.4h-0.7v-3.4H53v1.3h1.5v-1.3H55.2z"/>
		<path class="st0" d="M59.4,147.9v0.6h-1.6v0.7h1.5v0.6h-1.5v0.8h1.6v0.6h-2.3v-3.4L59.4,147.9z"/>
		<path class="st0" d="M61.8,150v1.3h-0.7v-3.4h1.4c0.5-0.1,1.1,0.3,1.2,0.8c0,0.1,0,0.2,0,0.3c0,0.5-0.3,0.9-0.8,1l0.9,1.3H63
			l-0.8-1.3H61.8z M61.8,149.4h0.6c0.4,0,0.5-0.2,0.5-0.5s-0.2-0.5-0.5-0.5h-0.6V149.4z"/>
		<path class="st0" d="M66.2,151.3h-0.7v-3.4h0.7V151.3z"/>
		<path class="st0" d="M70.8,151.3h-0.6l-1.6-2.3v2.2H68v-3.4h0.7l1.5,2.1v-2.1h0.7V151.3z"/>
		<path class="st0" d="M75,147.9v0.6h-1.6v0.7h1.4v0.6h-1.5v0.8H75v0.6h-2.3v-3.4L75,147.9z"/>
		<path class="st0" d="M79.1,147.9h0.7v2.8h1.6v0.6h-2.3V147.9z"/>
		<path class="st0" d="M85.9,151.3h-0.6l-1.6-2.3v2.2h-0.7v-3.4h0.7l1.5,2.1v-2.1h0.7V151.3L85.9,151.3z"/>
		<g>
			<defs>
				<rect id="SVGID_1_" x="24.3" y="10.5" width="66.2" height="79.4"/>
			</defs>
			<clipPath id="SVGID_2_">
				<use xlink:href="#SVGID_1_"  style="overflow:visible;"/>
			</clipPath>
			<g class="st1">
				<polyline class="st2" points="89.1,57.2 77.6,63.7 29.4,32 				"/>
				<polyline class="st2" points="89.1,59.4 77.6,65.9 29.4,34.2 				"/>
				<polyline class="st2" points="89.1,61.5 77.6,68 29.4,36.3 				"/>
				<polyline class="st2" points="89.1,63.7 77.6,70.2 29.4,38.5 				"/>
				<polyline class="st2" points="89.1,65.9 77.6,72.3 29.4,40.7 				"/>
				<polyline class="st2" points="89.1,68 77.6,74.5 29.4,42.8 				"/>
				<polyline class="st2" points="89.1,70.2 77.6,76.7 29.4,45 				"/>
				<polyline class="st2" points="89.1,72.4 77.6,78.8 29.4,47.2 				"/>
				<polyline class="st2" points="89.1,74.5 77.6,81 29.4,49.3 				"/>
				<polyline class="st2" points="89.1,76.7 77.6,83.2 29.4,51.5 				"/>
				<polyline class="st2" points="89.1,78.9 77.6,85.3 29.4,53.7 				"/>
				<line class="st2" x1="89.1" y1="78.9" x2="77.6" y2="85.3"/>
				<g class="st3">
					<path class="st4" d="M34.3,63.1c0.5,0.4,0.5,0.8,0.1,1.1l-0.5-0.3c0.1-0.2,0.1-0.4-0.1-0.6c-0.4-0.3-0.9-0.2-1.4,0.1
						c-0.5,0.3-0.6,0.6-0.2,0.9c0.3,0.2,0.6,0.2,0.9,0.1l0.5,0.3c-0.6,0.2-1.2,0.2-1.8-0.2c-0.6-0.4-0.6-1,0.2-1.5
						C32.7,62.6,33.7,62.6,34.3,63.1z"/>
				</g>
				<g class="st3">
					<path class="st4" d="M37.5,65.4l-1.5,2L35.5,67l0.4-0.5L35,66l-0.8,0.2l-0.5-0.3L37,65L37.5,65.4z M35.6,65.8l0.6,0.4l0.5-0.7
						L35.6,65.8z"/>
				</g>
				<g class="st3">
					<path class="st4" d="M39.2,66.6l2,1.4l-0.4,0.3L40,67.7l-2,1.1l-0.5-0.3l2-1.1l-0.7-0.5L39.2,66.6z"/>
					<path class="st4" d="M44.4,70.1L42,71.5l-0.5-0.3l1-0.6l-1-0.7l-1,0.6L40,70.2l2.4-1.4l0.5,0.3l-1,0.6l1,0.7l1-0.6L44.4,70.1z"
						/>
					<path class="st4" d="M47.3,72.2l-0.4,0.3l-1.1-0.8L45.2,72l1,0.7l-0.4,0.2l-1-0.7l-0.6,0.3l1.1,0.8l-0.4,0.3l-1.6-1.1l2.4-1.4
						L47.3,72.2z"/>
					<path class="st4" d="M47.5,74.2l-0.9,0.5l-0.5-0.3l2.4-1.4l0.9,0.7c0.5,0.3,0.5,0.7,0,1c-0.4,0.2-0.8,0.2-1.2,0l-0.3,1
						l-0.5-0.4l0.3-0.9L47.5,74.2z M47.9,74l0.4,0.3c0.2,0.2,0.5,0.2,0.7,0.1c0.2-0.1,0.2-0.3,0-0.4l-0.4-0.3L47.9,74z"/>
					<path class="st4" d="M49.6,76.9l-0.5-0.3l2.4-1.4l0.5,0.3L49.6,76.9z"/>
					<path class="st4" d="M52.9,79.1l-0.4-0.3l0.5-1.7l-1.6,0.9l-0.5-0.3l2.4-1.4l0.4,0.3l-0.5,1.6l1.5-0.9l0.5,0.3L52.9,79.1z"/>
					<path class="st4" d="M58.2,79.7L57.7,80l-1.1-0.8l-0.5,0.3l1,0.7l-0.4,0.2l-1-0.7l-0.6,0.3l1.1,0.8l-0.4,0.3L54.2,80l2.4-1.4
						L58.2,79.7z"/>
					<path class="st4" d="M61.1,81.8l0.5,0.3l-2,1.1l1.1,0.7l-0.4,0.3l-1.5-1.1L61.1,81.8z"/>
				</g>
				<g class="st3">
					<path class="st4" d="M63.4,86.4L63,86.2l0.5-1.7l-1.6,0.9l-0.5-0.3l2.4-1.4l0.4,0.3l-0.5,1.6l1.5-0.9l0.5,0.3L63.4,86.4z"/>
				</g>
				<polyline class="st5" points="89.1,55 77.6,61.5 29.4,29.9 				"/>
				<line class="st5" x1="77.7" y1="59.3" x2="77.7" y2="87.4"/>
				<line class="st5" x1="83.5" y1="83.4" x2="82.8" y2="83.9"/>
				<polyline class="st5" points="83.5,83.4 83.9,83.7 89.1,80.7 89.1,52.9 				"/>
				<polyline class="st5" points="89.1,52.9 77.6,59.3 29.4,27.6 				"/>
				<g>
					<defs>
						<rect id="SVGID_3_" x="24.3" y="10.5" width="66.1" height="79.4"/>
					</defs>
					<clipPath id="SVGID_4_">
						<use xlink:href="#SVGID_3_"  style="overflow:visible;"/>
					</clipPath>
					<g class="st6">
						<path class="st5" d="M83.5,83.4v-0.6c0-0.1,0-0.2-0.1-0.3"/>
						<path class="st5" d="M84,83.7v-0.9c0-0.2-0.2-0.5-0.6-0.3c-0.3,0.2-0.5,0.5-0.5,0.8v1l-5.1,3l-6.8-4.7l-8.6-5.8L55.2,72
							l-10.6-7.3l-15.1-11V27.6l1-0.6"/>
					</g>
				</g>
				<line class="st5" x1="79.5" y1="54" x2="79.5" y2="52.9"/>
				<line class="st5" x1="36.3" y1="29.7" x2="36.3" y2="31.6"/>
				<line class="st5" x1="79.5" y1="54" x2="80.1" y2="54.4"/>
				<line class="st5" x1="79.5" y1="52.9" x2="80.1" y2="53.2"/>
				<line class="st5" x1="36.7" y1="18.2" x2="36.7" y2="16.7"/>
				<line class="st5" x1="36.7" y1="18.2" x2="36.7" y2="16.6"/>
				<line class="st5" x1="36.4" y1="28.2" x2="36.4" y2="24.8"/>
				<polyline class="st5" points="37.5,30.9 36.3,31.6 30.5,27.8 30.5,25.8 32.5,24.6 				"/>
				<polyline class="st5" points="36.7,22.7 39.4,21.1 39.4,17.5 39.4,17.4 38.2,16.6 				"/>
				<g>
					<defs>
						<rect id="SVGID_5_" x="24.3" y="10.5" width="66.1" height="79.4"/>
					</defs>
					<clipPath id="SVGID_6_">
						<use xlink:href="#SVGID_5_"  style="overflow:visible;"/>
					</clipPath>
					<g class="st7">
						<path class="st5" d="M36.1,20c0.2,0.7,0,1.2-0.4,1.2s-1-0.5-1.2-1.2s0-1.2,0.4-1.2S35.8,19.4,36.1,20z"/>
						<path class="st5" d="M37.2,20.1c-0.2,0.6,0,1.2,0.4,1.2s1-0.5,1.2-1.2s0-1.2-0.4-1.2S37.5,19.4,37.2,20.1z"/>
					</g>
				</g>
				<line class="st5" x1="36.4" y1="24.8" x2="40.9" y2="22.2"/>
				<line class="st5" x1="32.5" y1="22.2" x2="36.4" y2="24.8"/>
				<line class="st5" x1="30.5" y1="25.8" x2="36.3" y2="29.7"/>
				<polyline class="st5" points="39.5,20.9 39.7,21.1 39.7,22.2 39.7,22.3 36.7,24.1 36.7,24 36.7,19.2 				"/>
				<polyline class="st5" points="33.7,21.5 32.5,22.2 32.5,25.6 32.5,25.6 36.4,28.2 				"/>
				<polyline class="st5" points="41,24 43.3,25.5 43.3,26.8 				"/>
				<line class="st5" x1="36.6" y1="19.2" x2="39.4" y2="17.5"/>
				<line class="st5" x1="34" y1="17.5" x2="35.1" y2="16.8"/>
				<line class="st5" x1="34" y1="17.4" x2="36.7" y2="19.2"/>
				<polyline class="st5" points="39.7,21.4 40.9,22.2 41,22.2 41,25.5 40.9,25.6 36.3,28.2 				"/>
				<line class="st5" x1="35.1" y1="15.7" x2="36.7" y2="16.7"/>
				<line class="st5" x1="37.4" y1="15.2" x2="38.2" y2="15.7"/>
				<g>
					<defs>
						<rect id="SVGID_7_" x="24.3" y="10.5" width="66.1" height="79.4"/>
					</defs>
					<clipPath id="SVGID_8_">
						<use xlink:href="#SVGID_7_"  style="overflow:visible;"/>
					</clipPath>
					<g class="st8">
						<path class="st5" d="M35.2,13.9c0,0.1-0.1,0.2-0.2,0.2l0.1,0.2c0.1,0.1,0.4,0.2,1,0.1s1.8-0.8,1.9-1.4l-0.2-0.4
							c-0.1,0-0.3,0-0.4,0"/>
					</g>
				</g>
				<polyline class="st5" points="35.8,11.5 36.6,11.9 36.8,11.8 37.4,11 				"/>
				<g>
					<defs>
						<rect id="SVGID_9_" x="24.3" y="10.5" width="66.1" height="79.4"/>
					</defs>
					<clipPath id="SVGID_10_">
						<use xlink:href="#SVGID_9_"  style="overflow:visible;"/>
					</clipPath>
					<g class="st9">
						<path class="st5" d="M37.9,13.3c0.2,0.7-0.3,1.5-1,1.7c-0.2,0-0.4,0.1-0.6,0c-0.3-0.1-0.5-0.2-0.7-0.4l-0.1-0.1"/>
						<path class="st5" d="M35.3,14.2c0-0.1-0.1-0.2-0.1-0.3c-0.1-0.7,0.4-1.4,1.1-1.6c0,0,0,0,0,0c0.4-0.1,0.9,0.1,1.2,0.4
							c0.1,0.1,0.2,0.2,0.2,0.3"/>
						<path class="st5" d="M37.6,15.4c0,0,0-0.1,0-0.1c0,0,0-0.1-0.1-0.1c-0.1,0-0.2,0-0.2,0V15l0.1-0.3"/>
						<path class="st5" d="M37,15.4c0,0.1,0,0.1,0,0.2s0.2,0.1,0.3,0"/>
					</g>
				</g>
				<polyline class="st5" points="36.2,15.9 36.2,15.8 36.4,15.5 36.4,15.4 36,15.3 35.8,15.1 35.9,14.8 				"/>
				<line class="st5" x1="34" y1="21" x2="36.7" y2="22.7"/>
				<polyline class="st5" points="36.6,24.1 33.7,22.2 33.7,22.2 33.7,21.2 33.7,21.2 34,21 34,21 34,17.4 				"/>
				<polyline class="st5" points="35.9,15.1 35.1,15.7 35.1,15.7 35.1,17.2 36.6,18.3 36.7,18.2 38.2,17.4 38.2,15.8 38.2,15.8 
					36.7,16.6 				"/>
				<line class="st5" x1="62.4" y1="44" x2="72" y2="50.1"/>
				<polyline class="st5" points="84.4,51.9 82.2,53.2 80.1,51.9 				"/>
				<line class="st5" x1="82.2" y1="56.3" x2="82.2" y2="53.2"/>
				<polyline class="st5" points="80.1,52.5 75.7,55.1 37.5,30.7 				"/>
				<line class="st2" x1="89.1" y1="52.9" x2="43.3" y2="26.4"/>
				<line class="st2" x1="73.4" y1="44.3" x2="46.3" y2="28.6"/>
				<line class="st5" x1="75.7" y1="56.2" x2="75.7" y2="55.1"/>
				<line class="st5" x1="72" y1="51.4" x2="72" y2="50.1"/>
				<polygon class="st5" points="77.7,46.7 77.7,48.1 72,51.4 62.4,45.3 62.4,44 66.7,41.5 72.3,44.9 73.5,44.2 				"/>
				<line class="st5" x1="77.7" y1="46.7" x2="72" y2="50.1"/>
				<line class="st5" x1="46.3" y1="28.5" x2="42.1" y2="30.9"/>
				<polygon class="st5" points="38.6,30.1 38.6,28.7 38.6,28.7 42.6,26.4 46.3,28.5 46.3,29.7 46.3,29.7 42.1,32.2 				"/>
				<polyline class="st5" points="79.5,54 75.7,56.2 37.5,31.9 37.5,31.9 37.5,30.7 38.6,30.1 				"/>
				<line class="st5" x1="42.1" y1="30.9" x2="38.6" y2="28.7"/>
				<line class="st5" x1="42.1" y1="32.2" x2="42.1" y2="30.9"/>
				<polyline class="st5" points="83.6,51.4 83.9,51.2 83.9,50.4 77.7,46.8 				"/>
				<line class="st5" x1="83.9" y1="50.3" x2="83.4" y2="50.6"/>
				<line class="st5" x1="43.3" y1="25.6" x2="36.3" y2="29.7"/>
				<polyline class="st5" points="81.3,51.2 80.1,51.9 80.1,55 82.2,56.3 84.4,55 84.4,51.9 83.5,51.4 				"/>
				<g>
					<defs>
						<rect id="SVGID_11_" x="24.3" y="10.5" width="66.1" height="79.4"/>
					</defs>
					<clipPath id="SVGID_12_">
						<use xlink:href="#SVGID_11_"  style="overflow:visible;"/>
					</clipPath>
					<g class="st10">
						<path class="st5" d="M82.2,50c-0.5,0.1-0.9,0.6-0.9,1.2V52c0,0.3,0.5,0.6,1.1,0.6s1.1-0.3,1.1-0.6v-0.8c0-0.6-0.4-1.1-0.9-1.2
							v-0.1c0-0.1-0.1-0.1-0.2-0.1s-0.2,0.1-0.2,0.1V50z"/>
					</g>
				</g>
				<polygon class="st11" points="45.7,40.6 45.7,53.6 51,57 51,44 				"/>
				<line class="st12" x1="51" y1="46.2" x2="45.7" y2="42.7"/>
				<line class="st12" x1="51" y1="48.3" x2="45.7" y2="44.9"/>
				<line class="st12" x1="51" y1="50.5" x2="45.7" y2="47.1"/>
				<line class="st12" x1="51" y1="52.7" x2="45.7" y2="49.2"/>
				<line class="st12" x1="51" y1="54.8" x2="45.7" y2="51.4"/>
			</g>
		</g>
	</g>
	<g id="_4-6_H">
		<polygon class="st11" points="49.7,137.2 57.6,137.7 57.6,132.2 57,132.2 57,132.3 55.9,132.3 55.9,130.8 54.7,130.8 53.4,130.8 
			49.7,130.8 		"/>
		<g>
			<defs>
				<rect id="SVGID_13_" x="23.3" y="124.2" width="76.6" height="17.3"/>
			</defs>
			<clipPath id="SVGID_14_">
				<use xlink:href="#SVGID_13_"  style="overflow:visible;"/>
			</clipPath>
			<g class="st13">
				<polygon class="st14" points="98.1,125.4 98.1,140.4 24.3,135.8 24.3,125.4 				"/>
			</g>
		</g>
	</g>
</g>
</svg>
