<?xml version="1.0" encoding="utf-8"?>
<!-- Generator: Adobe Illustrator 16.0.4, SVG Export Plug-In . SVG Version: 6.00 Build 0)  -->
<!DOCTYPE svg PUBLIC "-//W3C//DTD SVG 1.1//EN" "http://www.w3.org/Graphics/SVG/1.1/DTD/svg11.dtd">
<svg version="1.1" id="Layer_1" xmlns="http://www.w3.org/2000/svg" xmlns:xlink="http://www.w3.org/1999/xlink" x="0px" y="0px"
	 width="101.75px" height="142.5px" viewBox="0 0 101.75 142.5" enable-background="new 0 0 101.75 142.5" xml:space="preserve">
<path fill="#D1D3D4" d="M2.668,102.478c-0.621,0-0.956-0.429-0.956-1.132v-1.4h3.373v1.291c0,0.703-0.313,1.137-0.918,1.137
	c-0.362,0-0.626-0.197-0.714-0.445C3.349,102.246,3.036,102.478,2.668,102.478z M2.306,100.621v0.664
	c0,0.33,0.164,0.506,0.423,0.506c0.264,0,0.423-0.176,0.423-0.506v-0.664H2.306z M3.7,101.191c0,0.336,0.132,0.512,0.401,0.512
	c0.269,0,0.39-0.176,0.39-0.512v-0.57H3.7V101.191z"/>
<path fill="#D1D3D4" d="M2.97,104.889H1.712v-0.697h3.373v1.39c0,0.708-0.379,1.181-1.071,1.181c-0.538,0-0.879-0.297-0.994-0.769
	l-1.308,0.89v-0.791l1.258-0.835V104.889z M3.547,104.889v0.648c0,0.352,0.187,0.533,0.467,0.533c0.285,0,0.473-0.182,0.473-0.533
	v-0.648H3.547z"/>
<path fill="#D1D3D4" d="M1.657,109.926c0-0.939,0.736-1.594,1.741-1.594c1.011,0,1.741,0.654,1.741,1.594s-0.73,1.598-1.741,1.598
	C2.394,111.523,1.657,110.865,1.657,109.926z M4.514,109.926c0-0.533-0.456-0.879-1.115-0.879s-1.115,0.346-1.115,0.879
	c0,0.538,0.456,0.89,1.115,0.89S4.514,110.464,4.514,109.926z"/>
<path fill="#D1D3D4" d="M5.085,114.814l-3.373,1.291v-0.713l0.812-0.303v-1.264l-0.812-0.297v-0.703l3.373,1.291V114.814z
	 M3.118,114.046v0.824l1.121-0.412L3.118,114.046z"/>
<path fill="#D1D3D4" d="M5.085,117.727v1.191c0,1.021-0.659,1.665-1.687,1.665s-1.687-0.644-1.687-1.665v-1.191H5.085z
	 M2.333,118.891c0,0.643,0.412,0.994,1.065,0.994c0.659,0,1.071-0.352,1.071-0.994v-0.467H2.333V118.891z"/>
<path fill="#D1D3D4" d="M5.085,124.367l-2.269,0.583l2.269,0.555v0.692l-3.373-0.879v-0.643l2.225-0.594l-2.225-0.594v-0.643
	l3.373-0.879v0.709l-2.269,0.549l2.269,0.594V124.367z"/>
<path fill="#D1D3D4" d="M5.085,129.346l-3.373,1.291v-0.715l0.812-0.301v-1.264l-0.812-0.297v-0.703l3.373,1.291V129.346z
	 M3.118,128.576v0.824l1.121-0.412L3.118,128.576z"/>
<path fill="#D1D3D4" d="M5.085,134.004v0.742l-2.093-1.226h-1.28v-0.698h1.28l2.093-1.213v0.764l-1.429,0.818L5.085,134.004z"/>
<path fill="#D1D3D4" d="M100.06,93.741v0.703h-2.752v1.571h-0.621v-2.274H100.06z"/>
<path fill="#D1D3D4" d="M100.06,99.492l-3.373,1.291v-0.715l0.813-0.302v-1.264l-0.813-0.296v-0.703l3.373,1.29V99.492z
	 M98.093,98.723v0.824l1.12-0.412L98.093,98.723z"/>
<path fill="#D1D3D4" d="M96.687,102.398h3.373v2.246h-0.615v-1.549h-0.857v1.434h-0.609v-1.434h-1.291V102.398z"/>
<path fill="#D1D3D4" d="M100.06,107.896l-3.373,1.291v-0.714l0.813-0.303v-1.264l-0.813-0.296v-0.703l3.373,1.291V107.896z
	 M98.093,107.127v0.824l1.12-0.412L98.093,107.127z"/>
<path fill="#D1D3D4" d="M100.06,112.549v0.741l-2.093-1.226h-1.28v-0.697h1.28l2.093-1.214v0.764l-1.429,0.818L100.06,112.549z"/>
<path fill="#D1D3D4" d="M100.06,117.18h-0.615v-1.6h-0.736v1.451h-0.599v-1.451h-0.802v1.6h-0.621v-2.291h3.373V117.18z"/>
<path fill="#D1D3D4" d="M100.06,118.755v2.879h-0.615v-1.088h-2.758v-0.708h2.758v-1.083H100.06z"/>
<path fill="#D1D3D4" d="M100.06,123.122V126h-0.615v-1.088h-2.758v-0.708h2.758v-1.082H100.06z"/>
<path fill="#D1D3D4" d="M100.06,129.967h-0.615v-1.6h-0.736v1.451h-0.599v-1.451h-0.802v1.6h-0.621v-2.291h3.373V129.967z"/>
<path fill="#D1D3D4" d="M97.647,134.594c-0.296,0.094-0.434,0.341-0.434,0.67c0,0.341,0.153,0.566,0.423,0.566
	c0.203,0,0.313-0.121,0.379-0.412l0.138-0.604c0.109-0.483,0.368-0.856,0.923-0.856c0.609,0,1.038,0.505,1.038,1.214
	c0,0.769-0.406,1.214-0.978,1.323v-0.697c0.225-0.077,0.4-0.27,0.4-0.621c0-0.318-0.153-0.532-0.396-0.532
	c-0.192,0-0.308,0.126-0.368,0.379l-0.143,0.615c-0.126,0.55-0.439,0.884-0.95,0.884c-0.653,0-1.049-0.538-1.049-1.252
	c0-0.752,0.373-1.285,1.016-1.4V134.594z"/>
<path fill="#D1D3D4" d="M100.06,137.982v2.879h-0.615v-1.088h-2.758v-0.709h2.758v-1.082H100.06z"/>
<path fill="#D1D3D4" d="M31.509,97.986h0.703v2.752h1.571v0.621h-2.274V97.986z"/>
<path fill="#D1D3D4" d="M37.688,97.986v0.615H36.09v0.736h1.45v0.599h-1.45v0.802h1.599v0.621h-2.291v-3.373H37.688z"/>
<path fill="#D1D3D4" d="M40.764,101.414c-0.939,0-1.593-0.736-1.593-1.741c0-1.011,0.654-1.741,1.593-1.741s1.599,0.73,1.599,1.741
	C42.362,100.678,41.703,101.414,40.764,101.414z M40.764,98.558c-0.533,0-0.879,0.456-0.879,1.115s0.346,1.115,0.879,1.115
	c0.538,0,0.89-0.456,0.89-1.115S41.302,98.558,40.764,98.558z"/>
<path fill="#D1D3D4" d="M46.779,101.359h-0.555l-1.593-2.247v2.247h-0.675v-3.373h0.659l1.489,2.132v-2.132h0.675V101.359z"/>
<path fill="#D1D3D4" d="M50.278,97.986l1.291,3.373h-0.714l-0.302-0.812H49.29l-0.296,0.812H48.29l1.291-3.373H50.278z
	 M49.509,99.953h0.824l-0.412-1.121L49.509,99.953z"/>
<path fill="#D1D3D4" d="M53.772,100.102v1.258h-0.698v-3.373h1.39c0.708,0,1.181,0.379,1.181,1.071c0,0.538-0.297,0.879-0.769,0.994
	l0.89,1.308h-0.791l-0.835-1.258H53.772z M53.772,99.524h0.648c0.352,0,0.533-0.187,0.533-0.467c0-0.285-0.181-0.473-0.533-0.473
	h-0.648V99.524z"/>
<path fill="#D1D3D4" d="M57.271,97.986h1.192c1.021,0,1.665,0.659,1.665,1.687s-0.643,1.687-1.665,1.687h-1.192V97.986z
	 M58.436,100.738c0.643,0,0.994-0.412,0.994-1.065c0-0.659-0.352-1.071-0.994-1.071h-0.467v2.137H58.436z"/>
<path fill="#D1D3D4" d="M64.475,100.398c0.093,0.296,0.341,0.434,0.67,0.434c0.34,0,0.565-0.154,0.565-0.423
	c0-0.203-0.121-0.313-0.412-0.379l-0.604-0.138c-0.483-0.109-0.857-0.368-0.857-0.923c0-0.609,0.505-1.038,1.214-1.038
	c0.77,0,1.214,0.406,1.324,0.978h-0.698c-0.077-0.225-0.269-0.4-0.621-0.4c-0.319,0-0.533,0.153-0.533,0.396
	c0,0.191,0.126,0.308,0.379,0.367l0.615,0.144c0.549,0.126,0.884,0.439,0.884,0.95c0,0.653-0.538,1.049-1.252,1.049
	c-0.752,0-1.286-0.373-1.401-1.016H64.475z"/>
<path fill="#D1D3D4" d="M67.76,97.986h2.878v0.615H69.55v2.758h-0.708v-2.758H67.76V97.986z"/>
<path fill="#D1D3D4" d="M29.033,133.23c0.796,0,1.285,0.467,1.412,1.143h-0.698c-0.115-0.308-0.324-0.517-0.714-0.517
	c-0.539,0-0.857,0.473-0.857,1.115c0,0.638,0.318,1.115,0.857,1.115c0.39,0,0.599-0.209,0.714-0.521h0.698
	c-0.126,0.681-0.615,1.147-1.412,1.147c-0.901,0-1.571-0.708-1.571-1.741C27.461,133.939,28.132,133.23,29.033,133.23z"/>
<path fill="#D1D3D4" d="M33.768,133.285l1.291,3.373h-0.714l-0.302-0.812h-1.264l-0.296,0.812h-0.703l1.291-3.373H33.768z
	 M32.999,135.252h0.824l-0.412-1.121L32.999,135.252z"/>
<path fill="#D1D3D4" d="M36.151,133.285h2.879v0.615h-1.088v2.758h-0.708V133.9h-1.083V133.285z"/>
<path fill="#D1D3D4" d="M43.633,133.285v3.373H42.93v-1.417h-1.527v1.417H40.7v-3.373h0.703v1.341h1.527v-1.341H43.633z"/>
<path fill="#D1D3D4" d="M47.781,133.285v0.615h-1.599v0.736h1.45v0.599h-1.45v0.802h1.599v0.621H45.49v-3.373H47.781z"/>
<path fill="#D1D3D4" d="M50.235,135.4v1.258h-0.697v-3.373h1.39c0.708,0,1.181,0.379,1.181,1.071c0,0.538-0.297,0.879-0.769,0.994
	l0.89,1.308h-0.791l-0.835-1.258H50.235z M50.235,134.823h0.648c0.352,0,0.533-0.187,0.533-0.467c0-0.285-0.181-0.473-0.533-0.473
	h-0.648V134.823z"/>
<path fill="#D1D3D4" d="M54.548,136.658h-0.703v-3.373h0.703V136.658z"/>
<path fill="#D1D3D4" d="M59.22,136.658h-0.555l-1.593-2.247v2.247h-0.675v-3.373h0.659l1.489,2.132v-2.132h0.675V136.658z"/>
<path fill="#D1D3D4" d="M63.373,133.285v0.615h-1.599v0.736h1.45v0.599h-1.45v0.802h1.599v0.621h-2.291v-3.373H63.373z"/>
<path fill="#D1D3D4" d="M67.506,133.285h0.703v2.752h1.571v0.621h-2.274V133.285z"/>
<path fill="#D1D3D4" d="M74.328,136.658h-0.555l-1.593-2.247v2.247h-0.676v-3.373h0.659l1.488,2.132v-2.132h0.676V136.658z"/>
<polygon points="32.943,116.359 32.112,116.359 32.112,117.556 32.943,117.556 32.943,122.382 38.747,122.811 38.747,116.534 
	38.616,116.534 38.616,114.332 38.747,114.332 38.747,110.497 32.943,110.497 "/>
<g>
	<defs>
		<rect id="SVGID_1_" x="11.783" y="109.374" width="78.41" height="17.694"/>
	</defs>
	<clipPath id="SVGID_2_">
		<use xlink:href="#SVGID_1_"  overflow="visible"/>
	</clipPath>
	<polygon clip-path="url(#SVGID_2_)" fill="none" stroke="#D1D3D4" stroke-width="0.764" stroke-miterlimit="10" points="
		88.313,110.548 88.313,125.895 12.728,121.191 12.763,110.548 	"/>
</g>
<polygon points="52.546,29.474 52.546,43.174 57.396,45.982 57.396,32.244 "/>
<path fill="#D1D3D4" d="M22.137,46.791l0.526,0.33l-2.038,1.326l1.177,0.736l-0.459,0.299l-1.703-1.065L22.137,46.791z"/>
<path fill="#D1D3D4" d="M26.924,49.784l-0.456,0.296l-1.197-0.749l-0.545,0.354l1.086,0.68l-0.443,0.288l-1.086-0.679l-0.594,0.387
	l1.197,0.749l-0.459,0.299l-1.716-1.073l2.497-1.625L26.924,49.784z"/>
<path fill="#D1D3D4" d="M26.848,52.976c-0.704-0.44-0.648-1.101,0.096-1.585c0.749-0.487,1.778-0.533,2.482-0.093
	c0.703,0.44,0.657,1.1-0.092,1.587C28.59,53.369,27.551,53.415,26.848,52.976z M28.963,51.599c-0.399-0.25-0.996-0.192-1.484,0.125
	s-0.567,0.699-0.167,0.949c0.403,0.252,1.004,0.196,1.492-0.121S29.366,51.851,28.963,51.599z"/>
<path fill="#D1D3D4" d="M31.551,55.864l-0.416-0.26l0.471-1.829l-1.663,1.083l-0.506-0.316l2.497-1.625l0.493,0.309l-0.463,1.724
	l1.578-1.027l0.506,0.316L31.551,55.864z"/>
<path fill="#D1D3D4" d="M36.826,55.976l-1.53,2.23l-0.535-0.334l0.376-0.533l-0.946-0.592L33.366,57L32.84,56.67l3.464-1.021
	L36.826,55.976z M34.794,56.563l0.617,0.386l0.521-0.732L34.794,56.563z"/>
<path fill="#D1D3D4" d="M38.038,58.732l-0.931,0.606l-0.522-0.327l2.497-1.625l1.041,0.651c0.531,0.332,0.604,0.736,0.092,1.069
	c-0.398,0.259-0.874,0.284-1.312,0.119l-0.301,1.047l-0.593-0.371l0.306-0.997L38.038,58.732z M38.465,58.455l0.485,0.303
	c0.264,0.165,0.538,0.159,0.745,0.024c0.211-0.138,0.214-0.312-0.05-0.477l-0.485-0.303L38.465,58.455z"/>
<path fill="#D1D3D4" d="M42.383,59.451l0.893,0.559c0.766,0.479,0.759,1.097-0.001,1.592c-0.76,0.495-1.73,0.512-2.496,0.033
	l-0.893-0.559L42.383,59.451z M41.217,61.323c0.481,0.301,1.05,0.267,1.534-0.048c0.488-0.317,0.529-0.681,0.048-0.981l-0.35-0.219
	l-1.582,1.03L41.217,61.323z"/>
<path fill="#D1D3D4" d="M46.315,64.188c-0.149,0.187-0.066,0.369,0.182,0.523c0.255,0.16,0.536,0.19,0.735,0.061
	c0.151-0.098,0.143-0.207-0.026-0.375l-0.352-0.349c-0.281-0.279-0.369-0.578,0.042-0.846c0.452-0.294,1.146-0.264,1.678,0.068
	c0.576,0.36,0.608,0.764,0.268,1.091l-0.523-0.327c0.109-0.144,0.096-0.319-0.168-0.484c-0.238-0.149-0.513-0.176-0.692-0.059
	c-0.143,0.093-0.133,0.208,0.011,0.355l0.355,0.356c0.318,0.318,0.337,0.626-0.042,0.873c-0.484,0.315-1.18,0.253-1.714-0.081
	c-0.563-0.353-0.686-0.782-0.297-1.146L46.315,64.188z"/>
<path fill="#D1D3D4" d="M50.715,64.661l2.156,1.348l-0.456,0.296l-0.814-0.509l-2.042,1.329l-0.531-0.332l2.042-1.329l-0.811-0.507
	L50.715,64.661z"/>
<line fill="none" stroke="#000000" stroke-width="0.119" stroke-miterlimit="10" x1="72.37" y1="36.475" x2="72.37" y2="32.849"/>
<line fill="none" stroke="#000000" stroke-width="0.119" stroke-miterlimit="10" x1="23.942" y1="7.434" x2="23.942" y2="4.434"/>
<line fill="none" stroke="#000000" stroke-width="0.119" stroke-miterlimit="10" x1="34.011" y1="11.329" x2="34.011" y2="13"/>
<line fill="none" stroke="#000000" stroke-width="0.119" stroke-miterlimit="10" x1="29.565" y1="8.799" x2="29.565" y2="10.47"/>
<line fill="none" stroke="#000000" stroke-width="0.119" stroke-miterlimit="10" x1="35.209" y1="10.67" x2="35.209" y2="12.342"/>
<line fill="none" stroke="#000000" stroke-width="0.112" stroke-miterlimit="10" x1="35.217" y1="12.316" x2="33.997" y2="13.03"/>
<line fill="none" stroke="#000000" stroke-width="0.112" stroke-miterlimit="10" x1="35.156" y1="10.732" x2="34.026" y2="11.394"/>
<line fill="none" stroke="#000000" stroke-width="0.112" stroke-miterlimit="10" x1="65.77" y1="25.11" x2="60.892" y2="27.964"/>
<line fill="none" stroke="#000000" stroke-width="0.112" stroke-miterlimit="10" x1="69.506" y1="28.085" x2="65.327" y2="30.532"/>
<line fill="none" stroke="#000000" stroke-width="0.119" stroke-miterlimit="10" x1="41.071" y1="14.049" x2="41.071" y2="15.72"/>
<line fill="none" stroke="#000000" stroke-width="0.112" stroke-miterlimit="10" x1="45.154" y1="12.688" x2="64.883" y2="25.645"/>
<line fill="none" stroke="#000000" stroke-width="0.112" stroke-miterlimit="10" x1="65.746" y1="25.104" x2="69.506" y2="27.574"/>
<line fill="none" stroke="#000000" stroke-width="0.112" stroke-miterlimit="10" x1="45.153" y1="12.173" x2="65.264" y2="25.381"/>
<line fill="none" stroke="#000000" stroke-width="0.112" stroke-miterlimit="10" x1="21.569" y1="6.453" x2="23.616" y2="7.638"/>
<line fill="none" stroke="#000000" stroke-width="0.112" stroke-miterlimit="10" x1="29.565" y1="8.799" x2="34.011" y2="11.377"/>
<line fill="none" stroke="#000000" stroke-width="0.112" stroke-miterlimit="10" x1="35.223" y1="10.732" x2="41.13" y2="14.155"/>
<line fill="none" stroke="#000000" stroke-width="0.112" stroke-miterlimit="10" x1="35.19" y1="12.317" x2="41.071" y2="15.725"/>
<line fill="none" stroke="#000000" stroke-width="0.112" stroke-miterlimit="10" x1="60.914" y1="27.971" x2="65.334" y2="30.532"/>
<line fill="none" stroke="#000000" stroke-width="0.119" stroke-miterlimit="10" x1="72.346" y1="26.012" x2="72.346" y2="24.231"/>
<polyline fill="none" stroke="#000000" stroke-width="0.119" stroke-miterlimit="10" points="64.923,33.909 64.218,33.485 
	63.331,34.005 25.152,11.886 25.152,10.014 "/>
<polyline fill="none" stroke="#000000" stroke-width="0.119" stroke-miterlimit="10" points="34.725,5.838 30.938,3.352 
	22.334,8.388 63.331,32.129 "/>
<line fill="none" stroke="#000000" stroke-width="0.119" stroke-miterlimit="10" x1="63.331" y1="32.128" x2="63.331" y2="34.001"/>
<line fill="none" stroke="#000000" stroke-width="0.119" stroke-miterlimit="10" x1="64.222" y1="31.596" x2="63.33" y2="32.118"/>
<polyline fill="none" stroke="#000000" stroke-width="0.119" stroke-miterlimit="10" points="64.222,33.485 64.222,31.597 
	60.914,29.679 "/>
<line fill="none" stroke="#000000" stroke-width="0.119" stroke-miterlimit="10" x1="72.409" y1="39.913" x2="72.409" y2="37.854"/>
<polyline fill="none" stroke="#000000" stroke-width="0.119" stroke-miterlimit="10" points="76.91,32.111 79.411,33.754 
	79.411,35.822 72.408,39.921 64.924,35.585 64.924,33.522 67.933,31.761 "/>
<polyline fill="none" stroke="#000000" stroke-width="0.119" stroke-miterlimit="10" points="79.411,33.753 72.406,37.854 
	64.923,33.522 "/>
<polyline fill="none" stroke="#000000" stroke-width="0.112" stroke-miterlimit="10" points="23.084,8.81 23.084,9.82 
	25.152,11.029 "/>
<line fill="none" stroke="#000000" stroke-width="0.112" stroke-miterlimit="10" x1="29.565" y1="10.468" x2="34.011" y2="13.043"/>
<line fill="none" stroke="#000000" stroke-width="0.109" stroke-miterlimit="10" x1="60.895" y1="29.672" x2="60.895" y2="27.97"/>
<line fill="none" stroke="#000000" stroke-width="0.109" stroke-miterlimit="10" x1="65.334" y1="33.25" x2="65.334" y2="30.538"/>
<polyline fill="none" stroke="#000000" stroke-width="0.112" stroke-miterlimit="10" points="75.279,25.139 72.374,26.84 
	69.506,25.176 "/>
<polyline fill="none" stroke="#000000" stroke-width="0.119" stroke-miterlimit="10" points="75.279,28.836 75.553,28.995 
	75.553,30.264 72.38,32.119 69.183,30.267 69.183,29.095 69.506,28.905 "/>
<line fill="none" stroke="#000000" stroke-width="0.119" stroke-miterlimit="10" x1="72.376" y1="32.115" x2="72.376" y2="26.839"/>
<polyline fill="none" stroke="#000000" stroke-width="0.119" stroke-miterlimit="10" points="75.554,29.392 76.91,30.178 
	76.91,33.827 72.369,36.481 67.932,33.91 67.932,30.252 69.183,29.521 "/>
<polyline fill="none" stroke="#000000" stroke-width="0.119" stroke-miterlimit="10" points="76.91,30.179 72.37,32.85 
	67.967,30.298 "/>
<polyline fill="none" stroke="#000000" stroke-width="0.119" stroke-miterlimit="10" points="21.569,6.432 17.226,8.974 
	17.226,39.453 "/>
<polyline fill="none" stroke="#000000" stroke-width="0.119" stroke-miterlimit="10" points="26.375,3.619 29.417,1.838 
	35.141,5.598 "/>
<line fill="none" stroke="#000000" stroke-width="0.119" stroke-miterlimit="10" x1="72.37" y1="40.92" x2="72.34" y2="68.436"/>
<line fill="none" stroke="#000000" stroke-width="0.117" stroke-miterlimit="10" x1="72.355" y1="68.417" x2="42.911" y2="51.359"/>
<polyline fill="none" stroke="#000000" stroke-width="0.117" stroke-miterlimit="10" points="80.695,40.653 72.371,45.505 
	17.287,13.594 "/>
<polyline fill="none" stroke="#000000" stroke-width="0.117" stroke-miterlimit="10" points="80.695,42.946 72.371,47.799 
	17.287,15.888 "/>
<polyline fill="none" stroke="#000000" stroke-width="0.117" stroke-miterlimit="10" points="80.695,45.239 72.371,50.092 
	17.287,18.18 "/>
<polyline fill="none" stroke="#000000" stroke-width="0.117" stroke-miterlimit="10" points="80.695,47.532 72.371,52.384 
	17.287,20.474 "/>
<polyline fill="none" stroke="#000000" stroke-width="0.117" stroke-miterlimit="10" points="80.695,49.826 72.371,54.678 
	17.287,22.767 "/>
<polyline fill="none" stroke="#000000" stroke-width="0.117" stroke-miterlimit="10" points="80.695,52.118 72.371,56.971 
	17.287,25.061 "/>
<polyline fill="none" stroke="#000000" stroke-width="0.117" stroke-miterlimit="10" points="80.695,54.412 72.371,59.265 
	17.287,27.353 "/>
<polyline fill="none" stroke="#000000" stroke-width="0.117" stroke-miterlimit="10" points="80.695,56.705 72.371,61.557 
	17.287,29.646 "/>
<line fill="none" stroke="#000000" stroke-width="0.117" stroke-miterlimit="10" x1="80.695" y1="58.998" x2="78.736" y2="60.141"/>
<polyline fill="none" stroke="#000000" stroke-width="0.117" stroke-miterlimit="10" points="74.315,62.716 72.371,63.85 
	17.288,31.939 "/>
<line fill="none" stroke="#000000" stroke-width="0.117" stroke-miterlimit="10" x1="78.736" y1="62.432" x2="80.695" y2="61.291"/>
<polyline fill="none" stroke="#000000" stroke-width="0.117" stroke-miterlimit="10" points="74.315,65.009 72.371,66.144 
	17.288,34.231 "/>
<polyline fill="none" stroke="#000000" stroke-width="0.117" stroke-miterlimit="10" points="80.695,38.36 72.371,43.213 
	17.287,11.301 "/>
<line fill="none" stroke="#000000" stroke-width="0.117" stroke-miterlimit="10" x1="40.585" y1="50.012" x2="17.277" y2="36.508"/>
<polyline fill="none" stroke="#000000" stroke-width="0.112" stroke-miterlimit="10" points="22.826,2.324 21.568,3.059 
	21.568,6.453 "/>
<polyline fill="none" stroke="#000000" stroke-width="0.112" stroke-miterlimit="10" points="25.205,2.333 26.374,3.011 
	26.374,5.995 "/>
<polyline fill="none" stroke="#000000" stroke-width="0.112" stroke-miterlimit="10" points="21.569,3.059 23.943,4.434 
	26.374,3.011 "/>
<polyline fill="none" stroke="#000000" stroke-width="0.119" stroke-miterlimit="10" points="73.355,22.868 73.977,23.276 
	73.977,25.06 72.346,26.013 70.7,25.059 70.7,23.277 71.548,22.78 "/>
<polyline fill="none" stroke="#000000" stroke-width="0.112" stroke-miterlimit="10" points="73.979,23.277 72.346,24.232 
	70.699,23.277 "/>
<g>
	<defs>
		<rect id="SVGID_3_" x="15.854" y="-5.478" width="65.775" height="75.618"/>
	</defs>
	<clipPath id="SVGID_4_">
		<use xlink:href="#SVGID_3_"  overflow="visible"/>
	</clipPath>
	<path clip-path="url(#SVGID_4_)" fill="none" stroke="#000000" stroke-width="0.119" stroke-miterlimit="10" d="M70.83,21.357
		c-0.035,0.07-0.156,0.203-0.168,0.257l0.1,0.264c0.1,0.134,0.466,0.257,1.077,0.083c0.611-0.173,1.891-0.852,2.009-1.539
		l-0.206-0.386c0,0-0.189-0.06-0.398-0.007"/>
</g>
<polyline fill="none" stroke="#000000" stroke-width="0.119" stroke-miterlimit="10" points="71.404,18.845 72.273,19.266 
	72.54,19.153 73.141,18.311 "/>
<g>
	<defs>
		<rect id="SVGID_5_" x="15.854" y="-5.478" width="65.775" height="75.618"/>
	</defs>
	<clipPath id="SVGID_6_">
		<use xlink:href="#SVGID_5_"  overflow="visible"/>
	</clipPath>
	<path clip-path="url(#SVGID_6_)" fill="none" stroke="#000000" stroke-width="0.119" stroke-miterlimit="10" d="M73.696,20.77
		c0.044,0.195,0.049,0.403,0.006,0.612c-0.16,0.784-0.927,1.291-1.711,1.13c-0.304-0.061-0.566-0.215-0.764-0.424l-0.06-0.046"/>
	<path clip-path="url(#SVGID_6_)" fill="none" stroke="#000000" stroke-width="0.119" stroke-miterlimit="10" d="M70.942,21.667
		c-0.048-0.112-0.082-0.23-0.101-0.356c-0.121-0.792,0.424-1.531,1.216-1.652c0.487-0.074,0.929,0.076,1.27,0.435
		c0.171,0.193,0.233,0.344,0.233,0.344"/>
	<path clip-path="url(#SVGID_6_)" fill="none" stroke="#000000" stroke-width="0.119" stroke-miterlimit="10" d="M71.732,27.916
		c0.243,0.696,0.052,1.26-0.425,1.262c-0.477,0.001-1.06-0.562-1.303-1.257c-0.243-0.696-0.052-1.261,0.425-1.262
		S71.489,27.22,71.732,27.916z"/>
	<path clip-path="url(#SVGID_6_)" fill="none" stroke="#000000" stroke-width="0.119" stroke-miterlimit="10" d="M72.974,27.938
		c-0.243,0.696-0.052,1.26,0.425,1.262c0.477,0.001,1.06-0.562,1.303-1.257c0.242-0.696,0.052-1.26-0.425-1.262
		C73.8,26.68,73.217,27.243,72.974,27.938z"/>
	
		<path clip-path="url(#SVGID_6_)" fill="none" stroke="#000000" stroke-width="0.112" stroke-linejoin="bevel" stroke-miterlimit="10" d="
		M73.352,22.947c0,0,0.004-0.126-0.008-0.156c-0.012-0.031-0.03-0.058-0.079-0.07c-0.049-0.013-0.255,0.047-0.255,0.047
		s-0.002-0.034-0.002-0.081v-0.036l0.077-0.331"/>
	<path clip-path="url(#SVGID_6_)" fill="none" stroke="#000000" stroke-width="0.112" stroke-miterlimit="10" d="M72.665,22.933
		c-0.016,0.061,0.046,0.125,0.058,0.167c0.019,0.061,0.158,0.104,0.28,0.015"/>
</g>
<polyline fill="none" stroke="#000000" stroke-width="0.112" stroke-miterlimit="10" points="71.89,23.493 71.89,23.359 
	72.077,23.044 72.044,22.933 71.698,22.876 71.389,22.686 71.515,22.322 "/>
<polyline fill="none" stroke="#000000" stroke-width="0.119" stroke-miterlimit="10" points="70.701,24.476 69.505,25.175 
	69.505,29.068 72.379,30.732 75.279,29.038 75.279,25.139 73.981,24.387 "/>
<g>
	<defs>
		<rect id="SVGID_7_" x="15.854" y="-5.478" width="65.775" height="75.618"/>
	</defs>
	<clipPath id="SVGID_8_">
		<use xlink:href="#SVGID_7_"  overflow="visible"/>
	</clipPath>
	<path clip-path="url(#SVGID_8_)" fill="none" stroke="#000000" stroke-width="0.112" stroke-miterlimit="10" d="M23.817,1.013
		c-0.563,0.098-0.992,0.609-0.992,1.224v0.864c0,0.337,0.533,0.611,1.19,0.611c0.657,0,1.19-0.274,1.19-0.611V2.237
		c0-0.615-0.43-1.125-0.992-1.224V0.882c0-0.061-0.076-0.132-0.199-0.132c-0.121,0-0.197,0.071-0.197,0.132V1.013z"/>
</g>
<polyline fill="none" stroke="#000000" stroke-width="0.119" stroke-miterlimit="10" points="80.695,36.067 72.371,40.92 
	17.287,9.009 "/>
<polyline fill="none" stroke="#000000" stroke-width="0.119" stroke-miterlimit="10" points="42.911,51.78 41.303,50.851 
	39.853,51.696 41.861,52.857 42.911,52.247 "/>
<line fill="none" stroke="#000000" stroke-width="0.119" stroke-miterlimit="10" x1="42.911" y1="51.78" x2="41.303" y2="50.851"/>
<line fill="none" stroke="#000000" stroke-width="0.119" stroke-miterlimit="10" x1="42.911" y1="53.122" x2="42.156" y2="52.685"/>
<g>
	<defs>
		<rect id="SVGID_9_" x="15.854" y="-5.478" width="65.775" height="75.618"/>
	</defs>
	<clipPath id="SVGID_10_">
		<use xlink:href="#SVGID_9_"  overflow="visible"/>
	</clipPath>
	<path clip-path="url(#SVGID_10_)" fill="none" stroke="#000000" stroke-width="0.119" stroke-miterlimit="10" d="M41.629,49.024
		c-0.219,0.187-0.323,0.502-0.323,0.664v1.186"/>
</g>
<polyline fill="none" stroke="#000000" stroke-width="0.119" stroke-miterlimit="10" points="40.991,52.354 40.581,52.593 
	17.226,39.437 "/>
<line fill="none" stroke="#000000" stroke-width="0.119" stroke-miterlimit="10" x1="40.584" y1="52.593" x2="40.584" y2="52.12"/>
<g>
	<defs>
		<rect id="SVGID_11_" x="15.854" y="-5.478" width="65.775" height="75.618"/>
	</defs>
	<clipPath id="SVGID_12_">
		<use xlink:href="#SVGID_11_"  overflow="visible"/>
	</clipPath>
	<path clip-path="url(#SVGID_12_)" fill="none" stroke="#000000" stroke-width="0.119" stroke-miterlimit="10" d="M78.736,64.7
		v-4.439l-4.421,2.455v4.568l-1.977,1.153l-14.818-7.014L45.634,55.44l-2.724-1.534v-3.119c0-0.202-0.189-1.151-1.163-1.714
		c-0.821-0.477-1.164,0.373-1.164,0.673v1.525"/>
</g>
<polyline fill="none" stroke="#000000" stroke-width="0.119" stroke-miterlimit="10" points="75.608,65.016 75.608,63.863 
	74.89,64.28 74.89,65.433 "/>
<g>
	<defs>
		<rect id="SVGID_13_" x="15.854" y="-5.478" width="65.775" height="75.618"/>
	</defs>
	<clipPath id="SVGID_14_">
		<use xlink:href="#SVGID_13_"  overflow="visible"/>
	</clipPath>
	<path clip-path="url(#SVGID_14_)" fill="none" stroke="#000000" stroke-width="0.119" stroke-miterlimit="10" d="M79.411,35.248
		l1.273,0.836v27.488L78.736,64.7c-0.067-0.025-1.669-0.493-2.957,0.22l-1.017,0.59c-0.198,0.101-0.34,0.212-0.447,0.33"/>
</g>
<polyline fill="none" stroke="#000000" stroke-width="0.112" stroke-miterlimit="10" points="41.071,15.72 45.154,13.288 
	45.154,11.714 35.531,5.371 29.567,8.819 "/>
<line fill="none" stroke="#000000" stroke-width="0.112" stroke-miterlimit="10" x1="45.153" y1="11.707" x2="41.081" y2="14.107"/>
<g>
	<defs>
		<rect id="SVGID_15_" x="15.854" y="-5.478" width="65.775" height="75.618"/>
	</defs>
	<clipPath id="SVGID_16_">
		<use xlink:href="#SVGID_15_"  overflow="visible"/>
	</clipPath>
</g>
</svg>
