<?xml version="1.0" encoding="utf-8"?>
<!-- Generator: Adobe Illustrator 23.0.0, SVG Export Plug-In . SVG Version: 6.00 Build 0)  -->
<svg version="1.1" id="Layer_1" xmlns="http://www.w3.org/2000/svg" xmlns:xlink="http://www.w3.org/1999/xlink" x="0px" y="0px"
	 viewBox="0 0 189.9 92.6" style="enable-background:new 0 0 189.9 92.6;" xml:space="preserve">
<style type="text/css">
	.st0{fill:#D2D3D4;}
	.st1{clip-path:url(#SVGID_2_);}
	.st2{enable-background:new    ;}
	.st3{fill:#D1D3D4;}
	.st4{fill:none;stroke:#231F20;stroke-width:0.15;stroke-miterlimit:10;}
	.st5{fill:none;stroke:#231F20;stroke-width:0.14;stroke-miterlimit:10;}
	.st6{clip-path:url(#SVGID_4_);}
	.st7{clip-path:url(#SVGID_6_);}
	.st8{fill:none;stroke:#231F20;stroke-width:0.14;stroke-linejoin:bevel;}
	.st9{clip-path:url(#SVGID_8_);}
	.st10{clip-path:url(#SVGID_10_);}
	.st11{clip-path:url(#SVGID_12_);}
	.st12{clip-path:url(#SVGID_14_);}
	.st13{clip-path:url(#SVGID_16_);}
	.st14{fill:#231F20;}
	.st15{fill:none;stroke:#FFFFFF;stroke-width:0.15;stroke-miterlimit:10;}
	.st16{clip-path:url(#SVGID_18_);}
	.st17{fill:none;stroke:#D1D3D4;stroke-width:1.09;stroke-miterlimit:10;}
</style>
<title>residence_G_7-12_key_horizontal</title>
<g>
	<g>
		<path class="st0" d="M83.6,43.8c-0.6,0-1-0.4-1-1.1v-1.4H86v1.3c0,0.7-0.3,1.1-0.9,1.1c-0.3,0-0.6-0.2-0.7-0.4
			C84.2,43.6,83.9,43.8,83.6,43.8z M83.2,41.9v0.7c0,0.3,0.2,0.5,0.4,0.5s0.4-0.2,0.4-0.5v-0.7H83.2z M84.6,42.5
			c0,0.3,0.1,0.5,0.4,0.5s0.4-0.2,0.4-0.5v-0.6h-0.8V42.5z"/>
		<path class="st0" d="M83.8,46.2h-1.3v-0.7H86v1.4c0.1,0.5-0.3,1.1-0.8,1.2c-0.1,0-0.2,0-0.3,0c-0.5,0-0.9-0.3-1-0.8l-1.3,0.9v-0.8
			l1.3-0.8L83.8,46.2z M84.4,46.2v0.6c0,0.4,0.2,0.5,0.5,0.5s0.5-0.2,0.5-0.5v-0.6H84.4z"/>
		<path class="st0" d="M82.5,51.2c-0.1-1,0.6-1.8,1.6-1.9c1-0.1,1.8,0.6,1.9,1.6s-0.6,1.8-1.6,1.9c-0.1,0-0.1,0-0.2,0
			c-0.9,0.1-1.7-0.6-1.7-1.5C82.5,51.3,82.5,51.3,82.5,51.2z M85.4,51.2c0-0.5-0.4-0.9-1.1-0.9s-1.1,0.3-1.1,0.9s0.5,0.9,1.1,0.9
			S85.4,51.8,85.4,51.2z"/>
		<path class="st0" d="M86,56.1l-3.4,1.3v-0.7l0.8-0.3v-1.3l-0.8-0.3v-0.7l3.4,1.3V56.1z M84,55.4v0.8l1.1-0.4L84,55.4z"/>
		<path class="st0" d="M86,59v1.2c0,0.9-0.8,1.7-1.7,1.7c-0.9,0-1.7-0.8-1.7-1.7V59H86z M83.2,60.2c0,0.6,0.5,1.1,1.1,1.1
			c0.6,0,1.1-0.5,1.1-1.1v-0.5h-2.2L83.2,60.2z"/>
		<path class="st0" d="M86,65.7l-2.3,0.6l2.3,0.6v0.7l-3.4-0.9V66l2.2-0.6l-2.2-0.6v-0.6l3.4-0.9V64l-2.3,0.6l2.3,0.6V65.7z"/>
		<path class="st0" d="M86,70.7L82.6,72v-0.7l0.8-0.3v-1.3l-0.8-0.3v-0.7L86,70V70.7z M84,69.9v0.8l1.1-0.4L84,69.9z"/>
		<path class="st0" d="M86,75.3v0.7l-2.1-1.2h-1.3v-0.7h1.3l2.1-1.2v0.8l-1.4,0.8L86,75.3z"/>
		<path class="st0" d="M180.9,35.1v0.7h-2.8v1.6h-0.6v-2.3H180.9z"/>
		<path class="st0" d="M180.9,40.8l-3.4,1.3v-0.7l0.8-0.3v-1.3l-0.8-0.3v-0.7l3.4,1.3V40.8z M179,40v0.8l1.1-0.4L179,40z"/>
		<path class="st0" d="M177.6,43.7h3.4V46h-0.6v-1.6h-0.9v1.4h-0.6v-1.4h-1.3V43.7z"/>
		<path class="st0" d="M180.9,49.2l-3.4,1.3v-0.7l0.8-0.3v-1.3l-0.8-0.3v-0.7l3.4,1.3V49.2z M178.9,48.4v0.8l1.1-0.4L178.9,48.4z"/>
		<path class="st0" d="M180.9,53.9v0.7l-2.1-1.2h-1.3v-0.7h1.3l2.1-1.2v0.8l-1.4,0.8L180.9,53.9z"/>
		<path class="st0" d="M180.9,58.5h-0.6v-1.6h-0.7v1.5H179v-1.5h-0.8v1.6h-0.6v-2.3h3.4L180.9,58.5z"/>
		<path class="st0" d="M180.9,60.1V63h-0.6v-1.1h-2.8v-0.7h2.8v-1.1H180.9z"/>
		<path class="st0" d="M180.9,64.4v2.9h-0.6v-1.1h-2.8v-0.7h2.8v-1.1H180.9z"/>
		<path class="st0" d="M180.9,71.3h-0.6v-1.6h-0.7v1.5H179v-1.5h-0.8v1.6h-0.6V69h3.4L180.9,71.3z"/>
		<path class="st0" d="M178.5,75.9c-0.3,0.1-0.5,0.4-0.4,0.7c0,0.3,0.2,0.6,0.4,0.6s0.3-0.1,0.4-0.4l0.1-0.6c0-0.5,0.4-0.9,0.9-0.8
			c0.6,0,1,0.6,1,1.1c0,0,0,0,0,0.1c0.1,0.6-0.4,1.2-1,1.3v-0.7c0.3-0.1,0.4-0.4,0.4-0.6c0-0.3-0.2-0.5-0.4-0.5s-0.3,0.1-0.4,0.4
			l-0.1,0.6c-0.1,0.6-0.4,0.9-0.9,0.9c-0.6,0-1.1-0.5-1.1-1.2c0,0,0-0.1,0-0.1c-0.1-0.7,0.4-1.3,1-1.4L178.5,75.9L178.5,75.9z"/>
		<path class="st0" d="M180.9,79.3v2.9h-0.6v-1.1h-2.8v-0.7h2.8v-1.1H180.9z"/>
		<path class="st0" d="M112.4,39.3h0.7v2.8h1.6v0.6h-2.3V39.3z"/>
		<path class="st0" d="M118.6,39.3v0.6H117v0.7h1.4v0.6H117v0.8h1.6v0.6h-2.3v-3.4H118.6z"/>
		<path class="st0" d="M121.6,42.7c-1,0.1-1.8-0.6-1.9-1.6c-0.1-1,0.6-1.8,1.6-1.9c1-0.1,1.8,0.6,1.9,1.6c0,0.1,0,0.1,0,0.2
			c0.1,0.9-0.6,1.7-1.5,1.7C121.7,42.7,121.7,42.7,121.6,42.7z M121.6,39.9c-0.5,0-0.9,0.5-0.9,1.1s0.3,1.1,0.9,1.1s0.9-0.5,0.9-1.1
			S122.2,39.9,121.6,39.9z"/>
		<path class="st0" d="M127.7,42.7h-0.6l-1.6-2.2v2.2h-0.7v-3.4h0.7l1.5,2.1v-2.1h0.7L127.7,42.7z"/>
		<path class="st0" d="M131.2,39.3l1.3,3.4h-0.7l-0.3-0.8h-1.3l-0.3,0.8h-0.7l1.3-3.4H131.2z M130.4,41.3h0.8l-0.4-1.1L130.4,41.3z"
			/>
		<path class="st0" d="M134.6,41.4v1.3H134v-3.4h1.4c0.6-0.1,1.1,0.3,1.2,0.9c0,0.1,0,0.1,0,0.2c0,0.5-0.3,0.9-0.8,1l0.9,1.3h-0.8
			l-0.9-1.3H134.6z M134.6,40.8h0.6c0.4,0,0.5-0.2,0.5-0.5s-0.2-0.5-0.5-0.5h-0.6V40.8z"/>
		<path class="st0" d="M138.1,39.3h1.2c0.9,0,1.7,0.8,1.7,1.7c0,0.9-0.8,1.7-1.7,1.7h-1.2V39.3z M139.3,42.1c0.6,0,1.1-0.5,1.1-1.1
			c0-0.6-0.5-1.1-1.1-1.1h-0.5v2.1H139.3z"/>
		<path class="st0" d="M145.4,41.7c0.1,0.3,0.4,0.5,0.7,0.4c0.3,0,0.6-0.2,0.6-0.4s-0.1-0.3-0.4-0.4l-0.6-0.1
			c-0.5-0.1-0.9-0.4-0.9-0.9c0-0.6,0.6-1,1.2-1c0,0,0,0,0,0c0.6-0.1,1.2,0.4,1.3,1h-0.7c-0.1-0.3-0.3-0.4-0.6-0.4
			c-0.3,0-0.5,0.2-0.5,0.4s0.1,0.3,0.4,0.4l0.6,0.1c0.6,0.1,0.9,0.4,0.9,1c0,0.7-0.5,1-1.2,1c-0.7,0.1-1.3-0.4-1.4-1L145.4,41.7z"/>
		<path class="st0" d="M148.6,39.3h2.9v0.6h-1.1v2.8h-0.7v-2.8h-1.1V39.3z"/>
		<path class="st0" d="M109.9,74.6c0.7,0,1.3,0.4,1.4,1.1h-0.7c-0.1-0.3-0.4-0.5-0.7-0.5c-0.5,0-0.8,0.5-0.8,1.1s0.3,1.1,0.8,1.1
			c0.3,0,0.6-0.2,0.7-0.5h0.7c-0.1,0.7-0.7,1.2-1.4,1.1c-1-0.1-1.7-1-1.6-1.9C108.4,75.3,109.1,74.6,109.9,74.6L109.9,74.6z"/>
		<path class="st0" d="M114.7,74.6l1.3,3.4h-0.7l-0.3-0.8h-1.3l-0.3,0.8h-0.7l1.3-3.4H114.7z M113.9,76.6h0.8l-0.4-1.1L113.9,76.6z"
			/>
		<path class="st0" d="M117,74.6h2.9v0.6h-1.1V78h-0.7v-2.8H117V74.6z"/>
		<path class="st0" d="M124.5,74.6V78h-0.7v-1.4h-1.5V78h-0.7v-3.4h0.7v1.3h1.5v-1.3H124.5z"/>
		<path class="st0" d="M128.7,74.6v0.6h-1.6V76h1.5v0.6h-1.4v0.8h1.6V78h-2.3v-3.4H128.7z"/>
		<path class="st0" d="M131.1,76.7V78h-0.7v-3.4h1.4c0.5-0.1,1.1,0.2,1.2,0.8c0,0.1,0,0.2,0,0.3c0,0.5-0.3,0.9-0.8,1l0.9,1.3h-0.8
			l-0.8-1.3L131.1,76.7z M131.1,76.1h0.6c0.4,0,0.5-0.2,0.5-0.5s-0.2-0.5-0.5-0.5h-0.6V76.1z"/>
		<path class="st0" d="M135.4,78h-0.7v-3.4h0.7V78z"/>
		<path class="st0" d="M140.1,78h-0.6l-1.6-2.3V78h-0.7v-3.4h0.7l1.5,2.1v-2.1h0.7L140.1,78z"/>
		<path class="st0" d="M144.2,74.6v0.6h-1.6V76h1.4v0.6h-1.4v0.8h1.6V78H142v-3.4H144.2z"/>
		<path class="st0" d="M148.4,74.6h0.7v2.8h1.6V78h-2.3V74.6z"/>
		<path class="st0" d="M155.2,78h-0.6l-1.6-2.2V78h-0.7v-3.4h0.6l1.5,2.1v-2.1h0.7L155.2,78L155.2,78z"/>
		<g>
			<defs>
				<rect id="SVGID_1_" x="6.1" y="5.3" width="65.4" height="71.9"/>
			</defs>
			<clipPath id="SVGID_2_">
				<use xlink:href="#SVGID_1_"  style="overflow:visible;"/>
			</clipPath>
			<g class="st1">
				<g class="st2">
					<path class="st3" d="M12.1,55.6l0.5,0.3l-1.9,1.2l1.1,0.7l-0.4,0.3l-1.6-1L12.1,55.6z"/>
					<path class="st3" d="M16.5,58.3l-0.4,0.3L15,57.9l-0.5,0.3l1,0.6l-0.4,0.3l-1-0.6l-0.6,0.4l1.1,0.7l-0.4,0.3l-1.6-1l2.3-1.5
						L16.5,58.3z"/>
					<path class="st3" d="M16.5,61.3c-0.7-0.4-0.6-1,0.1-1.5c0.7-0.5,1.7-0.5,2.3-0.1c0.7,0.4,0.6,1-0.1,1.5
						C18.1,61.7,17.1,61.7,16.5,61.3z M18.4,60c-0.4-0.2-0.9-0.2-1.4,0.1c-0.5,0.3-0.5,0.7-0.2,0.9c0.4,0.2,0.9,0.2,1.4-0.1
						C18.7,60.6,18.8,60.3,18.4,60z"/>
					<path class="st3" d="M20.8,64l-0.4-0.2l0.4-1.7l-1.5,1l-0.5-0.3l2.3-1.5l0.5,0.3l-0.4,1.6l1.5-1l0.5,0.3L20.8,64z"/>
					<path class="st3" d="M25.7,64.1l-1.4,2.1l-0.5-0.3l0.3-0.5l-0.9-0.5L22.5,65L22,64.7l3.2-1L25.7,64.1z M23.9,64.6l0.6,0.4
						l0.5-0.7L23.9,64.6z"/>
					<path class="st3" d="M26.9,66.6L26,67.2l-0.5-0.3l2.3-1.5l1,0.6c0.5,0.3,0.6,0.7,0.1,1c-0.4,0.2-0.8,0.3-1.2,0.1l-0.3,1
						l-0.6-0.3l0.3-0.9L26.9,66.6z M27.3,66.4l0.5,0.3c0.2,0.2,0.5,0.1,0.7,0c0.2-0.1,0.2-0.3,0-0.4L27.9,66L27.3,66.4z"/>
					<path class="st3" d="M30.9,67.3l0.8,0.5c0.7,0.4,0.7,1,0,1.5c-0.7,0.5-1.6,0.5-2.3,0l-0.8-0.5L30.9,67.3z M29.8,69
						c0.4,0.3,1,0.2,1.4,0c0.5-0.3,0.5-0.6,0-0.9L31,67.9l-1.5,1L29.8,69z"/>
				</g>
				<g class="st2">
					<path class="st3" d="M34.6,71.7c-0.1,0.2-0.1,0.3,0.2,0.5c0.2,0.1,0.5,0.2,0.7,0.1c0.1-0.1,0.1-0.2,0-0.3l-0.3-0.3
						c-0.3-0.3-0.3-0.5,0-0.8c0.4-0.3,1.1-0.2,1.6,0.1c0.5,0.3,0.6,0.7,0.2,1l-0.5-0.3c0.1-0.1,0.1-0.3-0.2-0.5
						c-0.2-0.1-0.5-0.2-0.6-0.1c-0.1,0.1-0.1,0.2,0,0.3l0.3,0.3c0.3,0.3,0.3,0.6,0,0.8c-0.4,0.3-1.1,0.2-1.6-0.1
						c-0.5-0.3-0.6-0.7-0.3-1.1L34.6,71.7z"/>
				</g>
				<g class="st2">
					<path class="st3" d="M38.7,72.2l2,1.2l-0.4,0.3l-0.8-0.5l-1.9,1.2l-0.5-0.3l1.9-1.2l-0.8-0.5L38.7,72.2z"/>
				</g>
				<line class="st4" x1="58.7" y1="46" x2="58.7" y2="42.6"/>
				<line class="st4" x1="13.7" y1="19" x2="13.7" y2="16.3"/>
				<line class="st4" x1="23.1" y1="22.6" x2="23.1" y2="24.2"/>
				<line class="st4" x1="18.9" y1="20.3" x2="18.9" y2="21.9"/>
				<line class="st4" x1="24.2" y1="22" x2="24.2" y2="23.6"/>
				<line class="st5" x1="24.2" y1="23.6" x2="23.1" y2="24.2"/>
				<line class="st5" x1="24.1" y1="22.1" x2="23.1" y2="22.7"/>
				<line class="st5" x1="52.5" y1="35.4" x2="48" y2="38.1"/>
				<line class="st5" x1="56" y1="38.2" x2="52.1" y2="40.5"/>
				<line class="st4" x1="29.6" y1="25.2" x2="29.6" y2="26.7"/>
				<line class="st5" x1="33.4" y1="23.9" x2="51.7" y2="35.9"/>
				<line class="st5" x1="52.5" y1="35.4" x2="56" y2="37.7"/>
				<line class="st5" x1="33.4" y1="23.4" x2="52.1" y2="35.7"/>
				<line class="st5" x1="11.5" y1="18.1" x2="13.4" y2="19.2"/>
				<line class="st5" x1="18.9" y1="20.3" x2="23.1" y2="22.7"/>
				<line class="st5" x1="24.2" y1="22.1" x2="29.7" y2="25.3"/>
				<line class="st5" x1="24.2" y1="23.6" x2="29.6" y2="26.7"/>
				<line class="st5" x1="48" y1="38.1" x2="52.1" y2="40.5"/>
				<line class="st4" x1="58.7" y1="36.3" x2="58.7" y2="34.6"/>
				<polyline class="st4" points="51.8,43.6 51.1,43.2 50.3,43.7 14.9,23.2 14.9,21.4 				"/>
				<polyline class="st4" points="23.7,17.6 20.2,15.2 12.2,19.9 50.3,42 				"/>
				<line class="st4" x1="50.3" y1="42" x2="50.3" y2="43.7"/>
				<line class="st4" x1="51.1" y1="41.5" x2="50.3" y2="42"/>
				<polyline class="st4" points="51.1,43.2 51.1,41.5 48,39.7 				"/>
				<line class="st4" x1="58.7" y1="49.2" x2="58.7" y2="47.3"/>
				<polyline class="st4" points="62.9,41.9 65.2,43.5 65.2,45.4 58.7,49.2 51.8,45.2 51.8,43.2 54.5,41.6 				"/>
				<polyline class="st4" points="65.2,43.5 58.7,47.3 51.8,43.2 				"/>
				<polyline class="st5" points="12.9,20.3 12.9,21.2 14.9,22.4 				"/>
				<line class="st5" x1="18.9" y1="21.9" x2="23.1" y2="24.2"/>
				<line class="st5" x1="48" y1="39.7" x2="48" y2="38.1"/>
				<line class="st5" x1="52.1" y1="43" x2="52.1" y2="40.5"/>
				<polyline class="st5" points="61.4,35.5 58.7,37 56,35.5 				"/>
				<polyline class="st4" points="61.4,38.9 61.6,39 61.6,40.2 58.7,42 55.7,40.2 55.7,39.1 56,39 				"/>
				<line class="st4" x1="58.7" y1="42" x2="58.7" y2="37"/>
				<polyline class="st4" points="61.6,39.4 62.9,40.2 62.9,43.5 58.7,46 54.5,43.6 54.5,40.2 55.7,39.5 				"/>
				<polyline class="st4" points="62.9,40.2 58.7,42.6 54.6,40.3 				"/>
				<polyline class="st4" points="11.5,18.1 7.5,20.5 7.5,48.8 				"/>
				<polyline class="st4" points="16,15.5 18.8,13.9 24.1,17.3 				"/>
				<line class="st4" x1="58.7" y1="50.1" x2="58.6" y2="75.7"/>
				<line class="st4" x1="58.7" y1="75.6" x2="31.3" y2="59.8"/>
				<polyline class="st4" points="66.4,49.9 58.7,54.4 7.6,24.8 				"/>
				<polyline class="st4" points="66.4,52 58.7,56.5 7.6,26.9 				"/>
				<polyline class="st4" points="66.4,54.1 58.7,58.6 7.6,29 				"/>
				<polyline class="st4" points="66.4,56.3 58.7,60.8 7.6,31.1 				"/>
				<polyline class="st4" points="66.4,58.4 58.7,62.9 7.6,33.3 				"/>
				<polyline class="st4" points="66.4,60.5 58.7,65 7.6,35.4 				"/>
				<polyline class="st4" points="66.4,62.6 58.7,67.1 7.6,37.5 				"/>
				<polyline class="st4" points="66.4,64.8 58.7,69.3 7.6,39.7 				"/>
				<line class="st4" x1="66.4" y1="66.9" x2="64.6" y2="68"/>
				<polyline class="st4" points="60.5,70.3 58.7,71.4 7.6,41.8 				"/>
				<line class="st4" x1="64.6" y1="70.1" x2="66.4" y2="69"/>
				<polyline class="st4" points="60.5,72.5 58.7,73.5 7.6,43.9 				"/>
				<polyline class="st4" points="66.4,47.7 58.7,52.2 7.6,22.6 				"/>
				<line class="st4" x1="29.2" y1="58.6" x2="7.5" y2="46"/>
				<polyline class="st5" points="12.7,14.3 11.5,15 11.5,18.1 				"/>
				<polyline class="st5" points="14.9,14.3 16,14.9 16,17.7 				"/>
				<polyline class="st5" points="11.5,15 13.7,16.3 16,14.9 				"/>
				<polyline class="st4" points="59.6,33.4 60.2,33.7 60.2,35.4 58.7,36.3 57.1,35.4 57.1,33.7 57.9,33.3 				"/>
				<polyline class="st5" points="60.2,33.7 58.7,34.6 57.1,33.7 				"/>
				<g>
					<defs>
						<rect id="SVGID_3_" x="6.2" y="5.3" width="65.3" height="71.9"/>
					</defs>
					<clipPath id="SVGID_4_">
						<use xlink:href="#SVGID_3_"  style="overflow:visible;"/>
					</clipPath>
					<g class="st6">
						<path class="st4" d="M57.2,32c0,0.1-0.1,0.2-0.2,0.2l0.1,0.2c0.1,0.1,0.4,0.2,1,0.1s1.8-0.8,1.9-1.4l-0.2-0.4
							c-0.1,0-0.2,0-0.4,0"/>
					</g>
				</g>
				<polyline class="st4" points="57.8,29.6 58.6,30 58.8,29.9 59.4,29.1 				"/>
				<g>
					<defs>
						<rect id="SVGID_5_" x="6.2" y="5.3" width="65.3" height="71.9"/>
					</defs>
					<clipPath id="SVGID_6_">
						<use xlink:href="#SVGID_5_"  style="overflow:visible;"/>
					</clipPath>
					<g class="st7">
						<path class="st4" d="M59.9,31.4c0,0.2,0,0.4,0,0.6c-0.2,0.7-0.9,1.2-1.6,1c-0.3-0.1-0.5-0.2-0.7-0.4h-0.1"/>
						<path class="st4" d="M57.3,32.2c0-0.1-0.1-0.2-0.1-0.3c-0.1-0.7,0.4-1.4,1.1-1.5c0,0,0,0,0,0c0.4-0.1,0.9,0.1,1.2,0.4
							c0.1,0.1,0.2,0.2,0.2,0.3"/>
						<path class="st4" d="M58.1,38c0.2,0.6,0,1.2-0.4,1.2s-1-0.5-1.2-1.2s0-1.2,0.4-1.2S57.8,37.4,58.1,38z"/>
						<path class="st4" d="M59.2,38.1c-0.2,0.7,0,1.2,0.4,1.2s1-0.5,1.2-1.2s0-1.2-0.4-1.2S59.5,37.4,59.2,38.1z"/>
						<path class="st8" d="M59.6,33.4c0,0,0-0.1,0-0.2c0,0,0-0.1-0.1-0.1c-0.1,0-0.2,0-0.2,0v-0.1l0.1-0.3"/>
						<path class="st5" d="M58.9,33.4c0,0.1,0,0.1,0.1,0.2s0.1,0.1,0.3,0"/>
					</g>
				</g>
				<polyline class="st5" points="58.2,33.9 58.2,33.8 58.4,33.5 58.4,33.4 58,33.4 57.8,33.2 57.9,32.9 				"/>
				<polyline class="st4" points="57.1,34.9 56,35.5 56,39.1 58.7,40.7 61.4,39.1 61.4,35.5 60.2,34.8 				"/>
				<g>
					<defs>
						<rect id="SVGID_7_" x="6.2" y="5.3" width="65.3" height="71.9"/>
					</defs>
					<clipPath id="SVGID_8_">
						<use xlink:href="#SVGID_7_"  style="overflow:visible;"/>
					</clipPath>
					<g class="st9">
						<path class="st5" d="M13.6,13.1c-0.5,0.1-0.9,0.6-0.9,1.1V15c0,0.3,0.5,0.6,1.1,0.6s1.1-0.3,1.1-0.6v-0.8c0-0.5-0.4-1-0.9-1.1
							V13c0-0.1-0.1-0.1-0.2-0.1S13.6,12.9,13.6,13.1L13.6,13.1z"/>
					</g>
				</g>
				<polyline class="st4" points="66.4,45.6 58.7,50.1 7.6,20.5 				"/>
				<polyline class="st4" points="31.3,60.2 29.8,59.3 28.5,60.1 30.4,61.2 31.3,60.6 				"/>
				<line class="st4" x1="31.3" y1="60.2" x2="29.8" y2="59.3"/>
				<line class="st4" x1="31.3" y1="61.4" x2="30.6" y2="61"/>
				<g>
					<defs>
						<rect id="SVGID_9_" x="6.2" y="5.3" width="65.3" height="71.9"/>
					</defs>
					<clipPath id="SVGID_10_">
						<use xlink:href="#SVGID_9_"  style="overflow:visible;"/>
					</clipPath>
					<g class="st10">
						<path class="st4" d="M30.1,57.6c-0.2,0.2-0.3,0.4-0.3,0.6v1.1"/>
					</g>
				</g>
				<polyline class="st4" points="29.5,60.7 29.2,61 7.5,48.7 				"/>
				<line class="st4" x1="29.2" y1="61" x2="29.2" y2="60.5"/>
				<g>
					<defs>
						<rect id="SVGID_11_" x="6.2" y="5.3" width="65.3" height="71.9"/>
					</defs>
					<clipPath id="SVGID_12_">
						<use xlink:href="#SVGID_11_"  style="overflow:visible;"/>
					</clipPath>
					<g class="st11">
						<path class="st4" d="M64.6,72.2v-4.1l-4.1,2.3v4.2l-1.8,1.1l-13.8-6.5l-11-5.6l-2.5-1.4v-2.9c-0.1-0.7-0.5-1.3-1.1-1.6
							c-0.8-0.4-1.1,0.3-1.1,0.6v1.4"/>
					</g>
				</g>
				<polyline class="st4" points="61.7,72.5 61.7,71.4 61,71.8 61,72.9 				"/>
				<g>
					<defs>
						<rect id="SVGID_13_" x="6.2" y="5.3" width="65.3" height="71.9"/>
					</defs>
					<clipPath id="SVGID_14_">
						<use xlink:href="#SVGID_13_"  style="overflow:visible;"/>
					</clipPath>
					<g class="st12">
						<path class="st4" d="M65.2,44.8l1.2,0.8v25.5l-1.8,1c-0.9-0.3-1.9-0.2-2.8,0.2l-0.9,0.6c-0.2,0.1-0.3,0.2-0.4,0.3"/>
					</g>
				</g>
				<polyline class="st5" points="29.6,26.7 33.4,24.5 33.4,23 24.5,17.1 19,20.3 				"/>
				<line class="st5" x1="33.4" y1="23" x2="29.6" y2="25.2"/>
				<g>
					<defs>
						<rect id="SVGID_15_" x="6.2" y="5.3" width="65.3" height="71.9"/>
					</defs>
					<clipPath id="SVGID_16_">
						<use xlink:href="#SVGID_15_"  style="overflow:visible;"/>
					</clipPath>
					<g class="st13">
						<g class="st2">
							<path class="st3" d="M151.3,50.5c0.5,0.4,0.5,0.8,0.1,1.1l-0.5-0.3c0.1-0.2,0.1-0.4-0.1-0.5c-0.4-0.3-0.9-0.2-1.4,0.1
								c-0.4,0.3-0.6,0.6-0.2,0.9c0.3,0.2,0.5,0.2,0.8,0.1l0.5,0.3c-0.6,0.2-1.2,0.2-1.8-0.2c-0.6-0.4-0.6-1,0.2-1.4
								S150.7,50,151.3,50.5z"/>
						</g>
						<g class="st2">
							<path class="st3" d="M154.5,52.7l-1.5,2l-0.5-0.3l0.4-0.5l-0.8-0.6l-0.8,0.2l-0.5-0.3l3.2-0.8L154.5,52.7z M152.6,53.2
								l0.6,0.4l0.5-0.7L152.6,53.2z"/>
						</g>
						<g class="st2">
							<path class="st3" d="M156.2,53.9l1.9,1.3l-0.4,0.3L157,55l-1.9,1.1l-0.5-0.3l1.9-1.1l-0.7-0.5L156.2,53.9z"/>
							<path class="st3" d="M161.3,57.4l-2.4,1.4l-0.5-0.3l1-0.6l-1-0.7l-1,0.6l-0.5-0.3l2.4-1.4l0.5,0.3l-0.9,0.5l1,0.7l0.9-0.5
								L161.3,57.4z"/>
							<path class="st3" d="M164.1,59.4l-0.4,0.3l-1.1-0.7l-0.5,0.3l1,0.7l-0.4,0.2l-1-0.7l-0.6,0.3l1.1,0.7l-0.4,0.3l-1.5-1.1
								l2.4-1.4L164.1,59.4z"/>
							<path class="st3" d="M164.4,61.5l-0.9,0.5l-0.5-0.3l2.4-1.4l0.9,0.6c0.5,0.3,0.5,0.7,0,1c-0.4,0.2-0.8,0.2-1.2,0l-0.3,1
								l-0.5-0.4l0.3-0.9L164.4,61.5z M164.8,61.2l0.4,0.3c0.2,0.2,0.5,0.2,0.7,0.1c0.2-0.1,0.2-0.3,0-0.4l-0.4-0.3L164.8,61.2z"/>
							<path class="st3" d="M166.4,64.1l-0.5-0.3l2.4-1.4l0.5,0.3L166.4,64.1z"/>
							<path class="st3" d="M169.7,66.3l-0.4-0.3l0.5-1.7l-1.6,0.9l-0.5-0.3l2.4-1.4l0.4,0.3l-0.5,1.6l1.5-0.9l0.5,0.3L169.7,66.3z"
								/>
							<path class="st3" d="M174.9,66.9l-0.4,0.3l-1.1-0.7l-0.5,0.3l1,0.7l-0.4,0.2l-1-0.7l-0.6,0.3l1.1,0.7l-0.4,0.3l-1.5-1.1
								l2.4-1.4L174.9,66.9z"/>
							<path class="st3" d="M177.8,68.9l0.5,0.3l-1.9,1.1l1.1,0.7l-0.4,0.3l-1.5-1.1L177.8,68.9z"/>
						</g>
						<g class="st2">
							<path class="st3" d="M180.1,73.5l-0.4-0.3l0.5-1.7l-1.6,0.9l-0.5-0.3l2.4-1.4l0.4,0.3l-0.5,1.6l1.5-0.9l0.5,0.3L180.1,73.5z"
								/>
						</g>
						<path class="st5" d="M200.4,70.9V70c0-0.2-0.2-0.5-0.6-0.2c-0.3,0.2-0.5,0.5-0.5,0.8v1l-5.1,3l-6.7-4.6l-8.5-5.8l-7-4.9
							L161.5,52l-14.9-10.8V15.5l1-0.6"/>
						<path class="st5" d="M153.1,8c0.2,0.6,0,1.2-0.4,1.2s-1-0.5-1.2-1.2s-0.1-1.2,0.4-1.2S152.9,7.3,153.1,8z"/>
						<path class="st5" d="M154.2,8c-0.2,0.6-0.1,1.2,0.4,1.2s1-0.5,1.2-1.2s0.1-1.2-0.4-1.2S154.5,7.3,154.2,8z"/>
						<path class="st5" d="M152.3,1.9c-0.1,0.1-0.1,0.2-0.2,0.2l0.1,0.2c0.1,0.1,0.4,0.2,1,0.1s1.8-0.8,1.9-1.4l-0.2-0.4
							c-0.1,0-0.2,0-0.4,0"/>
						<path class="st5" d="M154.9,1.3c0,0.2,0,0.4,0,0.6c-0.1,0.7-0.8,1.2-1.6,1.1c0,0,0,0,0,0c-0.3-0.1-0.5-0.2-0.7-0.4h-0.1"/>
						<path class="st5" d="M152.4,2.2c0-0.1-0.1-0.2-0.1-0.3c-0.1-0.7,0.4-1.4,1.1-1.5c0.4-0.1,0.9,0.1,1.2,0.4
							c0.1,0.1,0.2,0.2,0.2,0.3"/>
						<path class="st5" d="M154.6,3.4c0,0,0-0.1,0-0.2c0,0,0-0.1-0.1-0.1c-0.1,0-0.2,0-0.2,0V3.1l0.1-0.3"/>
						<path class="st5" d="M154,3.3c0,0.1,0,0.1,0,0.2s0.1,0.1,0.3,0"/>
					</g>
				</g>
				<polygon class="st14" points="32.4,37 32.4,49.8 24.4,45.2 24.4,32.4 				"/>
				<line class="st15" x1="24.4" y1="34.5" x2="32.4" y2="39.2"/>
				<line class="st15" x1="24.4" y1="36.7" x2="32.4" y2="41.3"/>
				<line class="st15" x1="24.4" y1="38.8" x2="32.4" y2="43.4"/>
				<line class="st15" x1="24.4" y1="40.9" x2="32.4" y2="45.5"/>
				<line class="st15" x1="24.4" y1="43" x2="32.4" y2="47.7"/>
			</g>
		</g>
	</g>
	<g id="Layer_4">
		<polygon class="st14" points="129.5,52.5 141.5,52.5 141.5,54.9 141.2,54.9 141.2,56.9 141.1,56.9 141.1,58.1 140.9,58.1 
			140.9,58 139.9,58 139.9,58.1 138.6,58.1 137.7,58.1 137.2,58.1 137.2,58 134.6,58 134.6,58 132.3,58 132.3,58.1 129.4,58.1 		"/>
		<g>
			<defs>
				<rect id="SVGID_17_" x="91.9" y="51.3" width="77.1" height="17.4"/>
			</defs>
			<clipPath id="SVGID_18_">
				<use xlink:href="#SVGID_17_"  style="overflow:visible;"/>
			</clipPath>
			<g class="st16">
				<polygon class="st17" points="167.1,52.5 167.1,67.5 92.8,62.9 92.8,52.5 				"/>
			</g>
		</g>
	</g>
</g>
</svg>
