<?xml version="1.0" encoding="utf-8"?>
<!-- Generator: Adobe Illustrator 16.0.4, SVG Export Plug-In . SVG Version: 6.00 Build 0)  -->
<!DOCTYPE svg PUBLIC "-//W3C//DTD SVG 1.1//EN" "http://www.w3.org/Graphics/SVG/1.1/DTD/svg11.dtd">
<svg version="1.1" id="Layer_1" xmlns="http://www.w3.org/2000/svg" xmlns:xlink="http://www.w3.org/1999/xlink" x="0px" y="0px"
	 width="101.25px" height="142.75px" viewBox="0 0 101.25 142.75" enable-background="new 0 0 101.25 142.75" xml:space="preserve">
<path fill="#D1D3D4" d="M2.168,102.978c-0.621,0-0.956-0.429-0.956-1.132v-1.4h3.373v1.291c0,0.703-0.313,1.137-0.918,1.137
	c-0.362,0-0.626-0.197-0.714-0.445C2.849,102.746,2.536,102.978,2.168,102.978z M1.806,101.121v0.664
	c0,0.33,0.164,0.506,0.423,0.506c0.264,0,0.423-0.176,0.423-0.506v-0.664H1.806z M3.2,101.691c0,0.336,0.132,0.512,0.401,0.512
	c0.269,0,0.39-0.176,0.39-0.512v-0.57H3.2V101.691z"/>
<path fill="#D1D3D4" d="M2.47,105.389H1.212v-0.697h3.373v1.39c0,0.708-0.379,1.181-1.071,1.181c-0.538,0-0.879-0.297-0.994-0.769
	l-1.308,0.89v-0.791l1.258-0.835V105.389z M3.047,105.389v0.648c0,0.352,0.187,0.533,0.467,0.533c0.285,0,0.473-0.182,0.473-0.533
	v-0.648H3.047z"/>
<path fill="#D1D3D4" d="M1.157,110.426c0-0.939,0.736-1.594,1.741-1.594c1.011,0,1.741,0.654,1.741,1.594s-0.73,1.598-1.741,1.598
	C1.894,112.023,1.157,111.365,1.157,110.426z M4.014,110.426c0-0.533-0.456-0.879-1.115-0.879s-1.115,0.346-1.115,0.879
	c0,0.538,0.456,0.89,1.115,0.89S4.014,110.964,4.014,110.426z"/>
<path fill="#D1D3D4" d="M4.585,115.314l-3.373,1.291v-0.713l0.812-0.303v-1.264l-0.812-0.297v-0.703l3.373,1.291V115.314z
	 M2.618,114.546v0.824l1.121-0.412L2.618,114.546z"/>
<path fill="#D1D3D4" d="M4.585,118.227v1.191c0,1.021-0.659,1.665-1.687,1.665s-1.687-0.644-1.687-1.665v-1.191H4.585z
	 M1.833,119.391c0,0.643,0.412,0.994,1.065,0.994c0.659,0,1.071-0.352,1.071-0.994v-0.467H1.833V119.391z"/>
<path fill="#D1D3D4" d="M4.585,124.867l-2.269,0.583l2.269,0.555v0.692l-3.373-0.879v-0.643l2.225-0.594l-2.225-0.594v-0.643
	l3.373-0.879v0.709l-2.269,0.549l2.269,0.594V124.867z"/>
<path fill="#D1D3D4" d="M4.585,129.846l-3.373,1.291v-0.715l0.812-0.301v-1.264l-0.812-0.297v-0.703l3.373,1.291V129.846z
	 M2.618,129.076v0.824l1.121-0.412L2.618,129.076z"/>
<path fill="#D1D3D4" d="M4.585,134.504v0.742l-2.093-1.226h-1.28v-0.698h1.28l2.093-1.213v0.764l-1.429,0.818L4.585,134.504z"/>
<path fill="#D1D3D4" d="M99.56,94.241v0.703h-2.752v1.571h-0.621v-2.274H99.56z"/>
<path fill="#D1D3D4" d="M99.56,99.992l-3.373,1.291v-0.715L97,100.267v-1.264l-0.813-0.296v-0.703l3.373,1.29V99.992z
	 M97.593,99.223v0.824l1.12-0.412L97.593,99.223z"/>
<path fill="#D1D3D4" d="M96.187,102.898h3.373v2.246h-0.615v-1.549h-0.857v1.434h-0.609v-1.434h-1.291V102.898z"/>
<path fill="#D1D3D4" d="M99.56,108.396l-3.373,1.291v-0.714L97,108.67v-1.264l-0.813-0.296v-0.703l3.373,1.291V108.396z
	 M97.593,107.627v0.824l1.12-0.412L97.593,107.627z"/>
<path fill="#D1D3D4" d="M99.56,113.049v0.741l-2.093-1.226h-1.28v-0.697h1.28l2.093-1.214v0.764l-1.429,0.818L99.56,113.049z"/>
<path fill="#D1D3D4" d="M99.56,117.68h-0.615v-1.6h-0.736v1.451h-0.599v-1.451h-0.802v1.6h-0.621v-2.291h3.373V117.68z"/>
<path fill="#D1D3D4" d="M99.56,119.255v2.879h-0.615v-1.088h-2.758v-0.708h2.758v-1.083H99.56z"/>
<path fill="#D1D3D4" d="M99.56,123.622v2.878h-0.615v-1.088h-2.758v-0.708h2.758v-1.082H99.56z"/>
<path fill="#D1D3D4" d="M99.56,130.467h-0.615v-1.6h-0.736v1.451h-0.599v-1.451h-0.802v1.6h-0.621v-2.291h3.373V130.467z"/>
<path fill="#D1D3D4" d="M97.147,135.094c-0.296,0.094-0.434,0.341-0.434,0.67c0,0.341,0.153,0.566,0.423,0.566
	c0.203,0,0.313-0.121,0.379-0.412l0.138-0.604c0.109-0.483,0.368-0.856,0.923-0.856c0.609,0,1.038,0.505,1.038,1.214
	c0,0.769-0.406,1.214-0.978,1.323v-0.697c0.225-0.077,0.4-0.27,0.4-0.621c0-0.318-0.153-0.532-0.396-0.532
	c-0.192,0-0.308,0.126-0.368,0.379l-0.143,0.615c-0.126,0.55-0.439,0.884-0.95,0.884c-0.653,0-1.049-0.538-1.049-1.252
	c0-0.752,0.373-1.285,1.016-1.4V135.094z"/>
<path fill="#D1D3D4" d="M99.56,138.482v2.879h-0.615v-1.088h-2.758v-0.709h2.758v-1.082H99.56z"/>
<path fill="#D1D3D4" d="M31.009,98.486h0.703v2.752h1.571v0.621h-2.274V98.486z"/>
<path fill="#D1D3D4" d="M37.188,98.486v0.615H35.59v0.736h1.45v0.599h-1.45v0.802h1.599v0.621h-2.291v-3.373H37.188z"/>
<path fill="#D1D3D4" d="M40.264,101.914c-0.939,0-1.593-0.736-1.593-1.741c0-1.011,0.654-1.741,1.593-1.741s1.599,0.73,1.599,1.741
	C41.862,101.178,41.203,101.914,40.264,101.914z M40.264,99.058c-0.533,0-0.879,0.456-0.879,1.115s0.346,1.115,0.879,1.115
	c0.538,0,0.89-0.456,0.89-1.115S40.802,99.058,40.264,99.058z"/>
<path fill="#D1D3D4" d="M46.279,101.859h-0.555l-1.593-2.247v2.247h-0.675v-3.373h0.659l1.489,2.132v-2.132h0.675V101.859z"/>
<path fill="#D1D3D4" d="M49.778,98.486l1.291,3.373h-0.714l-0.302-0.812H48.79l-0.296,0.812H47.79l1.291-3.373H49.778z
	 M49.009,100.453h0.824l-0.412-1.121L49.009,100.453z"/>
<path fill="#D1D3D4" d="M53.272,100.602v1.258h-0.698v-3.373h1.39c0.708,0,1.181,0.379,1.181,1.071c0,0.538-0.297,0.879-0.769,0.994
	l0.89,1.308h-0.791l-0.835-1.258H53.272z M53.272,100.024h0.648c0.352,0,0.533-0.187,0.533-0.467c0-0.285-0.181-0.473-0.533-0.473
	h-0.648V100.024z"/>
<path fill="#D1D3D4" d="M56.771,98.486h1.192c1.021,0,1.665,0.659,1.665,1.687s-0.643,1.687-1.665,1.687h-1.192V98.486z
	 M57.936,101.238c0.643,0,0.994-0.412,0.994-1.065c0-0.659-0.352-1.071-0.994-1.071h-0.467v2.137H57.936z"/>
<path fill="#D1D3D4" d="M63.975,100.898c0.093,0.296,0.341,0.434,0.67,0.434c0.34,0,0.565-0.154,0.565-0.423
	c0-0.203-0.121-0.313-0.412-0.379l-0.604-0.138c-0.483-0.109-0.857-0.368-0.857-0.923c0-0.609,0.505-1.038,1.214-1.038
	c0.77,0,1.214,0.406,1.324,0.978h-0.698c-0.077-0.225-0.269-0.4-0.621-0.4c-0.319,0-0.533,0.153-0.533,0.396
	c0,0.191,0.126,0.308,0.379,0.367l0.615,0.144c0.549,0.126,0.884,0.439,0.884,0.95c0,0.653-0.538,1.049-1.252,1.049
	c-0.752,0-1.286-0.373-1.401-1.016H63.975z"/>
<path fill="#D1D3D4" d="M67.26,98.486h2.878v0.615H69.05v2.758h-0.708v-2.758H67.26V98.486z"/>
<path fill="#D1D3D4" d="M28.533,133.73c0.796,0,1.285,0.467,1.412,1.143h-0.698c-0.115-0.308-0.324-0.517-0.714-0.517
	c-0.539,0-0.857,0.473-0.857,1.115c0,0.638,0.318,1.115,0.857,1.115c0.39,0,0.599-0.209,0.714-0.521h0.698
	c-0.126,0.681-0.615,1.147-1.412,1.147c-0.901,0-1.571-0.708-1.571-1.741C26.961,134.439,27.632,133.73,28.533,133.73z"/>
<path fill="#D1D3D4" d="M33.268,133.785l1.291,3.373h-0.714l-0.302-0.812h-1.264l-0.296,0.812h-0.703l1.291-3.373H33.268z
	 M32.499,135.752h0.824l-0.412-1.121L32.499,135.752z"/>
<path fill="#D1D3D4" d="M35.651,133.785h2.879v0.615h-1.088v2.758h-0.708V134.4h-1.083V133.785z"/>
<path fill="#D1D3D4" d="M43.133,133.785v3.373H42.43v-1.417h-1.527v1.417H40.2v-3.373h0.703v1.341h1.527v-1.341H43.133z"/>
<path fill="#D1D3D4" d="M47.281,133.785v0.615h-1.599v0.736h1.45v0.599h-1.45v0.802h1.599v0.621H44.99v-3.373H47.281z"/>
<path fill="#D1D3D4" d="M49.735,135.9v1.258h-0.697v-3.373h1.39c0.708,0,1.181,0.379,1.181,1.071c0,0.538-0.297,0.879-0.769,0.994
	l0.89,1.308h-0.791l-0.835-1.258H49.735z M49.735,135.323h0.648c0.352,0,0.533-0.187,0.533-0.467c0-0.285-0.181-0.473-0.533-0.473
	h-0.648V135.323z"/>
<path fill="#D1D3D4" d="M54.048,137.158h-0.703v-3.373h0.703V137.158z"/>
<path fill="#D1D3D4" d="M58.72,137.158h-0.555l-1.593-2.247v2.247h-0.675v-3.373h0.659l1.489,2.132v-2.132h0.675V137.158z"/>
<path fill="#D1D3D4" d="M62.873,133.785v0.615h-1.599v0.736h1.45v0.599h-1.45v0.802h1.599v0.621h-2.291v-3.373H62.873z"/>
<path fill="#D1D3D4" d="M67.006,133.785h0.703v2.752h1.571v0.621h-2.274V133.785z"/>
<path fill="#D1D3D4" d="M73.828,137.158h-0.555l-1.593-2.247v2.247h-0.676v-3.373h0.659l1.488,2.132v-2.132h0.676V137.158z"/>
<polygon points="22.512,111.048 22.512,113.403 22.621,113.403 22.621,114.048 22.512,114.048 22.512,115.373 21.847,115.373 
	21.847,115.999 20.587,115.999 20.587,116.872 17.836,116.872 17.836,116.739 16.774,116.739 16.774,117.563 12.242,117.563 
	12.242,111.048 "/>
<g>
	<defs>
		<rect id="SVGID_1_" x="11.283" y="109.874" width="78.41" height="17.694"/>
	</defs>
	<clipPath id="SVGID_2_">
		<use xlink:href="#SVGID_1_"  overflow="visible"/>
	</clipPath>
	<polygon clip-path="url(#SVGID_2_)" fill="none" stroke="#D1D3D4" stroke-width="0.764" stroke-miterlimit="10" points="
		87.813,111.048 87.813,126.395 12.228,121.691 12.263,111.048 	"/>
</g>
<polygon points="52.046,29.974 52.046,43.674 56.896,46.482 56.896,32.744 "/>
<path fill="#D1D3D4" d="M21.637,47.291l0.526,0.33l-2.038,1.326l1.177,0.736l-0.459,0.299l-1.703-1.065L21.637,47.291z"/>
<path fill="#D1D3D4" d="M26.424,50.284l-0.456,0.296l-1.197-0.749l-0.545,0.354l1.086,0.68l-0.443,0.288l-1.086-0.679l-0.594,0.387
	l1.197,0.749l-0.459,0.299l-1.716-1.073l2.497-1.625L26.424,50.284z"/>
<path fill="#D1D3D4" d="M26.348,53.476c-0.704-0.44-0.648-1.101,0.096-1.585c0.749-0.487,1.778-0.533,2.482-0.093
	c0.703,0.44,0.657,1.1-0.092,1.587C28.09,53.869,27.051,53.915,26.348,53.476z M28.463,52.099c-0.399-0.25-0.996-0.192-1.484,0.125
	s-0.567,0.699-0.167,0.949c0.403,0.252,1.004,0.196,1.492-0.121S28.866,52.351,28.463,52.099z"/>
<path fill="#D1D3D4" d="M31.051,56.364l-0.416-0.26l0.471-1.829l-1.663,1.083l-0.506-0.316l2.497-1.625l0.493,0.309l-0.463,1.724
	l1.578-1.027l0.506,0.316L31.051,56.364z"/>
<path fill="#D1D3D4" d="M36.326,56.476l-1.53,2.23l-0.535-0.334l0.376-0.533l-0.946-0.592L32.866,57.5L32.34,57.17l3.464-1.021
	L36.326,56.476z M34.294,57.063l0.617,0.386l0.521-0.732L34.294,57.063z"/>
<path fill="#D1D3D4" d="M37.538,59.232l-0.931,0.606l-0.522-0.327l2.497-1.625l1.041,0.651c0.531,0.332,0.604,0.736,0.092,1.069
	c-0.398,0.259-0.874,0.284-1.312,0.119l-0.301,1.047l-0.593-0.371l0.306-0.997L37.538,59.232z M37.965,58.955l0.485,0.303
	c0.264,0.165,0.538,0.159,0.745,0.024c0.211-0.138,0.214-0.312-0.05-0.477l-0.485-0.303L37.965,58.955z"/>
<path fill="#D1D3D4" d="M41.883,59.951l0.893,0.559c0.766,0.479,0.759,1.097-0.001,1.592c-0.76,0.495-1.73,0.512-2.496,0.033
	l-0.893-0.559L41.883,59.951z M40.717,61.823c0.481,0.301,1.05,0.267,1.534-0.048c0.488-0.317,0.529-0.681,0.048-0.981l-0.35-0.219
	l-1.582,1.03L40.717,61.823z"/>
<path fill="#D1D3D4" d="M45.815,64.688c-0.149,0.187-0.066,0.369,0.182,0.523c0.255,0.16,0.536,0.19,0.735,0.061
	c0.151-0.098,0.143-0.207-0.026-0.375l-0.352-0.349c-0.281-0.279-0.369-0.578,0.042-0.846c0.452-0.294,1.146-0.264,1.678,0.068
	c0.576,0.36,0.608,0.764,0.268,1.091l-0.523-0.327c0.109-0.144,0.096-0.319-0.168-0.484c-0.238-0.149-0.513-0.176-0.692-0.059
	c-0.143,0.093-0.133,0.208,0.011,0.355l0.355,0.356c0.318,0.318,0.337,0.626-0.042,0.873c-0.484,0.315-1.18,0.253-1.714-0.081
	c-0.563-0.353-0.686-0.782-0.297-1.146L45.815,64.688z"/>
<path fill="#D1D3D4" d="M50.215,65.161l2.156,1.348l-0.456,0.296l-0.814-0.509l-2.042,1.329l-0.531-0.332l2.042-1.329l-0.811-0.507
	L50.215,65.161z"/>
<line fill="none" stroke="#000000" stroke-width="0.119" stroke-miterlimit="10" x1="71.87" y1="36.975" x2="71.87" y2="33.349"/>
<line fill="none" stroke="#000000" stroke-width="0.119" stroke-miterlimit="10" x1="23.442" y1="7.934" x2="23.442" y2="4.934"/>
<line fill="none" stroke="#000000" stroke-width="0.119" stroke-miterlimit="10" x1="33.511" y1="11.829" x2="33.511" y2="13.5"/>
<line fill="none" stroke="#000000" stroke-width="0.119" stroke-miterlimit="10" x1="29.065" y1="9.299" x2="29.065" y2="10.97"/>
<line fill="none" stroke="#000000" stroke-width="0.119" stroke-miterlimit="10" x1="34.709" y1="11.17" x2="34.709" y2="12.842"/>
<line fill="none" stroke="#000000" stroke-width="0.112" stroke-miterlimit="10" x1="34.717" y1="12.816" x2="33.497" y2="13.53"/>
<line fill="none" stroke="#000000" stroke-width="0.112" stroke-miterlimit="10" x1="34.656" y1="11.232" x2="33.526" y2="11.894"/>
<line fill="none" stroke="#000000" stroke-width="0.112" stroke-miterlimit="10" x1="65.27" y1="25.61" x2="60.392" y2="28.464"/>
<line fill="none" stroke="#000000" stroke-width="0.112" stroke-miterlimit="10" x1="69.006" y1="28.585" x2="64.827" y2="31.032"/>
<line fill="none" stroke="#000000" stroke-width="0.119" stroke-miterlimit="10" x1="40.571" y1="14.549" x2="40.571" y2="16.22"/>
<line fill="none" stroke="#000000" stroke-width="0.112" stroke-miterlimit="10" x1="44.654" y1="13.188" x2="64.383" y2="26.145"/>
<line fill="none" stroke="#000000" stroke-width="0.112" stroke-miterlimit="10" x1="65.246" y1="25.604" x2="69.006" y2="28.074"/>
<line fill="none" stroke="#000000" stroke-width="0.112" stroke-miterlimit="10" x1="44.653" y1="12.673" x2="64.764" y2="25.881"/>
<line fill="none" stroke="#000000" stroke-width="0.112" stroke-miterlimit="10" x1="21.069" y1="6.953" x2="23.116" y2="8.138"/>
<line fill="none" stroke="#000000" stroke-width="0.112" stroke-miterlimit="10" x1="29.065" y1="9.299" x2="33.511" y2="11.877"/>
<line fill="none" stroke="#000000" stroke-width="0.112" stroke-miterlimit="10" x1="34.723" y1="11.232" x2="40.63" y2="14.655"/>
<line fill="none" stroke="#000000" stroke-width="0.112" stroke-miterlimit="10" x1="34.69" y1="12.817" x2="40.571" y2="16.225"/>
<line fill="none" stroke="#000000" stroke-width="0.112" stroke-miterlimit="10" x1="60.414" y1="28.471" x2="64.834" y2="31.032"/>
<line fill="none" stroke="#000000" stroke-width="0.119" stroke-miterlimit="10" x1="71.846" y1="26.512" x2="71.846" y2="24.731"/>
<polyline fill="none" stroke="#000000" stroke-width="0.119" stroke-miterlimit="10" points="64.423,34.409 63.718,33.985 
	62.831,34.505 24.652,12.386 24.652,10.514 "/>
<polyline fill="none" stroke="#000000" stroke-width="0.119" stroke-miterlimit="10" points="34.225,6.338 30.438,3.852 
	21.834,8.888 62.831,32.629 "/>
<line fill="none" stroke="#000000" stroke-width="0.119" stroke-miterlimit="10" x1="62.831" y1="32.628" x2="62.831" y2="34.501"/>
<line fill="none" stroke="#000000" stroke-width="0.119" stroke-miterlimit="10" x1="63.722" y1="32.096" x2="62.83" y2="32.618"/>
<polyline fill="none" stroke="#000000" stroke-width="0.119" stroke-miterlimit="10" points="63.722,33.985 63.722,32.097 
	60.414,30.179 "/>
<line fill="none" stroke="#000000" stroke-width="0.119" stroke-miterlimit="10" x1="71.909" y1="40.413" x2="71.909" y2="38.354"/>
<polyline fill="none" stroke="#000000" stroke-width="0.119" stroke-miterlimit="10" points="76.41,32.611 78.911,34.254 
	78.911,36.322 71.908,40.421 64.424,36.085 64.424,34.022 67.433,32.261 "/>
<polyline fill="none" stroke="#000000" stroke-width="0.119" stroke-miterlimit="10" points="78.911,34.253 71.906,38.354 
	64.423,34.022 "/>
<polyline fill="none" stroke="#000000" stroke-width="0.112" stroke-miterlimit="10" points="22.584,9.31 22.584,10.32 
	24.652,11.529 "/>
<line fill="none" stroke="#000000" stroke-width="0.112" stroke-miterlimit="10" x1="29.065" y1="10.968" x2="33.511" y2="13.543"/>
<line fill="none" stroke="#000000" stroke-width="0.109" stroke-miterlimit="10" x1="60.395" y1="30.172" x2="60.395" y2="28.47"/>
<line fill="none" stroke="#000000" stroke-width="0.109" stroke-miterlimit="10" x1="64.834" y1="33.75" x2="64.834" y2="31.038"/>
<polyline fill="none" stroke="#000000" stroke-width="0.112" stroke-miterlimit="10" points="74.779,25.639 71.874,27.34 
	69.006,25.676 "/>
<polyline fill="none" stroke="#000000" stroke-width="0.119" stroke-miterlimit="10" points="74.779,29.336 75.053,29.495 
	75.053,30.764 71.88,32.619 68.683,30.767 68.683,29.595 69.006,29.405 "/>
<line fill="none" stroke="#000000" stroke-width="0.119" stroke-miterlimit="10" x1="71.876" y1="32.615" x2="71.876" y2="27.339"/>
<polyline fill="none" stroke="#000000" stroke-width="0.119" stroke-miterlimit="10" points="75.054,29.892 76.41,30.678 
	76.41,34.327 71.869,36.981 67.432,34.41 67.432,30.752 68.683,30.021 "/>
<polyline fill="none" stroke="#000000" stroke-width="0.119" stroke-miterlimit="10" points="76.41,30.679 71.87,33.35 
	67.467,30.798 "/>
<polyline fill="none" stroke="#000000" stroke-width="0.119" stroke-miterlimit="10" points="21.069,6.932 16.726,9.474 
	16.726,39.953 "/>
<polyline fill="none" stroke="#000000" stroke-width="0.119" stroke-miterlimit="10" points="25.875,4.119 28.917,2.338 
	34.641,6.098 "/>
<line fill="none" stroke="#000000" stroke-width="0.119" stroke-miterlimit="10" x1="71.87" y1="41.42" x2="71.84" y2="68.936"/>
<line fill="none" stroke="#000000" stroke-width="0.117" stroke-miterlimit="10" x1="71.855" y1="68.917" x2="42.411" y2="51.859"/>
<polyline fill="none" stroke="#000000" stroke-width="0.117" stroke-miterlimit="10" points="80.195,41.153 71.871,46.005 
	16.787,14.094 "/>
<polyline fill="none" stroke="#000000" stroke-width="0.117" stroke-miterlimit="10" points="80.195,43.446 71.871,48.299 
	16.787,16.388 "/>
<polyline fill="none" stroke="#000000" stroke-width="0.117" stroke-miterlimit="10" points="80.195,45.739 71.871,50.592 
	16.787,18.68 "/>
<polyline fill="none" stroke="#000000" stroke-width="0.117" stroke-miterlimit="10" points="80.195,48.032 71.871,52.884 
	16.787,20.974 "/>
<polyline fill="none" stroke="#000000" stroke-width="0.117" stroke-miterlimit="10" points="80.195,50.326 71.871,55.178 
	16.787,23.267 "/>
<polyline fill="none" stroke="#000000" stroke-width="0.117" stroke-miterlimit="10" points="80.195,52.618 71.871,57.471 
	16.787,25.561 "/>
<polyline fill="none" stroke="#000000" stroke-width="0.117" stroke-miterlimit="10" points="80.195,54.912 71.871,59.765 
	16.787,27.853 "/>
<polyline fill="none" stroke="#000000" stroke-width="0.117" stroke-miterlimit="10" points="80.195,57.205 71.871,62.057 
	16.787,30.146 "/>
<line fill="none" stroke="#000000" stroke-width="0.117" stroke-miterlimit="10" x1="80.195" y1="59.498" x2="78.236" y2="60.641"/>
<polyline fill="none" stroke="#000000" stroke-width="0.117" stroke-miterlimit="10" points="73.815,63.216 71.871,64.35 
	16.788,32.439 "/>
<line fill="none" stroke="#000000" stroke-width="0.117" stroke-miterlimit="10" x1="78.236" y1="62.932" x2="80.195" y2="61.791"/>
<polyline fill="none" stroke="#000000" stroke-width="0.117" stroke-miterlimit="10" points="73.815,65.509 71.871,66.644 
	16.788,34.731 "/>
<polyline fill="none" stroke="#000000" stroke-width="0.117" stroke-miterlimit="10" points="80.195,38.86 71.871,43.713 
	16.787,11.801 "/>
<line fill="none" stroke="#000000" stroke-width="0.117" stroke-miterlimit="10" x1="40.085" y1="50.512" x2="16.777" y2="37.008"/>
<polyline fill="none" stroke="#000000" stroke-width="0.112" stroke-miterlimit="10" points="22.326,2.824 21.068,3.559 
	21.068,6.953 "/>
<polyline fill="none" stroke="#000000" stroke-width="0.112" stroke-miterlimit="10" points="24.705,2.833 25.874,3.511 
	25.874,6.495 "/>
<polyline fill="none" stroke="#000000" stroke-width="0.112" stroke-miterlimit="10" points="21.069,3.559 23.443,4.934 
	25.874,3.511 "/>
<polyline fill="none" stroke="#000000" stroke-width="0.119" stroke-miterlimit="10" points="72.855,23.368 73.477,23.776 
	73.477,25.56 71.846,26.513 70.2,25.559 70.2,23.777 71.048,23.28 "/>
<polyline fill="none" stroke="#000000" stroke-width="0.112" stroke-miterlimit="10" points="73.479,23.777 71.846,24.732 
	70.199,23.777 "/>
<g>
	<defs>
		<rect id="SVGID_3_" x="15.354" y="-4.978" width="65.775" height="75.618"/>
	</defs>
	<clipPath id="SVGID_4_">
		<use xlink:href="#SVGID_3_"  overflow="visible"/>
	</clipPath>
	<path clip-path="url(#SVGID_4_)" fill="none" stroke="#000000" stroke-width="0.119" stroke-miterlimit="10" d="M70.33,21.857
		c-0.035,0.07-0.156,0.203-0.168,0.257l0.1,0.264c0.1,0.134,0.466,0.257,1.077,0.083c0.611-0.173,1.891-0.852,2.009-1.539
		l-0.206-0.386c0,0-0.189-0.06-0.398-0.007"/>
</g>
<polyline fill="none" stroke="#000000" stroke-width="0.119" stroke-miterlimit="10" points="70.904,19.345 71.773,19.766 
	72.04,19.653 72.641,18.811 "/>
<g>
	<defs>
		<rect id="SVGID_5_" x="15.354" y="-4.978" width="65.775" height="75.618"/>
	</defs>
	<clipPath id="SVGID_6_">
		<use xlink:href="#SVGID_5_"  overflow="visible"/>
	</clipPath>
	<path clip-path="url(#SVGID_6_)" fill="none" stroke="#000000" stroke-width="0.119" stroke-miterlimit="10" d="M73.196,21.27
		c0.044,0.195,0.049,0.403,0.006,0.612c-0.16,0.784-0.927,1.291-1.711,1.13c-0.304-0.061-0.566-0.215-0.764-0.424l-0.06-0.046"/>
	<path clip-path="url(#SVGID_6_)" fill="none" stroke="#000000" stroke-width="0.119" stroke-miterlimit="10" d="M70.442,22.167
		c-0.048-0.112-0.082-0.23-0.101-0.356c-0.121-0.792,0.424-1.531,1.216-1.652c0.487-0.074,0.929,0.076,1.27,0.435
		c0.171,0.193,0.233,0.344,0.233,0.344"/>
	<path clip-path="url(#SVGID_6_)" fill="none" stroke="#000000" stroke-width="0.119" stroke-miterlimit="10" d="M71.232,28.416
		c0.243,0.696,0.052,1.26-0.425,1.262c-0.477,0.001-1.06-0.562-1.303-1.257c-0.243-0.696-0.052-1.261,0.425-1.262
		S70.989,27.72,71.232,28.416z"/>
	<path clip-path="url(#SVGID_6_)" fill="none" stroke="#000000" stroke-width="0.119" stroke-miterlimit="10" d="M72.474,28.438
		c-0.243,0.696-0.052,1.26,0.425,1.262c0.477,0.001,1.06-0.562,1.303-1.257c0.242-0.696,0.052-1.26-0.425-1.262
		C73.3,27.18,72.717,27.743,72.474,28.438z"/>
	
		<path clip-path="url(#SVGID_6_)" fill="none" stroke="#000000" stroke-width="0.112" stroke-linejoin="bevel" stroke-miterlimit="10" d="
		M72.852,23.447c0,0,0.004-0.126-0.008-0.156c-0.012-0.031-0.03-0.058-0.079-0.07c-0.049-0.013-0.255,0.047-0.255,0.047
		s-0.002-0.034-0.002-0.081v-0.036l0.077-0.331"/>
	<path clip-path="url(#SVGID_6_)" fill="none" stroke="#000000" stroke-width="0.112" stroke-miterlimit="10" d="M72.165,23.433
		c-0.016,0.061,0.046,0.125,0.058,0.167c0.019,0.061,0.158,0.104,0.28,0.015"/>
</g>
<polyline fill="none" stroke="#000000" stroke-width="0.112" stroke-miterlimit="10" points="71.39,23.993 71.39,23.859 
	71.577,23.544 71.544,23.433 71.198,23.376 70.889,23.186 71.015,22.822 "/>
<polyline fill="none" stroke="#000000" stroke-width="0.119" stroke-miterlimit="10" points="70.201,24.976 69.005,25.675 
	69.005,29.568 71.879,31.232 74.779,29.538 74.779,25.639 73.481,24.887 "/>
<g>
	<defs>
		<rect id="SVGID_7_" x="15.354" y="-4.978" width="65.775" height="75.618"/>
	</defs>
	<clipPath id="SVGID_8_">
		<use xlink:href="#SVGID_7_"  overflow="visible"/>
	</clipPath>
	<path clip-path="url(#SVGID_8_)" fill="none" stroke="#000000" stroke-width="0.112" stroke-miterlimit="10" d="M23.317,1.513
		c-0.563,0.098-0.992,0.609-0.992,1.224v0.864c0,0.337,0.533,0.611,1.19,0.611c0.657,0,1.19-0.274,1.19-0.611V2.737
		c0-0.615-0.43-1.125-0.992-1.224V1.382c0-0.061-0.076-0.132-0.199-0.132c-0.121,0-0.197,0.071-0.197,0.132V1.513z"/>
</g>
<polyline fill="none" stroke="#000000" stroke-width="0.119" stroke-miterlimit="10" points="80.195,36.567 71.871,41.42 
	16.787,9.509 "/>
<polyline fill="none" stroke="#000000" stroke-width="0.119" stroke-miterlimit="10" points="42.411,52.28 40.803,51.351 
	39.353,52.196 41.361,53.357 42.411,52.747 "/>
<line fill="none" stroke="#000000" stroke-width="0.119" stroke-miterlimit="10" x1="42.411" y1="52.28" x2="40.803" y2="51.351"/>
<line fill="none" stroke="#000000" stroke-width="0.119" stroke-miterlimit="10" x1="42.411" y1="53.622" x2="41.656" y2="53.185"/>
<g>
	<defs>
		<rect id="SVGID_9_" x="15.354" y="-4.978" width="65.775" height="75.618"/>
	</defs>
	<clipPath id="SVGID_10_">
		<use xlink:href="#SVGID_9_"  overflow="visible"/>
	</clipPath>
	<path clip-path="url(#SVGID_10_)" fill="none" stroke="#000000" stroke-width="0.119" stroke-miterlimit="10" d="M41.129,49.524
		c-0.219,0.187-0.323,0.502-0.323,0.664v1.186"/>
</g>
<polyline fill="none" stroke="#000000" stroke-width="0.119" stroke-miterlimit="10" points="40.491,52.854 40.081,53.093 
	16.726,39.937 "/>
<line fill="none" stroke="#000000" stroke-width="0.119" stroke-miterlimit="10" x1="40.084" y1="53.093" x2="40.084" y2="52.62"/>
<g>
	<defs>
		<rect id="SVGID_11_" x="15.354" y="-4.978" width="65.775" height="75.618"/>
	</defs>
	<clipPath id="SVGID_12_">
		<use xlink:href="#SVGID_11_"  overflow="visible"/>
	</clipPath>
	<path clip-path="url(#SVGID_12_)" fill="none" stroke="#000000" stroke-width="0.119" stroke-miterlimit="10" d="M78.236,65.2
		v-4.439l-4.421,2.455v4.568l-1.977,1.153l-14.818-7.014L45.134,55.94l-2.724-1.534v-3.119c0-0.202-0.189-1.151-1.163-1.714
		c-0.821-0.477-1.164,0.373-1.164,0.673v1.525"/>
</g>
<polyline fill="none" stroke="#000000" stroke-width="0.119" stroke-miterlimit="10" points="75.108,65.516 75.108,64.363 
	74.39,64.78 74.39,65.933 "/>
<g>
	<defs>
		<rect id="SVGID_13_" x="15.354" y="-4.978" width="65.775" height="75.618"/>
	</defs>
	<clipPath id="SVGID_14_">
		<use xlink:href="#SVGID_13_"  overflow="visible"/>
	</clipPath>
	<path clip-path="url(#SVGID_14_)" fill="none" stroke="#000000" stroke-width="0.119" stroke-miterlimit="10" d="M78.911,35.748
		l1.273,0.836v27.488L78.236,65.2c-0.067-0.025-1.669-0.493-2.957,0.22l-1.017,0.59c-0.198,0.101-0.34,0.212-0.447,0.33"/>
</g>
<polyline fill="none" stroke="#000000" stroke-width="0.112" stroke-miterlimit="10" points="40.571,16.22 44.654,13.788 
	44.654,12.214 35.031,5.871 29.067,9.319 "/>
<line fill="none" stroke="#000000" stroke-width="0.112" stroke-miterlimit="10" x1="44.653" y1="12.207" x2="40.581" y2="14.607"/>
<g>
	<defs>
		<rect id="SVGID_15_" x="15.354" y="-4.978" width="65.775" height="75.618"/>
	</defs>
	<clipPath id="SVGID_16_">
		<use xlink:href="#SVGID_15_"  overflow="visible"/>
	</clipPath>
</g>
</svg>
