<svg id="Layer_1" data-name="Layer 1" xmlns="http://www.w3.org/2000/svg" xmlns:xlink="http://www.w3.org/1999/xlink" viewBox="0 0 189.94 92.56"><defs><style>.cls-1,.cls-20,.cls-21,.cls-22,.cls-29{fill:none;}.cls-2{clip-path:url(#clip-path);}.cls-14,.cls-3{font-size:5.03px;}.cls-14,.cls-24,.cls-3{fill:#d1d3d4;font-family:Calibre-Semibold, Calibre;font-weight:700;}.cls-4{letter-spacing:0.22em;}.cls-5{letter-spacing:0.19em;}.cls-6{letter-spacing:0.21em;}.cls-7{letter-spacing:0.18em;}.cls-8{letter-spacing:0.15em;}.cls-9{letter-spacing:0.22em;}.cls-10{letter-spacing:0.22em;}.cls-11{letter-spacing:0.18em;}.cls-12{letter-spacing:0.2em;}.cls-13{letter-spacing:0.19em;}.cls-14{letter-spacing:0.2em;}.cls-15{letter-spacing:0.16em;}.cls-16{letter-spacing:0em;}.cls-17{fill:#010101;}.cls-18{clip-path:url(#clip-path-2);}.cls-19{opacity:0.5;}.cls-20{stroke:#d0d2d3;stroke-width:1.09px;}.cls-20,.cls-21,.cls-22,.cls-29{stroke-miterlimit:10;}.cls-21,.cls-22{stroke:#231f20;}.cls-21,.cls-29{stroke-width:0.15px;}.cls-22{stroke-width:0.14px;}.cls-23{clip-path:url(#clip-path-5);}.cls-24{font-size:5.24px;}.cls-25{letter-spacing:0.22em;}.cls-26{letter-spacing:0.18em;}.cls-27{letter-spacing:0.24em;}.cls-28{fill:#231f20;}.cls-29{stroke:#fff;}</style><clipPath id="clip-path"><rect class="cls-1" x="75.89" y="32.33" width="109.9" height="54.09"/></clipPath><clipPath id="clip-path-2"><rect class="cls-1" x="90.63" y="50.81" width="80.48" height="18.16"/></clipPath><clipPath id="clip-path-5"><rect class="cls-1" x="3.76" y="0.45" width="68.86" height="86.95"/></clipPath></defs><title>Artboard 2residence_I_key

residence_I_key_horizontalresidence_I_key

residence_I_key_horizontal</title><g class="cls-2"><text class="cls-3" transform="translate(82.36 43.03) rotate(90)"><tspan class="cls-4">BR</tspan><tspan class="cls-5" x="7.83" y="0">O</tspan><tspan class="cls-4" x="12" y="0">A</tspan><tspan class="cls-6" x="16.26" y="0">D</tspan><tspan class="cls-7" x="20.37" y="0">W</tspan><tspan class="cls-8" x="25.29" y="0">A</tspan><tspan x="29.19" y="0">Y</tspan></text><text class="cls-3" transform="translate(176.06 37.36) rotate(90)"><tspan class="cls-9">L</tspan><tspan class="cls-10" x="3.66" y="0">A</tspan><tspan class="cls-11" x="7.92" y="0">F</tspan><tspan class="cls-8" x="11.35" y="0">A</tspan><tspan class="cls-4" x="15.25" y="0">YETTE </tspan><tspan class="cls-6" x="36.91" y="0">S</tspan><tspan x="40.63" y="0">T</tspan></text><text class="cls-3" transform="translate(112.73 40.95)"><tspan class="cls-12">LEONARD </tspan><tspan class="cls-13" x="29.7" y="0">S</tspan><tspan x="33.32" y="0">T</tspan></text><text class="cls-14" transform="translate(109.18 79.53)">C<tspan class="cls-15" x="4.02" y="0">A</tspan><tspan class="cls-4" x="7.96" y="0">THERINE L</tspan><tspan class="cls-16" x="40.13" y="0">N</tspan></text><polygon class="cls-17" points="154.3 60.38 155.78 60.38 155.78 60.6 156.78 60.6 156.78 60.38 159.21 60.38 159.21 62.52 158.47 62.52 158.47 64.47 159.55 64.47 159.55 67.35 153.94 67.12 153.94 65.08 154.26 65.08 154.26 63.08 153.83 63.08 153.83 61.07 154.3 61.07 154.3 60.38"/><g class="cls-18"><polygon class="cls-20" points="169.17 52.02 169.17 67.77 91.6 62.94 91.63 52.02 169.17 52.02"/></g></g><polyline class="cls-21" points="71.15 50.59 59.9 56.94 9.19 23.53"/><polyline class="cls-21" points="71.15 53.07 59.9 59.43 9.19 26.02"/><polyline class="cls-21" points="71.15 55.56 59.9 61.91 9.19 28.51"/><polyline class="cls-21" points="71.15 58.05 59.9 64.4 9.19 31"/><polyline class="cls-21" points="71.15 60.54 59.9 66.89 9.19 33.49"/><polyline class="cls-21" points="71.15 63.03 59.9 69.38 9.19 35.98"/><polyline class="cls-21" points="71.15 65.52 59.9 71.87 9.19 38.47"/><polyline class="cls-21" points="71.15 68.01 59.9 74.36 9.19 40.96"/><polyline class="cls-21" points="71.15 70.5 59.9 76.85 9.19 43.45"/><polyline class="cls-21" points="71.15 72.99 59.9 79.34 9.19 45.94"/><polyline class="cls-21" points="71.15 75.47 59.9 81.83 9.19 48.42"/><line class="cls-22" x1="18.8" y1="25.78" x2="18.8" y2="24.44"/><line class="cls-22" x1="23.74" y1="26.42" x2="23.74" y2="24.92"/><line class="cls-22" x1="19.69" y1="23.89" x2="19.69" y2="22.38"/><line class="cls-22" x1="28.49" y1="23.67" x2="28.49" y2="22.17"/><line class="cls-22" x1="61.26" y1="48.44" x2="61.26" y2="47.13"/><line class="cls-22" x1="43.02" y1="38.66" x2="43.02" y2="37.34"/><line class="cls-22" x1="17.13" y1="23.38" x2="17.13" y2="25.6"/><line class="cls-22" x1="25.19" y1="18.59" x2="25.19" y2="20.12"/><line class="cls-22" x1="61.26" y1="48.44" x2="61.97" y2="48.89"/><line class="cls-22" x1="22.43" y1="18.64" x2="22.43" y2="14.66"/><line class="cls-22" x1="14.43" y1="13.56" x2="14.43" y2="9.28"/><line class="cls-22" x1="17.5" y1="10.13" x2="17.5" y2="8.24"/><line class="cls-22" x1="17.49" y1="16.82" x2="17.49" y2="11.18"/><line class="cls-22" x1="20.67" y1="13.52" x2="20.67" y2="9.35"/><line class="cls-22" x1="17.5" y1="10.22" x2="17.5" y2="8.33"/><line class="cls-22" x1="20.96" y1="14.82" x2="20.96" y2="13.48"/><line class="cls-22" x1="14.07" y1="15" x2="14.07" y2="13.67"/><line class="cls-22" x1="17.21" y1="21.68" x2="17.21" y2="17.72"/><line class="cls-22" x1="12.72" y1="18.68" x2="12.72" y2="14.82"/><polyline class="cls-22" points="18.97 24.52 17.13 25.6 10.39 21.17 10.39 18.95 12.72 17.58"/><line class="cls-22" x1="18.78" y1="24.47" x2="19.7" y2="23.93"/><line class="cls-22" x1="17.15" y1="21.66" x2="12.73" y2="18.74"/><line class="cls-22" x1="17.5" y1="15.36" x2="20.89" y2="13.37"/><line class="cls-22" x1="17.23" y1="17.09" x2="20.89" y2="14.94"/><g class="cls-23"><path class="cls-22" d="M16.83,12.28c.26.75.06,1.36-.46,1.36S15.23,13,15,12.28s-.05-1.36.46-1.36S16.57,11.53,16.83,12.28Z"/><path class="cls-22" d="M18.17,12.3c-.26.76-.05,1.36.46,1.37s1.15-.61,1.41-1.36S20.1,11,19.58,11,18.43,11.55,18.17,12.3Z"/></g><line class="cls-22" x1="17.21" y1="17.76" x2="22.47" y2="14.67"/><line class="cls-22" x1="17.13" y1="21.71" x2="22.35" y2="18.64"/><line class="cls-22" x1="13.89" y1="13.67" x2="14.4" y2="13.37"/><line class="cls-22" x1="12.72" y1="14.8" x2="17.15" y2="17.72"/><line class="cls-22" x1="10.39" y1="18.94" x2="17.13" y2="23.38"/><line class="cls-22" x1="20.73" y1="13.32" x2="20.96" y2="13.48"/><line class="cls-22" x1="14.07" y1="14.02" x2="12.72" y2="14.82"/><line class="cls-22" x1="10.39" y1="20.28" x2="9.19" y2="21"/><line class="cls-22" x1="22.48" y1="16.81" x2="25.19" y2="18.59"/><line class="cls-22" x1="17.4" y1="11.33" x2="20.68" y2="9.36"/><line class="cls-22" x1="14.43" y1="9.32" x2="15.72" y2="8.56"/><line class="cls-22" x1="17.4" y1="10.29" x2="19.37" y2="9.13"/><line class="cls-22" x1="17.51" y1="8.38" x2="19.33" y2="7.31"/><line class="cls-22" x1="14.43" y1="9.28" x2="17.49" y2="11.37"/><line class="cls-22" x1="19.26" y1="8.35" x2="20.68" y2="9.28"/><line class="cls-22" x1="20.96" y1="13.83" x2="22.46" y2="14.82"/><line class="cls-22" x1="15.7" y1="9.07" x2="17.55" y2="10.29"/><line class="cls-22" x1="15.85" y1="7.32" x2="17.51" y2="8.41"/><line class="cls-22" x1="18.4" y1="6.71" x2="19.35" y2="7.33"/><g class="cls-23"><path class="cls-22" d="M15.86,5.19c0,.08-.17.22-.19.28l.11.28c.11.15.51.28,1.17.09s2-.92,2.17-1.66l-.23-.42a.84.84,0,0,0-.42,0"/></g><polyline class="cls-22" points="16.48 2.48 17.42 2.93 17.7 2.81 18.35 1.9"/><g class="cls-23"><path class="cls-22" d="M19,4.56a1.47,1.47,0,0,1,0,.66,1.57,1.57,0,0,1-1.85,1.22A1.59,1.59,0,0,1,16.28,6l-.06-.05"/><path class="cls-22" d="M16,5.53a1.25,1.25,0,0,1-.11-.39,1.57,1.57,0,0,1,1.31-1.78,1.49,1.49,0,0,1,1.37.47,1.35,1.35,0,0,1,.26.37"/><path class="cls-22" d="M18.58,6.91a.52.52,0,0,0,0-.17.13.13,0,0,0-.08-.08,1.2,1.2,0,0,0-.28.06V6.59l.08-.36"/><path class="cls-22" d="M17.84,6.89c0,.07.05.14.06.18s.17.12.3,0"/></g><polyline class="cls-22" points="17 7.5 17 7.35 17.2 7.01 17.17 6.89 16.79 6.83 16.46 6.63 16.59 6.23"/><line class="cls-22" x1="14.44" y1="13.37" x2="17.5" y2="15.38"/><line class="cls-22" x1="14.09" y1="14.8" x2="17.3" y2="16.91"/><line class="cls-22" x1="16.65" y1="6.64" x2="15.69" y2="7.27"/><line class="cls-22" x1="19.26" y1="9.18" x2="19.26" y2="7.41"/><line class="cls-22" x1="15.7" y1="9.07" x2="15.7" y2="7.25"/><line class="cls-22" x1="43.02" y1="37.34" x2="53.43" y2="43.97"/><line class="cls-22" x1="55.17" y1="37.88" x2="59.48" y2="40.42"/><line class="cls-22" x1="19.69" y1="23.91" x2="23.74" y2="26.48"/><line class="cls-22" x1="19.69" y1="22.33" x2="23.74" y2="24.9"/><line class="cls-22" x1="24.44" y1="19.59" x2="28.49" y2="22.17"/><line class="cls-22" x1="28.49" y1="22.92" x2="54.76" y2="38"/><line class="cls-22" x1="44.75" y1="35.93" x2="51.82" y2="39.98"/><polyline class="cls-22" points="65.58 45.95 65.96 45.73 65.96 44.43 59.47 40.7"/><polyline class="cls-22" points="66.88 47.69 64.39 49.16 61.99 47.64"/><line class="cls-22" x1="64.39" y1="51.4" x2="64.39" y2="49.16"/><polyline class="cls-22" points="61.26 48.44 57.7 50.53 18.79 25.78"/><polyline class="cls-22" points="63.43 45.86 57.7 49.21 18.75 24.44"/><line class="cls-22" x1="57.7" y1="50.53" x2="57.7" y2="49.21"/><line class="cls-22" x1="59.47" y1="40.42" x2="53.43" y2="43.96"/><polyline class="cls-22" points="59.48 40.42 59.48 41.69 53.45 45.22 43.02 38.58"/><line class="cls-22" x1="53.43" y1="45.21" x2="53.43" y2="43.97"/><line class="cls-22" x1="55.17" y1="37.88" x2="51.48" y2="40.04"/><line class="cls-22" x1="45.23" y1="36.07" x2="43.02" y2="37.36"/><line class="cls-22" x1="28.49" y1="23.64" x2="23.74" y2="26.42"/><line class="cls-22" x1="28.49" y1="22.17" x2="23.74" y2="24.95"/><line class="cls-22" x1="24.43" y1="19.59" x2="19.68" y2="22.38"/><line class="cls-22" x1="25.19" y1="18.66" x2="17.23" y2="23.32"/><line class="cls-22" x1="65.9" y1="44.41" x2="64.65" y2="45.14"/><text class="cls-24" transform="matrix(0.82, 0.57, -0.86, 0.5, 7.05, 57.87)"><tspan class="cls-25">C</tspan><tspan class="cls-26" x="4.3" y="0">A</tspan><tspan class="cls-27" x="8.5" y="0">THERINE L</tspan><tspan x="42.96" y="0">N</tspan></text><polyline class="cls-22" points="71.15 48.1 59.9 54.45 9.19 21.05"/><polyline class="cls-22" points="63.32 46.84 61.98 47.63 61.98 49.86 64.39 51.4 66.88 49.94 66.88 47.69 65.87 47.05"/><line class="cls-22" x1="59.92" y1="54.46" x2="59.92" y2="84.21"/><line class="cls-22" x1="65.9" y1="80.06" x2="65.08" y2="80.54"/><polyline class="cls-22" points="65.9 80.06 66.41 80.39 71.15 77.6 71.15 48.08 65.96 45.1"/><g class="cls-23"><path class="cls-22" d="M65.9,80.06v-.71a.47.47,0,0,0-.14-.33"/><path class="cls-22" d="M66.42,80.39v-1c0-.26-.22-.58-.72-.3a1.23,1.23,0,0,0-.62,1v1.15l-5.16,3-7.77-5.38-9.83-6.71-8.24-5.66-16.71-12L9.19,48.56V21.05"/><path class="cls-22" d="M64.39,45.49a1.34,1.34,0,0,0-1.08,1.32v.94c0,.36.58.66,1.29.66s1.28-.3,1.28-.66v-.94a1.33,1.33,0,0,0-1.07-1.32v-.14c0-.07-.08-.14-.21-.14s-.21.07-.21.14Z"/></g><polygon class="cls-28" points="53.53 60.15 50.31 58.02 50.31 55.66 53.53 57.79 53.53 60.15"/><polygon class="cls-28" points="53.53 57.66 50.31 55.53 50.31 53.17 53.53 55.29 53.53 57.66"/><polygon class="cls-28" points="53.53 55.17 50.31 53.04 50.31 50.69 53.53 52.82 53.53 55.17"/><polygon class="cls-28" points="53.53 52.68 50.31 50.55 50.31 48.2 53.53 50.34 53.53 52.68"/><line class="cls-29" x1="50.31" y1="50.62" x2="53.54" y2="52.74"/><line class="cls-29" x1="50.31" y1="53.11" x2="53.54" y2="55.23"/><line class="cls-29" x1="50.31" y1="55.6" x2="53.54" y2="57.72"/><polygon class="cls-28" points="53.53 65.12 50.31 62.99 50.31 60.64 53.53 62.77 53.53 65.12"/><polygon class="cls-28" points="53.53 62.64 50.31 60.51 50.31 58.15 53.53 60.27 53.53 62.64"/><line class="cls-29" x1="50.31" y1="58.08" x2="53.54" y2="60.21"/><line class="cls-29" x1="50.31" y1="60.57" x2="53.54" y2="62.7"/></svg>