<?xml version="1.0" encoding="utf-8"?>
<!-- Generator: Adobe Illustrator 23.0.0, SVG Export Plug-In . SVG Version: 6.00 Build 0)  -->
<svg version="1.1" id="Layer_1" xmlns="http://www.w3.org/2000/svg" xmlns:xlink="http://www.w3.org/1999/xlink" x="0px" y="0px"
	 viewBox="0 0 123.3 164.8" style="enable-background:new 0 0 123.3 164.8;" xml:space="preserve">
<style type="text/css">
	.st0{fill:#D2D3D4;}
	.st1{fill:#010101;}
	.st2{clip-path:url(#SVGID_2_);}
	.st3{fill:none;stroke:#D1D3D4;stroke-width:1.09;stroke-miterlimit:10;}
	.st4{clip-path:url(#SVGID_4_);}
	.st5{enable-background:new    ;}
	.st6{fill:#D1D3D4;}
	.st7{fill:none;stroke:#231F20;stroke-width:0.15;stroke-miterlimit:10;}
	.st8{fill:none;stroke:#231F20;stroke-width:0.14;stroke-miterlimit:10;}
	.st9{clip-path:url(#SVGID_6_);}
	.st10{clip-path:url(#SVGID_8_);}
	.st11{fill:none;stroke:#231F20;stroke-width:0.14;stroke-linejoin:bevel;}
	.st12{clip-path:url(#SVGID_10_);}
	.st13{clip-path:url(#SVGID_12_);}
	.st14{clip-path:url(#SVGID_14_);}
	.st15{clip-path:url(#SVGID_16_);}
	.st16{fill:#231F20;}
	.st17{fill:none;stroke:#FFFFFF;stroke-width:0.15;stroke-miterlimit:10;}
</style>
<title>residence_H_7-12_key</title>
<g>
	<g>
		<path class="st0" d="M14.3,117.1c-0.6,0-1-0.4-1-1.1v-1.4h3.4v1.3c0,0.7-0.3,1.1-0.9,1.1c-0.3,0-0.6-0.2-0.7-0.4
			C14.9,116.9,14.6,117.1,14.3,117.1z M13.9,115.2v0.7c0,0.3,0.2,0.5,0.4,0.5s0.4-0.2,0.4-0.5v-0.7H13.9z M15.3,115.8
			c0,0.3,0.1,0.5,0.4,0.5s0.4-0.2,0.4-0.5v-0.6h-0.8L15.3,115.8z"/>
		<path class="st0" d="M14.6,119.5h-1.3v-0.7h3.4v1.4c0.1,0.5-0.3,1.1-0.8,1.2c-0.1,0-0.2,0-0.3,0c-0.5,0-0.9-0.3-1-0.8l-1.3,0.9
			v-0.8l1.3-0.8L14.6,119.5z M15.1,119.5v0.7c0,0.3,0.2,0.5,0.5,0.5s0.5-0.2,0.5-0.5v-0.7H15.1z"/>
		<path class="st0" d="M13.3,124.6c0-0.9,0.8-1.6,1.7-1.6c0,0,0.1,0,0.1,0c0.9-0.1,1.7,0.6,1.7,1.5c0.1,0.9-0.6,1.7-1.5,1.7
			c-0.1,0-0.2,0-0.3,0c-0.9,0.1-1.7-0.6-1.7-1.5C13.3,124.7,13.3,124.6,13.3,124.6z M16.1,124.6c0-0.5-0.4-0.9-1.1-0.9
			s-1.1,0.3-1.1,0.9s0.5,0.9,1.1,0.9S16.1,125.1,16.1,124.6z"/>
		<path class="st0" d="M16.7,129.4l-3.4,1.3V130l0.8-0.3v-1.3l-0.8-0.3v-0.7l3.4,1.3V129.4z M14.7,128.7v0.8l1.1-0.4L14.7,128.7z"/>
		<path class="st0" d="M16.7,132.4v1.2c0.1,0.9-0.6,1.6-1.5,1.7c-0.1,0-0.2,0-0.2,0c-0.9,0.1-1.6-0.6-1.7-1.4c0-0.1,0-0.2,0-0.2
			v-1.2H16.7z M13.9,133.5c0,0.6,0.4,1,1,1c0,0,0,0,0.1,0c0.6,0,1-0.4,1.1-0.9c0,0,0,0,0-0.1v-0.5h-2.1V133.5z"/>
		<path class="st0" d="M16.7,139l-2.3,0.6l2.3,0.6v0.7l-3.4-0.8v-0.6l2.2-0.6l-2.2-0.6v-0.6l3.4-0.9v0.7l-2.3,0.6l2.3,0.6L16.7,139z
			"/>
		<path class="st0" d="M16.7,144l-3.4,1.3v-0.7l0.8-0.3V143l-0.8-0.3V142l3.4,1.3V144z M14.7,143.2v0.8l1.1-0.4L14.7,143.2z"/>
		<path class="st0" d="M16.7,148.6v0.8l-2.1-1.2h-1.3v-0.7h1.3l2.1-1.2v0.8l-1.4,0.8L16.7,148.6z"/>
		<path class="st0" d="M111.7,108.4v0.7h-2.8v1.6h-0.6v-2.3H111.7z"/>
		<path class="st0" d="M111.7,114.1l-3.4,1.3v-0.7l0.8-0.3v-1.3l-0.8-0.3v-0.7l3.4,1.3V114.1z M109.7,113.4v0.8l1.1-0.4L109.7,113.4
			z"/>
		<path class="st0" d="M108.3,117h3.4v2.2h-0.6v-1.5h-0.9v1.4h-0.6v-1.4h-1.3V117z"/>
		<path class="st0" d="M111.7,122.5l-3.4,1.3v-0.7l0.8-0.3v-1.3l-0.8-0.3v-0.7l3.4,1.3V122.5z M109.7,121.8v0.8l1.1-0.4L109.7,121.8
			z"/>
		<path class="st0" d="M111.7,127.2v0.7l-2.1-1.2h-1.3V126h1.3l2.1-1.2v0.8l-1.4,0.8L111.7,127.2z"/>
		<path class="st0" d="M111.7,131.8h-0.6v-1.6h-0.7v1.4h-0.6v-1.4h-0.8v1.6h-0.6v-2.3h3.4V131.8z"/>
		<path class="st0" d="M111.7,133.4v2.9h-0.6v-1.1h-2.8v-0.7h2.8v-1.1L111.7,133.4z"/>
		<path class="st0" d="M111.7,137.8v2.9h-0.6v-1.1h-2.8v-0.7h2.8v-1.1H111.7z"/>
		<path class="st0" d="M111.7,144.6h-0.6V143h-0.7v1.4h-0.6V143h-0.8v1.6h-0.6v-2.3h3.4V144.6z"/>
		<path class="st0" d="M109.2,149.2c-0.3,0.1-0.5,0.4-0.4,0.7c0,0.4,0.2,0.6,0.4,0.6s0.3-0.1,0.4-0.4l0.1-0.6c0-0.5,0.4-0.9,0.9-0.9
			c0.6,0,1,0.6,1,1.1c0,0,0,0,0,0.1c0.1,0.6-0.4,1.2-1,1.3v-0.7c0.3-0.1,0.4-0.3,0.4-0.6c0-0.3-0.2-0.5-0.4-0.5s-0.3,0.1-0.4,0.4
			l-0.1,0.6c-0.1,0.6-0.4,0.9-1,0.9s-1-0.5-1-1.2c-0.1-0.7,0.4-1.3,1-1.4L109.2,149.2L109.2,149.2z"/>
		<path class="st0" d="M111.7,152.6v2.9h-0.6v-1.1h-2.8v-0.7h2.8v-1.1L111.7,152.6z"/>
		<path class="st0" d="M43.1,112.6h0.7v2.8h1.6v0.6h-2.3V112.6z"/>
		<path class="st0" d="M49.3,112.6v0.6h-1.6v0.8h1.5v0.6h-1.5v0.8h1.6v0.6H47v-3.4L49.3,112.6z"/>
		<path class="st0" d="M52.4,116c-1,0.1-1.8-0.7-1.9-1.6c-0.1-1,0.7-1.8,1.6-1.9s1.8,0.7,1.9,1.6c0,0.1,0,0.1,0,0.2
			c0,0.9-0.6,1.6-1.5,1.7C52.4,116,52.4,116,52.4,116z M52.4,113.2c-0.5,0-0.9,0.4-0.9,1.1s0.3,1.1,0.9,1.1s0.9-0.5,0.9-1.1
			S52.9,113.2,52.4,113.2L52.4,113.2z"/>
		<path class="st0" d="M58.4,116h-0.6l-1.6-2.2v2.2h-0.7v-3.4h0.7l1.5,2.1v-2.1h0.7V116z"/>
		<path class="st0" d="M61.9,112.6l1.3,3.4h-0.7l-0.3-0.8h-1.3l-0.3,0.8h-0.7l1.3-3.4L61.9,112.6z M61.1,114.6h0.8l-0.4-1.1
			L61.1,114.6z"/>
		<path class="st0" d="M65.4,114.7v1.3h-0.7v-3.4h1.4c0.5-0.1,1.1,0.2,1.2,0.8c0,0.1,0,0.2,0,0.3c0,0.5-0.3,0.9-0.8,1l0.9,1.3h-0.8
			l-0.8-1.3L65.4,114.7z M65.4,114.2H66c0.3,0,0.5-0.2,0.5-0.5s-0.2-0.5-0.5-0.5h-0.7L65.4,114.2z"/>
		<path class="st0" d="M68.9,112.6h1.2c0.9,0.1,1.6,0.9,1.6,1.8c-0.1,0.8-0.7,1.5-1.6,1.6h-1.2V112.6z M70,115.4
			c0.6,0,1.1-0.5,1.1-1.1c0-0.6-0.5-1.1-1.1-1.1h-0.5v2.1H70z"/>
		<path class="st0" d="M76.1,115c0.1,0.3,0.4,0.5,0.7,0.4c0.3,0,0.6-0.2,0.6-0.4s-0.1-0.3-0.4-0.4l-0.6-0.1
			c-0.5-0.1-0.8-0.4-0.8-0.9c0-0.6,0.6-1,1.2-1c0,0,0,0,0,0c0.6-0.1,1.2,0.4,1.3,1h-0.7c-0.1-0.3-0.3-0.4-0.6-0.4
			c-0.3,0-0.5,0.2-0.5,0.4s0.1,0.3,0.4,0.4l0.6,0.2c0.5,0.1,0.9,0.5,0.9,1c-0.1,0.6-0.6,1.1-1.2,1c0,0,0,0,0,0
			c-0.7,0.1-1.3-0.4-1.4-1L76.1,115z"/>
		<path class="st0" d="M79.4,112.6h2.9v0.6h-1.1v2.8h-0.7v-2.8h-1.1V112.6z"/>
		<path class="st0" d="M40.6,147.9c0.7,0,1.3,0.4,1.4,1.1h-0.7c-0.1-0.3-0.4-0.5-0.7-0.5c-0.5,0-0.8,0.5-0.8,1.1s0.3,1.1,0.8,1.1
			c0.3,0,0.6-0.2,0.7-0.5H42c-0.1,0.7-0.7,1.2-1.4,1.1c-1-0.1-1.7-1-1.6-1.9C39.2,148.6,39.8,147.9,40.6,147.9z"/>
		<path class="st0" d="M45.4,147.9l1.3,3.4H46l-0.3-0.8h-1.3l-0.3,0.8h-0.7l1.3-3.4H45.4z M44.6,149.9h0.8l-0.4-1.2L44.6,149.9z"/>
		<path class="st0" d="M47.8,147.9h2.9v0.6h-1.1v2.8h-0.7v-2.8h-1.1V147.9z"/>
		<path class="st0" d="M55.2,147.9v3.4h-0.7v-1.4H53v1.4h-0.7v-3.4H53v1.3h1.5v-1.3H55.2z"/>
		<path class="st0" d="M59.4,147.9v0.6h-1.6v0.7h1.5v0.6h-1.5v0.8h1.6v0.6h-2.3v-3.4L59.4,147.9z"/>
		<path class="st0" d="M61.8,150v1.3h-0.7v-3.4h1.4c0.5-0.1,1.1,0.3,1.2,0.8c0,0.1,0,0.2,0,0.3c0,0.5-0.3,0.9-0.8,1l0.9,1.3H63
			l-0.8-1.3H61.8z M61.8,149.4h0.6c0.4,0,0.5-0.2,0.5-0.5s-0.2-0.5-0.5-0.5h-0.6V149.4z"/>
		<path class="st0" d="M66.2,151.3h-0.7v-3.4h0.7V151.3z"/>
		<path class="st0" d="M70.8,151.3h-0.6l-1.6-2.3v2.2H68v-3.4h0.7l1.5,2.1v-2.1h0.7V151.3z"/>
		<path class="st0" d="M75,147.9v0.6h-1.6v0.7h1.4v0.6h-1.5v0.8H75v0.6h-2.3v-3.4L75,147.9z"/>
		<path class="st0" d="M79.1,147.9h0.7v2.8h1.6v0.6h-2.3V147.9z"/>
		<path class="st0" d="M85.9,151.3h-0.6l-1.6-2.3v2.2h-0.7v-3.4h0.7l1.5,2.1v-2.1h0.7V151.3L85.9,151.3z"/>
	</g>
	<g id="_4-6_H">
		<polygon class="st1" points="72.8,126.4 81.4,126.4 81.4,133.2 80.9,133.2 74.3,133.2 74.3,131.9 73.2,131.9 73.2,132.1 
			72.5,132.1 72.5,128.9 72.8,128.9 		"/>
		<g>
			<defs>
				<rect id="SVGID_1_" x="23.3" y="125.2" width="76.6" height="17.3"/>
			</defs>
			<clipPath id="SVGID_2_">
				<use xlink:href="#SVGID_1_"  style="overflow:visible;"/>
			</clipPath>
			<g class="st2">
				<polygon class="st3" points="98.1,126.3 98.1,141.3 24.2,136.7 24.3,126.3 				"/>
			</g>
		</g>
		<g>
			<defs>
				<rect id="SVGID_3_" x="27.1" y="9.2" width="70.6" height="77.7"/>
			</defs>
			<clipPath id="SVGID_4_">
				<use xlink:href="#SVGID_3_"  style="overflow:visible;"/>
			</clipPath>
			<g class="st4">
				<g class="st5">
					<path class="st6" d="M33.6,63.5l0.5,0.3l-2,1.3l1.2,0.7l-0.5,0.3l-1.7-1.1L33.6,63.5z"/>
					<path class="st6" d="M38.4,66.5L38,66.8l-1.2-0.7l-0.5,0.4l1.1,0.7l-0.4,0.3l-1.1-0.7l-0.6,0.4l1.2,0.8l-0.5,0.3l-1.7-1.1
						l2.5-1.6L38.4,66.5z"/>
					<path class="st6" d="M38.3,69.7c-0.7-0.4-0.6-1.1,0.1-1.6c0.8-0.5,1.8-0.5,2.5-0.1c0.7,0.4,0.7,1.1-0.1,1.6
						C40.1,70.1,39.1,70.2,38.3,69.7z M40.5,68.3c-0.4-0.2-1-0.2-1.5,0.1c-0.5,0.3-0.6,0.7-0.2,1c0.4,0.3,1,0.2,1.5-0.1
						C40.8,69,40.9,68.6,40.5,68.3z"/>
					<path class="st6" d="M43.1,72.6l-0.4-0.3l0.5-1.8l-1.7,1.1l-0.5-0.3l2.5-1.6l0.5,0.3l-0.5,1.7l1.6-1l0.5,0.3L43.1,72.6z"/>
					<path class="st6" d="M48.4,72.7L46.8,75l-0.5-0.3l0.4-0.5l-0.9-0.6l-0.8,0.3l-0.5-0.3l3.5-1L48.4,72.7z M46.3,73.3l0.6,0.4
						l0.5-0.7L46.3,73.3z"/>
					<path class="st6" d="M49.6,75.5l-0.9,0.6l-0.5-0.3l2.5-1.6l1,0.7c0.5,0.3,0.6,0.7,0.1,1.1c-0.4,0.3-0.9,0.3-1.3,0.1L50.1,77
						l-0.6-0.4l0.3-1L49.6,75.5z M50,75.2l0.5,0.3c0.3,0.2,0.5,0.2,0.7,0c0.2-0.1,0.2-0.3,0-0.5l-0.5-0.3L50,75.2z"/>
					<path class="st6" d="M53.9,76.2l0.9,0.6c0.8,0.5,0.8,1.1,0,1.6c-0.8,0.5-1.7,0.5-2.5,0l-0.9-0.6L53.9,76.2z M52.8,78.1
						c0.5,0.3,1.1,0.3,1.5-0.1c0.5-0.3,0.5-0.7,0-1L54,76.8l-1.6,1L52.8,78.1z"/>
				</g>
				<g class="st5">
					<path class="st6" d="M57.9,81c-0.2,0.2-0.1,0.4,0.2,0.5c0.3,0.2,0.5,0.2,0.7,0.1c0.2-0.1,0.1-0.2,0-0.4l-0.4-0.4
						c-0.3-0.3-0.4-0.6,0-0.9c0.5-0.3,1.2-0.3,1.7,0.1c0.6,0.4,0.6,0.8,0.3,1.1l-0.5-0.3c0.1-0.1,0.1-0.3-0.2-0.5
						c-0.2-0.1-0.5-0.2-0.7-0.1c-0.1,0.1-0.1,0.2,0,0.4l0.4,0.4c0.3,0.3,0.3,0.6,0,0.9c-0.5,0.3-1.2,0.3-1.7-0.1
						c-0.6-0.4-0.7-0.8-0.3-1.2L57.9,81z"/>
				</g>
				<g class="st5">
					<path class="st6" d="M62.3,81.4l2.2,1.3L64,83.1l-0.8-0.5l-2.1,1.3l-0.5-0.3l2.1-1.3l-0.8-0.5L62.3,81.4z"/>
				</g>
				<line class="st7" x1="83.9" y1="53.2" x2="83.9" y2="49.5"/>
				<line class="st7" x1="35.4" y1="24.1" x2="35.4" y2="21"/>
				<line class="st7" x1="45.5" y1="28" x2="45.5" y2="29.6"/>
				<line class="st7" x1="41" y1="25.4" x2="41" y2="27.1"/>
				<line class="st7" x1="46.7" y1="27.3" x2="46.7" y2="29"/>
				<line class="st8" x1="46.7" y1="29" x2="45.5" y2="29.7"/>
				<line class="st8" x1="46.6" y1="27.4" x2="45.5" y2="28"/>
				<line class="st8" x1="77.3" y1="41.8" x2="72.4" y2="44.6"/>
				<line class="st8" x1="81.1" y1="44.8" x2="76.9" y2="47.2"/>
				<line class="st7" x1="52.5" y1="30.7" x2="52.5" y2="32.4"/>
				<line class="st8" x1="56.6" y1="29.3" x2="76.4" y2="42.3"/>
				<line class="st8" x1="77.3" y1="41.8" x2="81.1" y2="44.2"/>
				<line class="st8" x1="56.6" y1="28.8" x2="76.8" y2="42"/>
				<line class="st8" x1="33" y1="23.1" x2="35" y2="24.3"/>
				<line class="st8" x1="41" y1="25.4" x2="45.5" y2="28"/>
				<line class="st8" x1="46.7" y1="27.4" x2="52.6" y2="30.8"/>
				<line class="st8" x1="46.7" y1="29" x2="52.5" y2="32.4"/>
				<line class="st8" x1="72.4" y1="44.7" x2="76.9" y2="47.2"/>
				<line class="st7" x1="83.9" y1="42.7" x2="83.9" y2="40.9"/>
				<polyline class="st7" points="76.5,50.6 75.8,50.2 74.9,50.7 36.6,28.5 36.6,26.6 				"/>
				<polyline class="st7" points="46.2,22.5 42.4,20 33.8,25 74.9,48.8 				"/>
				<line class="st7" x1="74.9" y1="48.8" x2="74.9" y2="50.7"/>
				<line class="st7" x1="75.8" y1="48.3" x2="74.9" y2="48.8"/>
				<polyline class="st7" points="75.8,50.2 75.8,48.3 72.4,46.4 				"/>
				<line class="st7" x1="84" y1="56.6" x2="84" y2="54.6"/>
				<polyline class="st7" points="88.5,48.8 91,50.4 91,52.5 84,56.6 76.5,52.3 76.5,50.2 79.5,48.5 				"/>
				<polyline class="st7" points="91,50.4 84,54.5 76.5,50.2 				"/>
				<polyline class="st8" points="34.5,25.4 34.5,26.5 36.6,27.7 				"/>
				<line class="st8" x1="41" y1="27.1" x2="45.5" y2="29.7"/>
				<line class="st8" x1="72.4" y1="46.3" x2="72.4" y2="44.7"/>
				<line class="st8" x1="76.9" y1="49.9" x2="76.9" y2="47.2"/>
				<polyline class="st8" points="86.8,41.8 83.9,43.5 81.1,41.8 				"/>
				<polyline class="st7" points="86.8,45.5 87.1,45.7 87.1,47 83.9,48.8 80.7,47 80.7,45.8 81.1,45.6 				"/>
				<line class="st7" x1="83.9" y1="48.8" x2="83.9" y2="43.5"/>
				<polyline class="st7" points="87.1,46.1 88.5,46.9 88.5,50.5 83.9,53.2 79.5,50.6 79.5,46.9 80.7,46.2 				"/>
				<polyline class="st7" points="88.5,46.9 83.9,49.5 79.5,47 				"/>
				<polyline class="st7" points="33,23 28.6,25.6 28.6,56.2 				"/>
				<polyline class="st7" points="37.8,20.2 40.9,18.5 46.6,22.2 				"/>
				<line class="st7" x1="83.9" y1="57.6" x2="83.9" y2="85.2"/>
				<line class="st7" x1="83.9" y1="85.2" x2="54.4" y2="68.1"/>
				<polyline class="st7" points="92.3,57.4 83.9,62.2 28.7,30.2 				"/>
				<polyline class="st7" points="92.3,59.7 83.9,64.5 28.7,32.5 				"/>
				<polyline class="st7" points="92.3,62 83.9,66.8 28.7,34.8 				"/>
				<polyline class="st7" points="92.3,64.3 83.9,69.1 28.7,37.1 				"/>
				<polyline class="st7" points="92.3,66.6 83.9,71.4 28.7,39.4 				"/>
				<polyline class="st7" points="92.3,68.9 83.9,73.7 28.7,41.7 				"/>
				<polyline class="st7" points="92.3,71.2 83.9,76 28.7,44 				"/>
				<polyline class="st7" points="92.3,73.4 83.9,78.3 28.7,46.3 				"/>
				<line class="st7" x1="92.3" y1="75.8" x2="90.3" y2="76.9"/>
				<polyline class="st7" points="85.9,79.5 83.9,80.6 28.7,48.6 				"/>
				<line class="st7" x1="90.3" y1="79.2" x2="92.3" y2="78.1"/>
				<polyline class="st7" points="85.9,81.8 83.9,82.9 28.7,50.9 				"/>
				<polyline class="st7" points="92.3,55.1 83.9,59.9 28.7,27.9 				"/>
				<line class="st7" x1="52.1" y1="66.7" x2="28.7" y2="53.2"/>
				<polyline class="st8" points="34.3,18.9 33,19.7 33,23.1 				"/>
				<polyline class="st8" points="36.6,18.9 37.8,19.6 37.8,22.6 				"/>
				<polyline class="st8" points="33,19.7 35.4,21 37.8,19.6 				"/>
				<polyline class="st7" points="84.9,39.5 85.5,39.9 85.5,41.7 83.9,42.7 82.3,41.7 82.3,39.9 83.1,39.4 				"/>
				<polyline class="st8" points="85.5,39.9 83.9,40.9 82.2,39.9 				"/>
				<g>
					<defs>
						<rect id="SVGID_5_" x="27.3" y="9.2" width="70.5" height="77.7"/>
					</defs>
					<clipPath id="SVGID_6_">
						<use xlink:href="#SVGID_5_"  style="overflow:visible;"/>
					</clipPath>
					<g class="st9">
						<path class="st7" d="M82.4,38c-0.1,0.1-0.1,0.2-0.2,0.2l0.1,0.3c0.1,0.1,0.5,0.3,1.1,0.1s1.9-0.8,2-1.5l-0.2-0.4
							c-0.1,0-0.3,0-0.4,0"/>
					</g>
				</g>
				<polyline class="st7" points="83,35.5 83.8,35.9 84.1,35.8 84.7,35 				"/>
				<g>
					<defs>
						<rect id="SVGID_7_" x="27.3" y="9.2" width="70.5" height="77.7"/>
					</defs>
					<clipPath id="SVGID_8_">
						<use xlink:href="#SVGID_7_"  style="overflow:visible;"/>
					</clipPath>
					<g class="st10">
						<path class="st7" d="M85.3,37.4c0,0.2,0,0.4,0,0.6c-0.2,0.8-0.9,1.3-1.7,1.1c0,0,0,0,0,0c-0.3-0.1-0.6-0.2-0.8-0.4h-0.1"/>
						<path class="st7" d="M82.5,38.3c0-0.1-0.1-0.2-0.1-0.4c-0.1-0.8,0.4-1.5,1.2-1.7c0.5-0.1,0.9,0.1,1.3,0.4
							c0.1,0.1,0.2,0.2,0.2,0.3"/>
						<path class="st7" d="M83.3,44.6c0.2,0.7,0,1.3-0.4,1.3s-1.1-0.6-1.3-1.3s0-1.3,0.4-1.3S83.1,43.9,83.3,44.6z"/>
						<path class="st7" d="M84.5,44.6c-0.2,0.7-0.1,1.3,0.4,1.3s1.1-0.6,1.3-1.3s0-1.3-0.4-1.3S84.8,43.9,84.5,44.6z"/>
						<path class="st11" d="M84.9,39.6c0-0.1,0-0.1,0-0.2c0,0,0,0-0.1-0.1c-0.1,0-0.2,0-0.3,0v-0.1l0.1-0.3"/>
						<path class="st8" d="M84.2,39.6c0,0.1,0,0.1,0.1,0.2s0.2,0.1,0.3,0"/>
					</g>
				</g>
				<polyline class="st8" points="83.4,40.2 83.4,40 83.6,39.7 83.6,39.6 83.3,39.5 82.9,39.3 83.1,39 				"/>
				<polyline class="st7" points="82.3,41.1 81.1,41.8 81.1,45.8 83.9,47.4 86.8,45.7 86.8,41.8 85.6,41 				"/>
				<g>
					<defs>
						<rect id="SVGID_9_" x="27.3" y="9.2" width="70.5" height="77.7"/>
					</defs>
					<clipPath id="SVGID_10_">
						<use xlink:href="#SVGID_9_"  style="overflow:visible;"/>
					</clipPath>
					<g class="st12">
						<path class="st8" d="M35.2,17.6c-0.6,0.1-1,0.6-1,1.2v0.9c0,0.3,0.5,0.6,1.2,0.6s1.2-0.3,1.2-0.6v-0.9c0-0.6-0.4-1.1-1-1.2
							v-0.1c0-0.1-0.1-0.1-0.2-0.1s-0.2,0.1-0.2,0.1L35.2,17.6z"/>
					</g>
				</g>
				<polyline class="st7" points="92.3,52.8 83.9,57.6 28.7,25.6 				"/>
				<polyline class="st7" points="54.4,68.5 52.8,67.6 51.3,68.4 53.3,69.6 54.4,69 				"/>
				<line class="st7" x1="54.4" y1="68.5" x2="52.8" y2="67.6"/>
				<line class="st7" x1="54.4" y1="69.9" x2="53.6" y2="69.4"/>
				<g>
					<defs>
						<rect id="SVGID_11_" x="27.3" y="9.2" width="70.5" height="77.7"/>
					</defs>
					<clipPath id="SVGID_12_">
						<use xlink:href="#SVGID_11_"  style="overflow:visible;"/>
					</clipPath>
					<g class="st13">
						<path class="st7" d="M53.1,65.8c-0.2,0.2-0.3,0.4-0.3,0.7v1.2"/>
					</g>
				</g>
				<polyline class="st7" points="52.5,69.1 52.1,69.3 28.6,56.1 				"/>
				<line class="st7" x1="52.1" y1="69.3" x2="52.1" y2="68.9"/>
				<g>
					<defs>
						<rect id="SVGID_13_" x="27.3" y="9.2" width="70.5" height="77.7"/>
					</defs>
					<clipPath id="SVGID_14_">
						<use xlink:href="#SVGID_13_"  style="overflow:visible;"/>
					</clipPath>
					<g class="st14">
						<path class="st7" d="M90.3,81.5V77l-4.4,2.5V84l-2,1.2l-14.9-7l-11.9-6l-2.7-1.5v-3.1c-0.1-0.7-0.5-1.4-1.2-1.7
							c-0.8-0.5-1.2,0.4-1.2,0.7V68"/>
					</g>
				</g>
				<polyline class="st7" points="87.2,81.8 87.2,80.6 86.5,81.1 86.5,82.2 				"/>
				<g>
					<defs>
						<rect id="SVGID_15_" x="27.3" y="9.2" width="70.5" height="77.7"/>
					</defs>
					<clipPath id="SVGID_16_">
						<use xlink:href="#SVGID_15_"  style="overflow:visible;"/>
					</clipPath>
					<g class="st15">
						<path class="st7" d="M91,51.9l1.3,0.8v27.6l-2,1.1c-1-0.3-2.1-0.2-3,0.2l-1,0.6c-0.2,0.1-0.3,0.2-0.4,0.3"/>
					</g>
				</g>
				<polyline class="st8" points="52.5,32.4 56.6,29.9 56.6,28.4 47,22 41,25.5 				"/>
				<line class="st8" x1="56.6" y1="28.3" x2="52.6" y2="30.8"/>
				<polygon class="st16" points="41.6,35.4 41.6,49.2 46.9,52.3 46.8,38.5 				"/>
				<line class="st17" x1="41.6" y1="37.7" x2="46.9" y2="40.8"/>
				<line class="st17" x1="41.6" y1="40" x2="46.9" y2="43.1"/>
				<line class="st17" x1="41.6" y1="42.3" x2="46.9" y2="45.4"/>
				<line class="st17" x1="41.6" y1="44.6" x2="46.9" y2="47.7"/>
				<line class="st17" x1="41.6" y1="47" x2="46.9" y2="50"/>
			</g>
		</g>
	</g>
</g>
</svg>
