<svg id="Layer_1" data-name="Layer 1" xmlns="http://www.w3.org/2000/svg" xmlns:xlink="http://www.w3.org/1999/xlink" viewBox="0 0 123.31 164.76"><defs><style>.cls-1,.cls-12,.cls-16,.cls-3,.cls-4{fill:none;}.cls-2{fill:#d2d3d4;}.cls-3,.cls-4{stroke:#231f20;}.cls-12,.cls-16,.cls-3,.cls-4{stroke-miterlimit:10;}.cls-12,.cls-3{stroke-width:0.15px;}.cls-4{stroke-width:0.14px;}.cls-5{clip-path:url(#clip-path);}.cls-6{font-size:5.19px;fill:#d1d3d4;font-family:Calibre-Semibold, Calibre;font-weight:700;}.cls-7{letter-spacing:0.22em;}.cls-8{letter-spacing:0.18em;}.cls-9{letter-spacing:0.24em;}.cls-10{letter-spacing:0.24em;}.cls-11{fill:#231f20;}.cls-12{stroke:#fff;}.cls-13{clip-path:url(#clip-path-5);}.cls-14{fill:#010101;}.cls-15{opacity:0.5;}.cls-16{stroke:#d0d2d3;stroke-width:1.09px;}</style><clipPath id="clip-path"><rect class="cls-1" x="26.18" y="3.1" width="68.19" height="86.1"/></clipPath><clipPath id="clip-path-5"><rect class="cls-1" x="23.75" y="123.58" width="77.8" height="17.56"/></clipPath></defs><title>Artboard 1residence_I_key

residence_I_key_horizontal</title><path class="cls-2" d="M14.27,117.11c-.62,0-1-.43-1-1.13v-1.4h3.38v1.29c0,.7-.32,1.13-.92,1.13a.73.73,0,0,1-.72-.44A.81.81,0,0,1,14.27,117.11Zm-.36-1.86v.67c0,.33.16.5.42.5s.42-.17.42-.5v-.67Zm1.39.57c0,.34.13.51.4.51s.39-.17.39-.51v-.57H15.3Z"/><path class="cls-2" d="M14.57,119.52H13.31v-.7h3.38v1.39a1,1,0,0,1-1.08,1.18,1,1,0,0,1-1-.77l-1.31.89v-.79l1.26-.83Zm.58,0v.65c0,.35.18.53.46.53s.48-.18.48-.53v-.65Z"/><path class="cls-2" d="M13.26,124.56A1.61,1.61,0,0,1,15,123a1.6,1.6,0,1,1,0,3.19A1.6,1.6,0,0,1,13.26,124.56Zm2.85,0c0-.54-.45-.88-1.11-.88s-1.12.34-1.12.88.46.89,1.12.89S16.11,125.09,16.11,124.56Z"/><path class="cls-2" d="M16.69,129.44l-3.38,1.3V130l.81-.3v-1.26l-.81-.3v-.7l3.38,1.29Zm-2-.76v.82l1.12-.41Z"/><path class="cls-2" d="M16.69,132.36v1.19A1.56,1.56,0,0,1,15,135.21a1.56,1.56,0,0,1-1.69-1.66v-1.19Zm-2.76,1.16a1,1,0,0,0,1.07,1,1,1,0,0,0,1.07-1v-.47H13.93Z"/><path class="cls-2" d="M16.69,139l-2.27.58,2.27.56v.69L13.31,140v-.64l2.23-.6-2.23-.59v-.65l3.38-.87v.7l-2.27.55,2.27.6Z"/><path class="cls-2" d="M16.69,144l-3.38,1.29v-.72l.81-.3V143l-.81-.3V142l3.38,1.29Zm-2-.77V144l1.12-.41Z"/><path class="cls-2" d="M16.69,148.63v.75l-2.1-1.23H13.31v-.7h1.28l2.1-1.21V147l-1.43.82Z"/><path class="cls-2" d="M111.66,108.37v.7h-2.75v1.58h-.62v-2.28Z"/><path class="cls-2" d="M111.66,114.12l-3.37,1.29v-.71l.81-.3v-1.27l-.81-.29v-.71l3.37,1.29Zm-2-.77v.83l1.12-.41Z"/><path class="cls-2" d="M108.29,117h3.37v2.24h-.61v-1.54h-.86v1.43h-.61v-1.43h-1.29V117Z"/><path class="cls-2" d="M111.66,122.53l-3.37,1.29v-.72l.81-.3v-1.26l-.81-.3v-.7l3.37,1.29Zm-2-.77v.82l1.12-.41Z"/><path class="cls-2" d="M111.66,127.18v.74l-2.09-1.23h-1.28V126h1.28l2.09-1.22v.77l-1.43.82Z"/><path class="cls-2" d="M111.66,131.81h-.61v-1.6h-.74v1.45h-.6v-1.45h-.8v1.6h-.62v-2.29h3.37Z"/><path class="cls-2" d="M111.66,133.39v2.87h-.61v-1.08h-2.76v-.71h2.76v-1.08Z"/><path class="cls-2" d="M111.66,137.75v2.88h-.61v-1.09h-2.76v-.71h2.76v-1.08Z"/><path class="cls-2" d="M111.66,144.6h-.61V143h-.74v1.45h-.6V143h-.8v1.6h-.62v-2.29h3.37Z"/><path class="cls-2" d="M109.25,149.22a.65.65,0,0,0-.44.67c0,.35.16.57.43.57s.31-.12.38-.41l.13-.61a.93.93,0,0,1,.93-.85,1.08,1.08,0,0,1,1,1.21,1.22,1.22,0,0,1-1,1.33v-.7a.6.6,0,0,0,.4-.62c0-.32-.16-.53-.4-.53s-.31.12-.37.37l-.14.62c-.13.55-.44.88-1,.88s-1-.53-1-1.25a1.28,1.28,0,0,1,1-1.4v.72Z"/><path class="cls-2" d="M111.66,152.61v2.88h-.61V154.4h-2.76v-.71h2.76v-1.08Z"/><path class="cls-2" d="M43.11,112.62h.7v2.75h1.57V116H43.11Z"/><path class="cls-2" d="M49.29,112.62v.61h-1.6V114h1.45v.6H47.69v.8h1.6V116H47v-3.37Z"/><path class="cls-2" d="M52.36,116A1.75,1.75,0,1,1,54,114.3,1.61,1.61,0,0,1,52.36,116Zm0-2.85c-.53,0-.87.45-.87,1.11s.34,1.12.87,1.12.89-.46.89-1.12S52.9,113.19,52.36,113.19Z"/><path class="cls-2" d="M58.38,116h-.56l-1.59-2.25V116h-.67v-3.37h.66l1.48,2.13v-2.13h.68Z"/><path class="cls-2" d="M61.88,112.62,63.17,116h-.71l-.31-.81H60.89l-.3.81h-.7l1.29-3.37Zm-.77,2h.82l-.41-1.12Z"/><path class="cls-2" d="M65.37,114.73V116h-.7v-3.37h1.39a1,1,0,0,1,1.19,1.07.94.94,0,0,1-.77,1l.89,1.31h-.79l-.84-1.26Zm0-.58H66c.35,0,.53-.18.53-.46s-.18-.48-.53-.48h-.65Z"/><path class="cls-2" d="M68.87,112.62h1.19a1.69,1.69,0,0,1,0,3.37H68.87ZM70,115.37a1.07,1.07,0,0,0,0-2.14h-.47v2.14Z"/><path class="cls-2" d="M76.08,115a.63.63,0,0,0,.67.43c.34,0,.56-.15.56-.42s-.12-.31-.41-.38l-.61-.14c-.48-.11-.85-.37-.85-.92a1.09,1.09,0,0,1,1.21-1,1.22,1.22,0,0,1,1.33,1h-.7a.59.59,0,0,0-.62-.4c-.32,0-.54.15-.54.4s.13.3.38.36l.62.15a1,1,0,0,1,.88,1,1.11,1.11,0,0,1-1.25,1,1.28,1.28,0,0,1-1.4-1Z"/><path class="cls-2" d="M79.36,112.62h2.88v.61H81.15V116h-.71v-2.76H79.36Z"/><path class="cls-2" d="M40.63,147.86A1.35,1.35,0,0,1,42.05,149h-.7a.72.72,0,0,0-.72-.51c-.54,0-.85.47-.85,1.11s.31,1.12.85,1.12a.72.72,0,0,0,.72-.52h.7a1.34,1.34,0,0,1-1.42,1.14,1.75,1.75,0,0,1,0-3.48Z"/><path class="cls-2" d="M45.37,147.92l1.29,3.37H46l-.31-.81H44.38l-.3.81h-.7l1.29-3.37Zm-.77,2h.82L45,148.76Z"/><path class="cls-2" d="M47.75,147.92h2.88v.61H49.54v2.76h-.71v-2.76H47.75Z"/><path class="cls-2" d="M55.23,147.92v3.37h-.7v-1.42H53v1.42h-.7v-3.37H53v1.34h1.53v-1.34Z"/><path class="cls-2" d="M59.38,147.92v.61h-1.6v.74h1.45v.6H57.78v.8h1.6v.62H57.09v-3.37Z"/><path class="cls-2" d="M61.84,150v1.26h-.7v-3.37h1.39A1,1,0,0,1,63.71,149a1,1,0,0,1-.77,1l.89,1.31H63L62.2,150Zm0-.58h.64c.36,0,.54-.18.54-.46s-.18-.48-.54-.48h-.64Z"/><path class="cls-2" d="M66.15,151.29h-.7v-3.37h.7Z"/><path class="cls-2" d="M70.82,151.29h-.55L68.67,149v2.25H68v-3.37h.66l1.49,2.13v-2.13h.67Z"/><path class="cls-2" d="M75,147.92v.61h-1.6v.74h1.45v.6H73.37v.8H75v.62H72.68v-3.37Z"/><path class="cls-2" d="M79.11,147.92h.7v2.75h1.57v.62H79.11Z"/><path class="cls-2" d="M85.93,151.29h-.56L83.78,149v2.25H83.1v-3.37h.66l1.49,2.13v-2.13h.68v3.37Z"/><polyline class="cls-3" points="92.91 52.74 81.78 59.03 31.55 25.95"/><polyline class="cls-3" points="92.91 55.2 81.78 61.49 31.55 28.42"/><polyline class="cls-3" points="92.91 57.67 81.78 63.96 31.55 30.88"/><polyline class="cls-3" points="92.91 60.13 81.78 66.42 31.55 33.35"/><polyline class="cls-3" points="92.91 62.6 81.78 68.89 31.55 35.81"/><polyline class="cls-3" points="92.91 65.06 81.78 71.35 31.55 38.27"/><polyline class="cls-3" points="92.91 67.53 81.78 73.82 31.55 40.74"/><polyline class="cls-3" points="92.91 69.99 81.78 76.28 31.55 43.2"/><polyline class="cls-3" points="92.91 72.46 81.78 78.75 31.55 45.67"/><polyline class="cls-3" points="92.91 74.92 81.78 81.21 31.55 48.13"/><polyline class="cls-3" points="92.91 77.39 81.78 83.68 31.55 50.6"/><line class="cls-4" x1="41.07" y1="28.17" x2="41.07" y2="26.85"/><line class="cls-4" x1="45.96" y1="28.81" x2="45.96" y2="27.32"/><line class="cls-4" x1="41.95" y1="26.3" x2="41.95" y2="24.81"/><line class="cls-4" x1="50.67" y1="26.09" x2="50.67" y2="24.6"/><line class="cls-4" x1="83.12" y1="50.62" x2="83.12" y2="49.31"/><line class="cls-4" x1="65.06" y1="40.93" x2="65.06" y2="39.63"/><line class="cls-4" x1="39.41" y1="25.8" x2="39.41" y2="28"/><line class="cls-4" x1="47.4" y1="21.05" x2="47.4" y2="22.57"/><line class="cls-4" x1="83.12" y1="50.62" x2="83.83" y2="51.06"/><line class="cls-4" x1="44.66" y1="21.1" x2="44.66" y2="17.16"/><line class="cls-4" x1="36.74" y1="16.07" x2="36.74" y2="11.84"/><line class="cls-4" x1="39.79" y1="12.67" x2="39.79" y2="10.81"/><line class="cls-4" x1="39.77" y1="19.3" x2="39.77" y2="13.72"/><line class="cls-4" x1="42.92" y1="16.03" x2="42.92" y2="11.91"/><line class="cls-4" x1="39.79" y1="12.77" x2="39.79" y2="10.9"/><line class="cls-4" x1="43.21" y1="17.32" x2="43.21" y2="16"/><line class="cls-4" x1="36.38" y1="17.5" x2="36.38" y2="16.18"/><line class="cls-4" x1="39.5" y1="24.11" x2="39.5" y2="20.2"/><line class="cls-4" x1="35.06" y1="21.14" x2="35.06" y2="17.32"/><polyline class="cls-4" points="41.24 26.93 39.41 28 32.74 23.61 32.74 21.41 35.05 20.06"/><line class="cls-4" x1="41.05" y1="26.88" x2="41.97" y2="26.34"/><line class="cls-4" x1="39.44" y1="24.09" x2="35.06" y2="21.2"/><line class="cls-4" x1="39.78" y1="17.86" x2="43.14" y2="15.89"/><line class="cls-4" x1="39.51" y1="19.57" x2="43.14" y2="17.44"/><g class="cls-5"><path class="cls-4" d="M39.12,14.81c.26.74.06,1.35-.45,1.35s-1.14-.6-1.4-1.35-.05-1.35.46-1.35S38.86,14.06,39.12,14.81Z"/><path class="cls-4" d="M40.45,14.83c-.26.75-.05,1.35.46,1.35s1.13-.6,1.39-1.34.06-1.35-.45-1.35S40.71,14.09,40.45,14.83Z"/></g><line class="cls-4" x1="39.5" y1="20.23" x2="44.7" y2="17.17"/><line class="cls-4" x1="39.41" y1="24.14" x2="44.59" y2="21.1"/><line class="cls-4" x1="36.21" y1="16.18" x2="36.71" y2="15.89"/><line class="cls-4" x1="35.06" y1="17.31" x2="39.44" y2="20.2"/><line class="cls-4" x1="32.74" y1="21.4" x2="39.41" y2="25.8"/><line class="cls-4" x1="42.98" y1="15.83" x2="43.21" y2="16"/><line class="cls-4" x1="36.38" y1="16.53" x2="35.06" y2="17.32"/><line class="cls-4" x1="32.74" y1="22.73" x2="31.55" y2="23.44"/><line class="cls-4" x1="44.72" y1="19.29" x2="47.4" y2="21.05"/><line class="cls-4" x1="39.68" y1="13.87" x2="42.93" y2="11.92"/><line class="cls-4" x1="36.74" y1="11.88" x2="38.02" y2="11.13"/><line class="cls-4" x1="39.68" y1="12.84" x2="41.64" y2="11.69"/><line class="cls-4" x1="39.8" y1="10.95" x2="41.6" y2="9.89"/><line class="cls-4" x1="36.74" y1="11.84" x2="39.77" y2="13.91"/><line class="cls-4" x1="41.53" y1="10.91" x2="42.93" y2="11.84"/><line class="cls-4" x1="43.21" y1="16.35" x2="44.7" y2="17.32"/><line class="cls-4" x1="38" y1="11.63" x2="39.84" y2="12.84"/><line class="cls-4" x1="38.15" y1="9.9" x2="39.79" y2="10.98"/><line class="cls-4" x1="40.67" y1="9.29" x2="41.62" y2="9.91"/><g class="cls-5"><path class="cls-4" d="M38.16,7.79a1.81,1.81,0,0,0-.18.27l.1.29c.11.14.5.27,1.16.08s2-.91,2.15-1.64l-.22-.42a.89.89,0,0,0-.43,0"/></g><polyline class="cls-4" points="38.77 5.1 39.7 5.55 39.99 5.43 40.63 4.53"/><g class="cls-5"><path class="cls-4" d="M41.22,7.16a1.47,1.47,0,0,1,0,.66A1.54,1.54,0,0,1,39.4,9a1.51,1.51,0,0,1-.82-.45l-.06-.05"/><path class="cls-4" d="M38.28,8.12a1.66,1.66,0,0,1-.11-.38A1.55,1.55,0,0,1,39.47,6a1.49,1.49,0,0,1,1.36.47,1.51,1.51,0,0,1,.25.36"/><path class="cls-4" d="M40.86,9.49a1.23,1.23,0,0,0,0-.17.1.1,0,0,0-.09-.07.87.87,0,0,0-.27.05V9.17l.08-.35"/><path class="cls-4" d="M40.12,9.47c0,.07.05.14.06.18s.17.11.3,0"/></g><polyline class="cls-4" points="39.29 10.07 39.29 9.93 39.49 9.59 39.46 9.47 39.09 9.41 38.76 9.21 38.89 8.82"/><line class="cls-4" x1="36.76" y1="15.89" x2="39.78" y2="17.88"/><line class="cls-4" x1="36.41" y1="17.3" x2="39.58" y2="19.39"/><line class="cls-4" x1="38.94" y1="9.22" x2="38" y2="9.84"/><line class="cls-4" x1="41.53" y1="11.74" x2="41.53" y2="9.99"/><line class="cls-4" x1="38" y1="11.63" x2="38" y2="9.83"/><line class="cls-4" x1="65.06" y1="39.63" x2="75.37" y2="46.18"/><line class="cls-4" x1="77.08" y1="40.16" x2="81.36" y2="42.68"/><line class="cls-4" x1="41.95" y1="26.32" x2="45.96" y2="28.87"/><line class="cls-4" x1="41.95" y1="24.76" x2="45.96" y2="27.31"/><line class="cls-4" x1="46.66" y1="22.05" x2="50.66" y2="24.6"/><line class="cls-4" x1="50.67" y1="25.34" x2="76.68" y2="40.28"/><line class="cls-4" x1="66.77" y1="38.23" x2="73.77" y2="42.24"/><polyline class="cls-4" points="87.4 48.15 87.77 47.93 87.77 46.64 81.35 42.95"/><polyline class="cls-4" points="88.68 49.88 86.22 51.33 83.84 49.82"/><line class="cls-4" x1="86.22" y1="53.55" x2="86.22" y2="51.33"/><polyline class="cls-4" points="83.12 50.62 79.59 52.68 41.06 28.17"/><polyline class="cls-4" points="85.26 48.06 79.59 51.38 41.02 26.85"/><line class="cls-4" x1="79.59" y1="52.68" x2="79.59" y2="51.38"/><line class="cls-4" x1="81.34" y1="42.68" x2="75.37" y2="46.18"/><polyline class="cls-4" points="81.36 42.68 81.36 43.93 75.39 47.43 65.06 40.85"/><line class="cls-4" x1="75.37" y1="47.41" x2="75.37" y2="46.19"/><line class="cls-4" x1="77.08" y1="40.16" x2="73.43" y2="42.3"/><line class="cls-4" x1="67.24" y1="38.36" x2="65.06" y2="39.64"/><line class="cls-4" x1="50.67" y1="26.06" x2="45.96" y2="28.82"/><line class="cls-4" x1="50.67" y1="24.6" x2="45.96" y2="27.35"/><line class="cls-4" x1="46.65" y1="22.05" x2="41.94" y2="24.8"/><line class="cls-4" x1="47.4" y1="21.13" x2="39.51" y2="25.74"/><line class="cls-4" x1="87.71" y1="46.63" x2="86.47" y2="47.35"/><text class="cls-6" transform="matrix(0.82, 0.57, -0.86, 0.5, 29.5, 59.91)"><tspan class="cls-7">C</tspan><tspan class="cls-8" x="4.25" y="0">A</tspan><tspan class="cls-9" x="8.42" y="0">THER</tspan><tspan class="cls-10" x="25.37" y="0">I</tspan><tspan class="cls-9" x="27.88" y="0">NE L</tspan><tspan x="42.54" y="0">N</tspan></text><polyline class="cls-4" points="92.91 50.27 81.78 56.56 31.55 23.49"/><polyline class="cls-4" points="85.16 49.03 83.83 49.81 83.83 52.02 86.22 53.55 88.68 52.1 88.68 49.88 87.68 49.24"/><line class="cls-4" x1="81.79" y1="56.57" x2="81.79" y2="86.04"/><line class="cls-4" x1="87.71" y1="81.93" x2="86.9" y2="82.4"/><polyline class="cls-4" points="87.71 81.93 88.22 82.25 92.91 79.49 92.91 50.26 87.77 47.31"/><g class="cls-5"><path class="cls-4" d="M87.71,81.93v-.71a.45.45,0,0,0-.14-.32"/><path class="cls-4" d="M88.23,82.25v-1c0-.25-.22-.58-.72-.29a1.2,1.2,0,0,0-.61,1V83l-5.11,3L74.1,80.71l-9.74-6.65-8.16-5.6L39.65,56.57l-8.1-5.84V23.49"/><path class="cls-4" d="M86.21,47.69A1.33,1.33,0,0,0,85.15,49v.93c0,.36.57.65,1.27.65s1.28-.29,1.28-.65V49a1.33,1.33,0,0,0-1.06-1.31v-.14c0-.06-.09-.14-.22-.14s-.21.08-.21.14Z"/></g><polygon class="cls-11" points="69.08 70.32 65.88 68.22 65.88 65.89 69.08 68 69.08 70.32"/><polygon class="cls-11" points="69.08 67.86 65.88 65.75 65.88 63.42 69.08 65.52 69.08 67.86"/><polygon class="cls-11" points="69.08 65.38 65.88 63.27 65.88 60.95 69.08 63.06 69.08 65.38"/><polygon class="cls-11" points="69.08 62.91 65.88 60.8 65.88 58.48 69.08 60.59 69.08 62.91"/><polygon class="cls-11" points="69.08 60.46 65.88 58.35 65.88 56.02 69.08 58.13 69.08 60.46"/><polygon class="cls-11" points="69.08 58.01 65.88 55.9 65.88 53.57 69.08 55.67 69.08 58.01"/><polygon class="cls-11" points="69.08 55.55 65.88 53.44 65.88 51.11 69.08 53.22 69.08 55.55"/><polygon class="cls-11" points="69.08 53.08 65.88 50.97 65.88 48.65 69.08 50.76 69.08 53.08"/><line class="cls-12" x1="65.88" y1="51.02" x2="69.08" y2="53.13"/><line class="cls-12" x1="65.88" y1="53.48" x2="69.08" y2="55.59"/><line class="cls-12" x1="65.88" y1="55.95" x2="69.08" y2="58.06"/><line class="cls-12" x1="65.88" y1="58.41" x2="69.08" y2="60.52"/><line class="cls-12" x1="65.88" y1="60.87" x2="69.08" y2="62.97"/><line class="cls-12" x1="65.88" y1="63.33" x2="69.08" y2="65.44"/><line class="cls-12" x1="65.88" y1="65.8" x2="69.08" y2="67.91"/><g class="cls-13"><polygon class="cls-14" points="73.65 131.91 74.25 131.91 74.25 132.06 75.31 132.06 75.31 132.25 76.64 132.25 76.64 131.85 77.93 131.85 77.93 131.97 79.52 131.97 79.52 132.68 79.63 132.68 79.63 134.14 79.28 134.14 79.28 138.73 73.65 138.39 73.65 131.91"/><g class="cls-13"><polygon class="cls-16" points="99.69 124.74 99.69 139.97 24.69 135.31 24.73 124.74 99.69 124.74"/></g></g></svg>