<?xml version="1.0" encoding="utf-8"?>
<!-- Generator: Adobe Illustrator 23.0.0, SVG Export Plug-In . SVG Version: 6.00 Build 0)  -->
<svg version="1.1" id="Layer_1" xmlns="http://www.w3.org/2000/svg" xmlns:xlink="http://www.w3.org/1999/xlink" x="0px" y="0px"
	 viewBox="0 0 189.9 92.6" style="enable-background:new 0 0 189.9 92.6;" xml:space="preserve">
<style type="text/css">
	.st0{fill:#D2D3D4;}
	.st1{clip-path:url(#SVGID_2_);}
	.st2{fill:#231F20;}
	.st3{clip-path:url(#SVGID_4_);}
	.st4{fill:none;stroke:#D1D3D4;stroke-width:1.09;stroke-miterlimit:10;}
	.st5{clip-path:url(#SVGID_6_);}
	.st6{enable-background:new    ;}
	.st7{fill:#D1D3D4;}
	.st8{fill:none;stroke:#231F20;stroke-width:0.15;stroke-miterlimit:10;}
	.st9{fill:none;stroke:#231F20;stroke-width:0.14;stroke-miterlimit:10;}
	.st10{clip-path:url(#SVGID_8_);}
	.st11{clip-path:url(#SVGID_10_);}
	.st12{fill:none;stroke:#231F20;stroke-width:0.14;stroke-linejoin:bevel;}
	.st13{clip-path:url(#SVGID_12_);}
	.st14{clip-path:url(#SVGID_14_);}
	.st15{clip-path:url(#SVGID_16_);}
	.st16{clip-path:url(#SVGID_18_);}
	.st17{clip-path:url(#SVGID_20_);}
	.st18{fill:none;stroke:#FFFFFF;stroke-width:0.15;stroke-miterlimit:10;}
</style>
<title>residence_G_4-6_key_horizontal</title>
<g>
	<path class="st0" d="M83.6,43.8c-0.6,0-1-0.4-1-1.1v-1.4H86v1.3c0,0.7-0.3,1.1-0.9,1.1c-0.3,0-0.6-0.2-0.7-0.4
		C84.2,43.6,83.9,43.8,83.6,43.8z M83.2,41.9v0.7c0,0.3,0.2,0.5,0.4,0.5s0.4-0.2,0.4-0.5v-0.7H83.2z M84.6,42.5
		c0,0.3,0.1,0.5,0.4,0.5s0.4-0.2,0.4-0.5v-0.6h-0.8V42.5z"/>
	<path class="st0" d="M83.8,46.2h-1.3v-0.7H86v1.4c0.1,0.5-0.3,1.1-0.8,1.2c-0.1,0-0.2,0-0.3,0c-0.5,0-0.9-0.3-1-0.8l-1.3,0.9v-0.8
		l1.3-0.8L83.8,46.2z M84.4,46.2v0.6c0,0.4,0.2,0.5,0.5,0.5s0.5-0.2,0.5-0.5v-0.6H84.4z"/>
	<path class="st0" d="M82.5,51.2c-0.1-1,0.6-1.8,1.6-1.9c1-0.1,1.8,0.6,1.9,1.6s-0.6,1.8-1.6,1.9c-0.1,0-0.1,0-0.2,0
		c-0.9,0.1-1.7-0.6-1.7-1.5C82.5,51.3,82.5,51.3,82.5,51.2z M85.4,51.2c0-0.5-0.4-0.9-1.1-0.9s-1.1,0.3-1.1,0.9s0.5,0.9,1.1,0.9
		S85.4,51.8,85.4,51.2z"/>
	<path class="st0" d="M86,56.1l-3.4,1.3v-0.7l0.8-0.3v-1.3l-0.8-0.3v-0.7l3.4,1.3V56.1z M84,55.4v0.8l1.1-0.4L84,55.4z"/>
	<path class="st0" d="M86,59v1.2c0,0.9-0.8,1.7-1.7,1.7c-0.9,0-1.7-0.8-1.7-1.7V59H86z M83.2,60.2c0,0.6,0.5,1.1,1.1,1.1
		c0.6,0,1.1-0.5,1.1-1.1v-0.5h-2.2L83.2,60.2z"/>
	<path class="st0" d="M86,65.7l-2.3,0.6l2.3,0.6v0.7l-3.4-0.9V66l2.2-0.6l-2.2-0.6v-0.6l3.4-0.9V64l-2.3,0.6l2.3,0.6V65.7z"/>
	<path class="st0" d="M86,70.7L82.6,72v-0.7l0.8-0.3v-1.3l-0.8-0.3v-0.7L86,70V70.7z M84,69.9v0.8l1.1-0.4L84,69.9z"/>
	<path class="st0" d="M86,75.3v0.7l-2.1-1.2h-1.3v-0.7h1.3l2.1-1.2v0.8l-1.4,0.8L86,75.3z"/>
	<path class="st0" d="M180.9,35.1v0.7h-2.8v1.6h-0.6v-2.3H180.9z"/>
	<path class="st0" d="M180.9,40.8l-3.4,1.3v-0.7l0.8-0.3v-1.3l-0.8-0.3v-0.7l3.4,1.3V40.8z M179,40v0.8l1.1-0.4L179,40z"/>
	<path class="st0" d="M177.6,43.7h3.4V46h-0.6v-1.6h-0.9v1.4h-0.6v-1.4h-1.3V43.7z"/>
	<path class="st0" d="M180.9,49.2l-3.4,1.3v-0.7l0.8-0.3v-1.3l-0.8-0.3v-0.7l3.4,1.3V49.2z M178.9,48.4v0.8l1.1-0.4L178.9,48.4z"/>
	<path class="st0" d="M180.9,53.9v0.7l-2.1-1.2h-1.3v-0.7h1.3l2.1-1.2v0.8l-1.4,0.8L180.9,53.9z"/>
	<path class="st0" d="M180.9,58.5h-0.6v-1.6h-0.7v1.5H179v-1.5h-0.8v1.6h-0.6v-2.3h3.4L180.9,58.5z"/>
	<path class="st0" d="M180.9,60.1V63h-0.6v-1.1h-2.8v-0.7h2.8v-1.1H180.9z"/>
	<path class="st0" d="M180.9,64.4v2.9h-0.6v-1.1h-2.8v-0.7h2.8v-1.1H180.9z"/>
	<path class="st0" d="M180.9,71.3h-0.6v-1.6h-0.7v1.5H179v-1.5h-0.8v1.6h-0.6V69h3.4L180.9,71.3z"/>
	<path class="st0" d="M178.5,75.9c-0.3,0.1-0.5,0.4-0.4,0.7c0,0.3,0.2,0.6,0.4,0.6s0.3-0.1,0.4-0.4l0.1-0.6c0-0.5,0.4-0.9,0.9-0.8
		c0.6,0,1,0.6,1,1.1c0,0,0,0,0,0.1c0.1,0.6-0.4,1.2-1,1.3v-0.7c0.3-0.1,0.4-0.4,0.4-0.6c0-0.3-0.2-0.5-0.4-0.5s-0.3,0.1-0.4,0.4
		l-0.1,0.6c-0.1,0.6-0.4,0.9-0.9,0.9c-0.6,0-1.1-0.5-1.1-1.2c0,0,0-0.1,0-0.1c-0.1-0.7,0.4-1.3,1-1.4L178.5,75.9L178.5,75.9z"/>
	<path class="st0" d="M180.9,79.3v2.9h-0.6v-1.1h-2.8v-0.7h2.8v-1.1H180.9z"/>
	<path class="st0" d="M112.4,39.3h0.7v2.8h1.6v0.6h-2.3V39.3z"/>
	<path class="st0" d="M118.6,39.3v0.6H117v0.7h1.4v0.6H117v0.8h1.6v0.6h-2.3v-3.4H118.6z"/>
	<path class="st0" d="M121.6,42.7c-1,0.1-1.8-0.6-1.9-1.6c-0.1-1,0.6-1.8,1.6-1.9c1-0.1,1.8,0.6,1.9,1.6c0,0.1,0,0.1,0,0.2
		c0.1,0.9-0.6,1.7-1.5,1.7C121.7,42.7,121.7,42.7,121.6,42.7z M121.6,39.9c-0.5,0-0.9,0.5-0.9,1.1s0.3,1.1,0.9,1.1s0.9-0.5,0.9-1.1
		S122.2,39.9,121.6,39.9z"/>
	<path class="st0" d="M127.7,42.7h-0.6l-1.6-2.2v2.2h-0.7v-3.4h0.7l1.5,2.1v-2.1h0.7L127.7,42.7z"/>
	<path class="st0" d="M131.2,39.3l1.3,3.4h-0.7l-0.3-0.8h-1.3l-0.3,0.8h-0.7l1.3-3.4H131.2z M130.4,41.3h0.8l-0.4-1.1L130.4,41.3z"
		/>
	<path class="st0" d="M134.6,41.4v1.3H134v-3.4h1.4c0.6-0.1,1.1,0.3,1.2,0.9c0,0.1,0,0.1,0,0.2c0,0.5-0.3,0.9-0.8,1l0.9,1.3h-0.8
		l-0.9-1.3H134.6z M134.6,40.8h0.6c0.4,0,0.5-0.2,0.5-0.5s-0.2-0.5-0.5-0.5h-0.6V40.8z"/>
	<path class="st0" d="M138.1,39.3h1.2c0.9,0,1.7,0.8,1.7,1.7c0,0.9-0.8,1.7-1.7,1.7h-1.2V39.3z M139.3,42.1c0.6,0,1.1-0.5,1.1-1.1
		c0-0.6-0.5-1.1-1.1-1.1h-0.5v2.1H139.3z"/>
	<path class="st0" d="M145.4,41.7c0.1,0.3,0.4,0.5,0.7,0.4c0.3,0,0.6-0.2,0.6-0.4s-0.1-0.3-0.4-0.4l-0.6-0.1
		c-0.5-0.1-0.9-0.4-0.9-0.9c0-0.6,0.6-1,1.2-1c0,0,0,0,0,0c0.6-0.1,1.2,0.4,1.3,1h-0.7c-0.1-0.3-0.3-0.4-0.6-0.4
		c-0.3,0-0.5,0.2-0.5,0.4s0.1,0.3,0.4,0.4l0.6,0.1c0.6,0.1,0.9,0.4,0.9,1c0,0.7-0.5,1-1.2,1c-0.7,0.1-1.3-0.4-1.4-1L145.4,41.7z"/>
	<path class="st0" d="M148.6,39.3h2.9v0.6h-1.1v2.8h-0.7v-2.8h-1.1V39.3z"/>
	<path class="st0" d="M109.9,74.6c0.7,0,1.3,0.4,1.4,1.1h-0.7c-0.1-0.3-0.4-0.5-0.7-0.5c-0.5,0-0.8,0.5-0.8,1.1s0.3,1.1,0.8,1.1
		c0.3,0,0.6-0.2,0.7-0.5h0.7c-0.1,0.7-0.7,1.2-1.4,1.1c-1-0.1-1.7-1-1.6-1.9C108.4,75.3,109.1,74.6,109.9,74.6L109.9,74.6z"/>
	<path class="st0" d="M114.7,74.6l1.3,3.4h-0.7l-0.3-0.8h-1.3l-0.3,0.8h-0.7l1.3-3.4H114.7z M113.9,76.6h0.8l-0.4-1.1L113.9,76.6z"
		/>
	<path class="st0" d="M117,74.6h2.9v0.6h-1.1V78h-0.7v-2.8H117V74.6z"/>
	<path class="st0" d="M124.5,74.6V78h-0.7v-1.4h-1.5V78h-0.7v-3.4h0.7v1.3h1.5v-1.3H124.5z"/>
	<path class="st0" d="M128.7,74.6v0.6h-1.6V76h1.5v0.6h-1.4v0.8h1.6V78h-2.3v-3.4H128.7z"/>
	<path class="st0" d="M131.1,76.7V78h-0.7v-3.4h1.4c0.5-0.1,1.1,0.2,1.2,0.8c0,0.1,0,0.2,0,0.3c0,0.5-0.3,0.9-0.8,1l0.9,1.3h-0.8
		l-0.8-1.3L131.1,76.7z M131.1,76.1h0.6c0.4,0,0.5-0.2,0.5-0.5s-0.2-0.5-0.5-0.5h-0.6V76.1z"/>
	<path class="st0" d="M135.4,78h-0.7v-3.4h0.7V78z"/>
	<path class="st0" d="M140.1,78h-0.6l-1.6-2.3V78h-0.7v-3.4h0.7l1.5,2.1v-2.1h0.7L140.1,78z"/>
	<path class="st0" d="M144.2,74.6v0.6h-1.6V76h1.4v0.6h-1.4v0.8h1.6V78H142v-3.4H144.2z"/>
	<path class="st0" d="M148.4,74.6h0.7v2.8h1.6V78h-2.3V74.6z"/>
	<path class="st0" d="M155.2,78h-0.6l-1.6-2.2V78h-0.7v-3.4h0.6l1.5,2.1v-2.1h0.7L155.2,78L155.2,78z"/>
</g>
<g id="_4-6_H">
	<g>
		<defs>
			<rect id="SVGID_1_" x="93.5" y="50" width="76.6" height="17.3"/>
		</defs>
		<clipPath id="SVGID_2_">
			<use xlink:href="#SVGID_1_"  style="overflow:visible;"/>
		</clipPath>
		<g class="st1">
			<polygon class="st2" points="130.9,51.1 142.9,51.1 142.9,53.6 142.6,53.6 142.6,55.6 142.5,55.6 142.5,56.8 142.2,56.8 
				142.2,56.6 141.2,56.6 141.2,56.8 139.9,56.8 139.1,56.8 138.6,56.8 138.6,56.6 136,56.6 136,56.7 133.7,56.7 133.7,56.8 
				130.8,56.8 			"/>
			<g>
				<defs>
					<rect id="SVGID_3_" x="93.5" y="50" width="76.6" height="17.3"/>
				</defs>
				<clipPath id="SVGID_4_">
					<use xlink:href="#SVGID_3_"  style="overflow:visible;"/>
				</clipPath>
				<g class="st3">
					<polygon class="st4" points="168.3,51.1 168.3,66.1 94.4,61.5 94.4,51.1 					"/>
				</g>
			</g>
		</g>
	</g>
	<g>
		<defs>
			<rect id="SVGID_5_" x="6.7" y="4.7" width="66.4" height="73.1"/>
		</defs>
		<clipPath id="SVGID_6_">
			<use xlink:href="#SVGID_5_"  style="overflow:visible;"/>
		</clipPath>
		<g class="st5">
			<g class="st6">
				<path class="st7" d="M12.6,56l0.5,0.3l-1.9,1.3l1.1,0.7l-0.4,0.3l-1.6-1L12.6,56z"/>
				<path class="st7" d="M17.1,58.9l-0.4,0.3l-1.1-0.7L15,58.8l1,0.6l-0.4,0.3l-1-0.6L14,59.4l1.1,0.7l-0.4,0.3l-1.6-1l2.4-1.5
					L17.1,58.9z"/>
				<path class="st7" d="M17,61.9c-0.7-0.4-0.6-1,0.1-1.5c0.7-0.5,1.7-0.5,2.3-0.1c0.7,0.4,0.6,1-0.1,1.5
					C18.7,62.3,17.7,62.3,17,61.9z M19,60.6c-0.4-0.2-0.9-0.2-1.4,0.1s-0.5,0.7-0.2,0.9c0.4,0.2,0.9,0.2,1.4-0.1S19.4,60.8,19,60.6z
					"/>
				<path class="st7" d="M21.5,64.6l-0.4-0.2l0.4-1.7l-1.6,1l-0.5-0.3l2.4-1.5l0.5,0.3l-0.4,1.6l1.5-1l0.5,0.3L21.5,64.6z"/>
				<path class="st7" d="M26.4,64.7L25,66.8l-0.5-0.3l0.4-0.5L24,65.4l-0.8,0.2l-0.5-0.3l3.3-1L26.4,64.7z M24.5,65.3l0.6,0.4
					l0.5-0.7L24.5,65.3z"/>
				<path class="st7" d="M27.6,67.3l-0.9,0.6l-0.5-0.3l2.4-1.5l1,0.6c0.5,0.3,0.6,0.7,0.1,1c-0.4,0.2-0.8,0.3-1.2,0.1l-0.3,1
					l-0.6-0.3l0.3-0.9L27.6,67.3z M28,67l0.5,0.3c0.2,0.2,0.5,0.1,0.7,0c0.2-0.1,0.2-0.3,0-0.5l-0.5-0.3L28,67z"/>
				<path class="st7" d="M31.7,68l0.8,0.5c0.7,0.5,0.7,1,0,1.5s-1.6,0.5-2.4,0l-0.8-0.5L31.7,68z M30.6,69.7c0.5,0.3,1,0.2,1.4,0
					c0.5-0.3,0.5-0.6,0-0.9l-0.3-0.2l-1.5,1L30.6,69.7z"/>
			</g>
			<g class="st6">
				<path class="st7" d="M35.4,72.5c-0.1,0.2-0.1,0.3,0.2,0.5c0.2,0.2,0.5,0.2,0.7,0.1c0.1-0.1,0.1-0.2,0-0.4l-0.3-0.3
					c-0.3-0.3-0.3-0.5,0-0.8c0.4-0.3,1.1-0.3,1.6,0.1c0.5,0.3,0.6,0.7,0.3,1l-0.5-0.3c0.1-0.1,0.1-0.3-0.2-0.5
					c-0.2-0.1-0.5-0.2-0.7-0.1c-0.1,0.1-0.1,0.2,0,0.3l0.3,0.3c0.3,0.3,0.3,0.6,0,0.8c-0.5,0.3-1.1,0.2-1.6-0.1
					c-0.5-0.3-0.6-0.7-0.3-1.1L35.4,72.5z"/>
			</g>
			<g class="st6">
				<path class="st7" d="M39.6,72.9l2,1.3l-0.4,0.3L40.4,74l-1.9,1.3L38,74.9l1.9-1.3l-0.8-0.5L39.6,72.9z"/>
			</g>
			<line class="st8" x1="60" y1="46.3" x2="60" y2="42.9"/>
			<line class="st8" x1="14.3" y1="18.9" x2="14.3" y2="16.1"/>
			<line class="st8" x1="23.8" y1="22.6" x2="23.8" y2="24.2"/>
			<line class="st8" x1="19.6" y1="20.2" x2="19.6" y2="21.8"/>
			<line class="st8" x1="24.9" y1="22" x2="24.9" y2="23.6"/>
			<line class="st9" x1="24.9" y1="23.5" x2="23.8" y2="24.2"/>
			<line class="st9" x1="24.9" y1="22" x2="23.8" y2="22.7"/>
			<line class="st9" x1="53.7" y1="35.6" x2="49.1" y2="38.3"/>
			<line class="st9" x1="57.2" y1="38.4" x2="53.3" y2="40.7"/>
			<line class="st8" x1="30.4" y1="25.2" x2="30.4" y2="26.8"/>
			<line class="st9" x1="34.3" y1="23.9" x2="52.9" y2="36.1"/>
			<line class="st9" x1="53.7" y1="35.6" x2="57.2" y2="37.9"/>
			<line class="st9" x1="34.3" y1="23.4" x2="53.2" y2="35.9"/>
			<line class="st9" x1="12" y1="18" x2="14" y2="19.1"/>
			<line class="st9" x1="19.6" y1="20.2" x2="23.8" y2="22.7"/>
			<line class="st9" x1="24.9" y1="22" x2="30.5" y2="25.3"/>
			<line class="st9" x1="24.9" y1="23.5" x2="30.4" y2="26.8"/>
			<line class="st9" x1="49.2" y1="38.3" x2="53.3" y2="40.7"/>
			<line class="st8" x1="59.9" y1="36.5" x2="59.9" y2="34.8"/>
			<polyline class="st8" points="52.9,43.9 52.3,43.5 51.4,44 15.4,23.1 15.4,21.4 			"/>
			<polyline class="st8" points="24.5,17.4 20.9,15.1 12.8,19.8 51.4,42.2 			"/>
			<line class="st8" x1="51.4" y1="42.2" x2="51.4" y2="44"/>
			<line class="st8" x1="52.3" y1="41.7" x2="51.4" y2="42.2"/>
			<polyline class="st8" points="52.3,43.5 52.3,41.7 49.2,39.9 			"/>
			<line class="st8" x1="60" y1="49.6" x2="60" y2="47.6"/>
			<polyline class="st8" points="64.2,42.2 66.6,43.8 66.6,45.7 60,49.6 52.9,45.5 52.9,43.5 55.8,41.9 			"/>
			<polyline class="st8" points="66.6,43.8 60,47.6 52.9,43.5 			"/>
			<polyline class="st9" points="13.5,20.2 13.5,21.2 15.4,22.3 			"/>
			<line class="st9" x1="19.6" y1="21.8" x2="23.8" y2="24.2"/>
			<line class="st9" x1="49.1" y1="39.9" x2="49.1" y2="38.3"/>
			<line class="st9" x1="53.3" y1="43.3" x2="53.3" y2="40.7"/>
			<polyline class="st9" points="62.7,35.6 60,37.2 57.2,35.7 			"/>
			<polyline class="st8" points="62.7,39.1 63,39.3 63,40.5 60,42.2 57,40.5 57,39.4 57.2,39.2 			"/>
			<line class="st8" x1="60" y1="42.2" x2="60" y2="37.2"/>
			<polyline class="st8" points="63,39.7 64.2,40.4 64.2,43.8 60,46.3 55.8,43.9 55.8,40.5 57,39.8 			"/>
			<polyline class="st8" points="64.2,40.4 60,42.9 55.8,40.5 			"/>
			<polyline class="st8" points="12,18 7.9,20.4 7.9,49.1 			"/>
			<polyline class="st8" points="16.6,15.3 19.4,13.7 24.8,17.2 			"/>
			<line class="st8" x1="60" y1="50.5" x2="59.9" y2="76.5"/>
			<line class="st8" x1="59.9" y1="76.4" x2="32.2" y2="60.4"/>
			<polyline class="st8" points="67.8,50.3 60,54.8 8,24.8 			"/>
			<polyline class="st8" points="67.8,52.4 60,57 8,26.9 			"/>
			<polyline class="st8" points="67.8,54.6 60,59.2 8,29.1 			"/>
			<polyline class="st8" points="67.8,56.8 60,61.3 8,31.2 			"/>
			<polyline class="st8" points="67.8,58.9 60,63.5 8,33.4 			"/>
			<polyline class="st8" points="67.8,61.1 60,65.7 8,35.6 			"/>
			<polyline class="st8" points="67.8,63.2 60,67.8 8,37.7 			"/>
			<polyline class="st8" points="67.8,65.4 60,70 8,39.9 			"/>
			<line class="st8" x1="67.8" y1="67.6" x2="66" y2="68.7"/>
			<polyline class="st8" points="61.8,71.1 60,72.2 8,42 			"/>
			<line class="st8" x1="66" y1="70.8" x2="67.8" y2="69.7"/>
			<polyline class="st8" points="61.8,73.2 60,74.3 8,44.2 			"/>
			<polyline class="st8" points="67.8,48.1 60,52.7 8,22.6 			"/>
			<line class="st8" x1="30" y1="59.1" x2="8" y2="46.4"/>
			<polyline class="st9" points="13.2,14.1 12,14.8 12,18 			"/>
			<polyline class="st9" points="15.5,14.1 16.6,14.8 16.6,17.6 			"/>
			<polyline class="st9" points="12,14.8 14.3,16.1 16.6,14.8 			"/>
			<polyline class="st8" points="60.9,33.5 61.5,33.9 61.5,35.6 59.9,36.5 58.4,35.6 58.4,33.9 59.2,33.4 			"/>
			<polyline class="st9" points="61.5,33.9 59.9,34.8 58.4,33.9 			"/>
			<g>
				<defs>
					<rect id="SVGID_7_" x="6.7" y="4.7" width="66.4" height="73.1"/>
				</defs>
				<clipPath id="SVGID_8_">
					<use xlink:href="#SVGID_7_"  style="overflow:visible;"/>
				</clipPath>
				<g class="st10">
					<path class="st8" d="M58.5,32.1c-0.1,0.1-0.1,0.2-0.2,0.2l0.1,0.2c0.1,0.1,0.4,0.2,1,0.1s1.8-0.8,1.9-1.5l-0.2-0.4
						c-0.1,0-0.2,0-0.4,0"/>
				</g>
			</g>
			<polyline class="st8" points="59,29.7 59.9,30.1 60.1,30 60.7,29.2 			"/>
			<g>
				<defs>
					<rect id="SVGID_9_" x="6.7" y="4.7" width="66.4" height="73.1"/>
				</defs>
				<clipPath id="SVGID_10_">
					<use xlink:href="#SVGID_9_"  style="overflow:visible;"/>
				</clipPath>
				<g class="st11">
					<path class="st8" d="M61.2,31.5c0,0.2,0,0.4,0,0.6c-0.2,0.7-0.9,1.2-1.6,1.1c-0.3-0.1-0.5-0.2-0.7-0.4h-0.1"/>
					<path class="st8" d="M58.6,32.4c0-0.1-0.1-0.2-0.1-0.3c-0.1-0.7,0.4-1.4,1.1-1.5c0,0,0,0,0,0c0.4-0.1,0.9,0.1,1.2,0.4
						c0.1,0.1,0.2,0.2,0.2,0.3"/>
					<path class="st8" d="M59.3,38.2c0.2,0.7,0,1.2-0.4,1.2s-1-0.5-1.2-1.2s0-1.2,0.4-1.2S59.1,37.6,59.3,38.2z"/>
					<path class="st8" d="M60.5,38.3c-0.2,0.7,0,1.2,0.4,1.2s1-0.5,1.2-1.2s0-1.2-0.4-1.2S60.8,37.6,60.5,38.3z"/>
					<path class="st12" d="M60.9,33.6c0,0,0-0.1,0-0.2c0,0,0-0.1-0.1-0.1c-0.1,0-0.2,0-0.2,0v-0.1l0.1-0.3"/>
					<path class="st9" d="M60.2,33.5c0,0.1,0,0.1,0.1,0.2s0.2,0.1,0.3,0"/>
				</g>
			</g>
			<polyline class="st9" points="59.5,34.1 59.5,34 59.7,33.7 59.7,33.5 59.3,33.5 59,33.3 59.2,33 			"/>
			<polyline class="st8" points="58.4,35 57.2,35.7 57.2,39.3 60,40.9 62.7,39.3 62.7,35.6 61.5,34.9 			"/>
			<g>
				<defs>
					<rect id="SVGID_11_" x="6.7" y="4.7" width="66.4" height="73.1"/>
				</defs>
				<clipPath id="SVGID_12_">
					<use xlink:href="#SVGID_11_"  style="overflow:visible;"/>
				</clipPath>
				<g class="st13">
					<path class="st9" d="M14.2,12.9c-0.5,0.1-0.9,0.6-0.9,1.1v0.8c0,0.3,0.5,0.6,1.1,0.6s1.1-0.3,1.1-0.6V14c0-0.6-0.4-1-0.9-1.1
						v-0.1c0-0.1-0.1-0.1-0.2-0.1s-0.2,0.1-0.2,0.1L14.2,12.9z"/>
				</g>
			</g>
			<polyline class="st8" points="67.8,45.9 60,50.5 8,20.4 			"/>
			<polyline class="st8" points="32.2,60.8 30.6,59.9 29.3,60.7 31.2,61.8 32.2,61.2 			"/>
			<line class="st8" x1="32.2" y1="60.8" x2="30.6" y2="59.9"/>
			<line class="st8" x1="32.2" y1="62" x2="31.5" y2="61.6"/>
			<g>
				<defs>
					<rect id="SVGID_13_" x="6.7" y="4.7" width="66.4" height="73.1"/>
				</defs>
				<clipPath id="SVGID_14_">
					<use xlink:href="#SVGID_13_"  style="overflow:visible;"/>
				</clipPath>
				<g class="st14">
					<path class="st8" d="M31,58.2c-0.2,0.2-0.3,0.4-0.3,0.6v1.1"/>
				</g>
			</g>
			<polyline class="st8" points="30.4,61.3 30,61.5 7.9,49.1 			"/>
			<line class="st8" x1="30" y1="61.5" x2="30" y2="61.1"/>
			<g>
				<defs>
					<rect id="SVGID_15_" x="6.7" y="4.7" width="66.4" height="73.1"/>
				</defs>
				<clipPath id="SVGID_16_">
					<use xlink:href="#SVGID_15_"  style="overflow:visible;"/>
				</clipPath>
				<g class="st15">
					<path class="st8" d="M66,73v-4.2l-4.2,2.3v4.3L60,76.5l-14-6.6l-11.3-5.7l-2.6-1.4v-2.9c-0.1-0.7-0.5-1.3-1.1-1.6
						c-0.3-0.2-0.8-0.1-1,0.2C30,58.5,30,58.7,30,58.8v1.4"/>
				</g>
			</g>
			<polyline class="st8" points="63,73.2 63,72.2 62.3,72.6 62.3,73.6 			"/>
			<g>
				<defs>
					<rect id="SVGID_17_" x="6.7" y="4.7" width="66.4" height="73.1"/>
				</defs>
				<clipPath id="SVGID_18_">
					<use xlink:href="#SVGID_17_"  style="overflow:visible;"/>
				</clipPath>
				<g class="st16">
					<path class="st8" d="M66.6,45.2l1.2,0.8v25.9L66,73c-0.9-0.3-1.9-0.2-2.8,0.2l-1,0.6c-0.2,0.1-0.3,0.2-0.4,0.3"/>
				</g>
			</g>
			<polyline class="st9" points="30.4,26.8 34.3,24.5 34.3,23 25.2,17 19.6,20.2 			"/>
			<line class="st9" x1="34.3" y1="23" x2="30.4" y2="25.2"/>
			<g>
				<defs>
					<rect id="SVGID_19_" x="6.7" y="4.7" width="66.4" height="73.1"/>
				</defs>
				<clipPath id="SVGID_20_">
					<use xlink:href="#SVGID_19_"  style="overflow:visible;"/>
				</clipPath>
				<g class="st17">
					<g class="st6">
						<path class="st7" d="M154.1,50.9c0.5,0.4,0.5,0.8,0.1,1.1l-0.5-0.3c0.1-0.2,0.1-0.4-0.1-0.6c-0.4-0.3-0.9-0.2-1.4,0.1
							c-0.5,0.3-0.6,0.6-0.2,0.9c0.3,0.2,0.6,0.2,0.9,0.1l0.5,0.3c-0.6,0.2-1.2,0.2-1.8-0.2c-0.6-0.4-0.6-1,0.2-1.5
							S153.5,50.5,154.1,50.9z"/>
					</g>
					<g class="st6">
						<path class="st7" d="M157.3,53.2l-1.5,2l-0.5-0.3l0.4-0.5l-0.9-0.6l-0.8,0.2l-0.5-0.3l3.3-0.8L157.3,53.2z M155.4,53.7L156,54
							l0.5-0.7L155.4,53.7z"/>
					</g>
					<g class="st6">
						<path class="st7" d="M159,54.4l2,1.4l-0.4,0.3l-0.7-0.5l-2,1.1l-0.5-0.3l2-1.1l-0.7-0.5L159,54.4z"/>
						<path class="st7" d="M164.2,58l-2.4,1.4l-0.5-0.3l1-0.6l-1-0.7l-1,0.6l-0.5-0.3l2.4-1.4l0.5,0.3l-1,0.6l1,0.7l1-0.6L164.2,58z
							"/>
						<path class="st7" d="M167.1,60l-0.4,0.3l-1.1-0.8l-0.5,0.3l1,0.7l-0.4,0.2l-1-0.7l-0.6,0.3l1.1,0.8l-0.4,0.3l-1.6-1.1l2.4-1.4
							L167.1,60z"/>
						<path class="st7" d="M167.3,62.1l-0.9,0.5l-0.5-0.3l2.4-1.4l0.9,0.7c0.5,0.3,0.5,0.7,0,1c-0.4,0.2-0.8,0.2-1.2,0l-0.3,1
							l-0.5-0.4l0.3-0.9L167.3,62.1z M167.8,61.8l0.4,0.3c0.2,0.2,0.5,0.2,0.7,0.1c0.2-0.1,0.2-0.3,0-0.4l-0.4-0.3L167.8,61.8z"/>
						<path class="st7" d="M169.4,64.7l-0.5-0.3l2.4-1.4l0.5,0.3L169.4,64.7z"/>
						<path class="st7" d="M172.7,67l-0.4-0.3l0.5-1.7l-1.6,0.9l-0.5-0.3l2.4-1.4l0.4,0.3l-0.5,1.6l1.5-0.9l0.5,0.3L172.7,67z"/>
						<path class="st7" d="M178,67.6l-0.4,0.3l-1.1-0.8l-0.5,0.3l1,0.7l-0.4,0.2l-1-0.7L175,68l1.1,0.8l-0.4,0.3l-1.6-1.1l2.4-1.4
							L178,67.6z"/>
						<path class="st7" d="M181,69.6l0.5,0.3l-2,1.1l1.1,0.7l-0.4,0.3l-1.6-1.1L181,69.6z"/>
					</g>
					<g class="st6">
						<path class="st7" d="M183.3,74.3l-0.4-0.3l0.5-1.7l-1.6,0.9l-0.5-0.3l2.4-1.4l0.4,0.3l-0.5,1.6l1.5-0.9l0.5,0.3L183.3,74.3z"
							/>
					</g>
					<path class="st9" d="M204,71.6v-0.9c0-0.2-0.2-0.5-0.6-0.2c-0.3,0.2-0.5,0.5-0.5,0.8v1l-5.1,3l-6.8-4.7l-8.6-5.9l-7.2-4.9
						l-10.6-7.3l-15.2-11V15.3l1-0.6"/>
					<path class="st9" d="M155.9,7.7c0.2,0.7,0.1,1.2-0.4,1.2s-1-0.5-1.2-1.2s0-1.2,0.4-1.2S155.7,7,155.9,7.7z"/>
					<path class="st9" d="M157.1,7.7c-0.2,0.6-0.1,1.2,0.4,1.2s1-0.5,1.2-1.2s0-1.2-0.4-1.2S157.3,7.1,157.1,7.7z"/>
					<path class="st9" d="M155.1,1.5c0,0.1-0.1,0.2-0.2,0.2L155,2c0.1,0.1,0.4,0.2,1,0.1s1.8-0.8,1.9-1.5l-0.2-0.4
						c-0.1,0-0.3,0-0.4,0"/>
					<path class="st9" d="M157.8,0.9c0,0.2,0,0.4,0,0.6c-0.2,0.7-0.9,1.2-1.6,1.1c-0.3-0.1-0.5-0.2-0.7-0.4h-0.1"/>
					<path class="st9" d="M155.2,1.8c0-0.1-0.1-0.2-0.1-0.3c-0.1-0.7,0.4-1.4,1.1-1.5c0,0,0,0,0,0c0.4-0.1,0.9,0.1,1.2,0.4
						c0.1,0.1,0.2,0.2,0.2,0.3"/>
					<path class="st9" d="M157.4,3c0,0,0-0.1,0-0.2c0,0,0-0.1-0.1-0.1c-0.1,0-0.2,0-0.2,0V2.7l0.1-0.3"/>
					<path class="st9" d="M156.8,3c0,0.1,0.1,0.1,0.1,0.2s0.1,0.1,0.3,0"/>
				</g>
			</g>
			<polygon class="st2" points="33.2,50.2 33.2,56.7 25.1,52 25.1,45.5 			"/>
			<line class="st18" x1="25.1" y1="47.6" x2="33.2" y2="52.3"/>
			<line class="st18" x1="25.1" y1="49.8" x2="33.2" y2="54.5"/>
		</g>
	</g>
</g>
</svg>
