<?xml version="1.0" encoding="utf-8"?>
<!-- Generator: Adobe Illustrator 23.0.0, SVG Export Plug-In . SVG Version: 6.00 Build 0)  -->
<svg version="1.1" id="Layer_1" xmlns="http://www.w3.org/2000/svg" xmlns:xlink="http://www.w3.org/1999/xlink" x="0px" y="0px"
	 viewBox="0 0 123.3 164.8" style="enable-background:new 0 0 123.3 164.8;" xml:space="preserve">
<style type="text/css">
	.st0{fill:#D2D3D4;}
	.st1{fill:#231F20;}
	.st2{clip-path:url(#SVGID_2_);}
	.st3{fill:none;stroke:#D1D3D4;stroke-width:1.09;stroke-miterlimit:10;}
	.st4{clip-path:url(#SVGID_4_);}
	.st5{fill:none;stroke:#231F20;stroke-width:0.15;stroke-miterlimit:10;}
	.st6{enable-background:new    ;}
	.st7{fill:#D1D3D4;}
	.st8{fill:none;stroke:#231F20;stroke-width:0.14;stroke-miterlimit:10;}
	.st9{clip-path:url(#SVGID_6_);}
	.st10{clip-path:url(#SVGID_8_);}
	.st11{clip-path:url(#SVGID_10_);}
	.st12{clip-path:url(#SVGID_12_);}
	.st13{clip-path:url(#SVGID_14_);}
	.st14{fill:none;stroke:#FFFFFF;stroke-width:0.15;stroke-miterlimit:10;}
</style>
<title>residence_L_4-6_key</title>
<g>
	<g>
		<path class="st0" d="M14.3,117.1c-0.6,0-1-0.4-1-1.1v-1.4h3.4v1.3c0,0.7-0.3,1.1-0.9,1.1c-0.3,0-0.6-0.2-0.7-0.4
			C14.9,116.9,14.6,117.1,14.3,117.1z M13.9,115.2v0.7c0,0.3,0.2,0.5,0.4,0.5s0.4-0.2,0.4-0.5v-0.7H13.9z M15.3,115.8
			c0,0.3,0.1,0.5,0.4,0.5s0.4-0.2,0.4-0.5v-0.6h-0.8L15.3,115.8z"/>
		<path class="st0" d="M14.6,119.5h-1.3v-0.7h3.4v1.4c0.1,0.5-0.3,1.1-0.8,1.2c-0.1,0-0.2,0-0.3,0c-0.5,0-0.9-0.3-1-0.8l-1.3,0.9
			v-0.8l1.3-0.8L14.6,119.5z M15.1,119.5v0.7c0,0.3,0.2,0.5,0.5,0.5s0.5-0.2,0.5-0.5v-0.7H15.1z"/>
		<path class="st0" d="M13.3,124.6c0-0.9,0.8-1.6,1.7-1.6c0,0,0.1,0,0.1,0c0.9-0.1,1.7,0.6,1.7,1.5c0.1,0.9-0.6,1.7-1.5,1.7
			c-0.1,0-0.2,0-0.3,0c-0.9,0.1-1.7-0.6-1.7-1.5C13.3,124.7,13.3,124.6,13.3,124.6z M16.1,124.6c0-0.5-0.4-0.9-1.1-0.9
			s-1.1,0.3-1.1,0.9s0.5,0.9,1.1,0.9S16.1,125.1,16.1,124.6z"/>
		<path class="st0" d="M16.7,129.4l-3.4,1.3V130l0.8-0.3v-1.3l-0.8-0.3v-0.7l3.4,1.3V129.4z M14.7,128.7v0.8l1.1-0.4L14.7,128.7z"/>
		<path class="st0" d="M16.7,132.4v1.2c0.1,0.9-0.6,1.6-1.5,1.7c-0.1,0-0.2,0-0.2,0c-0.9,0.1-1.6-0.6-1.7-1.4c0-0.1,0-0.2,0-0.2
			v-1.2H16.7z M13.9,133.5c0,0.6,0.4,1,1,1c0,0,0,0,0.1,0c0.6,0,1-0.4,1.1-0.9c0,0,0,0,0-0.1v-0.5h-2.1V133.5z"/>
		<path class="st0" d="M16.7,139l-2.3,0.6l2.3,0.6v0.7l-3.4-0.8v-0.6l2.2-0.6l-2.2-0.6v-0.6l3.4-0.9v0.7l-2.3,0.6l2.3,0.6L16.7,139z
			"/>
		<path class="st0" d="M16.7,144l-3.4,1.3v-0.7l0.8-0.3V143l-0.8-0.3V142l3.4,1.3V144z M14.7,143.2v0.8l1.1-0.4L14.7,143.2z"/>
		<path class="st0" d="M16.7,148.6v0.8l-2.1-1.2h-1.3v-0.7h1.3l2.1-1.2v0.8l-1.4,0.8L16.7,148.6z"/>
		<path class="st0" d="M111.7,108.4v0.7h-2.8v1.6h-0.6v-2.3H111.7z"/>
		<path class="st0" d="M111.7,114.1l-3.4,1.3v-0.7l0.8-0.3v-1.3l-0.8-0.3v-0.7l3.4,1.3V114.1z M109.7,113.4v0.8l1.1-0.4L109.7,113.4
			z"/>
		<path class="st0" d="M108.3,117h3.4v2.2h-0.6v-1.5h-0.9v1.4h-0.6v-1.4h-1.3V117z"/>
		<path class="st0" d="M111.7,122.5l-3.4,1.3v-0.7l0.8-0.3v-1.3l-0.8-0.3v-0.7l3.4,1.3V122.5z M109.7,121.8v0.8l1.1-0.4L109.7,121.8
			z"/>
		<path class="st0" d="M111.7,127.2v0.7l-2.1-1.2h-1.3V126h1.3l2.1-1.2v0.8l-1.4,0.8L111.7,127.2z"/>
		<path class="st0" d="M111.7,131.8h-0.6v-1.6h-0.7v1.4h-0.6v-1.4h-0.8v1.6h-0.6v-2.3h3.4V131.8z"/>
		<path class="st0" d="M111.7,133.4v2.9h-0.6v-1.1h-2.8v-0.7h2.8v-1.1L111.7,133.4z"/>
		<path class="st0" d="M111.7,137.8v2.9h-0.6v-1.1h-2.8v-0.7h2.8v-1.1H111.7z"/>
		<path class="st0" d="M111.7,144.6h-0.6V143h-0.7v1.4h-0.6V143h-0.8v1.6h-0.6v-2.3h3.4V144.6z"/>
		<path class="st0" d="M109.2,149.2c-0.3,0.1-0.5,0.4-0.4,0.7c0,0.4,0.2,0.6,0.4,0.6s0.3-0.1,0.4-0.4l0.1-0.6c0-0.5,0.4-0.9,0.9-0.9
			c0.6,0,1,0.6,1,1.1c0,0,0,0,0,0.1c0.1,0.6-0.4,1.2-1,1.3v-0.7c0.3-0.1,0.4-0.3,0.4-0.6c0-0.3-0.2-0.5-0.4-0.5s-0.3,0.1-0.4,0.4
			l-0.1,0.6c-0.1,0.6-0.4,0.9-1,0.9s-1-0.5-1-1.2c-0.1-0.7,0.4-1.3,1-1.4L109.2,149.2L109.2,149.2z"/>
		<path class="st0" d="M111.7,152.6v2.9h-0.6v-1.1h-2.8v-0.7h2.8v-1.1L111.7,152.6z"/>
		<path class="st0" d="M43.1,112.6h0.7v2.8h1.6v0.6h-2.3V112.6z"/>
		<path class="st0" d="M49.3,112.6v0.6h-1.6v0.8h1.5v0.6h-1.5v0.8h1.6v0.6H47v-3.4L49.3,112.6z"/>
		<path class="st0" d="M52.4,116c-1,0.1-1.8-0.7-1.9-1.6c-0.1-1,0.7-1.8,1.6-1.9s1.8,0.7,1.9,1.6c0,0.1,0,0.1,0,0.2
			c0,0.9-0.6,1.6-1.5,1.7C52.4,116,52.4,116,52.4,116z M52.4,113.2c-0.5,0-0.9,0.4-0.9,1.1s0.3,1.1,0.9,1.1s0.9-0.5,0.9-1.1
			S52.9,113.2,52.4,113.2L52.4,113.2z"/>
		<path class="st0" d="M58.4,116h-0.6l-1.6-2.2v2.2h-0.7v-3.4h0.7l1.5,2.1v-2.1h0.7V116z"/>
		<path class="st0" d="M61.9,112.6l1.3,3.4h-0.7l-0.3-0.8h-1.3l-0.3,0.8h-0.7l1.3-3.4L61.9,112.6z M61.1,114.6h0.8l-0.4-1.1
			L61.1,114.6z"/>
		<path class="st0" d="M65.4,114.7v1.3h-0.7v-3.4h1.4c0.5-0.1,1.1,0.2,1.2,0.8c0,0.1,0,0.2,0,0.3c0,0.5-0.3,0.9-0.8,1l0.9,1.3h-0.8
			l-0.8-1.3L65.4,114.7z M65.4,114.2H66c0.3,0,0.5-0.2,0.5-0.5s-0.2-0.5-0.5-0.5h-0.7L65.4,114.2z"/>
		<path class="st0" d="M68.9,112.6h1.2c0.9,0.1,1.6,0.9,1.6,1.8c-0.1,0.8-0.7,1.5-1.6,1.6h-1.2V112.6z M70,115.4
			c0.6,0,1.1-0.5,1.1-1.1c0-0.6-0.5-1.1-1.1-1.1h-0.5v2.1H70z"/>
		<path class="st0" d="M76.1,115c0.1,0.3,0.4,0.5,0.7,0.4c0.3,0,0.6-0.2,0.6-0.4s-0.1-0.3-0.4-0.4l-0.6-0.1
			c-0.5-0.1-0.8-0.4-0.8-0.9c0-0.6,0.6-1,1.2-1c0,0,0,0,0,0c0.6-0.1,1.2,0.4,1.3,1h-0.7c-0.1-0.3-0.3-0.4-0.6-0.4
			c-0.3,0-0.5,0.2-0.5,0.4s0.1,0.3,0.4,0.4l0.6,0.2c0.5,0.1,0.9,0.5,0.9,1c-0.1,0.6-0.6,1.1-1.2,1c0,0,0,0,0,0
			c-0.7,0.1-1.3-0.4-1.4-1L76.1,115z"/>
		<path class="st0" d="M79.4,112.6h2.9v0.6h-1.1v2.8h-0.7v-2.8h-1.1V112.6z"/>
		<path class="st0" d="M40.6,147.9c0.7,0,1.3,0.4,1.4,1.1h-0.7c-0.1-0.3-0.4-0.5-0.7-0.5c-0.5,0-0.8,0.5-0.8,1.1s0.3,1.1,0.8,1.1
			c0.3,0,0.6-0.2,0.7-0.5H42c-0.1,0.7-0.7,1.2-1.4,1.1c-1-0.1-1.7-1-1.6-1.9C39.2,148.6,39.8,147.9,40.6,147.9z"/>
		<path class="st0" d="M45.4,147.9l1.3,3.4H46l-0.3-0.8h-1.3l-0.3,0.8h-0.7l1.3-3.4H45.4z M44.6,149.9h0.8l-0.4-1.2L44.6,149.9z"/>
		<path class="st0" d="M47.8,147.9h2.9v0.6h-1.1v2.8h-0.7v-2.8h-1.1V147.9z"/>
		<path class="st0" d="M55.2,147.9v3.4h-0.7v-1.4H53v1.4h-0.7v-3.4H53v1.3h1.5v-1.3H55.2z"/>
		<path class="st0" d="M59.4,147.9v0.6h-1.6v0.7h1.5v0.6h-1.5v0.8h1.6v0.6h-2.3v-3.4L59.4,147.9z"/>
		<path class="st0" d="M61.8,150v1.3h-0.7v-3.4h1.4c0.5-0.1,1.1,0.3,1.2,0.8c0,0.1,0,0.2,0,0.3c0,0.5-0.3,0.9-0.8,1l0.9,1.3H63
			l-0.8-1.3H61.8z M61.8,149.4h0.6c0.4,0,0.5-0.2,0.5-0.5s-0.2-0.5-0.5-0.5h-0.6V149.4z"/>
		<path class="st0" d="M66.2,151.3h-0.7v-3.4h0.7V151.3z"/>
		<path class="st0" d="M70.8,151.3h-0.6l-1.6-2.3v2.2H68v-3.4h0.7l1.5,2.1v-2.1h0.7V151.3z"/>
		<path class="st0" d="M75,147.9v0.6h-1.6v0.7h1.4v0.6h-1.5v0.8H75v0.6h-2.3v-3.4L75,147.9z"/>
		<path class="st0" d="M79.1,147.9h0.7v2.8h1.6v0.6h-2.3V147.9z"/>
		<path class="st0" d="M85.9,151.3h-0.6l-1.6-2.3v2.2h-0.7v-3.4h0.7l1.5,2.1v-2.1h0.7V151.3L85.9,151.3z"/>
	</g>
	<g id="_4-6_H">
		<polygon class="st1" points="49.7,137.2 57.6,137.7 57.6,132.2 57,132.2 57,132.3 55.9,132.3 55.9,130.8 54.7,130.8 53.4,130.8 
			49.7,130.8 		"/>
		<g>
			<defs>
				<rect id="SVGID_1_" x="23.3" y="124.2" width="76.6" height="17.3"/>
			</defs>
			<clipPath id="SVGID_2_">
				<use xlink:href="#SVGID_1_"  style="overflow:visible;"/>
			</clipPath>
			<g class="st2">
				<polygon class="st3" points="98.1,125.4 98.1,140.4 24.3,135.8 24.3,125.4 				"/>
			</g>
		</g>
		<g>
			<defs>
				<rect id="SVGID_3_" x="24.3" y="10.9" width="65.7" height="78.8"/>
			</defs>
			<clipPath id="SVGID_4_">
				<use xlink:href="#SVGID_3_"  style="overflow:visible;"/>
			</clipPath>
			<g class="st4">
				<polyline class="st5" points="88.4,57.3 77,63.7 29.1,32.3 				"/>
				<polyline class="st5" points="88.4,59.4 77,65.9 29.1,34.4 				"/>
				<polyline class="st5" points="88.4,61.6 77,68 29.1,36.6 				"/>
				<polyline class="st5" points="88.4,63.7 77,70.2 29.1,38.7 				"/>
				<polyline class="st5" points="88.4,65.9 77,72.3 29.1,40.9 				"/>
				<polyline class="st5" points="88.4,68 77,74.5 29.1,43 				"/>
				<polyline class="st5" points="88.4,70.2 77,76.6 29.1,45.2 				"/>
				<polyline class="st5" points="88.4,72.3 77,78.8 29.1,47.3 				"/>
				<polyline class="st5" points="88.4,74.5 77,80.9 29.1,49.5 				"/>
				<polyline class="st5" points="88.4,76.6 77,83.1 29.1,51.6 				"/>
				<polyline class="st5" points="88.4,78.8 77,85.2 29.1,53.8 				"/>
				<line class="st5" x1="88.4" y1="78.8" x2="77" y2="85.2"/>
				<g class="st6">
					<path class="st7" d="M33.9,63.1c0.5,0.4,0.5,0.8,0.1,1.1l-0.5-0.3c0.1-0.2,0.1-0.4-0.1-0.5c-0.4-0.3-0.9-0.2-1.4,0.1
						c-0.5,0.3-0.6,0.6-0.2,0.9c0.3,0.2,0.6,0.2,0.9,0.1l0.5,0.3c-0.6,0.2-1.2,0.2-1.8-0.2c-0.6-0.4-0.6-1,0.2-1.5
						C32.4,62.7,33.3,62.7,33.9,63.1z"/>
				</g>
				<g class="st6">
					<path class="st7" d="M37.2,65.4l-1.5,2l-0.5-0.3l0.4-0.5L34.7,66l-0.8,0.2l-0.5-0.3l3.3-0.8L37.2,65.4z M35.3,65.8l0.6,0.4
						l0.5-0.7L35.3,65.8z"/>
				</g>
				<g class="st6">
					<path class="st7" d="M38.8,66.6l1.9,1.4l-0.4,0.3l-0.7-0.5l-2,1.1l-0.5-0.3l2-1.1l-0.7-0.5L38.8,66.6z"/>
					<path class="st7" d="M44,70.1l-2.4,1.4l-0.5-0.3l1-0.6l-1-0.7l-1,0.6l-0.5-0.3l2.4-1.4l0.5,0.3l-0.9,0.6l1,0.7l0.9-0.6L44,70.1
						z"/>
					<path class="st7" d="M46.8,72.1l-0.4,0.3l-1.1-0.8l-0.5,0.3l1,0.7l-0.4,0.2l-1-0.7l-0.6,0.3l1.1,0.8l-0.4,0.3l-1.5-1.1l2.4-1.4
						L46.8,72.1z"/>
					<path class="st7" d="M47.1,74.2l-0.9,0.5l-0.5-0.3l2.4-1.4l0.9,0.7c0.5,0.3,0.5,0.7,0,1c-0.4,0.2-0.8,0.2-1.2,0l-0.3,1L47,75.3
						l0.3-0.9L47.1,74.2z M47.5,74l0.4,0.3c0.2,0.2,0.5,0.2,0.7,0.1c0.2-0.1,0.2-0.3,0-0.4l-0.4-0.3L47.5,74z"/>
					<path class="st7" d="M49.2,76.8l-0.5-0.3l2.4-1.4l0.5,0.3L49.2,76.8z"/>
					<path class="st7" d="M52.4,79L52,78.8l0.5-1.7L50.9,78l-0.5-0.3l2.4-1.4l0.4,0.3l-0.5,1.6l1.5-0.9l0.5,0.3L52.4,79z"/>
					<path class="st7" d="M57.6,79.6l-0.4,0.3l-1.1-0.8l-0.5,0.3l1,0.7l-0.4,0.2l-1-0.7L54.6,80l1.1,0.8L55.3,81l-1.5-1.1l2.4-1.4
						L57.6,79.6z"/>
					<path class="st7" d="M60.6,81.7l0.5,0.3l-1.9,1.1l1.1,0.7l-0.4,0.3l-1.5-1.1L60.6,81.7z"/>
				</g>
				<g class="st6">
					<path class="st7" d="M62.8,86.3L62.5,86l0.5-1.7l-1.6,0.9L60.9,85l2.4-1.4l0.4,0.3l-0.5,1.6l1.5-0.9l0.5,0.3L62.8,86.3z"/>
				</g>
				<polyline class="st8" points="88.4,55.1 77,61.6 29.1,30.1 				"/>
				<line class="st8" x1="77" y1="59.4" x2="77" y2="87.3"/>
				<line class="st8" x1="82.8" y1="83.3" x2="82.1" y2="83.7"/>
				<polyline class="st8" points="82.8,83.3 83.2,83.6 88.4,80.6 88.4,53 				"/>
				<polyline class="st8" points="88.4,53 77,59.4 29.1,27.9 				"/>
				<g>
					<defs>
						<rect id="SVGID_5_" x="24.3" y="10.9" width="65.4" height="78.8"/>
					</defs>
					<clipPath id="SVGID_6_">
						<use xlink:href="#SVGID_5_"  style="overflow:visible;"/>
					</clipPath>
					<g class="st9">
						<path class="st8" d="M82.8,83.3v-0.6c0-0.1,0-0.2-0.1-0.3"/>
						<path class="st8" d="M83.2,83.6v-0.9c0-0.2-0.2-0.5-0.6-0.3c-0.3,0.2-0.5,0.5-0.5,0.8v1l-5.1,3l-6.7-4.6l-8.5-5.8L54.7,72
							l-10.5-7.2l-15-10.9V27.9l1-0.6"/>
					</g>
				</g>
				<line class="st8" x1="78.8" y1="54.1" x2="78.8" y2="53"/>
				<line class="st8" x1="36" y1="30" x2="36" y2="31.9"/>
				<line class="st8" x1="78.8" y1="54.1" x2="79.4" y2="54.5"/>
				<line class="st8" x1="78.8" y1="53" x2="79.4" y2="53.4"/>
				<line class="st8" x1="36.3" y1="18.5" x2="36.3" y2="17"/>
				<line class="st8" x1="36.3" y1="18.6" x2="36.3" y2="17"/>
				<line class="st8" x1="36.1" y1="28.5" x2="36.1" y2="25.1"/>
				<polyline class="st8" points="37.2,31.2 36,31.9 30.2,28.1 30.2,26.1 32.2,25 				"/>
				<polyline class="st8" points="36.3,23 39,21.5 39,17.9 39,17.8 37.8,17 				"/>
				<g>
					<defs>
						<rect id="SVGID_7_" x="24.3" y="10.9" width="65.4" height="78.8"/>
					</defs>
					<clipPath id="SVGID_8_">
						<use xlink:href="#SVGID_7_"  style="overflow:visible;"/>
					</clipPath>
					<g class="st10">
						<path class="st8" d="M35.7,20.4c0.2,0.6,0,1.2-0.4,1.2s-1-0.5-1.2-1.2s0-1.2,0.4-1.2S35.5,19.7,35.7,20.4z"/>
						<path class="st8" d="M36.9,20.4c-0.2,0.6,0,1.2,0.4,1.2s1-0.5,1.2-1.2s0-1.2-0.4-1.2S37.1,19.8,36.9,20.4z"/>
					</g>
				</g>
				<line class="st8" x1="36.1" y1="25.1" x2="40.5" y2="22.5"/>
				<line class="st8" x1="32.2" y1="22.6" x2="36.1" y2="25.1"/>
				<line class="st8" x1="30.2" y1="26.1" x2="36" y2="30"/>
				<polyline class="st8" points="39.1,21.3 39.3,21.4 39.3,22.6 39.3,22.6 36.3,24.4 36.3,24.3 36.3,19.5 				"/>
				<polyline class="st8" points="33.3,21.9 32.2,22.6 32.2,25.9 32.2,26 36,28.5 				"/>
				<polyline class="st8" points="40.6,24.3 43,25.8 43,27.1 				"/>
				<line class="st8" x1="36.2" y1="19.6" x2="39" y2="17.9"/>
				<line class="st8" x1="33.7" y1="17.8" x2="34.8" y2="17.2"/>
				<line class="st8" x1="33.7" y1="17.8" x2="36.3" y2="19.6"/>
				<polyline class="st8" points="39.3,21.7 40.5,22.5 40.6,22.6 40.6,25.8 40.5,25.9 36,28.5 				"/>
				<line class="st8" x1="34.8" y1="16" x2="36.3" y2="17"/>
				<line class="st8" x1="37.1" y1="15.6" x2="37.9" y2="16.1"/>
				<g>
					<defs>
						<rect id="SVGID_9_" x="24.3" y="10.9" width="65.4" height="78.8"/>
					</defs>
					<clipPath id="SVGID_10_">
						<use xlink:href="#SVGID_9_"  style="overflow:visible;"/>
					</clipPath>
					<g class="st11">
						<path class="st8" d="M34.9,14.3c0,0.1-0.1,0.2-0.2,0.2l0.1,0.2c0.1,0.1,0.4,0.2,1,0.1s1.8-0.8,1.9-1.4L37.5,13
							c-0.1,0-0.3,0-0.4,0"/>
					</g>
				</g>
				<polyline class="st8" points="35.4,11.9 36.2,12.3 36.5,12.2 37,11.4 				"/>
				<g>
					<defs>
						<rect id="SVGID_11_" x="24.3" y="10.9" width="65.4" height="78.8"/>
					</defs>
					<clipPath id="SVGID_12_">
						<use xlink:href="#SVGID_11_"  style="overflow:visible;"/>
					</clipPath>
					<g class="st12">
						<path class="st8" d="M37.6,13.7c0,0.2,0,0.4,0,0.6c-0.2,0.7-0.9,1.2-1.6,1c-0.3-0.1-0.5-0.2-0.7-0.4l0,0"/>
						<path class="st8" d="M35,14.6c0-0.1-0.1-0.2-0.1-0.3c-0.1-0.7,0.4-1.4,1.1-1.5c0.4-0.1,0.9,0.1,1.2,0.4
							c0.1,0.1,0.2,0.2,0.2,0.3"/>
						<path class="st8" d="M37.2,15.8c0,0,0-0.1,0-0.1c0,0,0-0.1-0.1-0.1c-0.1,0-0.2,0-0.2,0c0,0,0,0,0-0.1l0,0l0.1-0.3"/>
						<path class="st8" d="M36.6,15.7c0,0,0,0.1,0.1,0.1s0.2,0.1,0.3,0"/>
					</g>
				</g>
				<polyline class="st8" points="35.9,16.3 35.9,16.1 36,15.8 36,15.7 35.7,15.7 35.4,15.5 35.5,15.2 				"/>
				<line class="st8" x1="33.7" y1="21.3" x2="36.3" y2="23.1"/>
				<polyline class="st8" points="36.3,24.5 33.4,22.6 33.3,22.5 33.3,21.5 33.3,21.5 33.6,21.3 33.7,21.3 33.7,17.8 				"/>
				<polyline class="st8" points="35.6,15.5 34.8,16.1 34.8,16.1 34.8,17.6 36.3,18.6 36.3,18.6 37.8,17.7 37.8,16.1 37.8,16.1 
					36.3,17 				"/>
				<line class="st8" x1="61.9" y1="44.2" x2="71.4" y2="50.2"/>
				<polyline class="st8" points="83.7,52 81.5,53.3 79.4,52 				"/>
				<line class="st8" x1="81.5" y1="56.4" x2="81.5" y2="53.3"/>
				<polyline class="st8" points="79.4,52.6 75.1,55.2 37.2,31 				"/>
				<line class="st5" x1="88.4" y1="53" x2="43" y2="26.7"/>
				<line class="st5" x1="72.8" y1="44.5" x2="45.8" y2="28.9"/>
				<line class="st8" x1="75.1" y1="56.3" x2="75.1" y2="55.2"/>
				<line class="st8" x1="71.4" y1="51.5" x2="71.4" y2="50.2"/>
				<polygon class="st8" points="77.1,46.9 77.1,48.2 71.4,51.5 61.9,45.5 61.9,44.2 66.1,41.7 71.7,45.1 72.9,44.4 				"/>
				<line class="st8" x1="77.1" y1="46.9" x2="71.4" y2="50.2"/>
				<line class="st8" x1="45.8" y1="28.8" x2="41.7" y2="31.2"/>
				<polygon class="st8" points="38.3,30.3 38.2,29 38.2,29 42.2,26.7 45.8,28.8 45.8,30 45.8,30 41.7,32.5 				"/>
				<polyline class="st8" points="78.8,54.1 75.1,56.3 37.2,32.1 37.2,32.1 37.2,31 38.2,30.4 				"/>
				<line class="st8" x1="41.7" y1="31.2" x2="38.3" y2="29"/>
				<line class="st8" x1="41.7" y1="32.5" x2="41.7" y2="31.2"/>
				<polyline class="st8" points="82.9,51.5 83.2,51.3 83.2,50.5 77.1,47 				"/>
				<line class="st8" x1="83.2" y1="50.5" x2="82.7" y2="50.8"/>
				<line class="st8" x1="43" y1="25.9" x2="36" y2="30"/>
				<polyline class="st8" points="80.6,51.3 79.4,52 79.4,55 81.5,56.4 83.7,55.1 83.7,52 82.8,51.5 				"/>
				<g>
					<defs>
						<rect id="SVGID_13_" x="24.3" y="10.9" width="65.4" height="78.8"/>
					</defs>
					<clipPath id="SVGID_14_">
						<use xlink:href="#SVGID_13_"  style="overflow:visible;"/>
					</clipPath>
					<g class="st13">
						<path class="st8" d="M81.5,50.1c-0.5,0.1-0.9,0.6-0.9,1.1v0.8c0,0.3,0.5,0.6,1.1,0.6s1.1-0.2,1.1-0.6v-0.8
							c0-0.6-0.4-1-0.9-1.1V50c0-0.1-0.1-0.1-0.2-0.1s-0.2,0.1-0.2,0.1V50.1z"/>
					</g>
				</g>
				<polyline class="st1" points="41.8,51.4 41.8,57.8 45.7,60.4 45.7,53.9 				"/>
				<line class="st14" x1="45.7" y1="56" x2="41.8" y2="53.5"/>
				<line class="st14" x1="45.7" y1="58.2" x2="41.8" y2="55.7"/>
			</g>
		</g>
	</g>
</g>
</svg>
