<svg xmlns="http://www.w3.org/2000/svg" xmlns:xlink="http://www.w3.org/1999/xlink" width="143" height="192.549" viewBox="0 0 143 192.549"><defs><path id="a" d="M-72 -374.04H1152V417.96H-72z"/></defs><defs><path id="b" d="M-72 -374.04H1152V417.96H-72z"/></defs><defs><path id="c" d="M-72 -374.04H1152V417.96H-72z"/></defs><defs><path id="d" d="M-72 -374.04H1152V417.96H-72z"/></defs><defs><path id="e" d="M-72 -374.04H1152V417.96H-72z"/></defs><defs><path id="f" d="M-72 -374.04H1152V417.96H-72z"/></defs><clipPath id="g"><use xlink:href="#f" overflow="visible"/></clipPath><g clip-path="url(#g)"><text transform="rotate(90 -64.093 67.743)"><tspan x="0" y="0" fill="#D1D3D4" font-family="'Calibre-Semibold'" font-size="7" letter-spacing="1">BR</tspan><tspan x="10.892" y="0" fill="#D1D3D4" font-family="'Calibre-Semibold'" font-size="7" letter-spacing="1">O</tspan><tspan x="16.709" y="0" fill="#D1D3D4" font-family="'Calibre-Semibold'" font-size="7" letter-spacing="1">A</tspan><tspan x="22.631" y="0" fill="#D1D3D4" font-family="'Calibre-Semibold'" font-size="7" letter-spacing="1">D</tspan><tspan x="28.364" y="0" fill="#D1D3D4" font-family="'Calibre-Semibold'" font-size="7" letter-spacing="1">W</tspan><tspan x="35.202" y="0" fill="#D1D3D4" font-family="'Calibre-Semibold'" font-size="7" letter-spacing="1">A</tspan><tspan x="40.635" y="0" fill="#D1D3D4" font-family="'Calibre-Semibold'" font-size="7">Y</tspan></text></g><g clip-path="url(#g)"><text transform="rotate(90 5.067 129.007)"><tspan x="0" y="0" fill="#D1D3D4" font-family="'Calibre-Semibold'" font-size="7" letter-spacing="1">L</tspan><tspan x="5.096" y="0" fill="#D1D3D4" font-family="'Calibre-Semibold'" font-size="7" letter-spacing="1">A</tspan><tspan x="11.025" y="0" fill="#D1D3D4" font-family="'Calibre-Semibold'" font-size="7" letter-spacing="1">F</tspan><tspan x="15.799" y="0" fill="#D1D3D4" font-family="'Calibre-Semibold'" font-size="7" letter-spacing="1">A</tspan><tspan x="21.238" y="0" fill="#D1D3D4" font-family="'Calibre-Semibold'" font-size="7" letter-spacing="1">YETTE </tspan><tspan x="51.387" y="0" fill="#D1D3D4" font-family="'Calibre-Semibold'" font-size="7" letter-spacing="1">S</tspan><tspan x="56.566" y="0" fill="#D1D3D4" font-family="'Calibre-Semibold'" font-size="7">T</tspan></text></g><g clip-path="url(#g)"><text transform="translate(45.917 128.939)"><tspan x="0" y="0" fill="#D1D3D4" font-family="'Calibre-Semibold'" font-size="7" letter-spacing="1">LE</tspan><tspan x="9.961" y="0" fill="#D1D3D4" font-family="'Calibre-Semibold'" font-size="7" letter-spacing="1">O</tspan><tspan x="15.834" y="0" fill="#D1D3D4" font-family="'Calibre-Semibold'" font-size="7" letter-spacing="1">N</tspan><tspan x="21.658" y="0" fill="#D1D3D4" font-family="'Calibre-Semibold'" font-size="7" letter-spacing="1">A</tspan><tspan x="27.44" y="0" fill="#D1D3D4" font-family="'Calibre-Semibold'" font-size="7" letter-spacing="1">RD </tspan><tspan x="41.328" y="0" fill="#D1D3D4" font-family="'Calibre-Semibold'" font-size="7" letter-spacing="1">S</tspan><tspan x="46.368" y="0" fill="#D1D3D4" font-family="'Calibre-Semibold'" font-size="7">T</tspan></text></g><g clip-path="url(#g)"><text transform="translate(40.976 182.643)"><tspan x="0" y="0" fill="#D1D3D4" font-family="'Calibre-Semibold'" font-size="7" letter-spacing="1">C</tspan><tspan x="5.593" y="0" fill="#D1D3D4" font-family="'Calibre-Semibold'" font-size="7" letter-spacing="1">A</tspan><tspan x="11.074" y="0" fill="#D1D3D4" font-family="'Calibre-Semibold'" font-size="7" letter-spacing="1">T</tspan><tspan x="16.639" y="0" fill="#D1D3D4" font-family="'Calibre-Semibold'" font-size="7" letter-spacing="1">H</tspan><tspan x="22.736" y="0" fill="#D1D3D4" font-family="'Calibre-Semibold'" font-size="7" letter-spacing="1">ER</tspan><tspan x="33.369" y="0" fill="#D1D3D4" font-family="'Calibre-Semibold'" font-size="7" letter-spacing="1">I</tspan><tspan x="36.617" y="0" fill="#D1D3D4" font-family="'Calibre-Semibold'" font-size="7" letter-spacing="1">NE L</tspan><tspan x="55.845" y="0" fill="#D1D3D4" font-family="'Calibre-Semibold'" font-size="7">N</tspan></text></g><path clip-path="url(#g)" d="M53.688 161.696L65.562 162.384 65.562 156.29 64.968 156.29 64.968 155.556 65.703 155.556 65.703 154.26 64.953 154.26 64.953 154.446 63.312 154.446 63.312 152.493 60.921 152.493 60.921 152.243 59.093 152.243 59.093 152.463 53.5 152.463 53.5 152.868 53.703 152.868z"/><defs><path id="h" d="M15.156 142.666H127.17V167.94299999999998H15.156z"/></defs><clipPath id="i"><use xlink:href="#h" overflow="visible"/></clipPath><path clip-path="url(#i)" fill="none" stroke="#D0D2D3" stroke-width="1.092" stroke-miterlimit="10" d="M124.485 144.342L124.485 166.266 16.506 159.548 16.557 144.342z"/><g><defs><path id="j" d="M-72 -374.04H1152V417.96H-72z"/></defs><clipPath id="k"><use xlink:href="#j" overflow="visible"/></clipPath><path clip-path="url(#k)" d="M62.359 40.17L62.359 58.081 67.794 61.649 67.786 43.744z"/></g><g><defs><path id="l" d="M32.4 0H115.148V104.495H32.4z"/></defs></g><g><defs><path id="m" d="M-72 -374.04H1152V417.96H-72z"/></defs><clipPath id="n"><use xlink:href="#m" overflow="visible"/></clipPath><path clip-path="url(#n)" fill="none" stroke="#D1D3D4" stroke-width=".145" stroke-miterlimit="10" d="M113.412 60.25L99.896 67.886 38.945 27.74"/><path clip-path="url(#n)" fill="none" stroke="#D1D3D4" stroke-width=".145" stroke-miterlimit="10" d="M113.412 63.242L99.896 70.877 38.945 30.731"/><path clip-path="url(#n)" fill="none" stroke="#D1D3D4" stroke-width=".145" stroke-miterlimit="10" d="M113.412 66.233L99.896 73.867 38.945 33.723"/><path clip-path="url(#n)" fill="none" stroke="#D1D3D4" stroke-width=".145" stroke-miterlimit="10" d="M113.412 69.225L99.896 76.858 38.945 36.714"/><path clip-path="url(#n)" fill="none" stroke="#D1D3D4" stroke-width=".145" stroke-miterlimit="10" d="M113.412 72.216L99.896 79.85 38.945 39.705"/><path clip-path="url(#n)" fill="none" stroke="#D1D3D4" stroke-width=".145" stroke-miterlimit="10" d="M113.412 75.207L99.896 82.842 38.945 42.696"/><path clip-path="url(#n)" fill="none" stroke="#D1D3D4" stroke-width=".145" stroke-miterlimit="10" d="M113.412 78.199L99.896 85.833 38.945 45.688"/><path clip-path="url(#n)" fill="none" stroke="#D1D3D4" stroke-width=".145" stroke-miterlimit="10" d="M113.412 81.189L99.896 88.824 38.945 48.68"/><path clip-path="url(#n)" fill="none" stroke="#D1D3D4" stroke-width=".145" stroke-miterlimit="10" d="M113.412 84.181L99.896 91.815 38.945 51.671"/><path clip-path="url(#n)" fill="none" stroke="#D1D3D4" stroke-width=".145" stroke-miterlimit="10" d="M113.412 87.172L99.896 94.806 38.945 54.662"/><path clip-path="url(#n)" fill="none" stroke="#D1D3D4" stroke-width=".145" stroke-miterlimit="10" d="M113.412 90.163L99.896 97.798 38.945 57.653"/><path clip-path="url(#n)" fill="none" stroke="#000" stroke-width=".145" stroke-miterlimit="10" d="M50.501 30.437L50.501 28.825"/><path clip-path="url(#n)" fill="none" stroke="#000" stroke-width=".145" stroke-miterlimit="10" d="M56.432 31.213L56.432 29.405"/><path clip-path="url(#n)" fill="none" stroke="#000" stroke-width=".145" stroke-miterlimit="10" d="M51.569 28.165L51.569 26.357"/><path clip-path="url(#n)" fill="none" stroke="#000" stroke-width=".145" stroke-miterlimit="10" d="M62.14 27.905L62.14 26.098"/><path clip-path="url(#n)" fill="none" stroke="#000" stroke-width=".145" stroke-miterlimit="10" d="M101.532 57.673L101.532 56.094"/><path clip-path="url(#n)" fill="none" stroke="#000" stroke-width=".145" stroke-miterlimit="10" d="M79.607 45.915L79.607 44.336"/><path clip-path="url(#n)" fill="none" stroke="#000" stroke-width=".145" stroke-miterlimit="10" d="M48.486 27.55L48.486 30.229"/><path clip-path="url(#n)" fill="none" stroke="#000" stroke-width=".145" stroke-miterlimit="10" d="M58.175 21.795L58.175 23.641"/><path clip-path="url(#n)" fill="none" stroke="#000" stroke-width=".145" stroke-miterlimit="10" d="M101.532 57.673L102.386 58.216"/><path clip-path="url(#n)" fill="none" stroke="#000" stroke-width=".145" stroke-miterlimit="10" d="M54.857 21.855L54.857 17.069"/><path clip-path="url(#n)" fill="none" stroke="#000" stroke-width=".145" stroke-miterlimit="10" d="M45.24 15.75L45.24 10.607"/><path clip-path="url(#n)" fill="none" stroke="#000" stroke-width=".145" stroke-miterlimit="10" d="M48.941 11.625L48.941 9.359"/><path clip-path="url(#n)" fill="none" stroke="#000" stroke-width=".145" stroke-miterlimit="10" d="M48.918 19.672L48.918 12.888"/><path clip-path="url(#n)" fill="none" stroke="#000" stroke-width=".145" stroke-miterlimit="10" d="M52.739 15.702L52.739 10.696"/><path clip-path="url(#n)" fill="none" stroke="#000" stroke-width=".145" stroke-miterlimit="10" d="M48.941 11.742L48.941 9.473"/><path clip-path="url(#n)" fill="none" stroke="#000" stroke-width=".145" stroke-miterlimit="10" d="M53.095 17.264L53.095 15.662"/><path clip-path="url(#n)" fill="none" stroke="#000" stroke-width=".145" stroke-miterlimit="10" d="M44.808 17.484L44.808 15.882"/><path clip-path="url(#n)" fill="none" stroke="#000" stroke-width=".145" stroke-miterlimit="10" d="M48.586 25.51L48.586 20.754"/><path clip-path="url(#n)" fill="none" stroke="#000" stroke-width=".145" stroke-miterlimit="10" d="M43.196 21.901L43.196 17.264"/><path clip-path="url(#n)" fill="none" stroke="#000" stroke-width=".145" stroke-miterlimit="10" d="M50.703 28.92L48.486 30.229 40.386 24.897 40.386 22.233 43.194 20.59"/><path clip-path="url(#n)" fill="none" stroke="#000" stroke-width=".145" stroke-miterlimit="10" d="M50.473 28.87L51.585 28.216"/><path clip-path="url(#n)" fill="none" stroke="#000" stroke-width=".145" stroke-miterlimit="10" d="M48.519 25.483L43.198 21.979"/><path clip-path="url(#n)" fill="none" stroke="#000" stroke-width=".145" stroke-miterlimit="10" d="M48.933 17.918L53.007 15.522"/><path clip-path="url(#n)" fill="none" stroke="#000" stroke-width=".145" stroke-miterlimit="10" d="M48.607 19.996L53.007 17.408"/></g><g><defs><path id="o" d="M32.4 0H115.148V104.495H32.4z"/></defs><clipPath id="p"><use xlink:href="#o" overflow="visible"/></clipPath><path clip-path="url(#p)" fill="none" stroke="#000" stroke-width=".145" stroke-miterlimit="10" d="M48.13 14.212c.315.904.068 1.638-.552 1.639-.619.002-1.376-.73-1.692-1.633-.314-.904-.067-1.637.552-1.639.621-.001 1.377.73 1.692 1.633zm1.614.031c-.315.904-.067 1.637.552 1.639.619.002 1.377-.729 1.692-1.633.314-.904.068-1.638-.552-1.639-.621-.002-1.377.729-1.692 1.633z"/></g><g><defs><path id="q" d="M-72 -374.04H1152V417.96H-72z"/></defs><clipPath id="r"><use xlink:href="#q" overflow="visible"/></clipPath><path clip-path="url(#r)" fill="none" stroke="#000" stroke-width=".145" stroke-miterlimit="10" d="M48.586 20.797L54.903 17.084"/><path clip-path="url(#r)" fill="none" stroke="#000" stroke-width=".145" stroke-miterlimit="10" d="M48.486 25.545L54.763 21.856"/><path clip-path="url(#r)" fill="none" stroke="#000" stroke-width=".145" stroke-miterlimit="10" d="M44.599 15.881L45.209 15.524"/><path clip-path="url(#r)" fill="none" stroke="#000" stroke-width=".145" stroke-miterlimit="10" d="M43.195 17.245L48.519 20.752"/><path clip-path="url(#r)" fill="none" stroke="#000" stroke-width=".145" stroke-miterlimit="10" d="M40.386 22.216L48.485 27.55"/><path clip-path="url(#r)" fill="none" stroke="#000" stroke-width=".145" stroke-miterlimit="10" d="M52.816 15.461L53.095 15.661"/><path clip-path="url(#r)" fill="none" stroke="#000" stroke-width=".145" stroke-miterlimit="10" d="M44.808 16.302L43.196 17.263"/><path clip-path="url(#r)" fill="none" stroke="#000" stroke-width=".145" stroke-miterlimit="10" d="M40.386 23.832L38.944 24.691"/><path clip-path="url(#r)" fill="none" stroke="#000" stroke-width=".145" stroke-miterlimit="10" d="M54.92 19.653L58.175 21.794"/><path clip-path="url(#r)" fill="none" stroke="#000" stroke-width=".145" stroke-miterlimit="10" d="M48.81 13.073L52.754 10.71"/><path clip-path="url(#r)" fill="none" stroke="#000" stroke-width=".145" stroke-miterlimit="10" d="M45.24 10.658L46.792 9.746"/><path clip-path="url(#r)" fill="none" stroke="#000" stroke-width=".145" stroke-miterlimit="10" d="M48.81 11.829L51.187 10.431"/><path clip-path="url(#r)" fill="none" stroke="#000" stroke-width=".145" stroke-miterlimit="10" d="M48.95 9.53L51.137 8.244"/><path clip-path="url(#r)" fill="none" stroke="#000" stroke-width=".145" stroke-miterlimit="10" d="M45.24 10.607L48.919 13.121"/><path clip-path="url(#r)" fill="none" stroke="#000" stroke-width=".145" stroke-miterlimit="10" d="M51.05 9.488L52.753 10.61"/><path clip-path="url(#r)" fill="none" stroke="#000" stroke-width=".145" stroke-miterlimit="10" d="M53.095 16.082L54.898 17.269"/><path clip-path="url(#r)" fill="none" stroke="#000" stroke-width=".145" stroke-miterlimit="10" d="M46.766 10.361L49 11.829"/><path clip-path="url(#r)" fill="none" stroke="#000" stroke-width=".145" stroke-miterlimit="10" d="M46.953 8.257L48.941 9.567"/><path clip-path="url(#r)" fill="none" stroke="#000" stroke-width=".145" stroke-miterlimit="10" d="M50.015 7.515L51.158 8.269"/></g><g><defs><path id="s" d="M32.4 0H115.148V104.495H32.4z"/></defs><clipPath id="t"><use xlink:href="#s" overflow="visible"/></clipPath><path clip-path="url(#t)" fill="none" stroke="#000" stroke-width=".145" stroke-miterlimit="10" d="M46.959 5.694c-.046.091-.203.264-.218.334l.129.343c.13.174.606.334 1.4.109.794-.227 2.457-1.107 2.609-2.001l-.266-.5s-.247-.079-.517-.009"/></g><g><defs><path id="u" d="M-72 -374.04H1152V417.96H-72z"/></defs><clipPath id="v"><use xlink:href="#u" overflow="visible"/></clipPath><path clip-path="url(#v)" fill="none" stroke="#000" stroke-width=".145" stroke-miterlimit="10" d="M47.705 2.431L48.833 2.978 49.181 2.832 49.962 1.736"/></g><g><defs><path id="w" d="M32.4 0H115.148V104.495H32.4z"/></defs><clipPath id="x"><use xlink:href="#w" overflow="visible"/></clipPath><path clip-path="url(#x)" fill="none" stroke="#000" stroke-width=".145" stroke-miterlimit="10" d="M50.682 4.932a1.884 1.884 0 0 1-3.208 1.711l-.077-.059m-.292-.487a1.884 1.884 0 0 1 1.449-2.608 1.815 1.815 0 0 1 1.649.566c.222.25.302.446.302.446"/><path clip-path="url(#x)" fill="none" stroke="#000" stroke-width=".145" stroke-miterlimit="10" d="M50.235 7.76s.006-.164-.01-.203a.135.135 0 0 0-.102-.091c-.065-.016-.331.061-.331.061s-.004-.045-.004-.104v-.048l.1-.429m-.546.795c-.021.079.06.163.076.218.024.079.205.134.363.019"/></g><g><defs><path id="y" d="M-72 -374.04H1152V417.96H-72z"/></defs><clipPath id="z"><use xlink:href="#y" overflow="visible"/></clipPath><path clip-path="url(#z)" fill="none" stroke="#000" stroke-width=".145" stroke-miterlimit="10" d="M48.336 8.469L48.336 8.293 48.579 7.886 48.537 7.741 48.087 7.667 47.685 7.421 47.848 6.948"/><path clip-path="url(#z)" fill="none" stroke="#000" stroke-width=".145" stroke-miterlimit="10" d="M45.259 15.523L48.934 17.942"/><path clip-path="url(#z)" fill="none" stroke="#000" stroke-width=".145" stroke-miterlimit="10" d="M44.841 17.241L48.69 19.775"/><path clip-path="url(#z)" fill="none" stroke="#000" stroke-width=".145" stroke-miterlimit="10" d="M47.91 7.434L46.766 8.188"/><path clip-path="url(#z)" fill="none" stroke="#000" stroke-width=".145" stroke-miterlimit="10" d="M51.049 10.494L51.049 8.361"/><path clip-path="url(#z)" fill="none" stroke="#000" stroke-width=".145" stroke-miterlimit="10" d="M46.766 10.361L46.766 8.173"/><path clip-path="url(#z)" fill="none" stroke="#000" stroke-width=".145" stroke-miterlimit="10" d="M79.607 44.336L92.122 52.296"/><path clip-path="url(#z)" fill="none" stroke="#000" stroke-width=".145" stroke-miterlimit="10" d="M94.202 44.986L99.39 48.036"/><path clip-path="url(#z)" fill="none" stroke="#000" stroke-width=".145" stroke-miterlimit="10" d="M51.569 28.188L56.431 31.281"/><path clip-path="url(#z)" fill="none" stroke="#000" stroke-width=".145" stroke-miterlimit="10" d="M51.569 26.295L56.431 29.387"/><path clip-path="url(#z)" fill="none" stroke="#000" stroke-width=".145" stroke-miterlimit="10" d="M57.278 23.005L62.139 26.098"/><path clip-path="url(#z)" fill="none" stroke="#000" stroke-width=".145" stroke-miterlimit="10" d="M62.14 27.002L93.718 45.125"/><path clip-path="url(#z)" fill="none" stroke="#000" stroke-width=".145" stroke-miterlimit="10" d="M81.686 42.635L90.182 47.511"/><path clip-path="url(#z)" fill="none" stroke="#000" stroke-width=".145" stroke-miterlimit="10" d="M106.722 54.679L107.178 54.41 107.178 52.85 99.379 48.372"/><path clip-path="url(#z)" fill="none" stroke="#000" stroke-width=".145" stroke-miterlimit="10" d="M108.279 56.775L105.295 58.536 102.406 56.706"/><path clip-path="url(#z)" fill="none" stroke="#000" stroke-width=".145" stroke-miterlimit="10" d="M105.287 61.232L105.287 58.535"/><path clip-path="url(#z)" fill="none" stroke="#000" stroke-width=".145" stroke-miterlimit="10" d="M101.532 57.673L97.248 60.182 50.487 30.436"/><path clip-path="url(#z)" fill="none" stroke="#000" stroke-width=".145" stroke-miterlimit="10" d="M104.13 54.572L97.248 58.603 50.435 28.825"/><path clip-path="url(#z)" fill="none" stroke="#000" stroke-width=".145" stroke-miterlimit="10" d="M97.248 60.183L97.248 58.604"/><path clip-path="url(#z)" fill="none" stroke="#000" stroke-width=".145" stroke-miterlimit="10" d="M99.375 48.037L92.122 52.283"/><path clip-path="url(#z)" fill="none" stroke="#000" stroke-width=".145" stroke-miterlimit="10" d="M99.39 48.037L99.39 49.564 92.147 53.805 79.606 45.828"/><path clip-path="url(#z)" fill="none" stroke="#000" stroke-width=".145" stroke-miterlimit="10" d="M92.122 53.788L92.122 52.296"/><path clip-path="url(#z)" fill="none" stroke="#000" stroke-width=".145" stroke-miterlimit="10" d="M94.202 44.986L89.776 47.578"/><path clip-path="url(#z)" fill="none" stroke="#000" stroke-width=".145" stroke-miterlimit="10" d="M82.262 42.803L79.607 44.357"/><path clip-path="url(#z)" fill="none" stroke="#000" stroke-width=".145" stroke-miterlimit="10" d="M62.14 27.872L56.432 31.214"/><path clip-path="url(#z)" fill="none" stroke="#000" stroke-width=".145" stroke-miterlimit="10" d="M62.14 26.098L56.432 29.439"/><path clip-path="url(#z)" fill="none" stroke="#000" stroke-width=".145" stroke-miterlimit="10" d="M57.264 23.005L51.556 26.347"/><path clip-path="url(#z)" fill="none" stroke="#000" stroke-width=".145" stroke-miterlimit="10" d="M58.175 21.881L48.607 27.48"/><path clip-path="url(#z)" fill="none" stroke="#000" stroke-width=".145" stroke-miterlimit="10" d="M107.104 52.832L105.6 53.712"/><g clip-path="url(#z)"><text transform="matrix(.8203 .5719 -.8644 .5029 36.45 68.957)"><tspan x="0" y="0" fill="#D1D3D4" font-family="'Calibre-Semibold'" font-size="6.297" letter-spacing="1">C</tspan><tspan x="5.165" y="0" fill="#D1D3D4" font-family="'Calibre-Semibold'" font-size="6.297" letter-spacing="1">A</tspan><tspan x="10.227" y="-.001" fill="#D1D3D4" font-family="'Calibre-Semibold'" font-size="6.297" letter-spacing="1">THERINE L</tspan><tspan x="51.648" y="0" fill="#D1D3D4" font-family="'Calibre-Semibold'" font-size="6.297">N</tspan></text></g><path clip-path="url(#z)" fill="none" stroke="#000" stroke-width=".145" stroke-miterlimit="10" d="M113.412 57.26L99.896 64.894 38.945 24.749"/><path clip-path="url(#z)" fill="none" stroke="#000" stroke-width=".145" stroke-miterlimit="10" d="M104.007 55.75L102.386 56.7 102.386 59.382 105.291 61.229 108.278 59.481 108.278 56.776 107.066 56.004"/><path clip-path="url(#z)" fill="none" stroke="#000" stroke-width=".145" stroke-miterlimit="10" d="M99.917 64.905L99.917 100.667"/><path clip-path="url(#z)" fill="none" stroke="#000" stroke-width=".145" stroke-miterlimit="10" d="M107.104 95.674L106.12 96.254"/><path clip-path="url(#z)" fill="none" stroke="#000" stroke-width=".145" stroke-miterlimit="10" d="M107.104 95.674L107.721 96.068 113.411 92.714 113.411 57.24 107.178 53.663"/></g><g><defs><path id="A" d="M32.4 0H115.148V104.495H32.4z"/></defs><clipPath id="B"><use xlink:href="#A" overflow="visible"/></clipPath><path clip-path="url(#B)" fill="none" stroke="#000" stroke-width=".145" stroke-miterlimit="10" d="M107.103 95.674v-.858a.52.52 0 0 0-.171-.385"/><path clip-path="url(#B)" fill="none" stroke="#000" stroke-width=".145" stroke-miterlimit="10" d="M107.729 96.068v-1.253c0-.301-.262-.698-.866-.354-.424.257-.742.721-.742 1.167v1.383l-6.203 3.656-9.339-6.467-11.812-8.074-9.905-6.799-20.086-14.43-9.832-7.084V24.75m66.339 29.378c-.732.127-1.288.791-1.288 1.59v1.121c0 .439.691.793 1.545.793s1.545-.354 1.545-.793v-1.121c0-.799-.557-1.463-1.288-1.59v-.171c0-.079-.099-.171-.258-.171-.157 0-.256.092-.256.171v.171z"/></g><g><defs><path id="C" d="M-72 -374.04H1152V417.96H-72z"/></defs></g></svg>