<svg xmlns="http://www.w3.org/2000/svg" xmlns:xlink="http://www.w3.org/1999/xlink" width="144" height="181.76" viewBox="0 0 144 181.76"><defs><path id="a" d="M-71 -381.24H1153V410.76H-71z"/></defs><defs><path id="b" d="M-71 -381.24H1153V410.76H-71z"/></defs><defs><path id="c" d="M-71 -381.24H1153V410.76H-71z"/></defs><defs><path id="d" d="M-71 -381.24H1153V410.76H-71z"/></defs><defs><path id="e" d="M-71 -381.24H1153V410.76H-71z"/></defs><defs><path id="f" d="M-71 -381.24H1153V410.76H-71z"/></defs><clipPath id="g"><use xlink:href="#f" overflow="visible"/></clipPath><g clip-path="url(#g)"><text transform="rotate(90 -59.993 64.643)"><tspan x="0" y="0" fill="#D1D3D4" font-family="'Calibre-Semibold'" font-size="7" letter-spacing="1">BR</tspan><tspan x="10.892" y="0" fill="#D1D3D4" font-family="'Calibre-Semibold'" font-size="7" letter-spacing="1">O</tspan><tspan x="16.709" y="0" fill="#D1D3D4" font-family="'Calibre-Semibold'" font-size="7" letter-spacing="1">A</tspan><tspan x="22.631" y="0" fill="#D1D3D4" font-family="'Calibre-Semibold'" font-size="7" letter-spacing="1">D</tspan><tspan x="28.364" y="0" fill="#D1D3D4" font-family="'Calibre-Semibold'" font-size="7" letter-spacing="1">W</tspan><tspan x="35.202" y="0" fill="#D1D3D4" font-family="'Calibre-Semibold'" font-size="7" letter-spacing="1">A</tspan><tspan x="40.635" y="0" fill="#D1D3D4" font-family="'Calibre-Semibold'" font-size="7">Y</tspan></text></g><g clip-path="url(#g)"><text transform="rotate(90 9.167 125.907)"><tspan x="0" y="0" fill="#D1D3D4" font-family="'Calibre-Semibold'" font-size="7" letter-spacing="1">L</tspan><tspan x="5.096" y="0" fill="#D1D3D4" font-family="'Calibre-Semibold'" font-size="7" letter-spacing="1">A</tspan><tspan x="11.025" y="0" fill="#D1D3D4" font-family="'Calibre-Semibold'" font-size="7" letter-spacing="1">F</tspan><tspan x="15.799" y="0" fill="#D1D3D4" font-family="'Calibre-Semibold'" font-size="7" letter-spacing="1">A</tspan><tspan x="21.238" y="0" fill="#D1D3D4" font-family="'Calibre-Semibold'" font-size="7" letter-spacing="1">YETTE </tspan><tspan x="51.387" y="0" fill="#D1D3D4" font-family="'Calibre-Semibold'" font-size="7" letter-spacing="1">S</tspan><tspan x="56.566" y="0" fill="#D1D3D4" font-family="'Calibre-Semibold'" font-size="7">T</tspan></text></g><g clip-path="url(#g)"><text transform="translate(46.917 121.738)"><tspan x="0" y="0" fill="#D1D3D4" font-family="'Calibre-Semibold'" font-size="7" letter-spacing="1">LE</tspan><tspan x="9.961" y="0" fill="#D1D3D4" font-family="'Calibre-Semibold'" font-size="7" letter-spacing="1">O</tspan><tspan x="15.834" y="0" fill="#D1D3D4" font-family="'Calibre-Semibold'" font-size="7" letter-spacing="1">N</tspan><tspan x="21.658" y="0" fill="#D1D3D4" font-family="'Calibre-Semibold'" font-size="7" letter-spacing="1">A</tspan><tspan x="27.44" y="0" fill="#D1D3D4" font-family="'Calibre-Semibold'" font-size="7" letter-spacing="1">RD </tspan><tspan x="41.328" y="0" fill="#D1D3D4" font-family="'Calibre-Semibold'" font-size="7" letter-spacing="1">S</tspan><tspan x="46.368" y="0" fill="#D1D3D4" font-family="'Calibre-Semibold'" font-size="7">T</tspan></text></g><g clip-path="url(#g)"><text transform="translate(41.976 175.442)"><tspan x="0" y="0" fill="#D1D3D4" font-family="'Calibre-Semibold'" font-size="7" letter-spacing="1">C</tspan><tspan x="5.593" y="0" fill="#D1D3D4" font-family="'Calibre-Semibold'" font-size="7" letter-spacing="1">A</tspan><tspan x="11.074" y="0" fill="#D1D3D4" font-family="'Calibre-Semibold'" font-size="7" letter-spacing="1">T</tspan><tspan x="16.639" y="0" fill="#D1D3D4" font-family="'Calibre-Semibold'" font-size="7" letter-spacing="1">H</tspan><tspan x="22.736" y="0" fill="#D1D3D4" font-family="'Calibre-Semibold'" font-size="7" letter-spacing="1">ER</tspan><tspan x="33.369" y="0" fill="#D1D3D4" font-family="'Calibre-Semibold'" font-size="7" letter-spacing="1">I</tspan><tspan x="36.617" y="0" fill="#D1D3D4" font-family="'Calibre-Semibold'" font-size="7" letter-spacing="1">NE L</tspan><tspan x="55.845" y="0" fill="#D1D3D4" font-family="'Calibre-Semibold'" font-size="7">N</tspan></text></g><path clip-path="url(#g)" d="M54.688 137.142L70.796 137.142 70.796 141.668 65.89 141.668 65.89 143.918 66.343 143.918 66.343 145.09 64.25 145.09 64.25 145.293 61.906 145.293 61.906 145.059 60.078 145.059 60.078 145.293 54.484 145.293 54.484 142.543 54.671 142.543z"/><defs><path id="h" d="M16.156 135.466H128.17V160.743H16.156z"/></defs><clipPath id="i"><use xlink:href="#h" overflow="visible"/></clipPath><path clip-path="url(#i)" fill="none" stroke="#D0D2D3" stroke-width="1.092" stroke-miterlimit="10" d="M125.485 137.142L125.485 159.065 17.506 152.348 17.557 137.142z"/><defs><path id="j" d="M-71 -381.24H1153V410.76H-71z"/></defs><clipPath id="k"><use xlink:href="#j" overflow="visible"/></clipPath><path clip-path="url(#k)" d="M81.057 44.425L81.057 74.162 69.986 67.79 69.986 38.011z"/><path clip-path="url(#k)" fill="none" stroke="#D1D3D4" stroke-width=".154" stroke-miterlimit="10" d="M106.787 95.057L68.543 72.901"/><path clip-path="url(#k)" fill="none" stroke="#D1D3D4" stroke-width=".154" stroke-miterlimit="10" d="M117.618 58.995L106.806 65.298 35.261 23.851"/><path clip-path="url(#k)" fill="none" stroke="#D1D3D4" stroke-width=".154" stroke-miterlimit="10" d="M117.618 61.974L106.806 68.276 35.261 26.829"/><path clip-path="url(#k)" fill="none" stroke="#D1D3D4" stroke-width=".154" stroke-miterlimit="10" d="M117.618 64.952L106.806 71.255 35.261 29.807"/><path clip-path="url(#k)" fill="none" stroke="#D1D3D4" stroke-width=".154" stroke-miterlimit="10" d="M117.618 67.931L106.806 74.232 35.261 32.785"/><path clip-path="url(#k)" fill="none" stroke="#D1D3D4" stroke-width=".154" stroke-miterlimit="10" d="M117.618 70.909L106.806 77.211 35.261 35.764"/><path clip-path="url(#k)" fill="none" stroke="#D1D3D4" stroke-width=".154" stroke-miterlimit="10" d="M117.618 73.887L106.806 80.189 35.261 38.742"/><path clip-path="url(#k)" fill="none" stroke="#D1D3D4" stroke-width=".154" stroke-miterlimit="10" d="M117.618 76.865L106.806 83.168 35.261 41.72"/><path clip-path="url(#k)" fill="none" stroke="#D1D3D4" stroke-width=".154" stroke-miterlimit="10" d="M117.618 79.844L106.806 86.146 35.261 44.699"/><path clip-path="url(#k)" fill="none" stroke="#D1D3D4" stroke-width=".154" stroke-miterlimit="10" d="M117.619 82.821L115.075 84.306"/><path clip-path="url(#k)" fill="none" stroke="#D1D3D4" stroke-width=".154" stroke-miterlimit="10" d="M109.333 87.651L106.807 89.125 35.261 47.678"/><path clip-path="url(#k)" fill="none" stroke="#D1D3D4" stroke-width=".154" stroke-miterlimit="10" d="M115.075 87.283L117.619 85.8"/><path clip-path="url(#k)" fill="none" stroke="#D1D3D4" stroke-width=".154" stroke-miterlimit="10" d="M109.333 90.63L106.807 92.104 35.261 50.655"/><path clip-path="url(#k)" fill="none" stroke="#D1D3D4" stroke-width=".154" stroke-miterlimit="10" d="M117.618 56.017L106.806 62.32 35.261 20.872"/><g clip-path="url(#k)"><text transform="matrix(.8479 .5302 -.8381 .5455 38.002 68.88)"><tspan x="0" y="0" fill="#D1D3D4" font-family="'Calibre-Semibold'" font-size="6.297" letter-spacing="1">LE</tspan><tspan x="9.464" y="-.001" fill="#D1D3D4" font-family="'Calibre-Semibold'" font-size="6.297" letter-spacing="1">O</tspan><tspan x="15" y="-.001" fill="#D1D3D4" font-family="'Calibre-Semibold'" font-size="6.297" letter-spacing="1">NAR</tspan><tspan x="31.006" y="-.001" fill="#D1D3D4" font-family="'Calibre-Semibold'" font-size="6.297" letter-spacing="1">D</tspan><tspan x="36.346" y="-.001" fill="#D1D3D4" font-family="'Calibre-Semibold'" font-size="6.297" letter-spacing="1"> </tspan><tspan x="39.193" y="0" fill="#D1D3D4" font-family="'Calibre-Semibold'" font-size="6.297" letter-spacing="1">S</tspan><tspan x="43.971" y="-.001" fill="#D1D3D4" font-family="'Calibre-Semibold'" font-size="6.297">T</tspan></text></g><path clip-path="url(#k)" fill="none" stroke="#000" stroke-width=".154" stroke-miterlimit="10" d="M106.805 53.568L106.805 48.858"/><path clip-path="url(#k)" fill="none" stroke="#000" stroke-width=".154" stroke-miterlimit="10" d="M43.906 15.849L43.906 11.953"/><path clip-path="url(#k)" fill="none" stroke="#000" stroke-width=".154" stroke-miterlimit="10" d="M56.983 20.907L56.983 23.078"/><path clip-path="url(#k)" fill="none" stroke="#000" stroke-width=".154" stroke-miterlimit="10" d="M51.209 17.621L51.209 19.792"/><path clip-path="url(#k)" fill="none" stroke="#000" stroke-width=".154" stroke-miterlimit="10" d="M58.54 20.053L58.54 22.225"/><path clip-path="url(#k)" fill="none" stroke="#000" stroke-width=".145" stroke-miterlimit="10" d="M58.55 22.19L56.965 23.118"/><path clip-path="url(#k)" fill="none" stroke="#000" stroke-width=".145" stroke-miterlimit="10" d="M58.471 20.133L57.003 20.992"/><path clip-path="url(#k)" fill="none" stroke="#000" stroke-width=".145" stroke-miterlimit="10" d="M98.232 38.807L91.898 42.514"/><path clip-path="url(#k)" fill="none" stroke="#000" stroke-width=".145" stroke-miterlimit="10" d="M103.086 42.672L97.658 45.849"/><path clip-path="url(#k)" fill="none" stroke="#000" stroke-width=".154" stroke-miterlimit="10" d="M66.153 24.44L66.153 26.611"/><path clip-path="url(#k)" fill="none" stroke="#000" stroke-width=".145" stroke-miterlimit="10" d="M71.456 22.672L97.08 39.501"/><path clip-path="url(#k)" fill="none" stroke="#000" stroke-width=".145" stroke-miterlimit="10" d="M98.202 38.8L103.086 42.008"/><path clip-path="url(#k)" fill="none" stroke="#000" stroke-width=".145" stroke-miterlimit="10" d="M71.456 22.004L97.576 39.16"/><path clip-path="url(#k)" fill="none" stroke="#000" stroke-width=".145" stroke-miterlimit="10" d="M40.823 14.575L43.481 16.114"/><path clip-path="url(#k)" fill="none" stroke="#000" stroke-width=".145" stroke-miterlimit="10" d="M51.209 17.621L56.982 20.971"/><path clip-path="url(#k)" fill="none" stroke="#000" stroke-width=".145" stroke-miterlimit="10" d="M58.558 20.133L66.229 24.577"/><path clip-path="url(#k)" fill="none" stroke="#000" stroke-width=".145" stroke-miterlimit="10" d="M58.515 22.191L66.153 26.617"/><path clip-path="url(#k)" fill="none" stroke="#000" stroke-width=".145" stroke-miterlimit="10" d="M91.926 42.523L97.667 45.85"/><path clip-path="url(#k)" fill="none" stroke="#000" stroke-width=".154" stroke-miterlimit="10" d="M106.775 39.979L106.775 37.666"/><path clip-path="url(#k)" fill="none" stroke="#000" stroke-width=".154" stroke-miterlimit="10" d="M97.133 50.235L96.217 49.686 95.065 50.359 45.477 21.632 45.477 19.199"/><path clip-path="url(#k)" fill="none" stroke="#000" stroke-width=".154" stroke-miterlimit="10" d="M57.91 13.775L52.993 10.546 41.817 17.089 95.064 47.924"/><path clip-path="url(#k)" fill="none" stroke="#000" stroke-width=".154" stroke-miterlimit="10" d="M95.065 47.923L95.065 50.356"/><path clip-path="url(#k)" fill="none" stroke="#000" stroke-width=".154" stroke-miterlimit="10" d="M96.223 47.232L95.065 47.909"/><path clip-path="url(#k)" fill="none" stroke="#000" stroke-width=".154" stroke-miterlimit="10" d="M96.223 49.686L96.223 47.232 91.926 44.742"/><path clip-path="url(#k)" fill="none" stroke="#000" stroke-width=".154" stroke-miterlimit="10" d="M106.855 58.034L106.855 55.36"/><path clip-path="url(#k)" fill="none" stroke="#000" stroke-width=".154" stroke-miterlimit="10" d="M112.702 47.899L115.951 50.033 115.951 52.72 106.854 58.044 97.133 52.412 97.133 49.732 101.042 47.446"/><path clip-path="url(#k)" fill="none" stroke="#000" stroke-width=".154" stroke-miterlimit="10" d="M115.951 50.033L106.853 55.359 97.133 49.733"/><path clip-path="url(#k)" fill="none" stroke="#000" stroke-width=".145" stroke-miterlimit="10" d="M42.792 17.636L42.792 18.947 45.478 20.518"/><path clip-path="url(#k)" fill="none" stroke="#000" stroke-width=".145" stroke-miterlimit="10" d="M51.209 19.789L56.982 23.135"/><path clip-path="url(#k)" fill="none" stroke="#000" stroke-width=".141" stroke-miterlimit="10" d="M91.901 44.732L91.901 42.521"/><path clip-path="url(#k)" fill="none" stroke="#000" stroke-width=".141" stroke-miterlimit="10" d="M97.667 49.38L97.667 45.856"/><path clip-path="url(#k)" fill="none" stroke="#000" stroke-width=".145" stroke-miterlimit="10" d="M110.584 38.845L106.811 41.054 103.085 38.892"/><path clip-path="url(#k)" fill="none" stroke="#000" stroke-width=".154" stroke-miterlimit="10" d="M110.584 43.646L110.94 43.854 110.94 45.502 106.818 47.911 102.666 45.506 102.666 43.982 103.085 43.736"/><path clip-path="url(#k)" fill="none" stroke="#000" stroke-width=".154" stroke-miterlimit="10" d="M106.813 47.906L106.813 41.054"/><path clip-path="url(#k)" fill="none" stroke="#000" stroke-width=".154" stroke-miterlimit="10" d="M110.941 44.369L112.703 45.39 112.703 50.13 106.805 53.576 101.042 50.237 101.042 45.486 102.666 44.536"/><path clip-path="url(#k)" fill="none" stroke="#000" stroke-width=".154" stroke-miterlimit="10" d="M112.702 45.391L106.805 48.859 101.086 45.546"/><path clip-path="url(#k)" fill="none" stroke="#000" stroke-width=".154" stroke-miterlimit="10" d="M40.823 14.547L35.182 17.85 35.182 57.437"/><path clip-path="url(#k)" fill="none" stroke="#000" stroke-width=".154" stroke-miterlimit="10" d="M47.064 10.894L51.017 8.581 58.451 13.463"/><path clip-path="url(#k)" fill="none" stroke="#000" stroke-width=".154" stroke-miterlimit="10" d="M106.806 59.343L106.767 95.08"/><path clip-path="url(#k)" fill="none" stroke="#D1D3D4" stroke-width=".154" stroke-miterlimit="10" d="M65.522 71.15L35.249 53.611"/><path clip-path="url(#k)" fill="none" stroke="#000" stroke-width=".145" stroke-miterlimit="10" d="M42.455 9.211L40.822 10.167 40.822 14.575"/><path clip-path="url(#k)" fill="none" stroke="#000" stroke-width=".145" stroke-miterlimit="10" d="M45.546 9.224L47.063 10.104 47.063 13.979"/><path clip-path="url(#k)" fill="none" stroke="#000" stroke-width=".145" stroke-miterlimit="10" d="M40.823 10.166L43.906 11.952 47.065 10.103"/><path clip-path="url(#k)" fill="none" stroke="#000" stroke-width=".154" stroke-miterlimit="10" d="M108.085 35.895L108.893 36.425 108.893 38.742 106.774 39.979 104.637 38.741 104.637 36.426 105.739 35.781"/><path clip-path="url(#k)" fill="none" stroke="#000" stroke-width=".145" stroke-miterlimit="10" d="M108.896 36.427L106.774 37.667 104.635 36.427"/><g><defs><path id="l" d="M33.4 0H124.029V97.295H33.4z"/></defs><clipPath id="m"><use xlink:href="#l" overflow="visible"/></clipPath><path clip-path="url(#m)" fill="none" stroke="#000" stroke-width=".154" stroke-miterlimit="10" d="M104.805 33.933c-.045.091-.203.264-.218.334l.129.342c.13.174.606.335 1.399.108.794-.225 2.457-1.106 2.609-1.999l-.266-.5s-.247-.079-.517-.009"/></g><g><defs><path id="n" d="M-71 -381.24H1153V410.76H-71z"/></defs><clipPath id="o"><use xlink:href="#n" overflow="visible"/></clipPath><path clip-path="url(#o)" fill="none" stroke="#000" stroke-width=".154" stroke-miterlimit="10" d="M105.551 30.669L106.68 31.216 107.027 31.07 107.808 29.976"/></g><g><defs><path id="p" d="M33.4 0H124.029V97.295H33.4z"/></defs><clipPath id="q"><use xlink:href="#p" overflow="visible"/></clipPath><path clip-path="url(#q)" fill="none" stroke="#000" stroke-width=".154" stroke-miterlimit="10" d="M108.528 33.17a1.883 1.883 0 0 1-3.207 1.711l-.077-.059m-.293-.486a1.884 1.884 0 0 1 1.448-2.609 1.816 1.816 0 0 1 1.65.566c.222.25.302.445.302.445m-2.374 9.713c.315.903.068 1.637-.552 1.639s-1.377-.729-1.692-1.633c-.315-.904-.068-1.638.552-1.639.62-.003 1.377.729 1.692 1.633zm1.613.03c-.315.903-.068 1.637.552 1.639s1.377-.73 1.692-1.633c.314-.904.068-1.638-.552-1.64-.62-.001-1.377.73-1.692 1.634z"/><path clip-path="url(#q)" fill="none" stroke="#000" stroke-width=".145" stroke-linejoin="bevel" stroke-miterlimit="10" d="M108.081 35.998s.005-.164-.01-.203a.138.138 0 0 0-.103-.091c-.064-.016-.331.062-.331.062s-.003-.045-.003-.105v-.048l.1-.429"/><path clip-path="url(#q)" fill="none" stroke="#000" stroke-width=".145" stroke-miterlimit="10" d="M107.188 35.979c-.021.078.06.163.076.217.024.079.205.135.363.019"/></g><g><defs><path id="r" d="M-71 -381.24H1153V410.76H-71z"/></defs><clipPath id="s"><use xlink:href="#r" overflow="visible"/></clipPath><path clip-path="url(#s)" fill="none" stroke="#000" stroke-width=".145" stroke-miterlimit="10" d="M106.182 36.707L106.182 36.532 106.425 36.124 106.383 35.979 105.933 35.904 105.531 35.659 105.694 35.185"/><path clip-path="url(#s)" fill="none" stroke="#000" stroke-width=".154" stroke-miterlimit="10" d="M104.637 37.983L103.085 38.892 103.085 43.947 106.818 46.109 110.585 43.909 110.585 38.845 108.899 37.867"/></g><g><defs><path id="t" d="M33.4 0H124.029V97.295H33.4z"/></defs><clipPath id="u"><use xlink:href="#t" overflow="visible"/></clipPath><path clip-path="url(#u)" fill="none" stroke="#000" stroke-width=".145" stroke-miterlimit="10" d="M43.743 7.509c-.731.127-1.288.791-1.288 1.59v1.122c0 .438.691.793 1.545.793s1.545-.355 1.545-.793V9.099c0-.798-.557-1.462-1.288-1.59v-.17c0-.079-.098-.172-.258-.172-.157 0-.256.093-.256.172v.17z"/></g><g><defs><path id="v" d="M-71 -381.24H1153V410.76H-71z"/></defs><clipPath id="w"><use xlink:href="#v" overflow="visible"/></clipPath><path clip-path="url(#w)" fill="none" stroke="#000" stroke-width=".154" stroke-miterlimit="10" d="M117.618 53.038L106.806 59.341 35.261 17.895"/><path clip-path="url(#w)" fill="none" stroke="#000" stroke-width=".154" stroke-miterlimit="10" d="M68.543 73.447L66.455 72.241 64.571 73.339 67.179 74.847 68.543 74.053"/><path clip-path="url(#w)" fill="none" stroke="#000" stroke-width=".154" stroke-miterlimit="10" d="M68.543 73.447L66.455 72.241"/><path clip-path="url(#w)" fill="none" stroke="#000" stroke-width=".154" stroke-miterlimit="10" d="M68.543 75.19L67.563 74.623"/></g><g><defs><path id="x" d="M33.4 0H124.029V97.295H33.4z"/></defs><clipPath id="y"><use xlink:href="#x" overflow="visible"/></clipPath><path clip-path="url(#y)" fill="none" stroke="#000" stroke-width=".154" stroke-miterlimit="10" d="M66.878 69.868c-.285.242-.419.651-.419.861v1.541"/></g><g><defs><path id="z" d="M-71 -381.24H1153V410.76H-71z"/></defs><clipPath id="A"><use xlink:href="#z" overflow="visible"/></clipPath><path clip-path="url(#A)" fill="none" stroke="#000" stroke-width=".154" stroke-miterlimit="10" d="M66.049 74.193L65.517 74.503 35.183 57.414"/><path clip-path="url(#A)" fill="none" stroke="#000" stroke-width=".154" stroke-miterlimit="10" d="M65.521 74.503L65.521 73.888"/></g><g><defs><path id="B" d="M33.4 0H124.029V97.295H33.4z"/></defs><clipPath id="C"><use xlink:href="#B" overflow="visible"/></clipPath><path clip-path="url(#C)" fill="none" stroke="#000" stroke-width=".154" stroke-miterlimit="10" d="M115.075 90.228v-5.765l-5.742 3.188v5.933l-2.568 1.497-19.247-9.11-15.437-7.77-3.538-1.993v-4.051c0-.263-.245-1.495-1.51-2.227-1.067-.62-1.513.485-1.513.874v1.981"/></g><g><defs><path id="D" d="M-71 -381.24H1153V410.76H-71z"/></defs><clipPath id="E"><use xlink:href="#D" overflow="visible"/></clipPath><path clip-path="url(#E)" fill="none" stroke="#000" stroke-width=".154" stroke-miterlimit="10" d="M111.012 90.639L111.012 89.143 110.078 89.683 110.078 91.18"/></g><g><defs><path id="F" d="M33.4 0H124.029V97.295H33.4z"/></defs><clipPath id="G"><use xlink:href="#F" overflow="visible"/></clipPath><path clip-path="url(#G)" fill="none" stroke="#000" stroke-width=".154" stroke-miterlimit="10" d="M115.951 51.975l1.654 1.085v35.703l-2.53 1.466c-.087-.032-2.168-.641-3.842.285l-1.321.766a1.995 1.995 0 0 0-.58.429"/></g><g><defs><path id="H" d="M-71 -381.24H1153V410.76H-71z"/></defs><clipPath id="I"><use xlink:href="#H" overflow="visible"/></clipPath><path clip-path="url(#I)" fill="none" stroke="#000" stroke-width=".145" stroke-miterlimit="10" d="M66.153 26.611L71.457 23.452 71.457 21.407 58.958 13.17 51.211 17.647"/><path clip-path="url(#I)" fill="none" stroke="#000" stroke-width=".145" stroke-miterlimit="10" d="M71.456 21.398L66.167 24.517"/></g><g><defs><path id="J" d="M33.4 0H124.029V97.295H33.4z"/></defs></g><g><defs><path id="K" d="M-71 -381.24H1153V410.76H-71z"/></defs></g></svg>