<svg id="Layer_1" data-name="Layer 1" xmlns="http://www.w3.org/2000/svg" xmlns:xlink="http://www.w3.org/1999/xlink" viewBox="0 0 123.31 164.76"><defs><style>.cls-1,.cls-12,.cls-17,.cls-2,.cls-3{fill:none;}.cls-2,.cls-3{stroke:#231f20;}.cls-12,.cls-17,.cls-2,.cls-3{stroke-miterlimit:10;}.cls-12,.cls-2{stroke-width:0.15px;}.cls-3{stroke-width:0.14px;}.cls-4{clip-path:url(#clip-path);}.cls-5{font-size:5.46px;fill:#d1d3d4;font-family:Calibre-Semibold, Calibre;font-weight:700;letter-spacing:0.22em;}.cls-6{letter-spacing:0.18em;}.cls-7{letter-spacing:0.24em;}.cls-8{letter-spacing:0.24em;}.cls-9{letter-spacing:0.24em;}.cls-10{letter-spacing:0em;}.cls-11{fill:#231f20;}.cls-12{stroke:#fff;}.cls-13{fill:#d2d3d4;}.cls-14{clip-path:url(#clip-path-5);}.cls-15{fill:#010101;}.cls-16{opacity:0.5;}.cls-17{stroke:#d0d2d3;stroke-width:1.09px;}</style><clipPath id="clip-path"><rect class="cls-1" x="24.04" y="1.69" width="71.7" height="90.53"/></clipPath><clipPath id="clip-path-5"><rect class="cls-1" x="23.12" y="124.29" width="77.66" height="17.52"/></clipPath></defs><title>Artboard 1residence_I_key

residence_I_key_horizontalresidence_I_key

residence_I_key_horizontal</title><polyline class="cls-2" points="94.21 53.9 82.5 60.51 29.69 25.73"/><polyline class="cls-2" points="94.21 56.49 82.5 63.1 29.69 28.32"/><polyline class="cls-2" points="94.21 59.08 82.5 65.69 29.69 30.91"/><polyline class="cls-2" points="94.21 61.67 82.5 68.28 29.69 33.5"/><polyline class="cls-2" points="94.21 64.26 82.5 70.88 29.69 36.09"/><polyline class="cls-2" points="94.21 66.85 82.5 73.47 29.69 38.69"/><polyline class="cls-2" points="94.21 69.45 82.5 76.06 29.69 41.28"/><polyline class="cls-2" points="94.21 72.04 82.5 78.65 29.69 43.87"/><polyline class="cls-2" points="94.21 74.63 82.5 81.24 29.69 46.46"/><polyline class="cls-2" points="94.21 77.22 82.5 83.83 29.69 49.05"/><polyline class="cls-2" points="94.21 79.81 82.5 86.43 29.69 51.65"/><line class="cls-3" x1="39.7" y1="28.06" x2="39.7" y2="26.67"/><line class="cls-3" x1="44.84" y1="28.74" x2="44.84" y2="27.17"/><line class="cls-3" x1="40.63" y1="26.1" x2="40.63" y2="24.53"/><line class="cls-3" x1="49.79" y1="25.87" x2="49.79" y2="24.3"/><line class="cls-3" x1="83.92" y1="51.66" x2="83.92" y2="50.29"/><line class="cls-3" x1="64.92" y1="41.47" x2="64.92" y2="40.11"/><line class="cls-3" x1="37.96" y1="25.56" x2="37.96" y2="27.88"/><line class="cls-3" x1="46.35" y1="20.58" x2="46.35" y2="22.18"/><line class="cls-3" x1="83.92" y1="51.66" x2="84.66" y2="52.13"/><line class="cls-3" x1="43.48" y1="20.63" x2="43.48" y2="16.48"/><line class="cls-3" x1="35.15" y1="15.34" x2="35.15" y2="10.88"/><line class="cls-3" x1="38.35" y1="11.77" x2="38.35" y2="9.8"/><line class="cls-3" x1="38.33" y1="18.74" x2="38.33" y2="12.86"/><line class="cls-3" x1="41.64" y1="15.3" x2="41.64" y2="10.96"/><line class="cls-3" x1="38.35" y1="11.87" x2="38.35" y2="9.9"/><line class="cls-3" x1="41.95" y1="16.65" x2="41.95" y2="15.26"/><line class="cls-3" x1="34.77" y1="16.84" x2="34.77" y2="15.45"/><line class="cls-3" x1="38.05" y1="23.8" x2="38.05" y2="19.67"/><line class="cls-3" x1="33.38" y1="20.67" x2="33.38" y2="16.65"/><polyline class="cls-3" points="39.88 26.75 37.96 27.88 30.94 23.27 30.94 20.96 33.37 19.53"/><line class="cls-3" x1="39.68" y1="26.71" x2="40.64" y2="26.14"/><line class="cls-3" x1="37.99" y1="23.77" x2="33.38" y2="20.74"/><line class="cls-3" x1="38.35" y1="17.22" x2="41.88" y2="15.14"/><line class="cls-3" x1="38.06" y1="19.02" x2="41.88" y2="16.78"/><g class="cls-4"><path class="cls-3" d="M37.65,14c.27.78.06,1.42-.48,1.42S36,14.8,35.71,14s-.06-1.41.47-1.42S37.38,13.22,37.65,14Z"/><path class="cls-3" d="M39.05,14c-.27.79-.06,1.42.48,1.42S40.72,14.82,41,14s.06-1.42-.48-1.42S39.32,13.25,39.05,14Z"/></g><line class="cls-3" x1="38.05" y1="19.71" x2="43.52" y2="16.5"/><line class="cls-3" x1="37.96" y1="23.83" x2="43.4" y2="20.63"/><line class="cls-3" x1="34.59" y1="15.45" x2="35.12" y2="15.14"/><line class="cls-3" x1="33.37" y1="16.64" x2="37.99" y2="19.67"/><line class="cls-3" x1="30.94" y1="20.94" x2="37.96" y2="25.56"/><line class="cls-3" x1="41.71" y1="15.09" x2="41.95" y2="15.26"/><line class="cls-3" x1="34.77" y1="15.82" x2="33.38" y2="16.65"/><line class="cls-3" x1="30.94" y1="22.34" x2="29.69" y2="23.09"/><line class="cls-3" x1="43.53" y1="18.72" x2="46.35" y2="20.58"/><line class="cls-3" x1="38.24" y1="13.02" x2="41.66" y2="10.97"/><line class="cls-3" x1="35.15" y1="10.93" x2="36.49" y2="10.14"/><line class="cls-3" x1="38.24" y1="11.94" x2="40.3" y2="10.73"/><line class="cls-3" x1="38.36" y1="9.95" x2="40.26" y2="8.84"/><line class="cls-3" x1="35.15" y1="10.88" x2="38.33" y2="13.06"/><line class="cls-3" x1="40.18" y1="9.91" x2="41.66" y2="10.89"/><line class="cls-3" x1="41.95" y1="15.63" x2="43.51" y2="16.66"/><line class="cls-3" x1="36.47" y1="10.67" x2="38.4" y2="11.94"/><line class="cls-3" x1="36.63" y1="8.85" x2="38.35" y2="9.98"/><line class="cls-3" x1="39.28" y1="8.2" x2="40.27" y2="8.86"/><g class="cls-4"><path class="cls-3" d="M36.64,6.63c0,.08-.18.23-.19.29l.11.29c.11.15.52.29,1.21.1s2.13-1,2.26-1.73l-.23-.44a.89.89,0,0,0-.45,0"/></g><polyline class="cls-3" points="37.28 3.8 38.26 4.27 38.56 4.15 39.24 3.2"/><g class="cls-4"><path class="cls-3" d="M39.86,6a1.6,1.6,0,0,1,0,.69,1.63,1.63,0,0,1-2.79.79L37,7.4"/><path class="cls-3" d="M36.76,7a1.82,1.82,0,0,1-.11-.4A1.63,1.63,0,0,1,38,4.72a1.55,1.55,0,0,1,1.43.49,1.47,1.47,0,0,1,.26.38"/><path class="cls-3" d="M39.47,8.42a1.05,1.05,0,0,0,0-.18.18.18,0,0,0-.09-.08,1.31,1.31,0,0,0-.29.06V8.08l.08-.37"/><path class="cls-3" d="M38.7,8.4c0,.07,0,.14.07.19s.17.12.31,0"/></g><polyline class="cls-3" points="37.83 9.03 37.83 8.88 38.04 8.53 38 8.4 37.61 8.34 37.26 8.12 37.41 7.71"/><line class="cls-3" x1="35.16" y1="15.14" x2="38.35" y2="17.24"/><line class="cls-3" x1="34.8" y1="16.63" x2="38.14" y2="18.83"/><line class="cls-3" x1="37.46" y1="8.13" x2="36.47" y2="8.79"/><line class="cls-3" x1="40.18" y1="10.79" x2="40.18" y2="8.94"/><line class="cls-3" x1="36.47" y1="10.67" x2="36.47" y2="8.77"/><line class="cls-3" x1="64.92" y1="40.11" x2="75.77" y2="47"/><line class="cls-3" x1="77.57" y1="40.67" x2="82.06" y2="43.31"/><line class="cls-3" x1="40.63" y1="26.12" x2="44.84" y2="28.8"/><line class="cls-3" x1="40.63" y1="24.48" x2="44.84" y2="27.16"/><line class="cls-3" x1="45.58" y1="21.63" x2="49.79" y2="24.3"/><line class="cls-3" x1="49.79" y1="25.09" x2="77.15" y2="40.79"/><line class="cls-3" x1="66.72" y1="38.63" x2="74.08" y2="42.86"/><polyline class="cls-3" points="88.42 49.07 88.81 48.84 88.81 47.48 82.05 43.6"/><polyline class="cls-3" points="89.76 50.88 87.18 52.41 84.67 50.82"/><line class="cls-3" x1="87.17" y1="54.75" x2="87.17" y2="52.41"/><polyline class="cls-3" points="83.92 51.66 80.21 53.84 39.69 28.06"/><polyline class="cls-3" points="86.17 48.98 80.21 52.47 39.65 26.67"/><line class="cls-3" x1="80.21" y1="53.84" x2="80.21" y2="52.47"/><line class="cls-3" x1="82.05" y1="43.31" x2="75.76" y2="46.99"/><polyline class="cls-3" points="82.06 43.31 82.06 44.64 75.79 48.31 64.92 41.4"/><line class="cls-3" x1="75.76" y1="48.3" x2="75.76" y2="47"/><line class="cls-3" x1="77.57" y1="40.67" x2="73.73" y2="42.92"/><line class="cls-3" x1="67.22" y1="38.78" x2="64.92" y2="40.13"/><line class="cls-3" x1="49.79" y1="25.84" x2="44.84" y2="28.74"/><line class="cls-3" x1="49.79" y1="24.31" x2="44.84" y2="27.2"/><line class="cls-3" x1="45.56" y1="21.63" x2="40.62" y2="24.52"/><line class="cls-3" x1="46.35" y1="20.65" x2="38.06" y2="25.5"/><line class="cls-3" x1="88.75" y1="47.47" x2="87.44" y2="48.23"/><text class="cls-5" transform="matrix(0.82, 0.57, -0.86, 0.5, 27.47, 61.48)">C<tspan class="cls-6" x="4.47" y="0">A</tspan><tspan class="cls-7" x="8.85" y="0">THER</tspan><tspan class="cls-8" x="26.67" y="0">IN</tspan><tspan class="cls-9" x="34.07" y="0">E L</tspan><tspan class="cls-10" x="44.74" y="0">N</tspan></text><polyline class="cls-3" points="94.21 51.3 82.5 57.92 29.69 23.14"/><polyline class="cls-3" points="86.06 50 84.66 50.82 84.66 53.14 87.17 54.74 89.76 53.23 89.76 50.89 88.71 50.22"/><line class="cls-3" x1="82.52" y1="57.93" x2="82.52" y2="88.91"/><line class="cls-3" x1="88.75" y1="84.59" x2="87.89" y2="85.09"/><polyline class="cls-3" points="88.75 84.59 89.28 84.93 94.21 82.02 94.21 51.29 88.81 48.19"/><g class="cls-4"><path class="cls-3" d="M88.74,84.59v-.75a.47.47,0,0,0-.14-.33"/><path class="cls-3" d="M89.29,84.93V83.84c0-.26-.23-.6-.75-.3a1.27,1.27,0,0,0-.65,1v1.2l-5.37,3.16-8.09-5.6-10.24-7-8.58-5.88L38.21,57.92l-8.52-6.14V23.14"/><path class="cls-3" d="M87.17,48.59A1.38,1.38,0,0,0,86.05,50v1c0,.38.6.69,1.34.69s1.34-.31,1.34-.69V50a1.38,1.38,0,0,0-1.12-1.38v-.15c0-.07-.08-.15-.22-.15s-.22.08-.22.15Z"/></g><polygon class="cls-11" points="65.78 70.15 62.41 67.94 62.41 65.49 65.78 67.7 65.78 70.15"/><polygon class="cls-11" points="65.78 67.57 62.41 65.35 62.41 62.89 65.78 65.1 65.78 67.57"/><polygon class="cls-11" points="65.78 64.96 62.42 62.74 62.42 60.29 65.78 62.51 65.78 64.96"/><polygon class="cls-11" points="65.78 62.36 62.41 60.14 62.41 57.7 65.78 59.92 65.78 62.36"/><polygon class="cls-11" points="65.78 59.78 62.41 57.56 62.41 55.11 65.78 57.33 65.78 59.78"/><polygon class="cls-11" points="65.78 57.21 62.41 54.99 62.41 52.53 65.78 54.74 65.78 57.21"/><polygon class="cls-11" points="65.78 54.62 62.41 52.4 62.41 49.95 65.78 52.17 65.78 54.62"/><polygon class="cls-11" points="65.78 52.02 62.41 49.8 62.41 47.36 65.78 49.58 65.78 52.02"/><line class="cls-12" x1="62.42" y1="49.86" x2="65.78" y2="52.08"/><line class="cls-12" x1="62.42" y1="52.44" x2="65.78" y2="54.66"/><line class="cls-12" x1="62.42" y1="55.04" x2="65.78" y2="57.25"/><line class="cls-12" x1="62.42" y1="57.63" x2="65.78" y2="59.85"/><line class="cls-12" x1="62.42" y1="60.21" x2="65.78" y2="62.42"/><line class="cls-12" x1="62.42" y1="62.8" x2="65.78" y2="65.02"/><line class="cls-12" x1="62.42" y1="65.4" x2="65.78" y2="67.62"/><path class="cls-13" d="M14.27,117.11c-.62,0-1-.43-1-1.13v-1.4h3.38v1.29c0,.7-.32,1.13-.92,1.13a.73.73,0,0,1-.72-.44A.81.81,0,0,1,14.27,117.11Zm-.36-1.86v.67c0,.33.16.5.42.5s.42-.17.42-.5v-.67Zm1.39.57c0,.34.13.51.4.51s.39-.17.39-.51v-.57H15.3Z"/><path class="cls-13" d="M14.57,119.52H13.31v-.7h3.38v1.39a1,1,0,0,1-1.08,1.18,1,1,0,0,1-1-.77l-1.31.89v-.79l1.26-.83Zm.58,0v.65c0,.35.18.53.46.53s.48-.18.48-.53v-.65Z"/><path class="cls-13" d="M13.26,124.56A1.61,1.61,0,0,1,15,123a1.6,1.6,0,1,1,0,3.19A1.6,1.6,0,0,1,13.26,124.56Zm2.85,0c0-.54-.45-.88-1.11-.88s-1.12.34-1.12.88.46.89,1.12.89S16.11,125.09,16.11,124.56Z"/><path class="cls-13" d="M16.69,129.44l-3.38,1.3V130l.81-.3v-1.26l-.81-.3v-.7l3.38,1.29Zm-2-.76v.82l1.12-.41Z"/><path class="cls-13" d="M16.69,132.36v1.19A1.56,1.56,0,0,1,15,135.21a1.56,1.56,0,0,1-1.69-1.66v-1.19Zm-2.76,1.16a1,1,0,0,0,1.07,1,1,1,0,0,0,1.07-1v-.47H13.93Z"/><path class="cls-13" d="M16.69,139l-2.27.58,2.27.56v.69L13.31,140v-.64l2.23-.6-2.23-.59v-.65l3.38-.87v.7l-2.27.55,2.27.6Z"/><path class="cls-13" d="M16.69,144l-3.38,1.29v-.72l.81-.3V143l-.81-.3V142l3.38,1.29Zm-2-.77V144l1.12-.41Z"/><path class="cls-13" d="M16.69,148.63v.75l-2.1-1.23H13.31v-.7h1.28l2.1-1.21V147l-1.43.82Z"/><path class="cls-13" d="M111.66,108.37v.7h-2.75v1.58h-.62v-2.28Z"/><path class="cls-13" d="M111.66,114.12l-3.37,1.29v-.71l.81-.3v-1.27l-.81-.29v-.71l3.37,1.29Zm-2-.77v.83l1.12-.41Z"/><path class="cls-13" d="M108.29,117h3.37v2.24h-.61v-1.54h-.86v1.43h-.61v-1.43h-1.29V117Z"/><path class="cls-13" d="M111.66,122.53l-3.37,1.29v-.72l.81-.3v-1.26l-.81-.3v-.7l3.37,1.29Zm-2-.77v.82l1.12-.41Z"/><path class="cls-13" d="M111.66,127.18v.74l-2.09-1.23h-1.28V126h1.28l2.09-1.22v.77l-1.43.82Z"/><path class="cls-13" d="M111.66,131.81h-.61v-1.6h-.74v1.45h-.6v-1.45h-.8v1.6h-.62v-2.29h3.37Z"/><path class="cls-13" d="M111.66,133.39v2.87h-.61v-1.08h-2.76v-.71h2.76v-1.08Z"/><path class="cls-13" d="M111.66,137.75v2.88h-.61v-1.09h-2.76v-.71h2.76v-1.08Z"/><path class="cls-13" d="M111.66,144.6h-.61V143h-.74v1.45h-.6V143h-.8v1.6h-.62v-2.29h3.37Z"/><path class="cls-13" d="M109.25,149.22a.65.65,0,0,0-.44.67c0,.35.16.57.43.57s.31-.12.38-.41l.13-.61a.93.93,0,0,1,.93-.85,1.08,1.08,0,0,1,1,1.21,1.22,1.22,0,0,1-1,1.33v-.7a.6.6,0,0,0,.4-.62c0-.32-.16-.53-.4-.53s-.31.12-.37.37l-.14.62c-.13.55-.44.88-1,.88s-1-.53-1-1.25a1.28,1.28,0,0,1,1-1.4v.72Z"/><path class="cls-13" d="M111.66,152.61v2.88h-.61V154.4h-2.76v-.71h2.76v-1.08Z"/><path class="cls-13" d="M43.11,112.62h.7v2.75h1.57V116H43.11Z"/><path class="cls-13" d="M49.29,112.62v.61h-1.6V114h1.45v.6H47.69v.8h1.6V116H47v-3.37Z"/><path class="cls-13" d="M52.36,116A1.75,1.75,0,1,1,54,114.3,1.61,1.61,0,0,1,52.36,116Zm0-2.85c-.53,0-.87.45-.87,1.11s.34,1.12.87,1.12.89-.46.89-1.12S52.9,113.19,52.36,113.19Z"/><path class="cls-13" d="M58.38,116h-.56l-1.59-2.25V116h-.67v-3.37h.66l1.48,2.13v-2.13h.68Z"/><path class="cls-13" d="M61.88,112.62,63.17,116h-.71l-.31-.81H60.89l-.3.81h-.7l1.29-3.37Zm-.77,2h.82l-.41-1.12Z"/><path class="cls-13" d="M65.37,114.73V116h-.7v-3.37h1.39a1,1,0,0,1,1.19,1.07.94.94,0,0,1-.77,1l.89,1.31h-.79l-.84-1.26Zm0-.58H66c.35,0,.53-.18.53-.46s-.18-.48-.53-.48h-.65Z"/><path class="cls-13" d="M68.87,112.62h1.19a1.69,1.69,0,0,1,0,3.37H68.87ZM70,115.37a1.07,1.07,0,0,0,0-2.14h-.47v2.14Z"/><path class="cls-13" d="M76.08,115a.63.63,0,0,0,.67.43c.34,0,.56-.15.56-.42s-.12-.31-.41-.38l-.61-.14c-.48-.11-.85-.37-.85-.92a1.09,1.09,0,0,1,1.21-1,1.22,1.22,0,0,1,1.33,1h-.7a.59.59,0,0,0-.62-.4c-.32,0-.54.15-.54.4s.13.3.38.36l.62.15a1,1,0,0,1,.88,1,1.11,1.11,0,0,1-1.25,1,1.28,1.28,0,0,1-1.4-1Z"/><path class="cls-13" d="M79.36,112.62h2.88v.61H81.15V116h-.71v-2.76H79.36Z"/><path class="cls-13" d="M40.63,147.86A1.35,1.35,0,0,1,42.05,149h-.7a.72.72,0,0,0-.72-.51c-.54,0-.85.47-.85,1.11s.31,1.12.85,1.12a.72.72,0,0,0,.72-.52h.7a1.34,1.34,0,0,1-1.42,1.14,1.75,1.75,0,0,1,0-3.48Z"/><path class="cls-13" d="M45.37,147.92l1.29,3.37H46l-.31-.81H44.38l-.3.81h-.7l1.29-3.37Zm-.77,2h.82L45,148.76Z"/><path class="cls-13" d="M47.75,147.92h2.88v.61H49.54v2.76h-.71v-2.76H47.75Z"/><path class="cls-13" d="M55.23,147.92v3.37h-.7v-1.42H53v1.42h-.7v-3.37H53v1.34h1.53v-1.34Z"/><path class="cls-13" d="M59.38,147.92v.61h-1.6v.74h1.45v.6H57.78v.8h1.6v.62H57.09v-3.37Z"/><path class="cls-13" d="M61.84,150v1.26h-.7v-3.37h1.39A1,1,0,0,1,63.71,149a1,1,0,0,1-.77,1l.89,1.31H63L62.2,150Zm0-.58h.64c.36,0,.54-.18.54-.46s-.18-.48-.54-.48h-.64Z"/><path class="cls-13" d="M66.15,151.29h-.7v-3.37h.7Z"/><path class="cls-13" d="M70.82,151.29h-.55L68.67,149v2.25H68v-3.37h.66l1.49,2.13v-2.13h.67Z"/><path class="cls-13" d="M75,147.92v.61h-1.6v.74h1.45v.6H73.37v.8H75v.62H72.68v-3.37Z"/><path class="cls-13" d="M79.11,147.92h.7v2.75h1.57v.62H79.11Z"/><path class="cls-13" d="M85.93,151.29h-.56L83.78,149v2.25H83.1v-3.37h.66l1.49,2.13v-2.13h.68v3.37Z"/><g class="cls-14"><polygon class="cls-15" points="67.01 132.32 67.7 132.32 67.7 132.47 68 132.47 68.61 132.47 68.61 132.32 70.11 132.32 70.11 133.36 70.57 133.36 70.57 134.86 72.97 134.86 72.97 139.15 66.86 138.8 66.86 133.92 67.15 133.92 67.15 133.29 67.01 133.29 67.01 132.32"/><g class="cls-14"><polygon class="cls-17" points="98.92 125.45 98.92 140.65 24.06 136 24.09 125.45 98.92 125.45"/></g></g></svg>