<?xml version="1.0" encoding="utf-8"?>
<!-- Generator: Adobe Illustrator 23.0.0, SVG Export Plug-In . SVG Version: 6.00 Build 0)  -->
<svg version="1.1" id="Layer_1" xmlns="http://www.w3.org/2000/svg" xmlns:xlink="http://www.w3.org/1999/xlink" x="0px" y="0px"
	 viewBox="0 0 347 105.1" style="enable-background:new 0 0 347 105.1;" xml:space="preserve">
<style type="text/css">
	.st0{fill:#D1D3D4;}
	.st1{clip-path:url(#SVGID_2_);}
	.st2{enable-background:new    ;}
	.st3{fill:none;stroke:#231F20;stroke-width:0.15;stroke-miterlimit:10;}
	.st4{fill:none;stroke:#231F20;stroke-width:0.14;stroke-miterlimit:10;}
	.st5{clip-path:url(#SVGID_4_);}
	.st6{clip-path:url(#SVGID_6_);}
	.st7{fill:none;stroke:#231F20;stroke-width:0.14;stroke-linejoin:bevel;}
	.st8{clip-path:url(#SVGID_8_);}
	.st9{clip-path:url(#SVGID_10_);}
	.st10{clip-path:url(#SVGID_12_);}
	.st11{clip-path:url(#SVGID_14_);}
	.st12{clip-path:url(#SVGID_16_);}
	.st13{fill:#231F20;}
	.st14{fill:none;stroke:#FFFFFF;stroke-width:0.15;stroke-miterlimit:10;}
	.st15{clip-path:url(#SVGID_18_);}
	.st16{clip-path:url(#SVGID_20_);}
	.st17{clip-path:url(#SVGID_22_);}
	.st18{clip-path:url(#SVGID_24_);}
	.st19{clip-path:url(#SVGID_26_);}
	.st20{clip-path:url(#SVGID_28_);}
	.st21{clip-path:url(#SVGID_30_);}
	.st22{fill:none;stroke:#D1D3D4;stroke-width:1.09;stroke-miterlimit:10;}
</style>
<title>residence_M_5-12_key_horizontal</title>
<g>
	<g id="Layer_1_copy">
		<g>
			<path class="st0" d="M209.9,51.6c-0.8,0-1.2-0.5-1.2-1.4v-1.8h4.4V50c0,0.9-0.4,1.5-1.2,1.5c-0.4,0-0.8-0.2-0.9-0.6
				C210.8,51.3,210.3,51.6,209.9,51.6z M209.4,49.2v0.8c0,0.4,0.2,0.6,0.5,0.6s0.5-0.2,0.5-0.6v-0.8H209.4z M211.2,50
				c0,0.4,0.2,0.7,0.5,0.7s0.5-0.2,0.5-0.7v-0.7h-1V50z"/>
			<path class="st0" d="M210.2,54.1h-1.6v-0.9h4.4V55c0.1,0.7-0.4,1.4-1.1,1.5c-0.1,0-0.1,0-0.2,0c-0.6,0-1.2-0.4-1.3-1l-1.7,1.1v-1
				l1.6-1.1L210.2,54.1z M211,54.1V55c0,0.5,0.2,0.7,0.6,0.7s0.6-0.2,0.6-0.7v-0.8L211,54.1z"/>
		</g>
		<g>
			<path class="st0" d="M208.6,61.1c-0.1-1.2,0.8-2.3,2-2.4c1.2-0.1,2.3,0.8,2.4,2c0.1,1.2-0.8,2.3-2,2.4c-0.1,0-0.2,0-0.2,0
				c-1.1,0.1-2.1-0.7-2.2-1.9C208.6,61.2,208.6,61.1,208.6,61.1z M212.2,61.1c0-0.7-0.6-1.1-1.4-1.1s-1.4,0.4-1.4,1.1
				s0.6,1.1,1.4,1.1S212.2,61.8,212.2,61.1z"/>
		</g>
		<g>
			<path class="st0" d="M213,67.3l-4.4,1.7v-1l1-0.4v-1.6l-1-0.4v-0.9l4.3,1.7L213,67.3z M210.5,66.3v1l1.4-0.5L210.5,66.3z"/>
		</g>
		<g>
			<path class="st0" d="M213,71v1.5c0,1.2-1,2.2-2.2,2.2c-1.2,0-2.1-1-2.1-2.2V71H213z M209.5,72.5c0.1,0.8,0.7,1.3,1.5,1.2
				c0.7-0.1,1.2-0.6,1.2-1.2v-0.6h-2.7V72.5z"/>
		</g>
		<g>
			<path class="st0" d="M213,79.5l-2.9,0.8l2.9,0.7v0.9l-4.3-1.1v-0.8l2.8-0.8l-2.8-0.8v-0.8l4.3-1.1v0.9l-2.9,0.7l2.9,0.8V79.5z"/>
		</g>
		<g>
			<path class="st0" d="M213,85.8l-4.3,1.6v-0.9l1-0.4v-1.6l-1-0.4v-0.9l4.3,1.7V85.8z M210.5,84.8v1.1l1.4-0.5L210.5,84.8z"/>
		</g>
		<g>
			<path class="st0" d="M213,91.7v1l-2.7-1.6h-1.6v-0.9h1.6l2.7-1.6v1l-1.8,1L213,91.7z"/>
		</g>
		<g>
			<path class="st0" d="M343.4,40.5v0.9h-3.5v2h-0.8v-2.9H343.4z"/>
		</g>
		<g>
			<path class="st0" d="M343.4,47.8l-4.3,1.6v-0.9l1-0.4v-1.6l-1-0.4v-0.9l4.3,1.7V47.8z M340.9,46.8v1l1.4-0.5L340.9,46.8z"/>
		</g>
		<g>
			<path class="st0" d="M339.1,51.5h4.3v2.9h-0.8v-2h-1.1v1.8h-0.8v-1.8h-1.6V51.5z"/>
		</g>
		<g>
			<path class="st0" d="M343.4,58.5l-4.3,1.7v-0.9l1-0.4v-1.6l-1-0.4V56l4.3,1.6V58.5z M340.9,57.5v1l1.4-0.5L340.9,57.5z"/>
		</g>
		<g>
			<path class="st0" d="M343.4,64.4v0.9l-2.7-1.6h-1.6v-0.9h1.6l2.7-1.5v1l-1.8,1L343.4,64.4z"/>
			<path class="st0" d="M343.4,69.8h-0.8v-2h-0.9v1.8h-0.8v-1.9h-1v2h-0.8v-2.9h4.3L343.4,69.8L343.4,69.8z"/>
			<path class="st0" d="M343.4,71.2v3.7h-0.8v-1.4h-3.5v-0.9h3.5v-1.4H343.4z"/>
			<path class="st0" d="M343.4,76.2v3.7h-0.8v-1.4h-3.5v-0.9h3.5v-1.4H343.4z"/>
			<path class="st0" d="M343.4,84.4h-0.8v-2h-0.9v1.8h-0.8v-1.9h-1v2h-0.8v-2.9h4.3L343.4,84.4L343.4,84.4z"/>
		</g>
		<g>
			<path class="st0" d="M340.3,92.5c-0.4,0.1-0.6,0.5-0.5,0.9c0,0.4,0.2,0.7,0.5,0.7s0.4-0.2,0.5-0.5l0.2-0.8
				c0.1-0.6,0.5-1.1,1.2-1.1c0.8,0,1.4,0.7,1.3,1.4c0,0,0,0.1,0,0.1c0.1,0.8-0.5,1.5-1.2,1.7V94c0.3-0.1,0.5-0.4,0.5-0.8
				c0-0.4-0.2-0.7-0.5-0.7s-0.4,0.2-0.5,0.5l-0.2,0.8c-0.2,0.7-0.6,1.1-1.2,1.1c-0.8,0-1.3-0.7-1.3-1.6c-0.1-0.8,0.5-1.6,1.3-1.8
				L340.3,92.5L340.3,92.5z"/>
		</g>
		<g>
			<path class="st0" d="M343.4,96.8v3.7h-0.8v-1.4h-3.5v-0.9h3.5v-1.4H343.4z"/>
		</g>
		<g>
			<path class="st0" d="M251.3,40.8h0.9v3.5h2v0.8h-2.9V40.8z"/>
			<path class="st0" d="M258.8,40.8v0.8h-2v0.9h1.9v0.8h-1.9v1h2V45h-2.9v-4.3L258.8,40.8z"/>
		</g>
		<g>
			<path class="st0" d="M263.1,45.1c-1.2,0.1-2.3-0.8-2.4-2c-0.1-1.2,0.8-2.3,2-2.4c1.2-0.1,2.3,0.8,2.4,2c0,0.1,0,0.2,0,0.2
				c0.1,1.1-0.8,2.1-1.9,2.2C263.2,45.1,263.1,45.1,263.1,45.1z M263.1,41.5c-0.7,0-1.1,0.6-1.1,1.4s0.4,1.4,1.1,1.4
				s1.1-0.6,1.1-1.4S263.8,41.5,263.1,41.5z"/>
		</g>
		<g>
			<path class="st0" d="M270.8,45.1h-0.7l-2-2.9v2.9h-0.9v-4.3h0.8l1.9,2.7v-2.7h0.9L270.8,45.1L270.8,45.1z"/>
		</g>
		<g>
			<path class="st0" d="M275.2,40.8l1.6,4.3H276l-0.4-1H274l-0.4,1h-0.9l1.6-4.3H275.2z M274.2,43.3h1l-0.5-1.4L274.2,43.3z"/>
		</g>
		<g>
			<path class="st0" d="M279.7,43.5v1.6h-0.9v-4.3h1.8c0.7-0.1,1.4,0.4,1.5,1.1c0,0.1,0,0.1,0,0.2c0,0.6-0.4,1.2-1,1.3l1.1,1.7h-1
				l-1.1-1.6L279.7,43.5z M279.7,42.7h0.8c0.5,0,0.7-0.2,0.7-0.6s-0.2-0.6-0.7-0.6h-0.8V42.7z"/>
			<path class="st0" d="M283.7,40.8h1.5c1.2,0,2.1,1,2.1,2.2c0,1.2-1,2.1-2.1,2.1h-1.5V40.8z M285.2,44.3c0.8-0.1,1.3-0.7,1.2-1.5
				c-0.1-0.7-0.6-1.2-1.2-1.2h-0.6v2.7H285.2z"/>
		</g>
		<g>
			<path class="st0" d="M293.3,43.8c0.1,0.4,0.5,0.6,0.9,0.6c0.4,0,0.7-0.2,0.7-0.5s-0.2-0.4-0.5-0.5l-0.8-0.2
				c-0.6-0.1-1.1-0.5-1.1-1.2c0-0.8,0.7-1.4,1.5-1.3c0,0,0,0,0.1,0c0.8-0.1,1.5,0.5,1.7,1.2h-0.9c-0.1-0.3-0.4-0.6-0.8-0.5
				c-0.4,0-0.7,0.2-0.7,0.5s0.2,0.4,0.5,0.5l0.8,0.2c0.7,0.2,1.1,0.6,1.1,1.2c0,0.8-0.7,1.3-1.6,1.3c-0.8,0.1-1.6-0.5-1.8-1.3
				L293.3,43.8z"/>
		</g>
		<g>
			<path class="st0" d="M297.5,40.8h3.7v0.8h-1.4v3.5h-0.9v-3.5h-1.4V40.8z"/>
		</g>
		<g>
			<path class="st0" d="M248.2,94.4c0.9-0.1,1.7,0.6,1.8,1.5h-0.9c-0.1-0.4-0.5-0.7-0.9-0.7c-0.7,0-1.1,0.6-1.1,1.4s0.4,1.4,1.1,1.4
				c0.4,0,0.8-0.3,0.9-0.7h0.9c-0.1,0.9-0.9,1.5-1.8,1.5c-1.2-0.1-2.1-1.2-2-2.4C246.3,95.3,247.1,94.5,248.2,94.4L248.2,94.4z"/>
		</g>
		<g>
			<path class="st0" d="M254.2,94.5l1.6,4.3H255l-0.4-1H253l-0.4,1h-0.9l1.6-4.3H254.2z M253.2,97h1.1l-0.5-1.4L253.2,97z"/>
		</g>
		<g>
			<path class="st0" d="M257.2,94.5h3.7v0.8h-1.4v3.5h-0.9v-3.5h-1.4V94.5z"/>
		</g>
		<g>
			<path class="st0" d="M266.8,94.5v4.3h-0.9V97h-1.9v1.8H263v-4.3h0.9v1.7h1.9v-1.8H266.8z"/>
		</g>
		<g>
			<path class="st0" d="M272,94.5v0.8h-2v0.9h1.9V97H270v1h2v0.8h-2.9v-4.3L272,94.5z"/>
			<path class="st0" d="M274.6,97.2v1.6h-0.9v-4.3h1.8c0.7-0.1,1.4,0.4,1.5,1.1c0,0.1,0,0.1,0,0.2c0,0.6-0.4,1.2-1,1.3l1.1,1.7h-1
				l-1.1-1.6H274.6z M274.6,96.4h0.8c0.5,0,0.7-0.2,0.7-0.6s-0.2-0.6-0.7-0.6h-0.8V96.4z"/>
		</g>
		<g>
			<path class="st0" d="M280.7,98.8h-0.9v-4.3h0.9V98.8z"/>
		</g>
		<g>
			<path class="st0" d="M286.6,98.8h-0.7l-2-2.9v2.9H283v-4.3h0.8l1.9,2.7v-2.7h0.9L286.6,98.8z"/>
			<path class="st0" d="M291.4,94.5v0.8h-2v0.9h1.9V97h-1.9v1h2v0.8h-2.9v-4.3L291.4,94.5z"/>
			<path class="st0" d="M295.5,94.5h0.9V98h2v0.8h-2.9V94.5z"/>
		</g>
		<g>
			<path class="st0" d="M305.8,98.8h-0.7l-2-2.9v2.9h-0.9v-4.3h0.8l1.9,2.7v-2.7h0.9L305.8,98.8z"/>
		</g>
	</g>
	<g>
		<g>
			<defs>
				<rect id="SVGID_1_" x="5.8" width="185.1" height="104.9"/>
			</defs>
			<clipPath id="SVGID_2_">
				<use xlink:href="#SVGID_1_"  style="overflow:visible;"/>
			</clipPath>
			<g class="st1">
				<g class="st2">
					<path class="st0" d="M13.7,75.8l0.6,0.4l-2.5,1.6l1.4,0.9l-0.6,0.4l-2.1-1.3L13.7,75.8z"/>
					<path class="st0" d="M19.5,79.4l-0.6,0.4l-1.5-0.9l-0.7,0.4l1.3,0.8l-0.5,0.4l-1.3-0.8l-0.7,0.5l1.5,0.9l-0.6,0.4l-2.1-1.3l3-2
						L19.5,79.4z"/>
					<path class="st0" d="M19.4,83.3c-0.9-0.5-0.8-1.3,0.1-1.9c0.9-0.6,2.2-0.7,3-0.1s0.8,1.3-0.1,1.9
						C21.5,83.8,20.3,83.9,19.4,83.3z M22,81.6c-0.5-0.3-1.2-0.2-1.8,0.2c-0.6,0.4-0.7,0.9-0.2,1.2c0.5,0.3,1.2,0.2,1.8-0.2
						C22.4,82.4,22.5,81.9,22,81.6z"/>
					<path class="st0" d="M25.1,86.8l-0.5-0.3l0.6-2.2l-2,1.3l-0.6-0.4l3-2l0.6,0.4l-0.6,2.1l1.9-1.3l0.6,0.4L25.1,86.8z"/>
				</g>
				<g class="st2">
					<path class="st0" d="M31.6,87l-1.9,2.7l-0.7-0.4l0.5-0.7l-1.2-0.7l-1,0.3l-0.6-0.4l4.2-1.3L31.6,87z M29.1,87.7l0.8,0.5
						l0.6-0.9L29.1,87.7z"/>
				</g>
				<g class="st2">
					<path class="st0" d="M33.1,90.3l-1.1,0.7l-0.6-0.4l3-2l1.3,0.8c0.6,0.4,0.7,0.9,0.1,1.3c-0.5,0.3-1.1,0.3-1.6,0.1l-0.4,1.3
						L33,91.8l0.4-1.2L33.1,90.3z M33.6,90l0.6,0.4c0.3,0.2,0.7,0.2,0.9,0c0.3-0.2,0.3-0.4-0.1-0.6l-0.6-0.4L33.6,90z"/>
				</g>
				<g class="st2">
					<path class="st0" d="M38.4,91.2l1.1,0.7c0.9,0.6,0.9,1.3,0,1.9c-0.9,0.6-2.1,0.6-3,0l-1.1-0.7L38.4,91.2z M36.9,93.5
						c0.6,0.4,1.3,0.3,1.9-0.1c0.6-0.4,0.6-0.8,0.1-1.2l-0.4-0.3l-1.9,1.3L36.9,93.5z"/>
				</g>
				<g class="st2">
					<path class="st0" d="M43.1,97c-0.2,0.2-0.1,0.5,0.2,0.6c0.3,0.2,0.7,0.2,0.9,0.1c0.2-0.1,0.2-0.3,0-0.5l-0.4-0.4
						c-0.3-0.3-0.4-0.7,0.1-1c0.5-0.4,1.4-0.3,2,0.1c0.7,0.4,0.7,0.9,0.3,1.3l-0.6-0.4c0.1-0.2,0.1-0.4-0.2-0.6
						c-0.3-0.2-0.6-0.2-0.8-0.1c-0.2,0.1-0.2,0.3,0,0.4L45,97c0.4,0.4,0.4,0.8-0.1,1.1c-0.6,0.4-1.4,0.3-2.1-0.1
						c-0.7-0.4-0.8-1-0.4-1.4L43.1,97z"/>
				</g>
				<g class="st2">
					<path class="st0" d="M48.5,97.5l2.6,1.6l-0.6,0.4l-1-0.6l-2.5,1.6l-0.6-0.4l2.5-1.6l-1-0.6L48.5,97.5z"/>
				</g>
				<line class="st3" x1="74.7" y1="63.2" x2="74.7" y2="58.8"/>
				<line class="st3" x1="15.8" y1="27.9" x2="15.8" y2="24.2"/>
				<line class="st3" x1="28" y1="32.6" x2="28" y2="34.7"/>
				<line class="st3" x1="22.6" y1="29.5" x2="22.6" y2="31.6"/>
				<line class="st3" x1="29.5" y1="31.8" x2="29.5" y2="33.9"/>
				<line class="st4" x1="29.5" y1="33.8" x2="28" y2="34.7"/>
				<line class="st4" x1="29.5" y1="31.9" x2="28.1" y2="32.7"/>
				<line class="st4" x1="66.7" y1="49.4" x2="60.8" y2="52.9"/>
				<line class="st4" x1="71.2" y1="53" x2="66.2" y2="56"/>
				<line class="st3" x1="36.6" y1="35.9" x2="36.6" y2="38"/>
				<line class="st4" x1="41.6" y1="34.3" x2="65.6" y2="50"/>
				<line class="st4" x1="66.7" y1="49.4" x2="71.2" y2="52.4"/>
				<line class="st4" x1="41.6" y1="33.7" x2="66.1" y2="49.7"/>
				<line class="st4" x1="12.9" y1="26.7" x2="15.4" y2="28.1"/>
				<line class="st4" x1="22.6" y1="29.5" x2="28" y2="32.7"/>
				<line class="st4" x1="29.5" y1="31.9" x2="36.7" y2="36.1"/>
				<line class="st4" x1="29.5" y1="33.8" x2="36.6" y2="38"/>
				<line class="st4" x1="60.8" y1="52.9" x2="66.2" y2="56"/>
				<line class="st3" x1="74.7" y1="50.5" x2="74.7" y2="48.3"/>
				<polyline class="st3" points="65.7,60.1 64.8,59.6 63.7,60.2 17.3,33.3 17.3,31 				"/>
				<polyline class="st3" points="28.9,26 24.3,22.9 13.8,29 63.7,57.9 				"/>
				<line class="st3" x1="63.7" y1="57.9" x2="63.7" y2="60.2"/>
				<line class="st3" x1="64.8" y1="57.3" x2="63.7" y2="57.9"/>
				<polyline class="st3" points="64.8,59.6 64.8,57.3 60.8,55 				"/>
				<line class="st3" x1="74.8" y1="67.4" x2="74.8" y2="64.9"/>
				<polyline class="st3" points="80.3,57.9 83.3,59.9 83.3,62.4 74.8,67.4 65.7,62.2 65.7,59.6 69.3,57.5 				"/>
				<polyline class="st3" points="83.3,59.9 74.8,64.9 65.7,59.6 				"/>
				<polyline class="st4" points="14.8,29.6 14.8,30.8 17.3,32.3 				"/>
				<line class="st4" x1="22.6" y1="31.6" x2="28" y2="34.7"/>
				<line class="st4" x1="60.8" y1="55" x2="60.8" y2="52.9"/>
				<line class="st4" x1="66.2" y1="59.3" x2="66.2" y2="56"/>
				<polyline class="st4" points="78.3,49.4 74.7,51.5 71.2,49.5 				"/>
				<polyline class="st3" points="78.3,53.9 78.6,54.1 78.6,55.7 74.7,57.9 70.8,55.7 70.8,54.2 71.2,54 				"/>
				<line class="st3" x1="74.7" y1="57.9" x2="74.7" y2="51.5"/>
				<polyline class="st3" points="78.6,54.6 80.3,55.6 80.3,60 74.7,63.2 69.3,60.1 69.3,55.7 70.8,54.8 				"/>
				<polyline class="st3" points="80.3,55.6 74.7,58.8 69.4,55.7 				"/>
				<polyline class="st3" points="12.9,26.7 7.6,29.8 7.6,66.9 				"/>
				<polyline class="st3" points="18.8,23.2 22.5,21.1 29.4,25.7 				"/>
				<line class="st3" x1="74.7" y1="68.6" x2="74.7" y2="102.1"/>
				<line class="st3" x1="74.7" y1="102.1" x2="38.9" y2="81.3"/>
				<polyline class="st3" points="84.9,68.3 74.7,74.2 7.7,35.4 				"/>
				<polyline class="st3" points="84.9,71.1 74.7,77 7.7,38.2 				"/>
				<polyline class="st3" points="84.9,73.9 74.7,79.8 7.7,41 				"/>
				<polyline class="st3" points="84.9,76.7 74.7,82.6 7.7,43.8 				"/>
				<polyline class="st3" points="84.9,79.5 74.7,85.4 7.7,46.5 				"/>
				<polyline class="st3" points="84.9,82.3 74.7,88.2 7.7,49.3 				"/>
				<polyline class="st3" points="84.9,85.1 74.7,91 7.7,52.1 				"/>
				<polyline class="st3" points="84.9,87.8 74.7,93.8 7.7,54.9 				"/>
				<line class="st3" x1="84.9" y1="90.6" x2="82.5" y2="92"/>
				<polyline class="st3" points="77.1,95.2 74.7,96.5 7.7,57.7 				"/>
				<line class="st3" x1="82.5" y1="94.8" x2="84.9" y2="93.4"/>
				<polyline class="st3" points="77.1,97.9 74.7,99.3 7.7,60.5 				"/>
				<polyline class="st3" points="84.9,65.5 74.7,71.4 7.7,32.6 				"/>
				<line class="st3" x1="36" y1="79.7" x2="7.7" y2="63.3"/>
				<polyline class="st4" points="14.4,21.7 12.9,22.6 12.9,26.7 				"/>
				<polyline class="st4" points="17.3,21.7 18.8,22.5 18.8,26.1 				"/>
				<polyline class="st4" points="12.9,22.6 15.8,24.2 18.8,22.5 				"/>
				<polyline class="st3" points="75.9,46.7 76.7,47.2 76.7,49.3 74.7,50.5 72.7,49.3 72.7,47.2 73.7,46.6 				"/>
				<polyline class="st4" points="76.7,47.2 74.7,48.3 72.7,47.2 				"/>
				<g>
					<defs>
						<rect id="SVGID_3_" x="6" y="6.1" width="85.6" height="98.1"/>
					</defs>
					<clipPath id="SVGID_4_">
						<use xlink:href="#SVGID_3_"  style="overflow:visible;"/>
					</clipPath>
					<g class="st5">
						<path class="st3" d="M72.9,44.8c-0.1,0.1-0.1,0.2-0.2,0.3l0.1,0.3c0.1,0.2,0.6,0.3,1.3,0.1s2.3-1,2.4-1.9l-0.2-0.5
							c-0.2,0-0.3,0-0.5,0"/>
					</g>
				</g>
				<polyline class="st3" points="73.6,41.8 74.6,42.3 74.9,42.2 75.7,41.1 				"/>
				<g>
					<defs>
						<rect id="SVGID_5_" x="6" y="6.1" width="85.6" height="98.1"/>
					</defs>
					<clipPath id="SVGID_6_">
						<use xlink:href="#SVGID_5_"  style="overflow:visible;"/>
					</clipPath>
					<g class="st6">
						<path class="st3" d="M76.3,44.1c0.1,0.2,0.1,0.5,0,0.7c-0.2,1-1.1,1.6-2.1,1.4c-0.4-0.1-0.7-0.3-0.9-0.5h-0.1"/>
						<path class="st3" d="M73,45.2c-0.1-0.1-0.1-0.3-0.1-0.4c-0.1-1,0.5-1.9,1.5-2c0.6-0.1,1.2,0.1,1.6,0.5
							c0.1,0.1,0.2,0.3,0.3,0.4"/>
						<path class="st3" d="M74,52.8c0.3,0.8,0.1,1.5-0.5,1.5s-1.3-0.7-1.6-1.5s-0.1-1.5,0.5-1.5S73.7,52,74,52.8z"/>
						<path class="st3" d="M75.5,52.8c-0.3,0.8-0.1,1.5,0.5,1.5s1.3-0.7,1.6-1.5s0.1-1.5-0.5-1.5S75.8,52,75.5,52.8z"/>
						<path class="st7" d="M75.9,46.8c0-0.1,0-0.1,0-0.2c0,0-0.1-0.1-0.1-0.1c-0.1,0-0.2,0-0.3,0.1v-0.1l0.1-0.4"/>
						<path class="st4" d="M75.1,46.8c0,0.1,0.1,0.2,0.1,0.2s0.2,0.1,0.3,0"/>
					</g>
				</g>
				<polyline class="st4" points="74.2,47.4 74.2,47.3 74.4,46.9 74.3,46.8 73.9,46.7 73.5,46.5 73.7,46 				"/>
				<polyline class="st3" points="72.7,48.6 71.2,49.5 71.2,54.2 74.7,56.2 78.3,54.2 78.3,49.4 76.7,48.5 				"/>
				<g>
					<defs>
						<rect id="SVGID_7_" x="6" y="6.1" width="85.6" height="98.1"/>
					</defs>
					<clipPath id="SVGID_8_">
						<use xlink:href="#SVGID_7_"  style="overflow:visible;"/>
					</clipPath>
					<g class="st8">
						<path class="st4" d="M15.6,20.1c-0.7,0.1-1.2,0.8-1.2,1.5v1c0,0.4,0.6,0.7,1.4,0.7c0.8,0,1.5-0.3,1.5-0.7v-1
							c0-0.7-0.5-1.4-1.2-1.5v-0.2c0-0.1-0.1-0.2-0.2-0.2s-0.2,0.1-0.2,0.2L15.6,20.1z"/>
					</g>
				</g>
				<polyline class="st3" points="84.9,62.7 74.7,68.6 7.7,29.8 				"/>
				<polyline class="st3" points="38.9,81.9 36.9,80.7 35.2,81.8 37.6,83.2 38.9,82.4 				"/>
				<line class="st3" x1="38.9" y1="81.9" x2="36.9" y2="80.7"/>
				<line class="st3" x1="38.9" y1="83.5" x2="38" y2="83"/>
				<g>
					<defs>
						<rect id="SVGID_9_" x="6" y="6.1" width="85.6" height="98.1"/>
					</defs>
					<clipPath id="SVGID_10_">
						<use xlink:href="#SVGID_9_"  style="overflow:visible;"/>
					</clipPath>
					<g class="st9">
						<path class="st3" d="M37.3,78.5c-0.2,0.2-0.4,0.5-0.4,0.8v1.4"/>
					</g>
				</g>
				<polyline class="st3" points="36.5,82.6 36,82.8 7.6,66.8 				"/>
				<line class="st3" x1="36" y1="82.8" x2="36" y2="82.3"/>
				<g>
					<defs>
						<rect id="SVGID_11_" x="6" y="6.1" width="85.6" height="98.1"/>
					</defs>
					<clipPath id="SVGID_12_">
						<use xlink:href="#SVGID_11_"  style="overflow:visible;"/>
					</clipPath>
					<g class="st10">
						<path class="st3" d="M82.5,97.6v-5.4l-5.4,3v5.6l-2.4,1.4l-18-8.5l-14.5-7.3l-3.3-1.9v-3.8c-0.1-0.9-0.6-1.7-1.4-2.1
							c-1-0.6-1.4,0.5-1.4,0.8v1.9"/>
					</g>
				</g>
				<polyline class="st3" points="78.7,98 78.7,96.6 77.8,97.1 77.8,98.5 				"/>
				<g>
					<defs>
						<rect id="SVGID_13_" x="6" y="6.1" width="85.6" height="98.1"/>
					</defs>
					<clipPath id="SVGID_14_">
						<use xlink:href="#SVGID_13_"  style="overflow:visible;"/>
					</clipPath>
					<g class="st11">
						<path class="st3" d="M83.3,61.7l1.6,1v33.5l-2.4,1.4c-1.2-0.3-2.5-0.3-3.6,0.3l-1.2,0.7c-0.2,0.1-0.4,0.2-0.5,0.4"/>
					</g>
				</g>
				<polyline class="st4" points="36.6,38 41.6,35 41.6,33.1 29.9,25.4 22.6,29.6 				"/>
				<line class="st4" x1="41.6" y1="33.1" x2="36.7" y2="36"/>
				<g>
					<defs>
						<rect id="SVGID_15_" x="6" y="6.1" width="85.6" height="98.1"/>
					</defs>
					<clipPath id="SVGID_16_">
						<use xlink:href="#SVGID_15_"  style="overflow:visible;"/>
					</clipPath>
					<g class="st12">
						<g class="st2">
							<path class="st0" d="M196.2,69.1c0.7,0.5,0.7,1,0.2,1.5l-0.6-0.4c0.2-0.2,0.2-0.5-0.2-0.7c-0.5-0.3-1.2-0.3-1.8,0.1
								c-0.6,0.3-0.8,0.8-0.3,1.1c0.3,0.2,0.7,0.3,1.1,0.2l0.6,0.4c-0.7,0.3-1.6,0.2-2.3-0.2c-0.8-0.6-0.7-1.3,0.2-1.9
								C194.2,68.5,195.4,68.5,196.2,69.1z"/>
						</g>
						<g class="st2">
							<path class="st0" d="M200.4,72.1l-2,2.6l-0.6-0.4l0.5-0.6l-1.1-0.8l-1,0.3l-0.6-0.4l4.3-1L200.4,72.1z M197.9,72.7l0.7,0.5
								l0.7-0.9L197.9,72.7z"/>
						</g>
						<g class="st2">
							<path class="st0" d="M202.6,73.6l2.5,1.8l-0.6,0.3l-1-0.7l-2.5,1.5l-0.6-0.4l2.5-1.5l-1-0.7L202.6,73.6z"/>
							<path class="st0" d="M209.3,78.2l-3.1,1.8l-0.6-0.4l1.3-0.8l-1.3-0.9l-1.3,0.8l-0.6-0.4l3.1-1.8l0.6,0.4l-1.2,0.7l1.3,0.9
								l1.2-0.7L209.3,78.2z"/>
						</g>
						<g class="st2">
							<path class="st0" d="M213,80.8l-0.6,0.3l-1.4-1l-0.7,0.4l1.3,0.9l-0.6,0.3l-1.3-0.9l-0.7,0.4l1.4,1l-0.6,0.3l-2-1.4l3.1-1.8
								L213,80.8z"/>
							<path class="st0" d="M213.3,83.6l-1.2,0.7l-0.6-0.4l3.1-1.8l1.2,0.9c0.6,0.4,0.7,0.9,0,1.3c-0.5,0.3-1.1,0.3-1.6,0.1
								l-0.4,1.2l-0.7-0.5l0.4-1.2L213.3,83.6z M213.8,83.2l0.6,0.4c0.3,0.2,0.6,0.2,0.9,0.1c0.3-0.2,0.3-0.4,0-0.6l-0.6-0.4
								L213.8,83.2z"/>
							<path class="st0" d="M216,86.9l-0.6-0.4l3.1-1.8l0.6,0.4L216,86.9z"/>
							<path class="st0" d="M220.3,89.9l-0.5-0.3l0.7-2.2l-2.1,1.2l-0.6-0.4l3.1-1.8l0.6,0.4l-0.7,2.1l2-1.1l0.6,0.4L220.3,89.9z"/>
							<path class="st0" d="M227.1,90.7l-0.6,0.3l-1.4-1l-0.7,0.4l1.3,0.9l-0.6,0.3l-1.3-0.9l-0.7,0.4l1.4,1l-0.6,0.3l-2-1.4
								l3.1-1.8L227.1,90.7z"/>
							<path class="st0" d="M231,93.3l0.6,0.4l-2.5,1.5l1.4,1l-0.6,0.3l-2-1.4L231,93.3z"/>
						</g>
						<g class="st2">
							<path class="st0" d="M233.9,99.4l-0.5-0.3l0.7-2.2l-2.1,1.2l-0.6-0.4l3.1-1.8l0.6,0.4l-0.7,2.1l2-1.1l0.6,0.4L233.9,99.4z"/>
						</g>
						<path class="st4" d="M259.9,95.5v-0.8c0-0.1-0.1-0.3-0.2-0.4"/>
						<path class="st4" d="M260.5,95.8v-1.2c0-0.3-0.2-0.7-0.8-0.3c-0.4,0.2-0.7,0.6-0.7,1.1v1.3l-6.6,3.9l-8.8-6.1L232.5,87
							l-9.3-6.4l-13.7-9.4L189.9,57V23.2l1.4-0.8"/>
						<path class="st4" d="M198.5,13.4c0.3,0.9,0.1,1.5-0.5,1.5s-1.3-0.7-1.6-1.5s-0.1-1.5,0.5-1.5S198.2,12.5,198.5,13.4z"/>
						<path class="st4" d="M200.1,13.4c-0.3,0.9-0.1,1.5,0.5,1.5s1.3-0.7,1.6-1.5s0.1-1.5-0.5-1.5S200.4,12.6,200.1,13.4z"/>
						<path class="st4" d="M197.4,5.4c0,0.1-0.2,0.2-0.2,0.3l0.1,0.3c0.1,0.2,0.6,0.3,1.3,0.1s2.3-1,2.4-1.9l-0.2-0.5
							c-0.2,0-0.3,0-0.5,0"/>
						<path class="st4" d="M200.9,4.7c0.1,0.2,0.1,0.5,0,0.7c-0.2,1-1.1,1.6-2.1,1.4c-0.4-0.1-0.7-0.3-0.9-0.5h-0.1"/>
						<path class="st4" d="M197.6,5.8c-0.1-0.1-0.1-0.3-0.1-0.4c-0.1-1,0.5-1.8,1.5-2c0,0,0,0,0,0c0.6-0.1,1.2,0.1,1.5,0.5
							c0.1,0.1,0.2,0.3,0.3,0.4"/>
						<path class="st4" d="M200.5,7.3c0-0.1,0-0.1,0-0.2c0,0,0-0.1-0.1-0.1c-0.1,0-0.2,0-0.3,0.1c0,0,0-0.1,0-0.1v0l0.1-0.4"/>
						<path class="st4" d="M199.7,7.3c0,0.1,0,0.2,0.1,0.2s0.2,0.1,0.3,0"/>
						<path class="st4" d="M258.2,52.2c-0.7,0.1-1.2,0.8-1.2,1.5v1c0,0.4,0.6,0.8,1.4,0.8s1.5-0.3,1.5-0.8v-1c0-0.7-0.5-1.4-1.2-1.5
							V52c0-0.1-0.1-0.2-0.2-0.2s-0.2,0.1-0.2,0.2L258.2,52.2z"/>
					</g>
				</g>
				<polygon class="st13" points="23,41.5 23.1,63.9 19.6,61.9 19.6,39.6 				"/>
				<line class="st14" x1="19.6" y1="42.3" x2="23" y2="44.3"/>
				<line class="st14" x1="19.6" y1="45.1" x2="23" y2="47.1"/>
				<line class="st14" x1="19.6" y1="47.9" x2="23" y2="49.9"/>
				<line class="st14" x1="19.6" y1="50.7" x2="23" y2="52.7"/>
				<line class="st14" x1="19.6" y1="53.5" x2="23" y2="55.4"/>
				<line class="st14" x1="19.6" y1="56.3" x2="23.1" y2="58.2"/>
				<line class="st14" x1="19.6" y1="59" x2="23.1" y2="61"/>
				<g>
					<defs>
						<rect id="SVGID_17_" x="105.2" y="1.1" width="85.6" height="103.8"/>
					</defs>
					<clipPath id="SVGID_18_">
						<use xlink:href="#SVGID_17_"  style="overflow:visible;"/>
					</clipPath>
					<g class="st15">
						<path class="st3" d="M4.4,98.6v-5.4l-5.4,3v5.6l-2.4,1.4l-18-8.5l-14.5-7.3l-3.3-1.9v-3.8c-0.1-0.9-0.6-1.7-1.4-2.1
							c-1-0.6-1.4,0.4-1.4,0.8v1.9"/>
						<path class="st3" d="M5.2,62.8l1.5,1v33.5l-2.4,1.4c-1.2-0.3-2.5-0.3-3.6,0.3l-1.2,0.7c-0.2,0.1-0.4,0.2-0.6,0.4"/>
					</g>
				</g>
				<polyline class="st3" points="189.1,62.5 174.3,70.9 111.9,29.9 				"/>
				<polyline class="st3" points="189.1,65.3 174.3,73.7 111.9,32.7 				"/>
				<polyline class="st3" points="189.1,68.1 174.3,76.5 111.9,35.5 				"/>
				<polyline class="st3" points="189.1,70.9 174.3,79.3 111.9,38.3 				"/>
				<polyline class="st3" points="189.1,73.7 174.3,82.1 111.9,41.1 				"/>
				<polyline class="st3" points="189.1,76.5 174.3,84.9 111.9,43.9 				"/>
				<polyline class="st3" points="189.1,79.3 174.3,87.7 111.9,46.7 				"/>
				<polyline class="st3" points="189.1,82.2 174.3,90.5 111.9,49.5 				"/>
				<polyline class="st3" points="189.1,84.9 174.3,93.3 111.9,52.3 				"/>
				<polyline class="st3" points="189.1,87.8 174.3,96.1 111.9,55.1 				"/>
				<polyline class="st3" points="189.1,90.6 174.3,98.9 111.9,57.9 				"/>
				<line class="st3" x1="189.1" y1="90.6" x2="174.3" y2="98.9"/>
				<g class="st2">
					<path class="st0" d="M118.1,70.1c0.7,0.5,0.7,1,0.2,1.5l-0.6-0.4c0.2-0.2,0.2-0.5-0.2-0.7c-0.5-0.3-1.2-0.3-1.8,0.1
						c-0.6,0.3-0.8,0.8-0.3,1.1c0.3,0.2,0.7,0.3,1.1,0.2l0.6,0.4c-0.7,0.3-1.6,0.2-2.3-0.2c-0.8-0.6-0.7-1.3,0.2-1.9
						C116.1,69.5,117.3,69.6,118.1,70.1z"/>
				</g>
				<g class="st2">
					<path class="st0" d="M122.3,73.1l-2,2.6l-0.6-0.4l0.5-0.6l-1.1-0.8l-1,0.3l-0.6-0.4l4.3-1L122.3,73.1z M119.8,73.7l0.7,0.5
						l0.7-0.9L119.8,73.7z"/>
				</g>
				<g class="st2">
					<path class="st0" d="M124.5,74.6l2.5,1.8l-0.6,0.3l-1-0.7l-2.5,1.5l-0.6-0.4l2.5-1.5l-1-0.7L124.5,74.6z"/>
					<path class="st0" d="M131.2,79.3l-3.1,1.8l-0.6-0.4l1.3-0.8l-1.3-0.9l-1.3,0.8l-0.6-0.4l3.1-1.8l0.6,0.4l-1.2,0.7l1.3,0.9
						l1.2-0.7L131.2,79.3z"/>
				</g>
				<g class="st2">
					<path class="st0" d="M135,81.9l-0.6,0.3l-1.4-1l-0.7,0.4l1.3,0.9l-0.6,0.3l-1.3-0.9l-0.7,0.4l1.4,1l-0.6,0.3l-2-1.4l3.1-1.8
						L135,81.9z"/>
					<path class="st0" d="M135.3,84.6l-1.2,0.7l-0.6-0.4l3.1-1.8l1.2,0.9c0.6,0.4,0.7,0.9,0,1.3c-0.5,0.3-1.1,0.3-1.6,0.1l-0.4,1.2
						l-0.7-0.5l0.4-1.2L135.3,84.6z M135.8,84.3l0.6,0.4c0.3,0.2,0.6,0.2,0.9,0.1c0.3-0.2,0.3-0.4,0-0.6l-0.6-0.4L135.8,84.3z"/>
				</g>
				<g class="st2">
					<path class="st0" d="M138,88l-0.6-0.4l3.1-1.8l0.6,0.4L138,88z"/>
				</g>
				<g class="st2">
					<path class="st0" d="M142.2,90.9l-0.5-0.3l0.7-2.2l-2.1,1.2l-0.6-0.4l3.1-1.8l0.6,0.4l-0.7,2.1l2-1.1l0.6,0.4L142.2,90.9z"/>
					<path class="st0" d="M149.1,91.7l-0.6,0.3l-1.4-1l-0.7,0.4l1.3,0.9l-0.6,0.3l-1.3-0.9l-0.7,0.4l1.4,1l-0.6,0.3l-2-1.4l3.1-1.8
						L149.1,91.7z"/>
					<path class="st0" d="M152.9,94.3l0.6,0.4l-2.5,1.5l1.4,1l-0.6,0.3l-2-1.4L152.9,94.3z"/>
				</g>
				<g class="st2">
					<path class="st0" d="M155.9,100.4l-0.5-0.3l0.7-2.2l-2.1,1.2l-0.6-0.4l3.1-1.8l0.6,0.4l-0.7,2.1l2-1.1l0.6,0.4L155.9,100.4z"/>
				</g>
				<polyline class="st4" points="189.1,59.7 174.3,68.1 111.9,27.1 				"/>
				<line class="st4" x1="174.3" y1="65.3" x2="174.3" y2="101.6"/>
				<line class="st4" x1="181.9" y1="96.5" x2="180.9" y2="97"/>
				<polyline class="st4" points="181.9,96.5 182.4,96.8 189.1,92.9 189.1,56.9 				"/>
				<polyline class="st4" points="189.1,56.9 174.3,65.3 111.9,24.2 				"/>
				<g>
					<defs>
						<rect id="SVGID_19_" x="105.2" y="1.1" width="85.6" height="103.8"/>
					</defs>
					<clipPath id="SVGID_20_">
						<use xlink:href="#SVGID_19_"  style="overflow:visible;"/>
					</clipPath>
					<g class="st16">
						<path class="st4" d="M181.9,96.5v-0.8c0-0.1-0.1-0.3-0.2-0.4"/>
						<path class="st4" d="M182.4,96.8v-1.2c0-0.3-0.2-0.7-0.8-0.3c-0.4,0.2-0.7,0.6-0.7,1.1v1.3l-6.6,3.9l-8.8-6L154.5,88l-9.3-6.4
							l-13.7-9.4L111.9,58V24.2l1.3-0.8"/>
					</g>
				</g>
				<line class="st4" x1="176.7" y1="58.4" x2="176.7" y2="56.9"/>
				<line class="st4" x1="120.8" y1="26.9" x2="120.8" y2="29.4"/>
				<line class="st4" x1="176.7" y1="58.4" x2="177.5" y2="58.9"/>
				<line class="st4" x1="176.7" y1="56.9" x2="177.5" y2="57.4"/>
				<line class="st4" x1="121.2" y1="12" x2="121.2" y2="10"/>
				<line class="st4" x1="121.2" y1="12.1" x2="121.2" y2="9.9"/>
				<line class="st4" x1="120.9" y1="25" x2="120.9" y2="20.5"/>
				<polyline class="st4" points="122.3,28.5 120.8,29.4 113.2,24.4 113.2,21.9 115.8,20.4 				"/>
				<polyline class="st4" points="121.2,17.9 124.8,15.8 124.8,11.1 124.8,11 123.2,10 				"/>
				<g>
					<defs>
						<rect id="SVGID_21_" x="105.2" y="1.1" width="85.6" height="103.8"/>
					</defs>
					<clipPath id="SVGID_22_">
						<use xlink:href="#SVGID_21_"  style="overflow:visible;"/>
					</clipPath>
					<g class="st17">
						<path class="st4" d="M120.5,14.4c0.3,0.9,0.1,1.5-0.5,1.5s-1.3-0.7-1.6-1.5s-0.1-1.5,0.5-1.5S120.2,13.6,120.5,14.4z"/>
						<path class="st4" d="M122,14.4c-0.3,0.9-0.1,1.5,0.5,1.5s1.3-0.7,1.6-1.5s0.1-1.5-0.5-1.5S122.3,13.6,122,14.4z"/>
					</g>
				</g>
				<line class="st4" x1="120.9" y1="20.6" x2="126.7" y2="17.2"/>
				<line class="st4" x1="115.8" y1="17.2" x2="120.9" y2="20.6"/>
				<line class="st4" x1="113.2" y1="21.9" x2="120.8" y2="26.9"/>
				<polyline class="st4" points="124.8,15.5 125.1,15.8 125.1,17.2 125.1,17.3 121.2,19.6 121.2,19.5 121.2,13.3 				"/>
				<polyline class="st4" points="117.4,16.4 115.8,17.2 115.8,21.6 115.8,21.7 120.8,25 				"/>
				<polyline class="st4" points="126.8,19.5 129.9,21.5 129.9,23.2 				"/>
				<line class="st4" x1="121.1" y1="13.3" x2="124.8" y2="11.1"/>
				<line class="st4" x1="117.8" y1="11.1" x2="119.2" y2="10.2"/>
				<line class="st4" x1="117.8" y1="11" x2="121.2" y2="13.4"/>
				<polyline class="st4" points="125.1,16.1 126.8,17.2 126.8,17.2 126.8,21.5 126.7,21.5 120.8,25 				"/>
				<line class="st4" x1="119.3" y1="8.7" x2="121.2" y2="10"/>
				<line class="st4" x1="122.2" y1="8.1" x2="123.2" y2="8.8"/>
				<g>
					<defs>
						<rect id="SVGID_23_" x="105.2" y="1.1" width="85.6" height="103.8"/>
					</defs>
					<clipPath id="SVGID_24_">
						<use xlink:href="#SVGID_23_"  style="overflow:visible;"/>
					</clipPath>
					<g class="st18">
						<path class="st4" d="M119.4,6.4c0,0.1-0.2,0.2-0.2,0.3l0.1,0.3c0.1,0.2,0.6,0.3,1.3,0.1s2.3-1,2.4-1.9l-0.2-0.5
							c-0.2,0-0.3,0-0.5,0"/>
					</g>
				</g>
				<polyline class="st4" points="120.1,3.4 121.1,3.9 121.5,3.7 122.2,2.7 				"/>
				<g>
					<defs>
						<rect id="SVGID_25_" x="105.2" y="1.1" width="85.6" height="103.8"/>
					</defs>
					<clipPath id="SVGID_26_">
						<use xlink:href="#SVGID_25_"  style="overflow:visible;"/>
					</clipPath>
					<g class="st19">
						<path class="st4" d="M122.9,5.7c0.1,0.2,0.1,0.5,0,0.7c-0.2,1-1.1,1.6-2.1,1.4c-0.4-0.1-0.7-0.3-0.9-0.5h-0.1"/>
						<path class="st4" d="M119.5,6.8c-0.1-0.1-0.1-0.3-0.1-0.4c-0.1-1,0.5-1.8,1.5-2c0,0,0,0,0,0c0.6-0.1,1.2,0.1,1.5,0.5
							c0.1,0.1,0.2,0.3,0.3,0.4"/>
						<path class="st4" d="M122.4,8.4c0-0.1,0-0.1,0-0.2c0,0,0-0.1-0.1-0.1c-0.1,0-0.2,0-0.3,0.1c0,0,0-0.1,0-0.1v0l0.1-0.4"/>
						<path class="st4" d="M121.6,8.3c0,0.1,0,0.1,0.1,0.2s0.2,0.1,0.3,0"/>
					</g>
				</g>
				<polyline class="st4" points="120.7,9 120.7,8.9 120.9,8.5 120.8,8.3 120.4,8.3 120.1,8 120.2,7.6 				"/>
				<line class="st4" x1="117.8" y1="15.6" x2="121.2" y2="17.9"/>
				<polyline class="st4" points="121.2,19.7 117.4,17.2 117.3,17.2 117.3,15.9 117.3,15.9 117.7,15.6 117.8,15.6 117.8,11 				"/>
				<polyline class="st4" points="120.3,8 119.2,8.8 119.2,8.8 119.2,10.8 121.2,12.1 121.2,12.1 123.2,10.9 123.2,8.9 123.2,8.9 
					121.2,10 				"/>
				<line class="st4" x1="154.6" y1="45.4" x2="167" y2="53.3"/>
				<polyline class="st4" points="183,55.7 180.2,57.3 177.5,55.6 				"/>
				<line class="st4" x1="180.2" y1="61.3" x2="180.2" y2="57.3"/>
				<polyline class="st4" points="177.5,56.4 171.8,59.8 122.3,28.2 				"/>
				<line class="st3" x1="189.1" y1="56.9" x2="129.9" y2="22.6"/>
				<line class="st3" x1="168.8" y1="45.8" x2="133.6" y2="25.5"/>
				<line class="st4" x1="171.8" y1="61.2" x2="171.8" y2="59.8"/>
				<line class="st4" x1="167" y1="55" x2="167" y2="53.3"/>
				<polygon class="st4" points="174.4,48.9 174.4,50.7 167,55 154.6,47.1 154.6,45.4 160.1,42.2 167.4,46.6 168.9,45.7 				"/>
				<line class="st4" x1="174.4" y1="48.9" x2="167" y2="53.3"/>
				<line class="st4" x1="133.6" y1="25.4" x2="128.3" y2="28.5"/>
				<polygon class="st4" points="123.8,27.4 123.8,25.6 123.8,25.6 128.9,22.6 133.7,25.4 133.7,26.9 133.7,26.9 128.3,30.2 				"/>
				<polyline class="st4" points="176.7,58.4 171.8,61.2 122.3,29.7 122.3,29.7 122.3,28.2 123.8,27.4 				"/>
				<line class="st4" x1="128.3" y1="28.5" x2="123.8" y2="25.6"/>
				<line class="st4" x1="128.3" y1="30.1" x2="128.3" y2="28.5"/>
				<polyline class="st4" points="181.9,55 182.3,54.8 182.3,53.7 174.4,49.1 				"/>
				<line class="st4" x1="182.3" y1="53.6" x2="181.7" y2="54"/>
				<line class="st4" x1="129.9" y1="21.6" x2="120.8" y2="26.9"/>
				<polyline class="st4" points="179,54.7 177.5,55.6 177.5,59.6 180.2,61.3 183,59.7 183,55.7 181.9,55 				"/>
				<g>
					<defs>
						<rect id="SVGID_27_" x="105.2" y="1.1" width="85.6" height="103.8"/>
					</defs>
					<clipPath id="SVGID_28_">
						<use xlink:href="#SVGID_27_"  style="overflow:visible;"/>
					</clipPath>
					<g class="st20">
						<path class="st4" d="M180.2,53.2c-0.7,0.1-1.2,0.8-1.2,1.5v1c0,0.4,0.6,0.8,1.4,0.8s1.4-0.3,1.4-0.8v-1c0-0.7-0.5-1.3-1.2-1.5
							V53c0-0.1-0.1-0.2-0.2-0.2s-0.2,0.1-0.2,0.2L180.2,53.2z"/>
					</g>
				</g>
				<polygon class="st13" points="156.9,56.6 156.9,79 161.8,82.3 161.8,59.9 				"/>
				<line class="st14" x1="161.8" y1="62.7" x2="156.9" y2="59.5"/>
				<line class="st14" x1="161.8" y1="65.5" x2="156.9" y2="62.3"/>
				<line class="st14" x1="161.8" y1="68.3" x2="156.9" y2="65.1"/>
				<line class="st14" x1="161.8" y1="71.1" x2="156.9" y2="67.9"/>
				<line class="st14" x1="161.8" y1="73.9" x2="156.9" y2="70.7"/>
				<line class="st14" x1="161.8" y1="76.7" x2="156.9" y2="73.5"/>
				<line class="st14" x1="161.8" y1="79.6" x2="156.9" y2="76.3"/>
			</g>
		</g>
		<polygon class="st13" points="304.3,60.5 308.8,60.5 308.8,69.9 310.8,69.9 310.8,71.6 308.6,71.6 308.6,74.5 308.2,74.5 
			308.2,75.2 308.6,75.2 308.6,76.8 308.4,76.8 308.4,81.1 300.1,80.6 300.1,73.7 300,73.7 300,72.2 300.2,72.2 300.2,70.3 
			304.2,70.3 304.2,69.3 304.3,69.3 		"/>
		<g>
			<defs>
				<rect id="SVGID_29_" x="220" y="58.8" width="112" height="25.3"/>
			</defs>
			<clipPath id="SVGID_30_">
				<use xlink:href="#SVGID_29_"  style="overflow:visible;"/>
			</clipPath>
			<g class="st21">
				<polygon class="st22" points="329.3,60.5 329.3,82.4 221.4,75.7 221.4,60.5 				"/>
			</g>
		</g>
	</g>
</g>
</svg>
