<?xml version="1.0" encoding="utf-8"?>
<!-- Generator: Adobe Illustrator 23.0.0, SVG Export Plug-In . SVG Version: 6.00 Build 0)  -->
<svg version="1.1" id="Layer_1" xmlns="http://www.w3.org/2000/svg" xmlns:xlink="http://www.w3.org/1999/xlink" x="0px" y="0px"
	 viewBox="0 0 123.3 164.8" style="enable-background:new 0 0 123.3 164.8;" xml:space="preserve">
<style type="text/css">
	.st0{fill:#D2D3D4;}
	.st1{clip-path:url(#SVGID_2_);}
	.st2{fill:#231F20;}
	.st3{clip-path:url(#SVGID_4_);}
	.st4{fill:none;stroke:#D1D3D4;stroke-width:1.09;stroke-miterlimit:10;}
	.st5{clip-path:url(#SVGID_6_);}
	.st6{fill:none;stroke:#231F20;stroke-width:0.15;stroke-miterlimit:10;}
	.st7{enable-background:new    ;}
	.st8{fill:#D1D3D4;}
	.st9{fill:none;stroke:#231F20;stroke-width:0.14;stroke-miterlimit:10;}
	.st10{clip-path:url(#SVGID_8_);}
	.st11{clip-path:url(#SVGID_10_);}
	.st12{clip-path:url(#SVGID_12_);}
	.st13{clip-path:url(#SVGID_14_);}
	.st14{clip-path:url(#SVGID_16_);}
	.st15{fill:none;stroke:#FFFFFF;stroke-width:0.15;stroke-miterlimit:10;}
</style>
<title>residence_I_4-11_key</title>
<g>
	<path class="st0" d="M14.3,117.1c-0.6,0-1-0.4-1-1.1v-1.4h3.4v1.3c0,0.7-0.3,1.1-0.9,1.1c-0.3,0-0.6-0.2-0.7-0.4
		C14.9,116.9,14.6,117.1,14.3,117.1z M13.9,115.2v0.7c0,0.3,0.2,0.5,0.4,0.5s0.4-0.2,0.4-0.5v-0.7H13.9z M15.3,115.8
		c0,0.3,0.1,0.5,0.4,0.5s0.4-0.2,0.4-0.5v-0.6h-0.8L15.3,115.8z"/>
	<path class="st0" d="M14.6,119.5h-1.3v-0.7h3.4v1.4c0.1,0.5-0.3,1.1-0.8,1.2c-0.1,0-0.2,0-0.3,0c-0.5,0-0.9-0.3-1-0.8l-1.3,0.9
		v-0.8l1.3-0.8L14.6,119.5z M15.1,119.5v0.7c0,0.3,0.2,0.5,0.5,0.5s0.5-0.2,0.5-0.5v-0.7H15.1z"/>
	<path class="st0" d="M13.3,124.6c0-0.9,0.8-1.6,1.7-1.6c0,0,0.1,0,0.1,0c0.9-0.1,1.7,0.6,1.7,1.5c0.1,0.9-0.6,1.7-1.5,1.7
		c-0.1,0-0.2,0-0.3,0c-0.9,0.1-1.7-0.6-1.7-1.5C13.3,124.7,13.3,124.6,13.3,124.6z M16.1,124.6c0-0.5-0.4-0.9-1.1-0.9
		s-1.1,0.3-1.1,0.9s0.5,0.9,1.1,0.9S16.1,125.1,16.1,124.6z"/>
	<path class="st0" d="M16.7,129.4l-3.4,1.3V130l0.8-0.3v-1.3l-0.8-0.3v-0.7l3.4,1.3V129.4z M14.7,128.7v0.8l1.1-0.4L14.7,128.7z"/>
	<path class="st0" d="M16.7,132.4v1.2c0.1,0.9-0.6,1.6-1.5,1.7c-0.1,0-0.2,0-0.2,0c-0.9,0.1-1.6-0.6-1.7-1.4c0-0.1,0-0.2,0-0.2v-1.2
		H16.7z M13.9,133.5c0,0.6,0.4,1,1,1c0,0,0,0,0.1,0c0.6,0,1-0.4,1.1-0.9c0,0,0,0,0-0.1v-0.5h-2.1V133.5z"/>
	<path class="st0" d="M16.7,139l-2.3,0.6l2.3,0.6v0.7l-3.4-0.8v-0.6l2.2-0.6l-2.2-0.6v-0.6l3.4-0.9v0.7l-2.3,0.6l2.3,0.6L16.7,139z"
		/>
	<path class="st0" d="M16.7,144l-3.4,1.3v-0.7l0.8-0.3V143l-0.8-0.3V142l3.4,1.3V144z M14.7,143.2v0.8l1.1-0.4L14.7,143.2z"/>
	<path class="st0" d="M16.7,148.6v0.8l-2.1-1.2h-1.3v-0.7h1.3l2.1-1.2v0.8l-1.4,0.8L16.7,148.6z"/>
	<path class="st0" d="M111.7,108.4v0.7h-2.8v1.6h-0.6v-2.3H111.7z"/>
	<path class="st0" d="M111.7,114.1l-3.4,1.3v-0.7l0.8-0.3v-1.3l-0.8-0.3v-0.7l3.4,1.3V114.1z M109.7,113.4v0.8l1.1-0.4L109.7,113.4z
		"/>
	<path class="st0" d="M108.3,117h3.4v2.2h-0.6v-1.5h-0.9v1.4h-0.6v-1.4h-1.3V117z"/>
	<path class="st0" d="M111.7,122.5l-3.4,1.3v-0.7l0.8-0.3v-1.3l-0.8-0.3v-0.7l3.4,1.3V122.5z M109.7,121.8v0.8l1.1-0.4L109.7,121.8z
		"/>
	<path class="st0" d="M111.7,127.2v0.7l-2.1-1.2h-1.3V126h1.3l2.1-1.2v0.8l-1.4,0.8L111.7,127.2z"/>
	<path class="st0" d="M111.7,131.8h-0.6v-1.6h-0.7v1.4h-0.6v-1.4h-0.8v1.6h-0.6v-2.3h3.4V131.8z"/>
	<path class="st0" d="M111.7,133.4v2.9h-0.6v-1.1h-2.8v-0.7h2.8v-1.1L111.7,133.4z"/>
	<path class="st0" d="M111.7,137.8v2.9h-0.6v-1.1h-2.8v-0.7h2.8v-1.1H111.7z"/>
	<path class="st0" d="M111.7,144.6h-0.6V143h-0.7v1.4h-0.6V143h-0.8v1.6h-0.6v-2.3h3.4V144.6z"/>
	<path class="st0" d="M109.2,149.2c-0.3,0.1-0.5,0.4-0.4,0.7c0,0.4,0.2,0.6,0.4,0.6s0.3-0.1,0.4-0.4l0.1-0.6c0-0.5,0.4-0.9,0.9-0.9
		c0.6,0,1,0.6,1,1.1c0,0,0,0,0,0.1c0.1,0.6-0.4,1.2-1,1.3v-0.7c0.3-0.1,0.4-0.3,0.4-0.6c0-0.3-0.2-0.5-0.4-0.5s-0.3,0.1-0.4,0.4
		l-0.1,0.6c-0.1,0.6-0.4,0.9-1,0.9s-1-0.5-1-1.2c-0.1-0.7,0.4-1.3,1-1.4L109.2,149.2L109.2,149.2z"/>
	<path class="st0" d="M111.7,152.6v2.9h-0.6v-1.1h-2.8v-0.7h2.8v-1.1L111.7,152.6z"/>
	<path class="st0" d="M43.1,112.6h0.7v2.8h1.6v0.6h-2.3V112.6z"/>
	<path class="st0" d="M49.3,112.6v0.6h-1.6v0.8h1.5v0.6h-1.5v0.8h1.6v0.6H47v-3.4L49.3,112.6z"/>
	<path class="st0" d="M52.4,116c-1,0.1-1.8-0.7-1.9-1.6c-0.1-1,0.7-1.8,1.6-1.9s1.8,0.7,1.9,1.6c0,0.1,0,0.1,0,0.2
		c0,0.9-0.6,1.6-1.5,1.7C52.4,116,52.4,116,52.4,116z M52.4,113.2c-0.5,0-0.9,0.4-0.9,1.1s0.3,1.1,0.9,1.1s0.9-0.5,0.9-1.1
		S52.9,113.2,52.4,113.2L52.4,113.2z"/>
	<path class="st0" d="M58.4,116h-0.6l-1.6-2.2v2.2h-0.7v-3.4h0.7l1.5,2.1v-2.1h0.7V116z"/>
	<path class="st0" d="M61.9,112.6l1.3,3.4h-0.7l-0.3-0.8h-1.3l-0.3,0.8h-0.7l1.3-3.4L61.9,112.6z M61.1,114.6h0.8l-0.4-1.1
		L61.1,114.6z"/>
	<path class="st0" d="M65.4,114.7v1.3h-0.7v-3.4h1.4c0.5-0.1,1.1,0.2,1.2,0.8c0,0.1,0,0.2,0,0.3c0,0.5-0.3,0.9-0.8,1l0.9,1.3h-0.8
		l-0.8-1.3L65.4,114.7z M65.4,114.2H66c0.3,0,0.5-0.2,0.5-0.5s-0.2-0.5-0.5-0.5h-0.7L65.4,114.2z"/>
	<path class="st0" d="M68.9,112.6h1.2c0.9,0.1,1.6,0.9,1.6,1.8c-0.1,0.8-0.7,1.5-1.6,1.6h-1.2V112.6z M70,115.4
		c0.6,0,1.1-0.5,1.1-1.1c0-0.6-0.5-1.1-1.1-1.1h-0.5v2.1H70z"/>
	<path class="st0" d="M76.1,115c0.1,0.3,0.4,0.5,0.7,0.4c0.3,0,0.6-0.2,0.6-0.4s-0.1-0.3-0.4-0.4l-0.6-0.1c-0.5-0.1-0.8-0.4-0.8-0.9
		c0-0.6,0.6-1,1.2-1c0,0,0,0,0,0c0.6-0.1,1.2,0.4,1.3,1h-0.7c-0.1-0.3-0.3-0.4-0.6-0.4c-0.3,0-0.5,0.2-0.5,0.4s0.1,0.3,0.4,0.4
		l0.6,0.2c0.5,0.1,0.9,0.5,0.9,1c-0.1,0.6-0.6,1.1-1.2,1c0,0,0,0,0,0c-0.7,0.1-1.3-0.4-1.4-1L76.1,115z"/>
	<path class="st0" d="M79.4,112.6h2.9v0.6h-1.1v2.8h-0.7v-2.8h-1.1V112.6z"/>
	<path class="st0" d="M40.6,147.9c0.7,0,1.3,0.4,1.4,1.1h-0.7c-0.1-0.3-0.4-0.5-0.7-0.5c-0.5,0-0.8,0.5-0.8,1.1s0.3,1.1,0.8,1.1
		c0.3,0,0.6-0.2,0.7-0.5H42c-0.1,0.7-0.7,1.2-1.4,1.1c-1-0.1-1.7-1-1.6-1.9C39.2,148.6,39.8,147.9,40.6,147.9z"/>
	<path class="st0" d="M45.4,147.9l1.3,3.4H46l-0.3-0.8h-1.3l-0.3,0.8h-0.7l1.3-3.4H45.4z M44.6,149.9h0.8l-0.4-1.2L44.6,149.9z"/>
	<path class="st0" d="M47.8,147.9h2.9v0.6h-1.1v2.8h-0.7v-2.8h-1.1V147.9z"/>
	<path class="st0" d="M55.2,147.9v3.4h-0.7v-1.4H53v1.4h-0.7v-3.4H53v1.3h1.5v-1.3H55.2z"/>
	<path class="st0" d="M59.4,147.9v0.6h-1.6v0.7h1.5v0.6h-1.5v0.8h1.6v0.6h-2.3v-3.4L59.4,147.9z"/>
	<path class="st0" d="M61.8,150v1.3h-0.7v-3.4h1.4c0.5-0.1,1.1,0.3,1.2,0.8c0,0.1,0,0.2,0,0.3c0,0.5-0.3,0.9-0.8,1l0.9,1.3H63
		l-0.8-1.3H61.8z M61.8,149.4h0.6c0.4,0,0.5-0.2,0.5-0.5s-0.2-0.5-0.5-0.5h-0.6V149.4z"/>
	<path class="st0" d="M66.2,151.3h-0.7v-3.4h0.7V151.3z"/>
	<path class="st0" d="M70.8,151.3h-0.6l-1.6-2.3v2.2H68v-3.4h0.7l1.5,2.1v-2.1h0.7V151.3z"/>
	<path class="st0" d="M75,147.9v0.6h-1.6v0.7h1.4v0.6h-1.5v0.8H75v0.6h-2.3v-3.4L75,147.9z"/>
	<path class="st0" d="M79.1,147.9h0.7v2.8h1.6v0.6h-2.3V147.9z"/>
	<path class="st0" d="M85.9,151.3h-0.6l-1.6-2.3v2.2h-0.7v-3.4h0.7l1.5,2.1v-2.1h0.7V151.3L85.9,151.3z"/>
</g>
<g id="Layer_4">
	<g>
		<defs>
			<rect id="SVGID_1_" x="23.5" y="124.3" width="77.2" height="17.4"/>
		</defs>
		<clipPath id="SVGID_2_">
			<use xlink:href="#SVGID_1_"  style="overflow:visible;"/>
		</clipPath>
		<g class="st1">
			<polygon class="st2" points="73.1,132.5 73.7,132.5 73.7,132.7 74.7,132.7 74.7,132.9 76,132.9 76,132.5 77.3,132.5 77.3,132.6 
				78.9,132.6 78.9,133.3 79,133.3 79,134.7 78.7,134.7 78.7,139.3 73.1,139 			"/>
			<g>
				<defs>
					<rect id="SVGID_3_" x="23.5" y="124.3" width="77.2" height="17.4"/>
				</defs>
				<clipPath id="SVGID_4_">
					<use xlink:href="#SVGID_3_"  style="overflow:visible;"/>
				</clipPath>
				<g class="st3">
					<polygon class="st4" points="98.9,125.4 98.9,140.5 24.5,135.9 24.5,125.4 					"/>
				</g>
			</g>
		</g>
	</g>
	<g>
		<defs>
			<rect id="SVGID_5_" x="24.3" y="8.4" width="67.2" height="81.2"/>
		</defs>
		<clipPath id="SVGID_6_">
			<use xlink:href="#SVGID_5_"  style="overflow:visible;"/>
		</clipPath>
		<g class="st5">
			<polyline class="st6" points="89.7,56.6 78,63.2 28.7,30.8 			"/>
			<polyline class="st6" points="89.7,58.8 78,65.4 28.7,33 			"/>
			<polyline class="st6" points="89.7,61 78,67.6 28.7,35.3 			"/>
			<polyline class="st6" points="89.7,63.2 78,69.9 28.7,37.5 			"/>
			<polyline class="st6" points="89.7,65.4 78,72.1 28.7,39.7 			"/>
			<polyline class="st6" points="89.7,67.7 78,74.3 28.7,41.9 			"/>
			<polyline class="st6" points="89.7,69.9 78,76.5 28.7,44.1 			"/>
			<polyline class="st6" points="89.7,72.1 78,78.7 28.7,46.3 			"/>
			<polyline class="st6" points="89.7,74.3 78,80.9 28.7,48.5 			"/>
			<polyline class="st6" points="89.7,76.5 78,83.1 28.7,50.8 			"/>
			<polyline class="st6" points="89.7,78.7 78,85.3 28.7,53 			"/>
			<g class="st7">
				<path class="st8" d="M33.7,62.6c0.6,0.4,0.6,0.8,0.1,1.2l-0.5-0.3c0.1-0.2,0.2-0.4-0.1-0.6c-0.4-0.3-0.9-0.2-1.4,0.1
					c-0.5,0.3-0.6,0.6-0.2,0.9c0.3,0.2,0.6,0.2,0.9,0.1l0.5,0.3c-0.6,0.2-1.3,0.2-1.8-0.2c-0.6-0.4-0.6-1.1,0.2-1.5
					C32.1,62.1,33.1,62.1,33.7,62.6z"/>
			</g>
			<g class="st7">
				<path class="st8" d="M37,64.9L35.5,67L35,66.6l0.4-0.5l-0.9-0.6l-0.8,0.2l-0.5-0.3l3.4-0.8L37,64.9z M35,65.4l0.6,0.4l0.5-0.7
					L35,65.4z"/>
			</g>
			<g class="st7">
				<path class="st8" d="M38.7,66.1l2,1.4l-0.4,0.3l-0.8-0.5l-2,1.2L37,68.1l2-1.2l-0.8-0.5L38.7,66.1z"/>
				<path class="st8" d="M44,69.8l-2.5,1.4l-0.5-0.3l1-0.6L41,69.5l-1,0.6l-0.5-0.3l2.5-1.4l0.5,0.3l-1,0.6l1.1,0.7l1-0.6L44,69.8z"
					/>
				<path class="st8" d="M47,71.8l-0.4,0.3l-1.1-0.8l-0.5,0.3l1,0.7l-0.4,0.3l-1-0.7l-0.6,0.3L45,73l-0.5,0.3l-1.6-1.1l2.5-1.4
					L47,71.8z"/>
				<path class="st8" d="M47.2,74l-0.9,0.5l-0.5-0.3l2.5-1.4l1,0.7c0.5,0.3,0.5,0.7,0,1c-0.4,0.2-0.8,0.2-1.3,0.1l-0.3,1l-0.5-0.4
					l0.3-0.9L47.2,74z M47.6,73.7l0.5,0.3c0.2,0.2,0.5,0.2,0.7,0.1c0.2-0.1,0.2-0.3,0-0.5l-0.5-0.3L47.6,73.7z"/>
				<path class="st8" d="M49.4,76.7l-0.5-0.3l2.5-1.4l0.5,0.3L49.4,76.7z"/>
				<path class="st8" d="M52.7,79l-0.4-0.3l0.5-1.7l-1.6,1l-0.5-0.3l2.5-1.4l0.5,0.3l-0.5,1.6l1.6-0.9l0.5,0.3L52.7,79z"/>
				<path class="st8" d="M58.1,79.6l-0.4,0.3l-1.1-0.8L56,79.4l1,0.7l-0.4,0.3l-1-0.7L55,80l1.1,0.8L55.7,81l-1.6-1.1l2.5-1.4
					L58.1,79.6z"/>
				<path class="st8" d="M61.1,81.7l0.5,0.3l-2,1.2l1.1,0.8l-0.5,0.3l-1.6-1.1L61.1,81.7z"/>
			</g>
			<g class="st7">
				<path class="st8" d="M63.5,86.5l-0.4-0.3l0.5-1.7l-1.6,1l-0.5-0.3l2.5-1.4l0.5,0.3l-0.5,1.6l1.6-0.9L66,85L63.5,86.5z"/>
			</g>
			<polyline class="st9" points="89.7,54.4 78,61 28.7,28.6 			"/>
			<line class="st9" x1="78" y1="58.8" x2="78" y2="87.5"/>
			<line class="st9" x1="84" y1="83.4" x2="83.3" y2="83.8"/>
			<polyline class="st9" points="84,83.4 84.4,83.7 89.7,80.6 89.7,52.1 			"/>
			<polyline class="st9" points="89.7,52.1 78,58.8 28.7,26.4 			"/>
			<g>
				<defs>
					<rect id="SVGID_7_" x="24.3" y="8.4" width="66.8" height="81.2"/>
				</defs>
				<clipPath id="SVGID_8_">
					<use xlink:href="#SVGID_7_"  style="overflow:visible;"/>
				</clipPath>
				<g class="st10">
					<path class="st9" d="M84,83.4v-0.6c0-0.1-0.1-0.2-0.1-0.3"/>
					<path class="st9" d="M84.5,83.7v-0.9c0-0.2-0.2-0.5-0.6-0.3c-0.3,0.2-0.5,0.5-0.6,0.9v1L78,87.5l-6.9-4.8l-8.7-6l-7.3-5
						l-10.8-7.5L28.7,53V26.4l1.1-0.6"/>
				</g>
			</g>
			<line class="st9" x1="79.9" y1="53.3" x2="79.9" y2="52.1"/>
			<line class="st9" x1="35.8" y1="28.5" x2="35.8" y2="30.4"/>
			<line class="st9" x1="79.9" y1="53.3" x2="80.5" y2="53.7"/>
			<line class="st9" x1="79.9" y1="52.1" x2="80.5" y2="52.5"/>
			<line class="st9" x1="36.1" y1="16.7" x2="36.1" y2="15.1"/>
			<line class="st9" x1="36.1" y1="16.8" x2="36.1" y2="15.1"/>
			<line class="st9" x1="35.9" y1="26.9" x2="35.9" y2="23.4"/>
			<polyline class="st9" points="37,29.7 35.8,30.4 29.8,26.5 29.8,24.5 31.9,23.3 			"/>
			<polyline class="st9" points="36.1,21.3 38.9,19.7 38.9,16 38.9,15.9 37.7,15.1 			"/>
			<g>
				<defs>
					<rect id="SVGID_9_" x="24.3" y="8.4" width="66.8" height="81.2"/>
				</defs>
				<clipPath id="SVGID_10_">
					<use xlink:href="#SVGID_9_"  style="overflow:visible;"/>
				</clipPath>
				<g class="st11">
					<path class="st9" d="M35.5,18.6c0.2,0.7,0,1.2-0.4,1.2s-1-0.5-1.2-1.2s0-1.2,0.4-1.2S35.3,17.9,35.5,18.6z"/>
					<path class="st9" d="M36.7,18.6c-0.2,0.7,0,1.2,0.4,1.2s1-0.5,1.2-1.2s0-1.2-0.4-1.2S37,17.9,36.7,18.6z"/>
				</g>
			</g>
			<line class="st9" x1="35.9" y1="23.5" x2="40.4" y2="20.8"/>
			<line class="st9" x1="31.9" y1="20.8" x2="35.9" y2="23.5"/>
			<line class="st9" x1="29.8" y1="24.5" x2="35.8" y2="28.5"/>
			<polyline class="st9" points="39,19.5 39.2,19.6 39.2,20.8 39.2,20.9 36.1,22.7 36.1,22.6 36.1,17.7 			"/>
			<polyline class="st9" points="33.1,20.1 31.9,20.8 31.9,24.3 31.9,24.3 35.8,26.9 			"/>
			<polyline class="st9" points="40.5,22.6 43,24.2 43,25.5 			"/>
			<line class="st9" x1="36" y1="17.7" x2="38.9" y2="16"/>
			<line class="st9" x1="33.4" y1="15.9" x2="34.5" y2="15.3"/>
			<line class="st9" x1="33.4" y1="15.9" x2="36.1" y2="17.8"/>
			<polyline class="st9" points="39.2,20 40.5,20.8 40.5,20.8 40.5,24.2 40.4,24.2 35.8,27 			"/>
			<line class="st9" x1="34.6" y1="14.1" x2="36.1" y2="15.1"/>
			<line class="st9" x1="36.9" y1="13.6" x2="37.7" y2="14.1"/>
			<g>
				<defs>
					<rect id="SVGID_11_" x="24.3" y="8.4" width="66.8" height="81.2"/>
				</defs>
				<clipPath id="SVGID_12_">
					<use xlink:href="#SVGID_11_"  style="overflow:visible;"/>
				</clipPath>
				<g class="st12">
					<path class="st9" d="M34.7,12.3c-0.1,0.1-0.1,0.2-0.2,0.2l0.1,0.3c0.1,0.1,0.5,0.2,1,0.1s1.8-0.8,1.9-1.5L37.4,11
						c-0.1,0-0.2,0-0.4,0"/>
				</g>
			</g>
			<polyline class="st9" points="35.2,9.9 36,10.3 36.3,10.2 36.9,9.4 			"/>
			<g>
				<defs>
					<rect id="SVGID_13_" x="24.3" y="8.4" width="66.8" height="81.2"/>
				</defs>
				<clipPath id="SVGID_14_">
					<use xlink:href="#SVGID_13_"  style="overflow:visible;"/>
				</clipPath>
				<g class="st13">
					<path class="st9" d="M37.4,11.7c0,0.2,0,0.4,0,0.6c-0.2,0.8-0.9,1.2-1.6,1.1c-0.3,0-0.6-0.2-0.8-0.4v-0.1"/>
					<path class="st9" d="M34.8,12.6c0-0.1-0.1-0.2-0.1-0.3c-0.1-0.8,0.4-1.5,1.2-1.6c0.5-0.1,0.9,0.1,1.2,0.4
						c0.1,0.1,0.2,0.2,0.2,0.3"/>
					<path class="st9" d="M37.1,13.8c0,0,0-0.1,0-0.1c0,0,0-0.1-0.1-0.1c-0.1,0-0.2,0-0.2,0v-0.1l0.1-0.3"/>
					<path class="st9" d="M36.4,13.8c0,0.1,0,0.1,0,0.2s0.2,0.1,0.3,0"/>
				</g>
			</g>
			<polyline class="st9" points="35.7,14.3 35.7,14.2 35.8,13.9 35.8,13.8 35.5,13.7 35.2,13.6 35.3,13.2 			"/>
			<line class="st9" x1="33.4" y1="19.5" x2="36.1" y2="21.3"/>
			<polyline class="st9" points="36.1,22.8 33.1,20.8 33,20.8 33,19.8 33,19.7 33.4,19.5 33.4,19.5 33.4,15.9 			"/>
			<polyline class="st9" points="35.4,13.6 34.5,14.1 34.5,14.2 34.5,15.7 36.1,16.8 36.1,16.8 37.7,15.9 37.7,14.2 37.7,14.2 
				36.1,15.1 			"/>
			<line class="st9" x1="62.5" y1="43.1" x2="72.2" y2="49.3"/>
			<polyline class="st9" points="84.9,51.2 82.7,52.5 80.6,51.1 			"/>
			<line class="st9" x1="82.7" y1="55.6" x2="82.7" y2="52.5"/>
			<polyline class="st9" points="80.5,51.8 76.1,54.4 37,29.5 			"/>
			<line class="st6" x1="89.7" y1="52.1" x2="43" y2="25"/>
			<line class="st6" x1="73.7" y1="43.4" x2="45.9" y2="27.3"/>
			<line class="st9" x1="76.1" y1="55.6" x2="76.1" y2="54.4"/>
			<line class="st9" x1="72.2" y1="50.7" x2="72.2" y2="49.3"/>
			<polygon class="st9" points="78.1,45.8 78.1,47.2 72.3,50.7 62.5,44.4 62.5,43.1 66.8,40.5 72.6,44 73.8,43.3 			"/>
			<line class="st9" x1="78.1" y1="45.9" x2="72.2" y2="49.3"/>
			<line class="st9" x1="45.9" y1="27.2" x2="41.7" y2="29.7"/>
			<polygon class="st9" points="38.1,28.8 38.1,27.4 38.1,27.4 42.2,25 45.9,27.2 45.9,28.5 45.9,28.5 41.7,31.1 			"/>
			<polyline class="st9" points="79.9,53.3 76.1,55.6 37,30.7 37,30.7 37,29.5 38.1,28.8 			"/>
			<line class="st9" x1="41.7" y1="29.7" x2="38.1" y2="27.5"/>
			<line class="st9" x1="41.7" y1="31" x2="41.7" y2="29.7"/>
			<polyline class="st9" points="84.1,50.7 84.4,50.5 84.4,49.6 78.1,46 			"/>
			<line class="st9" x1="84.4" y1="49.6" x2="83.9" y2="49.9"/>
			<line class="st9" x1="43" y1="24.2" x2="35.8" y2="28.5"/>
			<polyline class="st9" points="81.7,50.4 80.5,51.1 80.5,54.3 82.7,55.6 84.9,54.3 84.9,51.2 84,50.6 			"/>
			<g>
				<defs>
					<rect id="SVGID_15_" x="24.3" y="8.4" width="66.8" height="81.2"/>
				</defs>
				<clipPath id="SVGID_16_">
					<use xlink:href="#SVGID_15_"  style="overflow:visible;"/>
				</clipPath>
				<g class="st14">
					<path class="st9" d="M82.7,49.2c-0.6,0.1-1,0.6-1,1.2v0.8c0,0.3,0.5,0.6,1.2,0.6s1.2-0.3,1.2-0.6v-0.8c0-0.6-0.4-1.1-1-1.2
						v-0.1c0-0.1-0.1-0.1-0.2-0.1s-0.2,0.1-0.2,0.1L82.7,49.2z"/>
				</g>
			</g>
			<polygon class="st2" points="64.6,72 60.5,69.4 60.5,67.3 64.6,69.9 			"/>
			<polygon class="st2" points="64.6,69.9 60.5,67.2 60.5,65 64.6,67.7 			"/>
			<polygon class="st2" points="64.6,67.6 60.5,65 60.5,62.8 64.6,65.4 			"/>
			<polygon class="st2" points="64.6,65.4 60.5,62.8 60.5,60.6 64.6,63.2 			"/>
			<polygon class="st2" points="64.6,63.2 60.5,60.5 60.5,58.4 64.6,61 			"/>
			<polygon class="st2" points="64.6,61 60.5,58.3 60.5,56.2 64.6,58.8 			"/>
			<polygon class="st2" points="64.6,58.8 60.5,56.1 60.5,54 64.6,56.6 			"/>
			<polygon class="st2" points="64.6,56.5 60.5,53.9 60.5,51.7 64.6,54.4 			"/>
			<line class="st15" x1="60.5" y1="54" x2="64.6" y2="56.6"/>
			<line class="st15" x1="60.5" y1="56.2" x2="64.5" y2="58.8"/>
			<line class="st15" x1="60.5" y1="58.4" x2="64.5" y2="61"/>
			<line class="st15" x1="60.5" y1="60.6" x2="64.5" y2="63.2"/>
			<line class="st15" x1="60.5" y1="62.8" x2="64.6" y2="65.4"/>
			<line class="st15" x1="60.5" y1="65" x2="64.6" y2="67.6"/>
			<line class="st15" x1="60.5" y1="67.2" x2="64.6" y2="69.9"/>
		</g>
	</g>
</g>
</svg>
