<?xml version="1.0" encoding="utf-8"?>
<!-- Generator: Adobe Illustrator 23.0.0, SVG Export Plug-In . SVG Version: 6.00 Build 0)  -->
<svg version="1.1" id="Layer_1" xmlns="http://www.w3.org/2000/svg" xmlns:xlink="http://www.w3.org/1999/xlink" x="0px" y="0px"
	 viewBox="0 0 347 105.1" style="enable-background:new 0 0 347 105.1;" xml:space="preserve">
<style type="text/css">
	.st0{fill:#D1D3D4;}
	.st1{fill:#231F20;}
	.st2{clip-path:url(#SVGID_2_);}
	.st3{fill:none;stroke:#D1D3D4;stroke-width:1.09;stroke-miterlimit:10;}
	.st4{clip-path:url(#SVGID_4_);}
	.st5{enable-background:new    ;}
	.st6{fill:none;stroke:#231F20;stroke-width:0.15;stroke-miterlimit:10;}
	.st7{fill:none;stroke:#231F20;stroke-width:0.14;stroke-miterlimit:10;}
	.st8{clip-path:url(#SVGID_6_);}
	.st9{clip-path:url(#SVGID_8_);}
	.st10{fill:none;stroke:#231F20;stroke-width:0.14;stroke-linejoin:bevel;}
	.st11{clip-path:url(#SVGID_10_);}
	.st12{clip-path:url(#SVGID_12_);}
	.st13{clip-path:url(#SVGID_14_);}
	.st14{clip-path:url(#SVGID_16_);}
	.st15{clip-path:url(#SVGID_18_);}
	.st16{fill:none;stroke:#FFFFFF;stroke-width:0.15;stroke-miterlimit:10;}
	.st17{clip-path:url(#SVGID_20_);}
	.st18{clip-path:url(#SVGID_22_);}
	.st19{clip-path:url(#SVGID_24_);}
	.st20{clip-path:url(#SVGID_26_);}
	.st21{clip-path:url(#SVGID_28_);}
	.st22{clip-path:url(#SVGID_30_);}
	.st23{clip-path:url(#SVGID_32_);}
	.st24{clip-path:url(#SVGID_34_);}
</style>
<title>residence_N_7-12_key_horizontal</title>
<g>
	<g id="Layer_1_copy">
		<g>
			<path class="st0" d="M209.9,51.6c-0.8,0-1.2-0.5-1.2-1.4v-1.8h4.4V50c0,0.9-0.4,1.5-1.2,1.5c-0.4,0-0.8-0.2-0.9-0.6
				C210.8,51.3,210.3,51.6,209.9,51.6z M209.4,49.2v0.8c0,0.4,0.2,0.6,0.5,0.6s0.5-0.2,0.5-0.6v-0.8H209.4z M211.2,50
				c0,0.4,0.2,0.7,0.5,0.7s0.5-0.2,0.5-0.7v-0.7h-1V50z"/>
			<path class="st0" d="M210.2,54.1h-1.6v-0.9h4.4V55c0.1,0.7-0.4,1.4-1.1,1.5c-0.1,0-0.1,0-0.2,0c-0.6,0-1.2-0.4-1.3-1l-1.7,1.1v-1
				l1.6-1.1L210.2,54.1z M211,54.1V55c0,0.5,0.2,0.7,0.6,0.7s0.6-0.2,0.6-0.7v-0.8L211,54.1z"/>
		</g>
		<g>
			<path class="st0" d="M208.6,61.1c-0.1-1.2,0.8-2.3,2-2.4c1.2-0.1,2.3,0.8,2.4,2c0.1,1.2-0.8,2.3-2,2.4c-0.1,0-0.2,0-0.2,0
				c-1.1,0.1-2.1-0.7-2.2-1.9C208.6,61.2,208.6,61.1,208.6,61.1z M212.2,61.1c0-0.7-0.6-1.1-1.4-1.1s-1.4,0.4-1.4,1.1
				s0.6,1.1,1.4,1.1S212.2,61.8,212.2,61.1z"/>
		</g>
		<g>
			<path class="st0" d="M213,67.3l-4.4,1.7v-1l1-0.4v-1.6l-1-0.4v-0.9l4.3,1.7L213,67.3z M210.5,66.3v1l1.4-0.5L210.5,66.3z"/>
		</g>
		<g>
			<path class="st0" d="M213,71v1.5c0,1.2-1,2.2-2.2,2.2c-1.2,0-2.1-1-2.1-2.2V71H213z M209.5,72.5c0.1,0.8,0.7,1.3,1.5,1.2
				c0.7-0.1,1.2-0.6,1.2-1.2v-0.6h-2.7V72.5z"/>
		</g>
		<g>
			<path class="st0" d="M213,79.5l-2.9,0.8l2.9,0.7v0.9l-4.3-1.1v-0.8l2.8-0.8l-2.8-0.8v-0.8l4.3-1.1v0.9l-2.9,0.7l2.9,0.8V79.5z"/>
		</g>
		<g>
			<path class="st0" d="M213,85.8l-4.3,1.6v-0.9l1-0.4v-1.6l-1-0.4v-0.9l4.3,1.7V85.8z M210.5,84.8v1.1l1.4-0.5L210.5,84.8z"/>
		</g>
		<g>
			<path class="st0" d="M213,91.7v1l-2.7-1.6h-1.6v-0.9h1.6l2.7-1.6v1l-1.8,1L213,91.7z"/>
		</g>
		<g>
			<path class="st0" d="M343.4,40.5v0.9h-3.5v2h-0.8v-2.9H343.4z"/>
		</g>
		<g>
			<path class="st0" d="M343.4,47.8l-4.3,1.6v-0.9l1-0.4v-1.6l-1-0.4v-0.9l4.3,1.7V47.8z M340.9,46.8v1l1.4-0.5L340.9,46.8z"/>
		</g>
		<g>
			<path class="st0" d="M339.1,51.5h4.3v2.9h-0.8v-2h-1.1v1.8h-0.8v-1.8h-1.6V51.5z"/>
		</g>
		<g>
			<path class="st0" d="M343.4,58.5l-4.3,1.7v-0.9l1-0.4v-1.6l-1-0.4V56l4.3,1.6V58.5z M340.9,57.5v1l1.4-0.5L340.9,57.5z"/>
		</g>
		<g>
			<path class="st0" d="M343.4,64.4v0.9l-2.7-1.6h-1.6v-0.9h1.6l2.7-1.5v1l-1.8,1L343.4,64.4z"/>
			<path class="st0" d="M343.4,69.8h-0.8v-2h-0.9v1.8h-0.8v-1.9h-1v2h-0.8v-2.9h4.3L343.4,69.8L343.4,69.8z"/>
			<path class="st0" d="M343.4,71.2v3.7h-0.8v-1.4h-3.5v-0.9h3.5v-1.4H343.4z"/>
			<path class="st0" d="M343.4,76.2v3.7h-0.8v-1.4h-3.5v-0.9h3.5v-1.4H343.4z"/>
			<path class="st0" d="M343.4,84.4h-0.8v-2h-0.9v1.8h-0.8v-1.9h-1v2h-0.8v-2.9h4.3L343.4,84.4L343.4,84.4z"/>
		</g>
		<g>
			<path class="st0" d="M340.3,92.5c-0.4,0.1-0.6,0.5-0.5,0.9c0,0.4,0.2,0.7,0.5,0.7s0.4-0.2,0.5-0.5l0.2-0.8
				c0.1-0.6,0.5-1.1,1.2-1.1c0.8,0,1.4,0.7,1.3,1.4c0,0,0,0.1,0,0.1c0.1,0.8-0.5,1.5-1.2,1.7V94c0.3-0.1,0.5-0.4,0.5-0.8
				c0-0.4-0.2-0.7-0.5-0.7s-0.4,0.2-0.5,0.5l-0.2,0.8c-0.2,0.7-0.6,1.1-1.2,1.1c-0.8,0-1.3-0.7-1.3-1.6c-0.1-0.8,0.5-1.6,1.3-1.8
				L340.3,92.5L340.3,92.5z"/>
		</g>
		<g>
			<path class="st0" d="M343.4,96.8v3.7h-0.8v-1.4h-3.5v-0.9h3.5v-1.4H343.4z"/>
		</g>
		<g>
			<path class="st0" d="M251.3,40.8h0.9v3.5h2v0.8h-2.9V40.8z"/>
			<path class="st0" d="M258.8,40.8v0.8h-2v0.9h1.9v0.8h-1.9v1h2V45h-2.9v-4.3L258.8,40.8z"/>
		</g>
		<g>
			<path class="st0" d="M263.1,45.1c-1.2,0.1-2.3-0.8-2.4-2c-0.1-1.2,0.8-2.3,2-2.4c1.2-0.1,2.3,0.8,2.4,2c0,0.1,0,0.2,0,0.2
				c0.1,1.1-0.8,2.1-1.9,2.2C263.2,45.1,263.1,45.1,263.1,45.1z M263.1,41.5c-0.7,0-1.1,0.6-1.1,1.4s0.4,1.4,1.1,1.4
				s1.1-0.6,1.1-1.4S263.8,41.5,263.1,41.5z"/>
		</g>
		<g>
			<path class="st0" d="M270.8,45.1h-0.7l-2-2.9v2.9h-0.9v-4.3h0.8l1.9,2.7v-2.7h0.9L270.8,45.1L270.8,45.1z"/>
		</g>
		<g>
			<path class="st0" d="M275.2,40.8l1.6,4.3H276l-0.4-1H274l-0.4,1h-0.9l1.6-4.3H275.2z M274.2,43.3h1l-0.5-1.4L274.2,43.3z"/>
		</g>
		<g>
			<path class="st0" d="M279.7,43.5v1.6h-0.9v-4.3h1.8c0.7-0.1,1.4,0.4,1.5,1.1c0,0.1,0,0.1,0,0.2c0,0.6-0.4,1.2-1,1.3l1.1,1.7h-1
				l-1.1-1.6L279.7,43.5z M279.7,42.7h0.8c0.5,0,0.7-0.2,0.7-0.6s-0.2-0.6-0.7-0.6h-0.8V42.7z"/>
			<path class="st0" d="M283.7,40.8h1.5c1.2,0,2.1,1,2.1,2.2c0,1.2-1,2.1-2.1,2.1h-1.5V40.8z M285.2,44.3c0.8-0.1,1.3-0.7,1.2-1.5
				c-0.1-0.7-0.6-1.2-1.2-1.2h-0.6v2.7H285.2z"/>
		</g>
		<g>
			<path class="st0" d="M293.3,43.8c0.1,0.4,0.5,0.6,0.9,0.6c0.4,0,0.7-0.2,0.7-0.5s-0.2-0.4-0.5-0.5l-0.8-0.2
				c-0.6-0.1-1.1-0.5-1.1-1.2c0-0.8,0.7-1.4,1.5-1.3c0,0,0,0,0.1,0c0.8-0.1,1.5,0.5,1.7,1.2h-0.9c-0.1-0.3-0.4-0.6-0.8-0.5
				c-0.4,0-0.7,0.2-0.7,0.5s0.2,0.4,0.5,0.5l0.8,0.2c0.7,0.2,1.1,0.6,1.1,1.2c0,0.8-0.7,1.3-1.6,1.3c-0.8,0.1-1.6-0.5-1.8-1.3
				L293.3,43.8z"/>
		</g>
		<g>
			<path class="st0" d="M297.5,40.8h3.7v0.8h-1.4v3.5h-0.9v-3.5h-1.4V40.8z"/>
		</g>
		<g>
			<path class="st0" d="M248.2,94.4c0.9-0.1,1.7,0.6,1.8,1.5h-0.9c-0.1-0.4-0.5-0.7-0.9-0.7c-0.7,0-1.1,0.6-1.1,1.4s0.4,1.4,1.1,1.4
				c0.4,0,0.8-0.3,0.9-0.7h0.9c-0.1,0.9-0.9,1.5-1.8,1.5c-1.2-0.1-2.1-1.2-2-2.4C246.3,95.3,247.1,94.5,248.2,94.4L248.2,94.4z"/>
		</g>
		<g>
			<path class="st0" d="M254.2,94.5l1.6,4.3H255l-0.4-1H253l-0.4,1h-0.9l1.6-4.3H254.2z M253.2,97h1.1l-0.5-1.4L253.2,97z"/>
		</g>
		<g>
			<path class="st0" d="M257.2,94.5h3.7v0.8h-1.4v3.5h-0.9v-3.5h-1.4V94.5z"/>
		</g>
		<g>
			<path class="st0" d="M266.8,94.5v4.3h-0.9V97h-1.9v1.8H263v-4.3h0.9v1.7h1.9v-1.8H266.8z"/>
		</g>
		<g>
			<path class="st0" d="M272,94.5v0.8h-2v0.9h1.9V97H270v1h2v0.8h-2.9v-4.3L272,94.5z"/>
			<path class="st0" d="M274.6,97.2v1.6h-0.9v-4.3h1.8c0.7-0.1,1.4,0.4,1.5,1.1c0,0.1,0,0.1,0,0.2c0,0.6-0.4,1.2-1,1.3l1.1,1.7h-1
				l-1.1-1.6H274.6z M274.6,96.4h0.8c0.5,0,0.7-0.2,0.7-0.6s-0.2-0.6-0.7-0.6h-0.8V96.4z"/>
		</g>
		<g>
			<path class="st0" d="M280.7,98.8h-0.9v-4.3h0.9V98.8z"/>
		</g>
		<g>
			<path class="st0" d="M286.6,98.8h-0.7l-2-2.9v2.9H283v-4.3h0.8l1.9,2.7v-2.7h0.9L286.6,98.8z"/>
			<path class="st0" d="M291.4,94.5v0.8h-2v0.9h1.9V97h-1.9v1h2v0.8h-2.9v-4.3L291.4,94.5z"/>
			<path class="st0" d="M295.5,94.5h0.9V98h2v0.8h-2.9V94.5z"/>
		</g>
		<g>
			<path class="st0" d="M305.8,98.8h-0.7l-2-2.9v2.9h-0.9v-4.3h0.8l1.9,2.7v-2.7h0.9L305.8,98.8z"/>
		</g>
	</g>
	<g>
		<polyline class="st1" points="308.2,60.1 308.2,60.3 308.2,69.8 312,69.8 312,69 316.1,69 316.1,67.6 322.4,67.6 322.4,69.5 
			328.8,69.5 328.8,60.3 		"/>
		<g>
			<defs>
				<rect id="SVGID_1_" x="219.4" y="58.6" width="112" height="25.3"/>
			</defs>
			<clipPath id="SVGID_2_">
				<use xlink:href="#SVGID_1_"  style="overflow:visible;"/>
			</clipPath>
			<g class="st2">
				<polygon class="st3" points="328.8,60.3 328.8,82.2 220.8,75.5 220.8,60.3 				"/>
			</g>
		</g>
		<g>
			<defs>
				<rect id="SVGID_3_" x="4.1" y="0.8" width="186.9" height="104.5"/>
			</defs>
			<clipPath id="SVGID_4_">
				<use xlink:href="#SVGID_3_"  style="overflow:visible;"/>
			</clipPath>
			<g class="st4">
				<g class="st5">
					<path class="st0" d="M12,75.8l0.6,0.4l-2.5,1.6l1.4,0.9L11,79.1l-2.1-1.3L12,75.8z"/>
					<path class="st0" d="M17.9,79.5l-0.6,0.4l-1.5-0.9l-0.7,0.4l1.3,0.8l-0.5,0.4l-1.3-0.8l-0.7,0.5l1.5,0.9l-0.6,0.4l-2.1-1.3
						l3.1-2L17.9,79.5z"/>
					<path class="st0" d="M17.8,83.4c-0.9-0.5-0.8-1.4,0.1-2c0.9-0.6,2.2-0.7,3.1-0.1c0.9,0.5,0.8,1.4-0.1,2
						C19.9,83.9,18.6,84,17.8,83.4z M20.4,81.7c-0.5-0.3-1.2-0.2-1.8,0.2c-0.6,0.4-0.7,0.9-0.2,1.2c0.5,0.3,1.2,0.2,1.8-0.2
						C20.8,82.5,20.9,82,20.4,81.7z"/>
					<path class="st0" d="M23.6,87l-0.5-0.3l0.6-2.3l-2,1.3L21,85.4l3.1-2l0.6,0.4l-0.6,2.1l1.9-1.3l0.6,0.4L23.6,87z"/>
				</g>
				<g class="st5">
					<path class="st0" d="M30,87.1l-1.9,2.8l-0.7-0.4l0.5-0.7l-1.2-0.7l-1,0.3L25.1,88l4.3-1.3L30,87.1z M27.5,87.8l0.8,0.5l0.6-0.9
						L27.5,87.8z"/>
				</g>
				<g class="st5">
					<path class="st0" d="M31.5,90.5l-1.1,0.8l-0.6-0.4l3.1-2l1.3,0.8c0.7,0.4,0.7,0.9,0.1,1.3c-0.5,0.3-1.1,0.4-1.6,0.2l-0.4,1.3
						l-0.7-0.5l0.4-1.2L31.5,90.5z M32.1,90.1l0.6,0.4c0.3,0.2,0.7,0.2,0.9,0c0.3-0.2,0.3-0.4-0.1-0.6l-0.6-0.4L32.1,90.1z"/>
					<path class="st0" d="M36.9,91.4l1.1,0.7c0.9,0.6,0.9,1.3,0,2c-0.9,0.6-2.1,0.6-3.1,0l-1.1-0.7L36.9,91.4z M35.5,93.7
						c0.6,0.4,1.3,0.3,1.9-0.1c0.6-0.4,0.7-0.8,0.1-1.2L37,92.1L35,93.4L35.5,93.7z"/>
				</g>
				<g class="st5">
					<path class="st0" d="M41.7,97.2c-0.2,0.2-0.1,0.5,0.2,0.6c0.3,0.2,0.7,0.2,0.9,0.1c0.2-0.1,0.2-0.3,0-0.5L42.4,97
						c-0.3-0.3-0.5-0.7,0.1-1c0.6-0.4,1.4-0.3,2.1,0.1c0.7,0.4,0.7,0.9,0.3,1.3L44.2,97c0.1-0.2,0.1-0.4-0.2-0.6
						c-0.3-0.2-0.6-0.2-0.9-0.1c-0.2,0.1-0.2,0.3,0,0.4l0.4,0.4c0.4,0.4,0.4,0.8-0.1,1.1c-0.6,0.4-1.5,0.3-2.1-0.1
						c-0.7-0.4-0.8-1-0.4-1.4L41.7,97.2z"/>
				</g>
				<g class="st5">
					<path class="st0" d="M47.2,97.8l2.7,1.7l-0.6,0.4l-1-0.6l-2.5,1.6l-0.7-0.4l2.5-1.6l-1-0.6L47.2,97.8z"/>
				</g>
				<line class="st6" x1="73.7" y1="63.2" x2="73.7" y2="58.8"/>
				<line class="st6" x1="14.2" y1="27.5" x2="14.2" y2="23.8"/>
				<line class="st6" x1="26.6" y1="32.3" x2="26.6" y2="34.4"/>
				<line class="st6" x1="21.1" y1="29.2" x2="21.1" y2="31.3"/>
				<line class="st6" x1="28" y1="31.5" x2="28" y2="33.6"/>
				<line class="st7" x1="28" y1="33.5" x2="26.5" y2="34.4"/>
				<line class="st7" x1="28" y1="31.6" x2="26.6" y2="32.4"/>
				<line class="st7" x1="65.6" y1="49.2" x2="59.6" y2="52.8"/>
				<line class="st7" x1="70.2" y1="52.9" x2="65.1" y2="55.9"/>
				<line class="st6" x1="35.2" y1="35.7" x2="35.2" y2="37.7"/>
				<line class="st7" x1="40.3" y1="34" x2="64.5" y2="49.9"/>
				<line class="st7" x1="65.6" y1="49.2" x2="70.2" y2="52.3"/>
				<line class="st7" x1="40.3" y1="33.3" x2="65" y2="49.6"/>
				<line class="st7" x1="11.3" y1="26.3" x2="13.8" y2="27.8"/>
				<line class="st7" x1="21.1" y1="29.2" x2="26.6" y2="32.4"/>
				<line class="st7" x1="28.1" y1="31.6" x2="35.3" y2="35.8"/>
				<line class="st7" x1="28" y1="33.5" x2="35.2" y2="37.7"/>
				<line class="st7" x1="59.6" y1="52.8" x2="65.1" y2="55.9"/>
				<line class="st6" x1="73.7" y1="50.3" x2="73.7" y2="48.2"/>
				<polyline class="st6" points="64.6,60.1 63.7,59.5 62.6,60.2 15.7,33 15.7,30.7 				"/>
				<polyline class="st6" points="27.5,25.6 22.8,22.5 12.2,28.7 62.6,57.9 				"/>
				<line class="st6" x1="62.6" y1="57.9" x2="62.6" y2="60.2"/>
				<line class="st6" x1="63.7" y1="57.2" x2="62.6" y2="57.9"/>
				<polyline class="st6" points="63.7,59.5 63.7,57.2 59.6,54.9 				"/>
				<line class="st6" x1="73.8" y1="67.4" x2="73.8" y2="64.9"/>
				<polyline class="st6" points="79.3,57.8 82.3,59.9 82.3,62.4 73.8,67.4 64.6,62.1 64.6,59.6 68.2,57.4 				"/>
				<polyline class="st6" points="82.3,59.9 73.8,64.9 64.6,59.6 				"/>
				<polyline class="st7" points="13.1,29.2 13.1,30.5 15.7,31.9 				"/>
				<line class="st7" x1="21.1" y1="31.2" x2="26.6" y2="34.4"/>
				<line class="st7" x1="59.6" y1="54.8" x2="59.6" y2="52.8"/>
				<line class="st7" x1="65.1" y1="59.2" x2="65.1" y2="55.9"/>
				<polyline class="st7" points="77.3,49.3 73.7,51.4 70.2,49.3 				"/>
				<polyline class="st6" points="77.3,53.8 77.6,54 77.6,55.6 73.7,57.9 69.8,55.6 69.8,54.1 70.2,53.9 				"/>
				<line class="st6" x1="73.7" y1="57.8" x2="73.7" y2="51.4"/>
				<polyline class="st6" points="77.6,54.5 79.3,55.5 79.3,60 73.7,63.2 68.2,60.1 68.2,55.6 69.8,54.7 				"/>
				<polyline class="st6" points="79.3,55.5 73.7,58.8 68.3,55.6 				"/>
				<polyline class="st6" points="11.3,26.3 5.9,29.4 5.9,66.9 				"/>
				<polyline class="st6" points="17.2,22.8 20.9,20.6 28,25.3 				"/>
				<line class="st6" x1="73.7" y1="68.7" x2="73.7" y2="102.5"/>
				<line class="st6" x1="73.7" y1="102.5" x2="37.5" y2="81.5"/>
				<polyline class="st6" points="83.9,68.3 73.7,74.3 6,35.1 				"/>
				<polyline class="st6" points="83.9,71.2 73.7,77.1 6,37.9 				"/>
				<polyline class="st6" points="83.9,74 73.7,79.9 6,40.7 				"/>
				<polyline class="st6" points="83.9,76.8 73.7,82.8 6,43.5 				"/>
				<polyline class="st6" points="83.9,79.6 73.7,85.6 6,46.4 				"/>
				<polyline class="st6" points="83.9,82.4 73.7,88.4 6,49.2 				"/>
				<polyline class="st6" points="83.9,85.2 73.7,91.2 6,52 				"/>
				<polyline class="st6" points="83.9,88.1 73.7,94 6,54.8 				"/>
				<line class="st6" x1="83.9" y1="90.9" x2="81.5" y2="92.3"/>
				<polyline class="st6" points="76.1,95.4 73.7,96.8 6,57.6 				"/>
				<line class="st6" x1="81.5" y1="95.1" x2="83.9" y2="93.7"/>
				<polyline class="st6" points="76.1,98.3 73.7,99.7 6,60.5 				"/>
				<polyline class="st6" points="83.9,65.5 73.7,71.5 6,32.3 				"/>
				<line class="st6" x1="34.7" y1="79.8" x2="6" y2="63.2"/>
				<polyline class="st7" points="12.8,21.2 11.3,22.1 11.3,26.3 				"/>
				<polyline class="st7" points="15.8,21.3 17.2,22.1 17.2,25.8 				"/>
				<polyline class="st7" points="11.3,22.1 14.2,23.8 17.2,22.1 				"/>
				<polyline class="st6" points="74.9,46.5 75.7,47 75.7,49.2 73.7,50.3 71.7,49.2 71.7,47 72.7,46.4 				"/>
				<polyline class="st7" points="75.7,47 73.7,48.2 71.7,47 				"/>
				<g>
					<defs>
						<rect id="SVGID_5_" x="4.3" y="5.6" width="86.4" height="99"/>
					</defs>
					<clipPath id="SVGID_6_">
						<use xlink:href="#SVGID_5_"  style="overflow:visible;"/>
					</clipPath>
					<g class="st8">
						<path class="st6" d="M71.8,44.6c0,0.1-0.2,0.2-0.2,0.3l0.1,0.3c0.1,0.2,0.6,0.3,1.3,0.1s2.3-1,2.5-1.9L75.3,43
							c-0.2,0-0.3,0-0.5,0"/>
					</g>
				</g>
				<polyline class="st6" points="72.5,41.5 73.6,42.1 73.9,41.9 74.7,40.9 				"/>
				<g>
					<defs>
						<rect id="SVGID_7_" x="4.3" y="5.6" width="86.4" height="99"/>
					</defs>
					<clipPath id="SVGID_8_">
						<use xlink:href="#SVGID_7_"  style="overflow:visible;"/>
					</clipPath>
					<g class="st9">
						<path class="st6" d="M75.3,43.9c0.1,0.2,0.1,0.5,0,0.8c-0.2,1-1.1,1.6-2.1,1.4c0,0,0,0,0,0c-0.4-0.1-0.7-0.2-0.9-0.5l-0.1-0.1
							"/>
						<path class="st6" d="M72,45c-0.1-0.1-0.1-0.3-0.1-0.4c-0.1-1,0.5-1.9,1.5-2c0.6-0.1,1.2,0.1,1.6,0.5c0.1,0.1,0.2,0.3,0.3,0.4"
							/>
						<path class="st6" d="M72.9,52.7c0.3,0.9,0.1,1.5-0.5,1.5s-1.3-0.7-1.6-1.5s-0.1-1.5,0.5-1.5S72.6,51.8,72.9,52.7z"/>
						<path class="st6" d="M74.4,52.7c-0.3,0.9-0.1,1.5,0.5,1.5s1.3-0.7,1.6-1.5s0.1-1.5-0.5-1.5S74.7,51.9,74.4,52.7z"/>
						<path class="st10" d="M74.9,46.6c0-0.1,0-0.1,0-0.2c0,0-0.1-0.1-0.1-0.1c-0.1,0-0.2,0-0.3,0.1v-0.2l0.1-0.4"/>
						<path class="st7" d="M74.1,46.6c0,0.1,0.1,0.2,0.1,0.2s0.2,0.1,0.3,0"/>
					</g>
				</g>
				<polyline class="st7" points="73.1,47.3 73.1,47.1 73.3,46.7 73.3,46.6 72.9,46.5 72.5,46.3 72.7,45.8 				"/>
				<polyline class="st6" points="71.7,48.5 70.2,49.3 70.2,54.1 73.7,56.2 77.3,54.1 77.3,49.3 75.7,48.4 				"/>
				<g>
					<defs>
						<rect id="SVGID_9_" x="4.3" y="5.6" width="86.4" height="99"/>
					</defs>
					<clipPath id="SVGID_10_">
						<use xlink:href="#SVGID_9_"  style="overflow:visible;"/>
					</clipPath>
					<g class="st11">
						<path class="st7" d="M14,19.6c-0.7,0.1-1.2,0.8-1.2,1.5v1.1c0,0.4,0.6,0.8,1.5,0.8s1.5-0.3,1.5-0.8v-1.1
							c0-0.7-0.5-1.4-1.2-1.5v-0.2c0-0.1-0.1-0.2-0.2-0.2S14,19.4,14,19.5V19.6z"/>
					</g>
				</g>
				<polyline class="st6" points="83.9,62.7 73.7,68.7 6,29.5 				"/>
				<polyline class="st6" points="37.5,82 35.5,80.9 33.8,81.9 36.2,83.3 37.5,82.6 				"/>
				<line class="st6" x1="37.5" y1="82" x2="35.5" y2="80.9"/>
				<line class="st6" x1="37.5" y1="83.7" x2="36.6" y2="83.1"/>
				<g>
					<defs>
						<rect id="SVGID_11_" x="4.3" y="5.6" width="86.4" height="99"/>
					</defs>
					<clipPath id="SVGID_12_">
						<use xlink:href="#SVGID_11_"  style="overflow:visible;"/>
					</clipPath>
					<g class="st12">
						<path class="st6" d="M35.9,78.6c-0.2,0.2-0.4,0.5-0.4,0.8v1.5"/>
					</g>
				</g>
				<polyline class="st6" points="35.2,82.7 34.6,83 5.9,66.8 				"/>
				<line class="st6" x1="34.7" y1="83" x2="34.7" y2="82.4"/>
				<g>
					<defs>
						<rect id="SVGID_13_" x="4.3" y="5.6" width="86.4" height="99"/>
					</defs>
					<clipPath id="SVGID_14_">
						<use xlink:href="#SVGID_13_"  style="overflow:visible;"/>
					</clipPath>
					<g class="st13">
						<path class="st6" d="M81.5,97.9v-5.4l-5.4,3v5.6l-2.4,1.4l-18.2-8.6l-14.6-7.3l-3.3-1.9v-3.8c-0.1-0.9-0.6-1.7-1.4-2.1
							c-0.4-0.3-1-0.2-1.3,0.3c-0.1,0.2-0.2,0.4-0.2,0.6v1.9"/>
					</g>
				</g>
				<polyline class="st6" points="77.7,98.3 77.7,96.9 76.8,97.4 76.8,98.8 				"/>
				<g>
					<defs>
						<rect id="SVGID_15_" x="4.3" y="5.6" width="86.4" height="99"/>
					</defs>
					<clipPath id="SVGID_16_">
						<use xlink:href="#SVGID_15_"  style="overflow:visible;"/>
					</clipPath>
					<g class="st14">
						<path class="st6" d="M82.3,61.7l1.6,1v33.8l-2.4,1.4c-1.2-0.4-2.5-0.3-3.6,0.3l-1.2,0.7c-0.2,0.1-0.4,0.2-0.6,0.4"/>
					</g>
				</g>
				<polyline class="st7" points="35.2,37.7 40.3,34.7 40.3,32.8 28.4,25 21.1,29.2 				"/>
				<line class="st7" x1="40.3" y1="32.8" x2="35.3" y2="35.7"/>
				<g>
					<defs>
						<rect id="SVGID_17_" x="4.3" y="5.6" width="86.4" height="99"/>
					</defs>
					<clipPath id="SVGID_18_">
						<use xlink:href="#SVGID_17_"  style="overflow:visible;"/>
					</clipPath>
					<g class="st15">
						<g class="st5">
							<path class="st0" d="M196.4,69.2c0.7,0.5,0.7,1,0.2,1.5l-0.6-0.4c0.2-0.2,0.2-0.5-0.2-0.7c-0.5-0.3-1.2-0.3-1.8,0.1
								c-0.6,0.3-0.8,0.8-0.3,1.1c0.3,0.2,0.7,0.3,1.1,0.2l0.6,0.4c-0.8,0.3-1.6,0.2-2.3-0.2c-0.8-0.6-0.7-1.4,0.2-1.9
								C194.3,68.6,195.6,68.6,196.4,69.2z"/>
						</g>
						<g class="st5">
							<path class="st0" d="M200.6,72.2l-2,2.6l-0.6-0.4l0.5-0.6l-1.1-0.8l-1,0.3l-0.6-0.4l4.3-1L200.6,72.2z M198.1,72.8l0.7,0.5
								l0.7-0.9L198.1,72.8z"/>
						</g>
						<g class="st5">
							<path class="st0" d="M202.8,73.8l2.6,1.8l-0.6,0.3l-1-0.7l-2.6,1.5l-0.6-0.4l2.6-1.5l-1-0.7L202.8,73.8z"/>
						</g>
						<g class="st5">
							<path class="st0" d="M209.6,78.4l-3.2,1.8l-0.6-0.4l1.3-0.8l-1.4-0.9l-1.3,0.8l-0.6-0.4l3.2-1.8l0.6,0.4l-1.3,0.7l1.4,0.9
								L209,78L209.6,78.4z"/>
							<path class="st0" d="M213.4,81.1l-0.6,0.3l-1.4-1l-0.7,0.4l1.3,0.9l-0.6,0.3l-1.3-0.9l-0.8,0.4l1.4,1l-0.6,0.3l-2-1.4
								l3.2-1.8L213.4,81.1z"/>
						</g>
						<g class="st5">
							<path class="st0" d="M213.7,83.8l-1.2,0.7l-0.6-0.4l3.2-1.8l1.2,0.9c0.6,0.4,0.7,0.9,0,1.3c-0.5,0.3-1.1,0.3-1.6,0.1
								l-0.4,1.3l-0.7-0.5L214,84L213.7,83.8z M214.2,83.5l0.6,0.4c0.3,0.2,0.6,0.2,0.9,0.1c0.3-0.2,0.3-0.4,0-0.6l-0.6-0.4
								L214.2,83.5z"/>
							<path class="st0" d="M216.4,87.2l-0.6-0.4L219,85l0.6,0.4L216.4,87.2z"/>
							<path class="st0" d="M220.7,90.2l-0.5-0.3l0.7-2.2l-2.1,1.2l-0.6-0.4l3.2-1.8l0.6,0.4l-0.7,2.1l2-1.2l0.6,0.4L220.7,90.2z"/>
							<path class="st0" d="M227.6,91l-0.6,0.3l-1.4-1l-0.7,0.4l1.3,0.9l-0.6,0.3l-1.3-0.9l-0.7,0.4l1.4,1l-0.6,0.3l-2-1.4l3.2-1.8
								L227.6,91z"/>
							<path class="st0" d="M231.5,93.7l0.6,0.4l-2.6,1.5l1.4,1l-0.6,0.3l-2-1.4L231.5,93.7z"/>
						</g>
						<g class="st5">
							<path class="st0" d="M234.5,99.8l-0.5-0.3l0.7-2.2l-2.1,1.2L232,98l3.2-1.8l0.6,0.4l-0.7,2.1l2-1.2l0.6,0.4L234.5,99.8z"/>
						</g>
						<path class="st7" d="M260.7,95.8v-0.8c0-0.1-0.1-0.3-0.2-0.4"/>
						<path class="st7" d="M261.3,96.1v-1.2c0-0.3-0.2-0.7-0.8-0.3c-0.4,0.2-0.7,0.6-0.7,1.1V97l-6.7,4l-8.8-6.1l-11.2-7.7l-9.4-6.4
							l-13.9-9.5L190,56.9V22.8l1.4-0.8"/>
						<path class="st7" d="M198.7,12.9c0.3,0.9,0.1,1.5-0.5,1.6s-1.3-0.7-1.6-1.6s-0.1-1.6,0.5-1.6S198.4,12,198.7,12.9z"/>
						<path class="st7" d="M200.2,12.9c-0.3,0.9-0.1,1.6,0.5,1.6s1.3-0.7,1.6-1.6s0.1-1.6-0.5-1.6S200.5,12,200.2,12.9z"/>
						<path class="st7" d="M197.6,4.8c-0.1,0.1-0.1,0.2-0.2,0.3l0.1,0.3c0.1,0.2,0.6,0.3,1.3,0.1s2.3-1,2.5-1.9l-0.2-0.5
							c-0.2,0-0.3,0-0.5,0"/>
						<path class="st7" d="M201.1,4.1c0.1,0.2,0.1,0.5,0,0.8c-0.2,1-1.2,1.6-2.1,1.4c-0.4-0.1-0.7-0.3-0.9-0.5L198,5.7"/>
						<path class="st7" d="M197.7,5.2c-0.1-0.1-0.1-0.3-0.1-0.4c-0.1-1,0.5-1.9,1.5-2c0.6-0.1,1.2,0.1,1.6,0.5
							c0.1,0.1,0.2,0.3,0.3,0.4"/>
						<path class="st7" d="M200.7,6.8c0-0.1,0-0.1,0-0.2c0,0-0.1-0.1-0.1-0.1c-0.1,0-0.2,0-0.3,0.1c0,0,0-0.1,0-0.1l0,0l0.1-0.4"/>
						<path class="st7" d="M199.9,6.7c0,0.1,0.1,0.2,0.1,0.2s0.2,0.1,0.4,0"/>
						<path class="st7" d="M259,52c-0.7,0.1-1.2,0.8-1.2,1.5v1.1c0,0.4,0.6,0.8,1.5,0.8s1.5-0.3,1.5-0.8v-1c0-0.7-0.5-1.4-1.2-1.5
							v-0.2c0-0.1-0.1-0.2-0.2-0.2s-0.2,0.1-0.2,0.2L259,52z"/>
					</g>
				</g>
				<polygon class="st1" points="6,32.4 5.9,49.3 16.9,55.6 16.9,38.6 				"/>
				<line class="st16" x1="5.9" y1="35.1" x2="16.9" y2="41.4"/>
				<line class="st16" x1="5.9" y1="38" x2="16.9" y2="44.2"/>
				<line class="st16" x1="5.9" y1="40.8" x2="16.9" y2="47"/>
				<line class="st16" x1="5.9" y1="43.6" x2="16.9" y2="49.8"/>
				<line class="st16" x1="5.9" y1="46.4" x2="16.9" y2="52.7"/>
				<polygon class="st1" points="5.9,54.9 5.9,57.7 16.6,63.8 16.6,61 				"/>
				<g>
					<defs>
						<rect id="SVGID_19_" x="4.3" y="5.6" width="86.4" height="99"/>
					</defs>
					<clipPath id="SVGID_20_">
						<use xlink:href="#SVGID_19_"  style="overflow:visible;"/>
					</clipPath>
					<g class="st17">
						<path class="st1" d="M261.8,84.8l6.2-3.4v2.8l-6.2,3.5L261.8,84.8z"/>
					</g>
				</g>
				<g>
					<defs>
						<rect id="SVGID_21_" x="104.4" y="0.8" width="86.5" height="104.4"/>
					</defs>
					<clipPath id="SVGID_22_">
						<use xlink:href="#SVGID_21_"  style="overflow:visible;"/>
					</clipPath>
					<g class="st18">
						<path class="st6" d="M2.7,98.6v-5.5l-5.4,3v5.6l-2.4,1.4l-18.2-8.6L-38,87.2l-3.3-1.9v-3.8c-0.1-0.9-0.6-1.7-1.4-2.1
							c-0.4-0.3-1-0.2-1.3,0.3c-0.1,0.2-0.2,0.4-0.2,0.6v1.9"/>
						<path class="st6" d="M3.5,62.4l1.6,1v33.8l-2.4,1.4c-1.2-0.4-2.5-0.3-3.6,0.3l-1.2,0.7c-0.2,0.1-0.4,0.2-0.5,0.4"/>
					</g>
				</g>
				<polyline class="st6" points="189.2,62.2 174.2,70.6 111.2,29.2 				"/>
				<polyline class="st6" points="189.2,65 174.2,73.5 111.2,32 				"/>
				<polyline class="st6" points="189.2,67.8 174.2,76.3 111.2,34.9 				"/>
				<polyline class="st6" points="189.2,70.7 174.2,79.1 111.2,37.7 				"/>
				<polyline class="st6" points="189.2,73.5 174.2,81.9 111.2,40.5 				"/>
				<polyline class="st6" points="189.2,76.3 174.2,84.8 111.2,43.4 				"/>
				<polyline class="st6" points="189.2,79.1 174.2,87.6 111.2,46.2 				"/>
				<polyline class="st6" points="189.2,82 174.2,90.4 111.2,49 				"/>
				<polyline class="st6" points="189.2,84.8 174.2,93.3 111.2,51.8 				"/>
				<polyline class="st6" points="189.2,87.6 174.2,96.1 111.2,54.7 				"/>
				<polyline class="st6" points="189.2,90.5 174.2,98.9 111.2,57.5 				"/>
				<line class="st6" x1="189.2" y1="90.5" x2="174.2" y2="98.9"/>
				<g class="st5">
					<path class="st0" d="M117.5,69.9c0.7,0.5,0.7,1,0.2,1.5l-0.6-0.4c0.2-0.2,0.2-0.5-0.2-0.7c-0.5-0.3-1.2-0.3-1.8,0.1
						c-0.6,0.3-0.8,0.8-0.3,1.1c0.3,0.2,0.7,0.3,1.1,0.2l0.6,0.4c-0.7,0.3-1.6,0.2-2.3-0.2c-0.8-0.6-0.7-1.4,0.2-1.9
						C115.5,69.3,116.7,69.3,117.5,69.9z"/>
				</g>
				<g class="st5">
					<path class="st0" d="M121.8,72.9l-2,2.6l-0.6-0.4l0.5-0.6l-1.1-0.8l-1,0.3l-0.6-0.4l4.3-1L121.8,72.9z M119.3,73.5L120,74
						l0.7-0.9L119.3,73.5z"/>
				</g>
				<g class="st5">
					<path class="st0" d="M124,74.4l2.6,1.8l-0.6,0.3l-1-0.7l-2.6,1.5l-0.6-0.4l2.6-1.5l-1-0.7L124,74.4z"/>
					<path class="st0" d="M130.8,79.1l-3.2,1.8l-0.6-0.4l1.3-0.8l-1.4-0.9l-1.3,0.8l-0.6-0.4l3.2-1.8l0.6,0.4l-1.3,0.7l1.4,0.9
						l1.3-0.7L130.8,79.1z"/>
					<path class="st0" d="M134.5,81.8l-0.6,0.3l-1.4-1l-0.7,0.4l1.3,0.9l-0.6,0.3l-1.3-0.9l-0.7,0.4l1.4,1l-0.6,0.3l-2-1.4l3.2-1.8
						L134.5,81.8z"/>
					<path class="st0" d="M134.8,84.5l-1.2,0.7l-0.6-0.4l3.2-1.8l1.2,0.9c0.6,0.4,0.7,0.9,0.1,1.3c-0.5,0.3-1.1,0.3-1.6,0.1
						l-0.4,1.3l-0.7-0.5l0.4-1.2L134.8,84.5z M135.4,84.2l0.6,0.4c0.3,0.2,0.6,0.2,0.9,0.1c0.3-0.2,0.3-0.4,0-0.6l-0.6-0.4
						L135.4,84.2z"/>
					<path class="st0" d="M137.6,87.9l-0.6-0.4l3.2-1.8l0.6,0.4L137.6,87.9z"/>
					<path class="st0" d="M141.9,90.9l-0.5-0.3l0.7-2.2l-2.1,1.2l-0.6-0.4l3.2-1.8l0.6,0.4l-0.7,2.1l2-1.2L145,89L141.9,90.9z"/>
					<path class="st0" d="M148.8,91.7l-0.6,0.3l-1.4-1l-0.7,0.4l1.3,0.9l-0.6,0.3l-1.3-0.9l-0.7,0.4l1.4,1l-0.6,0.3l-2-1.4l3.2-1.8
						L148.8,91.7z"/>
					<path class="st0" d="M152.7,94.4l0.6,0.4l-2.6,1.5l1.4,1l-0.6,0.3l-2-1.4L152.7,94.4z"/>
				</g>
				<g class="st5">
					<path class="st0" d="M155.7,100.5l-0.5-0.3l0.7-2.2l-2.1,1.2l-0.6-0.4l3.2-1.8l0.6,0.4l-0.7,2.1l2-1.2l0.6,0.4L155.7,100.5z"/>
				</g>
				<polyline class="st7" points="189.2,59.3 174.2,67.8 111.2,26.4 				"/>
				<line class="st7" x1="174.2" y1="64.9" x2="174.2" y2="101.6"/>
				<line class="st7" x1="181.9" y1="96.4" x2="180.9" y2="97"/>
				<polyline class="st7" points="181.9,96.4 182.4,96.8 189.2,92.9 189.2,56.5 				"/>
				<polyline class="st7" points="189.2,56.5 174.2,64.9 111.2,23.5 				"/>
				<g>
					<defs>
						<rect id="SVGID_23_" x="104.4" y="0.8" width="86.5" height="104.4"/>
					</defs>
					<clipPath id="SVGID_24_">
						<use xlink:href="#SVGID_23_"  style="overflow:visible;"/>
					</clipPath>
					<g class="st19">
						<path class="st7" d="M181.9,96.4v-0.8c0-0.1-0.1-0.3-0.2-0.4"/>
						<path class="st7" d="M182.4,96.8v-1.2c0-0.3-0.2-0.7-0.8-0.3c-0.4,0.2-0.7,0.6-0.7,1.1v1.3l-6.7,3.9l-8.8-6.1l-11.2-7.6
							l-9.4-6.4L131,71.9l-19.8-14.3V23.5l1.4-0.8"/>
					</g>
				</g>
				<line class="st7" x1="176.6" y1="58" x2="176.6" y2="56.5"/>
				<line class="st7" x1="120.2" y1="26.2" x2="120.2" y2="28.7"/>
				<line class="st7" x1="176.6" y1="58" x2="177.4" y2="58.5"/>
				<line class="st7" x1="176.6" y1="56.5" x2="177.4" y2="57"/>
				<line class="st7" x1="120.6" y1="11.1" x2="120.6" y2="9.2"/>
				<line class="st7" x1="120.6" y1="11.2" x2="120.6" y2="9.1"/>
				<line class="st7" x1="120.3" y1="24.2" x2="120.3" y2="19.7"/>
				<polyline class="st7" points="121.7,27.8 120.2,28.7 112.5,23.7 112.5,21.1 115.2,19.6 				"/>
				<polyline class="st7" points="120.6,17.1 124.2,15 124.2,10.2 124.2,10.2 122.6,9.1 				"/>
				<g>
					<defs>
						<rect id="SVGID_25_" x="104.4" y="0.8" width="86.5" height="104.4"/>
					</defs>
					<clipPath id="SVGID_26_">
						<use xlink:href="#SVGID_25_"  style="overflow:visible;"/>
					</clipPath>
					<g class="st20">
						<path class="st7" d="M119.9,13.6c0.3,0.9,0.1,1.6-0.5,1.6s-1.3-0.7-1.6-1.5s-0.1-1.6,0.5-1.6S119.6,12.7,119.9,13.6z"/>
						<path class="st7" d="M121.4,13.6c-0.3,0.9-0.1,1.6,0.5,1.6s1.3-0.7,1.6-1.5s0.1-1.6-0.5-1.6S121.7,12.7,121.4,13.6z"/>
					</g>
				</g>
				<line class="st7" x1="120.3" y1="19.8" x2="126.2" y2="16.4"/>
				<line class="st7" x1="115.2" y1="16.4" x2="120.3" y2="19.8"/>
				<line class="st7" x1="112.5" y1="21.1" x2="120.2" y2="26.2"/>
				<polyline class="st7" points="124.3,14.7 124.6,14.9 124.6,16.4 124.6,16.5 120.6,18.8 120.6,18.7 120.6,12.4 				"/>
				<polyline class="st7" points="116.7,15.5 115.2,16.4 115.2,20.8 115.2,20.9 120.2,24.2 				"/>
				<polyline class="st7" points="126.3,18.7 129.4,20.7 129.4,22.4 				"/>
				<line class="st7" x1="120.5" y1="12.5" x2="124.2" y2="10.2"/>
				<line class="st7" x1="117.1" y1="10.2" x2="118.6" y2="9.3"/>
				<line class="st7" x1="117.1" y1="10.1" x2="120.6" y2="12.5"/>
				<polyline class="st7" points="124.6,15.3 126.2,16.4 126.2,16.4 126.2,20.7 126.1,20.8 120.2,24.3 				"/>
				<line class="st7" x1="118.6" y1="7.8" x2="120.6" y2="9.2"/>
				<line class="st7" x1="121.7" y1="7.2" x2="122.7" y2="7.9"/>
				<g>
					<defs>
						<rect id="SVGID_27_" x="104.4" y="0.8" width="86.5" height="104.4"/>
					</defs>
					<clipPath id="SVGID_28_">
						<use xlink:href="#SVGID_27_"  style="overflow:visible;"/>
					</clipPath>
					<g class="st21">
						<path class="st7" d="M118.8,5.5c0,0.1-0.2,0.2-0.2,0.3l0.1,0.3c0.1,0.2,0.6,0.3,1.3,0.1s2.3-1,2.5-1.9l-0.2-0.5
							c-0.2,0-0.3,0-0.5,0"/>
					</g>
				</g>
				<polyline class="st7" points="119.5,2.4 120.5,2.9 120.9,2.8 121.6,1.8 				"/>
				<g>
					<defs>
						<rect id="SVGID_29_" x="104.4" y="0.8" width="86.5" height="104.4"/>
					</defs>
					<clipPath id="SVGID_30_">
						<use xlink:href="#SVGID_29_"  style="overflow:visible;"/>
					</clipPath>
					<g class="st22">
						<path class="st7" d="M122.3,4.8c0.1,0.3,0.1,0.5,0,0.8c-0.2,1-1.1,1.6-2.1,1.4c-0.4-0.1-0.7-0.3-0.9-0.5h-0.1"/>
						<path class="st7" d="M118.9,5.9c-0.1-0.1-0.1-0.3-0.1-0.4c-0.1-1,0.5-1.8,1.5-2c0.6-0.1,1.2,0.1,1.6,0.5
							c0.1,0.1,0.2,0.3,0.3,0.4"/>
						<path class="st7" d="M121.9,7.4c0-0.1,0-0.1,0-0.2c0,0-0.1-0.1-0.1-0.1c-0.1,0-0.2,0-0.3,0.1V7.1l0.1-0.4"/>
						<path class="st7" d="M121,7.4c0,0.1,0,0.2,0.1,0.2s0.2,0.1,0.3,0"/>
					</g>
				</g>
				<polyline class="st7" points="120.1,8.1 120.1,8 120.3,7.6 120.2,7.4 119.8,7.4 119.4,7.1 119.6,6.7 				"/>
				<line class="st7" x1="117.2" y1="14.8" x2="120.6" y2="17.1"/>
				<polyline class="st7" points="120.6,18.9 116.8,16.4 116.7,16.4 116.7,15.1 116.7,15 117.1,14.8 117.1,14.8 117.1,10.1 				"/>
				<polyline class="st7" points="119.7,7.1 118.6,7.9 118.6,7.9 118.6,9.9 120.6,11.2 120.6,11.2 122.6,10.1 122.6,8 122.6,8 
					120.6,9.1 				"/>
				<line class="st7" x1="154.3" y1="44.9" x2="166.8" y2="52.8"/>
				<polyline class="st7" points="183,55.2 180.2,56.9 177.4,55.2 				"/>
				<line class="st7" x1="180.2" y1="60.9" x2="180.2" y2="56.9"/>
				<polyline class="st7" points="177.4,56 171.7,59.4 121.7,27.5 				"/>
				<line class="st6" x1="189.2" y1="56.5" x2="129.4" y2="21.8"/>
				<line class="st6" x1="168.6" y1="45.3" x2="133.2" y2="24.7"/>
				<line class="st7" x1="171.7" y1="60.9" x2="171.7" y2="59.4"/>
				<line class="st7" x1="166.8" y1="54.6" x2="166.8" y2="52.8"/>
				<polygon class="st7" points="174.3,48.4 174.3,50.2 166.9,54.6 154.3,46.6 154.3,44.9 159.8,41.6 167.3,46.1 168.8,45.2 				"/>
				<line class="st7" x1="174.3" y1="48.4" x2="166.8" y2="52.8"/>
				<line class="st7" x1="133.2" y1="24.6" x2="127.8" y2="27.8"/>
				<polygon class="st7" points="123.2,26.7 123.2,24.9 123.2,24.9 128.4,21.8 133.2,24.6 133.2,26.2 133.2,26.2 127.8,29.5 				"/>
				<polyline class="st7" points="176.6,58 171.7,60.9 121.7,29 121.7,29 121.7,27.5 123.2,26.7 				"/>
				<line class="st7" x1="127.8" y1="27.8" x2="123.2" y2="24.9"/>
				<line class="st7" x1="127.8" y1="29.5" x2="127.8" y2="27.8"/>
				<polyline class="st7" points="181.9,54.6 182.3,54.3 182.3,53.2 174.3,48.6 				"/>
				<line class="st7" x1="182.3" y1="53.2" x2="181.7" y2="53.5"/>
				<line class="st7" x1="129.4" y1="20.8" x2="120.2" y2="26.2"/>
				<polyline class="st7" points="179,54.3 177.4,55.2 177.4,59.2 180.2,60.9 183,59.3 183,55.2 181.9,54.5 				"/>
				<g>
					<defs>
						<rect id="SVGID_31_" x="104.4" y="0.8" width="86.5" height="104.4"/>
					</defs>
					<clipPath id="SVGID_32_">
						<use xlink:href="#SVGID_31_"  style="overflow:visible;"/>
					</clipPath>
					<g class="st23">
						<path class="st7" d="M180.2,52.7c-0.7,0.1-1.2,0.8-1.2,1.5v1.1c0,0.4,0.7,0.8,1.5,0.8s1.5-0.3,1.5-0.8v-1.1
							c0-0.7-0.5-1.4-1.2-1.5v-0.2c0-0.1-0.1-0.2-0.2-0.2s-0.2,0.1-0.2,0.2V52.7z"/>
					</g>
				</g>
				<polygon class="st1" points="183,62.8 183,79.8 189.2,76.3 189.2,59.3 				"/>
				<line class="st16" x1="183" y1="65.6" x2="189.2" y2="62.1"/>
				<line class="st16" x1="183" y1="68.5" x2="189.2" y2="64.9"/>
				<line class="st16" x1="183" y1="71.3" x2="189.2" y2="67.8"/>
				<line class="st16" x1="183" y1="74.1" x2="189.2" y2="70.6"/>
				<line class="st16" x1="183" y1="76.9" x2="189.2" y2="73.4"/>
				<g>
					<defs>
						<rect id="SVGID_33_" x="104.4" y="0.8" width="86.5" height="104.4"/>
					</defs>
					<clipPath id="SVGID_34_">
						<use xlink:href="#SVGID_33_"  style="overflow:visible;"/>
					</clipPath>
					<g class="st24">
						<path class="st1" d="M183,85.4l6.2-3.4v2.8l-6.2,3.4V85.4z"/>
					</g>
				</g>
			</g>
		</g>
	</g>
</g>
</svg>
