<?xml version="1.0" encoding="utf-8"?>
<!-- Generator: Adobe Illustrator 23.0.0, SVG Export Plug-In . SVG Version: 6.00 Build 0)  -->
<svg version="1.1" id="Layer_1" xmlns="http://www.w3.org/2000/svg" xmlns:xlink="http://www.w3.org/1999/xlink" x="0px" y="0px"
	 viewBox="0 0 347 105.1" style="enable-background:new 0 0 347 105.1;" xml:space="preserve">
<style type="text/css">
	.st0{fill:#D1D3D4;}
	.st1{fill:#010101;}
	.st2{clip-path:url(#SVGID_2_);}
	.st3{fill:none;stroke:#D1D3D4;stroke-width:1.09;stroke-miterlimit:10;}
	.st4{clip-path:url(#SVGID_4_);}
	.st5{enable-background:new    ;}
	.st6{fill:none;stroke:#231F20;stroke-width:0.15;stroke-miterlimit:10;}
	.st7{fill:none;stroke:#231F20;stroke-width:0.14;stroke-miterlimit:10;}
	.st8{clip-path:url(#SVGID_6_);}
	.st9{clip-path:url(#SVGID_8_);}
	.st10{fill:none;stroke:#231F20;stroke-width:0.14;stroke-linejoin:bevel;}
	.st11{clip-path:url(#SVGID_10_);}
	.st12{clip-path:url(#SVGID_12_);}
	.st13{clip-path:url(#SVGID_14_);}
	.st14{clip-path:url(#SVGID_16_);}
	.st15{clip-path:url(#SVGID_18_);}
	.st16{fill:#231F20;}
	.st17{fill:none;stroke:#FFFFFF;stroke-width:0.15;stroke-miterlimit:10;}
	.st18{clip-path:url(#SVGID_20_);}
	.st19{clip-path:url(#SVGID_22_);}
	.st20{clip-path:url(#SVGID_24_);}
	.st21{clip-path:url(#SVGID_26_);}
	.st22{clip-path:url(#SVGID_28_);}
	.st23{clip-path:url(#SVGID_30_);}
	.st24{clip-path:url(#SVGID_32_);}
</style>
<title>residence_C_3-6_key_horizontal</title>
<g>
	<g id="Layer_1_copy">
		<g>
			<path class="st0" d="M209.9,51.6c-0.8,0-1.2-0.5-1.2-1.4v-1.8h4.4V50c0,0.9-0.4,1.5-1.2,1.5c-0.4,0-0.8-0.2-0.9-0.6
				C210.8,51.3,210.3,51.6,209.9,51.6z M209.4,49.2v0.8c0,0.4,0.2,0.6,0.5,0.6s0.5-0.2,0.5-0.6v-0.8H209.4z M211.2,50
				c0,0.4,0.2,0.7,0.5,0.7s0.5-0.2,0.5-0.7v-0.7h-1V50z"/>
			<path class="st0" d="M210.2,54.1h-1.6v-0.9h4.4V55c0.1,0.7-0.4,1.4-1.1,1.5c-0.1,0-0.1,0-0.2,0c-0.6,0-1.2-0.4-1.3-1l-1.7,1.1v-1
				l1.6-1.1L210.2,54.1z M211,54.1V55c0,0.5,0.2,0.7,0.6,0.7s0.6-0.2,0.6-0.7v-0.8L211,54.1z"/>
		</g>
		<g>
			<path class="st0" d="M208.6,61.1c-0.1-1.2,0.8-2.3,2-2.4c1.2-0.1,2.3,0.8,2.4,2c0.1,1.2-0.8,2.3-2,2.4c-0.1,0-0.2,0-0.2,0
				c-1.1,0.1-2.1-0.7-2.2-1.9C208.6,61.2,208.6,61.1,208.6,61.1z M212.2,61.1c0-0.7-0.6-1.1-1.4-1.1s-1.4,0.4-1.4,1.1
				s0.6,1.1,1.4,1.1S212.2,61.8,212.2,61.1z"/>
		</g>
		<g>
			<path class="st0" d="M213,67.3l-4.4,1.7v-1l1-0.4v-1.6l-1-0.4v-0.9l4.3,1.7L213,67.3z M210.5,66.3v1l1.4-0.5L210.5,66.3z"/>
		</g>
		<g>
			<path class="st0" d="M213,71v1.5c0,1.2-1,2.2-2.2,2.2c-1.2,0-2.1-1-2.1-2.2V71H213z M209.5,72.5c0.1,0.8,0.7,1.3,1.5,1.2
				c0.7-0.1,1.2-0.6,1.2-1.2v-0.6h-2.7V72.5z"/>
		</g>
		<g>
			<path class="st0" d="M213,79.5l-2.9,0.8l2.9,0.7v0.9l-4.3-1.1v-0.8l2.8-0.8l-2.8-0.8v-0.8l4.3-1.1v0.9l-2.9,0.7l2.9,0.8V79.5z"/>
		</g>
		<g>
			<path class="st0" d="M213,85.8l-4.3,1.6v-0.9l1-0.4v-1.6l-1-0.4v-0.9l4.3,1.7V85.8z M210.5,84.8v1.1l1.4-0.5L210.5,84.8z"/>
		</g>
		<g>
			<path class="st0" d="M213,91.7v1l-2.7-1.6h-1.6v-0.9h1.6l2.7-1.6v1l-1.8,1L213,91.7z"/>
		</g>
		<g>
			<path class="st0" d="M343.4,40.5v0.9h-3.5v2h-0.8v-2.9H343.4z"/>
		</g>
		<g>
			<path class="st0" d="M343.4,47.8l-4.3,1.6v-0.9l1-0.4v-1.6l-1-0.4v-0.9l4.3,1.7V47.8z M340.9,46.8v1l1.4-0.5L340.9,46.8z"/>
		</g>
		<g>
			<path class="st0" d="M339.1,51.5h4.3v2.9h-0.8v-2h-1.1v1.8h-0.8v-1.8h-1.6V51.5z"/>
		</g>
		<g>
			<path class="st0" d="M343.4,58.5l-4.3,1.7v-0.9l1-0.4v-1.6l-1-0.4V56l4.3,1.6V58.5z M340.9,57.5v1l1.4-0.5L340.9,57.5z"/>
		</g>
		<g>
			<path class="st0" d="M343.4,64.4v0.9l-2.7-1.6h-1.6v-0.9h1.6l2.7-1.5v1l-1.8,1L343.4,64.4z"/>
			<path class="st0" d="M343.4,69.8h-0.8v-2h-0.9v1.8h-0.8v-1.9h-1v2h-0.8v-2.9h4.3L343.4,69.8L343.4,69.8z"/>
			<path class="st0" d="M343.4,71.2v3.7h-0.8v-1.4h-3.5v-0.9h3.5v-1.4H343.4z"/>
			<path class="st0" d="M343.4,76.2v3.7h-0.8v-1.4h-3.5v-0.9h3.5v-1.4H343.4z"/>
			<path class="st0" d="M343.4,84.4h-0.8v-2h-0.9v1.8h-0.8v-1.9h-1v2h-0.8v-2.9h4.3L343.4,84.4L343.4,84.4z"/>
		</g>
		<g>
			<path class="st0" d="M340.3,92.5c-0.4,0.1-0.6,0.5-0.5,0.9c0,0.4,0.2,0.7,0.5,0.7s0.4-0.2,0.5-0.5l0.2-0.8
				c0.1-0.6,0.5-1.1,1.2-1.1c0.8,0,1.4,0.7,1.3,1.4c0,0,0,0.1,0,0.1c0.1,0.8-0.5,1.5-1.2,1.7V94c0.3-0.1,0.5-0.4,0.5-0.8
				c0-0.4-0.2-0.7-0.5-0.7s-0.4,0.2-0.5,0.5l-0.2,0.8c-0.2,0.7-0.6,1.1-1.2,1.1c-0.8,0-1.3-0.7-1.3-1.6c-0.1-0.8,0.5-1.6,1.3-1.8
				L340.3,92.5L340.3,92.5z"/>
		</g>
		<g>
			<path class="st0" d="M343.4,96.8v3.7h-0.8v-1.4h-3.5v-0.9h3.5v-1.4H343.4z"/>
		</g>
		<g>
			<path class="st0" d="M251.3,40.8h0.9v3.5h2v0.8h-2.9V40.8z"/>
			<path class="st0" d="M258.8,40.8v0.8h-2v0.9h1.9v0.8h-1.9v1h2V45h-2.9v-4.3L258.8,40.8z"/>
		</g>
		<g>
			<path class="st0" d="M263.1,45.1c-1.2,0.1-2.3-0.8-2.4-2c-0.1-1.2,0.8-2.3,2-2.4c1.2-0.1,2.3,0.8,2.4,2c0,0.1,0,0.2,0,0.2
				c0.1,1.1-0.8,2.1-1.9,2.2C263.2,45.1,263.1,45.1,263.1,45.1z M263.1,41.5c-0.7,0-1.1,0.6-1.1,1.4s0.4,1.4,1.1,1.4
				s1.1-0.6,1.1-1.4S263.8,41.5,263.1,41.5z"/>
		</g>
		<g>
			<path class="st0" d="M270.8,45.1h-0.7l-2-2.9v2.9h-0.9v-4.3h0.8l1.9,2.7v-2.7h0.9L270.8,45.1L270.8,45.1z"/>
		</g>
		<g>
			<path class="st0" d="M275.2,40.8l1.6,4.3H276l-0.4-1H274l-0.4,1h-0.9l1.6-4.3H275.2z M274.2,43.3h1l-0.5-1.4L274.2,43.3z"/>
		</g>
		<g>
			<path class="st0" d="M279.7,43.5v1.6h-0.9v-4.3h1.8c0.7-0.1,1.4,0.4,1.5,1.1c0,0.1,0,0.1,0,0.2c0,0.6-0.4,1.2-1,1.3l1.1,1.7h-1
				l-1.1-1.6L279.7,43.5z M279.7,42.7h0.8c0.5,0,0.7-0.2,0.7-0.6s-0.2-0.6-0.7-0.6h-0.8V42.7z"/>
			<path class="st0" d="M283.7,40.8h1.5c1.2,0,2.1,1,2.1,2.2c0,1.2-1,2.1-2.1,2.1h-1.5V40.8z M285.2,44.3c0.8-0.1,1.3-0.7,1.2-1.5
				c-0.1-0.7-0.6-1.2-1.2-1.2h-0.6v2.7H285.2z"/>
		</g>
		<g>
			<path class="st0" d="M293.3,43.8c0.1,0.4,0.5,0.6,0.9,0.6c0.4,0,0.7-0.2,0.7-0.5s-0.2-0.4-0.5-0.5l-0.8-0.2
				c-0.6-0.1-1.1-0.5-1.1-1.2c0-0.8,0.7-1.4,1.5-1.3c0,0,0,0,0.1,0c0.8-0.1,1.5,0.5,1.7,1.2h-0.9c-0.1-0.3-0.4-0.6-0.8-0.5
				c-0.4,0-0.7,0.2-0.7,0.5s0.2,0.4,0.5,0.5l0.8,0.2c0.7,0.2,1.1,0.6,1.1,1.2c0,0.8-0.7,1.3-1.6,1.3c-0.8,0.1-1.6-0.5-1.8-1.3
				L293.3,43.8z"/>
		</g>
		<g>
			<path class="st0" d="M297.5,40.8h3.7v0.8h-1.4v3.5h-0.9v-3.5h-1.4V40.8z"/>
		</g>
		<g>
			<path class="st0" d="M248.2,94.4c0.9-0.1,1.7,0.6,1.8,1.5h-0.9c-0.1-0.4-0.5-0.7-0.9-0.7c-0.7,0-1.1,0.6-1.1,1.4s0.4,1.4,1.1,1.4
				c0.4,0,0.8-0.3,0.9-0.7h0.9c-0.1,0.9-0.9,1.5-1.8,1.5c-1.2-0.1-2.1-1.2-2-2.4C246.3,95.3,247.1,94.5,248.2,94.4L248.2,94.4z"/>
		</g>
		<g>
			<path class="st0" d="M254.2,94.5l1.6,4.3H255l-0.4-1H253l-0.4,1h-0.9l1.6-4.3H254.2z M253.2,97h1.1l-0.5-1.4L253.2,97z"/>
		</g>
		<g>
			<path class="st0" d="M257.2,94.5h3.7v0.8h-1.4v3.5h-0.9v-3.5h-1.4V94.5z"/>
		</g>
		<g>
			<path class="st0" d="M266.8,94.5v4.3h-0.9V97h-1.9v1.8H263v-4.3h0.9v1.7h1.9v-1.8H266.8z"/>
		</g>
		<g>
			<path class="st0" d="M272,94.5v0.8h-2v0.9h1.9V97H270v1h2v0.8h-2.9v-4.3L272,94.5z"/>
			<path class="st0" d="M274.6,97.2v1.6h-0.9v-4.3h1.8c0.7-0.1,1.4,0.4,1.5,1.1c0,0.1,0,0.1,0,0.2c0,0.6-0.4,1.2-1,1.3l1.1,1.7h-1
				l-1.1-1.6H274.6z M274.6,96.4h0.8c0.5,0,0.7-0.2,0.7-0.6s-0.2-0.6-0.7-0.6h-0.8V96.4z"/>
		</g>
		<g>
			<path class="st0" d="M280.7,98.8h-0.9v-4.3h0.9V98.8z"/>
		</g>
		<g>
			<path class="st0" d="M286.6,98.8h-0.7l-2-2.9v2.9H283v-4.3h0.8l1.9,2.7v-2.7h0.9L286.6,98.8z"/>
			<path class="st0" d="M291.4,94.5v0.8h-2v0.9h1.9V97h-1.9v1h2v0.8h-2.9v-4.3L291.4,94.5z"/>
			<path class="st0" d="M295.5,94.5h0.9V98h2v0.8h-2.9V94.5z"/>
		</g>
		<g>
			<path class="st0" d="M305.8,98.8h-0.7l-2-2.9v2.9h-0.9v-4.3h0.8l1.9,2.7v-2.7h0.9L305.8,98.8z"/>
		</g>
	</g>
	<g>
		<polygon class="st1" points="249.7,68.6 248.5,68.6 248.5,70.3 249.7,70.3 249.7,77.2 258,77.8 258,68.8 258,65.7 258,60.2 
			249.7,60.2 		"/>
		<g>
			<defs>
				<rect id="SVGID_1_" x="219.4" y="58.6" width="112" height="25.3"/>
			</defs>
			<clipPath id="SVGID_2_">
				<use xlink:href="#SVGID_1_"  style="overflow:visible;"/>
			</clipPath>
			<g class="st2">
				<polygon class="st3" points="328.8,60.3 328.8,82.2 220.8,75.5 220.8,60.3 				"/>
			</g>
		</g>
		<g>
			<defs>
				<rect id="SVGID_3_" x="3.9" y="0.9" width="184.7" height="103.2"/>
			</defs>
			<clipPath id="SVGID_4_">
				<use xlink:href="#SVGID_3_"  style="overflow:visible;"/>
			</clipPath>
			<g class="st4">
				<g class="st5">
					<path class="st0" d="M11.7,75l0.6,0.4L9.8,77l1.4,0.9l-0.6,0.4l-2.1-1.3L11.7,75z"/>
					<path class="st0" d="M17.5,78.6L17,79L15.5,78l-0.7,0.4l1.3,0.8l-0.5,0.4l-1.3-0.8l-0.7,0.5l1.5,0.9l-0.6,0.4l-2.1-1.3l3-2
						L17.5,78.6z"/>
				</g>
				<g class="st5">
					<path class="st0" d="M17.4,82.5c-0.9-0.5-0.8-1.3,0.1-1.9c0.9-0.6,2.2-0.7,3-0.1c0.9,0.5,0.8,1.3-0.1,1.9
						C19.5,83,18.3,83,17.4,82.5z M20,80.8c-0.5-0.3-1.2-0.2-1.8,0.2s-0.7,0.9-0.2,1.2c0.5,0.3,1.2,0.2,1.8-0.2S20.5,81.1,20,80.8z"
						/>
				</g>
				<g class="st5">
					<path class="st0" d="M23.1,86l-0.5-0.3l0.6-2.2l-2,1.3l-0.6-0.4l3-2l0.6,0.4l-0.6,2.1l1.9-1.3l0.6,0.4L23.1,86z"/>
					<path class="st0" d="M29.6,86.1l-1.9,2.7L27,88.4l0.5-0.7L26.4,87l-1,0.3L24.7,87l4.2-1.3L29.6,86.1z M27.1,86.8l0.8,0.5
						l0.6-0.9L27.1,86.8z"/>
					<path class="st0" d="M31,89.5l-1.1,0.7l-0.6-0.4l3-2l1.3,0.8c0.6,0.4,0.7,0.9,0.1,1.3c-0.5,0.3-1.1,0.4-1.6,0.2l-0.4,1.3
						L31,90.9l0.4-1.2L31,89.5z M31.6,89.1l0.6,0.4c0.3,0.2,0.7,0.2,0.9,0c0.3-0.2,0.3-0.4-0.1-0.6l-0.6-0.4L31.6,89.1z"/>
					<path class="st0" d="M36.3,90.3l1.1,0.7c0.9,0.6,0.9,1.3,0,1.9s-2.1,0.6-3,0l-1.1-0.7L36.3,90.3z M34.9,92.6
						c0.6,0.4,1.3,0.3,1.9-0.1c0.6-0.4,0.6-0.8,0.1-1.2l-0.4-0.3l-1.9,1.3L34.9,92.6z"/>
				</g>
				<g class="st5">
					<path class="st0" d="M41.1,96.1c-0.2,0.2-0.1,0.5,0.2,0.6c0.3,0.2,0.7,0.2,0.9,0.1c0.2-0.1,0.2-0.3,0-0.5l-0.4-0.4
						c-0.3-0.3-0.4-0.7,0.1-1c0.5-0.4,1.4-0.3,2,0.1c0.7,0.4,0.7,0.9,0.3,1.3l-0.6-0.4c0.1-0.2,0.1-0.4-0.2-0.6
						c-0.3-0.2-0.6-0.2-0.8-0.1c-0.2,0.1-0.2,0.3,0,0.4l0.4,0.4c0.4,0.4,0.4,0.8-0.1,1.1c-0.6,0.4-1.4,0.3-2.1-0.1
						c-0.7-0.4-0.8-1-0.4-1.4L41.1,96.1z"/>
				</g>
				<g class="st5">
					<path class="st0" d="M46.5,96.6l2.6,1.6l-0.6,0.4l-1-0.6L45,99.6l-0.6-0.4l2.5-1.6l-1-0.6L46.5,96.6z"/>
				</g>
				<line class="st6" x1="72.7" y1="62.5" x2="72.7" y2="58.1"/>
				<line class="st6" x1="13.9" y1="27.2" x2="13.9" y2="23.6"/>
				<line class="st6" x1="26.1" y1="32" x2="26.1" y2="34"/>
				<line class="st6" x1="20.7" y1="28.9" x2="20.7" y2="30.9"/>
				<line class="st6" x1="27.6" y1="31.2" x2="27.6" y2="33.2"/>
				<line class="st7" x1="27.6" y1="33.2" x2="26.1" y2="34"/>
				<line class="st7" x1="27.5" y1="31.2" x2="26.1" y2="32"/>
				<line class="st7" x1="64.7" y1="48.7" x2="58.8" y2="52.2"/>
				<line class="st7" x1="69.2" y1="52.3" x2="64.1" y2="55.3"/>
				<line class="st6" x1="34.7" y1="35.3" x2="34.7" y2="37.3"/>
				<line class="st7" x1="39.6" y1="33.6" x2="63.6" y2="49.3"/>
				<line class="st7" x1="64.7" y1="48.7" x2="69.2" y2="51.7"/>
				<line class="st7" x1="39.6" y1="33" x2="64.1" y2="49"/>
				<line class="st7" x1="11" y1="26" x2="13.5" y2="27.5"/>
				<line class="st7" x1="20.7" y1="28.9" x2="26.1" y2="32"/>
				<line class="st7" x1="27.6" y1="31.2" x2="34.8" y2="35.4"/>
				<line class="st7" x1="27.5" y1="33.2" x2="34.7" y2="37.3"/>
				<line class="st7" x1="58.8" y1="52.2" x2="64.2" y2="55.3"/>
				<line class="st6" x1="72.7" y1="49.8" x2="72.7" y2="47.6"/>
				<polyline class="st6" points="63.7,59.4 62.8,58.9 61.7,59.5 15.4,32.6 15.4,30.4 				"/>
				<polyline class="st6" points="27,25.3 22.4,22.3 11.9,28.4 61.7,57.2 				"/>
				<line class="st6" x1="61.7" y1="57.2" x2="61.7" y2="59.5"/>
				<line class="st6" x1="62.8" y1="56.6" x2="61.7" y2="57.2"/>
				<polyline class="st6" points="62.8,58.9 62.8,56.6 58.8,54.2 				"/>
				<line class="st6" x1="72.7" y1="66.7" x2="72.7" y2="64.2"/>
				<polyline class="st6" points="78.2,57.2 81.2,59.2 81.2,61.7 72.7,66.7 63.7,61.4 63.7,58.9 67.3,56.8 				"/>
				<polyline class="st6" points="81.2,59.2 72.7,64.2 63.7,58.9 				"/>
				<polyline class="st7" points="12.9,28.9 12.9,30.1 15.4,31.6 				"/>
				<line class="st7" x1="20.7" y1="30.9" x2="26.1" y2="34"/>
				<line class="st7" x1="58.8" y1="54.2" x2="58.8" y2="52.2"/>
				<line class="st7" x1="64.2" y1="58.6" x2="64.2" y2="55.3"/>
				<polyline class="st7" points="76.2,48.7 72.7,50.8 69.2,48.8 				"/>
				<polyline class="st6" points="76.2,53.2 76.6,53.4 76.6,55 72.7,57.2 68.8,55 68.8,53.5 69.2,53.3 				"/>
				<line class="st6" x1="72.7" y1="57.2" x2="72.7" y2="50.8"/>
				<polyline class="st6" points="76.6,53.9 78.2,54.8 78.2,59.3 72.7,62.5 67.3,59.4 67.3,54.9 68.8,54 				"/>
				<polyline class="st6" points="78.2,54.8 72.7,58.1 67.3,55 				"/>
				<polyline class="st6" points="11,26 5.7,29.1 5.7,66.1 				"/>
				<polyline class="st6" points="16.8,22.6 20.5,20.4 27.5,25 				"/>
				<line class="st6" x1="72.7" y1="67.9" x2="72.7" y2="101.3"/>
				<line class="st6" x1="72.7" y1="101.3" x2="36.9" y2="80.6"/>
				<polyline class="st6" points="82.8,67.6 72.7,73.5 5.8,34.7 				"/>
				<polyline class="st6" points="82.8,70.3 72.7,76.2 5.8,37.5 				"/>
				<polyline class="st6" points="82.8,73.1 72.7,79 5.8,40.3 				"/>
				<polyline class="st6" points="82.8,75.9 72.7,81.8 5.8,43.1 				"/>
				<polyline class="st6" points="82.8,78.7 72.7,84.6 5.8,45.8 				"/>
				<polyline class="st6" points="82.8,81.5 72.7,87.4 5.8,48.6 				"/>
				<polyline class="st6" points="82.8,84.3 72.7,90.2 5.8,51.4 				"/>
				<polyline class="st6" points="82.8,87.1 72.7,92.9 5.8,54.2 				"/>
				<line class="st6" x1="82.8" y1="89.8" x2="80.4" y2="91.2"/>
				<polyline class="st6" points="75.1,94.4 72.7,95.7 5.8,57 				"/>
				<line class="st6" x1="80.4" y1="94" x2="82.8" y2="92.6"/>
				<polyline class="st6" points="75.1,97.1 72.7,98.5 5.8,59.8 				"/>
				<polyline class="st6" points="82.8,64.8 72.7,70.7 5.8,31.9 				"/>
				<line class="st6" x1="34.1" y1="78.9" x2="5.8" y2="62.5"/>
				<polyline class="st7" points="12.5,21 11,21.9 11,26 				"/>
				<polyline class="st7" points="15.4,21 16.8,21.9 16.8,25.5 				"/>
				<polyline class="st7" points="11,21.9 13.9,23.6 16.8,21.9 				"/>
				<polyline class="st6" points="73.9,46 74.6,46.5 74.6,48.6 72.7,49.8 70.7,48.6 70.7,46.5 71.7,45.9 				"/>
				<polyline class="st7" points="74.6,46.5 72.7,47.6 70.7,46.5 				"/>
				<g>
					<defs>
						<rect id="SVGID_5_" x="4.1" y="5.5" width="85.4" height="97.8"/>
					</defs>
					<clipPath id="SVGID_6_">
						<use xlink:href="#SVGID_5_"  style="overflow:visible;"/>
					</clipPath>
					<g class="st8">
						<path class="st6" d="M70.8,44.1c0,0.1-0.2,0.2-0.2,0.3l0.1,0.3c0.1,0.2,0.6,0.3,1.3,0.1s2.3-1,2.4-1.9l-0.2-0.5
							c-0.2,0-0.3,0-0.5,0"/>
					</g>
				</g>
				<polyline class="st6" points="71.5,41.1 72.6,41.6 72.9,41.5 73.6,40.4 				"/>
				<g>
					<defs>
						<rect id="SVGID_7_" x="4.1" y="5.5" width="85.4" height="97.8"/>
					</defs>
					<clipPath id="SVGID_8_">
						<use xlink:href="#SVGID_7_"  style="overflow:visible;"/>
					</clipPath>
					<g class="st9">
						<path class="st6" d="M74.3,43.4c0.1,0.2,0.1,0.5,0,0.7c-0.2,1-1.1,1.6-2.1,1.4c0,0,0,0,0,0c-0.4-0.1-0.7-0.3-0.9-0.5h-0.1"/>
						<path class="st6" d="M71,44.5c-0.1-0.1-0.1-0.3-0.1-0.4c-0.1-1,0.5-1.9,1.5-2c0.6-0.1,1.2,0.1,1.5,0.5
							c0.1,0.1,0.2,0.3,0.3,0.4"/>
						<path class="st6" d="M71.9,52.1c0.3,0.8,0.1,1.5-0.5,1.5s-1.3-0.7-1.6-1.5s-0.1-1.5,0.5-1.5S71.6,51.3,71.9,52.1z"/>
						<path class="st6" d="M73.4,52.1c-0.3,0.8-0.1,1.5,0.5,1.5s1.3-0.7,1.6-1.5s0.1-1.5-0.5-1.5S73.7,51.3,73.4,52.1z"/>
						<path class="st10" d="M73.9,46.1c0-0.1,0-0.1,0-0.2c0,0,0-0.1-0.1-0.1c-0.1,0-0.2,0-0.3,0.1c0,0,0-0.1,0-0.1l0,0l0.1-0.4"/>
						<path class="st7" d="M73.1,46c0,0.1,0,0.2,0.1,0.2s0.2,0.1,0.3,0"/>
					</g>
				</g>
				<polyline class="st7" points="72.1,46.7 72.1,46.6 72.3,46.2 72.3,46 71.9,46 71.5,45.8 71.7,45.3 				"/>
				<polyline class="st6" points="70.7,47.9 69.2,48.8 69.2,53.5 72.7,55.5 76.2,53.5 76.2,48.7 74.6,47.8 				"/>
				<g>
					<defs>
						<rect id="SVGID_9_" x="4.1" y="5.5" width="85.4" height="97.8"/>
					</defs>
					<clipPath id="SVGID_10_">
						<use xlink:href="#SVGID_9_"  style="overflow:visible;"/>
					</clipPath>
					<g class="st11">
						<path class="st7" d="M13.7,19.4c-0.7,0.1-1.2,0.8-1.2,1.5V22c0,0.4,0.6,0.7,1.4,0.7s1.4-0.3,1.4-0.7v-1.1
							c0-0.7-0.5-1.3-1.2-1.5v-0.2c0-0.1-0.1-0.2-0.2-0.2s-0.2,0.1-0.2,0.2L13.7,19.4z"/>
					</g>
				</g>
				<polyline class="st6" points="82.8,62 72.7,67.9 5.8,29.1 				"/>
				<polyline class="st6" points="36.9,81.1 35,79.9 33.2,81 35.7,82.4 36.9,81.7 				"/>
				<line class="st6" x1="36.9" y1="81.1" x2="35" y2="79.9"/>
				<line class="st6" x1="36.9" y1="82.7" x2="36" y2="82.2"/>
				<g>
					<defs>
						<rect id="SVGID_11_" x="4.1" y="5.5" width="85.4" height="97.8"/>
					</defs>
					<clipPath id="SVGID_12_">
						<use xlink:href="#SVGID_11_"  style="overflow:visible;"/>
					</clipPath>
					<g class="st12">
						<path class="st6" d="M35.4,77.7c-0.2,0.2-0.4,0.5-0.4,0.8V80"/>
					</g>
				</g>
				<polyline class="st6" points="34.6,81.8 34.1,82.1 5.7,66.1 				"/>
				<line class="st6" x1="34.1" y1="82.1" x2="34.1" y2="81.5"/>
				<g>
					<defs>
						<rect id="SVGID_13_" x="4.1" y="5.5" width="85.4" height="97.8"/>
					</defs>
					<clipPath id="SVGID_14_">
						<use xlink:href="#SVGID_13_"  style="overflow:visible;"/>
					</clipPath>
					<g class="st13">
						<path class="st6" d="M80.4,96.8v-5.4l-5.4,3v5.5l-2.4,1.4l-18-8.5l-14.4-7.3l-3.3-1.9v-3.8c-0.1-0.9-0.6-1.6-1.4-2.1
							c-1-0.6-1.4,0.5-1.4,0.8v1.8"/>
					</g>
				</g>
				<polyline class="st6" points="76.6,97.2 76.6,95.8 75.8,96.3 75.8,97.7 				"/>
				<g>
					<defs>
						<rect id="SVGID_15_" x="4.1" y="5.5" width="85.4" height="97.8"/>
					</defs>
					<clipPath id="SVGID_16_">
						<use xlink:href="#SVGID_15_"  style="overflow:visible;"/>
					</clipPath>
					<g class="st14">
						<path class="st6" d="M81.2,61l1.5,1v33.4l-2.4,1.4c-1.2-0.3-2.5-0.3-3.6,0.3l-1.2,0.7c-0.2,0.1-0.4,0.2-0.5,0.4"/>
					</g>
				</g>
				<polyline class="st7" points="34.7,37.3 39.6,34.3 39.6,32.4 28,24.7 20.7,28.9 				"/>
				<line class="st7" x1="39.6" y1="32.4" x2="34.7" y2="35.3"/>
				<g>
					<defs>
						<rect id="SVGID_17_" x="4.1" y="5.5" width="85.4" height="97.8"/>
					</defs>
					<clipPath id="SVGID_18_">
						<use xlink:href="#SVGID_17_"  style="overflow:visible;"/>
					</clipPath>
					<g class="st15">
						<g class="st5">
							<path class="st0" d="M193.9,68.4c0.7,0.5,0.7,1,0.2,1.5l-0.6-0.4c0.2-0.2,0.2-0.5-0.2-0.7c-0.5-0.3-1.2-0.3-1.8,0.1
								c-0.6,0.3-0.7,0.8-0.3,1.1c0.3,0.2,0.7,0.3,1.1,0.2l0.6,0.4c-0.7,0.3-1.6,0.2-2.3-0.2c-0.8-0.5-0.7-1.3,0.2-1.9
								C191.9,67.8,193.1,67.9,193.9,68.4z"/>
						</g>
						<g class="st5">
							<path class="st0" d="M198.1,71.4l-2,2.6l-0.6-0.4l0.5-0.6l-1.1-0.8l-1,0.3l-0.6-0.4l4.2-1L198.1,71.4z M195.6,72l0.7,0.5
								l0.7-0.9L195.6,72z"/>
						</g>
						<g class="st5">
							<path class="st0" d="M200.3,72.9l2.5,1.8l-0.6,0.3l-1-0.7l-2.5,1.5l-0.6-0.4l2.5-1.5l-1-0.7L200.3,72.9z"/>
							<path class="st0" d="M207,77.6l-3.1,1.8l-0.6-0.4l1.3-0.8l-1.3-0.9l-1.3,0.8l-0.6-0.4l3.1-1.8l0.6,0.4l-1.2,0.7l1.3,0.9
								l1.2-0.7L207,77.6z"/>
							<path class="st0" d="M210.7,80.2l-0.6,0.3l-1.4-1l-0.7,0.4l1.3,0.9l-0.6,0.3l-1.3-0.9l-0.7,0.4l1.4,1l-0.6,0.3l-2-1.4
								l3.1-1.8L210.7,80.2z"/>
							<path class="st0" d="M211,82.9l-1.2,0.7l-0.6-0.4l3.1-1.8l1.2,0.8c0.6,0.4,0.7,0.9,0,1.3c-0.5,0.3-1.1,0.3-1.6,0.1l-0.4,1.2
								l-0.7-0.5l0.4-1.2L211,82.9z M211.5,82.6l0.6,0.4c0.3,0.2,0.6,0.2,0.9,0.1c0.3-0.2,0.3-0.4,0-0.6l-0.6-0.4L211.5,82.6z"/>
							<path class="st0" d="M213.7,86.2l-0.6-0.4l3.1-1.8l0.6,0.4L213.7,86.2z"/>
							<path class="st0" d="M217.9,89.2l-0.5-0.3l0.7-2.2l-2.1,1.2l-0.6-0.4l3.1-1.8l0.6,0.4l-0.7,2.1l2-1.1l0.6,0.4L217.9,89.2z"/>
							<path class="st0" d="M224.8,90l-0.6,0.3l-1.4-1l-0.7,0.4l1.3,0.9l-0.6,0.3l-1.3-0.9l-0.7,0.4l1.4,1l-0.6,0.3l-2-1.4l3.1-1.8
								L224.8,90z"/>
							<path class="st0" d="M228.6,92.6l0.6,0.4l-2.5,1.5l1.4,1l-0.6,0.3l-2-1.4L228.6,92.6z"/>
						</g>
						<g class="st5">
							<path class="st0" d="M231.6,98.6l-0.5-0.3l0.7-2.2l-2.1,1.2l-0.6-0.4l3.1-1.8l0.6,0.4l-0.7,2.1l2-1.1l0.6,0.4L231.6,98.6z"/>
						</g>
						<path class="st7" d="M257.5,94.7v-0.8c0-0.1-0.1-0.3-0.2-0.4"/>
						<path class="st7" d="M258,95v-1.2c0-0.3-0.2-0.7-0.8-0.3c-0.4,0.2-0.7,0.6-0.7,1.1v1.3l-6.6,3.9l-8.7-6l-11-7.6l-9.3-6.3
							l-13.7-9.4l-19.6-14.2V22.6l1.4-0.8"/>
						<path class="st7" d="M196.2,12.8c0.3,0.9,0.1,1.5-0.5,1.5s-1.3-0.7-1.6-1.5s-0.1-1.5,0.5-1.5S195.9,11.9,196.2,12.8z"/>
						<path class="st7" d="M197.7,12.8c-0.3,0.8-0.1,1.5,0.5,1.5s1.3-0.7,1.6-1.5s0.1-1.5-0.5-1.5S198,11.9,197.7,12.8z"/>
						<path class="st7" d="M195.1,4.8c0,0.1-0.2,0.2-0.2,0.3l0.1,0.3c0.1,0.2,0.6,0.3,1.3,0.1s2.3-1,2.4-1.9l-0.2-0.5
							c-0.2,0-0.3,0-0.5,0"/>
						<path class="st7" d="M198.6,4.1c0.1,0.2,0.1,0.5,0,0.7c-0.2,1-1.1,1.6-2.1,1.4c0,0,0,0,0,0c-0.4-0.1-0.7-0.2-0.9-0.5l-0.1-0.1
							"/>
						<path class="st7" d="M195.3,5.2c-0.1-0.1-0.1-0.3-0.1-0.4c-0.1-1,0.5-1.8,1.5-2c0,0,0,0,0,0c0.6-0.1,1.2,0.1,1.6,0.5
							c0.1,0.1,0.2,0.3,0.3,0.4"/>
						<path class="st7" d="M198.2,6.7c0-0.1,0-0.1,0-0.2c0,0-0.1-0.1-0.1-0.1c-0.1,0-0.2,0-0.3,0V6.4l0.1-0.4"/>
						<path class="st7" d="M197.4,6.7c0,0.1,0.1,0.2,0.1,0.2s0.2,0.1,0.3,0"/>
						<path class="st7" d="M255.8,51.5c-0.7,0.1-1.2,0.8-1.2,1.5v1c0,0.4,0.6,0.7,1.5,0.7s1.4-0.3,1.4-0.7v-1c0-0.7-0.5-1.3-1.2-1.5
							v-0.2c0-0.1-0.1-0.2-0.2-0.2s-0.2,0.1-0.2,0.2V51.5z"/>
					</g>
				</g>
				<polygon class="st16" points="48.6,73.5 48.6,84.6 53.7,87.5 53.7,76.3 				"/>
				<line class="st17" x1="48.6" y1="76.2" x2="53.7" y2="79.1"/>
				<line class="st17" x1="48.6" y1="79" x2="53.7" y2="81.9"/>
				<line class="st17" x1="48.6" y1="81.8" x2="53.7" y2="84.7"/>
				<g>
					<defs>
						<rect id="SVGID_19_" x="4.1" y="5.5" width="85.4" height="97.8"/>
					</defs>
					<clipPath id="SVGID_20_">
						<use xlink:href="#SVGID_19_"  style="overflow:visible;"/>
					</clipPath>
					<g class="st18">
						<path class="st16" d="M258.6,83.8l6.1-3.4v2.8l-6.1,3.4V83.8z"/>
						<path class="st16" d="M257.9,78.6l4.6-2.6v2.8l-4.6,2.6L257.9,78.6z"/>
					</g>
				</g>
				<g>
					<defs>
						<rect id="SVGID_21_" x="103.1" y="0.9" width="85.4" height="103.2"/>
					</defs>
					<clipPath id="SVGID_22_">
						<use xlink:href="#SVGID_21_"  style="overflow:visible;"/>
					</clipPath>
					<g class="st19">
						<path class="st6" d="M2.5,97.5v-5.4l-5.4,3v5.6l-2.4,1.4l-18-8.5l-14.4-7.3l-3.3-1.9v-3.8c-0.1-0.9-0.6-1.7-1.4-2.1
							c-0.4-0.3-1-0.2-1.3,0.3c-0.1,0.2-0.2,0.4-0.1,0.5v1.8"/>
						<path class="st6" d="M3.3,61.7l1.5,1v33.4l-2.4,1.4c-1.2-0.3-2.5-0.3-3.6,0.3l-1.2,0.7c-0.2,0.1-0.4,0.2-0.5,0.4"/>
					</g>
				</g>
				<polyline class="st6" points="186.9,61.5 172,69.8 109.8,28.9 				"/>
				<polyline class="st6" points="186.9,64.3 172,72.6 109.8,31.7 				"/>
				<polyline class="st6" points="186.9,67.1 172,75.4 109.8,34.5 				"/>
				<polyline class="st6" points="186.9,69.9 172,78.2 109.8,37.3 				"/>
				<polyline class="st6" points="186.9,72.7 172,81 109.8,40.1 				"/>
				<polyline class="st6" points="186.9,75.5 172,83.8 109.8,42.9 				"/>
				<polyline class="st6" points="186.9,78.2 172,86.6 109.8,45.7 				"/>
				<polyline class="st6" points="186.9,81.1 172,89.4 109.8,48.5 				"/>
				<polyline class="st6" points="186.9,83.8 172,92.2 109.8,51.3 				"/>
				<polyline class="st6" points="186.9,86.6 172,95 109.8,54.1 				"/>
				<polyline class="st6" points="186.9,89.4 172,97.8 109.8,56.9 				"/>
				<line class="st6" x1="186.9" y1="89.4" x2="172" y2="97.8"/>
				<g class="st5">
					<path class="st0" d="M116,69c0.7,0.5,0.7,1,0.2,1.5l-0.6-0.4c0.2-0.2,0.2-0.5-0.2-0.7c-0.5-0.3-1.2-0.3-1.8,0.1
						c-0.6,0.3-0.7,0.8-0.3,1.1c0.3,0.2,0.7,0.3,1.1,0.2l0.6,0.4c-0.7,0.3-1.6,0.2-2.3-0.2c-0.8-0.5-0.7-1.3,0.2-1.9
						C114,68.5,115.2,68.5,116,69z"/>
				</g>
				<g class="st5">
					<path class="st0" d="M120.2,72l-2,2.6l-0.6-0.4l0.5-0.6l-1.1-0.8l-1,0.3l-0.6-0.4l4.2-1L120.2,72z M117.7,72.6l0.7,0.5l0.7-0.9
						L117.7,72.6z"/>
				</g>
				<g class="st5">
					<path class="st0" d="M122.4,73.5l2.5,1.8l-0.6,0.3l-1-0.7l-2.5,1.5l-0.6-0.4l2.5-1.5l-1-0.7L122.4,73.5z"/>
				</g>
				<g class="st5">
					<path class="st0" d="M129.1,78.2L126,80l-0.6-0.4l1.3-0.8l-1.3-0.9l-1.3,0.8l-0.6-0.4l3.1-1.8l0.6,0.4l-1.2,0.7l1.3,0.9
						l1.2-0.7L129.1,78.2z"/>
					<path class="st0" d="M132.8,80.8l-0.6,0.3l-1.4-1l-0.7,0.4l1.3,0.9l-0.6,0.3l-1.3-0.9l-0.7,0.4l1.4,1l-0.6,0.3l-2-1.4l3.1-1.8
						L132.8,80.8z"/>
					<path class="st0" d="M133.1,83.5l-1.2,0.7l-0.6-0.4l3.1-1.8l1.2,0.8c0.6,0.4,0.7,0.9,0,1.3c-0.5,0.3-1.1,0.3-1.6,0.1l-0.4,1.2
						l-0.7-0.5l0.4-1.2L133.1,83.5z M133.6,83.2l0.6,0.4c0.3,0.2,0.6,0.2,0.9,0.1c0.3-0.2,0.3-0.4,0-0.6l-0.6-0.4L133.6,83.2z"/>
				</g>
				<g class="st5">
					<path class="st0" d="M135.8,86.9l-0.6-0.4l3.1-1.8l0.6,0.4L135.8,86.9z"/>
				</g>
				<g class="st5">
					<path class="st0" d="M140,89.8l-0.5-0.3l0.7-2.2l-2.1,1.2l-0.6-0.4l3.1-1.8l0.6,0.4l-0.7,2.1l2-1.1l0.6,0.4L140,89.8z"/>
					<path class="st0" d="M146.9,90.6l-0.6,0.3l-1.4-1l-0.7,0.4l1.3,0.9l-0.6,0.3l-1.3-0.9l-0.7,0.4l1.4,1l-0.6,0.3l-2-1.4l3.1-1.8
						L146.9,90.6z"/>
					<path class="st0" d="M150.7,93.2l0.6,0.4l-2.5,1.5l1.4,1l-0.6,0.3l-2-1.4L150.7,93.2z"/>
				</g>
				<g class="st5">
					<path class="st0" d="M153.7,99.3l-0.5-0.3l0.7-2.2l-2.1,1.2l-0.6-0.4l3.1-1.8l0.6,0.4l-0.7,2.1l2-1.1l0.6,0.4L153.7,99.3z"/>
				</g>
				<polyline class="st7" points="186.9,58.7 172,67.1 109.8,26.1 				"/>
				<line class="st7" x1="172.1" y1="64.2" x2="172.1" y2="100.5"/>
				<line class="st7" x1="179.6" y1="95.4" x2="178.7" y2="95.9"/>
				<polyline class="st7" points="179.6,95.4 180.2,95.7 186.9,91.8 186.9,55.8 				"/>
				<polyline class="st7" points="186.9,55.8 172,64.2 109.8,23.3 				"/>
				<g>
					<defs>
						<rect id="SVGID_23_" x="103.1" y="0.9" width="85.4" height="103.2"/>
					</defs>
					<clipPath id="SVGID_24_">
						<use xlink:href="#SVGID_23_"  style="overflow:visible;"/>
					</clipPath>
					<g class="st20">
						<path class="st7" d="M179.6,95.4v-0.8c0-0.1-0.1-0.3-0.2-0.4"/>
						<path class="st7" d="M180.2,95.7v-1.2c0-0.3-0.2-0.7-0.8-0.3c-0.4,0.2-0.7,0.6-0.7,1.1v1.3l-6.6,3.9l-8.7-6l-11-7.6l-9.3-6.4
							l-13.7-9.4L109.8,57V23.3l1.3-0.8"/>
					</g>
				</g>
				<line class="st7" x1="174.4" y1="57.3" x2="174.4" y2="55.8"/>
				<line class="st7" x1="118.7" y1="25.9" x2="118.7" y2="28.4"/>
				<line class="st7" x1="174.4" y1="57.3" x2="175.2" y2="57.8"/>
				<line class="st7" x1="174.4" y1="55.8" x2="175.2" y2="56.3"/>
				<line class="st7" x1="119.1" y1="11" x2="119.1" y2="9.1"/>
				<line class="st7" x1="119.1" y1="11.1" x2="119.1" y2="9"/>
				<line class="st7" x1="118.8" y1="24" x2="118.8" y2="19.5"/>
				<polyline class="st7" points="120.2,27.5 118.7,28.4 111.1,23.4 111.1,20.9 113.7,19.4 				"/>
				<polyline class="st7" points="119.1,16.9 122.7,14.8 122.7,10.1 122.7,10.1 121.1,9 				"/>
				<g>
					<defs>
						<rect id="SVGID_25_" x="103.1" y="0.9" width="85.4" height="103.2"/>
					</defs>
					<clipPath id="SVGID_26_">
						<use xlink:href="#SVGID_25_"  style="overflow:visible;"/>
					</clipPath>
					<g class="st21">
						<path class="st7" d="M118.3,13.4c0.3,0.9,0.1,1.5-0.5,1.5s-1.3-0.7-1.6-1.5s-0.1-1.5,0.5-1.5S118.1,12.6,118.3,13.4z"/>
						<path class="st7" d="M119.9,13.5c-0.3,0.9-0.1,1.5,0.5,1.5s1.3-0.7,1.6-1.5s0.1-1.5-0.5-1.5S120.2,12.6,119.9,13.5z"/>
					</g>
				</g>
				<line class="st7" x1="118.8" y1="19.6" x2="124.6" y2="16.2"/>
				<line class="st7" x1="113.7" y1="16.3" x2="118.8" y2="19.6"/>
				<line class="st7" x1="111.1" y1="20.9" x2="118.7" y2="25.9"/>
				<polyline class="st7" points="122.7,14.6 123,14.8 123,16.3 123,16.4 119.1,18.7 119.1,18.5 119.1,12.3 				"/>
				<polyline class="st7" points="115.2,15.4 113.7,16.3 113.7,20.6 113.7,20.7 118.7,24 				"/>
				<polyline class="st7" points="124.7,18.5 127.7,20.5 127.7,22.2 				"/>
				<line class="st7" x1="119" y1="12.4" x2="122.7" y2="10.2"/>
				<line class="st7" x1="115.7" y1="10.1" x2="117.1" y2="9.3"/>
				<line class="st7" x1="115.7" y1="10.1" x2="119.1" y2="12.4"/>
				<polyline class="st7" points="123,15.2 124.6,16.2 124.6,16.3 124.6,20.5 124.6,20.6 118.7,24 				"/>
				<line class="st7" x1="117.1" y1="7.8" x2="119.1" y2="9.1"/>
				<line class="st7" x1="120.1" y1="7.2" x2="121.1" y2="7.8"/>
				<g>
					<defs>
						<rect id="SVGID_27_" x="103.1" y="0.9" width="85.4" height="103.2"/>
					</defs>
					<clipPath id="SVGID_28_">
						<use xlink:href="#SVGID_27_"  style="overflow:visible;"/>
					</clipPath>
					<g class="st22">
						<path class="st7" d="M117.3,5.5c-0.1,0.1-0.1,0.2-0.2,0.3l0.1,0.3c0.1,0.2,0.6,0.3,1.3,0.1s2.3-1,2.4-1.9l-0.2-0.5
							c-0.2,0-0.3,0-0.5,0"/>
					</g>
				</g>
				<polyline class="st7" points="117.9,2.4 119,2.9 119.3,2.8 120.1,1.8 				"/>
				<g>
					<defs>
						<rect id="SVGID_29_" x="103.1" y="0.9" width="85.4" height="103.2"/>
					</defs>
					<clipPath id="SVGID_30_">
						<use xlink:href="#SVGID_29_"  style="overflow:visible;"/>
					</clipPath>
					<g class="st23">
						<path class="st7" d="M120.7,4.8c0.1,0.2,0.1,0.5,0,0.7c-0.2,1-1.1,1.6-2.1,1.4c-0.4-0.1-0.7-0.3-0.9-0.5l-0.1-0.1"/>
						<path class="st7" d="M117.4,5.8c-0.1-0.1-0.1-0.3-0.1-0.4c-0.1-1,0.5-1.8,1.5-2c0,0,0,0,0,0c0.6-0.1,1.2,0.1,1.5,0.5
							c0.1,0.1,0.2,0.3,0.3,0.4"/>
						<path class="st7" d="M120.3,7.4c0-0.1,0-0.1,0-0.2c0,0-0.1-0.1-0.1-0.1c-0.1,0-0.2,0-0.3,0c0,0,0-0.1,0-0.1v0l0.1-0.4"/>
						<path class="st7" d="M119.5,7.4c0,0.1,0.1,0.2,0.1,0.2c0.1,0.1,0.2,0.1,0.3,0c0,0,0,0,0,0"/>
					</g>
				</g>
				<polyline class="st7" points="118.5,8.1 118.5,7.9 118.8,7.5 118.7,7.4 118.3,7.3 117.9,7.1 118.1,6.6 				"/>
				<line class="st7" x1="115.7" y1="14.7" x2="119.1" y2="16.9"/>
				<polyline class="st7" points="119.1,18.7 115.3,16.3 115.2,16.2 115.2,14.9 115.2,14.9 115.6,14.7 115.7,14.6 115.7,10.1 				
					"/>
				<polyline class="st7" points="118.1,7.1 117.1,7.8 117.1,7.9 117.1,9.8 119.1,11.1 119.1,11.1 121.1,10 121.1,7.9 121.1,7.9 
					119.1,9.1 				"/>
				<line class="st7" x1="152.4" y1="44.4" x2="164.8" y2="52.2"/>
				<polyline class="st7" points="180.8,54.6 178,56.3 175.2,54.6 				"/>
				<line class="st7" x1="177.9" y1="60.3" x2="177.9" y2="56.3"/>
				<polyline class="st7" points="175.2,55.4 169.6,58.7 120.2,27.2 				"/>
				<line class="st6" x1="186.9" y1="55.8" x2="127.7" y2="21.6"/>
				<line class="st6" x1="166.5" y1="44.8" x2="131.5" y2="24.5"/>
				<line class="st7" x1="169.6" y1="60.2" x2="169.6" y2="58.7"/>
				<line class="st7" x1="164.8" y1="54" x2="164.8" y2="52.2"/>
				<polygon class="st7" points="172.2,47.9 172.2,49.7 164.8,54 152.4,46.1 152.4,44.4 157.9,41.2 165.2,45.6 166.7,44.7 				"/>
				<line class="st7" x1="172.2" y1="47.9" x2="164.8" y2="52.2"/>
				<line class="st7" x1="131.5" y1="24.4" x2="126.2" y2="27.5"/>
				<polygon class="st7" points="121.6,26.4 121.6,24.6 121.6,24.6 126.7,21.6 131.5,24.4 131.5,25.9 131.5,26 126.2,29.2 				"/>
				<polyline class="st7" points="174.4,57.3 169.6,60.2 120.2,28.7 120.2,28.7 120.2,27.2 121.6,26.4 				"/>
				<line class="st7" x1="126.2" y1="27.5" x2="121.6" y2="24.7"/>
				<line class="st7" x1="126.2" y1="29.1" x2="126.2" y2="27.5"/>
				<polyline class="st7" points="179.7,54 180.1,53.7 180.1,52.6 172.2,48 				"/>
				<line class="st7" x1="180.1" y1="52.6" x2="179.5" y2="53"/>
				<line class="st7" x1="127.7" y1="20.6" x2="118.7" y2="25.9"/>
				<polyline class="st7" points="176.8,53.7 175.2,54.6 175.2,58.5 177.9,60.3 180.8,58.6 180.8,54.6 179.6,53.9 				"/>
				<g>
					<defs>
						<rect id="SVGID_31_" x="103.1" y="0.9" width="85.4" height="103.2"/>
					</defs>
					<clipPath id="SVGID_32_">
						<use xlink:href="#SVGID_31_"  style="overflow:visible;"/>
					</clipPath>
					<g class="st24">
						<path class="st7" d="M177.9,52.2c-0.7,0.1-1.2,0.8-1.2,1.5v1c0,0.4,0.6,0.7,1.4,0.7s1.4-0.3,1.4-0.7v-1c0-0.7-0.5-1.4-1.2-1.5
							V52c0-0.1-0.1-0.2-0.2-0.2s-0.2,0.1-0.2,0.2L177.9,52.2z"/>
					</g>
				</g>
				<polygon class="st16" points="126.4,53.8 126.4,65 131.3,68.3 131.4,57.1 				"/>
				<line class="st17" x1="131.4" y1="59.9" x2="126.3" y2="56.6"/>
				<line class="st17" x1="131.4" y1="62.7" x2="126.4" y2="59.4"/>
				<line class="st17" x1="131.4" y1="65.5" x2="126.4" y2="62.2"/>
			</g>
		</g>
	</g>
</g>
</svg>
