<?xml version="1.0" encoding="utf-8"?>
<!-- Generator: Adobe Illustrator 23.0.0, SVG Export Plug-In . SVG Version: 6.00 Build 0)  -->
<svg version="1.1" id="Layer_1" xmlns="http://www.w3.org/2000/svg" xmlns:xlink="http://www.w3.org/1999/xlink" x="0px" y="0px"
	 viewBox="0 0 189.9 92.6" style="enable-background:new 0 0 189.9 92.6;" xml:space="preserve">
<style type="text/css">
	.st0{fill:#D2D3D4;}
	.st1{clip-path:url(#SVGID_2_);}
	.st2{fill:none;stroke:#231F20;stroke-width:0.15;stroke-miterlimit:10;}
	.st3{enable-background:new    ;}
	.st4{fill:#D1D3D4;}
	.st5{fill:none;stroke:#231F20;stroke-width:0.14;stroke-miterlimit:10;}
	.st6{clip-path:url(#SVGID_4_);}
	.st7{clip-path:url(#SVGID_6_);}
	.st8{clip-path:url(#SVGID_8_);}
	.st9{clip-path:url(#SVGID_10_);}
	.st10{clip-path:url(#SVGID_12_);}
	.st11{fill:#231F20;}
	.st12{clip-path:url(#SVGID_14_);}
	.st13{clip-path:url(#SVGID_16_);}
	.st14{fill:none;stroke:#D1D3D4;stroke-width:1.09;stroke-miterlimit:10;}
</style>
<title>residence_P_5_key_horizontal</title>
<g>
	<path class="st0" d="M83.6,43.8c-0.6,0-1-0.4-1-1.1v-1.4H86v1.3c0,0.7-0.3,1.1-0.9,1.1c-0.3,0-0.6-0.2-0.7-0.4
		C84.2,43.6,83.9,43.8,83.6,43.8z M83.2,41.9v0.7c0,0.3,0.2,0.5,0.4,0.5s0.4-0.2,0.4-0.5v-0.7H83.2z M84.6,42.5
		c0,0.3,0.1,0.5,0.4,0.5s0.4-0.2,0.4-0.5v-0.6h-0.8V42.5z"/>
	<path class="st0" d="M83.8,46.2h-1.3v-0.7H86v1.4c0.1,0.5-0.3,1.1-0.8,1.2c-0.1,0-0.2,0-0.3,0c-0.5,0-0.9-0.3-1-0.8l-1.3,0.9v-0.8
		l1.3-0.8L83.8,46.2z M84.4,46.2v0.6c0,0.4,0.2,0.5,0.5,0.5s0.5-0.2,0.5-0.5v-0.6H84.4z"/>
	<path class="st0" d="M82.5,51.2c-0.1-1,0.6-1.8,1.6-1.9c1-0.1,1.8,0.6,1.9,1.6s-0.6,1.8-1.6,1.9c-0.1,0-0.1,0-0.2,0
		c-0.9,0.1-1.7-0.6-1.7-1.5C82.5,51.3,82.5,51.3,82.5,51.2z M85.4,51.2c0-0.5-0.4-0.9-1.1-0.9s-1.1,0.3-1.1,0.9s0.5,0.9,1.1,0.9
		S85.4,51.8,85.4,51.2z"/>
	<path class="st0" d="M86,56.1l-3.4,1.3v-0.7l0.8-0.3v-1.3l-0.8-0.3v-0.7l3.4,1.3V56.1z M84,55.4v0.8l1.1-0.4L84,55.4z"/>
	<path class="st0" d="M86,59v1.2c0,0.9-0.8,1.7-1.7,1.7c-0.9,0-1.7-0.8-1.7-1.7V59H86z M83.2,60.2c0,0.6,0.5,1.1,1.1,1.1
		c0.6,0,1.1-0.5,1.1-1.1v-0.5h-2.2L83.2,60.2z"/>
	<path class="st0" d="M86,65.7l-2.3,0.6l2.3,0.6v0.7l-3.4-0.9V66l2.2-0.6l-2.2-0.6v-0.6l3.4-0.9V64l-2.3,0.6l2.3,0.6V65.7z"/>
	<path class="st0" d="M86,70.7L82.6,72v-0.7l0.8-0.3v-1.3l-0.8-0.3v-0.7L86,70V70.7z M84,69.9v0.8l1.1-0.4L84,69.9z"/>
	<path class="st0" d="M86,75.3v0.7l-2.1-1.2h-1.3v-0.7h1.3l2.1-1.2v0.8l-1.4,0.8L86,75.3z"/>
	<path class="st0" d="M180.9,35.1v0.7h-2.8v1.6h-0.6v-2.3H180.9z"/>
	<path class="st0" d="M180.9,40.8l-3.4,1.3v-0.7l0.8-0.3v-1.3l-0.8-0.3v-0.7l3.4,1.3V40.8z M179,40v0.8l1.1-0.4L179,40z"/>
	<path class="st0" d="M177.6,43.7h3.4V46h-0.6v-1.6h-0.9v1.4h-0.6v-1.4h-1.3V43.7z"/>
	<path class="st0" d="M180.9,49.2l-3.4,1.3v-0.7l0.8-0.3v-1.3l-0.8-0.3v-0.7l3.4,1.3V49.2z M178.9,48.4v0.8l1.1-0.4L178.9,48.4z"/>
	<path class="st0" d="M180.9,53.9v0.7l-2.1-1.2h-1.3v-0.7h1.3l2.1-1.2v0.8l-1.4,0.8L180.9,53.9z"/>
	<path class="st0" d="M180.9,58.5h-0.6v-1.6h-0.7v1.5H179v-1.5h-0.8v1.6h-0.6v-2.3h3.4L180.9,58.5z"/>
	<path class="st0" d="M180.9,60.1V63h-0.6v-1.1h-2.8v-0.7h2.8v-1.1H180.9z"/>
	<path class="st0" d="M180.9,64.4v2.9h-0.6v-1.1h-2.8v-0.7h2.8v-1.1H180.9z"/>
	<path class="st0" d="M180.9,71.3h-0.6v-1.6h-0.7v1.5H179v-1.5h-0.8v1.6h-0.6V69h3.4L180.9,71.3z"/>
	<path class="st0" d="M178.5,75.9c-0.3,0.1-0.5,0.4-0.4,0.7c0,0.3,0.2,0.6,0.4,0.6s0.3-0.1,0.4-0.4l0.1-0.6c0-0.5,0.4-0.9,0.9-0.8
		c0.6,0,1,0.6,1,1.1c0,0,0,0,0,0.1c0.1,0.6-0.4,1.2-1,1.3v-0.7c0.3-0.1,0.4-0.4,0.4-0.6c0-0.3-0.2-0.5-0.4-0.5s-0.3,0.1-0.4,0.4
		l-0.1,0.6c-0.1,0.6-0.4,0.9-0.9,0.9c-0.6,0-1.1-0.5-1.1-1.2c0,0,0-0.1,0-0.1c-0.1-0.7,0.4-1.3,1-1.4L178.5,75.9L178.5,75.9z"/>
	<path class="st0" d="M180.9,79.3v2.9h-0.6v-1.1h-2.8v-0.7h2.8v-1.1H180.9z"/>
	<path class="st0" d="M112.4,39.3h0.7v2.8h1.6v0.6h-2.3V39.3z"/>
	<path class="st0" d="M118.6,39.3v0.6H117v0.7h1.4v0.6H117v0.8h1.6v0.6h-2.3v-3.4H118.6z"/>
	<path class="st0" d="M121.6,42.7c-1,0.1-1.8-0.6-1.9-1.6c-0.1-1,0.6-1.8,1.6-1.9c1-0.1,1.8,0.6,1.9,1.6c0,0.1,0,0.1,0,0.2
		c0.1,0.9-0.6,1.7-1.5,1.7C121.7,42.7,121.7,42.7,121.6,42.7z M121.6,39.9c-0.5,0-0.9,0.5-0.9,1.1s0.3,1.1,0.9,1.1s0.9-0.5,0.9-1.1
		S122.2,39.9,121.6,39.9z"/>
	<path class="st0" d="M127.7,42.7h-0.6l-1.6-2.2v2.2h-0.7v-3.4h0.7l1.5,2.1v-2.1h0.7L127.7,42.7z"/>
	<path class="st0" d="M131.2,39.3l1.3,3.4h-0.7l-0.3-0.8h-1.3l-0.3,0.8h-0.7l1.3-3.4H131.2z M130.4,41.3h0.8l-0.4-1.1L130.4,41.3z"
		/>
	<path class="st0" d="M134.6,41.4v1.3H134v-3.4h1.4c0.6-0.1,1.1,0.3,1.2,0.9c0,0.1,0,0.1,0,0.2c0,0.5-0.3,0.9-0.8,1l0.9,1.3h-0.8
		l-0.9-1.3H134.6z M134.6,40.8h0.6c0.4,0,0.5-0.2,0.5-0.5s-0.2-0.5-0.5-0.5h-0.6V40.8z"/>
	<path class="st0" d="M138.1,39.3h1.2c0.9,0,1.7,0.8,1.7,1.7c0,0.9-0.8,1.7-1.7,1.7h-1.2V39.3z M139.3,42.1c0.6,0,1.1-0.5,1.1-1.1
		c0-0.6-0.5-1.1-1.1-1.1h-0.5v2.1H139.3z"/>
	<path class="st0" d="M145.4,41.7c0.1,0.3,0.4,0.5,0.7,0.4c0.3,0,0.6-0.2,0.6-0.4s-0.1-0.3-0.4-0.4l-0.6-0.1
		c-0.5-0.1-0.9-0.4-0.9-0.9c0-0.6,0.6-1,1.2-1c0,0,0,0,0,0c0.6-0.1,1.2,0.4,1.3,1h-0.7c-0.1-0.3-0.3-0.4-0.6-0.4
		c-0.3,0-0.5,0.2-0.5,0.4s0.1,0.3,0.4,0.4l0.6,0.1c0.6,0.1,0.9,0.4,0.9,1c0,0.7-0.5,1-1.2,1c-0.7,0.1-1.3-0.4-1.4-1L145.4,41.7z"/>
	<path class="st0" d="M148.6,39.3h2.9v0.6h-1.1v2.8h-0.7v-2.8h-1.1V39.3z"/>
	<path class="st0" d="M109.9,74.6c0.7,0,1.3,0.4,1.4,1.1h-0.7c-0.1-0.3-0.4-0.5-0.7-0.5c-0.5,0-0.8,0.5-0.8,1.1s0.3,1.1,0.8,1.1
		c0.3,0,0.6-0.2,0.7-0.5h0.7c-0.1,0.7-0.7,1.2-1.4,1.1c-1-0.1-1.7-1-1.6-1.9C108.4,75.3,109.1,74.6,109.9,74.6L109.9,74.6z"/>
	<path class="st0" d="M114.7,74.6l1.3,3.4h-0.7l-0.3-0.8h-1.3l-0.3,0.8h-0.7l1.3-3.4H114.7z M113.9,76.6h0.8l-0.4-1.1L113.9,76.6z"
		/>
	<path class="st0" d="M117,74.6h2.9v0.6h-1.1V78h-0.7v-2.8H117V74.6z"/>
	<path class="st0" d="M124.5,74.6V78h-0.7v-1.4h-1.5V78h-0.7v-3.4h0.7v1.3h1.5v-1.3H124.5z"/>
	<path class="st0" d="M128.7,74.6v0.6h-1.6V76h1.5v0.6h-1.4v0.8h1.6V78h-2.3v-3.4H128.7z"/>
	<path class="st0" d="M131.1,76.7V78h-0.7v-3.4h1.4c0.5-0.1,1.1,0.2,1.2,0.8c0,0.1,0,0.2,0,0.3c0,0.5-0.3,0.9-0.8,1l0.9,1.3h-0.8
		l-0.8-1.3L131.1,76.7z M131.1,76.1h0.6c0.4,0,0.5-0.2,0.5-0.5s-0.2-0.5-0.5-0.5h-0.6V76.1z"/>
	<path class="st0" d="M135.4,78h-0.7v-3.4h0.7V78z"/>
	<path class="st0" d="M140.1,78h-0.6l-1.6-2.3V78h-0.7v-3.4h0.7l1.5,2.1v-2.1h0.7L140.1,78z"/>
	<path class="st0" d="M144.2,74.6v0.6h-1.6V76h1.4v0.6h-1.4v0.8h1.6V78H142v-3.4H144.2z"/>
	<path class="st0" d="M148.4,74.6h0.7v2.8h1.6V78h-2.3V74.6z"/>
	<path class="st0" d="M155.2,78h-0.6l-1.6-2.2V78h-0.7v-3.4h0.6l1.5,2.1v-2.1h0.7L155.2,78L155.2,78z"/>
</g>
<g id="Layer_4">
	<g>
		<defs>
			<rect id="SVGID_1_" x="6.7" y="8.9" width="58.5" height="70.6"/>
		</defs>
		<clipPath id="SVGID_2_">
			<use xlink:href="#SVGID_1_"  style="overflow:visible;"/>
		</clipPath>
		<g class="st1">
			<polyline class="st2" points="64.1,50.4 54,56.1 11.4,28.1 			"/>
			<polyline class="st2" points="64.1,52.3 54,58 11.4,30 			"/>
			<polyline class="st2" points="64.1,54.2 54,59.9 11.4,32 			"/>
			<polyline class="st2" points="64.1,56.1 54,61.8 11.4,33.9 			"/>
			<polyline class="st2" points="64.1,58 54,63.8 11.4,35.8 			"/>
			<polyline class="st2" points="64.1,59.9 54,65.7 11.4,37.7 			"/>
			<polyline class="st2" points="64.1,61.8 54,67.6 11.4,39.6 			"/>
			<polyline class="st2" points="64.1,63.8 54,69.5 11.4,41.5 			"/>
			<polyline class="st2" points="64.1,65.7 54,71.4 11.4,43.4 			"/>
			<polyline class="st2" points="64.1,67.6 54,73.3 11.4,45.3 			"/>
			<polyline class="st2" points="64.1,69.5 54,75.2 11.4,47.2 			"/>
			<g class="st3">
				<path class="st4" d="M15.7,55.5c0.5,0.3,0.5,0.7,0.1,1l-0.4-0.3c0.1-0.2,0.1-0.3-0.1-0.5c-0.3-0.2-0.8-0.2-1.2,0.1
					c-0.4,0.2-0.5,0.5-0.2,0.8c0.2,0.2,0.5,0.2,0.8,0.1L15,57c-0.5,0.2-1.1,0.2-1.6-0.2c-0.5-0.4-0.5-0.9,0.2-1.3
					S15.1,55.2,15.7,55.5z"/>
			</g>
			<g class="st3">
				<path class="st4" d="M18.5,57.6l-1.3,1.8l-0.4-0.3l0.3-0.4l-0.8-0.5l-0.7,0.2L15.2,58l2.9-0.7L18.5,57.6z M16.8,58l0.5,0.3
					l0.5-0.6L16.8,58z"/>
			</g>
			<g class="st3">
				<path class="st4" d="M20,58.6l1.7,1.2l-0.4,0.2l-0.7-0.5l-1.7,1l-0.4-0.3l1.7-1l-0.6-0.5L20,58.6z"/>
				<path class="st4" d="M24.6,61.8L22.5,63L22,62.7l0.9-0.5L22,61.6l-0.9,0.5l-0.4-0.3l2.1-1.2l0.4,0.3l-0.8,0.5l0.9,0.6l0.8-0.5
					L24.6,61.8z"/>
				<path class="st4" d="M27.1,63.6l-0.4,0.2l-1-0.7l-0.5,0.3l0.9,0.6l-0.4,0.2l-0.9-0.6l-0.5,0.3l1,0.7L25,64.8l-1.4-1l2.1-1.2
					L27.1,63.6z"/>
				<path class="st4" d="M27.3,65.4l-0.8,0.5l-0.4-0.3l2.1-1.2l0.8,0.6c0.4,0.3,0.5,0.6,0,0.9c-0.3,0.2-0.7,0.2-1.1,0l-0.3,0.8
					l-0.5-0.3l0.3-0.8L27.3,65.4z M27.7,65.2l0.4,0.3c0.2,0.1,0.4,0.2,0.6,0.1c0.2-0.1,0.2-0.2,0-0.4l-0.4-0.3L27.7,65.2z"/>
				<path class="st4" d="M29.2,67.7l-0.4-0.3l2.1-1.2l0.4,0.3L29.2,67.7z"/>
				<path class="st4" d="M32.1,69.7l-0.3-0.2l0.5-1.5l-1.4,0.8l-0.4-0.3l2.1-1.2l0.4,0.3L32.4,69l1.3-0.8l0.4,0.3L32.1,69.7z"/>
				<path class="st4" d="M36.7,70.3l-0.4,0.2l-1-0.7l-0.5,0.3l0.9,0.6l-0.4,0.2l-0.9-0.6l-0.5,0.3l1,0.7l-0.4,0.2l-1.4-1l2.1-1.2
					L36.7,70.3z"/>
				<path class="st4" d="M39.4,72.1l0.4,0.3l-1.7,1L39,74l-0.4,0.2l-1.4-0.9L39.4,72.1z"/>
			</g>
			<g class="st3">
				<path class="st4" d="M41.4,76.2L41.1,76l0.5-1.5l-1.4,0.8L39.7,75l2.1-1.2l0.4,0.3l-0.4,1.4l1.3-0.8l0.4,0.3L41.4,76.2z"/>
			</g>
			<polyline class="st5" points="64.1,48.5 54,54.2 11.4,26.2 			"/>
			<line class="st5" x1="54" y1="52.3" x2="54" y2="77.1"/>
			<line class="st5" x1="59.1" y1="73.5" x2="58.5" y2="73.9"/>
			<polyline class="st5" points="59.1,73.5 59.5,73.8 64.1,71.1 64.1,46.5 			"/>
			<polyline class="st5" points="64.1,46.5 54,52.3 11.4,24.3 			"/>
			<g>
				<defs>
					<rect id="SVGID_3_" x="6.7" y="8.9" width="58.5" height="70.6"/>
				</defs>
				<clipPath id="SVGID_4_">
					<use xlink:href="#SVGID_3_"  style="overflow:visible;"/>
				</clipPath>
				<g class="st6">
					<path class="st5" d="M59.1,73.5V73c0-0.1,0-0.2-0.1-0.2"/>
					<path class="st5" d="M59.5,73.8V73c0-0.2-0.2-0.4-0.6-0.2c-0.3,0.2-0.4,0.4-0.5,0.7v0.9L54,77.1l-6-4.1l-7.5-5.2l-6.3-4.3
						L24.7,57l-13.4-9.7v-23l0.9-0.5"/>
				</g>
			</g>
			<line class="st5" x1="55.6" y1="47.5" x2="55.6" y2="46.5"/>
			<line class="st5" x1="17.5" y1="26.1" x2="17.5" y2="27.8"/>
			<line class="st5" x1="55.6" y1="47.5" x2="56.1" y2="47.9"/>
			<line class="st5" x1="55.6" y1="46.5" x2="56.1" y2="46.9"/>
			<line class="st5" x1="17.8" y1="15.9" x2="17.8" y2="14.6"/>
			<line class="st5" x1="17.8" y1="16" x2="17.8" y2="14.5"/>
			<line class="st5" x1="17.5" y1="24.8" x2="17.5" y2="21.7"/>
			<polyline class="st5" points="18.5,27.2 17.5,27.8 12.3,24.4 12.3,22.7 14.1,21.6 			"/>
			<polyline class="st5" points="17.8,19.9 20.2,18.5 20.2,15.3 20.2,15.3 19.1,14.6 			"/>
			<g>
				<defs>
					<rect id="SVGID_5_" x="6.7" y="8.9" width="58.5" height="70.6"/>
				</defs>
				<clipPath id="SVGID_6_">
					<use xlink:href="#SVGID_5_"  style="overflow:visible;"/>
				</clipPath>
				<g class="st7">
					<path class="st5" d="M17.2,17.5c0.2,0.6,0,1-0.4,1s-0.9-0.5-1.1-1s0-1,0.4-1S17,17,17.2,17.5z"/>
					<path class="st5" d="M18.3,17.6c-0.2,0.6,0,1,0.4,1s0.9-0.5,1.1-1s0-1-0.4-1S18.5,17,18.3,17.6z"/>
				</g>
			</g>
			<line class="st5" x1="17.5" y1="21.8" x2="21.5" y2="19.5"/>
			<line class="st5" x1="14.1" y1="19.5" x2="17.5" y2="21.8"/>
			<line class="st5" x1="12.3" y1="22.7" x2="17.5" y2="26.1"/>
			<polyline class="st5" points="20.2,18.3 20.4,18.5 20.4,19.5 20.4,19.6 17.8,21.1 17.8,21 17.8,16.8 			"/>
			<polyline class="st5" points="15.1,18.9 14.1,19.5 14.1,22.5 14.1,22.5 17.5,24.8 			"/>
			<polyline class="st5" points="21.6,21 23.7,22.4 23.7,23.5 			"/>
			<line class="st5" x1="17.7" y1="16.8" x2="20.2" y2="15.3"/>
			<line class="st5" x1="15.4" y1="15.3" x2="16.4" y2="14.7"/>
			<line class="st5" x1="15.4" y1="15.2" x2="17.8" y2="16.9"/>
			<polyline class="st5" points="20.4,18.7 21.5,19.5 21.5,19.5 21.5,22.4 21.5,22.4 17.5,24.8 			"/>
			<line class="st5" x1="16.4" y1="13.7" x2="17.8" y2="14.6"/>
			<line class="st5" x1="18.5" y1="13.3" x2="19.1" y2="13.7"/>
			<g>
				<defs>
					<rect id="SVGID_7_" x="6.7" y="8.9" width="58.5" height="70.6"/>
				</defs>
				<clipPath id="SVGID_8_">
					<use xlink:href="#SVGID_7_"  style="overflow:visible;"/>
				</clipPath>
				<g class="st8">
					<path class="st5" d="M16.5,12.1c-0.1,0.1-0.1,0.1-0.1,0.2l0.1,0.2c0.1,0.1,0.4,0.2,0.9,0.1s1.6-0.7,1.7-1.3L18.8,11
						c-0.1,0-0.2,0-0.3,0"/>
				</g>
			</g>
			<polyline class="st5" points="17,10 17.7,10.4 17.9,10.3 18.4,9.6 			"/>
			<g>
				<defs>
					<rect id="SVGID_9_" x="6.7" y="8.9" width="58.5" height="70.6"/>
				</defs>
				<clipPath id="SVGID_10_">
					<use xlink:href="#SVGID_9_"  style="overflow:visible;"/>
				</clipPath>
				<g class="st9">
					<path class="st5" d="M18.9,11.6c0.2,0.6-0.2,1.3-0.9,1.4c-0.4,0.1-0.9,0-1.2-0.4l0,0"/>
					<path class="st5" d="M16.6,12.4c0-0.1-0.1-0.2-0.1-0.3c-0.1-0.7,0.3-1.3,1-1.4c0.4-0.1,0.8,0.1,1,0.4c0.1,0.1,0.1,0.2,0.2,0.3"
						/>
					<path class="st5" d="M18.6,13.4c0,0,0-0.1,0-0.1c0,0,0,0-0.1,0h-0.2v-0.1l0.1-0.3"/>
					<path class="st5" d="M18,13.4c0,0.1,0,0.1,0,0.1s0.1,0.1,0.2,0"/>
				</g>
			</g>
			<polyline class="st5" points="17.4,13.9 17.4,13.8 17.5,13.5 17.5,13.4 17.2,13.4 17,13.2 17.1,12.9 			"/>
			<line class="st5" x1="15.4" y1="18.4" x2="17.8" y2="19.9"/>
			<polyline class="st5" points="17.7,21.2 15.1,19.5 15.1,19.5 15.1,18.6 15.1,18.5 15.4,18.4 15.4,18.4 15.4,15.2 			"/>
			<polyline class="st5" points="17.1,13.2 16.4,13.7 16.4,13.7 16.4,15.1 17.7,16 17.8,16 19.1,15.2 19.1,13.8 19.1,13.8 
				17.8,14.6 			"/>
			<line class="st5" x1="40.5" y1="38.7" x2="49" y2="44.1"/>
			<polyline class="st5" points="59.9,45.7 58,46.8 56.1,45.7 			"/>
			<line class="st5" x1="58" y1="49.6" x2="58" y2="46.8"/>
			<polyline class="st5" points="56.1,46.2 52.2,48.5 18.5,27 			"/>
			<line class="st2" x1="64.1" y1="46.5" x2="23.7" y2="23.1"/>
			<line class="st2" x1="50.2" y1="39" x2="26.2" y2="25.1"/>
			<line class="st5" x1="52.2" y1="49.5" x2="52.2" y2="48.5"/>
			<line class="st5" x1="49" y1="45.3" x2="49" y2="44.1"/>
			<polygon class="st5" points="54,41.1 54,42.3 49,45.3 40.5,39.9 40.5,38.7 44.2,36.5 49.3,39.5 50.3,38.9 			"/>
			<line class="st5" x1="54" y1="41.1" x2="49" y2="44.1"/>
			<line class="st5" x1="26.2" y1="25" x2="22.6" y2="27.2"/>
			<polygon class="st5" points="19.5,26.4 19.5,25.2 19.5,25.2 23,23.1 26.2,25 26.2,26.1 26.2,26.1 22.6,28.3 			"/>
			<polyline class="st5" points="55.6,47.5 52.2,49.5 18.5,28 18.5,28 18.5,27 19.5,26.4 			"/>
			<line class="st5" x1="22.6" y1="27.1" x2="19.5" y2="25.2"/>
			<line class="st5" x1="22.6" y1="28.3" x2="22.6" y2="27.1"/>
			<polyline class="st5" points="59.2,45.2 59.5,45.1 59.5,44.3 54,41.2 			"/>
			<line class="st5" x1="59.5" y1="44.3" x2="59" y2="44.6"/>
			<line class="st5" x1="23.7" y1="22.5" x2="17.5" y2="26.1"/>
			<polyline class="st5" points="57.2,45 56.1,45.7 56.1,48.4 58,49.6 59.9,48.4 59.9,45.7 59.1,45.2 			"/>
			<g>
				<defs>
					<rect id="SVGID_11_" x="6.7" y="8.9" width="58.5" height="70.6"/>
				</defs>
				<clipPath id="SVGID_12_">
					<use xlink:href="#SVGID_11_"  style="overflow:visible;"/>
				</clipPath>
				<g class="st10">
					<path class="st5" d="M58,44c-0.5,0.1-0.8,0.5-0.8,1v0.7c0,0.3,0.4,0.5,1,0.5s1-0.2,1-0.5V45c0-0.5-0.3-0.9-0.8-1v-0.1
						c0,0-0.1-0.1-0.2-0.1S58,43.9,58,44L58,44z"/>
				</g>
			</g>
			<polygon class="st11" points="54,69.5 48.3,65.8 48.3,63.9 54,67.6 			"/>
			<polygon class="st11" points="60.4,65.8 54,69.5 54,67.6 60.4,63.9 			"/>
		</g>
	</g>
	<g>
		<defs>
			<rect id="SVGID_13_" x="92.6" y="51.2" width="76.8" height="17.3"/>
		</defs>
		<clipPath id="SVGID_14_">
			<use xlink:href="#SVGID_13_"  style="overflow:visible;"/>
		</clipPath>
		<g class="st12">
			<polygon class="st11" points="158,62 163.1,62 163.1,60.7 164.2,60.7 164.2,59 167.5,59 167.5,67.5 158.8,67.1 158.8,66.9 
				158.5,66.8 158.5,64.3 157.4,64.3 157.4,62.4 158,62.4 			"/>
			<g>
				<defs>
					<rect id="SVGID_15_" x="92.6" y="51.2" width="76.8" height="17.3"/>
				</defs>
				<clipPath id="SVGID_16_">
					<use xlink:href="#SVGID_15_"  style="overflow:visible;"/>
				</clipPath>
				<g class="st13">
					<polygon class="st14" points="167.5,52.3 167.5,67.3 93.5,62.7 93.5,52.3 					"/>
				</g>
			</g>
		</g>
	</g>
</g>
</svg>
