<?xml version="1.0" encoding="utf-8"?>
<!-- Generator: Adobe Illustrator 23.0.0, SVG Export Plug-In . SVG Version: 6.00 Build 0)  -->
<svg version="1.1" id="Layer_1" xmlns="http://www.w3.org/2000/svg" xmlns:xlink="http://www.w3.org/1999/xlink" x="0px" y="0px"
	 viewBox="0 0 189.9 92.6" style="enable-background:new 0 0 189.9 92.6;" xml:space="preserve">
<style type="text/css">
	.st0{fill:#D2D3D4;}
	.st1{clip-path:url(#SVGID_2_);}
	.st2{enable-background:new    ;}
	.st3{fill:#D1D3D4;}
	.st4{fill:none;stroke:#231F20;stroke-width:0.15;stroke-miterlimit:10;}
	.st5{fill:none;stroke:#231F20;stroke-width:0.14;stroke-miterlimit:10;}
	.st6{clip-path:url(#SVGID_4_);}
	.st7{clip-path:url(#SVGID_6_);}
	.st8{fill:none;stroke:#231F20;stroke-width:0.14;stroke-linejoin:bevel;}
	.st9{clip-path:url(#SVGID_8_);}
	.st10{clip-path:url(#SVGID_10_);}
	.st11{clip-path:url(#SVGID_12_);}
	.st12{clip-path:url(#SVGID_14_);}
	.st13{clip-path:url(#SVGID_16_);}
	.st14{fill:#231F20;}
	.st15{fill:none;stroke:#FFFFFF;stroke-width:0.15;stroke-miterlimit:10;}
	.st16{clip-path:url(#SVGID_18_);}
	.st17{fill:none;stroke:#D1D3D4;stroke-width:1.09;stroke-miterlimit:10;}
</style>
<title>residence_B_7-10_key_horizontal</title>
<g>
	<g>
		<path class="st0" d="M83.6,43.8c-0.6,0-1-0.4-1-1.1v-1.4H86v1.3c0,0.7-0.3,1.1-0.9,1.1c-0.3,0-0.6-0.2-0.7-0.4
			C84.2,43.6,83.9,43.8,83.6,43.8z M83.2,41.9v0.7c0,0.3,0.2,0.5,0.4,0.5s0.4-0.2,0.4-0.5v-0.7H83.2z M84.6,42.5
			c0,0.3,0.1,0.5,0.4,0.5s0.4-0.2,0.4-0.5v-0.6h-0.8V42.5z"/>
		<path class="st0" d="M83.8,46.2h-1.3v-0.7H86v1.4c0.1,0.5-0.3,1.1-0.8,1.2c-0.1,0-0.2,0-0.3,0c-0.5,0-0.9-0.3-1-0.8l-1.3,0.9v-0.8
			l1.3-0.8L83.8,46.2z M84.4,46.2v0.6c0,0.4,0.2,0.5,0.5,0.5s0.5-0.2,0.5-0.5v-0.6H84.4z"/>
		<path class="st0" d="M82.5,51.2c-0.1-1,0.6-1.8,1.6-1.9c1-0.1,1.8,0.6,1.9,1.6s-0.6,1.8-1.6,1.9c-0.1,0-0.1,0-0.2,0
			c-0.9,0.1-1.7-0.6-1.7-1.5C82.5,51.3,82.5,51.3,82.5,51.2z M85.4,51.2c0-0.5-0.4-0.9-1.1-0.9s-1.1,0.3-1.1,0.9s0.5,0.9,1.1,0.9
			S85.4,51.8,85.4,51.2z"/>
		<path class="st0" d="M86,56.1l-3.4,1.3v-0.7l0.8-0.3v-1.3l-0.8-0.3v-0.7l3.4,1.3V56.1z M84,55.4v0.8l1.1-0.4L84,55.4z"/>
		<path class="st0" d="M86,59v1.2c0,0.9-0.8,1.7-1.7,1.7c-0.9,0-1.7-0.8-1.7-1.7V59H86z M83.2,60.2c0,0.6,0.5,1.1,1.1,1.1
			c0.6,0,1.1-0.5,1.1-1.1v-0.5h-2.2L83.2,60.2z"/>
		<path class="st0" d="M86,65.7l-2.3,0.6l2.3,0.6v0.7l-3.4-0.9V66l2.2-0.6l-2.2-0.6v-0.6l3.4-0.9V64l-2.3,0.6l2.3,0.6V65.7z"/>
		<path class="st0" d="M86,70.7L82.6,72v-0.7l0.8-0.3v-1.3l-0.8-0.3v-0.7L86,70V70.7z M84,69.9v0.8l1.1-0.4L84,69.9z"/>
		<path class="st0" d="M86,75.3v0.7l-2.1-1.2h-1.3v-0.7h1.3l2.1-1.2v0.8l-1.4,0.8L86,75.3z"/>
		<path class="st0" d="M180.9,35.1v0.7h-2.8v1.6h-0.6v-2.3H180.9z"/>
		<path class="st0" d="M180.9,40.8l-3.4,1.3v-0.7l0.8-0.3v-1.3l-0.8-0.3v-0.7l3.4,1.3V40.8z M179,40v0.8l1.1-0.4L179,40z"/>
		<path class="st0" d="M177.6,43.7h3.4V46h-0.6v-1.6h-0.9v1.4h-0.6v-1.4h-1.3V43.7z"/>
		<path class="st0" d="M180.9,49.2l-3.4,1.3v-0.7l0.8-0.3v-1.3l-0.8-0.3v-0.7l3.4,1.3V49.2z M178.9,48.4v0.8l1.1-0.4L178.9,48.4z"/>
		<path class="st0" d="M180.9,53.9v0.7l-2.1-1.2h-1.3v-0.7h1.3l2.1-1.2v0.8l-1.4,0.8L180.9,53.9z"/>
		<path class="st0" d="M180.9,58.5h-0.6v-1.6h-0.7v1.5H179v-1.5h-0.8v1.6h-0.6v-2.3h3.4L180.9,58.5z"/>
		<path class="st0" d="M180.9,60.1V63h-0.6v-1.1h-2.8v-0.7h2.8v-1.1H180.9z"/>
		<path class="st0" d="M180.9,64.4v2.9h-0.6v-1.1h-2.8v-0.7h2.8v-1.1H180.9z"/>
		<path class="st0" d="M180.9,71.3h-0.6v-1.6h-0.7v1.5H179v-1.5h-0.8v1.6h-0.6V69h3.4L180.9,71.3z"/>
		<path class="st0" d="M178.5,75.9c-0.3,0.1-0.5,0.4-0.4,0.7c0,0.3,0.2,0.6,0.4,0.6s0.3-0.1,0.4-0.4l0.1-0.6c0-0.5,0.4-0.9,0.9-0.8
			c0.6,0,1,0.6,1,1.1c0,0,0,0,0,0.1c0.1,0.6-0.4,1.2-1,1.3v-0.7c0.3-0.1,0.4-0.4,0.4-0.6c0-0.3-0.2-0.5-0.4-0.5s-0.3,0.1-0.4,0.4
			l-0.1,0.6c-0.1,0.6-0.4,0.9-0.9,0.9c-0.6,0-1.1-0.5-1.1-1.2c0,0,0-0.1,0-0.1c-0.1-0.7,0.4-1.3,1-1.4L178.5,75.9L178.5,75.9z"/>
		<path class="st0" d="M180.9,79.3v2.9h-0.6v-1.1h-2.8v-0.7h2.8v-1.1H180.9z"/>
		<path class="st0" d="M112.4,39.3h0.7v2.8h1.6v0.6h-2.3V39.3z"/>
		<path class="st0" d="M118.6,39.3v0.6H117v0.7h1.4v0.6H117v0.8h1.6v0.6h-2.3v-3.4H118.6z"/>
		<path class="st0" d="M121.6,42.7c-1,0.1-1.8-0.6-1.9-1.6c-0.1-1,0.6-1.8,1.6-1.9c1-0.1,1.8,0.6,1.9,1.6c0,0.1,0,0.1,0,0.2
			c0.1,0.9-0.6,1.7-1.5,1.7C121.7,42.7,121.7,42.7,121.6,42.7z M121.6,39.9c-0.5,0-0.9,0.5-0.9,1.1s0.3,1.1,0.9,1.1s0.9-0.5,0.9-1.1
			S122.2,39.9,121.6,39.9z"/>
		<path class="st0" d="M127.7,42.7h-0.6l-1.6-2.2v2.2h-0.7v-3.4h0.7l1.5,2.1v-2.1h0.7L127.7,42.7z"/>
		<path class="st0" d="M131.2,39.3l1.3,3.4h-0.7l-0.3-0.8h-1.3l-0.3,0.8h-0.7l1.3-3.4H131.2z M130.4,41.3h0.8l-0.4-1.1L130.4,41.3z"
			/>
		<path class="st0" d="M134.6,41.4v1.3H134v-3.4h1.4c0.6-0.1,1.1,0.3,1.2,0.9c0,0.1,0,0.1,0,0.2c0,0.5-0.3,0.9-0.8,1l0.9,1.3h-0.8
			l-0.9-1.3H134.6z M134.6,40.8h0.6c0.4,0,0.5-0.2,0.5-0.5s-0.2-0.5-0.5-0.5h-0.6V40.8z"/>
		<path class="st0" d="M138.1,39.3h1.2c0.9,0,1.7,0.8,1.7,1.7c0,0.9-0.8,1.7-1.7,1.7h-1.2V39.3z M139.3,42.1c0.6,0,1.1-0.5,1.1-1.1
			c0-0.6-0.5-1.1-1.1-1.1h-0.5v2.1H139.3z"/>
		<path class="st0" d="M145.4,41.7c0.1,0.3,0.4,0.5,0.7,0.4c0.3,0,0.6-0.2,0.6-0.4s-0.1-0.3-0.4-0.4l-0.6-0.1
			c-0.5-0.1-0.9-0.4-0.9-0.9c0-0.6,0.6-1,1.2-1c0,0,0,0,0,0c0.6-0.1,1.2,0.4,1.3,1h-0.7c-0.1-0.3-0.3-0.4-0.6-0.4
			c-0.3,0-0.5,0.2-0.5,0.4s0.1,0.3,0.4,0.4l0.6,0.1c0.6,0.1,0.9,0.4,0.9,1c0,0.7-0.5,1-1.2,1c-0.7,0.1-1.3-0.4-1.4-1L145.4,41.7z"/>
		<path class="st0" d="M148.6,39.3h2.9v0.6h-1.1v2.8h-0.7v-2.8h-1.1V39.3z"/>
		<path class="st0" d="M109.9,74.6c0.7,0,1.3,0.4,1.4,1.1h-0.7c-0.1-0.3-0.4-0.5-0.7-0.5c-0.5,0-0.8,0.5-0.8,1.1s0.3,1.1,0.8,1.1
			c0.3,0,0.6-0.2,0.7-0.5h0.7c-0.1,0.7-0.7,1.2-1.4,1.1c-1-0.1-1.7-1-1.6-1.9C108.4,75.3,109.1,74.6,109.9,74.6L109.9,74.6z"/>
		<path class="st0" d="M114.7,74.6l1.3,3.4h-0.7l-0.3-0.8h-1.3l-0.3,0.8h-0.7l1.3-3.4H114.7z M113.9,76.6h0.8l-0.4-1.1L113.9,76.6z"
			/>
		<path class="st0" d="M117,74.6h2.9v0.6h-1.1V78h-0.7v-2.8H117V74.6z"/>
		<path class="st0" d="M124.5,74.6V78h-0.7v-1.4h-1.5V78h-0.7v-3.4h0.7v1.3h1.5v-1.3H124.5z"/>
		<path class="st0" d="M128.7,74.6v0.6h-1.6V76h1.5v0.6h-1.4v0.8h1.6V78h-2.3v-3.4H128.7z"/>
		<path class="st0" d="M131.1,76.7V78h-0.7v-3.4h1.4c0.5-0.1,1.1,0.2,1.2,0.8c0,0.1,0,0.2,0,0.3c0,0.5-0.3,0.9-0.8,1l0.9,1.3h-0.8
			l-0.8-1.3L131.1,76.7z M131.1,76.1h0.6c0.4,0,0.5-0.2,0.5-0.5s-0.2-0.5-0.5-0.5h-0.6V76.1z"/>
		<path class="st0" d="M135.4,78h-0.7v-3.4h0.7V78z"/>
		<path class="st0" d="M140.1,78h-0.6l-1.6-2.3V78h-0.7v-3.4h0.7l1.5,2.1v-2.1h0.7L140.1,78z"/>
		<path class="st0" d="M144.2,74.6v0.6h-1.6V76h1.4v0.6h-1.4v0.8h1.6V78H142v-3.4H144.2z"/>
		<path class="st0" d="M148.4,74.6h0.7v2.8h1.6V78h-2.3V74.6z"/>
		<path class="st0" d="M155.2,78h-0.6l-1.6-2.2V78h-0.7v-3.4h0.6l1.5,2.1v-2.1h0.7L155.2,78L155.2,78z"/>
	</g>
	<g id="Layer_4">
		<g>
			<defs>
				<rect id="SVGID_1_" x="7.1" y="5" width="67.3" height="74"/>
			</defs>
			<clipPath id="SVGID_2_">
				<use xlink:href="#SVGID_1_"  style="overflow:visible;"/>
			</clipPath>
			<g class="st1">
				<g class="st2">
					<path class="st3" d="M13.2,56.8l0.5,0.3l-2,1.3l1.1,0.7l-0.4,0.3l-1.6-1L13.2,56.8z"/>
					<path class="st3" d="M17.8,59.6l-0.4,0.3l-1.1-0.7l-0.5,0.3l1,0.6l-0.4,0.3l-1-0.6l-0.6,0.4l1.1,0.7l-0.4,0.3l-1.6-1l2.4-1.6
						L17.8,59.6z"/>
					<path class="st3" d="M17.7,62.7c-0.7-0.4-0.6-1.1,0.1-1.5c0.7-0.5,1.7-0.5,2.4-0.1s0.6,1.1-0.1,1.5
						C19.4,63,18.4,63.1,17.7,62.7z M19.8,61.3c-0.4-0.2-1-0.2-1.4,0.1c-0.5,0.3-0.5,0.7-0.2,0.9c0.4,0.2,1,0.2,1.4-0.1
						C20.1,62,20.1,61.6,19.8,61.3z"/>
					<path class="st3" d="M22.2,65.4l-0.4-0.2l0.5-1.8l-1.6,1l-0.5-0.3l2.4-1.6l0.5,0.3l-0.4,1.7l1.5-1l0.5,0.3L22.2,65.4z"/>
					<path class="st3" d="M27.3,65.5l-1.5,2.1l-0.5-0.3l0.4-0.5l-0.9-0.6L24,66.5l-0.5-0.3l3.3-1L27.3,65.5z M25.3,66.1l0.6,0.4
						l0.5-0.7L25.3,66.1z"/>
					<path class="st3" d="M28.4,68.2l-0.9,0.6L27,68.4l2.4-1.6l1,0.6c0.5,0.3,0.6,0.7,0.1,1c-0.4,0.2-0.8,0.3-1.3,0.1l-0.3,1
						l-0.6-0.4l0.3-1L28.4,68.2z M28.8,67.9l0.5,0.3c0.3,0.2,0.5,0.2,0.7,0c0.2-0.1,0.2-0.3,0-0.5l-0.5-0.3L28.8,67.9z"/>
					<path class="st3" d="M32.6,68.8l0.9,0.5c0.7,0.5,0.7,1,0,1.5c-0.7,0.5-1.7,0.5-2.4,0l-0.9-0.5L32.6,68.8z M31.5,70.6
						c0.5,0.3,1,0.3,1.5,0c0.5-0.3,0.5-0.7,0-0.9l-0.3-0.2l-1.5,1L31.5,70.6z"/>
				</g>
				<g class="st2">
					<path class="st3" d="M36.4,73.4c-0.1,0.2-0.1,0.4,0.2,0.5c0.2,0.2,0.5,0.2,0.7,0.1c0.1-0.1,0.1-0.2,0-0.4l-0.3-0.3
						c-0.3-0.3-0.4-0.6,0-0.8c0.4-0.3,1.1-0.3,1.6,0.1c0.6,0.3,0.6,0.7,0.3,1l-0.5-0.3c0.1-0.1,0.1-0.3-0.2-0.5
						c-0.2-0.1-0.5-0.2-0.7-0.1c-0.1,0.1-0.1,0.2,0,0.3l0.3,0.3c0.3,0.3,0.3,0.6,0,0.8c-0.5,0.3-1.1,0.2-1.6-0.1
						c-0.5-0.3-0.7-0.7-0.3-1.1L36.4,73.4z"/>
				</g>
				<g class="st2">
					<path class="st3" d="M40.6,73.8l2.1,1.3l-0.4,0.3l-0.8-0.5l-2,1.3L39,75.9l2-1.3l-0.8-0.5L40.6,73.8z"/>
				</g>
				<line class="st4" x1="61.1" y1="46.9" x2="61.1" y2="43.4"/>
				<line class="st4" x1="14.9" y1="19.2" x2="14.9" y2="16.3"/>
				<line class="st4" x1="24.5" y1="22.9" x2="24.5" y2="24.5"/>
				<line class="st4" x1="20.3" y1="20.5" x2="20.3" y2="22.1"/>
				<line class="st4" x1="25.6" y1="22.3" x2="25.6" y2="23.9"/>
				<line class="st5" x1="25.7" y1="23.8" x2="24.5" y2="24.5"/>
				<line class="st5" x1="25.6" y1="22.3" x2="24.5" y2="23"/>
				<line class="st5" x1="54.8" y1="36" x2="50.2" y2="38.8"/>
				<line class="st5" x1="58.4" y1="38.9" x2="54.4" y2="41.2"/>
				<line class="st4" x1="31.2" y1="25.5" x2="31.2" y2="27.1"/>
				<line class="st5" x1="35.2" y1="24.2" x2="54" y2="36.6"/>
				<line class="st5" x1="54.8" y1="36" x2="58.4" y2="38.4"/>
				<line class="st5" x1="35.2" y1="23.7" x2="54.3" y2="36.3"/>
				<line class="st5" x1="12.6" y1="18.2" x2="14.6" y2="19.4"/>
				<line class="st5" x1="20.3" y1="20.5" x2="24.5" y2="22.9"/>
				<line class="st5" x1="25.7" y1="22.3" x2="31.3" y2="25.6"/>
				<line class="st5" x1="25.6" y1="23.8" x2="31.2" y2="27.1"/>
				<line class="st5" x1="50.2" y1="38.8" x2="54.4" y2="41.2"/>
				<line class="st4" x1="61.1" y1="36.9" x2="61.1" y2="35.2"/>
				<polyline class="st4" points="54,44.5 53.3,44 52.5,44.5 16,23.4 16,21.6 				"/>
				<polyline class="st4" points="25.2,17.6 21.6,15.3 13.4,20.1 52.5,42.8 				"/>
				<line class="st4" x1="52.5" y1="42.8" x2="52.5" y2="44.5"/>
				<line class="st4" x1="53.3" y1="42.2" x2="52.5" y2="42.7"/>
				<polyline class="st4" points="53.3,44 53.3,42.2 50.2,40.4 				"/>
				<line class="st4" x1="61.2" y1="50.2" x2="61.2" y2="48.2"/>
				<polyline class="st4" points="65.5,42.7 67.8,44.3 67.8,46.3 61.2,50.2 54,46 54,44.1 56.9,42.4 				"/>
				<polyline class="st4" points="67.8,44.3 61.2,48.2 54,44.1 				"/>
				<polyline class="st5" points="14.1,20.5 14.1,21.5 16,22.6 				"/>
				<line class="st5" x1="20.3" y1="22.1" x2="24.5" y2="24.5"/>
				<line class="st5" x1="50.2" y1="40.4" x2="50.2" y2="38.8"/>
				<line class="st5" x1="54.4" y1="43.8" x2="54.4" y2="41.2"/>
				<polyline class="st5" points="63.9,36.1 61.1,37.7 58.4,36.1 				"/>
				<polyline class="st4" points="63.9,39.6 64.2,39.8 64.2,41 61.1,42.7 58.1,41 58.1,39.9 58.4,39.7 				"/>
				<line class="st4" x1="61.1" y1="42.7" x2="61.1" y2="37.7"/>
				<polyline class="st4" points="64.2,40.1 65.5,40.9 65.5,44.4 61.1,46.9 56.9,44.5 56.9,41 58.1,40.3 				"/>
				<polyline class="st4" points="65.5,40.9 61.1,43.4 56.9,41 				"/>
				<polyline class="st4" points="12.6,18.2 8.5,20.6 8.5,49.7 				"/>
				<polyline class="st4" points="17.2,15.5 20.1,13.8 25.6,17.4 				"/>
				<line class="st4" x1="61.1" y1="51.2" x2="61.1" y2="77.4"/>
				<line class="st4" x1="61.1" y1="77.4" x2="33" y2="61.1"/>
				<polyline class="st4" points="69.1,50.9 61.1,55.5 8.5,25.1 				"/>
				<polyline class="st4" points="69.1,53.1 61.1,57.7 8.5,27.2 				"/>
				<polyline class="st4" points="69.1,55.3 61.1,59.9 8.5,29.4 				"/>
				<polyline class="st4" points="69.1,57.5 61.1,62.1 8.5,31.6 				"/>
				<polyline class="st4" points="69.1,59.7 61.1,64.3 8.5,33.8 				"/>
				<polyline class="st4" points="69.1,61.8 61.1,66.5 8.5,36 				"/>
				<polyline class="st4" points="69.1,64 61.1,68.7 8.5,38.2 				"/>
				<polyline class="st4" points="69.1,66.2 61.1,70.8 8.5,40.4 				"/>
				<line class="st4" x1="69.1" y1="68.4" x2="67.2" y2="69.5"/>
				<polyline class="st4" points="63,71.9 61.1,73 8.5,42.6 				"/>
				<line class="st4" x1="67.2" y1="71.7" x2="69.1" y2="70.6"/>
				<polyline class="st4" points="63,74.1 61.1,75.2 8.5,44.8 				"/>
				<polyline class="st4" points="69.1,48.7 61.1,53.3 8.5,22.9 				"/>
				<line class="st4" x1="30.8" y1="59.8" x2="8.5" y2="46.9"/>
				<polyline class="st5" points="13.8,14.3 12.6,15 12.6,18.2 				"/>
				<polyline class="st5" points="16.1,14.3 17.2,15 17.2,17.8 				"/>
				<polyline class="st5" points="12.6,15 14.9,16.3 17.2,14.9 				"/>
				<polyline class="st4" points="62.1,33.9 62.7,34.3 62.7,36 61.1,36.9 59.5,36 59.5,34.3 60.3,33.8 				"/>
				<polyline class="st5" points="62.7,34.3 61.1,35.2 59.5,34.3 				"/>
				<g>
					<defs>
						<rect id="SVGID_3_" x="7.2" y="5" width="67.1" height="74"/>
					</defs>
					<clipPath id="SVGID_4_">
						<use xlink:href="#SVGID_3_"  style="overflow:visible;"/>
					</clipPath>
					<g class="st6">
						<path class="st4" d="M59.7,32.5c0,0.1-0.2,0.2-0.2,0.2l0.1,0.3c0.1,0.1,0.5,0.2,1,0.1s1.8-0.8,1.9-1.5l-0.2-0.4
							c-0.1,0-0.3,0-0.4,0"/>
					</g>
				</g>
				<polyline class="st4" points="60.2,30.1 61,30.5 61.3,30.4 61.9,29.6 				"/>
				<g>
					<defs>
						<rect id="SVGID_5_" x="7.2" y="5" width="67.1" height="74"/>
					</defs>
					<clipPath id="SVGID_6_">
						<use xlink:href="#SVGID_5_"  style="overflow:visible;"/>
					</clipPath>
					<g class="st7">
						<path class="st4" d="M62.4,31.9c0,0.2,0,0.4,0,0.6c-0.2,0.8-0.9,1.2-1.6,1.1c-0.3-0.1-0.5-0.2-0.7-0.4l0-0.1"/>
						<path class="st4" d="M59.8,32.8c0-0.1-0.1-0.2-0.1-0.3c-0.1-0.8,0.4-1.5,1.1-1.6c0,0,0,0,0,0c0.4-0.1,0.9,0.1,1.2,0.4
							c0.1,0.1,0.2,0.2,0.2,0.3"/>
						<path class="st4" d="M60.5,38.7c0.2,0.7,0,1.2-0.4,1.2s-1-0.5-1.2-1.2s0-1.2,0.4-1.2S60.3,38.1,60.5,38.7z"/>
						<path class="st4" d="M61.7,38.8c-0.2,0.7,0,1.2,0.4,1.2s1-0.5,1.2-1.2s0-1.2-0.4-1.2S61.9,38.1,61.7,38.8z"/>
						<path class="st8" d="M62.1,34c0,0,0-0.1,0-0.2c0,0,0-0.1-0.1-0.1c-0.1,0-0.2,0-0.2,0v-0.1l0.1-0.3"/>
						<path class="st5" d="M61.4,34c0,0.1,0,0.1,0.1,0.2s0.2,0.1,0.3,0"/>
					</g>
				</g>
				<polyline class="st5" points="60.7,34.5 60.7,34.4 60.8,34.1 60.8,34 60.5,33.9 60.2,33.7 60.3,33.4 				"/>
				<polyline class="st4" points="59.5,35.5 58.4,36.1 58.4,39.8 61.1,41.4 63.9,39.8 63.9,36.1 62.7,35.4 				"/>
				<g>
					<defs>
						<rect id="SVGID_7_" x="7.2" y="5" width="67.1" height="74"/>
					</defs>
					<clipPath id="SVGID_8_">
						<use xlink:href="#SVGID_7_"  style="overflow:visible;"/>
					</clipPath>
					<g class="st9">
						<path class="st5" d="M14.8,13.1c-0.6,0.1-1,0.6-0.9,1.2V15c0,0.3,0.5,0.6,1.1,0.6s1.1-0.3,1.1-0.6v-0.8c0-0.6-0.4-1.1-1-1.2
							v-0.1c0-0.1-0.1-0.1-0.2-0.1s-0.2,0.1-0.2,0.1L14.8,13.1z"/>
					</g>
				</g>
				<polyline class="st4" points="69.1,46.5 61.1,51.2 8.5,20.7 				"/>
				<polyline class="st4" points="33,61.5 31.5,60.6 30.1,61.4 32,62.5 33,62 				"/>
				<line class="st4" x1="33" y1="61.5" x2="31.5" y2="60.6"/>
				<line class="st4" x1="33" y1="62.8" x2="32.3" y2="62.4"/>
				<g>
					<defs>
						<rect id="SVGID_9_" x="7.2" y="5" width="67.1" height="74"/>
					</defs>
					<clipPath id="SVGID_10_">
						<use xlink:href="#SVGID_9_"  style="overflow:visible;"/>
					</clipPath>
					<g class="st10">
						<path class="st4" d="M31.8,58.9c-0.2,0.2-0.3,0.4-0.3,0.6v1.1"/>
					</g>
				</g>
				<polyline class="st4" points="31.2,62.1 30.8,62.3 8.5,49.7 				"/>
				<line class="st4" x1="30.8" y1="62.3" x2="30.8" y2="61.8"/>
				<g>
					<defs>
						<rect id="SVGID_11_" x="7.2" y="5" width="67.1" height="74"/>
					</defs>
					<clipPath id="SVGID_12_">
						<use xlink:href="#SVGID_11_"  style="overflow:visible;"/>
					</clipPath>
					<g class="st11">
						<path class="st4" d="M67.2,73.8v-4.2L63,72v4.4l-1.9,1.1L47,70.7L35.6,65L33,63.5v-3c-0.1-0.7-0.5-1.3-1.1-1.6
							c-0.3-0.2-0.8-0.1-1,0.2c-0.1,0.1-0.1,0.3-0.1,0.4V61"/>
					</g>
				</g>
				<polyline class="st4" points="64.2,74.2 64.2,73.1 63.5,73.4 63.5,74.6 				"/>
				<g>
					<defs>
						<rect id="SVGID_13_" x="7.2" y="5" width="67.1" height="74"/>
					</defs>
					<clipPath id="SVGID_14_">
						<use xlink:href="#SVGID_13_"  style="overflow:visible;"/>
					</clipPath>
					<g class="st12">
						<path class="st4" d="M67.8,45.7l1.2,0.8v26.2l-1.9,1.1c-0.9-0.3-1.9-0.2-2.8,0.2l-1,0.6c-0.2,0.1-0.3,0.2-0.4,0.3"/>
					</g>
				</g>
				<polyline class="st5" points="31.2,27.1 35.2,24.8 35.2,23.3 26,17.2 20.3,20.5 				"/>
				<line class="st5" x1="35.2" y1="23.3" x2="31.3" y2="25.5"/>
				<g>
					<defs>
						<rect id="SVGID_15_" x="7.2" y="5" width="67.1" height="74"/>
					</defs>
					<clipPath id="SVGID_16_">
						<use xlink:href="#SVGID_15_"  style="overflow:visible;"/>
					</clipPath>
					<g class="st13">
						<g class="st2">
							<path class="st3" d="M156.4,51.5c0.6,0.4,0.5,0.8,0.1,1.2l-0.5-0.3c0.1-0.2,0.1-0.4-0.1-0.6c-0.4-0.3-0.9-0.2-1.4,0.1
								c-0.5,0.3-0.6,0.6-0.2,0.9c0.3,0.2,0.6,0.2,0.9,0.1l0.5,0.3c-0.6,0.2-1.3,0.2-1.8-0.2c-0.6-0.4-0.6-1.1,0.2-1.5
								C154.8,51,155.8,51.1,156.4,51.5z"/>
						</g>
						<g class="st2">
							<path class="st3" d="M159.7,53.8l-1.6,2l-0.5-0.3l0.4-0.5l-0.9-0.6l-0.8,0.2l-0.5-0.3l3.3-0.8L159.7,53.8z M157.8,54.3
								l0.6,0.4l0.5-0.7L157.8,54.3z"/>
						</g>
						<g class="st2">
							<path class="st3" d="M161.5,55l2,1.4l-0.4,0.3l-0.8-0.5l-2,1.2l-0.5-0.3l2-1.2l-0.7-0.5L161.5,55z"/>
							<path class="st3" d="M166.7,58.7l-2.4,1.4l-0.5-0.3l1-0.6l-1.1-0.7l-1,0.6l-0.5-0.3l2.4-1.4l0.5,0.3l-1,0.6l1.1,0.7l1-0.6
								L166.7,58.7z"/>
							<path class="st3" d="M169.6,60.7l-0.4,0.3l-1.1-0.8l-0.5,0.3l1,0.7l-0.4,0.3l-1-0.7l-0.6,0.3l1.1,0.8l-0.5,0.3l-1.6-1.1
								l2.4-1.4L169.6,60.7z"/>
							<path class="st3" d="M169.9,62.8l-0.9,0.5l-0.5-0.3l2.4-1.4l1,0.7c0.5,0.3,0.5,0.7,0,1c-0.4,0.2-0.8,0.2-1.3,0l-0.3,1
								l-0.5-0.4l0.3-0.9L169.9,62.8z M170.3,62.6l0.4,0.3c0.2,0.2,0.5,0.2,0.7,0.1c0.2-0.1,0.2-0.3,0-0.5l-0.4-0.3L170.3,62.6z"/>
							<path class="st3" d="M172,65.5l-0.5-0.3l2.4-1.4l0.5,0.3L172,65.5z"/>
							<path class="st3" d="M175.3,67.8l-0.4-0.3l0.5-1.7l-1.6,0.9l-0.5-0.3l2.4-1.4l0.5,0.3l-0.5,1.6l1.5-0.9l0.5,0.3L175.3,67.8z"
								/>
							<path class="st3" d="M180.7,68.4l-0.4,0.3l-1.1-0.8l-0.5,0.3l1,0.7l-0.4,0.3l-1-0.7l-0.6,0.3l1.1,0.8l-0.5,0.3l-1.6-1.1
								l2.4-1.4L180.7,68.4z"/>
							<path class="st3" d="M183.7,70.5l0.5,0.3l-2,1.2l1.1,0.8l-0.5,0.3l-1.6-1.1L183.7,70.5z"/>
						</g>
						<g class="st2">
							<path class="st3" d="M186,75.2l-0.4-0.3l0.5-1.7l-1.6,0.9l-0.5-0.3l2.4-1.4l0.5,0.3l-0.5,1.6l1.5-0.9l0.5,0.3L186,75.2z"/>
						</g>
						<path class="st5" d="M206.9,72.5v-0.9c0-0.2-0.2-0.5-0.6-0.3c-0.3,0.2-0.5,0.5-0.5,0.8v1l-5.2,3.1l-6.9-4.8l-8.7-5.9l-7.3-5
							l-10.8-7.4L151.5,42V15.5l1.1-0.6"/>
						<path class="st5" d="M158.3,7.8c0.2,0.7,0.1,1.2-0.4,1.2s-1-0.5-1.2-1.2s-0.1-1.2,0.4-1.2S158,7.1,158.3,7.8z"/>
						<path class="st5" d="M159.4,7.8c-0.2,0.7,0,1.2,0.4,1.2s1-0.5,1.2-1.2s0.1-1.2-0.4-1.2S159.7,7.1,159.4,7.8z"/>
						<path class="st5" d="M157.4,1.5c-0.1,0.1-0.1,0.2-0.2,0.2l0.1,0.2c0.1,0.1,0.4,0.2,1,0.1s1.8-0.8,1.9-1.5L160,0.3
							c-0.1,0-0.3,0-0.4,0"/>
						<path class="st5" d="M160.1,1c0,0.2,0,0.4,0,0.6c-0.2,0.7-0.9,1.2-1.6,1.1c0,0,0,0,0,0c-0.3-0.1-0.5-0.2-0.7-0.4h-0.1"/>
						<path class="st5" d="M157.5,1.8c0-0.1-0.1-0.2-0.1-0.3c-0.1-0.8,0.4-1.5,1.2-1.6c0.4-0.1,0.9,0.1,1.2,0.4
							c0.1,0.1,0.2,0.2,0.2,0.3"/>
						<path class="st5" d="M159.8,3c0,0,0-0.1,0-0.2c0,0,0-0.1-0.1-0.1c-0.1,0-0.2,0-0.2,0v0l0.1-0.3"/>
						<path class="st5" d="M159.1,3c0,0.1,0,0.1,0.1,0.2s0.1,0.1,0.3,0"/>
					</g>
				</g>
				<polygon class="st14" points="46.8,49.5 46.8,58.3 54,62.4 54,53.6 				"/>
				<polygon class="st14" points="46.8,45.2 46.8,47.3 54,51.4 54,49.3 				"/>
				<line class="st15" x1="46.8" y1="51.6" x2="54" y2="55.8"/>
				<line class="st15" x1="46.8" y1="53.8" x2="54" y2="58"/>
				<line class="st15" x1="46.8" y1="56" x2="54" y2="60.2"/>
			</g>
		</g>
	</g>
	<g id="Layer_3">
		<polygon class="st14" points="104.3,52.7 104.3,54 104.4,54 104.4,54.6 104.3,54.6 104.3,55.9 108.2,55.9 108.2,57.4 108.9,57.4 
			108.9,57.3 109.9,57.3 109.9,57.4 111.1,57.4 111.1,57.3 114.1,57.3 114.1,51.6 104.3,51.6 		"/>
		<g>
			<defs>
				<rect id="SVGID_17_" x="93.2" y="50.5" width="77.1" height="17.4"/>
			</defs>
			<clipPath id="SVGID_18_">
				<use xlink:href="#SVGID_17_"  style="overflow:visible;"/>
			</clipPath>
			<g class="st16">
				<polygon class="st17" points="168.5,51.6 168.5,66.7 94.2,62.1 94.2,51.6 				"/>
			</g>
		</g>
	</g>
</g>
</svg>
