<?xml version="1.0" encoding="utf-8"?>
<!-- Generator: Adobe Illustrator 16.0.4, SVG Export Plug-In . SVG Version: 6.00 Build 0)  -->
<!DOCTYPE svg PUBLIC "-//W3C//DTD SVG 1.1//EN" "http://www.w3.org/Graphics/SVG/1.1/DTD/svg11.dtd">
<svg version="1.1" id="Layer_1" xmlns="http://www.w3.org/2000/svg" xmlns:xlink="http://www.w3.org/1999/xlink" x="0px" y="0px"
	 width="240.833px" height="93.807px" viewBox="-94.833 88.806 240.833 93.807"
	 enable-background="new -94.833 88.806 240.833 93.807" xml:space="preserve">
<g>
	<defs>
		<rect id="SVGID_1_" x="-70" y="-381.24" width="1224" height="792"/>
	</defs>
	<clipPath id="SVGID_2_">
		<use xlink:href="#SVGID_1_"  overflow="visible"/>
	</clipPath>
	<g clip-path="url(#SVGID_2_)" enable-background="new    ">
		<path fill="#D1D3D4" d="M6.869,128.277c-0.792,0-1.219-0.546-1.219-1.442v-1.786h4.301v1.646c0,0.896-0.399,1.449-1.17,1.449
			c-0.463,0-0.799-0.252-0.911-0.567C7.737,127.983,7.338,128.277,6.869,128.277z M6.407,125.91v0.848
			c0,0.42,0.21,0.645,0.539,0.645c0.336,0,0.539-0.225,0.539-0.645v-0.848H6.407z M8.186,126.638c0,0.428,0.168,0.651,0.512,0.651
			c0.343,0,0.497-0.224,0.497-0.651v-0.729H8.186V126.638z"/>
		<path fill="#D1D3D4" d="M7.254,130.802H5.65v-0.889h4.301v1.771c0,0.904-0.483,1.506-1.366,1.506c-0.687,0-1.12-0.378-1.268-0.98
			l-1.667,1.135v-1.009l1.604-1.064V130.802z M7.989,130.802v0.827c0,0.448,0.238,0.679,0.596,0.679c0.364,0,0.603-0.23,0.603-0.679
			v-0.827H7.989z"/>
	</g>
	<g enable-background="new    ">
		<path fill="#D1D3D4" d="M5.58,137.762c0-1.198,0.938-2.031,2.221-2.031c1.288,0,2.22,0.833,2.22,2.031
			c0,1.197-0.932,2.038-2.22,2.038C6.519,139.801,5.58,138.96,5.58,137.762z M9.223,137.762c0-0.68-0.582-1.12-1.422-1.12
			c-0.841,0-1.422,0.44-1.422,1.12c0,0.687,0.581,1.134,1.422,1.134C8.641,138.896,9.223,138.449,9.223,137.762z"/>
	</g>
	<g enable-background="new    ">
		<path fill="#D1D3D4" d="M9.951,143.985l-4.301,1.646v-0.91l1.036-0.385v-1.611l-1.036-0.379v-0.896l4.301,1.646V143.985z
			 M7.443,143.004v1.051l1.429-0.525L7.443,143.004z"/>
	</g>
	<g enable-background="new    ">
		<path fill="#D1D3D4" d="M9.951,147.679v1.52c0,1.303-0.841,2.123-2.15,2.123s-2.15-0.82-2.15-2.123v-1.52H9.951z M6.441,149.164
			c0,0.82,0.525,1.268,1.359,1.268c0.84,0,1.365-0.447,1.365-1.268v-0.595H6.441V149.164z"/>
	</g>
	<g enable-background="new    ">
		<path fill="#D1D3D4" d="M9.951,156.144l-2.893,0.742l2.893,0.708v0.882l-4.301-1.12v-0.819l2.837-0.757l-2.837-0.757v-0.818
			l4.301-1.121v0.903l-2.893,0.7l2.893,0.757V156.144z"/>
	</g>
	<g enable-background="new    ">
		<path fill="#D1D3D4" d="M9.951,162.478l-4.301,1.646v-0.91l1.036-0.386v-1.61L5.65,160.84v-0.896l4.301,1.646V162.478z
			 M7.443,161.498v1.051l1.429-0.525L7.443,161.498z"/>
	</g>
	<g enable-background="new    ">
		<path fill="#D1D3D4" d="M9.951,168.402v0.945l-2.669-1.562H5.65v-0.889h1.632l2.669-1.548v0.974l-1.821,1.043L9.951,168.402z"/>
	</g>
</g>
<g>
	<defs>
		<rect id="SVGID_3_" x="-70" y="-381.24" width="1224" height="792"/>
	</defs>
	<clipPath id="SVGID_4_">
		<use xlink:href="#SVGID_3_"  overflow="visible"/>
	</clipPath>
	<g clip-path="url(#SVGID_4_)" enable-background="new    ">
		<path fill="#D1D3D4" d="M140.375,117.153v0.896h-3.51v2.003h-0.791v-2.899H140.375z"/>
	</g>
	<g enable-background="new    ">
		<path fill="#D1D3D4" d="M140.375,124.476l-4.301,1.646v-0.91l1.036-0.386v-1.61l-1.036-0.378v-0.896l4.301,1.646V124.476z
			 M137.867,123.496v1.051l1.429-0.525L137.867,123.496z"/>
	</g>
	<g enable-background="new    ">
		<path fill="#D1D3D4" d="M136.074,128.177h4.301v2.865h-0.785v-1.976h-1.093v1.828h-0.777v-1.828h-1.646V128.177z"/>
	</g>
	<g enable-background="new    ">
		<path fill="#D1D3D4" d="M140.375,135.179l-4.301,1.646v-0.91l1.036-0.386v-1.61l-1.036-0.378v-0.896l4.301,1.646V135.179z
			 M137.867,134.199v1.051l1.429-0.525L137.867,134.199z"/>
	</g>
	<g enable-background="new    ">
		<path fill="#D1D3D4" d="M140.375,141.108v0.945l-2.669-1.562h-1.632v-0.89h1.632l2.669-1.548v0.974l-1.821,1.044L140.375,141.108z
			"/>
		<path fill="#D1D3D4" d="M140.375,146.457h-0.785v-2.039h-0.938v1.85h-0.763v-1.85h-1.023v2.039h-0.791v-2.922h4.301V146.457z"/>
		<path fill="#D1D3D4" d="M140.375,147.91v3.67h-0.785v-1.387h-3.516v-0.902h3.516v-1.381H140.375z"/>
		<path fill="#D1D3D4" d="M140.375,152.929v3.67h-0.785v-1.387h-3.516v-0.903h3.516v-1.38H140.375z"/>
		<path fill="#D1D3D4" d="M140.375,161.099h-0.785v-2.037h-0.938v1.848h-0.763v-1.848h-1.023v2.037h-0.791v-2.92h4.301V161.099z"/>
	</g>
	<g enable-background="new    ">
		<path fill="#D1D3D4" d="M137.3,169.17c-0.378,0.119-0.554,0.436-0.554,0.855c0,0.434,0.196,0.721,0.54,0.721
			c0.259,0,0.399-0.154,0.483-0.525l0.175-0.77c0.14-0.617,0.469-1.094,1.177-1.094c0.777,0,1.323,0.645,1.323,1.549
			c0,0.98-0.518,1.547-1.246,1.688v-0.89c0.287-0.098,0.511-0.343,0.511-0.791c0-0.406-0.196-0.68-0.504-0.68
			c-0.245,0-0.393,0.161-0.47,0.483l-0.182,0.785c-0.161,0.699-0.561,1.127-1.212,1.127c-0.833,0-1.338-0.687-1.338-1.597
			c0-0.96,0.477-1.64,1.296-1.786V169.17z"/>
	</g>
	<g enable-background="new    ">
		<path fill="#D1D3D4" d="M140.375,173.488v3.67h-0.785v-1.387h-3.516v-0.904h3.516v-1.379H140.375z"/>
	</g>
</g>
<g>
	<defs>
		<rect id="SVGID_5_" x="-70" y="-381.24" width="1224" height="792"/>
	</defs>
	<clipPath id="SVGID_6_">
		<use xlink:href="#SVGID_5_"  overflow="visible"/>
	</clipPath>
	<g clip-path="url(#SVGID_6_)" enable-background="new    ">
		<path fill="#D1D3D4" d="M48.33,117.437h0.896v3.51h2.003v0.791h-2.9V117.437z"/>
		<path fill="#D1D3D4" d="M55.794,117.437v0.785h-2.038v0.938h1.849v0.763h-1.849v1.023h2.038v0.791h-2.921v-4.301H55.794z"/>
	</g>
	<g enable-background="new    ">
		<path fill="#D1D3D4" d="M60.112,121.808c-1.198,0-2.031-0.938-2.031-2.221c0-1.288,0.833-2.22,2.031-2.22
			c1.197,0,2.038,0.932,2.038,2.22C62.15,120.87,61.31,121.808,60.112,121.808z M60.112,118.166c-0.68,0-1.121,0.582-1.121,1.422
			c0,0.841,0.441,1.422,1.121,1.422c0.686,0,1.134-0.581,1.134-1.422C61.247,118.748,60.798,118.166,60.112,118.166z"/>
	</g>
	<g enable-background="new    ">
		<path fill="#D1D3D4" d="M67.764,121.738h-0.708l-2.031-2.864v2.864h-0.862v-4.301h0.841l1.898,2.718v-2.718h0.861V121.738z"/>
	</g>
	<g enable-background="new    ">
		<path fill="#D1D3D4" d="M72.216,117.437l1.646,4.301h-0.91l-0.385-1.036h-1.611l-0.378,1.036H69.68l1.646-4.301H72.216z
			 M71.235,119.945h1.051l-0.525-1.429L71.235,119.945z"/>
	</g>
	<g enable-background="new    ">
		<path fill="#D1D3D4" d="M76.66,120.135v1.604h-0.89v-4.301h1.772c0.903,0,1.506,0.483,1.506,1.366c0,0.687-0.379,1.12-0.98,1.268
			l1.135,1.667h-1.01l-1.064-1.604H76.66z M76.66,119.399h0.826c0.448,0,0.68-0.238,0.68-0.596c0-0.364-0.231-0.603-0.68-0.603
			H76.66V119.399z"/>
		<path fill="#D1D3D4" d="M80.705,117.437h1.521c1.303,0,2.122,0.841,2.122,2.15s-0.819,2.15-2.122,2.15h-1.521V117.437z
			 M82.19,120.947c0.819,0,1.268-0.525,1.268-1.359c0-0.84-0.448-1.365-1.268-1.365h-0.595v2.725H82.19z"/>
	</g>
	<g enable-background="new    ">
		<path fill="#D1D3D4" d="M90.289,120.512c0.119,0.378,0.434,0.554,0.854,0.554c0.435,0,0.723-0.196,0.723-0.54
			c0-0.259-0.154-0.399-0.525-0.483l-0.771-0.175c-0.615-0.14-1.092-0.469-1.092-1.177c0-0.777,0.645-1.323,1.547-1.323
			c0.98,0,1.549,0.518,1.688,1.246h-0.89c-0.098-0.287-0.343-0.511-0.791-0.511c-0.406,0-0.68,0.196-0.68,0.504
			c0,0.245,0.161,0.393,0.483,0.47l0.784,0.182c0.701,0.161,1.128,0.561,1.128,1.212c0,0.833-0.687,1.338-1.597,1.338
			c-0.96,0-1.639-0.477-1.786-1.296H90.289z"/>
	</g>
	<g enable-background="new    ">
		<path fill="#D1D3D4" d="M94.467,117.437h3.67v0.785H96.75v3.516h-0.902v-3.516h-1.381V117.437z"/>
	</g>
</g>
<g>
	<defs>
		<rect id="SVGID_7_" x="-70" y="-381.24" width="1224" height="792"/>
	</defs>
	<clipPath id="SVGID_8_">
		<use xlink:href="#SVGID_7_"  overflow="visible"/>
	</clipPath>
	<g clip-path="url(#SVGID_8_)" enable-background="new    ">
		<path fill="#D1D3D4" d="M45.182,171.072c1.016,0,1.639,0.595,1.8,1.456h-0.89c-0.147-0.392-0.413-0.658-0.911-0.658
			c-0.686,0-1.092,0.603-1.092,1.422c0,0.812,0.406,1.422,1.092,1.422c0.498,0,0.764-0.266,0.911-0.665h0.89
			c-0.161,0.868-0.785,1.464-1.8,1.464c-1.148,0-2.003-0.903-2.003-2.221C43.179,171.975,44.033,171.072,45.182,171.072z"/>
	</g>
	<g enable-background="new    ">
		<path fill="#D1D3D4" d="M51.21,171.141l1.646,4.301h-0.91l-0.385-1.036h-1.611l-0.378,1.036h-0.896l1.646-4.301H51.21z
			 M50.229,173.649h1.051l-0.525-1.429L50.229,173.649z"/>
	</g>
	<g enable-background="new    ">
		<path fill="#D1D3D4" d="M54.232,171.141h3.67v0.785h-1.387v3.516h-0.903v-3.516h-1.38V171.141z"/>
	</g>
	<g enable-background="new    ">
		<path fill="#D1D3D4" d="M63.769,171.141v4.301h-0.896v-1.807h-1.947v1.807h-0.896v-4.301h0.896v1.709h1.947v-1.709H63.769z"/>
	</g>
	<g enable-background="new    ">
		<path fill="#D1D3D4" d="M69.046,171.141v0.785h-2.038v0.938h1.849v0.763h-1.849v1.023h2.038v0.791h-2.921v-4.301H69.046z"/>
		<path fill="#D1D3D4" d="M71.621,173.839v1.604h-0.89v-4.301h1.772c0.904,0,1.506,0.483,1.506,1.366c0,0.687-0.378,1.12-0.98,1.268
			l1.135,1.667h-1.009l-1.064-1.604H71.621z M71.621,173.103h0.827c0.448,0,0.679-0.238,0.679-0.596
			c0-0.364-0.231-0.603-0.679-0.603h-0.827V173.103z"/>
	</g>
	<g enable-background="new    ">
		<path fill="#D1D3D4" d="M77.654,175.442h-0.896v-4.301h0.896V175.442z"/>
	</g>
	<g enable-background="new    ">
		<path fill="#D1D3D4" d="M83.605,175.442h-0.707l-2.031-2.864v2.864h-0.861v-4.301h0.841l1.897,2.718v-2.718h0.861V175.442z"/>
		<path fill="#D1D3D4" d="M88.345,171.141v0.785h-2.038v0.938h1.849v0.763h-1.849v1.023h2.038v0.791h-2.921v-4.301H88.345z"/>
		<path fill="#D1D3D4" d="M92.508,171.141h0.896v3.51h2.004v0.791h-2.9V171.141z"/>
	</g>
	<g enable-background="new    ">
		<path fill="#D1D3D4" d="M102.834,175.442h-0.707l-2.031-2.864v2.864h-0.861v-4.301h0.841l1.897,2.718v-2.718h0.861V175.442z"/>
	</g>
</g>
<g>
	<defs>
		<rect id="SVGID_9_" x="-70" y="-381.24" width="1224" height="792"/>
	</defs>
	<clipPath id="SVGID_10_">
		<use xlink:href="#SVGID_9_"  overflow="visible"/>
	</clipPath>
	<path clip-path="url(#SVGID_10_)" d="M89.344,137.142h12.219v8.886h-0.256v1.022h-4.049v-0.11l-5.835,0.009v-1.781h-1.657v0.212
		h-0.99v-1.717h0.188v-2.931h0.39L89.344,137.142z"/>
</g>
<g>
	<defs>
		<rect id="SVGID_11_" x="17.156" y="135.466" width="112.014" height="25.277"/>
	</defs>
	<clipPath id="SVGID_12_">
		<use xlink:href="#SVGID_11_"  overflow="visible"/>
	</clipPath>
	<path clip-path="url(#SVGID_12_)" fill="none" stroke="#D0D2D3" stroke-width="1.092" stroke-miterlimit="10" d="M126.484,137.142
		v21.923l-107.979-6.717l0.051-15.206H126.484z"/>
</g>
<g>
	<defs>
		<rect id="SVGID_13_" x="-198" y="-296.574" width="1224" height="792"/>
	</defs>
	<clipPath id="SVGID_14_">
		<use xlink:href="#SVGID_13_"  overflow="visible"/>
	</clipPath>
	<path clip-path="url(#SVGID_14_)" d="M-75.056,112.199l0.027,17.904l6.821,3.959l-0.022-17.883L-75.056,112.199z"/>
</g>
<g>
	<defs>
		<rect id="SVGID_15_" x="-198" y="-296.574" width="1224" height="792"/>
	</defs>
	<clipPath id="SVGID_16_">
		<use xlink:href="#SVGID_15_"  overflow="visible"/>
	</clipPath>
	<path clip-path="url(#SVGID_16_)" fill="none" stroke="#D1D3D4" stroke-width="0.154" stroke-miterlimit="10" d="M-20.213,179.724
		l-38.244-22.156"/>
</g>
<g>
	<defs>
		<rect id="SVGID_17_" x="-198" y="-296.574" width="1224" height="792"/>
	</defs>
	<clipPath id="SVGID_18_">
		<use xlink:href="#SVGID_17_"  overflow="visible"/>
	</clipPath>
	<path clip-path="url(#SVGID_18_)" fill="none" stroke="#D1D3D4" stroke-width="0.154" stroke-miterlimit="10" d="M-9.382,143.662
		l-10.812,6.303l-71.545-41.447"/>
</g>
<g>
	<defs>
		<rect id="SVGID_19_" x="-198" y="-296.574" width="1224" height="792"/>
	</defs>
	<clipPath id="SVGID_20_">
		<use xlink:href="#SVGID_19_"  overflow="visible"/>
	</clipPath>
	<path clip-path="url(#SVGID_20_)" fill="none" stroke="#D1D3D4" stroke-width="0.154" stroke-miterlimit="10" d="M-9.382,146.64
		l-10.812,6.303l-71.545-41.447"/>
</g>
<g>
	<defs>
		<rect id="SVGID_21_" x="-198" y="-296.574" width="1224" height="792"/>
	</defs>
	<clipPath id="SVGID_22_">
		<use xlink:href="#SVGID_21_"  overflow="visible"/>
	</clipPath>
	<path clip-path="url(#SVGID_22_)" fill="none" stroke="#D1D3D4" stroke-width="0.154" stroke-miterlimit="10" d="M-9.382,149.619
		l-10.812,6.303l-71.545-41.447"/>
</g>
<g>
	<defs>
		<rect id="SVGID_23_" x="-198" y="-296.574" width="1224" height="792"/>
	</defs>
	<clipPath id="SVGID_24_">
		<use xlink:href="#SVGID_23_"  overflow="visible"/>
	</clipPath>
	<path clip-path="url(#SVGID_24_)" fill="none" stroke="#D1D3D4" stroke-width="0.154" stroke-miterlimit="10" d="M-9.382,152.597
		l-10.812,6.301l-71.545-41.447"/>
</g>
<g>
	<defs>
		<rect id="SVGID_25_" x="-198" y="-296.574" width="1224" height="792"/>
	</defs>
	<clipPath id="SVGID_26_">
		<use xlink:href="#SVGID_25_"  overflow="visible"/>
	</clipPath>
	<path clip-path="url(#SVGID_26_)" fill="none" stroke="#D1D3D4" stroke-width="0.154" stroke-miterlimit="10" d="M-9.382,155.576
		l-10.812,6.301l-71.545-41.445"/>
</g>
<g>
	<defs>
		<rect id="SVGID_27_" x="-198" y="-296.574" width="1224" height="792"/>
	</defs>
	<clipPath id="SVGID_28_">
		<use xlink:href="#SVGID_27_"  overflow="visible"/>
	</clipPath>
	<path clip-path="url(#SVGID_28_)" fill="none" stroke="#D1D3D4" stroke-width="0.154" stroke-miterlimit="10" d="M-9.382,158.554
		l-10.812,6.301l-71.545-41.447"/>
</g>
<g>
	<defs>
		<rect id="SVGID_29_" x="-198" y="-296.574" width="1224" height="792"/>
	</defs>
	<clipPath id="SVGID_30_">
		<use xlink:href="#SVGID_29_"  overflow="visible"/>
	</clipPath>
	<path clip-path="url(#SVGID_30_)" fill="none" stroke="#D1D3D4" stroke-width="0.154" stroke-miterlimit="10" d="M-9.382,161.531
		l-10.812,6.303l-71.545-41.447"/>
</g>
<g>
	<defs>
		<rect id="SVGID_31_" x="-198" y="-296.574" width="1224" height="792"/>
	</defs>
	<clipPath id="SVGID_32_">
		<use xlink:href="#SVGID_31_"  overflow="visible"/>
	</clipPath>
	<path clip-path="url(#SVGID_32_)" fill="none" stroke="#D1D3D4" stroke-width="0.154" stroke-miterlimit="10" d="M-9.382,164.51
		l-10.812,6.303l-71.545-41.447"/>
</g>
<g>
	<defs>
		<rect id="SVGID_33_" x="-198" y="-296.574" width="1224" height="792"/>
	</defs>
	<clipPath id="SVGID_34_">
		<use xlink:href="#SVGID_33_"  overflow="visible"/>
	</clipPath>
	<path clip-path="url(#SVGID_34_)" fill="none" stroke="#D1D3D4" stroke-width="0.154" stroke-miterlimit="10" d="M-9.381,167.488
		l-2.544,1.484"/>
</g>
<g>
	<defs>
		<rect id="SVGID_35_" x="-198" y="-296.574" width="1224" height="792"/>
	</defs>
	<clipPath id="SVGID_36_">
		<use xlink:href="#SVGID_35_"  overflow="visible"/>
	</clipPath>
	<path clip-path="url(#SVGID_36_)" fill="none" stroke="#D1D3D4" stroke-width="0.154" stroke-miterlimit="10" d="M-17.667,172.318
		l-2.526,1.473l-71.545-41.445"/>
</g>
<g>
	<defs>
		<rect id="SVGID_37_" x="-198" y="-296.574" width="1224" height="792"/>
	</defs>
	<clipPath id="SVGID_38_">
		<use xlink:href="#SVGID_37_"  overflow="visible"/>
	</clipPath>
	<path clip-path="url(#SVGID_38_)" fill="none" stroke="#D1D3D4" stroke-width="0.154" stroke-miterlimit="10" d="M-11.925,171.949
		l2.544-1.482"/>
</g>
<g>
	<defs>
		<rect id="SVGID_39_" x="-198" y="-296.574" width="1224" height="792"/>
	</defs>
	<clipPath id="SVGID_40_">
		<use xlink:href="#SVGID_39_"  overflow="visible"/>
	</clipPath>
	<path clip-path="url(#SVGID_40_)" fill="none" stroke="#D1D3D4" stroke-width="0.154" stroke-miterlimit="10" d="M-17.667,175.297
		l-2.526,1.475l-71.545-41.449"/>
</g>
<g>
	<defs>
		<rect id="SVGID_41_" x="-198" y="-296.574" width="1224" height="792"/>
	</defs>
	<clipPath id="SVGID_42_">
		<use xlink:href="#SVGID_41_"  overflow="visible"/>
	</clipPath>
	<path clip-path="url(#SVGID_42_)" fill="none" stroke="#D1D3D4" stroke-width="0.154" stroke-miterlimit="10" d="M-9.382,140.683
		l-10.812,6.303l-71.545-41.447"/>
</g>
<g>
	<defs>
		<rect id="SVGID_43_" x="-198" y="-296.574" width="1224" height="792"/>
	</defs>
	<clipPath id="SVGID_44_">
		<use xlink:href="#SVGID_43_"  overflow="visible"/>
	</clipPath>
	<g clip-path="url(#SVGID_44_)">
		<g enable-background="new    ">
			<path fill="#D1D3D4" d="M-85.441,151.633l0.684,0.428l-2.646,1.723l1.528,0.955l-0.597,0.389l-2.212-1.383L-85.441,151.633z"/>
			<path fill="#D1D3D4" d="M-79.662,155.248l-0.592,0.385l-1.555-0.973l-0.707,0.461l1.411,0.881l-0.576,0.375l-1.411-0.881
				l-0.771,0.502l1.555,0.971l-0.597,0.389l-2.228-1.393l3.243-2.111L-79.662,155.248z"/>
		</g>
		<g enable-background="new    ">
			<path fill="#D1D3D4" d="M-79.322,159.664c-0.914-0.57-0.842-1.428,0.125-2.059c0.971-0.631,2.311-0.691,3.224-0.121
				c0.914,0.572,0.852,1.432-0.119,2.062C-77.059,160.177-78.408,160.236-79.322,159.664z M-76.575,157.877
				c-0.519-0.324-1.293-0.248-1.927,0.164c-0.634,0.412-0.736,0.908-0.217,1.232c0.523,0.326,1.304,0.256,1.938-0.156
				C-76.148,158.705-76.052,158.205-76.575,157.877z"/>
		</g>
		<g enable-background="new    ">
			<path fill="#D1D3D4" d="M-73.218,163.412l-0.54-0.336l0.611-2.375l-2.16,1.406l-0.658-0.412l3.243-2.109l0.642,0.4l-0.601,2.24
				l2.049-1.334l0.657,0.41L-73.218,163.412z"/>
			<path fill="#D1D3D4" d="M-66.805,163.285l-1.987,2.896l-0.695-0.436l0.488-0.691l-1.229-0.77l-1.07,0.328l-0.684-0.428
				l4.499-1.324L-66.805,163.285z M-69.443,164.049l0.802,0.5l0.676-0.951L-69.443,164.049z"/>
			<path fill="#D1D3D4" d="M-65.667,166.592l-1.21,0.787l-0.679-0.426l3.243-2.109l1.352,0.846c0.689,0.43,0.785,0.955,0.12,1.389
				c-0.518,0.336-1.134,0.369-1.704,0.154l-0.392,1.359l-0.77-0.482l0.397-1.295L-65.667,166.592z M-65.113,166.23l0.63,0.395
				c0.342,0.213,0.699,0.207,0.968,0.031c0.274-0.178,0.277-0.406-0.064-0.619l-0.63-0.395L-65.113,166.23z"/>
		</g>
		<g enable-background="new    ">
			<path fill="#D1D3D4" d="M-59.15,168.072l1.16,0.725c0.994,0.621,0.986,1.424-0.002,2.068c-0.988,0.643-2.247,0.664-3.241,0.041
				l-1.16-0.725L-59.15,168.072z M-60.663,170.502c0.625,0.391,1.363,0.348,1.992-0.062c0.633-0.412,0.687-0.883,0.062-1.273
				l-0.454-0.285l-2.054,1.338L-60.663,170.502z"/>
		</g>
		<g enable-background="new    ">
			<path fill="#D1D3D4" d="M-54.045,174.222c-0.195,0.242-0.086,0.479,0.234,0.68c0.332,0.207,0.698,0.248,0.957,0.08
				c0.195-0.127,0.184-0.27-0.036-0.488l-0.456-0.453c-0.364-0.363-0.48-0.752,0.054-1.1c0.586-0.381,1.49-0.342,2.179,0.09
				c0.749,0.467,0.791,0.992,0.348,1.416l-0.678-0.424c0.142-0.188,0.123-0.414-0.219-0.629c-0.31-0.193-0.666-0.227-0.898-0.076
				c-0.185,0.119-0.173,0.27,0.015,0.461l0.462,0.463c0.412,0.414,0.438,0.814-0.054,1.133c-0.628,0.41-1.533,0.33-2.228-0.105
				c-0.732-0.457-0.891-1.016-0.385-1.486L-54.045,174.222z"/>
		</g>
		<g enable-background="new    ">
			<path fill="#D1D3D4" d="M-48.333,174.836l2.8,1.752l-0.592,0.385l-1.059-0.662l-2.65,1.725l-0.689-0.43l2.65-1.727l-1.052-0.656
				L-48.333,174.836z"/>
		</g>
	</g>
</g>
<g>
	<defs>
		<rect id="SVGID_45_" x="-198" y="-296.574" width="1224" height="792"/>
	</defs>
	<clipPath id="SVGID_46_">
		<use xlink:href="#SVGID_45_"  overflow="visible"/>
	</clipPath>
	<path clip-path="url(#SVGID_46_)" fill="none" stroke="#000000" stroke-width="0.154" stroke-miterlimit="10" d="M-20.196,138.234
		v-4.709"/>
</g>
<g>
	<defs>
		<rect id="SVGID_47_" x="-198" y="-296.574" width="1224" height="792"/>
	</defs>
	<clipPath id="SVGID_48_">
		<use xlink:href="#SVGID_47_"  overflow="visible"/>
	</clipPath>
	<path clip-path="url(#SVGID_48_)" fill="none" stroke="#000000" stroke-width="0.154" stroke-miterlimit="10" d="M-83.094,100.515
		v-3.896"/>
</g>
<g>
	<defs>
		<rect id="SVGID_49_" x="-198" y="-296.574" width="1224" height="792"/>
	</defs>
	<clipPath id="SVGID_50_">
		<use xlink:href="#SVGID_49_"  overflow="visible"/>
	</clipPath>
	<path clip-path="url(#SVGID_50_)" fill="none" stroke="#000000" stroke-width="0.154" stroke-miterlimit="10" d="M-70.018,105.574
		v2.17"/>
</g>
<g>
	<defs>
		<rect id="SVGID_51_" x="-198" y="-296.574" width="1224" height="792"/>
	</defs>
	<clipPath id="SVGID_52_">
		<use xlink:href="#SVGID_51_"  overflow="visible"/>
	</clipPath>
	<path clip-path="url(#SVGID_52_)" fill="none" stroke="#000000" stroke-width="0.154" stroke-miterlimit="10" d="M-75.792,102.287
		v2.172"/>
</g>
<g>
	<defs>
		<rect id="SVGID_53_" x="-198" y="-296.574" width="1224" height="792"/>
	</defs>
	<clipPath id="SVGID_54_">
		<use xlink:href="#SVGID_53_"  overflow="visible"/>
	</clipPath>
	<path clip-path="url(#SVGID_54_)" fill="none" stroke="#000000" stroke-width="0.154" stroke-miterlimit="10" d="M-68.46,104.72
		v2.172"/>
</g>
<g>
	<defs>
		<rect id="SVGID_55_" x="-198" y="-296.574" width="1224" height="792"/>
	</defs>
	<clipPath id="SVGID_56_">
		<use xlink:href="#SVGID_55_"  overflow="visible"/>
	</clipPath>
	<path clip-path="url(#SVGID_56_)" fill="none" stroke="#000000" stroke-width="0.145" stroke-miterlimit="10" d="M-68.451,106.857
		l-1.585,0.928"/>
</g>
<g>
	<defs>
		<rect id="SVGID_57_" x="-198" y="-296.574" width="1224" height="792"/>
	</defs>
	<clipPath id="SVGID_58_">
		<use xlink:href="#SVGID_57_"  overflow="visible"/>
	</clipPath>
	<path clip-path="url(#SVGID_58_)" fill="none" stroke="#000000" stroke-width="0.145" stroke-miterlimit="10" d="M-68.529,104.799
		l-1.468,0.859"/>
</g>
<g>
	<defs>
		<rect id="SVGID_59_" x="-198" y="-296.574" width="1224" height="792"/>
	</defs>
	<clipPath id="SVGID_60_">
		<use xlink:href="#SVGID_59_"  overflow="visible"/>
	</clipPath>
	<path clip-path="url(#SVGID_60_)" fill="none" stroke="#000000" stroke-width="0.145" stroke-miterlimit="10" d="M-28.768,123.474
		l-6.334,3.707"/>
</g>
<g>
	<defs>
		<rect id="SVGID_61_" x="-198" y="-296.574" width="1224" height="792"/>
	</defs>
	<clipPath id="SVGID_62_">
		<use xlink:href="#SVGID_61_"  overflow="visible"/>
	</clipPath>
	<path clip-path="url(#SVGID_62_)" fill="none" stroke="#000000" stroke-width="0.145" stroke-miterlimit="10" d="M-23.915,127.338
		l-5.428,3.178"/>
</g>
<g>
	<defs>
		<rect id="SVGID_63_" x="-198" y="-296.574" width="1224" height="792"/>
	</defs>
	<clipPath id="SVGID_64_">
		<use xlink:href="#SVGID_63_"  overflow="visible"/>
	</clipPath>
	<path clip-path="url(#SVGID_64_)" fill="none" stroke="#000000" stroke-width="0.154" stroke-miterlimit="10" d="M-60.848,109.107
		v2.17"/>
</g>
<g>
	<defs>
		<rect id="SVGID_65_" x="-198" y="-296.574" width="1224" height="792"/>
	</defs>
	<clipPath id="SVGID_66_">
		<use xlink:href="#SVGID_65_"  overflow="visible"/>
	</clipPath>
	<path clip-path="url(#SVGID_66_)" fill="none" stroke="#000000" stroke-width="0.145" stroke-miterlimit="10" d="M-55.544,107.338
		l25.624,16.83"/>
</g>
<g>
	<defs>
		<rect id="SVGID_67_" x="-198" y="-296.574" width="1224" height="792"/>
	</defs>
	<clipPath id="SVGID_68_">
		<use xlink:href="#SVGID_67_"  overflow="visible"/>
	</clipPath>
	<path clip-path="url(#SVGID_68_)" fill="none" stroke="#000000" stroke-width="0.145" stroke-miterlimit="10" d="M-28.798,123.467
		l4.884,3.207"/>
</g>
<g>
	<defs>
		<rect id="SVGID_69_" x="-198" y="-296.574" width="1224" height="792"/>
	</defs>
	<clipPath id="SVGID_70_">
		<use xlink:href="#SVGID_69_"  overflow="visible"/>
	</clipPath>
	<path clip-path="url(#SVGID_70_)" fill="none" stroke="#000000" stroke-width="0.145" stroke-miterlimit="10" d="M-55.544,106.67
		l26.12,17.156"/>
</g>
<g>
	<defs>
		<rect id="SVGID_71_" x="-198" y="-296.574" width="1224" height="792"/>
	</defs>
	<clipPath id="SVGID_72_">
		<use xlink:href="#SVGID_71_"  overflow="visible"/>
	</clipPath>
	<path clip-path="url(#SVGID_72_)" fill="none" stroke="#000000" stroke-width="0.145" stroke-miterlimit="10" d="M-86.177,99.242
		l2.658,1.539"/>
</g>
<g>
	<defs>
		<rect id="SVGID_73_" x="-198" y="-296.574" width="1224" height="792"/>
	</defs>
	<clipPath id="SVGID_74_">
		<use xlink:href="#SVGID_73_"  overflow="visible"/>
	</clipPath>
	<path clip-path="url(#SVGID_74_)" fill="none" stroke="#000000" stroke-width="0.145" stroke-miterlimit="10" d="M-75.792,102.287
		l5.773,3.352"/>
</g>
<g>
	<defs>
		<rect id="SVGID_75_" x="-198" y="-296.574" width="1224" height="792"/>
	</defs>
	<clipPath id="SVGID_76_">
		<use xlink:href="#SVGID_75_"  overflow="visible"/>
	</clipPath>
	<path clip-path="url(#SVGID_76_)" fill="none" stroke="#000000" stroke-width="0.145" stroke-miterlimit="10" d="M-68.442,104.799
		l7.671,4.445"/>
</g>
<g>
	<defs>
		<rect id="SVGID_77_" x="-198" y="-296.574" width="1224" height="792"/>
	</defs>
	<clipPath id="SVGID_78_">
		<use xlink:href="#SVGID_77_"  overflow="visible"/>
	</clipPath>
	<path clip-path="url(#SVGID_78_)" fill="none" stroke="#000000" stroke-width="0.145" stroke-miterlimit="10" d="M-68.485,106.857
		l7.638,4.426"/>
</g>
<g>
	<defs>
		<rect id="SVGID_79_" x="-198" y="-296.574" width="1224" height="792"/>
	</defs>
	<clipPath id="SVGID_80_">
		<use xlink:href="#SVGID_79_"  overflow="visible"/>
	</clipPath>
	<path clip-path="url(#SVGID_80_)" fill="none" stroke="#000000" stroke-width="0.145" stroke-miterlimit="10" d="M-35.075,127.189
		l5.741,3.328"/>
</g>
<g>
	<defs>
		<rect id="SVGID_81_" x="-198" y="-296.574" width="1224" height="792"/>
	</defs>
	<clipPath id="SVGID_82_">
		<use xlink:href="#SVGID_81_"  overflow="visible"/>
	</clipPath>
	<path clip-path="url(#SVGID_82_)" fill="none" stroke="#000000" stroke-width="0.154" stroke-miterlimit="10" d="M-20.225,124.646
		v-2.314"/>
</g>
<g>
	<defs>
		<rect id="SVGID_83_" x="-198" y="-296.574" width="1224" height="792"/>
	</defs>
	<clipPath id="SVGID_84_">
		<use xlink:href="#SVGID_83_"  overflow="visible"/>
	</clipPath>
	<path clip-path="url(#SVGID_84_)" fill="none" stroke="#000000" stroke-width="0.154" stroke-miterlimit="10" d="M-29.868,134.902
		l-0.916-0.549l-1.152,0.672l-49.587-28.727v-2.434"/>
</g>
<g>
	<defs>
		<rect id="SVGID_85_" x="-198" y="-296.574" width="1224" height="792"/>
	</defs>
	<clipPath id="SVGID_86_">
		<use xlink:href="#SVGID_85_"  overflow="visible"/>
	</clipPath>
	<path clip-path="url(#SVGID_86_)" fill="none" stroke="#000000" stroke-width="0.154" stroke-miterlimit="10" d="M-69.09,98.441
		l-4.917-3.229l-11.176,6.543l53.248,30.834"/>
</g>
<g>
	<defs>
		<rect id="SVGID_87_" x="-198" y="-296.574" width="1224" height="792"/>
	</defs>
	<clipPath id="SVGID_88_">
		<use xlink:href="#SVGID_87_"  overflow="visible"/>
	</clipPath>
	<path clip-path="url(#SVGID_88_)" fill="none" stroke="#000000" stroke-width="0.154" stroke-miterlimit="10" d="M-31.936,132.59
		v2.434"/>
</g>
<g>
	<defs>
		<rect id="SVGID_89_" x="-198" y="-296.574" width="1224" height="792"/>
	</defs>
	<clipPath id="SVGID_90_">
		<use xlink:href="#SVGID_89_"  overflow="visible"/>
	</clipPath>
	<path clip-path="url(#SVGID_90_)" fill="none" stroke="#000000" stroke-width="0.154" stroke-miterlimit="10" d="M-30.778,131.898
		l-1.158,0.678"/>
</g>
<g>
	<defs>
		<rect id="SVGID_91_" x="-198" y="-296.574" width="1224" height="792"/>
	</defs>
	<clipPath id="SVGID_92_">
		<use xlink:href="#SVGID_91_"  overflow="visible"/>
	</clipPath>
	<path clip-path="url(#SVGID_92_)" fill="none" stroke="#000000" stroke-width="0.154" stroke-miterlimit="10" d="M-30.778,134.353
		v-2.455l-4.297-2.49"/>
</g>
<g>
	<defs>
		<rect id="SVGID_93_" x="-198" y="-296.574" width="1224" height="792"/>
	</defs>
	<clipPath id="SVGID_94_">
		<use xlink:href="#SVGID_93_"  overflow="visible"/>
	</clipPath>
	<path clip-path="url(#SVGID_94_)" fill="none" stroke="#000000" stroke-width="0.154" stroke-miterlimit="10" d="M-20.145,142.701
		v-2.674"/>
</g>
<g>
	<defs>
		<rect id="SVGID_95_" x="-198" y="-296.574" width="1224" height="792"/>
	</defs>
	<clipPath id="SVGID_96_">
		<use xlink:href="#SVGID_95_"  overflow="visible"/>
	</clipPath>
	<path clip-path="url(#SVGID_96_)" fill="none" stroke="#000000" stroke-width="0.154" stroke-miterlimit="10" d="M-14.298,132.566
		l3.249,2.133v2.688l-9.098,5.324l-9.721-5.633v-2.68l3.909-2.285"/>
</g>
<g>
	<defs>
		<rect id="SVGID_97_" x="-198" y="-296.574" width="1224" height="792"/>
	</defs>
	<clipPath id="SVGID_98_">
		<use xlink:href="#SVGID_97_"  overflow="visible"/>
	</clipPath>
	<path clip-path="url(#SVGID_98_)" fill="none" stroke="#000000" stroke-width="0.154" stroke-miterlimit="10" d="M-11.049,134.699
		l-9.098,5.326l-9.721-5.625"/>
</g>
<g>
	<defs>
		<rect id="SVGID_99_" x="-198" y="-296.574" width="1224" height="792"/>
	</defs>
	<clipPath id="SVGID_100_">
		<use xlink:href="#SVGID_99_"  overflow="visible"/>
	</clipPath>
	<path clip-path="url(#SVGID_100_)" fill="none" stroke="#000000" stroke-width="0.145" stroke-miterlimit="10" d="M-84.208,102.302
		v1.311l2.686,1.572"/>
</g>
<g>
	<defs>
		<rect id="SVGID_101_" x="-198" y="-296.574" width="1224" height="792"/>
	</defs>
	<clipPath id="SVGID_102_">
		<use xlink:href="#SVGID_101_"  overflow="visible"/>
	</clipPath>
	<path clip-path="url(#SVGID_102_)" fill="none" stroke="#000000" stroke-width="0.145" stroke-miterlimit="10" d="M-75.792,104.455
		l5.773,3.346"/>
</g>
<g>
	<defs>
		<rect id="SVGID_103_" x="-198" y="-296.574" width="1224" height="792"/>
	</defs>
	<clipPath id="SVGID_104_">
		<use xlink:href="#SVGID_103_"  overflow="visible"/>
	</clipPath>
	<path clip-path="url(#SVGID_104_)" fill="none" stroke="#000000" stroke-width="0.141" stroke-miterlimit="10" d="M-35.1,129.398
		v-2.211"/>
</g>
<g>
	<defs>
		<rect id="SVGID_105_" x="-198" y="-296.574" width="1224" height="792"/>
	</defs>
	<clipPath id="SVGID_106_">
		<use xlink:href="#SVGID_105_"  overflow="visible"/>
	</clipPath>
	<path clip-path="url(#SVGID_106_)" fill="none" stroke="#000000" stroke-width="0.141" stroke-miterlimit="10" d="M-29.333,134.047
		v-3.523"/>
</g>
<g>
	<defs>
		<rect id="SVGID_107_" x="-198" y="-296.574" width="1224" height="792"/>
	</defs>
	<clipPath id="SVGID_108_">
		<use xlink:href="#SVGID_107_"  overflow="visible"/>
	</clipPath>
	<path clip-path="url(#SVGID_108_)" fill="none" stroke="#000000" stroke-width="0.145" stroke-miterlimit="10" d="M-16.417,123.511
		l-3.773,2.209l-3.726-2.162"/>
</g>
<g>
	<defs>
		<rect id="SVGID_109_" x="-198" y="-296.574" width="1224" height="792"/>
	</defs>
	<clipPath id="SVGID_110_">
		<use xlink:href="#SVGID_109_"  overflow="visible"/>
	</clipPath>
	<path clip-path="url(#SVGID_110_)" fill="none" stroke="#000000" stroke-width="0.154" stroke-miterlimit="10" d="M-16.417,128.312
		l0.355,0.209v1.646l-4.121,2.41l-4.152-2.406v-1.523l0.419-0.246"/>
</g>
<g>
	<defs>
		<rect id="SVGID_111_" x="-198" y="-296.574" width="1224" height="792"/>
	</defs>
	<clipPath id="SVGID_112_">
		<use xlink:href="#SVGID_111_"  overflow="visible"/>
	</clipPath>
	<path clip-path="url(#SVGID_112_)" fill="none" stroke="#000000" stroke-width="0.154" stroke-miterlimit="10" d="M-20.188,132.572
		v-6.852"/>
</g>
<g>
	<defs>
		<rect id="SVGID_113_" x="-198" y="-296.574" width="1224" height="792"/>
	</defs>
	<clipPath id="SVGID_114_">
		<use xlink:href="#SVGID_113_"  overflow="visible"/>
	</clipPath>
	<path clip-path="url(#SVGID_114_)" fill="none" stroke="#000000" stroke-width="0.154" stroke-miterlimit="10" d="M-16.059,129.035
		l1.762,1.021v4.74l-5.898,3.445l-5.763-3.338v-4.752l1.624-0.949"/>
</g>
<g>
	<defs>
		<rect id="SVGID_115_" x="-198" y="-296.574" width="1224" height="792"/>
	</defs>
	<clipPath id="SVGID_116_">
		<use xlink:href="#SVGID_115_"  overflow="visible"/>
	</clipPath>
	<path clip-path="url(#SVGID_116_)" fill="none" stroke="#000000" stroke-width="0.154" stroke-miterlimit="10" d="M-14.298,130.058
		l-5.897,3.467l-5.719-3.312"/>
</g>
<g>
	<defs>
		<rect id="SVGID_117_" x="-198" y="-296.574" width="1224" height="792"/>
	</defs>
	<clipPath id="SVGID_118_">
		<use xlink:href="#SVGID_117_"  overflow="visible"/>
	</clipPath>
	<path clip-path="url(#SVGID_118_)" fill="none" stroke="#000000" stroke-width="0.154" stroke-miterlimit="10" d="M-86.177,99.213
		l-5.641,3.305v39.586"/>
</g>
<g>
	<defs>
		<rect id="SVGID_119_" x="-198" y="-296.574" width="1224" height="792"/>
	</defs>
	<clipPath id="SVGID_120_">
		<use xlink:href="#SVGID_119_"  overflow="visible"/>
	</clipPath>
	<path clip-path="url(#SVGID_120_)" fill="none" stroke="#000000" stroke-width="0.154" stroke-miterlimit="10" d="M-79.937,95.56
		l3.953-2.312l7.434,4.881"/>
</g>
<g>
	<defs>
		<rect id="SVGID_121_" x="-198" y="-296.574" width="1224" height="792"/>
	</defs>
	<clipPath id="SVGID_122_">
		<use xlink:href="#SVGID_121_"  overflow="visible"/>
	</clipPath>
	<path clip-path="url(#SVGID_122_)" fill="none" stroke="#000000" stroke-width="0.154" stroke-miterlimit="10" d="M-20.194,144.01
		l-0.039,35.736"/>
</g>
<g>
	<defs>
		<rect id="SVGID_123_" x="-198" y="-296.574" width="1224" height="792"/>
	</defs>
	<clipPath id="SVGID_124_">
		<use xlink:href="#SVGID_123_"  overflow="visible"/>
	</clipPath>
	<path clip-path="url(#SVGID_124_)" fill="none" stroke="#D1D3D4" stroke-width="0.154" stroke-miterlimit="10" d="M-61.479,155.816
		l-30.273-17.539"/>
</g>
<g>
	<defs>
		<rect id="SVGID_125_" x="-198" y="-296.574" width="1224" height="792"/>
	</defs>
	<clipPath id="SVGID_126_">
		<use xlink:href="#SVGID_125_"  overflow="visible"/>
	</clipPath>
	<path clip-path="url(#SVGID_126_)" fill="none" stroke="#000000" stroke-width="0.145" stroke-miterlimit="10" d="M-84.545,93.877
		l-1.633,0.957v4.408"/>
</g>
<g>
	<defs>
		<rect id="SVGID_127_" x="-198" y="-296.574" width="1224" height="792"/>
	</defs>
	<clipPath id="SVGID_128_">
		<use xlink:href="#SVGID_127_"  overflow="visible"/>
	</clipPath>
	<path clip-path="url(#SVGID_128_)" fill="none" stroke="#000000" stroke-width="0.145" stroke-miterlimit="10" d="M-81.455,93.89
		l1.517,0.881v3.875"/>
</g>
<g>
	<defs>
		<rect id="SVGID_129_" x="-198" y="-296.574" width="1224" height="792"/>
	</defs>
	<clipPath id="SVGID_130_">
		<use xlink:href="#SVGID_129_"  overflow="visible"/>
	</clipPath>
	<path clip-path="url(#SVGID_130_)" fill="none" stroke="#000000" stroke-width="0.145" stroke-miterlimit="10" d="M-86.177,94.832
		l3.083,1.787l3.159-1.85"/>
</g>
<g>
	<defs>
		<rect id="SVGID_131_" x="-198" y="-296.574" width="1224" height="792"/>
	</defs>
	<clipPath id="SVGID_132_">
		<use xlink:href="#SVGID_131_"  overflow="visible"/>
	</clipPath>
	<path clip-path="url(#SVGID_132_)" fill="none" stroke="#000000" stroke-width="0.154" stroke-miterlimit="10" d="M-18.916,120.562
		l0.808,0.529v2.316l-2.119,1.238l-2.137-1.238v-2.316l1.102-0.645"/>
</g>
<g>
	<defs>
		<rect id="SVGID_133_" x="-198" y="-296.574" width="1224" height="792"/>
	</defs>
	<clipPath id="SVGID_134_">
		<use xlink:href="#SVGID_133_"  overflow="visible"/>
	</clipPath>
	<path clip-path="url(#SVGID_134_)" fill="none" stroke="#000000" stroke-width="0.145" stroke-miterlimit="10" d="M-18.104,121.094
		l-2.123,1.24l-2.139-1.24"/>
</g>
<g>
	<defs>
		<rect id="SVGID_135_" x="-93.601" y="84.666" width="90.629" height="97.294"/>
	</defs>
	<clipPath id="SVGID_136_">
		<use xlink:href="#SVGID_135_"  overflow="visible"/>
	</clipPath>
	<path clip-path="url(#SVGID_136_)" fill="none" stroke="#000000" stroke-width="0.154" stroke-miterlimit="10" d="M-22.196,118.599
		c-0.045,0.092-0.203,0.264-0.218,0.334l0.129,0.342c0.13,0.174,0.606,0.336,1.399,0.107c0.794-0.225,2.457-1.105,2.609-1.998
		l-0.267-0.5c0,0-0.247-0.078-0.517-0.01"/>
</g>
<g>
	<defs>
		<rect id="SVGID_137_" x="-198" y="-296.574" width="1224" height="792"/>
	</defs>
	<clipPath id="SVGID_138_">
		<use xlink:href="#SVGID_137_"  overflow="visible"/>
	</clipPath>
	<path clip-path="url(#SVGID_138_)" fill="none" stroke="#000000" stroke-width="0.154" stroke-miterlimit="10" d="M-21.45,115.336
		l1.129,0.547l0.348-0.146l0.781-1.094"/>
</g>
<g>
	<defs>
		<rect id="SVGID_139_" x="-93.601" y="84.666" width="90.629" height="97.294"/>
	</defs>
	<clipPath id="SVGID_140_">
		<use xlink:href="#SVGID_139_"  overflow="visible"/>
	</clipPath>
	<path clip-path="url(#SVGID_140_)" fill="none" stroke="#000000" stroke-width="0.154" stroke-miterlimit="10" d="M-18.473,117.836
		c0.232,1.014-0.4,2.025-1.414,2.258c-0.652,0.148-1.334-0.059-1.793-0.547l-0.076-0.059 M-22.049,119.002
		c-0.412-0.955,0.028-2.062,0.983-2.475c0.148-0.064,0.305-0.109,0.464-0.133c0.611-0.105,1.232,0.107,1.65,0.564
		c0.223,0.25,0.303,0.445,0.303,0.445 M-21.024,127.117c0.315,0.904,0.068,1.637-0.552,1.639s-1.377-0.729-1.692-1.633
		c-0.314-0.902-0.067-1.637,0.553-1.639C-22.096,125.482-21.338,126.213-21.024,127.117z M-19.411,127.148
		c-0.314,0.902-0.068,1.637,0.553,1.639c0.619,0.002,1.377-0.73,1.691-1.633c0.314-0.904,0.068-1.639-0.552-1.641
		C-18.338,125.513-19.096,126.244-19.411,127.148z"/>
</g>
<g>
	<defs>
		<rect id="SVGID_141_" x="-93.601" y="84.666" width="90.629" height="97.294"/>
	</defs>
	<clipPath id="SVGID_142_">
		<use xlink:href="#SVGID_141_"  overflow="visible"/>
	</clipPath>
	
		<path clip-path="url(#SVGID_142_)" fill="none" stroke="#000000" stroke-width="0.145" stroke-linejoin="bevel" stroke-miterlimit="10" d="
		M-18.919,120.664c0,0,0.005-0.164-0.011-0.203c-0.016-0.045-0.055-0.08-0.103-0.09c-0.063-0.016-0.331,0.062-0.331,0.062
		s-0.003-0.045-0.003-0.105v-0.049l0.101-0.428"/>
</g>
<g>
	<defs>
		<rect id="SVGID_143_" x="-93.601" y="84.666" width="90.629" height="97.294"/>
	</defs>
	<clipPath id="SVGID_144_">
		<use xlink:href="#SVGID_143_"  overflow="visible"/>
	</clipPath>
	<path clip-path="url(#SVGID_144_)" fill="none" stroke="#000000" stroke-width="0.145" stroke-miterlimit="10" d="M-19.813,120.646
		c-0.021,0.078,0.061,0.162,0.076,0.217c0.024,0.078,0.205,0.135,0.363,0.018"/>
</g>
<g>
	<defs>
		<rect id="SVGID_145_" x="-198" y="-296.574" width="1224" height="792"/>
	</defs>
	<clipPath id="SVGID_146_">
		<use xlink:href="#SVGID_145_"  overflow="visible"/>
	</clipPath>
	<path clip-path="url(#SVGID_146_)" fill="none" stroke="#000000" stroke-width="0.145" stroke-miterlimit="10" d="M-20.819,121.373
		v-0.174l0.243-0.408l-0.042-0.145l-0.449-0.076l-0.402-0.244l0.162-0.475"/>
</g>
<g>
	<defs>
		<rect id="SVGID_147_" x="-198" y="-296.574" width="1224" height="792"/>
	</defs>
	<clipPath id="SVGID_148_">
		<use xlink:href="#SVGID_147_"  overflow="visible"/>
	</clipPath>
	<path clip-path="url(#SVGID_148_)" fill="none" stroke="#000000" stroke-width="0.154" stroke-miterlimit="10" d="M-22.364,122.65
		l-1.552,0.908v5.055l3.733,2.162l3.767-2.199v-5.064l-1.687-0.979"/>
</g>
<g>
	<defs>
		<rect id="SVGID_149_" x="-93.601" y="84.666" width="90.629" height="97.294"/>
	</defs>
	<clipPath id="SVGID_150_">
		<use xlink:href="#SVGID_149_"  overflow="visible"/>
	</clipPath>
	<path clip-path="url(#SVGID_150_)" fill="none" stroke="#000000" stroke-width="0.145" stroke-miterlimit="10" d="M-83.257,92.176
		c-0.731,0.127-1.288,0.791-1.288,1.59v1.123c0,0.438,0.691,0.793,1.545,0.793s1.545-0.355,1.545-0.793v-1.123
		c0-0.799-0.557-1.461-1.288-1.59v-0.17c0-0.08-0.098-0.172-0.258-0.172c-0.157,0-0.256,0.092-0.256,0.172V92.176z"/>
</g>
<g>
	<defs>
		<rect id="SVGID_151_" x="-198" y="-296.574" width="1224" height="792"/>
	</defs>
	<clipPath id="SVGID_152_">
		<use xlink:href="#SVGID_151_"  overflow="visible"/>
	</clipPath>
	<path clip-path="url(#SVGID_152_)" fill="none" stroke="#000000" stroke-width="0.154" stroke-miterlimit="10" d="M-9.382,137.705
		l-10.812,6.303l-71.545-41.445"/>
</g>
<g>
	<defs>
		<rect id="SVGID_153_" x="-198" y="-296.574" width="1224" height="792"/>
	</defs>
	<clipPath id="SVGID_154_">
		<use xlink:href="#SVGID_153_"  overflow="visible"/>
	</clipPath>
	<path clip-path="url(#SVGID_154_)" fill="none" stroke="#000000" stroke-width="0.154" stroke-miterlimit="10" d="M-58.458,158.113
		l-2.088-1.205l-1.884,1.098l2.608,1.508l1.364-0.793"/>
</g>
<g>
	<defs>
		<rect id="SVGID_155_" x="-198" y="-296.574" width="1224" height="792"/>
	</defs>
	<clipPath id="SVGID_156_">
		<use xlink:href="#SVGID_155_"  overflow="visible"/>
	</clipPath>
	<path clip-path="url(#SVGID_156_)" fill="none" stroke="#000000" stroke-width="0.154" stroke-miterlimit="10" d="M-58.458,158.113
		l-2.088-1.205"/>
</g>
<g>
	<defs>
		<rect id="SVGID_157_" x="-198" y="-296.574" width="1224" height="792"/>
	</defs>
	<clipPath id="SVGID_158_">
		<use xlink:href="#SVGID_157_"  overflow="visible"/>
	</clipPath>
	<path clip-path="url(#SVGID_158_)" fill="none" stroke="#000000" stroke-width="0.154" stroke-miterlimit="10" d="M-58.458,159.857
		l-0.98-0.568"/>
</g>
<g>
	<defs>
		<rect id="SVGID_159_" x="-93.601" y="84.666" width="90.629" height="97.294"/>
	</defs>
	<clipPath id="SVGID_160_">
		<use xlink:href="#SVGID_159_"  overflow="visible"/>
	</clipPath>
	<path clip-path="url(#SVGID_160_)" fill="none" stroke="#000000" stroke-width="0.154" stroke-miterlimit="10" d="M-60.123,154.535
		c-0.285,0.242-0.419,0.65-0.419,0.861v1.541"/>
</g>
<g>
	<defs>
		<rect id="SVGID_161_" x="-198" y="-296.574" width="1224" height="792"/>
	</defs>
	<clipPath id="SVGID_162_">
		<use xlink:href="#SVGID_161_"  overflow="visible"/>
	</clipPath>
	<path clip-path="url(#SVGID_162_)" fill="none" stroke="#000000" stroke-width="0.154" stroke-miterlimit="10" d="M-60.952,158.859
		l-0.532,0.311l-30.334-17.09"/>
</g>
<g>
	<defs>
		<rect id="SVGID_163_" x="-198" y="-296.574" width="1224" height="792"/>
	</defs>
	<clipPath id="SVGID_164_">
		<use xlink:href="#SVGID_163_"  overflow="visible"/>
	</clipPath>
	<path clip-path="url(#SVGID_164_)" fill="none" stroke="#000000" stroke-width="0.154" stroke-miterlimit="10" d="M-61.479,159.17
		v-0.615"/>
</g>
<g>
	<defs>
		<rect id="SVGID_165_" x="-93.601" y="84.666" width="90.629" height="97.294"/>
	</defs>
	<clipPath id="SVGID_166_">
		<use xlink:href="#SVGID_165_"  overflow="visible"/>
	</clipPath>
	<path clip-path="url(#SVGID_166_)" fill="none" stroke="#000000" stroke-width="0.154" stroke-miterlimit="10" d="M-11.925,174.894
		v-5.766l-5.742,3.189v5.932l-2.567,1.498l-19.248-9.109l-15.437-7.771l-3.538-1.992v-4.051c0-0.264-0.245-1.496-1.51-2.227
		c-1.067-0.621-1.513,0.484-1.513,0.873v1.98"/>
</g>
<g>
	<defs>
		<rect id="SVGID_167_" x="-198" y="-296.574" width="1224" height="792"/>
	</defs>
	<clipPath id="SVGID_168_">
		<use xlink:href="#SVGID_167_"  overflow="visible"/>
	</clipPath>
	<path clip-path="url(#SVGID_168_)" fill="none" stroke="#000000" stroke-width="0.154" stroke-miterlimit="10" d="M-15.989,175.306
		v-1.496l-0.934,0.539v1.498"/>
</g>
<g>
	<defs>
		<rect id="SVGID_169_" x="-93.601" y="84.666" width="90.629" height="97.294"/>
	</defs>
	<clipPath id="SVGID_170_">
		<use xlink:href="#SVGID_169_"  overflow="visible"/>
	</clipPath>
	<path clip-path="url(#SVGID_170_)" fill="none" stroke="#000000" stroke-width="0.154" stroke-miterlimit="10" d="M-11.049,136.642
		l1.654,1.084v35.703l-2.53,1.467c-0.087-0.033-2.168-0.643-3.843,0.285l-1.32,0.766c-0.218,0.105-0.414,0.252-0.58,0.428"/>
</g>
<g>
	<defs>
		<rect id="SVGID_171_" x="-198" y="-296.574" width="1224" height="792"/>
	</defs>
	<clipPath id="SVGID_172_">
		<use xlink:href="#SVGID_171_"  overflow="visible"/>
	</clipPath>
	<path clip-path="url(#SVGID_172_)" fill="none" stroke="#000000" stroke-width="0.145" stroke-miterlimit="10" d="M-60.848,111.277
		l5.304-3.158v-2.045l-12.499-8.238l-7.747,4.479"/>
</g>
<g>
	<defs>
		<rect id="SVGID_173_" x="-198" y="-296.574" width="1224" height="792"/>
	</defs>
	<clipPath id="SVGID_174_">
		<use xlink:href="#SVGID_173_"  overflow="visible"/>
	</clipPath>
	<path clip-path="url(#SVGID_174_)" fill="none" stroke="#000000" stroke-width="0.145" stroke-miterlimit="10" d="M-55.544,106.064
		l-5.289,3.119"/>
</g>
</svg>
