<?xml version="1.0" encoding="utf-8"?>
<!-- Generator: Adobe Illustrator 23.0.0, SVG Export Plug-In . SVG Version: 6.00 Build 0)  -->
<svg version="1.1" id="Layer_1" xmlns="http://www.w3.org/2000/svg" xmlns:xlink="http://www.w3.org/1999/xlink" x="0px" y="0px"
	 viewBox="0 0 123.3 164.8" style="enable-background:new 0 0 123.3 164.8;" xml:space="preserve">
<style type="text/css">
	.st0{fill:#D2D3D4;}
	.st1{clip-path:url(#SVGID_2_);}
	.st2{enable-background:new    ;}
	.st3{fill:#D1D3D4;}
	.st4{fill:none;stroke:#231F20;stroke-width:0.15;stroke-miterlimit:10;}
	.st5{fill:none;stroke:#231F20;stroke-width:0.14;stroke-miterlimit:10;}
	.st6{clip-path:url(#SVGID_4_);}
	.st7{clip-path:url(#SVGID_6_);}
	.st8{fill:none;stroke:#231F20;stroke-width:0.14;stroke-linejoin:bevel;}
	.st9{clip-path:url(#SVGID_8_);}
	.st10{clip-path:url(#SVGID_10_);}
	.st11{clip-path:url(#SVGID_12_);}
	.st12{clip-path:url(#SVGID_14_);}
	.st13{fill:#231F20;}
	.st14{fill:none;stroke:#FFFFFF;stroke-width:0.15;stroke-miterlimit:10;}
	.st15{clip-path:url(#SVGID_16_);}
	.st16{fill:none;stroke:#D1D3D4;stroke-width:1.09;stroke-miterlimit:10;}
</style>
<title>residence_B_7-10_key</title>
<g>
	<g>
		<path class="st0" d="M14.3,117.1c-0.6,0-1-0.4-1-1.1v-1.4h3.4v1.3c0,0.7-0.3,1.1-0.9,1.1c-0.3,0-0.6-0.2-0.7-0.4
			C14.9,116.9,14.6,117.1,14.3,117.1z M13.9,115.2v0.7c0,0.3,0.2,0.5,0.4,0.5s0.4-0.2,0.4-0.5v-0.7H13.9z M15.3,115.8
			c0,0.3,0.1,0.5,0.4,0.5s0.4-0.2,0.4-0.5v-0.6h-0.8L15.3,115.8z"/>
		<path class="st0" d="M14.6,119.5h-1.3v-0.7h3.4v1.4c0.1,0.5-0.3,1.1-0.8,1.2c-0.1,0-0.2,0-0.3,0c-0.5,0-0.9-0.3-1-0.8l-1.3,0.9
			v-0.8l1.3-0.8L14.6,119.5z M15.1,119.5v0.7c0,0.3,0.2,0.5,0.5,0.5s0.5-0.2,0.5-0.5v-0.7H15.1z"/>
		<path class="st0" d="M13.3,124.6c0-0.9,0.8-1.6,1.7-1.6c0,0,0.1,0,0.1,0c0.9-0.1,1.7,0.6,1.7,1.5c0.1,0.9-0.6,1.7-1.5,1.7
			c-0.1,0-0.2,0-0.3,0c-0.9,0.1-1.7-0.6-1.7-1.5C13.3,124.7,13.3,124.6,13.3,124.6z M16.1,124.6c0-0.5-0.4-0.9-1.1-0.9
			s-1.1,0.3-1.1,0.9s0.5,0.9,1.1,0.9S16.1,125.1,16.1,124.6z"/>
		<path class="st0" d="M16.7,129.4l-3.4,1.3V130l0.8-0.3v-1.3l-0.8-0.3v-0.7l3.4,1.3V129.4z M14.7,128.7v0.8l1.1-0.4L14.7,128.7z"/>
		<path class="st0" d="M16.7,132.4v1.2c0.1,0.9-0.6,1.6-1.5,1.7c-0.1,0-0.2,0-0.2,0c-0.9,0.1-1.6-0.6-1.7-1.4c0-0.1,0-0.2,0-0.2
			v-1.2H16.7z M13.9,133.5c0,0.6,0.4,1,1,1c0,0,0,0,0.1,0c0.6,0,1-0.4,1.1-0.9c0,0,0,0,0-0.1v-0.5h-2.1V133.5z"/>
		<path class="st0" d="M16.7,139l-2.3,0.6l2.3,0.6v0.7l-3.4-0.8v-0.6l2.2-0.6l-2.2-0.6v-0.6l3.4-0.9v0.7l-2.3,0.6l2.3,0.6L16.7,139z
			"/>
		<path class="st0" d="M16.7,144l-3.4,1.3v-0.7l0.8-0.3V143l-0.8-0.3V142l3.4,1.3V144z M14.7,143.2v0.8l1.1-0.4L14.7,143.2z"/>
		<path class="st0" d="M16.7,148.6v0.8l-2.1-1.2h-1.3v-0.7h1.3l2.1-1.2v0.8l-1.4,0.8L16.7,148.6z"/>
		<path class="st0" d="M111.7,108.4v0.7h-2.8v1.6h-0.6v-2.3H111.7z"/>
		<path class="st0" d="M111.7,114.1l-3.4,1.3v-0.7l0.8-0.3v-1.3l-0.8-0.3v-0.7l3.4,1.3V114.1z M109.7,113.4v0.8l1.1-0.4L109.7,113.4
			z"/>
		<path class="st0" d="M108.3,117h3.4v2.2h-0.6v-1.5h-0.9v1.4h-0.6v-1.4h-1.3V117z"/>
		<path class="st0" d="M111.7,122.5l-3.4,1.3v-0.7l0.8-0.3v-1.3l-0.8-0.3v-0.7l3.4,1.3V122.5z M109.7,121.8v0.8l1.1-0.4L109.7,121.8
			z"/>
		<path class="st0" d="M111.7,127.2v0.7l-2.1-1.2h-1.3V126h1.3l2.1-1.2v0.8l-1.4,0.8L111.7,127.2z"/>
		<path class="st0" d="M111.7,131.8h-0.6v-1.6h-0.7v1.4h-0.6v-1.4h-0.8v1.6h-0.6v-2.3h3.4V131.8z"/>
		<path class="st0" d="M111.7,133.4v2.9h-0.6v-1.1h-2.8v-0.7h2.8v-1.1L111.7,133.4z"/>
		<path class="st0" d="M111.7,137.8v2.9h-0.6v-1.1h-2.8v-0.7h2.8v-1.1H111.7z"/>
		<path class="st0" d="M111.7,144.6h-0.6V143h-0.7v1.4h-0.6V143h-0.8v1.6h-0.6v-2.3h3.4V144.6z"/>
		<path class="st0" d="M109.2,149.2c-0.3,0.1-0.5,0.4-0.4,0.7c0,0.4,0.2,0.6,0.4,0.6s0.3-0.1,0.4-0.4l0.1-0.6c0-0.5,0.4-0.9,0.9-0.9
			c0.6,0,1,0.6,1,1.1c0,0,0,0,0,0.1c0.1,0.6-0.4,1.2-1,1.3v-0.7c0.3-0.1,0.4-0.3,0.4-0.6c0-0.3-0.2-0.5-0.4-0.5s-0.3,0.1-0.4,0.4
			l-0.1,0.6c-0.1,0.6-0.4,0.9-1,0.9s-1-0.5-1-1.2c-0.1-0.7,0.4-1.3,1-1.4L109.2,149.2L109.2,149.2z"/>
		<path class="st0" d="M111.7,152.6v2.9h-0.6v-1.1h-2.8v-0.7h2.8v-1.1L111.7,152.6z"/>
		<path class="st0" d="M43.1,112.6h0.7v2.8h1.6v0.6h-2.3V112.6z"/>
		<path class="st0" d="M49.3,112.6v0.6h-1.6v0.8h1.5v0.6h-1.5v0.8h1.6v0.6H47v-3.4L49.3,112.6z"/>
		<path class="st0" d="M52.4,116c-1,0.1-1.8-0.7-1.9-1.6c-0.1-1,0.7-1.8,1.6-1.9s1.8,0.7,1.9,1.6c0,0.1,0,0.1,0,0.2
			c0,0.9-0.6,1.6-1.5,1.7C52.4,116,52.4,116,52.4,116z M52.4,113.2c-0.5,0-0.9,0.4-0.9,1.1s0.3,1.1,0.9,1.1s0.9-0.5,0.9-1.1
			S52.9,113.2,52.4,113.2L52.4,113.2z"/>
		<path class="st0" d="M58.4,116h-0.6l-1.6-2.2v2.2h-0.7v-3.4h0.7l1.5,2.1v-2.1h0.7V116z"/>
		<path class="st0" d="M61.9,112.6l1.3,3.4h-0.7l-0.3-0.8h-1.3l-0.3,0.8h-0.7l1.3-3.4L61.9,112.6z M61.1,114.6h0.8l-0.4-1.1
			L61.1,114.6z"/>
		<path class="st0" d="M65.4,114.7v1.3h-0.7v-3.4h1.4c0.5-0.1,1.1,0.2,1.2,0.8c0,0.1,0,0.2,0,0.3c0,0.5-0.3,0.9-0.8,1l0.9,1.3h-0.8
			l-0.8-1.3L65.4,114.7z M65.4,114.2H66c0.3,0,0.5-0.2,0.5-0.5s-0.2-0.5-0.5-0.5h-0.7L65.4,114.2z"/>
		<path class="st0" d="M68.9,112.6h1.2c0.9,0.1,1.6,0.9,1.6,1.8c-0.1,0.8-0.7,1.5-1.6,1.6h-1.2V112.6z M70,115.4
			c0.6,0,1.1-0.5,1.1-1.1c0-0.6-0.5-1.1-1.1-1.1h-0.5v2.1H70z"/>
		<path class="st0" d="M76.1,115c0.1,0.3,0.4,0.5,0.7,0.4c0.3,0,0.6-0.2,0.6-0.4s-0.1-0.3-0.4-0.4l-0.6-0.1
			c-0.5-0.1-0.8-0.4-0.8-0.9c0-0.6,0.6-1,1.2-1c0,0,0,0,0,0c0.6-0.1,1.2,0.4,1.3,1h-0.7c-0.1-0.3-0.3-0.4-0.6-0.4
			c-0.3,0-0.5,0.2-0.5,0.4s0.1,0.3,0.4,0.4l0.6,0.2c0.5,0.1,0.9,0.5,0.9,1c-0.1,0.6-0.6,1.1-1.2,1c0,0,0,0,0,0
			c-0.7,0.1-1.3-0.4-1.4-1L76.1,115z"/>
		<path class="st0" d="M79.4,112.6h2.9v0.6h-1.1v2.8h-0.7v-2.8h-1.1V112.6z"/>
		<path class="st0" d="M40.6,147.9c0.7,0,1.3,0.4,1.4,1.1h-0.7c-0.1-0.3-0.4-0.5-0.7-0.5c-0.5,0-0.8,0.5-0.8,1.1s0.3,1.1,0.8,1.1
			c0.3,0,0.6-0.2,0.7-0.5H42c-0.1,0.7-0.7,1.2-1.4,1.1c-1-0.1-1.7-1-1.6-1.9C39.2,148.6,39.8,147.9,40.6,147.9z"/>
		<path class="st0" d="M45.4,147.9l1.3,3.4H46l-0.3-0.8h-1.3l-0.3,0.8h-0.7l1.3-3.4H45.4z M44.6,149.9h0.8l-0.4-1.2L44.6,149.9z"/>
		<path class="st0" d="M47.8,147.9h2.9v0.6h-1.1v2.8h-0.7v-2.8h-1.1V147.9z"/>
		<path class="st0" d="M55.2,147.9v3.4h-0.7v-1.4H53v1.4h-0.7v-3.4H53v1.3h1.5v-1.3H55.2z"/>
		<path class="st0" d="M59.4,147.9v0.6h-1.6v0.7h1.5v0.6h-1.5v0.8h1.6v0.6h-2.3v-3.4L59.4,147.9z"/>
		<path class="st0" d="M61.8,150v1.3h-0.7v-3.4h1.4c0.5-0.1,1.1,0.3,1.2,0.8c0,0.1,0,0.2,0,0.3c0,0.5-0.3,0.9-0.8,1l0.9,1.3H63
			l-0.8-1.3H61.8z M61.8,149.4h0.6c0.4,0,0.5-0.2,0.5-0.5s-0.2-0.5-0.5-0.5h-0.6V149.4z"/>
		<path class="st0" d="M66.2,151.3h-0.7v-3.4h0.7V151.3z"/>
		<path class="st0" d="M70.8,151.3h-0.6l-1.6-2.3v2.2H68v-3.4h0.7l1.5,2.1v-2.1h0.7V151.3z"/>
		<path class="st0" d="M75,147.9v0.6h-1.6v0.7h1.4v0.6h-1.5v0.8H75v0.6h-2.3v-3.4L75,147.9z"/>
		<path class="st0" d="M79.1,147.9h0.7v2.8h1.6v0.6h-2.3V147.9z"/>
		<path class="st0" d="M85.9,151.3h-0.6l-1.6-2.3v2.2h-0.7v-3.4h0.7l1.5,2.1v-2.1h0.7V151.3L85.9,151.3z"/>
	</g>
	<g id="Layer_4">
		<g>
			<defs>
				<rect id="SVGID_1_" x="27.4" y="10.1" width="69.9" height="76.9"/>
			</defs>
			<clipPath id="SVGID_2_">
				<use xlink:href="#SVGID_1_"  style="overflow:visible;"/>
			</clipPath>
			<g class="st1">
				<g class="st2">
					<path class="st3" d="M33.8,63.8l0.5,0.3l-2,1.3l1.2,0.7L33,66.5l-1.7-1.1L33.8,63.8z"/>
					<path class="st3" d="M38.5,66.8l-0.5,0.3l-1.2-0.7l-0.5,0.4l1.1,0.7L37,67.7L35.9,67l-0.6,0.4l1.2,0.7l-0.5,0.3l-1.7-1.1
						l2.5-1.6L38.5,66.8z"/>
					<path class="st3" d="M38.5,70c-0.7-0.4-0.6-1.1,0.1-1.6c0.7-0.5,1.8-0.5,2.5-0.1s0.7,1.1-0.1,1.6C40.2,70.4,39.2,70.4,38.5,70z
						 M40.6,68.6c-0.4-0.2-1-0.2-1.5,0.1c-0.5,0.3-0.6,0.7-0.2,0.9c0.4,0.2,1,0.2,1.5-0.1C40.9,69.2,41,68.8,40.6,68.6z"/>
					<path class="st3" d="M43.1,72.8l-0.4-0.3l0.5-1.8l-1.7,1.1L41,71.5l2.5-1.6l0.5,0.3l-0.5,1.7l1.6-1l0.5,0.3L43.1,72.8z"/>
					<path class="st3" d="M48.4,72.9l-1.5,2.2l-0.5-0.3l0.4-0.5l-0.9-0.6L44.9,74l-0.5-0.3l3.4-1L48.4,72.9z M46.4,73.5l0.6,0.4
						l0.5-0.7L46.4,73.5z"/>
					<path class="st3" d="M49.6,75.7l-0.9,0.6L48.1,76l2.5-1.6l1,0.6c0.5,0.3,0.6,0.7,0.1,1.1c-0.4,0.3-0.9,0.3-1.3,0.1l-0.3,1
						l-0.6-0.4l0.3-1L49.6,75.7z M50,75.4l0.5,0.3c0.3,0.2,0.5,0.2,0.7,0c0.2-0.1,0.2-0.3,0-0.5l-0.5-0.3L50,75.4z"/>
					<path class="st3" d="M53.9,76.4l0.9,0.6c0.8,0.5,0.8,1.1,0,1.6c-0.8,0.5-1.7,0.5-2.5,0L51.4,78L53.9,76.4z M52.8,78.2
						c0.5,0.3,1,0.3,1.5-0.1c0.5-0.3,0.5-0.7,0-1L54,77l-1.6,1L52.8,78.2z"/>
				</g>
				<g class="st2">
					<path class="st3" d="M57.8,81.1c-0.1,0.2-0.1,0.4,0.2,0.5c0.3,0.2,0.5,0.2,0.7,0.1c0.1-0.1,0.1-0.2,0-0.4l-0.3-0.3
						c-0.3-0.3-0.4-0.6,0-0.8c0.4-0.3,1.1-0.3,1.7,0.1c0.6,0.4,0.6,0.8,0.3,1.1l-0.5-0.3c0.1-0.1,0.1-0.3-0.2-0.5
						c-0.2-0.1-0.5-0.2-0.7-0.1c-0.1,0.1-0.1,0.2,0,0.4l0.4,0.4c0.3,0.3,0.3,0.6,0,0.9c-0.5,0.3-1.2,0.3-1.7-0.1
						c-0.6-0.3-0.7-0.8-0.3-1.1L57.8,81.1z"/>
				</g>
				<g class="st2">
					<path class="st3" d="M62.2,81.5l2.1,1.3l-0.5,0.3l-0.8-0.5L61,84l-0.5-0.3l2-1.3l-0.8-0.5L62.2,81.5z"/>
				</g>
				<line class="st4" x1="83.5" y1="53.6" x2="83.5" y2="50"/>
				<line class="st4" x1="35.5" y1="24.8" x2="35.5" y2="21.8"/>
				<line class="st4" x1="45.5" y1="28.6" x2="45.5" y2="30.3"/>
				<line class="st4" x1="41.1" y1="26.1" x2="41.1" y2="27.8"/>
				<line class="st4" x1="46.7" y1="28" x2="46.7" y2="29.6"/>
				<line class="st5" x1="46.7" y1="29.6" x2="45.5" y2="30.3"/>
				<line class="st5" x1="46.6" y1="28.1" x2="45.5" y2="28.7"/>
				<line class="st5" x1="77" y1="42.3" x2="72.2" y2="45.2"/>
				<line class="st5" x1="80.7" y1="45.3" x2="76.6" y2="47.7"/>
				<line class="st4" x1="52.5" y1="31.4" x2="52.5" y2="33"/>
				<line class="st5" x1="56.5" y1="30" x2="76.1" y2="42.8"/>
				<line class="st5" x1="77" y1="42.3" x2="80.7" y2="44.8"/>
				<line class="st5" x1="56.5" y1="29.5" x2="76.5" y2="42.6"/>
				<line class="st5" x1="33.2" y1="23.8" x2="35.2" y2="25"/>
				<line class="st5" x1="41.1" y1="26.1" x2="45.5" y2="28.7"/>
				<line class="st5" x1="46.7" y1="28.1" x2="52.5" y2="31.5"/>
				<line class="st5" x1="46.7" y1="29.6" x2="52.5" y2="33"/>
				<line class="st5" x1="72.2" y1="45.2" x2="76.6" y2="47.7"/>
				<line class="st4" x1="83.5" y1="43.2" x2="83.5" y2="41.4"/>
				<polyline class="st4" points="76.2,51 75.4,50.6 74.6,51.1 36.7,29.2 36.7,27.3 				"/>
				<polyline class="st4" points="46.2,23.2 42.5,20.7 33.9,25.7 74.6,49.3 				"/>
				<line class="st4" x1="74.6" y1="49.3" x2="74.6" y2="51.1"/>
				<line class="st4" x1="75.4" y1="48.8" x2="74.6" y2="49.3"/>
				<polyline class="st4" points="75.4,50.6 75.4,48.8 72.2,46.8 				"/>
				<line class="st4" x1="83.6" y1="57" x2="83.6" y2="55"/>
				<polyline class="st4" points="88,49.3 90.5,50.9 90.5,52.9 83.6,57 76.2,52.7 76.2,50.7 79.1,48.9 				"/>
				<polyline class="st4" points="90.5,50.9 83.6,55 76.2,50.7 				"/>
				<polyline class="st5" points="34.7,26.1 34.7,27.1 36.7,28.4 				"/>
				<line class="st5" x1="41.1" y1="27.8" x2="45.5" y2="30.4"/>
				<line class="st5" x1="72.2" y1="46.8" x2="72.2" y2="45.2"/>
				<line class="st5" x1="76.6" y1="50.4" x2="76.6" y2="47.7"/>
				<polyline class="st5" points="86.4,42.3 83.5,44 80.7,42.4 				"/>
				<polyline class="st4" points="86.4,46 86.7,46.2 86.7,47.4 83.6,49.3 80.4,47.4 80.4,46.3 80.7,46.1 				"/>
				<line class="st4" x1="83.5" y1="49.3" x2="83.5" y2="44"/>
				<polyline class="st4" points="86.7,46.6 88,47.3 88,51 83.5,53.6 79.1,51 79.1,47.4 80.4,46.7 				"/>
				<polyline class="st4" points="88,47.3 83.5,50 79.2,47.5 				"/>
				<polyline class="st4" points="33.2,23.8 28.9,26.3 28.9,56.5 				"/>
				<polyline class="st4" points="37.9,21 40.9,19.2 46.6,23 				"/>
				<line class="st4" x1="83.5" y1="58" x2="83.5" y2="85.3"/>
				<line class="st4" x1="83.5" y1="85.3" x2="54.3" y2="68.3"/>
				<polyline class="st4" points="91.8,57.7 83.5,62.5 28.9,30.9 				"/>
				<polyline class="st4" points="91.8,60 83.5,64.8 28.9,33.2 				"/>
				<polyline class="st4" points="91.8,62.3 83.5,67.1 28.9,35.4 				"/>
				<polyline class="st4" points="91.8,64.6 83.5,69.4 28.9,37.7 				"/>
				<polyline class="st4" points="91.8,66.8 83.5,71.6 28.9,40 				"/>
				<polyline class="st4" points="91.8,69.1 83.5,73.9 28.9,42.3 				"/>
				<polyline class="st4" points="91.8,71.4 83.5,76.2 28.9,44.5 				"/>
				<polyline class="st4" points="91.8,73.7 83.5,78.5 28.9,46.8 				"/>
				<line class="st4" x1="91.8" y1="75.9" x2="89.8" y2="77.1"/>
				<polyline class="st4" points="85.5,79.6 83.5,80.7 28.9,49.1 				"/>
				<line class="st4" x1="89.8" y1="79.3" x2="91.8" y2="78.2"/>
				<polyline class="st4" points="85.5,81.9 83.5,83 28.9,51.4 				"/>
				<polyline class="st4" points="91.8,55.5 83.5,60.3 28.9,28.6 				"/>
				<line class="st4" x1="52" y1="67" x2="28.9" y2="53.6"/>
				<polyline class="st5" points="34.4,19.7 33.2,20.5 33.2,23.8 				"/>
				<polyline class="st5" points="36.8,19.7 37.9,20.4 37.9,23.4 				"/>
				<polyline class="st5" points="33.2,20.5 35.5,21.8 37.9,20.4 				"/>
				<polyline class="st4" points="84.5,40.1 85.1,40.5 85.1,42.3 83.5,43.2 81.9,42.3 81.9,40.5 82.7,40 				"/>
				<polyline class="st5" points="85.1,40.5 83.5,41.4 81.9,40.5 				"/>
				<g>
					<defs>
						<rect id="SVGID_3_" x="27.5" y="10.1" width="69.8" height="76.9"/>
					</defs>
					<clipPath id="SVGID_4_">
						<use xlink:href="#SVGID_3_"  style="overflow:visible;"/>
					</clipPath>
					<g class="st6">
						<path class="st4" d="M82,38.6c-0.1,0.1-0.1,0.2-0.2,0.3l0.1,0.3c0.1,0.1,0.5,0.2,1.1,0.1s1.9-0.8,2-1.5l-0.2-0.4
							c-0.1,0-0.3,0-0.4,0"/>
					</g>
				</g>
				<polyline class="st4" points="82.6,36.1 83.4,36.5 83.7,36.4 84.3,35.6 				"/>
				<g>
					<defs>
						<rect id="SVGID_5_" x="27.5" y="10.1" width="69.8" height="76.9"/>
					</defs>
					<clipPath id="SVGID_6_">
						<use xlink:href="#SVGID_5_"  style="overflow:visible;"/>
					</clipPath>
					<g class="st7">
						<path class="st4" d="M84.8,38c0,0.2,0,0.4,0,0.6c-0.2,0.8-0.9,1.3-1.7,1.1c-0.3-0.1-0.6-0.2-0.8-0.4h-0.1"/>
						<path class="st4" d="M82.1,38.9c0-0.1-0.1-0.2-0.1-0.3c-0.1-0.8,0.4-1.5,1.2-1.6c0.5-0.1,0.9,0.1,1.3,0.4
							c0.1,0.1,0.2,0.2,0.2,0.3"/>
						<path class="st4" d="M82.9,45.1c0.2,0.7,0,1.2-0.4,1.2s-1-0.6-1.3-1.2s0-1.2,0.4-1.2S82.7,44.4,82.9,45.1z"/>
						<path class="st4" d="M84.1,45.1c-0.2,0.7,0,1.2,0.4,1.2s1.1-0.6,1.3-1.2s0.1-1.2-0.4-1.2S84.4,44.4,84.1,45.1z"/>
						<path class="st8" d="M84.5,40.2c0,0,0-0.1,0-0.2c0,0,0-0.1-0.1-0.1c-0.1,0-0.2,0-0.2,0v-0.1l0.1-0.3"/>
						<path class="st5" d="M83.8,40.2c0,0.1,0,0.1,0,0.2s0.2,0.1,0.3,0"/>
					</g>
				</g>
				<polyline class="st5" points="83.1,40.7 83.1,40.6 83.2,40.3 83.2,40.2 82.9,40.1 82.6,39.9 82.7,39.5 				"/>
				<polyline class="st4" points="81.9,41.7 80.7,42.4 80.7,46.2 83.5,47.9 86.4,46.2 86.4,42.3 85.1,41.6 				"/>
				<g>
					<defs>
						<rect id="SVGID_7_" x="27.5" y="10.1" width="69.8" height="76.9"/>
					</defs>
					<clipPath id="SVGID_8_">
						<use xlink:href="#SVGID_7_"  style="overflow:visible;"/>
					</clipPath>
					<g class="st9">
						<path class="st5" d="M35.4,18.4c-0.6,0.1-1,0.6-1,1.2v0.9c0,0.3,0.5,0.6,1.2,0.6s1.2-0.3,1.2-0.6v-0.9c0-0.6-0.4-1.1-1-1.2
							v-0.1c0-0.1-0.1-0.1-0.2-0.1s-0.2,0.1-0.2,0.1L35.4,18.4z"/>
					</g>
				</g>
				<polyline class="st4" points="91.8,53.2 83.5,58 28.9,26.4 				"/>
				<polyline class="st4" points="54.3,68.8 52.7,67.8 51.3,68.7 53.3,69.8 54.3,69.2 				"/>
				<line class="st4" x1="54.3" y1="68.8" x2="52.7" y2="67.8"/>
				<line class="st4" x1="54.3" y1="70.1" x2="53.6" y2="69.7"/>
				<g>
					<defs>
						<rect id="SVGID_9_" x="27.5" y="10.1" width="69.8" height="76.9"/>
					</defs>
					<clipPath id="SVGID_10_">
						<use xlink:href="#SVGID_9_"  style="overflow:visible;"/>
					</clipPath>
					<g class="st10">
						<path class="st4" d="M53,66c-0.2,0.2-0.3,0.4-0.3,0.7v1.2"/>
					</g>
				</g>
				<polyline class="st4" points="52.4,69.3 52,69.6 28.9,56.5 				"/>
				<line class="st4" x1="52" y1="69.6" x2="52" y2="69.1"/>
				<g>
					<defs>
						<rect id="SVGID_11_" x="27.5" y="10.1" width="69.8" height="76.9"/>
					</defs>
					<clipPath id="SVGID_12_">
						<use xlink:href="#SVGID_11_"  style="overflow:visible;"/>
					</clipPath>
					<g class="st11">
						<path class="st4" d="M89.8,81.6v-4.4l-4.4,2.4v4.5l-2,1.1l-14.7-7L57,72.4l-2.7-1.5v-3.1c-0.1-0.7-0.5-1.3-1.2-1.7
							c-0.3-0.2-0.8-0.1-1,0.2C52,66.4,52,66.6,52,66.8v1.5"/>
					</g>
				</g>
				<polyline class="st4" points="86.8,81.9 86.8,80.8 86,81.2 86,82.3 				"/>
				<g>
					<defs>
						<rect id="SVGID_13_" x="27.5" y="10.1" width="69.8" height="76.9"/>
					</defs>
					<clipPath id="SVGID_14_">
						<use xlink:href="#SVGID_13_"  style="overflow:visible;"/>
					</clipPath>
					<g class="st12">
						<path class="st4" d="M90.5,52.4l1.3,0.8v27.3l-1.9,1.1c-1-0.3-2-0.2-2.9,0.2l-1,0.6c-0.2,0.1-0.3,0.2-0.4,0.3"/>
					</g>
				</g>
				<polyline class="st5" points="52.5,33 56.5,30.6 56.5,29 47,22.7 41.1,26.2 				"/>
				<line class="st5" x1="56.5" y1="29" x2="52.5" y2="31.4"/>
				<polygon class="st13" points="68.7,56.3 68.7,65.4 76.1,69.7 76.1,60.5 				"/>
				<polygon class="st13" points="68.7,51.8 68.7,54 76.1,58.3 76.1,56.1 				"/>
				<line class="st14" x1="68.7" y1="58.5" x2="76.2" y2="62.8"/>
				<line class="st14" x1="68.7" y1="60.8" x2="76.2" y2="65.1"/>
				<line class="st14" x1="68.7" y1="63.1" x2="76.2" y2="67.4"/>
			</g>
		</g>
	</g>
	<g id="Layer_3">
		<polygon class="st13" points="34,126.9 34,128.1 34.1,128.1 34.1,128.8 34,128.8 34,130.1 37.9,130.1 37.9,131.6 38.6,131.6 
			38.6,131.5 39.6,131.5 39.6,131.6 40.8,131.6 40.8,131.5 43.8,131.5 43.8,125.8 34,125.8 		"/>
		<g>
			<defs>
				<rect id="SVGID_15_" x="23" y="124.7" width="77.1" height="17.4"/>
			</defs>
			<clipPath id="SVGID_16_">
				<use xlink:href="#SVGID_15_"  style="overflow:visible;"/>
			</clipPath>
			<g class="st15">
				<polygon class="st16" points="98.2,125.8 98.2,140.9 23.9,136.3 23.9,125.8 				"/>
			</g>
		</g>
	</g>
</g>
</svg>
