<?xml version="1.0" encoding="utf-8"?>
<!-- Generator: Adobe Illustrator 23.0.0, SVG Export Plug-In . SVG Version: 6.00 Build 0)  -->
<svg version="1.1" id="Layer_1" xmlns="http://www.w3.org/2000/svg" xmlns:xlink="http://www.w3.org/1999/xlink" x="0px" y="0px"
	 viewBox="0 0 189.9 92.6" style="enable-background:new 0 0 189.9 92.6;" xml:space="preserve">
<style type="text/css">
	.st0{fill:#D2D3D4;}
	.st1{fill:#010101;}
	.st2{clip-path:url(#SVGID_2_);}
	.st3{fill:none;stroke:#D1D3D4;stroke-width:1.09;stroke-miterlimit:10;}
	.st4{clip-path:url(#SVGID_4_);}
	.st5{enable-background:new    ;}
	.st6{fill:#D1D3D4;}
	.st7{fill:none;stroke:#231F20;stroke-width:0.15;stroke-miterlimit:10;}
	.st8{fill:none;stroke:#231F20;stroke-width:0.14;stroke-miterlimit:10;}
	.st9{clip-path:url(#SVGID_6_);}
	.st10{clip-path:url(#SVGID_8_);}
	.st11{fill:none;stroke:#231F20;stroke-width:0.14;stroke-linejoin:bevel;}
	.st12{clip-path:url(#SVGID_10_);}
	.st13{clip-path:url(#SVGID_12_);}
	.st14{clip-path:url(#SVGID_14_);}
	.st15{clip-path:url(#SVGID_16_);}
	.st16{clip-path:url(#SVGID_18_);}
	.st17{fill:#231F20;}
	.st18{fill:none;stroke:#FFFFFF;stroke-width:0.15;stroke-miterlimit:10;}
</style>
<title>residence_H_4-6_key_horizontal</title>
<g>
	<g>
		<path class="st0" d="M83.6,43.8c-0.6,0-1-0.4-1-1.1v-1.4H86v1.3c0,0.7-0.3,1.1-0.9,1.1c-0.3,0-0.6-0.2-0.7-0.4
			C84.2,43.6,83.9,43.8,83.6,43.8z M83.2,41.9v0.7c0,0.3,0.2,0.5,0.4,0.5s0.4-0.2,0.4-0.5v-0.7H83.2z M84.6,42.5
			c0,0.3,0.1,0.5,0.4,0.5s0.4-0.2,0.4-0.5v-0.6h-0.8V42.5z"/>
		<path class="st0" d="M83.8,46.2h-1.3v-0.7H86v1.4c0.1,0.5-0.3,1.1-0.8,1.2c-0.1,0-0.2,0-0.3,0c-0.5,0-0.9-0.3-1-0.8l-1.3,0.9v-0.8
			l1.3-0.8L83.8,46.2z M84.4,46.2v0.6c0,0.4,0.2,0.5,0.5,0.5s0.5-0.2,0.5-0.5v-0.6H84.4z"/>
		<path class="st0" d="M82.5,51.2c-0.1-1,0.6-1.8,1.6-1.9c1-0.1,1.8,0.6,1.9,1.6s-0.6,1.8-1.6,1.9c-0.1,0-0.1,0-0.2,0
			c-0.9,0.1-1.7-0.6-1.7-1.5C82.5,51.3,82.5,51.3,82.5,51.2z M85.4,51.2c0-0.5-0.4-0.9-1.1-0.9s-1.1,0.3-1.1,0.9s0.5,0.9,1.1,0.9
			S85.4,51.8,85.4,51.2z"/>
		<path class="st0" d="M86,56.1l-3.4,1.3v-0.7l0.8-0.3v-1.3l-0.8-0.3v-0.7l3.4,1.3V56.1z M84,55.4v0.8l1.1-0.4L84,55.4z"/>
		<path class="st0" d="M86,59v1.2c0,0.9-0.8,1.7-1.7,1.7c-0.9,0-1.7-0.8-1.7-1.7V59H86z M83.2,60.2c0,0.6,0.5,1.1,1.1,1.1
			c0.6,0,1.1-0.5,1.1-1.1v-0.5h-2.2L83.2,60.2z"/>
		<path class="st0" d="M86,65.7l-2.3,0.6l2.3,0.6v0.7l-3.4-0.9V66l2.2-0.6l-2.2-0.6v-0.6l3.4-0.9V64l-2.3,0.6l2.3,0.6V65.7z"/>
		<path class="st0" d="M86,70.7L82.6,72v-0.7l0.8-0.3v-1.3l-0.8-0.3v-0.7L86,70V70.7z M84,69.9v0.8l1.1-0.4L84,69.9z"/>
		<path class="st0" d="M86,75.3v0.7l-2.1-1.2h-1.3v-0.7h1.3l2.1-1.2v0.8l-1.4,0.8L86,75.3z"/>
		<path class="st0" d="M180.9,35.1v0.7h-2.8v1.6h-0.6v-2.3H180.9z"/>
		<path class="st0" d="M180.9,40.8l-3.4,1.3v-0.7l0.8-0.3v-1.3l-0.8-0.3v-0.7l3.4,1.3V40.8z M179,40v0.8l1.1-0.4L179,40z"/>
		<path class="st0" d="M177.6,43.7h3.4V46h-0.6v-1.6h-0.9v1.4h-0.6v-1.4h-1.3V43.7z"/>
		<path class="st0" d="M180.9,49.2l-3.4,1.3v-0.7l0.8-0.3v-1.3l-0.8-0.3v-0.7l3.4,1.3V49.2z M178.9,48.4v0.8l1.1-0.4L178.9,48.4z"/>
		<path class="st0" d="M180.9,53.9v0.7l-2.1-1.2h-1.3v-0.7h1.3l2.1-1.2v0.8l-1.4,0.8L180.9,53.9z"/>
		<path class="st0" d="M180.9,58.5h-0.6v-1.6h-0.7v1.5H179v-1.5h-0.8v1.6h-0.6v-2.3h3.4L180.9,58.5z"/>
		<path class="st0" d="M180.9,60.1V63h-0.6v-1.1h-2.8v-0.7h2.8v-1.1H180.9z"/>
		<path class="st0" d="M180.9,64.4v2.9h-0.6v-1.1h-2.8v-0.7h2.8v-1.1H180.9z"/>
		<path class="st0" d="M180.9,71.3h-0.6v-1.6h-0.7v1.5H179v-1.5h-0.8v1.6h-0.6V69h3.4L180.9,71.3z"/>
		<path class="st0" d="M178.5,75.9c-0.3,0.1-0.5,0.4-0.4,0.7c0,0.3,0.2,0.6,0.4,0.6s0.3-0.1,0.4-0.4l0.1-0.6c0-0.5,0.4-0.9,0.9-0.8
			c0.6,0,1,0.6,1,1.1c0,0,0,0,0,0.1c0.1,0.6-0.4,1.2-1,1.3v-0.7c0.3-0.1,0.4-0.4,0.4-0.6c0-0.3-0.2-0.5-0.4-0.5s-0.3,0.1-0.4,0.4
			l-0.1,0.6c-0.1,0.6-0.4,0.9-0.9,0.9c-0.6,0-1.1-0.5-1.1-1.2c0,0,0-0.1,0-0.1c-0.1-0.7,0.4-1.3,1-1.4L178.5,75.9L178.5,75.9z"/>
		<path class="st0" d="M180.9,79.3v2.9h-0.6v-1.1h-2.8v-0.7h2.8v-1.1H180.9z"/>
		<path class="st0" d="M112.4,39.3h0.7v2.8h1.6v0.6h-2.3V39.3z"/>
		<path class="st0" d="M118.6,39.3v0.6H117v0.7h1.4v0.6H117v0.8h1.6v0.6h-2.3v-3.4H118.6z"/>
		<path class="st0" d="M121.6,42.7c-1,0.1-1.8-0.6-1.9-1.6c-0.1-1,0.6-1.8,1.6-1.9c1-0.1,1.8,0.6,1.9,1.6c0,0.1,0,0.1,0,0.2
			c0.1,0.9-0.6,1.7-1.5,1.7C121.7,42.7,121.7,42.7,121.6,42.7z M121.6,39.9c-0.5,0-0.9,0.5-0.9,1.1s0.3,1.1,0.9,1.1s0.9-0.5,0.9-1.1
			S122.2,39.9,121.6,39.9z"/>
		<path class="st0" d="M127.7,42.7h-0.6l-1.6-2.2v2.2h-0.7v-3.4h0.7l1.5,2.1v-2.1h0.7L127.7,42.7z"/>
		<path class="st0" d="M131.2,39.3l1.3,3.4h-0.7l-0.3-0.8h-1.3l-0.3,0.8h-0.7l1.3-3.4H131.2z M130.4,41.3h0.8l-0.4-1.1L130.4,41.3z"
			/>
		<path class="st0" d="M134.6,41.4v1.3H134v-3.4h1.4c0.6-0.1,1.1,0.3,1.2,0.9c0,0.1,0,0.1,0,0.2c0,0.5-0.3,0.9-0.8,1l0.9,1.3h-0.8
			l-0.9-1.3H134.6z M134.6,40.8h0.6c0.4,0,0.5-0.2,0.5-0.5s-0.2-0.5-0.5-0.5h-0.6V40.8z"/>
		<path class="st0" d="M138.1,39.3h1.2c0.9,0,1.7,0.8,1.7,1.7c0,0.9-0.8,1.7-1.7,1.7h-1.2V39.3z M139.3,42.1c0.6,0,1.1-0.5,1.1-1.1
			c0-0.6-0.5-1.1-1.1-1.1h-0.5v2.1H139.3z"/>
		<path class="st0" d="M145.4,41.7c0.1,0.3,0.4,0.5,0.7,0.4c0.3,0,0.6-0.2,0.6-0.4s-0.1-0.3-0.4-0.4l-0.6-0.1
			c-0.5-0.1-0.9-0.4-0.9-0.9c0-0.6,0.6-1,1.2-1c0,0,0,0,0,0c0.6-0.1,1.2,0.4,1.3,1h-0.7c-0.1-0.3-0.3-0.4-0.6-0.4
			c-0.3,0-0.5,0.2-0.5,0.4s0.1,0.3,0.4,0.4l0.6,0.1c0.6,0.1,0.9,0.4,0.9,1c0,0.7-0.5,1-1.2,1c-0.7,0.1-1.3-0.4-1.4-1L145.4,41.7z"/>
		<path class="st0" d="M148.6,39.3h2.9v0.6h-1.1v2.8h-0.7v-2.8h-1.1V39.3z"/>
		<path class="st0" d="M109.9,74.6c0.7,0,1.3,0.4,1.4,1.1h-0.7c-0.1-0.3-0.4-0.5-0.7-0.5c-0.5,0-0.8,0.5-0.8,1.1s0.3,1.1,0.8,1.1
			c0.3,0,0.6-0.2,0.7-0.5h0.7c-0.1,0.7-0.7,1.2-1.4,1.1c-1-0.1-1.7-1-1.6-1.9C108.4,75.3,109.1,74.6,109.9,74.6L109.9,74.6z"/>
		<path class="st0" d="M114.7,74.6l1.3,3.4h-0.7l-0.3-0.8h-1.3l-0.3,0.8h-0.7l1.3-3.4H114.7z M113.9,76.6h0.8l-0.4-1.1L113.9,76.6z"
			/>
		<path class="st0" d="M117,74.6h2.9v0.6h-1.1V78h-0.7v-2.8H117V74.6z"/>
		<path class="st0" d="M124.5,74.6V78h-0.7v-1.4h-1.5V78h-0.7v-3.4h0.7v1.3h1.5v-1.3H124.5z"/>
		<path class="st0" d="M128.7,74.6v0.6h-1.6V76h1.5v0.6h-1.4v0.8h1.6V78h-2.3v-3.4H128.7z"/>
		<path class="st0" d="M131.1,76.7V78h-0.7v-3.4h1.4c0.5-0.1,1.1,0.2,1.2,0.8c0,0.1,0,0.2,0,0.3c0,0.5-0.3,0.9-0.8,1l0.9,1.3h-0.8
			l-0.8-1.3L131.1,76.7z M131.1,76.1h0.6c0.4,0,0.5-0.2,0.5-0.5s-0.2-0.5-0.5-0.5h-0.6V76.1z"/>
		<path class="st0" d="M135.4,78h-0.7v-3.4h0.7V78z"/>
		<path class="st0" d="M140.1,78h-0.6l-1.6-2.3V78h-0.7v-3.4h0.7l1.5,2.1v-2.1h0.7L140.1,78z"/>
		<path class="st0" d="M144.2,74.6v0.6h-1.6V76h1.4v0.6h-1.4v0.8h1.6V78H142v-3.4H144.2z"/>
		<path class="st0" d="M148.4,74.6h0.7v2.8h1.6V78h-2.3V74.6z"/>
		<path class="st0" d="M155.2,78h-0.6l-1.6-2.2V78h-0.7v-3.4h0.6l1.5,2.1v-2.1h0.7L155.2,78L155.2,78z"/>
	</g>
	<g id="_4-6_H">
		<polygon class="st1" points="142.3,52.1 150.9,52.1 150.9,58.9 150.4,58.9 143.8,58.8 143.8,57.6 142.7,57.6 142.7,57.7 142,57.7 
			142,54.5 142.3,54.5 		"/>
		<g>
			<defs>
				<rect id="SVGID_1_" x="92.8" y="50.8" width="76.6" height="17.3"/>
			</defs>
			<clipPath id="SVGID_2_">
				<use xlink:href="#SVGID_1_"  style="overflow:visible;"/>
			</clipPath>
			<g class="st2">
				<polygon class="st3" points="167.6,52 167.6,67 93.8,62.4 93.8,52 				"/>
			</g>
		</g>
		<g>
			<defs>
				<rect id="SVGID_3_" x="7.6" y="6.3" width="64.4" height="70.9"/>
			</defs>
			<clipPath id="SVGID_4_">
				<use xlink:href="#SVGID_3_"  style="overflow:visible;"/>
			</clipPath>
			<g class="st4">
				<g class="st5">
					<path class="st6" d="M13.3,56l0.5,0.3l-1.9,1.2l1.1,0.7l-0.4,0.3l-1.6-1L13.3,56z"/>
					<path class="st6" d="M17.7,58.7L17.3,59l-1.1-0.7l-0.5,0.3l1,0.6l-0.4,0.3l-1-0.6l-0.5,0.4l1.1,0.7l-0.4,0.3l-1.6-1l2.3-1.5
						L17.7,58.7z"/>
					<path class="st6" d="M17.6,61.6c-0.6-0.4-0.6-1,0.1-1.5c0.7-0.4,1.6-0.5,2.3-0.1c0.6,0.4,0.6,1-0.1,1.5
						C19.2,62,18.3,62,17.6,61.6z M19.6,60.4c-0.4-0.2-0.9-0.2-1.4,0.1s-0.5,0.6-0.2,0.9c0.4,0.2,0.9,0.2,1.4-0.1
						C19.9,60.9,19.9,60.6,19.6,60.4z"/>
					<path class="st6" d="M21.9,64.3L21.5,64l0.4-1.7l-1.5,1L20,63l2.3-1.5l0.5,0.3l-0.4,1.6l1.4-0.9l0.5,0.3L21.9,64.3z"/>
					<path class="st6" d="M26.8,64.3l-1.4,2l-0.5-0.3l0.3-0.5l-0.9-0.5l-0.8,0.2L23.1,65l3.2-0.9L26.8,64.3z M24.9,64.9l0.6,0.4
						l0.5-0.7L24.9,64.9z"/>
					<path class="st6" d="M27.9,66.9L27,67.4l-0.5-0.3l2.3-1.5l1,0.6c0.5,0.3,0.6,0.7,0.1,1c-0.4,0.2-0.8,0.3-1.2,0.1l-0.3,1
						l-0.5-0.3l0.3-0.9L27.9,66.9z M28.3,66.6l0.4,0.3c0.2,0.2,0.5,0.1,0.7,0c0.2-0.1,0.2-0.3,0-0.4l-0.4-0.3L28.3,66.6z"/>
					<path class="st6" d="M31.8,67.5l0.8,0.5c0.7,0.4,0.7,1,0,1.5s-1.6,0.5-2.3,0L29.6,69L31.8,67.5z M30.8,69.2
						c0.4,0.3,1,0.2,1.4,0c0.4-0.3,0.5-0.6,0-0.9l-0.3-0.2L30.5,69L30.8,69.2z"/>
				</g>
				<g class="st5">
					<path class="st6" d="M35.5,71.9c-0.1,0.2-0.1,0.3,0.2,0.5c0.2,0.1,0.5,0.2,0.7,0.1c0.1-0.1,0.1-0.2,0-0.3L36,71.7
						c-0.3-0.3-0.3-0.5,0-0.8c0.4-0.3,1-0.2,1.5,0.1c0.5,0.3,0.6,0.7,0.2,1l-0.5-0.3c0.1-0.1,0.1-0.3-0.2-0.4
						c-0.2-0.1-0.5-0.2-0.6-0.1c-0.1,0.1-0.1,0.2,0,0.3l0.3,0.3c0.3,0.3,0.3,0.6,0,0.8c-0.4,0.3-1.1,0.2-1.6-0.1
						c-0.5-0.3-0.6-0.7-0.3-1L35.5,71.9z"/>
				</g>
				<g class="st5">
					<path class="st6" d="M39.5,72.3l2,1.2l-0.4,0.3l-0.7-0.5l-1.9,1.2L38,74.3l1.9-1.2l-0.7-0.5L39.5,72.3z"/>
				</g>
				<line class="st7" x1="59.3" y1="46.6" x2="59.3" y2="43.3"/>
				<line class="st7" x1="15" y1="20" x2="15" y2="17.3"/>
				<line class="st7" x1="24.2" y1="23.6" x2="24.2" y2="25.1"/>
				<line class="st7" x1="20.1" y1="21.3" x2="20.1" y2="22.8"/>
				<line class="st7" x1="25.3" y1="23" x2="25.3" y2="24.5"/>
				<line class="st8" x1="25.3" y1="24.5" x2="24.2" y2="25.1"/>
				<line class="st8" x1="25.2" y1="23" x2="24.2" y2="23.6"/>
				<line class="st8" x1="53.2" y1="36.2" x2="48.8" y2="38.8"/>
				<line class="st8" x1="56.7" y1="38.9" x2="52.8" y2="41.2"/>
				<line class="st7" x1="30.7" y1="26.1" x2="30.7" y2="27.6"/>
				<line class="st8" x1="34.4" y1="24.8" x2="52.4" y2="36.7"/>
				<line class="st8" x1="53.2" y1="36.2" x2="56.7" y2="38.5"/>
				<line class="st8" x1="34.4" y1="24.4" x2="52.8" y2="36.4"/>
				<line class="st8" x1="12.8" y1="19.1" x2="14.7" y2="20.2"/>
				<line class="st8" x1="20.1" y1="21.3" x2="24.2" y2="23.6"/>
				<line class="st8" x1="25.3" y1="23" x2="30.7" y2="26.2"/>
				<line class="st8" x1="25.3" y1="24.5" x2="30.7" y2="27.6"/>
				<line class="st8" x1="48.8" y1="38.8" x2="52.8" y2="41.2"/>
				<line class="st7" x1="59.3" y1="37" x2="59.3" y2="35.4"/>
				<polyline class="st7" points="52.5,44.2 51.8,43.8 51,44.3 16.1,24.1 16.1,22.4 				"/>
				<polyline class="st7" points="24.9,18.6 21.4,16.3 13.5,20.9 51,42.6 				"/>
				<line class="st7" x1="51" y1="42.6" x2="51" y2="44.3"/>
				<line class="st7" x1="51.8" y1="42.1" x2="51" y2="42.6"/>
				<polyline class="st7" points="51.8,43.8 51.8,42.1 48.8,40.4 				"/>
				<line class="st7" x1="59.3" y1="49.7" x2="59.3" y2="47.8"/>
				<polyline class="st7" points="63.4,42.6 65.7,44.1 65.7,46 59.3,49.7 52.5,45.8 52.5,43.9 55.2,42.3 				"/>
				<polyline class="st7" points="65.7,44.1 59.3,47.8 52.5,43.9 				"/>
				<polyline class="st8" points="14.2,21.3 14.2,22.2 16.1,23.3 				"/>
				<line class="st8" x1="20.1" y1="22.8" x2="24.2" y2="25.2"/>
				<line class="st8" x1="48.8" y1="40.4" x2="48.8" y2="38.8"/>
				<line class="st8" x1="52.8" y1="43.6" x2="52.8" y2="41.2"/>
				<polyline class="st8" points="61.9,36.2 59.3,37.8 56.7,36.3 				"/>
				<polyline class="st7" points="61.9,39.6 62.2,39.8 62.2,40.9 59.3,42.6 56.4,40.9 56.4,39.8 56.7,39.7 				"/>
				<line class="st7" x1="59.3" y1="42.6" x2="59.3" y2="37.8"/>
				<polyline class="st7" points="62.2,40.1 63.4,40.8 63.4,44.2 59.3,46.6 55.2,44.2 55.2,40.9 56.4,40.2 				"/>
				<polyline class="st7" points="63.4,40.8 59.3,43.3 55.3,40.9 				"/>
				<polyline class="st7" points="12.8,19.1 8.9,21.4 8.9,49.3 				"/>
				<polyline class="st7" points="17.2,16.5 20,14.9 25.2,18.4 				"/>
				<line class="st7" x1="59.3" y1="50.7" x2="59.3" y2="75.8"/>
				<line class="st7" x1="59.3" y1="75.8" x2="32.3" y2="60.2"/>
				<polyline class="st7" points="66.9,50.4 59.3,54.8 8.9,25.7 				"/>
				<polyline class="st7" points="66.9,52.5 59.3,57 8.9,27.8 				"/>
				<polyline class="st7" points="66.9,54.6 59.3,59 8.9,29.9 				"/>
				<polyline class="st7" points="66.9,56.7 59.3,61.1 8.9,32 				"/>
				<polyline class="st7" points="66.9,58.8 59.3,63.2 8.9,34 				"/>
				<polyline class="st7" points="66.9,60.9 59.3,65.3 8.9,36.2 				"/>
				<polyline class="st7" points="66.9,63 59.3,67.4 8.9,38.2 				"/>
				<polyline class="st7" points="66.9,65.1 59.3,69.5 8.9,40.3 				"/>
				<line class="st7" x1="66.9" y1="67.2" x2="65.1" y2="68.2"/>
				<polyline class="st7" points="61.1,70.6 59.3,71.6 8.9,42.4 				"/>
				<line class="st7" x1="65.1" y1="70.3" x2="66.9" y2="69.3"/>
				<polyline class="st7" points="61.1,72.7 59.3,73.7 8.9,44.5 				"/>
				<polyline class="st7" points="66.9,48.3 59.3,52.8 8.9,23.6 				"/>
				<line class="st7" x1="30.2" y1="59" x2="8.9" y2="46.6"/>
				<polyline class="st8" points="14,15.4 12.8,16 12.8,19.1 				"/>
				<polyline class="st8" points="16.1,15.4 17.2,16 17.2,18.7 				"/>
				<polyline class="st8" points="12.8,16 15,17.3 17.2,16 				"/>
				<polyline class="st7" points="60.2,34.2 60.8,34.5 60.8,36.2 59.3,37 57.8,36.2 57.8,34.5 58.5,34.1 				"/>
				<polyline class="st8" points="60.8,34.5 59.3,35.4 57.8,34.5 				"/>
				<g>
					<defs>
						<rect id="SVGID_5_" x="7.6" y="6.3" width="64.4" height="70.9"/>
					</defs>
					<clipPath id="SVGID_6_">
						<use xlink:href="#SVGID_5_"  style="overflow:visible;"/>
					</clipPath>
					<g class="st9">
						<path class="st7" d="M57.9,32.8c-0.1,0.1-0.1,0.2-0.2,0.2l0.1,0.2c0.1,0.1,0.4,0.2,1,0.1s1.7-0.8,1.8-1.4l-0.2-0.4
							c-0.1,0-0.2,0-0.4,0"/>
					</g>
				</g>
				<polyline class="st7" points="58.4,30.5 59.2,30.9 59.4,30.8 60,30 				"/>
				<g>
					<defs>
						<rect id="SVGID_7_" x="7.6" y="6.3" width="64.4" height="70.9"/>
					</defs>
					<clipPath id="SVGID_8_">
						<use xlink:href="#SVGID_7_"  style="overflow:visible;"/>
					</clipPath>
					<g class="st10">
						<path class="st7" d="M60.5,32.2c0.2,0.7-0.3,1.4-1,1.6c-0.2,0-0.4,0-0.5,0c-0.3-0.1-0.5-0.2-0.7-0.4h-0.1"/>
						<path class="st7" d="M58,33c0-0.1-0.1-0.2-0.1-0.3c-0.1-0.7,0.4-1.4,1.1-1.5c0.4-0.1,0.9,0.1,1.2,0.4c0.1,0.1,0.2,0.2,0.2,0.3
							"/>
						<path class="st7" d="M58.7,38.8c0.2,0.6,0,1.2-0.4,1.2s-1-0.5-1.2-1.1s0-1.2,0.4-1.2S58.5,38.1,58.7,38.8z"/>
						<path class="st7" d="M59.8,38.8c-0.2,0.6,0,1.2,0.4,1.2s1-0.5,1.2-1.2s0-1.2-0.4-1.2S60.1,38.2,59.8,38.8z"/>
						<path class="st11" d="M60.2,34.2c0,0,0-0.1,0-0.2c0,0,0-0.1-0.1-0.1c-0.1,0-0.2,0-0.2,0l0,0l0.1-0.3"/>
						<path class="st8" d="M59.5,34.2c0,0.1,0,0.1,0.1,0.2s0.1,0.1,0.2,0"/>
					</g>
				</g>
				<polyline class="st8" points="58.8,34.7 58.8,34.6 59,34.3 59,34.2 58.7,34.2 58.4,34 58.5,33.7 				"/>
				<polyline class="st7" points="57.8,35.6 56.7,36.3 56.7,39.8 59.3,41.3 62,39.8 62,36.2 60.8,35.5 				"/>
				<g>
					<defs>
						<rect id="SVGID_9_" x="7.6" y="6.3" width="64.4" height="70.9"/>
					</defs>
					<clipPath id="SVGID_10_">
						<use xlink:href="#SVGID_9_"  style="overflow:visible;"/>
					</clipPath>
					<g class="st12">
						<path class="st8" d="M14.9,14.2c-0.5,0.1-0.9,0.6-0.9,1.1v0.8c0,0.3,0.5,0.6,1.1,0.6s1.1-0.2,1.1-0.6v-0.8
							c0-0.5-0.4-1-0.9-1.1V14c0-0.1-0.1-0.1-0.2-0.1s-0.2,0.1-0.2,0.1L14.9,14.2z"/>
					</g>
				</g>
				<polyline class="st7" points="66.9,46.2 59.3,50.7 8.9,21.5 				"/>
				<polyline class="st7" points="32.3,60.6 30.9,59.7 29.5,60.5 31.4,61.6 32.3,61 				"/>
				<line class="st7" x1="32.3" y1="60.6" x2="30.9" y2="59.7"/>
				<line class="st7" x1="32.3" y1="61.8" x2="31.6" y2="61.4"/>
				<g>
					<defs>
						<rect id="SVGID_11_" x="7.6" y="6.3" width="64.4" height="70.9"/>
					</defs>
					<clipPath id="SVGID_12_">
						<use xlink:href="#SVGID_11_"  style="overflow:visible;"/>
					</clipPath>
					<g class="st13">
						<path class="st7" d="M31.2,58.1c-0.2,0.2-0.3,0.4-0.3,0.6v1.1"/>
					</g>
				</g>
				<polyline class="st7" points="30.6,61.1 30.2,61.3 8.9,49.3 				"/>
				<line class="st7" x1="30.2" y1="61.3" x2="30.2" y2="60.9"/>
				<g>
					<defs>
						<rect id="SVGID_13_" x="7.6" y="6.3" width="64.4" height="70.9"/>
					</defs>
					<clipPath id="SVGID_14_">
						<use xlink:href="#SVGID_13_"  style="overflow:visible;"/>
					</clipPath>
					<g class="st14">
						<path class="st7" d="M65.1,72.4v-4.1l-4,2.2v4.2l-1.8,1.1l-13.6-6.4l-10.9-5.5l-2.5-1.4v-2.8c-0.1-0.7-0.5-1.2-1.1-1.6
							c-0.3-0.2-0.7-0.1-1,0.2c-0.1,0.1-0.1,0.3-0.1,0.4v1.4"/>
					</g>
				</g>
				<polyline class="st7" points="62.2,72.7 62.2,71.6 61.6,72 61.6,73.1 				"/>
				<g>
					<defs>
						<rect id="SVGID_15_" x="7.6" y="6.3" width="64.4" height="70.9"/>
					</defs>
					<clipPath id="SVGID_16_">
						<use xlink:href="#SVGID_15_"  style="overflow:visible;"/>
					</clipPath>
					<g class="st15">
						<path class="st7" d="M65.7,45.5l1.2,0.8v25.1l-1.8,1c-0.9-0.3-1.9-0.2-2.7,0.2l-0.9,0.5c-0.2,0.1-0.3,0.2-0.4,0.3"/>
					</g>
				</g>
				<polyline class="st8" points="30.7,27.6 34.4,25.4 34.4,23.9 25.6,18.1 20.1,21.3 				"/>
				<line class="st8" x1="34.4" y1="23.9" x2="30.7" y2="26.1"/>
				<g>
					<defs>
						<rect id="SVGID_17_" x="7.6" y="6.3" width="64.4" height="70.9"/>
					</defs>
					<clipPath id="SVGID_18_">
						<use xlink:href="#SVGID_17_"  style="overflow:visible;"/>
					</clipPath>
					<g class="st16">
						<g class="st5">
							<path class="st6" d="M150.6,51.1c0.5,0.4,0.5,0.8,0.1,1.1l-0.5-0.3c0.1-0.2,0.1-0.4-0.1-0.5c-0.4-0.2-0.9-0.2-1.3,0.1
								c-0.4,0.3-0.6,0.6-0.2,0.8c0.3,0.2,0.5,0.2,0.8,0.1l0.5,0.3c-0.6,0.2-1.2,0.2-1.7-0.2c-0.6-0.4-0.5-1,0.2-1.4
								C149.1,50.6,150,50.6,150.6,51.1z"/>
						</g>
						<g class="st5">
							<path class="st6" d="M153.8,53.3l-1.5,2l-0.5-0.3l0.4-0.5l-0.8-0.6l-0.8,0.2l-0.5-0.3l3.2-0.8L153.8,53.3z M151.9,53.8
								l0.5,0.4l0.5-0.6L151.9,53.8z"/>
						</g>
						<g class="st5">
							<path class="st6" d="M155.4,54.5l1.9,1.3l-0.4,0.2l-0.7-0.5l-1.9,1.1l-0.5-0.3l1.9-1.1l-0.7-0.5L155.4,54.5z"/>
							<path class="st6" d="M160.4,57.9l-2.3,1.4l-0.5-0.3l1-0.6l-1-0.7l-1,0.6l-0.5-0.3l2.3-1.4l0.5,0.3l-0.9,0.5l1,0.7l0.9-0.5
								L160.4,57.9z"/>
							<path class="st6" d="M163.2,59.9l-0.4,0.2l-1.1-0.7l-0.5,0.3l1,0.7l-0.4,0.2l-1-0.7l-0.6,0.3l1.1,0.7l-0.4,0.3l-1.5-1.1
								l2.3-1.4L163.2,59.9z"/>
							<path class="st6" d="M163.5,61.9l-0.9,0.5l-0.5-0.3l2.3-1.4l0.9,0.6c0.5,0.3,0.5,0.7,0,1c-0.4,0.2-0.8,0.2-1.2,0l-0.3,0.9
								l-0.5-0.4l0.3-0.9L163.5,61.9z M163.9,61.7l0.4,0.3c0.2,0.2,0.5,0.2,0.7,0.1c0.2-0.1,0.2-0.3,0-0.4l-0.4-0.3L163.9,61.7z"/>
							<path class="st6" d="M165.5,64.5l-0.5-0.3l2.3-1.4l0.5,0.3L165.5,64.5z"/>
							<path class="st6" d="M168.7,66.7l-0.4-0.3l0.5-1.6l-1.6,0.9l-0.4-0.3l2.3-1.4l0.4,0.3l-0.5,1.5l1.5-0.9l0.4,0.3L168.7,66.7z"
								/>
							<path class="st6" d="M173.8,67.3l-0.4,0.2l-1.1-0.7l-0.5,0.3l1,0.7l-0.4,0.2l-1-0.7l-0.6,0.3l1.1,0.7l-0.4,0.3l-1.5-1.1
								l2.3-1.4L173.8,67.3z"/>
							<path class="st6" d="M176.7,69.2l0.5,0.3l-1.9,1.1l1,0.7l-0.4,0.3l-1.5-1L176.7,69.2z"/>
						</g>
						<g class="st5">
							<path class="st6" d="M179,73.8l-0.4-0.3l0.5-1.6l-1.6,0.9l-0.4-0.3l2.3-1.4l0.4,0.3l-0.5,1.5l1.5-0.9l0.4,0.3L179,73.8z"/>
						</g>
						<path class="st8" d="M198.9,71.1v-0.9c0-0.2-0.2-0.5-0.6-0.2c-0.3,0.2-0.5,0.5-0.5,0.8v1l-5,2.9l-6.6-4.6l-8.3-5.7l-7-4.8
							l-10.3-7.1l-14.7-10.7V16.5l1-0.6"/>
						<path class="st8" d="M152.3,9.1c0.2,0.6,0,1.1-0.4,1.1s-1-0.5-1.2-1.1S150.7,8,151.1,8S152.1,8.5,152.3,9.1z"/>
						<path class="st8" d="M153.5,9.1c-0.2,0.6-0.1,1.1,0.4,1.1s1-0.5,1.2-1.1s0-1.2-0.4-1.2S153.7,8.5,153.5,9.1z"/>
						<path class="st8" d="M151.5,3.1c-0.1,0.1-0.1,0.2-0.2,0.2l0.1,0.2c0.1,0.1,0.4,0.2,1,0.1s1.7-0.8,1.8-1.4l-0.2-0.4
							c-0.1,0-0.2,0-0.4,0"/>
						<path class="st8" d="M154.1,2.6c0.2,0.7-0.3,1.4-1,1.6c-0.2,0-0.4,0-0.5,0c-0.3-0.1-0.5-0.2-0.7-0.4h-0.1"/>
						<path class="st8" d="M151.6,3.4c0-0.1-0.1-0.2-0.1-0.3c-0.1-0.7,0.4-1.4,1.1-1.5c0.4-0.1,0.9,0.1,1.2,0.4
							c0.1,0.1,0.2,0.2,0.2,0.3"/>
						<path class="st8" d="M153.8,4.6c0,0,0-0.1,0-0.2c0,0,0-0.1-0.1-0.1c-0.1,0-0.2,0-0.2,0V4.3l0.1-0.3"/>
						<path class="st8" d="M153.2,4.6c0,0.1,0,0.1,0.1,0.2s0.1,0.1,0.2,0"/>
					</g>
				</g>
				<polygon class="st17" points="20.7,43 20.7,49.3 25.5,52.1 25.5,45.8 				"/>
				<line class="st18" x1="20.7" y1="45.1" x2="25.5" y2="47.8"/>
				<line class="st18" x1="20.7" y1="47.2" x2="25.5" y2="49.9"/>
			</g>
		</g>
	</g>
</g>
</svg>
