<?xml version="1.0" encoding="utf-8"?>
<!-- Generator: Adobe Illustrator 23.0.0, SVG Export Plug-In . SVG Version: 6.00 Build 0)  -->
<svg version="1.1" id="Layer_1" xmlns="http://www.w3.org/2000/svg" xmlns:xlink="http://www.w3.org/1999/xlink" x="0px" y="0px"
	 viewBox="0 0 189.9 92.6" style="enable-background:new 0 0 189.9 92.6;" xml:space="preserve">
<style type="text/css">
	.st0{fill:#D2D3D4;}
	.st1{fill:#010101;}
	.st2{clip-path:url(#SVGID_2_);}
	.st3{fill:none;stroke:#D1D3D4;stroke-width:1.09;stroke-miterlimit:10;}
	.st4{clip-path:url(#SVGID_4_);}
	.st5{enable-background:new    ;}
	.st6{fill:#D1D3D4;}
	.st7{fill:none;stroke:#231F20;stroke-width:0.15;stroke-miterlimit:10;}
	.st8{fill:none;stroke:#231F20;stroke-width:0.14;stroke-miterlimit:10;}
	.st9{clip-path:url(#SVGID_6_);}
	.st10{clip-path:url(#SVGID_8_);}
	.st11{fill:none;stroke:#231F20;stroke-width:0.14;stroke-linejoin:bevel;}
	.st12{clip-path:url(#SVGID_10_);}
	.st13{clip-path:url(#SVGID_12_);}
	.st14{clip-path:url(#SVGID_14_);}
	.st15{clip-path:url(#SVGID_16_);}
	.st16{clip-path:url(#SVGID_18_);}
	.st17{fill:#231F20;}
	.st18{fill:none;stroke:#FFFFFF;stroke-width:0.15;stroke-miterlimit:10;}
</style>
<title>residence_A_3-6_key_horizontal</title>
<g>
	<g>
		<path class="st0" d="M83.6,43.8c-0.6,0-1-0.4-1-1.1v-1.4H86v1.3c0,0.7-0.3,1.1-0.9,1.1c-0.3,0-0.6-0.2-0.7-0.4
			C84.2,43.6,83.9,43.8,83.6,43.8z M83.2,41.9v0.7c0,0.3,0.2,0.5,0.4,0.5s0.4-0.2,0.4-0.5v-0.7H83.2z M84.6,42.5
			c0,0.3,0.1,0.5,0.4,0.5s0.4-0.2,0.4-0.5v-0.6h-0.8V42.5z"/>
		<path class="st0" d="M83.8,46.2h-1.3v-0.7H86v1.4c0.1,0.5-0.3,1.1-0.8,1.2c-0.1,0-0.2,0-0.3,0c-0.5,0-0.9-0.3-1-0.8l-1.3,0.9v-0.8
			l1.3-0.8L83.8,46.2z M84.4,46.2v0.6c0,0.4,0.2,0.5,0.5,0.5s0.5-0.2,0.5-0.5v-0.6H84.4z"/>
		<path class="st0" d="M82.5,51.2c-0.1-1,0.6-1.8,1.6-1.9c1-0.1,1.8,0.6,1.9,1.6s-0.6,1.8-1.6,1.9c-0.1,0-0.1,0-0.2,0
			c-0.9,0.1-1.7-0.6-1.7-1.5C82.5,51.3,82.5,51.3,82.5,51.2z M85.4,51.2c0-0.5-0.4-0.9-1.1-0.9s-1.1,0.3-1.1,0.9s0.5,0.9,1.1,0.9
			S85.4,51.8,85.4,51.2z"/>
		<path class="st0" d="M86,56.1l-3.4,1.3v-0.7l0.8-0.3v-1.3l-0.8-0.3v-0.7l3.4,1.3V56.1z M84,55.4v0.8l1.1-0.4L84,55.4z"/>
		<path class="st0" d="M86,59v1.2c0,0.9-0.8,1.7-1.7,1.7c-0.9,0-1.7-0.8-1.7-1.7V59H86z M83.2,60.2c0,0.6,0.5,1.1,1.1,1.1
			c0.6,0,1.1-0.5,1.1-1.1v-0.5h-2.2L83.2,60.2z"/>
		<path class="st0" d="M86,65.7l-2.3,0.6l2.3,0.6v0.7l-3.4-0.9V66l2.2-0.6l-2.2-0.6v-0.6l3.4-0.9V64l-2.3,0.6l2.3,0.6V65.7z"/>
		<path class="st0" d="M86,70.7L82.6,72v-0.7l0.8-0.3v-1.3l-0.8-0.3v-0.7L86,70V70.7z M84,69.9v0.8l1.1-0.4L84,69.9z"/>
		<path class="st0" d="M86,75.3v0.7l-2.1-1.2h-1.3v-0.7h1.3l2.1-1.2v0.8l-1.4,0.8L86,75.3z"/>
		<path class="st0" d="M180.9,35.1v0.7h-2.8v1.6h-0.6v-2.3H180.9z"/>
		<path class="st0" d="M180.9,40.8l-3.4,1.3v-0.7l0.8-0.3v-1.3l-0.8-0.3v-0.7l3.4,1.3V40.8z M179,40v0.8l1.1-0.4L179,40z"/>
		<path class="st0" d="M177.6,43.7h3.4V46h-0.6v-1.6h-0.9v1.4h-0.6v-1.4h-1.3V43.7z"/>
		<path class="st0" d="M180.9,49.2l-3.4,1.3v-0.7l0.8-0.3v-1.3l-0.8-0.3v-0.7l3.4,1.3V49.2z M178.9,48.4v0.8l1.1-0.4L178.9,48.4z"/>
		<path class="st0" d="M180.9,53.9v0.7l-2.1-1.2h-1.3v-0.7h1.3l2.1-1.2v0.8l-1.4,0.8L180.9,53.9z"/>
		<path class="st0" d="M180.9,58.5h-0.6v-1.6h-0.7v1.5H179v-1.5h-0.8v1.6h-0.6v-2.3h3.4L180.9,58.5z"/>
		<path class="st0" d="M180.9,60.1V63h-0.6v-1.1h-2.8v-0.7h2.8v-1.1H180.9z"/>
		<path class="st0" d="M180.9,64.4v2.9h-0.6v-1.1h-2.8v-0.7h2.8v-1.1H180.9z"/>
		<path class="st0" d="M180.9,71.3h-0.6v-1.6h-0.7v1.5H179v-1.5h-0.8v1.6h-0.6V69h3.4L180.9,71.3z"/>
		<path class="st0" d="M178.5,75.9c-0.3,0.1-0.5,0.4-0.4,0.7c0,0.3,0.2,0.6,0.4,0.6s0.3-0.1,0.4-0.4l0.1-0.6c0-0.5,0.4-0.9,0.9-0.8
			c0.6,0,1,0.6,1,1.1c0,0,0,0,0,0.1c0.1,0.6-0.4,1.2-1,1.3v-0.7c0.3-0.1,0.4-0.4,0.4-0.6c0-0.3-0.2-0.5-0.4-0.5s-0.3,0.1-0.4,0.4
			l-0.1,0.6c-0.1,0.6-0.4,0.9-0.9,0.9c-0.6,0-1.1-0.5-1.1-1.2c0,0,0-0.1,0-0.1c-0.1-0.7,0.4-1.3,1-1.4L178.5,75.9L178.5,75.9z"/>
		<path class="st0" d="M180.9,79.3v2.9h-0.6v-1.1h-2.8v-0.7h2.8v-1.1H180.9z"/>
		<path class="st0" d="M112.4,39.3h0.7v2.8h1.6v0.6h-2.3V39.3z"/>
		<path class="st0" d="M118.6,39.3v0.6H117v0.7h1.4v0.6H117v0.8h1.6v0.6h-2.3v-3.4H118.6z"/>
		<path class="st0" d="M121.6,42.7c-1,0.1-1.8-0.6-1.9-1.6c-0.1-1,0.6-1.8,1.6-1.9c1-0.1,1.8,0.6,1.9,1.6c0,0.1,0,0.1,0,0.2
			c0.1,0.9-0.6,1.7-1.5,1.7C121.7,42.7,121.7,42.7,121.6,42.7z M121.6,39.9c-0.5,0-0.9,0.5-0.9,1.1s0.3,1.1,0.9,1.1s0.9-0.5,0.9-1.1
			S122.2,39.9,121.6,39.9z"/>
		<path class="st0" d="M127.7,42.7h-0.6l-1.6-2.2v2.2h-0.7v-3.4h0.7l1.5,2.1v-2.1h0.7L127.7,42.7z"/>
		<path class="st0" d="M131.2,39.3l1.3,3.4h-0.7l-0.3-0.8h-1.3l-0.3,0.8h-0.7l1.3-3.4H131.2z M130.4,41.3h0.8l-0.4-1.1L130.4,41.3z"
			/>
		<path class="st0" d="M134.6,41.4v1.3H134v-3.4h1.4c0.6-0.1,1.1,0.3,1.2,0.9c0,0.1,0,0.1,0,0.2c0,0.5-0.3,0.9-0.8,1l0.9,1.3h-0.8
			l-0.9-1.3H134.6z M134.6,40.8h0.6c0.4,0,0.5-0.2,0.5-0.5s-0.2-0.5-0.5-0.5h-0.6V40.8z"/>
		<path class="st0" d="M138.1,39.3h1.2c0.9,0,1.7,0.8,1.7,1.7c0,0.9-0.8,1.7-1.7,1.7h-1.2V39.3z M139.3,42.1c0.6,0,1.1-0.5,1.1-1.1
			c0-0.6-0.5-1.1-1.1-1.1h-0.5v2.1H139.3z"/>
		<path class="st0" d="M145.4,41.7c0.1,0.3,0.4,0.5,0.7,0.4c0.3,0,0.6-0.2,0.6-0.4s-0.1-0.3-0.4-0.4l-0.6-0.1
			c-0.5-0.1-0.9-0.4-0.9-0.9c0-0.6,0.6-1,1.2-1c0,0,0,0,0,0c0.6-0.1,1.2,0.4,1.3,1h-0.7c-0.1-0.3-0.3-0.4-0.6-0.4
			c-0.3,0-0.5,0.2-0.5,0.4s0.1,0.3,0.4,0.4l0.6,0.1c0.6,0.1,0.9,0.4,0.9,1c0,0.7-0.5,1-1.2,1c-0.7,0.1-1.3-0.4-1.4-1L145.4,41.7z"/>
		<path class="st0" d="M148.6,39.3h2.9v0.6h-1.1v2.8h-0.7v-2.8h-1.1V39.3z"/>
		<path class="st0" d="M109.9,74.6c0.7,0,1.3,0.4,1.4,1.1h-0.7c-0.1-0.3-0.4-0.5-0.7-0.5c-0.5,0-0.8,0.5-0.8,1.1s0.3,1.1,0.8,1.1
			c0.3,0,0.6-0.2,0.7-0.5h0.7c-0.1,0.7-0.7,1.2-1.4,1.1c-1-0.1-1.7-1-1.6-1.9C108.4,75.3,109.1,74.6,109.9,74.6L109.9,74.6z"/>
		<path class="st0" d="M114.7,74.6l1.3,3.4h-0.7l-0.3-0.8h-1.3l-0.3,0.8h-0.7l1.3-3.4H114.7z M113.9,76.6h0.8l-0.4-1.1L113.9,76.6z"
			/>
		<path class="st0" d="M117,74.6h2.9v0.6h-1.1V78h-0.7v-2.8H117V74.6z"/>
		<path class="st0" d="M124.5,74.6V78h-0.7v-1.4h-1.5V78h-0.7v-3.4h0.7v1.3h1.5v-1.3H124.5z"/>
		<path class="st0" d="M128.7,74.6v0.6h-1.6V76h1.5v0.6h-1.4v0.8h1.6V78h-2.3v-3.4H128.7z"/>
		<path class="st0" d="M131.1,76.7V78h-0.7v-3.4h1.4c0.5-0.1,1.1,0.2,1.2,0.8c0,0.1,0,0.2,0,0.3c0,0.5-0.3,0.9-0.8,1l0.9,1.3h-0.8
			l-0.8-1.3L131.1,76.7z M131.1,76.1h0.6c0.4,0,0.5-0.2,0.5-0.5s-0.2-0.5-0.5-0.5h-0.6V76.1z"/>
		<path class="st0" d="M135.4,78h-0.7v-3.4h0.7V78z"/>
		<path class="st0" d="M140.1,78h-0.6l-1.6-2.3V78h-0.7v-3.4h0.7l1.5,2.1v-2.1h0.7L140.1,78z"/>
		<path class="st0" d="M144.2,74.6v0.6h-1.6V76h1.4v0.6h-1.4v0.8h1.6V78H142v-3.4H144.2z"/>
		<path class="st0" d="M148.4,74.6h0.7v2.8h1.6V78h-2.3V74.6z"/>
		<path class="st0" d="M155.2,78h-0.6l-1.6-2.2V78h-0.7v-3.4h0.6l1.5,2.1v-2.1h0.7L155.2,78L155.2,78z"/>
	</g>
	<g id="Layer_4">
		<polygon class="st1" points="103.1,53.1 103.1,54.3 103.1,55 103.1,56.3 107,56.3 107,57.8 107.7,57.8 107.7,57.6 108.7,57.6 
			108.7,57.8 109.9,57.8 112.8,57.8 112.8,52.1 103.1,52.1 		"/>
		<g>
			<defs>
				<rect id="SVGID_1_" x="92.2" y="50.9" width="76.4" height="17.2"/>
			</defs>
			<clipPath id="SVGID_2_">
				<use xlink:href="#SVGID_1_"  style="overflow:visible;"/>
			</clipPath>
			<g class="st2">
				<polygon class="st3" points="166.8,52.1 166.8,67 93.1,62.4 93.1,52.1 				"/>
			</g>
		</g>
		<g>
			<defs>
				<rect id="SVGID_3_" x="6.2" y="4.1" width="66.2" height="72.8"/>
			</defs>
			<clipPath id="SVGID_4_">
				<use xlink:href="#SVGID_3_"  style="overflow:visible;"/>
			</clipPath>
			<g class="st4">
				<g class="st5">
					<path class="st6" d="M12.2,54.9l0.5,0.3l-1.9,1.3l1.1,0.7l-0.4,0.3l-1.6-1L12.2,54.9z"/>
					<path class="st6" d="M16.7,57.7L16.2,58l-1.1-0.7l-0.5,0.3l1,0.6l-0.4,0.3l-1-0.6l-0.6,0.4l1.1,0.7l-0.4,0.3l-1.6-1l2.4-1.5
						L16.7,57.7z"/>
					<path class="st6" d="M16.6,60.7c-0.7-0.4-0.6-1,0.1-1.5c0.7-0.5,1.7-0.5,2.3-0.1c0.7,0.4,0.6,1-0.1,1.5
						C18.2,61.1,17.3,61.1,16.6,60.7z M18.6,59.4c-0.4-0.2-0.9-0.2-1.4,0.1c-0.5,0.3-0.5,0.7-0.2,0.9c0.4,0.2,0.9,0.2,1.4-0.1
						C18.9,60,19,59.6,18.6,59.4z"/>
					<path class="st6" d="M21,63.4l-0.4-0.2l0.4-1.7l-1.6,1L19,62.2l2.4-1.5l0.5,0.3l-0.4,1.6l1.5-1l0.5,0.3L21,63.4z"/>
					<path class="st6" d="M26,63.5l-1.4,2.1l-0.5-0.3l0.4-0.5l-0.9-0.6l-0.8,0.2l-0.5-0.3l3.3-1L26,63.5z M24.1,64.1l0.6,0.4
						l0.5-0.7L24.1,64.1z"/>
					<path class="st6" d="M27.1,66.1l-0.9,0.6l-0.5-0.3l2.4-1.5l1,0.6c0.5,0.3,0.6,0.7,0.1,1c-0.4,0.2-0.8,0.3-1.2,0.1l-0.3,1
						l-0.6-0.3l0.3-0.9L27.1,66.1z M27.5,65.8l0.5,0.3c0.2,0.2,0.5,0.1,0.7,0c0.2-0.1,0.2-0.3,0-0.4l-0.5-0.3L27.5,65.8z"/>
					<path class="st6" d="M31.2,66.8l0.8,0.5c0.7,0.4,0.7,1,0,1.5c-0.7,0.5-1.6,0.5-2.3,0l-0.8-0.5L31.2,66.8z M30.1,68.5
						c0.5,0.3,1,0.2,1.4,0c0.5-0.3,0.5-0.6,0-0.9l-0.3-0.2l-1.5,1L30.1,68.5z"/>
				</g>
				<g class="st5">
					<path class="st6" d="M34.9,71.2c-0.1,0.2-0.1,0.3,0.2,0.5c0.2,0.1,0.5,0.2,0.7,0.1c0.1-0.1,0.1-0.2,0-0.4l-0.3-0.3
						c-0.3-0.3-0.3-0.5,0-0.8c0.4-0.3,1.1-0.3,1.6,0.1c0.5,0.3,0.6,0.7,0.3,1l-0.5-0.3c0.1-0.1,0.1-0.3-0.2-0.5
						c-0.2-0.1-0.5-0.2-0.7-0.1c-0.1,0.1-0.1,0.2,0,0.3l0.3,0.3c0.3,0.3,0.3,0.6,0,0.8c-0.5,0.3-1.1,0.2-1.6-0.1
						c-0.5-0.3-0.6-0.7-0.3-1.1L34.9,71.2z"/>
				</g>
				<g class="st5">
					<path class="st6" d="M39.1,71.7l2,1.3l-0.4,0.3l-0.8-0.5L38,74l-0.5-0.3l1.9-1.3l-0.8-0.5L39.1,71.7z"/>
				</g>
				<line class="st7" x1="59.4" y1="45.2" x2="59.4" y2="41.8"/>
				<line class="st7" x1="13.9" y1="18" x2="13.9" y2="15.1"/>
				<line class="st7" x1="23.4" y1="21.6" x2="23.4" y2="23.2"/>
				<line class="st7" x1="19.2" y1="19.2" x2="19.2" y2="20.8"/>
				<line class="st7" x1="24.5" y1="21" x2="24.5" y2="22.6"/>
				<line class="st8" x1="24.5" y1="22.5" x2="23.3" y2="23.2"/>
				<line class="st8" x1="24.4" y1="21.1" x2="23.4" y2="21.7"/>
				<line class="st8" x1="53.2" y1="34.6" x2="48.6" y2="37.2"/>
				<line class="st8" x1="56.7" y1="37.4" x2="52.8" y2="39.7"/>
				<line class="st7" x1="30" y1="24.2" x2="30" y2="25.8"/>
				<line class="st8" x1="33.8" y1="22.9" x2="52.4" y2="35.1"/>
				<line class="st8" x1="53.2" y1="34.6" x2="56.7" y2="36.9"/>
				<line class="st8" x1="33.8" y1="22.4" x2="52.7" y2="34.8"/>
				<line class="st8" x1="11.7" y1="17" x2="13.6" y2="18.1"/>
				<line class="st8" x1="19.2" y1="19.2" x2="23.4" y2="21.7"/>
				<line class="st8" x1="24.5" y1="21.1" x2="30" y2="24.3"/>
				<line class="st8" x1="24.5" y1="22.5" x2="30" y2="25.8"/>
				<line class="st8" x1="48.6" y1="37.3" x2="52.8" y2="39.7"/>
				<line class="st7" x1="59.4" y1="35.4" x2="59.4" y2="33.8"/>
				<polyline class="st7" points="52.4,42.8 51.7,42.4 50.9,42.9 15,22.1 15,20.4 				"/>
				<polyline class="st7" points="24,16.5 20.5,14.1 12.4,18.9 50.9,41.2 				"/>
				<line class="st7" x1="50.9" y1="41.2" x2="50.9" y2="42.9"/>
				<line class="st7" x1="51.7" y1="40.7" x2="50.9" y2="41.2"/>
				<polyline class="st7" points="51.7,42.4 51.7,40.7 48.6,38.9 				"/>
				<line class="st7" x1="59.4" y1="48.5" x2="59.4" y2="46.5"/>
				<polyline class="st7" points="63.7,41.2 66,42.7 66,44.6 59.4,48.5 52.4,44.4 52.4,42.5 55.2,40.8 				"/>
				<polyline class="st7" points="66,42.7 59.4,46.5 52.4,42.5 				"/>
				<polyline class="st8" points="13.1,19.2 13.1,20.2 15,21.3 				"/>
				<line class="st8" x1="19.2" y1="20.8" x2="23.4" y2="23.2"/>
				<line class="st8" x1="48.6" y1="38.9" x2="48.6" y2="37.3"/>
				<line class="st8" x1="52.8" y1="42.2" x2="52.8" y2="39.7"/>
				<polyline class="st8" points="62.1,34.6 59.4,36.2 56.7,34.6 				"/>
				<polyline class="st7" points="62.1,38.1 62.4,38.2 62.4,39.4 59.4,41.2 56.4,39.4 56.4,38.3 56.7,38.1 				"/>
				<line class="st7" x1="59.4" y1="41.2" x2="59.4" y2="36.2"/>
				<polyline class="st7" points="62.4,38.6 63.7,39.3 63.7,42.8 59.4,45.3 55.2,42.8 55.2,39.4 56.4,38.7 				"/>
				<polyline class="st7" points="63.7,39.3 59.4,41.8 55.3,39.5 				"/>
				<polyline class="st7" points="11.7,17 7.6,19.4 7.6,48 				"/>
				<polyline class="st7" points="16.2,14.4 19,12.7 24.4,16.2 				"/>
				<line class="st7" x1="59.4" y1="49.4" x2="59.4" y2="75.3"/>
				<line class="st7" x1="59.4" y1="75.3" x2="31.7" y2="59.2"/>
				<polyline class="st7" points="67.2,49.2 59.4,53.7 7.6,23.8 				"/>
				<polyline class="st7" points="67.2,51.3 59.4,55.9 7.6,25.9 				"/>
				<polyline class="st7" points="67.2,53.5 59.4,58 7.6,28.1 				"/>
				<polyline class="st7" points="67.2,55.6 59.4,60.2 7.6,30.2 				"/>
				<polyline class="st7" points="67.2,57.8 59.4,62.3 7.6,32.4 				"/>
				<polyline class="st7" points="67.2,60 59.4,64.5 7.6,34.5 				"/>
				<polyline class="st7" points="67.2,62.1 59.4,66.7 7.6,36.7 				"/>
				<polyline class="st7" points="67.2,64.3 59.4,68.8 7.6,38.8 				"/>
				<line class="st7" x1="67.2" y1="66.4" x2="65.4" y2="67.5"/>
				<polyline class="st7" points="61.2,69.9 59.4,71 7.6,41 				"/>
				<line class="st7" x1="65.4" y1="69.6" x2="67.2" y2="68.6"/>
				<polyline class="st7" points="61.2,72.1 59.4,73.1 7.6,43.1 				"/>
				<polyline class="st7" points="67.2,47 59.4,51.6 7.6,21.6 				"/>
				<line class="st7" x1="29.5" y1="58" x2="7.6" y2="45.3"/>
				<polyline class="st8" points="12.8,13.2 11.7,13.9 11.7,17 				"/>
				<polyline class="st8" points="15.1,13.2 16.2,13.8 16.2,16.6 				"/>
				<polyline class="st8" points="11.7,13.9 13.9,15.1 16.2,13.8 				"/>
				<polyline class="st7" points="60.3,32.5 60.9,32.8 60.9,34.5 59.4,35.4 57.8,34.5 57.8,32.8 58.6,32.4 				"/>
				<polyline class="st8" points="60.9,32.8 59.4,33.8 57.8,32.8 				"/>
				<g>
					<defs>
						<rect id="SVGID_5_" x="6.3" y="4.1" width="66.1" height="72.8"/>
					</defs>
					<clipPath id="SVGID_6_">
						<use xlink:href="#SVGID_5_"  style="overflow:visible;"/>
					</clipPath>
					<g class="st9">
						<path class="st7" d="M58,31c-0.1,0.1-0.1,0.2-0.2,0.2l0.1,0.2c0.1,0.1,0.4,0.2,1,0.1s1.8-0.8,1.9-1.4l-0.2-0.4
							c-0.1,0-0.3,0-0.4,0"/>
					</g>
				</g>
				<polyline class="st7" points="58.5,28.7 59.3,29.1 59.5,29 60.1,28.2 				"/>
				<g>
					<defs>
						<rect id="SVGID_7_" x="6.3" y="4.1" width="66.1" height="72.8"/>
					</defs>
					<clipPath id="SVGID_8_">
						<use xlink:href="#SVGID_7_"  style="overflow:visible;"/>
					</clipPath>
					<g class="st10">
						<path class="st7" d="M60.6,30.5c0,0.2,0,0.4,0,0.6c-0.2,0.7-0.9,1.2-1.6,1.1c0,0,0,0,0,0c-0.3-0.1-0.5-0.2-0.7-0.4h-0.1"/>
						<path class="st7" d="M58,31.3c0-0.1,0-0.2,0-0.3c-0.1-0.7,0.4-1.4,1.1-1.5c0,0,0,0,0,0c0.4-0.1,0.9,0.1,1.2,0.4
							c0.1,0.1,0.2,0.2,0.2,0.3"/>
						<path class="st7" d="M58.8,37.2c0.2,0.7,0,1.2-0.4,1.2s-1-0.5-1.2-1.2s0-1.2,0.4-1.2S58.6,36.5,58.8,37.2z"/>
						<path class="st7" d="M60,37.2c-0.2,0.7,0,1.2,0.4,1.2s1-0.5,1.2-1.2s0-1.2-0.4-1.2S60.2,36.6,60,37.2z"/>
						<path class="st11" d="M60.3,32.5c0,0,0-0.1,0-0.2c0,0,0,0-0.1-0.1c-0.1,0-0.2,0-0.2,0v-0.1l0.1-0.3"/>
						<path class="st8" d="M59.7,32.5c0,0,0,0.1,0.1,0.2s0.1,0.1,0.3,0"/>
					</g>
				</g>
				<polyline class="st8" points="58.9,33 58.9,32.9 59.1,32.6 59.1,32.5 58.8,32.5 58.5,32.3 58.6,32 				"/>
				<polyline class="st7" points="57.8,34 56.7,34.6 56.7,38.3 59.4,39.8 62.1,38.3 62.1,34.6 60.9,33.9 				"/>
				<g>
					<defs>
						<rect id="SVGID_9_" x="6.3" y="4.1" width="66.1" height="72.8"/>
					</defs>
					<clipPath id="SVGID_10_">
						<use xlink:href="#SVGID_9_"  style="overflow:visible;"/>
					</clipPath>
					<g class="st12">
						<path class="st8" d="M13.8,11.9c-0.5,0.1-0.9,0.6-0.9,1.1v0.8c0,0.3,0.5,0.6,1.1,0.6s1.1-0.2,1.1-0.6v-0.8
							c0-0.6-0.4-1-0.9-1.1v-0.1c0-0.1-0.1-0.1-0.2-0.1s-0.2,0.1-0.2,0.1L13.8,11.9z"/>
					</g>
				</g>
				<polyline class="st7" points="67.2,44.9 59.4,49.4 7.6,19.4 				"/>
				<polyline class="st7" points="31.7,59.6 30.2,58.8 28.8,59.5 30.7,60.7 31.7,60.1 				"/>
				<line class="st7" x1="31.7" y1="59.6" x2="30.2" y2="58.8"/>
				<line class="st7" x1="31.7" y1="60.9" x2="31" y2="60.5"/>
				<g>
					<defs>
						<rect id="SVGID_11_" x="6.3" y="4.1" width="66.1" height="72.8"/>
					</defs>
					<clipPath id="SVGID_12_">
						<use xlink:href="#SVGID_11_"  style="overflow:visible;"/>
					</clipPath>
					<g class="st13">
						<path class="st7" d="M30.5,57c-0.2,0.2-0.3,0.4-0.3,0.6v1.1"/>
					</g>
				</g>
				<polyline class="st7" points="29.9,60.2 29.5,60.4 7.6,48 				"/>
				<line class="st7" x1="29.5" y1="60.4" x2="29.5" y2="60"/>
				<g>
					<defs>
						<rect id="SVGID_13_" x="6.3" y="4.1" width="66.1" height="72.8"/>
					</defs>
					<clipPath id="SVGID_14_">
						<use xlink:href="#SVGID_13_"  style="overflow:visible;"/>
					</clipPath>
					<g class="st14">
						<path class="st7" d="M65.4,71.8v-4.2l-4.2,2.3v4.3l-1.9,1.1l-13.9-6.6l-11.2-5.6l-2.6-1.4v-2.9c-0.1-0.7-0.5-1.3-1.1-1.6
							c-0.8-0.5-1.1,0.3-1.1,0.6v1.4"/>
					</g>
				</g>
				<polyline class="st7" points="62.4,72.1 62.4,71 61.8,71.4 61.8,72.5 				"/>
				<g>
					<defs>
						<rect id="SVGID_15_" x="6.3" y="4.1" width="66.1" height="72.8"/>
					</defs>
					<clipPath id="SVGID_16_">
						<use xlink:href="#SVGID_15_"  style="overflow:visible;"/>
					</clipPath>
					<g class="st15">
						<path class="st7" d="M66,44.1l1.2,0.8v25.8l-1.8,1.1c-0.9-0.3-1.9-0.2-2.8,0.2l-1,0.6c-0.2,0.1-0.3,0.2-0.4,0.3"/>
					</g>
				</g>
				<polyline class="st8" points="30,25.8 33.8,23.5 33.8,22 24.8,16 19.2,19.3 				"/>
				<line class="st8" x1="33.8" y1="22" x2="30" y2="24.2"/>
				<g>
					<defs>
						<rect id="SVGID_17_" x="6.3" y="4.1" width="66.1" height="72.8"/>
					</defs>
					<clipPath id="SVGID_18_">
						<use xlink:href="#SVGID_17_"  style="overflow:visible;"/>
					</clipPath>
					<g class="st16">
						<g class="st5">
							<path class="st6" d="M153.2,49.8c0.5,0.4,0.5,0.8,0.1,1.1l-0.5-0.3c0.1-0.2,0.1-0.4-0.1-0.6c-0.4-0.3-0.9-0.2-1.4,0.1
								c-0.5,0.3-0.6,0.6-0.2,0.9c0.3,0.2,0.6,0.2,0.9,0.1l0.5,0.3c-0.6,0.2-1.2,0.2-1.8-0.2c-0.6-0.4-0.6-1,0.2-1.5
								C151.6,49.4,152.6,49.4,153.2,49.8z"/>
						</g>
						<g class="st5">
							<path class="st6" d="M156.5,52.2l-1.5,2l-0.5-0.3l0.4-0.5l-0.9-0.6l-0.8,0.2l-0.5-0.3l3.3-0.8L156.5,52.2z M154.6,52.6
								l0.6,0.4l0.5-0.7L154.6,52.6z"/>
						</g>
						<g class="st5">
							<path class="st6" d="M158.2,53.3l2,1.4l-0.4,0.3l-0.7-0.5l-2,1.1l-0.5-0.3l2-1.1l-0.7-0.5L158.2,53.3z"/>
							<path class="st6" d="M163.3,56.9l-2.4,1.4l-0.5-0.3l1-0.6l-1-0.7l-1,0.6l-0.5-0.3l2.4-1.4l0.5,0.3l-1,0.6l1,0.7l1-0.6
								L163.3,56.9z"/>
							<path class="st6" d="M166.2,58.9l-0.4,0.3l-1.1-0.8l-0.5,0.3l1,0.7l-0.4,0.2l-1-0.7l-0.6,0.3l1.1,0.8l-0.4,0.3l-1.6-1.1
								l2.4-1.4L166.2,58.9z"/>
							<path class="st6" d="M166.4,61l-0.9,0.5l-0.5-0.3l2.4-1.4l0.9,0.7c0.5,0.3,0.5,0.7,0,1c-0.4,0.2-0.8,0.2-1.2,0l-0.3,1
								l-0.5-0.4l0.3-0.9L166.4,61z M166.9,60.8l0.4,0.3c0.2,0.2,0.5,0.2,0.7,0.1c0.2-0.1,0.2-0.3,0-0.4l-0.4-0.3L166.9,60.8z"/>
							<path class="st6" d="M168.6,63.6l-0.5-0.3l2.4-1.4l0.5,0.3L168.6,63.6z"/>
							<path class="st6" d="M171.8,65.9l-0.4-0.3l0.5-1.7l-1.6,0.9l-0.5-0.3l2.4-1.4l0.4,0.3l-0.5,1.6l1.5-0.9l0.5,0.3L171.8,65.9z"
								/>
							<path class="st6" d="M177.1,66.5l-0.4,0.3l-1.1-0.8l-0.5,0.3l1,0.7l-0.4,0.2l-1-0.7l-0.6,0.3l1.1,0.8l-0.4,0.3l-1.6-1.1
								l2.4-1.4L177.1,66.5z"/>
							<path class="st6" d="M180.1,68.6l0.5,0.3l-2,1.1l1.1,0.7l-0.4,0.3l-1.5-1.1L180.1,68.6z"/>
						</g>
						<g class="st5">
							<path class="st6" d="M182.4,73.2L182,73l0.5-1.7l-1.6,0.9l-0.5-0.3l2.4-1.4l0.4,0.3l-0.5,1.6l1.5-0.9l0.5,0.3L182.4,73.2z"/>
						</g>
						<path class="st8" d="M202.9,70.4v-0.9c0-0.2-0.2-0.5-0.6-0.3c-0.3,0.2-0.5,0.5-0.5,0.8v1l-5.1,3l-6.8-4.7l-8.6-5.8l-7.2-4.9
							l-10.6-7.3l-15.1-10.9V14.4l1-0.6"/>
						<path class="st8" d="M155,6.8c0.2,0.7,0,1.2-0.4,1.2s-1-0.5-1.2-1.2s-0.1-1.2,0.4-1.2S154.8,6.1,155,6.8z"/>
						<path class="st8" d="M156.2,6.8c-0.2,0.7,0,1.2,0.4,1.2s1-0.5,1.2-1.2s0.1-1.2-0.4-1.2S156.4,6.1,156.2,6.8z"/>
						<path class="st8" d="M154.1,0.6c-0.1,0.1-0.1,0.2-0.2,0.2l0.1,0.2c0.1,0.1,0.4,0.2,1,0.1s1.8-0.8,1.9-1.4l-0.2-0.4
							c-0.1,0-0.2,0-0.4,0"/>
						<path class="st8" d="M156.8,0c0,0.2,0,0.4,0,0.6c-0.1,0.7-0.9,1.2-1.6,1.1c0,0,0,0,0,0c-0.3-0.1-0.5-0.2-0.7-0.4h-0.1"/>
						<path class="st8" d="M154.2,0.9c0-0.1-0.1-0.2-0.1-0.3c-0.1-0.7,0.4-1.4,1.1-1.5c0.4-0.1,0.9,0.1,1.2,0.4
							c0.1,0.1,0.2,0.2,0.2,0.3"/>
						<path class="st8" d="M156.5,2.1c0,0,0-0.1,0-0.1c0,0,0-0.1-0.1-0.1c-0.1,0-0.2,0-0.2,0V1.8l0.1-0.3"/>
						<path class="st8" d="M155.9,2.1c0,0.1,0,0.1,0.1,0.2s0.1,0.1,0.3,0"/>
					</g>
				</g>
				<polygon class="st17" points="45.3,60.7 45.3,64.9 52.3,69 52.3,64.8 				"/>
				<polygon class="st17" points="45.3,56.4 45.3,58.5 52.3,62.6 52.3,60.5 				"/>
				<line class="st18" x1="45.3" y1="54.4" x2="52.4" y2="58.5"/>
				<line class="st18" x1="45.3" y1="62.8" x2="52.3" y2="66.9"/>
			</g>
		</g>
	</g>
</g>
</svg>
