<?xml version="1.0" encoding="utf-8"?>
<!-- Generator: Adobe Illustrator 23.0.0, SVG Export Plug-In . SVG Version: 6.00 Build 0)  -->
<svg version="1.1" id="Layer_1" xmlns="http://www.w3.org/2000/svg" xmlns:xlink="http://www.w3.org/1999/xlink" x="0px" y="0px"
	 viewBox="0 0 123.3 164.8" style="enable-background:new 0 0 123.3 164.8;" xml:space="preserve">
<style type="text/css">
	.st0{fill:#D2D3D4;}
	.st1{fill:#010101;}
	.st2{clip-path:url(#SVGID_2_);}
	.st3{fill:none;stroke:#D1D3D4;stroke-width:1.09;stroke-miterlimit:10;}
	.st4{clip-path:url(#SVGID_4_);}
	.st5{enable-background:new    ;}
	.st6{fill:#D1D3D4;}
	.st7{fill:none;stroke:#231F20;stroke-width:0.15;stroke-miterlimit:10;}
	.st8{fill:none;stroke:#231F20;stroke-width:0.14;stroke-miterlimit:10;}
	.st9{clip-path:url(#SVGID_6_);}
	.st10{clip-path:url(#SVGID_8_);}
	.st11{fill:none;stroke:#231F20;stroke-width:0.14;stroke-linejoin:bevel;}
	.st12{clip-path:url(#SVGID_10_);}
	.st13{clip-path:url(#SVGID_12_);}
	.st14{clip-path:url(#SVGID_14_);}
	.st15{clip-path:url(#SVGID_16_);}
	.st16{fill:#231F20;}
	.st17{fill:none;stroke:#FFFFFF;stroke-width:0.15;stroke-miterlimit:10;}
</style>
<title>residence_A_3-6_key</title>
<g>
	<g>
		<path class="st0" d="M14.3,117.1c-0.6,0-1-0.4-1-1.1v-1.4h3.4v1.3c0,0.7-0.3,1.1-0.9,1.1c-0.3,0-0.6-0.2-0.7-0.4
			C14.9,116.9,14.6,117.1,14.3,117.1z M13.9,115.2v0.7c0,0.3,0.2,0.5,0.4,0.5s0.4-0.2,0.4-0.5v-0.7H13.9z M15.3,115.8
			c0,0.3,0.1,0.5,0.4,0.5s0.4-0.2,0.4-0.5v-0.6h-0.8L15.3,115.8z"/>
		<path class="st0" d="M14.6,119.5h-1.3v-0.7h3.4v1.4c0.1,0.5-0.3,1.1-0.8,1.2c-0.1,0-0.2,0-0.3,0c-0.5,0-0.9-0.3-1-0.8l-1.3,0.9
			v-0.8l1.3-0.8L14.6,119.5z M15.1,119.5v0.7c0,0.3,0.2,0.5,0.5,0.5s0.5-0.2,0.5-0.5v-0.7H15.1z"/>
		<path class="st0" d="M13.3,124.6c0-0.9,0.8-1.6,1.7-1.6c0,0,0.1,0,0.1,0c0.9-0.1,1.7,0.6,1.7,1.5c0.1,0.9-0.6,1.7-1.5,1.7
			c-0.1,0-0.2,0-0.3,0c-0.9,0.1-1.7-0.6-1.7-1.5C13.3,124.7,13.3,124.6,13.3,124.6z M16.1,124.6c0-0.5-0.4-0.9-1.1-0.9
			s-1.1,0.3-1.1,0.9s0.5,0.9,1.1,0.9S16.1,125.1,16.1,124.6z"/>
		<path class="st0" d="M16.7,129.4l-3.4,1.3V130l0.8-0.3v-1.3l-0.8-0.3v-0.7l3.4,1.3V129.4z M14.7,128.7v0.8l1.1-0.4L14.7,128.7z"/>
		<path class="st0" d="M16.7,132.4v1.2c0.1,0.9-0.6,1.6-1.5,1.7c-0.1,0-0.2,0-0.2,0c-0.9,0.1-1.6-0.6-1.7-1.4c0-0.1,0-0.2,0-0.2
			v-1.2H16.7z M13.9,133.5c0,0.6,0.4,1,1,1c0,0,0,0,0.1,0c0.6,0,1-0.4,1.1-0.9c0,0,0,0,0-0.1v-0.5h-2.1V133.5z"/>
		<path class="st0" d="M16.7,139l-2.3,0.6l2.3,0.6v0.7l-3.4-0.8v-0.6l2.2-0.6l-2.2-0.6v-0.6l3.4-0.9v0.7l-2.3,0.6l2.3,0.6L16.7,139z
			"/>
		<path class="st0" d="M16.7,144l-3.4,1.3v-0.7l0.8-0.3V143l-0.8-0.3V142l3.4,1.3V144z M14.7,143.2v0.8l1.1-0.4L14.7,143.2z"/>
		<path class="st0" d="M16.7,148.6v0.8l-2.1-1.2h-1.3v-0.7h1.3l2.1-1.2v0.8l-1.4,0.8L16.7,148.6z"/>
		<path class="st0" d="M111.7,108.4v0.7h-2.8v1.6h-0.6v-2.3H111.7z"/>
		<path class="st0" d="M111.7,114.1l-3.4,1.3v-0.7l0.8-0.3v-1.3l-0.8-0.3v-0.7l3.4,1.3V114.1z M109.7,113.4v0.8l1.1-0.4L109.7,113.4
			z"/>
		<path class="st0" d="M108.3,117h3.4v2.2h-0.6v-1.5h-0.9v1.4h-0.6v-1.4h-1.3V117z"/>
		<path class="st0" d="M111.7,122.5l-3.4,1.3v-0.7l0.8-0.3v-1.3l-0.8-0.3v-0.7l3.4,1.3V122.5z M109.7,121.8v0.8l1.1-0.4L109.7,121.8
			z"/>
		<path class="st0" d="M111.7,127.2v0.7l-2.1-1.2h-1.3V126h1.3l2.1-1.2v0.8l-1.4,0.8L111.7,127.2z"/>
		<path class="st0" d="M111.7,131.8h-0.6v-1.6h-0.7v1.4h-0.6v-1.4h-0.8v1.6h-0.6v-2.3h3.4V131.8z"/>
		<path class="st0" d="M111.7,133.4v2.9h-0.6v-1.1h-2.8v-0.7h2.8v-1.1L111.7,133.4z"/>
		<path class="st0" d="M111.7,137.8v2.9h-0.6v-1.1h-2.8v-0.7h2.8v-1.1H111.7z"/>
		<path class="st0" d="M111.7,144.6h-0.6V143h-0.7v1.4h-0.6V143h-0.8v1.6h-0.6v-2.3h3.4V144.6z"/>
		<path class="st0" d="M109.2,149.2c-0.3,0.1-0.5,0.4-0.4,0.7c0,0.4,0.2,0.6,0.4,0.6s0.3-0.1,0.4-0.4l0.1-0.6c0-0.5,0.4-0.9,0.9-0.9
			c0.6,0,1,0.6,1,1.1c0,0,0,0,0,0.1c0.1,0.6-0.4,1.2-1,1.3v-0.7c0.3-0.1,0.4-0.3,0.4-0.6c0-0.3-0.2-0.5-0.4-0.5s-0.3,0.1-0.4,0.4
			l-0.1,0.6c-0.1,0.6-0.4,0.9-1,0.9s-1-0.5-1-1.2c-0.1-0.7,0.4-1.3,1-1.4L109.2,149.2L109.2,149.2z"/>
		<path class="st0" d="M111.7,152.6v2.9h-0.6v-1.1h-2.8v-0.7h2.8v-1.1L111.7,152.6z"/>
		<path class="st0" d="M43.1,112.6h0.7v2.8h1.6v0.6h-2.3V112.6z"/>
		<path class="st0" d="M49.3,112.6v0.6h-1.6v0.8h1.5v0.6h-1.5v0.8h1.6v0.6H47v-3.4L49.3,112.6z"/>
		<path class="st0" d="M52.4,116c-1,0.1-1.8-0.7-1.9-1.6c-0.1-1,0.7-1.8,1.6-1.9s1.8,0.7,1.9,1.6c0,0.1,0,0.1,0,0.2
			c0,0.9-0.6,1.6-1.5,1.7C52.4,116,52.4,116,52.4,116z M52.4,113.2c-0.5,0-0.9,0.4-0.9,1.1s0.3,1.1,0.9,1.1s0.9-0.5,0.9-1.1
			S52.9,113.2,52.4,113.2L52.4,113.2z"/>
		<path class="st0" d="M58.4,116h-0.6l-1.6-2.2v2.2h-0.7v-3.4h0.7l1.5,2.1v-2.1h0.7V116z"/>
		<path class="st0" d="M61.9,112.6l1.3,3.4h-0.7l-0.3-0.8h-1.3l-0.3,0.8h-0.7l1.3-3.4L61.9,112.6z M61.1,114.6h0.8l-0.4-1.1
			L61.1,114.6z"/>
		<path class="st0" d="M65.4,114.7v1.3h-0.7v-3.4h1.4c0.5-0.1,1.1,0.2,1.2,0.8c0,0.1,0,0.2,0,0.3c0,0.5-0.3,0.9-0.8,1l0.9,1.3h-0.8
			l-0.8-1.3L65.4,114.7z M65.4,114.2H66c0.3,0,0.5-0.2,0.5-0.5s-0.2-0.5-0.5-0.5h-0.7L65.4,114.2z"/>
		<path class="st0" d="M68.9,112.6h1.2c0.9,0.1,1.6,0.9,1.6,1.8c-0.1,0.8-0.7,1.5-1.6,1.6h-1.2V112.6z M70,115.4
			c0.6,0,1.1-0.5,1.1-1.1c0-0.6-0.5-1.1-1.1-1.1h-0.5v2.1H70z"/>
		<path class="st0" d="M76.1,115c0.1,0.3,0.4,0.5,0.7,0.4c0.3,0,0.6-0.2,0.6-0.4s-0.1-0.3-0.4-0.4l-0.6-0.1
			c-0.5-0.1-0.8-0.4-0.8-0.9c0-0.6,0.6-1,1.2-1c0,0,0,0,0,0c0.6-0.1,1.2,0.4,1.3,1h-0.7c-0.1-0.3-0.3-0.4-0.6-0.4
			c-0.3,0-0.5,0.2-0.5,0.4s0.1,0.3,0.4,0.4l0.6,0.2c0.5,0.1,0.9,0.5,0.9,1c-0.1,0.6-0.6,1.1-1.2,1c0,0,0,0,0,0
			c-0.7,0.1-1.3-0.4-1.4-1L76.1,115z"/>
		<path class="st0" d="M79.4,112.6h2.9v0.6h-1.1v2.8h-0.7v-2.8h-1.1V112.6z"/>
		<path class="st0" d="M40.6,147.9c0.7,0,1.3,0.4,1.4,1.1h-0.7c-0.1-0.3-0.4-0.5-0.7-0.5c-0.5,0-0.8,0.5-0.8,1.1s0.3,1.1,0.8,1.1
			c0.3,0,0.6-0.2,0.7-0.5H42c-0.1,0.7-0.7,1.2-1.4,1.1c-1-0.1-1.7-1-1.6-1.9C39.2,148.6,39.8,147.9,40.6,147.9z"/>
		<path class="st0" d="M45.4,147.9l1.3,3.4H46l-0.3-0.8h-1.3l-0.3,0.8h-0.7l1.3-3.4H45.4z M44.6,149.9h0.8l-0.4-1.2L44.6,149.9z"/>
		<path class="st0" d="M47.8,147.9h2.9v0.6h-1.1v2.8h-0.7v-2.8h-1.1V147.9z"/>
		<path class="st0" d="M55.2,147.9v3.4h-0.7v-1.4H53v1.4h-0.7v-3.4H53v1.3h1.5v-1.3H55.2z"/>
		<path class="st0" d="M59.4,147.9v0.6h-1.6v0.7h1.5v0.6h-1.5v0.8h1.6v0.6h-2.3v-3.4L59.4,147.9z"/>
		<path class="st0" d="M61.8,150v1.3h-0.7v-3.4h1.4c0.5-0.1,1.1,0.3,1.2,0.8c0,0.1,0,0.2,0,0.3c0,0.5-0.3,0.9-0.8,1l0.9,1.3H63
			l-0.8-1.3H61.8z M61.8,149.4h0.6c0.4,0,0.5-0.2,0.5-0.5s-0.2-0.5-0.5-0.5h-0.6V149.4z"/>
		<path class="st0" d="M66.2,151.3h-0.7v-3.4h0.7V151.3z"/>
		<path class="st0" d="M70.8,151.3h-0.6l-1.6-2.3v2.2H68v-3.4h0.7l1.5,2.1v-2.1h0.7V151.3z"/>
		<path class="st0" d="M75,147.9v0.6h-1.6v0.7h1.4v0.6h-1.5v0.8H75v0.6h-2.3v-3.4L75,147.9z"/>
		<path class="st0" d="M79.1,147.9h0.7v2.8h1.6v0.6h-2.3V147.9z"/>
		<path class="st0" d="M85.9,151.3h-0.6l-1.6-2.3v2.2h-0.7v-3.4h0.7l1.5,2.1v-2.1h0.7V151.3L85.9,151.3z"/>
	</g>
	<g id="Layer_4">
		<polygon class="st1" points="34.3,127.2 34.3,128.4 34.3,129.1 34.3,130.4 38.1,130.4 38.1,131.9 38.8,131.9 38.8,131.7 
			39.8,131.7 39.8,131.9 41,131.9 44,131.9 44,126.2 34.3,126.2 		"/>
		<g>
			<defs>
				<rect id="SVGID_1_" x="23.3" y="125" width="76.4" height="17.2"/>
			</defs>
			<clipPath id="SVGID_2_">
				<use xlink:href="#SVGID_1_"  style="overflow:visible;"/>
			</clipPath>
			<g class="st2">
				<polygon class="st3" points="97.9,126.2 97.9,141.1 24.2,136.5 24.3,126.2 				"/>
			</g>
		</g>
		<g>
			<defs>
				<rect id="SVGID_3_" x="27.6" y="9.8" width="70.4" height="77.4"/>
			</defs>
			<clipPath id="SVGID_4_">
				<use xlink:href="#SVGID_3_"  style="overflow:visible;"/>
			</clipPath>
			<g class="st4">
				<g class="st5">
					<path class="st6" d="M34,63.8l0.5,0.3l-2,1.3l1.2,0.7l-0.5,0.3l-1.7-1.1L34,63.8z"/>
					<path class="st6" d="M38.8,66.8l-0.5,0.3l-1.2-0.7l-0.5,0.4l1.1,0.7l-0.4,0.3L36.1,67l-0.6,0.4l1.2,0.7l-0.5,0.3l-1.7-1.1
						l2.5-1.6L38.8,66.8z"/>
					<path class="st6" d="M38.7,70c-0.7-0.4-0.7-1.1,0.1-1.6c0.7-0.5,1.8-0.5,2.5-0.1c0.7,0.4,0.7,1.1-0.1,1.6
						C40.4,70.4,39.4,70.4,38.7,70z M40.8,68.6c-0.4-0.2-1-0.2-1.5,0.1c-0.5,0.3-0.6,0.7-0.2,1c0.4,0.3,1,0.2,1.5-0.1
						C41.1,69.2,41.2,68.9,40.8,68.6z"/>
					<path class="st6" d="M43.4,72.9L43,72.6l0.5-1.8l-1.7,1.1l-0.5-0.3l2.5-1.6l0.5,0.3l-0.5,1.7l1.6-1l0.5,0.3L43.4,72.9z"/>
					<path class="st6" d="M48.7,73l-1.5,2.2l-0.5-0.3l0.4-0.5L46,73.7L45.2,74l-0.5-0.3l3.5-1L48.7,73z M46.6,73.6l0.6,0.4l0.5-0.7
						L46.6,73.6z"/>
					<path class="st6" d="M49.9,75.7l-0.9,0.6L48.4,76l2.5-1.6l1,0.6c0.5,0.3,0.6,0.7,0.1,1.1c-0.4,0.3-0.9,0.3-1.3,0.1l-0.3,1
						l-0.6-0.4l0.3-1L49.9,75.7z M50.3,75.4l0.5,0.3c0.3,0.2,0.5,0.2,0.7,0c0.2-0.1,0.2-0.3-0.1-0.5L51,75L50.3,75.4z"/>
					<path class="st6" d="M54.2,76.4l0.9,0.6c0.8,0.5,0.8,1.1,0,1.6c-0.8,0.5-1.7,0.5-2.5,0l-0.9-0.6L54.2,76.4z M53.1,78.3
						c0.5,0.3,1,0.3,1.5-0.1c0.5-0.3,0.5-0.7,0-1l-0.4-0.2l-1.6,1L53.1,78.3z"/>
				</g>
				<g class="st5">
					<path class="st6" d="M58.2,81.2c-0.1,0.2-0.1,0.4,0.2,0.5c0.3,0.2,0.5,0.2,0.7,0.1c0.2-0.1,0.1-0.2,0-0.4L58.7,81
						c-0.3-0.3-0.4-0.6,0-0.8c0.5-0.3,1.1-0.3,1.7,0.1c0.6,0.4,0.6,0.8,0.3,1.1L60.2,81c0.1-0.1,0.1-0.3-0.2-0.5
						c-0.2-0.1-0.5-0.2-0.7-0.1c-0.1,0.1-0.1,0.2,0,0.4l0.4,0.4c0.3,0.3,0.3,0.6,0,0.9c-0.5,0.3-1.2,0.3-1.7-0.1
						c-0.6-0.4-0.7-0.8-0.3-1.1L58.2,81.2z"/>
				</g>
				<g class="st5">
					<path class="st6" d="M62.6,81.6l2.2,1.3l-0.5,0.3l-0.8-0.5l-2,1.3l-0.5-0.3l2-1.3l-0.8-0.5L62.6,81.6z"/>
				</g>
				<line class="st7" x1="84.2" y1="53.6" x2="84.2" y2="49.9"/>
				<line class="st7" x1="35.8" y1="24.6" x2="35.8" y2="21.6"/>
				<line class="st7" x1="45.9" y1="28.5" x2="45.9" y2="30.1"/>
				<line class="st7" x1="41.4" y1="25.9" x2="41.4" y2="27.6"/>
				<line class="st7" x1="47.1" y1="27.8" x2="47.1" y2="29.5"/>
				<line class="st8" x1="47.1" y1="29.4" x2="45.8" y2="30.1"/>
				<line class="st8" x1="47" y1="27.9" x2="45.9" y2="28.5"/>
				<line class="st8" x1="77.6" y1="42.2" x2="72.7" y2="45.1"/>
				<line class="st8" x1="81.3" y1="45.2" x2="77.1" y2="47.6"/>
				<line class="st7" x1="52.9" y1="31.2" x2="52.9" y2="32.8"/>
				<line class="st8" x1="57" y1="29.8" x2="76.7" y2="42.8"/>
				<line class="st8" x1="77.6" y1="42.2" x2="81.3" y2="44.7"/>
				<line class="st8" x1="57" y1="29.3" x2="77.1" y2="42.5"/>
				<line class="st8" x1="33.4" y1="23.6" x2="35.5" y2="24.8"/>
				<line class="st8" x1="41.4" y1="25.9" x2="45.9" y2="28.5"/>
				<line class="st8" x1="47.1" y1="27.9" x2="53" y2="31.3"/>
				<line class="st8" x1="47" y1="29.4" x2="52.9" y2="32.8"/>
				<line class="st8" x1="72.7" y1="45.1" x2="77.1" y2="47.6"/>
				<line class="st7" x1="84.2" y1="43.1" x2="84.2" y2="41.3"/>
				<polyline class="st7" points="76.7,51 76,50.6 75.1,51.1 37,29 37,27.1 				"/>
				<polyline class="st7" points="46.6,23 42.8,20.5 34.2,25.5 75.1,49.2 				"/>
				<line class="st7" x1="75.1" y1="49.2" x2="75.1" y2="51.1"/>
				<line class="st7" x1="76" y1="48.7" x2="75.1" y2="49.2"/>
				<polyline class="st7" points="76,50.6 76,48.7 72.7,46.8 				"/>
				<line class="st7" x1="84.2" y1="57" x2="84.2" y2="54.9"/>
				<polyline class="st7" points="88.7,49.2 91.2,50.8 91.2,52.9 84.2,57 76.7,52.7 76.7,50.6 79.7,48.9 				"/>
				<polyline class="st7" points="91.2,50.8 84.2,54.9 76.7,50.6 				"/>
				<polyline class="st8" points="35,25.9 35,26.9 37,28.1 				"/>
				<line class="st8" x1="41.4" y1="27.6" x2="45.9" y2="30.2"/>
				<line class="st8" x1="72.7" y1="46.8" x2="72.7" y2="45.1"/>
				<line class="st8" x1="77.1" y1="50.3" x2="77.1" y2="47.6"/>
				<polyline class="st8" points="87.1,42.2 84.2,43.9 81.3,42.3 				"/>
				<polyline class="st7" points="87.1,45.9 87.3,46.1 87.3,47.4 84.2,49.2 81,47.4 81,46.2 81.3,46 				"/>
				<line class="st7" x1="84.2" y1="49.2" x2="84.2" y2="43.9"/>
				<polyline class="st7" points="87.3,46.5 88.7,47.3 88.7,50.9 84.2,53.6 79.7,51 79.7,47.3 81,46.6 				"/>
				<polyline class="st7" points="88.7,47.3 84.2,49.9 79.8,47.4 				"/>
				<polyline class="st7" points="33.4,23.6 29.1,26.1 29.1,56.5 				"/>
				<polyline class="st7" points="38.2,20.8 41.3,19 47,22.7 				"/>
				<line class="st7" x1="84.2" y1="58" x2="84.1" y2="85.5"/>
				<line class="st7" x1="84.2" y1="85.5" x2="54.8" y2="68.4"/>
				<polyline class="st7" points="92.5,57.7 84.2,62.6 29.2,30.7 				"/>
				<polyline class="st7" points="92.5,60 84.2,64.9 29.2,33 				"/>
				<polyline class="st7" points="92.5,62.3 84.2,67.2 29.2,35.3 				"/>
				<polyline class="st7" points="92.5,64.6 84.2,69.4 29.2,37.6 				"/>
				<polyline class="st7" points="92.5,66.9 84.2,71.7 29.2,39.9 				"/>
				<polyline class="st7" points="92.5,69.2 84.2,74 29.2,42.2 				"/>
				<polyline class="st7" points="92.5,71.5 84.2,76.3 29.2,44.5 				"/>
				<polyline class="st7" points="92.5,73.8 84.2,78.6 29.2,46.7 				"/>
				<line class="st7" x1="92.5" y1="76.1" x2="90.5" y2="77.2"/>
				<polyline class="st7" points="86.1,79.8 84.2,80.9 29.2,49 				"/>
				<line class="st7" x1="90.5" y1="79.5" x2="92.5" y2="78.3"/>
				<polyline class="st7" points="86.1,82.1 84.2,83.2 29.2,51.3 				"/>
				<polyline class="st7" points="92.5,55.5 84.2,60.3 29.2,28.4 				"/>
				<line class="st7" x1="52.4" y1="67.1" x2="29.1" y2="53.6"/>
				<polyline class="st8" points="34.7,19.5 33.4,20.2 33.4,23.6 				"/>
				<polyline class="st8" points="37.1,19.5 38.2,20.1 38.2,23.1 				"/>
				<polyline class="st8" points="33.4,20.2 35.8,21.6 38.2,20.1 				"/>
				<polyline class="st7" points="85.2,40 85.8,40.4 85.8,42.2 84.2,43.1 82.5,42.2 82.5,40.4 83.3,39.9 				"/>
				<polyline class="st8" points="85.8,40.4 84.2,41.3 82.5,40.4 				"/>
				<g>
					<defs>
						<rect id="SVGID_5_" x="27.7" y="9.8" width="70.3" height="77.4"/>
					</defs>
					<clipPath id="SVGID_6_">
						<use xlink:href="#SVGID_5_"  style="overflow:visible;"/>
					</clipPath>
					<g class="st9">
						<path class="st7" d="M82.6,38.5c0,0.1-0.2,0.2-0.2,0.2l0.1,0.3c0.1,0.1,0.5,0.2,1.1,0.1s1.9-0.8,2-1.5l-0.2-0.4
							c-0.1,0-0.3,0-0.4,0"/>
					</g>
				</g>
				<polyline class="st7" points="83.2,36 84.1,36.4 84.3,36.3 84.9,35.4 				"/>
				<g>
					<defs>
						<rect id="SVGID_7_" x="27.7" y="9.8" width="70.3" height="77.4"/>
					</defs>
					<clipPath id="SVGID_8_">
						<use xlink:href="#SVGID_7_"  style="overflow:visible;"/>
					</clipPath>
					<g class="st10">
						<path class="st7" d="M85.5,37.9c0,0.2,0,0.4,0,0.6c-0.2,0.8-0.9,1.3-1.7,1.1c-0.3-0.1-0.6-0.2-0.8-0.4v0"/>
						<path class="st7" d="M82.8,38.8c-0.1-0.1-0.1-0.2-0.1-0.4c-0.1-0.8,0.4-1.5,1.2-1.6c0,0,0,0,0,0c0.6-0.1,1.2,0.2,1.5,0.8"/>
						<path class="st7" d="M83.5,45c0.2,0.7,0.1,1.2-0.4,1.3s-1.1-0.6-1.3-1.3s0-1.3,0.4-1.3S83.3,44.3,83.5,45z"/>
						<path class="st7" d="M84.8,45c-0.2,0.7,0,1.3,0.4,1.3s1.1-0.6,1.3-1.3s0-1.3-0.4-1.3S85,44.3,84.8,45z"/>
						<path class="st11" d="M85.2,40c0,0,0-0.1,0-0.2c0,0,0-0.1-0.1-0.1c-0.1,0-0.2,0-0.2,0v-0.1l0.1-0.3"/>
						<path class="st8" d="M84.5,40c0,0.1,0,0.1,0,0.2s0.2,0.1,0.3,0"/>
					</g>
				</g>
				<polyline class="st8" points="83.7,40.6 83.7,40.5 83.9,40.2 83.8,40 83.5,40 83.2,39.8 83.3,39.4 				"/>
				<polyline class="st7" points="82.5,41.6 81.3,42.3 81.3,46.2 84.2,47.8 87.1,46.1 87.1,42.2 85.8,41.5 				"/>
				<g>
					<defs>
						<rect id="SVGID_9_" x="27.7" y="9.8" width="70.3" height="77.4"/>
					</defs>
					<clipPath id="SVGID_10_">
						<use xlink:href="#SVGID_9_"  style="overflow:visible;"/>
					</clipPath>
					<g class="st12">
						<path class="st8" d="M35.7,18.1c-0.6,0.1-1,0.6-1,1.2v0.9c0,0.3,0.5,0.6,1.2,0.6s1.2-0.3,1.2-0.6v-0.9c0-0.6-0.4-1.1-1-1.2V18
							c0-0.1-0.1-0.1-0.2-0.1s-0.2,0.1-0.2,0.1L35.7,18.1z"/>
					</g>
				</g>
				<polyline class="st7" points="92.5,53.2 84.2,58 29.2,26.1 				"/>
				<polyline class="st7" points="54.8,68.8 53.1,67.9 51.7,68.8 53.7,69.9 54.8,69.3 				"/>
				<line class="st7" x1="54.8" y1="68.8" x2="53.1" y2="67.9"/>
				<line class="st7" x1="54.8" y1="70.2" x2="54" y2="69.8"/>
				<g>
					<defs>
						<rect id="SVGID_11_" x="27.7" y="9.8" width="70.3" height="77.4"/>
					</defs>
					<clipPath id="SVGID_12_">
						<use xlink:href="#SVGID_11_"  style="overflow:visible;"/>
					</clipPath>
					<g class="st13">
						<path class="st7" d="M53.5,66.1c-0.2,0.2-0.3,0.4-0.3,0.7v1.2"/>
					</g>
				</g>
				<polyline class="st7" points="52.8,69.4 52.4,69.7 29.1,56.5 				"/>
				<line class="st7" x1="52.4" y1="69.7" x2="52.4" y2="69.2"/>
				<g>
					<defs>
						<rect id="SVGID_13_" x="27.7" y="9.8" width="70.3" height="77.4"/>
					</defs>
					<clipPath id="SVGID_14_">
						<use xlink:href="#SVGID_13_"  style="overflow:visible;"/>
					</clipPath>
					<g class="st14">
						<path class="st7" d="M90.5,81.8v-4.4l-4.4,2.4v4.6l-2,1.2l-14.8-7l-11.9-6L54.8,71v-3.1c-0.1-0.7-0.5-1.4-1.2-1.7
							c-0.3-0.2-0.8-0.1-1,0.2c-0.1,0.1-0.1,0.3-0.1,0.5v1.5"/>
					</g>
				</g>
				<polyline class="st7" points="87.4,82.1 87.4,80.9 86.7,81.3 86.7,82.5 				"/>
				<g>
					<defs>
						<rect id="SVGID_15_" x="27.7" y="9.8" width="70.3" height="77.4"/>
					</defs>
					<clipPath id="SVGID_16_">
						<use xlink:href="#SVGID_15_"  style="overflow:visible;"/>
					</clipPath>
					<g class="st15">
						<path class="st7" d="M91.2,52.3l1.3,0.8v27.5l-2,1.1c-1-0.3-2.1-0.2-3,0.2l-1,0.6c-0.2,0.1-0.3,0.2-0.4,0.3"/>
					</g>
				</g>
				<polyline class="st8" points="52.9,32.8 57,30.4 57,28.8 47.4,22.5 41.4,25.9 				"/>
				<line class="st8" x1="57" y1="28.8" x2="52.9" y2="31.2"/>
				<polygon class="st16" points="69.2,70 69.2,74.5 76.7,78.8 76.7,74.3 				"/>
				<polygon class="st16" points="69.2,65.4 69.2,67.6 76.7,72 76.7,69.7 				"/>
				<line class="st17" x1="69.2" y1="63.3" x2="76.7" y2="67.6"/>
				<line class="st17" x1="69.2" y1="72.2" x2="76.7" y2="76.6"/>
			</g>
		</g>
	</g>
</g>
</svg>
