<?xml version="1.0" encoding="utf-8"?>
<!-- Generator: Adobe Illustrator 23.0.0, SVG Export Plug-In . SVG Version: 6.00 Build 0)  -->
<svg version="1.1" id="Layer_1" xmlns="http://www.w3.org/2000/svg" xmlns:xlink="http://www.w3.org/1999/xlink" x="0px" y="0px"
	 viewBox="0 0 200.6 198.9" style="enable-background:new 0 0 200.6 198.9;" xml:space="preserve">
<style type="text/css">
	.st0{enable-background:new    ;}
	.st1{fill:#D1D3D4;}
	.st2{fill:#231F20;}
	.st3{clip-path:url(#SVGID_2_);}
	.st4{fill:none;stroke:#D1D3D4;stroke-width:1.09;stroke-miterlimit:10;}
	.st5{clip-path:url(#SVGID_4_);}
	.st6{fill:none;stroke:#231F20;stroke-width:0.15;stroke-miterlimit:10;}
	.st7{fill:none;stroke:#231F20;stroke-width:0.14;stroke-miterlimit:10;}
	.st8{clip-path:url(#SVGID_6_);}
	.st9{clip-path:url(#SVGID_8_);}
	.st10{fill:none;stroke:#231F20;stroke-width:0.14;stroke-linejoin:bevel;}
	.st11{clip-path:url(#SVGID_10_);}
	.st12{clip-path:url(#SVGID_12_);}
	.st13{clip-path:url(#SVGID_14_);}
	.st14{clip-path:url(#SVGID_16_);}
	.st15{clip-path:url(#SVGID_18_);}
	.st16{fill:none;stroke:#FFFFFF;stroke-width:0.15;stroke-miterlimit:10;}
	.st17{clip-path:url(#SVGID_20_);}
	.st18{clip-path:url(#SVGID_22_);}
	.st19{clip-path:url(#SVGID_24_);}
	.st20{clip-path:url(#SVGID_26_);}
	.st21{clip-path:url(#SVGID_28_);}
	.st22{clip-path:url(#SVGID_30_);}
	.st23{clip-path:url(#SVGID_32_);}
</style>
<title>residence_N_4_key</title>
<g>
	<g id="Layer_1_copy">
		<g>
			<g class="st0">
				<path class="st1" d="M34,143.2c-0.8,0-1.2-0.5-1.2-1.4V140h4.3v1.6c0,0.9-0.4,1.5-1.2,1.5c-0.5,0-0.8-0.3-0.9-0.6
					C34.9,142.9,34.5,143.2,34,143.2z M33.6,140.8v0.8c0,0.4,0.2,0.6,0.5,0.6c0.3,0,0.5-0.2,0.5-0.6v-0.8H33.6z M35.3,141.5
					c0,0.4,0.2,0.7,0.5,0.7c0.3,0,0.5-0.2,0.5-0.7v-0.7h-1V141.5z"/>
				<path class="st1" d="M34.4,145.7h-1.6v-0.9h4.3v1.8c0,0.9-0.5,1.5-1.4,1.5c-0.7,0-1.1-0.4-1.3-1l-1.7,1.1v-1l1.6-1.1V145.7z
					 M35.1,145.7v0.8c0,0.4,0.2,0.7,0.6,0.7c0.4,0,0.6-0.2,0.6-0.7v-0.8H35.1z"/>
			</g>
			<g class="st0">
				<path class="st1" d="M32.7,152.7c0-1.2,0.9-2,2.2-2c1.3,0,2.2,0.8,2.2,2c0,1.2-0.9,2-2.2,2C33.7,154.7,32.7,153.9,32.7,152.7z
					 M36.4,152.7c0-0.7-0.6-1.1-1.4-1.1c-0.8,0-1.4,0.4-1.4,1.1c0,0.7,0.6,1.1,1.4,1.1C35.8,153.8,36.4,153.4,36.4,152.7z"/>
			</g>
			<g class="st0">
				<path class="st1" d="M37.1,158.9l-4.3,1.6v-0.9l1-0.4v-1.6l-1-0.4v-0.9l4.3,1.6V158.9z M34.6,157.9v1.1l1.4-0.5L34.6,157.9z"/>
			</g>
			<g class="st0">
				<path class="st1" d="M37.1,162.6v1.5c0,1.3-0.8,2.1-2.2,2.1s-2.2-0.8-2.2-2.1v-1.5H37.1z M33.6,164.1c0,0.8,0.5,1.3,1.4,1.3
					c0.8,0,1.4-0.4,1.4-1.3v-0.6h-2.7V164.1z"/>
			</g>
			<g class="st0">
				<path class="st1" d="M37.1,171.1l-2.9,0.7l2.9,0.7v0.9l-4.3-1.1v-0.8l2.8-0.8l-2.8-0.8v-0.8l4.3-1.1v0.9l-2.9,0.7l2.9,0.8V171.1
					z"/>
			</g>
			<g class="st0">
				<path class="st1" d="M37.1,177.4l-4.3,1.6v-0.9l1-0.4v-1.6l-1-0.4v-0.9l4.3,1.6V177.4z M34.6,176.4v1.1l1.4-0.5L34.6,176.4z"/>
			</g>
			<g class="st0">
				<path class="st1" d="M37.1,183.3v0.9l-2.7-1.6h-1.6v-0.9h1.6l2.7-1.5v1l-1.8,1L37.1,183.3z"/>
			</g>
		</g>
		<g>
			<g class="st0">
				<path class="st1" d="M167.5,132.1v0.9H164v2h-0.8v-2.9H167.5z"/>
			</g>
			<g class="st0">
				<path class="st1" d="M167.5,139.4l-4.3,1.6v-0.9l1-0.4v-1.6l-1-0.4v-0.9l4.3,1.6V139.4z M165,138.4v1.1l1.4-0.5L165,138.4z"/>
			</g>
			<g class="st0">
				<path class="st1" d="M163.2,143.1h4.3v2.9h-0.8v-2h-1.1v1.8h-0.8V144h-1.6V143.1z"/>
			</g>
			<g class="st0">
				<path class="st1" d="M167.5,150.1l-4.3,1.6v-0.9l1-0.4v-1.6l-1-0.4v-0.9l4.3,1.6V150.1z M165,149.1v1.1l1.4-0.5L165,149.1z"/>
			</g>
			<g class="st0">
				<path class="st1" d="M167.5,156v0.9l-2.7-1.6h-1.6v-0.9h1.6l2.7-1.5v1l-1.8,1L167.5,156z"/>
				<path class="st1" d="M167.5,161.4h-0.8v-2h-0.9v1.8h-0.8v-1.8h-1v2h-0.8v-2.9h4.3V161.4z"/>
				<path class="st1" d="M167.5,162.8v3.7h-0.8v-1.4h-3.5v-0.9h3.5v-1.4H167.5z"/>
				<path class="st1" d="M167.5,167.8v3.7h-0.8v-1.4h-3.5v-0.9h3.5v-1.4H167.5z"/>
				<path class="st1" d="M167.5,176h-0.8v-2h-0.9v1.8h-0.8v-1.8h-1v2h-0.8V173h4.3V176z"/>
			</g>
			<g class="st0">
				<path class="st1" d="M164.5,184.1c-0.4,0.1-0.6,0.4-0.6,0.9c0,0.4,0.2,0.7,0.5,0.7c0.3,0,0.4-0.2,0.5-0.5l0.2-0.8
					c0.1-0.6,0.5-1.1,1.2-1.1c0.8,0,1.3,0.6,1.3,1.5c0,1-0.5,1.5-1.2,1.7v-0.9c0.3-0.1,0.5-0.3,0.5-0.8c0-0.4-0.2-0.7-0.5-0.7
					c-0.2,0-0.4,0.2-0.5,0.5l-0.2,0.8c-0.2,0.7-0.6,1.1-1.2,1.1c-0.8,0-1.3-0.7-1.3-1.6c0-1,0.5-1.6,1.3-1.8V184.1z"/>
			</g>
			<g class="st0">
				<path class="st1" d="M167.5,188.4v3.7h-0.8v-1.4h-3.5v-0.9h3.5v-1.4H167.5z"/>
			</g>
		</g>
		<g>
			<g class="st0">
				<path class="st1" d="M75.5,132.3h0.9v3.5h2v0.8h-2.9V132.3z"/>
				<path class="st1" d="M82.9,132.3v0.8h-2v0.9h1.8v0.8h-1.8v1h2v0.8H80v-4.3H82.9z"/>
			</g>
			<g class="st0">
				<path class="st1" d="M87.3,136.7c-1.2,0-2-0.9-2-2.2c0-1.3,0.8-2.2,2-2.2c1.2,0,2,0.9,2,2.2C89.3,135.8,88.5,136.7,87.3,136.7z
					 M87.3,133.1c-0.7,0-1.1,0.6-1.1,1.4c0,0.8,0.4,1.4,1.1,1.4c0.7,0,1.1-0.6,1.1-1.4C88.4,133.7,88,133.1,87.3,133.1z"/>
			</g>
			<g class="st0">
				<path class="st1" d="M94.9,136.7h-0.7l-2-2.9v2.9h-0.9v-4.3h0.8l1.9,2.7v-2.7h0.9V136.7z"/>
			</g>
			<g class="st0">
				<path class="st1" d="M99.4,132.3l1.6,4.3h-0.9l-0.4-1h-1.6l-0.4,1h-0.9l1.6-4.3H99.4z M98.4,134.9h1.1l-0.5-1.4L98.4,134.9z"/>
			</g>
			<g class="st0">
				<path class="st1" d="M103.8,135v1.6h-0.9v-4.3h1.8c0.9,0,1.5,0.5,1.5,1.4c0,0.7-0.4,1.1-1,1.3l1.1,1.7h-1l-1.1-1.6H103.8z
					 M103.8,134.3h0.8c0.4,0,0.7-0.2,0.7-0.6c0-0.4-0.2-0.6-0.7-0.6h-0.8V134.3z"/>
				<path class="st1" d="M107.9,132.3h1.5c1.3,0,2.1,0.8,2.1,2.2s-0.8,2.2-2.1,2.2h-1.5V132.3z M109.3,135.9c0.8,0,1.3-0.5,1.3-1.4
					c0-0.8-0.4-1.4-1.3-1.4h-0.6v2.7H109.3z"/>
			</g>
			<g class="st0">
				<path class="st1" d="M117.5,135.4c0.1,0.4,0.4,0.6,0.9,0.6c0.4,0,0.7-0.2,0.7-0.5c0-0.3-0.2-0.4-0.5-0.5l-0.8-0.2
					c-0.6-0.1-1.1-0.5-1.1-1.2c0-0.8,0.6-1.3,1.5-1.3c1,0,1.5,0.5,1.7,1.2H119c-0.1-0.3-0.3-0.5-0.8-0.5c-0.4,0-0.7,0.2-0.7,0.5
					c0,0.2,0.2,0.4,0.5,0.5l0.8,0.2c0.7,0.2,1.1,0.6,1.1,1.2c0,0.8-0.7,1.3-1.6,1.3c-1,0-1.6-0.5-1.8-1.3H117.5z"/>
			</g>
			<g class="st0">
				<path class="st1" d="M121.6,132.3h3.7v0.8h-1.4v3.5H123v-3.5h-1.4V132.3z"/>
			</g>
		</g>
		<g>
			<g class="st0">
				<path class="st1" d="M72.3,186c1,0,1.6,0.6,1.8,1.5h-0.9c-0.1-0.4-0.4-0.7-0.9-0.7c-0.7,0-1.1,0.6-1.1,1.4
					c0,0.8,0.4,1.4,1.1,1.4c0.5,0,0.8-0.3,0.9-0.7h0.9c-0.2,0.9-0.8,1.5-1.8,1.5c-1.1,0-2-0.9-2-2.2C70.3,186.9,71.2,186,72.3,186z"
					/>
			</g>
			<g class="st0">
				<path class="st1" d="M78.4,186l1.6,4.3h-0.9l-0.4-1h-1.6l-0.4,1h-0.9l1.6-4.3H78.4z M77.4,188.6h1.1l-0.5-1.4L77.4,188.6z"/>
			</g>
			<g class="st0">
				<path class="st1" d="M81.4,186h3.7v0.8h-1.4v3.5h-0.9v-3.5h-1.4V186z"/>
			</g>
			<g class="st0">
				<path class="st1" d="M90.9,186v4.3H90v-1.8h-1.9v1.8h-0.9V186h0.9v1.7H90V186H90.9z"/>
			</g>
			<g class="st0">
				<path class="st1" d="M96.2,186v0.8h-2v0.9H96v0.8h-1.8v1h2v0.8h-2.9V186H96.2z"/>
				<path class="st1" d="M98.8,188.7v1.6h-0.9V186h1.8c0.9,0,1.5,0.5,1.5,1.4c0,0.7-0.4,1.1-1,1.3l1.1,1.7h-1l-1.1-1.6H98.8z
					 M98.8,188h0.8c0.4,0,0.7-0.2,0.7-0.6c0-0.4-0.2-0.6-0.7-0.6h-0.8V188z"/>
			</g>
			<g class="st0">
				<path class="st1" d="M104.8,190.3h-0.9V186h0.9V190.3z"/>
			</g>
			<g class="st0">
				<path class="st1" d="M110.8,190.3h-0.7l-2-2.9v2.9h-0.9V186h0.8l1.9,2.7V186h0.9V190.3z"/>
				<path class="st1" d="M115.5,186v0.8h-2v0.9h1.8v0.8h-1.8v1h2v0.8h-2.9V186H115.5z"/>
				<path class="st1" d="M119.6,186h0.9v3.5h2v0.8h-2.9V186z"/>
			</g>
			<g class="st0">
				<path class="st1" d="M130,190.3h-0.7l-2-2.9v2.9h-0.9V186h0.8l1.9,2.7V186h0.9V190.3z"/>
			</g>
		</g>
	</g>
	<g>
		<polyline class="st2" points="133.1,151.9 133.1,152 133.1,161.6 136.9,161.6 136.9,160.7 141,160.7 141,159.3 147.3,159.3 
			147.3,161.3 153.6,161.3 153.6,152 		"/>
		<g>
			<defs>
				<rect id="SVGID_1_" x="44.3" y="150.4" width="112" height="25.3"/>
			</defs>
			<clipPath id="SVGID_2_">
				<use xlink:href="#SVGID_1_"  style="overflow:visible;"/>
			</clipPath>
			<g class="st3">
				<polygon class="st4" points="153.6,152 153.6,174 45.7,167.2 45.7,152 				"/>
			</g>
		</g>
		<g>
			<defs>
				<rect id="SVGID_3_" x="4.7" y="6" width="187.4" height="104.8"/>
			</defs>
			<clipPath id="SVGID_4_">
				<use xlink:href="#SVGID_3_"  style="overflow:visible;"/>
			</clipPath>
			<g class="st5">
				<g class="st0">
					<path class="st1" d="M12.6,81.2l0.6,0.4l-2.5,1.6l1.5,0.9l-0.6,0.4l-2.1-1.3L12.6,81.2z"/>
					<path class="st1" d="M18.5,84.9l-0.6,0.4l-1.5-0.9l-0.7,0.4l1.3,0.8l-0.5,0.4l-1.3-0.8l-0.7,0.5l1.5,0.9l-0.6,0.4l-2.1-1.3
						l3.1-2L18.5,84.9z"/>
				</g>
				<g class="st0">
					<path class="st1" d="M18.4,88.8c-0.9-0.5-0.8-1.4,0.1-2c0.9-0.6,2.2-0.7,3.1-0.1c0.9,0.5,0.8,1.4-0.1,2
						C20.5,89.3,19.2,89.4,18.4,88.8z M21,87.1c-0.5-0.3-1.2-0.2-1.8,0.2c-0.6,0.4-0.7,0.9-0.2,1.2c0.5,0.3,1.2,0.2,1.8-0.2
						C21.4,87.9,21.5,87.4,21,87.1z"/>
				</g>
				<g class="st0">
					<path class="st1" d="M24.2,92.4L23.7,92l0.6-2.3l-2.1,1.3l-0.6-0.4l3.1-2l0.6,0.4l-0.6,2.1l1.9-1.3l0.6,0.4L24.2,92.4z"/>
				</g>
				<g class="st0">
					<path class="st1" d="M30.7,92.5l-1.9,2.8l-0.7-0.4l0.5-0.7l-1.2-0.7l-1,0.3l-0.6-0.4l4.3-1.3L30.7,92.5z M28.2,93.2l0.8,0.5
						l0.6-0.9L28.2,93.2z"/>
				</g>
				<g class="st0">
					<path class="st1" d="M32.2,95.9L31,96.6l-0.6-0.4l3.1-2l1.3,0.8c0.7,0.4,0.7,0.9,0.1,1.3c-0.5,0.3-1.1,0.4-1.6,0.2l-0.4,1.3
						l-0.7-0.5l0.4-1.2L32.2,95.9z M32.7,95.5l0.6,0.4c0.3,0.2,0.7,0.2,0.9,0c0.3-0.2,0.3-0.4-0.1-0.6L33.6,95L32.7,95.5z"/>
					<path class="st1" d="M37.6,96.8l1.1,0.7c0.9,0.6,0.9,1.4,0,2c-0.9,0.6-2.1,0.6-3.1,0l-1.1-0.7L37.6,96.8z M36.1,99.1
						c0.6,0.4,1.3,0.3,1.9-0.1c0.6-0.4,0.7-0.8,0.1-1.2l-0.4-0.3l-2,1.3L36.1,99.1z"/>
				</g>
				<g class="st0">
					<path class="st1" d="M42.4,102.6c-0.2,0.2-0.1,0.5,0.2,0.6c0.3,0.2,0.7,0.2,0.9,0.1c0.2-0.1,0.2-0.3,0-0.5l-0.4-0.4
						c-0.3-0.3-0.5-0.7,0.1-1c0.6-0.4,1.4-0.3,2.1,0.1c0.7,0.4,0.7,0.9,0.3,1.3l-0.6-0.4c0.1-0.2,0.1-0.4-0.2-0.6
						c-0.3-0.2-0.6-0.2-0.9-0.1c-0.2,0.1-0.2,0.3,0,0.4l0.4,0.4c0.4,0.4,0.4,0.8-0.1,1.1c-0.6,0.4-1.5,0.3-2.1-0.1
						c-0.7-0.4-0.8-1-0.4-1.4L42.4,102.6z"/>
				</g>
				<g class="st0">
					<path class="st1" d="M47.8,103.2l2.7,1.7l-0.6,0.4l-1-0.6l-2.5,1.6l-0.7-0.4l2.5-1.6l-1-0.6L47.8,103.2z"/>
				</g>
				<line class="st6" x1="74.5" y1="68.5" x2="74.5" y2="64.1"/>
				<line class="st6" x1="14.8" y1="32.8" x2="14.8" y2="29"/>
				<line class="st6" x1="27.2" y1="37.5" x2="27.2" y2="39.6"/>
				<line class="st6" x1="21.7" y1="34.4" x2="21.7" y2="36.5"/>
				<line class="st6" x1="28.7" y1="36.7" x2="28.7" y2="38.8"/>
				<line class="st7" x1="28.7" y1="38.8" x2="27.2" y2="39.7"/>
				<line class="st7" x1="28.6" y1="36.8" x2="27.2" y2="37.6"/>
				<line class="st7" x1="66.3" y1="54.5" x2="60.3" y2="58"/>
				<line class="st7" x1="70.9" y1="58.2" x2="65.8" y2="61.2"/>
				<line class="st6" x1="35.9" y1="40.9" x2="35.9" y2="43"/>
				<line class="st7" x1="40.9" y1="39.2" x2="65.2" y2="55.2"/>
				<line class="st7" x1="66.3" y1="54.5" x2="70.9" y2="57.6"/>
				<line class="st7" x1="40.9" y1="38.6" x2="65.7" y2="54.9"/>
				<line class="st7" x1="11.9" y1="31.5" x2="14.4" y2="33"/>
				<line class="st7" x1="21.7" y1="34.4" x2="27.2" y2="37.6"/>
				<line class="st7" x1="28.7" y1="36.8" x2="36" y2="41"/>
				<line class="st7" x1="28.7" y1="38.8" x2="35.9" y2="43"/>
				<line class="st7" x1="60.4" y1="58" x2="65.8" y2="61.2"/>
				<line class="st6" x1="74.4" y1="55.6" x2="74.4" y2="53.5"/>
				<polyline class="st6" points="65.3,65.4 64.4,64.8 63.3,65.5 16.3,38.2 16.3,35.9 				"/>
				<polyline class="st6" points="28.1,30.8 23.4,27.7 12.8,33.9 63.3,63.2 				"/>
				<line class="st6" x1="63.3" y1="63.2" x2="63.3" y2="65.5"/>
				<line class="st6" x1="64.4" y1="62.5" x2="63.3" y2="63.2"/>
				<polyline class="st6" points="64.4,64.8 64.4,62.5 60.4,60.2 				"/>
				<line class="st6" x1="74.5" y1="72.8" x2="74.5" y2="70.2"/>
				<polyline class="st6" points="80.1,63.2 83.2,65.2 83.2,67.7 74.5,72.8 65.3,67.4 65.3,64.9 69,62.7 				"/>
				<polyline class="st6" points="83.2,65.2 74.5,70.2 65.3,64.9 				"/>
				<polyline class="st7" points="13.8,34.5 13.8,35.7 16.3,37.2 				"/>
				<line class="st7" x1="21.7" y1="36.5" x2="27.2" y2="39.7"/>
				<line class="st7" x1="60.3" y1="60.2" x2="60.3" y2="58"/>
				<line class="st7" x1="65.8" y1="64.6" x2="65.8" y2="61.2"/>
				<polyline class="st7" points="78.1,54.6 74.5,56.7 70.9,54.6 				"/>
				<polyline class="st6" points="78.1,59.1 78.4,59.3 78.4,60.9 74.5,63.2 70.6,60.9 70.6,59.4 70.9,59.2 				"/>
				<line class="st6" x1="74.5" y1="63.2" x2="74.5" y2="56.7"/>
				<polyline class="st6" points="78.4,59.8 80.1,60.8 80.1,65.3 74.5,68.5 69,65.4 69,60.9 70.6,60 				"/>
				<polyline class="st6" points="80.1,60.8 74.5,64.1 69.1,60.9 				"/>
				<polyline class="st6" points="11.9,31.5 6.5,34.7 6.5,72.2 				"/>
				<polyline class="st6" points="17.8,28 21.5,25.9 28.6,30.5 				"/>
				<line class="st6" x1="74.5" y1="74" x2="74.4" y2="107.9"/>
				<line class="st6" x1="74.5" y1="107.9" x2="38.2" y2="86.9"/>
				<polyline class="st6" points="84.7,73.7 74.5,79.7 6.6,40.3 				"/>
				<polyline class="st6" points="84.7,76.5 74.5,82.5 6.6,43.2 				"/>
				<polyline class="st6" points="84.7,79.3 74.5,85.3 6.6,46 				"/>
				<polyline class="st6" points="84.7,82.2 74.5,88.1 6.6,48.8 				"/>
				<polyline class="st6" points="84.7,85 74.5,91 6.6,51.6 				"/>
				<polyline class="st6" points="84.7,87.8 74.5,93.8 6.6,54.5 				"/>
				<polyline class="st6" points="84.7,90.6 74.5,96.6 6.6,57.3 				"/>
				<polyline class="st6" points="84.7,93.5 74.5,99.4 6.6,60.1 				"/>
				<line class="st6" x1="84.7" y1="96.3" x2="82.3" y2="97.7"/>
				<polyline class="st6" points="76.9,100.9 74.5,102.3 6.6,62.9 				"/>
				<line class="st6" x1="82.3" y1="100.5" x2="84.7" y2="99.1"/>
				<polyline class="st6" points="76.9,103.7 74.5,105.1 6.6,65.8 				"/>
				<polyline class="st6" points="84.7,70.9 74.5,76.8 6.6,37.5 				"/>
				<line class="st6" x1="35.3" y1="85.2" x2="6.6" y2="68.6"/>
				<polyline class="st7" points="13.4,26.5 11.9,27.4 11.9,31.5 				"/>
				<polyline class="st7" points="16.4,26.5 17.8,27.3 17.8,31 				"/>
				<polyline class="st7" points="11.9,27.4 14.8,29 17.8,27.3 				"/>
				<polyline class="st6" points="75.7,51.8 76.5,52.3 76.5,54.5 74.4,55.6 72.4,54.5 72.4,52.3 73.5,51.7 				"/>
				<polyline class="st7" points="76.5,52.3 74.4,53.5 72.4,52.3 				"/>
				<g>
					<defs>
						<rect id="SVGID_5_" x="4.8" y="10.7" width="86.7" height="99.3"/>
					</defs>
					<clipPath id="SVGID_6_">
						<use xlink:href="#SVGID_5_"  style="overflow:visible;"/>
					</clipPath>
					<g class="st8">
						<path class="st6" d="M72.6,49.9c0,0.1-0.2,0.2-0.2,0.3l0.1,0.3c0.1,0.2,0.6,0.3,1.3,0.1s2.3-1,2.5-1.9L76,48.3
							c-0.2,0-0.3,0-0.5,0"/>
					</g>
				</g>
				<polyline class="st6" points="73.3,46.8 74.4,47.3 74.7,47.2 75.4,46.2 				"/>
				<g>
					<defs>
						<rect id="SVGID_7_" x="4.8" y="10.7" width="86.7" height="99.3"/>
					</defs>
					<clipPath id="SVGID_8_">
						<use xlink:href="#SVGID_7_"  style="overflow:visible;"/>
					</clipPath>
					<g class="st9">
						<path class="st6" d="M76.1,49.2c0.1,0.3,0.1,0.5,0,0.8c-0.2,1-1.1,1.6-2.1,1.4c-0.4-0.1-0.7-0.3-0.9-0.5L73,50.8"/>
						<path class="st6" d="M72.7,50.3c-0.1-0.1-0.1-0.3-0.1-0.4c-0.1-1,0.5-1.9,1.5-2c0.6-0.1,1.2,0.1,1.6,0.5
							c0.1,0.1,0.2,0.3,0.3,0.4"/>
						<path class="st6" d="M73.7,58c0.3,0.8,0.1,1.5-0.5,1.5s-1.3-0.7-1.6-1.5s-0.1-1.5,0.5-1.5S73.4,57.1,73.7,58z"/>
						<path class="st6" d="M75.2,58c-0.3,0.9-0.1,1.6,0.5,1.6s1.3-0.7,1.6-1.5s0.1-1.5-0.5-1.5S75.5,57.2,75.2,58z"/>
						<path class="st10" d="M75.7,51.9c0-0.1,0-0.1,0-0.2c0,0-0.1-0.1-0.1-0.1c-0.1,0-0.2,0-0.3,0c0,0,0-0.1,0-0.1l0,0l0.1-0.4"/>
						<path class="st7" d="M74.8,51.8c0,0.1,0.1,0.2,0.1,0.2s0.2,0.1,0.3,0"/>
					</g>
				</g>
				<polyline class="st7" points="73.9,52.5 73.9,52.4 74.1,52 74.1,51.8 73.7,51.8 73.3,51.5 73.4,51.1 				"/>
				<polyline class="st6" points="72.4,53.8 70.9,54.6 70.9,59.4 74.5,61.5 78.1,59.4 78.1,54.6 76.5,53.6 				"/>
				<g>
					<defs>
						<rect id="SVGID_9_" x="4.8" y="10.7" width="86.7" height="99.3"/>
					</defs>
					<clipPath id="SVGID_10_">
						<use xlink:href="#SVGID_9_"  style="overflow:visible;"/>
					</clipPath>
					<g class="st11">
						<path class="st7" d="M14.6,24.8c-0.7,0.1-1.2,0.8-1.2,1.5v1.1c0,0.4,0.7,0.8,1.5,0.8s1.5-0.3,1.5-0.8v-1.1
							c0-0.7-0.5-1.4-1.2-1.5v-0.2c0-0.1-0.1-0.2-0.2-0.2s-0.2,0.1-0.2,0.2L14.6,24.8z"/>
					</g>
				</g>
				<polyline class="st6" points="84.7,68 74.5,74 6.6,34.7 				"/>
				<polyline class="st6" points="38.2,87.4 36.2,86.2 34.4,87.3 36.9,88.7 38.2,88 				"/>
				<line class="st6" x1="38.2" y1="87.4" x2="36.2" y2="86.2"/>
				<line class="st6" x1="38.2" y1="89" x2="37.2" y2="88.5"/>
				<g>
					<defs>
						<rect id="SVGID_11_" x="4.8" y="10.7" width="86.7" height="99.3"/>
					</defs>
					<clipPath id="SVGID_12_">
						<use xlink:href="#SVGID_11_"  style="overflow:visible;"/>
					</clipPath>
					<g class="st12">
						<path class="st6" d="M36.6,84c-0.2,0.2-0.4,0.5-0.4,0.8v1.5"/>
					</g>
				</g>
				<polyline class="st6" points="35.8,88.1 35.3,88.4 6.5,72.2 				"/>
				<line class="st6" x1="35.3" y1="88.4" x2="35.3" y2="87.8"/>
				<g>
					<defs>
						<rect id="SVGID_13_" x="4.8" y="10.7" width="86.7" height="99.3"/>
					</defs>
					<clipPath id="SVGID_14_">
						<use xlink:href="#SVGID_13_"  style="overflow:visible;"/>
					</clipPath>
					<g class="st13">
						<path class="st6" d="M82.3,103.3v-5.5l-5.4,3v5.6l-2.4,1.4l-18.3-8.6l-14.6-7.4L38.2,90v-3.8c-0.1-0.9-0.6-1.7-1.4-2.1
							c-0.4-0.3-1-0.2-1.3,0.2c-0.1,0.2-0.2,0.4-0.2,0.6v1.9"/>
					</g>
				</g>
				<polyline class="st6" points="78.5,103.7 78.5,102.3 77.6,102.8 77.6,104.2 				"/>
				<g>
					<defs>
						<rect id="SVGID_15_" x="4.8" y="10.7" width="86.7" height="99.3"/>
					</defs>
					<clipPath id="SVGID_16_">
						<use xlink:href="#SVGID_15_"  style="overflow:visible;"/>
					</clipPath>
					<g class="st14">
						<path class="st6" d="M83.2,67l1.6,1v33.9l-2.4,1.4c-1.2-0.4-2.5-0.3-3.6,0.3l-1.3,0.7c-0.2,0.1-0.4,0.2-0.6,0.4"/>
					</g>
				</g>
				<polyline class="st7" points="35.9,43 40.9,40 40.9,38 29.1,30.2 21.7,34.5 				"/>
				<line class="st7" x1="40.9" y1="38" x2="35.9" y2="41"/>
				<g>
					<defs>
						<rect id="SVGID_17_" x="4.8" y="10.7" width="86.7" height="99.3"/>
					</defs>
					<clipPath id="SVGID_18_">
						<use xlink:href="#SVGID_17_"  style="overflow:visible;"/>
					</clipPath>
					<g class="st15">
						<g class="st0">
							<path class="st1" d="M197.5,74.5c0.7,0.5,0.7,1.1,0.2,1.5l-0.6-0.4c0.2-0.2,0.2-0.5-0.2-0.7c-0.5-0.3-1.2-0.3-1.8,0.1
								c-0.6,0.3-0.8,0.8-0.3,1.1c0.3,0.2,0.7,0.3,1.1,0.2l0.6,0.4c-0.7,0.3-1.6,0.2-2.3-0.3c-0.8-0.6-0.7-1.4,0.2-1.9
								C195.4,74,196.7,74,197.5,74.5z"/>
						</g>
						<g class="st0">
							<path class="st1" d="M201.8,77.6l-2,2.6l-0.6-0.4l0.5-0.6l-1.1-0.8l-1,0.3l-0.6-0.4l4.3-1L201.8,77.6z M199.2,78.2l0.7,0.5
								l0.7-0.9L199.2,78.2z"/>
						</g>
						<g class="st0">
							<path class="st1" d="M204,79.1l2.6,1.8l-0.6,0.3l-1-0.7l-2.6,1.5l-0.6-0.4l2.6-1.5l-1-0.7L204,79.1z"/>
						</g>
						<g class="st0">
							<path class="st1" d="M210.7,83.8l-3.2,1.8l-0.6-0.4l1.3-0.8l-1.4-0.9l-1.3,0.8l-0.6-0.4l3.2-1.8l0.6,0.4l-1.3,0.7l1.4,0.9
								l1.3-0.7L210.7,83.8z"/>
						</g>
						<g class="st0">
							<path class="st1" d="M214.5,86.5l-0.6,0.3l-1.4-1l-0.7,0.4l1.3,0.9l-0.6,0.3l-1.3-0.9l-0.7,0.4l1.4,1l-0.6,0.3l-2-1.4
								l3.2-1.8L214.5,86.5z"/>
							<path class="st1" d="M214.8,89.2l-1.2,0.7l-0.6-0.4l3.2-1.8l1.2,0.9c0.6,0.4,0.7,0.9,0.1,1.3c-0.5,0.3-1.1,0.3-1.6,0.1
								l-0.4,1.3l-0.7-0.5l0.4-1.2L214.8,89.2z M215.4,88.9l0.6,0.4c0.3,0.2,0.7,0.2,0.9,0.1c0.3-0.2,0.3-0.4,0-0.6l-0.6-0.4
								L215.4,88.9z"/>
							<path class="st1" d="M217.6,92.6l-0.6-0.4l3.2-1.8l0.6,0.4L217.6,92.6z"/>
							<path class="st1" d="M221.9,95.6l-0.5-0.3L222,93l-2.1,1.2l-0.6-0.4l3.2-1.8l0.6,0.4l-0.7,2.1l2-1.2l0.6,0.4L221.9,95.6z"/>
							<path class="st1" d="M228.8,96.4l-0.6,0.3l-1.4-1l-0.7,0.4l1.3,0.9l-0.6,0.3l-1.3-0.9l-0.7,0.4l1.4,1l-0.6,0.3l-2-1.4
								l3.2-1.8L228.8,96.4z"/>
							<path class="st1" d="M232.7,99.1l0.6,0.4l-2.6,1.5l1.4,1l-0.6,0.3l-2-1.4L232.7,99.1z"/>
						</g>
						<g class="st0">
							<path class="st1" d="M235.7,105.2l-0.5-0.3l0.7-2.2l-2.1,1.2l-0.6-0.4l3.2-1.8l0.6,0.4l-0.7,2.1l2-1.2l0.6,0.4L235.7,105.2z"
								/>
						</g>
						<path class="st7" d="M262.6,101.5v-1.2c0-0.3-0.2-0.7-0.8-0.3c-0.4,0.2-0.7,0.6-0.7,1.1v1.3l-6.7,3.9l-8.9-6.1l-11.2-7.7
							l-9.4-6.4L211,76.6l-19.9-14.3V28l1.4-0.8"/>
						<path class="st7" d="M199.8,18c0.3,0.9,0.1,1.5-0.5,1.5s-1.3-0.7-1.6-1.5s-0.1-1.5,0.5-1.5S199.5,17.2,199.8,18z"/>
						<path class="st7" d="M198.7,10c0,0.1-0.2,0.2-0.2,0.3l0.1,0.3c0.1,0.2,0.6,0.3,1.3,0.1s2.3-1.1,2.5-1.9l-0.2-0.5
							c-0.2,0-0.3,0-0.5,0"/>
						<path class="st7" d="M202.3,9.2c0.1,0.2,0.1,0.5,0,0.8c-0.2,1-1.1,1.6-2.1,1.4c0,0,0,0,0,0c-0.4-0.1-0.7-0.3-0.9-0.5l-0.1-0.1
							"/>
						<path class="st7" d="M198.9,10.4c-0.1-0.1-0.1-0.3-0.1-0.4c-0.1-1,0.5-1.9,1.5-2c0.6-0.1,1.2,0.1,1.6,0.5
							c0.1,0.1,0.2,0.3,0.3,0.4"/>
					</g>
				</g>
				<polygon class="st2" points="6.6,37.6 6.5,54.6 17.5,60.9 17.5,43.9 				"/>
				<line class="st16" x1="6.5" y1="40.4" x2="17.5" y2="46.7"/>
				<line class="st16" x1="6.5" y1="43.2" x2="17.5" y2="49.5"/>
				<line class="st16" x1="6.5" y1="46" x2="17.5" y2="52.3"/>
				<line class="st16" x1="6.5" y1="48.9" x2="17.5" y2="55.1"/>
				<line class="st16" x1="6.5" y1="51.7" x2="17.5" y2="58"/>
				<polygon class="st2" points="6.5,60.2 6.5,63 17.2,69.2 17.2,66.3 				"/>
				<g>
					<defs>
						<rect id="SVGID_19_" x="105.3" y="6" width="86.7" height="104.7"/>
					</defs>
					<clipPath id="SVGID_20_">
						<use xlink:href="#SVGID_19_"  style="overflow:visible;"/>
					</clipPath>
					<g class="st17">
						<path class="st6" d="M3.3,104v-5.5l-5.4,3v5.6l-2.4,1.4l-18.2-8.6l-14.6-7.4l-3.3-1.9v-3.9c-0.1-0.9-0.7-1.7-1.4-2.1
							c-0.4-0.3-1-0.2-1.3,0.3c-0.1,0.2-0.2,0.4-0.2,0.6v1.9"/>
						<path class="st6" d="M4.1,67.7l1.6,1v33.9L3.3,104c-1.2-0.4-2.5-0.3-3.7,0.3l-1.2,0.7c-0.2,0.1-0.4,0.2-0.5,0.4"/>
					</g>
				</g>
				<polyline class="st6" points="190.3,67.5 175.2,76 112.1,34.5 				"/>
				<polyline class="st6" points="190.3,70.3 175.2,78.8 112.1,37.3 				"/>
				<polyline class="st6" points="190.3,73.2 175.2,81.7 112.1,40.1 				"/>
				<polyline class="st6" points="190.3,76 175.2,84.5 112.1,43 				"/>
				<polyline class="st6" points="190.3,78.8 175.2,87.3 112.1,45.8 				"/>
				<polyline class="st6" points="190.3,81.7 175.2,90.2 112.1,48.6 				"/>
				<polyline class="st6" points="190.3,84.5 175.2,93 112.1,51.5 				"/>
				<polyline class="st6" points="190.3,87.3 175.2,95.8 112.1,54.3 				"/>
				<polyline class="st6" points="190.3,90.2 175.2,98.7 112.1,57.2 				"/>
				<polyline class="st6" points="190.3,93 175.2,101.5 112.1,60 				"/>
				<polyline class="st6" points="190.3,95.9 175.2,104.3 112.1,62.8 				"/>
				<line class="st6" x1="190.3" y1="95.8" x2="175.2" y2="104.3"/>
				<g class="st0">
					<path class="st1" d="M118.4,75.2c0.7,0.5,0.7,1.1,0.2,1.5l-0.6-0.4c0.2-0.2,0.2-0.5-0.2-0.7c-0.5-0.3-1.2-0.3-1.8,0.1
						c-0.6,0.3-0.8,0.8-0.3,1.1c0.3,0.2,0.7,0.3,1.1,0.2l0.6,0.4c-0.8,0.3-1.6,0.2-2.3-0.3c-0.8-0.6-0.7-1.4,0.2-1.9
						C116.4,74.6,117.6,74.7,118.4,75.2z"/>
				</g>
				<g class="st0">
					<path class="st1" d="M122.7,78.3l-2,2.6l-0.6-0.4l0.5-0.6l-1.1-0.8l-1,0.3l-0.6-0.4l4.3-1L122.7,78.3z M120.2,78.9l0.7,0.5
						l0.7-0.9L120.2,78.9z"/>
				</g>
				<g class="st0">
					<path class="st1" d="M124.9,79.8l2.6,1.8l-0.6,0.3l-1-0.7l-2.6,1.5l-0.6-0.4l2.6-1.5l-1-0.7L124.9,79.8z"/>
					<path class="st1" d="M131.7,84.5l-3.2,1.8l-0.6-0.4l1.3-0.8l-1.4-0.9l-1.3,0.8l-0.6-0.4l3.2-1.8l0.6,0.4l-1.3,0.7l1.4,0.9
						l1.3-0.7L131.7,84.5z"/>
					<path class="st1" d="M135.5,87.1l-0.6,0.3l-1.4-1l-0.7,0.4l1.3,0.9l-0.6,0.3l-1.3-0.9l-0.7,0.4l1.4,1l-0.6,0.3l-2-1.4l3.2-1.8
						L135.5,87.1z"/>
					<path class="st1" d="M135.8,89.9l-1.2,0.7l-0.6-0.4l3.2-1.8l1.2,0.9c0.6,0.4,0.7,0.9,0.1,1.3c-0.5,0.3-1.1,0.3-1.6,0.1
						l-0.4,1.3l-0.7-0.5l0.4-1.2L135.8,89.9z M136.3,89.6l0.6,0.4c0.3,0.2,0.6,0.2,0.9,0.1c0.3-0.2,0.3-0.4,0-0.6l-0.6-0.4
						L136.3,89.6z"/>
					<path class="st1" d="M138.5,93.3l-0.6-0.4l3.2-1.8l0.6,0.4L138.5,93.3z"/>
					<path class="st1" d="M142.8,96.3l-0.5-0.3l0.7-2.2l-2.1,1.2l-0.6-0.4l3.2-1.8l0.6,0.4l-0.7,2.1l2-1.2l0.6,0.4L142.8,96.3z"/>
					<path class="st1" d="M149.7,97.1l-0.6,0.3l-1.4-1l-0.7,0.4l1.3,0.9l-0.6,0.3l-1.3-0.9l-0.7,0.4l1.4,1l-0.6,0.3l-2-1.4l3.2-1.8
						L149.7,97.1z"/>
					<path class="st1" d="M153.6,99.8l0.6,0.4l-2.6,1.5l1.4,1l-0.6,0.3l-2-1.4L153.6,99.8z"/>
				</g>
				<g class="st0">
					<path class="st1" d="M156.7,105.9l-0.5-0.3l0.7-2.2l-2.1,1.2l-0.6-0.4l3.2-1.8l0.6,0.4l-0.7,2.1l2-1.2l0.6,0.4L156.7,105.9z"/>
				</g>
				<polyline class="st7" points="190.3,64.6 175.2,73.1 112.1,31.6 				"/>
				<line class="st7" x1="175.3" y1="70.3" x2="175.3" y2="107.1"/>
				<line class="st7" x1="182.9" y1="101.9" x2="182" y2="102.4"/>
				<polyline class="st7" points="182.9,101.9 183.5,102.2 190.3,98.3 190.3,61.8 				"/>
				<polyline class="st7" points="190.3,61.8 175.2,70.3 112.1,28.7 				"/>
				<g>
					<defs>
						<rect id="SVGID_21_" x="105.3" y="6" width="86.7" height="104.7"/>
					</defs>
					<clipPath id="SVGID_22_">
						<use xlink:href="#SVGID_21_"  style="overflow:visible;"/>
					</clipPath>
					<g class="st18">
						<path class="st7" d="M182.9,101.9V101c0-0.1-0.1-0.3-0.2-0.4"/>
						<path class="st7" d="M183.5,102.2V101c0-0.3-0.2-0.7-0.8-0.3c-0.4,0.2-0.7,0.6-0.7,1.1v1.3l-6.7,3.9l-8.9-6.1l-11.2-7.6
							l-9.4-6.4l-13.9-9.6l-19.8-14.3V28.7l1.4-0.8"/>
					</g>
				</g>
				<line class="st7" x1="177.7" y1="63.3" x2="177.7" y2="61.8"/>
				<line class="st7" x1="121.1" y1="31.4" x2="121.1" y2="33.9"/>
				<line class="st7" x1="177.7" y1="63.3" x2="178.5" y2="63.8"/>
				<line class="st7" x1="177.7" y1="61.8" x2="178.5" y2="62.3"/>
				<line class="st7" x1="121.5" y1="16.3" x2="121.5" y2="14.3"/>
				<line class="st7" x1="121.5" y1="16.4" x2="121.5" y2="14.2"/>
				<line class="st7" x1="121.2" y1="29.5" x2="121.2" y2="24.9"/>
				<polyline class="st7" points="122.7,33 121.1,33.9 113.4,28.9 113.4,26.4 116.1,24.8 				"/>
				<polyline class="st7" points="121.5,22.2 125.1,20.1 125.1,15.4 125.1,15.3 123.5,14.3 				"/>
				<g>
					<defs>
						<rect id="SVGID_23_" x="105.3" y="6" width="86.7" height="104.7"/>
					</defs>
					<clipPath id="SVGID_24_">
						<use xlink:href="#SVGID_23_"  style="overflow:visible;"/>
					</clipPath>
					<g class="st19">
						<path class="st7" d="M120.8,18.7c0.3,0.9,0.1,1.5-0.5,1.5s-1.3-0.7-1.6-1.5s-0.1-1.5,0.5-1.5S120.5,17.9,120.8,18.7z"/>
						<path class="st7" d="M122.3,18.8c-0.3,0.9-0.1,1.5,0.5,1.5s1.3-0.7,1.6-1.5s0.1-1.5-0.5-1.5S122.6,17.9,122.3,18.8z"/>
					</g>
				</g>
				<line class="st7" x1="121.2" y1="25" x2="127.1" y2="21.6"/>
				<line class="st7" x1="116.1" y1="21.6" x2="121.2" y2="25"/>
				<line class="st7" x1="113.4" y1="26.3" x2="121.1" y2="31.4"/>
				<polyline class="st7" points="125.2,19.9 125.5,20.1 125.5,21.6 125.5,21.7 121.5,24 121.5,23.9 121.5,17.6 				"/>
				<polyline class="st7" points="117.6,20.7 116.1,21.6 116.1,26 116.1,26.1 121.1,29.4 				"/>
				<polyline class="st7" points="127.2,23.9 130.3,25.9 130.3,27.6 				"/>
				<line class="st7" x1="121.4" y1="17.7" x2="125.2" y2="15.4"/>
				<line class="st7" x1="118" y1="15.4" x2="119.5" y2="14.5"/>
				<line class="st7" x1="118" y1="15.3" x2="121.5" y2="17.7"/>
				<polyline class="st7" points="125.5,20.5 127.1,21.6 127.2,21.6 127.2,26 127.1,26 121.1,29.5 				"/>
				<line class="st7" x1="119.5" y1="13" x2="121.5" y2="14.3"/>
				<line class="st7" x1="122.6" y1="12.4" x2="123.6" y2="13.1"/>
				<g>
					<defs>
						<rect id="SVGID_25_" x="105.3" y="6" width="86.7" height="104.7"/>
					</defs>
					<clipPath id="SVGID_26_">
						<use xlink:href="#SVGID_25_"  style="overflow:visible;"/>
					</clipPath>
					<g class="st20">
						<path class="st7" d="M119.7,10.7c0,0.1-0.2,0.2-0.2,0.3l0.1,0.3c0.1,0.2,0.6,0.3,1.3,0.1s2.3-1.1,2.5-1.9L123.1,9
							c-0.2,0-0.3,0-0.5,0"/>
					</g>
				</g>
				<polyline class="st7" points="120.4,7.6 121.4,8.1 121.8,7.9 122.5,6.9 				"/>
				<g>
					<defs>
						<rect id="SVGID_27_" x="105.3" y="6" width="86.7" height="104.7"/>
					</defs>
					<clipPath id="SVGID_28_">
						<use xlink:href="#SVGID_27_"  style="overflow:visible;"/>
					</clipPath>
					<g class="st21">
						<path class="st7" d="M123.2,9.9c0.1,0.2,0.1,0.5,0,0.8c-0.2,1-1.1,1.6-2.1,1.4c0,0,0,0,0,0c-0.4-0.1-0.7-0.3-0.9-0.5l-0.1-0.1
							"/>
						<path class="st7" d="M119.8,11c-0.1-0.1-0.1-0.3-0.1-0.4c-0.1-1,0.5-1.8,1.5-2c0.6-0.1,1.2,0.1,1.6,0.5
							c0.1,0.1,0.2,0.3,0.3,0.4"/>
						<path class="st7" d="M122.8,12.6c0-0.1,0-0.1,0-0.2c0,0-0.1-0.1-0.1-0.1c-0.1,0-0.2,0-0.3,0.1c0,0,0-0.1,0-0.1v-0.1l0.1-0.4"
							/>
						<path class="st7" d="M121.9,12.6c0,0.1,0.1,0.1,0.1,0.2s0.2,0.1,0.3,0"/>
					</g>
				</g>
				<polyline class="st7" points="121,13.3 121,13.1 121.2,12.7 121.2,12.6 120.7,12.5 120.3,12.3 120.5,11.9 				"/>
				<line class="st7" x1="118.1" y1="20" x2="121.5" y2="22.3"/>
				<polyline class="st7" points="121.5,24.1 117.7,21.6 117.6,21.6 117.6,20.2 117.6,20.2 118,20 118,20 118,15.3 				"/>
				<polyline class="st7" points="120.6,12.3 119.5,13 119.5,13.1 119.5,15.1 121.5,16.4 121.5,16.4 123.5,15.2 123.5,13.1 
					123.5,13.1 121.6,14.3 				"/>
				<line class="st7" x1="155.3" y1="50.1" x2="167.9" y2="58.1"/>
				<polyline class="st7" points="184.1,60.5 181.2,62.2 178.5,60.5 				"/>
				<line class="st7" x1="181.2" y1="66.3" x2="181.2" y2="62.2"/>
				<polyline class="st7" points="178.5,61.3 172.7,64.7 122.6,32.8 				"/>
				<line class="st6" x1="190.3" y1="61.8" x2="130.3" y2="27"/>
				<line class="st6" x1="169.7" y1="50.5" x2="134.1" y2="30"/>
				<line class="st7" x1="172.7" y1="66.2" x2="172.7" y2="64.7"/>
				<line class="st7" x1="167.9" y1="59.9" x2="167.9" y2="58.1"/>
				<polygon class="st7" points="175.4,53.7 175.4,55.5 167.9,59.9 155.3,51.9 155.3,50.2 160.9,46.9 168.3,51.3 169.8,50.5 				"/>
				<line class="st7" x1="175.4" y1="53.7" x2="167.9" y2="58.1"/>
				<line class="st7" x1="134.1" y1="29.9" x2="128.7" y2="33"/>
				<polygon class="st7" points="124.1,31.9 124.1,30.1 124.1,30.1 129.3,27 134.1,29.9 134.1,31.4 134.1,31.5 128.7,34.8 				"/>
				<polyline class="st7" points="177.7,63.3 172.7,66.2 122.6,34.3 122.6,34.3 122.6,32.8 124.1,31.9 				"/>
				<line class="st7" x1="128.7" y1="33" x2="124.1" y2="30.1"/>
				<line class="st7" x1="128.7" y1="34.7" x2="128.7" y2="33"/>
				<polyline class="st7" points="183,59.9 183.4,59.6 183.4,58.5 175.4,53.8 				"/>
				<line class="st7" x1="183.4" y1="58.5" x2="182.8" y2="58.8"/>
				<line class="st7" x1="130.3" y1="26" x2="121.1" y2="31.4"/>
				<polyline class="st7" points="180,59.6 178.5,60.5 178.5,64.5 181.2,66.3 184.1,64.6 184.1,60.5 182.9,59.8 				"/>
				<g>
					<defs>
						<rect id="SVGID_29_" x="105.3" y="6" width="86.7" height="104.7"/>
					</defs>
					<clipPath id="SVGID_30_">
						<use xlink:href="#SVGID_29_"  style="overflow:visible;"/>
					</clipPath>
					<g class="st22">
						<path class="st7" d="M181.2,58c-0.7,0.1-1.3,0.8-1.2,1.5v1.1c0,0.4,0.7,0.8,1.5,0.8s1.5-0.3,1.5-0.8v-1.1
							c0-0.7-0.5-1.4-1.2-1.5v-0.2c0-0.1-0.1-0.2-0.2-0.2s-0.2,0.1-0.2,0.2V58z"/>
					</g>
				</g>
				<polygon class="st2" points="184.1,68.1 184.1,85.1 190.3,81.7 190.3,64.6 				"/>
				<line class="st16" x1="184.1" y1="71" x2="190.3" y2="67.4"/>
				<line class="st16" x1="184.1" y1="73.8" x2="190.3" y2="70.3"/>
				<line class="st16" x1="184.1" y1="76.7" x2="190.3" y2="73.1"/>
				<line class="st16" x1="184.1" y1="79.5" x2="190.3" y2="76"/>
				<line class="st16" x1="184.1" y1="82.3" x2="190.3" y2="78.8"/>
				<g>
					<defs>
						<rect id="SVGID_31_" x="105.3" y="6" width="86.7" height="104.7"/>
					</defs>
					<clipPath id="SVGID_32_">
						<use xlink:href="#SVGID_31_"  style="overflow:visible;"/>
					</clipPath>
					<g class="st23">
						<path class="st2" d="M184.1,90.8l6.2-3.5v2.8l-6.2,3.5V90.8z"/>
					</g>
				</g>
			</g>
		</g>
	</g>
</g>
</svg>
