<?xml version="1.0" encoding="utf-8"?>
<!-- Generator: Adobe Illustrator 16.0.4, SVG Export Plug-In . SVG Version: 6.00 Build 0)  -->
<!DOCTYPE svg PUBLIC "-//W3C//DTD SVG 1.1//EN" "http://www.w3.org/Graphics/SVG/1.1/DTD/svg11.dtd">
<svg version="1.1" id="Layer_1" xmlns="http://www.w3.org/2000/svg" xmlns:xlink="http://www.w3.org/1999/xlink" x="0px" y="0px"
	 width="182px" height="74.998px" viewBox="0 0 182 74.998" enable-background="new 0 0 182 74.998" xml:space="preserve">
<path fill="#D1D3D4" d="M81.834,33.895c-0.621,0-0.956-0.429-0.956-1.132v-1.4h3.373v1.291c0,0.703-0.313,1.137-0.918,1.137
	c-0.362,0-0.626-0.197-0.714-0.445C82.515,33.663,82.203,33.895,81.834,33.895z M81.472,32.038v0.664
	c0,0.33,0.164,0.506,0.423,0.506c0.264,0,0.423-0.176,0.423-0.506v-0.664H81.472z M82.867,32.608c0,0.336,0.132,0.512,0.401,0.512
	c0.269,0,0.39-0.176,0.39-0.512v-0.57h-0.791V32.608z"/>
<path fill="#D1D3D4" d="M82.136,36.306h-1.258v-0.697h3.373v1.39c0,0.708-0.379,1.181-1.071,1.181c-0.538,0-0.879-0.297-0.994-0.769
	l-1.308,0.89v-0.791l1.258-0.835V36.306z M82.713,36.306v0.648c0,0.352,0.187,0.533,0.467,0.533c0.285,0,0.473-0.182,0.473-0.533
	v-0.648H82.713z"/>
<path fill="#D1D3D4" d="M80.824,41.343c0-0.939,0.736-1.594,1.741-1.594c1.011,0,1.741,0.654,1.741,1.594s-0.73,1.598-1.741,1.598
	C81.56,42.94,80.824,42.282,80.824,41.343z M83.68,41.343c0-0.533-0.456-0.879-1.115-0.879s-1.115,0.346-1.115,0.879
	c0,0.538,0.456,0.89,1.115,0.89S83.68,41.881,83.68,41.343z"/>
<path fill="#D1D3D4" d="M84.251,46.231l-3.373,1.291V46.81l0.812-0.303v-1.264l-0.812-0.297v-0.703l3.373,1.291V46.231z
	 M82.285,45.463v0.824l1.121-0.412L82.285,45.463z"/>
<path fill="#D1D3D4" d="M84.251,49.144v1.191c0,1.021-0.659,1.665-1.687,1.665s-1.687-0.644-1.687-1.665v-1.191H84.251z
	 M81.5,50.308c0,0.643,0.412,0.994,1.065,0.994c0.659,0,1.071-0.352,1.071-0.994v-0.467H81.5V50.308z"/>
<path fill="#D1D3D4" d="M84.251,55.784l-2.269,0.583l2.269,0.555v0.692l-3.373-0.879v-0.643l2.225-0.594l-2.225-0.594v-0.643
	l3.373-0.879v0.709l-2.269,0.549l2.269,0.594V55.784z"/>
<path fill="#D1D3D4" d="M84.251,60.763l-3.373,1.291v-0.715l0.812-0.301v-1.264l-0.812-0.297v-0.703l3.373,1.291V60.763z
	 M82.285,59.993v0.824l1.121-0.412L82.285,59.993z"/>
<path fill="#D1D3D4" d="M84.251,65.421v0.742l-2.093-1.226h-1.28v-0.698h1.28l2.093-1.213v0.764l-1.429,0.818L84.251,65.421z"/>
<path fill="#D1D3D4" d="M179.226,25.158v0.703h-2.752v1.571h-0.621v-2.274H179.226z"/>
<path fill="#D1D3D4" d="M179.226,30.909l-3.373,1.291v-0.715l0.813-0.302V29.92l-0.813-0.296v-0.703l3.373,1.29V30.909z
	 M177.259,30.14v0.824l1.12-0.412L177.259,30.14z"/>
<path fill="#D1D3D4" d="M175.853,33.815h3.373v2.246h-0.615v-1.549h-0.857v1.434h-0.609v-1.434h-1.291V33.815z"/>
<path fill="#D1D3D4" d="M179.226,39.312l-3.373,1.291V39.89l0.813-0.303v-1.264l-0.813-0.296v-0.703l3.373,1.291V39.312z
	 M177.259,38.544v0.824l1.12-0.412L177.259,38.544z"/>
<path fill="#D1D3D4" d="M179.226,43.966v0.741l-2.093-1.226h-1.28v-0.697h1.28l2.093-1.214v0.764l-1.429,0.818L179.226,43.966z"/>
<path fill="#D1D3D4" d="M179.226,48.597h-0.615v-1.6h-0.736v1.451h-0.599v-1.451h-0.802v1.6h-0.621v-2.291h3.373V48.597z"/>
<path fill="#D1D3D4" d="M179.226,50.172v2.879h-0.615v-1.088h-2.758v-0.708h2.758v-1.083H179.226z"/>
<path fill="#D1D3D4" d="M179.226,54.539v2.878h-0.615v-1.088h-2.758v-0.708h2.758v-1.082H179.226z"/>
<path fill="#D1D3D4" d="M179.226,61.384h-0.615v-1.6h-0.736v1.451h-0.599v-1.451h-0.802v1.6h-0.621v-2.291h3.373V61.384z"/>
<path fill="#D1D3D4" d="M176.814,66.011c-0.296,0.094-0.434,0.341-0.434,0.67c0,0.341,0.153,0.566,0.423,0.566
	c0.203,0,0.313-0.121,0.379-0.412l0.138-0.604c0.109-0.483,0.368-0.856,0.923-0.856c0.609,0,1.038,0.505,1.038,1.214
	c0,0.769-0.406,1.214-0.978,1.323v-0.697c0.225-0.077,0.4-0.27,0.4-0.621c0-0.318-0.153-0.532-0.396-0.532
	c-0.192,0-0.308,0.126-0.368,0.379l-0.143,0.615c-0.126,0.55-0.439,0.884-0.95,0.884c-0.653,0-1.049-0.538-1.049-1.252
	c0-0.752,0.373-1.285,1.016-1.4V66.011z"/>
<path fill="#D1D3D4" d="M179.226,69.399v2.879h-0.615V71.19h-2.758v-0.709h2.758v-1.082H179.226z"/>
<path fill="#D1D3D4" d="M110.676,29.403h0.703v2.752h1.571v0.621h-2.274V29.403z"/>
<path fill="#D1D3D4" d="M116.855,29.403v0.615h-1.599v0.736h1.45v0.599h-1.45v0.802h1.599v0.621h-2.291v-3.373H116.855z"/>
<path fill="#D1D3D4" d="M119.93,32.831c-0.939,0-1.593-0.736-1.593-1.741c0-1.011,0.654-1.741,1.593-1.741s1.599,0.73,1.599,1.741
	C121.529,32.095,120.87,32.831,119.93,32.831z M119.93,29.975c-0.533,0-0.879,0.456-0.879,1.115s0.346,1.115,0.879,1.115
	c0.538,0,0.89-0.456,0.89-1.115S120.468,29.975,119.93,29.975z"/>
<path fill="#D1D3D4" d="M125.945,32.776h-0.555l-1.593-2.247v2.247h-0.675v-3.373h0.659l1.489,2.132v-2.132h0.675V32.776z"/>
<path fill="#D1D3D4" d="M129.445,29.403l1.291,3.373h-0.714l-0.302-0.812h-1.264l-0.296,0.812h-0.703l1.291-3.373H129.445z
	 M128.676,31.37h0.824l-0.412-1.121L128.676,31.37z"/>
<path fill="#D1D3D4" d="M132.939,31.519v1.258h-0.698v-3.373h1.39c0.708,0,1.181,0.379,1.181,1.071c0,0.538-0.297,0.879-0.769,0.994
	l0.89,1.308h-0.791l-0.835-1.258H132.939z M132.939,30.941h0.648c0.352,0,0.533-0.187,0.533-0.467c0-0.285-0.181-0.473-0.533-0.473
	h-0.648V30.941z"/>
<path fill="#D1D3D4" d="M136.438,29.403h1.192c1.021,0,1.665,0.659,1.665,1.687s-0.643,1.687-1.665,1.687h-1.192V29.403z
	 M137.602,32.155c0.643,0,0.994-0.412,0.994-1.065c0-0.659-0.352-1.071-0.994-1.071h-0.467v2.137H137.602z"/>
<path fill="#D1D3D4" d="M143.642,31.815c0.093,0.296,0.341,0.434,0.67,0.434c0.34,0,0.565-0.154,0.565-0.423
	c0-0.203-0.121-0.313-0.412-0.379l-0.604-0.138c-0.483-0.109-0.857-0.368-0.857-0.923c0-0.609,0.505-1.038,1.214-1.038
	c0.77,0,1.214,0.406,1.324,0.978h-0.698c-0.077-0.225-0.269-0.4-0.621-0.4c-0.319,0-0.533,0.153-0.533,0.396
	c0,0.191,0.126,0.308,0.379,0.367l0.615,0.144c0.549,0.126,0.884,0.439,0.884,0.95c0,0.653-0.538,1.049-1.252,1.049
	c-0.752,0-1.286-0.373-1.401-1.016H143.642z"/>
<path fill="#D1D3D4" d="M146.926,29.403h2.878v0.615h-1.087v2.758h-0.708v-2.758h-1.082V29.403z"/>
<path fill="#D1D3D4" d="M108.199,64.647c0.796,0,1.285,0.467,1.412,1.143h-0.698c-0.115-0.308-0.324-0.517-0.714-0.517
	c-0.539,0-0.857,0.473-0.857,1.115c0,0.638,0.318,1.115,0.857,1.115c0.39,0,0.599-0.209,0.714-0.521h0.698
	c-0.126,0.681-0.615,1.147-1.412,1.147c-0.901,0-1.571-0.708-1.571-1.741C106.628,65.356,107.298,64.647,108.199,64.647z"/>
<path fill="#D1D3D4" d="M112.934,64.702l1.291,3.373h-0.714l-0.302-0.812h-1.264l-0.296,0.812h-0.703l1.291-3.373H112.934z
	 M112.165,66.669h0.824l-0.412-1.121L112.165,66.669z"/>
<path fill="#D1D3D4" d="M115.318,64.702h2.879v0.615h-1.088v2.758H116.4v-2.758h-1.083V64.702z"/>
<path fill="#D1D3D4" d="M122.799,64.702v3.373h-0.703v-1.417h-1.527v1.417h-0.703v-3.373h0.703v1.341h1.527v-1.341H122.799z"/>
<path fill="#D1D3D4" d="M126.947,64.702v0.615h-1.599v0.736h1.45v0.599h-1.45v0.802h1.599v0.621h-2.291v-3.373H126.947z"/>
<path fill="#D1D3D4" d="M129.402,66.817v1.258h-0.697v-3.373h1.39c0.708,0,1.181,0.379,1.181,1.071c0,0.538-0.297,0.879-0.769,0.994
	l0.89,1.308h-0.791l-0.835-1.258H129.402z M129.402,66.24h0.648c0.352,0,0.533-0.187,0.533-0.467c0-0.285-0.181-0.473-0.533-0.473
	h-0.648V66.24z"/>
<path fill="#D1D3D4" d="M133.714,68.075h-0.703v-3.373h0.703V68.075z"/>
<path fill="#D1D3D4" d="M138.387,68.075h-0.555l-1.593-2.247v2.247h-0.675v-3.373h0.659l1.489,2.132v-2.132h0.675V68.075z"/>
<path fill="#D1D3D4" d="M142.54,64.702v0.615h-1.599v0.736h1.45v0.599h-1.45v0.802h1.599v0.621h-2.291v-3.373H142.54z"/>
<path fill="#D1D3D4" d="M146.673,64.702h0.703v2.752h1.571v0.621h-2.274V64.702z"/>
<path fill="#D1D3D4" d="M153.495,68.075h-0.555l-1.593-2.247v2.247h-0.676v-3.373h0.659l1.488,2.132v-2.132h0.676V68.075z"/>
<polygon points="102.178,41.965 102.178,44.32 102.287,44.32 102.287,44.965 102.178,44.965 102.178,46.29 101.513,46.29 
	101.513,46.916 100.253,46.916 100.253,47.789 97.502,47.789 97.502,47.656 96.44,47.656 96.44,48.48 91.908,48.48 91.908,41.965 
	"/>
<g>
	<defs>
		<rect id="SVGID_1_" x="90.95" y="40.791" width="78.41" height="17.694"/>
	</defs>
	<clipPath id="SVGID_2_">
		<use xlink:href="#SVGID_1_"  overflow="visible"/>
	</clipPath>
	<polygon clip-path="url(#SVGID_2_)" fill="none" stroke="#D1D3D4" stroke-width="0.764" stroke-miterlimit="10" points="
		167.479,41.965 167.479,57.312 91.895,52.608 91.93,41.965 	"/>
</g>
<polygon points="39.046,30.558 39.046,44.258 43.896,47.066 43.896,33.327 "/>
<path fill="#D1D3D4" d="M8.637,47.875l0.526,0.329L7.125,49.53l1.177,0.736l-0.459,0.299L6.14,49.5L8.637,47.875z"/>
<path fill="#D1D3D4" d="M13.424,50.868l-0.456,0.297l-1.197-0.749l-0.545,0.354l1.086,0.68l-0.443,0.288l-1.086-0.679l-0.594,0.387
	l1.197,0.748l-0.459,0.299l-1.716-1.072l2.497-1.625L13.424,50.868z"/>
<path fill="#D1D3D4" d="M13.348,54.06c-0.704-0.44-0.648-1.102,0.096-1.586c0.749-0.486,1.778-0.532,2.482-0.092
	c0.703,0.439,0.657,1.1-0.092,1.587C15.09,54.453,14.051,54.499,13.348,54.06z M15.463,52.683c-0.399-0.249-0.996-0.191-1.484,0.126
	s-0.567,0.699-0.167,0.949c0.403,0.252,1.004,0.196,1.492-0.121S15.866,52.935,15.463,52.683z"/>
<path fill="#D1D3D4" d="M18.051,56.948l-0.416-0.26l0.471-1.828l-1.663,1.082l-0.506-0.316l2.497-1.625l0.493,0.309l-0.463,1.725
	l1.578-1.027l0.506,0.316L18.051,56.948z"/>
<path fill="#D1D3D4" d="M23.326,57.06l-1.53,2.23l-0.535-0.334l0.376-0.533l-0.946-0.592l-0.825,0.252l-0.526-0.328l3.464-1.021
	L23.326,57.06z M21.294,57.647l0.617,0.386l0.521-0.732L21.294,57.647z"/>
<path fill="#D1D3D4" d="M24.538,59.816l-0.931,0.606l-0.522-0.327l2.497-1.625l1.041,0.651c0.531,0.331,0.604,0.735,0.092,1.068
	c-0.398,0.26-0.874,0.285-1.312,0.119l-0.301,1.047l-0.593-0.371l0.306-0.996L24.538,59.816z M24.965,59.538l0.485,0.304
	c0.264,0.165,0.538,0.159,0.745,0.024c0.211-0.138,0.214-0.312-0.05-0.477l-0.485-0.304L24.965,59.538z"/>
<path fill="#D1D3D4" d="M28.883,60.534l0.893,0.559c0.766,0.479,0.759,1.098-0.001,1.592c-0.76,0.496-1.73,0.512-2.496,0.033
	l-0.893-0.559L28.883,60.534z M27.717,62.407c0.481,0.301,1.05,0.266,1.534-0.049c0.488-0.317,0.529-0.681,0.048-0.981l-0.35-0.219
	l-1.582,1.03L27.717,62.407z"/>
<path fill="#D1D3D4" d="M32.815,65.272c-0.149,0.188-0.066,0.369,0.182,0.523c0.255,0.16,0.536,0.19,0.735,0.061
	c0.151-0.098,0.143-0.207-0.026-0.375l-0.352-0.35c-0.281-0.279-0.369-0.578,0.042-0.846c0.452-0.294,1.146-0.264,1.678,0.068
	c0.576,0.36,0.608,0.764,0.268,1.092l-0.523-0.328c0.109-0.144,0.096-0.318-0.168-0.483c-0.238-0.149-0.513-0.176-0.692-0.06
	c-0.143,0.094-0.133,0.208,0.011,0.355l0.355,0.356c0.318,0.318,0.337,0.626-0.042,0.872c-0.484,0.315-1.18,0.254-1.714-0.08
	c-0.563-0.353-0.686-0.782-0.297-1.146L32.815,65.272z"/>
<path fill="#D1D3D4" d="M37.215,65.745l2.156,1.348l-0.456,0.297l-0.814-0.51l-2.042,1.329l-0.531-0.332l2.042-1.329l-0.811-0.506
	L37.215,65.745z"/>
<line fill="none" stroke="#000000" stroke-width="0.119" stroke-miterlimit="10" x1="58.87" y1="37.56" x2="58.87" y2="33.933"/>
<line fill="none" stroke="#000000" stroke-width="0.119" stroke-miterlimit="10" x1="10.442" y1="8.519" x2="10.442" y2="5.519"/>
<line fill="none" stroke="#000000" stroke-width="0.119" stroke-miterlimit="10" x1="20.511" y1="12.413" x2="20.511" y2="14.083"/>
<line fill="none" stroke="#000000" stroke-width="0.119" stroke-miterlimit="10" x1="16.065" y1="9.883" x2="16.065" y2="11.554"/>
<line fill="none" stroke="#000000" stroke-width="0.119" stroke-miterlimit="10" x1="21.709" y1="11.755" x2="21.709" y2="13.427"/>
<line fill="none" stroke="#000000" stroke-width="0.112" stroke-miterlimit="10" x1="21.717" y1="13.4" x2="20.497" y2="14.114"/>
<line fill="none" stroke="#000000" stroke-width="0.112" stroke-miterlimit="10" x1="21.656" y1="11.816" x2="20.526" y2="12.478"/>
<line fill="none" stroke="#000000" stroke-width="0.112" stroke-miterlimit="10" x1="52.27" y1="26.194" x2="47.392" y2="29.048"/>
<line fill="none" stroke="#000000" stroke-width="0.112" stroke-miterlimit="10" x1="56.006" y1="29.169" x2="51.827" y2="31.616"/>
<line fill="none" stroke="#000000" stroke-width="0.119" stroke-miterlimit="10" x1="27.571" y1="15.133" x2="27.571" y2="16.804"/>
<line fill="none" stroke="#000000" stroke-width="0.112" stroke-miterlimit="10" x1="31.654" y1="13.771" x2="51.383" y2="26.729"/>
<line fill="none" stroke="#000000" stroke-width="0.112" stroke-miterlimit="10" x1="52.246" y1="26.188" x2="56.006" y2="28.658"/>
<line fill="none" stroke="#000000" stroke-width="0.112" stroke-miterlimit="10" x1="31.653" y1="13.257" x2="51.764" y2="26.465"/>
<line fill="none" stroke="#000000" stroke-width="0.112" stroke-miterlimit="10" x1="8.069" y1="7.537" x2="10.116" y2="8.722"/>
<line fill="none" stroke="#000000" stroke-width="0.112" stroke-miterlimit="10" x1="16.065" y1="9.883" x2="20.511" y2="12.461"/>
<line fill="none" stroke="#000000" stroke-width="0.112" stroke-miterlimit="10" x1="21.723" y1="11.816" x2="27.63" y2="15.239"/>
<line fill="none" stroke="#000000" stroke-width="0.112" stroke-miterlimit="10" x1="21.69" y1="13.401" x2="27.571" y2="16.809"/>
<line fill="none" stroke="#000000" stroke-width="0.112" stroke-miterlimit="10" x1="47.414" y1="29.056" x2="51.834" y2="31.616"/>
<line fill="none" stroke="#000000" stroke-width="0.119" stroke-miterlimit="10" x1="58.846" y1="27.097" x2="58.846" y2="25.315"/>
<polyline fill="none" stroke="#000000" stroke-width="0.119" stroke-miterlimit="10" points="51.423,34.993 50.718,34.569 
	49.831,35.089 11.652,12.97 11.652,11.099 "/>
<polyline fill="none" stroke="#000000" stroke-width="0.119" stroke-miterlimit="10" points="21.225,6.922 17.438,4.437 
	8.834,9.472 49.831,33.213 "/>
<line fill="none" stroke="#000000" stroke-width="0.119" stroke-miterlimit="10" x1="49.831" y1="33.212" x2="49.831" y2="35.085"/>
<line fill="none" stroke="#000000" stroke-width="0.119" stroke-miterlimit="10" x1="50.722" y1="32.681" x2="49.83" y2="33.202"/>
<polyline fill="none" stroke="#000000" stroke-width="0.119" stroke-miterlimit="10" points="50.722,34.569 50.722,32.681 
	47.414,30.763 "/>
<line fill="none" stroke="#000000" stroke-width="0.119" stroke-miterlimit="10" x1="58.909" y1="40.997" x2="58.909" y2="38.938"/>
<polyline fill="none" stroke="#000000" stroke-width="0.119" stroke-miterlimit="10" points="63.41,33.194 65.911,34.838 
	65.911,36.905 58.908,41.005 51.424,36.669 51.424,34.606 54.433,32.845 "/>
<polyline fill="none" stroke="#000000" stroke-width="0.119" stroke-miterlimit="10" points="65.911,34.837 58.906,38.938 
	51.423,34.606 "/>
<polyline fill="none" stroke="#000000" stroke-width="0.112" stroke-miterlimit="10" points="9.584,9.894 9.584,10.903 
	11.652,12.112 "/>
<line fill="none" stroke="#000000" stroke-width="0.112" stroke-miterlimit="10" x1="16.065" y1="11.552" x2="20.511" y2="14.127"/>
<line fill="none" stroke="#000000" stroke-width="0.109" stroke-miterlimit="10" x1="47.395" y1="30.756" x2="47.395" y2="29.054"/>
<line fill="none" stroke="#000000" stroke-width="0.109" stroke-miterlimit="10" x1="51.834" y1="34.335" x2="51.834" y2="31.622"/>
<polyline fill="none" stroke="#000000" stroke-width="0.112" stroke-miterlimit="10" points="61.779,26.223 58.874,27.924 
	56.006,26.26 "/>
<polyline fill="none" stroke="#000000" stroke-width="0.119" stroke-miterlimit="10" points="61.779,29.92 62.053,30.079 
	62.053,31.348 58.88,33.203 55.683,31.351 55.683,30.179 56.006,29.989 "/>
<line fill="none" stroke="#000000" stroke-width="0.119" stroke-miterlimit="10" x1="58.876" y1="33.199" x2="58.876" y2="27.923"/>
<polyline fill="none" stroke="#000000" stroke-width="0.119" stroke-miterlimit="10" points="62.054,30.476 63.41,31.263 
	63.41,34.911 58.869,37.565 54.432,34.994 54.432,31.337 55.683,30.604 "/>
<polyline fill="none" stroke="#000000" stroke-width="0.119" stroke-miterlimit="10" points="63.41,31.263 58.87,33.934 
	54.467,31.382 "/>
<polyline fill="none" stroke="#000000" stroke-width="0.119" stroke-miterlimit="10" points="8.069,7.517 3.726,10.058 
	3.726,40.537 "/>
<polyline fill="none" stroke="#000000" stroke-width="0.119" stroke-miterlimit="10" points="12.875,4.703 15.917,2.923 
	21.641,6.682 "/>
<line fill="none" stroke="#000000" stroke-width="0.119" stroke-miterlimit="10" x1="58.87" y1="42.005" x2="58.84" y2="69.52"/>
<line fill="none" stroke="#000000" stroke-width="0.117" stroke-miterlimit="10" x1="58.855" y1="69.501" x2="29.411" y2="52.443"/>
<polyline fill="none" stroke="#000000" stroke-width="0.117" stroke-miterlimit="10" points="67.195,41.737 58.871,46.589 
	3.787,14.679 "/>
<polyline fill="none" stroke="#000000" stroke-width="0.117" stroke-miterlimit="10" points="67.195,44.03 58.871,48.883 
	3.787,16.972 "/>
<polyline fill="none" stroke="#000000" stroke-width="0.117" stroke-miterlimit="10" points="67.195,46.323 58.871,51.177 
	3.787,19.265 "/>
<polyline fill="none" stroke="#000000" stroke-width="0.117" stroke-miterlimit="10" points="67.195,48.616 58.871,53.468 
	3.787,21.558 "/>
<polyline fill="none" stroke="#000000" stroke-width="0.117" stroke-miterlimit="10" points="67.195,50.909 58.871,55.762 
	3.787,23.851 "/>
<polyline fill="none" stroke="#000000" stroke-width="0.117" stroke-miterlimit="10" points="67.195,53.202 58.871,58.056 
	3.787,26.145 "/>
<polyline fill="none" stroke="#000000" stroke-width="0.117" stroke-miterlimit="10" points="67.195,55.495 58.871,60.349 
	3.787,28.437 "/>
<polyline fill="none" stroke="#000000" stroke-width="0.117" stroke-miterlimit="10" points="67.195,57.789 58.871,62.642 
	3.787,30.729 "/>
<line fill="none" stroke="#000000" stroke-width="0.117" stroke-miterlimit="10" x1="67.195" y1="60.081" x2="65.236" y2="61.225"/>
<polyline fill="none" stroke="#000000" stroke-width="0.117" stroke-miterlimit="10" points="60.815,63.8 58.871,64.935 
	3.788,33.023 "/>
<line fill="none" stroke="#000000" stroke-width="0.117" stroke-miterlimit="10" x1="65.236" y1="63.517" x2="67.195" y2="62.374"/>
<polyline fill="none" stroke="#000000" stroke-width="0.117" stroke-miterlimit="10" points="60.815,66.093 58.871,67.228 
	3.788,35.315 "/>
<polyline fill="none" stroke="#000000" stroke-width="0.117" stroke-miterlimit="10" points="67.195,39.444 58.871,44.297 
	3.787,12.386 "/>
<line fill="none" stroke="#000000" stroke-width="0.117" stroke-miterlimit="10" x1="27.085" y1="51.096" x2="3.777" y2="37.592"/>
<polyline fill="none" stroke="#000000" stroke-width="0.112" stroke-miterlimit="10" points="9.326,3.407 8.068,4.144 8.068,7.537 
	"/>
<polyline fill="none" stroke="#000000" stroke-width="0.112" stroke-miterlimit="10" points="11.705,3.417 12.874,4.095 
	12.874,7.079 "/>
<polyline fill="none" stroke="#000000" stroke-width="0.112" stroke-miterlimit="10" points="8.069,4.143 10.443,5.518 
	12.874,4.095 "/>
<polyline fill="none" stroke="#000000" stroke-width="0.119" stroke-miterlimit="10" points="59.855,23.952 60.477,24.36 
	60.477,26.144 58.846,27.097 57.2,26.143 57.2,24.36 58.048,23.864 "/>
<polyline fill="none" stroke="#000000" stroke-width="0.112" stroke-miterlimit="10" points="60.479,24.361 58.846,25.316 
	57.199,24.361 "/>
<g>
	<defs>
		<rect id="SVGID_3_" x="2.354" y="-4.394" width="65.775" height="75.618"/>
	</defs>
	<clipPath id="SVGID_4_">
		<use xlink:href="#SVGID_3_"  overflow="visible"/>
	</clipPath>
	<path clip-path="url(#SVGID_4_)" fill="none" stroke="#000000" stroke-width="0.119" stroke-miterlimit="10" d="M57.33,22.44
		c-0.035,0.07-0.156,0.203-0.168,0.258l0.1,0.264c0.1,0.135,0.466,0.258,1.077,0.083c0.611-0.173,1.891-0.853,2.009-1.539
		l-0.206-0.386c0,0-0.189-0.061-0.398-0.007"/>
</g>
<polyline fill="none" stroke="#000000" stroke-width="0.119" stroke-miterlimit="10" points="57.904,19.929 58.773,20.35 
	59.04,20.237 59.641,19.395 "/>
<g>
	<defs>
		<rect id="SVGID_5_" x="2.354" y="-4.394" width="65.775" height="75.618"/>
	</defs>
	<clipPath id="SVGID_6_">
		<use xlink:href="#SVGID_5_"  overflow="visible"/>
	</clipPath>
	<path clip-path="url(#SVGID_6_)" fill="none" stroke="#000000" stroke-width="0.119" stroke-miterlimit="10" d="M60.196,21.854
		c0.044,0.194,0.049,0.402,0.006,0.611c-0.16,0.784-0.927,1.291-1.711,1.13c-0.304-0.061-0.566-0.215-0.764-0.424l-0.06-0.046"/>
	<path clip-path="url(#SVGID_6_)" fill="none" stroke="#000000" stroke-width="0.119" stroke-miterlimit="10" d="M57.442,22.751
		c-0.048-0.111-0.082-0.23-0.101-0.355c-0.121-0.793,0.424-1.531,1.216-1.652c0.487-0.074,0.929,0.076,1.27,0.436
		c0.171,0.192,0.233,0.344,0.233,0.344"/>
	<path clip-path="url(#SVGID_6_)" fill="none" stroke="#000000" stroke-width="0.119" stroke-miterlimit="10" d="M58.232,28.999
		c0.243,0.696,0.052,1.26-0.425,1.263c-0.477,0.001-1.06-0.562-1.303-1.257c-0.243-0.696-0.052-1.262,0.425-1.262
		C57.406,27.741,57.989,28.304,58.232,28.999z"/>
	<path clip-path="url(#SVGID_6_)" fill="none" stroke="#000000" stroke-width="0.119" stroke-miterlimit="10" d="M59.474,29.022
		c-0.243,0.696-0.052,1.26,0.425,1.262s1.06-0.562,1.303-1.256c0.242-0.697,0.052-1.261-0.425-1.263
		C60.3,27.764,59.717,28.327,59.474,29.022z"/>
	
		<path clip-path="url(#SVGID_6_)" fill="none" stroke="#000000" stroke-width="0.112" stroke-linejoin="bevel" stroke-miterlimit="10" d="
		M59.852,24.031c0,0,0.004-0.126-0.008-0.155c-0.012-0.031-0.03-0.059-0.079-0.07c-0.049-0.014-0.255,0.047-0.255,0.047
		s-0.002-0.034-0.002-0.081v-0.036l0.077-0.331"/>
	<path clip-path="url(#SVGID_6_)" fill="none" stroke="#000000" stroke-width="0.112" stroke-miterlimit="10" d="M59.165,24.017
		c-0.016,0.061,0.046,0.125,0.058,0.167c0.019,0.062,0.158,0.104,0.28,0.015"/>
</g>
<polyline fill="none" stroke="#000000" stroke-width="0.112" stroke-miterlimit="10" points="58.39,24.577 58.39,24.442 
	58.577,24.128 58.544,24.017 58.198,23.96 57.889,23.771 58.015,23.405 "/>
<polyline fill="none" stroke="#000000" stroke-width="0.119" stroke-miterlimit="10" points="57.201,25.56 56.005,26.259 
	56.005,30.151 58.879,31.815 61.779,30.122 61.779,26.224 60.481,25.472 "/>
<g>
	<defs>
		<rect id="SVGID_7_" x="2.354" y="-4.394" width="65.775" height="75.618"/>
	</defs>
	<clipPath id="SVGID_8_">
		<use xlink:href="#SVGID_7_"  overflow="visible"/>
	</clipPath>
	<path clip-path="url(#SVGID_8_)" fill="none" stroke="#000000" stroke-width="0.112" stroke-miterlimit="10" d="M10.317,2.097
		C9.754,2.194,9.325,2.706,9.325,3.321v0.863c0,0.338,0.533,0.611,1.19,0.611c0.657,0,1.19-0.273,1.19-0.611V3.321
		c0-0.615-0.43-1.125-0.992-1.225V1.966c0-0.061-0.076-0.132-0.199-0.132c-0.121,0-0.197,0.071-0.197,0.132V2.097z"/>
</g>
<polyline fill="none" stroke="#000000" stroke-width="0.119" stroke-miterlimit="10" points="67.195,37.151 58.871,42.004 
	3.787,10.093 "/>
<polyline fill="none" stroke="#000000" stroke-width="0.119" stroke-miterlimit="10" points="29.411,52.864 27.803,51.935 
	26.353,52.78 28.361,53.941 29.411,53.331 "/>
<line fill="none" stroke="#000000" stroke-width="0.119" stroke-miterlimit="10" x1="29.411" y1="52.864" x2="27.803" y2="51.935"/>
<line fill="none" stroke="#000000" stroke-width="0.119" stroke-miterlimit="10" x1="29.411" y1="54.206" x2="28.656" y2="53.769"/>
<g>
	<defs>
		<rect id="SVGID_9_" x="2.354" y="-4.394" width="65.775" height="75.618"/>
	</defs>
	<clipPath id="SVGID_10_">
		<use xlink:href="#SVGID_9_"  overflow="visible"/>
	</clipPath>
	<path clip-path="url(#SVGID_10_)" fill="none" stroke="#000000" stroke-width="0.119" stroke-miterlimit="10" d="M28.129,50.108
		c-0.219,0.187-0.323,0.502-0.323,0.664v1.186"/>
</g>
<polyline fill="none" stroke="#000000" stroke-width="0.119" stroke-miterlimit="10" points="27.491,53.438 27.081,53.677 
	3.726,40.521 "/>
<line fill="none" stroke="#000000" stroke-width="0.119" stroke-miterlimit="10" x1="27.084" y1="53.677" x2="27.084" y2="53.204"/>
<g>
	<defs>
		<rect id="SVGID_11_" x="2.354" y="-4.394" width="65.775" height="75.618"/>
	</defs>
	<clipPath id="SVGID_12_">
		<use xlink:href="#SVGID_11_"  overflow="visible"/>
	</clipPath>
	<path clip-path="url(#SVGID_12_)" fill="none" stroke="#000000" stroke-width="0.119" stroke-miterlimit="10" d="M65.236,65.784
		v-4.439L60.815,63.8v4.568l-1.977,1.152l-14.818-7.014l-11.886-5.982l-2.724-1.535V51.87c0-0.201-0.189-1.15-1.163-1.713
		c-0.821-0.478-1.164,0.373-1.164,0.672v1.525"/>
</g>
<polyline fill="none" stroke="#000000" stroke-width="0.119" stroke-miterlimit="10" points="62.108,66.101 62.108,64.947 
	61.39,65.364 61.39,66.517 "/>
<g>
	<defs>
		<rect id="SVGID_13_" x="2.354" y="-4.394" width="65.775" height="75.618"/>
	</defs>
	<clipPath id="SVGID_14_">
		<use xlink:href="#SVGID_13_"  overflow="visible"/>
	</clipPath>
	<path clip-path="url(#SVGID_14_)" fill="none" stroke="#000000" stroke-width="0.119" stroke-miterlimit="10" d="M65.911,36.331
		l1.273,0.837v27.487l-1.948,1.129c-0.067-0.025-1.669-0.494-2.957,0.22l-1.017,0.59c-0.198,0.101-0.34,0.212-0.447,0.33"/>
</g>
<polyline fill="none" stroke="#000000" stroke-width="0.112" stroke-miterlimit="10" points="27.571,16.804 31.654,14.372 
	31.654,12.798 22.031,6.455 16.067,9.903 "/>
<line fill="none" stroke="#000000" stroke-width="0.112" stroke-miterlimit="10" x1="31.653" y1="12.791" x2="27.581" y2="15.19"/>
<g>
	<defs>
		<rect id="SVGID_15_" x="2.354" y="-4.394" width="65.775" height="75.618"/>
	</defs>
	<clipPath id="SVGID_16_">
		<use xlink:href="#SVGID_15_"  overflow="visible"/>
	</clipPath>
	<path clip-path="url(#SVGID_16_)" fill="none" stroke="#000000" stroke-width="0.112" stroke-miterlimit="10" d="M164.968,1.715
		c0.243,0.696,0.052,1.261-0.425,1.262s-1.06-0.562-1.303-1.257c-0.242-0.695-0.051-1.26,0.425-1.262
		C164.142,0.456,164.725,1.019,164.968,1.715z"/>
	<path clip-path="url(#SVGID_16_)" fill="none" stroke="#000000" stroke-width="0.112" stroke-miterlimit="10" d="M166.21,1.738
		c-0.243,0.696-0.051,1.26,0.425,1.262c0.477,0.001,1.06-0.562,1.303-1.257c0.242-0.695,0.052-1.261-0.425-1.262
		C167.036,0.479,166.453,1.042,166.21,1.738z"/>
	<path clip-path="url(#SVGID_16_)" fill="#D1D3D4" d="M159.847,43.215c0.577,0.403,0.575,0.856,0.15,1.222l-0.506-0.354
		c0.152-0.194,0.16-0.393-0.123-0.59c-0.391-0.271-0.982-0.223-1.472,0.062c-0.487,0.283-0.621,0.656-0.23,0.928
		c0.282,0.197,0.593,0.211,0.915,0.129l0.506,0.354c-0.611,0.238-1.322,0.199-1.899-0.203c-0.653-0.455-0.598-1.109,0.191-1.567
		C158.167,42.736,159.193,42.76,159.847,43.215z"/>
	<path clip-path="url(#SVGID_16_)" fill="#D1D3D4" d="M163.312,45.686l-1.64,2.15l-0.518-0.36l0.402-0.514l-0.916-0.639
		l-0.836,0.211l-0.509-0.355l3.51-0.846L163.312,45.686z M161.254,46.171l0.597,0.416l0.557-0.707L161.254,46.171z"/>
	<path clip-path="url(#SVGID_16_)" fill="#D1D3D4" d="M165.109,46.938l2.086,1.454l-0.47,0.272l-0.788-0.549l-2.105,1.225
		l-0.514-0.357l2.105-1.226l-0.784-0.546L165.109,46.938z"/>
	<path clip-path="url(#SVGID_16_)" fill="#D1D3D4" d="M170.603,50.769l-2.575,1.498l-0.509-0.355l1.082-0.63l-1.106-0.771
		l-1.082,0.629l-0.51-0.355l2.575-1.498l0.51,0.355l-1.023,0.596l1.106,0.771l1.023-0.596L170.603,50.769z"/>
	<path clip-path="url(#SVGID_16_)" fill="#D1D3D4" d="M173.681,52.914l-0.47,0.273l-1.158-0.808l-0.562,0.327l1.051,0.732
		l-0.458,0.266l-1.051-0.732l-0.612,0.356l1.158,0.808l-0.474,0.276l-1.66-1.158l2.575-1.498L173.681,52.914z"/>
	<path clip-path="url(#SVGID_16_)" fill="#D1D3D4" d="M173.914,55.142l-0.96,0.559l-0.505-0.352l2.575-1.498l1.007,0.701
		c0.514,0.358,0.567,0.766,0.039,1.073c-0.411,0.239-0.887,0.239-1.317,0.053l-0.354,1.03l-0.573-0.399l0.356-0.98L173.914,55.142z
		 M174.354,54.886l0.47,0.328c0.255,0.177,0.53,0.186,0.744,0.061c0.218-0.127,0.229-0.301-0.026-0.479l-0.47-0.328L174.354,54.886z
		"/>
	<path clip-path="url(#SVGID_16_)" fill="#D1D3D4" d="M176.147,57.928l-0.51-0.355l2.575-1.498l0.51,0.355L176.147,57.928z"/>
	<path clip-path="url(#SVGID_16_)" fill="#D1D3D4" d="M179.609,60.341l-0.402-0.28l0.562-1.803l-1.716,0.998l-0.489-0.341
		l2.575-1.499l0.477,0.333l-0.548,1.699l1.627-0.947l0.49,0.342L179.609,60.341z"/>
	<path clip-path="url(#SVGID_16_)" fill="#D1D3D4" d="M185.262,60.988l-0.47,0.273l-1.158-0.808l-0.562,0.327l1.051,0.733
		l-0.458,0.266l-1.051-0.733l-0.612,0.356l1.158,0.808l-0.474,0.276l-1.659-1.158l2.575-1.498L185.262,60.988z"/>
	<path clip-path="url(#SVGID_16_)" fill="none" stroke="#000000" stroke-width="0.112" stroke-miterlimit="10" d="M210.854,64.737
		v-0.965c0-0.231-0.201-0.537-0.667-0.272c-0.326,0.198-0.571,0.556-0.571,0.897v1.065l-4.775,2.815l-7.191-4.979l-9.095-6.217
		l-7.625-5.234l-15.464-11.111l-7.57-5.453V9.827"/>
</g>
</svg>
