<?xml version="1.0" encoding="utf-8"?>
<!-- Generator: Adobe Illustrator 23.0.0, SVG Export Plug-In . SVG Version: 6.00 Build 0)  -->
<svg version="1.1" id="Layer_1" xmlns="http://www.w3.org/2000/svg" xmlns:xlink="http://www.w3.org/1999/xlink" x="0px" y="0px"
	 viewBox="0 0 189.9 92.6" style="enable-background:new 0 0 189.9 92.6;" xml:space="preserve">
<style type="text/css">
	.st0{fill:#D2D3D4;}
	.st1{clip-path:url(#SVGID_2_);}
	.st2{fill:#231F20;}
	.st3{clip-path:url(#SVGID_4_);}
	.st4{fill:none;stroke:#D1D3D4;stroke-width:1.09;stroke-miterlimit:10;}
	.st5{clip-path:url(#SVGID_6_);}
	.st6{fill:none;stroke:#231F20;stroke-width:0.15;stroke-miterlimit:10;}
	.st7{enable-background:new    ;}
	.st8{fill:#D1D3D4;}
	.st9{fill:none;stroke:#231F20;stroke-width:0.14;stroke-miterlimit:10;}
	.st10{clip-path:url(#SVGID_8_);}
	.st11{clip-path:url(#SVGID_10_);}
	.st12{clip-path:url(#SVGID_12_);}
	.st13{clip-path:url(#SVGID_14_);}
	.st14{clip-path:url(#SVGID_16_);}
	.st15{fill:none;stroke:#FFFFFF;stroke-width:0.15;stroke-miterlimit:10;}
</style>
<title>residence_I_4-11_key_horizontal</title>
<g>
	<path class="st0" d="M83.6,43.8c-0.6,0-1-0.4-1-1.1v-1.4H86v1.3c0,0.7-0.3,1.1-0.9,1.1c-0.3,0-0.6-0.2-0.7-0.4
		C84.2,43.6,83.9,43.8,83.6,43.8z M83.2,41.9v0.7c0,0.3,0.2,0.5,0.4,0.5s0.4-0.2,0.4-0.5v-0.7H83.2z M84.6,42.5
		c0,0.3,0.1,0.5,0.4,0.5s0.4-0.2,0.4-0.5v-0.6h-0.8V42.5z"/>
	<path class="st0" d="M83.8,46.2h-1.3v-0.7H86v1.4c0.1,0.5-0.3,1.1-0.8,1.2c-0.1,0-0.2,0-0.3,0c-0.5,0-0.9-0.3-1-0.8l-1.3,0.9v-0.8
		l1.3-0.8L83.8,46.2z M84.4,46.2v0.6c0,0.4,0.2,0.5,0.5,0.5s0.5-0.2,0.5-0.5v-0.6H84.4z"/>
	<path class="st0" d="M82.5,51.2c-0.1-1,0.6-1.8,1.6-1.9c1-0.1,1.8,0.6,1.9,1.6s-0.6,1.8-1.6,1.9c-0.1,0-0.1,0-0.2,0
		c-0.9,0.1-1.7-0.6-1.7-1.5C82.5,51.3,82.5,51.3,82.5,51.2z M85.4,51.2c0-0.5-0.4-0.9-1.1-0.9s-1.1,0.3-1.1,0.9s0.5,0.9,1.1,0.9
		S85.4,51.8,85.4,51.2z"/>
	<path class="st0" d="M86,56.1l-3.4,1.3v-0.7l0.8-0.3v-1.3l-0.8-0.3v-0.7l3.4,1.3V56.1z M84,55.4v0.8l1.1-0.4L84,55.4z"/>
	<path class="st0" d="M86,59v1.2c0,0.9-0.8,1.7-1.7,1.7c-0.9,0-1.7-0.8-1.7-1.7V59H86z M83.2,60.2c0,0.6,0.5,1.1,1.1,1.1
		c0.6,0,1.1-0.5,1.1-1.1v-0.5h-2.2L83.2,60.2z"/>
	<path class="st0" d="M86,65.7l-2.3,0.6l2.3,0.6v0.7l-3.4-0.9V66l2.2-0.6l-2.2-0.6v-0.6l3.4-0.9V64l-2.3,0.6l2.3,0.6V65.7z"/>
	<path class="st0" d="M86,70.7L82.6,72v-0.7l0.8-0.3v-1.3l-0.8-0.3v-0.7L86,70V70.7z M84,69.9v0.8l1.1-0.4L84,69.9z"/>
	<path class="st0" d="M86,75.3v0.7l-2.1-1.2h-1.3v-0.7h1.3l2.1-1.2v0.8l-1.4,0.8L86,75.3z"/>
	<path class="st0" d="M180.9,35.1v0.7h-2.8v1.6h-0.6v-2.3H180.9z"/>
	<path class="st0" d="M180.9,40.8l-3.4,1.3v-0.7l0.8-0.3v-1.3l-0.8-0.3v-0.7l3.4,1.3V40.8z M179,40v0.8l1.1-0.4L179,40z"/>
	<path class="st0" d="M177.6,43.7h3.4V46h-0.6v-1.6h-0.9v1.4h-0.6v-1.4h-1.3V43.7z"/>
	<path class="st0" d="M180.9,49.2l-3.4,1.3v-0.7l0.8-0.3v-1.3l-0.8-0.3v-0.7l3.4,1.3V49.2z M178.9,48.4v0.8l1.1-0.4L178.9,48.4z"/>
	<path class="st0" d="M180.9,53.9v0.7l-2.1-1.2h-1.3v-0.7h1.3l2.1-1.2v0.8l-1.4,0.8L180.9,53.9z"/>
	<path class="st0" d="M180.9,58.5h-0.6v-1.6h-0.7v1.5H179v-1.5h-0.8v1.6h-0.6v-2.3h3.4L180.9,58.5z"/>
	<path class="st0" d="M180.9,60.1V63h-0.6v-1.1h-2.8v-0.7h2.8v-1.1H180.9z"/>
	<path class="st0" d="M180.9,64.4v2.9h-0.6v-1.1h-2.8v-0.7h2.8v-1.1H180.9z"/>
	<path class="st0" d="M180.9,71.3h-0.6v-1.6h-0.7v1.5H179v-1.5h-0.8v1.6h-0.6V69h3.4L180.9,71.3z"/>
	<path class="st0" d="M178.5,75.9c-0.3,0.1-0.5,0.4-0.4,0.7c0,0.3,0.2,0.6,0.4,0.6s0.3-0.1,0.4-0.4l0.1-0.6c0-0.5,0.4-0.9,0.9-0.8
		c0.6,0,1,0.6,1,1.1c0,0,0,0,0,0.1c0.1,0.6-0.4,1.2-1,1.3v-0.7c0.3-0.1,0.4-0.4,0.4-0.6c0-0.3-0.2-0.5-0.4-0.5s-0.3,0.1-0.4,0.4
		l-0.1,0.6c-0.1,0.6-0.4,0.9-0.9,0.9c-0.6,0-1.1-0.5-1.1-1.2c0,0,0-0.1,0-0.1c-0.1-0.7,0.4-1.3,1-1.4L178.5,75.9L178.5,75.9z"/>
	<path class="st0" d="M180.9,79.3v2.9h-0.6v-1.1h-2.8v-0.7h2.8v-1.1H180.9z"/>
	<path class="st0" d="M112.4,39.3h0.7v2.8h1.6v0.6h-2.3V39.3z"/>
	<path class="st0" d="M118.6,39.3v0.6H117v0.7h1.4v0.6H117v0.8h1.6v0.6h-2.3v-3.4H118.6z"/>
	<path class="st0" d="M121.6,42.7c-1,0.1-1.8-0.6-1.9-1.6c-0.1-1,0.6-1.8,1.6-1.9c1-0.1,1.8,0.6,1.9,1.6c0,0.1,0,0.1,0,0.2
		c0.1,0.9-0.6,1.7-1.5,1.7C121.7,42.7,121.7,42.7,121.6,42.7z M121.6,39.9c-0.5,0-0.9,0.5-0.9,1.1s0.3,1.1,0.9,1.1s0.9-0.5,0.9-1.1
		S122.2,39.9,121.6,39.9z"/>
	<path class="st0" d="M127.7,42.7h-0.6l-1.6-2.2v2.2h-0.7v-3.4h0.7l1.5,2.1v-2.1h0.7L127.7,42.7z"/>
	<path class="st0" d="M131.2,39.3l1.3,3.4h-0.7l-0.3-0.8h-1.3l-0.3,0.8h-0.7l1.3-3.4H131.2z M130.4,41.3h0.8l-0.4-1.1L130.4,41.3z"
		/>
	<path class="st0" d="M134.6,41.4v1.3H134v-3.4h1.4c0.6-0.1,1.1,0.3,1.2,0.9c0,0.1,0,0.1,0,0.2c0,0.5-0.3,0.9-0.8,1l0.9,1.3h-0.8
		l-0.9-1.3H134.6z M134.6,40.8h0.6c0.4,0,0.5-0.2,0.5-0.5s-0.2-0.5-0.5-0.5h-0.6V40.8z"/>
	<path class="st0" d="M138.1,39.3h1.2c0.9,0,1.7,0.8,1.7,1.7c0,0.9-0.8,1.7-1.7,1.7h-1.2V39.3z M139.3,42.1c0.6,0,1.1-0.5,1.1-1.1
		c0-0.6-0.5-1.1-1.1-1.1h-0.5v2.1H139.3z"/>
	<path class="st0" d="M145.4,41.7c0.1,0.3,0.4,0.5,0.7,0.4c0.3,0,0.6-0.2,0.6-0.4s-0.1-0.3-0.4-0.4l-0.6-0.1
		c-0.5-0.1-0.9-0.4-0.9-0.9c0-0.6,0.6-1,1.2-1c0,0,0,0,0,0c0.6-0.1,1.2,0.4,1.3,1h-0.7c-0.1-0.3-0.3-0.4-0.6-0.4
		c-0.3,0-0.5,0.2-0.5,0.4s0.1,0.3,0.4,0.4l0.6,0.1c0.6,0.1,0.9,0.4,0.9,1c0,0.7-0.5,1-1.2,1c-0.7,0.1-1.3-0.4-1.4-1L145.4,41.7z"/>
	<path class="st0" d="M148.6,39.3h2.9v0.6h-1.1v2.8h-0.7v-2.8h-1.1V39.3z"/>
	<path class="st0" d="M109.9,74.6c0.7,0,1.3,0.4,1.4,1.1h-0.7c-0.1-0.3-0.4-0.5-0.7-0.5c-0.5,0-0.8,0.5-0.8,1.1s0.3,1.1,0.8,1.1
		c0.3,0,0.6-0.2,0.7-0.5h0.7c-0.1,0.7-0.7,1.2-1.4,1.1c-1-0.1-1.7-1-1.6-1.9C108.4,75.3,109.1,74.6,109.9,74.6L109.9,74.6z"/>
	<path class="st0" d="M114.7,74.6l1.3,3.4h-0.7l-0.3-0.8h-1.3l-0.3,0.8h-0.7l1.3-3.4H114.7z M113.9,76.6h0.8l-0.4-1.1L113.9,76.6z"
		/>
	<path class="st0" d="M117,74.6h2.9v0.6h-1.1V78h-0.7v-2.8H117V74.6z"/>
	<path class="st0" d="M124.5,74.6V78h-0.7v-1.4h-1.5V78h-0.7v-3.4h0.7v1.3h1.5v-1.3H124.5z"/>
	<path class="st0" d="M128.7,74.6v0.6h-1.6V76h1.5v0.6h-1.4v0.8h1.6V78h-2.3v-3.4H128.7z"/>
	<path class="st0" d="M131.1,76.7V78h-0.7v-3.4h1.4c0.5-0.1,1.1,0.2,1.2,0.8c0,0.1,0,0.2,0,0.3c0,0.5-0.3,0.9-0.8,1l0.9,1.3h-0.8
		l-0.8-1.3L131.1,76.7z M131.1,76.1h0.6c0.4,0,0.5-0.2,0.5-0.5s-0.2-0.5-0.5-0.5h-0.6V76.1z"/>
	<path class="st0" d="M135.4,78h-0.7v-3.4h0.7V78z"/>
	<path class="st0" d="M140.1,78h-0.6l-1.6-2.3V78h-0.7v-3.4h0.7l1.5,2.1v-2.1h0.7L140.1,78z"/>
	<path class="st0" d="M144.2,74.6v0.6h-1.6V76h1.4v0.6h-1.4v0.8h1.6V78H142v-3.4H144.2z"/>
	<path class="st0" d="M148.4,74.6h0.7v2.8h1.6V78h-2.3V74.6z"/>
	<path class="st0" d="M155.2,78h-0.6l-1.6-2.2V78h-0.7v-3.4h0.6l1.5,2.1v-2.1h0.7L155.2,78L155.2,78z"/>
</g>
<g id="Layer_4">
	<g>
		<defs>
			<rect id="SVGID_1_" x="91.8" y="50.8" width="77.2" height="17.4"/>
		</defs>
		<clipPath id="SVGID_2_">
			<use xlink:href="#SVGID_1_"  style="overflow:visible;"/>
		</clipPath>
		<g class="st1">
			<polygon class="st2" points="141.3,59.1 141.9,59.1 141.9,59.2 143,59.2 143,59.4 144.3,59.4 144.3,59 145.6,59 145.6,59.2 
				147.1,59.2 147.1,59.9 147.3,59.9 147.3,61.3 146.9,61.3 146.9,65.9 141.3,65.5 			"/>
			<g>
				<defs>
					<rect id="SVGID_3_" x="91.8" y="50.8" width="77.2" height="17.4"/>
				</defs>
				<clipPath id="SVGID_4_">
					<use xlink:href="#SVGID_3_"  style="overflow:visible;"/>
				</clipPath>
				<g class="st3">
					<polygon class="st4" points="167.2,52 167.2,67.1 92.7,62.5 92.8,52 					"/>
				</g>
			</g>
		</g>
	</g>
	<g>
		<defs>
			<rect id="SVGID_5_" x="7.6" y="5.9" width="61.3" height="74"/>
		</defs>
		<clipPath id="SVGID_6_">
			<use xlink:href="#SVGID_5_"  style="overflow:visible;"/>
		</clipPath>
		<g class="st5">
			<polyline class="st6" points="67.2,49.9 56.6,55.9 11.6,26.4 			"/>
			<polyline class="st6" points="67.2,51.9 56.6,57.9 11.6,28.4 			"/>
			<polyline class="st6" points="67.2,53.9 56.6,60 11.6,30.4 			"/>
			<polyline class="st6" points="67.2,55.9 56.6,62 11.6,32.5 			"/>
			<polyline class="st6" points="67.2,58 56.6,64 11.6,34.5 			"/>
			<polyline class="st6" points="67.2,60 56.6,66 11.6,36.5 			"/>
			<polyline class="st6" points="67.2,62 56.6,68 11.6,38.5 			"/>
			<polyline class="st6" points="67.2,64 56.6,70 11.6,40.5 			"/>
			<polyline class="st6" points="67.2,66 56.6,72.1 11.6,42.5 			"/>
			<polyline class="st6" points="67.2,68 56.6,74.1 11.6,44.6 			"/>
			<polyline class="st6" points="67.2,70.1 56.6,76.1 11.6,46.6 			"/>
			<g class="st7">
				<path class="st8" d="M16.2,55.3c0.5,0.4,0.5,0.7,0.1,1.1l-0.4-0.3c0.1-0.2,0.1-0.3-0.1-0.5c-0.3-0.2-0.9-0.2-1.3,0.1
					c-0.4,0.2-0.5,0.6-0.2,0.8c0.2,0.2,0.5,0.2,0.8,0.1l0.4,0.3C15,57,14.4,57,13.9,56.7c-0.6-0.4-0.5-1,0.2-1.4
					S15.6,54.9,16.2,55.3z"/>
			</g>
			<g class="st7">
				<path class="st8" d="M19.2,57.5l-1.4,1.9L17.3,59l0.3-0.4L16.9,58l-0.7,0.2l-0.4-0.3l3.1-0.7L19.2,57.5z M17.4,57.9l0.5,0.4
					l0.5-0.6L17.4,57.9z"/>
			</g>
			<g class="st7">
				<path class="st8" d="M20.8,58.6l1.8,1.3l-0.4,0.2l-0.7-0.5l-1.8,1.1l-0.4-0.3l1.8-1.1l-0.7-0.5L20.8,58.6z"/>
				<path class="st8" d="M25.6,61.9l-2.2,1.3l-0.4-0.3l0.9-0.5l-1-0.7L22,62.2l-0.4-0.3l2.2-1.3l0.4,0.3l-0.9,0.5l1,0.7l0.9-0.5
					L25.6,61.9z"/>
				<path class="st8" d="M28.3,63.8L27.9,64l-1-0.7l-0.5,0.3l0.9,0.6l-0.4,0.2L26,63.8l-0.5,0.3l1,0.7l-0.4,0.2l-1.5-1l2.2-1.3
					L28.3,63.8z"/>
				<path class="st8" d="M28.5,65.7l-0.8,0.5l-0.4-0.3l2.2-1.3l0.9,0.6c0.5,0.3,0.5,0.7,0,0.9c-0.4,0.2-0.8,0.2-1.1,0L29,67.1
					l-0.5-0.3l0.3-0.9L28.5,65.7z M28.9,65.5l0.4,0.3c0.2,0.2,0.5,0.2,0.6,0.1c0.2-0.1,0.2-0.3,0-0.4l-0.4-0.3L28.9,65.5z"/>
				<path class="st8" d="M30.5,68.2L30,67.9l2.2-1.3l0.4,0.3L30.5,68.2z"/>
				<path class="st8" d="M33.5,70.3L33.2,70l0.5-1.6l-1.5,0.9L31.7,69l2.2-1.3l0.4,0.3l-0.5,1.5l1.4-0.8l0.4,0.3L33.5,70.3z"/>
				<path class="st8" d="M38.5,70.9l-0.4,0.2l-1-0.7l-0.5,0.3l0.9,0.6l-0.4,0.2l-0.9-0.6l-0.5,0.3l1,0.7l-0.4,0.2l-1.5-1l2.2-1.3
					L38.5,70.9z"/>
				<path class="st8" d="M41.2,72.8l0.4,0.3l-1.8,1.1l1,0.7l-0.4,0.2l-1.4-1L41.2,72.8z"/>
			</g>
			<g class="st7">
				<path class="st8" d="M43.4,77.1L43,76.9l0.5-1.6L42,76.2l-0.4-0.3l2.2-1.3l0.4,0.3l-0.5,1.5l1.4-0.8l0.4,0.3L43.4,77.1z"/>
			</g>
			<polyline class="st9" points="67.2,47.9 56.6,53.9 11.6,24.4 			"/>
			<line class="st9" x1="56.6" y1="51.9" x2="56.6" y2="78"/>
			<line class="st9" x1="62" y1="74.3" x2="61.4" y2="74.7"/>
			<polyline class="st9" points="62,74.3 62.5,74.6 67.2,71.8 67.2,45.8 			"/>
			<polyline class="st9" points="67.2,45.8 56.6,51.9 11.6,22.3 			"/>
			<g>
				<defs>
					<rect id="SVGID_7_" x="7.6" y="5.9" width="60.9" height="74"/>
				</defs>
				<clipPath id="SVGID_8_">
					<use xlink:href="#SVGID_7_"  style="overflow:visible;"/>
				</clipPath>
				<g class="st10">
					<path class="st9" d="M62,74.3v-0.6c0-0.1,0-0.2-0.1-0.3"/>
					<path class="st9" d="M62.5,74.6v-0.8c0-0.2-0.2-0.5-0.6-0.2c-0.3,0.2-0.5,0.5-0.5,0.8v0.9L56.6,78l-6.3-4.4l-8-5.4l-6.7-4.6
						l-9.9-6.8L11.6,46.7V22.3l1-0.6"/>
				</g>
			</g>
			<line class="st9" x1="58.3" y1="46.9" x2="58.3" y2="45.8"/>
			<line class="st9" x1="18.1" y1="24.2" x2="18.1" y2="26"/>
			<line class="st9" x1="58.3" y1="46.9" x2="58.9" y2="47.3"/>
			<line class="st9" x1="58.3" y1="45.8" x2="58.9" y2="46.2"/>
			<line class="st9" x1="18.4" y1="13.5" x2="18.4" y2="12.1"/>
			<line class="st9" x1="18.4" y1="13.6" x2="18.4" y2="12"/>
			<line class="st9" x1="18.1" y1="22.9" x2="18.1" y2="19.6"/>
			<polyline class="st9" points="19.2,25.4 18.1,26 12.6,22.4 12.6,20.6 14.5,19.5 			"/>
			<polyline class="st9" points="18.4,17.7 21,16.2 21,12.9 21,12.8 19.8,12.1 			"/>
			<g>
				<defs>
					<rect id="SVGID_9_" x="7.6" y="5.9" width="60.9" height="74"/>
				</defs>
				<clipPath id="SVGID_10_">
					<use xlink:href="#SVGID_9_"  style="overflow:visible;"/>
				</clipPath>
				<g class="st11">
					<path class="st9" d="M17.9,15.2c0.2,0.6,0,1.1-0.4,1.1s-0.9-0.5-1.1-1.1s0-1.1,0.4-1.1S17.6,14.6,17.9,15.2z"/>
					<path class="st9" d="M18.9,15.3c-0.2,0.6,0,1.1,0.4,1.1s0.9-0.5,1.1-1.1s0-1.1-0.4-1.1S19.1,14.6,18.9,15.3z"/>
				</g>
			</g>
			<line class="st9" x1="18.1" y1="19.7" x2="22.3" y2="17.3"/>
			<line class="st9" x1="14.5" y1="17.3" x2="18.1" y2="19.7"/>
			<line class="st9" x1="12.6" y1="20.6" x2="18.1" y2="24.2"/>
			<polyline class="st9" points="21,16.1 21.2,16.2 21.2,17.3 21.2,17.4 18.4,19 18.4,18.9 18.4,14.4 			"/>
			<polyline class="st9" points="15.6,16.6 14.5,17.3 14.5,20.4 14.5,20.5 18.1,22.8 			"/>
			<polyline class="st9" points="22.4,18.9 24.6,20.4 24.6,21.5 			"/>
			<line class="st9" x1="18.3" y1="14.5" x2="21" y2="12.9"/>
			<line class="st9" x1="15.9" y1="12.8" x2="16.9" y2="12.2"/>
			<line class="st9" x1="15.9" y1="12.8" x2="18.4" y2="14.5"/>
			<polyline class="st9" points="21.2,16.5 22.4,17.3 22.4,17.3 22.4,20.4 22.3,20.4 18.1,22.9 			"/>
			<line class="st9" x1="17" y1="11.2" x2="18.4" y2="12.1"/>
			<line class="st9" x1="19.1" y1="10.7" x2="19.8" y2="11.2"/>
			<g>
				<defs>
					<rect id="SVGID_11_" x="7.6" y="5.9" width="60.9" height="74"/>
				</defs>
				<clipPath id="SVGID_12_">
					<use xlink:href="#SVGID_11_"  style="overflow:visible;"/>
				</clipPath>
				<g class="st12">
					<path class="st9" d="M17.1,9.5c0,0.1-0.1,0.2-0.1,0.2L17,10c0.1,0.1,0.4,0.2,0.9,0.1s1.7-0.7,1.8-1.4l-0.2-0.3
						c-0.1,0-0.2,0-0.4,0"/>
				</g>
			</g>
			<polyline class="st9" points="17.6,7.3 18.3,7.7 18.5,7.6 19.1,6.8 			"/>
			<g>
				<defs>
					<rect id="SVGID_13_" x="7.6" y="5.9" width="60.9" height="74"/>
				</defs>
				<clipPath id="SVGID_14_">
					<use xlink:href="#SVGID_13_"  style="overflow:visible;"/>
				</clipPath>
				<g class="st13">
					<path class="st9" d="M19.6,9c0,0.2,0,0.4,0,0.5c-0.1,0.7-0.8,1.1-1.5,1c-0.3-0.1-0.5-0.2-0.7-0.4l0,0"/>
					<path class="st9" d="M17.2,9.8c0-0.1-0.1-0.2-0.1-0.3c-0.1-0.7,0.4-1.3,1-1.4c0,0,0,0,0,0c0.4-0.1,0.8,0.1,1.1,0.4
						c0.1,0.1,0.2,0.2,0.2,0.3"/>
					<path class="st9" d="M19.3,10.9c0,0,0-0.1,0-0.1c0,0,0-0.1-0.1-0.1c-0.1,0-0.1,0-0.2,0c0,0,0,0,0-0.1l0,0l0.1-0.3"/>
					<path class="st9" d="M18.7,10.9c0,0.1,0,0.1,0,0.1s0.1,0.1,0.2,0"/>
				</g>
			</g>
			<polyline class="st9" points="18,11.4 18,11.2 18.1,11 18.1,10.9 17.8,10.8 17.5,10.7 17.7,10.3 			"/>
			<line class="st9" x1="15.9" y1="16.1" x2="18.4" y2="17.8"/>
			<polyline class="st9" points="18.4,19 15.6,17.3 15.6,17.2 15.6,16.3 15.6,16.3 15.9,16.1 15.9,16.1 15.9,12.8 			"/>
			<polyline class="st9" points="17.7,10.7 16.9,11.2 16.9,11.2 16.9,12.6 18.4,13.6 18.4,13.6 19.8,12.8 19.8,11.3 19.8,11.2 
				18.4,12.1 			"/>
			<line class="st9" x1="42.4" y1="37.5" x2="51.3" y2="43.2"/>
			<polyline class="st9" points="62.8,45 60.8,46.1 58.9,44.9 			"/>
			<line class="st9" x1="60.8" y1="49" x2="60.8" y2="46.1"/>
			<polyline class="st9" points="58.9,45.5 54.8,47.9 19.2,25.2 			"/>
			<line class="st6" x1="67.3" y1="45.8" x2="24.6" y2="21.1"/>
			<line class="st6" x1="52.6" y1="37.8" x2="27.3" y2="23.2"/>
			<line class="st9" x1="54.8" y1="49" x2="54.8" y2="47.9"/>
			<line class="st9" x1="51.3" y1="44.5" x2="51.3" y2="43.2"/>
			<polygon class="st9" points="56.7,40.1 56.7,41.4 51.3,44.5 42.4,38.8 42.4,37.6 46.3,35.2 51.6,38.4 52.7,37.8 			"/>
			<line class="st9" x1="56.7" y1="40.1" x2="51.3" y2="43.2"/>
			<line class="st9" x1="27.3" y1="23.1" x2="23.5" y2="25.4"/>
			<polygon class="st9" points="20.2,24.6 20.2,23.3 20.2,23.3 23.9,21.1 27.3,23.1 27.3,24.2 27.3,24.3 23.5,26.6 			"/>
			<polyline class="st9" points="58.3,46.9 54.8,49 19.2,26.3 19.2,26.3 19.2,25.2 20.2,24.6 			"/>
			<line class="st9" x1="23.5" y1="25.4" x2="20.2" y2="23.3"/>
			<line class="st9" x1="23.5" y1="26.6" x2="23.5" y2="25.4"/>
			<polyline class="st9" points="62.1,44.5 62.4,44.3 62.4,43.5 56.7,40.2 			"/>
			<line class="st9" x1="62.4" y1="43.5" x2="61.9" y2="43.8"/>
			<line class="st9" x1="24.6" y1="20.4" x2="18.1" y2="24.2"/>
			<polyline class="st9" points="60,44.3 58.9,44.9 58.9,47.8 60.8,49 62.8,47.8 62.8,45 62,44.4 			"/>
			<g>
				<defs>
					<rect id="SVGID_15_" x="7.6" y="5.9" width="60.9" height="74"/>
				</defs>
				<clipPath id="SVGID_16_">
					<use xlink:href="#SVGID_15_"  style="overflow:visible;"/>
				</clipPath>
				<g class="st14">
					<path class="st9" d="M60.8,43.2c-0.5,0.1-0.8,0.6-0.8,1.1V45c0,0.3,0.5,0.5,1,0.5s1-0.2,1-0.5v-0.8c0-0.5-0.4-1-0.9-1.1v-0.1
						c0,0-0.1-0.1-0.2-0.1s-0.2,0.1-0.2,0.1L60.8,43.2z"/>
				</g>
			</g>
			<polygon class="st2" points="44.3,64 40.7,61.5 40.7,59.6 44.3,62 			"/>
			<polygon class="st2" points="44.3,62 40.7,59.6 40.7,57.5 44.3,60 			"/>
			<polygon class="st2" points="44.3,59.9 40.7,57.5 40.7,55.6 44.3,58 			"/>
			<polygon class="st2" points="44.3,57.9 40.7,55.5 40.7,53.6 44.3,55.9 			"/>
			<polygon class="st2" points="44.3,55.9 40.7,53.5 40.7,51.6 44.3,53.9 			"/>
			<polygon class="st2" points="44.3,53.9 40.7,51.5 40.7,49.5 44.3,51.9 			"/>
			<polygon class="st2" points="44.3,51.8 40.7,49.5 40.7,47.5 44.3,49.9 			"/>
			<polygon class="st2" points="44.3,49.8 40.7,47.4 40.7,45.5 44.3,47.9 			"/>
			<line class="st15" x1="40.7" y1="47.5" x2="44.3" y2="49.9"/>
			<line class="st15" x1="40.7" y1="49.5" x2="44.3" y2="51.9"/>
			<line class="st15" x1="40.7" y1="51.5" x2="44.3" y2="53.9"/>
			<line class="st15" x1="40.7" y1="53.5" x2="44.3" y2="55.9"/>
			<line class="st15" x1="40.7" y1="55.5" x2="44.3" y2="58"/>
			<line class="st15" x1="40.7" y1="57.6" x2="44.3" y2="60"/>
			<line class="st15" x1="40.7" y1="59.6" x2="44.3" y2="62"/>
		</g>
	</g>
</g>
</svg>
