<?xml version="1.0" encoding="utf-8"?>
<!-- Generator: Adobe Illustrator 23.0.0, SVG Export Plug-In . SVG Version: 6.00 Build 0)  -->
<svg version="1.1" id="Layer_1" xmlns="http://www.w3.org/2000/svg" xmlns:xlink="http://www.w3.org/1999/xlink" x="0px" y="0px"
	 viewBox="0 0 123.3 164.8" style="enable-background:new 0 0 123.3 164.8;" xml:space="preserve">
<style type="text/css">
	.st0{fill:#D2D3D4;}
	.st1{clip-path:url(#SVGID_2_);}
	.st2{fill:#231F20;}
	.st3{clip-path:url(#SVGID_4_);}
	.st4{fill:none;stroke:#D1D3D4;stroke-width:1.09;stroke-miterlimit:10;}
	.st5{clip-path:url(#SVGID_6_);}
	.st6{fill:none;stroke:#231F20;stroke-width:0.15;stroke-miterlimit:10;}
	.st7{enable-background:new    ;}
	.st8{fill:#D1D3D4;}
	.st9{fill:none;stroke:#231F20;stroke-width:0.14;stroke-miterlimit:10;}
	.st10{clip-path:url(#SVGID_8_);}
	.st11{clip-path:url(#SVGID_10_);}
	.st12{clip-path:url(#SVGID_12_);}
	.st13{clip-path:url(#SVGID_14_);}
	.st14{clip-path:url(#SVGID_16_);}
</style>
<title>residence_P_5_key</title>
<g>
	<path class="st0" d="M14.3,117.1c-0.6,0-1-0.4-1-1.1v-1.4h3.4v1.3c0,0.7-0.3,1.1-0.9,1.1c-0.3,0-0.6-0.2-0.7-0.4
		C14.9,116.9,14.6,117.1,14.3,117.1z M13.9,115.2v0.7c0,0.3,0.2,0.5,0.4,0.5s0.4-0.2,0.4-0.5v-0.7H13.9z M15.3,115.8
		c0,0.3,0.1,0.5,0.4,0.5s0.4-0.2,0.4-0.5v-0.6h-0.8L15.3,115.8z"/>
	<path class="st0" d="M14.6,119.5h-1.3v-0.7h3.4v1.4c0.1,0.5-0.3,1.1-0.8,1.2c-0.1,0-0.2,0-0.3,0c-0.5,0-0.9-0.3-1-0.8l-1.3,0.9
		v-0.8l1.3-0.8L14.6,119.5z M15.1,119.5v0.7c0,0.3,0.2,0.5,0.5,0.5s0.5-0.2,0.5-0.5v-0.7H15.1z"/>
	<path class="st0" d="M13.3,124.6c0-0.9,0.8-1.6,1.7-1.6c0,0,0.1,0,0.1,0c0.9-0.1,1.7,0.6,1.7,1.5c0.1,0.9-0.6,1.7-1.5,1.7
		c-0.1,0-0.2,0-0.3,0c-0.9,0.1-1.7-0.6-1.7-1.5C13.3,124.7,13.3,124.6,13.3,124.6z M16.1,124.6c0-0.5-0.4-0.9-1.1-0.9
		s-1.1,0.3-1.1,0.9s0.5,0.9,1.1,0.9S16.1,125.1,16.1,124.6z"/>
	<path class="st0" d="M16.7,129.4l-3.4,1.3V130l0.8-0.3v-1.3l-0.8-0.3v-0.7l3.4,1.3V129.4z M14.7,128.7v0.8l1.1-0.4L14.7,128.7z"/>
	<path class="st0" d="M16.7,132.4v1.2c0.1,0.9-0.6,1.6-1.5,1.7c-0.1,0-0.2,0-0.2,0c-0.9,0.1-1.6-0.6-1.7-1.4c0-0.1,0-0.2,0-0.2v-1.2
		H16.7z M13.9,133.5c0,0.6,0.4,1,1,1c0,0,0,0,0.1,0c0.6,0,1-0.4,1.1-0.9c0,0,0,0,0-0.1v-0.5h-2.1V133.5z"/>
	<path class="st0" d="M16.7,139l-2.3,0.6l2.3,0.6v0.7l-3.4-0.8v-0.6l2.2-0.6l-2.2-0.6v-0.6l3.4-0.9v0.7l-2.3,0.6l2.3,0.6L16.7,139z"
		/>
	<path class="st0" d="M16.7,144l-3.4,1.3v-0.7l0.8-0.3V143l-0.8-0.3V142l3.4,1.3V144z M14.7,143.2v0.8l1.1-0.4L14.7,143.2z"/>
	<path class="st0" d="M16.7,148.6v0.8l-2.1-1.2h-1.3v-0.7h1.3l2.1-1.2v0.8l-1.4,0.8L16.7,148.6z"/>
	<path class="st0" d="M111.7,108.4v0.7h-2.8v1.6h-0.6v-2.3H111.7z"/>
	<path class="st0" d="M111.7,114.1l-3.4,1.3v-0.7l0.8-0.3v-1.3l-0.8-0.3v-0.7l3.4,1.3V114.1z M109.7,113.4v0.8l1.1-0.4L109.7,113.4z
		"/>
	<path class="st0" d="M108.3,117h3.4v2.2h-0.6v-1.5h-0.9v1.4h-0.6v-1.4h-1.3V117z"/>
	<path class="st0" d="M111.7,122.5l-3.4,1.3v-0.7l0.8-0.3v-1.3l-0.8-0.3v-0.7l3.4,1.3V122.5z M109.7,121.8v0.8l1.1-0.4L109.7,121.8z
		"/>
	<path class="st0" d="M111.7,127.2v0.7l-2.1-1.2h-1.3V126h1.3l2.1-1.2v0.8l-1.4,0.8L111.7,127.2z"/>
	<path class="st0" d="M111.7,131.8h-0.6v-1.6h-0.7v1.4h-0.6v-1.4h-0.8v1.6h-0.6v-2.3h3.4V131.8z"/>
	<path class="st0" d="M111.7,133.4v2.9h-0.6v-1.1h-2.8v-0.7h2.8v-1.1L111.7,133.4z"/>
	<path class="st0" d="M111.7,137.8v2.9h-0.6v-1.1h-2.8v-0.7h2.8v-1.1H111.7z"/>
	<path class="st0" d="M111.7,144.6h-0.6V143h-0.7v1.4h-0.6V143h-0.8v1.6h-0.6v-2.3h3.4V144.6z"/>
	<path class="st0" d="M109.2,149.2c-0.3,0.1-0.5,0.4-0.4,0.7c0,0.4,0.2,0.6,0.4,0.6s0.3-0.1,0.4-0.4l0.1-0.6c0-0.5,0.4-0.9,0.9-0.9
		c0.6,0,1,0.6,1,1.1c0,0,0,0,0,0.1c0.1,0.6-0.4,1.2-1,1.3v-0.7c0.3-0.1,0.4-0.3,0.4-0.6c0-0.3-0.2-0.5-0.4-0.5s-0.3,0.1-0.4,0.4
		l-0.1,0.6c-0.1,0.6-0.4,0.9-1,0.9s-1-0.5-1-1.2c-0.1-0.7,0.4-1.3,1-1.4L109.2,149.2L109.2,149.2z"/>
	<path class="st0" d="M111.7,152.6v2.9h-0.6v-1.1h-2.8v-0.7h2.8v-1.1L111.7,152.6z"/>
	<path class="st0" d="M43.1,112.6h0.7v2.8h1.6v0.6h-2.3V112.6z"/>
	<path class="st0" d="M49.3,112.6v0.6h-1.6v0.8h1.5v0.6h-1.5v0.8h1.6v0.6H47v-3.4L49.3,112.6z"/>
	<path class="st0" d="M52.4,116c-1,0.1-1.8-0.7-1.9-1.6c-0.1-1,0.7-1.8,1.6-1.9s1.8,0.7,1.9,1.6c0,0.1,0,0.1,0,0.2
		c0,0.9-0.6,1.6-1.5,1.7C52.4,116,52.4,116,52.4,116z M52.4,113.2c-0.5,0-0.9,0.4-0.9,1.1s0.3,1.1,0.9,1.1s0.9-0.5,0.9-1.1
		S52.9,113.2,52.4,113.2L52.4,113.2z"/>
	<path class="st0" d="M58.4,116h-0.6l-1.6-2.2v2.2h-0.7v-3.4h0.7l1.5,2.1v-2.1h0.7V116z"/>
	<path class="st0" d="M61.9,112.6l1.3,3.4h-0.7l-0.3-0.8h-1.3l-0.3,0.8h-0.7l1.3-3.4L61.9,112.6z M61.1,114.6h0.8l-0.4-1.1
		L61.1,114.6z"/>
	<path class="st0" d="M65.4,114.7v1.3h-0.7v-3.4h1.4c0.5-0.1,1.1,0.2,1.2,0.8c0,0.1,0,0.2,0,0.3c0,0.5-0.3,0.9-0.8,1l0.9,1.3h-0.8
		l-0.8-1.3L65.4,114.7z M65.4,114.2H66c0.3,0,0.5-0.2,0.5-0.5s-0.2-0.5-0.5-0.5h-0.7L65.4,114.2z"/>
	<path class="st0" d="M68.9,112.6h1.2c0.9,0.1,1.6,0.9,1.6,1.8c-0.1,0.8-0.7,1.5-1.6,1.6h-1.2V112.6z M70,115.4
		c0.6,0,1.1-0.5,1.1-1.1c0-0.6-0.5-1.1-1.1-1.1h-0.5v2.1H70z"/>
	<path class="st0" d="M76.1,115c0.1,0.3,0.4,0.5,0.7,0.4c0.3,0,0.6-0.2,0.6-0.4s-0.1-0.3-0.4-0.4l-0.6-0.1c-0.5-0.1-0.8-0.4-0.8-0.9
		c0-0.6,0.6-1,1.2-1c0,0,0,0,0,0c0.6-0.1,1.2,0.4,1.3,1h-0.7c-0.1-0.3-0.3-0.4-0.6-0.4c-0.3,0-0.5,0.2-0.5,0.4s0.1,0.3,0.4,0.4
		l0.6,0.2c0.5,0.1,0.9,0.5,0.9,1c-0.1,0.6-0.6,1.1-1.2,1c0,0,0,0,0,0c-0.7,0.1-1.3-0.4-1.4-1L76.1,115z"/>
	<path class="st0" d="M79.4,112.6h2.9v0.6h-1.1v2.8h-0.7v-2.8h-1.1V112.6z"/>
	<path class="st0" d="M40.6,147.9c0.7,0,1.3,0.4,1.4,1.1h-0.7c-0.1-0.3-0.4-0.5-0.7-0.5c-0.5,0-0.8,0.5-0.8,1.1s0.3,1.1,0.8,1.1
		c0.3,0,0.6-0.2,0.7-0.5H42c-0.1,0.7-0.7,1.2-1.4,1.1c-1-0.1-1.7-1-1.6-1.9C39.2,148.6,39.8,147.9,40.6,147.9z"/>
	<path class="st0" d="M45.4,147.9l1.3,3.4H46l-0.3-0.8h-1.3l-0.3,0.8h-0.7l1.3-3.4H45.4z M44.6,149.9h0.8l-0.4-1.2L44.6,149.9z"/>
	<path class="st0" d="M47.8,147.9h2.9v0.6h-1.1v2.8h-0.7v-2.8h-1.1V147.9z"/>
	<path class="st0" d="M55.2,147.9v3.4h-0.7v-1.4H53v1.4h-0.7v-3.4H53v1.3h1.5v-1.3H55.2z"/>
	<path class="st0" d="M59.4,147.9v0.6h-1.6v0.7h1.5v0.6h-1.5v0.8h1.6v0.6h-2.3v-3.4L59.4,147.9z"/>
	<path class="st0" d="M61.8,150v1.3h-0.7v-3.4h1.4c0.5-0.1,1.1,0.3,1.2,0.8c0,0.1,0,0.2,0,0.3c0,0.5-0.3,0.9-0.8,1l0.9,1.3H63
		l-0.8-1.3H61.8z M61.8,149.4h0.6c0.4,0,0.5-0.2,0.5-0.5s-0.2-0.5-0.5-0.5h-0.6V149.4z"/>
	<path class="st0" d="M66.2,151.3h-0.7v-3.4h0.7V151.3z"/>
	<path class="st0" d="M70.8,151.3h-0.6l-1.6-2.3v2.2H68v-3.4h0.7l1.5,2.1v-2.1h0.7V151.3z"/>
	<path class="st0" d="M75,147.9v0.6h-1.6v0.7h1.4v0.6h-1.5v0.8H75v0.6h-2.3v-3.4L75,147.9z"/>
	<path class="st0" d="M79.1,147.9h0.7v2.8h1.6v0.6h-2.3V147.9z"/>
	<path class="st0" d="M85.9,151.3h-0.6l-1.6-2.3v2.2h-0.7v-3.4h0.7l1.5,2.1v-2.1h0.7V151.3L85.9,151.3z"/>
</g>
<g id="Layer_4">
	<g>
		<defs>
			<rect id="SVGID_1_" x="23.3" y="124.1" width="76.8" height="17.3"/>
		</defs>
		<clipPath id="SVGID_2_">
			<use xlink:href="#SVGID_1_"  style="overflow:visible;"/>
		</clipPath>
		<g class="st1">
			<polygon class="st2" points="88.7,135 93.8,135 93.8,133.6 94.9,133.6 94.9,131.9 98.2,131.9 98.2,140.5 89.5,140 89.5,139.8 
				89.2,139.8 89.2,137.3 88.1,137.3 88.1,135.3 88.7,135.3 			"/>
			<g>
				<defs>
					<rect id="SVGID_3_" x="23.3" y="124.1" width="76.8" height="17.3"/>
				</defs>
				<clipPath id="SVGID_4_">
					<use xlink:href="#SVGID_3_"  style="overflow:visible;"/>
				</clipPath>
				<g class="st3">
					<polygon class="st4" points="98.2,125.2 98.2,140.3 24.2,135.7 24.2,125.2 					"/>
				</g>
			</g>
		</g>
	</g>
	<g>
		<defs>
			<rect id="SVGID_5_" x="21.3" y="8.1" width="68.6" height="82.7"/>
		</defs>
		<clipPath id="SVGID_6_">
			<use xlink:href="#SVGID_5_"  style="overflow:visible;"/>
		</clipPath>
		<g class="st5">
			<polyline class="st6" points="88.6,56.7 76.7,63.4 26.8,30.6 			"/>
			<polyline class="st6" points="88.6,58.9 76.7,65.6 26.8,32.8 			"/>
			<polyline class="st6" points="88.6,61.2 76.7,67.9 26.8,35.1 			"/>
			<polyline class="st6" points="88.6,63.4 76.7,70.1 26.8,37.3 			"/>
			<polyline class="st6" points="88.6,65.6 76.7,72.3 26.8,39.5 			"/>
			<polyline class="st6" points="88.6,67.9 76.7,74.6 26.8,41.8 			"/>
			<polyline class="st6" points="88.6,70.1 76.7,76.8 26.8,44 			"/>
			<polyline class="st6" points="88.6,72.4 76.7,79.1 26.8,46.3 			"/>
			<polyline class="st6" points="88.6,74.6 76.7,81.3 26.8,48.5 			"/>
			<polyline class="st6" points="88.6,76.8 76.7,83.6 26.8,50.8 			"/>
			<polyline class="st6" points="88.6,79.1 76.7,85.8 26.8,53 			"/>
			<g class="st7">
				<path class="st8" d="M31.8,62.7c0.6,0.4,0.6,0.8,0.1,1.2l-0.5-0.3c0.1-0.2,0.2-0.4-0.1-0.6c-0.4-0.3-1-0.2-1.4,0.1
					c-0.5,0.3-0.6,0.6-0.2,0.9c0.3,0.2,0.6,0.2,0.9,0.1l0.5,0.3c-0.6,0.2-1.3,0.2-1.8-0.2c-0.6-0.4-0.6-1.1,0.2-1.5
					C30.2,62.3,31.2,62.3,31.8,62.7z"/>
			</g>
			<g class="st7">
				<path class="st8" d="M35.2,65.1l-1.6,2.1l-0.5-0.4l0.4-0.5l-0.9-0.6l-0.8,0.2l-0.5-0.3l3.4-0.8L35.2,65.1z M33.2,65.6l0.6,0.4
					l0.5-0.7L33.2,65.6z"/>
			</g>
			<g class="st7">
				<path class="st8" d="M36.9,66.3l2,1.4L38.5,68l-0.8-0.5l-2,1.2l-0.5-0.3l2-1.2l-0.8-0.5L36.9,66.3z"/>
				<path class="st8" d="M42.3,70.1l-2.5,1.5l-0.5-0.3l1-0.6l-1.1-0.7l-1,0.6l-0.5-0.3l2.5-1.5l0.5,0.3l-1,0.6l1.1,0.7l1-0.6
					L42.3,70.1z"/>
				<path class="st8" d="M45.3,72.1l-0.5,0.3l-1.1-0.8l-0.5,0.3l1,0.7l-0.4,0.3l-1-0.7l-0.6,0.3l1.1,0.8l-0.5,0.3l-1.6-1.1l2.5-1.5
					L45.3,72.1z"/>
				<path class="st8" d="M45.5,74.3l-0.9,0.5l-0.5-0.3l2.5-1.5l1,0.7c0.5,0.3,0.6,0.7,0,1c-0.4,0.2-0.9,0.2-1.3,0.1l-0.3,1l-0.6-0.4
					l0.3-0.9L45.5,74.3z M45.9,74.1l0.5,0.3c0.2,0.2,0.5,0.2,0.7,0.1c0.2-0.1,0.2-0.3,0-0.5l-0.5-0.3L45.9,74.1z"/>
				<path class="st8" d="M47.7,77l-0.5-0.3l2.5-1.5l0.5,0.3L47.7,77z"/>
				<path class="st8" d="M51,79.4l-0.4-0.3l0.5-1.7l-1.7,1L49.1,78l2.5-1.5l0.5,0.3l-0.5,1.6l1.6-0.9l0.5,0.3L51,79.4z"/>
				<path class="st8" d="M56.5,80l-0.5,0.3L55,79.5l-0.5,0.3l1,0.7L55,80.8L54,80l-0.6,0.3l1.1,0.8L54,81.4l-1.6-1.1l2.5-1.5
					L56.5,80z"/>
				<path class="st8" d="M59.6,82.1l0.5,0.3l-2,1.2l1.1,0.8l-0.5,0.3l-1.6-1.1L59.6,82.1z"/>
			</g>
			<g class="st7">
				<path class="st8" d="M61.9,86.9l-0.4-0.3l0.5-1.7l-1.7,1L60,85.5l2.5-1.5l0.5,0.3l-0.5,1.6l1.6-0.9l0.5,0.3L61.9,86.9z"/>
			</g>
			<polyline class="st9" points="88.6,54.4 76.7,61.1 26.8,28.3 			"/>
			<line class="st9" x1="76.7" y1="58.9" x2="76.7" y2="87.9"/>
			<line class="st9" x1="82.8" y1="83.8" x2="82" y2="84.3"/>
			<polyline class="st9" points="82.8,83.8 83.2,84.1 88.6,81 88.6,52.2 			"/>
			<polyline class="st9" points="88.6,52.2 76.7,58.9 26.8,26 			"/>
			<g>
				<defs>
					<rect id="SVGID_7_" x="21.3" y="8.1" width="68.6" height="82.7"/>
				</defs>
				<clipPath id="SVGID_8_">
					<use xlink:href="#SVGID_7_"  style="overflow:visible;"/>
				</clipPath>
				<g class="st10">
					<path class="st9" d="M82.8,83.8v-0.6c0-0.1,0-0.2-0.1-0.3"/>
					<path class="st9" d="M83.2,84.1v-0.9c0-0.2-0.2-0.5-0.6-0.3c-0.3,0.2-0.5,0.5-0.6,0.9v1l-5.3,3.2l-7-4.8l-8.8-6L53.4,72
						l-11-7.6L26.8,53.1v-27l1.1-0.6"/>
				</g>
			</g>
			<line class="st9" x1="78.6" y1="53.3" x2="78.6" y2="52.2"/>
			<line class="st9" x1="33.9" y1="28.2" x2="33.9" y2="30.2"/>
			<line class="st9" x1="78.6" y1="53.3" x2="79.2" y2="53.8"/>
			<line class="st9" x1="78.6" y1="52.2" x2="79.2" y2="52.6"/>
			<line class="st9" x1="34.3" y1="16.2" x2="34.3" y2="14.7"/>
			<line class="st9" x1="34.3" y1="16.3" x2="34.3" y2="14.6"/>
			<line class="st9" x1="34" y1="26.6" x2="34" y2="23.1"/>
			<polyline class="st9" points="35.1,29.5 33.9,30.2 27.9,26.2 27.9,24.2 30,23 			"/>
			<polyline class="st9" points="34.2,21 37.1,19.3 37.1,15.5 37.1,15.5 35.8,14.6 			"/>
			<g>
				<defs>
					<rect id="SVGID_9_" x="21.3" y="8.1" width="68.6" height="82.7"/>
				</defs>
				<clipPath id="SVGID_10_">
					<use xlink:href="#SVGID_9_"  style="overflow:visible;"/>
				</clipPath>
				<g class="st11">
					<path class="st9" d="M33.7,18.2c0.2,0.7,0,1.2-0.4,1.2s-1-0.5-1.3-1.2s0-1.2,0.4-1.2S33.4,17.5,33.7,18.2z"/>
					<path class="st9" d="M34.9,18.2c-0.2,0.7,0,1.2,0.4,1.2s1-0.5,1.3-1.2s0-1.2-0.4-1.2S35.1,17.5,34.9,18.2z"/>
				</g>
			</g>
			<line class="st9" x1="34" y1="23.1" x2="38.6" y2="20.4"/>
			<line class="st9" x1="30" y1="20.4" x2="34" y2="23.1"/>
			<line class="st9" x1="27.9" y1="24.2" x2="33.9" y2="28.2"/>
			<polyline class="st9" points="37.1,19.1 37.4,19.2 37.4,20.5 37.4,20.5 34.2,22.4 34.2,22.3 34.2,17.3 			"/>
			<polyline class="st9" points="31.2,19.7 30,20.5 30,23.9 30,24 33.9,26.6 			"/>
			<polyline class="st9" points="38.7,22.2 41.2,23.9 41.2,25.2 			"/>
			<line class="st9" x1="34.2" y1="17.3" x2="37.1" y2="15.5"/>
			<line class="st9" x1="31.5" y1="15.5" x2="32.7" y2="14.8"/>
			<line class="st9" x1="31.5" y1="15.5" x2="34.2" y2="17.4"/>
			<polyline class="st9" points="37.4,19.6 38.7,20.4 38.7,20.4 38.7,23.9 38.6,23.9 33.9,26.7 			"/>
			<line class="st9" x1="32.7" y1="13.6" x2="34.3" y2="14.7"/>
			<line class="st9" x1="35.1" y1="13.1" x2="35.9" y2="13.7"/>
			<g>
				<defs>
					<rect id="SVGID_11_" x="21.3" y="8.1" width="68.6" height="82.7"/>
				</defs>
				<clipPath id="SVGID_12_">
					<use xlink:href="#SVGID_11_"  style="overflow:visible;"/>
				</clipPath>
				<g class="st12">
					<path class="st9" d="M32.8,11.8c0,0.1-0.2,0.2-0.2,0.2l0.1,0.2c0.1,0.1,0.5,0.2,1,0.1s1.8-0.8,2-1.5l-0.2-0.4
						c-0.1,0-0.3,0-0.4,0"/>
				</g>
			</g>
			<polyline class="st9" points="33.3,9.3 34.2,9.8 34.4,9.6 35,8.8 			"/>
			<g>
				<defs>
					<rect id="SVGID_13_" x="21.3" y="8.1" width="68.6" height="82.7"/>
				</defs>
				<clipPath id="SVGID_14_">
					<use xlink:href="#SVGID_13_"  style="overflow:visible;"/>
				</clipPath>
				<g class="st13">
					<path class="st9" d="M35.6,11.2c0,0.2,0,0.4,0,0.6c-0.2,0.8-0.9,1.3-1.7,1.1c-0.3-0.1-0.6-0.2-0.8-0.4l-0.1-0.1"/>
					<path class="st9" d="M32.9,12.1c0-0.1-0.1-0.2-0.1-0.4c-0.1-0.8,0.4-1.5,1.2-1.6c0.5-0.1,0.9,0.1,1.2,0.4
						c0.1,0.1,0.2,0.2,0.2,0.3"/>
					<path class="st9" d="M35.2,13.3c0,0,0-0.1,0-0.1c0,0,0,0-0.1-0.1c-0.1,0-0.2,0-0.2,0.1c0,0,0-0.1,0-0.1l0,0l0.1-0.3"/>
					<path class="st9" d="M34.6,13.3c0,0.1,0,0.1,0.1,0.2s0.2,0.1,0.3,0"/>
				</g>
			</g>
			<polyline class="st9" points="33.8,13.9 33.8,13.7 34,13.4 34,13.3 33.6,13.3 33.3,13.1 33.4,12.7 			"/>
			<line class="st9" x1="31.5" y1="19.1" x2="34.2" y2="21"/>
			<polyline class="st9" points="34.2,22.4 31.2,20.4 31.1,20.4 31.1,19.4 31.1,19.3 31.5,19.1 31.5,19.1 31.5,15.5 			"/>
			<polyline class="st9" points="33.5,13.1 32.6,13.6 32.6,13.7 32.6,15.3 34.2,16.3 34.3,16.3 35.8,15.4 35.8,13.8 35.8,13.7 
				34.3,14.7 			"/>
			<line class="st9" x1="60.9" y1="43" x2="70.8" y2="49.3"/>
			<polyline class="st9" points="83.7,51.2 81.4,52.5 79.2,51.1 			"/>
			<line class="st9" x1="81.4" y1="55.7" x2="81.4" y2="52.5"/>
			<polyline class="st9" points="79.2,51.8 74.7,54.5 35.1,29.2 			"/>
			<line class="st6" x1="88.6" y1="52.2" x2="41.2" y2="24.7"/>
			<line class="st6" x1="72.3" y1="43.3" x2="44.2" y2="27"/>
			<line class="st9" x1="74.7" y1="55.6" x2="74.7" y2="54.5"/>
			<line class="st9" x1="70.8" y1="50.7" x2="70.8" y2="49.3"/>
			<polygon class="st9" points="76.8,45.8 76.8,47.2 70.9,50.7 60.9,44.3 60.9,43 65.3,40.4 71.2,43.9 72.4,43.2 			"/>
			<line class="st9" x1="76.8" y1="45.8" x2="70.8" y2="49.3"/>
			<line class="st9" x1="44.2" y1="27" x2="39.9" y2="29.5"/>
			<polygon class="st9" points="36.3,28.5 36.3,27.1 36.3,27.1 40.4,24.7 44.2,27 44.2,28.2 44.2,28.2 39.9,30.8 			"/>
			<polyline class="st9" points="78.6,53.3 74.7,55.6 35.1,30.4 35.1,30.4 35.1,29.2 36.3,28.6 			"/>
			<line class="st9" x1="39.9" y1="29.4" x2="36.3" y2="27.2"/>
			<line class="st9" x1="39.9" y1="30.8" x2="39.9" y2="29.4"/>
			<polyline class="st9" points="82.8,50.7 83.1,50.5 83.1,49.6 76.8,45.9 			"/>
			<line class="st9" x1="83.1" y1="49.5" x2="82.6" y2="49.8"/>
			<line class="st9" x1="41.2" y1="23.9" x2="33.9" y2="28.2"/>
			<polyline class="st9" points="80.4,50.4 79.2,51.1 79.2,54.3 81.4,55.7 83.7,54.4 83.7,51.2 82.8,50.6 			"/>
			<g>
				<defs>
					<rect id="SVGID_15_" x="21.3" y="8.1" width="68.6" height="82.7"/>
				</defs>
				<clipPath id="SVGID_16_">
					<use xlink:href="#SVGID_15_"  style="overflow:visible;"/>
				</clipPath>
				<g class="st14">
					<path class="st9" d="M81.4,49.2c-0.6,0.1-1,0.6-1,1.2v0.8c0,0.3,0.5,0.6,1.2,0.6s1.2-0.3,1.2-0.6v-0.8c0-0.6-0.4-1.1-1-1.2
						v-0.1c0-0.1-0.1-0.1-0.2-0.1s-0.2,0.1-0.2,0.1L81.4,49.2z"/>
				</g>
			</g>
			<polygon class="st2" points="76.7,79.1 70,74.7 70,72.5 76.7,76.8 			"/>
			<polygon class="st2" points="84.3,74.8 76.7,79.1 76.7,76.8 84.3,72.5 			"/>
		</g>
	</g>
</g>
</svg>
