<svg id="Layer_1" data-name="Layer 1" xmlns="http://www.w3.org/2000/svg" xmlns:xlink="http://www.w3.org/1999/xlink" viewBox="0 0 189.94 92.56"><defs><style>.cls-1,.cls-10,.cls-15,.cls-2,.cls-3{fill:none;}.cls-2,.cls-3{stroke:#231f20;}.cls-10,.cls-15,.cls-2,.cls-3{stroke-miterlimit:10;}.cls-10,.cls-2{stroke-width:0.15px;}.cls-3{stroke-width:0.14px;}.cls-4{clip-path:url(#clip-path);}.cls-5{font-size:5.09px;fill:#d1d3d4;font-family:Calibre-Semibold, Calibre;font-weight:700;}.cls-6{letter-spacing:0.22em;}.cls-7{letter-spacing:0.18em;}.cls-8{letter-spacing:0.24em;}.cls-9{fill:#231f20;}.cls-10{stroke:#fff;}.cls-11{fill:#d2d3d4;}.cls-12{clip-path:url(#clip-path-5);}.cls-13{fill:#010101;}.cls-14{opacity:0.5;}.cls-15{stroke:#d0d2d3;stroke-width:1.09px;}</style><clipPath id="clip-path"><rect class="cls-1" x="2.88" y="3.13" width="66.93" height="84.52"/></clipPath><clipPath id="clip-path-5"><rect class="cls-1" x="92.4" y="50.98" width="77.66" height="17.52"/></clipPath></defs><title>Artboard 2residence_I_key

residence_I_key_horizontalresidence_I_key

residence_I_key_horizontal</title><polyline class="cls-2" points="68.39 51.86 57.46 58.03 8.16 25.56"/><polyline class="cls-2" points="68.39 54.28 57.46 60.45 8.16 27.98"/><polyline class="cls-2" points="68.39 56.7 57.46 62.87 8.16 30.4"/><polyline class="cls-2" points="68.39 59.12 57.46 65.29 8.16 32.82"/><polyline class="cls-2" points="68.39 61.54 57.46 67.71 8.16 35.24"/><polyline class="cls-2" points="68.39 63.96 57.46 70.13 8.16 37.66"/><polyline class="cls-2" points="68.39 66.38 57.46 72.55 8.16 40.08"/><polyline class="cls-2" points="68.39 68.8 57.46 74.97 8.16 42.5"/><polyline class="cls-2" points="68.39 71.21 57.46 77.39 8.16 44.92"/><polyline class="cls-2" points="68.39 73.63 57.46 79.81 8.16 47.34"/><polyline class="cls-2" points="68.39 76.05 57.46 82.23 8.16 49.76"/><line class="cls-3" x1="17.51" y1="27.75" x2="17.51" y2="26.44"/><line class="cls-3" x1="22.3" y1="28.37" x2="22.3" y2="26.91"/><line class="cls-3" x1="18.37" y1="25.91" x2="18.37" y2="24.45"/><line class="cls-3" x1="26.92" y1="25.7" x2="26.92" y2="24.24"/><line class="cls-3" x1="58.78" y1="49.77" x2="58.78" y2="48.5"/><line class="cls-3" x1="41.05" y1="40.26" x2="41.05" y2="38.99"/><line class="cls-3" x1="15.88" y1="25.41" x2="15.88" y2="27.58"/><line class="cls-3" x1="23.71" y1="20.76" x2="23.71" y2="22.25"/><line class="cls-3" x1="58.78" y1="49.77" x2="59.47" y2="50.21"/><line class="cls-3" x1="21.03" y1="20.81" x2="21.03" y2="16.93"/><line class="cls-3" x1="13.25" y1="15.87" x2="13.25" y2="11.71"/><line class="cls-3" x1="16.24" y1="12.53" x2="16.24" y2="10.7"/><line class="cls-3" x1="16.23" y1="19.04" x2="16.23" y2="13.55"/><line class="cls-3" x1="19.32" y1="15.83" x2="19.32" y2="11.78"/><line class="cls-3" x1="16.24" y1="12.63" x2="16.24" y2="10.79"/><line class="cls-3" x1="19.6" y1="17.09" x2="19.6" y2="15.8"/><line class="cls-3" x1="12.9" y1="17.27" x2="12.9" y2="15.97"/><line class="cls-3" x1="15.96" y1="23.76" x2="15.96" y2="19.91"/><line class="cls-3" x1="11.6" y1="20.84" x2="11.6" y2="17.09"/><polyline class="cls-3" points="17.67 26.52 15.88 27.58 9.32 23.27 9.32 21.11 11.6 19.78"/><line class="cls-3" x1="17.48" y1="26.48" x2="18.38" y2="25.95"/><line class="cls-3" x1="15.9" y1="23.74" x2="11.6" y2="20.9"/><line class="cls-3" x1="16.24" y1="17.62" x2="19.53" y2="15.68"/><line class="cls-3" x1="15.97" y1="19.3" x2="19.53" y2="17.21"/><g class="cls-4"><path class="cls-3" d="M15.59,14.62c.25.73.05,1.33-.45,1.33s-1.11-.59-1.37-1.32,0-1.32.45-1.33S15.33,13.89,15.59,14.62Z"/><path class="cls-3" d="M16.89,14.65c-.25.73-.05,1.32.45,1.32s1.11-.59,1.37-1.32.05-1.32-.45-1.32S17.15,13.92,16.89,14.65Z"/></g><line class="cls-3" x1="15.96" y1="19.95" x2="21.07" y2="16.95"/><line class="cls-3" x1="15.88" y1="23.79" x2="20.95" y2="20.81"/><line class="cls-3" x1="12.73" y1="15.97" x2="13.23" y2="15.68"/><line class="cls-3" x1="11.6" y1="17.08" x2="15.9" y2="19.91"/><line class="cls-3" x1="9.33" y1="21.1" x2="15.88" y2="25.41"/><line class="cls-3" x1="19.38" y1="15.63" x2="19.6" y2="15.79"/><line class="cls-3" x1="12.9" y1="16.31" x2="11.6" y2="17.09"/><line class="cls-3" x1="9.33" y1="22.4" x2="8.16" y2="23.1"/><line class="cls-3" x1="21.08" y1="19.02" x2="23.71" y2="20.76"/><line class="cls-3" x1="16.14" y1="13.7" x2="19.33" y2="11.79"/><line class="cls-3" x1="13.25" y1="11.75" x2="14.51" y2="11.01"/><line class="cls-3" x1="16.14" y1="12.7" x2="18.06" y2="11.56"/><line class="cls-3" x1="16.25" y1="10.84" x2="18.02" y2="9.8"/><line class="cls-3" x1="13.25" y1="11.71" x2="16.23" y2="13.74"/><line class="cls-3" x1="17.95" y1="10.8" x2="19.33" y2="11.71"/><line class="cls-3" x1="19.6" y1="16.14" x2="21.06" y2="17.1"/><line class="cls-3" x1="14.49" y1="11.51" x2="16.29" y2="12.7"/><line class="cls-3" x1="14.64" y1="9.81" x2="16.25" y2="10.87"/><line class="cls-3" x1="17.11" y1="9.21" x2="18.04" y2="9.82"/><g class="cls-4"><path class="cls-3" d="M14.64,7.73c0,.08-.16.22-.17.27l.1.28c.11.14.49.27,1.13.09s2-.9,2.11-1.62l-.21-.4a.78.78,0,0,0-.42,0"/></g><polyline class="cls-3" points="15.24 5.09 16.16 5.54 16.44 5.42 17.07 4.53"/><g class="cls-4"><path class="cls-3" d="M17.65,7.12A1.52,1.52,0,0,1,15.86,9a1.55,1.55,0,0,1-.8-.45L15,8.45"/><path class="cls-3" d="M14.76,8.06a1.58,1.58,0,0,1-.11-.37A1.53,1.53,0,0,1,15.93,6a1.47,1.47,0,0,1,1.34.46,1.64,1.64,0,0,1,.24.36"/><path class="cls-3" d="M17.29,9.4a.47.47,0,0,0,0-.16.1.1,0,0,0-.08-.07.87.87,0,0,0-.27.05V9.09L17,8.75"/><path class="cls-3" d="M16.57,9.39c0,.06.05.13.06.18s.17.1.29,0"/></g><polyline class="cls-3" points="15.76 9.98 15.76 9.84 15.95 9.51 15.92 9.39 15.55 9.33 15.23 9.13 15.36 8.75"/><line class="cls-3" x1="13.27" y1="15.68" x2="16.24" y2="17.64"/><line class="cls-3" x1="12.93" y1="17.07" x2="16.04" y2="19.12"/><line class="cls-3" x1="15.41" y1="9.14" x2="14.49" y2="9.75"/><line class="cls-3" x1="17.95" y1="11.62" x2="17.95" y2="9.89"/><line class="cls-3" x1="14.49" y1="11.51" x2="14.49" y2="9.74"/><line class="cls-3" x1="41.05" y1="38.99" x2="51.17" y2="45.43"/><line class="cls-3" x1="52.85" y1="39.51" x2="57.05" y2="41.98"/><line class="cls-3" x1="18.37" y1="25.93" x2="22.3" y2="28.43"/><line class="cls-3" x1="18.37" y1="24.4" x2="22.3" y2="26.9"/><line class="cls-3" x1="22.99" y1="21.73" x2="26.92" y2="24.24"/><line class="cls-3" x1="26.92" y1="24.97" x2="52.46" y2="39.63"/><line class="cls-3" x1="42.73" y1="37.61" x2="49.6" y2="41.56"/><polyline class="cls-3" points="62.98 47.35 63.35 47.14 63.35 45.87 57.04 42.25"/><polyline class="cls-3" points="64.24 49.05 61.82 50.47 59.49 48.99"/><line class="cls-3" x1="61.82" y1="52.65" x2="61.82" y2="50.47"/><polyline class="cls-3" points="58.78 49.77 55.32 51.8 17.5 27.75"/><polyline class="cls-3" points="60.88 47.27 55.31 50.53 17.45 26.44"/><line class="cls-3" x1="55.32" y1="51.8" x2="55.32" y2="50.53"/><line class="cls-3" x1="57.04" y1="41.98" x2="51.17" y2="45.42"/><polyline class="cls-3" points="57.05 41.98 57.05 43.22 51.19 46.65 41.05 40.19"/><line class="cls-3" x1="51.17" y1="46.63" x2="51.17" y2="45.43"/><line class="cls-3" x1="52.85" y1="39.51" x2="49.27" y2="41.61"/><line class="cls-3" x1="43.19" y1="37.75" x2="41.05" y2="39"/><line class="cls-3" x1="26.92" y1="25.67" x2="22.3" y2="28.37"/><line class="cls-3" x1="26.92" y1="24.24" x2="22.3" y2="26.94"/><line class="cls-3" x1="22.98" y1="21.73" x2="18.36" y2="24.44"/><line class="cls-3" x1="23.71" y1="20.83" x2="15.97" y2="25.36"/><line class="cls-3" x1="63.29" y1="45.86" x2="62.07" y2="46.57"/><text class="cls-5" transform="matrix(0.82, 0.57, -0.86, 0.5, 6.08, 58.95)"><tspan class="cls-6">C</tspan><tspan class="cls-7" x="4.18" y="0">A</tspan><tspan class="cls-8" x="8.27" y="0">THERINE L</tspan><tspan x="41.76" y="0">N</tspan></text><polyline class="cls-3" points="68.39 49.44 57.46 55.61 8.16 23.14"/><polyline class="cls-3" points="60.78 48.22 59.47 48.99 59.47 51.16 61.82 52.65 64.24 51.24 64.24 49.05 63.26 48.42"/><line class="cls-3" x1="57.47" y1="55.62" x2="57.47" y2="84.55"/><line class="cls-3" x1="63.29" y1="80.51" x2="62.49" y2="80.98"/><polyline class="cls-3" points="63.29 80.51 63.79 80.83 68.39 78.12 68.39 49.42 63.35 46.53"/><g class="cls-4"><path class="cls-3" d="M63.29,80.51v-.69a.45.45,0,0,0-.14-.32"/><path class="cls-3" d="M63.79,80.83v-1c0-.25-.21-.57-.7-.29a1.2,1.2,0,0,0-.6.94v1.12l-5,3-7.55-5.23-9.55-6.53-8-5.5L16.11,55.62,8.16,49.89V23.15"/><path class="cls-3" d="M61.81,46.91a1.28,1.28,0,0,0-1,1.28v.91c0,.36.56.64,1.25.64s1.25-.28,1.25-.64v-.91a1.28,1.28,0,0,0-1-1.28v-.14c0-.06-.08-.14-.21-.14s-.21.08-.21.14Z"/></g><polygon class="cls-9" points="41.85 67.03 38.71 64.97 38.71 62.68 41.85 64.75 41.85 67.03"/><polygon class="cls-9" points="41.85 64.62 38.71 62.55 38.71 60.26 41.85 62.32 41.85 64.62"/><polygon class="cls-9" points="41.85 62.19 38.71 60.11 38.71 57.83 41.85 59.9 41.85 62.19"/><polygon class="cls-9" points="41.85 59.76 38.71 57.69 38.71 55.41 41.85 57.48 41.85 59.76"/><polygon class="cls-9" points="41.85 57.35 38.71 55.28 38.71 52.99 41.85 55.06 41.85 57.35"/><polygon class="cls-9" points="41.85 54.95 38.71 52.88 38.71 50.59 41.85 52.65 41.85 54.95"/><polygon class="cls-9" points="41.85 52.53 38.71 50.46 38.71 48.17 41.85 50.25 41.85 52.53"/><polygon class="cls-9" points="41.85 50.11 38.71 48.04 38.71 45.76 41.85 47.83 41.85 50.11"/><line class="cls-10" x1="38.71" y1="48.09" x2="41.85" y2="50.16"/><line class="cls-10" x1="38.71" y1="50.5" x2="41.85" y2="52.57"/><line class="cls-10" x1="38.71" y1="52.92" x2="41.85" y2="54.99"/><line class="cls-10" x1="38.71" y1="55.34" x2="41.85" y2="57.41"/><line class="cls-10" x1="38.71" y1="57.75" x2="41.85" y2="59.82"/><line class="cls-10" x1="38.71" y1="60.18" x2="41.85" y2="62.24"/><line class="cls-10" x1="38.71" y1="62.6" x2="41.85" y2="64.67"/><path class="cls-11" d="M83.55,43.8c-.62,0-1-.43-1-1.14v-1.4H86v1.29c0,.71-.32,1.14-.92,1.14a.75.75,0,0,1-.72-.44A.82.82,0,0,1,83.55,43.8Zm-.36-1.86v.66c0,.33.16.51.42.51s.42-.18.42-.51v-.66Zm1.39.57c0,.33.13.51.4.51s.39-.18.39-.51v-.57h-.79Z"/><path class="cls-11" d="M83.85,46.21H82.59v-.7H86V46.9a1,1,0,0,1-1.08,1.18,1,1,0,0,1-1-.77l-1.31.89v-.79l1.26-.83Zm.58,0v.64c0,.36.18.54.46.54s.48-.18.48-.54v-.64Z"/><path class="cls-11" d="M82.54,51.24a1.75,1.75,0,1,1,1.74,1.6A1.6,1.6,0,0,1,82.54,51.24Zm2.85,0c0-.53-.45-.88-1.11-.88s-1.12.35-1.12.88.46.89,1.12.89S85.39,51.78,85.39,51.24Z"/><path class="cls-11" d="M86,56.13l-3.38,1.29v-.71l.81-.3V55.14l-.81-.29v-.71L86,55.43Zm-2-.77v.83l1.12-.41Z"/><path class="cls-11" d="M86,59v1.2a1.69,1.69,0,0,1-3.38,0V59Zm-2.76,1.17a1.07,1.07,0,0,0,2.14,0v-.47H83.21Z"/><path class="cls-11" d="M86,65.68l-2.27.59,2.27.55v.69l-3.38-.87V66l2.23-.59-2.23-.6v-.64L86,63.28V64l-2.27.55,2.27.59Z"/><path class="cls-11" d="M86,70.66,82.59,72v-.71l.81-.3V69.67l-.81-.29v-.71L86,70Zm-2-.77v.83l1.12-.41Z"/><path class="cls-11" d="M86,75.32v.74l-2.1-1.22H82.59v-.7h1.28L86,72.93v.76l-1.43.82Z"/><path class="cls-11" d="M180.94,35.06v.7h-2.75v1.57h-.62V35.06Z"/><path class="cls-11" d="M180.94,40.81l-3.37,1.29v-.71l.81-.31V39.82l-.81-.3v-.7l3.37,1.29ZM179,40v.82l1.12-.41Z"/><path class="cls-11" d="M177.57,43.72h3.37V46h-.61V44.41h-.86v1.44h-.61V44.41h-1.29v-.69Z"/><path class="cls-11" d="M180.94,49.21l-3.37,1.29v-.71l.81-.3V48.22l-.81-.29v-.71l3.37,1.3Zm-2-.77v.83l1.12-.41Z"/><path class="cls-11" d="M180.94,53.87v.74l-2.09-1.23h-1.28v-.7h1.28l2.09-1.21v.76l-1.43.82Z"/><path class="cls-11" d="M180.94,58.5h-.61V56.9h-.74v1.45H179V56.9h-.8v1.6h-.62V56.21h3.37Z"/><path class="cls-11" d="M180.94,60.07V63h-.61V61.86h-2.76v-.7h2.76V60.07Z"/><path class="cls-11" d="M180.94,64.44v2.88h-.61V66.23h-2.76v-.71h2.76V64.44Z"/><path class="cls-11" d="M180.94,71.28h-.61v-1.6h-.74v1.46H179V69.68h-.8v1.6h-.62V69h3.37Z"/><path class="cls-11" d="M178.53,75.91a.64.64,0,0,0-.44.67c0,.34.16.57.43.57s.31-.12.38-.41l.13-.61a.93.93,0,0,1,.93-.85,1.08,1.08,0,0,1,1,1.21,1.21,1.21,0,0,1-1,1.32v-.69a.61.61,0,0,0,.4-.63c0-.31-.16-.53-.4-.53s-.31.13-.37.38l-.14.62c-.13.55-.44.88-.95.88a1.11,1.11,0,0,1-1.05-1.25,1.27,1.27,0,0,1,1-1.4v.72Z"/><path class="cls-11" d="M180.94,79.3v2.88h-.61V81.09h-2.76v-.71h2.76V79.3Z"/><path class="cls-11" d="M112.39,39.3h.7v2.76h1.57v.62h-2.27Z"/><path class="cls-11" d="M118.57,39.3v.62H117v.73h1.45v.6H117v.81h1.6v.62h-2.29V39.3Z"/><path class="cls-11" d="M121.64,42.73a1.75,1.75,0,1,1,1.6-1.74A1.61,1.61,0,0,1,121.64,42.73Zm0-2.85c-.53,0-.87.45-.87,1.11s.34,1.12.87,1.12.89-.46.89-1.12S122.18,39.88,121.64,39.88Z"/><path class="cls-11" d="M127.66,42.68h-.56l-1.59-2.25v2.25h-.67V39.3h.66L127,41.44V39.3h.68Z"/><path class="cls-11" d="M131.16,39.3l1.29,3.38h-.71l-.31-.82h-1.26l-.3.82h-.7l1.29-3.38Zm-.77,2h.82l-.41-1.12Z"/><path class="cls-11" d="M134.65,41.42v1.26H134V39.3h1.39a1.05,1.05,0,0,1,1.19,1.08,1,1,0,0,1-.77,1l.89,1.31h-.79L135,41.42Zm0-.58h.65c.35,0,.53-.19.53-.47s-.18-.47-.53-.47h-.65Z"/><path class="cls-11" d="M138.15,39.3h1.19a1.69,1.69,0,0,1,0,3.38h-1.19Zm1.17,2.76a1.07,1.07,0,0,0,0-2.14h-.47v2.14Z"/><path class="cls-11" d="M145.36,41.72a.63.63,0,0,0,.67.43c.34,0,.56-.15.56-.42s-.12-.32-.41-.38l-.61-.14c-.48-.11-.85-.37-.85-.92a1.09,1.09,0,0,1,1.21-1,1.22,1.22,0,0,1,1.33,1h-.7a.59.59,0,0,0-.62-.4c-.32,0-.54.15-.54.39s.13.31.38.37l.62.14c.55.13.88.44.88,1,0,.66-.54,1-1.25,1a1.28,1.28,0,0,1-1.4-1Z"/><path class="cls-11" d="M148.64,39.3h2.88v.62h-1.09v2.76h-.71V39.92h-1.08Z"/><path class="cls-11" d="M109.91,74.55a1.34,1.34,0,0,1,1.42,1.14h-.7a.72.72,0,0,0-.72-.52c-.54,0-.85.48-.85,1.12s.31,1.11.85,1.11a.72.72,0,0,0,.72-.52h.7A1.35,1.35,0,0,1,109.91,78a1.75,1.75,0,0,1,0-3.48Z"/><path class="cls-11" d="M114.65,74.6,115.94,78h-.71l-.31-.82h-1.26l-.3.82h-.7L114,74.6Zm-.77,2h.82l-.41-1.12Z"/><path class="cls-11" d="M117,74.6h2.88v.62h-1.09V78h-.71V75.22H117Z"/><path class="cls-11" d="M124.51,74.6V78h-.7V76.56h-1.53V78h-.7V74.6h.7v1.34h1.53V74.6Z"/><path class="cls-11" d="M128.66,74.6v.62h-1.6V76h1.45v.6h-1.45v.8h1.6V78h-2.29V74.6Z"/><path class="cls-11" d="M131.12,76.72V78h-.7V74.6h1.39A1,1,0,0,1,133,75.67a1,1,0,0,1-.77,1l.89,1.31h-.79l-.84-1.26Zm0-.58h.64c.36,0,.54-.19.54-.47s-.18-.47-.54-.47h-.64Z"/><path class="cls-11" d="M135.43,78h-.7V74.6h.7Z"/><path class="cls-11" d="M140.1,78h-.55L138,75.73V78h-.67V74.6h.66l1.49,2.13V74.6h.67Z"/><path class="cls-11" d="M144.25,74.6v.62h-1.6V76h1.45v.6h-1.45v.8h1.6V78H142V74.6Z"/><path class="cls-11" d="M148.39,74.6h.7v2.75h1.57V78h-2.27Z"/><path class="cls-11" d="M155.21,78h-.56l-1.59-2.25V78h-.68V74.6H153l1.49,2.13V74.6h.68V78Z"/><g class="cls-12"><polygon class="cls-13" points="136.29 59 136.98 59 136.98 59.16 137.28 59.16 137.89 59.16 137.89 59 139.39 59 139.39 60.04 139.85 60.04 139.85 61.55 142.24 61.55 142.24 65.83 136.14 65.48 136.14 60.61 136.43 60.61 136.43 59.98 136.29 59.98 136.29 59"/><g class="cls-12"><polygon class="cls-15" points="168.2 52.14 168.2 67.34 93.34 62.68 93.37 52.14 168.2 52.14"/></g></g></svg>