<?xml version="1.0" encoding="utf-8"?>
<!-- Generator: Adobe Illustrator 23.0.0, SVG Export Plug-In . SVG Version: 6.00 Build 0)  -->
<svg version="1.1" id="Layer_1" xmlns="http://www.w3.org/2000/svg" xmlns:xlink="http://www.w3.org/1999/xlink" x="0px" y="0px"
	 viewBox="0 0 123.3 164.8" style="enable-background:new 0 0 123.3 164.8;" xml:space="preserve">
<style type="text/css">
	.st0{fill:#D2D3D4;}
	.st1{clip-path:url(#SVGID_2_);}
	.st2{fill:#231F20;}
	.st3{clip-path:url(#SVGID_4_);}
	.st4{fill:none;stroke:#D1D3D4;stroke-width:1.09;stroke-miterlimit:10;}
	.st5{clip-path:url(#SVGID_6_);}
	.st6{fill:none;stroke:#231F20;stroke-width:0.15;stroke-miterlimit:10;}
	.st7{enable-background:new    ;}
	.st8{fill:#D1D3D4;}
	.st9{fill:none;stroke:#231F20;stroke-width:0.14;stroke-miterlimit:10;}
	.st10{clip-path:url(#SVGID_8_);}
	.st11{clip-path:url(#SVGID_10_);}
	.st12{clip-path:url(#SVGID_12_);}
	.st13{clip-path:url(#SVGID_14_);}
	.st14{clip-path:url(#SVGID_16_);}
</style>
<title>residence_D_6_key</title>
<g>
	<path class="st0" d="M14.3,117.1c-0.6,0-1-0.4-1-1.1v-1.4h3.4v1.3c0,0.7-0.3,1.1-0.9,1.1c-0.3,0-0.6-0.2-0.7-0.4
		C14.9,116.9,14.6,117.1,14.3,117.1z M13.9,115.2v0.7c0,0.3,0.2,0.5,0.4,0.5s0.4-0.2,0.4-0.5v-0.7H13.9z M15.3,115.8
		c0,0.3,0.1,0.5,0.4,0.5s0.4-0.2,0.4-0.5v-0.6h-0.8L15.3,115.8z"/>
	<path class="st0" d="M14.6,119.5h-1.3v-0.7h3.4v1.4c0.1,0.5-0.3,1.1-0.8,1.2c-0.1,0-0.2,0-0.3,0c-0.5,0-0.9-0.3-1-0.8l-1.3,0.9
		v-0.8l1.3-0.8L14.6,119.5z M15.1,119.5v0.7c0,0.3,0.2,0.5,0.5,0.5s0.5-0.2,0.5-0.5v-0.7H15.1z"/>
	<path class="st0" d="M13.3,124.6c0-0.9,0.8-1.6,1.7-1.6c0,0,0.1,0,0.1,0c0.9-0.1,1.7,0.6,1.7,1.5c0.1,0.9-0.6,1.7-1.5,1.7
		c-0.1,0-0.2,0-0.3,0c-0.9,0.1-1.7-0.6-1.7-1.5C13.3,124.7,13.3,124.6,13.3,124.6z M16.1,124.6c0-0.5-0.4-0.9-1.1-0.9
		s-1.1,0.3-1.1,0.9s0.5,0.9,1.1,0.9S16.1,125.1,16.1,124.6z"/>
	<path class="st0" d="M16.7,129.4l-3.4,1.3V130l0.8-0.3v-1.3l-0.8-0.3v-0.7l3.4,1.3V129.4z M14.7,128.7v0.8l1.1-0.4L14.7,128.7z"/>
	<path class="st0" d="M16.7,132.4v1.2c0.1,0.9-0.6,1.6-1.5,1.7c-0.1,0-0.2,0-0.2,0c-0.9,0.1-1.6-0.6-1.7-1.4c0-0.1,0-0.2,0-0.2v-1.2
		H16.7z M13.9,133.5c0,0.6,0.4,1,1,1c0,0,0,0,0.1,0c0.6,0,1-0.4,1.1-0.9c0,0,0,0,0-0.1v-0.5h-2.1V133.5z"/>
	<path class="st0" d="M16.7,139l-2.3,0.6l2.3,0.6v0.7l-3.4-0.8v-0.6l2.2-0.6l-2.2-0.6v-0.6l3.4-0.9v0.7l-2.3,0.6l2.3,0.6L16.7,139z"
		/>
	<path class="st0" d="M16.7,144l-3.4,1.3v-0.7l0.8-0.3V143l-0.8-0.3V142l3.4,1.3V144z M14.7,143.2v0.8l1.1-0.4L14.7,143.2z"/>
	<path class="st0" d="M16.7,148.6v0.8l-2.1-1.2h-1.3v-0.7h1.3l2.1-1.2v0.8l-1.4,0.8L16.7,148.6z"/>
	<path class="st0" d="M111.7,108.4v0.7h-2.8v1.6h-0.6v-2.3H111.7z"/>
	<path class="st0" d="M111.7,114.1l-3.4,1.3v-0.7l0.8-0.3v-1.3l-0.8-0.3v-0.7l3.4,1.3V114.1z M109.7,113.4v0.8l1.1-0.4L109.7,113.4z
		"/>
	<path class="st0" d="M108.3,117h3.4v2.2h-0.6v-1.5h-0.9v1.4h-0.6v-1.4h-1.3V117z"/>
	<path class="st0" d="M111.7,122.5l-3.4,1.3v-0.7l0.8-0.3v-1.3l-0.8-0.3v-0.7l3.4,1.3V122.5z M109.7,121.8v0.8l1.1-0.4L109.7,121.8z
		"/>
	<path class="st0" d="M111.7,127.2v0.7l-2.1-1.2h-1.3V126h1.3l2.1-1.2v0.8l-1.4,0.8L111.7,127.2z"/>
	<path class="st0" d="M111.7,131.8h-0.6v-1.6h-0.7v1.4h-0.6v-1.4h-0.8v1.6h-0.6v-2.3h3.4V131.8z"/>
	<path class="st0" d="M111.7,133.4v2.9h-0.6v-1.1h-2.8v-0.7h2.8v-1.1L111.7,133.4z"/>
	<path class="st0" d="M111.7,137.8v2.9h-0.6v-1.1h-2.8v-0.7h2.8v-1.1H111.7z"/>
	<path class="st0" d="M111.7,144.6h-0.6V143h-0.7v1.4h-0.6V143h-0.8v1.6h-0.6v-2.3h3.4V144.6z"/>
	<path class="st0" d="M109.2,149.2c-0.3,0.1-0.5,0.4-0.4,0.7c0,0.4,0.2,0.6,0.4,0.6s0.3-0.1,0.4-0.4l0.1-0.6c0-0.5,0.4-0.9,0.9-0.9
		c0.6,0,1,0.6,1,1.1c0,0,0,0,0,0.1c0.1,0.6-0.4,1.2-1,1.3v-0.7c0.3-0.1,0.4-0.3,0.4-0.6c0-0.3-0.2-0.5-0.4-0.5s-0.3,0.1-0.4,0.4
		l-0.1,0.6c-0.1,0.6-0.4,0.9-1,0.9s-1-0.5-1-1.2c-0.1-0.7,0.4-1.3,1-1.4L109.2,149.2L109.2,149.2z"/>
	<path class="st0" d="M111.7,152.6v2.9h-0.6v-1.1h-2.8v-0.7h2.8v-1.1L111.7,152.6z"/>
	<path class="st0" d="M43.1,112.6h0.7v2.8h1.6v0.6h-2.3V112.6z"/>
	<path class="st0" d="M49.3,112.6v0.6h-1.6v0.8h1.5v0.6h-1.5v0.8h1.6v0.6H47v-3.4L49.3,112.6z"/>
	<path class="st0" d="M52.4,116c-1,0.1-1.8-0.7-1.9-1.6c-0.1-1,0.7-1.8,1.6-1.9s1.8,0.7,1.9,1.6c0,0.1,0,0.1,0,0.2
		c0,0.9-0.6,1.6-1.5,1.7C52.4,116,52.4,116,52.4,116z M52.4,113.2c-0.5,0-0.9,0.4-0.9,1.1s0.3,1.1,0.9,1.1s0.9-0.5,0.9-1.1
		S52.9,113.2,52.4,113.2L52.4,113.2z"/>
	<path class="st0" d="M58.4,116h-0.6l-1.6-2.2v2.2h-0.7v-3.4h0.7l1.5,2.1v-2.1h0.7V116z"/>
	<path class="st0" d="M61.9,112.6l1.3,3.4h-0.7l-0.3-0.8h-1.3l-0.3,0.8h-0.7l1.3-3.4L61.9,112.6z M61.1,114.6h0.8l-0.4-1.1
		L61.1,114.6z"/>
	<path class="st0" d="M65.4,114.7v1.3h-0.7v-3.4h1.4c0.5-0.1,1.1,0.2,1.2,0.8c0,0.1,0,0.2,0,0.3c0,0.5-0.3,0.9-0.8,1l0.9,1.3h-0.8
		l-0.8-1.3L65.4,114.7z M65.4,114.2H66c0.3,0,0.5-0.2,0.5-0.5s-0.2-0.5-0.5-0.5h-0.7L65.4,114.2z"/>
	<path class="st0" d="M68.9,112.6h1.2c0.9,0.1,1.6,0.9,1.6,1.8c-0.1,0.8-0.7,1.5-1.6,1.6h-1.2V112.6z M70,115.4
		c0.6,0,1.1-0.5,1.1-1.1c0-0.6-0.5-1.1-1.1-1.1h-0.5v2.1H70z"/>
	<path class="st0" d="M76.1,115c0.1,0.3,0.4,0.5,0.7,0.4c0.3,0,0.6-0.2,0.6-0.4s-0.1-0.3-0.4-0.4l-0.6-0.1c-0.5-0.1-0.8-0.4-0.8-0.9
		c0-0.6,0.6-1,1.2-1c0,0,0,0,0,0c0.6-0.1,1.2,0.4,1.3,1h-0.7c-0.1-0.3-0.3-0.4-0.6-0.4c-0.3,0-0.5,0.2-0.5,0.4s0.1,0.3,0.4,0.4
		l0.6,0.2c0.5,0.1,0.9,0.5,0.9,1c-0.1,0.6-0.6,1.1-1.2,1c0,0,0,0,0,0c-0.7,0.1-1.3-0.4-1.4-1L76.1,115z"/>
	<path class="st0" d="M79.4,112.6h2.9v0.6h-1.1v2.8h-0.7v-2.8h-1.1V112.6z"/>
	<path class="st0" d="M40.6,147.9c0.7,0,1.3,0.4,1.4,1.1h-0.7c-0.1-0.3-0.4-0.5-0.7-0.5c-0.5,0-0.8,0.5-0.8,1.1s0.3,1.1,0.8,1.1
		c0.3,0,0.6-0.2,0.7-0.5H42c-0.1,0.7-0.7,1.2-1.4,1.1c-1-0.1-1.7-1-1.6-1.9C39.2,148.6,39.8,147.9,40.6,147.9z"/>
	<path class="st0" d="M45.4,147.9l1.3,3.4H46l-0.3-0.8h-1.3l-0.3,0.8h-0.7l1.3-3.4H45.4z M44.6,149.9h0.8l-0.4-1.2L44.6,149.9z"/>
	<path class="st0" d="M47.8,147.9h2.9v0.6h-1.1v2.8h-0.7v-2.8h-1.1V147.9z"/>
	<path class="st0" d="M55.2,147.9v3.4h-0.7v-1.4H53v1.4h-0.7v-3.4H53v1.3h1.5v-1.3H55.2z"/>
	<path class="st0" d="M59.4,147.9v0.6h-1.6v0.7h1.5v0.6h-1.5v0.8h1.6v0.6h-2.3v-3.4L59.4,147.9z"/>
	<path class="st0" d="M61.8,150v1.3h-0.7v-3.4h1.4c0.5-0.1,1.1,0.3,1.2,0.8c0,0.1,0,0.2,0,0.3c0,0.5-0.3,0.9-0.8,1l0.9,1.3H63
		l-0.8-1.3H61.8z M61.8,149.4h0.6c0.4,0,0.5-0.2,0.5-0.5s-0.2-0.5-0.5-0.5h-0.6V149.4z"/>
	<path class="st0" d="M66.2,151.3h-0.7v-3.4h0.7V151.3z"/>
	<path class="st0" d="M70.8,151.3h-0.6l-1.6-2.3v2.2H68v-3.4h0.7l1.5,2.1v-2.1h0.7V151.3z"/>
	<path class="st0" d="M75,147.9v0.6h-1.6v0.7h1.4v0.6h-1.5v0.8H75v0.6h-2.3v-3.4L75,147.9z"/>
	<path class="st0" d="M79.1,147.9h0.7v2.8h1.6v0.6h-2.3V147.9z"/>
	<path class="st0" d="M85.9,151.3h-0.6l-1.6-2.3v2.2h-0.7v-3.4h0.7l1.5,2.1v-2.1h0.7V151.3L85.9,151.3z"/>
</g>
<g id="Layer_4">
	<g>
		<defs>
			<rect id="SVGID_1_" x="23.3" y="124.1" width="77.1" height="17.4"/>
		</defs>
		<clipPath id="SVGID_2_">
			<use xlink:href="#SVGID_1_"  style="overflow:visible;"/>
		</clipPath>
		<g class="st1">
			<polygon class="st2" points="36.3,134 39.2,134 39.2,132.3 40.3,132.3 40.3,132.4 41.2,132.4 41.2,132.3 44.3,132.3 44.3,136.9 
				36.3,136.4 			"/>
			<g>
				<defs>
					<rect id="SVGID_3_" x="23.3" y="124.1" width="77.1" height="17.4"/>
				</defs>
				<clipPath id="SVGID_4_">
					<use xlink:href="#SVGID_3_"  style="overflow:visible;"/>
				</clipPath>
				<g class="st3">
					<polygon class="st4" points="98.6,125.2 98.6,140.3 24.3,135.7 24.3,125.2 					"/>
				</g>
			</g>
		</g>
	</g>
	<g>
		<defs>
			<rect id="SVGID_5_" x="22" y="6.1" width="69.8" height="84.3"/>
		</defs>
		<clipPath id="SVGID_6_">
			<use xlink:href="#SVGID_5_"  style="overflow:visible;"/>
		</clipPath>
		<g class="st5">
			<polyline class="st6" points="90.3,55.8 78.2,62.7 27.4,29.3 			"/>
			<polyline class="st6" points="90.3,58.1 78.2,65 27.4,31.5 			"/>
			<polyline class="st6" points="90.3,60.4 78.2,67.2 27.4,33.8 			"/>
			<polyline class="st6" points="90.3,62.7 78.2,69.5 27.4,36.1 			"/>
			<polyline class="st6" points="90.3,65 78.2,71.8 27.4,38.4 			"/>
			<polyline class="st6" points="90.3,67.3 78.2,74.1 27.4,40.7 			"/>
			<polyline class="st6" points="90.3,69.6 78.2,76.4 27.4,43 			"/>
			<polyline class="st6" points="90.3,71.8 78.2,78.7 27.4,45.2 			"/>
			<polyline class="st6" points="90.3,74.1 78.2,80.9 27.4,47.5 			"/>
			<polyline class="st6" points="90.3,76.4 78.2,83.2 27.4,49.8 			"/>
			<polyline class="st6" points="90.3,78.7 78.2,85.5 27.4,52.1 			"/>
			<g class="st7">
				<path class="st8" d="M32.5,62c0.6,0.4,0.6,0.8,0.2,1.2l-0.5-0.3c0.1-0.2,0.2-0.4-0.1-0.6c-0.4-0.3-1-0.2-1.5,0.1
					c-0.5,0.3-0.6,0.6-0.2,0.9c0.3,0.2,0.6,0.2,0.9,0.1l0.5,0.3c-0.6,0.2-1.3,0.2-1.9-0.2c-0.6-0.4-0.6-1.1,0.2-1.5
					C30.8,61.5,31.8,61.6,32.5,62z"/>
			</g>
			<g class="st7">
				<path class="st8" d="M35.9,64.5l-1.6,2.1l-0.5-0.4l0.4-0.5l-0.9-0.6l-0.8,0.2l-0.5-0.4l3.5-0.8L35.9,64.5z M33.9,64.9l0.6,0.4
					l0.5-0.7L33.9,64.9z"/>
			</g>
			<g class="st7">
				<path class="st8" d="M37.7,65.7l2.1,1.4l-0.5,0.3l-0.8-0.5l-2.1,1.2l-0.5-0.4l2.1-1.2L37.2,66L37.7,65.7z"/>
				<path class="st8" d="M43.1,69.5L40.6,71l-0.5-0.4l1.1-0.6L40,69.2L39,69.9l-0.5-0.4L41,68l0.5,0.4l-1,0.6l1.1,0.8l1-0.6
					L43.1,69.5z"/>
				<path class="st8" d="M46.2,71.6l-0.5,0.3l-1.1-0.8L44,71.4l1,0.7l-0.5,0.3l-1-0.7L43,72l1.1,0.8l-0.5,0.3L42,71.9l2.5-1.5
					L46.2,71.6z"/>
				<path class="st8" d="M46.4,73.8l-0.9,0.6L45,74l2.5-1.5l1,0.7c0.5,0.4,0.6,0.8,0,1.1c-0.4,0.2-0.9,0.2-1.3,0.1l-0.3,1L46.3,75
					l0.3-1L46.4,73.8z M46.9,73.6l0.5,0.3c0.3,0.2,0.5,0.2,0.7,0.1c0.2-0.1,0.2-0.3,0-0.5l-0.5-0.3L46.9,73.6z"/>
				<path class="st8" d="M48.6,76.6l-0.5-0.4l2.5-1.5l0.5,0.4L48.6,76.6z"/>
				<path class="st8" d="M52.1,79l-0.4-0.3l0.5-1.8l-1.7,1l-0.5-0.3l2.5-1.5l0.5,0.3l-0.5,1.7l1.6-0.9l0.5,0.3L52.1,79z"/>
				<path class="st8" d="M57.7,79.6l-0.5,0.3l-1.1-0.8l-0.6,0.3l1,0.7l-0.5,0.3l-1-0.7L54.5,80l1.1,0.8l-0.5,0.3l-1.6-1.1l2.5-1.5
					L57.7,79.6z"/>
				<path class="st8" d="M60.8,81.8l0.5,0.4l-2.1,1.2l1.1,0.8l-0.5,0.3l-1.6-1.1L60.8,81.8z"/>
			</g>
			<g class="st7">
				<path class="st8" d="M63.2,86.7l-0.4-0.3l0.5-1.8l-1.7,1l-0.5-0.3l2.5-1.5l0.5,0.3l-0.5,1.7l1.6-0.9l0.5,0.3L63.2,86.7z"/>
			</g>
			<polyline class="st9" points="90.3,53.6 78.2,60.4 27.4,27 			"/>
			<line class="st9" x1="78.2" y1="58.1" x2="78.2" y2="87.7"/>
			<line class="st9" x1="84.4" y1="83.5" x2="83.6" y2="83.9"/>
			<polyline class="st9" points="84.4,83.5 84.8,83.8 90.3,80.6 90.3,51.2 			"/>
			<polyline class="st9" points="90.3,51.2 78.2,58.1 27.4,24.7 			"/>
			<g>
				<defs>
					<rect id="SVGID_7_" x="22" y="6.1" width="69.6" height="84.3"/>
				</defs>
				<clipPath id="SVGID_8_">
					<use xlink:href="#SVGID_7_"  style="overflow:visible;"/>
				</clipPath>
				<g class="st10">
					<path class="st9" d="M84.4,83.5v-0.7c0-0.1,0-0.2-0.1-0.3"/>
					<path class="st9" d="M84.8,83.8v-1c0-0.2-0.2-0.5-0.7-0.3c-0.3,0.2-0.5,0.5-0.6,0.9v1l-5.4,3.2l-7.1-4.9l-9-6.2l-7.6-5.1
						l-11.2-7.7l-16-11.5V24.7l1.1-0.6"/>
				</g>
			</g>
			<line class="st9" x1="80.1" y1="52.5" x2="80.1" y2="51.3"/>
			<line class="st9" x1="34.6" y1="26.8" x2="34.6" y2="28.9"/>
			<line class="st9" x1="80.1" y1="52.5" x2="80.8" y2="52.9"/>
			<line class="st9" x1="80.1" y1="51.2" x2="80.8" y2="51.7"/>
			<line class="st9" x1="35" y1="14.7" x2="35" y2="13.1"/>
			<line class="st9" x1="35" y1="14.7" x2="35" y2="13"/>
			<line class="st9" x1="34.7" y1="25.2" x2="34.7" y2="21.6"/>
			<polyline class="st9" points="35.9,28.1 34.6,28.9 28.5,24.8 28.5,22.8 30.6,21.5 			"/>
			<polyline class="st9" points="35,19.5 37.9,17.8 37.9,13.9 37.9,13.9 36.6,13.1 			"/>
			<g>
				<defs>
					<rect id="SVGID_9_" x="22" y="6.1" width="69.6" height="84.3"/>
				</defs>
				<clipPath id="SVGID_10_">
					<use xlink:href="#SVGID_9_"  style="overflow:visible;"/>
				</clipPath>
				<g class="st11">
					<path class="st9" d="M34.4,16.6c0.2,0.7,0,1.2-0.4,1.2s-1-0.6-1.3-1.2s0-1.2,0.4-1.2S34.1,15.9,34.4,16.6z"/>
					<path class="st9" d="M35.6,16.6c-0.2,0.7,0,1.2,0.4,1.2s1-0.5,1.3-1.2s0-1.2-0.4-1.2S35.8,16,35.6,16.6z"/>
				</g>
			</g>
			<line class="st9" x1="34.7" y1="21.7" x2="39.4" y2="18.9"/>
			<line class="st9" x1="30.6" y1="19" x2="34.7" y2="21.7"/>
			<line class="st9" x1="28.5" y1="22.7" x2="34.6" y2="26.8"/>
			<polyline class="st9" points="37.9,17.6 38.2,17.7 38.2,19 38.2,19 35,20.9 35,20.8 35,15.7 			"/>
			<polyline class="st9" points="31.8,18.2 30.6,19 30.6,22.5 30.6,22.6 34.7,25.2 			"/>
			<polyline class="st9" points="39.5,20.8 42,22.4 42,23.8 			"/>
			<line class="st9" x1="34.9" y1="15.8" x2="37.9" y2="14"/>
			<line class="st9" x1="32.2" y1="13.9" x2="33.3" y2="13.2"/>
			<line class="st9" x1="32.2" y1="13.9" x2="35" y2="15.8"/>
			<polyline class="st9" points="38.2,18.1 39.5,18.9 39.5,18.9 39.5,22.4 39.4,22.5 34.6,25.3 			"/>
			<line class="st9" x1="33.4" y1="12" x2="35" y2="13.1"/>
			<line class="st9" x1="35.8" y1="11.5" x2="36.6" y2="12.1"/>
			<g>
				<defs>
					<rect id="SVGID_11_" x="22" y="6.1" width="69.6" height="84.3"/>
				</defs>
				<clipPath id="SVGID_12_">
					<use xlink:href="#SVGID_11_"  style="overflow:visible;"/>
				</clipPath>
				<g class="st12">
					<path class="st9" d="M33.5,10.1c0,0.1-0.2,0.2-0.2,0.2l0.1,0.3c0.1,0.1,0.5,0.2,1.1,0.1s1.9-0.9,2-1.5l-0.2-0.4
						c-0.1,0-0.3,0-0.4,0"/>
				</g>
			</g>
			<polyline class="st9" points="34,7.6 34.9,8.1 35.2,7.9 35.8,7.1 			"/>
			<g>
				<defs>
					<rect id="SVGID_13_" x="22" y="6.1" width="69.6" height="84.3"/>
				</defs>
				<clipPath id="SVGID_14_">
					<use xlink:href="#SVGID_13_"  style="overflow:visible;"/>
				</clipPath>
				<g class="st13">
					<path class="st9" d="M36.3,9.6c0,0.2,0,0.4,0,0.6c-0.2,0.8-0.9,1.3-1.7,1.1c-0.3-0.1-0.6-0.2-0.8-0.4h-0.1"/>
					<path class="st9" d="M33.6,10.4c-0.1-0.1-0.1-0.2-0.1-0.4c-0.1-0.8,0.4-1.5,1.2-1.6c0,0,0,0,0,0c0.5-0.1,0.9,0.1,1.3,0.4
						C36,9,36.1,9.1,36.2,9.2"/>
					<path class="st9" d="M36,11.7c0-0.1,0-0.1,0-0.2c0,0,0-0.1-0.1-0.1c-0.1,0-0.2,0-0.2,0c0,0,0-0.1,0-0.1l0,0l0.1-0.3"/>
					<path class="st9" d="M35.3,11.7c0,0.1,0,0.1,0.1,0.2s0.2,0.1,0.3,0"/>
				</g>
			</g>
			<polyline class="st9" points="34.5,12.2 34.5,12.1 34.7,11.8 34.7,11.7 34.3,11.6 34,11.4 34.1,11.1 			"/>
			<line class="st9" x1="32.2" y1="17.6" x2="35" y2="19.5"/>
			<polyline class="st9" points="34.9,21 31.9,18.9 31.8,18.9 31.8,17.8 31.8,17.8 32.1,17.6 32.2,17.6 32.2,13.9 			"/>
			<polyline class="st9" points="34.2,11.5 33.3,12 33.3,12.1 33.3,13.7 35,14.8 35,14.7 36.6,13.8 36.6,12.1 36.6,12.1 35,13.1 			
				"/>
			<line class="st9" x1="62.1" y1="41.9" x2="72.3" y2="48.3"/>
			<polyline class="st9" points="85.3,50.3 83,51.6 80.8,50.2 			"/>
			<line class="st9" x1="83" y1="54.9" x2="83" y2="51.6"/>
			<polyline class="st9" points="80.8,50.9 76.2,53.6 35.9,27.9 			"/>
			<line class="st6" x1="90.3" y1="51.3" x2="42" y2="23.3"/>
			<line class="st6" x1="73.7" y1="42.2" x2="45.1" y2="25.6"/>
			<line class="st9" x1="76.2" y1="54.8" x2="76.2" y2="53.6"/>
			<line class="st9" x1="72.3" y1="49.7" x2="72.3" y2="48.3"/>
			<polygon class="st9" points="78.3,44.8 78.3,46.2 72.3,49.7 62.1,43.3 62.1,41.9 66.6,39.3 72.6,42.9 73.8,42.1 			"/>
			<line class="st9" x1="78.3" y1="44.8" x2="72.3" y2="48.3"/>
			<line class="st9" x1="45.1" y1="25.6" x2="40.7" y2="28.1"/>
			<polygon class="st9" points="37,27.2 37,25.8 37,25.8 41.2,23.3 45.1,25.6 45.1,26.8 45.1,26.9 40.7,29.5 			"/>
			<polyline class="st9" points="80.1,52.5 76.2,54.8 35.9,29.1 35.9,29.1 35.9,27.9 37,27.2 			"/>
			<line class="st9" x1="40.7" y1="28.1" x2="37" y2="25.8"/>
			<line class="st9" x1="40.7" y1="29.5" x2="40.7" y2="28.1"/>
			<polyline class="st9" points="84.4,49.7 84.8,49.5 84.8,48.6 78.3,44.9 			"/>
			<line class="st9" x1="84.8" y1="48.6" x2="84.2" y2="48.9"/>
			<line class="st9" x1="42" y1="22.5" x2="34.6" y2="26.8"/>
			<polyline class="st9" points="82,49.5 80.8,50.2 80.8,53.5 83,54.9 85.3,53.5 85.3,50.3 84.4,49.7 			"/>
			<g>
				<defs>
					<rect id="SVGID_15_" x="22" y="6.1" width="69.6" height="84.3"/>
				</defs>
				<clipPath id="SVGID_16_">
					<use xlink:href="#SVGID_15_"  style="overflow:visible;"/>
				</clipPath>
				<g class="st14">
					<path class="st9" d="M83,48.2c-0.6,0.1-1,0.6-1,1.2v0.8c0,0.3,0.5,0.6,1.2,0.6s1.2-0.3,1.2-0.6v-0.8c0-0.6-0.4-1.1-1-1.2v-0.1
						c0-0.1-0.1-0.1-0.2-0.1S83,48,83,48.1L83,48.2z"/>
				</g>
			</g>
			<polygon class="st2" points="40.3,51.5 34.8,47.8 34.8,45.6 40.3,49.2 			"/>
		</g>
	</g>
</g>
</svg>
