<?xml version="1.0" encoding="utf-8"?>
<!-- Generator: Adobe Illustrator 23.0.0, SVG Export Plug-In . SVG Version: 6.00 Build 0)  -->
<svg version="1.1" id="Layer_1" xmlns="http://www.w3.org/2000/svg" xmlns:xlink="http://www.w3.org/1999/xlink" x="0px" y="0px"
	 viewBox="0 0 200.6 198.9" style="enable-background:new 0 0 200.6 198.9;" xml:space="preserve">
<style type="text/css">
	.st0{clip-path:url(#SVGID_2_);}
	.st1{clip-path:url(#SVGID_4_);}
	.st2{fill:#D1D3D4;}
	.st3{clip-path:url(#SVGID_6_);}
	.st4{clip-path:url(#SVGID_8_);}
	.st5{fill:none;stroke:#231F20;stroke-width:0.15;stroke-miterlimit:10;}
	.st6{enable-background:new    ;}
	.st7{fill:none;stroke:#231F20;stroke-width:0.14;stroke-miterlimit:10;}
	.st8{clip-path:url(#SVGID_10_);}
	.st9{clip-path:url(#SVGID_12_);}
	.st10{clip-path:url(#SVGID_14_);}
	.st11{clip-path:url(#SVGID_16_);}
	.st12{clip-path:url(#SVGID_18_);}
	.st13{clip-path:url(#SVGID_20_);}
	.st14{opacity:0.5;}
	.st15{clip-path:url(#SVGID_22_);}
	.st16{fill:#231F20;}
	.st17{clip-path:url(#SVGID_24_);}
	.st18{clip-path:url(#SVGID_26_);}
	.st19{fill:none;stroke:#FFFFFF;stroke-width:0.13;stroke-miterlimit:10;}
	.st20{clip-path:url(#SVGID_28_);}
	.st21{clip-path:url(#SVGID_30_);}
	.st22{clip-path:url(#SVGID_32_);}
	.st23{fill:none;stroke:#231F20;stroke-width:0.14;stroke-linejoin:bevel;}
	.st24{clip-path:url(#SVGID_34_);}
	.st25{clip-path:url(#SVGID_36_);}
	.st26{clip-path:url(#SVGID_38_);}
	.st27{clip-path:url(#SVGID_40_);}
	.st28{clip-path:url(#SVGID_42_);}
	.st29{clip-path:url(#SVGID_44_);}
	.st30{clip-path:url(#SVGID_46_);}
	.st31{clip-path:url(#SVGID_48_);}
	.st32{clip-path:url(#SVGID_50_);}
	.st33{clip-path:url(#SVGID_52_);}
	.st34{clip-path:url(#SVGID_54_);}
	.st35{clip-path:url(#SVGID_56_);}
	.st36{clip-path:url(#SVGID_58_);}
	.st37{fill:none;stroke:#D1D3D4;stroke-width:0.5;stroke-miterlimit:10;}
	.st38{clip-path:url(#SVGID_60_);}
	.st39{fill:none;stroke:#D1D3D4;stroke-width:1.09;stroke-miterlimit:10;}
</style>
<title>residence_A_16_key</title>
<g>
	<g>
		<g>
			<defs>
				<rect id="SVGID_1_" x="29.8" y="122.7" width="144.5" height="78.6"/>
			</defs>
			<clipPath id="SVGID_2_">
				<use xlink:href="#SVGID_1_"  style="overflow:visible;"/>
			</clipPath>
			<g class="st0">
				<g>
					<defs>
						<rect id="SVGID_3_" x="29.8" y="122.7" width="144.5" height="78.6"/>
					</defs>
					<clipPath id="SVGID_4_">
						<use xlink:href="#SVGID_3_"  style="overflow:visible;"/>
					</clipPath>
					<g class="st1">
						<path class="st2" d="M71.9,186.1c0.9-0.1,1.7,0.6,1.8,1.5h-0.9c-0.1-0.4-0.5-0.7-0.9-0.7c-0.7,0-1.1,0.6-1.1,1.4
							s0.4,1.4,1.1,1.4c0.4,0,0.8-0.3,0.9-0.7h0.9c-0.1,0.9-0.9,1.5-1.8,1.5c-1.2-0.1-2.1-1.2-2-2.4C70,187,70.8,186.2,71.9,186.1z"
							/>
						<path class="st2" d="M77.9,186.1l1.6,4.3h-0.9l-0.4-1h-1.6l-0.4,1h-0.9l1.7-4.3H77.9z M76.9,188.6h1l-0.5-1.4L76.9,188.6z"/>
						<path class="st2" d="M81,186.1h3.7v0.8h-1.4v3.5h-0.9v-3.5H81V186.1z"/>
						<path class="st2" d="M90.5,186.1v4.3h-0.9v-1.8h-2v1.8h-0.9v-4.3h0.9v1.7h2v-1.7H90.5z"/>
						<path class="st2" d="M95.8,186.1v0.8h-2v0.9h1.8v0.8h-1.9v1h2v0.8h-2.9v-4.3L95.8,186.1z"/>
						<path class="st2" d="M98.9,188.8v1.6H98v-4.3h1.8c0.7-0.1,1.4,0.4,1.5,1.1c0,0.1,0,0.2,0,0.2c0,0.6-0.4,1.2-1,1.3l1.1,1.7h-1
							l-1.1-1.6H98.9z M98.9,188.1h0.8c0.4,0,0.7-0.2,0.7-0.6s-0.2-0.6-0.7-0.6h-0.8V188.1z"/>
						<path class="st2" d="M104.4,190.4h-0.9v-4.3h0.9V190.4z"/>
						<path class="st2" d="M110.3,190.4h-0.7l-2-2.9v2.9h-0.9v-4.3h0.8l1.9,2.7v-2.7h0.9L110.3,190.4z"/>
						<path class="st2" d="M115.6,186.1v0.8h-2v0.9h1.8v0.8h-1.8v1h2v0.8h-2.9v-4.3L115.6,186.1z"/>
						<path class="st2" d="M120.9,186.1h0.9v3.5h2v0.8h-2.9V186.1z"/>
						<path class="st2" d="M129.6,190.4h-0.7l-2-2.9v2.9H126v-4.3h0.8l1.9,2.7v-2.7h0.9L129.6,190.4z"/>
					</g>
				</g>
				<path class="st2" d="M33.6,143.3c-0.8,0-1.2-0.6-1.2-1.4V140h4.3v1.6c0,0.9-0.4,1.4-1.2,1.4c-0.4,0-0.8-0.2-0.9-0.6
					C34.5,143,34,143.3,33.6,143.3z M33.1,140.9v0.8c0,0.4,0.2,0.6,0.5,0.6s0.5-0.2,0.5-0.6v-0.8H33.1z M34.9,141.6
					c0,0.4,0.2,0.6,0.5,0.6s0.5-0.2,0.5-0.6v-0.7h-1L34.9,141.6z"/>
				<path class="st2" d="M34,146.3h-1.6v-0.9h4.3v1.8c0.1,0.7-0.4,1.4-1.1,1.5c-0.1,0-0.2,0-0.2,0c-0.6,0-1.2-0.4-1.3-1l-1.7,1.1v-1
					l1.6-1.1V146.3z M34.7,146.3v0.8c0,0.4,0.2,0.7,0.6,0.7s0.6-0.2,0.6-0.7v-0.8H34.7z"/>
				<path class="st2" d="M32.3,152.7c-0.1-1.2,0.8-2.3,2-2.4c1.2-0.1,2.3,0.8,2.4,2c0.1,1.2-0.8,2.3-2,2.4c-0.1,0-0.2,0-0.2,0
					c-1.1,0.1-2.1-0.7-2.2-1.9C32.3,152.8,32.3,152.8,32.3,152.7z M35.9,152.7c0-0.7-0.6-1.1-1.4-1.1s-1.4,0.4-1.4,1.1
					s0.6,1.1,1.4,1.1S35.9,153.4,35.9,152.7z"/>
				<path class="st2" d="M36.7,159l-4.3,1.6v-0.9l1-0.4v-1.6l-1-0.4v-0.9l4.3,1.6V159z M34.2,158v1l1.4-0.5L34.2,158z"/>
				<path class="st2" d="M36.7,162.7v1.5c0,1.2-1,2.1-2.2,2.1c-1.2,0-2.1-1-2.1-2.1v-1.5H36.7z M33.2,164.1c0,0.8,0.6,1.4,1.4,1.4
					s1.4-0.6,1.4-1.4v-0.6h-2.7V164.1z"/>
				<path class="st2" d="M36.7,171.1l-2.9,0.8l2.9,0.7v0.9l-4.3-1.1v-0.8l2.8-0.8l-2.8-0.8v-0.8l4.3-1.1v0.9l-2.9,0.7l2.9,0.8V171.1
					z"/>
				<path class="st2" d="M36.7,177.4l-4.3,1.6v-0.9l1-0.4v-1.6l-1-0.4v-0.9l4.3,1.6V177.4z M34.2,176.4v1.1l1.4-0.5L34.2,176.4z"/>
				<path class="st2" d="M36.7,183.4v0.9l-2.7-1.6h-1.6v-0.9H34l2.7-1.6v1l-1.8,1.1L36.7,183.4z"/>
				<path class="st2" d="M167.1,132.1v0.9h-3.5v2h-0.8v-2.9H167.1z"/>
				<path class="st2" d="M167.1,139.4l-4.3,1.6v-0.9l1-0.4v-1.6l-1-0.4v-0.9l4.3,1.6V139.4z M164.6,138.4v1.1l1.4-0.5L164.6,138.4z"
					/>
				<path class="st2" d="M162.8,143.1h4.3v2.9h-0.8v-2h-1.1v1.8h-0.8V144h-1.6V143.1z"/>
				<path class="st2" d="M167.1,150.1l-4.3,1.6v-0.9l1-0.4v-1.6l-1-0.4v-0.9l4.3,1.6V150.1z M164.6,149.1v1.1l1.4-0.5L164.6,149.1z"
					/>
				<path class="st2" d="M167.1,156.1v0.9l-2.7-1.6h-1.6v-0.9h1.6l2.7-1.6v1l-1.8,1L167.1,156.1z"/>
				<path class="st2" d="M167.1,162h-0.8v-2h-0.9v1.9h-0.8V160h-1v2h-0.8v-2.9h4.3L167.1,162z"/>
				<path class="st2" d="M167.1,164v3.7h-0.8v-1.4h-3.5v-0.9h3.5V164H167.1z"/>
				<path class="st2" d="M167.1,169.5v3.7h-0.8v-1.4h-3.5v-0.9h3.5v-1.4H167.1z"/>
				<path class="st2" d="M167.1,178.2h-0.8v-2h-0.9v1.8h-0.8v-1.8h-1v2h-0.8v-2.9h4.3L167.1,178.2z"/>
				<path class="st2" d="M164,184.1c-0.4,0.1-0.6,0.5-0.6,0.9c0,0.4,0.2,0.7,0.5,0.7s0.4-0.2,0.5-0.5l0.2-0.8
					c0.1-0.6,0.5-1.1,1.2-1.1c0.8,0,1.4,0.7,1.3,1.4c0,0,0,0.1,0,0.1c0.1,0.8-0.5,1.5-1.2,1.7v-0.9c0.3-0.1,0.5-0.4,0.5-0.8
					c0-0.4-0.2-0.7-0.5-0.7s-0.4,0.2-0.5,0.5l-0.2,0.8c-0.2,0.7-0.6,1.1-1.2,1.1c-0.8,0-1.3-0.7-1.3-1.6c-0.1-0.8,0.5-1.6,1.3-1.8
					V184.1z"/>
				<path class="st2" d="M167.1,188.4v3.7h-0.8v-1.4h-3.5v-0.9h3.5v-1.4H167.1z"/>
				<path class="st2" d="M75.1,132.4h0.9v3.5h2v0.8H75L75.1,132.4z"/>
				<path class="st2" d="M82.9,132.4v0.8h-2v0.9h1.8v0.8h-1.9v1h2v0.8H80v-4.3L82.9,132.4z"/>
				<path class="st2" d="M86.8,136.8c-1.2,0.1-2.3-0.8-2.4-2c-0.1-1.2,0.8-2.3,2-2.4c1.2-0.1,2.3,0.8,2.4,2c0,0.1,0,0.2,0,0.2
					c0.1,1.1-0.7,2.1-1.9,2.2C86.9,136.8,86.9,136.8,86.8,136.8z M86.8,133.1c-0.7,0-1.1,0.6-1.1,1.4s0.4,1.4,1.1,1.4
					s1.1-0.6,1.1-1.4S87.5,133.1,86.8,133.1z"/>
				<path class="st2" d="M94.5,136.7h-0.7l-2-2.9v2.9h-0.9v-4.3h0.8l1.9,2.7v-2.7h0.9L94.5,136.7z"/>
				<path class="st2" d="M98.9,132.4l1.6,4.3h-0.9l-0.4-1h-1.6l-0.4,1h-0.9l1.7-4.3H98.9z M97.9,134.9H99l-0.5-1.4L97.9,134.9z"/>
				<path class="st2" d="M103.4,135.1v1.6h-0.9v-4.3h1.8c0.7-0.1,1.4,0.4,1.5,1.1c0,0.1,0,0.2,0,0.2c0,0.6-0.4,1.2-1,1.3l1.1,1.7h-1
					l-1.1-1.6H103.4z M103.4,134.4h0.8c0.4,0,0.7-0.2,0.7-0.6s-0.2-0.6-0.7-0.6h-0.8V134.4z"/>
				<path class="st2" d="M107.8,132.4h1.5c1.2,0.1,2.1,1.1,2,2.3c-0.1,1.1-0.9,1.9-2,2h-1.5V132.4z M109.3,135.9
					c0.8,0,1.4-0.6,1.4-1.4s-0.6-1.4-1.4-1.4h-0.6v2.7H109.3z"/>
				<path class="st2" d="M117,135.5c0.1,0.4,0.5,0.6,0.9,0.6c0.4,0,0.7-0.2,0.7-0.5s-0.2-0.4-0.5-0.5l-0.8-0.2
					c-0.6-0.1-1.1-0.5-1.1-1.2c0-0.8,0.7-1.4,1.4-1.3c0,0,0.1,0,0.1,0c0.8-0.1,1.5,0.4,1.7,1.2h-0.9c-0.1-0.3-0.4-0.5-0.8-0.5
					c-0.4,0-0.7,0.2-0.7,0.5s0.2,0.4,0.5,0.5l0.8,0.2c0.7,0.2,1.1,0.6,1.1,1.2c0,0.8-0.7,1.3-1.6,1.3c-0.8,0.1-1.6-0.5-1.8-1.3
					L117,135.5z"/>
				<path class="st2" d="M121.2,132.4h3.7v0.8h-1.4v3.5h-0.9v-3.5h-1.4V132.4z"/>
			</g>
		</g>
		<g>
			<defs>
				<rect id="SVGID_5_" x="104.8" y="1.3" width="90.6" height="109.4"/>
			</defs>
			<clipPath id="SVGID_6_">
				<use xlink:href="#SVGID_5_"  style="overflow:visible;"/>
			</clipPath>
			<g class="st3">
				<g>
					<defs>
						<rect id="SVGID_7_" x="104.8" y="1.3" width="90.6" height="109.3"/>
					</defs>
					<clipPath id="SVGID_8_">
						<use xlink:href="#SVGID_7_"  style="overflow:visible;"/>
					</clipPath>
					<g class="st4">
						<path class="st5" d="M-0.5,65.8l1.6,1.1v35.4l-2.5,1.4c-1.3-0.4-2.6-0.3-3.8,0.3l-1.3,0.8c-0.2,0.1-0.4,0.2-0.6,0.4"/>
					</g>
				</g>
				<polyline class="st5" points="193.9,65.5 178.2,74.4 112.2,31 				"/>
				<polyline class="st5" points="193.9,68.5 178.2,77.3 112.2,34 				"/>
				<polyline class="st5" points="193.9,71.4 178.2,80.3 112.2,37 				"/>
				<polyline class="st5" points="193.9,74.4 178.2,83.3 112.2,39.9 				"/>
				<polyline class="st5" points="193.9,77.4 178.2,86.2 112.2,42.9 				"/>
				<polyline class="st5" points="193.9,80.3 178.2,89.2 112.2,45.8 				"/>
				<polyline class="st5" points="193.9,83.3 178.2,92.2 112.2,48.8 				"/>
				<polyline class="st5" points="193.9,86.3 178.2,95.1 112.2,51.8 				"/>
				<polyline class="st5" points="193.9,89.2 178.2,98.1 112.2,54.7 				"/>
				<polyline class="st5" points="193.9,92.2 178.2,101.1 112.2,57.7 				"/>
				<polyline class="st5" points="193.9,95.1 178.2,104 112.2,60.7 				"/>
				<g class="st6">
					<path class="st2" d="M118.8,73.5c0.7,0.5,0.7,1.1,0.2,1.6l-0.6-0.5c0.2-0.2,0.2-0.5-0.2-0.8c-0.5-0.3-1.3-0.3-1.9,0.1
						c-0.6,0.4-0.8,0.8-0.3,1.2c0.4,0.3,0.8,0.3,1.2,0.2l0.6,0.5c-0.8,0.3-1.7,0.3-2.4-0.3c-0.8-0.6-0.8-1.4,0.2-2
						C116.7,72.9,118,72.9,118.8,73.5z"/>
				</g>
				<g class="st6">
					<path class="st2" d="M123.3,76.7l-2.1,2.8l-0.7-0.5l0.5-0.7l-1.2-0.8l-1.1,0.3l-0.7-0.5l4.5-1.1L123.3,76.7z M120.7,77.3
						l0.8,0.5l0.7-0.9L120.7,77.3z"/>
				</g>
				<g class="st6">
					<path class="st2" d="M125.6,78.3l2.7,1.9l-0.6,0.3l-1-0.7l-2.7,1.6l-0.7-0.5l2.7-1.6l-1-0.7L125.6,78.3z"/>
				</g>
				<g class="st6">
					<path class="st2" d="M132.7,83.2l-3.3,1.9l-0.7-0.5l1.4-0.8l-1.4-1l-1.4,0.8l-0.7-0.5l3.3-1.9l0.7,0.5l-1.3,0.8l1.4,1l1.3-0.8
						L132.7,83.2z"/>
					<path class="st2" d="M136.6,86l-0.6,0.3l-1.5-1l-0.7,0.4l1.3,0.9l-0.6,0.3l-1.3-0.9l-0.8,0.5l1.5,1l-0.6,0.4l-2.1-1.5l3.3-1.9
						L136.6,86z"/>
					<path class="st2" d="M137,88.8l-1.2,0.7l-0.6-0.5l3.3-1.9l1.3,0.9c0.7,0.5,0.7,1,0.1,1.4c-0.5,0.3-1.1,0.3-1.7,0.1l-0.4,1.3
						l-0.7-0.5l0.5-1.3L137,88.8z M137.5,88.5l0.6,0.4c0.3,0.2,0.7,0.2,1,0.1c0.3-0.2,0.3-0.4,0-0.6l-0.6-0.4L137.5,88.5z"/>
					<path class="st2" d="M139.9,92.4l-0.7-0.5l3.3-1.9l0.7,0.5L139.9,92.4z"/>
					<path class="st2" d="M144.3,95.5l-0.5-0.4l0.7-2.3l-2.2,1.3l-0.6-0.4l3.3-1.9l0.6,0.4l-0.7,2.2l2.1-1.2l0.6,0.4L144.3,95.5z"/>
					<path class="st2" d="M151.6,96.3l-0.6,0.3l-1.5-1l-0.7,0.4l1.3,0.9l-0.6,0.3l-1.3-0.9l-0.8,0.5l1.5,1l-0.6,0.4l-2.1-1.5
						l3.3-1.9L151.6,96.3z"/>
					<path class="st2" d="M155.6,99.2l0.7,0.5l-2.7,1.6l1.5,1l-0.6,0.4l-2.1-1.5L155.6,99.2z"/>
				</g>
				<g class="st6">
					<path class="st2" d="M158.8,105.5l-0.5-0.4l0.7-2.3l-2.2,1.3l-0.6-0.4l3.3-1.9l0.6,0.4l-0.7,2.2l2.1-1.2l0.6,0.4L158.8,105.5z"
						/>
				</g>
				<polyline class="st7" points="193.9,62.5 178.2,71.4 112.2,28.1 				"/>
				<line class="st7" x1="178.2" y1="68.4" x2="178.2" y2="106.9"/>
				<line class="st7" x1="186.2" y1="101.4" x2="185.2" y2="102"/>
				<polyline class="st7" points="186.2,101.4 186.8,101.8 193.9,97.7 193.9,59.5 				"/>
				<polyline class="st7" points="193.9,59.5 178.2,68.4 112.2,25 				"/>
				<g>
					<defs>
						<rect id="SVGID_9_" x="104.8" y="1.3" width="90.6" height="109.3"/>
					</defs>
					<clipPath id="SVGID_10_">
						<use xlink:href="#SVGID_9_"  style="overflow:visible;"/>
					</clipPath>
					<g class="st8">
						<path class="st7" d="M186.2,101.4v-0.8c0-0.1-0.1-0.3-0.2-0.4"/>
						<path class="st7" d="M186.8,101.8v-1.2c0-0.3-0.2-0.7-0.9-0.3c-0.4,0.2-0.7,0.7-0.7,1.2v1.4l-7,4.1l-9.2-6.4l-11.7-8l-9.8-6.7
							l-14.5-10l-20.7-15V25l1.4-0.9"/>
					</g>
				</g>
				<line class="st7" x1="180.7" y1="61.1" x2="180.7" y2="59.6"/>
				<line class="st7" x1="121.7" y1="27.8" x2="121.7" y2="30.5"/>
				<line class="st7" x1="180.7" y1="61.1" x2="181.6" y2="61.7"/>
				<line class="st7" x1="180.7" y1="59.6" x2="181.6" y2="60.1"/>
				<line class="st7" x1="122.1" y1="12.1" x2="122.1" y2="10"/>
				<line class="st7" x1="122.1" y1="12.2" x2="122.1" y2="9.9"/>
				<line class="st7" x1="121.8" y1="25.8" x2="121.8" y2="21.1"/>
				<polyline class="st7" points="123.3,29.5 121.7,30.5 113.7,25.2 113.7,22.6 116.4,21 				"/>
				<polyline class="st7" points="122.1,18.3 125.9,16.1 125.9,11.1 125.9,11.1 124.2,10 				"/>
				<g>
					<defs>
						<rect id="SVGID_11_" x="104.8" y="1.3" width="90.6" height="109.3"/>
					</defs>
					<clipPath id="SVGID_12_">
						<use xlink:href="#SVGID_11_"  style="overflow:visible;"/>
					</clipPath>
					<g class="st9">
						<path class="st7" d="M121.3,14.6c0.3,0.9,0.1,1.6-0.6,1.6s-1.4-0.7-1.7-1.6S119,13,119.7,13S121,13.7,121.3,14.6z"/>
						<path class="st7" d="M122.9,14.7c-0.3,0.9-0.1,1.6,0.6,1.6s1.4-0.7,1.7-1.6s0.1-1.6-0.5-1.6S123.2,13.8,122.9,14.7z"/>
					</g>
				</g>
				<line class="st7" x1="121.8" y1="21.1" x2="127.9" y2="17.6"/>
				<line class="st7" x1="116.4" y1="17.6" x2="121.8" y2="21.2"/>
				<line class="st7" x1="113.7" y1="22.6" x2="121.7" y2="27.8"/>
				<polyline class="st7" points="125.9,15.8 126.2,16.1 126.2,17.6 126.2,17.7 122.1,20.2 122.1,20 122.1,13.4 				"/>
				<polyline class="st7" points="118,16.7 116.4,17.6 116.4,22.2 116.4,22.3 121.7,25.8 				"/>
				<polyline class="st7" points="128.1,20 131.3,22.1 131.3,23.9 				"/>
				<line class="st7" x1="122" y1="13.5" x2="125.9" y2="11.2"/>
				<line class="st7" x1="118.5" y1="11.1" x2="120" y2="10.2"/>
				<line class="st7" x1="118.5" y1="11.1" x2="122.1" y2="13.6"/>
				<polyline class="st7" points="126.2,16.5 128,17.6 128,17.6 128,22.1 127.9,22.2 121.7,25.9 				"/>
				<line class="st7" x1="120.1" y1="8.6" x2="122.1" y2="10"/>
				<line class="st7" x1="123.2" y1="8" x2="124.3" y2="8.7"/>
				<g>
					<defs>
						<rect id="SVGID_13_" x="104.8" y="1.3" width="90.6" height="109.3"/>
					</defs>
					<clipPath id="SVGID_14_">
						<use xlink:href="#SVGID_13_"  style="overflow:visible;"/>
					</clipPath>
					<g class="st10">
						<path class="st7" d="M120.2,6.2c0,0.1-0.2,0.3-0.2,0.3l0.1,0.3c0.1,0.2,0.6,0.3,1.4,0.1s2.4-1.1,2.6-2l-0.3-0.5
							c-0.2,0-0.3,0-0.5,0"/>
					</g>
				</g>
				<polyline class="st7" points="120.9,3 122,3.5 122.4,3.4 123.1,2.3 				"/>
				<g>
					<defs>
						<rect id="SVGID_15_" x="104.8" y="1.3" width="90.6" height="109.3"/>
					</defs>
					<clipPath id="SVGID_16_">
						<use xlink:href="#SVGID_15_"  style="overflow:visible;"/>
					</clipPath>
					<g class="st11">
						<path class="st7" d="M123.9,5.4c0.1,0.3,0.1,0.5,0,0.8c-0.2,1-1.2,1.7-2.2,1.5c-0.4-0.1-0.7-0.3-1-0.5l-0.1-0.1"/>
						<path class="st7" d="M120.3,6.6c-0.1-0.1-0.1-0.3-0.1-0.5c-0.2-1,0.5-2,1.5-2.1c0,0,0,0,0,0c0.6-0.1,1.2,0.1,1.6,0.6
							c0.1,0.1,0.2,0.3,0.3,0.4"/>
						<path class="st7" d="M123.4,8.2c0-0.1,0-0.1,0-0.2c0,0-0.1,0-0.1,0c-0.1,0-0.2,0-0.3,0c0,0,0-0.1,0-0.1l0,0l0.1-0.4"/>
						<path class="st7" d="M122.5,8.2c0,0.1,0.1,0.2,0.1,0.2s0.2,0.1,0.4,0"/>
					</g>
				</g>
				<polyline class="st7" points="121.5,8.9 121.5,8.8 121.8,8.4 121.7,8.2 121.3,8.1 120.9,7.9 121.1,7.4 				"/>
				<line class="st7" x1="118.5" y1="15.9" x2="122.1" y2="18.3"/>
				<polyline class="st7" points="122.1,20.2 118.1,17.6 118,17.6 118,16.2 118,16.2 118.4,15.9 118.5,15.9 118.5,11.1 				"/>
				<polyline class="st7" points="121.1,7.9 120,8.7 120,8.7 120,10.8 122.1,12.2 122.1,12.2 124.2,11 124.2,8.8 124.2,8.8 
					122.1,10 				"/>
				<line class="st7" x1="157.4" y1="47.4" x2="170.5" y2="55.8"/>
				<polyline class="st7" points="187.4,58.3 184.5,60 181.6,58.2 				"/>
				<line class="st7" x1="184.5" y1="64.2" x2="184.5" y2="60"/>
				<polyline class="st7" points="181.6,59.1 175.6,62.6 123.3,29.3 				"/>
				<line class="st5" x1="193.9" y1="59.6" x2="131.3" y2="23.3"/>
				<line class="st5" x1="172.4" y1="47.8" x2="135.3" y2="26.3"/>
				<line class="st7" x1="175.6" y1="64.2" x2="175.6" y2="62.6"/>
				<line class="st7" x1="170.5" y1="57.6" x2="170.5" y2="55.8"/>
				<polygon class="st7" points="178.3,51.1 178.3,53 170.5,57.6 157.4,49.2 157.4,47.4 163.2,44 170.9,48.7 172.5,47.7 				"/>
				<line class="st7" x1="178.3" y1="51.2" x2="170.5" y2="55.7"/>
				<line class="st7" x1="135.3" y1="26.2" x2="129.6" y2="29.5"/>
				<polygon class="st7" points="124.8,28.4 124.8,26.5 124.8,26.5 130.2,23.3 135.3,26.2 135.3,27.8 135.3,27.9 129.6,31.4 				"/>
				<polyline class="st7" points="180.7,61.1 175.6,64.2 123.3,30.8 123.3,30.8 123.3,29.3 124.8,28.4 				"/>
				<line class="st7" x1="129.6" y1="29.5" x2="124.8" y2="26.5"/>
				<line class="st7" x1="129.6" y1="31.3" x2="129.6" y2="29.5"/>
				<polyline class="st7" points="186.3,57.6 186.7,57.3 186.7,56.2 178.3,51.3 				"/>
				<line class="st7" x1="186.7" y1="56.1" x2="186.1" y2="56.5"/>
				<line class="st7" x1="131.3" y1="22.2" x2="121.7" y2="27.8"/>
				<polyline class="st7" points="183.2,57.2 181.6,58.2 181.6,62.4 184.5,64.2 187.4,62.5 187.4,58.3 186.2,57.5 				"/>
				<g>
					<defs>
						<rect id="SVGID_17_" x="104.8" y="1.3" width="90.6" height="109.3"/>
					</defs>
					<clipPath id="SVGID_18_">
						<use xlink:href="#SVGID_17_"  style="overflow:visible;"/>
					</clipPath>
					<g class="st12">
						<path class="st7" d="M184.5,55.7c-0.8,0.1-1.3,0.8-1.3,1.6v1.1c0,0.4,0.7,0.8,1.5,0.8s1.5-0.3,1.5-0.8v-1.1
							c0-0.8-0.5-1.4-1.2-1.6v-0.2c0-0.1-0.1-0.2-0.3-0.2s-0.2,0.1-0.2,0.2L184.5,55.7z"/>
					</g>
				</g>
				<g>
					<defs>
						<rect id="SVGID_19_" x="104.8" y="1.3" width="90.6" height="109.3"/>
					</defs>
					<clipPath id="SVGID_20_">
						<use xlink:href="#SVGID_19_"  style="overflow:visible;"/>
					</clipPath>
					<g class="st13">
						<g class="st14">
							<g>
								<defs>
									<rect id="SVGID_21_" x="123.3" y="29.3" width="8.6" height="7"/>
								</defs>
								<clipPath id="SVGID_22_">
									<use xlink:href="#SVGID_21_"  style="overflow:visible;"/>
								</clipPath>
								<g class="st15">
									<polygon class="st16" points="123.3,29.3 123.3,30.8 131.9,36.3 131.9,34.8 									"/>
								</g>
							</g>
						</g>
					</g>
				</g>
				<polygon class="st16" points="124.8,26.5 124.8,28.4 129.6,31.4 129.6,29.5 				"/>
				<g>
					<defs>
						<rect id="SVGID_23_" x="104.8" y="1.3" width="90.6" height="109.3"/>
					</defs>
					<clipPath id="SVGID_24_">
						<use xlink:href="#SVGID_23_"  style="overflow:visible;"/>
					</clipPath>
					<g class="st17">
						<g class="st14">
							<g>
								<defs>
									<rect id="SVGID_25_" x="122" y="30.8" width="9.8" height="6.3"/>
								</defs>
								<clipPath id="SVGID_26_">
									<use xlink:href="#SVGID_25_"  style="overflow:visible;"/>
								</clipPath>
								<g class="st18">
									<polygon class="st16" points="123.3,30.8 122,31.6 130.7,37.2 131.9,36.3 									"/>
								</g>
							</g>
						</g>
					</g>
				</g>
				<polygon class="st16" points="124.8,28.4 123.3,29.2 128.2,32.3 129.6,31.4 				"/>
				<line class="st19" x1="124.7" y1="28.3" x2="129.6" y2="31.4"/>
			</g>
		</g>
		<g>
			<defs>
				<rect id="SVGID_27_" x="5.9" y="2.2" width="87.8" height="109.4"/>
			</defs>
			<clipPath id="SVGID_28_">
				<use xlink:href="#SVGID_27_"  style="overflow:visible;"/>
			</clipPath>
			<g class="st20">
				<g class="st6">
					<path class="st2" d="M14.2,81.5l0.7,0.4l-2.6,1.7l1.5,0.9L13.2,85L11,83.6L14.2,81.5z"/>
					<path class="st2" d="M20.4,85.4l-0.6,0.4l-1.5-1l-0.7,0.5l1.4,0.9l-0.6,0.4L17,85.6l-0.8,0.5l1.5,1l-0.6,0.4l-2.2-1.4l3.2-2.1
						L20.4,85.4z"/>
					<path class="st2" d="M20.3,89.5c-0.9-0.6-0.8-1.4,0.1-2c1-0.6,2.3-0.7,3.2-0.1c0.9,0.6,0.8,1.4-0.1,2.1
						C22.5,90,21.2,90.1,20.3,89.5z M23,87.7c-0.5-0.3-1.3-0.2-1.9,0.2c-0.6,0.4-0.7,0.9-0.2,1.2c0.5,0.3,1.3,0.2,1.9-0.2
						C23.4,88.5,23.5,88,23,87.7z"/>
					<path class="st2" d="M26.3,93.2l-0.5-0.3l0.6-2.4l-2.1,1.4l-0.7-0.4l3.2-2.1l0.6,0.4L26.9,92l2-1.3l0.7,0.4L26.3,93.2z"/>
				</g>
				<g class="st6">
					<path class="st2" d="M33.1,93.3l-2,2.9l-0.7-0.4l0.5-0.7l-1.2-0.8l-1.1,0.3L28,94.2l4.5-1.3L33.1,93.3z M30.5,94.1l0.8,0.5
						l0.7-0.9L30.5,94.1z"/>
				</g>
				<g class="st6">
					<path class="st2" d="M34.7,96.9l-1.2,0.8l-0.7-0.4l3.2-2.1l1.3,0.8c0.7,0.4,0.8,0.9,0.1,1.4c-0.5,0.3-1.1,0.4-1.7,0.2l-0.4,1.4
						l-0.8-0.5l0.4-1.3L34.7,96.9z M35.2,96.5l0.6,0.4c0.3,0.2,0.7,0.2,1,0c0.3-0.2,0.3-0.4-0.1-0.6l-0.6-0.4L35.2,96.5z"/>
				</g>
				<g class="st6">
					<path class="st2" d="M40.3,97.8l1.2,0.7c1,0.6,1,1.4,0,2.1c-1,0.6-2.2,0.7-3.2,0.1l-1.2-0.7L40.3,97.8z M38.8,100.2
						c0.6,0.4,1.4,0.3,2-0.1c0.6-0.4,0.7-0.9,0.1-1.3l-0.5-0.3l-2,1.3L38.8,100.2z"/>
				</g>
				<g class="st6">
					<path class="st2" d="M45.4,103.9c-0.2,0.2-0.1,0.5,0.2,0.7c0.3,0.2,0.7,0.2,1,0.1c0.2-0.1,0.2-0.3,0-0.5l-0.5-0.5
						c-0.4-0.4-0.5-0.7,0.1-1.1c0.6-0.4,1.5-0.3,2.2,0.1c0.7,0.5,0.8,1,0.3,1.4l-0.7-0.4c0.1-0.2,0.1-0.4-0.2-0.6
						c-0.3-0.2-0.7-0.2-0.9-0.1c-0.2,0.1-0.2,0.3,0,0.5l0.5,0.5c0.4,0.4,0.4,0.8-0.1,1.1c-0.6,0.4-1.5,0.3-2.2-0.1
						c-0.7-0.5-0.9-1-0.4-1.5L45.4,103.9z"/>
				</g>
				<g class="st6">
					<path class="st2" d="M51,104.5l2.8,1.7l-0.6,0.4l-1.1-0.7l-2.6,1.7l-0.7-0.4l2.6-1.7l-1-0.7L51,104.5z"/>
				</g>
				<line class="st5" x1="78.8" y1="68.2" x2="78.8" y2="63.6"/>
				<line class="st5" x1="16.5" y1="30.9" x2="16.5" y2="27"/>
				<line class="st5" x1="29.4" y1="35.9" x2="29.4" y2="38"/>
				<line class="st5" x1="23.7" y1="32.7" x2="23.7" y2="34.8"/>
				<line class="st5" x1="31" y1="35" x2="31" y2="37.2"/>
				<line class="st7" x1="31" y1="37.2" x2="29.4" y2="38.1"/>
				<line class="st7" x1="30.9" y1="35.1" x2="29.4" y2="36"/>
				<line class="st7" x1="70.3" y1="53.6" x2="64" y2="57.3"/>
				<line class="st7" x1="75.1" y1="57.5" x2="69.7" y2="60.6"/>
				<line class="st5" x1="38.5" y1="39.4" x2="38.5" y2="41.5"/>
				<line class="st7" x1="43.7" y1="37.7" x2="69.1" y2="54.3"/>
				<line class="st7" x1="70.2" y1="53.6" x2="75.1" y2="56.8"/>
				<line class="st7" x1="43.7" y1="37" x2="69.6" y2="54"/>
				<line class="st7" x1="13.4" y1="29.6" x2="16" y2="31.1"/>
				<line class="st7" x1="23.7" y1="32.7" x2="29.4" y2="36"/>
				<line class="st7" x1="31" y1="35.1" x2="38.6" y2="39.5"/>
				<line class="st7" x1="30.9" y1="37.2" x2="38.5" y2="41.6"/>
				<line class="st7" x1="64" y1="57.3" x2="69.7" y2="60.6"/>
				<line class="st5" x1="78.7" y1="54.8" x2="78.7" y2="52.5"/>
				<polyline class="st5" points="69.2,64.9 68.3,64.4 67.1,65.1 18,36.6 18,34.2 				"/>
				<polyline class="st5" points="30.3,28.8 25.5,25.6 14.4,32.1 67.1,62.7 				"/>
				<line class="st5" x1="67.1" y1="62.7" x2="67.1" y2="65.1"/>
				<line class="st5" x1="68.3" y1="62" x2="67.1" y2="62.7"/>
				<polyline class="st5" points="68.3,64.4 68.3,62 64,59.5 				"/>
				<line class="st5" x1="78.8" y1="72.7" x2="78.8" y2="70"/>
				<polyline class="st5" points="84.6,62.6 87.8,64.8 87.8,67.4 78.8,72.7 69.2,67.1 69.2,64.4 73.1,62.2 				"/>
				<polyline class="st5" points="87.8,64.8 78.8,70 69.2,64.4 				"/>
				<polyline class="st7" points="15.4,32.7 15.4,34 18,35.5 				"/>
				<line class="st7" x1="23.7" y1="34.8" x2="29.4" y2="38.1"/>
				<line class="st7" x1="64" y1="59.5" x2="64" y2="57.3"/>
				<line class="st7" x1="69.7" y1="64.1" x2="69.7" y2="60.6"/>
				<polyline class="st7" points="82.5,53.7 78.8,55.8 75.1,53.7 				"/>
				<polyline class="st5" points="82.5,58.4 82.8,58.6 82.8,60.3 78.8,62.7 74.7,60.3 74.7,58.8 75.1,58.5 				"/>
				<line class="st5" x1="78.8" y1="62.6" x2="78.8" y2="55.9"/>
				<polyline class="st5" points="82.8,59.1 84.6,60.2 84.6,64.8 78.8,68.3 73,64.9 73,60.2 74.7,59.3 				"/>
				<polyline class="st5" points="84.6,60.2 78.8,63.6 73.1,60.3 				"/>
				<polyline class="st5" points="13.4,29.6 7.8,32.9 7.8,72.1 				"/>
				<polyline class="st5" points="19.6,26 23.5,23.7 30.9,28.5 				"/>
				<line class="st5" x1="78.8" y1="74" x2="78.7" y2="109.4"/>
				<line class="st5" x1="78.7" y1="109.3" x2="40.9" y2="87.4"/>
				<polyline class="st5" points="89.5,73.6 78.8,79.9 7.9,38.8 				"/>
				<polyline class="st5" points="89.5,76.6 78.8,82.8 7.9,41.8 				"/>
				<polyline class="st5" points="89.5,79.5 78.8,85.8 7.9,44.7 				"/>
				<polyline class="st5" points="89.5,82.5 78.8,88.7 7.9,47.7 				"/>
				<polyline class="st5" points="89.5,85.4 78.8,91.7 7.9,50.6 				"/>
				<polyline class="st5" points="89.5,88.4 78.8,94.6 7.9,53.6 				"/>
				<polyline class="st5" points="89.5,91.3 78.8,97.6 7.9,56.5 				"/>
				<polyline class="st5" points="89.5,94.3 78.8,100.5 7.9,59.5 				"/>
				<line class="st5" x1="89.5" y1="97.2" x2="86.9" y2="98.7"/>
				<polyline class="st5" points="81.3,102 78.8,103.5 7.9,62.4 				"/>
				<line class="st5" x1="86.9" y1="101.6" x2="89.5" y2="100.2"/>
				<polyline class="st5" points="81.3,105 78.8,106.4 7.9,65.4 				"/>
				<polyline class="st5" points="89.5,70.7 78.8,76.9 7.9,35.9 				"/>
				<line class="st5" x1="37.9" y1="85.7" x2="7.9" y2="68.3"/>
				<polyline class="st7" points="15,24.3 13.4,25.3 13.4,29.6 				"/>
				<polyline class="st7" points="18.1,24.3 19.6,25.2 19.6,29 				"/>
				<polyline class="st7" points="13.4,25.3 16.5,27 19.6,25.2 				"/>
				<polyline class="st5" points="80,50.8 80.8,51.3 80.8,53.6 78.7,54.8 76.6,53.6 76.6,51.3 77.7,50.6 				"/>
				<polyline class="st7" points="80.8,51.3 78.7,52.5 76.6,51.3 				"/>
				<g>
					<defs>
						<rect id="SVGID_29_" x="6.1" y="2.2" width="87.6" height="109.3"/>
					</defs>
					<clipPath id="SVGID_30_">
						<use xlink:href="#SVGID_29_"  style="overflow:visible;"/>
					</clipPath>
					<g class="st21">
						<path class="st5" d="M76.8,48.8c0,0.1-0.2,0.3-0.2,0.3l0.1,0.3c0.1,0.2,0.6,0.3,1.4,0.1s2.4-1.1,2.6-2l-0.3-0.5
							c-0.2,0-0.3,0-0.5,0"/>
					</g>
				</g>
				<polyline class="st5" points="77.5,45.6 78.6,46.1 79,46 79.8,44.9 				"/>
				<g>
					<defs>
						<rect id="SVGID_31_" x="6.1" y="2.2" width="87.6" height="109.3"/>
					</defs>
					<clipPath id="SVGID_32_">
						<use xlink:href="#SVGID_31_"  style="overflow:visible;"/>
					</clipPath>
					<g class="st22">
						<path class="st5" d="M80.5,48c0.2,1-0.4,2-1.4,2.2c-0.6,0.1-1.3-0.1-1.8-0.5l-0.1-0.1"/>
						<path class="st5" d="M76.9,49.2c-0.1-0.1-0.1-0.3-0.1-0.5c-0.2-1,0.5-2,1.5-2.1c0,0,0,0,0,0c0.6-0.1,1.2,0.1,1.6,0.6
							c0.1,0.1,0.2,0.3,0.3,0.4"/>
						<path class="st5" d="M77.9,57.2c0.3,0.9,0.1,1.6-0.5,1.6s-1.4-0.7-1.7-1.6s-0.1-1.6,0.6-1.6S77.6,56.3,77.9,57.2z"/>
						<path class="st5" d="M79.5,57.3c-0.3,0.9-0.1,1.6,0.6,1.6s1.4-0.7,1.7-1.6s0.1-1.6-0.5-1.6S79.8,56.4,79.5,57.3z"/>
						<path class="st23" d="M80,50.8c0-0.1,0-0.1,0-0.2c0,0-0.1-0.1-0.1-0.1c-0.1,0-0.2,0-0.3,0.1c0,0,0-0.1,0-0.1l0,0l0.1-0.4"/>
						<path class="st7" d="M79.1,50.8c0,0.1,0.1,0.2,0.1,0.2s0.2,0.1,0.4,0"/>
					</g>
				</g>
				<polyline class="st7" points="78.1,51.5 78.1,51.4 78.4,51 78.3,50.8 77.9,50.8 77.5,50.5 77.7,50 				"/>
				<polyline class="st5" points="76.6,52.8 75.1,53.7 75.1,58.7 78.8,60.9 82.5,58.7 82.5,53.7 80.8,52.7 				"/>
				<g>
					<defs>
						<rect id="SVGID_33_" x="6.1" y="2.2" width="87.6" height="109.3"/>
					</defs>
					<clipPath id="SVGID_34_">
						<use xlink:href="#SVGID_33_"  style="overflow:visible;"/>
					</clipPath>
					<g class="st24">
						<path class="st7" d="M16.3,22.6c-0.8,0.1-1.3,0.8-1.3,1.6v1.1c0,0.4,0.7,0.8,1.5,0.8s1.5-0.4,1.5-0.8v-1.1
							c0-0.8-0.5-1.4-1.3-1.6v-0.2c0-0.1-0.1-0.2-0.2-0.2s-0.3,0.1-0.3,0.2L16.3,22.6z"/>
					</g>
				</g>
				<polyline class="st5" points="89.5,67.7 78.8,74 7.9,32.9 				"/>
				<polyline class="st5" points="40.9,87.9 38.8,86.8 36.9,87.8 39.5,89.3 40.9,88.5 				"/>
				<line class="st5" x1="40.9" y1="87.9" x2="38.8" y2="86.7"/>
				<line class="st5" x1="40.9" y1="89.7" x2="39.9" y2="89.1"/>
				<g>
					<defs>
						<rect id="SVGID_35_" x="6.1" y="2.2" width="87.6" height="109.3"/>
					</defs>
					<clipPath id="SVGID_36_">
						<use xlink:href="#SVGID_35_"  style="overflow:visible;"/>
					</clipPath>
					<g class="st25">
						<path class="st5" d="M39.2,84.4c-0.2,0.2-0.4,0.5-0.4,0.9v1.5"/>
					</g>
				</g>
				<polyline class="st5" points="38.4,88.7 37.9,89 7.8,72.1 				"/>
				<line class="st5" x1="37.9" y1="89" x2="37.9" y2="88.4"/>
				<g>
					<defs>
						<rect id="SVGID_37_" x="6.1" y="2.2" width="87.6" height="109.3"/>
					</defs>
					<clipPath id="SVGID_38_">
						<use xlink:href="#SVGID_37_"  style="overflow:visible;"/>
					</clipPath>
					<g class="st26">
						<path class="st5" d="M86.9,104.6v-5.7l-5.7,3.2v5.9l-2.6,1.5l-19.1-9l-15.3-7.7l-3.5-2v-4c-0.1-0.9-0.7-1.7-1.5-2.2
							c-0.5-0.3-1.1-0.1-1.4,0.4c-0.1,0.2-0.1,0.3-0.1,0.5v2"/>
					</g>
				</g>
				<polyline class="st5" points="82.9,105 82.9,103.5 82,104 82,105.5 				"/>
				<g>
					<defs>
						<rect id="SVGID_39_" x="6.1" y="2.2" width="87.6" height="109.3"/>
					</defs>
					<clipPath id="SVGID_40_">
						<use xlink:href="#SVGID_39_"  style="overflow:visible;"/>
					</clipPath>
					<g class="st27">
						<path class="st5" d="M87.8,66.7l1.6,1.1v35.4l-2.5,1.4c-1.3-0.4-2.6-0.3-3.8,0.3l-1.3,0.8c-0.2,0.1-0.4,0.3-0.6,0.4"/>
					</g>
				</g>
				<polyline class="st7" points="38.5,41.5 43.7,38.4 43.7,36.4 31.4,28.2 23.7,32.7 				"/>
				<line class="st7" x1="43.7" y1="36.4" x2="38.5" y2="39.5"/>
				<g>
					<defs>
						<rect id="SVGID_41_" x="6.1" y="2.2" width="87.6" height="109.3"/>
					</defs>
					<clipPath id="SVGID_42_">
						<use xlink:href="#SVGID_41_"  style="overflow:visible;"/>
					</clipPath>
					<g class="st28">
						<path class="st7" d="M275.1,102.7v-1.2c0-0.3-0.2-0.7-0.9-0.3c-0.4,0.2-0.7,0.7-0.7,1.2v1.4l-7,4.1l-9.2-6.4l-11.7-8l-9.8-6.7
							l-14.5-10l-20.7-15V26l1.4-0.9"/>
					</g>
				</g>
				<g>
					<defs>
						<rect id="SVGID_43_" x="6.1" y="2.2" width="87.6" height="109.3"/>
					</defs>
					<clipPath id="SVGID_44_">
						<use xlink:href="#SVGID_43_"  style="overflow:visible;"/>
					</clipPath>
					<g class="st29">
						<g class="st14">
							<g>
								<defs>
									<rect id="SVGID_45_" x="58" y="57.4" width="9.1" height="7.6"/>
								</defs>
								<clipPath id="SVGID_46_">
									<use xlink:href="#SVGID_45_"  style="overflow:visible;"/>
								</clipPath>
								<g class="st30">
									<polygon class="st16" points="58,57.4 58,59.8 67.1,65 67.1,62.5 58,57.4 									"/>
								</g>
							</g>
						</g>
					</g>
				</g>
				<polygon class="st16" points="64,57.3 63.9,59.4 69.7,62.9 69.7,60.6 				"/>
				<g>
					<defs>
						<rect id="SVGID_47_" x="6.1" y="2.2" width="87.6" height="109.3"/>
					</defs>
					<clipPath id="SVGID_48_">
						<use xlink:href="#SVGID_47_"  style="overflow:visible;"/>
					</clipPath>
					<g class="st31">
						<g class="st14">
							<g>
								<defs>
									<rect id="SVGID_49_" x="56.1" y="59.8" width="11" height="6.4"/>
								</defs>
								<clipPath id="SVGID_50_">
									<use xlink:href="#SVGID_49_"  style="overflow:visible;"/>
								</clipPath>
								<g class="st32">
									<polygon class="st16" points="58,59.8 56.1,60.8 56.1,60.8 65.2,66.2 67.1,65 									"/>
								</g>
							</g>
						</g>
					</g>
				</g>
				<polygon class="st16" points="64,59.5 62.7,60 67.1,62.7 68.3,62 				"/>
				<line class="st19" x1="64" y1="59.5" x2="68.2" y2="62"/>
			</g>
		</g>
		<g>
			<defs>
				<rect id="SVGID_51_" x="42.9" y="150.1" width="112.8" height="25.3"/>
			</defs>
			<clipPath id="SVGID_52_">
				<use xlink:href="#SVGID_51_"  style="overflow:visible;"/>
			</clipPath>
			<g class="st33">
				<polygon class="st16" points="63.1,155.1 63.1,157.7 66.1,157.7 66.1,160.5 63.1,160.5 63.1,164.2 72.1,164.4 72.1,155.1 				
					"/>
				<g>
					<defs>
						<rect id="SVGID_53_" x="43.7" y="150.1" width="112" height="25.3"/>
					</defs>
					<clipPath id="SVGID_54_">
						<use xlink:href="#SVGID_53_"  style="overflow:visible;"/>
					</clipPath>
					<g class="st34">
						<g class="st14">
							<g>
								<defs>
									<rect id="SVGID_55_" x="63.1" y="153.7" width="4.8" height="1.4"/>
								</defs>
								<clipPath id="SVGID_56_">
									<use xlink:href="#SVGID_55_"  style="overflow:visible;"/>
								</clipPath>
								<g class="st35">
									<rect x="63.1" y="153.7" class="st16" width="4.8" height="1.4"/>
								</g>
							</g>
						</g>
						<g class="st14">
							<g>
								<defs>
									<rect id="SVGID_57_" x="72.1" y="155.1" width="2.3" height="6.1"/>
								</defs>
								<clipPath id="SVGID_58_">
									<use xlink:href="#SVGID_57_"  style="overflow:visible;"/>
								</clipPath>
								<g class="st36">
									<rect x="72.1" y="155.1" class="st16" width="2.3" height="6.1"/>
								</g>
							</g>
						</g>
					</g>
				</g>
				<polygon class="st37" points="140.3,153.5 140.3,155.1 145.7,155.2 145.7,160.8 148.2,160.8 148.2,159.2 152.6,159.4 
					152.6,164.2 149.5,164.2 148.1,164.2 148.1,163.4 145.6,163.4 145.7,168.7 99.3,166.2 99.3,170 94.7,169.7 94.7,165.8 
					62.7,164.2 62.7,166.5 46.6,165.9 46.8,153 62.2,153 62.2,153.6 				"/>
				<g>
					<defs>
						<rect id="SVGID_59_" x="43.7" y="150.1" width="112" height="25.3"/>
					</defs>
					<clipPath id="SVGID_60_">
						<use xlink:href="#SVGID_59_"  style="overflow:visible;"/>
					</clipPath>
					<g class="st38">
						<polygon class="st39" points="153,151.7 153,173.6 45,166.9 45.1,151.7 						"/>
					</g>
				</g>
			</g>
		</g>
	</g>
</g>
</svg>
