<?xml version="1.0" encoding="utf-8"?>
<!-- Generator: Adobe Illustrator 23.0.0, SVG Export Plug-In . SVG Version: 6.00 Build 0)  -->
<svg version="1.1" id="Layer_1" xmlns="http://www.w3.org/2000/svg" xmlns:xlink="http://www.w3.org/1999/xlink" x="0px" y="0px"
	 viewBox="0 0 189.9 92.6" style="enable-background:new 0 0 189.9 92.6;" xml:space="preserve">
<style type="text/css">
	.st0{fill:#D2D3D4;}
	.st1{clip-path:url(#SVGID_2_);}
	.st2{fill:#231F20;}
	.st3{clip-path:url(#SVGID_4_);}
	.st4{fill:none;stroke:#D1D3D4;stroke-width:1.09;stroke-miterlimit:10;}
	.st5{clip-path:url(#SVGID_6_);}
	.st6{fill:none;stroke:#231F20;stroke-width:0.15;stroke-miterlimit:10;}
	.st7{enable-background:new    ;}
	.st8{fill:#D1D3D4;}
	.st9{fill:none;stroke:#231F20;stroke-width:0.14;stroke-miterlimit:10;}
	.st10{clip-path:url(#SVGID_8_);}
	.st11{clip-path:url(#SVGID_10_);}
	.st12{clip-path:url(#SVGID_12_);}
	.st13{clip-path:url(#SVGID_14_);}
	.st14{clip-path:url(#SVGID_16_);}
	.st15{fill:none;stroke:#FFFFFF;stroke-width:0.15;stroke-miterlimit:10;}
</style>
<title>residence_K_3-11_key_horizontal</title>
<g>
	<path class="st0" d="M83.6,43.8c-0.6,0-1-0.4-1-1.1v-1.4H86v1.3c0,0.7-0.3,1.1-0.9,1.1c-0.3,0-0.6-0.2-0.7-0.4
		C84.2,43.6,83.9,43.8,83.6,43.8z M83.2,41.9v0.7c0,0.3,0.2,0.5,0.4,0.5s0.4-0.2,0.4-0.5v-0.7H83.2z M84.6,42.5
		c0,0.3,0.1,0.5,0.4,0.5s0.4-0.2,0.4-0.5v-0.6h-0.8V42.5z"/>
	<path class="st0" d="M83.8,46.2h-1.3v-0.7H86v1.4c0.1,0.5-0.3,1.1-0.8,1.2c-0.1,0-0.2,0-0.3,0c-0.5,0-0.9-0.3-1-0.8l-1.3,0.9v-0.8
		l1.3-0.8L83.8,46.2z M84.4,46.2v0.6c0,0.4,0.2,0.5,0.5,0.5s0.5-0.2,0.5-0.5v-0.6H84.4z"/>
	<path class="st0" d="M82.5,51.2c-0.1-1,0.6-1.8,1.6-1.9c1-0.1,1.8,0.6,1.9,1.6s-0.6,1.8-1.6,1.9c-0.1,0-0.1,0-0.2,0
		c-0.9,0.1-1.7-0.6-1.7-1.5C82.5,51.3,82.5,51.3,82.5,51.2z M85.4,51.2c0-0.5-0.4-0.9-1.1-0.9s-1.1,0.3-1.1,0.9s0.5,0.9,1.1,0.9
		S85.4,51.8,85.4,51.2z"/>
	<path class="st0" d="M86,56.1l-3.4,1.3v-0.7l0.8-0.3v-1.3l-0.8-0.3v-0.7l3.4,1.3V56.1z M84,55.4v0.8l1.1-0.4L84,55.4z"/>
	<path class="st0" d="M86,59v1.2c0,0.9-0.8,1.7-1.7,1.7c-0.9,0-1.7-0.8-1.7-1.7V59H86z M83.2,60.2c0,0.6,0.5,1.1,1.1,1.1
		c0.6,0,1.1-0.5,1.1-1.1v-0.5h-2.2L83.2,60.2z"/>
	<path class="st0" d="M86,65.7l-2.3,0.6l2.3,0.6v0.7l-3.4-0.9V66l2.2-0.6l-2.2-0.6v-0.6l3.4-0.9V64l-2.3,0.6l2.3,0.6V65.7z"/>
	<path class="st0" d="M86,70.7L82.6,72v-0.7l0.8-0.3v-1.3l-0.8-0.3v-0.7L86,70V70.7z M84,69.9v0.8l1.1-0.4L84,69.9z"/>
	<path class="st0" d="M86,75.3v0.7l-2.1-1.2h-1.3v-0.7h1.3l2.1-1.2v0.8l-1.4,0.8L86,75.3z"/>
	<path class="st0" d="M180.9,35.1v0.7h-2.8v1.6h-0.6v-2.3H180.9z"/>
	<path class="st0" d="M180.9,40.8l-3.4,1.3v-0.7l0.8-0.3v-1.3l-0.8-0.3v-0.7l3.4,1.3V40.8z M179,40v0.8l1.1-0.4L179,40z"/>
	<path class="st0" d="M177.6,43.7h3.4V46h-0.6v-1.6h-0.9v1.4h-0.6v-1.4h-1.3V43.7z"/>
	<path class="st0" d="M180.9,49.2l-3.4,1.3v-0.7l0.8-0.3v-1.3l-0.8-0.3v-0.7l3.4,1.3V49.2z M178.9,48.4v0.8l1.1-0.4L178.9,48.4z"/>
	<path class="st0" d="M180.9,53.9v0.7l-2.1-1.2h-1.3v-0.7h1.3l2.1-1.2v0.8l-1.4,0.8L180.9,53.9z"/>
	<path class="st0" d="M180.9,58.5h-0.6v-1.6h-0.7v1.5H179v-1.5h-0.8v1.6h-0.6v-2.3h3.4L180.9,58.5z"/>
	<path class="st0" d="M180.9,60.1V63h-0.6v-1.1h-2.8v-0.7h2.8v-1.1H180.9z"/>
	<path class="st0" d="M180.9,64.4v2.9h-0.6v-1.1h-2.8v-0.7h2.8v-1.1H180.9z"/>
	<path class="st0" d="M180.9,71.3h-0.6v-1.6h-0.7v1.5H179v-1.5h-0.8v1.6h-0.6V69h3.4L180.9,71.3z"/>
	<path class="st0" d="M178.5,75.9c-0.3,0.1-0.5,0.4-0.4,0.7c0,0.3,0.2,0.6,0.4,0.6s0.3-0.1,0.4-0.4l0.1-0.6c0-0.5,0.4-0.9,0.9-0.8
		c0.6,0,1,0.6,1,1.1c0,0,0,0,0,0.1c0.1,0.6-0.4,1.2-1,1.3v-0.7c0.3-0.1,0.4-0.4,0.4-0.6c0-0.3-0.2-0.5-0.4-0.5s-0.3,0.1-0.4,0.4
		l-0.1,0.6c-0.1,0.6-0.4,0.9-0.9,0.9c-0.6,0-1.1-0.5-1.1-1.2c0,0,0-0.1,0-0.1c-0.1-0.7,0.4-1.3,1-1.4L178.5,75.9L178.5,75.9z"/>
	<path class="st0" d="M180.9,79.3v2.9h-0.6v-1.1h-2.8v-0.7h2.8v-1.1H180.9z"/>
	<path class="st0" d="M112.4,39.3h0.7v2.8h1.6v0.6h-2.3V39.3z"/>
	<path class="st0" d="M118.6,39.3v0.6H117v0.7h1.4v0.6H117v0.8h1.6v0.6h-2.3v-3.4H118.6z"/>
	<path class="st0" d="M121.6,42.7c-1,0.1-1.8-0.6-1.9-1.6c-0.1-1,0.6-1.8,1.6-1.9c1-0.1,1.8,0.6,1.9,1.6c0,0.1,0,0.1,0,0.2
		c0.1,0.9-0.6,1.7-1.5,1.7C121.7,42.7,121.7,42.7,121.6,42.7z M121.6,39.9c-0.5,0-0.9,0.5-0.9,1.1s0.3,1.1,0.9,1.1s0.9-0.5,0.9-1.1
		S122.2,39.9,121.6,39.9z"/>
	<path class="st0" d="M127.7,42.7h-0.6l-1.6-2.2v2.2h-0.7v-3.4h0.7l1.5,2.1v-2.1h0.7L127.7,42.7z"/>
	<path class="st0" d="M131.2,39.3l1.3,3.4h-0.7l-0.3-0.8h-1.3l-0.3,0.8h-0.7l1.3-3.4H131.2z M130.4,41.3h0.8l-0.4-1.1L130.4,41.3z"
		/>
	<path class="st0" d="M134.6,41.4v1.3H134v-3.4h1.4c0.6-0.1,1.1,0.3,1.2,0.9c0,0.1,0,0.1,0,0.2c0,0.5-0.3,0.9-0.8,1l0.9,1.3h-0.8
		l-0.9-1.3H134.6z M134.6,40.8h0.6c0.4,0,0.5-0.2,0.5-0.5s-0.2-0.5-0.5-0.5h-0.6V40.8z"/>
	<path class="st0" d="M138.1,39.3h1.2c0.9,0,1.7,0.8,1.7,1.7c0,0.9-0.8,1.7-1.7,1.7h-1.2V39.3z M139.3,42.1c0.6,0,1.1-0.5,1.1-1.1
		c0-0.6-0.5-1.1-1.1-1.1h-0.5v2.1H139.3z"/>
	<path class="st0" d="M145.4,41.7c0.1,0.3,0.4,0.5,0.7,0.4c0.3,0,0.6-0.2,0.6-0.4s-0.1-0.3-0.4-0.4l-0.6-0.1
		c-0.5-0.1-0.9-0.4-0.9-0.9c0-0.6,0.6-1,1.2-1c0,0,0,0,0,0c0.6-0.1,1.2,0.4,1.3,1h-0.7c-0.1-0.3-0.3-0.4-0.6-0.4
		c-0.3,0-0.5,0.2-0.5,0.4s0.1,0.3,0.4,0.4l0.6,0.1c0.6,0.1,0.9,0.4,0.9,1c0,0.7-0.5,1-1.2,1c-0.7,0.1-1.3-0.4-1.4-1L145.4,41.7z"/>
	<path class="st0" d="M148.6,39.3h2.9v0.6h-1.1v2.8h-0.7v-2.8h-1.1V39.3z"/>
	<path class="st0" d="M109.9,74.6c0.7,0,1.3,0.4,1.4,1.1h-0.7c-0.1-0.3-0.4-0.5-0.7-0.5c-0.5,0-0.8,0.5-0.8,1.1s0.3,1.1,0.8,1.1
		c0.3,0,0.6-0.2,0.7-0.5h0.7c-0.1,0.7-0.7,1.2-1.4,1.1c-1-0.1-1.7-1-1.6-1.9C108.4,75.3,109.1,74.6,109.9,74.6L109.9,74.6z"/>
	<path class="st0" d="M114.7,74.6l1.3,3.4h-0.7l-0.3-0.8h-1.3l-0.3,0.8h-0.7l1.3-3.4H114.7z M113.9,76.6h0.8l-0.4-1.1L113.9,76.6z"
		/>
	<path class="st0" d="M117,74.6h2.9v0.6h-1.1V78h-0.7v-2.8H117V74.6z"/>
	<path class="st0" d="M124.5,74.6V78h-0.7v-1.4h-1.5V78h-0.7v-3.4h0.7v1.3h1.5v-1.3H124.5z"/>
	<path class="st0" d="M128.7,74.6v0.6h-1.6V76h1.5v0.6h-1.4v0.8h1.6V78h-2.3v-3.4H128.7z"/>
	<path class="st0" d="M131.1,76.7V78h-0.7v-3.4h1.4c0.5-0.1,1.1,0.2,1.2,0.8c0,0.1,0,0.2,0,0.3c0,0.5-0.3,0.9-0.8,1l0.9,1.3h-0.8
		l-0.8-1.3L131.1,76.7z M131.1,76.1h0.6c0.4,0,0.5-0.2,0.5-0.5s-0.2-0.5-0.5-0.5h-0.6V76.1z"/>
	<path class="st0" d="M135.4,78h-0.7v-3.4h0.7V78z"/>
	<path class="st0" d="M140.1,78h-0.6l-1.6-2.3V78h-0.7v-3.4h0.7l1.5,2.1v-2.1h0.7L140.1,78z"/>
	<path class="st0" d="M144.2,74.6v0.6h-1.6V76h1.4v0.6h-1.4v0.8h1.6V78H142v-3.4H144.2z"/>
	<path class="st0" d="M148.4,74.6h0.7v2.8h1.6V78h-2.3V74.6z"/>
	<path class="st0" d="M155.2,78h-0.6l-1.6-2.2V78h-0.7v-3.4h0.6l1.5,2.1v-2.1h0.7L155.2,78L155.2,78z"/>
</g>
<g id="Layer_4">
	<g>
		<defs>
			<rect id="SVGID_1_" x="92.3" y="51.5" width="76.1" height="17.2"/>
		</defs>
		<clipPath id="SVGID_2_">
			<use xlink:href="#SVGID_1_"  style="overflow:visible;"/>
		</clipPath>
		<g class="st1">
			<polygon class="st2" points="132.1,59.4 133.9,59.4 133.9,59.5 134.8,59.5 134.8,59.4 135.4,59.4 135.4,60.3 135.5,60.3 
				135.5,61 135.2,61 135.2,65.9 129.2,65.5 129.2,61.1 130.6,61.1 130.6,59.9 132.1,59.9 			"/>
			<g>
				<defs>
					<rect id="SVGID_3_" x="92.3" y="51.5" width="76.1" height="17.2"/>
				</defs>
				<clipPath id="SVGID_4_">
					<use xlink:href="#SVGID_3_"  style="overflow:visible;"/>
				</clipPath>
				<g class="st3">
					<polygon class="st4" points="166.6,52.7 166.6,67.6 93.3,63 93.3,52.7 					"/>
				</g>
			</g>
		</g>
	</g>
	<g>
		<defs>
			<rect id="SVGID_5_" x="4" y="6.4" width="61.6" height="74.4"/>
		</defs>
		<clipPath id="SVGID_6_">
			<use xlink:href="#SVGID_5_"  style="overflow:visible;"/>
		</clipPath>
		<g class="st5">
			<polyline class="st6" points="64.4,50.4 53.8,56.4 8.9,26.9 			"/>
			<polyline class="st6" points="64.4,52.4 53.8,58.4 8.9,28.9 			"/>
			<polyline class="st6" points="64.4,54.4 53.8,60.4 8.9,30.9 			"/>
			<polyline class="st6" points="64.4,56.4 53.8,62.4 8.9,33 			"/>
			<polyline class="st6" points="64.4,58.4 53.8,64.4 8.9,35 			"/>
			<polyline class="st6" points="64.4,60.4 53.8,66.5 8.9,37 			"/>
			<polyline class="st6" points="64.4,62.5 53.8,68.5 8.9,39 			"/>
			<polyline class="st6" points="64.4,64.5 53.8,70.5 8.9,41 			"/>
			<polyline class="st6" points="64.4,66.5 53.8,72.5 8.9,43 			"/>
			<polyline class="st6" points="64.4,68.5 53.8,74.5 8.9,45 			"/>
			<polyline class="st6" points="64.4,70.5 53.8,76.5 8.9,47.1 			"/>
			<g class="st7">
				<path class="st8" d="M13.4,55.8c0.5,0.3,0.5,0.7,0.1,1.1l-0.4-0.3c0.1-0.2,0.1-0.3-0.1-0.5c-0.3-0.2-0.9-0.2-1.3,0.1
					c-0.4,0.2-0.5,0.6-0.2,0.8c0.2,0.2,0.5,0.2,0.8,0.1l0.4,0.3c-0.5,0.2-1.1,0.2-1.7-0.2c-0.6-0.4-0.5-1,0.2-1.4
					S12.8,55.4,13.4,55.8z"/>
			</g>
			<g class="st7">
				<path class="st8" d="M16.4,58L15,59.8l-0.5-0.3l0.3-0.4l-0.8-0.6l-0.7,0.2l-0.4-0.3l3.1-0.7L16.4,58z M14.6,58.4l0.5,0.4
					l0.5-0.6L14.6,58.4z"/>
			</g>
			<g class="st7">
				<path class="st8" d="M18,59.1l1.8,1.3l-0.4,0.2l-0.7-0.5l-1.8,1.1l-0.4-0.3l1.8-1.1l-0.7-0.5L18,59.1z"/>
				<path class="st8" d="M22.8,62.4l-2.2,1.3l-0.4-0.3l0.9-0.5l-1-0.7l-0.9,0.5l-0.4-0.3l2.2-1.3l0.4,0.3l-0.9,0.5l1,0.7l0.9-0.5
					L22.8,62.4z"/>
				<path class="st8" d="M25.5,64.3l-0.4,0.2l-1-0.7l-0.5,0.3l0.9,0.6L24.1,65l-0.9-0.6l-0.5,0.3l1,0.7l-0.4,0.2l-1.4-1l2.2-1.3
					L25.5,64.3z"/>
				<path class="st8" d="M25.7,66.2l-0.8,0.5l-0.4-0.3l2.2-1.3l0.9,0.6c0.4,0.3,0.5,0.7,0,0.9c-0.4,0.2-0.8,0.2-1.1,0l-0.3,0.9
					l-0.5-0.3l0.3-0.9L25.7,66.2z M26.1,66l0.4,0.3c0.2,0.2,0.5,0.2,0.6,0.1c0.2-0.1,0.2-0.3,0-0.4l-0.4-0.3L26.1,66z"/>
				<path class="st8" d="M27.7,68.6l-0.4-0.3l2.2-1.3l0.4,0.3L27.7,68.6z"/>
				<path class="st8" d="M30.7,70.7l-0.4-0.2l0.5-1.6l-1.5,0.9l-0.4-0.3l2.2-1.3l0.4,0.3L31.1,70l1.4-0.8l0.4,0.3L30.7,70.7z"/>
				<path class="st8" d="M35.6,71.3l-0.4,0.2l-1-0.7l-0.5,0.3l0.9,0.6L34.2,72l-0.9-0.6l-0.5,0.3l1,0.7l-0.4,0.2l-1.4-1l2.2-1.3
					L35.6,71.3z"/>
				<path class="st8" d="M38.4,73.2l0.4,0.3L37,74.6l1,0.7l-0.4,0.2l-1.4-1L38.4,73.2z"/>
			</g>
			<g class="st7">
				<path class="st8" d="M40.5,77.6l-0.4-0.2l0.5-1.6l-1.5,0.9l-0.4-0.3L41,75l0.4,0.3l-0.5,1.5l1.4-0.8l0.4,0.3L40.5,77.6z"/>
			</g>
			<polyline class="st9" points="64.4,48.3 53.8,54.4 8.9,24.9 			"/>
			<line class="st9" x1="53.8" y1="52.3" x2="53.8" y2="78.5"/>
			<line class="st9" x1="59.2" y1="74.8" x2="58.5" y2="75.2"/>
			<polyline class="st9" points="59.2,74.8 59.6,75 64.4,72.2 64.4,46.3 			"/>
			<polyline class="st9" points="64.4,46.3 53.8,52.3 8.9,22.9 			"/>
			<g>
				<defs>
					<rect id="SVGID_7_" x="4" y="6.4" width="61.6" height="74.4"/>
				</defs>
				<clipPath id="SVGID_8_">
					<use xlink:href="#SVGID_7_"  style="overflow:visible;"/>
				</clipPath>
				<g class="st10">
					<path class="st9" d="M59.2,74.8v-0.6c0-0.1,0-0.2-0.1-0.3"/>
					<path class="st9" d="M59.6,75v-0.8c0-0.2-0.2-0.5-0.6-0.2c-0.3,0.2-0.5,0.5-0.5,0.8v0.9l-4.8,2.8l-6.3-4.3l-8-5.4l-6.7-4.5
						L23,57.3L8.9,47.1V22.9l1-0.6"/>
				</g>
			</g>
			<line class="st9" x1="55.5" y1="47.4" x2="55.5" y2="46.3"/>
			<line class="st9" x1="15.3" y1="24.7" x2="15.3" y2="26.5"/>
			<line class="st9" x1="55.5" y1="47.4" x2="56.1" y2="47.7"/>
			<line class="st9" x1="55.5" y1="46.3" x2="56.1" y2="46.7"/>
			<line class="st9" x1="15.6" y1="14" x2="15.6" y2="12.6"/>
			<line class="st9" x1="15.6" y1="14.1" x2="15.6" y2="12.6"/>
			<line class="st9" x1="15.4" y1="23.4" x2="15.4" y2="20.2"/>
			<polyline class="st9" points="16.4,25.9 15.3,26.5 9.9,23 9.9,21.2 11.8,20 			"/>
			<polyline class="st9" points="15.6,18.3 18.2,16.8 18.2,13.4 18.2,13.4 17,12.6 			"/>
			<g>
				<defs>
					<rect id="SVGID_9_" x="4" y="6.4" width="61.6" height="74.4"/>
				</defs>
				<clipPath id="SVGID_10_">
					<use xlink:href="#SVGID_9_"  style="overflow:visible;"/>
				</clipPath>
				<g class="st11">
					<path class="st9" d="M15.1,15.8c0.2,0.6,0.1,1.1-0.4,1.1s-0.9-0.5-1.1-1.1s0-1.1,0.4-1.1S14.9,15.1,15.1,15.8z"/>
					<path class="st9" d="M16.2,15.8c-0.2,0.6,0,1.1,0.4,1.1s0.9-0.5,1.1-1.1s0-1.1-0.4-1.1S16.4,15.2,16.2,15.8z"/>
				</g>
			</g>
			<line class="st9" x1="15.4" y1="20.2" x2="19.6" y2="17.8"/>
			<line class="st9" x1="11.8" y1="17.8" x2="15.4" y2="20.2"/>
			<line class="st9" x1="9.9" y1="21.1" x2="15.3" y2="24.7"/>
			<polyline class="st9" points="18.2,16.6 18.4,16.7 18.4,17.8 18.4,17.9 15.6,19.5 15.6,19.4 15.6,14.9 			"/>
			<polyline class="st9" points="12.8,17.2 11.8,17.8 11.8,20.9 11.8,21 15.3,23.4 			"/>
			<polyline class="st9" points="19.7,19.4 21.9,20.9 21.9,22.1 			"/>
			<line class="st9" x1="15.5" y1="15" x2="18.2" y2="13.4"/>
			<line class="st9" x1="13.1" y1="13.4" x2="14.2" y2="12.8"/>
			<line class="st9" x1="13.1" y1="13.3" x2="15.6" y2="15"/>
			<polyline class="st9" points="18.4,17 19.6,17.8 19.6,17.8 19.6,20.9 19.5,20.9 15.3,23.4 			"/>
			<line class="st9" x1="14.2" y1="11.7" x2="15.6" y2="12.6"/>
			<line class="st9" x1="16.4" y1="11.2" x2="17.1" y2="11.7"/>
			<g>
				<defs>
					<rect id="SVGID_11_" x="4" y="6.4" width="61.6" height="74.4"/>
				</defs>
				<clipPath id="SVGID_12_">
					<use xlink:href="#SVGID_11_"  style="overflow:visible;"/>
				</clipPath>
				<g class="st12">
					<path class="st9" d="M14.3,10c-0.1,0.1-0.1,0.2-0.1,0.2l0.1,0.2c0.1,0.1,0.4,0.2,0.9,0.1s1.7-0.7,1.8-1.3l-0.2-0.3
						c-0.1,0-0.2,0-0.3,0"/>
				</g>
			</g>
			<polyline class="st9" points="14.8,7.8 15.6,8.2 15.8,8.1 16.3,7.4 			"/>
			<g>
				<defs>
					<rect id="SVGID_13_" x="4" y="6.4" width="61.6" height="74.4"/>
				</defs>
				<clipPath id="SVGID_14_">
					<use xlink:href="#SVGID_13_"  style="overflow:visible;"/>
				</clipPath>
				<g class="st13">
					<path class="st9" d="M16.8,9.5c0,0.2,0,0.4,0,0.5c-0.1,0.7-0.8,1.1-1.5,1c0,0,0,0,0,0c-0.3,0-0.5-0.2-0.7-0.4h-0.1"/>
					<path class="st9" d="M14.4,10.3c0-0.1-0.1-0.2-0.1-0.3c-0.1-0.7,0.4-1.3,1.1-1.4c0.4-0.1,0.8,0.1,1.1,0.4
						c0.1,0.1,0.1,0.2,0.2,0.3"/>
					<path class="st9" d="M16.5,11.4c0,0,0-0.1,0-0.1c0,0,0-0.1-0.1-0.1c-0.1,0-0.1,0-0.2,0v-0.1l0.1-0.3"/>
					<path class="st9" d="M15.9,11.4c0,0,0,0.1,0,0.1c0.1,0.1,0.2,0.1,0.2,0c0,0,0,0,0,0"/>
				</g>
			</g>
			<polyline class="st9" points="15.2,11.9 15.2,11.8 15.4,11.5 15.4,11.4 15.1,11.4 14.8,11.2 14.9,10.9 			"/>
			<line class="st9" x1="13.1" y1="16.6" x2="15.6" y2="18.3"/>
			<polyline class="st9" points="15.6,19.6 12.9,17.8 12.8,17.8 12.8,16.8 12.8,16.8 13.1,16.6 13.1,16.6 13.1,13.3 			"/>
			<polyline class="st9" points="14.9,11.2 14.2,11.7 14.2,11.8 14.2,13.2 15.6,14.1 15.6,14.1 17,13.3 17,11.8 17,11.8 15.6,12.6 
							"/>
			<line class="st9" x1="39.6" y1="38" x2="48.5" y2="43.7"/>
			<polyline class="st9" points="60,45.4 58,46.6 56.1,45.4 			"/>
			<line class="st9" x1="58" y1="49.5" x2="58" y2="46.6"/>
			<polyline class="st9" points="56.1,46 52,48.4 16.4,25.7 			"/>
			<line class="st6" x1="64.4" y1="46.3" x2="21.9" y2="21.6"/>
			<line class="st6" x1="49.8" y1="38.3" x2="24.6" y2="23.7"/>
			<line class="st9" x1="52" y1="49.4" x2="52" y2="48.4"/>
			<line class="st9" x1="48.5" y1="45" x2="48.5" y2="43.7"/>
			<polygon class="st9" points="53.8,40.6 53.8,41.8 48.5,45 39.6,39.3 39.6,38.1 43.5,35.7 48.8,38.9 49.9,38.3 			"/>
			<line class="st9" x1="53.8" y1="40.6" x2="48.5" y2="43.7"/>
			<line class="st9" x1="24.6" y1="23.6" x2="20.7" y2="25.9"/>
			<polygon class="st9" points="17.5,25.1 17.4,23.8 17.4,23.8 21.1,21.6 24.6,23.7 24.6,24.7 24.6,24.8 20.7,27.1 			"/>
			<polyline class="st9" points="55.5,47.4 52,49.4 16.4,26.8 16.4,26.8 16.4,25.7 17.4,25.1 			"/>
			<line class="st9" x1="20.7" y1="25.9" x2="17.5" y2="23.8"/>
			<line class="st9" x1="20.7" y1="27.1" x2="20.7" y2="25.9"/>
			<polyline class="st9" points="59.3,45 59.6,44.8 59.6,44 53.8,40.7 			"/>
			<line class="st9" x1="59.6" y1="44" x2="59.1" y2="44.2"/>
			<line class="st9" x1="21.9" y1="20.9" x2="15.3" y2="24.7"/>
			<polyline class="st9" points="57.2,44.7 56.1,45.4 56.1,48.2 58,49.5 60,48.3 60,45.4 59.2,44.9 			"/>
			<g>
				<defs>
					<rect id="SVGID_15_" x="4" y="6.4" width="61.6" height="74.4"/>
				</defs>
				<clipPath id="SVGID_16_">
					<use xlink:href="#SVGID_15_"  style="overflow:visible;"/>
				</clipPath>
				<g class="st14">
					<path class="st9" d="M58,43.7c-0.5,0.1-0.9,0.6-0.9,1.1v0.8c0,0.3,0.5,0.5,1,0.5s1-0.2,1-0.5v-0.8c0-0.5-0.4-1-0.9-1.1v-0.1
						c0-0.1-0.1-0.1-0.2-0.1s-0.2,0.1-0.2,0.1L58,43.7z"/>
				</g>
			</g>
			<polygon class="st2" points="34.3,61.7 30.7,59.3 30.7,57.3 34.3,59.7 			"/>
			<polygon class="st2" points="34.3,59.7 30.7,57.3 30.7,55.3 34.3,57.7 			"/>
			<polygon class="st2" points="34.3,57.7 30.7,55.3 30.7,53.3 34.3,55.7 			"/>
			<polygon class="st2" points="34.3,55.7 30.7,53.3 30.7,51.3 34.3,53.7 			"/>
			<polygon class="st2" points="34.2,53.7 30.7,51.3 30.7,49.3 34.3,51.6 			"/>
			<polygon class="st2" points="34.3,51.6 30.7,49.3 30.7,47.3 34.3,49.5 			"/>
			<polygon class="st2" points="34.3,49.6 30.7,47.3 30.7,45.3 34.3,47.6 			"/>
			<polygon class="st2" points="34.3,47.6 30.7,45.2 30.7,41.2 34.3,43.6 			"/>
			<line class="st15" x1="30.7" y1="45.2" x2="34.3" y2="47.6"/>
			<line class="st15" x1="30.7" y1="47.3" x2="34.3" y2="49.6"/>
			<line class="st15" x1="30.7" y1="49.3" x2="34.3" y2="51.6"/>
			<line class="st15" x1="30.7" y1="51.3" x2="34.3" y2="53.7"/>
			<line class="st15" x1="30.7" y1="53.3" x2="34.3" y2="55.7"/>
			<line class="st15" x1="30.7" y1="55.3" x2="34.3" y2="57.7"/>
			<line class="st15" x1="30.7" y1="57.3" x2="34.3" y2="59.7"/>
			<line class="st15" x1="34.3" y1="45.6" x2="30.7" y2="43.2"/>
		</g>
	</g>
</g>
</svg>
