<?xml version="1.0" encoding="utf-8"?>
<!-- Generator: Adobe Illustrator 23.0.0, SVG Export Plug-In . SVG Version: 6.00 Build 0)  -->
<svg version="1.1" id="Layer_1" xmlns="http://www.w3.org/2000/svg" xmlns:xlink="http://www.w3.org/1999/xlink" x="0px" y="0px"
	 viewBox="0 0 347 105.1" style="enable-background:new 0 0 347 105.1;" xml:space="preserve">
<style type="text/css">
	.st0{fill:#D1D3D4;}
	.st1{fill:#231F20;}
	.st2{clip-path:url(#SVGID_2_);}
	.st3{fill:none;stroke:#D1D3D4;stroke-width:1.09;stroke-miterlimit:10;}
	.st4{clip-path:url(#SVGID_4_);}
	.st5{enable-background:new    ;}
	.st6{fill:none;stroke:#231F20;stroke-width:0.15;stroke-miterlimit:10;}
	.st7{fill:none;stroke:#231F20;stroke-width:0.14;stroke-miterlimit:10;}
	.st8{clip-path:url(#SVGID_6_);}
	.st9{clip-path:url(#SVGID_8_);}
	.st10{fill:none;stroke:#231F20;stroke-width:0.14;stroke-linejoin:bevel;}
	.st11{clip-path:url(#SVGID_10_);}
	.st12{clip-path:url(#SVGID_12_);}
	.st13{clip-path:url(#SVGID_14_);}
	.st14{clip-path:url(#SVGID_16_);}
	.st15{clip-path:url(#SVGID_18_);}
	.st16{fill:none;stroke:#FFFFFF;stroke-width:0.15;stroke-miterlimit:10;}
	.st17{clip-path:url(#SVGID_20_);}
	.st18{clip-path:url(#SVGID_22_);}
	.st19{clip-path:url(#SVGID_24_);}
	.st20{clip-path:url(#SVGID_26_);}
	.st21{clip-path:url(#SVGID_28_);}
	.st22{clip-path:url(#SVGID_30_);}
</style>
<title>residence_E_4-12_key_horizontal</title>
<g>
	<g id="Layer_1_copy">
		<g>
			<path class="st0" d="M209.9,51.6c-0.8,0-1.2-0.5-1.2-1.4v-1.8h4.4V50c0,0.9-0.4,1.5-1.2,1.5c-0.4,0-0.8-0.2-0.9-0.6
				C210.8,51.3,210.3,51.6,209.9,51.6z M209.4,49.2v0.8c0,0.4,0.2,0.6,0.5,0.6s0.5-0.2,0.5-0.6v-0.8H209.4z M211.2,50
				c0,0.4,0.2,0.7,0.5,0.7s0.5-0.2,0.5-0.7v-0.7h-1V50z"/>
			<path class="st0" d="M210.2,54.1h-1.6v-0.9h4.4V55c0.1,0.7-0.4,1.4-1.1,1.5c-0.1,0-0.1,0-0.2,0c-0.6,0-1.2-0.4-1.3-1l-1.7,1.1v-1
				l1.6-1.1L210.2,54.1z M211,54.1V55c0,0.5,0.2,0.7,0.6,0.7s0.6-0.2,0.6-0.7v-0.8L211,54.1z"/>
		</g>
		<g>
			<path class="st0" d="M208.6,61.1c-0.1-1.2,0.8-2.3,2-2.4c1.2-0.1,2.3,0.8,2.4,2c0.1,1.2-0.8,2.3-2,2.4c-0.1,0-0.2,0-0.2,0
				c-1.1,0.1-2.1-0.7-2.2-1.9C208.6,61.2,208.6,61.1,208.6,61.1z M212.2,61.1c0-0.7-0.6-1.1-1.4-1.1s-1.4,0.4-1.4,1.1
				s0.6,1.1,1.4,1.1S212.2,61.8,212.2,61.1z"/>
		</g>
		<g>
			<path class="st0" d="M213,67.3l-4.4,1.7v-1l1-0.4v-1.6l-1-0.4v-0.9l4.3,1.7L213,67.3z M210.5,66.3v1l1.4-0.5L210.5,66.3z"/>
		</g>
		<g>
			<path class="st0" d="M213,71v1.5c0,1.2-1,2.2-2.2,2.2c-1.2,0-2.1-1-2.1-2.2V71H213z M209.5,72.5c0.1,0.8,0.7,1.3,1.5,1.2
				c0.7-0.1,1.2-0.6,1.2-1.2v-0.6h-2.7V72.5z"/>
		</g>
		<g>
			<path class="st0" d="M213,79.5l-2.9,0.8l2.9,0.7v0.9l-4.3-1.1v-0.8l2.8-0.8l-2.8-0.8v-0.8l4.3-1.1v0.9l-2.9,0.7l2.9,0.8V79.5z"/>
		</g>
		<g>
			<path class="st0" d="M213,85.8l-4.3,1.6v-0.9l1-0.4v-1.6l-1-0.4v-0.9l4.3,1.7V85.8z M210.5,84.8v1.1l1.4-0.5L210.5,84.8z"/>
		</g>
		<g>
			<path class="st0" d="M213,91.7v1l-2.7-1.6h-1.6v-0.9h1.6l2.7-1.6v1l-1.8,1L213,91.7z"/>
		</g>
		<g>
			<path class="st0" d="M343.4,40.5v0.9h-3.5v2h-0.8v-2.9H343.4z"/>
		</g>
		<g>
			<path class="st0" d="M343.4,47.8l-4.3,1.6v-0.9l1-0.4v-1.6l-1-0.4v-0.9l4.3,1.7V47.8z M340.9,46.8v1l1.4-0.5L340.9,46.8z"/>
		</g>
		<g>
			<path class="st0" d="M339.1,51.5h4.3v2.9h-0.8v-2h-1.1v1.8h-0.8v-1.8h-1.6V51.5z"/>
		</g>
		<g>
			<path class="st0" d="M343.4,58.5l-4.3,1.7v-0.9l1-0.4v-1.6l-1-0.4V56l4.3,1.6V58.5z M340.9,57.5v1l1.4-0.5L340.9,57.5z"/>
		</g>
		<g>
			<path class="st0" d="M343.4,64.4v0.9l-2.7-1.6h-1.6v-0.9h1.6l2.7-1.5v1l-1.8,1L343.4,64.4z"/>
			<path class="st0" d="M343.4,69.8h-0.8v-2h-0.9v1.8h-0.8v-1.9h-1v2h-0.8v-2.9h4.3L343.4,69.8L343.4,69.8z"/>
			<path class="st0" d="M343.4,71.2v3.7h-0.8v-1.4h-3.5v-0.9h3.5v-1.4H343.4z"/>
			<path class="st0" d="M343.4,76.2v3.7h-0.8v-1.4h-3.5v-0.9h3.5v-1.4H343.4z"/>
			<path class="st0" d="M343.4,84.4h-0.8v-2h-0.9v1.8h-0.8v-1.9h-1v2h-0.8v-2.9h4.3L343.4,84.4L343.4,84.4z"/>
		</g>
		<g>
			<path class="st0" d="M340.3,92.5c-0.4,0.1-0.6,0.5-0.5,0.9c0,0.4,0.2,0.7,0.5,0.7s0.4-0.2,0.5-0.5l0.2-0.8
				c0.1-0.6,0.5-1.1,1.2-1.1c0.8,0,1.4,0.7,1.3,1.4c0,0,0,0.1,0,0.1c0.1,0.8-0.5,1.5-1.2,1.7V94c0.3-0.1,0.5-0.4,0.5-0.8
				c0-0.4-0.2-0.7-0.5-0.7s-0.4,0.2-0.5,0.5l-0.2,0.8c-0.2,0.7-0.6,1.1-1.2,1.1c-0.8,0-1.3-0.7-1.3-1.6c-0.1-0.8,0.5-1.6,1.3-1.8
				L340.3,92.5L340.3,92.5z"/>
		</g>
		<g>
			<path class="st0" d="M343.4,96.8v3.7h-0.8v-1.4h-3.5v-0.9h3.5v-1.4H343.4z"/>
		</g>
		<g>
			<path class="st0" d="M251.3,40.8h0.9v3.5h2v0.8h-2.9V40.8z"/>
			<path class="st0" d="M258.8,40.8v0.8h-2v0.9h1.9v0.8h-1.9v1h2V45h-2.9v-4.3L258.8,40.8z"/>
		</g>
		<g>
			<path class="st0" d="M263.1,45.1c-1.2,0.1-2.3-0.8-2.4-2c-0.1-1.2,0.8-2.3,2-2.4c1.2-0.1,2.3,0.8,2.4,2c0,0.1,0,0.2,0,0.2
				c0.1,1.1-0.8,2.1-1.9,2.2C263.2,45.1,263.1,45.1,263.1,45.1z M263.1,41.5c-0.7,0-1.1,0.6-1.1,1.4s0.4,1.4,1.1,1.4
				s1.1-0.6,1.1-1.4S263.8,41.5,263.1,41.5z"/>
		</g>
		<g>
			<path class="st0" d="M270.8,45.1h-0.7l-2-2.9v2.9h-0.9v-4.3h0.8l1.9,2.7v-2.7h0.9L270.8,45.1L270.8,45.1z"/>
		</g>
		<g>
			<path class="st0" d="M275.2,40.8l1.6,4.3H276l-0.4-1H274l-0.4,1h-0.9l1.6-4.3H275.2z M274.2,43.3h1l-0.5-1.4L274.2,43.3z"/>
		</g>
		<g>
			<path class="st0" d="M279.7,43.5v1.6h-0.9v-4.3h1.8c0.7-0.1,1.4,0.4,1.5,1.1c0,0.1,0,0.1,0,0.2c0,0.6-0.4,1.2-1,1.3l1.1,1.7h-1
				l-1.1-1.6L279.7,43.5z M279.7,42.7h0.8c0.5,0,0.7-0.2,0.7-0.6s-0.2-0.6-0.7-0.6h-0.8V42.7z"/>
			<path class="st0" d="M283.7,40.8h1.5c1.2,0,2.1,1,2.1,2.2c0,1.2-1,2.1-2.1,2.1h-1.5V40.8z M285.2,44.3c0.8-0.1,1.3-0.7,1.2-1.5
				c-0.1-0.7-0.6-1.2-1.2-1.2h-0.6v2.7H285.2z"/>
		</g>
		<g>
			<path class="st0" d="M293.3,43.8c0.1,0.4,0.5,0.6,0.9,0.6c0.4,0,0.7-0.2,0.7-0.5s-0.2-0.4-0.5-0.5l-0.8-0.2
				c-0.6-0.1-1.1-0.5-1.1-1.2c0-0.8,0.7-1.4,1.5-1.3c0,0,0,0,0.1,0c0.8-0.1,1.5,0.5,1.7,1.2h-0.9c-0.1-0.3-0.4-0.6-0.8-0.5
				c-0.4,0-0.7,0.2-0.7,0.5s0.2,0.4,0.5,0.5l0.8,0.2c0.7,0.2,1.1,0.6,1.1,1.2c0,0.8-0.7,1.3-1.6,1.3c-0.8,0.1-1.6-0.5-1.8-1.3
				L293.3,43.8z"/>
		</g>
		<g>
			<path class="st0" d="M297.5,40.8h3.7v0.8h-1.4v3.5h-0.9v-3.5h-1.4V40.8z"/>
		</g>
		<g>
			<path class="st0" d="M248.2,94.4c0.9-0.1,1.7,0.6,1.8,1.5h-0.9c-0.1-0.4-0.5-0.7-0.9-0.7c-0.7,0-1.1,0.6-1.1,1.4s0.4,1.4,1.1,1.4
				c0.4,0,0.8-0.3,0.9-0.7h0.9c-0.1,0.9-0.9,1.5-1.8,1.5c-1.2-0.1-2.1-1.2-2-2.4C246.3,95.3,247.1,94.5,248.2,94.4L248.2,94.4z"/>
		</g>
		<g>
			<path class="st0" d="M254.2,94.5l1.6,4.3H255l-0.4-1H253l-0.4,1h-0.9l1.6-4.3H254.2z M253.2,97h1.1l-0.5-1.4L253.2,97z"/>
		</g>
		<g>
			<path class="st0" d="M257.2,94.5h3.7v0.8h-1.4v3.5h-0.9v-3.5h-1.4V94.5z"/>
		</g>
		<g>
			<path class="st0" d="M266.8,94.5v4.3h-0.9V97h-1.9v1.8H263v-4.3h0.9v1.7h1.9v-1.8H266.8z"/>
		</g>
		<g>
			<path class="st0" d="M272,94.5v0.8h-2v0.9h1.9V97H270v1h2v0.8h-2.9v-4.3L272,94.5z"/>
			<path class="st0" d="M274.6,97.2v1.6h-0.9v-4.3h1.8c0.7-0.1,1.4,0.4,1.5,1.1c0,0.1,0,0.1,0,0.2c0,0.6-0.4,1.2-1,1.3l1.1,1.7h-1
				l-1.1-1.6H274.6z M274.6,96.4h0.8c0.5,0,0.7-0.2,0.7-0.6s-0.2-0.6-0.7-0.6h-0.8V96.4z"/>
		</g>
		<g>
			<path class="st0" d="M280.7,98.8h-0.9v-4.3h0.9V98.8z"/>
		</g>
		<g>
			<path class="st0" d="M286.6,98.8h-0.7l-2-2.9v2.9H283v-4.3h0.8l1.9,2.7v-2.7h0.9L286.6,98.8z"/>
			<path class="st0" d="M291.4,94.5v0.8h-2v0.9h1.9V97h-1.9v1h2v0.8h-2.9v-4.3L291.4,94.5z"/>
			<path class="st0" d="M295.5,94.5h0.9V98h2v0.8h-2.9V94.5z"/>
		</g>
		<g>
			<path class="st0" d="M305.8,98.8h-0.7l-2-2.9v2.9h-0.9v-4.3h0.8l1.9,2.7v-2.7h0.9L305.8,98.8z"/>
		</g>
	</g>
	<g>
		<polygon class="st1" points="221.5,69.6 227.9,69.6 227.9,69.8 230.6,69.8 230.6,70 232,70 232,69.8 233.5,69.8 233.5,70.4 
			233.8,70.4 233.8,72.7 235.5,72.7 235.5,72.6 238.1,72.7 238.1,73.6 238.4,73.6 238.4,76.5 221.5,75.3 		"/>
		<g>
			<defs>
				<rect id="SVGID_1_" x="220.1" y="58.5" width="112" height="25.3"/>
			</defs>
			<clipPath id="SVGID_2_">
				<use xlink:href="#SVGID_1_"  style="overflow:visible;"/>
			</clipPath>
			<g class="st2">
				<polygon class="st3" points="329.5,60.2 329.5,82.2 221.5,75.4 221.5,60.2 				"/>
			</g>
		</g>
		<g>
			<defs>
				<rect id="SVGID_3_" x="3.1" y="0.9" width="187" height="104.5"/>
			</defs>
			<clipPath id="SVGID_4_">
				<use xlink:href="#SVGID_3_"  style="overflow:visible;"/>
			</clipPath>
			<g class="st4">
				<g class="st5">
					<path class="st0" d="M11,76l0.6,0.4L9.2,78l1.4,0.9l-0.6,0.4L8,78L11,76z"/>
					<path class="st0" d="M16.9,79.7L16.4,80l-1.5-0.9l-0.7,0.4l1.3,0.8L15,80.7l-1.3-0.8l-0.7,0.5l1.5,0.9l-0.6,0.4l-2.1-1.3l3.1-2
						L16.9,79.7z"/>
					<path class="st0" d="M16.8,83.6c-0.9-0.5-0.8-1.4,0.1-2c0.9-0.6,2.2-0.7,3.1-0.1s0.8,1.4-0.1,2C19,84.1,17.7,84.1,16.8,83.6z
						 M19.4,81.9c-0.5-0.3-1.2-0.2-1.8,0.2c-0.6,0.4-0.7,0.9-0.2,1.2c0.5,0.3,1.2,0.2,1.8-0.2C19.8,82.7,19.9,82.2,19.4,81.9z"/>
					<path class="st0" d="M22.6,87.1l-0.5-0.3l0.6-2.3l-2,1.3L20,85.5l3.1-2l0.6,0.4L23.1,86l1.9-1.3l0.6,0.4L22.6,87.1z"/>
				</g>
				<g class="st5">
					<path class="st0" d="M29.1,87.3L27.2,90l-0.7-0.4l0.5-0.7l-1.2-0.7l-1,0.3l-0.6-0.4l4.3-1.3L29.1,87.3z M26.6,88l0.8,0.5
						l0.6-0.9L26.6,88z"/>
				</g>
				<g class="st5">
					<path class="st0" d="M30.6,90.7l-1.1,0.8L28.8,91l3.1-2l1.3,0.8c0.7,0.4,0.7,0.9,0.1,1.3c-0.5,0.3-1.1,0.4-1.6,0.2l-0.4,1.3
						l-0.7-0.5l0.4-1.2L30.6,90.7z M31.1,90.3l0.6,0.4c0.3,0.2,0.7,0.2,0.9,0c0.3-0.2,0.3-0.4-0.1-0.6L32,89.8L31.1,90.3z"/>
				</g>
				<g class="st5">
					<path class="st0" d="M36,91.5l1.1,0.7c0.9,0.6,0.9,1.3,0,2c-0.9,0.6-2.1,0.6-3.1,0l-1.1-0.7L36,91.5z M34.5,93.9
						c0.6,0.4,1.3,0.3,1.9-0.1c0.6-0.4,0.7-0.8,0.1-1.2l-0.4-0.3l-1.9,1.3L34.5,93.9z"/>
				</g>
				<g class="st5">
					<path class="st0" d="M40.8,97.4c-0.2,0.2-0.1,0.5,0.2,0.6c0.3,0.2,0.7,0.2,0.9,0.1c0.2-0.1,0.2-0.3,0-0.5l-0.4-0.4
						c-0.3-0.3-0.5-0.7,0.1-1c0.6-0.4,1.4-0.3,2.1,0.1c0.7,0.4,0.7,0.9,0.3,1.3l-0.6-0.4c0.1-0.2,0.1-0.4-0.2-0.6
						c-0.3-0.2-0.6-0.2-0.9-0.1c-0.2,0.1-0.2,0.3,0,0.4l0.4,0.4c0.4,0.4,0.4,0.8,0,1.1c-0.6,0.4-1.5,0.3-2.1-0.1
						c-0.7-0.4-0.8-1-0.4-1.4L40.8,97.4z"/>
				</g>
				<g class="st5">
					<path class="st0" d="M46.2,97.9l2.7,1.7l-0.6,0.4l-1-0.6l-2.5,1.6l-0.7-0.4l2.5-1.6l-1-0.6L46.2,97.9z"/>
				</g>
				<line class="st6" x1="72.7" y1="63.3" x2="72.7" y2="58.8"/>
				<line class="st6" x1="13.2" y1="27.6" x2="13.2" y2="23.9"/>
				<line class="st6" x1="25.6" y1="32.4" x2="25.6" y2="34.4"/>
				<line class="st6" x1="20.1" y1="29.3" x2="20.1" y2="31.3"/>
				<line class="st6" x1="27" y1="31.6" x2="27" y2="33.6"/>
				<line class="st7" x1="27.1" y1="33.6" x2="25.6" y2="34.5"/>
				<line class="st7" x1="27" y1="31.6" x2="25.6" y2="32.5"/>
				<line class="st7" x1="64.6" y1="49.3" x2="58.6" y2="52.8"/>
				<line class="st7" x1="69.2" y1="53" x2="64.1" y2="56"/>
				<line class="st6" x1="34.3" y1="35.7" x2="34.3" y2="37.8"/>
				<line class="st7" x1="39.3" y1="34" x2="63.5" y2="50"/>
				<line class="st7" x1="64.6" y1="49.3" x2="69.2" y2="52.3"/>
				<line class="st7" x1="39.3" y1="33.4" x2="64" y2="49.7"/>
				<line class="st7" x1="10.3" y1="26.4" x2="12.8" y2="27.9"/>
				<line class="st7" x1="20.1" y1="29.3" x2="25.6" y2="32.4"/>
				<line class="st7" x1="27.1" y1="31.6" x2="34.3" y2="35.9"/>
				<line class="st7" x1="27" y1="33.6" x2="34.3" y2="37.8"/>
				<line class="st7" x1="58.7" y1="52.8" x2="64.1" y2="56"/>
				<line class="st6" x1="72.7" y1="50.4" x2="72.7" y2="48.2"/>
				<polyline class="st6" points="63.6,60.1 62.7,59.6 61.6,60.3 14.7,33.1 14.7,30.8 				"/>
				<polyline class="st6" points="26.5,25.6 21.8,22.6 11.2,28.8 61.6,58 				"/>
				<line class="st6" x1="61.6" y1="58" x2="61.6" y2="60.3"/>
				<line class="st6" x1="62.7" y1="57.3" x2="61.6" y2="57.9"/>
				<polyline class="st6" points="62.7,59.6 62.7,57.3 58.7,54.9 				"/>
				<line class="st6" x1="72.8" y1="67.5" x2="72.8" y2="65"/>
				<polyline class="st6" points="78.3,57.9 81.4,60 81.4,62.5 72.8,67.5 63.6,62.2 63.6,59.7 67.3,57.5 				"/>
				<polyline class="st6" points="81.4,60 72.8,65 63.6,59.7 				"/>
				<polyline class="st7" points="12.1,29.3 12.1,30.5 14.7,32 				"/>
				<line class="st7" x1="20.1" y1="31.3" x2="25.6" y2="34.5"/>
				<line class="st7" x1="58.6" y1="54.9" x2="58.6" y2="52.8"/>
				<line class="st7" x1="64.1" y1="59.3" x2="64.1" y2="56"/>
				<polyline class="st7" points="76.3,49.4 72.7,51.5 69.2,49.4 				"/>
				<polyline class="st6" points="76.3,53.9 76.7,54.1 76.7,55.7 72.8,57.9 68.8,55.7 68.8,54.2 69.2,54 				"/>
				<line class="st6" x1="72.7" y1="57.9" x2="72.7" y2="51.5"/>
				<polyline class="st6" points="76.7,54.6 78.3,55.6 78.3,60 72.7,63.3 67.3,60.1 67.3,55.7 68.8,54.8 				"/>
				<polyline class="st6" points="78.3,55.6 72.7,58.8 67.3,55.7 				"/>
				<polyline class="st6" points="10.3,26.4 4.9,29.5 4.9,67 				"/>
				<polyline class="st6" points="16.2,22.9 19.9,20.7 27,25.3 				"/>
				<line class="st6" x1="72.7" y1="68.8" x2="72.7" y2="102.6"/>
				<line class="st6" x1="72.7" y1="102.6" x2="36.5" y2="81.6"/>
				<polyline class="st6" points="83,68.4 72.7,74.4 5,35.2 				"/>
				<polyline class="st6" points="83,71.2 72.7,77.2 5,38 				"/>
				<polyline class="st6" points="83,74.1 72.7,80 5,40.8 				"/>
				<polyline class="st6" points="83,76.9 72.7,82.9 5,43.6 				"/>
				<polyline class="st6" points="83,79.7 72.7,85.7 5,46.5 				"/>
				<polyline class="st6" points="83,82.5 72.7,88.5 5,49.3 				"/>
				<polyline class="st6" points="83,85.3 72.7,91.3 5,52.1 				"/>
				<polyline class="st6" points="83,88.2 72.7,94.1 5,54.9 				"/>
				<line class="st6" x1="83" y1="91" x2="80.6" y2="92.4"/>
				<polyline class="st6" points="75.1,95.6 72.7,96.9 5,57.7 				"/>
				<line class="st6" x1="80.6" y1="95.2" x2="83" y2="93.8"/>
				<polyline class="st6" points="75.1,98.4 72.7,99.8 5,60.5 				"/>
				<polyline class="st6" points="83,65.6 72.7,71.6 5,32.3 				"/>
				<line class="st6" x1="33.7" y1="79.9" x2="5" y2="63.3"/>
				<polyline class="st7" points="11.8,21.3 10.3,22.2 10.3,26.4 				"/>
				<polyline class="st7" points="14.8,21.3 16.2,22.2 16.2,25.8 				"/>
				<polyline class="st7" points="10.3,22.2 13.2,23.9 16.2,22.2 				"/>
				<polyline class="st6" points="73.9,46.6 74.7,47.1 74.7,49.3 72.7,50.4 70.7,49.3 70.7,47.1 71.7,46.5 				"/>
				<polyline class="st7" points="74.7,47.1 72.7,48.2 70.7,47.1 				"/>
				<g>
					<defs>
						<rect id="SVGID_5_" x="3.3" y="5.6" width="86.5" height="99.1"/>
					</defs>
					<clipPath id="SVGID_6_">
						<use xlink:href="#SVGID_5_"  style="overflow:visible;"/>
					</clipPath>
					<g class="st8">
						<path class="st6" d="M70.8,44.7c0,0.1-0.2,0.2-0.2,0.3l0.1,0.3c0.1,0.2,0.6,0.3,1.3,0.1s2.3-1,2.5-1.9l-0.2-0.5
							c-0.2,0-0.3,0-0.5,0"/>
					</g>
				</g>
				<polyline class="st6" points="71.6,41.6 72.6,42.1 72.9,42 73.7,41 				"/>
				<g>
					<defs>
						<rect id="SVGID_7_" x="3.3" y="5.6" width="86.5" height="99.1"/>
					</defs>
					<clipPath id="SVGID_8_">
						<use xlink:href="#SVGID_7_"  style="overflow:visible;"/>
					</clipPath>
					<g class="st9">
						<path class="st6" d="M74.4,44c0.1,0.2,0.1,0.5,0,0.8c-0.2,1-1.1,1.6-2.1,1.4c0,0,0,0,0,0c-0.4-0.1-0.7-0.3-0.9-0.5l-0.1-0.1"
							/>
						<path class="st6" d="M71,45.1c-0.1-0.1-0.1-0.3-0.1-0.4c-0.1-1,0.5-1.9,1.5-2c0.6-0.1,1.2,0.1,1.6,0.5
							c0.1,0.1,0.2,0.3,0.3,0.4"/>
						<path class="st6" d="M72,52.8c0.3,0.9,0.1,1.5-0.5,1.6s-1.3-0.7-1.6-1.5s-0.1-1.5,0.5-1.5S71.7,51.9,72,52.8z"/>
						<path class="st6" d="M73.5,52.8c-0.3,0.9-0.1,1.5,0.5,1.5s1.3-0.7,1.6-1.5s0.1-1.5-0.5-1.5S73.8,52,73.5,52.8z"/>
						<path class="st10" d="M73.9,46.7c0-0.1,0-0.1,0-0.2c0,0,0-0.1-0.1-0.1c-0.1,0-0.2,0-0.3,0.1v-0.2l0.1-0.4"/>
						<path class="st7" d="M73.1,46.7c0,0.1,0.1,0.2,0.1,0.2s0.2,0.1,0.3,0"/>
					</g>
				</g>
				<polyline class="st7" points="72.2,47.3 72.2,47.2 72.4,46.8 72.3,46.7 71.9,46.6 71.5,46.3 71.7,45.9 				"/>
				<polyline class="st6" points="70.7,48.5 69.2,49.4 69.2,54.2 72.8,56.2 76.3,54.2 76.3,49.4 74.7,48.4 				"/>
				<g>
					<defs>
						<rect id="SVGID_9_" x="3.3" y="5.6" width="86.5" height="99.1"/>
					</defs>
					<clipPath id="SVGID_10_">
						<use xlink:href="#SVGID_9_"  style="overflow:visible;"/>
					</clipPath>
					<g class="st11">
						<path class="st7" d="M13.1,19.7c-0.7,0.1-1.2,0.8-1.2,1.5v1.1c0,0.4,0.6,0.8,1.5,0.8s1.5-0.3,1.5-0.8v-1.1
							c0-0.7-0.5-1.4-1.2-1.5v-0.2c0-0.1-0.1-0.2-0.2-0.2s-0.2,0.1-0.2,0.2V19.7z"/>
					</g>
				</g>
				<polyline class="st6" points="83,62.8 72.7,68.8 5,29.5 				"/>
				<polyline class="st6" points="36.5,82.1 34.5,81 32.8,82 35.2,83.4 36.5,82.7 				"/>
				<line class="st6" x1="36.5" y1="82.1" x2="34.5" y2="81"/>
				<line class="st6" x1="36.5" y1="83.8" x2="35.6" y2="83.2"/>
				<g>
					<defs>
						<rect id="SVGID_11_" x="3.3" y="5.6" width="86.5" height="99.1"/>
					</defs>
					<clipPath id="SVGID_12_">
						<use xlink:href="#SVGID_11_"  style="overflow:visible;"/>
					</clipPath>
					<g class="st12">
						<path class="st6" d="M35,78.7c-0.2,0.2-0.4,0.5-0.4,0.8V81"/>
					</g>
				</g>
				<polyline class="st6" points="34.2,82.8 33.7,83.1 4.9,66.9 				"/>
				<line class="st6" x1="33.7" y1="83.1" x2="33.7" y2="82.5"/>
				<g>
					<defs>
						<rect id="SVGID_13_" x="3.3" y="5.6" width="86.5" height="99.1"/>
					</defs>
					<clipPath id="SVGID_14_">
						<use xlink:href="#SVGID_13_"  style="overflow:visible;"/>
					</clipPath>
					<g class="st13">
						<path class="st6" d="M80.6,98v-5.5l-5.4,3v5.6l-2.4,1.4L54.5,94l-14.6-7.4l-3.3-1.9v-3.8c-0.1-0.9-0.6-1.7-1.4-2.1
							c-0.4-0.3-1-0.2-1.3,0.3c-0.1,0.2-0.2,0.4-0.2,0.6v1.9"/>
					</g>
				</g>
				<polyline class="st6" points="76.7,98.4 76.7,97 75.8,97.5 75.8,98.9 				"/>
				<g>
					<defs>
						<rect id="SVGID_15_" x="3.3" y="5.6" width="86.5" height="99.1"/>
					</defs>
					<clipPath id="SVGID_16_">
						<use xlink:href="#SVGID_15_"  style="overflow:visible;"/>
					</clipPath>
					<g class="st14">
						<path class="st6" d="M81.4,61.8l1.6,1v33.8L80.6,98c-1.2-0.4-2.5-0.3-3.6,0.3L75.7,99c-0.2,0.1-0.4,0.2-0.6,0.4"/>
					</g>
				</g>
				<polyline class="st7" points="34.3,37.8 39.3,34.8 39.3,32.9 27.5,25.1 20.1,29.3 				"/>
				<line class="st7" x1="39.3" y1="32.8" x2="34.3" y2="35.8"/>
				<g>
					<defs>
						<rect id="SVGID_17_" x="3.3" y="5.6" width="86.5" height="99.1"/>
					</defs>
					<clipPath id="SVGID_18_">
						<use xlink:href="#SVGID_17_"  style="overflow:visible;"/>
					</clipPath>
					<g class="st15">
						<g class="st5">
							<path class="st0" d="M195.4,69.2c0.7,0.5,0.7,1,0.2,1.5l-0.6-0.4c0.2-0.2,0.2-0.5-0.2-0.7c-0.5-0.3-1.2-0.3-1.8,0.1
								c-0.6,0.3-0.8,0.8-0.3,1.1c0.3,0.2,0.7,0.3,1.1,0.2l0.6,0.4c-0.8,0.3-1.6,0.2-2.3-0.2c-0.8-0.6-0.7-1.4,0.2-1.9
								C193.4,68.6,194.6,68.7,195.4,69.2z"/>
						</g>
						<g class="st5">
							<path class="st0" d="M199.7,72.2l-2,2.6l-0.6-0.4l0.5-0.6l-1.1-0.8l-1,0.3l-0.6-0.4l4.3-1L199.7,72.2z M197.2,72.8l0.7,0.5
								l0.7-0.9L197.2,72.8z"/>
						</g>
						<g class="st5">
							<path class="st0" d="M201.9,73.8l2.6,1.8l-0.6,0.3l-1-0.7l-2.6,1.5l-0.6-0.4l2.6-1.5l-1-0.7L201.9,73.8z"/>
						</g>
						<g class="st5">
							<path class="st0" d="M208.7,78.5l-3.2,1.8l-0.6-0.4l1.3-0.8l-1.4-0.9l-1.3,0.8l-0.6-0.4l3.2-1.8l0.6,0.4l-1.3,0.7l1.4,0.9
								L208,78L208.7,78.5z"/>
							<path class="st0" d="M212.4,81.1l-0.6,0.3l-1.4-1l-0.7,0.4l1.3,0.9l-0.6,0.3l-1.3-0.9l-0.7,0.4l1.4,1l-0.6,0.3l-2-1.4
								l3.2-1.8L212.4,81.1z"/>
							<path class="st0" d="M212.7,83.8l-1.2,0.7l-0.6-0.4l3.2-1.8l1.2,0.9c0.6,0.4,0.7,0.9,0.1,1.3c-0.5,0.3-1.1,0.3-1.6,0.1
								l-0.4,1.3l-0.7-0.5l0.4-1.2L212.7,83.8z M213.3,83.5l0.6,0.4c0.3,0.2,0.6,0.2,0.9,0.1c0.3-0.2,0.3-0.4,0-0.6l-0.6-0.4
								L213.3,83.5z"/>
							<path class="st0" d="M215.5,87.2l-0.6-0.4L218,85l0.6,0.4L215.5,87.2z"/>
							<path class="st0" d="M219.8,90.2l-0.5-0.3l0.7-2.2l-2.1,1.2l-0.6-0.4l3.2-1.8L221,87l-0.7,2.1l2-1.2l0.6,0.4L219.8,90.2z"/>
							<path class="st0" d="M226.7,91l-0.6,0.3l-1.4-1l-0.7,0.4l1.3,0.9l-0.6,0.3l-1.3-0.9l-0.7,0.4l1.4,1l-0.6,0.3l-2-1.4l3.2-1.8
								L226.7,91z"/>
							<path class="st0" d="M230.6,93.7l0.6,0.4l-2.6,1.5l1.4,1l-0.6,0.3l-2-1.4L230.6,93.7z"/>
						</g>
						<g class="st5">
							<path class="st0" d="M233.6,99.8l-0.5-0.3l0.7-2.2l-2.1,1.2l-0.6-0.4l3.2-1.8l0.6,0.4l-0.7,2.1l2-1.2l0.6,0.4L233.6,99.8z"/>
						</g>
						<path class="st7" d="M259.8,95.9V95c0-0.1-0.1-0.3-0.2-0.4"/>
						<path class="st7" d="M260.4,96.2v-1.2c0-0.3-0.2-0.7-0.8-0.3c-0.4,0.2-0.7,0.6-0.7,1.1v1.3l-6.7,3.9l-8.8-6.1l-11.2-7.6
							l-9.4-6.4l-13.9-9.5L189.1,57V22.9l1.4-0.8"/>
						<path class="st7" d="M197.8,12.9c0.3,0.9,0.1,1.6-0.5,1.6s-1.3-0.7-1.6-1.6s-0.1-1.6,0.5-1.6S197.5,12.1,197.8,12.9z"/>
						<path class="st7" d="M199.3,13c-0.3,0.9-0.1,1.6,0.5,1.6s1.3-0.7,1.6-1.6s0.1-1.6-0.5-1.6S199.6,12.1,199.3,13z"/>
						<path class="st7" d="M196.7,4.9c-0.1,0.1-0.1,0.2-0.2,0.3l0.1,0.3c0.1,0.2,0.6,0.3,1.3,0.1s2.3-1.1,2.5-1.9l-0.2-0.5
							c-0.2,0-0.3,0-0.5,0"/>
						<path class="st7" d="M200.2,4.1c0.2,1-0.4,1.9-1.4,2.1c-0.2,0.1-0.5,0.1-0.7,0c-0.4-0.1-0.7-0.3-0.9-0.5h-0.1"/>
						<path class="st7" d="M196.8,5.2c-0.1-0.1-0.1-0.3-0.1-0.4c-0.1-1,0.5-1.9,1.5-2c0.6-0.1,1.2,0.1,1.6,0.5
							c0.1,0.1,0.2,0.3,0.3,0.4"/>
						<path class="st7" d="M199.8,6.8c0-0.1,0-0.1,0-0.2c0,0,0-0.1-0.1-0.1c-0.1,0-0.2,0-0.3,0.1V6.5l0.1-0.4"/>
						<path class="st7" d="M199,6.8c0,0.1,0.1,0.2,0.1,0.2s0.2,0.1,0.3,0"/>
						<path class="st7" d="M258.1,52.1c-0.7,0.1-1.2,0.8-1.2,1.5v1.1c0,0.4,0.6,0.8,1.5,0.8s1.5-0.3,1.5-0.8v-1.1
							c0-0.7-0.5-1.4-1.2-1.5V52c0-0.1-0.1-0.2-0.2-0.2s-0.2,0.1-0.2,0.2V52.1z"/>
					</g>
				</g>
				<polygon class="st1" points="78.3,68.4 78.3,93.8 83,91 83,65.8 				"/>
				<line class="st16" x1="78.3" y1="71.2" x2="83" y2="68.5"/>
				<line class="st16" x1="78.3" y1="74" x2="83" y2="71.3"/>
				<line class="st16" x1="78.3" y1="76.8" x2="83" y2="74.1"/>
				<line class="st16" x1="78.3" y1="79.6" x2="83" y2="76.9"/>
				<line class="st16" x1="78.3" y1="82.5" x2="83" y2="79.8"/>
				<line class="st16" x1="78.3" y1="85.3" x2="83" y2="82.6"/>
				<line class="st16" x1="78.3" y1="88.1" x2="83" y2="85.4"/>
				<line class="st16" x1="78.3" y1="90.9" x2="83" y2="88.2"/>
				<g>
					<defs>
						<rect id="SVGID_19_" x="103.5" y="0.9" width="86.6" height="104.5"/>
					</defs>
					<clipPath id="SVGID_20_">
						<use xlink:href="#SVGID_19_"  style="overflow:visible;"/>
					</clipPath>
					<g class="st17">
						<path class="st6" d="M2,98.7v-5.4l-5.4,3v5.6l-2.4,1.4L-24,94.7l-14.7-7.3l-3.3-1.9v-3.8c-0.1-0.9-0.6-1.7-1.4-2.1
							c-0.4-0.3-1-0.2-1.3,0.3c-0.1,0.2-0.2,0.4-0.2,0.6v1.9"/>
						<path class="st6" d="M2.9,62.5l1.6,1v33.8L2,98.7c-1.2-0.3-2.5-0.2-3.6,0.3l-1.2,0.7c-0.2,0.1-0.4,0.2-0.5,0.4"/>
					</g>
				</g>
				<polyline class="st6" points="188.6,62.2 173.6,70.7 110.6,29.3 				"/>
				<polyline class="st6" points="188.6,65.1 173.6,73.6 110.6,32.1 				"/>
				<polyline class="st6" points="188.6,67.9 173.6,76.4 110.6,35 				"/>
				<polyline class="st6" points="188.6,70.7 173.6,79.2 110.6,37.8 				"/>
				<polyline class="st6" points="188.6,73.6 173.6,82.1 110.6,40.6 				"/>
				<polyline class="st6" points="188.6,76.4 173.6,84.9 110.6,43.4 				"/>
				<polyline class="st6" points="188.6,79.2 173.6,87.7 110.6,46.3 				"/>
				<polyline class="st6" points="188.6,82.1 173.6,90.5 110.6,49.1 				"/>
				<polyline class="st6" points="188.6,84.9 173.6,93.4 110.6,51.9 				"/>
				<polyline class="st6" points="188.6,87.7 173.6,96.2 110.6,54.8 				"/>
				<polyline class="st6" points="188.6,90.6 173.6,99 110.6,57.6 				"/>
				<line class="st6" x1="188.6" y1="90.6" x2="173.6" y2="99"/>
				<g class="st5">
					<path class="st0" d="M116.9,69.9c0.7,0.5,0.7,1,0.2,1.5l-0.6-0.4c0.2-0.2,0.2-0.5-0.2-0.7c-0.5-0.3-1.2-0.3-1.8,0.1
						c-0.6,0.3-0.8,0.8-0.3,1.1c0.3,0.2,0.7,0.3,1.1,0.2L116,72c-0.7,0.3-1.6,0.2-2.3-0.2c-0.8-0.6-0.7-1.4,0.2-1.9
						C114.9,69.3,116.1,69.4,116.9,69.9z"/>
				</g>
				<g class="st5">
					<path class="st0" d="M121.2,72.9l-2,2.6l-0.6-0.4l0.5-0.6l-1.1-0.8l-1,0.3l-0.6-0.4l4.3-1L121.2,72.9z M118.7,73.5l0.7,0.5
						l0.7-0.9L118.7,73.5z"/>
				</g>
				<g class="st5">
					<path class="st0" d="M123.4,74.5l2.6,1.8l-0.6,0.3l-1-0.7l-2.6,1.5l-0.6-0.4l2.6-1.5l-1-0.7L123.4,74.5z"/>
				</g>
				<g class="st5">
					<path class="st0" d="M130.1,79.2L127,81l-0.6-0.4l1.3-0.8l-1.4-0.9l-1.3,0.8l-0.6-0.4l3.2-1.8l0.6,0.4l-1.3,0.7l1.4,0.9
						l1.3-0.7L130.1,79.2z"/>
					<path class="st0" d="M133.9,81.8l-0.6,0.3l-1.4-1l-0.7,0.4l1.3,0.9l-0.6,0.3l-1.3-0.9l-0.7,0.4l1.4,1l-0.6,0.3l-2-1.4l3.2-1.8
						L133.9,81.8z"/>
					<path class="st0" d="M134.2,84.5l-1.2,0.7l-0.6-0.4l3.2-1.8l1.2,0.9c0.6,0.4,0.7,0.9,0.1,1.3c-0.5,0.3-1.1,0.3-1.6,0.1
						l-0.4,1.3l-0.7-0.5l0.4-1.2L134.2,84.5z M134.8,84.2l0.6,0.4c0.3,0.2,0.6,0.2,0.9,0.1c0.3-0.2,0.3-0.4,0-0.6l-0.6-0.4
						L134.8,84.2z"/>
				</g>
				<g class="st5">
					<path class="st0" d="M137,87.9l-0.6-0.4l3.2-1.8l0.6,0.4L137,87.9z"/>
				</g>
				<g class="st5">
					<path class="st0" d="M141.2,90.9l-0.5-0.3l0.7-2.2l-2.1,1.2l-0.6-0.4l3.2-1.8l0.6,0.4l-0.7,2.1l2-1.2l0.6,0.4L141.2,90.9z"/>
					<path class="st0" d="M148.2,91.7l-0.6,0.3l-1.4-1l-0.7,0.4l1.3,0.9l-0.6,0.3l-1.3-0.9l-0.7,0.4l1.4,1l-0.6,0.3l-2-1.4l3.2-1.8
						L148.2,91.7z"/>
					<path class="st0" d="M152,94.4l0.6,0.4l-2.6,1.5l1.4,1l-0.6,0.3l-2-1.4L152,94.4z"/>
				</g>
				<g class="st5">
					<path class="st0" d="M155.1,100.5l-0.5-0.3l0.7-2.2l-2.1,1.2l-0.6-0.4l3.2-1.8l0.6,0.4l-0.7,2.1l2-1.2l0.6,0.4L155.1,100.5z"/>
				</g>
				<polyline class="st7" points="188.6,59.4 173.6,67.9 110.6,26.5 				"/>
				<line class="st7" x1="173.7" y1="65" x2="173.7" y2="101.8"/>
				<line class="st7" x1="181.3" y1="96.6" x2="180.4" y2="97.1"/>
				<polyline class="st7" points="181.3,96.6 181.9,96.9 188.6,93 188.6,56.5 				"/>
				<polyline class="st7" points="188.6,56.5 173.6,65 110.6,23.6 				"/>
				<g>
					<defs>
						<rect id="SVGID_21_" x="103.5" y="0.9" width="86.6" height="104.5"/>
					</defs>
					<clipPath id="SVGID_22_">
						<use xlink:href="#SVGID_21_"  style="overflow:visible;"/>
					</clipPath>
					<g class="st18">
						<path class="st7" d="M181.3,96.6v-0.8c0-0.1-0.1-0.3-0.2-0.4"/>
						<path class="st7" d="M181.9,96.9v-1.2c0-0.3-0.2-0.7-0.8-0.3c-0.4,0.2-0.7,0.6-0.7,1.1v1.3l-6.7,3.9l-8.8-6.1L153.6,88
							l-9.4-6.4L130.4,72l-19.8-14.3V23.6l1.4-0.8"/>
					</g>
				</g>
				<line class="st7" x1="176.1" y1="58" x2="176.1" y2="56.5"/>
				<line class="st7" x1="119.6" y1="26.2" x2="119.6" y2="28.8"/>
				<line class="st7" x1="176.1" y1="58" x2="176.9" y2="58.6"/>
				<line class="st7" x1="176.1" y1="56.5" x2="176.9" y2="57.1"/>
				<line class="st7" x1="120.1" y1="11.2" x2="120.1" y2="9.2"/>
				<line class="st7" x1="120.1" y1="11.3" x2="120.1" y2="9.1"/>
				<line class="st7" x1="119.7" y1="24.3" x2="119.7" y2="19.8"/>
				<polyline class="st7" points="121.2,27.9 119.6,28.8 112,23.7 112,21.2 114.6,19.6 				"/>
				<polyline class="st7" points="120.1,17.1 123.7,15 123.7,10.3 123.7,10.2 122.1,9.2 				"/>
				<g>
					<defs>
						<rect id="SVGID_23_" x="103.5" y="0.9" width="86.6" height="104.5"/>
					</defs>
					<clipPath id="SVGID_24_">
						<use xlink:href="#SVGID_23_"  style="overflow:visible;"/>
					</clipPath>
					<g class="st19">
						<path class="st7" d="M119.3,13.6c0.3,0.9,0.1,1.6-0.5,1.6s-1.3-0.7-1.6-1.6s-0.1-1.6,0.5-1.6S119,12.8,119.3,13.6z"/>
						<path class="st7" d="M120.8,13.6c-0.3,0.9-0.1,1.5,0.5,1.6s1.3-0.7,1.6-1.6s0.1-1.6-0.5-1.6S121.1,12.8,120.8,13.6z"/>
					</g>
				</g>
				<line class="st7" x1="119.7" y1="19.9" x2="125.6" y2="16.5"/>
				<line class="st7" x1="114.6" y1="16.5" x2="119.7" y2="19.9"/>
				<line class="st7" x1="112" y1="21.2" x2="119.6" y2="26.2"/>
				<polyline class="st7" points="123.7,14.8 124,15 124,16.5 124,16.6 120,18.9 120,18.8 120,12.5 				"/>
				<polyline class="st7" points="116.1,15.6 114.6,16.5 114.6,20.9 114.6,21 119.7,24.3 				"/>
				<polyline class="st7" points="125.7,18.8 128.8,20.8 128.8,22.5 				"/>
				<line class="st7" x1="119.9" y1="12.5" x2="123.7" y2="10.3"/>
				<line class="st7" x1="116.6" y1="10.2" x2="118" y2="9.4"/>
				<line class="st7" x1="116.6" y1="10.2" x2="120" y2="12.6"/>
				<polyline class="st7" points="124,15.4 125.6,16.5 125.7,16.5 125.7,20.8 125.6,20.9 119.6,24.3 				"/>
				<line class="st7" x1="118.1" y1="7.9" x2="120.1" y2="9.2"/>
				<line class="st7" x1="121.1" y1="7.3" x2="122.1" y2="7.9"/>
				<g>
					<defs>
						<rect id="SVGID_25_" x="103.5" y="0.9" width="86.6" height="104.5"/>
					</defs>
					<clipPath id="SVGID_26_">
						<use xlink:href="#SVGID_25_"  style="overflow:visible;"/>
					</clipPath>
					<g class="st20">
						<path class="st7" d="M118.2,5.6c0,0.1-0.2,0.2-0.2,0.3l0.1,0.3c0.1,0.2,0.6,0.3,1.3,0.1s2.3-1,2.5-1.9l-0.2-0.5
							c-0.2,0-0.3,0-0.5,0"/>
					</g>
				</g>
				<polyline class="st7" points="118.9,2.5 119.9,3 120.3,2.8 121,1.8 				"/>
				<g>
					<defs>
						<rect id="SVGID_27_" x="103.5" y="0.9" width="86.6" height="104.5"/>
					</defs>
					<clipPath id="SVGID_28_">
						<use xlink:href="#SVGID_27_"  style="overflow:visible;"/>
					</clipPath>
					<g class="st21">
						<path class="st7" d="M121.7,4.8c0.2,0.9-0.3,1.9-1.3,2.2c-0.3,0.1-0.5,0.1-0.8,0c-0.4-0.1-0.7-0.2-0.9-0.5h-0.1"/>
						<path class="st7" d="M118.3,5.9c-0.1-0.1-0.1-0.3-0.1-0.4c-0.1-1,0.5-1.9,1.5-2c0.6-0.1,1.2,0.1,1.6,0.5
							c0.1,0.1,0.2,0.3,0.3,0.4"/>
						<path class="st7" d="M121.3,7.5c0-0.1,0-0.1,0-0.2c0,0-0.1-0.1-0.1-0.1c-0.1,0-0.2,0-0.3,0.1V7.2l0.1-0.4"/>
						<path class="st7" d="M120.4,7.5c0,0.1,0,0.2,0.1,0.2s0.2,0.1,0.3,0"/>
					</g>
				</g>
				<polyline class="st7" points="119.5,8.2 119.5,8 119.7,7.6 119.7,7.5 119.2,7.4 118.9,7.2 119,6.7 				"/>
				<line class="st7" x1="116.6" y1="14.9" x2="120.1" y2="17.1"/>
				<polyline class="st7" points="120,19 116.2,16.5 116.1,16.4 116.1,15.1 116.1,15.1 116.5,14.9 116.6,14.9 116.6,10.2 				"/>
				<polyline class="st7" points="119.1,7.2 118,7.9 118,8 118,10 120,11.3 120.1,11.3 122.1,10.1 122.1,8 122.1,8 120.1,9.2 				
					"/>
				<line class="st7" x1="153.7" y1="44.9" x2="166.3" y2="52.9"/>
				<polyline class="st7" points="182.4,55.3 179.6,57 176.9,55.2 				"/>
				<line class="st7" x1="179.6" y1="61" x2="179.6" y2="57"/>
				<polyline class="st7" points="176.9,56.1 171.1,59.5 121.2,27.6 				"/>
				<line class="st6" x1="188.6" y1="56.5" x2="128.8" y2="21.9"/>
				<line class="st6" x1="168.1" y1="45.3" x2="132.6" y2="24.8"/>
				<line class="st7" x1="171.1" y1="61" x2="171.1" y2="59.5"/>
				<line class="st7" x1="166.3" y1="54.7" x2="166.3" y2="52.9"/>
				<polygon class="st7" points="173.8,48.5 173.8,50.3 166.3,54.7 153.7,46.7 153.7,45 159.3,41.7 166.7,46.1 168.2,45.2 				"/>
				<line class="st7" x1="173.8" y1="48.5" x2="166.3" y2="52.9"/>
				<line class="st7" x1="132.6" y1="24.7" x2="127.2" y2="27.9"/>
				<polygon class="st7" points="122.6,26.7 122.6,25 122.6,24.9 127.8,21.9 132.6,24.7 132.6,26.2 132.6,26.3 127.2,29.6 				"/>
				<polyline class="st7" points="176.1,58 171.1,61 121.2,29.1 121.2,29.1 121.2,27.6 122.6,26.7 				"/>
				<line class="st7" x1="127.2" y1="27.8" x2="122.6" y2="25"/>
				<line class="st7" x1="127.2" y1="29.5" x2="127.2" y2="27.8"/>
				<polyline class="st7" points="181.4,54.6 181.8,54.4 181.8,53.3 173.8,48.6 				"/>
				<line class="st7" x1="181.8" y1="53.3" x2="181.1" y2="53.6"/>
				<line class="st7" x1="128.8" y1="20.9" x2="119.6" y2="26.2"/>
				<polyline class="st7" points="178.4,54.3 176.9,55.2 176.9,59.3 179.6,61 182.4,59.4 182.4,55.3 181.3,54.6 				"/>
				<g>
					<defs>
						<rect id="SVGID_29_" x="103.5" y="0.9" width="86.6" height="104.5"/>
					</defs>
					<clipPath id="SVGID_30_">
						<use xlink:href="#SVGID_29_"  style="overflow:visible;"/>
					</clipPath>
					<g class="st22">
						<path class="st7" d="M179.6,52.8c-0.7,0.1-1.2,0.8-1.2,1.5v1.1c0,0.4,0.7,0.8,1.5,0.8s1.5-0.3,1.5-0.8v-1.1
							c0-0.7-0.5-1.4-1.2-1.5v-0.2c0-0.1-0.1-0.2-0.2-0.2s-0.2,0.1-0.2,0.2V52.8z"/>
					</g>
				</g>
				<polygon class="st1" points="110.6,26.5 110.6,51.9 120.8,58.7 120.7,33.1 				"/>
				<line class="st16" x1="120.7" y1="35.9" x2="110.5" y2="29.2"/>
				<line class="st16" x1="120.7" y1="38.8" x2="110.6" y2="32.1"/>
				<line class="st16" x1="120.7" y1="41.6" x2="110.5" y2="34.9"/>
				<line class="st16" x1="120.7" y1="44.4" x2="110.6" y2="37.8"/>
				<line class="st16" x1="120.8" y1="47.3" x2="110.6" y2="40.6"/>
				<line class="st16" x1="120.8" y1="50.1" x2="110.6" y2="43.4"/>
				<line class="st16" x1="120.8" y1="53" x2="110.6" y2="46.2"/>
				<line class="st16" x1="120.8" y1="55.8" x2="110.6" y2="49.1"/>
			</g>
		</g>
	</g>
</g>
</svg>
