<?xml version="1.0" encoding="utf-8"?>
<!-- Generator: Adobe Illustrator 16.0.4, SVG Export Plug-In . SVG Version: 6.00 Build 0)  -->
<!DOCTYPE svg PUBLIC "-//W3C//DTD SVG 1.1//EN" "http://www.w3.org/Graphics/SVG/1.1/DTD/svg11.dtd">
<svg version="1.1" id="Layer_1" xmlns="http://www.w3.org/2000/svg" xmlns:xlink="http://www.w3.org/1999/xlink" x="0px" y="0px"
	 width="238.667px" height="98.046px" viewBox="-96.5 83.713 238.667 98.046" enable-background="new -96.5 83.713 238.667 98.046"
	 xml:space="preserve">
<g>
	<defs>
		<rect id="SVGID_1_" x="-71" y="-381.24" width="1224" height="792"/>
	</defs>
	<clipPath id="SVGID_2_">
		<use xlink:href="#SVGID_1_"  overflow="visible"/>
	</clipPath>
	<g clip-path="url(#SVGID_2_)" enable-background="new    ">
		<path fill="#D1D3D4" d="M5.869,128.278c-0.792,0-1.219-0.547-1.219-1.443v-1.786h4.301v1.646c0,0.896-0.399,1.45-1.17,1.45
			c-0.463,0-0.799-0.252-0.911-0.567C6.737,127.983,6.338,128.278,5.869,128.278z M5.407,125.911v0.847
			c0,0.421,0.21,0.645,0.539,0.645c0.336,0,0.539-0.224,0.539-0.645v-0.847H5.407z M7.186,126.639c0,0.427,0.168,0.651,0.512,0.651
			c0.343,0,0.497-0.225,0.497-0.651v-0.728H7.186V126.639z"/>
		<path fill="#D1D3D4" d="M6.254,130.804H4.65v-0.891h4.301v1.772c0,0.903-0.483,1.506-1.366,1.506c-0.687,0-1.12-0.378-1.268-0.98
			l-1.667,1.135v-1.009l1.604-1.064V130.804z M6.989,130.804v0.826c0,0.448,0.238,0.68,0.596,0.68c0.364,0,0.603-0.231,0.603-0.68
			v-0.826H6.989z"/>
	</g>
	<g enable-background="new    ">
		<path fill="#D1D3D4" d="M4.58,137.763c0-1.197,0.938-2.031,2.221-2.031c1.288,0,2.22,0.834,2.22,2.031s-0.932,2.038-2.22,2.038
			C5.519,139.801,4.58,138.96,4.58,137.763z M8.223,137.763c0-0.68-0.582-1.121-1.422-1.121c-0.841,0-1.422,0.441-1.422,1.121
			c0,0.686,0.581,1.135,1.422,1.135C7.641,138.897,8.223,138.448,8.223,137.763z"/>
	</g>
	<g enable-background="new    ">
		<path fill="#D1D3D4" d="M8.951,143.985l-4.301,1.646v-0.91l1.036-0.386v-1.61l-1.036-0.378v-0.896l4.301,1.646V143.985z
			 M6.443,143.005v1.051l1.429-0.525L6.443,143.005z"/>
	</g>
	<g enable-background="new    ">
		<path fill="#D1D3D4" d="M8.951,147.68v1.521c0,1.303-0.841,2.121-2.15,2.121s-2.15-0.818-2.15-2.121v-1.521H8.951z M5.441,149.165
			c0,0.818,0.525,1.268,1.359,1.268c0.84,0,1.365-0.449,1.365-1.268v-0.596H5.441V149.165z"/>
	</g>
	<g enable-background="new    ">
		<path fill="#D1D3D4" d="M8.951,156.145l-2.893,0.743l2.893,0.707v0.883l-4.301-1.121v-0.819l2.837-0.757l-2.837-0.756v-0.82
			l4.301-1.12v0.903l-2.893,0.701l2.893,0.756V156.145z"/>
	</g>
	<g enable-background="new    ">
		<path fill="#D1D3D4" d="M8.951,162.479l-4.301,1.646v-0.91l1.036-0.385v-1.611l-1.036-0.379v-0.896l4.301,1.646V162.479z
			 M6.443,161.497v1.051l1.429-0.525L6.443,161.497z"/>
	</g>
	<g enable-background="new    ">
		<path fill="#D1D3D4" d="M8.951,168.402v0.945l-2.669-1.562H4.65v-0.89h1.632l2.669-1.548v0.974l-1.821,1.044L8.951,168.402z"/>
	</g>
</g>
<g>
	<defs>
		<rect id="SVGID_3_" x="-71" y="-381.24" width="1224" height="792"/>
	</defs>
	<clipPath id="SVGID_4_">
		<use xlink:href="#SVGID_3_"  overflow="visible"/>
	</clipPath>
	<g clip-path="url(#SVGID_4_)" enable-background="new    ">
		<path fill="#D1D3D4" d="M139.375,117.153v0.896h-3.51v2.004h-0.791v-2.9H139.375z"/>
	</g>
	<g enable-background="new    ">
		<path fill="#D1D3D4" d="M139.375,124.477l-4.301,1.646v-0.91l1.036-0.385v-1.611l-1.036-0.379v-0.896l4.301,1.646V124.477z
			 M136.867,123.495v1.051l1.429-0.525L136.867,123.495z"/>
	</g>
	<g enable-background="new    ">
		<path fill="#D1D3D4" d="M135.074,128.178h4.301v2.864h-0.785v-1.975h-1.093v1.828h-0.777v-1.828h-1.646V128.178z"/>
	</g>
	<g enable-background="new    ">
		<path fill="#D1D3D4" d="M139.375,135.18l-4.301,1.646v-0.91l1.036-0.385v-1.611l-1.036-0.379v-0.896l4.301,1.646V135.18z
			 M136.867,134.198v1.051l1.429-0.525L136.867,134.198z"/>
	</g>
	<g enable-background="new    ">
		<path fill="#D1D3D4" d="M139.375,141.108v0.945l-2.669-1.562h-1.632v-0.889h1.632l2.669-1.548v0.974l-1.821,1.043L139.375,141.108
			z"/>
		<path fill="#D1D3D4" d="M139.375,146.456h-0.785v-2.037h-0.938v1.848h-0.763v-1.848h-1.023v2.037h-0.791v-2.92h4.301V146.456z"/>
		<path fill="#D1D3D4" d="M139.375,147.911v3.67h-0.785v-1.387h-3.516v-0.904h3.516v-1.379H139.375z"/>
		<path fill="#D1D3D4" d="M139.375,152.93v3.67h-0.785v-1.387h-3.516v-0.903h3.516v-1.38H139.375z"/>
		<path fill="#D1D3D4" d="M139.375,161.101h-0.785v-2.039h-0.938v1.85h-0.763v-1.85h-1.023v2.039h-0.791v-2.922h4.301V161.101z"/>
	</g>
	<g enable-background="new    ">
		<path fill="#D1D3D4" d="M136.3,169.171c-0.378,0.119-0.554,0.434-0.554,0.854c0,0.435,0.196,0.723,0.54,0.723
			c0.259,0,0.399-0.154,0.483-0.525l0.175-0.771c0.14-0.615,0.469-1.092,1.177-1.092c0.777,0,1.323,0.645,1.323,1.547
			c0,0.98-0.518,1.549-1.246,1.688v-0.89c0.287-0.098,0.511-0.343,0.511-0.791c0-0.406-0.196-0.68-0.504-0.68
			c-0.245,0-0.393,0.161-0.47,0.483l-0.182,0.784c-0.161,0.701-0.561,1.128-1.212,1.128c-0.833,0-1.338-0.687-1.338-1.597
			c0-0.96,0.477-1.639,1.296-1.786V169.171z"/>
	</g>
	<g enable-background="new    ">
		<path fill="#D1D3D4" d="M139.375,173.487v3.67h-0.785v-1.387h-3.516v-0.902h3.516v-1.381H139.375z"/>
	</g>
</g>
<g>
	<defs>
		<rect id="SVGID_5_" x="-71" y="-381.24" width="1224" height="792"/>
	</defs>
	<clipPath id="SVGID_6_">
		<use xlink:href="#SVGID_5_"  overflow="visible"/>
	</clipPath>
	<g clip-path="url(#SVGID_6_)" enable-background="new    ">
		<path fill="#D1D3D4" d="M47.33,117.438h0.896v3.51h2.003v0.791h-2.9V117.438z"/>
		<path fill="#D1D3D4" d="M54.794,117.438v0.785h-2.038v0.938h1.849v0.763h-1.849v1.023h2.038v0.791h-2.921v-4.301H54.794z"/>
	</g>
	<g enable-background="new    ">
		<path fill="#D1D3D4" d="M59.112,121.809c-1.198,0-2.031-0.938-2.031-2.221c0-1.288,0.833-2.22,2.031-2.22
			c1.197,0,2.038,0.932,2.038,2.22C61.15,120.87,60.31,121.809,59.112,121.809z M59.112,118.166c-0.68,0-1.121,0.582-1.121,1.422
			c0,0.841,0.441,1.422,1.121,1.422c0.686,0,1.134-0.581,1.134-1.422C60.247,118.748,59.798,118.166,59.112,118.166z"/>
	</g>
	<g enable-background="new    ">
		<path fill="#D1D3D4" d="M66.764,121.738h-0.708l-2.031-2.864v2.864h-0.862v-4.301h0.841l1.898,2.718v-2.718h0.861V121.738z"/>
	</g>
	<g enable-background="new    ">
		<path fill="#D1D3D4" d="M71.216,117.438l1.646,4.301h-0.91l-0.385-1.036h-1.611l-0.378,1.036H68.68l1.646-4.301H71.216z
			 M70.235,119.945h1.051l-0.525-1.429L70.235,119.945z"/>
	</g>
	<g enable-background="new    ">
		<path fill="#D1D3D4" d="M75.66,120.135v1.604h-0.89v-4.301h1.772c0.903,0,1.506,0.483,1.506,1.366c0,0.687-0.379,1.12-0.98,1.268
			l1.135,1.667h-1.01l-1.064-1.604H75.66z M75.66,119.399h0.826c0.448,0,0.68-0.238,0.68-0.596c0-0.364-0.231-0.603-0.68-0.603
			H75.66V119.399z"/>
		<path fill="#D1D3D4" d="M79.705,117.438h1.521c1.303,0,2.122,0.841,2.122,2.15s-0.819,2.15-2.122,2.15h-1.521V117.438z
			 M81.19,120.947c0.819,0,1.268-0.525,1.268-1.359c0-0.84-0.448-1.365-1.268-1.365h-0.595v2.725H81.19z"/>
	</g>
	<g enable-background="new    ">
		<path fill="#D1D3D4" d="M89.289,120.513c0.119,0.378,0.434,0.554,0.854,0.554c0.435,0,0.723-0.196,0.723-0.54
			c0-0.259-0.154-0.399-0.525-0.483l-0.771-0.175c-0.615-0.14-1.092-0.469-1.092-1.177c0-0.777,0.645-1.323,1.547-1.323
			c0.98,0,1.549,0.518,1.688,1.246h-0.89c-0.098-0.287-0.343-0.511-0.791-0.511c-0.406,0-0.68,0.196-0.68,0.504
			c0,0.245,0.161,0.393,0.483,0.47l0.784,0.182c0.701,0.161,1.128,0.561,1.128,1.212c0,0.833-0.687,1.338-1.597,1.338
			c-0.96,0-1.639-0.477-1.786-1.296H89.289z"/>
	</g>
	<g enable-background="new    ">
		<path fill="#D1D3D4" d="M93.467,117.438h3.67v0.785H95.75v3.516h-0.902v-3.516h-1.381V117.438z"/>
	</g>
</g>
<g>
	<defs>
		<rect id="SVGID_7_" x="-71" y="-381.24" width="1224" height="792"/>
	</defs>
	<clipPath id="SVGID_8_">
		<use xlink:href="#SVGID_7_"  overflow="visible"/>
	</clipPath>
	<g clip-path="url(#SVGID_8_)" enable-background="new    ">
		<path fill="#D1D3D4" d="M44.182,171.072c1.016,0,1.639,0.595,1.8,1.456h-0.89c-0.147-0.392-0.413-0.658-0.911-0.658
			c-0.686,0-1.092,0.603-1.092,1.422c0,0.812,0.406,1.422,1.092,1.422c0.498,0,0.764-0.266,0.911-0.665h0.89
			c-0.161,0.868-0.785,1.464-1.8,1.464c-1.148,0-2.003-0.903-2.003-2.221C42.179,171.976,43.033,171.072,44.182,171.072z"/>
	</g>
	<g enable-background="new    ">
		<path fill="#D1D3D4" d="M50.21,171.142l1.646,4.301h-0.91l-0.385-1.036h-1.611l-0.378,1.036h-0.896l1.646-4.301H50.21z
			 M49.229,173.649h1.051l-0.525-1.429L49.229,173.649z"/>
	</g>
	<g enable-background="new    ">
		<path fill="#D1D3D4" d="M53.232,171.142h3.67v0.785h-1.387v3.516h-0.903v-3.516h-1.38V171.142z"/>
	</g>
	<g enable-background="new    ">
		<path fill="#D1D3D4" d="M62.769,171.142v4.301h-0.896v-1.807h-1.947v1.807h-0.896v-4.301h0.896v1.709h1.947v-1.709H62.769z"/>
	</g>
	<g enable-background="new    ">
		<path fill="#D1D3D4" d="M68.046,171.142v0.785h-2.038v0.938h1.849v0.763h-1.849v1.023h2.038v0.791h-2.921v-4.301H68.046z"/>
		<path fill="#D1D3D4" d="M70.621,173.839v1.604h-0.89v-4.301h1.772c0.904,0,1.506,0.483,1.506,1.366c0,0.687-0.378,1.12-0.98,1.268
			l1.135,1.667h-1.009l-1.064-1.604H70.621z M70.621,173.104h0.827c0.448,0,0.679-0.238,0.679-0.596
			c0-0.364-0.231-0.603-0.679-0.603h-0.827V173.104z"/>
	</g>
	<g enable-background="new    ">
		<path fill="#D1D3D4" d="M76.654,175.442h-0.896v-4.301h0.896V175.442z"/>
	</g>
	<g enable-background="new    ">
		<path fill="#D1D3D4" d="M82.605,175.442h-0.707l-2.031-2.864v2.864h-0.861v-4.301h0.841l1.897,2.718v-2.718h0.861V175.442z"/>
		<path fill="#D1D3D4" d="M87.345,171.142v0.785h-2.038v0.938h1.849v0.763h-1.849v1.023h2.038v0.791h-2.921v-4.301H87.345z"/>
		<path fill="#D1D3D4" d="M91.508,171.142h0.896v3.51h2.004v0.791h-2.9V171.142z"/>
	</g>
	<g enable-background="new    ">
		<path fill="#D1D3D4" d="M101.834,175.442h-0.707l-2.031-2.864v2.864h-0.861v-4.301h0.841l1.897,2.718v-2.718h0.861V175.442z"/>
	</g>
</g>
<g>
	<defs>
		<rect id="SVGID_9_" x="-71" y="-381.24" width="1224" height="792"/>
	</defs>
	<clipPath id="SVGID_10_">
		<use xlink:href="#SVGID_9_"  overflow="visible"/>
	</clipPath>
	<path clip-path="url(#SVGID_10_)" d="M54.688,137.142h16.108v4.526H65.89v2.25h0.453v1.172H64.25v0.203h-2.344v-0.233h-1.828v0.233
		h-5.594v-2.75h0.187L54.688,137.142z"/>
</g>
<g>
	<defs>
		<rect id="SVGID_11_" x="16.156" y="135.466" width="112.014" height="25.277"/>
	</defs>
	<clipPath id="SVGID_12_">
		<use xlink:href="#SVGID_11_"  overflow="visible"/>
	</clipPath>
	<path clip-path="url(#SVGID_12_)" fill="none" stroke="#D0D2D3" stroke-width="1.092" stroke-miterlimit="10" d="M125.484,137.142
		v21.924l-107.979-6.717l0.051-15.207H125.484z"/>
</g>
<g>
	<defs>
		<rect id="SVGID_13_" x="-199.333" y="-296.906" width="1224" height="792"/>
	</defs>
	<clipPath id="SVGID_14_">
		<use xlink:href="#SVGID_13_"  overflow="visible"/>
	</clipPath>
	<path clip-path="url(#SVGID_14_)" d="M-47.277,128.759v29.737l-11.071-6.372v-29.779L-47.277,128.759z"/>
</g>
<g>
	<defs>
		<rect id="SVGID_15_" x="-199.333" y="-296.906" width="1224" height="792"/>
	</defs>
	<clipPath id="SVGID_16_">
		<use xlink:href="#SVGID_15_"  overflow="visible"/>
	</clipPath>
	<path clip-path="url(#SVGID_16_)" fill="none" stroke="#D1D3D4" stroke-width="0.154" stroke-miterlimit="10" d="M-21.546,179.392
		l-38.244-22.156"/>
</g>
<g>
	<defs>
		<rect id="SVGID_17_" x="-199.333" y="-296.906" width="1224" height="792"/>
	</defs>
	<clipPath id="SVGID_18_">
		<use xlink:href="#SVGID_17_"  overflow="visible"/>
	</clipPath>
	<path clip-path="url(#SVGID_18_)" fill="none" stroke="#D1D3D4" stroke-width="0.154" stroke-miterlimit="10" d="M-10.715,143.329
		l-10.812,6.303l-71.545-41.447"/>
</g>
<g>
	<defs>
		<rect id="SVGID_19_" x="-199.333" y="-296.906" width="1224" height="792"/>
	</defs>
	<clipPath id="SVGID_20_">
		<use xlink:href="#SVGID_19_"  overflow="visible"/>
	</clipPath>
	<path clip-path="url(#SVGID_20_)" fill="none" stroke="#D1D3D4" stroke-width="0.154" stroke-miterlimit="10" d="M-10.715,146.308
		l-10.812,6.303l-71.545-41.447"/>
</g>
<g>
	<defs>
		<rect id="SVGID_21_" x="-199.333" y="-296.906" width="1224" height="792"/>
	</defs>
	<clipPath id="SVGID_22_">
		<use xlink:href="#SVGID_21_"  overflow="visible"/>
	</clipPath>
	<path clip-path="url(#SVGID_22_)" fill="none" stroke="#D1D3D4" stroke-width="0.154" stroke-miterlimit="10" d="M-10.715,149.286
		l-10.812,6.303l-71.545-41.447"/>
</g>
<g>
	<defs>
		<rect id="SVGID_23_" x="-199.333" y="-296.906" width="1224" height="792"/>
	</defs>
	<clipPath id="SVGID_24_">
		<use xlink:href="#SVGID_23_"  overflow="visible"/>
	</clipPath>
	<path clip-path="url(#SVGID_24_)" fill="none" stroke="#D1D3D4" stroke-width="0.154" stroke-miterlimit="10" d="M-10.715,152.265
		l-10.812,6.301l-71.545-41.446"/>
</g>
<g>
	<defs>
		<rect id="SVGID_25_" x="-199.333" y="-296.906" width="1224" height="792"/>
	</defs>
	<clipPath id="SVGID_26_">
		<use xlink:href="#SVGID_25_"  overflow="visible"/>
	</clipPath>
	<path clip-path="url(#SVGID_26_)" fill="none" stroke="#D1D3D4" stroke-width="0.154" stroke-miterlimit="10" d="M-10.715,155.243
		l-10.812,6.302l-71.545-41.446"/>
</g>
<g>
	<defs>
		<rect id="SVGID_27_" x="-199.333" y="-296.906" width="1224" height="792"/>
	</defs>
	<clipPath id="SVGID_28_">
		<use xlink:href="#SVGID_27_"  overflow="visible"/>
	</clipPath>
	<path clip-path="url(#SVGID_28_)" fill="none" stroke="#D1D3D4" stroke-width="0.154" stroke-miterlimit="10" d="M-10.715,158.222
		l-10.812,6.301l-71.545-41.446"/>
</g>
<g>
	<defs>
		<rect id="SVGID_29_" x="-199.333" y="-296.906" width="1224" height="792"/>
	</defs>
	<clipPath id="SVGID_30_">
		<use xlink:href="#SVGID_29_"  overflow="visible"/>
	</clipPath>
	<path clip-path="url(#SVGID_30_)" fill="none" stroke="#D1D3D4" stroke-width="0.154" stroke-miterlimit="10" d="M-10.715,161.199
		l-10.812,6.303l-71.545-41.448"/>
</g>
<g>
	<defs>
		<rect id="SVGID_31_" x="-199.333" y="-296.906" width="1224" height="792"/>
	</defs>
	<clipPath id="SVGID_32_">
		<use xlink:href="#SVGID_31_"  overflow="visible"/>
	</clipPath>
	<path clip-path="url(#SVGID_32_)" fill="none" stroke="#D1D3D4" stroke-width="0.154" stroke-miterlimit="10" d="M-10.715,164.178
		l-10.812,6.302l-71.545-41.446"/>
</g>
<g>
	<defs>
		<rect id="SVGID_33_" x="-199.333" y="-296.906" width="1224" height="792"/>
	</defs>
	<clipPath id="SVGID_34_">
		<use xlink:href="#SVGID_33_"  overflow="visible"/>
	</clipPath>
	<path clip-path="url(#SVGID_34_)" fill="none" stroke="#D1D3D4" stroke-width="0.154" stroke-miterlimit="10" d="M-10.714,167.155
		l-2.544,1.484"/>
</g>
<g>
	<defs>
		<rect id="SVGID_35_" x="-199.333" y="-296.906" width="1224" height="792"/>
	</defs>
	<clipPath id="SVGID_36_">
		<use xlink:href="#SVGID_35_"  overflow="visible"/>
	</clipPath>
	<path clip-path="url(#SVGID_36_)" fill="none" stroke="#D1D3D4" stroke-width="0.154" stroke-miterlimit="10" d="M-19,171.985
		l-2.526,1.474l-71.545-41.446"/>
</g>
<g>
	<defs>
		<rect id="SVGID_37_" x="-199.333" y="-296.906" width="1224" height="792"/>
	</defs>
	<clipPath id="SVGID_38_">
		<use xlink:href="#SVGID_37_"  overflow="visible"/>
	</clipPath>
	<path clip-path="url(#SVGID_38_)" fill="none" stroke="#D1D3D4" stroke-width="0.154" stroke-miterlimit="10" d="M-13.258,171.617
		l2.544-1.483"/>
</g>
<g>
	<defs>
		<rect id="SVGID_39_" x="-199.333" y="-296.906" width="1224" height="792"/>
	</defs>
	<clipPath id="SVGID_40_">
		<use xlink:href="#SVGID_39_"  overflow="visible"/>
	</clipPath>
	<path clip-path="url(#SVGID_40_)" fill="none" stroke="#D1D3D4" stroke-width="0.154" stroke-miterlimit="10" d="M-19,174.964
		l-2.526,1.475l-71.545-41.449"/>
</g>
<g>
	<defs>
		<rect id="SVGID_41_" x="-199.333" y="-296.906" width="1224" height="792"/>
	</defs>
	<clipPath id="SVGID_42_">
		<use xlink:href="#SVGID_41_"  overflow="visible"/>
	</clipPath>
	<path clip-path="url(#SVGID_42_)" fill="none" stroke="#D1D3D4" stroke-width="0.154" stroke-miterlimit="10" d="M-10.715,140.351
		l-10.812,6.303l-71.545-41.447"/>
</g>
<g>
	<defs>
		<rect id="SVGID_43_" x="-199.333" y="-296.906" width="1224" height="792"/>
	</defs>
	<clipPath id="SVGID_44_">
		<use xlink:href="#SVGID_43_"  overflow="visible"/>
	</clipPath>
	<g clip-path="url(#SVGID_44_)" enable-background="new    ">
		<path fill="#D1D3D4" d="M-86.774,151.301l0.684,0.428l-2.646,1.722l1.528,0.956l-0.597,0.388l-2.212-1.383L-86.774,151.301z"/>
		<path fill="#D1D3D4" d="M-80.995,154.915l-0.592,0.385l-1.555-0.973l-0.707,0.461l1.411,0.881l-0.576,0.375l-1.411-0.881
			l-0.771,0.502l1.555,0.972l-0.597,0.388l-2.228-1.393l3.243-2.111L-80.995,154.915z"/>
	</g>
	<g enable-background="new    ">
		<path fill="#D1D3D4" d="M-80.655,159.332c-0.914-0.571-0.842-1.429,0.125-2.059c0.971-0.632,2.311-0.692,3.224-0.121
			s0.852,1.431-0.119,2.062C-78.392,159.845-79.741,159.903-80.655,159.332z M-77.908,157.544c-0.519-0.323-1.293-0.248-1.927,0.164
			c-0.634,0.412-0.736,0.908-0.217,1.232c0.523,0.327,1.304,0.256,1.938-0.156C-77.481,158.372-77.385,157.872-77.908,157.544z"/>
	</g>
	<g enable-background="new    ">
		<path fill="#D1D3D4" d="M-74.551,163.08l-0.54-0.337l0.611-2.374l-2.16,1.405l-0.658-0.411l3.243-2.11l0.642,0.401l-0.601,2.239
			l2.049-1.334l0.657,0.411L-74.551,163.08z"/>
		<path fill="#D1D3D4" d="M-68.138,162.953l-1.987,2.896l-0.695-0.435l0.488-0.692l-1.229-0.769l-1.07,0.328l-0.684-0.428
			l4.499-1.324L-68.138,162.953z M-70.776,163.716l0.802,0.501l0.676-0.951L-70.776,163.716z"/>
		<path fill="#D1D3D4" d="M-67,166.259l-1.21,0.787l-0.679-0.425l3.243-2.109l1.352,0.846c0.689,0.43,0.785,0.955,0.12,1.388
			c-0.518,0.337-1.134,0.37-1.704,0.155l-0.392,1.358l-0.77-0.481l0.397-1.295L-67,166.259z M-66.446,165.898l0.63,0.394
			c0.342,0.214,0.699,0.207,0.968,0.032c0.274-0.179,0.277-0.406-0.064-0.62l-0.63-0.394L-66.446,165.898z"/>
	</g>
	<g enable-background="new    ">
		<path fill="#D1D3D4" d="M-60.483,167.739l1.16,0.726c0.994,0.621,0.986,1.424-0.002,2.067c-0.988,0.644-2.247,0.664-3.241,0.042
			l-1.16-0.725L-60.483,167.739z M-61.996,170.17c0.625,0.391,1.363,0.348,1.992-0.062c0.633-0.412,0.687-0.883,0.062-1.274
			l-0.454-0.284l-2.054,1.338L-61.996,170.17z"/>
	</g>
	<g enable-background="new    ">
		<path fill="#D1D3D4" d="M-55.378,173.891c-0.195,0.242-0.086,0.479,0.235,0.68c0.331,0.207,0.698,0.248,0.957,0.08
			c0.195-0.128,0.184-0.271-0.036-0.488l-0.456-0.453c-0.364-0.363-0.48-0.752,0.054-1.1c0.586-0.381,1.49-0.342,2.179,0.089
			c0.749,0.468,0.79,0.993,0.348,1.417l-0.678-0.424c0.142-0.188,0.124-0.415-0.219-0.629c-0.31-0.193-0.667-0.228-0.898-0.076
			c-0.185,0.119-0.173,0.27,0.014,0.461l0.461,0.463c0.413,0.414,0.438,0.813-0.053,1.133c-0.628,0.409-1.533,0.329-2.228-0.105
			c-0.732-0.457-0.891-1.016-0.385-1.487L-55.378,173.891z"/>
	</g>
	<g enable-background="new    ">
		<path fill="#D1D3D4" d="M-49.667,174.504l2.799,1.751l-0.592,0.386l-1.058-0.662l-2.651,1.725l-0.689-0.431l2.651-1.726
			l-1.052-0.657L-49.667,174.504z"/>
	</g>
</g>
<g>
	<defs>
		<rect id="SVGID_45_" x="-199.333" y="-296.906" width="1224" height="792"/>
	</defs>
	<clipPath id="SVGID_46_">
		<use xlink:href="#SVGID_45_"  overflow="visible"/>
	</clipPath>
	<path clip-path="url(#SVGID_46_)" fill="none" stroke="#000000" stroke-width="0.154" stroke-miterlimit="10" d="M-21.529,137.901
		v-4.709"/>
</g>
<g>
	<defs>
		<rect id="SVGID_47_" x="-199.333" y="-296.906" width="1224" height="792"/>
	</defs>
	<clipPath id="SVGID_48_">
		<use xlink:href="#SVGID_47_"  overflow="visible"/>
	</clipPath>
	<path clip-path="url(#SVGID_48_)" fill="none" stroke="#000000" stroke-width="0.154" stroke-miterlimit="10" d="M-84.427,100.183
		v-3.896"/>
</g>
<g>
	<defs>
		<rect id="SVGID_49_" x="-199.333" y="-296.906" width="1224" height="792"/>
	</defs>
	<clipPath id="SVGID_50_">
		<use xlink:href="#SVGID_49_"  overflow="visible"/>
	</clipPath>
	<path clip-path="url(#SVGID_50_)" fill="none" stroke="#000000" stroke-width="0.154" stroke-miterlimit="10" d="M-71.351,105.241
		v2.171"/>
</g>
<g>
	<defs>
		<rect id="SVGID_51_" x="-199.333" y="-296.906" width="1224" height="792"/>
	</defs>
	<clipPath id="SVGID_52_">
		<use xlink:href="#SVGID_51_"  overflow="visible"/>
	</clipPath>
	<path clip-path="url(#SVGID_52_)" fill="none" stroke="#000000" stroke-width="0.154" stroke-miterlimit="10" d="M-77.125,101.955
		v2.171"/>
</g>
<g>
	<defs>
		<rect id="SVGID_53_" x="-199.333" y="-296.906" width="1224" height="792"/>
	</defs>
	<clipPath id="SVGID_54_">
		<use xlink:href="#SVGID_53_"  overflow="visible"/>
	</clipPath>
	<path clip-path="url(#SVGID_54_)" fill="none" stroke="#000000" stroke-width="0.154" stroke-miterlimit="10" d="M-69.793,104.388
		v2.172"/>
</g>
<g>
	<defs>
		<rect id="SVGID_55_" x="-199.333" y="-296.906" width="1224" height="792"/>
	</defs>
	<clipPath id="SVGID_56_">
		<use xlink:href="#SVGID_55_"  overflow="visible"/>
	</clipPath>
	<path clip-path="url(#SVGID_56_)" fill="none" stroke="#000000" stroke-width="0.145" stroke-miterlimit="10" d="M-69.784,106.524
		l-1.585,0.928"/>
</g>
<g>
	<defs>
		<rect id="SVGID_57_" x="-199.333" y="-296.906" width="1224" height="792"/>
	</defs>
	<clipPath id="SVGID_58_">
		<use xlink:href="#SVGID_57_"  overflow="visible"/>
	</clipPath>
	<path clip-path="url(#SVGID_58_)" fill="none" stroke="#000000" stroke-width="0.145" stroke-miterlimit="10" d="M-69.862,104.467
		l-1.468,0.859"/>
</g>
<g>
	<defs>
		<rect id="SVGID_59_" x="-199.333" y="-296.906" width="1224" height="792"/>
	</defs>
	<clipPath id="SVGID_60_">
		<use xlink:href="#SVGID_59_"  overflow="visible"/>
	</clipPath>
	<path clip-path="url(#SVGID_60_)" fill="none" stroke="#000000" stroke-width="0.145" stroke-miterlimit="10" d="M-30.101,123.142
		l-6.334,3.707"/>
</g>
<g>
	<defs>
		<rect id="SVGID_61_" x="-199.333" y="-296.906" width="1224" height="792"/>
	</defs>
	<clipPath id="SVGID_62_">
		<use xlink:href="#SVGID_61_"  overflow="visible"/>
	</clipPath>
	<path clip-path="url(#SVGID_62_)" fill="none" stroke="#000000" stroke-width="0.145" stroke-miterlimit="10" d="M-25.248,127.006
		l-5.428,3.177"/>
</g>
<g>
	<defs>
		<rect id="SVGID_63_" x="-199.333" y="-296.906" width="1224" height="792"/>
	</defs>
	<clipPath id="SVGID_64_">
		<use xlink:href="#SVGID_63_"  overflow="visible"/>
	</clipPath>
	<path clip-path="url(#SVGID_64_)" fill="none" stroke="#000000" stroke-width="0.154" stroke-miterlimit="10" d="M-62.181,108.774
		v2.17"/>
</g>
<g>
	<defs>
		<rect id="SVGID_65_" x="-199.333" y="-296.906" width="1224" height="792"/>
	</defs>
	<clipPath id="SVGID_66_">
		<use xlink:href="#SVGID_65_"  overflow="visible"/>
	</clipPath>
	<path clip-path="url(#SVGID_66_)" fill="none" stroke="#000000" stroke-width="0.145" stroke-miterlimit="10" d="M-56.877,107.006
		l25.624,16.829"/>
</g>
<g>
	<defs>
		<rect id="SVGID_67_" x="-199.333" y="-296.906" width="1224" height="792"/>
	</defs>
	<clipPath id="SVGID_68_">
		<use xlink:href="#SVGID_67_"  overflow="visible"/>
	</clipPath>
	<path clip-path="url(#SVGID_68_)" fill="none" stroke="#000000" stroke-width="0.145" stroke-miterlimit="10" d="M-30.131,123.134
		l4.884,3.208"/>
</g>
<g>
	<defs>
		<rect id="SVGID_69_" x="-199.333" y="-296.906" width="1224" height="792"/>
	</defs>
	<clipPath id="SVGID_70_">
		<use xlink:href="#SVGID_69_"  overflow="visible"/>
	</clipPath>
	<path clip-path="url(#SVGID_70_)" fill="none" stroke="#000000" stroke-width="0.145" stroke-miterlimit="10" d="M-56.877,106.338
		l26.12,17.156"/>
</g>
<g>
	<defs>
		<rect id="SVGID_71_" x="-199.333" y="-296.906" width="1224" height="792"/>
	</defs>
	<clipPath id="SVGID_72_">
		<use xlink:href="#SVGID_71_"  overflow="visible"/>
	</clipPath>
	<path clip-path="url(#SVGID_72_)" fill="none" stroke="#000000" stroke-width="0.145" stroke-miterlimit="10" d="M-87.51,98.909
		l2.658,1.539"/>
</g>
<g>
	<defs>
		<rect id="SVGID_73_" x="-199.333" y="-296.906" width="1224" height="792"/>
	</defs>
	<clipPath id="SVGID_74_">
		<use xlink:href="#SVGID_73_"  overflow="visible"/>
	</clipPath>
	<path clip-path="url(#SVGID_74_)" fill="none" stroke="#000000" stroke-width="0.145" stroke-miterlimit="10" d="M-77.125,101.955
		l5.773,3.351"/>
</g>
<g>
	<defs>
		<rect id="SVGID_75_" x="-199.333" y="-296.906" width="1224" height="792"/>
	</defs>
	<clipPath id="SVGID_76_">
		<use xlink:href="#SVGID_75_"  overflow="visible"/>
	</clipPath>
	<path clip-path="url(#SVGID_76_)" fill="none" stroke="#000000" stroke-width="0.145" stroke-miterlimit="10" d="M-69.775,104.467
		l7.671,4.444"/>
</g>
<g>
	<defs>
		<rect id="SVGID_77_" x="-199.333" y="-296.906" width="1224" height="792"/>
	</defs>
	<clipPath id="SVGID_78_">
		<use xlink:href="#SVGID_77_"  overflow="visible"/>
	</clipPath>
	<path clip-path="url(#SVGID_78_)" fill="none" stroke="#000000" stroke-width="0.145" stroke-miterlimit="10" d="M-69.818,106.524
		l7.638,4.427"/>
</g>
<g>
	<defs>
		<rect id="SVGID_79_" x="-199.333" y="-296.906" width="1224" height="792"/>
	</defs>
	<clipPath id="SVGID_80_">
		<use xlink:href="#SVGID_79_"  overflow="visible"/>
	</clipPath>
	<path clip-path="url(#SVGID_80_)" fill="none" stroke="#000000" stroke-width="0.145" stroke-miterlimit="10" d="M-36.408,126.856
		l5.741,3.328"/>
</g>
<g>
	<defs>
		<rect id="SVGID_81_" x="-199.333" y="-296.906" width="1224" height="792"/>
	</defs>
	<clipPath id="SVGID_82_">
		<use xlink:href="#SVGID_81_"  overflow="visible"/>
	</clipPath>
	<path clip-path="url(#SVGID_82_)" fill="none" stroke="#000000" stroke-width="0.154" stroke-miterlimit="10" d="M-21.558,124.313
		V122"/>
</g>
<g>
	<defs>
		<rect id="SVGID_83_" x="-199.333" y="-296.906" width="1224" height="792"/>
	</defs>
	<clipPath id="SVGID_84_">
		<use xlink:href="#SVGID_83_"  overflow="visible"/>
	</clipPath>
	<path clip-path="url(#SVGID_84_)" fill="none" stroke="#000000" stroke-width="0.154" stroke-miterlimit="10" d="M-31.201,134.569
		l-0.916-0.549l-1.152,0.672l-49.587-28.727v-2.433"/>
</g>
<g>
	<defs>
		<rect id="SVGID_85_" x="-199.333" y="-296.906" width="1224" height="792"/>
	</defs>
	<clipPath id="SVGID_86_">
		<use xlink:href="#SVGID_85_"  overflow="visible"/>
	</clipPath>
	<path clip-path="url(#SVGID_86_)" fill="none" stroke="#000000" stroke-width="0.154" stroke-miterlimit="10" d="M-70.423,98.108
		l-4.917-3.229l-11.176,6.543l53.248,30.835"/>
</g>
<g>
	<defs>
		<rect id="SVGID_87_" x="-199.333" y="-296.906" width="1224" height="792"/>
	</defs>
	<clipPath id="SVGID_88_">
		<use xlink:href="#SVGID_87_"  overflow="visible"/>
	</clipPath>
	<path clip-path="url(#SVGID_88_)" fill="none" stroke="#000000" stroke-width="0.154" stroke-miterlimit="10" d="M-33.269,132.257
		v2.434"/>
</g>
<g>
	<defs>
		<rect id="SVGID_89_" x="-199.333" y="-296.906" width="1224" height="792"/>
	</defs>
	<clipPath id="SVGID_90_">
		<use xlink:href="#SVGID_89_"  overflow="visible"/>
	</clipPath>
	<path clip-path="url(#SVGID_90_)" fill="none" stroke="#000000" stroke-width="0.154" stroke-miterlimit="10" d="M-32.111,131.565
		l-1.158,0.678"/>
</g>
<g>
	<defs>
		<rect id="SVGID_91_" x="-199.333" y="-296.906" width="1224" height="792"/>
	</defs>
	<clipPath id="SVGID_92_">
		<use xlink:href="#SVGID_91_"  overflow="visible"/>
	</clipPath>
	<path clip-path="url(#SVGID_92_)" fill="none" stroke="#000000" stroke-width="0.154" stroke-miterlimit="10" d="M-32.111,134.021
		v-2.455l-4.297-2.489"/>
</g>
<g>
	<defs>
		<rect id="SVGID_93_" x="-199.333" y="-296.906" width="1224" height="792"/>
	</defs>
	<clipPath id="SVGID_94_">
		<use xlink:href="#SVGID_93_"  overflow="visible"/>
	</clipPath>
	<path clip-path="url(#SVGID_94_)" fill="none" stroke="#000000" stroke-width="0.154" stroke-miterlimit="10" d="M-21.478,142.368
		v-2.674"/>
</g>
<g>
	<defs>
		<rect id="SVGID_95_" x="-199.333" y="-296.906" width="1224" height="792"/>
	</defs>
	<clipPath id="SVGID_96_">
		<use xlink:href="#SVGID_95_"  overflow="visible"/>
	</clipPath>
	<path clip-path="url(#SVGID_96_)" fill="none" stroke="#000000" stroke-width="0.154" stroke-miterlimit="10" d="M-15.631,132.233
		l3.249,2.134v2.687l-9.098,5.324l-9.721-5.632v-2.681l3.909-2.285"/>
</g>
<g>
	<defs>
		<rect id="SVGID_97_" x="-199.333" y="-296.906" width="1224" height="792"/>
	</defs>
	<clipPath id="SVGID_98_">
		<use xlink:href="#SVGID_97_"  overflow="visible"/>
	</clipPath>
	<path clip-path="url(#SVGID_98_)" fill="none" stroke="#000000" stroke-width="0.154" stroke-miterlimit="10" d="M-12.382,134.367
		l-9.098,5.325l-9.721-5.625"/>
</g>
<g>
	<defs>
		<rect id="SVGID_99_" x="-199.333" y="-296.906" width="1224" height="792"/>
	</defs>
	<clipPath id="SVGID_100_">
		<use xlink:href="#SVGID_99_"  overflow="visible"/>
	</clipPath>
	<path clip-path="url(#SVGID_100_)" fill="none" stroke="#000000" stroke-width="0.145" stroke-miterlimit="10" d="M-85.542,101.97
		v1.311l2.686,1.572"/>
</g>
<g>
	<defs>
		<rect id="SVGID_101_" x="-199.333" y="-296.906" width="1224" height="792"/>
	</defs>
	<clipPath id="SVGID_102_">
		<use xlink:href="#SVGID_101_"  overflow="visible"/>
	</clipPath>
	<path clip-path="url(#SVGID_102_)" fill="none" stroke="#000000" stroke-width="0.145" stroke-miterlimit="10" d="M-77.125,104.123
		l5.773,3.346"/>
</g>
<g>
	<defs>
		<rect id="SVGID_103_" x="-199.333" y="-296.906" width="1224" height="792"/>
	</defs>
	<clipPath id="SVGID_104_">
		<use xlink:href="#SVGID_103_"  overflow="visible"/>
	</clipPath>
	<path clip-path="url(#SVGID_104_)" fill="none" stroke="#000000" stroke-width="0.141" stroke-miterlimit="10" d="M-36.433,129.065
		v-2.211"/>
</g>
<g>
	<defs>
		<rect id="SVGID_105_" x="-199.333" y="-296.906" width="1224" height="792"/>
	</defs>
	<clipPath id="SVGID_106_">
		<use xlink:href="#SVGID_105_"  overflow="visible"/>
	</clipPath>
	<path clip-path="url(#SVGID_106_)" fill="none" stroke="#000000" stroke-width="0.141" stroke-miterlimit="10" d="M-30.667,133.714
		v-3.523"/>
</g>
<g>
	<defs>
		<rect id="SVGID_107_" x="-199.333" y="-296.906" width="1224" height="792"/>
	</defs>
	<clipPath id="SVGID_108_">
		<use xlink:href="#SVGID_107_"  overflow="visible"/>
	</clipPath>
	<path clip-path="url(#SVGID_108_)" fill="none" stroke="#000000" stroke-width="0.145" stroke-miterlimit="10" d="M-17.75,123.179
		l-3.773,2.209l-3.726-2.162"/>
</g>
<g>
	<defs>
		<rect id="SVGID_109_" x="-199.333" y="-296.906" width="1224" height="792"/>
	</defs>
	<clipPath id="SVGID_110_">
		<use xlink:href="#SVGID_109_"  overflow="visible"/>
	</clipPath>
	<path clip-path="url(#SVGID_110_)" fill="none" stroke="#000000" stroke-width="0.154" stroke-miterlimit="10" d="M-17.75,127.979
		l0.355,0.209v1.647l-4.121,2.409l-4.152-2.405v-1.524l0.419-0.246"/>
</g>
<g>
	<defs>
		<rect id="SVGID_111_" x="-199.333" y="-296.906" width="1224" height="792"/>
	</defs>
	<clipPath id="SVGID_112_">
		<use xlink:href="#SVGID_111_"  overflow="visible"/>
	</clipPath>
	<path clip-path="url(#SVGID_112_)" fill="none" stroke="#000000" stroke-width="0.154" stroke-miterlimit="10" d="M-21.521,132.24
		v-6.853"/>
</g>
<g>
	<defs>
		<rect id="SVGID_113_" x="-199.333" y="-296.906" width="1224" height="792"/>
	</defs>
	<clipPath id="SVGID_114_">
		<use xlink:href="#SVGID_113_"  overflow="visible"/>
	</clipPath>
	<path clip-path="url(#SVGID_114_)" fill="none" stroke="#000000" stroke-width="0.154" stroke-miterlimit="10" d="M-17.392,128.703
		l1.762,1.021v4.74l-5.898,3.446l-5.763-3.339v-4.752l1.624-0.949"/>
</g>
<g>
	<defs>
		<rect id="SVGID_115_" x="-199.333" y="-296.906" width="1224" height="792"/>
	</defs>
	<clipPath id="SVGID_116_">
		<use xlink:href="#SVGID_115_"  overflow="visible"/>
	</clipPath>
	<path clip-path="url(#SVGID_116_)" fill="none" stroke="#000000" stroke-width="0.154" stroke-miterlimit="10" d="M-15.631,129.726
		l-5.897,3.467l-5.719-3.312"/>
</g>
<g>
	<defs>
		<rect id="SVGID_117_" x="-199.333" y="-296.906" width="1224" height="792"/>
	</defs>
	<clipPath id="SVGID_118_">
		<use xlink:href="#SVGID_117_"  overflow="visible"/>
	</clipPath>
	<path clip-path="url(#SVGID_118_)" fill="none" stroke="#000000" stroke-width="0.154" stroke-miterlimit="10" d="M-87.51,98.881
		l-5.641,3.304v39.586"/>
</g>
<g>
	<defs>
		<rect id="SVGID_119_" x="-199.333" y="-296.906" width="1224" height="792"/>
	</defs>
	<clipPath id="SVGID_120_">
		<use xlink:href="#SVGID_119_"  overflow="visible"/>
	</clipPath>
	<path clip-path="url(#SVGID_120_)" fill="none" stroke="#000000" stroke-width="0.154" stroke-miterlimit="10" d="M-81.27,95.228
		l3.953-2.312l7.434,4.882"/>
</g>
<g>
	<defs>
		<rect id="SVGID_121_" x="-199.333" y="-296.906" width="1224" height="792"/>
	</defs>
	<clipPath id="SVGID_122_">
		<use xlink:href="#SVGID_121_"  overflow="visible"/>
	</clipPath>
	<path clip-path="url(#SVGID_122_)" fill="none" stroke="#000000" stroke-width="0.154" stroke-miterlimit="10" d="M-21.527,143.677
		l-0.039,35.737"/>
</g>
<g>
	<defs>
		<rect id="SVGID_123_" x="-199.333" y="-296.906" width="1224" height="792"/>
	</defs>
	<clipPath id="SVGID_124_">
		<use xlink:href="#SVGID_123_"  overflow="visible"/>
	</clipPath>
	<path clip-path="url(#SVGID_124_)" fill="none" stroke="#D1D3D4" stroke-width="0.154" stroke-miterlimit="10" d="M-62.812,155.483
		l-30.273-17.539"/>
</g>
<g>
	<defs>
		<rect id="SVGID_125_" x="-199.333" y="-296.906" width="1224" height="792"/>
	</defs>
	<clipPath id="SVGID_126_">
		<use xlink:href="#SVGID_125_"  overflow="visible"/>
	</clipPath>
	<path clip-path="url(#SVGID_126_)" fill="none" stroke="#000000" stroke-width="0.145" stroke-miterlimit="10" d="M-85.878,93.545
		l-1.633,0.956v4.408"/>
</g>
<g>
	<defs>
		<rect id="SVGID_127_" x="-199.333" y="-296.906" width="1224" height="792"/>
	</defs>
	<clipPath id="SVGID_128_">
		<use xlink:href="#SVGID_127_"  overflow="visible"/>
	</clipPath>
	<path clip-path="url(#SVGID_128_)" fill="none" stroke="#000000" stroke-width="0.145" stroke-miterlimit="10" d="M-82.788,93.558
		l1.517,0.881v3.875"/>
</g>
<g>
	<defs>
		<rect id="SVGID_129_" x="-199.333" y="-296.906" width="1224" height="792"/>
	</defs>
	<clipPath id="SVGID_130_">
		<use xlink:href="#SVGID_129_"  overflow="visible"/>
	</clipPath>
	<path clip-path="url(#SVGID_130_)" fill="none" stroke="#000000" stroke-width="0.145" stroke-miterlimit="10" d="M-87.51,94.5
		l3.083,1.786l3.159-1.85"/>
</g>
<g>
	<defs>
		<rect id="SVGID_131_" x="-199.333" y="-296.906" width="1224" height="792"/>
	</defs>
	<clipPath id="SVGID_132_">
		<use xlink:href="#SVGID_131_"  overflow="visible"/>
	</clipPath>
	<path clip-path="url(#SVGID_132_)" fill="none" stroke="#000000" stroke-width="0.154" stroke-miterlimit="10" d="M-20.249,120.229
		l0.808,0.529v2.317l-2.119,1.237l-2.137-1.238v-2.315l1.102-0.645"/>
</g>
<g>
	<defs>
		<rect id="SVGID_133_" x="-199.333" y="-296.906" width="1224" height="792"/>
	</defs>
	<clipPath id="SVGID_134_">
		<use xlink:href="#SVGID_133_"  overflow="visible"/>
	</clipPath>
	<path clip-path="url(#SVGID_134_)" fill="none" stroke="#000000" stroke-width="0.145" stroke-miterlimit="10" d="M-19.437,120.761
		l-2.123,1.24l-2.139-1.24"/>
</g>
<g>
	<defs>
		<rect id="SVGID_135_" x="-94.934" y="84.334" width="90.629" height="97.295"/>
	</defs>
	<clipPath id="SVGID_136_">
		<use xlink:href="#SVGID_135_"  overflow="visible"/>
	</clipPath>
	<path clip-path="url(#SVGID_136_)" fill="none" stroke="#000000" stroke-width="0.154" stroke-miterlimit="10" d="M-23.529,118.267
		c-0.045,0.092-0.203,0.264-0.218,0.334l0.129,0.342c0.13,0.175,0.606,0.336,1.399,0.108c0.794-0.225,2.457-1.106,2.609-1.999
		l-0.267-0.5c0,0-0.247-0.078-0.517-0.009"/>
</g>
<g>
	<defs>
		<rect id="SVGID_137_" x="-199.333" y="-296.906" width="1224" height="792"/>
	</defs>
	<clipPath id="SVGID_138_">
		<use xlink:href="#SVGID_137_"  overflow="visible"/>
	</clipPath>
	<path clip-path="url(#SVGID_138_)" fill="none" stroke="#000000" stroke-width="0.154" stroke-miterlimit="10" d="M-22.783,115.003
		l1.129,0.547l0.348-0.146l0.781-1.094"/>
</g>
<g>
	<defs>
		<rect id="SVGID_139_" x="-94.934" y="84.334" width="90.629" height="97.295"/>
	</defs>
	<clipPath id="SVGID_140_">
		<use xlink:href="#SVGID_139_"  overflow="visible"/>
	</clipPath>
	<path clip-path="url(#SVGID_140_)" fill="none" stroke="#000000" stroke-width="0.154" stroke-miterlimit="10" d="M-19.806,117.504
		c0.232,1.014-0.4,2.024-1.414,2.257c-0.652,0.148-1.334-0.059-1.793-0.546l-0.076-0.06 M-23.382,118.67
		c-0.412-0.956,0.028-2.063,0.983-2.476c0.148-0.064,0.305-0.109,0.464-0.133c0.611-0.105,1.232,0.107,1.65,0.565
		c0.223,0.25,0.303,0.444,0.303,0.444 M-22.357,126.785c0.315,0.903,0.068,1.637-0.552,1.639s-1.377-0.729-1.692-1.633
		c-0.314-0.903-0.067-1.638,0.553-1.64C-23.429,125.149-22.671,125.881-22.357,126.785z M-20.744,126.815
		c-0.314,0.902-0.068,1.637,0.553,1.639c0.619,0.002,1.377-0.73,1.691-1.633c0.314-0.904,0.068-1.639-0.552-1.641
		C-19.671,125.181-20.429,125.911-20.744,126.815z"/>
</g>
<g>
	<defs>
		<rect id="SVGID_141_" x="-94.934" y="84.334" width="90.629" height="97.295"/>
	</defs>
	<clipPath id="SVGID_142_">
		<use xlink:href="#SVGID_141_"  overflow="visible"/>
	</clipPath>
	
		<path clip-path="url(#SVGID_142_)" fill="none" stroke="#000000" stroke-width="0.145" stroke-linejoin="bevel" stroke-miterlimit="10" d="
		M-20.252,120.332c0,0,0.005-0.164-0.011-0.203c-0.016-0.046-0.055-0.081-0.103-0.091c-0.063-0.016-0.331,0.062-0.331,0.062
		s-0.003-0.045-0.003-0.105v-0.049l0.101-0.428"/>
</g>
<g>
	<defs>
		<rect id="SVGID_143_" x="-94.934" y="84.334" width="90.629" height="97.295"/>
	</defs>
	<clipPath id="SVGID_144_">
		<use xlink:href="#SVGID_143_"  overflow="visible"/>
	</clipPath>
	<path clip-path="url(#SVGID_144_)" fill="none" stroke="#000000" stroke-width="0.145" stroke-miterlimit="10" d="M-21.146,120.313
		c-0.021,0.078,0.061,0.162,0.076,0.217c0.024,0.078,0.205,0.135,0.363,0.019"/>
</g>
<g>
	<defs>
		<rect id="SVGID_145_" x="-199.333" y="-296.906" width="1224" height="792"/>
	</defs>
	<clipPath id="SVGID_146_">
		<use xlink:href="#SVGID_145_"  overflow="visible"/>
	</clipPath>
	<path clip-path="url(#SVGID_146_)" fill="none" stroke="#000000" stroke-width="0.145" stroke-miterlimit="10" d="M-22.152,121.041
		v-0.175l0.243-0.408l-0.042-0.145l-0.449-0.076l-0.402-0.244l0.162-0.475"/>
</g>
<g>
	<defs>
		<rect id="SVGID_147_" x="-199.333" y="-296.906" width="1224" height="792"/>
	</defs>
	<clipPath id="SVGID_148_">
		<use xlink:href="#SVGID_147_"  overflow="visible"/>
	</clipPath>
	<path clip-path="url(#SVGID_148_)" fill="none" stroke="#000000" stroke-width="0.154" stroke-miterlimit="10" d="M-23.697,122.317
		l-1.552,0.908v5.055l3.733,2.162l3.767-2.199v-5.064l-1.687-0.978"/>
</g>
<g>
	<defs>
		<rect id="SVGID_149_" x="-94.934" y="84.334" width="90.629" height="97.295"/>
	</defs>
	<clipPath id="SVGID_150_">
		<use xlink:href="#SVGID_149_"  overflow="visible"/>
	</clipPath>
	<path clip-path="url(#SVGID_150_)" fill="none" stroke="#000000" stroke-width="0.145" stroke-miterlimit="10" d="M-84.59,91.843
		c-0.731,0.127-1.288,0.791-1.288,1.59v1.123c0,0.438,0.691,0.793,1.545,0.793s1.545-0.355,1.545-0.793v-1.123
		c0-0.798-0.557-1.461-1.288-1.59v-0.17c0-0.079-0.098-0.172-0.258-0.172c-0.157,0-0.256,0.093-0.256,0.172V91.843z"/>
</g>
<g>
	<defs>
		<rect id="SVGID_151_" x="-199.333" y="-296.906" width="1224" height="792"/>
	</defs>
	<clipPath id="SVGID_152_">
		<use xlink:href="#SVGID_151_"  overflow="visible"/>
	</clipPath>
	<path clip-path="url(#SVGID_152_)" fill="none" stroke="#000000" stroke-width="0.154" stroke-miterlimit="10" d="M-10.715,137.372
		l-10.812,6.303l-71.545-41.445"/>
</g>
<g>
	<defs>
		<rect id="SVGID_153_" x="-199.333" y="-296.906" width="1224" height="792"/>
	</defs>
	<clipPath id="SVGID_154_">
		<use xlink:href="#SVGID_153_"  overflow="visible"/>
	</clipPath>
	<path clip-path="url(#SVGID_154_)" fill="none" stroke="#000000" stroke-width="0.154" stroke-miterlimit="10" d="M-59.791,157.78
		l-2.088-1.205l-1.884,1.098l2.608,1.508l1.364-0.793"/>
</g>
<g>
	<defs>
		<rect id="SVGID_155_" x="-199.333" y="-296.906" width="1224" height="792"/>
	</defs>
	<clipPath id="SVGID_156_">
		<use xlink:href="#SVGID_155_"  overflow="visible"/>
	</clipPath>
	<path clip-path="url(#SVGID_156_)" fill="none" stroke="#000000" stroke-width="0.154" stroke-miterlimit="10" d="M-59.791,157.78
		l-2.088-1.205"/>
</g>
<g>
	<defs>
		<rect id="SVGID_157_" x="-199.333" y="-296.906" width="1224" height="792"/>
	</defs>
	<clipPath id="SVGID_158_">
		<use xlink:href="#SVGID_157_"  overflow="visible"/>
	</clipPath>
	<path clip-path="url(#SVGID_158_)" fill="none" stroke="#000000" stroke-width="0.154" stroke-miterlimit="10" d="M-59.791,159.524
		l-0.98-0.567"/>
</g>
<g>
	<defs>
		<rect id="SVGID_159_" x="-94.934" y="84.334" width="90.629" height="97.295"/>
	</defs>
	<clipPath id="SVGID_160_">
		<use xlink:href="#SVGID_159_"  overflow="visible"/>
	</clipPath>
	<path clip-path="url(#SVGID_160_)" fill="none" stroke="#000000" stroke-width="0.154" stroke-miterlimit="10" d="M-61.456,154.202
		c-0.285,0.242-0.419,0.65-0.419,0.861v1.541"/>
</g>
<g>
	<defs>
		<rect id="SVGID_161_" x="-199.333" y="-296.906" width="1224" height="792"/>
	</defs>
	<clipPath id="SVGID_162_">
		<use xlink:href="#SVGID_161_"  overflow="visible"/>
	</clipPath>
	<path clip-path="url(#SVGID_162_)" fill="none" stroke="#000000" stroke-width="0.154" stroke-miterlimit="10" d="M-62.285,158.526
		l-0.532,0.311l-30.334-17.089"/>
</g>
<g>
	<defs>
		<rect id="SVGID_163_" x="-199.333" y="-296.906" width="1224" height="792"/>
	</defs>
	<clipPath id="SVGID_164_">
		<use xlink:href="#SVGID_163_"  overflow="visible"/>
	</clipPath>
	<path clip-path="url(#SVGID_164_)" fill="none" stroke="#000000" stroke-width="0.154" stroke-miterlimit="10" d="M-62.812,158.837
		v-0.615"/>
</g>
<g>
	<defs>
		<rect id="SVGID_165_" x="-94.934" y="84.334" width="90.629" height="97.295"/>
	</defs>
	<clipPath id="SVGID_166_">
		<use xlink:href="#SVGID_165_"  overflow="visible"/>
	</clipPath>
	<path clip-path="url(#SVGID_166_)" fill="none" stroke="#000000" stroke-width="0.154" stroke-miterlimit="10" d="M-13.258,174.562
		v-5.765L-19,171.985v5.933l-2.567,1.497l-19.248-9.109l-15.437-7.771l-3.538-1.993v-4.051c0-0.264-0.245-1.495-1.51-2.227
		c-1.067-0.621-1.513,0.484-1.513,0.873v1.981"/>
</g>
<g>
	<defs>
		<rect id="SVGID_167_" x="-199.333" y="-296.906" width="1224" height="792"/>
	</defs>
	<clipPath id="SVGID_168_">
		<use xlink:href="#SVGID_167_"  overflow="visible"/>
	</clipPath>
	<path clip-path="url(#SVGID_168_)" fill="none" stroke="#000000" stroke-width="0.154" stroke-miterlimit="10" d="M-17.322,174.974
		v-1.496l-0.934,0.539v1.498"/>
</g>
<g>
	<defs>
		<rect id="SVGID_169_" x="-94.934" y="84.334" width="90.629" height="97.295"/>
	</defs>
	<clipPath id="SVGID_170_">
		<use xlink:href="#SVGID_169_"  overflow="visible"/>
	</clipPath>
	<path clip-path="url(#SVGID_170_)" fill="none" stroke="#000000" stroke-width="0.154" stroke-miterlimit="10" d="M-12.382,136.31
		l1.654,1.084v35.703l-2.53,1.467c-0.087-0.032-2.168-0.642-3.843,0.285l-1.32,0.766c-0.218,0.106-0.414,0.252-0.58,0.429"/>
</g>
<g>
	<defs>
		<rect id="SVGID_171_" x="-199.333" y="-296.906" width="1224" height="792"/>
	</defs>
	<clipPath id="SVGID_172_">
		<use xlink:href="#SVGID_171_"  overflow="visible"/>
	</clipPath>
	<path clip-path="url(#SVGID_172_)" fill="none" stroke="#000000" stroke-width="0.145" stroke-miterlimit="10" d="M-62.181,110.944
		l5.304-3.158v-2.045l-12.499-8.237l-7.747,4.478"/>
</g>
<g>
	<defs>
		<rect id="SVGID_173_" x="-199.333" y="-296.906" width="1224" height="792"/>
	</defs>
	<clipPath id="SVGID_174_">
		<use xlink:href="#SVGID_173_"  overflow="visible"/>
	</clipPath>
	<path clip-path="url(#SVGID_174_)" fill="none" stroke="#000000" stroke-width="0.145" stroke-miterlimit="10" d="M-56.877,105.731
		l-5.289,3.119"/>
</g>
</svg>
