<?xml version="1.0" encoding="utf-8"?>
<!-- Generator: Adobe Illustrator 23.0.0, SVG Export Plug-In . SVG Version: 6.00 Build 0)  -->
<svg version="1.1" id="Layer_1" xmlns="http://www.w3.org/2000/svg" xmlns:xlink="http://www.w3.org/1999/xlink" x="0px" y="0px"
	 viewBox="0 0 123.3 164.8" style="enable-background:new 0 0 123.3 164.8;" xml:space="preserve">
<style type="text/css">
	.st0{fill:#D2D3D4;}
	.st1{clip-path:url(#SVGID_2_);}
	.st2{enable-background:new    ;}
	.st3{fill:#D1D3D4;}
	.st4{fill:none;stroke:#231F20;stroke-width:0.15;stroke-miterlimit:10;}
	.st5{fill:none;stroke:#231F20;stroke-width:0.14;stroke-miterlimit:10;}
	.st6{clip-path:url(#SVGID_4_);}
	.st7{clip-path:url(#SVGID_6_);}
	.st8{fill:none;stroke:#231F20;stroke-width:0.14;stroke-linejoin:bevel;}
	.st9{clip-path:url(#SVGID_8_);}
	.st10{clip-path:url(#SVGID_10_);}
	.st11{clip-path:url(#SVGID_12_);}
	.st12{clip-path:url(#SVGID_14_);}
	.st13{fill:#231F20;}
	.st14{fill:none;stroke:#FFFFFF;stroke-width:0.15;stroke-miterlimit:10;}
	.st15{clip-path:url(#SVGID_16_);}
	.st16{fill:none;stroke:#D1D3D4;stroke-width:1.09;stroke-miterlimit:10;}
</style>
<title>residence_G_7-12_key</title>
<g>
	<g>
		<path class="st0" d="M14.3,117.1c-0.6,0-1-0.4-1-1.1v-1.4h3.4v1.3c0,0.7-0.3,1.1-0.9,1.1c-0.3,0-0.6-0.2-0.7-0.4
			C14.9,116.9,14.6,117.1,14.3,117.1z M13.9,115.2v0.7c0,0.3,0.2,0.5,0.4,0.5s0.4-0.2,0.4-0.5v-0.7H13.9z M15.3,115.8
			c0,0.3,0.1,0.5,0.4,0.5s0.4-0.2,0.4-0.5v-0.6h-0.8L15.3,115.8z"/>
		<path class="st0" d="M14.6,119.5h-1.3v-0.7h3.4v1.4c0.1,0.5-0.3,1.1-0.8,1.2c-0.1,0-0.2,0-0.3,0c-0.5,0-0.9-0.3-1-0.8l-1.3,0.9
			v-0.8l1.3-0.8L14.6,119.5z M15.1,119.5v0.7c0,0.3,0.2,0.5,0.5,0.5s0.5-0.2,0.5-0.5v-0.7H15.1z"/>
		<path class="st0" d="M13.3,124.6c0-0.9,0.8-1.6,1.7-1.6c0,0,0.1,0,0.1,0c0.9-0.1,1.7,0.6,1.7,1.5c0.1,0.9-0.6,1.7-1.5,1.7
			c-0.1,0-0.2,0-0.3,0c-0.9,0.1-1.7-0.6-1.7-1.5C13.3,124.7,13.3,124.6,13.3,124.6z M16.1,124.6c0-0.5-0.4-0.9-1.1-0.9
			s-1.1,0.3-1.1,0.9s0.5,0.9,1.1,0.9S16.1,125.1,16.1,124.6z"/>
		<path class="st0" d="M16.7,129.4l-3.4,1.3V130l0.8-0.3v-1.3l-0.8-0.3v-0.7l3.4,1.3V129.4z M14.7,128.7v0.8l1.1-0.4L14.7,128.7z"/>
		<path class="st0" d="M16.7,132.4v1.2c0.1,0.9-0.6,1.6-1.5,1.7c-0.1,0-0.2,0-0.2,0c-0.9,0.1-1.6-0.6-1.7-1.4c0-0.1,0-0.2,0-0.2
			v-1.2H16.7z M13.9,133.5c0,0.6,0.4,1,1,1c0,0,0,0,0.1,0c0.6,0,1-0.4,1.1-0.9c0,0,0,0,0-0.1v-0.5h-2.1V133.5z"/>
		<path class="st0" d="M16.7,139l-2.3,0.6l2.3,0.6v0.7l-3.4-0.8v-0.6l2.2-0.6l-2.2-0.6v-0.6l3.4-0.9v0.7l-2.3,0.6l2.3,0.6L16.7,139z
			"/>
		<path class="st0" d="M16.7,144l-3.4,1.3v-0.7l0.8-0.3V143l-0.8-0.3V142l3.4,1.3V144z M14.7,143.2v0.8l1.1-0.4L14.7,143.2z"/>
		<path class="st0" d="M16.7,148.6v0.8l-2.1-1.2h-1.3v-0.7h1.3l2.1-1.2v0.8l-1.4,0.8L16.7,148.6z"/>
		<path class="st0" d="M111.7,108.4v0.7h-2.8v1.6h-0.6v-2.3H111.7z"/>
		<path class="st0" d="M111.7,114.1l-3.4,1.3v-0.7l0.8-0.3v-1.3l-0.8-0.3v-0.7l3.4,1.3V114.1z M109.7,113.4v0.8l1.1-0.4L109.7,113.4
			z"/>
		<path class="st0" d="M108.3,117h3.4v2.2h-0.6v-1.5h-0.9v1.4h-0.6v-1.4h-1.3V117z"/>
		<path class="st0" d="M111.7,122.5l-3.4,1.3v-0.7l0.8-0.3v-1.3l-0.8-0.3v-0.7l3.4,1.3V122.5z M109.7,121.8v0.8l1.1-0.4L109.7,121.8
			z"/>
		<path class="st0" d="M111.7,127.2v0.7l-2.1-1.2h-1.3V126h1.3l2.1-1.2v0.8l-1.4,0.8L111.7,127.2z"/>
		<path class="st0" d="M111.7,131.8h-0.6v-1.6h-0.7v1.4h-0.6v-1.4h-0.8v1.6h-0.6v-2.3h3.4V131.8z"/>
		<path class="st0" d="M111.7,133.4v2.9h-0.6v-1.1h-2.8v-0.7h2.8v-1.1L111.7,133.4z"/>
		<path class="st0" d="M111.7,137.8v2.9h-0.6v-1.1h-2.8v-0.7h2.8v-1.1H111.7z"/>
		<path class="st0" d="M111.7,144.6h-0.6V143h-0.7v1.4h-0.6V143h-0.8v1.6h-0.6v-2.3h3.4V144.6z"/>
		<path class="st0" d="M109.2,149.2c-0.3,0.1-0.5,0.4-0.4,0.7c0,0.4,0.2,0.6,0.4,0.6s0.3-0.1,0.4-0.4l0.1-0.6c0-0.5,0.4-0.9,0.9-0.9
			c0.6,0,1,0.6,1,1.1c0,0,0,0,0,0.1c0.1,0.6-0.4,1.2-1,1.3v-0.7c0.3-0.1,0.4-0.3,0.4-0.6c0-0.3-0.2-0.5-0.4-0.5s-0.3,0.1-0.4,0.4
			l-0.1,0.6c-0.1,0.6-0.4,0.9-1,0.9s-1-0.5-1-1.2c-0.1-0.7,0.4-1.3,1-1.4L109.2,149.2L109.2,149.2z"/>
		<path class="st0" d="M111.7,152.6v2.9h-0.6v-1.1h-2.8v-0.7h2.8v-1.1L111.7,152.6z"/>
		<path class="st0" d="M43.1,112.6h0.7v2.8h1.6v0.6h-2.3V112.6z"/>
		<path class="st0" d="M49.3,112.6v0.6h-1.6v0.8h1.5v0.6h-1.5v0.8h1.6v0.6H47v-3.4L49.3,112.6z"/>
		<path class="st0" d="M52.4,116c-1,0.1-1.8-0.7-1.9-1.6c-0.1-1,0.7-1.8,1.6-1.9s1.8,0.7,1.9,1.6c0,0.1,0,0.1,0,0.2
			c0,0.9-0.6,1.6-1.5,1.7C52.4,116,52.4,116,52.4,116z M52.4,113.2c-0.5,0-0.9,0.4-0.9,1.1s0.3,1.1,0.9,1.1s0.9-0.5,0.9-1.1
			S52.9,113.2,52.4,113.2L52.4,113.2z"/>
		<path class="st0" d="M58.4,116h-0.6l-1.6-2.2v2.2h-0.7v-3.4h0.7l1.5,2.1v-2.1h0.7V116z"/>
		<path class="st0" d="M61.9,112.6l1.3,3.4h-0.7l-0.3-0.8h-1.3l-0.3,0.8h-0.7l1.3-3.4L61.9,112.6z M61.1,114.6h0.8l-0.4-1.1
			L61.1,114.6z"/>
		<path class="st0" d="M65.4,114.7v1.3h-0.7v-3.4h1.4c0.5-0.1,1.1,0.2,1.2,0.8c0,0.1,0,0.2,0,0.3c0,0.5-0.3,0.9-0.8,1l0.9,1.3h-0.8
			l-0.8-1.3L65.4,114.7z M65.4,114.2H66c0.3,0,0.5-0.2,0.5-0.5s-0.2-0.5-0.5-0.5h-0.7L65.4,114.2z"/>
		<path class="st0" d="M68.9,112.6h1.2c0.9,0.1,1.6,0.9,1.6,1.8c-0.1,0.8-0.7,1.5-1.6,1.6h-1.2V112.6z M70,115.4
			c0.6,0,1.1-0.5,1.1-1.1c0-0.6-0.5-1.1-1.1-1.1h-0.5v2.1H70z"/>
		<path class="st0" d="M76.1,115c0.1,0.3,0.4,0.5,0.7,0.4c0.3,0,0.6-0.2,0.6-0.4s-0.1-0.3-0.4-0.4l-0.6-0.1
			c-0.5-0.1-0.8-0.4-0.8-0.9c0-0.6,0.6-1,1.2-1c0,0,0,0,0,0c0.6-0.1,1.2,0.4,1.3,1h-0.7c-0.1-0.3-0.3-0.4-0.6-0.4
			c-0.3,0-0.5,0.2-0.5,0.4s0.1,0.3,0.4,0.4l0.6,0.2c0.5,0.1,0.9,0.5,0.9,1c-0.1,0.6-0.6,1.1-1.2,1c0,0,0,0,0,0
			c-0.7,0.1-1.3-0.4-1.4-1L76.1,115z"/>
		<path class="st0" d="M79.4,112.6h2.9v0.6h-1.1v2.8h-0.7v-2.8h-1.1V112.6z"/>
		<path class="st0" d="M40.6,147.9c0.7,0,1.3,0.4,1.4,1.1h-0.7c-0.1-0.3-0.4-0.5-0.7-0.5c-0.5,0-0.8,0.5-0.8,1.1s0.3,1.1,0.8,1.1
			c0.3,0,0.6-0.2,0.7-0.5H42c-0.1,0.7-0.7,1.2-1.4,1.1c-1-0.1-1.7-1-1.6-1.9C39.2,148.6,39.8,147.9,40.6,147.9z"/>
		<path class="st0" d="M45.4,147.9l1.3,3.4H46l-0.3-0.8h-1.3l-0.3,0.8h-0.7l1.3-3.4H45.4z M44.6,149.9h0.8l-0.4-1.2L44.6,149.9z"/>
		<path class="st0" d="M47.8,147.9h2.9v0.6h-1.1v2.8h-0.7v-2.8h-1.1V147.9z"/>
		<path class="st0" d="M55.2,147.9v3.4h-0.7v-1.4H53v1.4h-0.7v-3.4H53v1.3h1.5v-1.3H55.2z"/>
		<path class="st0" d="M59.4,147.9v0.6h-1.6v0.7h1.5v0.6h-1.5v0.8h1.6v0.6h-2.3v-3.4L59.4,147.9z"/>
		<path class="st0" d="M61.8,150v1.3h-0.7v-3.4h1.4c0.5-0.1,1.1,0.3,1.2,0.8c0,0.1,0,0.2,0,0.3c0,0.5-0.3,0.9-0.8,1l0.9,1.3H63
			l-0.8-1.3H61.8z M61.8,149.4h0.6c0.4,0,0.5-0.2,0.5-0.5s-0.2-0.5-0.5-0.5h-0.6V149.4z"/>
		<path class="st0" d="M66.2,151.3h-0.7v-3.4h0.7V151.3z"/>
		<path class="st0" d="M70.8,151.3h-0.6l-1.6-2.3v2.2H68v-3.4h0.7l1.5,2.1v-2.1h0.7V151.3z"/>
		<path class="st0" d="M75,147.9v0.6h-1.6v0.7h1.4v0.6h-1.5v0.8H75v0.6h-2.3v-3.4L75,147.9z"/>
		<path class="st0" d="M79.1,147.9h0.7v2.8h1.6v0.6h-2.3V147.9z"/>
		<path class="st0" d="M85.9,151.3h-0.6l-1.6-2.3v2.2h-0.7v-3.4h0.7l1.5,2.1v-2.1h0.7V151.3L85.9,151.3z"/>
		<g>
			<defs>
				<rect id="SVGID_1_" x="27.1" y="9" width="70.6" height="77.7"/>
			</defs>
			<clipPath id="SVGID_2_">
				<use xlink:href="#SVGID_1_"  style="overflow:visible;"/>
			</clipPath>
			<g class="st1">
				<g class="st2">
					<path class="st3" d="M33.6,63.2l0.5,0.3l-2,1.3l1.2,0.7L32.8,66l-1.7-1.1L33.6,63.2z"/>
					<path class="st3" d="M38.4,66.2l-0.5,0.3l-1.2-0.7l-0.5,0.4l1.1,0.7l-0.4,0.3l-1.1-0.7l-0.6,0.4l1.2,0.7l-0.5,0.3l-1.7-1.1
						l2.5-1.6L38.4,66.2z"/>
					<path class="st3" d="M38.3,69.5c-0.7-0.4-0.6-1.1,0.1-1.6c0.8-0.5,1.8-0.5,2.5-0.1s0.7,1.1-0.1,1.6C40,69.8,39,69.9,38.3,69.5z
						 M40.4,68.1c-0.4-0.2-1-0.2-1.5,0.1c-0.5,0.3-0.6,0.7-0.2,1c0.4,0.3,1,0.2,1.5-0.1C40.8,68.7,40.8,68.3,40.4,68.1z"/>
					<path class="st3" d="M43,72.3l-0.4-0.3l0.5-1.8l-1.7,1.1L40.9,71l2.5-1.6l0.5,0.3l-0.5,1.7l1.6-1l0.5,0.3L43,72.3z"/>
					<path class="st3" d="M48.3,72.4l-1.5,2.2l-0.5-0.3l0.4-0.5l-1-0.6l-0.8,0.3l-0.5-0.3l3.5-1L48.3,72.4z M46.3,73l0.6,0.4
						l0.5-0.7L46.3,73z"/>
					<path class="st3" d="M49.5,75.2l-0.9,0.6l-0.5-0.3l2.5-1.6l1,0.7c0.5,0.3,0.6,0.7,0.1,1.1c-0.4,0.3-0.9,0.3-1.3,0.1l-0.3,1.1
						l-0.6-0.4l0.3-1L49.5,75.2z M50,74.9l0.5,0.3c0.3,0.2,0.5,0.2,0.7,0c0.2-0.1,0.2-0.3,0-0.5l-0.5-0.3L50,74.9z"/>
					<path class="st3" d="M53.9,75.9l0.9,0.6c0.8,0.5,0.8,1.1,0,1.6c-0.8,0.5-1.7,0.5-2.5,0l-0.9-0.6L53.9,75.9z M52.7,77.8
						c0.5,0.3,1.1,0.3,1.5-0.1c0.5-0.3,0.5-0.7,0-1L54,76.5l-1.6,1L52.7,77.8z"/>
				</g>
				<g class="st2">
					<path class="st3" d="M57.9,80.7c-0.2,0.2-0.1,0.4,0.2,0.5c0.3,0.2,0.5,0.2,0.7,0.1c0.2-0.1,0.1-0.2,0-0.4l-0.4-0.4
						c-0.3-0.3-0.4-0.6,0-0.9c0.5-0.3,1.2-0.3,1.7,0.1c0.6,0.4,0.6,0.8,0.3,1.1l-0.5-0.3c0.1-0.1,0.1-0.3-0.2-0.5
						c-0.2-0.1-0.5-0.2-0.7-0.1c-0.1,0.1-0.1,0.2,0,0.4l0.4,0.4c0.3,0.3,0.3,0.6,0,0.9c-0.5,0.3-1.2,0.3-1.7-0.1
						c-0.6-0.4-0.7-0.8-0.3-1.2L57.9,80.7z"/>
				</g>
				<g class="st2">
					<path class="st3" d="M62.3,81.1l2.2,1.3L64,82.8l-0.8-0.5l-2.1,1.3l-0.5-0.3l2.1-1.3l-0.8-0.5L62.3,81.1z"/>
				</g>
				<line class="st4" x1="83.8" y1="52.9" x2="83.8" y2="49.3"/>
				<line class="st4" x1="35.3" y1="23.8" x2="35.3" y2="20.8"/>
				<line class="st4" x1="45.4" y1="27.7" x2="45.4" y2="29.4"/>
				<line class="st4" x1="41" y1="25.2" x2="41" y2="26.9"/>
				<line class="st4" x1="46.6" y1="27.1" x2="46.6" y2="28.7"/>
				<line class="st5" x1="46.6" y1="28.7" x2="45.4" y2="29.4"/>
				<line class="st5" x1="46.6" y1="27.1" x2="45.4" y2="27.8"/>
				<line class="st5" x1="77.2" y1="41.5" x2="72.3" y2="44.4"/>
				<line class="st5" x1="81" y1="44.5" x2="76.8" y2="47"/>
				<line class="st4" x1="52.5" y1="30.4" x2="52.5" y2="32.1"/>
				<line class="st5" x1="56.6" y1="29.1" x2="76.3" y2="42.1"/>
				<line class="st5" x1="77.2" y1="41.5" x2="81" y2="44"/>
				<line class="st5" x1="56.6" y1="28.6" x2="76.7" y2="41.8"/>
				<line class="st5" x1="33" y1="22.8" x2="35" y2="24"/>
				<line class="st5" x1="41" y1="25.2" x2="45.4" y2="27.8"/>
				<line class="st5" x1="46.6" y1="27.1" x2="52.5" y2="30.5"/>
				<line class="st5" x1="46.6" y1="28.7" x2="52.5" y2="32.1"/>
				<line class="st5" x1="72.4" y1="44.4" x2="76.8" y2="47"/>
				<line class="st4" x1="83.8" y1="42.4" x2="83.8" y2="40.6"/>
				<polyline class="st4" points="76.4,50.3 75.7,49.9 74.8,50.4 36.5,28.3 36.5,26.4 				"/>
				<polyline class="st4" points="46.1,22.2 42.3,19.7 33.7,24.8 74.8,48.6 				"/>
				<line class="st4" x1="74.8" y1="48.6" x2="74.8" y2="50.4"/>
				<line class="st4" x1="75.7" y1="48" x2="74.8" y2="48.5"/>
				<polyline class="st4" points="75.7,49.9 75.7,48 72.4,46.1 				"/>
				<line class="st4" x1="83.9" y1="56.4" x2="83.9" y2="54.3"/>
				<polyline class="st4" points="88.4,48.5 90.9,50.2 90.9,52.3 83.9,56.4 76.4,52 76.4,50 79.4,48.2 				"/>
				<polyline class="st4" points="90.9,50.2 83.9,54.3 76.4,50 				"/>
				<polyline class="st5" points="34.5,25.2 34.5,26.2 36.5,27.4 				"/>
				<line class="st5" x1="41" y1="26.9" x2="45.4" y2="29.4"/>
				<line class="st5" x1="72.3" y1="46.1" x2="72.3" y2="44.4"/>
				<line class="st5" x1="76.8" y1="49.7" x2="76.8" y2="47"/>
				<polyline class="st5" points="86.8,41.5 83.8,43.3 81,41.6 				"/>
				<polyline class="st4" points="86.8,45.3 87,45.4 87,46.7 83.9,48.5 80.7,46.7 80.7,45.5 81,45.3 				"/>
				<line class="st4" x1="83.8" y1="48.5" x2="83.8" y2="43.3"/>
				<polyline class="st4" points="87,45.8 88.4,46.6 88.4,50.3 83.8,52.9 79.4,50.3 79.4,46.7 80.7,45.9 				"/>
				<polyline class="st4" points="88.4,46.6 83.8,49.3 79.4,46.7 				"/>
				<polyline class="st4" points="33,22.8 28.6,25.4 28.6,55.9 				"/>
				<polyline class="st4" points="37.8,20 40.8,18.2 46.5,22 				"/>
				<line class="st4" x1="83.8" y1="57.4" x2="83.8" y2="84.9"/>
				<line class="st4" x1="83.8" y1="84.9" x2="54.3" y2="67.8"/>
				<polyline class="st4" points="92.2,57.1 83.8,62 28.7,30 				"/>
				<polyline class="st4" points="92.2,59.4 83.8,64.3 28.7,32.3 				"/>
				<polyline class="st4" points="92.2,61.7 83.8,66.6 28.7,34.6 				"/>
				<polyline class="st4" points="92.2,64 83.8,68.8 28.7,36.9 				"/>
				<polyline class="st4" points="92.2,66.3 83.8,71.2 28.7,39.2 				"/>
				<polyline class="st4" points="92.2,68.6 83.8,73.4 28.7,41.5 				"/>
				<polyline class="st4" points="92.2,70.9 83.8,75.8 28.7,43.8 				"/>
				<polyline class="st4" points="92.2,73.2 83.8,78 28.7,46.1 				"/>
				<line class="st4" x1="92.2" y1="75.5" x2="90.2" y2="76.6"/>
				<polyline class="st4" points="85.8,79.2 83.8,80.3 28.7,48.4 				"/>
				<line class="st4" x1="90.2" y1="78.9" x2="92.2" y2="77.8"/>
				<polyline class="st4" points="85.8,81.5 83.8,82.6 28.7,50.7 				"/>
				<polyline class="st4" points="92.2,54.8 83.8,59.7 28.7,27.7 				"/>
				<line class="st4" x1="52" y1="66.5" x2="28.6" y2="53"/>
				<polyline class="st5" points="34.2,18.7 33,19.4 33,22.8 				"/>
				<polyline class="st5" points="36.6,18.7 37.8,19.4 37.8,22.4 				"/>
				<polyline class="st5" points="33,19.4 35.3,20.8 37.8,19.4 				"/>
				<polyline class="st4" points="84.8,39.3 85.4,39.7 85.4,41.5 83.8,42.4 82.2,41.5 82.2,39.7 83,39.2 				"/>
				<polyline class="st5" points="85.5,39.7 83.8,40.7 82.2,39.7 				"/>
				<g>
					<defs>
						<rect id="SVGID_3_" x="27.2" y="9" width="70.5" height="77.7"/>
					</defs>
					<clipPath id="SVGID_4_">
						<use xlink:href="#SVGID_3_"  style="overflow:visible;"/>
					</clipPath>
					<g class="st6">
						<path class="st4" d="M82.3,37.8c0,0.1-0.2,0.2-0.2,0.2l0.1,0.3c0.1,0.1,0.5,0.2,1.1,0.1s1.9-0.8,2-1.5l-0.2-0.4
							c-0.1,0-0.3,0-0.4,0"/>
					</g>
				</g>
				<polyline class="st4" points="82.9,35.2 83.8,35.7 84,35.6 84.6,34.7 				"/>
				<g>
					<defs>
						<rect id="SVGID_5_" x="27.2" y="9" width="70.5" height="77.7"/>
					</defs>
					<clipPath id="SVGID_6_">
						<use xlink:href="#SVGID_5_"  style="overflow:visible;"/>
					</clipPath>
					<g class="st7">
						<path class="st4" d="M85.2,37.2c0,0.2,0,0.4,0,0.6c-0.2,0.8-0.9,1.3-1.7,1.1c-0.3-0.1-0.6-0.2-0.8-0.4h-0.1"/>
						<path class="st4" d="M82.4,38.1c0-0.1-0.1-0.2-0.1-0.4c-0.1-0.8,0.4-1.5,1.2-1.7c0.5-0.1,0.9,0.1,1.3,0.4
							c0.1,0.1,0.2,0.2,0.2,0.3"/>
						<path class="st4" d="M83.2,44.3c0.2,0.7,0.1,1.3-0.4,1.3s-1.1-0.6-1.3-1.3s0-1.3,0.4-1.3S83,43.6,83.2,44.3z"/>
						<path class="st4" d="M84.4,44.4c-0.2,0.7,0,1.3,0.4,1.3s1.1-0.6,1.3-1.3s0-1.3-0.4-1.3S84.7,43.7,84.4,44.4z"/>
						<path class="st8" d="M84.8,39.4c0-0.1,0-0.1,0-0.2c0,0,0-0.1-0.1-0.1c-0.1,0-0.2,0-0.2,0c0,0,0-0.1,0-0.1l0,0l0.1-0.3"/>
						<path class="st5" d="M84.1,39.3c0,0.1,0,0.1,0.1,0.2s0.2,0.1,0.3,0"/>
					</g>
				</g>
				<polyline class="st5" points="83.4,39.9 83.4,39.8 83.6,39.5 83.5,39.3 83.2,39.3 82.9,39.1 83,38.7 				"/>
				<polyline class="st4" points="82.2,40.9 81,41.6 81,45.5 83.9,47.2 86.8,45.5 86.8,41.5 85.5,40.8 				"/>
				<g>
					<defs>
						<rect id="SVGID_7_" x="27.2" y="9" width="70.5" height="77.7"/>
					</defs>
					<clipPath id="SVGID_8_">
						<use xlink:href="#SVGID_7_"  style="overflow:visible;"/>
					</clipPath>
					<g class="st9">
						<path class="st5" d="M35.2,17.4c-0.6,0.1-1,0.6-1,1.2v0.9c0,0.3,0.5,0.6,1.2,0.6s1.2-0.3,1.2-0.6v-0.9c0-0.6-0.4-1.1-1-1.2
							v-0.1c0-0.1-0.1-0.1-0.2-0.1s-0.2,0.1-0.2,0.1L35.2,17.4z"/>
					</g>
				</g>
				<polyline class="st4" points="92.2,52.5 83.8,57.4 28.7,25.4 				"/>
				<polyline class="st4" points="54.3,68.2 52.7,67.3 51.3,68.2 53.3,69.3 54.3,68.7 				"/>
				<line class="st4" x1="54.3" y1="68.2" x2="52.7" y2="67.3"/>
				<line class="st4" x1="54.3" y1="69.6" x2="53.6" y2="69.2"/>
				<g>
					<defs>
						<rect id="SVGID_9_" x="27.2" y="9" width="70.5" height="77.7"/>
					</defs>
					<clipPath id="SVGID_10_">
						<use xlink:href="#SVGID_9_"  style="overflow:visible;"/>
					</clipPath>
					<g class="st10">
						<path class="st4" d="M53,65.5c-0.2,0.2-0.3,0.4-0.3,0.7v1.2"/>
					</g>
				</g>
				<polyline class="st4" points="52.4,68.8 52,69.1 28.6,55.9 				"/>
				<line class="st4" x1="52" y1="69.1" x2="52" y2="68.6"/>
				<g>
					<defs>
						<rect id="SVGID_11_" x="27.2" y="9" width="70.5" height="77.7"/>
					</defs>
					<clipPath id="SVGID_12_">
						<use xlink:href="#SVGID_11_"  style="overflow:visible;"/>
					</clipPath>
					<g class="st11">
						<path class="st4" d="M90.2,81.2v-4.5l-4.4,2.5v4.6l-2,1.2l-14.8-7l-11.9-6l-2.7-1.5v-3.1c-0.1-0.7-0.5-1.4-1.2-1.7
							c-0.8-0.5-1.2,0.4-1.2,0.7v1.5"/>
					</g>
				</g>
				<polyline class="st4" points="87.1,81.5 87.1,80.3 86.4,80.8 86.4,81.9 				"/>
				<g>
					<defs>
						<rect id="SVGID_13_" x="27.2" y="9" width="70.5" height="77.7"/>
					</defs>
					<clipPath id="SVGID_14_">
						<use xlink:href="#SVGID_13_"  style="overflow:visible;"/>
					</clipPath>
					<g class="st12">
						<path class="st4" d="M90.9,51.7l1.3,0.8v27.5l-2,1.1c-1-0.3-2.1-0.2-3,0.2l-1,0.6c-0.2,0.1-0.3,0.2-0.4,0.3"/>
					</g>
				</g>
				<polyline class="st5" points="52.5,32.1 56.6,29.7 56.6,28.1 46.9,21.8 41,25.2 				"/>
				<line class="st5" x1="56.6" y1="28.1" x2="52.5" y2="30.5"/>
				<polygon class="st13" points="55.4,43.2 55.4,57 46.8,52 46.8,38.2 				"/>
				<line class="st14" x1="46.8" y1="40.5" x2="55.4" y2="45.5"/>
				<line class="st14" x1="46.8" y1="42.8" x2="55.4" y2="47.8"/>
				<line class="st14" x1="46.8" y1="45.1" x2="55.4" y2="50.1"/>
				<line class="st14" x1="46.8" y1="47.4" x2="55.4" y2="52.4"/>
				<line class="st14" x1="46.8" y1="49.7" x2="55.4" y2="54.7"/>
			</g>
		</g>
	</g>
	<g id="Layer_4">
		<polygon class="st13" points="61,125.4 73.1,125.4 73.1,127.8 72.8,127.8 72.8,129.8 72.7,129.8 72.7,131 72.4,131 72.4,130.9 
			71.4,130.9 71.4,131 70.1,131 69.3,131 68.8,131 68.8,130.9 66.2,130.9 66.2,130.9 63.9,130.9 63.9,131 61,131 		"/>
		<g>
			<defs>
				<rect id="SVGID_15_" x="23.4" y="124.2" width="77.1" height="17.4"/>
			</defs>
			<clipPath id="SVGID_16_">
				<use xlink:href="#SVGID_15_"  style="overflow:visible;"/>
			</clipPath>
			<g class="st15">
				<polygon class="st16" points="98.6,125.4 98.6,140.5 24.3,135.9 24.4,125.4 				"/>
			</g>
		</g>
	</g>
</g>
</svg>
