<?xml version="1.0" encoding="utf-8"?>
<!-- Generator: Adobe Illustrator 23.0.0, SVG Export Plug-In . SVG Version: 6.00 Build 0)  -->
<svg version="1.1" id="Layer_1" xmlns="http://www.w3.org/2000/svg" xmlns:xlink="http://www.w3.org/1999/xlink" x="0px" y="0px"
	 viewBox="0 0 347 105.1" style="enable-background:new 0 0 347 105.1;" xml:space="preserve">
<style type="text/css">
	.st0{fill:#D1D3D4;}
	.st1{fill:#231F20;}
	.st2{clip-path:url(#SVGID_2_);}
	.st3{fill:none;stroke:#D1D3D4;stroke-width:1.09;stroke-miterlimit:10;}
	.st4{clip-path:url(#SVGID_4_);}
	.st5{enable-background:new    ;}
	.st6{fill:none;stroke:#231F20;stroke-width:0.15;stroke-miterlimit:10;}
	.st7{fill:none;stroke:#231F20;stroke-width:0.14;stroke-miterlimit:10;}
	.st8{clip-path:url(#SVGID_6_);}
	.st9{clip-path:url(#SVGID_8_);}
	.st10{fill:none;stroke:#231F20;stroke-width:0.14;stroke-linejoin:bevel;}
	.st11{clip-path:url(#SVGID_10_);}
	.st12{clip-path:url(#SVGID_12_);}
	.st13{clip-path:url(#SVGID_14_);}
	.st14{clip-path:url(#SVGID_16_);}
	.st15{clip-path:url(#SVGID_18_);}
	.st16{fill:none;stroke:#FFFFFF;stroke-width:0.15;stroke-miterlimit:10;}
	.st17{clip-path:url(#SVGID_20_);}
	.st18{clip-path:url(#SVGID_22_);}
	.st19{clip-path:url(#SVGID_24_);}
	.st20{clip-path:url(#SVGID_26_);}
	.st21{clip-path:url(#SVGID_28_);}
	.st22{clip-path:url(#SVGID_30_);}
</style>
<title>residence_C_7-12_key_horizontal</title>
<g>
	<g id="Layer_1_copy">
		<g>
			<path class="st0" d="M209.9,51.6c-0.8,0-1.2-0.5-1.2-1.4v-1.8h4.4V50c0,0.9-0.4,1.5-1.2,1.5c-0.4,0-0.8-0.2-0.9-0.6
				C210.8,51.3,210.3,51.6,209.9,51.6z M209.4,49.2v0.8c0,0.4,0.2,0.6,0.5,0.6s0.5-0.2,0.5-0.6v-0.8H209.4z M211.2,50
				c0,0.4,0.2,0.7,0.5,0.7s0.5-0.2,0.5-0.7v-0.7h-1V50z"/>
			<path class="st0" d="M210.2,54.1h-1.6v-0.9h4.4V55c0.1,0.7-0.4,1.4-1.1,1.5c-0.1,0-0.1,0-0.2,0c-0.6,0-1.2-0.4-1.3-1l-1.7,1.1v-1
				l1.6-1.1L210.2,54.1z M211,54.1V55c0,0.5,0.2,0.7,0.6,0.7s0.6-0.2,0.6-0.7v-0.8L211,54.1z"/>
		</g>
		<g>
			<path class="st0" d="M208.6,61.1c-0.1-1.2,0.8-2.3,2-2.4c1.2-0.1,2.3,0.8,2.4,2c0.1,1.2-0.8,2.3-2,2.4c-0.1,0-0.2,0-0.2,0
				c-1.1,0.1-2.1-0.7-2.2-1.9C208.6,61.2,208.6,61.1,208.6,61.1z M212.2,61.1c0-0.7-0.6-1.1-1.4-1.1s-1.4,0.4-1.4,1.1
				s0.6,1.1,1.4,1.1S212.2,61.8,212.2,61.1z"/>
		</g>
		<g>
			<path class="st0" d="M213,67.3l-4.4,1.7v-1l1-0.4v-1.6l-1-0.4v-0.9l4.3,1.7L213,67.3z M210.5,66.3v1l1.4-0.5L210.5,66.3z"/>
		</g>
		<g>
			<path class="st0" d="M213,71v1.5c0,1.2-1,2.2-2.2,2.2c-1.2,0-2.1-1-2.1-2.2V71H213z M209.5,72.5c0.1,0.8,0.7,1.3,1.5,1.2
				c0.7-0.1,1.2-0.6,1.2-1.2v-0.6h-2.7V72.5z"/>
		</g>
		<g>
			<path class="st0" d="M213,79.5l-2.9,0.8l2.9,0.7v0.9l-4.3-1.1v-0.8l2.8-0.8l-2.8-0.8v-0.8l4.3-1.1v0.9l-2.9,0.7l2.9,0.8V79.5z"/>
		</g>
		<g>
			<path class="st0" d="M213,85.8l-4.3,1.6v-0.9l1-0.4v-1.6l-1-0.4v-0.9l4.3,1.7V85.8z M210.5,84.8v1.1l1.4-0.5L210.5,84.8z"/>
		</g>
		<g>
			<path class="st0" d="M213,91.7v1l-2.7-1.6h-1.6v-0.9h1.6l2.7-1.6v1l-1.8,1L213,91.7z"/>
		</g>
		<g>
			<path class="st0" d="M343.4,40.5v0.9h-3.5v2h-0.8v-2.9H343.4z"/>
		</g>
		<g>
			<path class="st0" d="M343.4,47.8l-4.3,1.6v-0.9l1-0.4v-1.6l-1-0.4v-0.9l4.3,1.7V47.8z M340.9,46.8v1l1.4-0.5L340.9,46.8z"/>
		</g>
		<g>
			<path class="st0" d="M339.1,51.5h4.3v2.9h-0.8v-2h-1.1v1.8h-0.8v-1.8h-1.6V51.5z"/>
		</g>
		<g>
			<path class="st0" d="M343.4,58.5l-4.3,1.7v-0.9l1-0.4v-1.6l-1-0.4V56l4.3,1.6V58.5z M340.9,57.5v1l1.4-0.5L340.9,57.5z"/>
		</g>
		<g>
			<path class="st0" d="M343.4,64.4v0.9l-2.7-1.6h-1.6v-0.9h1.6l2.7-1.5v1l-1.8,1L343.4,64.4z"/>
			<path class="st0" d="M343.4,69.8h-0.8v-2h-0.9v1.8h-0.8v-1.9h-1v2h-0.8v-2.9h4.3L343.4,69.8L343.4,69.8z"/>
			<path class="st0" d="M343.4,71.2v3.7h-0.8v-1.4h-3.5v-0.9h3.5v-1.4H343.4z"/>
			<path class="st0" d="M343.4,76.2v3.7h-0.8v-1.4h-3.5v-0.9h3.5v-1.4H343.4z"/>
			<path class="st0" d="M343.4,84.4h-0.8v-2h-0.9v1.8h-0.8v-1.9h-1v2h-0.8v-2.9h4.3L343.4,84.4L343.4,84.4z"/>
		</g>
		<g>
			<path class="st0" d="M340.3,92.5c-0.4,0.1-0.6,0.5-0.5,0.9c0,0.4,0.2,0.7,0.5,0.7s0.4-0.2,0.5-0.5l0.2-0.8
				c0.1-0.6,0.5-1.1,1.2-1.1c0.8,0,1.4,0.7,1.3,1.4c0,0,0,0.1,0,0.1c0.1,0.8-0.5,1.5-1.2,1.7V94c0.3-0.1,0.5-0.4,0.5-0.8
				c0-0.4-0.2-0.7-0.5-0.7s-0.4,0.2-0.5,0.5l-0.2,0.8c-0.2,0.7-0.6,1.1-1.2,1.1c-0.8,0-1.3-0.7-1.3-1.6c-0.1-0.8,0.5-1.6,1.3-1.8
				L340.3,92.5L340.3,92.5z"/>
		</g>
		<g>
			<path class="st0" d="M343.4,96.8v3.7h-0.8v-1.4h-3.5v-0.9h3.5v-1.4H343.4z"/>
		</g>
		<g>
			<path class="st0" d="M251.3,40.8h0.9v3.5h2v0.8h-2.9V40.8z"/>
			<path class="st0" d="M258.8,40.8v0.8h-2v0.9h1.9v0.8h-1.9v1h2V45h-2.9v-4.3L258.8,40.8z"/>
		</g>
		<g>
			<path class="st0" d="M263.1,45.1c-1.2,0.1-2.3-0.8-2.4-2c-0.1-1.2,0.8-2.3,2-2.4c1.2-0.1,2.3,0.8,2.4,2c0,0.1,0,0.2,0,0.2
				c0.1,1.1-0.8,2.1-1.9,2.2C263.2,45.1,263.1,45.1,263.1,45.1z M263.1,41.5c-0.7,0-1.1,0.6-1.1,1.4s0.4,1.4,1.1,1.4
				s1.1-0.6,1.1-1.4S263.8,41.5,263.1,41.5z"/>
		</g>
		<g>
			<path class="st0" d="M270.8,45.1h-0.7l-2-2.9v2.9h-0.9v-4.3h0.8l1.9,2.7v-2.7h0.9L270.8,45.1L270.8,45.1z"/>
		</g>
		<g>
			<path class="st0" d="M275.2,40.8l1.6,4.3H276l-0.4-1H274l-0.4,1h-0.9l1.6-4.3H275.2z M274.2,43.3h1l-0.5-1.4L274.2,43.3z"/>
		</g>
		<g>
			<path class="st0" d="M279.7,43.5v1.6h-0.9v-4.3h1.8c0.7-0.1,1.4,0.4,1.5,1.1c0,0.1,0,0.1,0,0.2c0,0.6-0.4,1.2-1,1.3l1.1,1.7h-1
				l-1.1-1.6L279.7,43.5z M279.7,42.7h0.8c0.5,0,0.7-0.2,0.7-0.6s-0.2-0.6-0.7-0.6h-0.8V42.7z"/>
			<path class="st0" d="M283.7,40.8h1.5c1.2,0,2.1,1,2.1,2.2c0,1.2-1,2.1-2.1,2.1h-1.5V40.8z M285.2,44.3c0.8-0.1,1.3-0.7,1.2-1.5
				c-0.1-0.7-0.6-1.2-1.2-1.2h-0.6v2.7H285.2z"/>
		</g>
		<g>
			<path class="st0" d="M293.3,43.8c0.1,0.4,0.5,0.6,0.9,0.6c0.4,0,0.7-0.2,0.7-0.5s-0.2-0.4-0.5-0.5l-0.8-0.2
				c-0.6-0.1-1.1-0.5-1.1-1.2c0-0.8,0.7-1.4,1.5-1.3c0,0,0,0,0.1,0c0.8-0.1,1.5,0.5,1.7,1.2h-0.9c-0.1-0.3-0.4-0.6-0.8-0.5
				c-0.4,0-0.7,0.2-0.7,0.5s0.2,0.4,0.5,0.5l0.8,0.2c0.7,0.2,1.1,0.6,1.1,1.2c0,0.8-0.7,1.3-1.6,1.3c-0.8,0.1-1.6-0.5-1.8-1.3
				L293.3,43.8z"/>
		</g>
		<g>
			<path class="st0" d="M297.5,40.8h3.7v0.8h-1.4v3.5h-0.9v-3.5h-1.4V40.8z"/>
		</g>
		<g>
			<path class="st0" d="M248.2,94.4c0.9-0.1,1.7,0.6,1.8,1.5h-0.9c-0.1-0.4-0.5-0.7-0.9-0.7c-0.7,0-1.1,0.6-1.1,1.4s0.4,1.4,1.1,1.4
				c0.4,0,0.8-0.3,0.9-0.7h0.9c-0.1,0.9-0.9,1.5-1.8,1.5c-1.2-0.1-2.1-1.2-2-2.4C246.3,95.3,247.1,94.5,248.2,94.4L248.2,94.4z"/>
		</g>
		<g>
			<path class="st0" d="M254.2,94.5l1.6,4.3H255l-0.4-1H253l-0.4,1h-0.9l1.6-4.3H254.2z M253.2,97h1.1l-0.5-1.4L253.2,97z"/>
		</g>
		<g>
			<path class="st0" d="M257.2,94.5h3.7v0.8h-1.4v3.5h-0.9v-3.5h-1.4V94.5z"/>
		</g>
		<g>
			<path class="st0" d="M266.8,94.5v4.3h-0.9V97h-1.9v1.8H263v-4.3h0.9v1.7h1.9v-1.8H266.8z"/>
		</g>
		<g>
			<path class="st0" d="M272,94.5v0.8h-2v0.9h1.9V97H270v1h2v0.8h-2.9v-4.3L272,94.5z"/>
			<path class="st0" d="M274.6,97.2v1.6h-0.9v-4.3h1.8c0.7-0.1,1.4,0.4,1.5,1.1c0,0.1,0,0.1,0,0.2c0,0.6-0.4,1.2-1,1.3l1.1,1.7h-1
				l-1.1-1.6H274.6z M274.6,96.4h0.8c0.5,0,0.7-0.2,0.7-0.6s-0.2-0.6-0.7-0.6h-0.8V96.4z"/>
		</g>
		<g>
			<path class="st0" d="M280.7,98.8h-0.9v-4.3h0.9V98.8z"/>
		</g>
		<g>
			<path class="st0" d="M286.6,98.8h-0.7l-2-2.9v2.9H283v-4.3h0.8l1.9,2.7v-2.7h0.9L286.6,98.8z"/>
			<path class="st0" d="M291.4,94.5v0.8h-2v0.9h1.9V97h-1.9v1h2v0.8h-2.9v-4.3L291.4,94.5z"/>
			<path class="st0" d="M295.5,94.5h0.9V98h2v0.8h-2.9V94.5z"/>
		</g>
		<g>
			<path class="st0" d="M305.8,98.8h-0.7l-2-2.9v2.9h-0.9v-4.3h0.8l1.9,2.7v-2.7h0.9L305.8,98.8z"/>
		</g>
	</g>
	<g>
		<polygon class="st1" points="250.4,68.8 249.2,68.8 249.2,70.5 250.4,70.5 250.4,77.4 258.7,78 258.7,69 258.5,69 258.5,65.9 
			258.7,65.9 258.7,60.4 250.4,60.4 		"/>
		<g>
			<defs>
				<rect id="SVGID_1_" x="220.2" y="58.8" width="112" height="25.3"/>
			</defs>
			<clipPath id="SVGID_2_">
				<use xlink:href="#SVGID_1_"  style="overflow:visible;"/>
			</clipPath>
			<g class="st2">
				<polygon class="st3" points="329.5,60.5 329.5,82.4 221.5,75.7 221.6,60.5 				"/>
			</g>
		</g>
		<g>
			<defs>
				<rect id="SVGID_3_" x="3.7" y="0.4" width="187.5" height="104.3"/>
			</defs>
			<clipPath id="SVGID_4_">
				<use xlink:href="#SVGID_3_"  style="overflow:visible;"/>
			</clipPath>
			<g class="st4">
				<g class="st5">
					<path class="st0" d="M11.5,75.3l0.6,0.4l-2.5,1.6l1.5,0.9l-0.6,0.4l-2.1-1.3L11.5,75.3z"/>
					<path class="st0" d="M17.4,79l-0.6,0.4l-1.5-0.9l-0.7,0.4l1.3,0.8l-0.5,0.4l-1.3-0.8l-0.7,0.5l1.5,0.9L14.4,81l-2.1-1.3l3.1-2
						L17.4,79z"/>
					<path class="st0" d="M17.4,82.9c-0.9-0.5-0.8-1.3,0.1-1.9c0.9-0.6,2.2-0.6,3.1-0.1c0.9,0.5,0.8,1.3-0.1,1.9
						C19.5,83.4,18.2,83.5,17.4,82.9z M20,81.2c-0.5-0.3-1.2-0.2-1.8,0.1s-0.7,0.9-0.2,1.2c0.5,0.3,1.2,0.2,1.8-0.1
						C20.4,82,20.5,81.6,20,81.2z"/>
					<path class="st0" d="M23.2,86.5l-0.5-0.3l0.6-2.2l-2.1,1.3l-0.6-0.4l3.1-2l0.6,0.4l-0.6,2.1l1.9-1.3l0.6,0.4L23.2,86.5z"/>
				</g>
				<g class="st5">
					<path class="st0" d="M29.7,86.6l-1.9,2.7L27.1,89l0.5-0.7l-1.2-0.7l-1,0.3l-0.6-0.4l4.3-1.2L29.7,86.6z M27.2,87.4l0.8,0.5
						l0.6-0.9L27.2,87.4z"/>
				</g>
				<g class="st5">
					<path class="st0" d="M31.2,90L30,90.8l-0.6-0.4l3.1-2l1.3,0.8c0.7,0.4,0.7,0.9,0.1,1.3c-0.5,0.3-1.1,0.3-1.6,0.1l-0.4,1.3
						l-0.7-0.5l0.4-1.2L31.2,90z M31.7,89.7l0.6,0.4c0.3,0.2,0.7,0.2,0.9,0c0.3-0.2,0.3-0.4-0.1-0.6l-0.6-0.4L31.7,89.7z"/>
				</g>
				<g class="st5">
					<path class="st0" d="M36.5,90.9l1.1,0.7c0.9,0.6,0.9,1.3,0,1.9c-0.9,0.6-2.1,0.6-3.1,0l-1.1-0.7L36.5,90.9z M35.1,93.2
						c0.6,0.4,1.3,0.3,1.9-0.1c0.6-0.4,0.7-0.8,0.1-1.2l-0.4-0.3l-2,1.3L35.1,93.2z"/>
				</g>
				<g class="st5">
					<path class="st0" d="M41.4,96.7c-0.2,0.2-0.1,0.5,0.2,0.6c0.3,0.2,0.7,0.2,0.9,0.1c0.2-0.1,0.2-0.3,0-0.5L42,96.6
						c-0.3-0.3-0.5-0.7,0-1c0.6-0.4,1.4-0.3,2.1,0.1c0.7,0.4,0.7,0.9,0.3,1.3l-0.6-0.4c0.1-0.2,0.1-0.4-0.2-0.6
						c-0.3-0.2-0.6-0.2-0.9-0.1c-0.2,0.1-0.2,0.3,0,0.4l0.4,0.4c0.4,0.4,0.4,0.8-0.1,1.1c-0.6,0.4-1.5,0.3-2.1-0.1
						c-0.7-0.4-0.8-1-0.4-1.4L41.4,96.7z"/>
				</g>
				<g class="st5">
					<path class="st0" d="M46.8,97.3l2.7,1.7l-0.6,0.4l-1-0.6l-2.5,1.6l-0.7-0.4l2.5-1.6l-1-0.6L46.8,97.3z"/>
				</g>
				<line class="st6" x1="73.5" y1="62.7" x2="73.5" y2="58.2"/>
				<line class="st6" x1="13.8" y1="27" x2="13.8" y2="23.3"/>
				<line class="st6" x1="26.2" y1="31.8" x2="26.2" y2="33.9"/>
				<line class="st6" x1="20.7" y1="28.7" x2="20.7" y2="30.8"/>
				<line class="st6" x1="27.6" y1="31" x2="27.6" y2="33"/>
				<line class="st7" x1="27.7" y1="33" x2="26.2" y2="33.9"/>
				<line class="st7" x1="27.6" y1="31.1" x2="26.2" y2="31.9"/>
				<line class="st7" x1="65.3" y1="48.7" x2="59.3" y2="52.2"/>
				<line class="st7" x1="69.9" y1="52.4" x2="64.8" y2="55.4"/>
				<line class="st6" x1="34.9" y1="35.2" x2="34.9" y2="37.2"/>
				<line class="st7" x1="39.9" y1="33.5" x2="64.2" y2="49.4"/>
				<line class="st7" x1="65.3" y1="48.7" x2="69.9" y2="51.8"/>
				<line class="st7" x1="39.9" y1="32.8" x2="64.7" y2="49.1"/>
				<line class="st7" x1="10.8" y1="25.8" x2="13.4" y2="27.3"/>
				<line class="st7" x1="20.7" y1="28.7" x2="26.2" y2="31.9"/>
				<line class="st7" x1="27.7" y1="31.1" x2="35" y2="35.3"/>
				<line class="st7" x1="27.6" y1="33" x2="34.9" y2="37.2"/>
				<line class="st7" x1="59.3" y1="52.2" x2="64.8" y2="55.4"/>
				<line class="st6" x1="73.4" y1="49.8" x2="73.4" y2="47.7"/>
				<polyline class="st6" points="64.3,59.5 63.4,59 62.3,59.7 15.3,32.5 15.3,30.2 				"/>
				<polyline class="st6" points="27.1,25.1 22.4,22 11.8,28.2 62.3,57.3 				"/>
				<line class="st6" x1="62.3" y1="57.3" x2="62.3" y2="59.7"/>
				<line class="st6" x1="63.4" y1="56.7" x2="62.3" y2="57.3"/>
				<polyline class="st6" points="63.4,59 63.4,56.7 59.3,54.3 				"/>
				<line class="st6" x1="73.5" y1="66.9" x2="73.5" y2="64.4"/>
				<polyline class="st6" points="79.1,57.3 82.1,59.3 82.1,61.9 73.5,66.9 64.3,61.6 64.3,59.1 68,56.9 				"/>
				<polyline class="st6" points="82.1,59.3 73.5,64.4 64.3,59.1 				"/>
				<polyline class="st7" points="12.7,28.7 12.7,30 15.3,31.4 				"/>
				<line class="st7" x1="20.7" y1="30.8" x2="26.2" y2="33.9"/>
				<line class="st7" x1="59.3" y1="54.3" x2="59.3" y2="52.2"/>
				<line class="st7" x1="64.8" y1="58.7" x2="64.8" y2="55.4"/>
				<polyline class="st7" points="77.1,48.8 73.5,50.8 69.9,48.8 				"/>
				<polyline class="st6" points="77.1,53.3 77.4,53.5 77.4,55 73.5,57.3 69.5,55.1 69.5,53.6 69.9,53.4 				"/>
				<line class="st6" x1="73.5" y1="57.3" x2="73.5" y2="50.8"/>
				<polyline class="st6" points="77.4,54 79.1,55 79.1,59.4 73.5,62.7 68,59.5 68,55 69.5,54.1 				"/>
				<polyline class="st6" points="79.1,55 73.5,58.2 68,55.1 				"/>
				<polyline class="st6" points="10.8,25.8 5.5,28.9 5.5,66.3 				"/>
				<polyline class="st6" points="16.8,22.3 20.5,20.1 27.6,24.8 				"/>
				<line class="st6" x1="73.5" y1="68.1" x2="73.4" y2="101.9"/>
				<line class="st6" x1="73.4" y1="101.9" x2="37.2" y2="81"/>
				<polyline class="st6" points="83.7,67.8 73.5,73.8 5.6,34.6 				"/>
				<polyline class="st6" points="83.7,70.6 73.5,76.6 5.6,37.4 				"/>
				<polyline class="st6" points="83.7,73.4 73.5,79.4 5.6,40.2 				"/>
				<polyline class="st6" points="83.7,76.3 73.5,82.2 5.6,43 				"/>
				<polyline class="st6" points="83.7,79.1 73.5,85 5.6,45.8 				"/>
				<polyline class="st6" points="83.7,81.9 73.5,87.8 5.6,48.7 				"/>
				<polyline class="st6" points="83.7,84.7 73.5,90.7 5.6,51.5 				"/>
				<polyline class="st6" points="83.7,87.5 73.5,93.5 5.6,54.3 				"/>
				<line class="st6" x1="83.7" y1="90.3" x2="81.3" y2="91.7"/>
				<polyline class="st6" points="75.9,94.9 73.5,96.3 5.6,57.1 				"/>
				<line class="st6" x1="81.3" y1="94.6" x2="83.7" y2="93.2"/>
				<polyline class="st6" points="75.9,97.7 73.5,99.1 5.6,59.9 				"/>
				<polyline class="st6" points="83.7,65 73.5,70.9 5.6,31.8 				"/>
				<line class="st6" x1="34.3" y1="79.3" x2="5.6" y2="62.7"/>
				<polyline class="st7" points="12.4,20.8 10.8,21.6 10.8,25.8 				"/>
				<polyline class="st7" points="15.3,20.8 16.8,21.6 16.8,25.3 				"/>
				<polyline class="st7" points="10.8,21.6 13.8,23.3 16.8,21.6 				"/>
				<polyline class="st6" points="74.7,46 75.4,46.5 75.4,48.7 73.4,49.8 71.4,48.7 71.4,46.5 72.4,45.9 				"/>
				<polyline class="st7" points="75.4,46.5 73.4,47.7 71.4,46.5 				"/>
				<g>
					<defs>
						<rect id="SVGID_5_" x="3.8" y="5.1" width="86.7" height="98.9"/>
					</defs>
					<clipPath id="SVGID_6_">
						<use xlink:href="#SVGID_5_"  style="overflow:visible;"/>
					</clipPath>
					<g class="st8">
						<path class="st6" d="M71.6,44.1c0,0.1-0.2,0.2-0.2,0.3l0.1,0.3c0.1,0.2,0.6,0.3,1.3,0.1s2.3-1,2.5-1.9L75,42.5
							c-0.2,0-0.3,0-0.5,0"/>
					</g>
				</g>
				<polyline class="st6" points="72.3,41 73.3,41.5 73.7,41.4 74.4,40.4 				"/>
				<g>
					<defs>
						<rect id="SVGID_7_" x="3.8" y="5.1" width="86.7" height="98.9"/>
					</defs>
					<clipPath id="SVGID_8_">
						<use xlink:href="#SVGID_7_"  style="overflow:visible;"/>
					</clipPath>
					<g class="st9">
						<path class="st6" d="M75.1,43.4c0.1,0.2,0.1,0.5,0,0.8c-0.2,1-1.1,1.6-2.1,1.4c-0.4-0.1-0.7-0.3-0.9-0.5L72,45"/>
						<path class="st6" d="M71.7,44.5c-0.1-0.1-0.1-0.3-0.1-0.4c-0.1-1,0.5-1.9,1.5-2c0.6-0.1,1.2,0.1,1.6,0.5
							c0.1,0.1,0.2,0.3,0.3,0.4"/>
						<path class="st6" d="M72.7,52.2c0.3,0.9,0.1,1.5-0.5,1.5s-1.3-0.7-1.6-1.5s-0.1-1.5,0.5-1.5S72.4,51.3,72.7,52.2z"/>
						<path class="st6" d="M74.2,52.2c-0.3,0.8-0.1,1.5,0.5,1.5s1.3-0.7,1.6-1.5s0.1-1.5-0.5-1.5S74.5,51.3,74.2,52.2z"/>
						<path class="st10" d="M74.7,46.1c0-0.1,0-0.1,0-0.2c0,0,0-0.1-0.1-0.1c-0.1,0-0.2,0-0.3,0.1v-0.1l0.1-0.4"/>
						<path class="st7" d="M73.8,46c0,0.1,0,0.2,0.1,0.2s0.2,0.1,0.3,0"/>
					</g>
				</g>
				<polyline class="st7" points="72.9,46.7 72.9,46.6 73.1,46.2 73.1,46 72.6,46 72.2,45.8 72.4,45.3 				"/>
				<polyline class="st6" points="71.4,48 69.9,48.8 69.9,53.6 73.5,55.6 77.1,53.5 77.1,48.8 75.4,47.8 				"/>
				<g>
					<defs>
						<rect id="SVGID_9_" x="3.8" y="5.1" width="86.7" height="98.9"/>
					</defs>
					<clipPath id="SVGID_10_">
						<use xlink:href="#SVGID_9_"  style="overflow:visible;"/>
					</clipPath>
					<g class="st11">
						<path class="st7" d="M13.6,19.1c-0.7,0.1-1.2,0.8-1.2,1.5v1.1c0,0.4,0.7,0.8,1.5,0.8s1.5-0.3,1.5-0.8v-1.1
							c0-0.7-0.5-1.4-1.2-1.5V19c0-0.1-0.1-0.2-0.2-0.2s-0.2,0.1-0.2,0.2V19.1z"/>
					</g>
				</g>
				<polyline class="st6" points="83.7,62.2 73.5,68.1 5.6,29 				"/>
				<polyline class="st6" points="37.2,81.5 35.2,80.3 33.4,81.4 35.8,82.8 37.2,82.1 				"/>
				<line class="st6" x1="37.2" y1="81.5" x2="35.2" y2="80.3"/>
				<line class="st6" x1="37.2" y1="83.1" x2="36.2" y2="82.6"/>
				<g>
					<defs>
						<rect id="SVGID_11_" x="3.8" y="5.1" width="86.7" height="98.9"/>
					</defs>
					<clipPath id="SVGID_12_">
						<use xlink:href="#SVGID_11_"  style="overflow:visible;"/>
					</clipPath>
					<g class="st12">
						<path class="st6" d="M35.6,78.1c-0.2,0.2-0.4,0.5-0.4,0.8v1.4"/>
					</g>
				</g>
				<polyline class="st6" points="34.8,82.2 34.3,82.5 5.5,66.3 				"/>
				<line class="st6" x1="34.3" y1="82.5" x2="34.3" y2="81.9"/>
				<g>
					<defs>
						<rect id="SVGID_13_" x="3.8" y="5.1" width="86.7" height="98.9"/>
					</defs>
					<clipPath id="SVGID_14_">
						<use xlink:href="#SVGID_13_"  style="overflow:visible;"/>
					</clipPath>
					<g class="st13">
						<path class="st6" d="M81.3,97.3v-5.4l-5.4,3v5.6l-2.4,1.4l-18.3-8.6L40.5,86l-3.4-1.9v-3.9c-0.1-0.9-0.6-1.7-1.4-2.1
							c-1-0.6-1.4,0.5-1.4,0.8v1.9"/>
					</g>
				</g>
				<polyline class="st6" points="77.4,97.7 77.4,96.3 76.6,96.8 76.6,98.2 				"/>
				<g>
					<defs>
						<rect id="SVGID_15_" x="3.8" y="5.1" width="86.7" height="98.9"/>
					</defs>
					<clipPath id="SVGID_16_">
						<use xlink:href="#SVGID_15_"  style="overflow:visible;"/>
					</clipPath>
					<g class="st14">
						<path class="st6" d="M82.1,61.2l1.6,1V96l-2.4,1.4c-1.2-0.4-2.5-0.3-3.7,0.3l-1.2,0.7c-0.2,0.1-0.4,0.2-0.6,0.4"/>
					</g>
				</g>
				<polyline class="st7" points="34.9,37.2 39.9,34.2 39.9,32.3 28,24.5 20.7,28.7 				"/>
				<line class="st7" x1="39.9" y1="32.3" x2="34.9" y2="35.2"/>
				<g>
					<defs>
						<rect id="SVGID_17_" x="3.8" y="5.1" width="86.7" height="98.9"/>
					</defs>
					<clipPath id="SVGID_18_">
						<use xlink:href="#SVGID_17_"  style="overflow:visible;"/>
					</clipPath>
					<g class="st15">
						<g class="st5">
							<path class="st0" d="M196.5,68.6c0.7,0.5,0.7,1.1,0.2,1.5l-0.6-0.4c0.2-0.2,0.2-0.5-0.1-0.7c-0.5-0.3-1.2-0.3-1.8,0.1
								c-0.6,0.3-0.8,0.8-0.3,1.1c0.3,0.2,0.7,0.3,1.1,0.2l0.6,0.4c-0.8,0.3-1.6,0.2-2.3-0.3c-0.8-0.6-0.7-1.4,0.2-1.9
								C194.4,68,195.7,68,196.5,68.6z"/>
						</g>
						<g class="st5">
							<path class="st0" d="M200.8,71.6l-2,2.6l-0.6-0.4l0.5-0.6l-1.1-0.8l-1,0.3l-0.6-0.4l4.3-1L200.8,71.6z M198.2,72.2l0.7,0.5
								l0.7-0.9L198.2,72.2z"/>
						</g>
						<g class="st5">
							<path class="st0" d="M203,73.2l2.6,1.8l-0.6,0.3l-1-0.7l-2.6,1.5l-0.6-0.4l2.6-1.5l-1-0.7L203,73.2z"/>
							<path class="st0" d="M209.8,77.9l-3.2,1.8l-0.6-0.4l1.3-0.8l-1.4-0.9l-1.3,0.8l-0.6-0.4l3.2-1.8l0.6,0.4l-1.3,0.7l1.4,0.9
								l1.3-0.7L209.8,77.9z"/>
						</g>
						<g class="st5">
							<path class="st0" d="M213.5,80.5l-0.6,0.3l-1.4-1l-0.7,0.4l1.3,0.9l-0.6,0.3l-1.3-0.9l-0.8,0.4l1.4,1l-0.6,0.3l-2-1.4
								l3.2-1.8L213.5,80.5z"/>
							<path class="st0" d="M213.8,83.2l-1.2,0.7l-0.6-0.4l3.2-1.8l1.2,0.9c0.6,0.4,0.7,0.9,0,1.3c-0.5,0.3-1.1,0.3-1.6,0.1
								l-0.4,1.3l-0.7-0.5l0.4-1.2L213.8,83.2z M214.4,82.9l0.6,0.4c0.3,0.2,0.7,0.2,0.9,0.1c0.3-0.2,0.3-0.4,0-0.6l-0.6-0.4
								L214.4,82.9z"/>
							<path class="st0" d="M216.6,86.7l-0.6-0.4l3.2-1.8l0.6,0.4L216.6,86.7z"/>
							<path class="st0" d="M220.8,89.6l-0.5-0.3l0.7-2.2l-2.1,1.2l-0.6-0.4l3.2-1.8l0.6,0.4l-0.7,2.1l2-1.2l0.6,0.4L220.8,89.6z"/>
							<path class="st0" d="M227.8,90.4l-0.6,0.3l-1.4-1l-0.7,0.4l1.3,0.9l-0.6,0.3l-1.3-0.9l-0.8,0.4l1.4,1l-0.6,0.3l-2-1.4
								l3.2-1.8L227.8,90.4z"/>
							<path class="st0" d="M231.7,93.1l0.6,0.4l-2.6,1.5l1.4,1l-0.6,0.3l-2-1.4L231.7,93.1z"/>
						</g>
						<g class="st5">
							<path class="st0" d="M234.7,99.3l-0.5-0.3l0.7-2.2l-2.1,1.2l-0.6-0.4l3.2-1.8l0.6,0.4l-0.7,2.1l2-1.2l0.6,0.4L234.7,99.3z"/>
						</g>
						<path class="st7" d="M261.1,95.2v-0.8c0-0.1-0.1-0.3-0.2-0.4"/>
						<path class="st7" d="M261.6,95.6v-1.2c0-0.3-0.2-0.7-0.8-0.3c-0.4,0.2-0.7,0.6-0.7,1.1v1.3l-6.7,3.9l-8.9-6.1l-11.2-7.6
							l-9.4-6.4L210,70.7l-19.8-14.3V22.3l1.4-0.8"/>
						<path class="st7" d="M198.9,12.4c0.3,0.9,0.1,1.6-0.5,1.6s-1.3-0.7-1.6-1.5s-0.1-1.6,0.5-1.6S198.6,11.5,198.9,12.4z"/>
						<path class="st7" d="M200.4,12.4c-0.3,0.9-0.1,1.6,0.5,1.6s1.3-0.7,1.6-1.5s0.1-1.6-0.5-1.6S200.7,11.6,200.4,12.4z"/>
						<path class="st7" d="M197.8,4.3c-0.1,0.1-0.2,0.2-0.2,0.3l0.1,0.3c0.1,0.2,0.6,0.3,1.3,0.1s2.3-1,2.5-1.9l-0.3-0.5
							c-0.2,0-0.3,0-0.5,0"/>
						<path class="st7" d="M201.3,3.6c0.1,0.2,0.1,0.5,0,0.8c-0.2,1-1.1,1.6-2.1,1.4c-0.4-0.1-0.7-0.3-0.9-0.5l-0.1-0.1"/>
						<path class="st7" d="M197.9,4.7c-0.1-0.1-0.1-0.3-0.1-0.4c-0.1-1,0.5-1.9,1.5-2c0.6-0.1,1.2,0.1,1.6,0.5
							c0.1,0.1,0.2,0.3,0.3,0.4"/>
						<path class="st7" d="M200.9,6.3c0-0.1,0-0.1,0-0.2c0,0-0.1-0.1-0.1-0.1c-0.1,0-0.2,0-0.3,0V5.9l0.1-0.4"/>
						<path class="st7" d="M200,6.3c0,0.1,0.1,0.2,0.1,0.2s0.2,0.1,0.3,0"/>
						<path class="st7" d="M259.4,51.5c-0.7,0.1-1.2,0.8-1.2,1.5v1c0,0.4,0.7,0.8,1.5,0.8s1.5-0.3,1.5-0.8v-1c0-0.7-0.5-1.4-1.2-1.5
							v-0.2c0-0.1-0.1-0.2-0.2-0.2s-0.2,0.1-0.2,0.2L259.4,51.5z"/>
					</g>
				</g>
				<polygon class="st1" points="49,57 49,73.8 55,77.2 55,60.3 				"/>
				<line class="st16" x1="49" y1="59.7" x2="55" y2="63.2"/>
				<line class="st16" x1="49" y1="62.5" x2="55" y2="66"/>
				<line class="st16" x1="49" y1="65.3" x2="55" y2="68.8"/>
				<line class="st16" x1="49" y1="68.2" x2="55" y2="71.6"/>
				<line class="st16" x1="49" y1="70.9" x2="55" y2="74.4"/>
				<g>
					<defs>
						<rect id="SVGID_19_" x="104.3" y="0.4" width="86.7" height="104.3"/>
					</defs>
					<clipPath id="SVGID_20_">
						<use xlink:href="#SVGID_19_"  style="overflow:visible;"/>
					</clipPath>
					<g class="st17">
						<path class="st6" d="M2.2,98v-5.4l-5.4,3v5.6l-2.4,1.4L-23.9,94l-14.7-7.3l-3.3-1.9v-3.8c-0.1-0.9-0.7-1.7-1.4-2.1
							c-0.4-0.3-1-0.2-1.3,0.3c-0.1,0.2-0.2,0.4-0.2,0.6v1.9"/>
						<path class="st6" d="M3.1,61.9l1.6,1v33.8L2.2,98c-1.2-0.4-2.5-0.3-3.7,0.3L-2.7,99c-0.2,0.1-0.4,0.2-0.5,0.4"/>
					</g>
				</g>
				<polyline class="st6" points="189.3,61.6 174.3,70.1 111.1,28.7 				"/>
				<polyline class="st6" points="189.3,64.5 174.3,72.9 111.1,31.5 				"/>
				<polyline class="st6" points="189.3,67.3 174.3,75.8 111.1,34.4 				"/>
				<polyline class="st6" points="189.3,70.1 174.3,78.6 111.1,37.2 				"/>
				<polyline class="st6" points="189.3,72.9 174.3,81.4 111.1,40 				"/>
				<polyline class="st6" points="189.3,75.8 174.3,84.2 111.1,42.8 				"/>
				<polyline class="st6" points="189.3,78.6 174.3,87.1 111.1,45.7 				"/>
				<polyline class="st6" points="189.3,81.4 174.3,89.9 111.1,48.5 				"/>
				<polyline class="st6" points="189.3,84.2 174.3,92.7 111.1,51.3 				"/>
				<polyline class="st6" points="189.3,87.1 174.3,95.6 111.1,54.2 				"/>
				<polyline class="st6" points="189.3,89.9 174.3,98.4 111.1,57 				"/>
				<line class="st6" x1="189.3" y1="89.9" x2="174.3" y2="98.4"/>
				<g class="st5">
					<path class="st0" d="M117.4,69.3c0.7,0.5,0.7,1.1,0.2,1.5l-0.6-0.4c0.2-0.2,0.2-0.5-0.1-0.7c-0.5-0.3-1.2-0.3-1.8,0.1
						c-0.6,0.3-0.8,0.8-0.3,1.1c0.3,0.2,0.7,0.3,1.1,0.2l0.6,0.4c-0.8,0.3-1.6,0.2-2.3-0.3c-0.8-0.6-0.7-1.4,0.2-1.9
						C115.4,68.7,116.6,68.7,117.4,69.3z"/>
				</g>
				<g class="st5">
					<path class="st0" d="M121.7,72.3l-2,2.6l-0.6-0.4l0.5-0.6l-1.1-0.8l-1,0.3l-0.6-0.4l4.3-1L121.7,72.3z M119.1,72.9l0.7,0.5
						l0.7-0.9L119.1,72.9z"/>
				</g>
				<g class="st5">
					<path class="st0" d="M123.9,73.9l2.6,1.8l-0.6,0.3l-1-0.7l-2.6,1.5l-0.6-0.4l2.6-1.5l-1-0.7L123.9,73.9z"/>
					<path class="st0" d="M130.7,78.6l-3.2,1.8l-0.6-0.4l1.3-0.8l-1.4-0.9l-1.3,0.8l-0.6-0.4l3.2-1.8l0.6,0.4l-1.3,0.7l1.4,0.9
						l1.3-0.7L130.7,78.6z"/>
				</g>
				<g class="st5">
					<path class="st0" d="M134.5,81.2l-0.6,0.3l-1.4-1l-0.7,0.4l1.3,0.9l-0.6,0.3l-1.3-0.9l-0.8,0.4l1.4,1l-0.6,0.3l-2-1.4l3.2-1.8
						L134.5,81.2z"/>
					<path class="st0" d="M134.7,83.9l-1.2,0.7l-0.6-0.4l3.2-1.8l1.2,0.9c0.6,0.4,0.7,0.9,0,1.3c-0.5,0.3-1.1,0.3-1.6,0.1l-0.4,1.3
						l-0.7-0.5l0.4-1.2L134.7,83.9z M135.3,83.6l0.6,0.4c0.3,0.2,0.7,0.2,0.9,0.1c0.3-0.2,0.3-0.4,0-0.6l-0.6-0.4L135.3,83.6z"/>
				</g>
				<g class="st5">
					<path class="st0" d="M137.5,87.4l-0.6-0.4l3.2-1.8l0.6,0.4L137.5,87.4z"/>
					<path class="st0" d="M141.8,90.3l-0.5-0.3l0.7-2.2l-2.1,1.2l-0.6-0.4l3.2-1.8l0.6,0.4l-0.7,2.1l2-1.2l0.6,0.4L141.8,90.3z"/>
				</g>
				<g class="st5">
					<path class="st0" d="M148.7,91.1l-0.6,0.3l-1.4-1l-0.7,0.4l1.3,0.9l-0.6,0.3l-1.3-0.9l-0.8,0.4l1.4,1l-0.6,0.3l-2-1.4l3.2-1.8
						L148.7,91.1z"/>
					<path class="st0" d="M152.6,93.8l0.6,0.4l-2.6,1.5l1.4,1l-0.6,0.3l-2-1.4L152.6,93.8z"/>
				</g>
				<g class="st5">
					<path class="st0" d="M155.6,99.9l-0.5-0.3l0.7-2.2l-2.1,1.2l-0.6-0.4l3.2-1.8l0.6,0.4l-0.7,2.1l2-1.2l0.6,0.4L155.6,99.9z"/>
				</g>
				<polyline class="st7" points="189.3,58.8 174.3,67.3 111.1,25.9 				"/>
				<line class="st7" x1="174.3" y1="64.4" x2="174.3" y2="101.1"/>
				<line class="st7" x1="182" y1="95.9" x2="181.1" y2="96.4"/>
				<polyline class="st7" points="182,95.9 182.6,96.3 189.3,92.3 189.3,55.9 				"/>
				<polyline class="st7" points="189.3,55.9 174.3,64.4 111.1,23 				"/>
				<g>
					<defs>
						<rect id="SVGID_21_" x="104.3" y="0.4" width="86.7" height="104.3"/>
					</defs>
					<clipPath id="SVGID_22_">
						<use xlink:href="#SVGID_21_"  style="overflow:visible;"/>
					</clipPath>
					<g class="st18">
						<path class="st7" d="M182,95.9v-0.8c0-0.1-0.1-0.3-0.2-0.4"/>
						<path class="st7" d="M182.6,96.3v-1.2c0-0.3-0.2-0.7-0.8-0.3c-0.4,0.2-0.7,0.6-0.7,1.1v1.3l-6.7,3.9l-8.9-6.1l-11.2-7.6
							l-9.4-6.4l-13.9-9.5l-19.8-14.3V23l1.4-0.8"/>
					</g>
				</g>
				<line class="st7" x1="176.7" y1="57.4" x2="176.7" y2="55.9"/>
				<line class="st7" x1="120.1" y1="25.7" x2="120.1" y2="28.2"/>
				<line class="st7" x1="176.7" y1="57.4" x2="177.5" y2="58"/>
				<line class="st7" x1="176.7" y1="55.9" x2="177.5" y2="56.5"/>
				<line class="st7" x1="120.6" y1="10.6" x2="120.6" y2="8.7"/>
				<line class="st7" x1="120.6" y1="10.7" x2="120.6" y2="8.6"/>
				<line class="st7" x1="120.2" y1="23.7" x2="120.2" y2="19.2"/>
				<polyline class="st7" points="121.7,27.3 120.1,28.2 112.4,23.2 112.4,20.6 115.1,19.1 				"/>
				<polyline class="st7" points="120.6,16.6 124.2,14.5 124.2,9.7 124.2,9.7 122.6,8.6 				"/>
				<g>
					<defs>
						<rect id="SVGID_23_" x="104.3" y="0.4" width="86.7" height="104.3"/>
					</defs>
					<clipPath id="SVGID_24_">
						<use xlink:href="#SVGID_23_"  style="overflow:visible;"/>
					</clipPath>
					<g class="st19">
						<path class="st7" d="M119.8,13.1c0.3,0.9,0.1,1.6-0.5,1.6s-1.3-0.7-1.6-1.5s-0.1-1.6,0.5-1.6S119.5,12.2,119.8,13.1z"/>
						<path class="st7" d="M121.3,13.1c-0.3,0.9-0.1,1.6,0.5,1.6s1.3-0.7,1.6-1.5s0.1-1.6-0.5-1.6S121.6,12.2,121.3,13.1z"/>
					</g>
				</g>
				<line class="st7" x1="120.2" y1="19.3" x2="126.1" y2="15.9"/>
				<line class="st7" x1="115.1" y1="15.9" x2="120.2" y2="19.3"/>
				<line class="st7" x1="112.4" y1="20.6" x2="120.1" y2="25.7"/>
				<polyline class="st7" points="124.2,14.2 124.5,14.4 124.5,15.9 124.5,16 120.6,18.4 120.5,18.2 120.5,11.9 				"/>
				<polyline class="st7" points="116.6,15 115.1,15.9 115.1,20.3 115.1,20.4 120.2,23.7 				"/>
				<polyline class="st7" points="126.2,18.2 129.3,20.2 129.3,21.9 				"/>
				<line class="st7" x1="120.4" y1="12" x2="124.2" y2="9.8"/>
				<line class="st7" x1="117.1" y1="9.7" x2="118.5" y2="8.8"/>
				<line class="st7" x1="117.1" y1="9.6" x2="120.5" y2="12"/>
				<polyline class="st7" points="124.5,14.8 126.2,15.9 126.2,15.9 126.2,20.2 126.1,20.3 120.1,23.8 				"/>
				<line class="st7" x1="118.6" y1="7.4" x2="120.6" y2="8.7"/>
				<line class="st7" x1="121.6" y1="6.7" x2="122.6" y2="7.4"/>
				<g>
					<defs>
						<rect id="SVGID_25_" x="104.3" y="0.4" width="86.7" height="104.3"/>
					</defs>
					<clipPath id="SVGID_26_">
						<use xlink:href="#SVGID_25_"  style="overflow:visible;"/>
					</clipPath>
					<g class="st20">
						<path class="st7" d="M118.7,5c-0.1,0.1-0.1,0.2-0.2,0.3l0.1,0.3c0.1,0.2,0.6,0.3,1.3,0.1s2.3-1,2.5-1.9l-0.2-0.5
							c-0.2,0-0.3,0-0.5,0"/>
					</g>
				</g>
				<polyline class="st7" points="119.4,1.9 120.5,2.4 120.8,2.3 121.5,1.3 				"/>
				<g>
					<defs>
						<rect id="SVGID_27_" x="104.3" y="0.4" width="86.7" height="104.3"/>
					</defs>
					<clipPath id="SVGID_28_">
						<use xlink:href="#SVGID_27_"  style="overflow:visible;"/>
					</clipPath>
					<g class="st21">
						<path class="st7" d="M122.2,4.3c0.1,0.2,0.1,0.5,0,0.8c-0.2,1-1.1,1.6-2.1,1.4c-0.4-0.1-0.7-0.2-1-0.5L119,5.8"/>
						<path class="st7" d="M118.8,5.4c-0.1-0.1-0.1-0.3-0.1-0.4c-0.1-1,0.5-1.9,1.5-2c0.6-0.1,1.2,0.1,1.6,0.5
							c0.1,0.1,0.2,0.3,0.3,0.4"/>
						<path class="st7" d="M121.8,7c0-0.1,0-0.1,0-0.2c0,0,0-0.1-0.1-0.1c-0.1,0-0.2,0-0.3,0.1V6.6l0.1-0.4"/>
						<path class="st7" d="M121,6.9c0,0.1,0,0.2,0.1,0.2s0.2,0.1,0.3,0"/>
					</g>
				</g>
				<polyline class="st7" points="120,7.6 120,7.5 120.2,7.1 120.2,6.9 119.8,6.9 119.4,6.6 119.5,6.2 				"/>
				<line class="st7" x1="117.1" y1="14.3" x2="120.6" y2="16.6"/>
				<polyline class="st7" points="120.5,18.4 116.7,15.9 116.6,15.9 116.6,14.6 116.6,14.5 117,14.3 117.1,14.3 117.1,9.6 				"/>
				<polyline class="st7" points="119.6,6.7 118.5,7.4 118.5,7.4 118.5,9.4 120.5,10.8 120.6,10.7 122.6,9.6 122.6,7.5 122.6,7.5 
					120.6,8.6 				"/>
				<line class="st7" x1="154.3" y1="44.3" x2="166.9" y2="52.3"/>
				<polyline class="st7" points="183.1,54.7 180.3,56.4 177.6,54.7 				"/>
				<line class="st7" x1="180.3" y1="60.4" x2="180.3" y2="56.4"/>
				<polyline class="st7" points="177.5,55.5 171.8,58.8 121.7,27 				"/>
				<line class="st6" x1="189.3" y1="55.9" x2="129.3" y2="21.3"/>
				<line class="st6" x1="168.7" y1="44.8" x2="133.1" y2="24.2"/>
				<line class="st7" x1="171.8" y1="60.3" x2="171.8" y2="58.8"/>
				<line class="st7" x1="166.9" y1="54" x2="166.9" y2="52.3"/>
				<polygon class="st7" points="174.4,47.9 174.4,49.7 166.9,54.1 154.3,46.1 154.3,44.4 159.9,41.1 167.3,45.5 168.9,44.7 				"/>
				<line class="st7" x1="174.4" y1="47.9" x2="166.9" y2="52.3"/>
				<line class="st7" x1="133.1" y1="24.1" x2="127.7" y2="27.3"/>
				<polygon class="st7" points="123.1,26.2 123.1,24.4 123.1,24.4 128.3,21.3 133.1,24.1 133.1,25.7 133.1,25.7 127.7,29 				"/>
				<polyline class="st7" points="176.7,57.4 171.8,60.3 121.7,28.5 121.7,28.5 121.7,27 123.1,26.2 				"/>
				<line class="st7" x1="127.7" y1="27.3" x2="123.1" y2="24.4"/>
				<line class="st7" x1="127.7" y1="29" x2="127.7" y2="27.3"/>
				<polyline class="st7" points="182.1,54 182.5,53.8 182.5,52.7 174.4,48 				"/>
				<line class="st7" x1="182.5" y1="52.7" x2="181.8" y2="53"/>
				<line class="st7" x1="129.3" y1="20.3" x2="120.1" y2="25.7"/>
				<polyline class="st7" points="179.1,53.7 177.5,54.6 177.5,58.7 180.3,60.4 183.1,58.8 183.1,54.7 182,54 				"/>
				<g>
					<defs>
						<rect id="SVGID_29_" x="104.3" y="0.4" width="86.7" height="104.3"/>
					</defs>
					<clipPath id="SVGID_30_">
						<use xlink:href="#SVGID_29_"  style="overflow:visible;"/>
					</clipPath>
					<g class="st22">
						<path class="st7" d="M180.3,52.2c-0.7,0.1-1.2,0.8-1.2,1.5v1.1c0,0.4,0.7,0.8,1.5,0.8s1.5-0.3,1.5-0.8v-1.1
							c0-0.7-0.5-1.4-1.2-1.5V52c0-0.1-0.1-0.2-0.2-0.2s-0.2,0.1-0.2,0.2V52.2z"/>
					</g>
				</g>
				<polygon class="st1" points="133,40.2 133,57.1 139,61.1 139.1,44.2 				"/>
				<line class="st16" x1="139" y1="47" x2="133" y2="43"/>
				<line class="st16" x1="139" y1="49.8" x2="133" y2="45.9"/>
				<line class="st16" x1="139" y1="52.6" x2="133" y2="48.8"/>
				<line class="st16" x1="139" y1="55.5" x2="133" y2="51.6"/>
				<line class="st16" x1="139" y1="58.3" x2="133.1" y2="54.4"/>
			</g>
		</g>
	</g>
</g>
</svg>
