<?xml version="1.0" encoding="utf-8"?>
<!-- Generator: Adobe Illustrator 23.0.0, SVG Export Plug-In . SVG Version: 6.00 Build 0)  -->
<svg version="1.1" id="Layer_1" xmlns="http://www.w3.org/2000/svg" xmlns:xlink="http://www.w3.org/1999/xlink" x="0px" y="0px"
	 viewBox="0 0 189.9 92.6" style="enable-background:new 0 0 189.9 92.6;" xml:space="preserve">
<style type="text/css">
	.st0{fill:#D2D3D4;}
	.st1{clip-path:url(#SVGID_2_);}
	.st2{fill:#231F20;}
	.st3{clip-path:url(#SVGID_4_);}
	.st4{fill:none;stroke:#D1D3D4;stroke-width:1.09;stroke-miterlimit:10;}
	.st5{clip-path:url(#SVGID_6_);}
	.st6{fill:none;stroke:#231F20;stroke-width:0.15;stroke-miterlimit:10;}
	.st7{enable-background:new    ;}
	.st8{fill:#D1D3D4;}
	.st9{fill:none;stroke:#231F20;stroke-width:0.14;stroke-miterlimit:10;}
	.st10{clip-path:url(#SVGID_8_);}
	.st11{clip-path:url(#SVGID_10_);}
	.st12{clip-path:url(#SVGID_12_);}
	.st13{clip-path:url(#SVGID_14_);}
	.st14{clip-path:url(#SVGID_16_);}
</style>
<title>residence_D_6_key_horizontal</title>
<g>
	<path class="st0" d="M83.6,43.8c-0.6,0-1-0.4-1-1.1v-1.4H86v1.3c0,0.7-0.3,1.1-0.9,1.1c-0.3,0-0.6-0.2-0.7-0.4
		C84.2,43.6,83.9,43.8,83.6,43.8z M83.2,41.9v0.7c0,0.3,0.2,0.5,0.4,0.5s0.4-0.2,0.4-0.5v-0.7H83.2z M84.6,42.5
		c0,0.3,0.1,0.5,0.4,0.5s0.4-0.2,0.4-0.5v-0.6h-0.8V42.5z"/>
	<path class="st0" d="M83.8,46.2h-1.3v-0.7H86v1.4c0.1,0.5-0.3,1.1-0.8,1.2c-0.1,0-0.2,0-0.3,0c-0.5,0-0.9-0.3-1-0.8l-1.3,0.9v-0.8
		l1.3-0.8L83.8,46.2z M84.4,46.2v0.6c0,0.4,0.2,0.5,0.5,0.5s0.5-0.2,0.5-0.5v-0.6H84.4z"/>
	<path class="st0" d="M82.5,51.2c-0.1-1,0.6-1.8,1.6-1.9c1-0.1,1.8,0.6,1.9,1.6s-0.6,1.8-1.6,1.9c-0.1,0-0.1,0-0.2,0
		c-0.9,0.1-1.7-0.6-1.7-1.5C82.5,51.3,82.5,51.3,82.5,51.2z M85.4,51.2c0-0.5-0.4-0.9-1.1-0.9s-1.1,0.3-1.1,0.9s0.5,0.9,1.1,0.9
		S85.4,51.8,85.4,51.2z"/>
	<path class="st0" d="M86,56.1l-3.4,1.3v-0.7l0.8-0.3v-1.3l-0.8-0.3v-0.7l3.4,1.3V56.1z M84,55.4v0.8l1.1-0.4L84,55.4z"/>
	<path class="st0" d="M86,59v1.2c0,0.9-0.8,1.7-1.7,1.7c-0.9,0-1.7-0.8-1.7-1.7V59H86z M83.2,60.2c0,0.6,0.5,1.1,1.1,1.1
		c0.6,0,1.1-0.5,1.1-1.1v-0.5h-2.2L83.2,60.2z"/>
	<path class="st0" d="M86,65.7l-2.3,0.6l2.3,0.6v0.7l-3.4-0.9V66l2.2-0.6l-2.2-0.6v-0.6l3.4-0.9V64l-2.3,0.6l2.3,0.6V65.7z"/>
	<path class="st0" d="M86,70.7L82.6,72v-0.7l0.8-0.3v-1.3l-0.8-0.3v-0.7L86,70V70.7z M84,69.9v0.8l1.1-0.4L84,69.9z"/>
	<path class="st0" d="M86,75.3v0.7l-2.1-1.2h-1.3v-0.7h1.3l2.1-1.2v0.8l-1.4,0.8L86,75.3z"/>
	<path class="st0" d="M180.9,35.1v0.7h-2.8v1.6h-0.6v-2.3H180.9z"/>
	<path class="st0" d="M180.9,40.8l-3.4,1.3v-0.7l0.8-0.3v-1.3l-0.8-0.3v-0.7l3.4,1.3V40.8z M179,40v0.8l1.1-0.4L179,40z"/>
	<path class="st0" d="M177.6,43.7h3.4V46h-0.6v-1.6h-0.9v1.4h-0.6v-1.4h-1.3V43.7z"/>
	<path class="st0" d="M180.9,49.2l-3.4,1.3v-0.7l0.8-0.3v-1.3l-0.8-0.3v-0.7l3.4,1.3V49.2z M178.9,48.4v0.8l1.1-0.4L178.9,48.4z"/>
	<path class="st0" d="M180.9,53.9v0.7l-2.1-1.2h-1.3v-0.7h1.3l2.1-1.2v0.8l-1.4,0.8L180.9,53.9z"/>
	<path class="st0" d="M180.9,58.5h-0.6v-1.6h-0.7v1.5H179v-1.5h-0.8v1.6h-0.6v-2.3h3.4L180.9,58.5z"/>
	<path class="st0" d="M180.9,60.1V63h-0.6v-1.1h-2.8v-0.7h2.8v-1.1H180.9z"/>
	<path class="st0" d="M180.9,64.4v2.9h-0.6v-1.1h-2.8v-0.7h2.8v-1.1H180.9z"/>
	<path class="st0" d="M180.9,71.3h-0.6v-1.6h-0.7v1.5H179v-1.5h-0.8v1.6h-0.6V69h3.4L180.9,71.3z"/>
	<path class="st0" d="M178.5,75.9c-0.3,0.1-0.5,0.4-0.4,0.7c0,0.3,0.2,0.6,0.4,0.6s0.3-0.1,0.4-0.4l0.1-0.6c0-0.5,0.4-0.9,0.9-0.8
		c0.6,0,1,0.6,1,1.1c0,0,0,0,0,0.1c0.1,0.6-0.4,1.2-1,1.3v-0.7c0.3-0.1,0.4-0.4,0.4-0.6c0-0.3-0.2-0.5-0.4-0.5s-0.3,0.1-0.4,0.4
		l-0.1,0.6c-0.1,0.6-0.4,0.9-0.9,0.9c-0.6,0-1.1-0.5-1.1-1.2c0,0,0-0.1,0-0.1c-0.1-0.7,0.4-1.3,1-1.4L178.5,75.9L178.5,75.9z"/>
	<path class="st0" d="M180.9,79.3v2.9h-0.6v-1.1h-2.8v-0.7h2.8v-1.1H180.9z"/>
	<path class="st0" d="M112.4,39.3h0.7v2.8h1.6v0.6h-2.3V39.3z"/>
	<path class="st0" d="M118.6,39.3v0.6H117v0.7h1.4v0.6H117v0.8h1.6v0.6h-2.3v-3.4H118.6z"/>
	<path class="st0" d="M121.6,42.7c-1,0.1-1.8-0.6-1.9-1.6c-0.1-1,0.6-1.8,1.6-1.9c1-0.1,1.8,0.6,1.9,1.6c0,0.1,0,0.1,0,0.2
		c0.1,0.9-0.6,1.7-1.5,1.7C121.7,42.7,121.7,42.7,121.6,42.7z M121.6,39.9c-0.5,0-0.9,0.5-0.9,1.1s0.3,1.1,0.9,1.1s0.9-0.5,0.9-1.1
		S122.2,39.9,121.6,39.9z"/>
	<path class="st0" d="M127.7,42.7h-0.6l-1.6-2.2v2.2h-0.7v-3.4h0.7l1.5,2.1v-2.1h0.7L127.7,42.7z"/>
	<path class="st0" d="M131.2,39.3l1.3,3.4h-0.7l-0.3-0.8h-1.3l-0.3,0.8h-0.7l1.3-3.4H131.2z M130.4,41.3h0.8l-0.4-1.1L130.4,41.3z"
		/>
	<path class="st0" d="M134.6,41.4v1.3H134v-3.4h1.4c0.6-0.1,1.1,0.3,1.2,0.9c0,0.1,0,0.1,0,0.2c0,0.5-0.3,0.9-0.8,1l0.9,1.3h-0.8
		l-0.9-1.3H134.6z M134.6,40.8h0.6c0.4,0,0.5-0.2,0.5-0.5s-0.2-0.5-0.5-0.5h-0.6V40.8z"/>
	<path class="st0" d="M138.1,39.3h1.2c0.9,0,1.7,0.8,1.7,1.7c0,0.9-0.8,1.7-1.7,1.7h-1.2V39.3z M139.3,42.1c0.6,0,1.1-0.5,1.1-1.1
		c0-0.6-0.5-1.1-1.1-1.1h-0.5v2.1H139.3z"/>
	<path class="st0" d="M145.4,41.7c0.1,0.3,0.4,0.5,0.7,0.4c0.3,0,0.6-0.2,0.6-0.4s-0.1-0.3-0.4-0.4l-0.6-0.1
		c-0.5-0.1-0.9-0.4-0.9-0.9c0-0.6,0.6-1,1.2-1c0,0,0,0,0,0c0.6-0.1,1.2,0.4,1.3,1h-0.7c-0.1-0.3-0.3-0.4-0.6-0.4
		c-0.3,0-0.5,0.2-0.5,0.4s0.1,0.3,0.4,0.4l0.6,0.1c0.6,0.1,0.9,0.4,0.9,1c0,0.7-0.5,1-1.2,1c-0.7,0.1-1.3-0.4-1.4-1L145.4,41.7z"/>
	<path class="st0" d="M148.6,39.3h2.9v0.6h-1.1v2.8h-0.7v-2.8h-1.1V39.3z"/>
	<path class="st0" d="M109.9,74.6c0.7,0,1.3,0.4,1.4,1.1h-0.7c-0.1-0.3-0.4-0.5-0.7-0.5c-0.5,0-0.8,0.5-0.8,1.1s0.3,1.1,0.8,1.1
		c0.3,0,0.6-0.2,0.7-0.5h0.7c-0.1,0.7-0.7,1.2-1.4,1.1c-1-0.1-1.7-1-1.6-1.9C108.4,75.3,109.1,74.6,109.9,74.6L109.9,74.6z"/>
	<path class="st0" d="M114.7,74.6l1.3,3.4h-0.7l-0.3-0.8h-1.3l-0.3,0.8h-0.7l1.3-3.4H114.7z M113.9,76.6h0.8l-0.4-1.1L113.9,76.6z"
		/>
	<path class="st0" d="M117,74.6h2.9v0.6h-1.1V78h-0.7v-2.8H117V74.6z"/>
	<path class="st0" d="M124.5,74.6V78h-0.7v-1.4h-1.5V78h-0.7v-3.4h0.7v1.3h1.5v-1.3H124.5z"/>
	<path class="st0" d="M128.7,74.6v0.6h-1.6V76h1.5v0.6h-1.4v0.8h1.6V78h-2.3v-3.4H128.7z"/>
	<path class="st0" d="M131.1,76.7V78h-0.7v-3.4h1.4c0.5-0.1,1.1,0.2,1.2,0.8c0,0.1,0,0.2,0,0.3c0,0.5-0.3,0.9-0.8,1l0.9,1.3h-0.8
		l-0.8-1.3L131.1,76.7z M131.1,76.1h0.6c0.4,0,0.5-0.2,0.5-0.5s-0.2-0.5-0.5-0.5h-0.6V76.1z"/>
	<path class="st0" d="M135.4,78h-0.7v-3.4h0.7V78z"/>
	<path class="st0" d="M140.1,78h-0.6l-1.6-2.3V78h-0.7v-3.4h0.7l1.5,2.1v-2.1h0.7L140.1,78z"/>
	<path class="st0" d="M144.2,74.6v0.6h-1.6V76h1.4v0.6h-1.4v0.8h1.6V78H142v-3.4H144.2z"/>
	<path class="st0" d="M148.4,74.6h0.7v2.8h1.6V78h-2.3V74.6z"/>
	<path class="st0" d="M155.2,78h-0.6l-1.6-2.2V78h-0.7v-3.4h0.6l1.5,2.1v-2.1h0.7L155.2,78L155.2,78z"/>
</g>
<g id="Layer_4">
	<g>
		<defs>
			<rect id="SVGID_1_" x="91.9" y="51" width="77.1" height="17.4"/>
		</defs>
		<clipPath id="SVGID_2_">
			<use xlink:href="#SVGID_1_"  style="overflow:visible;"/>
		</clipPath>
		<g class="st1">
			<polygon class="st2" points="104.8,60.9 107.7,60.9 107.7,59.1 108.8,59.1 108.8,59.3 109.7,59.3 109.7,59.2 112.8,59.2 
				112.8,63.8 104.8,63.3 			"/>
			<g>
				<defs>
					<rect id="SVGID_3_" x="91.9" y="51" width="77.1" height="17.4"/>
				</defs>
				<clipPath id="SVGID_4_">
					<use xlink:href="#SVGID_3_"  style="overflow:visible;"/>
				</clipPath>
				<g class="st3">
					<polygon class="st4" points="167.1,52.1 167.1,67.2 92.8,62.6 92.8,52.1 					"/>
				</g>
			</g>
		</g>
	</g>
	<g>
		<defs>
			<rect id="SVGID_5_" x="2.3" y="3.7" width="67.7" height="81.7"/>
		</defs>
		<clipPath id="SVGID_6_">
			<use xlink:href="#SVGID_5_"  style="overflow:visible;"/>
		</clipPath>
		<g class="st5">
			<polyline class="st6" points="68.5,51.9 56.8,58.5 7.5,26.2 			"/>
			<polyline class="st6" points="68.5,54.1 56.8,60.8 7.5,28.4 			"/>
			<polyline class="st6" points="68.5,56.3 56.8,63 7.5,30.6 			"/>
			<polyline class="st6" points="68.5,58.6 56.8,65.2 7.5,32.8 			"/>
			<polyline class="st6" points="68.5,60.8 56.8,67.4 7.5,35 			"/>
			<polyline class="st6" points="68.5,63 56.8,69.6 7.5,37.2 			"/>
			<polyline class="st6" points="68.5,65.2 56.8,71.8 7.5,39.4 			"/>
			<polyline class="st6" points="68.5,67.4 56.8,74 7.5,41.7 			"/>
			<polyline class="st6" points="68.5,69.6 56.8,76.2 7.5,43.9 			"/>
			<polyline class="st6" points="68.5,71.8 56.8,78.5 7.5,46.1 			"/>
			<polyline class="st6" points="68.5,74.1 56.8,80.7 7.5,48.3 			"/>
			<g class="st7">
				<path class="st8" d="M12.4,57.9c0.6,0.4,0.6,0.8,0.1,1.2l-0.5-0.3c0.1-0.2,0.2-0.4-0.1-0.6c-0.4-0.3-0.9-0.2-1.4,0.1
					c-0.5,0.3-0.6,0.6-0.2,0.9c0.3,0.2,0.6,0.2,0.9,0.1l0.5,0.3c-0.6,0.2-1.3,0.2-1.8-0.2c-0.6-0.4-0.6-1.1,0.2-1.5
					S11.8,57.5,12.4,57.9z"/>
			</g>
			<g class="st7">
				<path class="st8" d="M15.8,60.3l-1.6,2.1L13.7,62l0.4-0.5l-0.9-0.6l-0.8,0.2l-0.5-0.3l3.4-0.8L15.8,60.3z M13.8,60.7l0.6,0.4
					l0.5-0.7L13.8,60.7z"/>
			</g>
			<g class="st7">
				<path class="st8" d="M17.5,61.5l2,1.4L19,63.1l-0.8-0.5l-2,1.2l-0.5-0.3l2-1.2L17,61.7L17.5,61.5z"/>
				<path class="st8" d="M22.8,65.1l-2.5,1.4l-0.5-0.3l1-0.6l-1.1-0.7l-1,0.6l-0.5-0.3l2.5-1.4l0.5,0.3l-1,0.6l1.1,0.7l1-0.6
					L22.8,65.1z"/>
				<path class="st8" d="M25.7,67.2l-0.4,0.3l-1.1-0.8L23.6,67l1,0.7L24.2,68l-1-0.7l-0.6,0.3l1.1,0.8l-0.5,0.3l-1.6-1.1l2.5-1.4
					L25.7,67.2z"/>
				<path class="st8" d="M26,69.3l-0.9,0.5l-0.5-0.3l2.5-1.4l1,0.7c0.5,0.3,0.5,0.7,0,1c-0.4,0.2-0.8,0.2-1.3,0l-0.3,1l-0.6-0.4
					l0.3-0.9L26,69.3z M26.4,69.1l0.5,0.3c0.2,0.2,0.5,0.2,0.7,0.1c0.2-0.1,0.2-0.3,0-0.5l-0.5-0.3L26.4,69.1z"/>
				<path class="st8" d="M28.1,72l-0.5-0.3l2.5-1.4l0.5,0.3L28.1,72z"/>
				<path class="st8" d="M31.5,74.3L31.1,74l0.5-1.7l-1.6,1l-0.5-0.3l2.5-1.4l0.5,0.3l-0.5,1.6l1.6-0.9l0.5,0.3L31.5,74.3z"/>
				<path class="st8" d="M36.9,74.9l-0.4,0.3l-1.1-0.8l-0.5,0.3l1,0.7l-0.4,0.3l-1-0.7l-0.6,0.3l1.1,0.8l-0.5,0.3l-1.6-1.1l2.5-1.4
					L36.9,74.9z"/>
				<path class="st8" d="M39.9,77l0.5,0.3l-2,1.2l1.1,0.8L39,79.6l-1.6-1.1L39.9,77z"/>
			</g>
			<g class="st7">
				<path class="st8" d="M42.2,81.8l-0.4-0.3l0.5-1.7l-1.6,1l-0.5-0.3l2.5-1.4l0.5,0.3l-0.5,1.6l1.6-0.9l0.5,0.3L42.2,81.8z"/>
			</g>
			<polyline class="st9" points="68.5,49.7 56.8,56.3 7.5,24 			"/>
			<line class="st9" x1="56.8" y1="54.1" x2="56.8" y2="82.8"/>
			<line class="st9" x1="62.7" y1="78.7" x2="62" y2="79.2"/>
			<polyline class="st9" points="62.7,78.7 63.2,79 68.5,75.9 68.5,47.5 			"/>
			<polyline class="st9" points="68.5,47.5 56.8,54.1 7.5,21.7 			"/>
			<g>
				<defs>
					<rect id="SVGID_7_" x="2.3" y="3.7" width="67.4" height="81.7"/>
				</defs>
				<clipPath id="SVGID_8_">
					<use xlink:href="#SVGID_7_"  style="overflow:visible;"/>
				</clipPath>
				<g class="st10">
					<path class="st9" d="M62.7,78.7v-0.6c0-0.1,0-0.2-0.1-0.3"/>
					<path class="st9" d="M63.2,79v-0.9c0-0.2-0.2-0.5-0.7-0.3C62.2,78,62,78.3,62,78.7v1l-5.2,3.1L49.9,78l-8.7-6l-7.3-5L23,59.6
						L7.5,48.4V21.7l1.1-0.6"/>
				</g>
			</g>
			<line class="st9" x1="58.7" y1="48.6" x2="58.7" y2="47.5"/>
			<line class="st9" x1="14.5" y1="23.8" x2="14.5" y2="25.8"/>
			<line class="st9" x1="58.7" y1="48.6" x2="59.3" y2="49"/>
			<line class="st9" x1="58.7" y1="47.5" x2="59.3" y2="47.9"/>
			<line class="st9" x1="14.9" y1="12" x2="14.9" y2="10.5"/>
			<line class="st9" x1="14.9" y1="12.1" x2="14.9" y2="10.4"/>
			<line class="st9" x1="14.6" y1="22.3" x2="14.6" y2="18.8"/>
			<polyline class="st9" points="15.8,25.1 14.5,25.8 8.6,21.8 8.6,19.9 10.6,18.6 			"/>
			<polyline class="st9" points="14.9,16.7 17.7,15 17.7,11.3 17.7,11.3 16.4,10.4 			"/>
			<g>
				<defs>
					<rect id="SVGID_9_" x="2.3" y="3.7" width="67.4" height="81.7"/>
				</defs>
				<clipPath id="SVGID_10_">
					<use xlink:href="#SVGID_9_"  style="overflow:visible;"/>
				</clipPath>
				<g class="st11">
					<path class="st9" d="M14.3,13.9c0.2,0.7,0.1,1.2-0.4,1.2s-1-0.5-1.2-1.2s0-1.2,0.4-1.2S14.1,13.2,14.3,13.9z"/>
					<path class="st9" d="M15.5,13.9c-0.2,0.7-0.1,1.2,0.4,1.2c0.4,0,1-0.5,1.2-1.2s0-1.2-0.4-1.2S15.7,13.3,15.5,13.9z"/>
				</g>
			</g>
			<line class="st9" x1="14.6" y1="18.8" x2="19.2" y2="16.1"/>
			<line class="st9" x1="10.6" y1="16.2" x2="14.6" y2="18.8"/>
			<line class="st9" x1="8.6" y1="19.8" x2="14.5" y2="23.8"/>
			<polyline class="st9" points="17.7,14.8 18,15 18,16.2 18,16.2 14.9,18.1 14.9,18 14.9,13 			"/>
			<polyline class="st9" points="11.8,15.5 10.6,16.2 10.6,19.6 10.6,19.7 14.6,22.3 			"/>
			<polyline class="st9" points="19.3,17.9 21.7,19.5 21.7,20.8 			"/>
			<line class="st9" x1="14.8" y1="13.1" x2="17.7" y2="11.3"/>
			<line class="st9" x1="12.1" y1="11.3" x2="13.3" y2="10.6"/>
			<line class="st9" x1="12.1" y1="11.2" x2="14.9" y2="13.1"/>
			<polyline class="st9" points="18,15.3 19.2,16.1 19.3,16.2 19.3,19.5 19.2,19.6 14.5,22.3 			"/>
			<line class="st9" x1="13.3" y1="9.5" x2="14.9" y2="10.5"/>
			<line class="st9" x1="15.7" y1="9" x2="16.5" y2="9.5"/>
			<g>
				<defs>
					<rect id="SVGID_11_" x="2.3" y="3.7" width="67.4" height="81.7"/>
				</defs>
				<clipPath id="SVGID_12_">
					<use xlink:href="#SVGID_11_"  style="overflow:visible;"/>
				</clipPath>
				<g class="st12">
					<path class="st9" d="M13.4,7.6c0,0.1-0.2,0.2-0.2,0.2l0.1,0.2c0.1,0.1,0.4,0.2,1,0.1s1.8-0.8,1.9-1.5l-0.2-0.4
						c-0.1,0-0.3,0-0.4,0"/>
				</g>
			</g>
			<polyline class="st9" points="14,5.2 14.8,5.6 15.1,5.5 15.6,4.7 			"/>
			<g>
				<defs>
					<rect id="SVGID_13_" x="2.3" y="3.7" width="67.4" height="81.7"/>
				</defs>
				<clipPath id="SVGID_14_">
					<use xlink:href="#SVGID_13_"  style="overflow:visible;"/>
				</clipPath>
				<g class="st13">
					<path class="st9" d="M16.2,7.1c0,0.2,0,0.4,0,0.6c-0.1,0.7-0.9,1.2-1.6,1.1c-0.3-0.1-0.6-0.2-0.8-0.4h-0.1"/>
					<path class="st9" d="M13.5,7.9c0-0.1-0.1-0.2-0.1-0.3c-0.1-0.8,0.4-1.5,1.2-1.6c0.5-0.1,0.9,0.1,1.2,0.4
						C15.9,6.5,16,6.6,16,6.8"/>
					<path class="st9" d="M15.8,9.1c0,0,0-0.1,0-0.1c0,0,0-0.1-0.1-0.1c-0.1,0-0.2,0-0.2,0V8.9l0.1-0.3"/>
					<path class="st9" d="M15.2,9.1c0,0.1,0,0.1,0.1,0.2s0.2,0.1,0.3,0"/>
				</g>
			</g>
			<polyline class="st9" points="14.4,9.7 14.4,9.5 14.6,9.2 14.6,9.1 14.2,9.1 13.9,8.9 14.1,8.6 			"/>
			<line class="st9" x1="12.2" y1="14.9" x2="14.9" y2="16.7"/>
			<polyline class="st9" points="14.8,18.1 11.9,16.2 11.8,16.1 11.8,15.1 11.8,15.1 12.1,14.9 12.1,14.9 12.1,11.2 			"/>
			<polyline class="st9" points="14.1,8.9 13.3,9.5 13.3,9.5 13.3,11.1 14.9,12.1 14.9,12.1 16.4,11.2 16.4,9.6 16.4,9.5 14.9,10.5 
							"/>
			<line class="st9" x1="41.2" y1="38.4" x2="51" y2="44.6"/>
			<polyline class="st9" points="63.6,46.5 61.4,47.8 59.3,46.5 			"/>
			<line class="st9" x1="61.4" y1="51" x2="61.4" y2="47.8"/>
			<polyline class="st9" points="59.3,47.1 54.8,49.7 15.7,24.9 			"/>
			<line class="st6" x1="68.5" y1="47.5" x2="21.7" y2="20.4"/>
			<line class="st6" x1="52.4" y1="38.7" x2="24.7" y2="22.7"/>
			<line class="st9" x1="54.8" y1="50.9" x2="54.8" y2="49.7"/>
			<line class="st9" x1="51" y1="46" x2="51" y2="44.6"/>
			<polygon class="st9" points="56.8,41.2 56.8,42.6 51,46 41.2,39.8 41.2,38.4 45.5,35.9 51.3,39.3 52.5,38.6 			"/>
			<line class="st9" x1="56.8" y1="41.2" x2="51" y2="44.6"/>
			<line class="st9" x1="24.7" y1="22.6" x2="20.5" y2="25.1"/>
			<polygon class="st9" points="16.9,24.2 16.9,22.8 16.9,22.8 20.9,20.4 24.7,22.6 24.7,23.8 24.7,23.8 20.5,26.4 			"/>
			<polyline class="st9" points="58.7,48.6 54.8,50.9 15.7,26 15.7,26 15.7,24.9 16.9,24.2 			"/>
			<line class="st9" x1="20.5" y1="25" x2="16.9" y2="22.8"/>
			<line class="st9" x1="20.5" y1="26.4" x2="20.5" y2="25"/>
			<polyline class="st9" points="62.8,46 63.1,45.8 63.1,44.9 56.8,41.3 			"/>
			<line class="st9" x1="63.1" y1="44.9" x2="62.6" y2="45.2"/>
			<line class="st9" x1="21.7" y1="19.6" x2="14.5" y2="23.8"/>
			<polyline class="st9" points="60.5,45.8 59.3,46.5 59.3,49.6 61.4,51 63.6,49.7 63.6,46.5 62.7,45.9 			"/>
			<g>
				<defs>
					<rect id="SVGID_15_" x="2.3" y="3.7" width="67.4" height="81.7"/>
				</defs>
				<clipPath id="SVGID_16_">
					<use xlink:href="#SVGID_15_"  style="overflow:visible;"/>
				</clipPath>
				<g class="st14">
					<path class="st9" d="M61.4,44.5c-0.6,0.1-1,0.6-1,1.2v0.8c0,0.3,0.5,0.6,1.1,0.6s1.2-0.3,1.2-0.6v-0.8c0-0.6-0.4-1.1-1-1.2
						v-0.1c0-0.1-0.1-0.1-0.2-0.1s-0.2,0.1-0.2,0.1L61.4,44.5z"/>
				</g>
			</g>
			<polygon class="st2" points="20.1,47.7 14.7,44.2 14.7,42 20.1,45.5 			"/>
		</g>
	</g>
</g>
</svg>
