<svg id="Layer_1" data-name="Layer 1" xmlns="http://www.w3.org/2000/svg" xmlns:xlink="http://www.w3.org/1999/xlink" viewBox="0 0 123.31 164.76"><defs><style>.cls-1,.cls-11,.cls-15,.cls-3,.cls-4{fill:none;}.cls-2{fill:#d2d3d4;}.cls-3,.cls-4{stroke:#231f20;}.cls-11,.cls-15,.cls-3,.cls-4{stroke-miterlimit:10;}.cls-11,.cls-3{stroke-width:0.15px;}.cls-4{stroke-width:0.14px;}.cls-5{clip-path:url(#clip-path);}.cls-6{font-size:5.26px;fill:#d1d3d4;font-family:Calibre-Semibold, Calibre;font-weight:700;}.cls-7{letter-spacing:0.22em;}.cls-8{letter-spacing:0.18em;}.cls-9{letter-spacing:0.24em;}.cls-10{fill:#231f20;}.cls-11{stroke:#fff;}.cls-12{clip-path:url(#clip-path-5);}.cls-13{fill:#010101;}.cls-14{opacity:0.5;}.cls-15{stroke:#d0d2d3;stroke-width:1.09px;}</style><clipPath id="clip-path"><rect class="cls-1" x="22.85" y="2.59" width="69.1" height="87.25"/></clipPath><clipPath id="clip-path-5"><rect class="cls-1" x="23.41" y="123.41" width="78.57" height="17.73"/></clipPath></defs><title>Artboard 1</title><path class="cls-2" d="M14.27,117.11c-.62,0-1-.43-1-1.13v-1.4h3.38v1.29c0,.7-.32,1.13-.92,1.13a.73.73,0,0,1-.72-.44A.81.81,0,0,1,14.27,117.11Zm-.36-1.86v.67c0,.33.16.5.42.5s.42-.17.42-.5v-.67Zm1.39.57c0,.34.13.51.4.51s.39-.17.39-.51v-.57H15.3Z"/><path class="cls-2" d="M14.57,119.52H13.31v-.7h3.38v1.39a1,1,0,0,1-1.08,1.18,1,1,0,0,1-1-.77l-1.31.89v-.79l1.26-.83Zm.58,0v.65c0,.35.18.53.46.53s.48-.18.48-.53v-.65Z"/><path class="cls-2" d="M13.26,124.56A1.61,1.61,0,0,1,15,123a1.6,1.6,0,1,1,0,3.19A1.6,1.6,0,0,1,13.26,124.56Zm2.85,0c0-.54-.45-.88-1.11-.88s-1.12.34-1.12.88.46.89,1.12.89S16.11,125.09,16.11,124.56Z"/><path class="cls-2" d="M16.69,129.44l-3.38,1.3V130l.81-.3v-1.26l-.81-.3v-.7l3.38,1.29Zm-2-.76v.82l1.12-.41Z"/><path class="cls-2" d="M16.69,132.36v1.19A1.56,1.56,0,0,1,15,135.21a1.56,1.56,0,0,1-1.69-1.66v-1.19Zm-2.76,1.16a1,1,0,0,0,1.07,1,1,1,0,0,0,1.07-1v-.47H13.93Z"/><path class="cls-2" d="M16.69,139l-2.27.58,2.27.56v.69L13.31,140v-.64l2.23-.6-2.23-.59v-.65l3.38-.87v.7l-2.27.55,2.27.6Z"/><path class="cls-2" d="M16.69,144l-3.38,1.29v-.72l.81-.3V143l-.81-.3V142l3.38,1.29Zm-2-.77V144l1.12-.41Z"/><path class="cls-2" d="M16.69,148.63v.75l-2.1-1.23H13.31v-.7h1.28l2.1-1.21V147l-1.43.82Z"/><path class="cls-2" d="M111.66,108.37v.7h-2.75v1.58h-.62v-2.28Z"/><path class="cls-2" d="M111.66,114.12l-3.37,1.29v-.71l.81-.3v-1.27l-.81-.29v-.71l3.37,1.29Zm-2-.77v.83l1.12-.41Z"/><path class="cls-2" d="M108.29,117h3.37v2.24h-.61v-1.54h-.86v1.43h-.61v-1.43h-1.29V117Z"/><path class="cls-2" d="M111.66,122.53l-3.37,1.29v-.72l.81-.3v-1.26l-.81-.3v-.7l3.37,1.29Zm-2-.77v.82l1.12-.41Z"/><path class="cls-2" d="M111.66,127.18v.74l-2.09-1.23h-1.28V126h1.28l2.09-1.22v.77l-1.43.82Z"/><path class="cls-2" d="M111.66,131.81h-.61v-1.6h-.74v1.45h-.6v-1.45h-.8v1.6h-.62v-2.29h3.37Z"/><path class="cls-2" d="M111.66,133.39v2.87h-.61v-1.08h-2.76v-.71h2.76v-1.08Z"/><path class="cls-2" d="M111.66,137.75v2.88h-.61v-1.09h-2.76v-.71h2.76v-1.08Z"/><path class="cls-2" d="M111.66,144.6h-.61V143h-.74v1.45h-.6V143h-.8v1.6h-.62v-2.29h3.37Z"/><path class="cls-2" d="M109.25,149.22a.65.65,0,0,0-.44.67c0,.35.16.57.43.57s.31-.12.38-.41l.13-.61a.93.93,0,0,1,.93-.85,1.08,1.08,0,0,1,1,1.21,1.22,1.22,0,0,1-1,1.33v-.7a.6.6,0,0,0,.4-.62c0-.32-.16-.53-.4-.53s-.31.12-.37.37l-.14.62c-.13.55-.44.88-1,.88s-1-.53-1-1.25a1.28,1.28,0,0,1,1-1.4v.72Z"/><path class="cls-2" d="M111.66,152.61v2.88h-.61V154.4h-2.76v-.71h2.76v-1.08Z"/><path class="cls-2" d="M43.11,112.62h.7v2.75h1.57V116H43.11Z"/><path class="cls-2" d="M49.29,112.62v.61h-1.6V114h1.45v.6H47.69v.8h1.6V116H47v-3.37Z"/><path class="cls-2" d="M52.36,116A1.75,1.75,0,1,1,54,114.3,1.61,1.61,0,0,1,52.36,116Zm0-2.85c-.53,0-.87.45-.87,1.11s.34,1.12.87,1.12.89-.46.89-1.12S52.9,113.19,52.36,113.19Z"/><path class="cls-2" d="M58.38,116h-.56l-1.59-2.25V116h-.67v-3.37h.66l1.48,2.13v-2.13h.68Z"/><path class="cls-2" d="M61.88,112.62,63.17,116h-.71l-.31-.81H60.89l-.3.81h-.7l1.29-3.37Zm-.77,2h.82l-.41-1.12Z"/><path class="cls-2" d="M65.37,114.73V116h-.7v-3.37h1.39a1,1,0,0,1,1.19,1.07.94.94,0,0,1-.77,1l.89,1.31h-.79l-.84-1.26Zm0-.58H66c.35,0,.53-.18.53-.46s-.18-.48-.53-.48h-.65Z"/><path class="cls-2" d="M68.87,112.62h1.19a1.69,1.69,0,0,1,0,3.37H68.87ZM70,115.37a1.07,1.07,0,0,0,0-2.14h-.47v2.14Z"/><path class="cls-2" d="M76.08,115a.63.63,0,0,0,.67.43c.34,0,.56-.15.56-.42s-.12-.31-.41-.38l-.61-.14c-.48-.11-.85-.37-.85-.92a1.09,1.09,0,0,1,1.21-1,1.22,1.22,0,0,1,1.33,1h-.7a.59.59,0,0,0-.62-.4c-.32,0-.54.15-.54.4s.13.3.38.36l.62.15a1,1,0,0,1,.88,1,1.11,1.11,0,0,1-1.25,1,1.28,1.28,0,0,1-1.4-1Z"/><path class="cls-2" d="M79.36,112.62h2.88v.61H81.15V116h-.71v-2.76H79.36Z"/><path class="cls-2" d="M40.63,147.86A1.35,1.35,0,0,1,42.05,149h-.7a.72.72,0,0,0-.72-.51c-.54,0-.85.47-.85,1.11s.31,1.12.85,1.12a.72.72,0,0,0,.72-.52h.7a1.34,1.34,0,0,1-1.42,1.14,1.75,1.75,0,0,1,0-3.48Z"/><path class="cls-2" d="M45.37,147.92l1.29,3.37H46l-.31-.81H44.38l-.3.81h-.7l1.29-3.37Zm-.77,2h.82L45,148.76Z"/><path class="cls-2" d="M47.75,147.92h2.88v.61H49.54v2.76h-.71v-2.76H47.75Z"/><path class="cls-2" d="M55.23,147.92v3.37h-.7v-1.42H53v1.42h-.7v-3.37H53v1.34h1.53v-1.34Z"/><path class="cls-2" d="M59.38,147.92v.61h-1.6v.74h1.45v.6H57.78v.8h1.6v.62H57.09v-3.37Z"/><path class="cls-2" d="M61.84,150v1.26h-.7v-3.37h1.39A1,1,0,0,1,63.71,149a1,1,0,0,1-.77,1l.89,1.31H63L62.2,150Zm0-.58h.64c.36,0,.54-.18.54-.46s-.18-.48-.54-.48h-.64Z"/><path class="cls-2" d="M66.15,151.29h-.7v-3.37h.7Z"/><path class="cls-2" d="M70.82,151.29h-.55L68.67,149v2.25H68v-3.37h.66l1.49,2.13v-2.13h.67Z"/><path class="cls-2" d="M75,147.92v.61h-1.6v.74h1.45v.6H73.37v.8H75v.62H72.68v-3.37Z"/><path class="cls-2" d="M79.11,147.92h.7v2.75h1.57v.62H79.11Z"/><path class="cls-2" d="M85.93,151.29h-.56L83.78,149v2.25H83.1v-3.37h.66l1.49,2.13v-2.13h.68v3.37Z"/><polyline class="cls-3" points="90.48 52.9 79.19 59.27 28.3 25.75"/><polyline class="cls-3" points="90.48 55.39 79.19 61.77 28.3 28.25"/><polyline class="cls-3" points="90.48 57.89 79.19 64.27 28.3 30.74"/><polyline class="cls-3" points="90.48 60.39 79.19 66.76 28.3 33.24"/><polyline class="cls-3" points="90.48 62.89 79.19 69.26 28.3 35.74"/><polyline class="cls-3" points="90.48 65.38 79.19 71.76 28.3 38.24"/><polyline class="cls-3" points="90.48 67.88 79.19 74.26 28.3 40.73"/><polyline class="cls-3" points="90.48 70.38 79.19 76.75 28.3 43.23"/><polyline class="cls-3" points="90.48 72.88 79.19 79.25 28.3 45.73"/><polyline class="cls-3" points="90.48 75.38 79.19 81.75 28.3 48.23"/><polyline class="cls-3" points="90.48 77.87 79.19 84.25 28.3 50.73"/><line class="cls-4" x1="37.95" y1="28" x2="37.95" y2="26.66"/><line class="cls-4" x1="42.9" y1="28.65" x2="42.9" y2="27.14"/><line class="cls-4" x1="38.84" y1="26.1" x2="38.84" y2="24.59"/><line class="cls-4" x1="47.67" y1="25.89" x2="47.67" y2="24.38"/><line class="cls-4" x1="80.56" y1="50.74" x2="80.56" y2="49.42"/><line class="cls-4" x1="62.25" y1="40.92" x2="62.25" y2="39.61"/><line class="cls-4" x1="36.26" y1="25.59" x2="36.26" y2="27.83"/><line class="cls-4" x1="44.36" y1="20.78" x2="44.36" y2="22.33"/><line class="cls-4" x1="80.56" y1="50.74" x2="81.27" y2="51.2"/><line class="cls-4" x1="41.58" y1="20.84" x2="41.58" y2="16.84"/><line class="cls-4" x1="33.55" y1="15.74" x2="33.55" y2="11.44"/><line class="cls-4" x1="36.64" y1="12.29" x2="36.64" y2="10.4"/><line class="cls-4" x1="36.63" y1="19.01" x2="36.63" y2="13.35"/><line class="cls-4" x1="39.82" y1="15.7" x2="39.82" y2="11.52"/><line class="cls-4" x1="36.64" y1="12.39" x2="36.64" y2="10.5"/><line class="cls-4" x1="40.11" y1="17" x2="40.11" y2="15.66"/><line class="cls-4" x1="33.19" y1="17.18" x2="33.19" y2="15.85"/><line class="cls-4" x1="36.35" y1="23.89" x2="36.35" y2="19.91"/><line class="cls-4" x1="31.85" y1="20.87" x2="31.85" y2="17"/><polyline class="cls-4" points="38.12 26.73 36.27 27.83 29.5 23.38 29.5 21.15 31.85 19.78"/><line class="cls-4" x1="37.92" y1="26.69" x2="38.85" y2="26.15"/><line class="cls-4" x1="36.29" y1="23.86" x2="31.85" y2="20.94"/><line class="cls-4" x1="36.64" y1="17.55" x2="40.04" y2="15.55"/><line class="cls-4" x1="36.37" y1="19.28" x2="40.04" y2="17.12"/><g class="cls-5"><path class="cls-4" d="M36,14.45c.26.76.05,1.37-.46,1.37s-1.15-.61-1.42-1.36-.05-1.37.47-1.37S35.71,13.7,36,14.45Z"/><path class="cls-4" d="M37.32,14.48c-.27.75-.06,1.36.46,1.37s1.15-.61,1.41-1.37.06-1.36-.46-1.36S37.58,13.72,37.32,14.48Z"/></g><line class="cls-4" x1="36.35" y1="19.95" x2="41.62" y2="16.85"/><line class="cls-4" x1="36.26" y1="23.92" x2="41.51" y2="20.84"/><line class="cls-4" x1="33.02" y1="15.85" x2="33.53" y2="15.55"/><line class="cls-4" x1="31.85" y1="16.99" x2="36.29" y2="19.91"/><line class="cls-4" x1="29.5" y1="21.14" x2="36.26" y2="25.59"/><line class="cls-4" x1="39.88" y1="15.5" x2="40.11" y2="15.66"/><line class="cls-4" x1="33.19" y1="16.2" x2="31.85" y2="17"/><line class="cls-4" x1="29.5" y1="22.49" x2="28.3" y2="23.2"/><line class="cls-4" x1="41.64" y1="19" x2="44.36" y2="20.78"/><line class="cls-4" x1="36.54" y1="13.5" x2="39.83" y2="11.53"/><line class="cls-4" x1="33.55" y1="11.48" x2="34.85" y2="10.72"/><line class="cls-4" x1="36.54" y1="12.46" x2="38.52" y2="11.3"/><line class="cls-4" x1="36.65" y1="10.54" x2="38.48" y2="9.47"/><line class="cls-4" x1="33.55" y1="11.44" x2="36.63" y2="13.54"/><line class="cls-4" x1="38.41" y1="10.51" x2="39.83" y2="11.44"/><line class="cls-4" x1="40.11" y1="16.01" x2="41.62" y2="17.01"/><line class="cls-4" x1="34.83" y1="11.24" x2="36.69" y2="12.46"/><line class="cls-4" x1="34.98" y1="9.48" x2="36.65" y2="10.57"/><line class="cls-4" x1="37.54" y1="8.86" x2="38.5" y2="9.49"/><g class="cls-5"><path class="cls-4" d="M35,7.34c0,.08-.17.22-.18.28l.11.29c.1.14.5.27,1.16.09s2.06-.93,2.18-1.67L38,5.91a.83.83,0,0,0-.43,0"/></g><polyline class="cls-4" points="35.61 4.62 36.55 5.07 36.84 4.95 37.5 4.04"/><g class="cls-5"><path class="cls-4" d="M38.1,6.7a1.68,1.68,0,0,1,0,.67,1.57,1.57,0,0,1-1.86,1.22,1.52,1.52,0,0,1-.83-.46l-.06-.05"/><path class="cls-4" d="M35.11,7.68A1.6,1.6,0,0,1,35,7.29,1.57,1.57,0,0,1,36.32,5.5,1.52,1.52,0,0,1,37.7,6a1.67,1.67,0,0,1,.25.37"/><path class="cls-4" d="M37.73,9.07a1.16,1.16,0,0,0,0-.17.12.12,0,0,0-.09-.08,1.31,1.31,0,0,0-.27,0,.41.41,0,0,1,0-.09v0l.09-.35"/><path class="cls-4" d="M37,9.05c0,.06.05.14.06.18s.17.11.31,0"/></g><polyline class="cls-4" points="36.14 9.66 36.14 9.51 36.34 9.17 36.31 9.05 35.93 8.99 35.6 8.78 35.73 8.39"/><line class="cls-4" x1="33.57" y1="15.55" x2="36.64" y2="17.57"/><line class="cls-4" x1="33.22" y1="16.98" x2="36.44" y2="19.1"/><line class="cls-4" x1="35.78" y1="8.79" x2="34.83" y2="9.42"/><line class="cls-4" x1="38.41" y1="11.35" x2="38.41" y2="9.57"/><line class="cls-4" x1="34.83" y1="11.24" x2="34.83" y2="9.41"/><line class="cls-4" x1="62.25" y1="39.61" x2="72.7" y2="46.25"/><line class="cls-4" x1="74.44" y1="40.15" x2="78.77" y2="42.7"/><line class="cls-4" x1="38.84" y1="26.12" x2="42.9" y2="28.71"/><line class="cls-4" x1="38.84" y1="24.54" x2="42.9" y2="27.12"/><line class="cls-4" x1="43.61" y1="21.79" x2="47.67" y2="24.38"/><line class="cls-4" x1="47.67" y1="25.13" x2="74.03" y2="40.27"/><line class="cls-4" x1="63.99" y1="38.19" x2="71.08" y2="42.26"/><polyline class="cls-4" points="84.89 48.24 85.27 48.02 85.27 46.72 78.76 42.98"/><polyline class="cls-4" points="86.19 49.99 83.7 51.46 81.29 49.94"/><line class="cls-4" x1="83.69" y1="53.72" x2="83.69" y2="51.46"/><polyline class="cls-4" points="80.56 50.74 76.98 52.84 37.94 28"/><polyline class="cls-4" points="82.73 48.15 76.98 51.52 37.89 26.66"/><line class="cls-4" x1="76.98" y1="52.84" x2="76.98" y2="51.52"/><line class="cls-4" x1="78.76" y1="42.7" x2="72.7" y2="46.24"/><polyline class="cls-4" points="78.77 42.7 78.77 43.97 72.72 47.51 62.25 40.85"/><line class="cls-4" x1="72.7" y1="47.5" x2="72.7" y2="46.25"/><line class="cls-4" x1="74.44" y1="40.15" x2="70.74" y2="42.31"/><line class="cls-4" x1="64.47" y1="38.33" x2="62.25" y2="39.62"/><line class="cls-4" x1="47.67" y1="25.86" x2="42.9" y2="28.65"/><line class="cls-4" x1="47.67" y1="24.38" x2="42.9" y2="27.17"/><line class="cls-4" x1="43.59" y1="21.79" x2="38.83" y2="24.59"/><line class="cls-4" x1="44.36" y1="20.86" x2="36.37" y2="25.53"/><line class="cls-4" x1="85.21" y1="46.7" x2="83.96" y2="47.44"/><text class="cls-6" transform="matrix(0.82, 0.57, -0.86, 0.5, 26.21, 60.17)"><tspan class="cls-7">C</tspan><tspan class="cls-8" x="4.31" y="0">A</tspan><tspan class="cls-9" x="8.53" y="0">THERINE L</tspan><tspan x="43.12" y="0">N</tspan></text><polyline class="cls-4" points="90.48 50.4 79.19 56.77 28.3 23.25"/><polyline class="cls-4" points="82.63 49.14 81.27 49.93 81.27 52.17 83.7 53.71 86.19 52.25 86.19 49.99 85.18 49.35"/><line class="cls-4" x1="79.21" y1="56.78" x2="79.21" y2="86.64"/><line class="cls-4" x1="85.21" y1="82.47" x2="84.39" y2="82.96"/><polyline class="cls-4" points="85.21 82.47 85.73 82.8 90.48 80 90.48 50.38 85.27 47.4"/><g class="cls-5"><path class="cls-4" d="M85.21,82.47v-.71a.43.43,0,0,0-.14-.32"/><path class="cls-4" d="M85.73,82.8v-1c0-.25-.22-.58-.72-.3a1.25,1.25,0,0,0-.62,1v1.15l-5.18,3-7.8-5.4L61.55,74.5l-8.27-5.67-16.77-12L28.3,50.86V23.25"/><path class="cls-4" d="M83.69,47.78a1.33,1.33,0,0,0-1.07,1.33v.94c0,.36.57.66,1.29.66s1.29-.3,1.29-.66v-.94a1.34,1.34,0,0,0-1.08-1.33v-.14c0-.07-.08-.14-.22-.14s-.21.07-.21.14Z"/></g><polygon class="cls-10" points="79.15 59.17 72.8 54.99 72.8 52.64 79.15 56.82 79.15 59.17"/><polygon class="cls-10" points="83.97 56.49 79.26 59.17 79.26 56.78 83.97 54.15 83.97 56.49"/><polygon class="cls-10" points="79.15 61.67 72.8 57.49 72.8 55.13 79.15 59.32 79.15 61.67"/><polygon class="cls-10" points="83.97 59.01 79.26 61.69 79.26 59.3 83.97 56.64 83.97 59.01"/><polygon class="cls-10" points="79.15 64.17 72.8 59.99 72.8 57.63 79.15 61.8 79.15 64.17"/><polygon class="cls-10" points="83.97 61.5 79.26 64.17 79.26 61.78 83.97 59.12 83.97 61.5"/><polygon class="cls-10" points="79.15 66.67 72.8 62.49 72.8 60.13 79.15 64.31 79.15 66.67"/><polygon class="cls-10" points="83.97 63.99 79.26 66.67 79.26 64.28 83.97 61.62 83.97 63.99"/><polygon class="cls-10" points="79.15 69.17 72.8 64.99 72.8 62.62 79.15 66.79 79.15 69.17"/><polygon class="cls-10" points="83.97 66.49 79.26 69.17 79.26 66.78 83.97 64.12 83.97 66.49"/><polygon class="cls-10" points="79.15 71.66 72.8 67.48 72.8 65.12 79.15 69.3 79.15 71.66"/><polygon class="cls-10" points="83.97 68.98 79.26 71.66 79.26 69.27 83.97 66.61 83.97 68.98"/><polyline class="cls-11" points="72.8 55.06 79.19 59.27 83.97 56.57"/><polyline class="cls-11" points="72.8 57.56 79.19 61.77 83.97 59.07"/><polyline class="cls-11" points="72.8 60.06 79.19 64.27 83.97 61.57"/><polyline class="cls-11" points="72.8 62.55 79.19 66.76 83.97 64.06"/><polyline class="cls-11" points="72.8 65.05 79.19 69.26 83.97 66.56"/><g class="cls-12"><polygon class="cls-13" points="90.33 134.54 95.57 134.54 95.57 133.17 96.69 133.17 96.69 131.43 100.1 131.43 100.1 140.18 91.21 139.68 91.22 139.48 90.9 139.45 90.9 136.9 89.79 136.9 89.79 134.89 90.33 134.89 90.33 134.54"/><g class="cls-12"><polygon class="cls-15" points="100.1 124.59 100.1 139.97 24.35 135.26 24.39 124.59 100.1 124.59"/></g></g></svg>