<?xml version="1.0" encoding="utf-8"?>
<!-- Generator: Adobe Illustrator 23.0.0, SVG Export Plug-In . SVG Version: 6.00 Build 0)  -->
<svg version="1.1" id="Layer_1" xmlns="http://www.w3.org/2000/svg" xmlns:xlink="http://www.w3.org/1999/xlink" x="0px" y="0px"
	 viewBox="0 0 189.9 92.6" style="enable-background:new 0 0 189.9 92.6;" xml:space="preserve">
<style type="text/css">
	.st0{fill:#D2D3D4;}
	.st1{clip-path:url(#SVGID_2_);}
	.st2{fill:#231F20;}
	.st3{clip-path:url(#SVGID_4_);}
	.st4{fill:none;stroke:#D1D3D4;stroke-width:1.09;stroke-miterlimit:10;}
	.st5{clip-path:url(#SVGID_6_);}
	.st6{fill:none;stroke:#231F20;stroke-width:0.15;stroke-miterlimit:10;}
	.st7{enable-background:new    ;}
	.st8{fill:#D1D3D4;}
	.st9{fill:none;stroke:#231F20;stroke-width:0.14;stroke-miterlimit:10;}
	.st10{clip-path:url(#SVGID_8_);}
	.st11{clip-path:url(#SVGID_10_);}
	.st12{clip-path:url(#SVGID_12_);}
	.st13{clip-path:url(#SVGID_14_);}
	.st14{clip-path:url(#SVGID_16_);}
</style>
<title>residence_P_46_key_horizontal</title>
<g>
	<path class="st0" d="M83.6,43.8c-0.6,0-1-0.4-1-1.1v-1.4H86v1.3c0,0.7-0.3,1.1-0.9,1.1c-0.3,0-0.6-0.2-0.7-0.4
		C84.2,43.6,83.9,43.8,83.6,43.8z M83.2,41.9v0.7c0,0.3,0.2,0.5,0.4,0.5s0.4-0.2,0.4-0.5v-0.7H83.2z M84.6,42.5
		c0,0.3,0.1,0.5,0.4,0.5s0.4-0.2,0.4-0.5v-0.6h-0.8V42.5z"/>
	<path class="st0" d="M83.8,46.2h-1.3v-0.7H86v1.4c0.1,0.5-0.3,1.1-0.8,1.2c-0.1,0-0.2,0-0.3,0c-0.5,0-0.9-0.3-1-0.8l-1.3,0.9v-0.8
		l1.3-0.8L83.8,46.2z M84.4,46.2v0.6c0,0.4,0.2,0.5,0.5,0.5s0.5-0.2,0.5-0.5v-0.6H84.4z"/>
	<path class="st0" d="M82.5,51.2c-0.1-1,0.6-1.8,1.6-1.9c1-0.1,1.8,0.6,1.9,1.6s-0.6,1.8-1.6,1.9c-0.1,0-0.1,0-0.2,0
		c-0.9,0.1-1.7-0.6-1.7-1.5C82.5,51.3,82.5,51.3,82.5,51.2z M85.4,51.2c0-0.5-0.4-0.9-1.1-0.9s-1.1,0.3-1.1,0.9s0.5,0.9,1.1,0.9
		S85.4,51.8,85.4,51.2z"/>
	<path class="st0" d="M86,56.1l-3.4,1.3v-0.7l0.8-0.3v-1.3l-0.8-0.3v-0.7l3.4,1.3V56.1z M84,55.4v0.8l1.1-0.4L84,55.4z"/>
	<path class="st0" d="M86,59v1.2c0,0.9-0.8,1.7-1.7,1.7c-0.9,0-1.7-0.8-1.7-1.7V59H86z M83.2,60.2c0,0.6,0.5,1.1,1.1,1.1
		c0.6,0,1.1-0.5,1.1-1.1v-0.5h-2.2L83.2,60.2z"/>
	<path class="st0" d="M86,65.7l-2.3,0.6l2.3,0.6v0.7l-3.4-0.9V66l2.2-0.6l-2.2-0.6v-0.6l3.4-0.9V64l-2.3,0.6l2.3,0.6V65.7z"/>
	<path class="st0" d="M86,70.7L82.6,72v-0.7l0.8-0.3v-1.3l-0.8-0.3v-0.7L86,70V70.7z M84,69.9v0.8l1.1-0.4L84,69.9z"/>
	<path class="st0" d="M86,75.3v0.7l-2.1-1.2h-1.3v-0.7h1.3l2.1-1.2v0.8l-1.4,0.8L86,75.3z"/>
	<path class="st0" d="M180.9,35.1v0.7h-2.8v1.6h-0.6v-2.3H180.9z"/>
	<path class="st0" d="M180.9,40.8l-3.4,1.3v-0.7l0.8-0.3v-1.3l-0.8-0.3v-0.7l3.4,1.3V40.8z M179,40v0.8l1.1-0.4L179,40z"/>
	<path class="st0" d="M177.6,43.7h3.4V46h-0.6v-1.6h-0.9v1.4h-0.6v-1.4h-1.3V43.7z"/>
	<path class="st0" d="M180.9,49.2l-3.4,1.3v-0.7l0.8-0.3v-1.3l-0.8-0.3v-0.7l3.4,1.3V49.2z M178.9,48.4v0.8l1.1-0.4L178.9,48.4z"/>
	<path class="st0" d="M180.9,53.9v0.7l-2.1-1.2h-1.3v-0.7h1.3l2.1-1.2v0.8l-1.4,0.8L180.9,53.9z"/>
	<path class="st0" d="M180.9,58.5h-0.6v-1.6h-0.7v1.5H179v-1.5h-0.8v1.6h-0.6v-2.3h3.4L180.9,58.5z"/>
	<path class="st0" d="M180.9,60.1V63h-0.6v-1.1h-2.8v-0.7h2.8v-1.1H180.9z"/>
	<path class="st0" d="M180.9,64.4v2.9h-0.6v-1.1h-2.8v-0.7h2.8v-1.1H180.9z"/>
	<path class="st0" d="M180.9,71.3h-0.6v-1.6h-0.7v1.5H179v-1.5h-0.8v1.6h-0.6V69h3.4L180.9,71.3z"/>
	<path class="st0" d="M178.5,75.9c-0.3,0.1-0.5,0.4-0.4,0.7c0,0.3,0.2,0.6,0.4,0.6s0.3-0.1,0.4-0.4l0.1-0.6c0-0.5,0.4-0.9,0.9-0.8
		c0.6,0,1,0.6,1,1.1c0,0,0,0,0,0.1c0.1,0.6-0.4,1.2-1,1.3v-0.7c0.3-0.1,0.4-0.4,0.4-0.6c0-0.3-0.2-0.5-0.4-0.5s-0.3,0.1-0.4,0.4
		l-0.1,0.6c-0.1,0.6-0.4,0.9-0.9,0.9c-0.6,0-1.1-0.5-1.1-1.2c0,0,0-0.1,0-0.1c-0.1-0.7,0.4-1.3,1-1.4L178.5,75.9L178.5,75.9z"/>
	<path class="st0" d="M180.9,79.3v2.9h-0.6v-1.1h-2.8v-0.7h2.8v-1.1H180.9z"/>
	<path class="st0" d="M112.4,39.3h0.7v2.8h1.6v0.6h-2.3V39.3z"/>
	<path class="st0" d="M118.6,39.3v0.6H117v0.7h1.4v0.6H117v0.8h1.6v0.6h-2.3v-3.4H118.6z"/>
	<path class="st0" d="M121.6,42.7c-1,0.1-1.8-0.6-1.9-1.6c-0.1-1,0.6-1.8,1.6-1.9c1-0.1,1.8,0.6,1.9,1.6c0,0.1,0,0.1,0,0.2
		c0.1,0.9-0.6,1.7-1.5,1.7C121.7,42.7,121.7,42.7,121.6,42.7z M121.6,39.9c-0.5,0-0.9,0.5-0.9,1.1s0.3,1.1,0.9,1.1s0.9-0.5,0.9-1.1
		S122.2,39.9,121.6,39.9z"/>
	<path class="st0" d="M127.7,42.7h-0.6l-1.6-2.2v2.2h-0.7v-3.4h0.7l1.5,2.1v-2.1h0.7L127.7,42.7z"/>
	<path class="st0" d="M131.2,39.3l1.3,3.4h-0.7l-0.3-0.8h-1.3l-0.3,0.8h-0.7l1.3-3.4H131.2z M130.4,41.3h0.8l-0.4-1.1L130.4,41.3z"
		/>
	<path class="st0" d="M134.6,41.4v1.3H134v-3.4h1.4c0.6-0.1,1.1,0.3,1.2,0.9c0,0.1,0,0.1,0,0.2c0,0.5-0.3,0.9-0.8,1l0.9,1.3h-0.8
		l-0.9-1.3H134.6z M134.6,40.8h0.6c0.4,0,0.5-0.2,0.5-0.5s-0.2-0.5-0.5-0.5h-0.6V40.8z"/>
	<path class="st0" d="M138.1,39.3h1.2c0.9,0,1.7,0.8,1.7,1.7c0,0.9-0.8,1.7-1.7,1.7h-1.2V39.3z M139.3,42.1c0.6,0,1.1-0.5,1.1-1.1
		c0-0.6-0.5-1.1-1.1-1.1h-0.5v2.1H139.3z"/>
	<path class="st0" d="M145.4,41.7c0.1,0.3,0.4,0.5,0.7,0.4c0.3,0,0.6-0.2,0.6-0.4s-0.1-0.3-0.4-0.4l-0.6-0.1
		c-0.5-0.1-0.9-0.4-0.9-0.9c0-0.6,0.6-1,1.2-1c0,0,0,0,0,0c0.6-0.1,1.2,0.4,1.3,1h-0.7c-0.1-0.3-0.3-0.4-0.6-0.4
		c-0.3,0-0.5,0.2-0.5,0.4s0.1,0.3,0.4,0.4l0.6,0.1c0.6,0.1,0.9,0.4,0.9,1c0,0.7-0.5,1-1.2,1c-0.7,0.1-1.3-0.4-1.4-1L145.4,41.7z"/>
	<path class="st0" d="M148.6,39.3h2.9v0.6h-1.1v2.8h-0.7v-2.8h-1.1V39.3z"/>
	<path class="st0" d="M109.9,74.6c0.7,0,1.3,0.4,1.4,1.1h-0.7c-0.1-0.3-0.4-0.5-0.7-0.5c-0.5,0-0.8,0.5-0.8,1.1s0.3,1.1,0.8,1.1
		c0.3,0,0.6-0.2,0.7-0.5h0.7c-0.1,0.7-0.7,1.2-1.4,1.1c-1-0.1-1.7-1-1.6-1.9C108.4,75.3,109.1,74.6,109.9,74.6L109.9,74.6z"/>
	<path class="st0" d="M114.7,74.6l1.3,3.4h-0.7l-0.3-0.8h-1.3l-0.3,0.8h-0.7l1.3-3.4H114.7z M113.9,76.6h0.8l-0.4-1.1L113.9,76.6z"
		/>
	<path class="st0" d="M117,74.6h2.9v0.6h-1.1V78h-0.7v-2.8H117V74.6z"/>
	<path class="st0" d="M124.5,74.6V78h-0.7v-1.4h-1.5V78h-0.7v-3.4h0.7v1.3h1.5v-1.3H124.5z"/>
	<path class="st0" d="M128.7,74.6v0.6h-1.6V76h1.5v0.6h-1.4v0.8h1.6V78h-2.3v-3.4H128.7z"/>
	<path class="st0" d="M131.1,76.7V78h-0.7v-3.4h1.4c0.5-0.1,1.1,0.2,1.2,0.8c0,0.1,0,0.2,0,0.3c0,0.5-0.3,0.9-0.8,1l0.9,1.3h-0.8
		l-0.8-1.3L131.1,76.7z M131.1,76.1h0.6c0.4,0,0.5-0.2,0.5-0.5s-0.2-0.5-0.5-0.5h-0.6V76.1z"/>
	<path class="st0" d="M135.4,78h-0.7v-3.4h0.7V78z"/>
	<path class="st0" d="M140.1,78h-0.6l-1.6-2.3V78h-0.7v-3.4h0.7l1.5,2.1v-2.1h0.7L140.1,78z"/>
	<path class="st0" d="M144.2,74.6v0.6h-1.6V76h1.4v0.6h-1.4v0.8h1.6V78H142v-3.4H144.2z"/>
	<path class="st0" d="M148.4,74.6h0.7v2.8h1.6V78h-2.3V74.6z"/>
	<path class="st0" d="M155.2,78h-0.6l-1.6-2.2V78h-0.7v-3.4h0.6l1.5,2.1v-2.1h0.7L155.2,78L155.2,78z"/>
</g>
<g id="Layer_4">
	<g>
		<defs>
			<rect id="SVGID_1_" x="92.4" y="51.2" width="76.8" height="17.3"/>
		</defs>
		<clipPath id="SVGID_2_">
			<use xlink:href="#SVGID_1_"  style="overflow:visible;"/>
		</clipPath>
		<g class="st1">
			<polygon class="st2" points="157.8,62 162.9,62 162.9,60.7 164,60.7 164,59 167.4,59 167.4,67.5 158.7,67.1 158.7,66.9 
				158.4,66.8 158.4,64.3 157.3,64.3 157.3,62.4 157.8,62.4 			"/>
			<g>
				<defs>
					<rect id="SVGID_3_" x="92.4" y="51.2" width="76.8" height="17.3"/>
				</defs>
				<clipPath id="SVGID_4_">
					<use xlink:href="#SVGID_3_"  style="overflow:visible;"/>
				</clipPath>
				<g class="st3">
					<polygon class="st4" points="167.4,52.3 167.4,67.3 93.3,62.7 93.4,52.3 					"/>
				</g>
			</g>
		</g>
	</g>
	<g>
		<defs>
			<rect id="SVGID_5_" x="7.6" y="3.9" width="59" height="71.2"/>
		</defs>
		<clipPath id="SVGID_6_">
			<use xlink:href="#SVGID_5_"  style="overflow:visible;"/>
		</clipPath>
		<g class="st5">
			<polyline class="st6" points="65,46 54.8,51.7 11.8,23.5 			"/>
			<polyline class="st6" points="65,47.9 54.8,53.7 11.8,25.4 			"/>
			<polyline class="st6" points="65,49.8 54.8,55.6 11.8,27.4 			"/>
			<polyline class="st6" points="65,51.7 54.8,57.5 11.8,29.3 			"/>
			<polyline class="st6" points="65,53.7 54.8,59.5 11.8,31.2 			"/>
			<polyline class="st6" points="65,55.6 54.8,61.4 11.8,33.1 			"/>
			<polyline class="st6" points="65,57.5 54.8,63.3 11.8,35.1 			"/>
			<polyline class="st6" points="65,59.5 54.8,65.2 11.8,37 			"/>
			<polyline class="st6" points="65,61.4 54.8,67.2 11.8,38.9 			"/>
			<polyline class="st6" points="65,63.3 54.8,69.1 11.8,40.9 			"/>
			<polyline class="st6" points="65,65.2 54.8,71 11.8,42.8 			"/>
			<g class="st7">
				<path class="st8" d="M16.1,51.2c0.5,0.3,0.5,0.7,0.1,1l-0.4-0.3c0.1-0.2,0.1-0.3-0.1-0.5c-0.3-0.2-0.8-0.2-1.2,0.1
					c-0.4,0.2-0.5,0.5-0.2,0.8c0.2,0.2,0.5,0.2,0.8,0.1l0.4,0.3c-0.5,0.2-1.1,0.2-1.6-0.2c-0.5-0.4-0.5-0.9,0.2-1.3
					C14.7,50.8,15.6,50.8,16.1,51.2z"/>
			</g>
			<g class="st7">
				<path class="st8" d="M19,53.2L17.7,55l-0.4-0.3l0.3-0.4l-0.8-0.5l-0.7,0.2l-0.4-0.3l2.9-0.7L19,53.2z M17.3,53.6l0.5,0.3
					l0.5-0.6L17.3,53.6z"/>
			</g>
			<g class="st7">
				<path class="st8" d="M20.5,54.3l1.7,1.2l-0.4,0.2l-0.7-0.5l-1.8,1L19,56l1.8-1l-0.7-0.5L20.5,54.3z"/>
				<path class="st8" d="M25.1,57.5L23,58.7l-0.4-0.3l0.9-0.5l-0.9-0.6l-0.9,0.5l-0.4-0.3l2.1-1.2l0.4,0.3L22.9,57l0.9,0.6l0.9-0.5
					L25.1,57.5z"/>
				<path class="st8" d="M27.7,59.3l-0.4,0.2l-1-0.7l-0.5,0.3l0.9,0.6l-0.4,0.2l-0.9-0.6L25,59.6l1,0.7l-0.4,0.2l-1.4-1l2.1-1.2
					L27.7,59.3z"/>
				<path class="st8" d="M27.9,61.1l-0.8,0.5l-0.4-0.3l2.1-1.2l0.8,0.6c0.4,0.3,0.5,0.6,0,0.9c-0.3,0.2-0.7,0.2-1.1,0l-0.3,0.9
					l-0.5-0.3l0.3-0.8L27.9,61.1z M28.3,60.9l0.4,0.3c0.2,0.1,0.4,0.2,0.6,0.1c0.2-0.1,0.2-0.3,0-0.4l-0.4-0.3L28.3,60.9z"/>
				<path class="st8" d="M29.8,63.5l-0.4-0.3l2.1-1.2l0.4,0.3L29.8,63.5z"/>
				<path class="st8" d="M32.7,65.5l-0.3-0.2l0.5-1.5l-1.4,0.8L31,64.3l2.1-1.2l0.4,0.3l-0.5,1.4l1.4-0.8l0.4,0.3L32.7,65.5z"/>
				<path class="st8" d="M37.4,66L37,66.2l-1-0.7l-0.5,0.3l0.9,0.6l-0.4,0.2l-0.9-0.6l-0.5,0.3l1,0.7l-0.4,0.2l-1.4-1l2.1-1.2
					L37.4,66z"/>
				<path class="st8" d="M40.1,67.8l0.4,0.3l-1.8,1l1,0.7l-0.4,0.2l-1.4-1L40.1,67.8z"/>
			</g>
			<g class="st7">
				<path class="st8" d="M42.1,72l-0.3-0.2l0.5-1.5l-1.4,0.8l-0.4-0.3l2.1-1.2l0.4,0.3l-0.5,1.4l1.4-0.8l0.4,0.3L42.1,72z"/>
			</g>
			<polyline class="st9" points="65,44 54.8,49.8 11.8,21.6 			"/>
			<line class="st9" x1="54.8" y1="47.8" x2="54.8" y2="72.9"/>
			<line class="st9" x1="60" y1="69.3" x2="59.4" y2="69.7"/>
			<polyline class="st9" points="60,69.3 60.4,69.6 65,66.9 65,42.1 			"/>
			<polyline class="st9" points="65,42.1 54.8,47.8 11.8,19.6 			"/>
			<g>
				<defs>
					<rect id="SVGID_7_" x="7.6" y="3.9" width="58.6" height="71.2"/>
				</defs>
				<clipPath id="SVGID_8_">
					<use xlink:href="#SVGID_7_"  style="overflow:visible;"/>
				</clipPath>
				<g class="st10">
					<path class="st9" d="M60,69.3v-0.6c0-0.1,0-0.2-0.1-0.2"/>
					<path class="st9" d="M60.4,69.6v-0.8c0-0.2-0.2-0.4-0.6-0.2c-0.3,0.2-0.5,0.4-0.5,0.8v0.9l-4.6,2.7l-6-4.2l-7.7-5.2l-6.4-4.4
						l-9.5-6.5l-13.5-9.8V19.6l0.9-0.5"/>
				</g>
			</g>
			<line class="st9" x1="56.4" y1="43.1" x2="56.4" y2="42.1"/>
			<line class="st9" x1="18" y1="21.4" x2="18" y2="23.1"/>
			<line class="st9" x1="56.4" y1="43.1" x2="57" y2="43.4"/>
			<line class="st9" x1="56.4" y1="42.1" x2="57" y2="42.4"/>
			<line class="st9" x1="18.3" y1="11.1" x2="18.3" y2="9.8"/>
			<line class="st9" x1="18.3" y1="11.2" x2="18.3" y2="9.8"/>
			<line class="st9" x1="18" y1="20.1" x2="18" y2="17"/>
			<polyline class="st9" points="19,22.5 18,23.1 12.7,19.7 12.7,18 14.6,16.9 			"/>
			<polyline class="st9" points="18.2,15.2 20.7,13.8 20.7,10.5 20.7,10.5 19.6,9.8 			"/>
			<g>
				<defs>
					<rect id="SVGID_9_" x="7.6" y="3.9" width="58.6" height="71.2"/>
				</defs>
				<clipPath id="SVGID_10_">
					<use xlink:href="#SVGID_9_"  style="overflow:visible;"/>
				</clipPath>
				<g class="st11">
					<path class="st9" d="M17.7,12.8c0.2,0.6,0,1.1-0.4,1.1s-0.9-0.5-1.1-1s0-1.1,0.4-1.1S17.5,12.2,17.7,12.8z"/>
					<path class="st9" d="M18.8,12.8c-0.2,0.6,0,1.1,0.4,1.1s0.9-0.5,1.1-1.1s0-1.1-0.4-1.1S19,12.2,18.8,12.8z"/>
				</g>
			</g>
			<line class="st9" x1="18" y1="17.1" x2="22" y2="14.8"/>
			<line class="st9" x1="14.6" y1="14.8" x2="18" y2="17.1"/>
			<line class="st9" x1="12.7" y1="18" x2="18" y2="21.4"/>
			<polyline class="st9" points="20.7,13.6 20.9,13.8 20.9,14.8 20.9,14.8 18.2,16.4 18.2,16.3 18.2,12 			"/>
			<polyline class="st9" points="15.6,14.2 14.6,14.8 14.6,17.8 14.6,17.8 18,20.1 			"/>
			<polyline class="st9" points="22.1,16.3 24.2,17.7 24.2,18.9 			"/>
			<line class="st9" x1="18.2" y1="12.1" x2="20.7" y2="10.6"/>
			<line class="st9" x1="15.9" y1="10.5" x2="16.9" y2="9.9"/>
			<line class="st9" x1="15.9" y1="10.5" x2="18.2" y2="12.1"/>
			<polyline class="st9" points="20.9,14 22.1,14.8 22.1,14.8 22.1,17.7 22,17.7 18,20.1 			"/>
			<line class="st9" x1="16.9" y1="8.9" x2="18.3" y2="9.8"/>
			<line class="st9" x1="19" y1="8.5" x2="19.6" y2="8.9"/>
			<g>
				<defs>
					<rect id="SVGID_11_" x="7.6" y="3.9" width="58.6" height="71.2"/>
				</defs>
				<clipPath id="SVGID_12_">
					<use xlink:href="#SVGID_11_"  style="overflow:visible;"/>
				</clipPath>
				<g class="st12">
					<path class="st9" d="M17,7.3c0,0.1-0.1,0.2-0.1,0.2l0.1,0.2C17,7.9,17.3,8,17.8,7.8s1.6-0.7,1.7-1.3l-0.2-0.3
						c-0.1,0-0.2,0-0.3,0"/>
				</g>
			</g>
			<polyline class="st9" points="17.5,5.2 18.2,5.6 18.4,5.5 18.9,4.8 			"/>
			<g>
				<defs>
					<rect id="SVGID_13_" x="7.6" y="3.9" width="58.6" height="71.2"/>
				</defs>
				<clipPath id="SVGID_14_">
					<use xlink:href="#SVGID_13_"  style="overflow:visible;"/>
				</clipPath>
				<g class="st13">
					<path class="st9" d="M19.4,6.8c0,0.2,0,0.3,0,0.5C19.2,8,18.6,8.4,18,8.3c-0.2-0.1-0.5-0.2-0.6-0.4l0,0"/>
					<path class="st9" d="M17.1,7.6C17,7.5,17,7.4,17,7.3c-0.1-0.7,0.4-1.3,1-1.4c0.4-0.1,0.8,0.1,1.1,0.4c0.1,0.1,0.1,0.2,0.2,0.3"
						/>
					<path class="st9" d="M19.1,8.6c0,0,0-0.1,0-0.1c0,0,0-0.1-0.1-0.1c0,0,0,0,0,0c-0.1,0-0.1,0-0.2,0V8.4l0.1-0.3"/>
					<path class="st9" d="M18.5,8.6c0,0,0,0.1,0,0.1c0.1,0.1,0.2,0.1,0.2,0c0,0,0,0,0,0"/>
				</g>
			</g>
			<polyline class="st9" points="17.9,9.1 17.9,9 18,8.7 18,8.6 17.7,8.6 17.5,8.4 17.5,8.1 			"/>
			<line class="st9" x1="15.9" y1="13.7" x2="18.2" y2="15.2"/>
			<polyline class="st9" points="18.2,16.5 15.6,14.8 15.6,14.7 15.6,13.8 15.6,13.8 15.9,13.7 15.9,13.6 15.9,10.5 			"/>
			<polyline class="st9" points="17.6,8.4 16.9,8.9 16.9,9 16.9,10.3 18.2,11.2 18.2,11.2 19.6,10.4 19.6,9 19.6,9 18.3,9.8 			"/>
			<line class="st9" x1="41.2" y1="34.2" x2="49.8" y2="39.6"/>
			<polyline class="st9" points="60.8,41.2 58.8,42.4 57,41.2 			"/>
			<line class="st9" x1="58.8" y1="45.1" x2="58.8" y2="42.4"/>
			<polyline class="st9" points="57,41.8 53.1,44 19,22.3 			"/>
			<line class="st6" x1="65" y1="42.1" x2="24.2" y2="18.4"/>
			<line class="st6" x1="51" y1="34.4" x2="26.8" y2="20.4"/>
			<line class="st9" x1="53.1" y1="45.1" x2="53.1" y2="44"/>
			<line class="st9" x1="49.8" y1="40.8" x2="49.8" y2="39.6"/>
			<polygon class="st9" points="54.8,36.6 54.8,37.8 49.8,40.8 41.2,35.3 41.2,34.2 45,32 50,35 51.1,34.4 			"/>
			<line class="st9" x1="54.8" y1="36.6" x2="49.8" y2="39.6"/>
			<line class="st9" x1="26.8" y1="20.4" x2="23.1" y2="22.5"/>
			<polygon class="st9" points="20,21.8 20,20.5 20,20.5 23.5,18.4 26.8,20.4 26.8,21.4 26.8,21.5 23.1,23.7 			"/>
			<polyline class="st9" points="56.4,43.1 53.1,45.1 19,23.4 19,23.4 19,22.3 20,21.8 			"/>
			<line class="st9" x1="23.1" y1="22.5" x2="20" y2="20.5"/>
			<line class="st9" x1="23.1" y1="23.6" x2="23.1" y2="22.5"/>
			<polyline class="st9" points="60,40.8 60.3,40.6 60.3,39.9 54.8,36.7 			"/>
			<line class="st9" x1="60.3" y1="39.8" x2="59.9" y2="40.1"/>
			<line class="st9" x1="24.2" y1="17.8" x2="18" y2="21.4"/>
			<polyline class="st9" points="58,40.6 57,41.2 57,43.9 58.8,45.1 60.8,44 60.8,41.2 60,40.7 			"/>
			<g>
				<defs>
					<rect id="SVGID_15_" x="7.6" y="3.9" width="58.6" height="71.2"/>
				</defs>
				<clipPath id="SVGID_16_">
					<use xlink:href="#SVGID_15_"  style="overflow:visible;"/>
				</clipPath>
				<g class="st14">
					<path class="st9" d="M58.8,39.5c-0.5,0.1-0.8,0.5-0.8,1v0.7c0,0.3,0.5,0.5,1,0.5s1-0.2,1-0.5v-0.7c0-0.5-0.3-0.9-0.8-1v-0.1
						c0-0.1-0.1-0.1-0.2-0.1s-0.2,0.1-0.2,0.1V39.5z"/>
				</g>
			</g>
			<polygon class="st2" points="54.8,67.1 49.1,63.4 49.1,61.5 54.8,65.3 			"/>
			<polygon class="st2" points="61.3,63.5 54.8,67.1 54.8,65.2 61.3,61.5 			"/>
			<polygon class="st2" points="54.8,63.3 49.1,59.5 49.1,57.7 54.8,61.4 			"/>
			<polygon class="st2" points="61.3,59.6 54.8,63.2 54.8,61.4 61.3,57.7 			"/>
		</g>
	</g>
</g>
</svg>
