<?xml version="1.0" encoding="utf-8"?>
<!-- Generator: Adobe Illustrator 16.0.4, SVG Export Plug-In . SVG Version: 6.00 Build 0)  -->
<!DOCTYPE svg PUBLIC "-//W3C//DTD SVG 1.1//EN" "http://www.w3.org/Graphics/SVG/1.1/DTD/svg11.dtd">
<svg version="1.1" id="Layer_1" xmlns="http://www.w3.org/2000/svg" xmlns:xlink="http://www.w3.org/1999/xlink" x="0px" y="0px"
	 width="257px" height="82px" viewBox="0 0 257 82" enable-background="new 0 0 257 82" xml:space="preserve">
<path fill="#D1D3D4" d="M157.834,43.894c-0.621,0-0.956-0.429-0.956-1.132v-1.4h3.373v1.291c0,0.703-0.313,1.137-0.918,1.137
	c-0.362,0-0.626-0.197-0.714-0.445C158.515,43.663,158.203,43.894,157.834,43.894z M157.472,42.038v0.664
	c0,0.33,0.164,0.506,0.423,0.506c0.264,0,0.423-0.176,0.423-0.506v-0.664H157.472z M158.867,42.608c0,0.336,0.132,0.512,0.401,0.512
	c0.269,0,0.39-0.176,0.39-0.512v-0.57h-0.791V42.608z"/>
<path fill="#D1D3D4" d="M158.136,46.305h-1.258v-0.697h3.373v1.39c0,0.708-0.379,1.181-1.071,1.181
	c-0.538,0-0.879-0.297-0.994-0.769l-1.308,0.89v-0.791l1.258-0.835V46.305z M158.713,46.305v0.648c0,0.352,0.187,0.533,0.467,0.533
	c0.285,0,0.473-0.182,0.473-0.533v-0.648H158.713z"/>
<path fill="#D1D3D4" d="M156.824,51.342c0-0.939,0.736-1.594,1.741-1.594c1.011,0,1.741,0.654,1.741,1.594s-0.73,1.598-1.741,1.598
	C157.56,52.94,156.824,52.282,156.824,51.342z M159.68,51.342c0-0.533-0.456-0.879-1.115-0.879s-1.115,0.346-1.115,0.879
	c0,0.538,0.456,0.89,1.115,0.89S159.68,51.88,159.68,51.342z"/>
<path fill="#D1D3D4" d="M160.251,56.231l-3.373,1.291v-0.713l0.812-0.303v-1.264l-0.812-0.297v-0.703l3.373,1.291V56.231z
	 M158.285,55.462v0.824l1.121-0.412L158.285,55.462z"/>
<path fill="#D1D3D4" d="M160.251,59.143v1.191c0,1.021-0.659,1.665-1.687,1.665s-1.687-0.644-1.687-1.665v-1.191H160.251z
	 M157.5,60.307c0,0.643,0.412,0.994,1.065,0.994c0.659,0,1.071-0.352,1.071-0.994V59.84H157.5V60.307z"/>
<path fill="#D1D3D4" d="M160.251,65.784l-2.269,0.583l2.269,0.555v0.692l-3.373-0.879v-0.643l2.225-0.594l-2.225-0.594v-0.643
	l3.373-0.879v0.709l-2.269,0.549l2.269,0.594V65.784z"/>
<path fill="#D1D3D4" d="M160.251,70.762l-3.373,1.291v-0.715l0.812-0.301v-1.264l-0.812-0.297v-0.703l3.373,1.291V70.762z
	 M158.285,69.993v0.824l1.121-0.412L158.285,69.993z"/>
<path fill="#D1D3D4" d="M160.251,75.42v0.742l-2.093-1.226h-1.28v-0.698h1.28l2.093-1.213v0.764l-1.429,0.818L160.251,75.42z"/>
<path fill="#D1D3D4" d="M255.226,35.158v0.703h-2.752v1.571h-0.621v-2.274H255.226z"/>
<path fill="#D1D3D4" d="M255.226,40.909l-3.373,1.291v-0.715l0.813-0.302v-1.264l-0.813-0.296V38.92l3.373,1.29V40.909z
	 M253.259,40.139v0.824l1.12-0.412L253.259,40.139z"/>
<path fill="#D1D3D4" d="M251.853,43.815h3.373v2.246h-0.615v-1.549h-0.857v1.434h-0.609v-1.434h-1.291V43.815z"/>
<path fill="#D1D3D4" d="M255.226,49.312l-3.373,1.291v-0.714l0.813-0.303v-1.264l-0.813-0.296v-0.703l3.373,1.291V49.312z
	 M253.259,48.543v0.824l1.12-0.412L253.259,48.543z"/>
<path fill="#D1D3D4" d="M255.226,53.965v0.741l-2.093-1.226h-1.28v-0.697h1.28l2.093-1.214v0.764l-1.429,0.818L255.226,53.965z"/>
<path fill="#D1D3D4" d="M255.226,58.596h-0.615v-1.6h-0.736v1.451h-0.599v-1.451h-0.802v1.6h-0.621v-2.291h3.373V58.596z"/>
<path fill="#D1D3D4" d="M255.226,60.171v2.879h-0.615v-1.088h-2.758v-0.708h2.758v-1.083H255.226z"/>
<path fill="#D1D3D4" d="M255.226,64.539v2.878h-0.615v-1.088h-2.758v-0.708h2.758v-1.082H255.226z"/>
<path fill="#D1D3D4" d="M255.226,71.383h-0.615v-1.6h-0.736v1.451h-0.599v-1.451h-0.802v1.6h-0.621v-2.291h3.373V71.383z"/>
<path fill="#D1D3D4" d="M252.814,76.01c-0.296,0.094-0.434,0.341-0.434,0.67c0,0.341,0.153,0.566,0.423,0.566
	c0.203,0,0.313-0.121,0.379-0.412l0.138-0.604c0.109-0.483,0.368-0.856,0.923-0.856c0.609,0,1.038,0.505,1.038,1.214
	c0,0.769-0.406,1.214-0.978,1.323v-0.697c0.225-0.077,0.4-0.27,0.4-0.621c0-0.318-0.153-0.532-0.396-0.532
	c-0.192,0-0.308,0.126-0.368,0.379l-0.143,0.615c-0.126,0.55-0.439,0.884-0.95,0.884c-0.653,0-1.049-0.538-1.049-1.252
	c0-0.752,0.373-1.285,1.016-1.4V76.01z"/>
<path fill="#D1D3D4" d="M255.226,79.399v2.879h-0.615V81.19h-2.758v-0.709h2.758v-1.082H255.226z"/>
<path fill="#D1D3D4" d="M186.676,39.403h0.703v2.752h1.571v0.621h-2.274V39.403z"/>
<path fill="#D1D3D4" d="M192.855,39.403v0.615h-1.599v0.736h1.45v0.599h-1.45v0.802h1.599v0.621h-2.291v-3.373H192.855z"/>
<path fill="#D1D3D4" d="M195.93,42.831c-0.939,0-1.593-0.736-1.593-1.741c0-1.011,0.654-1.741,1.593-1.741s1.599,0.73,1.599,1.741
	C197.529,42.094,196.87,42.831,195.93,42.831z M195.93,39.974c-0.533,0-0.879,0.456-0.879,1.115s0.346,1.115,0.879,1.115
	c0.538,0,0.89-0.456,0.89-1.115S196.468,39.974,195.93,39.974z"/>
<path fill="#D1D3D4" d="M201.945,42.776h-0.555l-1.593-2.247v2.247h-0.675v-3.373h0.659l1.489,2.132v-2.132h0.675V42.776z"/>
<path fill="#D1D3D4" d="M205.445,39.403l1.291,3.373h-0.714l-0.302-0.812h-1.264l-0.296,0.812h-0.703l1.291-3.373H205.445z
	 M204.676,41.37h0.824l-0.412-1.121L204.676,41.37z"/>
<path fill="#D1D3D4" d="M208.939,41.518v1.258h-0.698v-3.373h1.39c0.708,0,1.181,0.379,1.181,1.071c0,0.538-0.297,0.879-0.769,0.994
	l0.89,1.308h-0.791l-0.835-1.258H208.939z M208.939,40.941h0.648c0.352,0,0.533-0.187,0.533-0.467c0-0.285-0.181-0.473-0.533-0.473
	h-0.648V40.941z"/>
<path fill="#D1D3D4" d="M212.438,39.403h1.192c1.021,0,1.665,0.659,1.665,1.687s-0.643,1.687-1.665,1.687h-1.192V39.403z
	 M213.602,42.155c0.643,0,0.994-0.412,0.994-1.065c0-0.659-0.352-1.071-0.994-1.071h-0.467v2.137H213.602z"/>
<path fill="#D1D3D4" d="M219.642,41.815c0.093,0.296,0.341,0.434,0.67,0.434c0.34,0,0.565-0.154,0.565-0.423
	c0-0.203-0.121-0.313-0.412-0.379l-0.604-0.138c-0.483-0.109-0.857-0.368-0.857-0.923c0-0.609,0.505-1.038,1.214-1.038
	c0.77,0,1.214,0.406,1.324,0.978h-0.698c-0.077-0.225-0.269-0.4-0.621-0.4c-0.319,0-0.533,0.153-0.533,0.396
	c0,0.191,0.126,0.308,0.379,0.367l0.615,0.144c0.549,0.126,0.884,0.439,0.884,0.95c0,0.653-0.538,1.049-1.252,1.049
	c-0.752,0-1.286-0.373-1.401-1.016H219.642z"/>
<path fill="#D1D3D4" d="M222.926,39.403h2.878v0.615h-1.087v2.758h-0.708v-2.758h-1.082V39.403z"/>
<path fill="#D1D3D4" d="M184.199,74.647c0.796,0,1.285,0.467,1.412,1.143h-0.698c-0.115-0.308-0.324-0.517-0.714-0.517
	c-0.539,0-0.857,0.473-0.857,1.115c0,0.638,0.318,1.115,0.857,1.115c0.39,0,0.599-0.209,0.714-0.521h0.698
	c-0.126,0.681-0.615,1.147-1.412,1.147c-0.901,0-1.571-0.708-1.571-1.741C182.628,75.356,183.298,74.647,184.199,74.647z"/>
<path fill="#D1D3D4" d="M188.934,74.702l1.291,3.373h-0.714l-0.302-0.812h-1.264l-0.296,0.812h-0.703l1.291-3.373H188.934z
	 M188.165,76.668h0.824l-0.412-1.121L188.165,76.668z"/>
<path fill="#D1D3D4" d="M191.318,74.702h2.879v0.615h-1.088v2.758H192.4v-2.758h-1.083V74.702z"/>
<path fill="#D1D3D4" d="M198.799,74.702v3.373h-0.703v-1.417h-1.527v1.417h-0.703v-3.373h0.703v1.341h1.527v-1.341H198.799z"/>
<path fill="#D1D3D4" d="M202.947,74.702v0.615h-1.599v0.736h1.45v0.599h-1.45v0.802h1.599v0.621h-2.291v-3.373H202.947z"/>
<path fill="#D1D3D4" d="M205.402,76.817v1.258h-0.697v-3.373h1.39c0.708,0,1.181,0.379,1.181,1.071c0,0.538-0.297,0.879-0.769,0.994
	l0.89,1.308h-0.791l-0.835-1.258H205.402z M205.402,76.24h0.648c0.352,0,0.533-0.187,0.533-0.467c0-0.285-0.181-0.473-0.533-0.473
	h-0.648V76.24z"/>
<path fill="#D1D3D4" d="M209.714,78.075h-0.703v-3.373h0.703V78.075z"/>
<path fill="#D1D3D4" d="M214.387,78.075h-0.555l-1.593-2.247v2.247h-0.675v-3.373h0.659l1.489,2.132v-2.132h0.675V78.075z"/>
<path fill="#D1D3D4" d="M218.54,74.702v0.615h-1.599v0.736h1.45v0.599h-1.45v0.802h1.599v0.621h-2.291v-3.373H218.54z"/>
<path fill="#D1D3D4" d="M222.673,74.702h0.703v2.752h1.571v0.621h-2.274V74.702z"/>
<path fill="#D1D3D4" d="M229.495,78.075h-0.555l-1.593-2.247v2.247h-0.676v-3.373h0.659l1.488,2.132v-2.132h0.676V78.075z"/>
<polyline points="229.095,51.86 229.095,51.964 229.095,58.651 231.776,58.651 231.776,58.058 234.612,58.058 234.612,57.069 
	239.007,57.069 239.007,58.432 243.479,58.431 243.479,51.964 "/>
<g>
	<defs>
		<rect id="SVGID_1_" x="166.95" y="50.791" width="78.41" height="17.694"/>
	</defs>
	<clipPath id="SVGID_2_">
		<use xlink:href="#SVGID_1_"  overflow="visible"/>
	</clipPath>
	<polygon clip-path="url(#SVGID_2_)" fill="none" stroke="#D0D2D3" stroke-width="0.764" stroke-miterlimit="10" points="
		243.479,51.964 243.479,67.311 167.895,62.608 167.93,51.964 	"/>
</g>
<path fill="#D1D3D4" d="M8.187,58.642l0.527,0.329l-2.037,1.326l1.176,0.735l-0.46,0.3L5.69,60.267L8.187,58.642z"/>
<path fill="#D1D3D4" d="M12.974,61.635l-0.455,0.297l-1.197-0.75l-0.545,0.355l1.086,0.68l-0.443,0.288l-1.086-0.68L9.74,62.211
	l1.197,0.75l-0.46,0.299l-1.716-1.072l2.497-1.626L12.974,61.635z"/>
<path fill="#D1D3D4" d="M12.899,64.826c-0.704-0.44-0.648-1.101,0.096-1.585c0.748-0.487,1.778-0.533,2.482-0.094
	c0.703,0.441,0.656,1.102-0.092,1.589C14.641,65.22,13.602,65.266,12.899,64.826z M15.013,63.45
	c-0.399-0.25-0.995-0.192-1.483,0.125c-0.488,0.318-0.567,0.699-0.167,0.949c0.403,0.252,1.003,0.197,1.492-0.12
	S15.417,63.702,15.013,63.45z"/>
<path fill="#D1D3D4" d="M17.601,67.715l-0.415-0.26l0.471-1.829l-1.664,1.083l-0.506-0.316l2.497-1.626l0.493,0.309L18.015,66.8
	l1.578-1.027l0.506,0.316L17.601,67.715z"/>
<path fill="#D1D3D4" d="M22.876,67.827l-1.53,2.23l-0.535-0.335l0.377-0.533l-0.946-0.592l-0.824,0.253l-0.527-0.329l3.464-1.021
	L22.876,67.827z M20.846,68.415l0.616,0.386l0.521-0.733L20.846,68.415z"/>
<path fill="#D1D3D4" d="M24.088,70.583l-0.932,0.606l-0.522-0.327l2.497-1.625l1.041,0.651c0.531,0.332,0.605,0.736,0.093,1.069
	c-0.399,0.26-0.874,0.284-1.313,0.119l-0.301,1.047l-0.593-0.371l0.307-0.997L24.088,70.583z M24.515,70.305l0.486,0.304
	c0.264,0.165,0.537,0.159,0.745,0.024c0.211-0.138,0.215-0.312-0.049-0.477l-0.486-0.305L24.515,70.305z"/>
<path fill="#D1D3D4" d="M28.433,71.301l0.893,0.559c0.766,0.479,0.759,1.098-0.001,1.592c-0.761,0.495-1.73,0.512-2.496,0.033
	l-0.893-0.559L28.433,71.301z M27.269,73.172c0.48,0.302,1.049,0.268,1.533-0.047c0.488-0.318,0.529-0.681,0.049-0.982L28.5,71.924
	l-1.582,1.029L27.269,73.172z"/>
<path fill="#D1D3D4" d="M32.366,76.04c-0.149,0.187-0.065,0.367,0.182,0.522c0.255,0.159,0.537,0.19,0.736,0.062
	c0.15-0.099,0.142-0.207-0.027-0.375l-0.351-0.35c-0.28-0.279-0.37-0.579,0.042-0.846c0.451-0.295,1.147-0.264,1.678,0.067
	c0.576,0.36,0.608,0.765,0.269,1.092l-0.522-0.327c0.108-0.145,0.095-0.319-0.169-0.483c-0.238-0.149-0.513-0.177-0.691-0.06
	c-0.143,0.093-0.134,0.207,0.011,0.355l0.355,0.356c0.317,0.317,0.336,0.626-0.042,0.872c-0.484,0.314-1.18,0.254-1.715-0.081
	c-0.562-0.353-0.686-0.782-0.297-1.146L32.366,76.04z"/>
<path fill="#D1D3D4" d="M36.765,76.511l2.156,1.349l-0.455,0.297l-0.814-0.51l-2.042,1.328l-0.531-0.332l2.042-1.328l-0.811-0.507
	L36.765,76.511z"/>
<line fill="none" stroke="#000000" stroke-width="0.119" stroke-miterlimit="10" x1="58.421" y1="48.326" x2="58.421" y2="44.7"/>
<line fill="none" stroke="#000000" stroke-width="0.119" stroke-miterlimit="10" x1="9.994" y1="19.284" x2="9.994" y2="16.284"/>
<line fill="none" stroke="#000000" stroke-width="0.119" stroke-miterlimit="10" x1="20.062" y1="23.178" x2="20.062" y2="24.85"/>
<line fill="none" stroke="#000000" stroke-width="0.119" stroke-miterlimit="10" x1="15.617" y1="20.649" x2="15.617" y2="22.321"/>
<line fill="none" stroke="#000000" stroke-width="0.119" stroke-miterlimit="10" x1="21.261" y1="22.521" x2="21.261" y2="24.193"/>
<line fill="none" stroke="#000000" stroke-width="0.112" stroke-miterlimit="10" x1="21.269" y1="24.167" x2="20.048" y2="24.881"/>
<line fill="none" stroke="#000000" stroke-width="0.112" stroke-miterlimit="10" x1="21.208" y1="22.583" x2="20.078" y2="23.245"/>
<line fill="none" stroke="#000000" stroke-width="0.112" stroke-miterlimit="10" x1="51.821" y1="36.96" x2="46.944" y2="39.814"/>
<line fill="none" stroke="#000000" stroke-width="0.112" stroke-miterlimit="10" x1="55.558" y1="39.936" x2="51.378" y2="42.381"/>
<line fill="none" stroke="#000000" stroke-width="0.119" stroke-miterlimit="10" x1="27.123" y1="25.899" x2="27.123" y2="27.571"/>
<line fill="none" stroke="#000000" stroke-width="0.112" stroke-miterlimit="10" x1="31.205" y1="24.538" x2="50.934" y2="37.495"/>
<line fill="none" stroke="#000000" stroke-width="0.112" stroke-miterlimit="10" x1="51.797" y1="36.955" x2="55.557" y2="39.424"/>
<line fill="none" stroke="#000000" stroke-width="0.112" stroke-miterlimit="10" x1="31.205" y1="24.024" x2="51.316" y2="37.231"/>
<line fill="none" stroke="#000000" stroke-width="0.112" stroke-miterlimit="10" x1="7.62" y1="18.303" x2="9.667" y2="19.489"/>
<line fill="none" stroke="#000000" stroke-width="0.112" stroke-miterlimit="10" x1="15.617" y1="20.649" x2="20.062" y2="23.227"/>
<line fill="none" stroke="#000000" stroke-width="0.112" stroke-miterlimit="10" x1="21.274" y1="22.583" x2="27.182" y2="26.004"/>
<line fill="none" stroke="#000000" stroke-width="0.112" stroke-miterlimit="10" x1="21.242" y1="24.168" x2="27.123" y2="27.575"/>
<line fill="none" stroke="#000000" stroke-width="0.112" stroke-miterlimit="10" x1="46.965" y1="39.822" x2="51.386" y2="42.383"/>
<line fill="none" stroke="#000000" stroke-width="0.119" stroke-miterlimit="10" x1="58.398" y1="37.862" x2="58.398" y2="36.082"/>
<polyline fill="none" stroke="#000000" stroke-width="0.119" stroke-miterlimit="10" points="50.975,45.759 50.27,45.335 
	49.383,45.856 11.204,23.737 11.204,21.865 "/>
<polyline fill="none" stroke="#000000" stroke-width="0.119" stroke-miterlimit="10" points="20.776,17.688 16.99,15.202 
	8.386,20.239 49.382,43.979 "/>
<line fill="none" stroke="#000000" stroke-width="0.119" stroke-miterlimit="10" x1="49.382" y1="43.979" x2="49.382" y2="45.852"/>
<line fill="none" stroke="#000000" stroke-width="0.119" stroke-miterlimit="10" x1="50.273" y1="43.447" x2="49.382" y2="43.969"/>
<polyline fill="none" stroke="#000000" stroke-width="0.119" stroke-miterlimit="10" points="50.273,45.336 50.273,43.447 
	46.966,41.53 "/>
<line fill="none" stroke="#000000" stroke-width="0.119" stroke-miterlimit="10" x1="58.46" y1="51.764" x2="58.46" y2="49.705"/>
<polyline fill="none" stroke="#000000" stroke-width="0.119" stroke-miterlimit="10" points="62.961,43.961 65.462,45.604 
	65.462,47.672 58.459,51.771 50.976,47.435 50.976,45.374 53.984,43.612 "/>
<polyline fill="none" stroke="#000000" stroke-width="0.119" stroke-miterlimit="10" points="65.463,45.604 58.458,49.704 
	50.975,45.374 "/>
<polyline fill="none" stroke="#000000" stroke-width="0.112" stroke-miterlimit="10" points="9.136,20.661 9.136,21.67 
	11.204,22.879 "/>
<line fill="none" stroke="#000000" stroke-width="0.112" stroke-miterlimit="10" x1="15.617" y1="22.319" x2="20.062" y2="24.893"/>
<line fill="none" stroke="#000000" stroke-width="0.109" stroke-miterlimit="10" x1="46.946" y1="41.522" x2="46.946" y2="39.821"/>
<line fill="none" stroke="#000000" stroke-width="0.109" stroke-miterlimit="10" x1="51.385" y1="45.101" x2="51.385" y2="42.387"/>
<polyline fill="none" stroke="#000000" stroke-width="0.112" stroke-miterlimit="10" points="61.331,36.989 58.425,38.69 
	55.558,37.026 "/>
<polyline fill="none" stroke="#000000" stroke-width="0.119" stroke-miterlimit="10" points="61.331,40.686 61.605,40.845 
	61.605,42.114 58.432,43.969 55.234,42.118 55.234,40.946 55.558,40.755 "/>
<line fill="none" stroke="#000000" stroke-width="0.119" stroke-miterlimit="10" x1="58.428" y1="43.965" x2="58.428" y2="38.69"/>
<polyline fill="none" stroke="#000000" stroke-width="0.119" stroke-miterlimit="10" points="61.605,41.243 62.961,42.029 
	62.961,45.678 58.42,48.332 53.983,45.76 53.983,42.102 55.234,41.371 "/>
<polyline fill="none" stroke="#000000" stroke-width="0.119" stroke-miterlimit="10" points="62.961,42.029 58.421,44.7 
	54.019,42.149 "/>
<polyline fill="none" stroke="#000000" stroke-width="0.119" stroke-miterlimit="10" points="7.62,18.283 3.277,20.825 
	3.277,51.303 "/>
<polyline fill="none" stroke="#000000" stroke-width="0.119" stroke-miterlimit="10" points="12.426,15.469 15.468,13.689 
	21.192,17.448 "/>
<line fill="none" stroke="#000000" stroke-width="0.119" stroke-miterlimit="10" x1="58.421" y1="52.771" x2="58.392" y2="80.286"/>
<line fill="none" stroke="#000000" stroke-width="0.117" stroke-miterlimit="10" x1="58.407" y1="80.268" x2="28.963" y2="63.209"/>
<polyline fill="none" stroke="#000000" stroke-width="0.117" stroke-miterlimit="10" points="66.747,52.504 58.422,57.356 
	3.338,25.445 "/>
<polyline fill="none" stroke="#000000" stroke-width="0.117" stroke-miterlimit="10" points="66.747,54.796 58.422,59.649 
	3.338,27.739 "/>
<polyline fill="none" stroke="#000000" stroke-width="0.117" stroke-miterlimit="10" points="66.747,57.09 58.422,61.943 
	3.338,30.031 "/>
<polyline fill="none" stroke="#000000" stroke-width="0.117" stroke-miterlimit="10" points="66.747,59.383 58.422,64.235 
	3.338,32.324 "/>
<polyline fill="none" stroke="#000000" stroke-width="0.117" stroke-miterlimit="10" points="66.747,61.676 58.422,66.528 
	3.338,34.618 "/>
<polyline fill="none" stroke="#000000" stroke-width="0.117" stroke-miterlimit="10" points="66.747,63.969 58.422,68.822 
	3.338,36.911 "/>
<polyline fill="none" stroke="#000000" stroke-width="0.117" stroke-miterlimit="10" points="66.747,66.262 58.422,71.116 
	3.338,39.204 "/>
<polyline fill="none" stroke="#000000" stroke-width="0.117" stroke-miterlimit="10" points="66.747,68.555 58.422,73.407 
	3.338,41.497 "/>
<line fill="none" stroke="#000000" stroke-width="0.117" stroke-miterlimit="10" x1="66.747" y1="70.848" x2="64.788" y2="71.991"/>
<polyline fill="none" stroke="#000000" stroke-width="0.117" stroke-miterlimit="10" points="60.367,74.567 58.422,75.701 
	3.339,43.79 "/>
<line fill="none" stroke="#000000" stroke-width="0.117" stroke-miterlimit="10" x1="64.788" y1="74.283" x2="66.747" y2="73.141"/>
<polyline fill="none" stroke="#000000" stroke-width="0.117" stroke-miterlimit="10" points="60.367,76.86 58.422,77.994 
	3.339,46.083 "/>
<polyline fill="none" stroke="#000000" stroke-width="0.117" stroke-miterlimit="10" points="66.747,50.21 58.422,55.063 
	3.338,23.151 "/>
<line fill="none" stroke="#000000" stroke-width="0.117" stroke-miterlimit="10" x1="26.637" y1="61.862" x2="3.329" y2="48.358"/>
<polyline fill="none" stroke="#000000" stroke-width="0.112" stroke-miterlimit="10" points="8.877,14.174 7.62,14.909 7.62,18.303 
	"/>
<polyline fill="none" stroke="#000000" stroke-width="0.112" stroke-miterlimit="10" points="11.256,14.184 12.425,14.862 
	12.425,17.844 "/>
<polyline fill="none" stroke="#000000" stroke-width="0.112" stroke-miterlimit="10" points="7.62,14.909 9.994,16.284 
	12.425,14.862 "/>
<polyline fill="none" stroke="#000000" stroke-width="0.119" stroke-miterlimit="10" points="59.407,34.718 60.028,35.126 
	60.028,36.911 58.398,37.864 56.752,36.909 56.752,35.127 57.6,34.63 "/>
<polyline fill="none" stroke="#000000" stroke-width="0.112" stroke-miterlimit="10" points="60.03,35.127 58.397,36.083 
	56.75,35.127 "/>
<g>
	<defs>
		<rect id="SVGID_3_" x="1.905" y="4.311" width="69.784" height="77.68"/>
	</defs>
	<clipPath id="SVGID_4_">
		<use xlink:href="#SVGID_3_"  overflow="visible"/>
	</clipPath>
	<path clip-path="url(#SVGID_4_)" fill="none" stroke="#000000" stroke-width="0.119" stroke-miterlimit="10" d="M56.881,33.208
		c-0.035,0.07-0.156,0.203-0.168,0.257l0.1,0.265c0.1,0.133,0.466,0.256,1.077,0.082c0.611-0.172,1.891-0.852,2.009-1.539
		l-0.206-0.385c0,0-0.189-0.061-0.398-0.008"/>
</g>
<polyline fill="none" stroke="#000000" stroke-width="0.119" stroke-miterlimit="10" points="57.455,30.695 58.324,31.116 
	58.591,31.004 59.192,30.161 "/>
<g>
	<defs>
		<rect id="SVGID_5_" x="1.905" y="4.311" width="69.784" height="77.68"/>
	</defs>
	<clipPath id="SVGID_6_">
		<use xlink:href="#SVGID_5_"  overflow="visible"/>
	</clipPath>
	<path clip-path="url(#SVGID_6_)" fill="none" stroke="#000000" stroke-width="0.119" stroke-miterlimit="10" d="M59.748,32.62
		c0.044,0.195,0.049,0.404,0.006,0.613c-0.16,0.783-0.927,1.291-1.711,1.129c-0.304-0.061-0.566-0.215-0.764-0.424l-0.06-0.046"/>
	<path clip-path="url(#SVGID_6_)" fill="none" stroke="#000000" stroke-width="0.119" stroke-miterlimit="10" d="M56.994,33.518
		c-0.048-0.112-0.082-0.23-0.101-0.356c-0.121-0.792,0.424-1.531,1.216-1.651c0.487-0.074,0.929,0.075,1.27,0.435
		c0.171,0.192,0.233,0.344,0.233,0.344"/>
	<path clip-path="url(#SVGID_6_)" fill="none" stroke="#000000" stroke-width="0.119" stroke-miterlimit="10" d="M57.784,39.766
		c0.243,0.695,0.052,1.26-0.425,1.262c-0.477,0.001-1.06-0.562-1.303-1.257c-0.243-0.696-0.052-1.261,0.425-1.263
		C56.958,38.508,57.541,39.07,57.784,39.766z"/>
	<path clip-path="url(#SVGID_6_)" fill="none" stroke="#000000" stroke-width="0.119" stroke-miterlimit="10" d="M59.025,39.79
		c-0.243,0.695-0.052,1.26,0.425,1.262c0.477,0.001,1.06-0.562,1.303-1.258c0.242-0.695,0.052-1.26-0.425-1.262
		S59.268,39.093,59.025,39.79z"/>
	
		<path clip-path="url(#SVGID_6_)" fill="none" stroke="#000000" stroke-width="0.112" stroke-linejoin="bevel" stroke-miterlimit="10" d="
		M59.403,34.797c0,0,0.004-0.125-0.008-0.155c-0.012-0.031-0.03-0.058-0.079-0.07c-0.049-0.013-0.255,0.048-0.255,0.048
		s-0.002-0.035-0.002-0.082v-0.035l0.077-0.332"/>
	<path clip-path="url(#SVGID_6_)" fill="none" stroke="#000000" stroke-width="0.112" stroke-miterlimit="10" d="M58.716,34.784
		c-0.016,0.061,0.046,0.125,0.058,0.166c0.019,0.062,0.158,0.104,0.28,0.016"/>
</g>
<polyline fill="none" stroke="#000000" stroke-width="0.112" stroke-miterlimit="10" points="57.941,35.343 57.941,35.209 
	58.128,34.895 58.096,34.784 57.749,34.726 57.44,34.536 57.566,34.172 "/>
<polyline fill="none" stroke="#000000" stroke-width="0.119" stroke-miterlimit="10" points="56.752,36.327 55.557,37.026 
	55.557,40.918 58.431,42.583 61.331,40.888 61.331,36.989 60.033,36.237 "/>
<g>
	<defs>
		<rect id="SVGID_7_" x="1.905" y="4.311" width="69.784" height="77.68"/>
	</defs>
	<clipPath id="SVGID_8_">
		<use xlink:href="#SVGID_7_"  overflow="visible"/>
	</clipPath>
	<path clip-path="url(#SVGID_8_)" fill="none" stroke="#000000" stroke-width="0.112" stroke-miterlimit="10" d="M9.869,12.864
		c-0.563,0.098-0.992,0.608-0.992,1.224v0.864c0,0.337,0.533,0.611,1.19,0.611c0.657,0,1.19-0.274,1.19-0.611v-0.864
		c0-0.615-0.43-1.125-0.992-1.224v-0.131c0-0.062-0.076-0.133-0.199-0.133c-0.121,0-0.197,0.071-0.197,0.133V12.864z"/>
</g>
<polyline fill="none" stroke="#000000" stroke-width="0.119" stroke-miterlimit="10" points="66.747,47.917 58.422,52.77 
	3.338,20.86 "/>
<polyline fill="none" stroke="#000000" stroke-width="0.119" stroke-miterlimit="10" points="28.962,63.631 27.354,62.701 
	25.904,63.547 27.912,64.708 28.962,64.096 "/>
<line fill="none" stroke="#000000" stroke-width="0.119" stroke-miterlimit="10" x1="28.962" y1="63.631" x2="27.354" y2="62.701"/>
<line fill="none" stroke="#000000" stroke-width="0.119" stroke-miterlimit="10" x1="28.963" y1="64.972" x2="28.208" y2="64.536"/>
<g>
	<defs>
		<rect id="SVGID_9_" x="1.905" y="4.311" width="69.784" height="77.68"/>
	</defs>
	<clipPath id="SVGID_10_">
		<use xlink:href="#SVGID_9_"  overflow="visible"/>
	</clipPath>
	<path clip-path="url(#SVGID_10_)" fill="none" stroke="#000000" stroke-width="0.119" stroke-miterlimit="10" d="M27.681,60.875
		c-0.219,0.187-0.323,0.502-0.323,0.664v1.187"/>
</g>
<polyline fill="none" stroke="#000000" stroke-width="0.119" stroke-miterlimit="10" points="27.042,64.205 26.632,64.444 
	3.277,51.287 "/>
<line fill="none" stroke="#000000" stroke-width="0.119" stroke-miterlimit="10" x1="26.635" y1="64.443" x2="26.635" y2="63.97"/>
<g>
	<defs>
		<rect id="SVGID_11_" x="1.905" y="4.311" width="69.784" height="77.68"/>
	</defs>
	<clipPath id="SVGID_12_">
		<use xlink:href="#SVGID_11_"  overflow="visible"/>
	</clipPath>
	<path clip-path="url(#SVGID_12_)" fill="none" stroke="#000000" stroke-width="0.119" stroke-miterlimit="10" d="M64.788,76.55
		v-4.438l-4.421,2.455v4.567l-1.977,1.153l-14.818-7.014L31.686,67.29l-2.724-1.533v-3.119c0-0.202-0.189-1.15-1.163-1.714
		c-0.821-0.478-1.164,0.373-1.164,0.673v1.525"/>
</g>
<polyline fill="none" stroke="#000000" stroke-width="0.119" stroke-miterlimit="10" points="61.66,76.867 61.66,75.713 
	60.941,76.131 60.941,77.284 "/>
<g>
	<defs>
		<rect id="SVGID_13_" x="1.905" y="4.311" width="69.784" height="77.68"/>
	</defs>
	<clipPath id="SVGID_14_">
		<use xlink:href="#SVGID_13_"  overflow="visible"/>
	</clipPath>
	<path clip-path="url(#SVGID_14_)" fill="none" stroke="#000000" stroke-width="0.119" stroke-miterlimit="10" d="M65.463,47.098
		l1.273,0.836v27.488l-1.948,1.128c-0.067-0.025-1.669-0.493-2.957,0.22l-1.017,0.59c-0.198,0.102-0.34,0.213-0.447,0.33"/>
</g>
<polyline fill="none" stroke="#000000" stroke-width="0.112" stroke-miterlimit="10" points="27.123,27.571 31.206,25.139 
	31.206,23.565 21.583,17.221 15.619,20.67 "/>
<line fill="none" stroke="#000000" stroke-width="0.112" stroke-miterlimit="10" x1="31.205" y1="23.557" x2="27.133" y2="25.958"/>
<g>
	<defs>
		<rect id="SVGID_15_" x="1.905" y="4.311" width="69.784" height="77.68"/>
	</defs>
	<clipPath id="SVGID_16_">
		<use xlink:href="#SVGID_15_"  overflow="visible"/>
	</clipPath>
	<path clip-path="url(#SVGID_16_)" fill="none" stroke="#000000" stroke-width="0.112" stroke-miterlimit="10" d="M164.52,12.481
		c0.243,0.696,0.052,1.262-0.425,1.262c-0.477,0.002-1.06-0.562-1.303-1.256c-0.242-0.697-0.051-1.261,0.425-1.263
		C163.694,11.223,164.277,11.786,164.52,12.481z"/>
	<path clip-path="url(#SVGID_16_)" fill="none" stroke="#000000" stroke-width="0.112" stroke-miterlimit="10" d="M165.762,12.504
		c-0.243,0.696-0.051,1.26,0.425,1.262c0.477,0.002,1.06-0.562,1.303-1.256c0.242-0.697,0.052-1.262-0.425-1.263
		S166.004,11.809,165.762,12.504z"/>
	<path clip-path="url(#SVGID_16_)" fill="none" stroke="#000000" stroke-width="0.112" stroke-miterlimit="10" d="M163.618,5.923
		c-0.036,0.07-0.156,0.203-0.168,0.257l0.1,0.265c0.1,0.133,0.466,0.256,1.077,0.083c0.611-0.174,1.891-0.852,2.009-1.54
		l-0.206-0.386c0,0-0.189-0.06-0.398-0.007"/>
	<path clip-path="url(#SVGID_16_)" fill="none" stroke="#000000" stroke-width="0.112" stroke-miterlimit="10" d="M166.484,5.336
		c0.044,0.195,0.048,0.403,0.006,0.612c-0.16,0.784-0.927,1.291-1.711,1.13c-0.304-0.061-0.566-0.215-0.765-0.424l-0.059-0.046"/>
	<path clip-path="url(#SVGID_16_)" fill="none" stroke="#000000" stroke-width="0.112" stroke-miterlimit="10" d="M163.73,6.233
		c-0.048-0.111-0.082-0.23-0.101-0.356c-0.121-0.791,0.424-1.531,1.216-1.652c0.487-0.074,0.929,0.076,1.27,0.435
		c0.171,0.193,0.233,0.344,0.233,0.344"/>
	<path clip-path="url(#SVGID_16_)" fill="none" stroke="#000000" stroke-width="0.112" stroke-miterlimit="10" d="M166.14,7.514
		c0,0,0.005-0.126-0.008-0.156c-0.011-0.031-0.03-0.058-0.078-0.07c-0.05-0.013-0.255,0.046-0.255,0.046s-0.003-0.034-0.003-0.08
		V7.217l0.077-0.331"/>
	<path clip-path="url(#SVGID_16_)" fill="none" stroke="#000000" stroke-width="0.112" stroke-miterlimit="10" d="M165.453,7.499
		c-0.016,0.061,0.046,0.125,0.058,0.168c0.019,0.061,0.158,0.103,0.28,0.015"/>
	<path clip-path="url(#SVGID_16_)" fill="#D1D3D4" d="M159.397,53.981c0.578,0.402,0.575,0.856,0.151,1.221l-0.506-0.353
		c0.152-0.194,0.16-0.393-0.123-0.59c-0.39-0.272-0.982-0.224-1.473,0.062c-0.486,0.283-0.62,0.655-0.23,0.928
		c0.283,0.197,0.594,0.21,0.916,0.129l0.506,0.353c-0.612,0.238-1.322,0.199-1.9-0.203c-0.652-0.455-0.598-1.108,0.191-1.566
		C157.718,53.502,158.745,53.526,159.397,53.981z"/>
	<path clip-path="url(#SVGID_16_)" fill="#D1D3D4" d="M162.863,56.452l-1.64,2.15l-0.517-0.361l0.402-0.514l-0.916-0.639
		l-0.835,0.212l-0.51-0.355l3.511-0.847L162.863,56.452z M160.805,56.936l0.597,0.416l0.557-0.705L160.805,56.936z"/>
	<path clip-path="url(#SVGID_16_)" fill="#D1D3D4" d="M164.66,57.704l2.086,1.455l-0.47,0.272l-0.788-0.549l-2.105,1.225
		l-0.514-0.358l2.105-1.225l-0.784-0.547L164.66,57.704z"/>
	<path clip-path="url(#SVGID_16_)" fill="#D1D3D4" d="M170.158,61.538l-2.575,1.498l-0.51-0.355l1.082-0.63l-1.106-0.771
		l-1.082,0.63l-0.509-0.355l2.575-1.498l0.509,0.355l-1.023,0.596l1.106,0.771l1.023-0.595L170.158,61.538z"/>
	<path clip-path="url(#SVGID_16_)" fill="#D1D3D4" d="M173.24,63.686l-0.47,0.272l-1.158-0.808l-0.562,0.327l1.051,0.733
		l-0.457,0.266l-1.051-0.733l-0.612,0.356l1.158,0.808l-0.474,0.276l-1.66-1.158l2.575-1.498L173.24,63.686z"/>
	<path clip-path="url(#SVGID_16_)" fill="#D1D3D4" d="M173.477,65.917l-0.96,0.559l-0.505-0.353l2.575-1.498l1.007,0.702
		c0.514,0.357,0.567,0.765,0.039,1.072c-0.411,0.239-0.887,0.24-1.317,0.053l-0.354,1.031l-0.573-0.4l0.356-0.98L173.477,65.917z
		 M173.917,65.661l0.471,0.327c0.255,0.178,0.527,0.186,0.741,0.062c0.218-0.127,0.231-0.301-0.024-0.479l-0.471-0.328
		L173.917,65.661z"/>
	<path clip-path="url(#SVGID_16_)" fill="#D1D3D4" d="M175.715,68.705l-0.51-0.355l2.575-1.498l0.51,0.355L175.715,68.705z"/>
	<path clip-path="url(#SVGID_16_)" fill="#D1D3D4" d="M179.181,71.121l-0.402-0.28l0.561-1.803l-1.715,0.998l-0.489-0.342
		l2.575-1.498l0.478,0.333l-0.548,1.699l1.627-0.946l0.489,0.341L179.181,71.121z"/>
	<path clip-path="url(#SVGID_16_)" fill="#D1D3D4" d="M184.837,71.771l-0.47,0.273l-1.158-0.808l-0.562,0.326l1.052,0.733
		l-0.457,0.266l-1.052-0.732l-0.612,0.356l1.158,0.807l-0.474,0.276l-1.659-1.157l2.575-1.498L184.837,71.771z"/>
	<path clip-path="url(#SVGID_16_)" fill="#D1D3D4" d="M187.981,73.963l0.51,0.355l-2.101,1.222l1.139,0.794l-0.474,0.275
		l-1.648-1.148L187.981,73.963z"/>
	<path clip-path="url(#SVGID_16_)" fill="#D1D3D4" d="M190.423,78.959l-0.402-0.281l0.561-1.803l-1.715,0.998l-0.489-0.342
		l2.575-1.498l0.478,0.334l-0.548,1.698l1.627-0.946l0.489,0.342L190.423,78.959z"/>
	<path clip-path="url(#SVGID_16_)" fill="none" stroke="#000000" stroke-width="0.112" stroke-miterlimit="10" d="M209.923,75.2
		v-0.661c0-0.104-0.044-0.222-0.131-0.297"/>
	<path clip-path="url(#SVGID_16_)" fill="none" stroke="#000000" stroke-width="0.112" stroke-miterlimit="10" d="M210.405,75.503
		v-0.965c0-0.231-0.201-0.537-0.667-0.272c-0.326,0.198-0.571,0.555-0.571,0.898v1.064l-4.775,2.815l-7.191-4.978l-9.095-6.217
		l-7.625-5.234l-15.464-11.111l-7.57-5.454V20.593"/>
	<path clip-path="url(#SVGID_16_)" fill="none" stroke="#000000" stroke-width="0.112" stroke-miterlimit="10" d="M208.522,43.212
		c-0.564,0.099-0.992,0.609-0.992,1.224v0.863c0,0.338,0.533,0.611,1.19,0.611c0.657,0,1.19-0.273,1.19-0.611v-0.863
		c0-0.614-0.43-1.125-0.992-1.224v-0.131c0-0.062-0.077-0.133-0.199-0.133c-0.121,0-0.197,0.071-0.197,0.133V43.212z"/>
</g>
<polygon points="3.339,20.895 3.278,36.833 12.176,41.965 12.176,25.979 "/>
<line fill="none" stroke="#FFFFFF" stroke-width="0.117" stroke-miterlimit="10" x1="3.277" y1="23.152" x2="12.175" y2="28.272"/>
<line fill="none" stroke="#FFFFFF" stroke-width="0.117" stroke-miterlimit="10" x1="3.277" y1="25.445" x2="12.175" y2="30.565"/>
<line fill="none" stroke="#FFFFFF" stroke-width="0.117" stroke-miterlimit="10" x1="3.277" y1="27.739" x2="12.175" y2="32.858"/>
<line fill="none" stroke="#FFFFFF" stroke-width="0.117" stroke-miterlimit="10" x1="3.277" y1="30.032" x2="12.175" y2="35.151"/>
<line fill="none" stroke="#FFFFFF" stroke-width="0.117" stroke-miterlimit="10" x1="3.277" y1="32.325" x2="12.175" y2="37.444"/>
<line fill="none" stroke="#FFFFFF" stroke-width="0.117" stroke-miterlimit="10" x1="3.277" y1="34.618" x2="12.175" y2="39.737"/>
<g>
	<defs>
		<rect id="SVGID_17_" x="78.377" y="1.539" width="63.715" height="80.452"/>
	</defs>
	<clipPath id="SVGID_18_">
		<use xlink:href="#SVGID_17_"  overflow="visible"/>
	</clipPath>
</g>
<polyline fill="none" stroke="#000000" stroke-width="0.117" stroke-miterlimit="10" points="140.733,47.926 130.328,53.804 
	83.399,22.897 "/>
<polyline fill="none" stroke="#000000" stroke-width="0.117" stroke-miterlimit="10" points="140.733,50.229 130.328,56.108 
	83.399,25.2 "/>
<polyline fill="none" stroke="#000000" stroke-width="0.117" stroke-miterlimit="10" points="140.733,52.533 130.328,58.41 
	83.399,27.502 "/>
<polyline fill="none" stroke="#000000" stroke-width="0.117" stroke-miterlimit="10" points="140.733,54.836 130.328,60.713 
	83.399,29.805 "/>
<polyline fill="none" stroke="#000000" stroke-width="0.117" stroke-miterlimit="10" points="140.733,57.139 130.328,63.016 
	83.399,32.108 "/>
<polyline fill="none" stroke="#000000" stroke-width="0.117" stroke-miterlimit="10" points="140.733,59.442 130.328,65.319 
	83.399,34.411 "/>
<polyline fill="none" stroke="#000000" stroke-width="0.117" stroke-miterlimit="10" points="140.733,61.745 130.328,67.622 
	83.399,36.714 "/>
<polyline fill="none" stroke="#000000" stroke-width="0.117" stroke-miterlimit="10" points="140.733,64.047 130.328,69.926 
	83.399,39.018 "/>
<polyline fill="none" stroke="#000000" stroke-width="0.117" stroke-miterlimit="10" points="140.733,66.35 130.328,72.229 
	83.399,41.321 "/>
<polyline fill="none" stroke="#000000" stroke-width="0.117" stroke-miterlimit="10" points="140.733,68.654 130.328,74.531 
	83.399,43.624 "/>
<polyline fill="none" stroke="#000000" stroke-width="0.117" stroke-miterlimit="10" points="140.733,70.958 130.328,76.834 
	83.399,45.927 "/>
<line fill="none" stroke="#000000" stroke-width="0.112" stroke-miterlimit="10" x1="92.297" y1="24.972" x2="92.297" y2="23.731"/>
<line fill="none" stroke="#000000" stroke-width="0.112" stroke-miterlimit="10" x1="96.863" y1="25.571" x2="96.863" y2="24.178"/>
<line fill="none" stroke="#000000" stroke-width="0.112" stroke-miterlimit="10" x1="93.12" y1="23.223" x2="93.12" y2="21.832"/>
<line fill="none" stroke="#000000" stroke-width="0.112" stroke-miterlimit="10" x1="101.259" y1="23.024" x2="101.259" y2="21.631"/>
<line fill="none" stroke="#000000" stroke-width="0.112" stroke-miterlimit="10" x1="131.586" y1="45.942" x2="131.586" y2="44.726"/>
<line fill="none" stroke="#000000" stroke-width="0.112" stroke-miterlimit="10" x1="114.707" y1="36.889" x2="114.707" y2="35.673"/>
<line fill="none" stroke="#000000" stroke-width="0.112" stroke-miterlimit="10" x1="90.746" y1="22.75" x2="90.746" y2="24.813"/>
<line fill="none" stroke="#000000" stroke-width="0.112" stroke-miterlimit="10" x1="98.206" y1="18.319" x2="98.206" y2="19.741"/>
<line fill="none" stroke="#000000" stroke-width="0.112" stroke-miterlimit="10" x1="131.586" y1="45.942" x2="132.245" y2="46.36"/>
<line fill="none" stroke="#000000" stroke-width="0.112" stroke-miterlimit="10" x1="95.651" y1="18.366" x2="95.651" y2="14.68"/>
<line fill="none" stroke="#000000" stroke-width="0.112" stroke-miterlimit="10" x1="88.247" y1="13.665" x2="88.247" y2="9.706"/>
<line fill="none" stroke="#000000" stroke-width="0.112" stroke-miterlimit="10" x1="91.096" y1="10.489" x2="91.096" y2="8.745"/>
<line fill="none" stroke="#000000" stroke-width="0.112" stroke-miterlimit="10" x1="91.079" y1="16.684" x2="91.079" y2="11.461"/>
<line fill="none" stroke="#000000" stroke-width="0.112" stroke-miterlimit="10" x1="94.021" y1="13.627" x2="94.021" y2="9.774"/>
<line fill="none" stroke="#000000" stroke-width="0.112" stroke-miterlimit="10" x1="91.096" y1="10.579" x2="91.096" y2="8.832"/>
<line fill="none" stroke="#000000" stroke-width="0.112" stroke-miterlimit="10" x1="94.294" y1="14.831" x2="94.294" y2="13.596"/>
<line fill="none" stroke="#000000" stroke-width="0.112" stroke-miterlimit="10" x1="87.914" y1="15" x2="87.914" y2="13.766"/>
<line fill="none" stroke="#000000" stroke-width="0.112" stroke-miterlimit="10" x1="90.823" y1="21.179" x2="90.823" y2="17.517"/>
<line fill="none" stroke="#000000" stroke-width="0.112" stroke-miterlimit="10" x1="86.673" y1="18.401" x2="86.673" y2="14.831"/>
<polyline fill="none" stroke="#000000" stroke-width="0.112" stroke-miterlimit="10" points="92.453,23.805 90.746,24.811 
	84.509,20.707 84.509,18.657 86.672,17.391 "/>
<line fill="none" stroke="#000000" stroke-width="0.112" stroke-miterlimit="10" x1="92.276" y1="23.766" x2="93.132" y2="23.262"/>
<line fill="none" stroke="#000000" stroke-width="0.112" stroke-miterlimit="10" x1="90.771" y1="21.159" x2="86.674" y2="18.459"/>
<line fill="none" stroke="#000000" stroke-width="0.112" stroke-miterlimit="10" x1="91.09" y1="15.334" x2="94.227" y2="13.49"/>
<line fill="none" stroke="#000000" stroke-width="0.112" stroke-miterlimit="10" x1="90.839" y1="16.934" x2="94.227" y2="14.942"/>
<g>
	<defs>
		<rect id="SVGID_19_" x="78.377" y="1.539" width="63.715" height="80.452"/>
	</defs>
	<clipPath id="SVGID_20_">
		<use xlink:href="#SVGID_19_"  overflow="visible"/>
	</clipPath>
	<path clip-path="url(#SVGID_20_)" fill="none" stroke="#000000" stroke-width="0.112" stroke-miterlimit="10" d="M90.472,12.481
		c0.243,0.696,0.052,1.262-0.425,1.262c-0.477,0.002-1.06-0.562-1.303-1.256c-0.242-0.697-0.051-1.261,0.425-1.263
		C89.646,11.223,90.229,11.786,90.472,12.481z"/>
	<path clip-path="url(#SVGID_20_)" fill="none" stroke="#000000" stroke-width="0.112" stroke-miterlimit="10" d="M91.714,12.504
		c-0.243,0.696-0.051,1.26,0.425,1.262c0.477,0.002,1.06-0.562,1.303-1.256c0.242-0.697,0.052-1.262-0.425-1.263
		S91.957,11.809,91.714,12.504z"/>
</g>
<line fill="none" stroke="#000000" stroke-width="0.112" stroke-miterlimit="10" x1="90.823" y1="17.551" x2="95.687" y2="14.692"/>
<line fill="none" stroke="#000000" stroke-width="0.112" stroke-miterlimit="10" x1="90.746" y1="21.207" x2="95.579" y2="18.366"/>
<line fill="none" stroke="#000000" stroke-width="0.112" stroke-miterlimit="10" x1="87.753" y1="13.766" x2="88.222" y2="13.491"/>
<line fill="none" stroke="#000000" stroke-width="0.112" stroke-miterlimit="10" x1="86.672" y1="14.816" x2="90.771" y2="17.516"/>
<line fill="none" stroke="#000000" stroke-width="0.112" stroke-miterlimit="10" x1="84.509" y1="18.643" x2="90.746" y2="22.75"/>
<line fill="none" stroke="#000000" stroke-width="0.112" stroke-miterlimit="10" x1="94.08" y1="13.442" x2="94.294" y2="13.596"/>
<line fill="none" stroke="#000000" stroke-width="0.112" stroke-miterlimit="10" x1="87.914" y1="14.09" x2="86.673" y2="14.831"/>
<line fill="none" stroke="#000000" stroke-width="0.112" stroke-miterlimit="10" x1="84.509" y1="19.887" x2="83.399" y2="20.549"/>
<line fill="none" stroke="#000000" stroke-width="0.112" stroke-miterlimit="10" x1="95.7" y1="16.67" x2="98.206" y2="18.319"/>
<line fill="none" stroke="#000000" stroke-width="0.112" stroke-miterlimit="10" x1="90.995" y1="11.604" x2="94.031" y2="9.786"/>
<line fill="none" stroke="#000000" stroke-width="0.112" stroke-miterlimit="10" x1="88.247" y1="9.745" x2="89.441" y2="9.042"/>
<line fill="none" stroke="#000000" stroke-width="0.112" stroke-miterlimit="10" x1="90.995" y1="10.646" x2="92.825" y2="9.569"/>
<line fill="none" stroke="#000000" stroke-width="0.112" stroke-miterlimit="10" x1="91.103" y1="8.875" x2="92.787" y2="7.886"/>
<line fill="none" stroke="#000000" stroke-width="0.112" stroke-miterlimit="10" x1="88.247" y1="9.706" x2="91.08" y2="11.641"/>
<line fill="none" stroke="#000000" stroke-width="0.112" stroke-miterlimit="10" x1="92.72" y1="8.843" x2="94.031" y2="9.708"/>
<line fill="none" stroke="#000000" stroke-width="0.112" stroke-miterlimit="10" x1="94.294" y1="13.92" x2="95.683" y2="14.834"/>
<line fill="none" stroke="#000000" stroke-width="0.112" stroke-miterlimit="10" x1="89.422" y1="9.516" x2="91.142" y2="10.645"/>
<line fill="none" stroke="#000000" stroke-width="0.112" stroke-miterlimit="10" x1="89.565" y1="7.896" x2="91.096" y2="8.904"/>
<line fill="none" stroke="#000000" stroke-width="0.112" stroke-miterlimit="10" x1="91.923" y1="7.324" x2="92.803" y2="7.905"/>
<g>
	<defs>
		<rect id="SVGID_21_" x="78.377" y="1.539" width="63.715" height="80.452"/>
	</defs>
	<clipPath id="SVGID_22_">
		<use xlink:href="#SVGID_21_"  overflow="visible"/>
	</clipPath>
	<path clip-path="url(#SVGID_22_)" fill="none" stroke="#000000" stroke-width="0.112" stroke-miterlimit="10" d="M89.57,5.923
		c-0.036,0.07-0.156,0.203-0.168,0.257l0.1,0.265c0.1,0.133,0.466,0.256,1.077,0.083c0.611-0.174,1.891-0.852,2.009-1.54
		l-0.206-0.386c0,0-0.189-0.06-0.398-0.007"/>
</g>
<polyline fill="none" stroke="#000000" stroke-width="0.112" stroke-miterlimit="10" points="90.145,3.411 91.013,3.832 91.28,3.72 
	91.881,2.875 "/>
<g>
	<defs>
		<rect id="SVGID_23_" x="78.377" y="1.539" width="63.715" height="80.452"/>
	</defs>
	<clipPath id="SVGID_24_">
		<use xlink:href="#SVGID_23_"  overflow="visible"/>
	</clipPath>
	<path clip-path="url(#SVGID_24_)" fill="none" stroke="#000000" stroke-width="0.112" stroke-miterlimit="10" d="M92.437,5.336
		c0.044,0.195,0.048,0.403,0.006,0.612c-0.16,0.784-0.927,1.291-1.711,1.13c-0.304-0.061-0.566-0.215-0.765-0.424l-0.059-0.046"/>
	<path clip-path="url(#SVGID_24_)" fill="none" stroke="#000000" stroke-width="0.112" stroke-miterlimit="10" d="M89.683,6.233
		c-0.048-0.111-0.082-0.23-0.101-0.356c-0.121-0.791,0.424-1.531,1.216-1.652c0.487-0.074,0.929,0.076,1.27,0.435
		c0.171,0.193,0.233,0.344,0.233,0.344"/>
	<path clip-path="url(#SVGID_24_)" fill="none" stroke="#000000" stroke-width="0.112" stroke-miterlimit="10" d="M92.092,7.514
		c0,0,0.005-0.126-0.008-0.156c-0.011-0.031-0.03-0.058-0.078-0.07c-0.05-0.013-0.255,0.046-0.255,0.046s-0.003-0.034-0.003-0.08
		V7.217l0.077-0.331"/>
	<path clip-path="url(#SVGID_24_)" fill="none" stroke="#000000" stroke-width="0.112" stroke-miterlimit="10" d="M91.405,7.499
		c-0.016,0.061,0.046,0.125,0.058,0.168c0.019,0.061,0.158,0.103,0.28,0.015"/>
</g>
<polyline fill="none" stroke="#000000" stroke-width="0.112" stroke-miterlimit="10" points="90.63,8.059 90.63,7.924 90.817,7.61 
	90.785,7.499 90.438,7.442 90.129,7.252 90.255,6.888 "/>
<line fill="none" stroke="#000000" stroke-width="0.112" stroke-miterlimit="10" x1="88.262" y1="13.491" x2="91.091" y2="15.354"/>
<line fill="none" stroke="#000000" stroke-width="0.112" stroke-miterlimit="10" x1="87.94" y1="14.813" x2="90.903" y2="16.764"/>
<line fill="none" stroke="#000000" stroke-width="0.112" stroke-miterlimit="10" x1="90.302" y1="7.262" x2="89.421" y2="7.843"/>
<line fill="none" stroke="#000000" stroke-width="0.112" stroke-miterlimit="10" x1="92.719" y1="9.619" x2="92.719" y2="7.977"/>
<line fill="none" stroke="#000000" stroke-width="0.112" stroke-miterlimit="10" x1="89.422" y1="9.516" x2="89.422" y2="7.832"/>
<line fill="none" stroke="#000000" stroke-width="0.112" stroke-miterlimit="10" x1="114.707" y1="35.673" x2="124.342" y2="41.801"/>
<line fill="none" stroke="#000000" stroke-width="0.112" stroke-miterlimit="10" x1="125.943" y1="36.174" x2="129.938" y2="38.522"/>
<line fill="none" stroke="#000000" stroke-width="0.112" stroke-miterlimit="10" x1="93.12" y1="23.242" x2="96.863" y2="25.623"/>
<line fill="none" stroke="#000000" stroke-width="0.112" stroke-miterlimit="10" x1="93.12" y1="21.784" x2="96.863" y2="24.165"/>
<line fill="none" stroke="#000000" stroke-width="0.112" stroke-miterlimit="10" x1="97.515" y1="19.25" x2="101.258" y2="21.631"/>
<line fill="none" stroke="#000000" stroke-width="0.112" stroke-miterlimit="10" x1="101.259" y1="22.329" x2="125.572" y2="36.281"/>
<line fill="none" stroke="#000000" stroke-width="0.112" stroke-miterlimit="10" x1="116.307" y1="34.364" x2="122.848" y2="38.118"/>
<polyline fill="none" stroke="#000000" stroke-width="0.112" stroke-miterlimit="10" points="135.583,43.637 135.934,43.43 
	135.934,42.227 129.929,38.782 "/>
<polyline fill="none" stroke="#000000" stroke-width="0.112" stroke-miterlimit="10" points="136.781,45.251 134.484,46.606 
	132.259,45.198 "/>
<line fill="none" stroke="#000000" stroke-width="0.112" stroke-miterlimit="10" x1="134.478" y1="48.682" x2="134.478" y2="46.606"/>
<polyline fill="none" stroke="#000000" stroke-width="0.112" stroke-miterlimit="10" points="131.586,45.942 128.289,47.874 
	92.287,24.972 "/>
<polyline fill="none" stroke="#000000" stroke-width="0.112" stroke-miterlimit="10" points="133.587,43.555 128.289,46.658 
	92.246,23.731 "/>
<line fill="none" stroke="#000000" stroke-width="0.112" stroke-miterlimit="10" x1="128.288" y1="47.874" x2="128.288" y2="46.659"/>
<line fill="none" stroke="#000000" stroke-width="0.112" stroke-miterlimit="10" x1="129.926" y1="38.523" x2="124.342" y2="41.793"/>
<polyline fill="none" stroke="#000000" stroke-width="0.112" stroke-miterlimit="10" points="129.938,38.523 129.938,39.699 
	124.361,42.963 114.706,36.822 "/>
<line fill="none" stroke="#000000" stroke-width="0.112" stroke-miterlimit="10" x1="124.342" y1="42.952" x2="124.342" y2="41.802"/>
<line fill="none" stroke="#000000" stroke-width="0.112" stroke-miterlimit="10" x1="125.943" y1="36.174" x2="122.536" y2="38.169"/>
<line fill="none" stroke="#000000" stroke-width="0.112" stroke-miterlimit="10" x1="116.75" y1="34.494" x2="114.707" y2="35.69"/>
<line fill="none" stroke="#000000" stroke-width="0.112" stroke-miterlimit="10" x1="101.259" y1="22.998" x2="96.864" y2="25.571"/>
<line fill="none" stroke="#000000" stroke-width="0.112" stroke-miterlimit="10" x1="101.259" y1="21.631" x2="96.864" y2="24.205"/>
<line fill="none" stroke="#000000" stroke-width="0.112" stroke-miterlimit="10" x1="97.504" y1="19.25" x2="93.109" y2="21.824"/>
<line fill="none" stroke="#000000" stroke-width="0.112" stroke-miterlimit="10" x1="98.206" y1="18.385" x2="90.838" y2="22.696"/>
<line fill="none" stroke="#000000" stroke-width="0.112" stroke-miterlimit="10" x1="135.876" y1="42.215" x2="134.719" y2="42.893"/>
<path fill="#D1D3D4" d="M85.35,53.982c0.577,0.403,0.575,0.856,0.149,1.221l-0.505-0.353c0.152-0.194,0.159-0.393-0.123-0.59
	c-0.391-0.271-0.981-0.223-1.473,0.062c-0.486,0.283-0.621,0.656-0.23,0.928c0.282,0.197,0.594,0.211,0.916,0.129l0.505,0.354
	c-0.61,0.238-1.321,0.199-1.898-0.204c-0.653-0.455-0.598-1.108,0.19-1.567C83.67,53.503,84.697,53.527,85.35,53.982z"/>
<path fill="#D1D3D4" d="M88.816,56.452l-1.64,2.15l-0.518-0.36l0.402-0.513l-0.915-0.639l-0.835,0.211l-0.51-0.355l3.51-0.846
	L88.816,56.452z M86.757,56.938l0.597,0.416l0.557-0.707L86.757,56.938z"/>
<path fill="#D1D3D4" d="M90.613,57.705l2.086,1.454l-0.47,0.273l-0.788-0.549l-2.105,1.225l-0.514-0.358l2.105-1.225l-0.784-0.547
	L90.613,57.705z"/>
<path fill="#D1D3D4" d="M96.107,61.536l-2.575,1.498l-0.51-0.355l1.082-0.63l-1.106-0.771l-1.082,0.629l-0.51-0.355l2.575-1.498
	l0.51,0.355l-1.023,0.596l1.106,0.771l1.023-0.595L96.107,61.536z"/>
<path fill="#D1D3D4" d="M99.184,63.68l-0.47,0.273l-1.158-0.807l-0.562,0.326l1.051,0.733l-0.457,0.266l-1.051-0.733l-0.612,0.357
	l1.158,0.807l-0.474,0.275l-1.659-1.156l2.575-1.498L99.184,63.68z"/>
<path fill="#D1D3D4" d="M99.417,65.909l-0.96,0.559l-0.506-0.352l2.575-1.498l1.007,0.701c0.514,0.357,0.567,0.766,0.038,1.073
	c-0.411,0.239-0.886,0.239-1.316,0.053l-0.353,1.03l-0.574-0.4l0.355-0.98L99.417,65.909z M99.858,65.653l0.47,0.327
	c0.254,0.178,0.528,0.187,0.742,0.062c0.218-0.127,0.229-0.301-0.025-0.479l-0.47-0.328L99.858,65.653z"/>
<path fill="#D1D3D4" d="M101.651,68.694l-0.509-0.355l2.575-1.498l0.509,0.355L101.651,68.694z"/>
<path fill="#D1D3D4" d="M105.113,71.108l-0.402-0.281l0.561-1.802l-1.715,0.997l-0.489-0.341l2.575-1.498l0.478,0.333l-0.549,1.699
	l1.628-0.947l0.489,0.342L105.113,71.108z"/>
<path fill="#D1D3D4" d="M110.766,71.755l-0.47,0.273l-1.159-0.808l-0.562,0.327l1.052,0.732l-0.457,0.267l-1.052-0.733l-0.612,0.356
	l1.159,0.808l-0.474,0.275l-1.66-1.157l2.575-1.498L110.766,71.755z"/>
<path fill="#D1D3D4" d="M113.902,73.942l0.51,0.355l-2.102,1.223l1.139,0.793l-0.474,0.275l-1.648-1.148L113.902,73.942z"/>
<path fill="#D1D3D4" d="M116.34,78.935l-0.402-0.28l0.561-1.803l-1.715,0.998l-0.489-0.342l2.575-1.498l0.478,0.333l-0.55,1.699
	l1.628-0.946l0.49,0.341L116.34,78.935z"/>
<polyline fill="none" stroke="#000000" stroke-width="0.112" stroke-miterlimit="10" points="140.733,45.624 130.328,51.5 
	83.399,20.594 "/>
<polyline fill="none" stroke="#000000" stroke-width="0.112" stroke-miterlimit="10" points="133.493,44.461 132.245,45.193 
	132.245,47.258 134.48,48.68 136.781,47.333 136.781,45.251 135.848,44.658 "/>
<line fill="none" stroke="#000000" stroke-width="0.112" stroke-miterlimit="10" x1="130.344" y1="51.51" x2="130.344" y2="79.043"/>
<line fill="none" stroke="#000000" stroke-width="0.112" stroke-miterlimit="10" x1="135.876" y1="75.2" x2="135.119" y2="75.646"/>
<polyline fill="none" stroke="#000000" stroke-width="0.112" stroke-miterlimit="10" points="135.876,75.2 136.352,75.502 
	140.733,72.92 140.733,45.609 135.934,42.855 "/>
<g>
	<defs>
		<rect id="SVGID_25_" x="78.377" y="1.539" width="63.715" height="80.452"/>
	</defs>
	<clipPath id="SVGID_26_">
		<use xlink:href="#SVGID_25_"  overflow="visible"/>
	</clipPath>
	<path clip-path="url(#SVGID_26_)" fill="none" stroke="#000000" stroke-width="0.112" stroke-miterlimit="10" d="M135.875,75.2
		v-0.661c0-0.104-0.044-0.222-0.131-0.297"/>
	<path clip-path="url(#SVGID_26_)" fill="none" stroke="#000000" stroke-width="0.112" stroke-miterlimit="10" d="M136.358,75.503
		v-0.965c0-0.231-0.201-0.537-0.667-0.272c-0.326,0.198-0.571,0.555-0.571,0.898v1.064l-4.775,2.815l-7.191-4.978l-9.095-6.217
		l-7.625-5.234L90.97,51.504L83.4,46.05V20.593"/>
	<path clip-path="url(#SVGID_26_)" fill="none" stroke="#000000" stroke-width="0.112" stroke-miterlimit="10" d="M134.475,43.212
		c-0.564,0.099-0.992,0.609-0.992,1.224v0.863c0,0.338,0.533,0.611,1.19,0.611c0.657,0,1.19-0.273,1.19-0.611v-0.863
		c0-0.614-0.43-1.125-0.992-1.224v-0.131c0-0.062-0.077-0.133-0.199-0.133c-0.121,0-0.197,0.071-0.197,0.133V43.212z"/>
</g>
<polygon points="136.921,47.817 136.921,63.898 140.733,61.745 140.733,45.627 "/>
<line fill="none" stroke="#FFFFFF" stroke-width="0.117" stroke-miterlimit="10" x1="136.921" y1="50.081" x2="140.733" y2="47.874"/>
<line fill="none" stroke="#FFFFFF" stroke-width="0.117" stroke-miterlimit="10" x1="136.921" y1="52.41" x2="140.733" y2="50.204"/>
<line fill="none" stroke="#FFFFFF" stroke-width="0.117" stroke-miterlimit="10" x1="136.921" y1="54.739" x2="140.733" y2="52.534"/>
<line fill="none" stroke="#FFFFFF" stroke-width="0.117" stroke-miterlimit="10" x1="136.921" y1="56.999" x2="140.733" y2="54.792"/>
<line fill="none" stroke="#FFFFFF" stroke-width="0.117" stroke-miterlimit="10" x1="136.921" y1="59.258" x2="140.733" y2="57.051"/>
<line fill="none" stroke="#FFFFFF" stroke-width="0.117" stroke-miterlimit="10" x1="136.921" y1="61.657" x2="140.733" y2="59.452"/>
</svg>
