<?xml version="1.0" encoding="utf-8"?>
<!-- Generator: Adobe Illustrator 23.0.0, SVG Export Plug-In . SVG Version: 6.00 Build 0)  -->
<svg version="1.1" id="Layer_1" xmlns="http://www.w3.org/2000/svg" xmlns:xlink="http://www.w3.org/1999/xlink" x="0px" y="0px"
	 viewBox="0 0 200.6 198.9" style="enable-background:new 0 0 200.6 198.9;" xml:space="preserve">
<style type="text/css">
	.st0{enable-background:new    ;}
	.st1{fill:#D1D3D4;}
	.st2{clip-path:url(#SVGID_2_);}
	.st3{fill:#231F20;}
	.st4{clip-path:url(#SVGID_4_);}
	.st5{opacity:0.5;}
	.st6{clip-path:url(#SVGID_6_);}
	.st7{clip-path:url(#SVGID_8_);}
	.st8{fill:none;stroke:#D1D3D4;stroke-width:0.5;stroke-miterlimit:10;}
	.st9{clip-path:url(#SVGID_10_);}
	.st10{fill:none;stroke:#D1D3D4;stroke-width:1.09;stroke-miterlimit:10;}
	.st11{clip-path:url(#SVGID_12_);}
	.st12{fill:none;stroke:#231F20;stroke-width:0.15;stroke-miterlimit:10;}
	.st13{fill:none;stroke:#231F20;stroke-width:0.14;stroke-miterlimit:10;}
	.st14{clip-path:url(#SVGID_14_);}
	.st15{clip-path:url(#SVGID_16_);}
	.st16{fill:none;stroke:#231F20;stroke-width:0.14;stroke-linejoin:bevel;}
	.st17{clip-path:url(#SVGID_18_);}
	.st18{clip-path:url(#SVGID_20_);}
	.st19{clip-path:url(#SVGID_22_);}
	.st20{clip-path:url(#SVGID_24_);}
	.st21{clip-path:url(#SVGID_26_);}
	.st22{fill:none;stroke:#FFFFFF;stroke-width:0.13;stroke-miterlimit:10;}
	.st23{clip-path:url(#SVGID_28_);}
	.st24{clip-path:url(#SVGID_30_);}
	.st25{clip-path:url(#SVGID_32_);}
	.st26{clip-path:url(#SVGID_34_);}
	.st27{clip-path:url(#SVGID_36_);}
	.st28{clip-path:url(#SVGID_38_);}
</style>
<title>residence_B_15_key</title>
<g>
	<g id="Layer_1_copy">
		<g>
			<g class="st0">
				<path class="st1" d="M34,143.2c-0.8,0-1.2-0.5-1.2-1.4V140h4.3v1.6c0,0.9-0.4,1.5-1.2,1.5c-0.5,0-0.8-0.3-0.9-0.6
					C34.9,142.9,34.5,143.2,34,143.2z M33.6,140.8v0.8c0,0.4,0.2,0.6,0.5,0.6c0.3,0,0.5-0.2,0.5-0.6v-0.8H33.6z M35.3,141.5
					c0,0.4,0.2,0.7,0.5,0.7c0.3,0,0.5-0.2,0.5-0.7v-0.7h-1V141.5z"/>
				<path class="st1" d="M34.4,145.7h-1.6v-0.9h4.3v1.8c0,0.9-0.5,1.5-1.4,1.5c-0.7,0-1.1-0.4-1.3-1l-1.7,1.1v-1l1.6-1.1V145.7z
					 M35.1,145.7v0.8c0,0.4,0.2,0.7,0.6,0.7c0.4,0,0.6-0.2,0.6-0.7v-0.8H35.1z"/>
			</g>
			<g class="st0">
				<path class="st1" d="M32.7,152.7c0-1.2,0.9-2,2.2-2c1.3,0,2.2,0.8,2.2,2c0,1.2-0.9,2-2.2,2C33.7,154.7,32.7,153.9,32.7,152.7z
					 M36.4,152.7c0-0.7-0.6-1.1-1.4-1.1c-0.8,0-1.4,0.4-1.4,1.1c0,0.7,0.6,1.1,1.4,1.1C35.8,153.8,36.4,153.4,36.4,152.7z"/>
			</g>
			<g class="st0">
				<path class="st1" d="M37.1,158.9l-4.3,1.6v-0.9l1-0.4v-1.6l-1-0.4v-0.9l4.3,1.6V158.9z M34.6,157.9v1.1l1.4-0.5L34.6,157.9z"/>
			</g>
			<g class="st0">
				<path class="st1" d="M37.1,162.6v1.5c0,1.3-0.8,2.1-2.2,2.1s-2.2-0.8-2.2-2.1v-1.5H37.1z M33.6,164.1c0,0.8,0.5,1.3,1.4,1.3
					c0.8,0,1.4-0.4,1.4-1.3v-0.6h-2.7V164.1z"/>
			</g>
			<g class="st0">
				<path class="st1" d="M37.1,171.1l-2.9,0.7l2.9,0.7v0.9l-4.3-1.1v-0.8l2.8-0.8l-2.8-0.8v-0.8l4.3-1.1v0.9l-2.9,0.7l2.9,0.8V171.1
					z"/>
			</g>
			<g class="st0">
				<path class="st1" d="M37.1,177.4l-4.3,1.6v-0.9l1-0.4v-1.6l-1-0.4v-0.9l4.3,1.6V177.4z M34.6,176.4v1.1l1.4-0.5L34.6,176.4z"/>
			</g>
			<g class="st0">
				<path class="st1" d="M37.1,183.3v0.9l-2.7-1.6h-1.6v-0.9h1.6l2.7-1.5v1l-1.8,1L37.1,183.3z"/>
			</g>
		</g>
		<g>
			<g class="st0">
				<path class="st1" d="M167.5,132.1v0.9H164v2h-0.8v-2.9H167.5z"/>
			</g>
			<g class="st0">
				<path class="st1" d="M167.5,139.4l-4.3,1.6v-0.9l1-0.4v-1.6l-1-0.4v-0.9l4.3,1.6V139.4z M165,138.4v1.1l1.4-0.5L165,138.4z"/>
			</g>
			<g class="st0">
				<path class="st1" d="M163.2,143.1h4.3v2.9h-0.8v-2h-1.1v1.8h-0.8V144h-1.6V143.1z"/>
			</g>
			<g class="st0">
				<path class="st1" d="M167.5,150.1l-4.3,1.6v-0.9l1-0.4v-1.6l-1-0.4v-0.9l4.3,1.6V150.1z M165,149.1v1.1l1.4-0.5L165,149.1z"/>
			</g>
			<g class="st0">
				<path class="st1" d="M167.5,156v0.9l-2.7-1.6h-1.6v-0.9h1.6l2.7-1.5v1l-1.8,1L167.5,156z"/>
				<path class="st1" d="M167.5,161.4h-0.8v-2h-0.9v1.8h-0.8v-1.8h-1v2h-0.8v-2.9h4.3V161.4z"/>
				<path class="st1" d="M167.5,162.8v3.7h-0.8v-1.4h-3.5v-0.9h3.5v-1.4H167.5z"/>
				<path class="st1" d="M167.5,167.8v3.7h-0.8v-1.4h-3.5v-0.9h3.5v-1.4H167.5z"/>
				<path class="st1" d="M167.5,176h-0.8v-2h-0.9v1.8h-0.8v-1.8h-1v2h-0.8V173h4.3V176z"/>
			</g>
			<g class="st0">
				<path class="st1" d="M164.5,184.1c-0.4,0.1-0.6,0.4-0.6,0.9c0,0.4,0.2,0.7,0.5,0.7c0.3,0,0.4-0.2,0.5-0.5l0.2-0.8
					c0.1-0.6,0.5-1.1,1.2-1.1c0.8,0,1.3,0.6,1.3,1.5c0,1-0.5,1.5-1.2,1.7v-0.9c0.3-0.1,0.5-0.3,0.5-0.8c0-0.4-0.2-0.7-0.5-0.7
					c-0.2,0-0.4,0.2-0.5,0.5l-0.2,0.8c-0.2,0.7-0.6,1.1-1.2,1.1c-0.8,0-1.3-0.7-1.3-1.6c0-1,0.5-1.6,1.3-1.8V184.1z"/>
			</g>
			<g class="st0">
				<path class="st1" d="M167.5,188.4v3.7h-0.8v-1.4h-3.5v-0.9h3.5v-1.4H167.5z"/>
			</g>
		</g>
		<g>
			<g class="st0">
				<path class="st1" d="M75.5,132.3h0.9v3.5h2v0.8h-2.9V132.3z"/>
				<path class="st1" d="M82.9,132.3v0.8h-2v0.9h1.8v0.8h-1.8v1h2v0.8H80v-4.3H82.9z"/>
			</g>
			<g class="st0">
				<path class="st1" d="M87.3,136.7c-1.2,0-2-0.9-2-2.2c0-1.3,0.8-2.2,2-2.2c1.2,0,2,0.9,2,2.2C89.3,135.8,88.5,136.7,87.3,136.7z
					 M87.3,133.1c-0.7,0-1.1,0.6-1.1,1.4c0,0.8,0.4,1.4,1.1,1.4c0.7,0,1.1-0.6,1.1-1.4C88.4,133.7,88,133.1,87.3,133.1z"/>
			</g>
			<g class="st0">
				<path class="st1" d="M94.9,136.7h-0.7l-2-2.9v2.9h-0.9v-4.3h0.8l1.9,2.7v-2.7h0.9V136.7z"/>
			</g>
			<g class="st0">
				<path class="st1" d="M99.4,132.3l1.6,4.3h-0.9l-0.4-1h-1.6l-0.4,1h-0.9l1.6-4.3H99.4z M98.4,134.9h1.1l-0.5-1.4L98.4,134.9z"/>
			</g>
			<g class="st0">
				<path class="st1" d="M103.8,135v1.6h-0.9v-4.3h1.8c0.9,0,1.5,0.5,1.5,1.4c0,0.7-0.4,1.1-1,1.3l1.1,1.7h-1l-1.1-1.6H103.8z
					 M103.8,134.3h0.8c0.4,0,0.7-0.2,0.7-0.6c0-0.4-0.2-0.6-0.7-0.6h-0.8V134.3z"/>
				<path class="st1" d="M107.9,132.3h1.5c1.3,0,2.1,0.8,2.1,2.2s-0.8,2.2-2.1,2.2h-1.5V132.3z M109.3,135.9c0.8,0,1.3-0.5,1.3-1.4
					c0-0.8-0.4-1.4-1.3-1.4h-0.6v2.7H109.3z"/>
			</g>
			<g class="st0">
				<path class="st1" d="M117.5,135.4c0.1,0.4,0.4,0.6,0.9,0.6c0.4,0,0.7-0.2,0.7-0.5c0-0.3-0.2-0.4-0.5-0.5l-0.8-0.2
					c-0.6-0.1-1.1-0.5-1.1-1.2c0-0.8,0.6-1.3,1.5-1.3c1,0,1.5,0.5,1.7,1.2H119c-0.1-0.3-0.3-0.5-0.8-0.5c-0.4,0-0.7,0.2-0.7,0.5
					c0,0.2,0.2,0.4,0.5,0.5l0.8,0.2c0.7,0.2,1.1,0.6,1.1,1.2c0,0.8-0.7,1.3-1.6,1.3c-1,0-1.6-0.5-1.8-1.3H117.5z"/>
			</g>
			<g class="st0">
				<path class="st1" d="M121.6,132.3h3.7v0.8h-1.4v3.5H123v-3.5h-1.4V132.3z"/>
			</g>
		</g>
		<g>
			<g class="st0">
				<path class="st1" d="M72.3,186c1,0,1.6,0.6,1.8,1.5h-0.9c-0.1-0.4-0.4-0.7-0.9-0.7c-0.7,0-1.1,0.6-1.1,1.4
					c0,0.8,0.4,1.4,1.1,1.4c0.5,0,0.8-0.3,0.9-0.7h0.9c-0.2,0.9-0.8,1.5-1.8,1.5c-1.1,0-2-0.9-2-2.2C70.3,186.9,71.2,186,72.3,186z"
					/>
			</g>
			<g class="st0">
				<path class="st1" d="M78.4,186l1.6,4.3h-0.9l-0.4-1h-1.6l-0.4,1h-0.9l1.6-4.3H78.4z M77.4,188.6h1.1l-0.5-1.4L77.4,188.6z"/>
			</g>
			<g class="st0">
				<path class="st1" d="M81.4,186h3.7v0.8h-1.4v3.5h-0.9v-3.5h-1.4V186z"/>
			</g>
			<g class="st0">
				<path class="st1" d="M90.9,186v4.3H90v-1.8h-1.9v1.8h-0.9V186h0.9v1.7H90V186H90.9z"/>
			</g>
			<g class="st0">
				<path class="st1" d="M96.2,186v0.8h-2v0.9H96v0.8h-1.8v1h2v0.8h-2.9V186H96.2z"/>
				<path class="st1" d="M98.8,188.7v1.6h-0.9V186h1.8c0.9,0,1.5,0.5,1.5,1.4c0,0.7-0.4,1.1-1,1.3l1.1,1.7h-1l-1.1-1.6H98.8z
					 M98.8,188h0.8c0.4,0,0.7-0.2,0.7-0.6c0-0.4-0.2-0.6-0.7-0.6h-0.8V188z"/>
			</g>
			<g class="st0">
				<path class="st1" d="M104.8,190.3h-0.9V186h0.9V190.3z"/>
			</g>
			<g class="st0">
				<path class="st1" d="M110.8,190.3h-0.7l-2-2.9v2.9h-0.9V186h0.8l1.9,2.7V186h0.9V190.3z"/>
				<path class="st1" d="M115.5,186v0.8h-2v0.9h1.8v0.8h-1.8v1h2v0.8h-2.9V186H115.5z"/>
				<path class="st1" d="M119.6,186h0.9v3.5h2v0.8h-2.9V186z"/>
			</g>
			<g class="st0">
				<path class="st1" d="M130,190.3h-0.7l-2-2.9v2.9h-0.9V186h0.8l1.9,2.7V186h0.9V190.3z"/>
			</g>
		</g>
	</g>
	<g>
		<g>
			<defs>
				<rect id="SVGID_1_" x="44.1" y="148.8" width="112" height="25.3"/>
			</defs>
			<clipPath id="SVGID_2_">
				<use xlink:href="#SVGID_1_"  style="overflow:visible;"/>
			</clipPath>
			<g class="st2">
				<polygon class="st3" points="95,164.4 95,160.9 96.1,160.9 96.1,158 95,158 94.9,154.2 95.9,154.1 95.9,152.3 79.7,152.4 
					79.7,163.9 				"/>
				<g>
					<defs>
						<rect id="SVGID_3_" x="44.1" y="148.8" width="112" height="25.3"/>
					</defs>
					<clipPath id="SVGID_4_">
						<use xlink:href="#SVGID_3_"  style="overflow:visible;"/>
					</clipPath>
					<g class="st4">
						<g class="st5">
							<g>
								<defs>
									<rect id="SVGID_5_" x="79.7" y="150.7" width="16.2" height="1.6"/>
								</defs>
								<clipPath id="SVGID_6_">
									<use xlink:href="#SVGID_5_"  style="overflow:visible;"/>
								</clipPath>
								<g class="st6">
									<polygon class="st3" points="79.7,150.8 79.7,152.3 80.6,152.3 95.9,152.3 95.9,150.7 									"/>
								</g>
							</g>
						</g>
						<g class="st5">
							<g>
								<defs>
									<rect id="SVGID_7_" x="79.7" y="164.1" width="15.3" height="4.5"/>
								</defs>
								<clipPath id="SVGID_8_">
									<use xlink:href="#SVGID_7_"  style="overflow:visible;"/>
								</clipPath>
								<g class="st7">
									<polygon class="st3" points="79.7,167.6 95,168.6 95,164.7 79.7,164.1 									"/>
								</g>
							</g>
						</g>
					</g>
				</g>
				<polygon class="st8" points="140.7,152.3 140.7,153.9 146.1,153.9 146.1,159.6 148.6,159.6 148.6,158 152.9,158.1 152.9,163 
					149.9,163 148.5,163 148.5,162.2 146,162.2 146.1,167.5 99.6,164.9 99.6,168.8 95,168.5 95,164.5 63,163 63,165.2 47,164.6 
					47.1,151.7 62.5,151.8 62.5,152.4 				"/>
				<g>
					<defs>
						<rect id="SVGID_9_" x="44.1" y="148.8" width="112" height="25.3"/>
					</defs>
					<clipPath id="SVGID_10_">
						<use xlink:href="#SVGID_9_"  style="overflow:visible;"/>
					</clipPath>
					<g class="st9">
						<polygon class="st10" points="153.4,150.5 153.4,172.4 45.4,165.7 45.5,150.5 						"/>
					</g>
				</g>
			</g>
		</g>
		<g>
			<defs>
				<rect id="SVGID_11_" x="2.6" width="87.8" height="109.4"/>
			</defs>
			<clipPath id="SVGID_12_">
				<use xlink:href="#SVGID_11_"  style="overflow:visible;"/>
			</clipPath>
			<g class="st11">
				<g class="st0">
					<path class="st1" d="M10.9,79.4l0.7,0.4L9,81.5l1.5,0.9l-0.6,0.4l-2.2-1.4L10.9,79.4z"/>
					<path class="st1" d="M17.1,83.2l-0.6,0.4l-1.5-1l-0.7,0.5l1.4,0.9l-0.6,0.4l-1.4-0.9L12.9,84l1.5,1l-0.6,0.4L11.7,84l3.2-2.1
						L17.1,83.2z"/>
					<path class="st1" d="M17,87.4c-0.9-0.6-0.8-1.4,0.1-2c1-0.6,2.3-0.7,3.2-0.1c0.9,0.6,0.8,1.4-0.1,2.1
						C19.3,87.9,17.9,87.9,17,87.4z M19.8,85.6c-0.5-0.3-1.3-0.2-1.9,0.2c-0.6,0.4-0.7,0.9-0.2,1.2c0.5,0.3,1.3,0.3,1.9-0.2
						C20.2,86.4,20.3,85.9,19.8,85.6z"/>
					<path class="st1" d="M23.1,91.1l-0.5-0.3l0.6-2.4L21,89.8l-0.7-0.4l3.2-2.1l0.6,0.4l-0.6,2.2l2-1.3l0.7,0.4L23.1,91.1z"/>
				</g>
				<g class="st0">
					<path class="st1" d="M29.9,91.2l-2,2.9l-0.7-0.4l0.5-0.7l-1.2-0.8l-1.1,0.3l-0.7-0.4l4.5-1.3L29.9,91.2z M27.3,92l0.8,0.5
						l0.7-0.9L27.3,92z"/>
				</g>
				<g class="st0">
					<path class="st1" d="M31.4,94.8l-1.2,0.8l-0.7-0.4l3.2-2.1l1.3,0.8c0.7,0.4,0.8,0.9,0.1,1.4c-0.5,0.3-1.1,0.4-1.7,0.2l-0.4,1.4
						l-0.8-0.5l0.4-1.3L31.4,94.8z M32,94.4l0.6,0.4c0.3,0.2,0.7,0.2,1,0c0.3-0.2,0.3-0.4-0.1-0.6l-0.6-0.4L32,94.4z"/>
				</g>
				<g class="st0">
					<path class="st1" d="M37,95.7l1.2,0.7c1,0.6,1,1.4,0,2.1c-1,0.6-2.2,0.7-3.2,0.1l-1.2-0.7L37,95.7z M35.5,98.1
						c0.6,0.4,1.4,0.3,2-0.1c0.6-0.4,0.7-0.9,0.1-1.3l-0.5-0.3l-2,1.3L35.5,98.1z"/>
				</g>
				<g class="st0">
					<path class="st1" d="M42.1,101.8c-0.2,0.2-0.1,0.5,0.2,0.7c0.3,0.2,0.7,0.2,1,0.1c0.2-0.1,0.2-0.3,0-0.5l-0.5-0.5
						c-0.4-0.4-0.5-0.7,0.1-1.1c0.6-0.4,1.5-0.3,2.2,0.1c0.7,0.5,0.8,1,0.3,1.4l-0.7-0.4c0.1-0.2,0.1-0.4-0.2-0.6
						c-0.3-0.2-0.7-0.2-0.9-0.1c-0.2,0.1-0.2,0.3,0,0.5l0.5,0.5c0.4,0.4,0.4,0.8-0.1,1.1c-0.6,0.4-1.5,0.3-2.2-0.1
						c-0.7-0.5-0.9-1-0.4-1.5L42.1,101.8z"/>
				</g>
				<g class="st0">
					<path class="st1" d="M47.8,102.4l2.8,1.7l-0.6,0.4l-1.1-0.7l-2.6,1.7l-0.7-0.4l2.6-1.7l-1-0.7L47.8,102.4z"/>
				</g>
				<line class="st12" x1="75.5" y1="66.1" x2="75.5" y2="61.5"/>
				<line class="st12" x1="13.2" y1="28.8" x2="13.2" y2="24.9"/>
				<line class="st12" x1="26.2" y1="33.8" x2="26.2" y2="35.9"/>
				<line class="st12" x1="20.4" y1="30.5" x2="20.4" y2="32.7"/>
				<line class="st12" x1="27.7" y1="32.9" x2="27.7" y2="35.1"/>
				<line class="st13" x1="27.7" y1="35" x2="26.1" y2="36"/>
				<line class="st13" x1="27.6" y1="33" x2="26.2" y2="33.9"/>
				<line class="st13" x1="67" y1="51.5" x2="60.7" y2="55.2"/>
				<line class="st13" x1="71.8" y1="55.3" x2="66.4" y2="58.5"/>
				<line class="st12" x1="35.2" y1="37.3" x2="35.2" y2="39.4"/>
				<line class="st13" x1="40.5" y1="35.5" x2="65.9" y2="52.2"/>
				<line class="st13" x1="67" y1="51.5" x2="71.8" y2="54.7"/>
				<line class="st13" x1="40.5" y1="34.9" x2="66.4" y2="51.8"/>
				<line class="st13" x1="10.1" y1="27.5" x2="12.8" y2="29"/>
				<line class="st13" x1="20.4" y1="30.5" x2="26.2" y2="33.8"/>
				<line class="st13" x1="27.7" y1="33" x2="35.3" y2="37.4"/>
				<line class="st13" x1="27.7" y1="35" x2="35.2" y2="39.4"/>
				<line class="st13" x1="60.8" y1="55.2" x2="66.4" y2="58.5"/>
				<line class="st12" x1="75.5" y1="52.7" x2="75.5" y2="50.4"/>
				<polyline class="st12" points="65.9,62.8 65,62.3 63.9,63 14.8,34.5 14.8,32.1 				"/>
				<polyline class="st12" points="27.1,26.7 22.2,23.5 11.1,30 63.9,60.5 				"/>
				<line class="st12" x1="63.9" y1="60.5" x2="63.9" y2="62.9"/>
				<line class="st12" x1="65" y1="59.8" x2="63.9" y2="60.5"/>
				<polyline class="st12" points="65,62.3 65,59.8 60.8,57.4 				"/>
				<line class="st12" x1="75.6" y1="70.6" x2="75.6" y2="67.9"/>
				<polyline class="st12" points="81.3,60.5 84.6,62.6 84.6,65.3 75.6,70.6 65.9,65 65.9,62.3 69.8,60.1 				"/>
				<polyline class="st12" points="84.6,62.6 75.6,67.9 65.9,62.3 				"/>
				<polyline class="st13" points="12.1,30.5 12.1,31.8 14.8,33.4 				"/>
				<line class="st13" x1="20.4" y1="32.7" x2="26.2" y2="36"/>
				<line class="st13" x1="60.7" y1="57.4" x2="60.7" y2="55.2"/>
				<line class="st13" x1="66.4" y1="62" x2="66.4" y2="58.5"/>
				<polyline class="st13" points="79.2,51.5 75.5,53.7 71.8,51.6 				"/>
				<polyline class="st12" points="79.2,56.3 79.6,56.5 79.6,58.1 75.5,60.5 71.4,58.1 71.4,56.6 71.8,56.4 				"/>
				<line class="st12" x1="75.5" y1="60.5" x2="75.5" y2="53.7"/>
				<polyline class="st12" points="79.6,57 81.3,58 81.3,62.7 75.5,66.1 69.8,62.8 69.8,58.1 71.4,57.2 				"/>
				<polyline class="st12" points="81.3,58 75.5,61.5 69.8,58.2 				"/>
				<polyline class="st12" points="10.1,27.5 4.6,30.8 4.6,70 				"/>
				<polyline class="st12" points="16.3,23.9 20.2,21.6 27.6,26.4 				"/>
				<line class="st12" x1="75.5" y1="71.8" x2="75.5" y2="107.2"/>
				<line class="st12" x1="75.5" y1="107.2" x2="37.6" y2="85.3"/>
				<polyline class="st12" points="86.2,71.5 75.5,77.7 4.6,36.7 				"/>
				<polyline class="st12" points="86.2,74.4 75.5,80.7 4.6,39.6 				"/>
				<polyline class="st12" points="86.2,77.4 75.5,83.6 4.6,42.6 				"/>
				<polyline class="st12" points="86.2,80.3 75.5,86.6 4.6,45.5 				"/>
				<polyline class="st12" points="86.2,83.3 75.5,89.5 4.6,48.5 				"/>
				<polyline class="st12" points="86.2,86.2 75.5,92.5 4.6,51.4 				"/>
				<polyline class="st12" points="86.2,89.2 75.5,95.4 4.6,54.4 				"/>
				<polyline class="st12" points="86.2,92.2 75.5,98.4 4.6,57.3 				"/>
				<line class="st12" x1="86.2" y1="95.1" x2="83.7" y2="96.6"/>
				<polyline class="st12" points="78,99.9 75.5,101.3 4.6,60.3 				"/>
				<line class="st12" x1="83.7" y1="99.5" x2="86.2" y2="98.1"/>
				<polyline class="st12" points="78,102.8 75.5,104.3 4.6,63.2 				"/>
				<polyline class="st12" points="86.2,68.6 75.5,74.8 4.6,33.7 				"/>
				<line class="st12" x1="34.6" y1="83.5" x2="4.6" y2="66.2"/>
				<polyline class="st13" points="11.8,22.2 10.1,23.1 10.1,27.5 				"/>
				<polyline class="st13" points="14.8,22.2 16.3,23.1 16.3,26.9 				"/>
				<polyline class="st13" points="10.1,23.1 13.2,24.9 16.3,23.1 				"/>
				<polyline class="st12" points="76.8,48.6 77.6,49.2 77.6,51.4 75.5,52.7 73.4,51.4 73.4,49.2 74.4,48.5 				"/>
				<polyline class="st13" points="77.6,49.2 75.5,50.4 73.4,49.2 				"/>
				<g>
					<defs>
						<rect id="SVGID_13_" x="2.8" width="87.6" height="109.4"/>
					</defs>
					<clipPath id="SVGID_14_">
						<use xlink:href="#SVGID_13_"  style="overflow:visible;"/>
					</clipPath>
					<g class="st14">
						<path class="st12" d="M73.5,46.7c0,0.1-0.2,0.3-0.2,0.3l0.1,0.3c0.1,0.2,0.6,0.3,1.4,0.1s2.4-1.1,2.6-2L77.1,45
							c-0.2,0-0.3,0-0.5,0"/>
					</g>
				</g>
				<polyline class="st12" points="74.3,43.5 75.4,44 75.7,43.8 76.5,42.8 				"/>
				<g>
					<defs>
						<rect id="SVGID_15_" x="2.8" width="87.6" height="109.4"/>
					</defs>
					<clipPath id="SVGID_16_">
						<use xlink:href="#SVGID_15_"  style="overflow:visible;"/>
					</clipPath>
					<g class="st15">
						<path class="st12" d="M77.2,45.9c0.1,0.3,0.1,0.5,0,0.8c-0.2,1-1.2,1.7-2.2,1.5c0,0,0,0,0,0c-0.4-0.1-0.7-0.3-1-0.5v-0.1"/>
						<path class="st12" d="M73.7,47.1c-0.4-1,0-2.1,1-2.5c0.1-0.1,0.3-0.1,0.4-0.1c0.6-0.1,1.2,0.1,1.6,0.6
							c0.1,0.1,0.2,0.3,0.3,0.5"/>
						<path class="st12" d="M74.7,55.1c0.3,0.9,0.1,1.6-0.5,1.6s-1.4-0.7-1.7-1.6s-0.1-1.6,0.6-1.6S74.4,54.2,74.7,55.1z"/>
						<path class="st12" d="M76.3,55.1c-0.3,0.9-0.1,1.6,0.6,1.6s1.4-0.7,1.7-1.6s0.1-1.6-0.5-1.6S76.6,54.2,76.3,55.1z"/>
						<path class="st16" d="M76.8,48.7c0-0.1,0-0.1,0-0.2c0,0-0.1-0.1-0.1-0.1c-0.1,0-0.2,0-0.3,0.1c0,0,0-0.1,0-0.1l0,0l0.1-0.4"/>
						<path class="st13" d="M75.9,48.7c0,0.1,0.1,0.2,0.1,0.2s0.2,0.1,0.4,0"/>
					</g>
				</g>
				<polyline class="st13" points="74.9,49.4 74.9,49.2 75.1,48.8 75.1,48.7 74.6,48.6 74.2,48.4 74.4,47.9 				"/>
				<polyline class="st12" points="73.4,50.7 71.8,51.6 71.8,56.6 75.5,58.7 79.2,56.6 79.2,51.5 77.6,50.6 				"/>
				<g>
					<defs>
						<rect id="SVGID_17_" x="2.8" width="87.6" height="109.4"/>
					</defs>
					<clipPath id="SVGID_18_">
						<use xlink:href="#SVGID_17_"  style="overflow:visible;"/>
					</clipPath>
					<g class="st17">
						<path class="st13" d="M13,20.5c-0.7,0.1-1.3,0.8-1.3,1.6v1.1c0,0.4,0.7,0.8,1.5,0.8s1.5-0.4,1.5-0.8v-1.1
							c0-0.8-0.5-1.4-1.3-1.6v-0.2c0-0.1-0.1-0.2-0.2-0.2S13,20.3,13,20.3L13,20.5z"/>
					</g>
				</g>
				<polyline class="st12" points="86.2,65.6 75.5,71.8 4.6,30.8 				"/>
				<polyline class="st12" points="37.6,85.8 35.5,84.6 33.7,85.7 36.3,87.2 37.6,86.4 				"/>
				<line class="st12" x1="37.6" y1="85.8" x2="35.5" y2="84.6"/>
				<line class="st12" x1="37.6" y1="87.5" x2="36.6" y2="87"/>
				<g>
					<defs>
						<rect id="SVGID_19_" x="2.8" width="87.6" height="109.4"/>
					</defs>
					<clipPath id="SVGID_20_">
						<use xlink:href="#SVGID_19_"  style="overflow:visible;"/>
					</clipPath>
					<g class="st18">
						<path class="st12" d="M36,82.3c-0.2,0.2-0.4,0.5-0.4,0.8v1.5"/>
					</g>
				</g>
				<polyline class="st12" points="35.1,86.6 34.6,86.9 4.6,69.9 				"/>
				<line class="st12" x1="34.6" y1="86.9" x2="34.6" y2="86.2"/>
				<g>
					<defs>
						<rect id="SVGID_21_" x="2.8" width="87.6" height="109.4"/>
					</defs>
					<clipPath id="SVGID_22_">
						<use xlink:href="#SVGID_21_"  style="overflow:visible;"/>
					</clipPath>
					<g class="st19">
						<path class="st12" d="M83.7,102.4v-5.7L78,99.9v5.9l-2.6,1.5l-19.1-9l-15.3-7.7l-3.5-2v-4c-0.1-0.9-0.7-1.7-1.5-2.2
							c-0.5-0.3-1.1-0.1-1.4,0.4c-0.1,0.2-0.1,0.3-0.1,0.5v2"/>
					</g>
				</g>
				<polyline class="st12" points="79.7,102.8 79.7,101.4 78.8,101.9 78.8,103.4 				"/>
				<g>
					<defs>
						<rect id="SVGID_23_" x="2.8" width="87.6" height="109.4"/>
					</defs>
					<clipPath id="SVGID_24_">
						<use xlink:href="#SVGID_23_"  style="overflow:visible;"/>
					</clipPath>
					<g class="st20">
						<path class="st12" d="M84.6,64.6l1.6,1.1V101l-2.5,1.5c-1.3-0.4-2.6-0.3-3.8,0.3l-1.3,0.8c-0.2,0.1-0.4,0.2-0.6,0.4"/>
					</g>
				</g>
				<polyline class="st13" points="35.2,39.4 40.5,36.3 40.5,34.3 28.1,26.1 20.4,30.5 				"/>
				<line class="st13" x1="40.5" y1="34.3" x2="35.2" y2="37.3"/>
				<g>
					<defs>
						<rect id="SVGID_25_" x="2.8" width="87.6" height="109.4"/>
					</defs>
					<clipPath id="SVGID_26_">
						<use xlink:href="#SVGID_25_"  style="overflow:visible;"/>
					</clipPath>
					<g class="st21">
						<g class="st0">
							<path class="st1" d="M203.9,72.3c0.7,0.5,0.7,1.1,0.2,1.6l-0.6-0.5c0.2-0.2,0.2-0.5-0.2-0.8c-0.5-0.3-1.3-0.3-1.9,0.1
								c-0.6,0.4-0.8,0.8-0.3,1.2c0.4,0.3,0.8,0.3,1.2,0.2l0.6,0.5c-0.8,0.3-1.7,0.3-2.4-0.3c-0.8-0.6-0.8-1.4,0.2-2
								C201.8,71.7,203.1,71.7,203.9,72.3z"/>
						</g>
						<g class="st0">
							<path class="st1" d="M208.4,75.5l-2.1,2.8l-0.7-0.5l0.5-0.7l-1.2-0.8l-1.1,0.3l-0.7-0.5l4.5-1.1L208.4,75.5z M205.7,76.1
								l0.8,0.5l0.7-0.9L205.7,76.1z"/>
						</g>
						<g class="st0">
							<path class="st1" d="M210.7,77.1l2.7,1.9l-0.6,0.3l-1-0.7l-2.7,1.6l-0.7-0.5l2.7-1.6l-1-0.7L210.7,77.1z"/>
						</g>
						<g class="st0">
							<path class="st1" d="M217.7,82l-3.3,1.9l-0.7-0.5l1.4-0.8l-1.4-1l-1.4,0.8l-0.7-0.5l3.3-1.9l0.7,0.5l-1.3,0.8l1.4,1l1.3-0.8
								L217.7,82z"/>
							<path class="st1" d="M221.7,84.8l-0.6,0.3l-1.5-1l-0.7,0.4l1.3,0.9l-0.6,0.3l-1.3-0.9l-0.8,0.5l1.5,1l-0.6,0.4l-2.1-1.5
								l3.3-1.9L221.7,84.8z"/>
							<path class="st1" d="M222,87.6l-1.2,0.7l-0.6-0.5l3.3-1.9l1.3,0.9c0.7,0.5,0.7,1,0.1,1.4c-0.5,0.3-1.1,0.3-1.7,0.1l-0.4,1.3
								l-0.7-0.5l0.5-1.3L222,87.6z M222.6,87.3l0.6,0.4c0.3,0.2,0.7,0.2,1,0.1c0.3-0.2,0.3-0.4,0-0.6l-0.6-0.4L222.6,87.3z"/>
							<path class="st1" d="M224.9,91.2l-0.7-0.5l3.3-1.9l0.7,0.5L224.9,91.2z"/>
							<path class="st1" d="M229.4,94.3l-0.5-0.4l0.7-2.3l-2.2,1.3l-0.6-0.4l3.3-1.9l0.6,0.4l-0.7,2.2l2.1-1.2l0.6,0.4L229.4,94.3z"
								/>
							<path class="st1" d="M236.6,95.1l-0.6,0.3l-1.5-1l-0.7,0.4l1.3,0.9l-0.6,0.3l-1.3-0.9l-0.8,0.5l1.5,1l-0.6,0.4l-2.1-1.5
								l3.3-1.9L236.6,95.1z"/>
							<path class="st1" d="M240.7,97.9l0.7,0.5l-2.7,1.6l1.5,1l-0.6,0.4l-2.1-1.5L240.7,97.9z"/>
						</g>
						<g class="st0">
							<path class="st1" d="M243.8,104.3l-0.5-0.4l0.7-2.3l-2.2,1.3l-0.6-0.4l3.3-1.9l0.6,0.4l-0.7,2.2l2.1-1.2l0.6,0.4L243.8,104.3
								z"/>
						</g>
						<path class="st13" d="M271.9,100.6v-1.2c0-0.3-0.2-0.7-0.9-0.3c-0.4,0.2-0.7,0.7-0.7,1.2v1.4l-7,4.1l-9.3-6.4l-11.7-8
							l-9.8-6.7l-14.5-10l-20.7-15V23.8l1.4-0.9"/>
					</g>
				</g>
				<polygon class="st3" points="45.9,50.2 45.8,52.5 55,57.8 55,55.3 				"/>
				<polygon class="st3" points="45.8,52.5 44.1,53.7 53.2,59 55,57.8 				"/>
				<line class="st22" x1="45.8" y1="52.5" x2="54.8" y2="57.7"/>
			</g>
		</g>
		<g>
			<defs>
				<rect id="SVGID_27_" x="103.5" y="1" width="90.6" height="109.4"/>
			</defs>
			<clipPath id="SVGID_28_">
				<use xlink:href="#SVGID_27_"  style="overflow:visible;"/>
			</clipPath>
			<g class="st23">
				<polyline class="st12" points="192.4,65.3 176.7,74.1 110.7,30.8 				"/>
				<polyline class="st12" points="192.4,68.2 176.7,77.1 110.7,33.8 				"/>
				<polyline class="st12" points="192.4,71.2 176.7,80.1 110.7,36.7 				"/>
				<polyline class="st12" points="192.4,74.2 176.7,83 110.7,39.7 				"/>
				<polyline class="st12" points="192.4,77.1 176.7,86 110.7,42.6 				"/>
				<polyline class="st12" points="192.4,80.1 176.7,89 110.7,45.6 				"/>
				<polyline class="st12" points="192.4,83.1 176.7,91.9 110.7,48.6 				"/>
				<polyline class="st12" points="192.4,86 176.7,94.9 110.7,51.5 				"/>
				<polyline class="st12" points="192.4,89 176.7,97.8 110.7,54.5 				"/>
				<polyline class="st12" points="192.4,91.9 176.7,100.8 110.7,57.5 				"/>
				<polyline class="st12" points="192.4,94.9 176.7,103.8 110.7,60.4 				"/>
				<g class="st0">
					<path class="st1" d="M117.3,73.3c0.7,0.5,0.7,1.1,0.2,1.6l-0.6-0.5c0.2-0.2,0.2-0.5-0.2-0.8c-0.5-0.3-1.3-0.3-1.9,0.1
						c-0.6,0.4-0.8,0.8-0.3,1.2c0.4,0.3,0.8,0.3,1.2,0.2l0.6,0.5c-0.8,0.3-1.7,0.3-2.4-0.3c-0.8-0.6-0.8-1.4,0.2-2
						C115.2,72.7,116.5,72.7,117.3,73.3z"/>
				</g>
				<g class="st0">
					<path class="st1" d="M121.8,76.5l-2.1,2.8l-0.7-0.5l0.5-0.7l-1.2-0.8l-1.1,0.3l-0.7-0.5l4.5-1.1L121.8,76.5z M119.1,77.1
						l0.8,0.5l0.7-0.9L119.1,77.1z"/>
				</g>
				<g class="st0">
					<path class="st1" d="M124.1,78.1l2.7,1.9l-0.6,0.3l-1-0.7l-2.7,1.6l-0.7-0.5l2.7-1.6l-1-0.7L124.1,78.1z"/>
					<path class="st1" d="M131.2,83l-3.3,1.9l-0.7-0.5l1.4-0.8l-1.4-1l-1.4,0.8l-0.7-0.5l3.3-1.9l0.7,0.5l-1.3,0.8l1.4,1l1.3-0.8
						L131.2,83z"/>
				</g>
				<g class="st0">
					<path class="st1" d="M135.1,85.7l-0.6,0.3l-1.5-1l-0.7,0.4l1.3,0.9l-0.6,0.3l-1.3-0.9l-0.8,0.5l1.5,1l-0.6,0.4l-2.1-1.5
						l3.3-1.9L135.1,85.7z"/>
					<path class="st1" d="M135.4,88.6l-1.2,0.7l-0.7-0.5l3.3-1.9l1.3,0.9c0.7,0.5,0.7,1,0.1,1.4c-0.5,0.3-1.1,0.3-1.7,0.1l-0.4,1.3
						l-0.7-0.5l0.5-1.3L135.4,88.6z M136,88.3l0.6,0.4c0.3,0.2,0.7,0.2,1,0.1c0.3-0.2,0.3-0.4,0-0.6l-0.6-0.4L136,88.3z"/>
					<path class="st1" d="M138.3,92.2l-0.7-0.5l3.3-1.9l0.7,0.5L138.3,92.2z"/>
					<path class="st1" d="M142.8,95.3l-0.5-0.4l0.7-2.3l-2.2,1.3l-0.6-0.4l3.3-1.9l0.6,0.4l-0.7,2.2l2.1-1.2l0.6,0.4L142.8,95.3z"/>
					<path class="st1" d="M150,96.1l-0.6,0.3l-1.5-1l-0.7,0.4l1.3,0.9l-0.6,0.3l-1.3-0.9l-0.8,0.5l1.5,1l-0.6,0.4l-2.1-1.5l3.3-1.9
						L150,96.1z"/>
					<path class="st1" d="M154.1,98.9l0.7,0.5l-2.7,1.6l1.5,1l-0.6,0.4l-2.1-1.5L154.1,98.9z"/>
				</g>
				<g class="st0">
					<path class="st1" d="M157.2,105.3l-0.5-0.4l0.7-2.3l-2.2,1.3l-0.6-0.4l3.3-1.9l0.6,0.4l-0.7,2.2l2.1-1.2l0.6,0.4L157.2,105.3z"
						/>
				</g>
				<polyline class="st13" points="192.4,62.3 176.7,71.2 110.7,27.8 				"/>
				<line class="st13" x1="176.7" y1="68.2" x2="176.7" y2="106.6"/>
				<line class="st13" x1="184.7" y1="101.2" x2="183.7" y2="101.7"/>
				<polyline class="st13" points="184.7,101.2 185.3,101.6 192.4,97.4 192.4,59.3 				"/>
				<polyline class="st13" points="192.4,59.3 176.7,68.2 110.7,24.8 				"/>
				<g>
					<defs>
						<rect id="SVGID_29_" x="103.5" y="1" width="90.6" height="109.4"/>
					</defs>
					<clipPath id="SVGID_30_">
						<use xlink:href="#SVGID_29_"  style="overflow:visible;"/>
					</clipPath>
					<g class="st24">
						<path class="st13" d="M184.7,101.2v-0.8c0-0.1-0.1-0.3-0.2-0.4"/>
						<path class="st13" d="M185.3,101.6v-1.2c0-0.3-0.2-0.7-0.9-0.3c-0.4,0.2-0.7,0.7-0.7,1.2v1.4l-7,4.1l-9.2-6.4l-11.7-8
							l-9.8-6.7l-14.5-10l-20.7-15V24.8l1.4-0.9"/>
					</g>
				</g>
				<line class="st13" x1="179.2" y1="60.9" x2="179.2" y2="59.3"/>
				<line class="st13" x1="120.2" y1="27.6" x2="120.2" y2="30.2"/>
				<line class="st13" x1="179.2" y1="60.9" x2="180.1" y2="61.4"/>
				<line class="st13" x1="179.2" y1="59.3" x2="180.1" y2="59.8"/>
				<line class="st13" x1="120.6" y1="11.8" x2="120.6" y2="9.8"/>
				<line class="st13" x1="120.6" y1="11.9" x2="120.6" y2="9.7"/>
				<line class="st13" x1="120.3" y1="25.6" x2="120.3" y2="20.9"/>
				<polyline class="st13" points="121.8,29.3 120.2,30.2 112.1,25 112.1,22.3 114.9,20.7 				"/>
				<polyline class="st13" points="120.6,18.1 124.4,15.9 124.4,10.9 124.4,10.8 122.7,9.7 				"/>
				<g>
					<defs>
						<rect id="SVGID_31_" x="103.5" y="1" width="90.6" height="109.4"/>
					</defs>
					<clipPath id="SVGID_32_">
						<use xlink:href="#SVGID_31_"  style="overflow:visible;"/>
					</clipPath>
					<g class="st25">
						<path class="st13" d="M119.8,14.4c0.3,0.9,0.1,1.6-0.5,1.6s-1.4-0.7-1.7-1.6s-0.1-1.6,0.6-1.6S119.5,13.5,119.8,14.4z"/>
						<path class="st13" d="M121.4,14.4c-0.3,0.9-0.1,1.6,0.6,1.6s1.4-0.7,1.7-1.6s0.1-1.6-0.5-1.6S121.7,13.5,121.4,14.4z"/>
					</g>
				</g>
				<line class="st13" x1="120.3" y1="20.9" x2="126.4" y2="17.4"/>
				<line class="st13" x1="114.9" y1="17.4" x2="120.3" y2="21"/>
				<line class="st13" x1="112.1" y1="22.3" x2="120.2" y2="27.6"/>
				<polyline class="st13" points="124.4,15.6 124.7,15.8 124.7,17.4 124.7,17.5 120.6,19.9 120.6,19.8 120.6,13.2 				"/>
				<polyline class="st13" points="116.5,16.5 114.9,17.4 114.9,22 114.9,22.1 120.2,25.5 				"/>
				<polyline class="st13" points="126.5,19.8 129.8,21.9 129.8,23.7 				"/>
				<line class="st13" x1="120.5" y1="13.3" x2="124.4" y2="10.9"/>
				<line class="st13" x1="116.9" y1="10.9" x2="118.5" y2="10"/>
				<line class="st13" x1="116.9" y1="10.8" x2="120.6" y2="13.3"/>
				<polyline class="st13" points="124.7,16.2 126.4,17.4 126.5,17.4 126.5,21.9 126.4,22 120.2,25.6 				"/>
				<line class="st13" x1="118.5" y1="8.4" x2="120.6" y2="9.8"/>
				<line class="st13" x1="121.7" y1="7.8" x2="122.7" y2="8.5"/>
				<g>
					<defs>
						<rect id="SVGID_33_" x="103.5" y="1" width="90.6" height="109.4"/>
					</defs>
					<clipPath id="SVGID_34_">
						<use xlink:href="#SVGID_33_"  style="overflow:visible;"/>
					</clipPath>
					<g class="st26">
						<path class="st13" d="M118.7,6c0,0.1-0.2,0.3-0.2,0.3l0.1,0.3c0.1,0.2,0.6,0.3,1.4,0.1s2.4-1.1,2.6-2l-0.3-0.5
							c-0.2,0-0.3,0-0.5,0"/>
					</g>
				</g>
				<polyline class="st13" points="119.4,2.7 120.5,3.3 120.8,3.1 121.6,2 				"/>
				<g>
					<defs>
						<rect id="SVGID_35_" x="103.5" y="1" width="90.6" height="109.4"/>
					</defs>
					<clipPath id="SVGID_36_">
						<use xlink:href="#SVGID_35_"  style="overflow:visible;"/>
					</clipPath>
					<g class="st27">
						<path class="st13" d="M122.3,5.2c0.1,0.3,0.1,0.5,0,0.8c-0.2,1-1.2,1.7-2.2,1.5c-0.4-0.1-0.7-0.3-1-0.5l-0.1-0.1"/>
						<path class="st13" d="M118.8,6.3c-0.1-0.1-0.1-0.3-0.1-0.5c-0.2-1,0.5-2,1.5-2.1c0,0,0,0,0,0c0.6-0.1,1.2,0.1,1.6,0.6
							c0.1,0.1,0.2,0.3,0.3,0.4"/>
						<path class="st13" d="M121.9,8c0-0.1,0-0.1,0-0.2c0,0-0.1-0.1-0.1-0.1c-0.1,0-0.2,0-0.3,0.1c0,0,0-0.1,0-0.1l0,0l0.1-0.4"/>
						<path class="st13" d="M121,8c0,0.1,0.1,0.2,0.1,0.2s0.2,0.1,0.4,0"/>
					</g>
				</g>
				<polyline class="st13" points="120,8.7 120,8.5 120.2,8.1 120.2,8 119.8,7.9 119.4,7.7 119.5,7.2 				"/>
				<line class="st13" x1="117" y1="15.7" x2="120.6" y2="18.1"/>
				<polyline class="st13" points="120.6,20 116.6,17.4 116.5,17.3 116.5,15.9 116.5,15.9 116.9,15.7 116.9,15.7 116.9,10.8 				"/>
				<polyline class="st13" points="119.6,7.7 118.5,8.4 118.5,8.5 118.5,10.6 120.6,12 120.6,11.9 122.7,10.7 122.7,8.6 122.7,8.5 
					120.6,9.8 				"/>
				<line class="st13" x1="155.9" y1="47.2" x2="169" y2="55.5"/>
				<polyline class="st13" points="185.9,58 182.9,59.8 180.1,58 				"/>
				<line class="st13" x1="182.9" y1="64" x2="182.9" y2="59.8"/>
				<polyline class="st13" points="180.1,58.8 174.1,62.3 121.8,29 				"/>
				<line class="st12" x1="192.4" y1="59.3" x2="129.8" y2="23"/>
				<line class="st12" x1="170.9" y1="47.6" x2="133.8" y2="26.1"/>
				<line class="st13" x1="174.1" y1="63.9" x2="174.1" y2="62.3"/>
				<line class="st13" x1="169" y1="57.3" x2="169" y2="55.5"/>
				<polygon class="st13" points="176.8,50.9 176.8,52.8 169,57.3 155.9,49 155.9,47.2 161.6,43.8 169.4,48.4 171,47.5 				"/>
				<line class="st13" x1="176.8" y1="50.9" x2="169" y2="55.5"/>
				<line class="st13" x1="133.8" y1="26" x2="128.1" y2="29.3"/>
				<polygon class="st13" points="123.3,28.1 123.3,26.2 123.3,26.2 128.7,23 133.8,26 133.8,27.6 133.8,27.6 128.1,31.1 				"/>
				<polyline class="st13" points="179.2,60.9 174.1,63.9 121.8,30.6 121.8,30.6 121.8,29 123.3,28.1 				"/>
				<line class="st13" x1="128.1" y1="29.3" x2="123.3" y2="26.3"/>
				<line class="st13" x1="128.1" y1="31" x2="128.1" y2="29.3"/>
				<polyline class="st13" points="184.8,57.3 185.2,57.1 185.2,55.9 176.8,51 				"/>
				<line class="st13" x1="185.2" y1="55.9" x2="184.6" y2="56.3"/>
				<line class="st13" x1="129.8" y1="22" x2="120.2" y2="27.6"/>
				<polyline class="st13" points="181.7,57 180.1,58 180.1,62.2 182.9,64 185.9,62.3 185.9,58 184.7,57.3 				"/>
				<g>
					<defs>
						<rect id="SVGID_37_" x="103.5" y="1" width="90.6" height="109.4"/>
					</defs>
					<clipPath id="SVGID_38_">
						<use xlink:href="#SVGID_37_"  style="overflow:visible;"/>
					</clipPath>
					<g class="st28">
						<path class="st13" d="M182.9,55.4c-0.8,0.2-1.3,0.8-1.3,1.6v1.1c0,0.4,0.7,0.8,1.5,0.8s1.5-0.3,1.5-0.8V57
							c0-0.8-0.5-1.4-1.3-1.6v-0.2c0-0.1-0.1-0.2-0.3-0.2s-0.2,0.1-0.2,0.2V55.4z"/>
					</g>
				</g>
				<polygon class="st3" points="130.4,34.5 130.4,36 139.2,41.7 139.2,40.1 				"/>
				<polygon class="st3" points="130.3,36.1 129.1,36.9 137.8,42.6 139.2,41.7 				"/>
				<line class="st22" x1="130.3" y1="36" x2="139.2" y2="41.7"/>
			</g>
		</g>
	</g>
</g>
</svg>
