<svg xmlns="http://www.w3.org/2000/svg" xmlns:xlink="http://www.w3.org/1999/xlink" width="148" height="180.76" viewBox="0 0 148 180.76"><defs><path id="a" d="M-69 -381.24H1155V410.76H-69z"/></defs><defs><path id="b" d="M-69 -381.24H1155V410.76H-69z"/></defs><defs><path id="c" d="M-69 -381.24H1155V410.76H-69z"/></defs><defs><path id="d" d="M-69 -381.24H1155V410.76H-69z"/></defs><defs><path id="e" d="M-69 -381.24H1155V410.76H-69z"/></defs><defs><path id="f" d="M-69 -381.24H1155V410.76H-69z"/></defs><defs><path id="g" d="M-69 -381.24H1155V410.76H-69z"/></defs><defs><path id="h" d="M-69 -381.24H1155V410.76H-69z"/></defs><clipPath id="i"><use xlink:href="#h" overflow="visible"/></clipPath><g clip-path="url(#i)"><text transform="rotate(90 -58.993 65.643)"><tspan x="0" y="0" fill="#D1D3D4" font-family="'Calibre-Semibold'" font-size="7" letter-spacing="1">BR</tspan><tspan x="10.892" y="0" fill="#D1D3D4" font-family="'Calibre-Semibold'" font-size="7" letter-spacing="1">O</tspan><tspan x="16.709" y="0" fill="#D1D3D4" font-family="'Calibre-Semibold'" font-size="7" letter-spacing="1">A</tspan><tspan x="22.631" y="0" fill="#D1D3D4" font-family="'Calibre-Semibold'" font-size="7" letter-spacing="1">D</tspan><tspan x="28.364" y="0" fill="#D1D3D4" font-family="'Calibre-Semibold'" font-size="7" letter-spacing="1">W</tspan><tspan x="35.202" y="0" fill="#D1D3D4" font-family="'Calibre-Semibold'" font-size="7" letter-spacing="1">A</tspan><tspan x="40.635" y="0" fill="#D1D3D4" font-family="'Calibre-Semibold'" font-size="7">Y</tspan></text></g><g clip-path="url(#i)"><text transform="rotate(90 10.167 126.907)"><tspan x="0" y="0" fill="#D1D3D4" font-family="'Calibre-Semibold'" font-size="7" letter-spacing="1">L</tspan><tspan x="5.096" y="0" fill="#D1D3D4" font-family="'Calibre-Semibold'" font-size="7" letter-spacing="1">A</tspan><tspan x="11.025" y="0" fill="#D1D3D4" font-family="'Calibre-Semibold'" font-size="7" letter-spacing="1">F</tspan><tspan x="15.799" y="0" fill="#D1D3D4" font-family="'Calibre-Semibold'" font-size="7" letter-spacing="1">A</tspan><tspan x="21.238" y="0" fill="#D1D3D4" font-family="'Calibre-Semibold'" font-size="7" letter-spacing="1">YETTE </tspan><tspan x="51.387" y="0" fill="#D1D3D4" font-family="'Calibre-Semibold'" font-size="7" letter-spacing="1">S</tspan><tspan x="56.566" y="0" fill="#D1D3D4" font-family="'Calibre-Semibold'" font-size="7">T</tspan></text></g><g clip-path="url(#i)"><text transform="translate(48.917 121.738)"><tspan x="0" y="0" fill="#D1D3D4" font-family="'Calibre-Semibold'" font-size="7" letter-spacing="1">LE</tspan><tspan x="9.961" y="0" fill="#D1D3D4" font-family="'Calibre-Semibold'" font-size="7" letter-spacing="1">O</tspan><tspan x="15.834" y="0" fill="#D1D3D4" font-family="'Calibre-Semibold'" font-size="7" letter-spacing="1">N</tspan><tspan x="21.658" y="0" fill="#D1D3D4" font-family="'Calibre-Semibold'" font-size="7" letter-spacing="1">A</tspan><tspan x="27.44" y="0" fill="#D1D3D4" font-family="'Calibre-Semibold'" font-size="7" letter-spacing="1">RD </tspan><tspan x="41.328" y="0" fill="#D1D3D4" font-family="'Calibre-Semibold'" font-size="7" letter-spacing="1">S</tspan><tspan x="46.368" y="0" fill="#D1D3D4" font-family="'Calibre-Semibold'" font-size="7">T</tspan></text></g><g clip-path="url(#i)"><text transform="translate(43.976 175.442)"><tspan x="0" y="0" fill="#D1D3D4" font-family="'Calibre-Semibold'" font-size="7" letter-spacing="1">C</tspan><tspan x="5.593" y="0" fill="#D1D3D4" font-family="'Calibre-Semibold'" font-size="7" letter-spacing="1">A</tspan><tspan x="11.074" y="0" fill="#D1D3D4" font-family="'Calibre-Semibold'" font-size="7" letter-spacing="1">T</tspan><tspan x="16.639" y="0" fill="#D1D3D4" font-family="'Calibre-Semibold'" font-size="7" letter-spacing="1">H</tspan><tspan x="22.736" y="0" fill="#D1D3D4" font-family="'Calibre-Semibold'" font-size="7" letter-spacing="1">ER</tspan><tspan x="33.369" y="0" fill="#D1D3D4" font-family="'Calibre-Semibold'" font-size="7" letter-spacing="1">I</tspan><tspan x="36.617" y="0" fill="#D1D3D4" font-family="'Calibre-Semibold'" font-size="7" letter-spacing="1">NE L</tspan><tspan x="55.845" y="0" fill="#D1D3D4" font-family="'Calibre-Semibold'" font-size="7">N</tspan></text></g><path clip-path="url(#i)" d="M34.197 138.699L34.197 140.507 34.354 140.507 34.354 141.428 34.197 141.428 34.197 143.321 39.828 143.321 39.828 145.527 40.859 145.527 40.859 145.309 42.343 145.309 42.343 145.527 44.109 145.527 44.109 145.387 48.438 145.387 48.438 137.142 34.197 137.142z"/><defs><path id="j" d="M18.156 135.466H130.17V160.743H18.156z"/></defs><clipPath id="k"><use xlink:href="#j" overflow="visible"/></clipPath><path clip-path="url(#k)" fill="none" stroke="#D0D2D3" stroke-width="1.092" stroke-miterlimit="10" d="M127.485 137.142L127.485 159.065 19.506 152.348 19.557 137.142z"/><g><defs><path id="l" d="M-69 -381.24H1155V410.76H-69z"/></defs><clipPath id="m"><use xlink:href="#l" overflow="visible"/></clipPath><path clip-path="url(#m)" d="M89.356 48.163L89.356 66.038 99.06 71.659 99.06 53.786z"/><path clip-path="url(#m)" fill="none" stroke="#D1D3D4" stroke-width=".154" stroke-miterlimit="10" d="M108.787 95.057L70.543 72.901"/><path clip-path="url(#m)" fill="none" stroke="#D1D3D4" stroke-width=".154" stroke-miterlimit="10" d="M119.618 58.995L108.806 65.298 37.261 23.851"/><path clip-path="url(#m)" fill="none" stroke="#D1D3D4" stroke-width=".154" stroke-miterlimit="10" d="M119.618 61.974L108.806 68.276 37.261 26.829"/><path clip-path="url(#m)" fill="none" stroke="#D1D3D4" stroke-width=".154" stroke-miterlimit="10" d="M119.618 64.952L108.806 71.255 37.261 29.807"/><path clip-path="url(#m)" fill="none" stroke="#D1D3D4" stroke-width=".154" stroke-miterlimit="10" d="M119.618 67.931L108.806 74.232 37.261 32.785"/><path clip-path="url(#m)" fill="none" stroke="#D1D3D4" stroke-width=".154" stroke-miterlimit="10" d="M119.618 70.909L108.806 77.211 37.261 35.764"/><path clip-path="url(#m)" fill="none" stroke="#D1D3D4" stroke-width=".154" stroke-miterlimit="10" d="M119.618 73.887L108.806 80.189 37.261 38.742"/><path clip-path="url(#m)" fill="none" stroke="#D1D3D4" stroke-width=".154" stroke-miterlimit="10" d="M119.618 76.865L108.806 83.168 37.261 41.72"/><path clip-path="url(#m)" fill="none" stroke="#D1D3D4" stroke-width=".154" stroke-miterlimit="10" d="M119.618 79.844L108.806 86.146 37.261 44.699"/><path clip-path="url(#m)" fill="none" stroke="#D1D3D4" stroke-width=".154" stroke-miterlimit="10" d="M119.619 82.821L117.075 84.306"/><path clip-path="url(#m)" fill="none" stroke="#D1D3D4" stroke-width=".154" stroke-miterlimit="10" d="M111.333 87.651L108.807 89.125 37.261 47.678"/><path clip-path="url(#m)" fill="none" stroke="#D1D3D4" stroke-width=".154" stroke-miterlimit="10" d="M117.075 87.283L119.619 85.8"/><path clip-path="url(#m)" fill="none" stroke="#D1D3D4" stroke-width=".154" stroke-miterlimit="10" d="M111.333 90.63L108.807 92.104 37.261 50.655"/><path clip-path="url(#m)" fill="none" stroke="#D1D3D4" stroke-width=".154" stroke-miterlimit="10" d="M119.618 56.017L108.806 62.32 37.261 20.872"/><g clip-path="url(#m)"><text transform="matrix(.8479 .5302 -.8381 .5455 40.002 68.88)"><tspan x="0" y="0" fill="#D1D3D4" font-family="'Calibre-Semibold'" font-size="6.297" letter-spacing="1">LE</tspan><tspan x="9.464" y="-.001" fill="#D1D3D4" font-family="'Calibre-Semibold'" font-size="6.297" letter-spacing="1">O</tspan><tspan x="15" y="-.001" fill="#D1D3D4" font-family="'Calibre-Semibold'" font-size="6.297" letter-spacing="1">NAR</tspan><tspan x="31.006" y="-.001" fill="#D1D3D4" font-family="'Calibre-Semibold'" font-size="6.297" letter-spacing="1">D</tspan><tspan x="36.346" y="-.001" fill="#D1D3D4" font-family="'Calibre-Semibold'" font-size="6.297" letter-spacing="1"> </tspan><tspan x="39.193" y="0" fill="#D1D3D4" font-family="'Calibre-Semibold'" font-size="6.297" letter-spacing="1">S</tspan><tspan x="43.971" y="-.001" fill="#D1D3D4" font-family="'Calibre-Semibold'" font-size="6.297">T</tspan></text></g><path clip-path="url(#m)" fill="none" stroke="#000" stroke-width=".154" stroke-miterlimit="10" d="M108.805 53.568L108.805 48.858"/><path clip-path="url(#m)" fill="none" stroke="#000" stroke-width=".154" stroke-miterlimit="10" d="M45.906 15.849L45.906 11.953"/><path clip-path="url(#m)" fill="none" stroke="#000" stroke-width=".154" stroke-miterlimit="10" d="M58.983 20.907L58.983 23.078"/><path clip-path="url(#m)" fill="none" stroke="#000" stroke-width=".154" stroke-miterlimit="10" d="M53.209 17.621L53.209 19.792"/><path clip-path="url(#m)" fill="none" stroke="#000" stroke-width=".154" stroke-miterlimit="10" d="M60.54 20.053L60.54 22.225"/><path clip-path="url(#m)" fill="none" stroke="#000" stroke-width=".145" stroke-miterlimit="10" d="M60.55 22.19L58.965 23.118"/><path clip-path="url(#m)" fill="none" stroke="#000" stroke-width=".145" stroke-miterlimit="10" d="M60.471 20.133L59.003 20.992"/><path clip-path="url(#m)" fill="none" stroke="#000" stroke-width=".145" stroke-miterlimit="10" d="M100.232 38.807L93.898 42.514"/><path clip-path="url(#m)" fill="none" stroke="#000" stroke-width=".145" stroke-miterlimit="10" d="M105.086 42.672L99.658 45.849"/><path clip-path="url(#m)" fill="none" stroke="#000" stroke-width=".154" stroke-miterlimit="10" d="M68.153 24.44L68.153 26.611"/><path clip-path="url(#m)" fill="none" stroke="#000" stroke-width=".145" stroke-miterlimit="10" d="M73.456 22.672L99.08 39.501"/><path clip-path="url(#m)" fill="none" stroke="#000" stroke-width=".145" stroke-miterlimit="10" d="M100.202 38.8L105.086 42.008"/><path clip-path="url(#m)" fill="none" stroke="#000" stroke-width=".145" stroke-miterlimit="10" d="M73.456 22.004L99.576 39.16"/><path clip-path="url(#m)" fill="none" stroke="#000" stroke-width=".145" stroke-miterlimit="10" d="M42.823 14.575L45.481 16.114"/><path clip-path="url(#m)" fill="none" stroke="#000" stroke-width=".145" stroke-miterlimit="10" d="M53.209 17.621L58.982 20.971"/><path clip-path="url(#m)" fill="none" stroke="#000" stroke-width=".145" stroke-miterlimit="10" d="M60.558 20.133L68.229 24.577"/><path clip-path="url(#m)" fill="none" stroke="#000" stroke-width=".145" stroke-miterlimit="10" d="M60.515 22.191L68.153 26.617"/><path clip-path="url(#m)" fill="none" stroke="#000" stroke-width=".145" stroke-miterlimit="10" d="M93.926 42.523L99.667 45.85"/><path clip-path="url(#m)" fill="none" stroke="#000" stroke-width=".154" stroke-miterlimit="10" d="M108.775 39.979L108.775 37.666"/><path clip-path="url(#m)" fill="none" stroke="#000" stroke-width=".154" stroke-miterlimit="10" d="M99.133 50.235L98.217 49.686 97.065 50.359 47.477 21.632 47.477 19.199"/><path clip-path="url(#m)" fill="none" stroke="#000" stroke-width=".154" stroke-miterlimit="10" d="M59.91 13.775L54.993 10.546 43.817 17.089 97.064 47.924"/><path clip-path="url(#m)" fill="none" stroke="#000" stroke-width=".154" stroke-miterlimit="10" d="M97.065 47.923L97.065 50.356"/><path clip-path="url(#m)" fill="none" stroke="#000" stroke-width=".154" stroke-miterlimit="10" d="M98.223 47.232L97.065 47.909"/><path clip-path="url(#m)" fill="none" stroke="#000" stroke-width=".154" stroke-miterlimit="10" d="M98.223 49.686L98.223 47.232 93.926 44.742"/><path clip-path="url(#m)" fill="none" stroke="#000" stroke-width=".154" stroke-miterlimit="10" d="M108.855 58.034L108.855 55.36"/><path clip-path="url(#m)" fill="none" stroke="#000" stroke-width=".154" stroke-miterlimit="10" d="M114.702 47.899L117.951 50.033 117.951 52.72 108.854 58.044 99.133 52.412 99.133 49.732 103.042 47.446"/><path clip-path="url(#m)" fill="none" stroke="#000" stroke-width=".154" stroke-miterlimit="10" d="M117.951 50.033L108.853 55.359 99.133 49.733"/><path clip-path="url(#m)" fill="none" stroke="#000" stroke-width=".145" stroke-miterlimit="10" d="M44.792 17.636L44.792 18.947 47.478 20.518"/><path clip-path="url(#m)" fill="none" stroke="#000" stroke-width=".145" stroke-miterlimit="10" d="M53.209 19.789L58.982 23.135"/><path clip-path="url(#m)" fill="none" stroke="#000" stroke-width=".141" stroke-miterlimit="10" d="M93.901 44.732L93.901 42.521"/><path clip-path="url(#m)" fill="none" stroke="#000" stroke-width=".141" stroke-miterlimit="10" d="M99.667 49.38L99.667 45.856"/><path clip-path="url(#m)" fill="none" stroke="#000" stroke-width=".145" stroke-miterlimit="10" d="M112.584 38.845L108.811 41.054 105.085 38.892"/><path clip-path="url(#m)" fill="none" stroke="#000" stroke-width=".154" stroke-miterlimit="10" d="M112.584 43.646L112.94 43.854 112.94 45.502 108.818 47.911 104.666 45.506 104.666 43.982 105.085 43.736"/><path clip-path="url(#m)" fill="none" stroke="#000" stroke-width=".154" stroke-miterlimit="10" d="M108.813 47.906L108.813 41.054"/><path clip-path="url(#m)" fill="none" stroke="#000" stroke-width=".154" stroke-miterlimit="10" d="M112.941 44.369L114.703 45.39 114.703 50.13 108.805 53.576 103.042 50.237 103.042 45.486 104.666 44.536"/><path clip-path="url(#m)" fill="none" stroke="#000" stroke-width=".154" stroke-miterlimit="10" d="M114.702 45.391L108.805 48.859 103.086 45.546"/><path clip-path="url(#m)" fill="none" stroke="#000" stroke-width=".154" stroke-miterlimit="10" d="M42.823 14.547L37.182 17.85 37.182 57.437"/><path clip-path="url(#m)" fill="none" stroke="#000" stroke-width=".154" stroke-miterlimit="10" d="M49.064 10.894L53.017 8.581 60.451 13.463"/><path clip-path="url(#m)" fill="none" stroke="#000" stroke-width=".154" stroke-miterlimit="10" d="M108.806 59.343L108.767 95.08"/><path clip-path="url(#m)" fill="none" stroke="#D1D3D4" stroke-width=".154" stroke-miterlimit="10" d="M67.522 71.15L37.249 53.611"/><path clip-path="url(#m)" fill="none" stroke="#000" stroke-width=".145" stroke-miterlimit="10" d="M44.455 9.211L42.822 10.167 42.822 14.575"/><path clip-path="url(#m)" fill="none" stroke="#000" stroke-width=".145" stroke-miterlimit="10" d="M47.546 9.224L49.063 10.104 49.063 13.979"/><path clip-path="url(#m)" fill="none" stroke="#000" stroke-width=".145" stroke-miterlimit="10" d="M42.823 10.166L45.906 11.952 49.065 10.103"/><path clip-path="url(#m)" fill="none" stroke="#000" stroke-width=".154" stroke-miterlimit="10" d="M110.085 35.895L110.893 36.425 110.893 38.742 108.774 39.979 106.637 38.741 106.637 36.426 107.739 35.781"/><path clip-path="url(#m)" fill="none" stroke="#000" stroke-width=".145" stroke-miterlimit="10" d="M110.896 36.427L108.774 37.667 106.635 36.427"/></g><g><defs><path id="n" d="M35.4 0H126.029V97.295H35.4z"/></defs><clipPath id="o"><use xlink:href="#n" overflow="visible"/></clipPath><path clip-path="url(#o)" fill="none" stroke="#000" stroke-width=".154" stroke-miterlimit="10" d="M106.805 33.933c-.045.091-.203.264-.218.334l.129.342c.13.174.606.335 1.399.108.794-.225 2.457-1.106 2.609-1.999l-.266-.5s-.247-.079-.517-.009"/></g><g><defs><path id="p" d="M-69 -381.24H1155V410.76H-69z"/></defs><clipPath id="q"><use xlink:href="#p" overflow="visible"/></clipPath><path clip-path="url(#q)" fill="none" stroke="#000" stroke-width=".154" stroke-miterlimit="10" d="M107.551 30.669L108.68 31.216 109.027 31.07 109.808 29.976"/></g><g><defs><path id="r" d="M35.4 0H126.029V97.295H35.4z"/></defs><clipPath id="s"><use xlink:href="#r" overflow="visible"/></clipPath><path clip-path="url(#s)" fill="none" stroke="#000" stroke-width=".154" stroke-miterlimit="10" d="M110.528 33.17a1.883 1.883 0 0 1-3.207 1.711l-.077-.059m-.293-.486a1.884 1.884 0 0 1 1.448-2.609 1.816 1.816 0 0 1 1.65.566c.222.25.302.445.302.445m-2.374 9.713c.315.903.068 1.637-.552 1.639s-1.377-.729-1.692-1.633c-.315-.904-.068-1.638.552-1.639.62-.003 1.377.729 1.692 1.633zm1.613.03c-.315.903-.068 1.637.552 1.639s1.377-.73 1.692-1.633c.314-.904.068-1.638-.552-1.64-.62-.001-1.377.73-1.692 1.634z"/><path clip-path="url(#s)" fill="none" stroke="#000" stroke-width=".145" stroke-linejoin="bevel" stroke-miterlimit="10" d="M110.081 35.998s.005-.164-.01-.203a.138.138 0 0 0-.103-.091c-.064-.016-.331.062-.331.062s-.003-.045-.003-.105v-.048l.1-.429"/><path clip-path="url(#s)" fill="none" stroke="#000" stroke-width=".145" stroke-miterlimit="10" d="M109.188 35.979c-.021.078.06.163.076.217.024.079.205.135.363.019"/></g><g><defs><path id="t" d="M-69 -381.24H1155V410.76H-69z"/></defs><clipPath id="u"><use xlink:href="#t" overflow="visible"/></clipPath><path clip-path="url(#u)" fill="none" stroke="#000" stroke-width=".145" stroke-miterlimit="10" d="M108.182 36.707L108.182 36.532 108.425 36.124 108.383 35.979 107.933 35.904 107.531 35.659 107.694 35.185"/><path clip-path="url(#u)" fill="none" stroke="#000" stroke-width=".154" stroke-miterlimit="10" d="M106.637 37.983L105.085 38.892 105.085 43.947 108.818 46.109 112.585 43.909 112.585 38.845 110.899 37.867"/></g><g><defs><path id="v" d="M35.4 0H126.029V97.295H35.4z"/></defs><clipPath id="w"><use xlink:href="#v" overflow="visible"/></clipPath><path clip-path="url(#w)" fill="none" stroke="#000" stroke-width=".145" stroke-miterlimit="10" d="M45.743 7.509c-.731.127-1.288.791-1.288 1.59v1.122c0 .438.691.793 1.545.793s1.545-.355 1.545-.793V9.099c0-.798-.557-1.462-1.288-1.59v-.17c0-.079-.098-.172-.258-.172-.157 0-.256.093-.256.172v.17z"/></g><g><defs><path id="x" d="M-69 -381.24H1155V410.76H-69z"/></defs><clipPath id="y"><use xlink:href="#x" overflow="visible"/></clipPath><path clip-path="url(#y)" fill="none" stroke="#000" stroke-width=".154" stroke-miterlimit="10" d="M119.618 53.038L108.806 59.341 37.261 17.895"/><path clip-path="url(#y)" fill="none" stroke="#000" stroke-width=".154" stroke-miterlimit="10" d="M70.543 73.447L68.455 72.241 66.571 73.339 69.179 74.847 70.543 74.053"/><path clip-path="url(#y)" fill="none" stroke="#000" stroke-width=".154" stroke-miterlimit="10" d="M70.543 73.447L68.455 72.241"/><path clip-path="url(#y)" fill="none" stroke="#000" stroke-width=".154" stroke-miterlimit="10" d="M70.543 75.19L69.563 74.623"/></g><g><defs><path id="z" d="M35.4 0H126.029V97.295H35.4z"/></defs><clipPath id="A"><use xlink:href="#z" overflow="visible"/></clipPath><path clip-path="url(#A)" fill="none" stroke="#000" stroke-width=".154" stroke-miterlimit="10" d="M68.878 69.868c-.285.242-.419.651-.419.861v1.541"/></g><g><defs><path id="B" d="M-69 -381.24H1155V410.76H-69z"/></defs><clipPath id="C"><use xlink:href="#B" overflow="visible"/></clipPath><path clip-path="url(#C)" fill="none" stroke="#000" stroke-width=".154" stroke-miterlimit="10" d="M68.049 74.193L67.517 74.503 37.183 57.414"/><path clip-path="url(#C)" fill="none" stroke="#000" stroke-width=".154" stroke-miterlimit="10" d="M67.521 74.503L67.521 73.888"/></g><g><defs><path id="D" d="M35.4 0H126.029V97.295H35.4z"/></defs><clipPath id="E"><use xlink:href="#D" overflow="visible"/></clipPath><path clip-path="url(#E)" fill="none" stroke="#000" stroke-width=".154" stroke-miterlimit="10" d="M117.075 90.228v-5.765l-5.742 3.188v5.933l-2.568 1.497-19.247-9.11-15.437-7.77-3.538-1.993v-4.051c0-.263-.245-1.495-1.51-2.227-1.067-.62-1.513.485-1.513.874v1.981"/></g><g><defs><path id="F" d="M-69 -381.24H1155V410.76H-69z"/></defs><clipPath id="G"><use xlink:href="#F" overflow="visible"/></clipPath><path clip-path="url(#G)" fill="none" stroke="#000" stroke-width=".154" stroke-miterlimit="10" d="M113.012 90.639L113.012 89.143 112.078 89.683 112.078 91.18"/></g><g><defs><path id="H" d="M35.4 0H126.029V97.295H35.4z"/></defs><clipPath id="I"><use xlink:href="#H" overflow="visible"/></clipPath><path clip-path="url(#I)" fill="none" stroke="#000" stroke-width=".154" stroke-miterlimit="10" d="M117.951 51.975l1.654 1.085v35.703l-2.53 1.466c-.087-.032-2.168-.641-3.842.285l-1.321.766a1.995 1.995 0 0 0-.58.429"/></g><g><defs><path id="J" d="M-69 -381.24H1155V410.76H-69z"/></defs><clipPath id="K"><use xlink:href="#J" overflow="visible"/></clipPath><path clip-path="url(#K)" fill="none" stroke="#000" stroke-width=".145" stroke-miterlimit="10" d="M68.153 26.611L73.457 23.452 73.457 21.407 60.958 13.17 53.211 17.647"/><path clip-path="url(#K)" fill="none" stroke="#000" stroke-width=".145" stroke-miterlimit="10" d="M73.456 21.398L68.167 24.517"/></g><g><defs><path id="L" d="M35.4 0H126.029V97.295H35.4z"/></defs></g><g><defs><path id="M" d="M-69 -381.24H1155V410.76H-69z"/></defs></g></svg>