<?xml version="1.0" encoding="utf-8"?>
<!-- Generator: Adobe Illustrator 23.0.0, SVG Export Plug-In . SVG Version: 6.00 Build 0)  -->
<svg version="1.1" id="Layer_1" xmlns="http://www.w3.org/2000/svg" xmlns:xlink="http://www.w3.org/1999/xlink" x="0px" y="0px"
	 viewBox="0 0 189.9 92.6" style="enable-background:new 0 0 189.9 92.6;" xml:space="preserve">
<style type="text/css">
	.st0{fill:#D2D3D4;}
	.st1{clip-path:url(#SVGID_2_);}
	.st2{fill:#231F20;}
	.st3{clip-path:url(#SVGID_4_);}
	.st4{fill:none;stroke:#D1D3D4;stroke-width:1.09;stroke-miterlimit:10;}
	.st5{clip-path:url(#SVGID_6_);}
	.st6{fill:none;stroke:#231F20;stroke-width:0.15;stroke-miterlimit:10;}
	.st7{enable-background:new    ;}
	.st8{fill:#D1D3D4;}
	.st9{fill:none;stroke:#231F20;stroke-width:0.14;stroke-miterlimit:10;}
	.st10{clip-path:url(#SVGID_8_);}
	.st11{clip-path:url(#SVGID_10_);}
	.st12{clip-path:url(#SVGID_12_);}
	.st13{clip-path:url(#SVGID_14_);}
	.st14{clip-path:url(#SVGID_16_);}
	.st15{fill:none;stroke:#FFFFFF;stroke-width:0.15;stroke-miterlimit:10;}
	.st16{fill:none;}
</style>
<title>residence_D_9-11_key_horizontal</title>
<g>
	<path class="st0" d="M83.6,43.8c-0.6,0-1-0.4-1-1.1v-1.4H86v1.3c0,0.7-0.3,1.1-0.9,1.1c-0.3,0-0.6-0.2-0.7-0.4
		C84.2,43.6,83.9,43.8,83.6,43.8z M83.2,41.9v0.7c0,0.3,0.2,0.5,0.4,0.5s0.4-0.2,0.4-0.5v-0.7H83.2z M84.6,42.5
		c0,0.3,0.1,0.5,0.4,0.5s0.4-0.2,0.4-0.5v-0.6h-0.8V42.5z"/>
	<path class="st0" d="M83.8,46.2h-1.3v-0.7H86v1.4c0.1,0.5-0.3,1.1-0.8,1.2c-0.1,0-0.2,0-0.3,0c-0.5,0-0.9-0.3-1-0.8l-1.3,0.9v-0.8
		l1.3-0.8L83.8,46.2z M84.4,46.2v0.6c0,0.4,0.2,0.5,0.5,0.5s0.5-0.2,0.5-0.5v-0.6H84.4z"/>
	<path class="st0" d="M82.5,51.2c-0.1-1,0.6-1.8,1.6-1.9c1-0.1,1.8,0.6,1.9,1.6s-0.6,1.8-1.6,1.9c-0.1,0-0.1,0-0.2,0
		c-0.9,0.1-1.7-0.6-1.7-1.5C82.5,51.3,82.5,51.3,82.5,51.2z M85.4,51.2c0-0.5-0.4-0.9-1.1-0.9s-1.1,0.3-1.1,0.9s0.5,0.9,1.1,0.9
		S85.4,51.8,85.4,51.2z"/>
	<path class="st0" d="M86,56.1l-3.4,1.3v-0.7l0.8-0.3v-1.3l-0.8-0.3v-0.7l3.4,1.3V56.1z M84,55.4v0.8l1.1-0.4L84,55.4z"/>
	<path class="st0" d="M86,59v1.2c0,0.9-0.8,1.7-1.7,1.7c-0.9,0-1.7-0.8-1.7-1.7V59H86z M83.2,60.2c0,0.6,0.5,1.1,1.1,1.1
		c0.6,0,1.1-0.5,1.1-1.1v-0.5h-2.2L83.2,60.2z"/>
	<path class="st0" d="M86,65.7l-2.3,0.6l2.3,0.6v0.7l-3.4-0.9V66l2.2-0.6l-2.2-0.6v-0.6l3.4-0.9V64l-2.3,0.6l2.3,0.6V65.7z"/>
	<path class="st0" d="M86,70.7L82.6,72v-0.7l0.8-0.3v-1.3l-0.8-0.3v-0.7L86,70V70.7z M84,69.9v0.8l1.1-0.4L84,69.9z"/>
	<path class="st0" d="M86,75.3v0.7l-2.1-1.2h-1.3v-0.7h1.3l2.1-1.2v0.8l-1.4,0.8L86,75.3z"/>
	<path class="st0" d="M180.9,35.1v0.7h-2.8v1.6h-0.6v-2.3H180.9z"/>
	<path class="st0" d="M180.9,40.8l-3.4,1.3v-0.7l0.8-0.3v-1.3l-0.8-0.3v-0.7l3.4,1.3V40.8z M179,40v0.8l1.1-0.4L179,40z"/>
	<path class="st0" d="M177.6,43.7h3.4V46h-0.6v-1.6h-0.9v1.4h-0.6v-1.4h-1.3V43.7z"/>
	<path class="st0" d="M180.9,49.2l-3.4,1.3v-0.7l0.8-0.3v-1.3l-0.8-0.3v-0.7l3.4,1.3V49.2z M178.9,48.4v0.8l1.1-0.4L178.9,48.4z"/>
	<path class="st0" d="M180.9,53.9v0.7l-2.1-1.2h-1.3v-0.7h1.3l2.1-1.2v0.8l-1.4,0.8L180.9,53.9z"/>
	<path class="st0" d="M180.9,58.5h-0.6v-1.6h-0.7v1.5H179v-1.5h-0.8v1.6h-0.6v-2.3h3.4L180.9,58.5z"/>
	<path class="st0" d="M180.9,60.1V63h-0.6v-1.1h-2.8v-0.7h2.8v-1.1H180.9z"/>
	<path class="st0" d="M180.9,64.4v2.9h-0.6v-1.1h-2.8v-0.7h2.8v-1.1H180.9z"/>
	<path class="st0" d="M180.9,71.3h-0.6v-1.6h-0.7v1.5H179v-1.5h-0.8v1.6h-0.6V69h3.4L180.9,71.3z"/>
	<path class="st0" d="M178.5,75.9c-0.3,0.1-0.5,0.4-0.4,0.7c0,0.3,0.2,0.6,0.4,0.6s0.3-0.1,0.4-0.4l0.1-0.6c0-0.5,0.4-0.9,0.9-0.8
		c0.6,0,1,0.6,1,1.1c0,0,0,0,0,0.1c0.1,0.6-0.4,1.2-1,1.3v-0.7c0.3-0.1,0.4-0.4,0.4-0.6c0-0.3-0.2-0.5-0.4-0.5s-0.3,0.1-0.4,0.4
		l-0.1,0.6c-0.1,0.6-0.4,0.9-0.9,0.9c-0.6,0-1.1-0.5-1.1-1.2c0,0,0-0.1,0-0.1c-0.1-0.7,0.4-1.3,1-1.4L178.5,75.9L178.5,75.9z"/>
	<path class="st0" d="M180.9,79.3v2.9h-0.6v-1.1h-2.8v-0.7h2.8v-1.1H180.9z"/>
	<path class="st0" d="M112.4,39.3h0.7v2.8h1.6v0.6h-2.3V39.3z"/>
	<path class="st0" d="M118.6,39.3v0.6H117v0.7h1.4v0.6H117v0.8h1.6v0.6h-2.3v-3.4H118.6z"/>
	<path class="st0" d="M121.6,42.7c-1,0.1-1.8-0.6-1.9-1.6c-0.1-1,0.6-1.8,1.6-1.9c1-0.1,1.8,0.6,1.9,1.6c0,0.1,0,0.1,0,0.2
		c0.1,0.9-0.6,1.7-1.5,1.7C121.7,42.7,121.7,42.7,121.6,42.7z M121.6,39.9c-0.5,0-0.9,0.5-0.9,1.1s0.3,1.1,0.9,1.1s0.9-0.5,0.9-1.1
		S122.2,39.9,121.6,39.9z"/>
	<path class="st0" d="M127.7,42.7h-0.6l-1.6-2.2v2.2h-0.7v-3.4h0.7l1.5,2.1v-2.1h0.7L127.7,42.7z"/>
	<path class="st0" d="M131.2,39.3l1.3,3.4h-0.7l-0.3-0.8h-1.3l-0.3,0.8h-0.7l1.3-3.4H131.2z M130.4,41.3h0.8l-0.4-1.1L130.4,41.3z"
		/>
	<path class="st0" d="M134.6,41.4v1.3H134v-3.4h1.4c0.6-0.1,1.1,0.3,1.2,0.9c0,0.1,0,0.1,0,0.2c0,0.5-0.3,0.9-0.8,1l0.9,1.3h-0.8
		l-0.9-1.3H134.6z M134.6,40.8h0.6c0.4,0,0.5-0.2,0.5-0.5s-0.2-0.5-0.5-0.5h-0.6V40.8z"/>
	<path class="st0" d="M138.1,39.3h1.2c0.9,0,1.7,0.8,1.7,1.7c0,0.9-0.8,1.7-1.7,1.7h-1.2V39.3z M139.3,42.1c0.6,0,1.1-0.5,1.1-1.1
		c0-0.6-0.5-1.1-1.1-1.1h-0.5v2.1H139.3z"/>
	<path class="st0" d="M145.4,41.7c0.1,0.3,0.4,0.5,0.7,0.4c0.3,0,0.6-0.2,0.6-0.4s-0.1-0.3-0.4-0.4l-0.6-0.1
		c-0.5-0.1-0.9-0.4-0.9-0.9c0-0.6,0.6-1,1.2-1c0,0,0,0,0,0c0.6-0.1,1.2,0.4,1.3,1h-0.7c-0.1-0.3-0.3-0.4-0.6-0.4
		c-0.3,0-0.5,0.2-0.5,0.4s0.1,0.3,0.4,0.4l0.6,0.1c0.6,0.1,0.9,0.4,0.9,1c0,0.7-0.5,1-1.2,1c-0.7,0.1-1.3-0.4-1.4-1L145.4,41.7z"/>
	<path class="st0" d="M148.6,39.3h2.9v0.6h-1.1v2.8h-0.7v-2.8h-1.1V39.3z"/>
	<path class="st0" d="M109.9,74.6c0.7,0,1.3,0.4,1.4,1.1h-0.7c-0.1-0.3-0.4-0.5-0.7-0.5c-0.5,0-0.8,0.5-0.8,1.1s0.3,1.1,0.8,1.1
		c0.3,0,0.6-0.2,0.7-0.5h0.7c-0.1,0.7-0.7,1.2-1.4,1.1c-1-0.1-1.7-1-1.6-1.9C108.4,75.3,109.1,74.6,109.9,74.6L109.9,74.6z"/>
	<path class="st0" d="M114.7,74.6l1.3,3.4h-0.7l-0.3-0.8h-1.3l-0.3,0.8h-0.7l1.3-3.4H114.7z M113.9,76.6h0.8l-0.4-1.1L113.9,76.6z"
		/>
	<path class="st0" d="M117,74.6h2.9v0.6h-1.1V78h-0.7v-2.8H117V74.6z"/>
	<path class="st0" d="M124.5,74.6V78h-0.7v-1.4h-1.5V78h-0.7v-3.4h0.7v1.3h1.5v-1.3H124.5z"/>
	<path class="st0" d="M128.7,74.6v0.6h-1.6V76h1.5v0.6h-1.4v0.8h1.6V78h-2.3v-3.4H128.7z"/>
	<path class="st0" d="M131.1,76.7V78h-0.7v-3.4h1.4c0.5-0.1,1.1,0.2,1.2,0.8c0,0.1,0,0.2,0,0.3c0,0.5-0.3,0.9-0.8,1l0.9,1.3h-0.8
		l-0.8-1.3L131.1,76.7z M131.1,76.1h0.6c0.4,0,0.5-0.2,0.5-0.5s-0.2-0.5-0.5-0.5h-0.6V76.1z"/>
	<path class="st0" d="M135.4,78h-0.7v-3.4h0.7V78z"/>
	<path class="st0" d="M140.1,78h-0.6l-1.6-2.3V78h-0.7v-3.4h0.7l1.5,2.1v-2.1h0.7L140.1,78z"/>
	<path class="st0" d="M144.2,74.6v0.6h-1.6V76h1.4v0.6h-1.4v0.8h1.6V78H142v-3.4H144.2z"/>
	<path class="st0" d="M148.4,74.6h0.7v2.8h1.6V78h-2.3V74.6z"/>
	<path class="st0" d="M155.2,78h-0.6l-1.6-2.2V78h-0.7v-3.4h0.6l1.5,2.1v-2.1h0.7L155.2,78L155.2,78z"/>
</g>
<g id="Layer_4">
	<g>
		<defs>
			<rect id="SVGID_1_" x="91.9" y="51" width="77.1" height="17.4"/>
		</defs>
		<clipPath id="SVGID_2_">
			<use xlink:href="#SVGID_1_"  style="overflow:visible;"/>
		</clipPath>
		<g class="st1">
			<polygon class="st2" points="104.8,60.9 107.7,60.9 107.7,59.1 108.8,59.1 108.8,59.3 109.7,59.3 109.7,59.2 112.8,59.2 
				112.8,63.8 104.8,63.3 			"/>
			<g>
				<defs>
					<rect id="SVGID_3_" x="91.9" y="51" width="77.1" height="17.4"/>
				</defs>
				<clipPath id="SVGID_4_">
					<use xlink:href="#SVGID_3_"  style="overflow:visible;"/>
				</clipPath>
				<g class="st3">
					<polygon class="st4" points="167.1,52.1 167.1,67.2 92.8,62.6 92.8,52.1 					"/>
				</g>
			</g>
		</g>
	</g>
	<g>
		<defs>
			<rect id="SVGID_5_" x="4.7" y="6.8" width="63.2" height="76.2"/>
		</defs>
		<clipPath id="SVGID_6_">
			<use xlink:href="#SVGID_5_"  style="overflow:visible;"/>
		</clipPath>
		<g class="st5">
			<polyline class="st6" points="66.7,51.6 55.8,57.8 9.8,27.6 			"/>
			<polyline class="st6" points="66.7,53.7 55.8,59.9 9.8,29.6 			"/>
			<polyline class="st6" points="66.7,55.8 55.8,61.9 9.8,31.7 			"/>
			<polyline class="st6" points="66.7,57.8 55.8,64 9.8,33.8 			"/>
			<polyline class="st6" points="66.7,59.9 55.8,66.1 9.8,35.8 			"/>
			<polyline class="st6" points="66.7,62 55.8,68.1 9.8,37.9 			"/>
			<polyline class="st6" points="66.7,64 55.8,70.2 9.8,40 			"/>
			<polyline class="st6" points="66.7,66.1 55.8,72.3 9.8,42 			"/>
			<polyline class="st6" points="66.7,68.1 55.8,74.3 9.8,44.1 			"/>
			<polyline class="st6" points="66.7,70.2 55.8,76.4 9.8,46.2 			"/>
			<polyline class="st6" points="66.7,72.3 55.8,78.5 9.8,48.2 			"/>
			<g class="st7">
				<path class="st8" d="M14.4,57.2c0.5,0.4,0.5,0.8,0.1,1.1L14.1,58c0.1-0.2,0.1-0.4-0.1-0.5c-0.4-0.2-0.9-0.2-1.3,0.1
					c-0.4,0.3-0.6,0.6-0.2,0.8c0.3,0.2,0.5,0.2,0.8,0.1l0.5,0.3c-0.5,0.2-1.2,0.2-1.7-0.2c-0.6-0.4-0.5-1,0.2-1.4
					C12.9,56.8,13.8,56.8,14.4,57.2z"/>
			</g>
			<g class="st7">
				<path class="st8" d="M17.5,59.4L16,61.3L15.6,61l0.4-0.5L15.1,60l-0.7,0.2l-0.5-0.3l3.1-0.8L17.5,59.4z M15.7,59.8l0.5,0.4
					l0.5-0.6L15.7,59.8z"/>
			</g>
			<g class="st7">
				<path class="st8" d="M19.1,60.5l1.9,1.3l-0.4,0.2l-0.7-0.5L18,62.7l-0.5-0.3l1.9-1.1l-0.7-0.5L19.1,60.5z"/>
				<path class="st8" d="M24,64l-2.3,1.3L21.3,65l1-0.6l-1-0.7l-1,0.6L19.8,64l2.3-1.3l0.5,0.3l-0.9,0.5l1,0.7l0.9-0.5L24,64z"/>
				<path class="st8" d="M26.8,65.9l-0.4,0.2l-1-0.7l-0.5,0.3l0.9,0.7l-0.4,0.2l-0.9-0.7l-0.5,0.3l1,0.7l-0.4,0.2l-1.5-1l2.3-1.3
					L26.8,65.9z"/>
				<path class="st8" d="M27,67.9l-0.9,0.5l-0.5-0.3l2.3-1.3l0.9,0.6c0.5,0.3,0.5,0.7,0,1c-0.4,0.2-0.8,0.2-1.2,0l-0.3,0.9l-0.5-0.4
					l0.3-0.9L27,67.9z M27.4,67.6l0.4,0.3c0.2,0.2,0.5,0.2,0.7,0.1c0.2-0.1,0.2-0.3,0-0.4L28,67.3L27.4,67.6z"/>
				<path class="st8" d="M29,70.4L28.6,70l2.3-1.3l0.5,0.3L29,70.4z"/>
				<path class="st8" d="M32.1,72.5l-0.4-0.2l0.5-1.6l-1.5,0.9l-0.4-0.3l2.3-1.3l0.4,0.3l-0.5,1.5l1.5-0.8l0.4,0.3L32.1,72.5z"/>
				<path class="st8" d="M37.2,73.1l-0.4,0.2l-1-0.7l-0.5,0.3l0.9,0.7l-0.4,0.2l-0.9-0.7l-0.5,0.3l1,0.7l-0.4,0.2l-1.5-1l2.3-1.3
					L37.2,73.1z"/>
				<path class="st8" d="M40,75.1l0.5,0.3l-1.9,1.1l1,0.7l-0.4,0.2l-1.5-1L40,75.1z"/>
			</g>
			<g class="st7">
				<path class="st8" d="M42.2,79.5l-0.4-0.3l0.5-1.6l-1.5,0.9l-0.4-0.3l2.3-1.3l0.4,0.3l-0.5,1.5l1.5-0.8l0.4,0.3L42.2,79.5z"/>
			</g>
			<polyline class="st9" points="66.7,49.5 55.8,55.7 9.8,25.5 			"/>
			<line class="st9" x1="55.8" y1="53.6" x2="55.8" y2="80.4"/>
			<line class="st9" x1="61.3" y1="76.6" x2="60.7" y2="77.1"/>
			<polyline class="st9" points="61.3,76.6 61.8,76.9 66.7,74 66.7,47.5 			"/>
			<polyline class="st9" points="66.7,47.5 55.8,53.6 9.8,23.4 			"/>
			<g>
				<defs>
					<rect id="SVGID_7_" x="4.7" y="6.8" width="63.2" height="76.2"/>
				</defs>
				<clipPath id="SVGID_8_">
					<use xlink:href="#SVGID_7_"  style="overflow:visible;"/>
				</clipPath>
				<g class="st10">
					<path class="st9" d="M61.3,76.6v-0.6c0-0.1,0-0.2-0.1-0.3"/>
					<path class="st9" d="M61.8,76.9V76c0-0.2-0.2-0.5-0.6-0.2c-0.3,0.2-0.5,0.5-0.5,0.8v1l-4.9,2.9L49.3,76l-8.2-5.6l-6.8-4.7
						l-10.1-7L9.8,48.3V23.4l1-0.6"/>
				</g>
			</g>
			<line class="st9" x1="57.5" y1="48.5" x2="57.5" y2="47.5"/>
			<line class="st9" x1="16.3" y1="25.4" x2="16.3" y2="27.2"/>
			<line class="st9" x1="57.5" y1="48.5" x2="58.1" y2="48.9"/>
			<line class="st9" x1="57.5" y1="47.5" x2="58.1" y2="47.8"/>
			<line class="st9" x1="16.7" y1="14.4" x2="16.7" y2="12.9"/>
			<line class="st9" x1="16.7" y1="14.4" x2="16.7" y2="12.9"/>
			<line class="st9" x1="16.4" y1="23.9" x2="16.4" y2="20.6"/>
			<polyline class="st9" points="17.5,26.5 16.3,27.2 10.8,23.5 10.8,21.7 12.7,20.5 			"/>
			<polyline class="st9" points="16.6,18.7 19.3,17.2 19.3,13.7 19.3,13.7 18.1,12.9 			"/>
			<g>
				<defs>
					<rect id="SVGID_9_" x="4.7" y="6.8" width="63.2" height="76.2"/>
				</defs>
				<clipPath id="SVGID_10_">
					<use xlink:href="#SVGID_9_"  style="overflow:visible;"/>
				</clipPath>
				<g class="st11">
					<path class="st9" d="M16.1,16.1c0.2,0.6,0,1.1-0.4,1.1s-1-0.5-1.2-1.1S14.5,15,14.9,15S15.9,15.5,16.1,16.1z"/>
					<path class="st9" d="M17.2,16.2c-0.2,0.6,0,1.1,0.4,1.1s1-0.5,1.2-1.1s0-1.1-0.4-1.1S17.4,15.5,17.2,16.2z"/>
				</g>
			</g>
			<line class="st9" x1="16.4" y1="20.7" x2="20.7" y2="18.2"/>
			<line class="st9" x1="12.7" y1="18.2" x2="16.4" y2="20.7"/>
			<line class="st9" x1="10.8" y1="21.7" x2="16.3" y2="25.4"/>
			<polyline class="st9" points="19.3,17 19.5,17.1 19.5,18.2 19.5,18.3 16.6,20 16.6,19.9 16.6,15.3 			"/>
			<polyline class="st9" points="13.8,17.6 12.7,18.2 12.7,21.5 12.7,21.5 16.4,23.9 			"/>
			<polyline class="st9" points="20.8,19.9 23,21.4 23,22.6 			"/>
			<line class="st9" x1="16.6" y1="15.4" x2="19.3" y2="13.7"/>
			<line class="st9" x1="14.1" y1="13.7" x2="15.2" y2="13.1"/>
			<line class="st9" x1="14.1" y1="13.6" x2="16.6" y2="15.4"/>
			<polyline class="st9" points="19.5,17.4 20.7,18.2 20.8,18.2 20.8,21.4 20.7,21.4 16.3,24 			"/>
			<line class="st9" x1="15.2" y1="12" x2="16.7" y2="12.9"/>
			<line class="st9" x1="17.4" y1="11.5" x2="18.1" y2="12"/>
			<g>
				<defs>
					<rect id="SVGID_11_" x="4.7" y="6.8" width="63.2" height="76.2"/>
				</defs>
				<clipPath id="SVGID_12_">
					<use xlink:href="#SVGID_11_"  style="overflow:visible;"/>
				</clipPath>
				<g class="st12">
					<path class="st9" d="M15.3,10.2c0,0.1-0.1,0.2-0.1,0.2l0.1,0.2c0.1,0.1,0.4,0.2,1,0.1c0.6-0.1,1.7-0.8,1.8-1.4l-0.2-0.4
						c-0.1,0-0.2,0-0.4,0"/>
				</g>
			</g>
			<polyline class="st9" points="15.8,8 16.6,8.4 16.8,8.3 17.4,7.5 			"/>
			<g>
				<defs>
					<rect id="SVGID_13_" x="4.7" y="6.8" width="63.2" height="76.2"/>
				</defs>
				<clipPath id="SVGID_14_">
					<use xlink:href="#SVGID_13_"  style="overflow:visible;"/>
				</clipPath>
				<g class="st13">
					<path class="st9" d="M17.9,9.7c0,0.2,0,0.4,0,0.6c-0.1,0.7-0.8,1.1-1.5,1c-0.3,0-0.5-0.2-0.7-0.4h-0.1"/>
					<path class="st9" d="M15.4,10.5c0-0.1-0.1-0.2-0.1-0.3c-0.1-0.7,0.4-1.4,1.1-1.5c0.4-0.1,0.8,0.1,1.1,0.4
						c0.1,0.1,0.2,0.2,0.2,0.3"/>
					<path class="st9" d="M17.5,11.7c0,0,0-0.1,0-0.1c0,0,0-0.1-0.1-0.1c-0.1,0-0.2,0-0.2,0c0,0,0,0,0-0.1l0,0l0.1-0.3"/>
					<path class="st9" d="M16.9,11.7c0,0.1,0,0.1,0,0.1s0.1,0.1,0.2,0"/>
				</g>
			</g>
			<polyline class="st9" points="16.2,12.2 16.2,12.1 16.4,11.8 16.4,11.7 16.1,11.6 15.8,11.4 15.9,11.1 			"/>
			<line class="st9" x1="14.1" y1="17" x2="16.6" y2="18.7"/>
			<polyline class="st9" points="16.6,20 13.8,18.2 13.8,18.2 13.8,17.2 13.8,17.2 14.1,17 14.1,17 14.1,13.6 			"/>
			<polyline class="st9" points="15.9,11.5 15.2,12 15.2,12 15.2,13.5 16.6,14.4 16.7,14.4 18.1,13.6 18.1,12.1 18.1,12.1 
				16.7,12.9 			"/>
			<line class="st9" x1="41.2" y1="39" x2="50.4" y2="44.8"/>
			<polyline class="st9" points="62.2,46.6 60.1,47.8 58.1,46.5 			"/>
			<line class="st9" x1="60.1" y1="50.7" x2="60.1" y2="47.8"/>
			<polyline class="st9" points="58.1,47.1 53.9,49.6 17.5,26.3 			"/>
			<line class="st6" x1="66.7" y1="47.5" x2="23" y2="22.2"/>
			<line class="st6" x1="51.7" y1="39.3" x2="25.8" y2="24.3"/>
			<line class="st9" x1="53.9" y1="50.7" x2="53.9" y2="49.6"/>
			<line class="st9" x1="50.4" y1="46.1" x2="50.4" y2="44.8"/>
			<polygon class="st9" points="55.8,41.6 55.8,42.9 50.4,46.1 41.2,40.3 41.2,39 45.3,36.6 50.7,39.9 51.8,39.2 			"/>
			<line class="st9" x1="55.8" y1="41.6" x2="50.4" y2="44.8"/>
			<line class="st9" x1="25.8" y1="24.2" x2="21.9" y2="26.5"/>
			<polygon class="st9" points="18.5,25.7 18.5,24.4 18.5,24.4 22.3,22.2 25.8,24.2 25.8,25.4 25.8,25.4 21.9,27.8 			"/>
			<polyline class="st9" points="57.5,48.5 53.9,50.7 17.5,27.4 17.5,27.4 17.5,26.3 18.5,25.7 			"/>
			<line class="st9" x1="21.9" y1="26.5" x2="18.5" y2="24.4"/>
			<line class="st9" x1="21.9" y1="27.7" x2="21.9" y2="26.5"/>
			<polyline class="st9" points="61.4,46.1 61.7,45.9 61.7,45.1 55.8,41.7 			"/>
			<line class="st9" x1="61.7" y1="45.1" x2="61.2" y2="45.3"/>
			<line class="st9" x1="23" y1="21.4" x2="16.3" y2="25.4"/>
			<polyline class="st9" points="59.2,45.9 58.1,46.5 58.1,49.5 60.1,50.7 62.2,49.5 62.2,46.6 61.3,46 			"/>
			<g>
				<defs>
					<rect id="SVGID_15_" x="4.7" y="6.8" width="63.2" height="76.2"/>
				</defs>
				<clipPath id="SVGID_16_">
					<use xlink:href="#SVGID_15_"  style="overflow:visible;"/>
				</clipPath>
				<g class="st14">
					<path class="st9" d="M60.1,44.7c-0.5,0.1-0.9,0.6-0.9,1.1v0.8c0,0.3,0.5,0.5,1.1,0.5s1.1-0.2,1.1-0.5v-0.8c0-0.5-0.4-1-0.9-1.1
						v-0.1c0-0.1-0.1-0.1-0.2-0.1s-0.2,0.1-0.2,0.1V44.7z"/>
				</g>
			</g>
			<polygon class="st2" points="21.5,37.3 16.5,34 16.5,32 21.5,35.3 			"/>
			<polygon class="st2" points="21.5,39.4 16.5,36.1 16.5,34.1 21.5,37.4 			"/>
			<polygon class="st2" points="21.5,41.5 16.5,38.1 16.5,36.2 21.5,39.4 			"/>
			<line class="st15" x1="16.5" y1="36.1" x2="21.5" y2="39.4"/>
			<line class="st16" x1="16.5" y1="34" x2="21.5" y2="37.4"/>
			<line class="st15" x1="16.5" y1="34" x2="21.5" y2="37.4"/>
		</g>
	</g>
</g>
</svg>
