<?xml version="1.0" encoding="utf-8"?>
<!-- Generator: Adobe Illustrator 23.0.0, SVG Export Plug-In . SVG Version: 6.00 Build 0)  -->
<svg version="1.1" id="Layer_1" xmlns="http://www.w3.org/2000/svg" xmlns:xlink="http://www.w3.org/1999/xlink" x="0px" y="0px"
	 viewBox="0 0 189.9 92.6" style="enable-background:new 0 0 189.9 92.6;" xml:space="preserve">
<style type="text/css">
	.st0{fill:#D2D3D4;}
	.st1{clip-path:url(#SVGID_2_);}
	.st2{clip-path:url(#SVGID_4_);}
	.st3{fill:none;stroke:#D1D3D4;stroke-width:1.09;stroke-miterlimit:10;}
	.st4{clip-path:url(#SVGID_6_);}
	.st5{fill:#231F20;}
	.st6{clip-path:url(#SVGID_8_);}
	.st7{clip-path:url(#SVGID_10_);}
	.st8{fill:none;stroke:#231F20;stroke-width:0.15;stroke-miterlimit:10;}
	.st9{enable-background:new    ;}
	.st10{fill:#D1D3D4;}
	.st11{fill:none;stroke:#231F20;stroke-width:0.14;stroke-miterlimit:10;}
	.st12{clip-path:url(#SVGID_12_);}
	.st13{clip-path:url(#SVGID_14_);}
	.st14{clip-path:url(#SVGID_16_);}
	.st15{clip-path:url(#SVGID_18_);}
	.st16{clip-path:url(#SVGID_20_);}
</style>
<title>residence_R_4_key_horizontal</title>
<g>
	<path class="st0" d="M83.6,43.8c-0.6,0-1-0.4-1-1.1v-1.4H86v1.3c0,0.7-0.3,1.1-0.9,1.1c-0.3,0-0.6-0.2-0.7-0.4
		C84.2,43.6,83.9,43.8,83.6,43.8z M83.2,41.9v0.7c0,0.3,0.2,0.5,0.4,0.5s0.4-0.2,0.4-0.5v-0.7H83.2z M84.6,42.5
		c0,0.3,0.1,0.5,0.4,0.5s0.4-0.2,0.4-0.5v-0.6h-0.8V42.5z"/>
	<path class="st0" d="M83.8,46.2h-1.3v-0.7H86v1.4c0.1,0.5-0.3,1.1-0.8,1.2c-0.1,0-0.2,0-0.3,0c-0.5,0-0.9-0.3-1-0.8l-1.3,0.9v-0.8
		l1.3-0.8L83.8,46.2z M84.4,46.2v0.6c0,0.4,0.2,0.5,0.5,0.5s0.5-0.2,0.5-0.5v-0.6H84.4z"/>
	<path class="st0" d="M82.5,51.2c-0.1-1,0.6-1.8,1.6-1.9c1-0.1,1.8,0.6,1.9,1.6s-0.6,1.8-1.6,1.9c-0.1,0-0.1,0-0.2,0
		c-0.9,0.1-1.7-0.6-1.7-1.5C82.5,51.3,82.5,51.3,82.5,51.2z M85.4,51.2c0-0.5-0.4-0.9-1.1-0.9s-1.1,0.3-1.1,0.9s0.5,0.9,1.1,0.9
		S85.4,51.8,85.4,51.2z"/>
	<path class="st0" d="M86,56.1l-3.4,1.3v-0.7l0.8-0.3v-1.3l-0.8-0.3v-0.7l3.4,1.3V56.1z M84,55.4v0.8l1.1-0.4L84,55.4z"/>
	<path class="st0" d="M86,59v1.2c0,0.9-0.8,1.7-1.7,1.7c-0.9,0-1.7-0.8-1.7-1.7V59H86z M83.2,60.2c0,0.6,0.5,1.1,1.1,1.1
		c0.6,0,1.1-0.5,1.1-1.1v-0.5h-2.2L83.2,60.2z"/>
	<path class="st0" d="M86,65.7l-2.3,0.6l2.3,0.6v0.7l-3.4-0.9V66l2.2-0.6l-2.2-0.6v-0.6l3.4-0.9V64l-2.3,0.6l2.3,0.6V65.7z"/>
	<path class="st0" d="M86,70.7L82.6,72v-0.7l0.8-0.3v-1.3l-0.8-0.3v-0.7L86,70V70.7z M84,69.9v0.8l1.1-0.4L84,69.9z"/>
	<path class="st0" d="M86,75.3v0.7l-2.1-1.2h-1.3v-0.7h1.3l2.1-1.2v0.8l-1.4,0.8L86,75.3z"/>
	<path class="st0" d="M180.9,35.1v0.7h-2.8v1.6h-0.6v-2.3H180.9z"/>
	<path class="st0" d="M180.9,40.8l-3.4,1.3v-0.7l0.8-0.3v-1.3l-0.8-0.3v-0.7l3.4,1.3V40.8z M179,40v0.8l1.1-0.4L179,40z"/>
	<path class="st0" d="M177.6,43.7h3.4V46h-0.6v-1.6h-0.9v1.4h-0.6v-1.4h-1.3V43.7z"/>
	<path class="st0" d="M180.9,49.2l-3.4,1.3v-0.7l0.8-0.3v-1.3l-0.8-0.3v-0.7l3.4,1.3V49.2z M178.9,48.4v0.8l1.1-0.4L178.9,48.4z"/>
	<path class="st0" d="M180.9,53.9v0.7l-2.1-1.2h-1.3v-0.7h1.3l2.1-1.2v0.8l-1.4,0.8L180.9,53.9z"/>
	<path class="st0" d="M180.9,58.5h-0.6v-1.6h-0.7v1.5H179v-1.5h-0.8v1.6h-0.6v-2.3h3.4L180.9,58.5z"/>
	<path class="st0" d="M180.9,60.1V63h-0.6v-1.1h-2.8v-0.7h2.8v-1.1H180.9z"/>
	<path class="st0" d="M180.9,64.4v2.9h-0.6v-1.1h-2.8v-0.7h2.8v-1.1H180.9z"/>
	<path class="st0" d="M180.9,71.3h-0.6v-1.6h-0.7v1.5H179v-1.5h-0.8v1.6h-0.6V69h3.4L180.9,71.3z"/>
	<path class="st0" d="M178.5,75.9c-0.3,0.1-0.5,0.4-0.4,0.7c0,0.3,0.2,0.6,0.4,0.6s0.3-0.1,0.4-0.4l0.1-0.6c0-0.5,0.4-0.9,0.9-0.8
		c0.6,0,1,0.6,1,1.1c0,0,0,0,0,0.1c0.1,0.6-0.4,1.2-1,1.3v-0.7c0.3-0.1,0.4-0.4,0.4-0.6c0-0.3-0.2-0.5-0.4-0.5s-0.3,0.1-0.4,0.4
		l-0.1,0.6c-0.1,0.6-0.4,0.9-0.9,0.9c-0.6,0-1.1-0.5-1.1-1.2c0,0,0-0.1,0-0.1c-0.1-0.7,0.4-1.3,1-1.4L178.5,75.9L178.5,75.9z"/>
	<path class="st0" d="M180.9,79.3v2.9h-0.6v-1.1h-2.8v-0.7h2.8v-1.1H180.9z"/>
	<path class="st0" d="M112.4,39.3h0.7v2.8h1.6v0.6h-2.3V39.3z"/>
	<path class="st0" d="M118.6,39.3v0.6H117v0.7h1.4v0.6H117v0.8h1.6v0.6h-2.3v-3.4H118.6z"/>
	<path class="st0" d="M121.6,42.7c-1,0.1-1.8-0.6-1.9-1.6c-0.1-1,0.6-1.8,1.6-1.9c1-0.1,1.8,0.6,1.9,1.6c0,0.1,0,0.1,0,0.2
		c0.1,0.9-0.6,1.7-1.5,1.7C121.7,42.7,121.7,42.7,121.6,42.7z M121.6,39.9c-0.5,0-0.9,0.5-0.9,1.1s0.3,1.1,0.9,1.1s0.9-0.5,0.9-1.1
		S122.2,39.9,121.6,39.9z"/>
	<path class="st0" d="M127.7,42.7h-0.6l-1.6-2.2v2.2h-0.7v-3.4h0.7l1.5,2.1v-2.1h0.7L127.7,42.7z"/>
	<path class="st0" d="M131.2,39.3l1.3,3.4h-0.7l-0.3-0.8h-1.3l-0.3,0.8h-0.7l1.3-3.4H131.2z M130.4,41.3h0.8l-0.4-1.1L130.4,41.3z"
		/>
	<path class="st0" d="M134.6,41.4v1.3H134v-3.4h1.4c0.6-0.1,1.1,0.3,1.2,0.9c0,0.1,0,0.1,0,0.2c0,0.5-0.3,0.9-0.8,1l0.9,1.3h-0.8
		l-0.9-1.3H134.6z M134.6,40.8h0.6c0.4,0,0.5-0.2,0.5-0.5s-0.2-0.5-0.5-0.5h-0.6V40.8z"/>
	<path class="st0" d="M138.1,39.3h1.2c0.9,0,1.7,0.8,1.7,1.7c0,0.9-0.8,1.7-1.7,1.7h-1.2V39.3z M139.3,42.1c0.6,0,1.1-0.5,1.1-1.1
		c0-0.6-0.5-1.1-1.1-1.1h-0.5v2.1H139.3z"/>
	<path class="st0" d="M145.4,41.7c0.1,0.3,0.4,0.5,0.7,0.4c0.3,0,0.6-0.2,0.6-0.4s-0.1-0.3-0.4-0.4l-0.6-0.1
		c-0.5-0.1-0.9-0.4-0.9-0.9c0-0.6,0.6-1,1.2-1c0,0,0,0,0,0c0.6-0.1,1.2,0.4,1.3,1h-0.7c-0.1-0.3-0.3-0.4-0.6-0.4
		c-0.3,0-0.5,0.2-0.5,0.4s0.1,0.3,0.4,0.4l0.6,0.1c0.6,0.1,0.9,0.4,0.9,1c0,0.7-0.5,1-1.2,1c-0.7,0.1-1.3-0.4-1.4-1L145.4,41.7z"/>
	<path class="st0" d="M148.6,39.3h2.9v0.6h-1.1v2.8h-0.7v-2.8h-1.1V39.3z"/>
	<path class="st0" d="M109.9,74.6c0.7,0,1.3,0.4,1.4,1.1h-0.7c-0.1-0.3-0.4-0.5-0.7-0.5c-0.5,0-0.8,0.5-0.8,1.1s0.3,1.1,0.8,1.1
		c0.3,0,0.6-0.2,0.7-0.5h0.7c-0.1,0.7-0.7,1.2-1.4,1.1c-1-0.1-1.7-1-1.6-1.9C108.4,75.3,109.1,74.6,109.9,74.6L109.9,74.6z"/>
	<path class="st0" d="M114.7,74.6l1.3,3.4h-0.7l-0.3-0.8h-1.3l-0.3,0.8h-0.7l1.3-3.4H114.7z M113.9,76.6h0.8l-0.4-1.1L113.9,76.6z"
		/>
	<path class="st0" d="M117,74.6h2.9v0.6h-1.1V78h-0.7v-2.8H117V74.6z"/>
	<path class="st0" d="M124.5,74.6V78h-0.7v-1.4h-1.5V78h-0.7v-3.4h0.7v1.3h1.5v-1.3H124.5z"/>
	<path class="st0" d="M128.7,74.6v0.6h-1.6V76h1.5v0.6h-1.4v0.8h1.6V78h-2.3v-3.4H128.7z"/>
	<path class="st0" d="M131.1,76.7V78h-0.7v-3.4h1.4c0.5-0.1,1.1,0.2,1.2,0.8c0,0.1,0,0.2,0,0.3c0,0.5-0.3,0.9-0.8,1l0.9,1.3h-0.8
		l-0.8-1.3L131.1,76.7z M131.1,76.1h0.6c0.4,0,0.5-0.2,0.5-0.5s-0.2-0.5-0.5-0.5h-0.6V76.1z"/>
	<path class="st0" d="M135.4,78h-0.7v-3.4h0.7V78z"/>
	<path class="st0" d="M140.1,78h-0.6l-1.6-2.3V78h-0.7v-3.4h0.7l1.5,2.1v-2.1h0.7L140.1,78z"/>
	<path class="st0" d="M144.2,74.6v0.6h-1.6V76h1.4v0.6h-1.4v0.8h1.6V78H142v-3.4H144.2z"/>
	<path class="st0" d="M148.4,74.6h0.7v2.8h1.6V78h-2.3V74.6z"/>
	<path class="st0" d="M155.2,78h-0.6l-1.6-2.2V78h-0.7v-3.4h0.6l1.5,2.1v-2.1h0.7L155.2,78L155.2,78z"/>
</g>
<g id="Layer_4">
	<g>
		<defs>
			<rect id="SVGID_1_" x="92.3" y="51.5" width="76.1" height="17.2"/>
		</defs>
		<clipPath id="SVGID_2_">
			<use xlink:href="#SVGID_1_"  style="overflow:visible;"/>
		</clipPath>
		<g class="st1">
			<g>
				<defs>
					<rect id="SVGID_3_" x="92.3" y="51.5" width="76.1" height="17.2"/>
				</defs>
				<clipPath id="SVGID_4_">
					<use xlink:href="#SVGID_3_"  style="overflow:visible;"/>
				</clipPath>
				<g class="st2">
					<polygon class="st3" points="166.6,52.7 166.6,67.6 93.3,63 93.3,52.7 					"/>
				</g>
			</g>
		</g>
	</g>
	<g>
		<defs>
			<rect id="SVGID_5_" x="92.4" y="51.2" width="76.1" height="17.2"/>
		</defs>
		<clipPath id="SVGID_6_">
			<use xlink:href="#SVGID_5_"  style="overflow:visible;"/>
		</clipPath>
		<g class="st4">
			<polygon class="st5" points="152.6,60.2 154,60.2 154,60.4 154.9,60.4 154.9,60.2 157.2,60.2 157.2,62.2 156.5,62.2 156.5,64.1 
				157.5,64.1 157.5,66.8 152.2,66.6 152.2,64.6 152.5,64.6 152.5,62.8 152.1,62.8 152.1,60.9 152.6,60.9 			"/>
			<g>
				<defs>
					<rect id="SVGID_7_" x="92.4" y="51.2" width="76.1" height="17.2"/>
				</defs>
				<clipPath id="SVGID_8_">
					<use xlink:href="#SVGID_7_"  style="overflow:visible;"/>
				</clipPath>
				<g class="st6">
					<polygon class="st3" points="166.6,52.3 166.6,67.2 93.3,62.6 93.3,52.3 					"/>
				</g>
			</g>
		</g>
	</g>
	<g>
		<defs>
			<rect id="SVGID_9_" x="3" y="5.4" width="61.4" height="74.1"/>
		</defs>
		<clipPath id="SVGID_10_">
			<use xlink:href="#SVGID_9_"  style="overflow:visible;"/>
		</clipPath>
		<g class="st7">
			<polyline class="st8" points="63.5,49 52.9,55 8.2,25.6 			"/>
			<polyline class="st8" points="63.5,51 52.9,57 8.2,27.6 			"/>
			<polyline class="st8" points="63.5,53 52.9,59 8.2,29.6 			"/>
			<polyline class="st8" points="63.5,55 52.9,61 8.2,31.6 			"/>
			<polyline class="st8" points="63.5,57 52.9,63 8.2,33.6 			"/>
			<polyline class="st8" points="63.5,59 52.9,65 8.2,35.6 			"/>
			<polyline class="st8" points="63.5,61 52.9,67 8.2,37.7 			"/>
			<polyline class="st8" points="63.5,63 52.9,69.1 8.2,39.7 			"/>
			<polyline class="st8" points="63.5,65.1 52.9,71.1 8.2,41.7 			"/>
			<polyline class="st8" points="63.5,67.1 52.9,73.1 8.2,43.7 			"/>
			<polyline class="st8" points="63.5,69.1 52.9,75.1 8.2,45.7 			"/>
			<g class="st9">
				<path class="st10" d="M12.7,54.4c0.5,0.4,0.5,0.7,0.1,1.1l-0.4-0.3c0.1-0.2,0.1-0.3-0.1-0.5c-0.3-0.2-0.9-0.2-1.3,0.1
					c-0.4,0.2-0.5,0.6-0.2,0.8c0.2,0.2,0.5,0.2,0.8,0.1l0.4,0.3c-0.5,0.2-1.2,0.2-1.7-0.2c-0.6-0.4-0.5-1,0.2-1.4
					C11.2,54,12.1,54,12.7,54.4z"/>
			</g>
			<g class="st9">
				<path class="st10" d="M15.7,56.6l-1.4,1.9l-0.5-0.3l0.3-0.4l-0.8-0.6l-0.7,0.2L12.2,57l3.1-0.7L15.7,56.6z M13.9,57l0.5,0.4
					l0.5-0.6L13.9,57z"/>
			</g>
			<g class="st9">
				<path class="st10" d="M17.3,57.6l1.8,1.3l-0.4,0.2L18,58.7l-1.8,1.1l-0.4-0.3l1.8-1.1l-0.7-0.5L17.3,57.6z"/>
				<path class="st10" d="M22.1,61l-2.2,1.3L19.4,62l0.9-0.5l-1-0.7l-0.9,0.5L18,61l2.2-1.3l0.4,0.3l-0.9,0.5l1,0.7l0.9-0.5L22.1,61
					z"/>
				<path class="st10" d="M24.8,62.8l-0.4,0.2l-1-0.7l-0.5,0.3l0.9,0.6l-0.4,0.2l-0.9-0.6l-0.5,0.3l1,0.7l-0.4,0.2l-1.4-1l2.2-1.3
					L24.8,62.8z"/>
				<path class="st10" d="M25,64.8l-0.8,0.5L23.7,65l2.2-1.3l0.9,0.6c0.4,0.3,0.5,0.7,0,0.9c-0.4,0.2-0.8,0.2-1.1,0l-0.3,0.9
					l-0.5-0.3l0.3-0.9L25,64.8z M25.3,64.6l0.4,0.3c0.2,0.2,0.5,0.2,0.6,0.1c0.2-0.1,0.2-0.3,0-0.4L26,64.2L25.3,64.6z"/>
				<path class="st10" d="M26.9,67.2l-0.4-0.3l2.2-1.3l0.4,0.3L26.9,67.2z"/>
				<path class="st10" d="M29.9,69.3l-0.4-0.2l0.5-1.6l-1.5,0.9l-0.4-0.3l2.2-1.3l0.4,0.3l-0.5,1.5l1.4-0.8l0.4,0.3L29.9,69.3z"/>
				<path class="st10" d="M34.9,69.9l-0.4,0.2l-1-0.7L33,69.7l0.9,0.6l-0.4,0.2l-0.9-0.6L32,70.2l1,0.7l-0.4,0.2l-1.4-1l2.2-1.3
					L34.9,69.9z"/>
				<path class="st10" d="M37.6,71.8l0.4,0.3l-1.8,1.1l1,0.7l-0.4,0.2l-1.4-1L37.6,71.8z"/>
			</g>
			<g class="st9">
				<path class="st10" d="M39.7,76.1l-0.4-0.2l0.5-1.6l-1.5,0.9l-0.4-0.3l2.2-1.3l0.4,0.3l-0.5,1.5l1.4-0.8l0.4,0.3L39.7,76.1z"/>
			</g>
			<polyline class="st11" points="63.5,47 52.9,53 8.2,23.6 			"/>
			<line class="st11" x1="52.9" y1="51" x2="52.9" y2="77"/>
			<line class="st11" x1="58.3" y1="73.3" x2="57.7" y2="73.7"/>
			<polyline class="st11" points="58.3,73.3 58.8,73.6 63.5,70.8 63.5,44.9 			"/>
			<polyline class="st11" points="63.5,44.9 52.9,51 8.2,21.5 			"/>
			<g>
				<defs>
					<rect id="SVGID_11_" x="3" y="5.4" width="61.4" height="74.1"/>
				</defs>
				<clipPath id="SVGID_12_">
					<use xlink:href="#SVGID_11_"  style="overflow:visible;"/>
				</clipPath>
				<g class="st12">
					<path class="st11" d="M58.3,73.3v-0.6c0-0.1,0-0.2-0.1-0.3"/>
					<path class="st11" d="M58.8,73.6v-0.8c0-0.2-0.2-0.5-0.6-0.2c-0.3,0.2-0.5,0.5-0.5,0.8v0.9L52.9,77l-6.3-4.3l-7.9-5.4l-6.7-4.6
						l-9.8-6.8l-14-10.2V21.5l1-0.6"/>
				</g>
			</g>
			<line class="st11" x1="54.6" y1="46" x2="54.6" y2="44.9"/>
			<line class="st11" x1="14.6" y1="23.4" x2="14.6" y2="25.2"/>
			<line class="st11" x1="54.6" y1="46" x2="55.2" y2="46.4"/>
			<line class="st11" x1="54.6" y1="44.9" x2="55.2" y2="45.3"/>
			<line class="st11" x1="14.9" y1="12.7" x2="14.9" y2="11.4"/>
			<line class="st11" x1="14.9" y1="12.8" x2="14.9" y2="11.3"/>
			<line class="st11" x1="14.7" y1="22.1" x2="14.7" y2="18.9"/>
			<polyline class="st11" points="15.7,24.6 14.6,25.2 9.2,21.7 9.2,19.9 11.1,18.8 			"/>
			<polyline class="st11" points="14.9,17 17.5,15.5 17.5,12.1 17.5,12.1 16.3,11.3 			"/>
			<g>
				<defs>
					<rect id="SVGID_13_" x="3" y="5.4" width="61.4" height="74.1"/>
				</defs>
				<clipPath id="SVGID_14_">
					<use xlink:href="#SVGID_13_"  style="overflow:visible;"/>
				</clipPath>
				<g class="st13">
					<path class="st11" d="M14.4,14.5c0.2,0.6,0.1,1.1-0.4,1.1s-0.9-0.5-1.1-1.1s0-1.1,0.4-1.1S14.1,13.9,14.4,14.5z"/>
					<path class="st11" d="M15.4,14.5c-0.2,0.6,0,1.1,0.4,1.1c0.4,0,0.9-0.5,1.1-1.1s0-1.1-0.4-1.1S15.7,13.9,15.4,14.5z"/>
				</g>
			</g>
			<line class="st11" x1="14.7" y1="18.9" x2="18.8" y2="16.5"/>
			<line class="st11" x1="11.1" y1="16.5" x2="14.7" y2="18.9"/>
			<line class="st11" x1="9.2" y1="19.9" x2="14.6" y2="23.4"/>
			<polyline class="st11" points="17.5,15.3 17.7,15.5 17.7,16.5 17.7,16.6 14.9,18.2 14.9,18.1 14.9,13.7 			"/>
			<polyline class="st11" points="12.1,15.9 11.1,16.5 11.1,19.6 11.1,19.7 14.6,22 			"/>
			<polyline class="st11" points="18.9,18.1 21.1,19.6 21.1,20.8 			"/>
			<line class="st11" x1="14.8" y1="13.7" x2="17.5" y2="12.1"/>
			<line class="st11" x1="12.4" y1="12.1" x2="13.5" y2="11.5"/>
			<line class="st11" x1="12.4" y1="12.1" x2="14.9" y2="13.8"/>
			<polyline class="st11" points="17.7,15.7 18.9,16.5 18.9,16.5 18.9,19.6 18.8,19.6 14.6,22.1 			"/>
			<line class="st11" x1="13.5" y1="10.4" x2="14.9" y2="11.4"/>
			<line class="st11" x1="15.6" y1="10" x2="16.4" y2="10.5"/>
			<g>
				<defs>
					<rect id="SVGID_15_" x="3" y="5.4" width="61.4" height="74.1"/>
				</defs>
				<clipPath id="SVGID_16_">
					<use xlink:href="#SVGID_15_"  style="overflow:visible;"/>
				</clipPath>
				<g class="st14">
					<path class="st11" d="M13.6,8.8c-0.1,0.1-0.1,0.2-0.1,0.2l0.1,0.2c0.1,0.1,0.4,0.2,0.9,0.1s1.7-0.7,1.8-1.3L16,7.6
						c-0.1,0-0.2,0-0.4,0"/>
				</g>
			</g>
			<polyline class="st11" points="14.1,6.6 14.8,6.9 15.1,6.8 15.6,6.1 			"/>
			<g>
				<defs>
					<rect id="SVGID_17_" x="3" y="5.4" width="61.4" height="74.1"/>
				</defs>
				<clipPath id="SVGID_18_">
					<use xlink:href="#SVGID_17_"  style="overflow:visible;"/>
				</clipPath>
				<g class="st15">
					<path class="st11" d="M16.1,8.2c0,0.2,0,0.4,0,0.5c-0.1,0.7-0.8,1.1-1.5,1c0,0,0,0,0,0c-0.3,0-0.5-0.2-0.7-0.4h-0.1"/>
					<path class="st11" d="M13.7,9c0-0.1-0.1-0.2-0.1-0.3C13.5,8,14,7.4,14.6,7.2c0.4-0.1,0.8,0.1,1.1,0.4C15.9,7.7,15.9,7.9,16,8"
						/>
					<path class="st11" d="M15.8,10.1c0,0,0-0.1,0-0.1c0,0,0,0-0.1,0c-0.1,0-0.1,0-0.2,0c0,0,0,0,0-0.1l0,0l0.1-0.3"/>
					<path class="st11" d="M15.2,10.1c0,0,0,0.1,0.1,0.1s0.1,0.1,0.2,0"/>
				</g>
			</g>
			<polyline class="st11" points="14.5,10.6 14.5,10.5 14.7,10.2 14.6,10.1 14.3,10.1 14.1,9.9 14.2,9.6 			"/>
			<line class="st11" x1="12.4" y1="15.4" x2="14.9" y2="17"/>
			<polyline class="st11" points="14.9,18.3 12.1,16.5 12.1,16.5 12.1,15.5 12.1,15.5 12.4,15.4 12.4,15.4 12.4,12.1 			"/>
			<polyline class="st11" points="14.2,9.9 13.4,10.4 13.4,10.5 13.4,11.9 14.9,12.8 14.9,12.8 16.3,12 16.3,10.5 16.3,10.5 
				14.9,11.3 			"/>
			<line class="st11" x1="38.8" y1="36.7" x2="47.7" y2="42.4"/>
			<polyline class="st11" points="59.2,44.1 57.2,45.2 55.2,44 			"/>
			<line class="st11" x1="57.2" y1="48.1" x2="57.2" y2="45.2"/>
			<polyline class="st11" points="55.2,44.6 51.1,47 15.7,24.4 			"/>
			<line class="st8" x1="63.6" y1="44.9" x2="21.1" y2="20.3"/>
			<line class="st8" x1="49" y1="37" x2="23.8" y2="22.4"/>
			<line class="st11" x1="51.1" y1="48.1" x2="51.1" y2="47"/>
			<line class="st11" x1="47.7" y1="43.6" x2="47.7" y2="42.4"/>
			<polygon class="st11" points="53,39.2 53,40.5 47.7,43.6 38.8,37.9 38.8,36.7 42.7,34.4 48,37.5 49.1,36.9 			"/>
			<line class="st11" x1="53" y1="39.2" x2="47.7" y2="42.3"/>
			<line class="st11" x1="23.8" y1="22.4" x2="20" y2="24.6"/>
			<polygon class="st11" points="16.7,23.8 16.7,22.5 16.7,22.5 20.4,20.3 23.8,22.4 23.8,23.4 23.8,23.5 20,25.8 			"/>
			<polyline class="st11" points="54.6,46 51.1,48.1 15.7,25.5 15.7,25.5 15.7,24.4 16.7,23.8 			"/>
			<line class="st11" x1="20" y1="24.6" x2="16.7" y2="22.5"/>
			<line class="st11" x1="20" y1="25.8" x2="20" y2="24.6"/>
			<polyline class="st11" points="58.4,43.6 58.7,43.4 58.7,42.6 53,39.3 			"/>
			<line class="st11" x1="58.7" y1="42.6" x2="58.2" y2="42.9"/>
			<line class="st11" x1="21.1" y1="19.6" x2="14.6" y2="23.4"/>
			<polyline class="st11" points="56.3,43.4 55.2,44 55.2,46.9 57.2,48.1 59.2,46.9 59.2,44.1 58.3,43.5 			"/>
			<g>
				<defs>
					<rect id="SVGID_19_" x="3" y="5.4" width="61.4" height="74.1"/>
				</defs>
				<clipPath id="SVGID_20_">
					<use xlink:href="#SVGID_19_"  style="overflow:visible;"/>
				</clipPath>
				<g class="st16">
					<path class="st11" d="M57.2,42.3c-0.5,0.1-0.9,0.5-0.9,1.1v0.8c0,0.3,0.5,0.5,1,0.5s1-0.2,1-0.5v-0.8c0-0.5-0.4-1-0.9-1.1v-0.1
						c0,0-0.1-0.1-0.2-0.1s-0.2,0.1-0.2,0.1L57.2,42.3z"/>
				</g>
			</g>
			<polygon class="st5" points="45.8,66.4 42.8,64.4 42.8,62.4 45.8,64.4 			"/>
		</g>
	</g>
</g>
</svg>
