<svg id="Layer_1" data-name="Layer 1" xmlns="http://www.w3.org/2000/svg" xmlns:xlink="http://www.w3.org/1999/xlink" viewBox="0 0 123.31 164.76"><defs><style>.cls-1,.cls-12,.cls-16,.cls-3,.cls-4{fill:none;}.cls-2{fill:#d2d3d4;}.cls-3,.cls-4{stroke:#231f20;}.cls-12,.cls-16,.cls-3,.cls-4{stroke-miterlimit:10;}.cls-12,.cls-3{stroke-width:0.15px;}.cls-4{stroke-width:0.14px;}.cls-5{clip-path:url(#clip-path);}.cls-6{font-size:5.05px;fill:#d1d3d4;font-family:Calibre-Semibold, Calibre;font-weight:700;letter-spacing:0.22em;}.cls-7{letter-spacing:0.18em;}.cls-8{letter-spacing:0.24em;}.cls-9{letter-spacing:0.24em;}.cls-10{letter-spacing:0em;}.cls-11{fill:#231f20;}.cls-12{stroke:#fff;}.cls-13{clip-path:url(#clip-path-5);}.cls-14{fill:#010101;}.cls-15{opacity:0.5;}.cls-16{stroke:#d0d2d3;stroke-width:1.09px;}</style><clipPath id="clip-path"><rect class="cls-1" x="25.41" y="3.64" width="66.36" height="83.79"/></clipPath><clipPath id="clip-path-5"><rect class="cls-1" x="24.12" y="124.21" width="77.52" height="17.49"/></clipPath></defs><title>Artboard 1residence_I_key

residence_I_key_horizontalresidence_I_key

residence_I_key_horizontal</title><path class="cls-2" d="M14.27,117.11c-.62,0-1-.43-1-1.13v-1.4h3.38v1.29c0,.7-.32,1.13-.92,1.13a.73.73,0,0,1-.72-.44A.81.81,0,0,1,14.27,117.11Zm-.36-1.86v.67c0,.33.16.5.42.5s.42-.17.42-.5v-.67Zm1.39.57c0,.34.13.51.4.51s.39-.17.39-.51v-.57H15.3Z"/><path class="cls-2" d="M14.57,119.52H13.31v-.7h3.38v1.39a1,1,0,0,1-1.08,1.18,1,1,0,0,1-1-.77l-1.31.89v-.79l1.26-.83Zm.58,0v.65c0,.35.18.53.46.53s.48-.18.48-.53v-.65Z"/><path class="cls-2" d="M13.26,124.56A1.61,1.61,0,0,1,15,123a1.6,1.6,0,1,1,0,3.19A1.6,1.6,0,0,1,13.26,124.56Zm2.85,0c0-.54-.45-.88-1.11-.88s-1.12.34-1.12.88.46.89,1.12.89S16.11,125.09,16.11,124.56Z"/><path class="cls-2" d="M16.69,129.44l-3.38,1.3V130l.81-.3v-1.26l-.81-.3v-.7l3.38,1.29Zm-2-.76v.82l1.12-.41Z"/><path class="cls-2" d="M16.69,132.36v1.19A1.56,1.56,0,0,1,15,135.21a1.56,1.56,0,0,1-1.69-1.66v-1.19Zm-2.76,1.16a1,1,0,0,0,1.07,1,1,1,0,0,0,1.07-1v-.47H13.93Z"/><path class="cls-2" d="M16.69,139l-2.27.58,2.27.56v.69L13.31,140v-.64l2.23-.6-2.23-.59v-.65l3.38-.87v.7l-2.27.55,2.27.6Z"/><path class="cls-2" d="M16.69,144l-3.38,1.29v-.72l.81-.3V143l-.81-.3V142l3.38,1.29Zm-2-.77V144l1.12-.41Z"/><path class="cls-2" d="M16.69,148.63v.75l-2.1-1.23H13.31v-.7h1.28l2.1-1.21V147l-1.43.82Z"/><path class="cls-2" d="M111.66,108.37v.7h-2.75v1.58h-.62v-2.28Z"/><path class="cls-2" d="M111.66,114.12l-3.37,1.29v-.71l.81-.3v-1.27l-.81-.29v-.71l3.37,1.29Zm-2-.77v.83l1.12-.41Z"/><path class="cls-2" d="M108.29,117h3.37v2.24h-.61v-1.54h-.86v1.43h-.61v-1.43h-1.29V117Z"/><path class="cls-2" d="M111.66,122.53l-3.37,1.29v-.72l.81-.3v-1.26l-.81-.3v-.7l3.37,1.29Zm-2-.77v.82l1.12-.41Z"/><path class="cls-2" d="M111.66,127.18v.74l-2.09-1.23h-1.28V126h1.28l2.09-1.22v.77l-1.43.82Z"/><path class="cls-2" d="M111.66,131.81h-.61v-1.6h-.74v1.45h-.6v-1.45h-.8v1.6h-.62v-2.29h3.37Z"/><path class="cls-2" d="M111.66,133.39v2.87h-.61v-1.08h-2.76v-.71h2.76v-1.08Z"/><path class="cls-2" d="M111.66,137.75v2.88h-.61v-1.09h-2.76v-.71h2.76v-1.08Z"/><path class="cls-2" d="M111.66,144.6h-.61V143h-.74v1.45h-.6V143h-.8v1.6h-.62v-2.29h3.37Z"/><path class="cls-2" d="M109.25,149.22a.65.65,0,0,0-.44.67c0,.35.16.57.43.57s.31-.12.38-.41l.13-.61a.93.93,0,0,1,.93-.85,1.08,1.08,0,0,1,1,1.21,1.22,1.22,0,0,1-1,1.33v-.7a.6.6,0,0,0,.4-.62c0-.32-.16-.53-.4-.53s-.31.12-.37.37l-.14.62c-.13.55-.44.88-1,.88s-1-.53-1-1.25a1.28,1.28,0,0,1,1-1.4v.72Z"/><path class="cls-2" d="M111.66,152.61v2.88h-.61V154.4h-2.76v-.71h2.76v-1.08Z"/><path class="cls-2" d="M43.11,112.62h.7v2.75h1.57V116H43.11Z"/><path class="cls-2" d="M49.29,112.62v.61h-1.6V114h1.45v.6H47.69v.8h1.6V116H47v-3.37Z"/><path class="cls-2" d="M52.36,116A1.75,1.75,0,1,1,54,114.3,1.61,1.61,0,0,1,52.36,116Zm0-2.85c-.53,0-.87.45-.87,1.11s.34,1.12.87,1.12.89-.46.89-1.12S52.9,113.19,52.36,113.19Z"/><path class="cls-2" d="M58.38,116h-.56l-1.59-2.25V116h-.67v-3.37h.66l1.48,2.13v-2.13h.68Z"/><path class="cls-2" d="M61.88,112.62,63.17,116h-.71l-.31-.81H60.89l-.3.81h-.7l1.29-3.37Zm-.77,2h.82l-.41-1.12Z"/><path class="cls-2" d="M65.37,114.73V116h-.7v-3.37h1.39a1,1,0,0,1,1.19,1.07.94.94,0,0,1-.77,1l.89,1.31h-.79l-.84-1.26Zm0-.58H66c.35,0,.53-.18.53-.46s-.18-.48-.53-.48h-.65Z"/><path class="cls-2" d="M68.87,112.62h1.19a1.69,1.69,0,0,1,0,3.37H68.87ZM70,115.37a1.07,1.07,0,0,0,0-2.14h-.47v2.14Z"/><path class="cls-2" d="M76.08,115a.63.63,0,0,0,.67.43c.34,0,.56-.15.56-.42s-.12-.31-.41-.38l-.61-.14c-.48-.11-.85-.37-.85-.92a1.09,1.09,0,0,1,1.21-1,1.22,1.22,0,0,1,1.33,1h-.7a.59.59,0,0,0-.62-.4c-.32,0-.54.15-.54.4s.13.3.38.36l.62.15a1,1,0,0,1,.88,1,1.11,1.11,0,0,1-1.25,1,1.28,1.28,0,0,1-1.4-1Z"/><path class="cls-2" d="M79.36,112.62h2.88v.61H81.15V116h-.71v-2.76H79.36Z"/><path class="cls-2" d="M40.63,147.86A1.35,1.35,0,0,1,42.05,149h-.7a.72.72,0,0,0-.72-.51c-.54,0-.85.47-.85,1.11s.31,1.12.85,1.12a.72.72,0,0,0,.72-.52h.7a1.34,1.34,0,0,1-1.42,1.14,1.75,1.75,0,0,1,0-3.48Z"/><path class="cls-2" d="M45.37,147.92l1.29,3.37H46l-.31-.81H44.38l-.3.81h-.7l1.29-3.37Zm-.77,2h.82L45,148.76Z"/><path class="cls-2" d="M47.75,147.92h2.88v.61H49.54v2.76h-.71v-2.76H47.75Z"/><path class="cls-2" d="M55.23,147.92v3.37h-.7v-1.42H53v1.42h-.7v-3.37H53v1.34h1.53v-1.34Z"/><path class="cls-2" d="M59.38,147.92v.61h-1.6v.74h1.45v.6H57.78v.8h1.6v.62H57.09v-3.37Z"/><path class="cls-2" d="M61.84,150v1.26h-.7v-3.37h1.39A1,1,0,0,1,63.71,149a1,1,0,0,1-.77,1l.89,1.31H63L62.2,150Zm0-.58h.64c.36,0,.54-.18.54-.46s-.18-.48-.54-.48h-.64Z"/><path class="cls-2" d="M66.15,151.29h-.7v-3.37h.7Z"/><path class="cls-2" d="M70.82,151.29h-.55L68.67,149v2.25H68v-3.37h.66l1.49,2.13v-2.13h.67Z"/><path class="cls-2" d="M75,147.92v.61h-1.6v.74h1.45v.6H73.37v.8H75v.62H72.68v-3.37Z"/><path class="cls-2" d="M79.11,147.92h.7v2.75h1.57v.62H79.11Z"/><path class="cls-2" d="M85.93,151.29h-.56L83.78,149v2.25H83.1v-3.37h.66l1.49,2.13v-2.13h.68v3.37Z"/><polyline class="cls-3" points="90.36 51.95 79.52 58.07 30.64 25.88"/><polyline class="cls-3" points="90.36 54.35 79.52 60.47 30.64 28.28"/><polyline class="cls-3" points="90.36 56.75 79.52 62.87 30.64 30.68"/><polyline class="cls-3" points="90.36 59.15 79.52 65.27 30.64 33.08"/><polyline class="cls-3" points="90.36 61.54 79.52 67.67 30.64 35.47"/><polyline class="cls-3" points="90.36 63.94 79.52 70.06 30.64 37.87"/><polyline class="cls-3" points="90.36 66.34 79.52 72.46 30.64 40.27"/><polyline class="cls-3" points="90.36 68.74 79.52 74.86 30.64 42.67"/><polyline class="cls-3" points="90.36 71.14 79.52 77.26 30.64 45.07"/><polyline class="cls-3" points="90.36 73.54 79.52 79.66 30.64 47.47"/><polyline class="cls-3" points="90.36 75.94 79.52 82.06 30.64 49.87"/><line class="cls-4" x1="39.91" y1="28.04" x2="39.91" y2="26.75"/><line class="cls-4" x1="44.67" y1="28.66" x2="44.67" y2="27.21"/><line class="cls-4" x1="40.77" y1="26.22" x2="40.77" y2="24.77"/><line class="cls-4" x1="49.24" y1="26.01" x2="49.24" y2="24.56"/><line class="cls-4" x1="80.83" y1="49.88" x2="80.83" y2="48.62"/><line class="cls-4" x1="63.25" y1="40.45" x2="63.25" y2="39.19"/><line class="cls-4" x1="38.29" y1="25.73" x2="38.29" y2="27.88"/><line class="cls-4" x1="46.06" y1="21.11" x2="46.06" y2="22.59"/><line class="cls-4" x1="80.83" y1="49.88" x2="81.52" y2="50.32"/><line class="cls-4" x1="43.4" y1="21.16" x2="43.4" y2="17.32"/><line class="cls-4" x1="35.69" y1="16.26" x2="35.69" y2="12.14"/><line class="cls-4" x1="38.66" y1="12.96" x2="38.66" y2="11.14"/><line class="cls-4" x1="38.64" y1="19.41" x2="38.64" y2="13.97"/><line class="cls-4" x1="41.71" y1="16.23" x2="41.71" y2="12.21"/><line class="cls-4" x1="38.66" y1="13.05" x2="38.66" y2="11.23"/><line class="cls-4" x1="41.99" y1="17.48" x2="41.99" y2="16.19"/><line class="cls-4" x1="35.35" y1="17.66" x2="35.35" y2="16.37"/><line class="cls-4" x1="38.37" y1="24.09" x2="38.37" y2="20.28"/><line class="cls-4" x1="34.05" y1="21.2" x2="34.05" y2="17.48"/><polyline class="cls-4" points="40.07 26.83 38.29 27.88 31.8 23.6 31.8 21.46 34.05 20.14"/><line class="cls-4" x1="39.89" y1="26.79" x2="40.78" y2="26.26"/><line class="cls-4" x1="38.32" y1="24.07" x2="34.05" y2="21.26"/><line class="cls-4" x1="38.65" y1="18" x2="41.92" y2="16.08"/><line class="cls-4" x1="38.39" y1="19.67" x2="41.92" y2="17.59"/><g class="cls-5"><path class="cls-4" d="M38,15c.25.73.05,1.31-.44,1.32s-1.11-.59-1.36-1.31-.05-1.32.44-1.32S37.76,14.31,38,15Z"/><path class="cls-4" d="M39.3,15.06c-.25.72,0,1.31.45,1.31s1.1-.58,1.35-1.31.06-1.31-.44-1.31S39.56,14.33,39.3,15.06Z"/></g><line class="cls-4" x1="38.37" y1="20.31" x2="43.44" y2="17.33"/><line class="cls-4" x1="38.29" y1="24.12" x2="43.33" y2="21.16"/><line class="cls-4" x1="35.18" y1="16.37" x2="35.67" y2="16.08"/><line class="cls-4" x1="34.05" y1="17.46" x2="38.32" y2="20.28"/><line class="cls-4" x1="31.8" y1="21.45" x2="38.29" y2="25.73"/><line class="cls-4" x1="41.77" y1="16.03" x2="41.99" y2="16.19"/><line class="cls-4" x1="35.35" y1="16.71" x2="34.05" y2="17.48"/><line class="cls-4" x1="31.8" y1="22.75" x2="30.64" y2="23.43"/><line class="cls-4" x1="43.45" y1="19.39" x2="46.06" y2="21.11"/><line class="cls-4" x1="38.55" y1="14.12" x2="41.72" y2="12.22"/><line class="cls-4" x1="35.69" y1="12.18" x2="36.94" y2="11.45"/><line class="cls-4" x1="38.55" y1="13.12" x2="40.46" y2="12"/><line class="cls-4" x1="38.67" y1="11.28" x2="40.42" y2="10.25"/><line class="cls-4" x1="35.69" y1="12.14" x2="38.64" y2="14.16"/><line class="cls-4" x1="40.35" y1="11.24" x2="41.72" y2="12.14"/><line class="cls-4" x1="41.99" y1="16.53" x2="43.44" y2="17.48"/><line class="cls-4" x1="36.92" y1="11.94" x2="38.71" y2="13.12"/><line class="cls-4" x1="37.06" y1="10.26" x2="38.66" y2="11.31"/><line class="cls-4" x1="39.52" y1="9.66" x2="40.44" y2="10.27"/><g class="cls-5"><path class="cls-4" d="M37.07,8.2a1.69,1.69,0,0,0-.17.27l.1.27c.1.14.49.27,1.12.09s2-.89,2.09-1.6L40,6.83a.75.75,0,0,0-.41,0"/></g><polyline class="cls-4" points="37.67 5.58 38.57 6.02 38.85 5.91 39.48 5.03"/><g class="cls-5"><path class="cls-4" d="M40.06,7.59a1.53,1.53,0,0,1,0,.64A1.5,1.5,0,0,1,38.28,9.4a1.47,1.47,0,0,1-.8-.44l-.06-.05"/><path class="cls-4" d="M37.19,8.52a1.45,1.45,0,0,1-.11-.37,1.52,1.52,0,0,1,1.27-1.72,1.45,1.45,0,0,1,1.32.46,1.33,1.33,0,0,1,.24.35"/><path class="cls-4" d="M39.7,9.86a1,1,0,0,0,0-.16.1.1,0,0,0-.08-.08,1.19,1.19,0,0,0-.27.05V9.55l.08-.34"/><path class="cls-4" d="M39,9.84c0,.07.05.13.06.18s.17.1.29,0"/></g><polyline class="cls-4" points="38.17 10.43 38.17 10.29 38.37 9.96 38.34 9.84 37.97 9.78 37.65 9.59 37.78 9.21"/><line class="cls-4" x1="35.71" y1="16.08" x2="38.65" y2="18.02"/><line class="cls-4" x1="35.37" y1="17.46" x2="38.46" y2="19.49"/><line class="cls-4" x1="37.83" y1="9.6" x2="36.92" y2="10.2"/><line class="cls-4" x1="40.35" y1="12.05" x2="40.35" y2="10.34"/><line class="cls-4" x1="36.92" y1="11.94" x2="36.92" y2="10.19"/><line class="cls-4" x1="63.25" y1="39.19" x2="73.29" y2="45.57"/><line class="cls-4" x1="74.95" y1="39.71" x2="79.11" y2="42.15"/><line class="cls-4" x1="40.77" y1="26.24" x2="44.67" y2="28.72"/><line class="cls-4" x1="40.77" y1="24.72" x2="44.67" y2="27.2"/><line class="cls-4" x1="45.35" y1="22.08" x2="49.24" y2="24.56"/><line class="cls-4" x1="49.24" y1="25.29" x2="74.57" y2="39.82"/><line class="cls-4" x1="64.92" y1="37.82" x2="71.73" y2="41.73"/><polyline class="cls-4" points="84.99 47.48 85.36 47.27 85.36 46.01 79.11 42.42"/><polyline class="cls-4" points="86.24 49.16 83.85 50.57 81.53 49.11"/><line class="cls-4" x1="83.84" y1="52.74" x2="83.84" y2="50.57"/><polyline class="cls-4" points="80.83 49.88 77.4 51.89 39.9 28.04"/><polyline class="cls-4" points="82.92 47.4 77.4 50.63 39.86 26.75"/><line class="cls-4" x1="77.4" y1="51.89" x2="77.4" y2="50.63"/><line class="cls-4" x1="79.1" y1="42.15" x2="73.29" y2="45.56"/><polyline class="cls-4" points="79.11 42.16 79.11 43.38 73.31 46.78 63.25 40.38"/><line class="cls-4" x1="73.29" y1="46.77" x2="73.29" y2="45.57"/><line class="cls-4" x1="74.95" y1="39.71" x2="71.4" y2="41.79"/><line class="cls-4" x1="65.38" y1="37.96" x2="63.25" y2="39.2"/><line class="cls-4" x1="49.24" y1="25.99" x2="44.67" y2="28.67"/><line class="cls-4" x1="49.24" y1="24.56" x2="44.67" y2="27.24"/><line class="cls-4" x1="45.33" y1="22.08" x2="40.76" y2="24.76"/><line class="cls-4" x1="46.06" y1="21.18" x2="38.39" y2="25.67"/><line class="cls-4" x1="85.3" y1="46" x2="84.09" y2="46.71"/><text class="cls-6" transform="matrix(0.82, 0.57, -0.86, 0.5, 28.58, 58.97)">C<tspan class="cls-7" x="4.14" y="0">A</tspan><tspan class="cls-8" x="8.2" y="0">THER</tspan><tspan class="cls-9" x="24.69" y="0">I</tspan><tspan class="cls-8" x="27.13" y="0">NE L</tspan><tspan class="cls-10" x="41.41" y="0">N</tspan></text><polyline class="cls-4" points="90.36 49.55 79.52 55.67 30.64 23.48"/><polyline class="cls-4" points="82.82 48.34 81.52 49.1 81.52 51.25 83.84 52.73 86.24 51.33 86.24 49.16 85.27 48.54"/><line class="cls-4" x1="79.54" y1="55.68" x2="79.54" y2="84.36"/><line class="cls-4" x1="85.3" y1="80.35" x2="84.51" y2="80.82"/><polyline class="cls-4" points="85.3 80.35 85.79 80.67 90.36 77.98 90.36 49.53 85.36 46.67"/><g class="cls-5"><path class="cls-4" d="M85.3,80.35v-.68a.41.41,0,0,0-.14-.31"/><path class="cls-4" d="M85.8,80.67v-1c0-.25-.21-.56-.69-.29a1.2,1.2,0,0,0-.6.94v1.11l-5,2.93-7.49-5.19L62.58,72.7l-7.95-5.45L38.53,55.67,30.64,50V23.48"/><path class="cls-4" d="M83.84,47a1.27,1.27,0,0,0-1,1.27v.9c0,.36.55.64,1.24.64s1.23-.28,1.23-.64v-.9a1.27,1.27,0,0,0-1-1.27V46.9c0-.06-.08-.14-.21-.14s-.2.08-.2.14Z"/></g><polygon class="cls-11" points="60.92 64.94 57.8 62.89 57.8 60.62 60.92 62.67 60.92 64.94"/><polygon class="cls-11" points="60.92 62.54 57.8 60.49 57.8 58.22 60.92 60.26 60.92 62.54"/><polygon class="cls-11" points="60.92 60.13 57.81 58.07 57.81 55.81 60.92 57.86 60.92 60.13"/><polygon class="cls-11" points="60.92 57.72 57.8 55.67 57.8 53.41 60.92 55.47 60.92 57.72"/><polygon class="cls-11" points="60.92 55.33 57.8 53.28 57.8 51.02 60.92 53.07 60.92 55.33"/><polygon class="cls-11" points="60.92 52.96 57.8 50.9 57.8 48.63 60.92 50.67 60.92 52.96"/><polygon class="cls-11" points="60.92 50.56 57.8 48.5 57.8 46.24 60.92 48.29 60.92 50.56"/><polygon class="cls-11" points="60.92 48.15 57.8 46.1 57.8 43.84 60.92 45.9 60.92 48.15"/><line class="cls-12" x1="57.81" y1="46.15" x2="60.92" y2="48.21"/><line class="cls-12" x1="57.81" y1="48.55" x2="60.92" y2="50.6"/><line class="cls-12" x1="57.81" y1="50.95" x2="60.92" y2="53"/><line class="cls-12" x1="57.81" y1="53.35" x2="60.92" y2="55.4"/><line class="cls-12" x1="57.81" y1="55.73" x2="60.92" y2="57.78"/><line class="cls-12" x1="57.81" y1="58.14" x2="60.92" y2="60.19"/><line class="cls-12" x1="57.81" y1="60.54" x2="60.92" y2="62.59"/><g class="cls-13"><polygon class="cls-14" points="64.64 132.22 66.45 132.22 66.45 132.37 67.39 132.37 67.39 132.22 67.94 132.22 67.94 133.12 68.07 133.12 68.07 133.82 67.79 133.82 67.79 138.8 61.65 138.45 61.65 133.96 63.13 133.96 63.13 132.75 64.64 132.75 64.64 132.22"/><g class="cls-13"><polygon class="cls-16" points="99.78 125.37 99.78 140.54 25.06 135.89 25.09 125.37 99.78 125.37"/></g></g></svg>