<?xml version="1.0" encoding="utf-8"?>
<!-- Generator: Adobe Illustrator 16.0.4, SVG Export Plug-In . SVG Version: 6.00 Build 0)  -->
<!DOCTYPE svg PUBLIC "-//W3C//DTD SVG 1.1//EN" "http://www.w3.org/Graphics/SVG/1.1/DTD/svg11.dtd">
<svg version="1.1" id="Layer_1" xmlns="http://www.w3.org/2000/svg" xmlns:xlink="http://www.w3.org/1999/xlink" x="0px" y="0px"
	 width="100px" height="200px" viewBox="0 0 100 200" enable-background="new 0 0 100 200" xml:space="preserve">
<path d="M52.624,118.945H51.24v5.586h1.092v-3.649l1.384,3.648h0.793l1.354-3.648v3.648h1.102v-5.585h-1.363l-1.484,3.938
	L52.624,118.945 M62.766,124.528h1.182l-2.137-5.583h-1.156l-2.138,5.585h1.165l0.492-1.347h2.092L62.766,124.528 M60.537,122.199
	l0.683-1.855l0.681,1.855H60.537 M72.742,122.873l0.527-0.629l1.655,2.284h1.41l-2.211-3.083l2.128-2.503h-1.41l-2.102,2.511v-2.511
	h-1.165v5.586h1.165v-1.655 M69.758,120.718c0-0.563-0.18-1.003-0.539-1.317c-0.347-0.305-0.819-0.457-1.418-0.457H65.5v5.585h1.155
	v-2.083h0.609l1.384,2.083h1.31l-1.472-2.165c0.398-0.098,0.71-0.285,0.93-0.561C69.644,121.517,69.758,121.156,69.758,120.718
	 M68.39,120.148c0.148,0.137,0.224,0.326,0.224,0.569c0,0.237-0.073,0.425-0.224,0.562c-0.154,0.141-0.374,0.213-0.66,0.213h-1.073
	v-1.556h1.073C68.016,119.937,68.235,120.008,68.39,120.148 M26.939,118.945h-1.166v5.585h3.767v-1.028h-2.601V118.945
	 M34.279,118.945h-1.156l-2.138,5.585h1.165l0.492-1.347h2.092l0.5,1.347h1.183L34.279,118.945 M34.369,122.199h-1.364l0.683-1.855
	L34.369,122.199 M42.647,118.945h-1.119v3.528l-2.466-3.528H37.97v5.585h1.119v-3.72l2.638,3.72h0.918v-5.585 M46.693,118.945
	h-1.974v5.585h1.974c0.418,0,0.801-0.065,1.144-0.196c0.338-0.13,0.627-0.316,0.868-0.562c0.241-0.244,0.425-0.537,0.552-0.879
	c0.129-0.348,0.193-0.733,0.193-1.154c0-0.42-0.064-0.807-0.193-1.154c-0.125-0.341-0.311-0.637-0.552-0.881
	c-0.241-0.245-0.53-0.433-0.868-0.562C47.494,119.01,47.111,118.945,46.693,118.945 M45.875,119.963h0.774
	c0.527,0,0.934,0.16,1.223,0.479c0.284,0.312,0.425,0.745,0.425,1.297c0,0.549-0.141,0.977-0.425,1.287
	c-0.289,0.318-0.696,0.477-1.223,0.477h-0.774V119.963 M48.339,108.124h-1.228l-1.347,2.366l-1.354-2.366h-1.266l2.011,3.466v2.118
	h1.156v-2.118L48.339,108.124 M35.797,108.124h-0.911l-0.982,3.757l-0.911-3.757h-1.173l1.457,5.584h1.065l0.982-3.683l0.982,3.683
	h1.065l1.455-5.584H37.68l-0.92,3.757L35.797,108.124 M30.358,109.143v-1.019h-3.793v5.584h3.793v-1.028h-2.647v-1.329h2.402v-0.992
	h-2.402v-1.22h2.647 M28.405,87.223c0.16,0.114,0.274,0.272,0.344,0.471h1.156c-0.095-0.492-0.324-0.88-0.687-1.166
	c-0.388-0.303-0.89-0.455-1.505-0.455c-0.586,0-1.069,0.16-1.445,0.48c-0.181,0.155-0.32,0.336-0.417,0.544
	c-0.098,0.214-0.148,0.446-0.148,0.695c0,0.804,0.473,1.314,1.418,1.528l1.001,0.228c0.241,0.054,0.415,0.131,0.523,0.228
	c0.106,0.098,0.16,0.231,0.16,0.399c0,0.22-0.084,0.392-0.256,0.517c-0.168,0.122-0.394,0.184-0.681,0.184
	c-0.28,0-0.513-0.058-0.7-0.175c-0.197-0.122-0.334-0.303-0.409-0.544h-1.2c0.094,0.529,0.349,0.943,0.764,1.241
	c0.409,0.295,0.928,0.442,1.555,0.442c0.604,0,1.098-0.154,1.479-0.463c0.396-0.318,0.595-0.745,0.595-1.276
	c0-0.413-0.131-0.756-0.39-1.026c-0.249-0.258-0.607-0.44-1.075-0.548l-1.019-0.235c-0.21-0.05-0.369-0.125-0.469-0.224
	c-0.104-0.101-0.158-0.23-0.158-0.388c0-0.199,0.081-0.357,0.243-0.477c0.16-0.118,0.375-0.177,0.639-0.177
	C27.997,87.03,28.226,87.093,28.405,87.223 M35.488,87.184v-1.019h-3.72v5.584h1.156v-2.138h2.375v-1.009h-2.375v-1.42h2.564
	 M41.979,87.801c-0.127-0.349-0.309-0.654-0.544-0.913c-0.233-0.257-0.519-0.461-0.837-0.6c-0.33-0.143-0.687-0.216-1.071-0.216
	s-0.739,0.071-1.069,0.216c-0.318,0.138-0.603,0.342-0.833,0.6c-0.235,0.259-0.417,0.563-0.542,0.913
	c-0.129,0.357-0.195,0.743-0.195,1.156c0,0.411,0.066,0.795,0.195,1.154c0.125,0.349,0.307,0.654,0.542,0.913
	c0.231,0.258,0.516,0.463,0.833,0.602c0.33,0.145,0.685,0.216,1.069,0.216c0.382,0,0.739-0.072,1.071-0.216
	c0.318-0.139,0.604-0.344,0.837-0.602c0.237-0.258,0.418-0.563,0.544-0.913c0.129-0.357,0.195-0.741,0.195-1.154
	C42.174,88.544,42.108,88.16,41.979,87.801 M39.527,87.11c0.444,0,0.801,0.172,1.073,0.514c0.268,0.339,0.401,0.783,0.401,1.333
	s-0.133,0.994-0.401,1.333c-0.272,0.341-0.629,0.513-1.073,0.513c-0.438,0-0.791-0.172-1.059-0.513
	c-0.265-0.34-0.397-0.784-0.397-1.333c0-0.548,0.133-0.994,0.397-1.333C38.736,87.282,39.089,87.11,39.527,87.11 M48.23,87.938
	c0-0.563-0.179-1.001-0.538-1.316c-0.348-0.305-0.82-0.458-1.418-0.458h-2.302v5.584h1.156v-2.082h0.61l1.383,2.082h1.31
	l-1.474-2.165c0.399-0.098,0.71-0.286,0.93-0.562C48.117,88.739,48.23,88.376,48.23,87.938 M46.203,87.157
	c0.286,0,0.505,0.071,0.66,0.214c0.149,0.137,0.224,0.326,0.224,0.569c0,0.238-0.075,0.425-0.224,0.562
	c-0.154,0.143-0.374,0.214-0.66,0.214H45.13v-1.555h1.073 M24.493,108.125h-1.119v3.528l-2.466-3.528h-1.092v5.583h1.119v-3.72
	l2.638,3.72h0.918v-5.583 M9.605,113.708h1.165l0.492-1.347h2.091l0.5,1.347h1.183l-2.138-5.583h-1.156L9.605,113.708
	 M11.623,111.379l0.683-1.855l0.683,1.855H11.623 M4.766,87.184v-1.019H0v1.019h1.792v4.565h1.173v-4.565H4.766 M10.614,87.938
	c0-0.563-0.179-1.001-0.538-1.316c-0.347-0.305-0.82-0.457-1.418-0.457h-2.3v5.583h1.156v-2.082h0.608l1.381,2.082h1.31
	l-1.474-2.165c0.399-0.098,0.71-0.286,0.928-0.562C10.5,88.739,10.614,88.376,10.614,87.938 M8.586,87.157
	c0.285,0,0.505,0.071,0.66,0.214c0.148,0.137,0.224,0.326,0.224,0.569c0,0.238-0.075,0.425-0.224,0.562
	c-0.154,0.143-0.375,0.214-0.66,0.214H7.514v-1.555h1.073 M15.471,86.165h-1.156l-2.138,5.584h1.166l0.492-1.347h2.091l0.5,1.347
	h1.183L15.471,86.165 M15.561,89.422h-1.364l0.683-1.856L15.561,89.422 M23.838,86.166h-1.119v3.529l-2.466-3.529h-1.092v5.584
	h1.119v-3.72l2.637,3.72h0.918v-5.584 M36.708,75.567v5.583h3.793v-1.028h-2.647v-1.327h2.402v-0.992h-2.402v-1.219h2.647v-1.019
	h-3.793 M28.186,76.585v-1.019h-4.766v1.019h1.792v4.565h1.173v-4.565H28.186 M34.634,75.567h-1.166v2.219h-2.529v-2.219h-1.166
	v5.584h1.166v-2.347h2.529v2.346h1.166V75.567 M92.195,108.125h-1.229l-1.348,2.365l-1.355-2.365h-1.265l2.011,3.465v2.119h1.156
	v-2.119L92.195,108.125 M79.262,113.709v-5.584h-1.165v5.584H79.262 M80.844,108.125v1.018h1.793v4.566h1.175v-4.566h1.8v-1.018
	H80.844 M84.292,86.165h-1.119v3.529l-2.466-3.529h-1.092v5.584h1.119v-3.72l2.637,3.72h0.921V86.165 M94.293,90.111
	c0.129-0.357,0.194-0.741,0.194-1.154c0-0.413-0.065-0.799-0.194-1.156c-0.128-0.349-0.309-0.654-0.547-0.913
	c-0.233-0.257-0.519-0.461-0.837-0.6c-0.33-0.143-0.687-0.216-1.071-0.216c-0.383,0-0.738,0.071-1.068,0.216
	c-0.318,0.138-0.603,0.342-0.834,0.6c-0.235,0.259-0.416,0.563-0.542,0.913c-0.13,0.357-0.194,0.743-0.194,1.156
	c0,0.411,0.065,0.795,0.194,1.154c0.126,0.349,0.307,0.654,0.542,0.913c0.232,0.258,0.516,0.463,0.834,0.602
	c0.33,0.145,0.685,0.216,1.068,0.216c0.383,0,0.739-0.072,1.071-0.216c0.318-0.139,0.604-0.344,0.837-0.602
	C93.986,90.763,94.167,90.46,94.293,90.111 M90.783,87.626c0.268-0.344,0.619-0.513,1.059-0.513c0.444,0,0.801,0.171,1.073,0.513
	c0.269,0.339,0.401,0.783,0.401,1.333s-0.133,0.994-0.401,1.333c-0.272,0.342-0.629,0.514-1.073,0.514
	c-0.438,0-0.791-0.172-1.059-0.513c-0.265-0.34-0.398-0.784-0.398-1.333S90.519,87.965,90.783,87.626 M97.434,87.184H100v-1.019
	h-3.721v5.584h1.154v-2.138h2.375v-1.009h-2.375V87.184 M74.006,109.07c0.307,0,0.562,0.078,0.762,0.234
	c0.178,0.141,0.319,0.346,0.422,0.619h1.155c-0.108-0.576-0.358-1.031-0.753-1.365c-0.414-0.352-0.943-0.527-1.586-0.527
	c-0.368,0-0.713,0.07-1.035,0.211c-0.314,0.136-0.596,0.337-0.824,0.59c-0.237,0.259-0.419,0.562-0.547,0.911
	c-0.131,0.36-0.196,0.753-0.196,1.173c0,0.421,0.065,0.811,0.196,1.172c0.128,0.349,0.31,0.654,0.547,0.912
	c0.229,0.254,0.51,0.455,0.824,0.591c0.322,0.141,0.667,0.21,1.035,0.21c0.643,0,1.172-0.176,1.586-0.529
	c0.395-0.333,0.645-0.793,0.753-1.373h-1.155c-0.104,0.275-0.242,0.484-0.422,0.627c-0.199,0.158-0.453,0.237-0.762,0.237
	c-0.436,0-0.783-0.175-1.043-0.526c-0.252-0.34-0.375-0.779-0.375-1.32c0-0.544,0.125-0.984,0.375-1.323
	C73.221,109.243,73.568,109.07,74.006,109.07 M62.173,108.125v5.583h1.163v-1.655l0.529-0.627l1.655,2.282h1.411l-2.212-3.083
	l2.128-2.5h-1.41l-2.102,2.51v-2.51H62.173 M56.098,108.125v5.583h1.155v-2.083h0.609l1.384,2.083h1.311l-1.475-2.165
	c0.399-0.098,0.71-0.285,0.93-0.561c0.229-0.286,0.344-0.648,0.344-1.087c0-0.563-0.18-1.001-0.539-1.315
	c-0.347-0.305-0.819-0.457-1.418-0.457h-2.301 M58.326,109.114c0.285,0,0.505,0.071,0.659,0.214
	c0.148,0.137,0.222,0.326,0.222,0.569c0,0.237-0.073,0.425-0.222,0.562c-0.154,0.141-0.374,0.213-0.66,0.213h-1.074v-1.556h1.074
	 M54.307,110.916c0-0.412-0.066-0.799-0.195-1.157c-0.127-0.35-0.309-0.654-0.544-0.913c-0.233-0.257-0.519-0.461-0.837-0.6
	c-0.33-0.143-0.688-0.217-1.071-0.217s-0.739,0.072-1.069,0.217c-0.317,0.137-0.602,0.342-0.833,0.6
	c-0.235,0.259-0.417,0.563-0.542,0.913c-0.129,0.356-0.195,0.743-0.195,1.157c0,0.411,0.065,0.797,0.195,1.154
	c0.125,0.35,0.307,0.652,0.542,0.912c0.232,0.258,0.516,0.463,0.833,0.602c0.33,0.146,0.686,0.217,1.069,0.217
	s0.741-0.071,1.071-0.217c0.318-0.139,0.604-0.344,0.837-0.602c0.237-0.26,0.419-0.562,0.544-0.912
	C54.24,111.711,54.307,111.327,54.307,110.916 M50.205,110.916c0-0.548,0.133-0.994,0.397-1.333c0.269-0.343,0.621-0.515,1.06-0.515
	c0.444,0,0.801,0.172,1.073,0.515c0.268,0.339,0.4,0.783,0.4,1.333c0,0.549-0.133,0.994-0.4,1.334
	c-0.272,0.343-0.629,0.515-1.073,0.515c-0.438,0-0.791-0.172-1.06-0.515C50.335,111.908,50.205,111.465,50.205,110.916
	 M55.771,86.165h-1.365l-1.483,3.938l-1.491-3.938h-1.383v5.584h1.092v-3.646l1.383,3.646h0.791l1.357-3.646v3.646h1.102v-5.584
	 M60.617,86.165h-1.155l-2.138,5.584h1.166l0.491-1.347h2.092l0.501,1.347h1.184L60.617,86.165 M59.344,89.422l0.684-1.856
	l0.682,1.856H59.344 M66.201,87.184h1.803v-1.019h-4.766v1.019h1.792v4.565h1.173v-4.565 M70.759,86.166h-1.163v5.583h1.163V86.166
	 M73.277,86.889c-0.236,0.259-0.417,0.563-0.543,0.913c-0.129,0.357-0.192,0.743-0.192,1.156c0,0.411,0.063,0.795,0.192,1.154
	c0.126,0.349,0.307,0.654,0.543,0.913c0.231,0.258,0.516,0.463,0.833,0.602c0.33,0.145,0.685,0.216,1.069,0.216
	c0.383,0,0.738-0.072,1.07-0.216c0.318-0.139,0.604-0.344,0.838-0.602c0.236-0.258,0.418-0.563,0.545-0.913
	c0.13-0.357,0.195-0.741,0.195-1.154c0-0.413-0.065-0.799-0.195-1.156c-0.127-0.349-0.309-0.654-0.545-0.913
	c-0.234-0.257-0.52-0.461-0.838-0.6c-0.33-0.143-0.687-0.216-1.07-0.216c-0.385,0-0.739,0.071-1.069,0.216
	C73.794,86.429,73.51,86.633,73.277,86.889 M74.12,90.291c-0.265-0.34-0.397-0.784-0.397-1.333c0-0.548,0.133-0.994,0.397-1.333
	c0.269-0.344,0.619-0.514,1.06-0.514c0.443,0,0.801,0.172,1.07,0.514c0.269,0.339,0.401,0.783,0.401,1.333s-0.133,0.994-0.401,1.333
	c-0.27,0.341-0.627,0.513-1.07,0.513C74.741,90.804,74.389,90.634,74.12,90.291 M66.066,75.567h-1.092v5.584h1.119v-3.72l2.637,3.72
	h0.919v-5.584H68.53v3.529L66.066,75.567 M50.359,78.714v-0.49h-2.202v0.928h1.065c-0.065,0.328-0.207,0.584-0.424,0.77
	c-0.228,0.195-0.517,0.293-0.866,0.293c-0.461,0-0.83-0.174-1.105-0.523c-0.269-0.339-0.403-0.783-0.403-1.333
	c0-0.544,0.133-0.986,0.397-1.326c0.27-0.347,0.633-0.521,1.084-0.521c0.311,0,0.565,0.077,0.764,0.229
	c0.18,0.139,0.322,0.347,0.429,0.625h1.173c-0.108-0.577-0.359-1.032-0.756-1.366c-0.418-0.352-0.955-0.525-1.609-0.525
	c-0.376,0-0.727,0.069-1.057,0.21c-0.32,0.135-0.608,0.336-0.845,0.59c-0.243,0.258-0.43,0.562-0.562,0.911
	c-0.135,0.361-0.203,0.75-0.203,1.171c0,0.421,0.068,0.812,0.201,1.173c0.131,0.349,0.318,0.652,0.561,0.911
	c0.241,0.257,0.525,0.454,0.851,0.59c0.334,0.141,0.693,0.21,1.077,0.21c0.351,0,0.675-0.06,0.975-0.177
	c0.295-0.118,0.552-0.286,0.77-0.508c0.22-0.224,0.388-0.488,0.505-0.797C50.299,79.443,50.359,79.094,50.359,78.714 M55.889,76.024
	c-0.348-0.305-0.82-0.457-1.418-0.457h-2.302v5.584h1.155v-2.084h0.609l1.385,2.083h1.31l-1.475-2.165
	c0.399-0.099,0.71-0.286,0.931-0.562c0.229-0.288,0.343-0.648,0.343-1.086C56.425,76.776,56.248,76.336,55.889,76.024
	 M53.324,76.557h1.072c0.286,0,0.506,0.071,0.66,0.214c0.148,0.137,0.225,0.326,0.225,0.567c0,0.237-0.074,0.425-0.225,0.562
	c-0.154,0.141-0.374,0.212-0.66,0.212h-1.072V76.557 M61.281,75.567h-1.156l-2.135,5.584h1.165l0.492-1.347h2.091l0.502,1.347h1.184
	L61.281,75.567 M61.372,78.822h-1.364l0.684-1.856L61.372,78.822 M76.453,78.358c0-0.42-0.064-0.806-0.193-1.154
	c-0.125-0.341-0.311-0.635-0.552-0.879c-0.241-0.245-0.53-0.433-0.868-0.562c-0.344-0.131-0.726-0.196-1.145-0.196h-1.974v5.584
	h1.974c0.419,0,0.801-0.066,1.145-0.197c0.338-0.129,0.627-0.316,0.868-0.562s0.425-0.539,0.552-0.88
	C76.389,79.164,76.453,78.779,76.453,78.358 M73.65,76.585c0.527,0,0.935,0.158,1.225,0.479c0.283,0.311,0.424,0.743,0.424,1.297
	c0,0.548-0.141,0.978-0.424,1.289c-0.29,0.318-0.697,0.477-1.225,0.477h-0.773v-3.539h0.773V76.585z"/>
</svg>
