<svg xmlns="http://www.w3.org/2000/svg" viewBox="0 0 762.1 373.8"><path d="M161.91 164.848l-12.97 6.382v8.66l9.911-4.926v32.438h8.661v-42.554h-5.602m65.993 11.293c0 2.19.574 4.132 1.735 5.837 1.088 1.603 2.544 2.809 4.382 3.603-2.117.588-3.867 1.75-5.22 3.485-1.47 1.882-2.19 4.117-2.19 6.705 0 3.78 1.484 6.808 4.47 9.087 2.837 2.177 6.455 3.265 10.851 3.265 4.367 0 7.97-1.088 10.808-3.265 2.97-2.279 4.455-5.308 4.455-9.087 0-2.588-.735-4.823-2.205-6.705-1.353-1.735-3.103-2.897-5.22-3.485 1.838-.794 3.293-1.985 4.382-3.603 1.146-1.705 1.72-3.646 1.72-5.837 0-3.72-1.397-6.69-4.19-8.911-2.589-2.059-5.838-3.088-9.75-3.088-3.94 0-7.205 1.03-9.808 3.088-2.823 2.206-4.22 5.176-4.22 8.91m8.176.339c0-1.676.573-3.03 1.706-4.044 1.088-.956 2.455-1.44 4.102-1.44 1.632 0 2.97.47 4.058 1.44 1.133 1.015 1.706 2.368 1.706 4.044 0 1.617-.573 2.926-1.706 3.926-1.088.941-2.44 1.426-4.058 1.426-1.647 0-3.014-.47-4.102-1.426-1.133-1-1.706-2.309-1.706-3.926m12.543 18.586c0 1.838-.647 3.309-1.927 4.426-1.25 1.074-2.838 1.603-4.793 1.603-1.985 0-3.603-.544-4.853-1.603-1.294-1.102-1.94-2.588-1.94-4.426 0-1.867.646-3.338 1.94-4.44 1.25-1.06 2.868-1.588 4.853-1.588 1.955 0 3.558.529 4.793 1.588 1.294 1.102 1.927 2.573 1.927 4.44m-38.261-24.791c-1.5-1.956-3.264-3.47-5.308-4.515-2.088-1.073-4.368-1.617-6.838-1.617-2.456 0-4.735.544-6.823 1.617-2.044 1.045-3.808 2.56-5.293 4.515-1.5 1.955-2.632 4.279-3.426 6.955-.81 2.735-1.22 5.705-1.22 8.91s.41 6.177 1.22 8.912c.794 2.661 1.926 4.984 3.426 6.94 1.485 1.97 3.25 3.47 5.293 4.514 2.088 1.074 4.367 1.603 6.823 1.603 2.47 0 4.735-.544 6.838-1.603 2.044-1.044 3.808-2.544 5.308-4.514 1.5-1.956 2.632-4.279 3.426-6.94.809-2.735 1.22-5.706 1.22-8.911s-.411-6.176-1.22-8.911c-.78-2.676-1.926-5-3.426-6.955m-18.336 5.852c1.411-2.72 3.484-4.073 6.205-4.073 2.705 0 4.779 1.353 6.19 4.073 1.28 2.47 1.927 5.794 1.927 10 0 4.205-.647 7.542-1.927 9.998-1.411 2.72-3.47 4.073-6.19 4.073-2.735 0-4.809-1.353-6.205-4.073-1.265-2.44-1.897-5.779-1.897-9.999s.632-7.558 1.897-9.999m152.322 5.764v-9.293h20.175v-7.764h-28.91v42.555h28.91v-7.838h-20.175V189.42h18.307v-7.558h-18.307m-40.966-17.013h-8.882v42.554h28.703v-7.837h-19.821v-34.717m135.015 0h-8.322v42.554h8.528v-28.35l20.101 28.35h7v-42.554h-8.53v26.894l-18.777-26.894m-33.981.94c-2.515-1.087-5.235-1.646-8.147-1.646s-5.631.544-8.146 1.647a18.287 18.287 0 0 0-6.352 4.573c-1.794 1.97-3.176 4.294-4.132 6.955-.985 2.72-1.485 5.661-1.485 8.823 0 3.132.5 6.073 1.485 8.793.956 2.661 2.338 4.97 4.132 6.955a18.518 18.518 0 0 0 6.352 4.588c2.515 1.103 5.22 1.647 8.146 1.647 2.912 0 5.632-.544 8.147-1.647a18.77 18.77 0 0 0 6.381-4.588c1.809-1.985 3.191-4.294 4.147-6.955.985-2.72 1.485-5.661 1.485-8.793 0-3.147-.5-6.088-1.485-8.823-.97-2.661-2.353-4.985-4.147-6.955a18.534 18.534 0 0 0-6.381-4.573m-8.161 6.264c3.382 0 6.102 1.309 8.175 3.926 2.044 2.588 3.074 5.97 3.074 10.16s-1.015 7.574-3.074 10.161c-2.073 2.618-4.793 3.927-8.175 3.927-3.338 0-6.03-1.31-8.073-3.927-2.015-2.587-3.03-5.97-3.03-10.16s1-7.573 3.03-10.161c2.059-2.617 4.735-3.926 8.073-3.926m162.88-3.72c-2.647-2.324-6.25-3.485-10.808-3.485h-17.542v42.554h8.808v-15.88h4.647l10.543 15.88h9.984l-11.234-16.498c3.044-.75 5.41-2.176 7.087-4.279 1.75-2.176 2.618-4.94 2.618-8.279 0-4.279-1.368-7.631-4.103-10.013m-19.542 15.91V172.39h8.19c2.177 0 3.853.544 5.03 1.632 1.131 1.044 1.69 2.485 1.69 4.323 0 1.81-.559 3.235-1.69 4.28-1.177 1.073-2.853 1.617-5.03 1.617h-8.19m-36.937-19.395h-8.808l-16.293 42.554h8.867l3.75-10.263h15.94l3.808 10.263h9.013l-16.277-42.554m.69 24.806H492.95l5.205-14.146 5.19 14.146m88.786-24.806h-15.043v42.554h15.043c3.19 0 6.102-.5 8.72-1.5 2.573-.985 4.778-2.411 6.616-4.279 1.838-1.867 3.235-4.102 4.206-6.705.985-2.647 1.47-5.587 1.47-8.793s-.485-6.146-1.47-8.793c-.956-2.603-2.368-4.838-4.206-6.705-1.838-1.868-4.043-3.294-6.617-4.28-2.617-1-5.528-1.5-8.72-1.5m-6.234 7.765h5.882c4.014 0 7.117 1.205 9.322 3.646 2.162 2.368 3.235 5.662 3.235 9.882 0 4.176-1.073 7.455-3.235 9.822-2.205 2.427-5.308 3.632-9.322 3.632h-5.882v-26.982z"/><path d="M401.047 331.278h-10.543v42.57h8.323V346.04l10.543 27.806h6.043l10.323-27.806v27.806h8.396v-42.569h-10.396l-11.308 30.012-11.38-30.012m77.286 42.554h9.013l-16.292-42.554h-8.808l-16.293 42.57h8.882l3.75-10.265h15.94l3.808 10.25m-16.984-17.749l5.205-14.145 5.191 14.145H461.35m93.02 5.132l4.014-4.794 12.617 17.41h10.748l-16.85-23.497 16.218-19.072h-10.749l-16.013 19.13v-19.13h-8.881v42.57h8.881v-12.617m-22.733-16.425c0-4.293-1.367-7.646-4.102-10.043-2.647-2.323-6.25-3.485-10.808-3.485H499.17v42.57h8.808v-15.881h4.646l10.543 15.88h9.984l-11.219-16.498c3.044-.75 5.411-2.176 7.088-4.279 1.735-2.176 2.602-4.926 2.602-8.264m-10.425-4.338c1.132 1.045 1.705 2.486 1.705 4.338 0 1.809-.558 3.235-1.705 4.28-1.177 1.073-2.853 1.617-5.03 1.617h-8.175v-11.852h8.176c2.176 0 3.852.544 5.029 1.617m-315.894-9.175h-8.882v42.57h28.703v-7.838h-19.821v-34.732m55.935 0h-8.808l-16.292 42.57h8.881l3.75-10.265h15.94l3.808 10.264h9.013l-16.292-42.569m.691 24.806h-10.396l5.206-14.145 5.19 14.145m63.082-24.806h-8.529v26.894l-18.792-26.894h-8.322v42.57h8.528v-28.35l20.101 28.35h7v-42.57m30.849 0h-15.043v42.57h15.043c3.19 0 6.102-.5 8.72-1.5 2.573-.986 4.779-2.412 6.617-4.28 1.838-1.867 3.235-4.102 4.205-6.705.985-2.647 1.47-5.588 1.47-8.793 0-3.206-.485-6.147-1.47-8.793-.956-2.603-2.367-4.853-4.205-6.72-1.838-1.868-4.044-3.294-6.617-4.28-2.618-1-5.53-1.499-8.72-1.499m-6.235 7.764h5.897c4.014 0 7.117 1.22 9.322 3.647 2.162 2.382 3.235 5.675 3.235 9.88 0 4.177-1.073 7.441-3.235 9.809-2.205 2.426-5.308 3.632-9.322 3.632h-5.897v-26.968m18.778-90.226h-9.352l-10.264 18.027-10.322-18.027h-9.646l15.322 26.409v16.145h8.808v-16.145l15.454-26.41m-95.579 0h-6.94l-7.485 28.63-6.94-28.63h-8.94l11.101 42.555h8.117l7.485-28.07 7.484 28.07h8.117l11.087-42.554h-8.734l-7.014 28.63-7.338-28.63m-41.451 7.764v-7.764h-28.91v42.554h28.91v-7.837h-20.175v-10.131h18.307v-7.559h-18.307v-9.293h20.175M216.478 89.523c1.22.868 2.088 2.074 2.617 3.588h8.808c-.72-3.75-2.47-6.705-5.235-8.881-2.955-2.309-6.778-3.47-11.469-3.47-4.47 0-8.146 1.22-11.014 3.66-1.382 1.177-2.44 2.56-3.176 4.147-.75 1.633-1.132 3.397-1.132 5.294 0 6.132 3.603 10.014 10.808 11.646l7.631 1.735c1.838.412 3.162 1 3.985 1.735.809.75 1.22 1.765 1.22 3.044 0 1.676-.646 2.985-1.955 3.94-1.28.927-3 1.398-5.19 1.398-2.133 0-3.912-.441-5.338-1.338-1.5-.927-2.544-2.309-3.118-4.147h-9.146c.72 4.029 2.662 7.19 5.823 9.455 3.118 2.25 7.073 3.367 11.852 3.367 4.602 0 8.367-1.176 11.278-3.529 3.015-2.426 4.53-5.676 4.53-9.72 0-3.146-1-5.764-2.971-7.822-1.897-1.97-4.632-3.353-8.19-4.176l-7.764-1.794c-1.603-.383-2.809-.956-3.574-1.706-.794-.765-1.205-1.75-1.205-2.956 0-1.514.617-2.72 1.852-3.632 1.22-.896 2.853-1.352 4.868-1.352 2.088.044 3.837.53 5.205 1.514m53.98-.294v-7.764h-28.35v42.555h8.808v-16.293h18.1v-7.69h-18.1V89.214h19.542m49.465 4.72c-.97-2.66-2.352-4.984-4.146-6.955a18.73 18.73 0 0 0-6.382-4.573c-2.515-1.088-5.235-1.647-8.161-1.647s-5.632.544-8.146 1.647a18.287 18.287 0 0 0-6.353 4.573c-1.793 1.97-3.176 4.294-4.131 6.956-.986 2.72-1.486 5.66-1.486 8.807 0 3.133.5 6.059 1.486 8.794.955 2.661 2.338 4.984 4.131 6.955a18.518 18.518 0 0 0 6.353 4.588c2.514 1.102 5.22 1.647 8.146 1.647 2.911 0 5.632-.545 8.16-1.647a18.77 18.77 0 0 0 6.383-4.588c1.808-1.97 3.19-4.294 4.146-6.955.985-2.72 1.485-5.647 1.485-8.794 0-3.146-.5-6.072-1.485-8.807m-18.689-5.265c3.382 0 6.102 1.31 8.176 3.912 2.044 2.588 3.058 5.97 3.058 10.16 0 4.191-1.014 7.573-3.058 10.161-2.074 2.603-4.794 3.912-8.176 3.912-3.338 0-6.029-1.31-8.073-3.912-2.014-2.588-3.029-5.97-3.029-10.16 0-4.177 1.015-7.573 3.03-10.161 2.043-2.603 4.734-3.912 8.072-3.912m66.331 6.309c0-4.294-1.367-7.632-4.102-10.029-2.647-2.323-6.25-3.485-10.808-3.485h-17.542v42.555h8.808v-15.866h4.646l10.543 15.866h9.985L357.86 107.52c3.043-.75 5.41-2.176 7.087-4.279 1.75-2.161 2.617-4.926 2.617-8.263m-15.454-5.956c2.176 0 3.853.544 5.029 1.632 1.132 1.044 1.706 2.486 1.706 4.338 0 1.809-.574 3.235-1.706 4.28-1.176 1.087-2.853 1.631-5.029 1.631h-8.176V89.053h8.176M186.657 248.816h-8.528v26.894l-18.792-26.894h-8.323v42.554h8.529v-28.35l20.1 28.35h7v-42.554M73.198 291.37h8.882l3.75-10.263h15.939l3.808 10.263h9.014L98.3 248.816H89.49L73.198 291.37m15.381-17.748l5.206-14.146 5.205 14.146H88.58M36.32 89.23v-7.764H0v7.764h13.66v34.79h8.94V89.23h13.72m44.569 5.75c0-4.294-1.368-7.632-4.103-10.029-2.646-2.323-6.25-3.485-10.807-3.485H48.45v42.555h8.808v-15.866h4.632l10.528 15.866h9.984L71.17 107.52c3.044-.75 5.411-2.176 7.073-4.279 1.78-2.161 2.647-4.926 2.647-8.263m-15.454-5.956c2.176 0 3.852.544 5.028 1.632 1.133 1.044 1.706 2.486 1.706 4.338 0 1.809-.573 3.235-1.706 4.28-1.176 1.087-2.852 1.631-5.028 1.631h-8.176V89.053h8.176m52.465-7.588h-8.808L92.799 124.02h8.882l3.75-10.264h15.939l3.808 10.264h9.014L117.9 81.465m.69 24.821h-10.395l5.205-14.145 5.19 14.145m63.083-24.82h-8.529v26.894l-18.792-26.895h-8.323v42.555h8.529V95.67l20.1 28.35h7V81.465M279.75.695v42.554h28.909V35.41h-20.175V25.295h18.307v-7.559h-18.307V8.443h20.175V.68h-28.91m-64.948 7.779V.694h-36.32v7.764h13.66v34.79h8.94V8.459h13.72M263.944.694h-8.882v16.91h-19.277V.694h-8.882V43.25h8.882V25.368h19.277v17.88h8.882V.695m438.675 248.122h-9.366l-10.264 18.027-10.337-18.027h-9.631l15.321 26.409v16.145h8.808v-16.145l15.47-26.41m-98.564 42.555v-42.554h-8.881v42.554h8.881m12.058-42.554v7.764h13.66v34.79h8.955v-34.79h13.72v-7.764h-36.335m13.601-50.554c-.985-1.014-2.264-1.514-3.823-1.514-1.53 0-2.823.5-3.853 1.485-1.044 1-1.558 2.264-1.558 3.779 0 1.367.411 2.5 1.22 3.411.75.838 1.735 1.368 2.941 1.588l-5.058 7.764h5.543l3.956-5.896c.662-1 1.19-2.015 1.588-3.044.426-1.147.632-2.206.632-3.206 0-1.838-.53-3.293-1.588-4.367M642.39 81.465h-8.528v26.895L615.07 81.465h-8.323v42.555h8.528V95.67l20.101 28.35h7.014V81.465m76.213 30.07c.985-2.72 1.485-5.646 1.485-8.793 0-3.146-.5-6.087-1.485-8.807-.97-2.662-2.353-4.985-4.161-6.956a18.73 18.73 0 0 0-6.382-4.573c-2.514-1.088-5.235-1.647-8.16-1.647s-5.633.544-8.147 1.647a18.287 18.287 0 0 0-6.352 4.573c-1.794 1.97-3.177 4.294-4.132 6.956-.986 2.72-1.485 5.66-1.485 8.807 0 3.133.5 6.059 1.485 8.794.955 2.661 2.338 4.984 4.132 6.955a18.518 18.518 0 0 0 6.352 4.588c2.514 1.102 5.22 1.647 8.146 1.647 2.912 0 5.632-.545 8.161-1.647a18.77 18.77 0 0 0 6.382-4.588c1.823-1.985 3.205-4.294 4.161-6.955m-26.747-18.94c2.044-2.617 4.72-3.91 8.073-3.91 3.382 0 6.102 1.308 8.175 3.91 2.044 2.588 3.059 5.97 3.059 10.161 0 4.19-1.015 7.573-3.059 10.16-2.073 2.604-4.793 3.912-8.175 3.912-3.338 0-6.03-1.308-8.073-3.911-2.015-2.588-3.03-5.97-3.03-10.16 0-4.192 1.015-7.574 3.03-10.162m50.686-3.367h19.557v-7.764h-28.35v42.555h8.793v-16.293h18.1v-7.69h-18.1V89.229m-178.54 166.792c2.337 0 4.278.603 5.807 1.794 1.353 1.073 2.427 2.632 3.206 4.72h8.808c-.824-4.397-2.735-7.867-5.735-10.41-3.161-2.677-7.19-4.015-12.087-4.015-2.808 0-5.44.53-7.896 1.603a18.275 18.275 0 0 0-6.279 4.5c-1.808 1.97-3.19 4.278-4.161 6.94-1 2.75-1.5 5.734-1.5 8.94s.5 6.176 1.5 8.926c.97 2.661 2.353 4.984 4.161 6.955a18.275 18.275 0 0 0 6.279 4.5c2.456 1.073 5.088 1.602 7.896 1.602 4.897 0 8.926-1.338 12.087-4.029 3-2.544 4.911-6.043 5.735-10.47h-8.808c-.78 2.103-1.838 3.691-3.206 4.78-1.529 1.205-3.455 1.808-5.808 1.808-3.323 0-5.97-1.338-7.955-4.014-1.911-2.588-2.852-5.94-2.852-10.058 0-4.147.955-7.5 2.852-10.087 1.97-2.662 4.617-3.985 7.955-3.985m-90.182-7.205v42.554h8.867v-12.616l4.029-4.779 12.616 17.395h10.75l-16.852-23.497 16.219-19.057h-10.749l-16.013 19.13v-19.13h-8.867m-46.304 0v42.554h8.808v-15.88h4.647l10.543 15.88h9.984l-11.234-16.498c3.044-.75 5.411-2.176 7.087-4.279 1.75-2.176 2.618-4.94 2.618-8.279 0-4.293-1.368-7.631-4.103-10.028-2.647-2.323-6.25-3.485-10.807-3.485h-17.543m16.984 7.558c2.176 0 3.852.544 5.029 1.632 1.132 1.044 1.69 2.485 1.69 4.338 0 1.809-.558 3.235-1.69 4.28-1.177 1.073-2.853 1.617-5.03 1.617h-8.19v-11.852h8.19m-30.628 13.719c0-3.147-.5-6.088-1.486-8.823-.97-2.661-2.352-4.984-4.146-6.955a18.73 18.73 0 0 0-6.382-4.573c-2.514-1.088-5.235-1.647-8.16-1.647s-5.633.544-8.147 1.647a18.287 18.287 0 0 0-6.352 4.573c-1.794 1.97-3.177 4.294-4.132 6.955-.986 2.72-1.485 5.662-1.485 8.823 0 3.132.5 6.073 1.485 8.793.955 2.662 2.338 4.97 4.132 6.955a18.518 18.518 0 0 0 6.352 4.588c2.514 1.103 5.22 1.647 8.146 1.647 2.926 0 5.647-.544 8.161-1.647a18.77 18.77 0 0 0 6.382-4.588c1.808-1.985 3.19-4.293 4.146-6.955.986-2.735 1.486-5.66 1.486-8.793m-31.262 0c0-4.176 1.015-7.573 3.03-10.16 2.043-2.618 4.734-3.927 8.072-3.927 3.382 0 6.102 1.309 8.175 3.926 2.044 2.588 3.059 5.97 3.059 10.161 0 4.176-1.015 7.573-3.059 10.16-2.073 2.618-4.793 3.927-8.175 3.927-3.338 0-6.029-1.309-8.073-3.926-2.03-2.603-3.029-5.985-3.029-10.161M425.03 81.465h-10.396l-11.308 30.012-11.366-30.012h-10.543v42.555h8.323V96.228l10.543 27.792h6.028l10.338-27.792v27.792h8.396V81.465m36.923 0h-8.808l-16.293 42.555h8.882l3.75-10.264h15.939l3.823 10.264h9.014l-16.307-42.555m-9.705 24.821l5.205-14.145 5.19 14.145h-10.395m52.259-17.057h13.734v-7.764h-36.32v7.764h13.66v34.79h8.94V89.23m34.718-7.764h-8.867v42.555h8.867V81.465m19.189 5.514c-1.794 1.97-3.176 4.294-4.132 6.956-.985 2.72-1.47 5.66-1.47 8.807 0 3.133.485 6.059 1.47 8.794.956 2.661 2.338 4.984 4.132 6.955a18.518 18.518 0 0 0 6.352 4.588c2.515 1.102 5.22 1.647 8.146 1.647s5.632-.545 8.161-1.647a18.77 18.77 0 0 0 6.382-4.588c1.809-1.97 3.191-4.294 4.161-6.955.986-2.72 1.486-5.647 1.486-8.794 0-3.146-.5-6.087-1.486-8.807-.97-2.662-2.352-4.985-4.16-6.956a18.73 18.73 0 0 0-6.383-4.573c-2.514-1.088-5.234-1.647-8.16-1.647s-5.632.544-8.147 1.647a18.96 18.96 0 0 0-6.352 4.573m6.426 25.924c-2.015-2.588-3.03-5.97-3.03-10.16 0-4.177 1.015-7.573 3.03-10.161 2.044-2.618 4.72-3.912 8.072-3.912 3.383 0 6.103 1.31 8.161 3.912 2.044 2.588 3.059 5.97 3.059 10.16 0 4.191-1.015 7.573-3.059 10.161-2.058 2.603-4.778 3.912-8.16 3.912-3.338 0-6.03-1.294-8.073-3.912M503.493.694h-8.323V43.25h8.529v-28.35l20.1 28.35h7V.694h-8.529v26.894L503.493.694M383.784 24.677v-3.735h-16.777v7.073h8.116c-.5 2.5-1.573 4.455-3.234 5.867-1.736 1.485-3.941 2.235-6.603 2.235-3.514 0-6.323-1.323-8.425-3.985-2.044-2.588-3.074-5.97-3.074-10.16 0-4.147 1.015-7.515 3.03-10.103 2.058-2.646 4.823-3.97 8.263-3.97 2.368 0 4.309.588 5.823 1.75 1.368 1.059 2.456 2.647 3.265 4.764h8.94c-.823-4.396-2.735-7.867-5.764-10.41-3.191-2.677-7.279-4-12.264-4-2.867 0-5.543.53-8.058 1.603a18.894 18.894 0 0 0-6.44 4.5c-1.853 1.97-3.28 4.278-4.28 6.94-1.028 2.75-1.543 5.72-1.543 8.925 0 3.206.515 6.19 1.53 8.94 1 2.662 2.425 4.97 4.278 6.941 1.838 1.956 4 3.456 6.485 4.5 2.544 1.073 5.279 1.602 8.205 1.602 2.676 0 5.146-.455 7.426-1.352 2.25-.897 4.205-2.177 5.867-3.868 1.676-1.705 2.955-3.72 3.852-6.073.927-2.426 1.382-5.087 1.382-7.984m42.143-20.498C423.28 1.856 419.677.694 415.12.694h-17.542V43.25h8.808V27.368h4.647l10.543 15.88h9.984L420.325 26.75c3.044-.75 5.41-2.176 7.087-4.279 1.75-2.19 2.618-4.94 2.618-8.278-.015-4.28-1.368-7.632-4.103-10.014m-19.542 4.058h8.176c2.176 0 3.852.544 5.029 1.633 1.132 1.044 1.705 2.485 1.705 4.323 0 1.808-.559 3.235-1.705 4.279-1.177 1.073-2.853 1.617-5.03 1.617h-8.175V8.237m60.64-7.543h-8.807L441.94 43.25h8.882l3.75-10.264h15.939l3.823 10.264h9.014L467.026.694m.691 24.806h-10.396l5.205-14.145 5.191 14.145m114.93-3.529c0-3.205-.486-6.146-1.471-8.793-.956-2.603-2.367-4.838-4.206-6.705-1.838-1.868-4.043-3.294-6.616-4.28-2.618-.999-5.53-1.499-8.72-1.499H546.59V43.25h15.043c3.19 0 6.102-.5 8.72-1.5 2.573-.985 4.778-2.412 6.616-4.28 1.839-1.867 3.235-4.102 4.206-6.704.985-2.662 1.47-5.588 1.47-8.794m-21.35-13.513c4.014 0 7.117 1.206 9.322 3.647 2.162 2.367 3.235 5.66 3.235 9.881 0 4.176-1.073 7.455-3.235 9.823-2.205 2.426-5.308 3.632-9.322 3.632h-5.897V8.473h5.897z"/><path d="M344.347 181.867v-9.293h20.175v-7.764h-28.91v42.554h28.91v-7.837h-20.175v-10.132h18.307v-7.558h-18.307m-40.966-17.013h-8.882v42.555h28.703v-7.838h-19.821v-34.717m-75.478 11.293c0 2.191.574 4.132 1.735 5.838 1.088 1.603 2.544 2.809 4.382 3.603-2.117.588-3.867 1.75-5.22 3.484-1.47 1.883-2.19 4.118-2.19 6.706 0 3.779 1.484 6.808 4.47 9.087 2.837 2.176 6.455 3.264 10.851 3.264 4.367 0 7.97-1.088 10.808-3.264 2.97-2.28 4.455-5.308 4.455-9.087 0-2.588-.735-4.823-2.205-6.706-1.353-1.735-3.103-2.896-5.22-3.484 1.838-.794 3.293-1.986 4.382-3.603 1.146-1.706 1.72-3.647 1.72-5.838 0-3.72-1.397-6.69-4.19-8.91-2.589-2.06-5.838-3.088-9.75-3.088-3.94 0-7.205 1.029-9.808 3.087-2.823 2.206-4.22 5.176-4.22 8.911m8.176.339c0-1.677.573-3.03 1.706-4.044 1.088-.956 2.455-1.441 4.102-1.441 1.632 0 2.97.47 4.058 1.44 1.133 1.015 1.706 2.368 1.706 4.045 0 1.617-.573 2.926-1.706 3.926-1.088.94-2.44 1.426-4.058 1.426-1.647 0-3.014-.47-4.102-1.426-1.133-1-1.706-2.309-1.706-3.926m12.543 18.586c0 1.838-.647 3.308-1.927 4.426-1.25 1.073-2.838 1.603-4.793 1.603-1.985 0-3.603-.544-4.853-1.603-1.294-1.103-1.94-2.588-1.94-4.426 0-1.868.646-3.338 1.94-4.44 1.25-1.06 2.868-1.589 4.853-1.589 1.955 0 3.558.53 4.793 1.588 1.294 1.103 1.927 2.573 1.927 4.44m-62.509-24.79c-1.5 1.955-2.632 4.278-3.426 6.954-.808 2.735-1.22 5.706-1.22 8.911s.412 6.176 1.22 8.911c.794 2.662 1.927 4.985 3.426 6.94 1.486 1.971 3.25 3.47 5.294 4.515 2.088 1.073 4.367 1.603 6.823 1.603 2.47 0 4.735-.544 6.837-1.603 2.044-1.044 3.809-2.544 5.309-4.514 1.5-1.956 2.632-4.28 3.426-6.94.808-2.736 1.22-5.706 1.22-8.912s-.412-6.176-1.22-8.91c-.794-2.677-1.927-4.985-3.426-6.956-1.5-1.955-3.265-3.47-5.309-4.514-2.088-1.073-4.367-1.603-6.837-1.603-2.456 0-4.735.544-6.823 1.603-2.044 1.044-3.808 2.544-5.294 4.514m5.912 5.853c1.411-2.72 3.484-4.073 6.205-4.073 2.705 0 4.779 1.352 6.19 4.073 1.28 2.47 1.927 5.793 1.927 9.999 0 4.205-.647 7.543-1.927 9.999-1.411 2.72-3.47 4.073-6.19 4.073-2.735 0-4.809-1.353-6.205-4.073-1.265-2.441-1.897-5.78-1.897-10s.632-7.557 1.897-9.998m-30.115-11.279l-12.97 6.382v8.661l9.911-4.926v32.438h8.661v-42.555h-5.602m430.22 0h-15.042v42.555h15.043c3.19 0 6.102-.5 8.72-1.5 2.573-.985 4.778-2.412 6.616-4.279s3.235-4.102 4.206-6.705c.985-2.647 1.47-5.588 1.47-8.793s-.485-6.147-1.47-8.794c-.956-2.602-2.368-4.837-4.206-6.705-1.838-1.867-4.043-3.294-6.617-4.279-2.617-1-5.528-1.5-8.72-1.5m-6.234 7.764h5.882c4.014 0 7.117 1.22 9.322 3.647 2.162 2.367 3.235 5.661 3.235 9.881 0 4.176-1.073 7.455-3.235 9.823-2.205 2.426-5.308 3.632-9.322 3.632h-5.882v-26.983m-26.762-4.279c-2.647-2.323-6.25-3.485-10.808-3.485h-17.542v42.555h8.808v-15.88h4.647l10.543 15.88h9.984l-11.234-16.498c3.044-.75 5.41-2.177 7.087-4.28 1.75-2.176 2.618-4.94 2.618-8.278 0-4.279-1.368-7.632-4.103-10.014m-19.542 15.91v-11.851h8.19c2.177 0 3.853.544 5.03 1.632 1.131 1.044 1.69 2.485 1.69 4.338 0 1.808-.559 3.235-1.69 4.279-1.177 1.073-2.853 1.617-5.03 1.617h-8.19m-36.937-19.41h-8.808l-16.293 42.555h8.867l3.75-10.264h15.94l3.808 10.264h9.013l-16.277-42.555m.69 24.807H492.95l5.205-14.146 5.19 14.146m-64.949-24.807h-8.322v42.555h8.528v-28.35l20.101 28.35h7v-42.555h-8.53v26.895l-18.777-26.895m-33.981.941c-2.515-1.088-5.235-1.646-8.147-1.646s-5.631.544-8.146 1.646a18.287 18.287 0 0 0-6.352 4.574c-1.794 1.97-3.176 4.293-4.132 6.955-.985 2.72-1.485 5.66-1.485 8.822 0 3.132.5 6.059 1.485 8.794.956 2.661 2.338 4.97 4.132 6.955a18.518 18.518 0 0 0 6.352 4.587c2.515 1.103 5.22 1.647 8.146 1.647 2.912 0 5.632-.544 8.147-1.647a18.77 18.77 0 0 0 6.381-4.587c1.809-1.985 3.191-4.294 4.147-6.955.985-2.72 1.485-5.662 1.485-8.794 0-3.146-.5-6.087-1.485-8.822-.97-2.662-2.353-4.985-4.147-6.955a18.534 18.534 0 0 0-6.381-4.574m-8.161 6.265c3.382 0 6.102 1.308 8.175 3.926 2.044 2.588 3.074 5.97 3.074 10.16 0 4.176-1.015 7.573-3.074 10.161-2.073 2.617-4.793 3.926-8.175 3.926-3.338 0-6.03-1.309-8.073-3.926-2.015-2.588-3.03-5.97-3.03-10.16 0-4.177 1-7.573 3.03-10.161 2.059-2.618 4.735-3.926 8.073-3.926z"/></svg>