<svg data-name="Layer 1" xmlns="http://www.w3.org/2000/svg" viewBox="0 0 464.2 44"><title>Artboard 1</title><path d="M13 .73L0 7.11v8.66l9.91-4.92v32.43h8.66V.73H13M79 12a10.14 10.14 0 0 0 1.74 5.84 9.93 9.93 0 0 0 4.38 3.6A9.76 9.76 0 0 0 79.86 25a10.54 10.54 0 0 0-2.19 6.7 10.85 10.85 0 0 0 4.47 9.09A17.29 17.29 0 0 0 93 44a17.23 17.23 0 0 0 10.81-3.26 10.89 10.89 0 0 0 4.45-9.09 10.54 10.54 0 0 0-2.2-6.7 9.76 9.76 0 0 0-5.22-3.49 9.8 9.8 0 0 0 4.38-3.6 10.2 10.2 0 0 0 1.71-5.86 10.81 10.81 0 0 0-4.19-8.91A15.17 15.17 0 0 0 93 0a15.33 15.33 0 0 0-9.81 3.09A10.73 10.73 0 0 0 79 12m8.18.34a5.16 5.16 0 0 1 1.7-4A6 6 0 0 1 93 6.88a5.81 5.81 0 0 1 4 1.44 5.14 5.14 0 0 1 1.71 4A5 5 0 0 1 97 16.29a6.57 6.57 0 0 1-8.16 0 5 5 0 0 1-1.7-3.93M99.68 31a5.58 5.58 0 0 1-1.93 4.42A7 7 0 0 1 93 37a7.26 7.26 0 0 1-4.85-1.61A5.51 5.51 0 0 1 86.17 31a5.5 5.5 0 0 1 1.94-4.44A7.25 7.25 0 0 1 93 24.92a7.08 7.08 0 0 1 4.79 1.59A5.49 5.49 0 0 1 99.68 31M61.42 6.16a15.53 15.53 0 0 0-5.31-4.52 15.21 15.21 0 0 0-13.66 0 15.37 15.37 0 0 0-5.29 4.52 21.21 21.21 0 0 0-3.43 7A31.31 31.31 0 0 0 32.51 22a31.21 31.21 0 0 0 1.22 8.91 21.36 21.36 0 0 0 3.43 6.94 15.37 15.37 0 0 0 5.29 4.52A14.76 14.76 0 0 0 49.27 44a14.94 14.94 0 0 0 6.84-1.6 15.53 15.53 0 0 0 5.31-4.52 21.36 21.36 0 0 0 3.43-6.94A31.21 31.21 0 0 0 66.07 22a31.31 31.31 0 0 0-1.22-8.91 20.83 20.83 0 0 0-3.43-6.95M43.08 12q2.13-4.08 6.21-4.08c2.7 0 4.78 1.36 6.19 4.08 1.28 2.47 1.93 5.79 1.93 10s-.65 7.54-1.93 10c-1.41 2.72-3.47 4.07-6.19 4.07s-4.81-1.34-6.21-4.07q-1.89-3.67-1.89-10c0-4.22.63-7.56 1.89-10m152.33 5.76V8.48h20.17V.71h-28.91v42.56h28.91v-7.84h-20.17V25.3h18.3v-7.56h-18.3m-41-17h-8.88v42.54h28.7v-7.83h-19.79V.73m135 0h-8.33v42.55h8.53V14.93l20.1 28.35h7V.73h-8.53v26.89L289.46.73m-34 .94a20.93 20.93 0 0 0-16.29 0 18.32 18.32 0 0 0-6.35 4.57 20.52 20.52 0 0 0-4.13 7 25.6 25.6 0 0 0-1.48 8.76 25.55 25.55 0 0 0 1.49 8.79 20.61 20.61 0 0 0 4.13 7 18.64 18.64 0 0 0 6.35 4.59 21 21 0 0 0 16.29 0 19 19 0 0 0 6.39-4.59 20.47 20.47 0 0 0 4.14-7 25.55 25.55 0 0 0 1.49-8.79 25.68 25.68 0 0 0-1.49-8.8 20.86 20.86 0 0 0-4.14-7 18.66 18.66 0 0 0-6.39-4.57m-8.16 6.26a9.92 9.92 0 0 1 8.18 3.93q3.06 3.89 3.07 10.16c0 4.19-1 7.57-3.07 10.16a9.92 9.92 0 0 1-8.18 3.93 9.74 9.74 0 0 1-8.07-3.93c-2-2.59-3-6-3-10.16s1-7.57 3-10.16a9.77 9.77 0 0 1 8.07-3.93m162.88-3.68c-2.64-2.32-6.25-3.48-10.8-3.48h-17.55v42.55h8.81V27.4h4.65l10.54 15.88h10l-11.25-16.49a12.63 12.63 0 0 0 7.09-4.28 12.81 12.81 0 0 0 2.62-8.28c0-4.28-1.37-7.63-4.11-10m-19.54 15.89V8.27h8.19a7.18 7.18 0 0 1 5 1.63 5.61 5.61 0 0 1 1.69 4.33 5.54 5.54 0 0 1-1.69 4.28 7.22 7.22 0 0 1-5 1.61h-8.19M353.71.73h-8.8l-16.3 42.55h8.87L341.23 33h15.94L361 43.28h9L353.71.73m.69 24.81H344l5.2-14.15 5.19 14.15M443.19.73h-15v42.55h15a24.29 24.29 0 0 0 8.72-1.5 18.32 18.32 0 0 0 6.62-4.28 18.79 18.79 0 0 0 4.2-6.7 25 25 0 0 0 1.47-8.8 25 25 0 0 0-1.47-8.8 18.6 18.6 0 0 0-4.2-6.7 18.32 18.32 0 0 0-6.62-4.28 24.29 24.29 0 0 0-8.72-1.5M437 8.49h5.88q6 0 9.32 3.65t3.19 9.86q0 6.27-3.23 9.82t-9.32 3.64H437z" data-name="messaging logo 0 Layer0 0 FILL"/><path d="M195.41 17.75V8.46h20.17V.69h-28.91v42.56h28.91v-7.84h-20.17V25.28h18.3v-7.56h-18.3m-41-17h-8.88v42.54h28.7v-7.84h-19.79V.71M79 12a10.14 10.14 0 0 0 1.74 5.84 10 10 0 0 0 4.38 3.6 9.79 9.79 0 0 0-5.22 3.48 10.58 10.58 0 0 0-2.19 6.71 10.85 10.85 0 0 0 4.47 9.09A17.35 17.35 0 0 0 93 44a17.29 17.29 0 0 0 10.81-3.26 10.89 10.89 0 0 0 4.45-9.09 10.59 10.59 0 0 0-2.2-6.71 9.79 9.79 0 0 0-5.22-3.48 9.93 9.93 0 0 0 4.38-3.6 10.2 10.2 0 0 0 1.71-5.86 10.81 10.81 0 0 0-4.19-8.91A15.17 15.17 0 0 0 93 0a15.33 15.33 0 0 0-9.81 3.09A10.7 10.7 0 0 0 79 12m8.18.34a5.2 5.2 0 0 1 1.7-4.05A6 6 0 0 1 93 6.85a5.81 5.81 0 0 1 4 1.44 5.17 5.17 0 0 1 1.71 4.05A5 5 0 0 1 97 16.26a6.54 6.54 0 0 1-8.16 0 5 5 0 0 1-1.7-3.92m12.54 18.58a5.6 5.6 0 0 1-1.93 4.43A7.07 7.07 0 0 1 93 37a7.25 7.25 0 0 1-4.85-1.6 5.52 5.52 0 0 1-1.94-4.43 5.52 5.52 0 0 1 1.94-4.44A7.25 7.25 0 0 1 93 24.89a7.08 7.08 0 0 1 4.79 1.59 5.52 5.52 0 0 1 1.93 4.44M37.17 6.13a21.15 21.15 0 0 0-3.42 7A31.21 31.21 0 0 0 32.53 22a31.31 31.31 0 0 0 1.22 8.91 21.24 21.24 0 0 0 3.42 6.94 15.27 15.27 0 0 0 5.3 4.51A14.59 14.59 0 0 0 49.29 44a15 15 0 0 0 6.84-1.61 15.45 15.45 0 0 0 5.3-4.51 21.26 21.26 0 0 0 3.43-6.94A31.31 31.31 0 0 0 66.08 22a31.21 31.21 0 0 0-1.22-8.91 21.27 21.27 0 0 0-3.43-7 15.57 15.57 0 0 0-5.3-4.51A14.67 14.67 0 0 0 49.29 0a14.84 14.84 0 0 0-6.82 1.61 15.27 15.27 0 0 0-5.3 4.51M43.08 12c1.42-2.72 3.49-4.07 6.21-4.07s4.78 1.33 6.19 4.07c1.28 2.47 1.93 5.8 1.93 10s-.65 7.55-1.93 10q-2.11 4.08-6.19 4.08T43.08 32c-1.26-2.44-1.89-5.78-1.89-10s.63-7.56 1.89-10M13 .71L0 7.09v8.66l9.91-4.93v32.44h8.66V.71H13m430.22 0h-15v42.55h15a24.29 24.29 0 0 0 8.72-1.5 18.32 18.32 0 0 0 6.62-4.28 18.88 18.88 0 0 0 4.2-6.7A25 25 0 0 0 464.2 22a25 25 0 0 0-1.47-8.79 18.64 18.64 0 0 0-4.2-6.71 18.43 18.43 0 0 0-6.62-4.27 24.29 24.29 0 0 0-8.72-1.5M437 8.47h5.88q6 0 9.32 3.65t3.19 9.88q0 6.26-3.23 9.82c-2.21 2.43-5.31 3.63-9.32 3.63H437v-27m-26.81-4.26c-2.64-2.32-6.25-3.48-10.8-3.48h-17.55v42.55h8.81V27.38h4.65l10.54 15.88h10l-11.24-16.5a12.57 12.57 0 0 0 7.09-4.28 12.79 12.79 0 0 0 2.62-8.28c0-4.27-1.37-7.63-4.11-10m-19.55 15.9V8.25h8.19a7.13 7.13 0 0 1 5 1.63 5.62 5.62 0 0 1 1.69 4.34 5.54 5.54 0 0 1-1.69 4.28 7.22 7.22 0 0 1-5 1.62h-8.19M353.71.71h-8.8l-16.3 42.55h8.87L341.23 33h15.94L361 43.26h9L353.71.71m.69 24.8H344l5.2-14.14 5.19 14.14M289.46.71h-8.33v42.55h8.53V14.91l20.1 28.35h7V.71h-8.53V27.6L289.46.71m-34 .94A20.24 20.24 0 0 0 247.33 0a20 20 0 0 0-8.15 1.65 18.2 18.2 0 0 0-6.35 4.57 20.42 20.42 0 0 0-4.13 7 25.6 25.6 0 0 0-1.49 8.78 25.59 25.59 0 0 0 1.49 8.79 20.71 20.71 0 0 0 4.13 7 18.48 18.48 0 0 0 6.35 4.58 20.93 20.93 0 0 0 16.29 0 18.82 18.82 0 0 0 6.39-4.58 20.57 20.57 0 0 0 4.14-7 25.55 25.55 0 0 0 1.49-8.79 25.68 25.68 0 0 0-1.49-8.82 20.77 20.77 0 0 0-4.14-7 18.53 18.53 0 0 0-6.39-4.57m-8.16 6.26a9.92 9.92 0 0 1 8.18 3.93q3.06 3.87 3.07 10.16c0 4.17-1 7.57-3.07 10.16a9.91 9.91 0 0 1-8.18 3.92 9.74 9.74 0 0 1-8.07-3.92c-2-2.59-3-6-3-10.16s1-7.58 3-10.16a9.77 9.77 0 0 1 8.07-3.89z" data-name="messaging group 0 Layer0 0 FILL"/></svg>