<?xml version="1.0" encoding="utf-8"?>
<!-- Generator: Adobe Illustrator 16.0.4, SVG Export Plug-In . SVG Version: 6.00 Build 0)  -->
<!DOCTYPE svg PUBLIC "-//W3C//DTD SVG 1.1//EN" "http://www.w3.org/Graphics/SVG/1.1/DTD/svg11.dtd">
<svg version="1.1" id="Layer_1" xmlns="http://www.w3.org/2000/svg" xmlns:xlink="http://www.w3.org/1999/xlink" x="0px" y="0px"
	 width="100px" height="200px" viewBox="0 0 100 200" enable-background="new 0 0 100 200" xml:space="preserve">
<path d="M21.245,97.106l-1.702,0.837v1.136l1.3-0.646v4.257h1.137v-5.584H21.245 M29.905,98.588c0,0.287,0.075,0.542,0.228,0.766
	c0.143,0.21,0.334,0.369,0.575,0.473c-0.277,0.077-0.507,0.229-0.685,0.457c-0.193,0.247-0.288,0.54-0.288,0.88
	c0,0.496,0.195,0.893,0.586,1.192c0.373,0.286,0.847,0.429,1.424,0.429c0.573,0,1.046-0.143,1.418-0.429
	c0.39-0.3,0.584-0.696,0.584-1.192c0-0.34-0.097-0.633-0.29-0.88c-0.177-0.228-0.407-0.38-0.685-0.457
	c0.241-0.104,0.432-0.261,0.575-0.473c0.15-0.224,0.226-0.478,0.226-0.766c0-0.488-0.183-0.878-0.55-1.169
	c-0.339-0.27-0.766-0.405-1.279-0.405c-0.517,0-0.945,0.135-1.287,0.405C30.088,97.708,29.905,98.098,29.905,98.588 M30.978,98.633
	c0-0.22,0.075-0.398,0.224-0.531c0.143-0.125,0.322-0.189,0.539-0.189c0.214,0,0.39,0.062,0.532,0.189
	c0.149,0.133,0.224,0.311,0.224,0.531c0,0.212-0.075,0.384-0.224,0.515c-0.143,0.123-0.32,0.187-0.532,0.187
	c-0.216,0-0.396-0.062-0.539-0.187C31.053,99.017,30.978,98.845,30.978,98.633 M32.623,101.071c0,0.241-0.084,0.435-0.252,0.581
	c-0.164,0.141-0.373,0.21-0.629,0.21c-0.261,0-0.473-0.071-0.637-0.21c-0.169-0.145-0.254-0.34-0.254-0.581
	c0-0.245,0.085-0.438,0.254-0.583c0.164-0.139,0.376-0.208,0.637-0.208c0.256,0,0.467,0.069,0.629,0.208
	C32.54,100.633,32.623,100.826,32.623,101.071 M27.603,97.818c-0.197-0.257-0.429-0.455-0.697-0.592
	c-0.274-0.141-0.573-0.212-0.897-0.212c-0.322,0-0.622,0.071-0.896,0.212c-0.268,0.137-0.5,0.336-0.694,0.592
	c-0.197,0.256-0.346,0.562-0.45,0.913c-0.106,0.359-0.16,0.749-0.16,1.169c0,0.42,0.054,0.811,0.16,1.169
	c0.104,0.35,0.253,0.654,0.45,0.911c0.195,0.258,0.426,0.455,0.694,0.592c0.274,0.141,0.573,0.211,0.896,0.211
	c0.324,0,0.621-0.072,0.897-0.211c0.268-0.137,0.5-0.334,0.697-0.592c0.197-0.257,0.345-0.562,0.449-0.911
	c0.106-0.358,0.16-0.749,0.16-1.169c0-0.421-0.054-0.811-0.16-1.169C27.95,98.38,27.8,98.075,27.603,97.818 M25.197,98.586
	c0.185-0.357,0.457-0.535,0.814-0.535c0.355,0,0.627,0.178,0.812,0.535c0.168,0.324,0.253,0.76,0.253,1.312s-0.085,0.99-0.253,1.312
	c-0.185,0.356-0.455,0.533-0.812,0.533c-0.359,0-0.631-0.177-0.814-0.533c-0.166-0.32-0.249-0.759-0.249-1.312
	S25.031,98.907,25.197,98.586 M45.184,99.343v-1.22h2.647v-1.019h-3.793v5.584h3.793v-1.028h-2.647v-1.33h2.402v-0.992h-2.402
	 M39.809,97.106h-1.166v5.584h3.766v-1.028h-2.601V97.106 M57.525,97.106h-1.093v5.584h1.119v-3.72l2.638,3.72h0.918v-5.584h-1.119
	v3.528L57.525,97.106 M53.066,97.23c-0.33-0.143-0.688-0.216-1.069-0.216s-0.739,0.072-1.069,0.216
	c-0.318,0.138-0.602,0.342-0.833,0.6c-0.236,0.258-0.417,0.563-0.542,0.913c-0.129,0.357-0.195,0.743-0.195,1.158
	c0,0.411,0.065,0.797,0.195,1.154c0.125,0.349,0.307,0.652,0.542,0.912c0.231,0.258,0.516,0.463,0.833,0.602
	c0.33,0.145,0.686,0.217,1.069,0.217c0.382,0,0.739-0.072,1.069-0.217c0.318-0.139,0.604-0.344,0.837-0.602
	c0.237-0.26,0.419-0.563,0.544-0.912c0.129-0.357,0.195-0.743,0.195-1.154c0-0.413-0.066-0.799-0.195-1.158
	c-0.127-0.349-0.309-0.654-0.544-0.913C53.67,97.573,53.385,97.368,53.066,97.23 M51.995,98.052c0.444,0,0.801,0.172,1.073,0.515
	c0.268,0.34,0.402,0.784,0.402,1.333s-0.133,0.994-0.402,1.333c-0.272,0.344-0.629,0.516-1.073,0.516
	c-0.438,0-0.792-0.172-1.06-0.516c-0.264-0.339-0.397-0.783-0.397-1.333s0.132-0.994,0.397-1.333
	C51.206,98.224,51.557,98.052,51.995,98.052 M73.367,97.564c-0.348-0.305-0.82-0.458-1.418-0.458h-2.302v5.584h1.155v-2.084h0.61
	l1.384,2.084h1.31l-1.474-2.165c0.398-0.098,0.709-0.285,0.93-0.562c0.229-0.285,0.344-0.648,0.344-1.086
	C73.906,98.316,73.727,97.876,73.367,97.564 M70.803,99.651v-1.555h1.075c0.286,0,0.506,0.071,0.66,0.214
	c0.148,0.137,0.222,0.326,0.222,0.567c0,0.237-0.073,0.424-0.222,0.562c-0.154,0.141-0.374,0.212-0.66,0.212H70.803 M65.957,97.106
	h-1.156l-2.138,5.583h1.163l0.492-1.346h2.092l0.5,1.346h1.182L65.957,97.106 M66.047,100.361h-1.363l0.683-1.856L66.047,100.361
	 M77.697,97.106h-1.974v5.583h1.974c0.418,0,0.801-0.064,1.145-0.196c0.338-0.13,0.627-0.316,0.867-0.562
	c0.242-0.245,0.426-0.538,0.553-0.88c0.129-0.347,0.193-0.733,0.193-1.154c0-0.42-0.064-0.806-0.193-1.154
	c-0.125-0.341-0.311-0.635-0.553-0.879c-0.24-0.245-0.529-0.433-0.867-0.562C78.498,97.172,78.116,97.106,77.697,97.106
	 M76.879,98.125h0.771c0.527,0,0.935,0.158,1.224,0.479c0.284,0.311,0.425,0.743,0.425,1.297c0,0.548-0.141,0.979-0.425,1.289
	c-0.289,0.318-0.696,0.477-1.224,0.477h-0.771V98.125z"/>
<path d="M45.184,99.339V98.12h2.647v-1.019h-3.793v5.584h3.793v-1.029h-2.647v-1.329h2.402v-0.992h-2.402 M39.809,97.103h-1.166
	v5.584h3.766v-1.029h-2.601V97.103 M29.905,98.585c0,0.288,0.075,0.542,0.228,0.766c0.143,0.21,0.334,0.369,0.575,0.473
	c-0.277,0.077-0.507,0.23-0.685,0.458c-0.193,0.247-0.288,0.54-0.288,0.88c0,0.495,0.195,0.894,0.586,1.192
	c0.373,0.285,0.847,0.428,1.424,0.428c0.573,0,1.046-0.143,1.418-0.428c0.39-0.299,0.584-0.697,0.584-1.192
	c0-0.34-0.097-0.633-0.29-0.88c-0.177-0.228-0.407-0.38-0.685-0.458c0.241-0.104,0.432-0.26,0.575-0.473
	c0.15-0.224,0.226-0.479,0.226-0.766c0-0.488-0.183-0.878-0.55-1.169c-0.339-0.271-0.766-0.405-1.279-0.405
	c-0.517,0-0.945,0.135-1.287,0.405C30.088,97.705,29.905,98.095,29.905,98.585 M30.978,98.629c0-0.22,0.075-0.397,0.224-0.53
	c0.143-0.125,0.322-0.189,0.539-0.189c0.214,0,0.39,0.062,0.532,0.189c0.149,0.133,0.224,0.311,0.224,0.531
	c0,0.212-0.075,0.384-0.224,0.515c-0.143,0.124-0.32,0.188-0.532,0.188c-0.216,0-0.396-0.062-0.539-0.188
	C31.053,99.014,30.978,98.842,30.978,98.629 M32.623,101.068c0,0.241-0.084,0.434-0.252,0.58c-0.164,0.142-0.373,0.211-0.629,0.211
	c-0.261,0-0.473-0.071-0.637-0.211c-0.169-0.145-0.254-0.339-0.254-0.58c0-0.245,0.085-0.438,0.254-0.583
	c0.164-0.139,0.376-0.208,0.637-0.208c0.256,0,0.467,0.069,0.629,0.208C32.54,100.631,32.623,100.823,32.623,101.068 M24.421,97.815
	c-0.197,0.256-0.345,0.562-0.449,0.913c-0.106,0.359-0.16,0.749-0.16,1.169c0,0.421,0.054,0.81,0.16,1.169
	c0.104,0.35,0.253,0.654,0.449,0.91c0.195,0.26,0.427,0.455,0.695,0.593c0.274,0.142,0.573,0.21,0.896,0.21
	c0.324,0,0.621-0.07,0.897-0.21c0.268-0.137,0.5-0.333,0.697-0.593c0.197-0.256,0.345-0.561,0.449-0.91
	c0.106-0.359,0.16-0.749,0.16-1.169c0-0.42-0.054-0.81-0.16-1.169c-0.104-0.351-0.253-0.654-0.449-0.913
	c-0.197-0.257-0.429-0.456-0.697-0.592c-0.274-0.141-0.573-0.21-0.897-0.21c-0.322,0-0.622,0.071-0.896,0.21
	C24.848,97.36,24.616,97.557,24.421,97.815 M25.197,98.583c0.185-0.356,0.457-0.534,0.814-0.534c0.355,0,0.627,0.177,0.812,0.534
	c0.168,0.324,0.253,0.76,0.253,1.312c0,0.552-0.085,0.989-0.253,1.312c-0.185,0.357-0.455,0.535-0.812,0.535
	c-0.359,0-0.631-0.178-0.814-0.535c-0.166-0.32-0.249-0.758-0.249-1.312S25.031,98.903,25.197,98.583 M21.245,97.103l-1.702,0.837
	v1.137l1.3-0.646v4.257h1.137v-5.584H21.245 M77.697,97.103h-1.974v5.584h1.974c0.418,0,0.801-0.066,1.145-0.197
	c0.338-0.129,0.627-0.316,0.867-0.562c0.242-0.245,0.426-0.538,0.553-0.88c0.129-0.348,0.193-0.733,0.193-1.153
	c0-0.421-0.064-0.807-0.193-1.154c-0.125-0.341-0.311-0.635-0.553-0.88c-0.24-0.245-0.529-0.432-0.867-0.561
	C78.498,97.169,78.116,97.103,77.697,97.103 M76.879,98.122h0.771c0.527,0,0.935,0.16,1.224,0.479
	c0.284,0.311,0.425,0.743,0.425,1.296c0,0.548-0.141,0.978-0.425,1.289c-0.289,0.318-0.696,0.477-1.224,0.477h-0.771V98.122
	 M73.367,97.561c-0.348-0.305-0.82-0.458-1.418-0.458h-2.302v5.584h1.155v-2.084h0.61l1.384,2.084h1.31l-1.474-2.165
	c0.398-0.099,0.709-0.286,0.93-0.562c0.229-0.286,0.344-0.648,0.344-1.086C73.906,98.313,73.727,97.873,73.367,97.561
	 M70.803,99.648v-1.555h1.075c0.286,0,0.506,0.071,0.66,0.214c0.148,0.137,0.222,0.326,0.222,0.569c0,0.237-0.073,0.424-0.222,0.562
	c-0.154,0.141-0.374,0.212-0.66,0.212h-1.075 M65.957,97.103h-1.156l-2.138,5.584h1.163l0.492-1.348h2.092l0.5,1.348h1.182
	L65.957,97.103 M66.047,100.358h-1.363l0.683-1.856L66.047,100.358 M57.525,97.103h-1.093v5.584h1.119v-3.72l2.638,3.72h0.918
	v-5.584h-1.119v3.53L57.525,97.103 M53.066,97.227c-0.33-0.143-0.688-0.216-1.069-0.216s-0.739,0.071-1.069,0.216
	c-0.318,0.138-0.602,0.342-0.833,0.601c-0.236,0.258-0.417,0.563-0.542,0.912c-0.129,0.357-0.195,0.743-0.195,1.158
	c0,0.411,0.065,0.795,0.195,1.154c0.125,0.35,0.307,0.652,0.542,0.913c0.231,0.257,0.516,0.463,0.833,0.602
	c0.33,0.146,0.686,0.216,1.069,0.216c0.382,0,0.739-0.07,1.069-0.216c0.318-0.14,0.604-0.345,0.837-0.602
	c0.237-0.261,0.419-0.563,0.544-0.913c0.129-0.356,0.195-0.743,0.195-1.154c0-0.413-0.066-0.798-0.195-1.158
	c-0.127-0.349-0.309-0.654-0.544-0.912C53.67,97.569,53.385,97.365,53.066,97.227 M51.995,98.049c0.444,0,0.801,0.171,1.073,0.515
	c0.268,0.339,0.402,0.783,0.402,1.333c0,0.548-0.133,0.994-0.402,1.333c-0.272,0.344-0.629,0.516-1.073,0.516
	c-0.438,0-0.792-0.172-1.06-0.516c-0.264-0.34-0.397-0.783-0.397-1.333c0-0.548,0.132-0.994,0.397-1.333
	C51.206,98.22,51.557,98.049,51.995,98.049z"/>
</svg>
