<?xml version="1.0" encoding="utf-8"?>
<!-- Generator: Adobe Illustrator 16.0.0, SVG Export Plug-In . SVG Version: 6.00 Build 0)  -->
<!DOCTYPE svg PUBLIC "-//W3C//DTD SVG 1.1//EN" "http://www.w3.org/Graphics/SVG/1.1/DTD/svg11.dtd">
<svg version="1.1" id="Layer_1" xmlns="http://www.w3.org/2000/svg" xmlns:xlink="http://www.w3.org/1999/xlink" x="0px" y="0px"
	 width="530.635px" height="23.208px" viewBox="0 12.078 530.635 23.208" enable-background="new 0 12.078 530.635 23.208"
	 xml:space="preserve">
<path d="M145.127,34.92h-4.575V17.789l-5.234,2.599v-4.576l6.845-3.368h2.965L145.127,34.92L145.127,34.92z M153.971,23.682
	c0-6.846,3.587-11.604,8.858-11.604s8.858,4.758,8.858,11.604c0,6.845-3.587,11.604-8.858,11.604S153.971,30.527,153.971,23.682z
	 M158.546,23.682c0,4.173,1.245,7.431,4.283,7.431c3.001,0,4.283-3.258,4.283-7.431c0-4.173-1.282-7.431-4.283-7.431
	C159.791,16.251,158.546,19.51,158.546,23.682z M179.297,28.77c0-2.855,1.794-4.795,3.917-5.381
	c-1.867-0.806-3.221-2.599-3.221-4.978c0-4.1,3.441-6.333,7.395-6.333c3.917,0,7.357,2.232,7.357,6.333
	c0,2.379-1.354,4.173-3.221,4.978c2.123,0.586,3.917,2.525,3.917,5.381c0,4.1-3.587,6.516-8.053,6.516
	C182.885,35.286,179.297,32.87,179.297,28.77z M190.938,28.404c0-2.014-1.538-3.185-3.551-3.185c-2.05,0-3.587,1.171-3.587,3.185
	c0,1.978,1.538,3.187,3.587,3.187C189.4,31.588,190.938,30.379,190.938,28.404z M190.425,18.594c0-1.829-1.391-2.891-3.039-2.891
	c-1.684,0-3.074,1.061-3.074,2.891c0,1.757,1.391,2.818,3.074,2.818C189.034,21.412,190.425,20.351,190.425,18.594z M218.135,12.444
	h4.685v18.34h10.469v4.137h-15.155L218.135,12.444L218.135,12.444z M256.588,12.444v4.1h-10.652v4.906h9.665v3.989h-9.665v5.345
	h10.652v4.137h-15.264V12.444H256.588L256.588,12.444z M274.844,35.286c-6.259,0-10.616-4.904-10.616-11.604
	c0-6.735,4.357-11.604,10.616-11.604s10.651,4.868,10.651,11.604C285.495,30.379,281.103,35.286,274.844,35.286z M274.844,16.251
	c-3.552,0-5.855,3.039-5.855,7.431c0,4.395,2.305,7.431,5.855,7.431c3.587,0,5.931-3.036,5.931-7.431
	C280.772,19.29,278.431,16.251,274.844,16.251z M313.008,34.92h-3.696l-10.615-14.972V34.92h-4.502V12.444h4.393l9.92,14.203V12.444
	h4.502L313.008,34.92L313.008,34.92z M334.001,12.444l8.604,22.477h-4.76l-2.014-5.418h-8.419l-1.978,5.418h-4.686l8.604-22.477
	H334.001z M328.876,25.549h5.491l-2.745-7.468L328.876,25.549z M354.994,26.538v8.383h-4.648V12.444h9.261
	c4.723,0,7.871,2.527,7.871,7.139c0,3.586-1.978,5.855-5.125,6.625l5.93,8.713h-5.271l-5.564-8.383H354.994L354.994,26.538z
	 M354.994,22.693h4.319c2.343,0,3.551-1.244,3.551-3.111c0-1.905-1.208-3.149-3.551-3.149h-4.319V22.693z M376.283,12.444h7.942
	c6.811,0,11.092,4.393,11.092,11.238c0,6.845-4.281,11.238-11.092,11.238h-7.942V12.444z M384.043,30.784
	c4.283,0,6.627-2.746,6.627-7.102c0-4.393-2.344-7.137-6.627-7.137h-3.11v14.239H384.043L384.043,30.784z"/>
<path fill="none" d="M794.771,393.268c-2.468-0.445-4.482-2.314-4.482-5.379c0-3.287,2.539-5.678,5.826-5.678
	c3.213,0,5.828,2.242,5.828,6.352c0,2.24-1.047,4.705-2.394,6.725l-4.258,6.35h-5.978L794.771,393.268z"/>
</svg>
