<?xml version="1.0" encoding="utf-8"?>
<!-- Generator: Adobe Illustrator 22.1.0, SVG Export Plug-In . SVG Version: 6.00 Build 0)  -->
<svg version="1.1" id="Layer_1" xmlns="http://www.w3.org/2000/svg" xmlns:xlink="http://www.w3.org/1999/xlink" x="0px" y="0px"
	 viewBox="0 0 32 32" style="enable-background:new 0 0 32 32;" xml:space="preserve">
<style type="text/css">
	.st0{opacity:1;}
	.st1{fill:#141414;}
</style>
<title>icon/insta</title>
<desc>Created with Sketch.</desc>
<g id="Round-1" class="st0">
	<g id="_x31_08Leonard-Website-Social-v1c" transform="translate(-103.000000, -879.000000)">
		<g id="social" transform="translate(95.000000, 871.000000)">
			<g id="icon_x2F_insta">
				<path id="_xF34F_" class="st1" d="M30.4,19.6V18c0-0.3-0.1-0.4-0.4-0.4h-1.6c-0.3,0-0.4,0.1-0.4,0.4v1.6c0,0.3,0.1,0.4,0.4,0.4
					H30C30.3,20,30.4,19.9,30.4,19.6z M18,30.4h12c0.3,0,0.4-0.1,0.4-0.4v-6.8h-1.7c0,0.3,0.1,0.6,0.1,0.8c0,1.3-0.5,2.5-1.4,3.4
					c-0.9,0.9-2.1,1.4-3.4,1.4c-1.3,0-2.5-0.5-3.4-1.4c-0.9-0.9-1.4-2.1-1.4-3.4c0-0.3,0-0.5,0.1-0.8h-1.6V30
					C17.6,30.3,17.7,30.4,18,30.4z M26.3,21.7c-0.6-0.6-1.4-0.9-2.3-0.9c-0.9,0-1.6,0.3-2.3,0.9s-0.9,1.4-0.9,2.3s0.3,1.6,0.9,2.3
					c0.6,0.6,1.4,0.9,2.3,0.9c0.9,0,1.6-0.3,2.3-0.9c0.6-0.6,0.9-1.4,0.9-2.3S26.9,22.4,26.3,21.7z M30.4,16c0.4,0,0.8,0.2,1.1,0.5
					c0.3,0.3,0.5,0.7,0.5,1.1v12.8c0,0.4-0.2,0.8-0.5,1.1c-0.3,0.3-0.7,0.5-1.1,0.5H17.6c-0.4,0-0.8-0.2-1.1-0.5
					c-0.3-0.3-0.5-0.7-0.5-1.1V17.6c0-0.4,0.2-0.8,0.5-1.1c0.3-0.3,0.7-0.5,1.1-0.5H30.4z"/>
			</g>
		</g>
	</g>
</g>
</svg>
