<svg xmlns="http://www.w3.org/2000/svg" width="153" height="152" viewBox="438 36.5 153 152"><path fill="none" stroke="#909090" stroke-width=".054" stroke-miterlimit="10" d="M523.479 153.938h1.656v5.971h-1.656zm-2.155 0h1.656v5.971h-1.656zm-7.099 0h1.658v5.971h-1.658zm9.254-7.799h1.656v4.527h-1.656zm-2.254 0h1.657v4.527h-1.657zm2.254-7.125h1.656v4.112h-1.656zm-2.254 0h1.657v4.112h-1.657zm-7.004 7.125h1.656v4.527h-1.656zm0-7.125h1.656v4.112h-1.656zm9.258-13.213h1.656v3.602h-1.656zm-2.254 0h1.657v3.602h-1.657zm2.254-6.55h1.656v3.657h-1.656zm-2.254 0h1.657v3.657h-1.657zm-7.004 6.55h1.656v3.602h-1.656zm0-6.55h1.656v3.657h-1.656zm9.258-12.72h1.656v3.035h-1.656zm-2.254 0h1.657v3.035h-1.657zm2.254-5.624h1.656v2.839h-1.656zm-2.254 0h1.657v2.839h-1.657zm-7.004 5.624h1.656v3.035h-1.656zm0-5.624h1.656v2.839h-1.656zm9.258 12.097h1.982v3.439h-1.982zm-2.581 0h1.982v3.439h-1.982zm-6.677 0h1.982v3.439h-1.982zm9.258 19.386h1.982v3.438h-1.982zm-2.581 0h1.982v3.438h-1.982zm-6.677 0h1.982v3.438h-1.982z"/><path fill="none" stroke="#909090" stroke-width=".054" stroke-linejoin="round" stroke-miterlimit="10" d="M521.078 175.588s-.107-.327-.354-.327c0 0-.509-.044-.895 1.056 0 0-.169.449-.169 1.16"/><path fill="none" stroke="#909090" stroke-width=".054" stroke-linejoin="round" stroke-miterlimit="10" d="M519.105 177.477v-.233s-.05-1.046.607-2.077c0 0 .395-.613.847-.613 0 0 .315-.026.49.624m.025 2.303h-2.445m.316.779v8.689m.721-8.689v6.607m0 .789v1.321m1.41-2.11h-1.726m3.608-16.457h2.962m-8.191 0h2.962m-6.798 0h1.632m-1.652-4.461h.006c.138 0 .27.027.391.075l.195.1c.292.191.486.522.486.897v1.963m9.453-3.035h-.006c-.14 0-.271.027-.392.075l-.194.1a1.07 1.07 0 0 0-.486.897l-.001.778.001.13v1.055m1.078-3.035h.006c.137 0 .27.027.391.075l.195.1c.291.191.484.522.484.897l.002.778-.002.13v1.055"/><path fill="none" stroke="#909090" stroke-width=".054" stroke-miterlimit="10" d="M519.551 185.656h.794m-1.499-7.396h1.878M513.85 50.141c1.713 0 3.092-1.795 3.092-4.023v-.011c0-2.227-1.357-3.798-2.625-3.971"/><path fill="none" stroke="#909090" stroke-width=".054" stroke-miterlimit="10" d="M513.85 50.141c.856 0 1.547-1.795 1.547-4.023v-.011c0-2.227-.681-3.798-1.312-3.971m-.235 8.005c-1.713 0-3.092-1.795-3.092-4.023v-.011c0-2.227 1.358-3.798 2.625-3.971"/><path fill="none" stroke="#909090" stroke-width=".054" stroke-miterlimit="10" d="M513.85 50.141c-.856 0-1.547-1.795-1.547-4.023v-.011c0-2.227.68-3.798 1.312-3.971"/><path fill="#FFF" d="M512.303 48.732h3.086v1.211l-1.651.243-.861-.158-.574-.232"/><path fill="none" stroke="#909090" stroke-width=".054" stroke-miterlimit="10" d="M513.85 50.141a4.004 4.004 0 0 1-4.002-4.023v-.011c0-2.227 1.758-3.798 3.397-3.971m.605 8.005a4.004 4.004 0 0 0 4.002-4.023v-.011c0-2.227-1.758-3.798-3.397-3.971"/><path fill="#FFF" stroke="#909090" stroke-width=".054" stroke-miterlimit="10" d="M510.034 47.878l7.282-4.205.398.69-7.282 4.204z"/><path fill="#FFF" d="M514.646 51.6s.123.318.145.397c.021.08.254.16.254.16h.188c.052 0 .124-.146.124-.146s.058-.043.083-.093c.026-.051 0-.16 0-.16s.062-.151.075-.311c.016-.16.008-.451.008-.451l.044-.005s.094.086.297 0c.203-.087.427-.297.427-.297s-.043.043-.064.102c-.021.057-.029.209-.041.296-.011.088.069.181.069.181s.036.167.036.196c0 .029-.064.348-.064.348s-.138.164-.145.243.014.121.014.121l.932-.004s.062-.068.072-.106c.009-.038-.041-.122-.09-.137-.048-.016-.103.061-.103.061s-.254-.197-.271-.236c-.017-.038-.017 0-.017-.083s.185-.525.235-.663c.05-.138.043-.333.071-.413.029-.08.095-.297.103-.362.007-.065-.021-.174-.109-.21-.086-.037-.305-.029-.536-.007-.153.015-.313.106-.405.165l-.03.026s.018-.046.03-.097c.03-.107 0-.116 0-.116s.045-.029.08-.087c.036-.058 0-.152 0-.152s.06-.043.088-.072a.44.44 0 0 1 .138-.054s.079-.058.131-.109c.05-.05.094-.145.094-.145s.079 0 .158-.093c.08-.094.211-.485.211-.485s.06-.069.123-.086c.063-.017.203-.264.235-.307.029-.043.111-.237.119-.245a.631.631 0 0 0 .052-.05.436.436 0 0 0-.035-.162c-.032-.083-.205-.254-.284-.352s-.265-.394-.265-.394l.188-.13s.05-.128.045-.139l-.083-.239s-.014-.034-.021-.037c-.009-.002-.041-.036-.052-.037-.011-.003-.058-.005-.08-.016s-.09-.001-.115.002-.127.197-.127.197-.065.144-.104.187-.077.176-.05.219.178.317.178.317l.136.186s.069-.043-.234-.022c-.305.019-.371.365-.421.472-.048.106-.065.136-.065.136l-.339.193s-.29-.109-.441-.044c-.151.066-.23.188-.23.188s-.148.029-.234.123c-.084.095-.168.182-.253.203-.085.022-.288.152-.374.217-.088.066-.088.065-.305.377l-.287.06.086.27-.056.021s-.013.11.034.132.133.007.223 0 .131-.019.156-.031c.023-.013.01-.2.01-.2l.043-.12h.048l.261-.205s.123-.022.161-.04c.122-.059.241-.262.241-.262a.564.564 0 0 0 .23-.015c.104-.031 0 .015 0 .015-.006.362.095.479.095.479s-.015.064-.072.115c-.058.051-.101.138-.101.138s-.074.007-.142.116c-.065.108-.156.224-.172.463-.014.238.111.275.111.275s-.074.108-.062.297a.921.921 0 0 0 .032.148s-.017-.061-.123-.054c-.105.007-.146.116-.146.116s-.152.427-.167.478c-.016.051.018.469.018.469l.389-.122.121-.174"/><path fill="#FFF" d="M512.999 51.6s-.123.318-.146.397c-.021.08-.252.16-.252.16h-.188c-.05 0-.123-.146-.123-.146s-.058-.043-.084-.093c-.026-.051 0-.16 0-.16s-.062-.151-.075-.311c-.015-.16-.007-.451-.007-.451l-.043-.005s-.094.086-.297 0c-.202-.087-.426-.297-.426-.297s.043.043.063.102c.022.057.029.209.04.296.012.088-.069.181-.069.181s-.035.167-.035.196c0 .029.063.348.063.348s.138.164.146.243a.243.243 0 0 1-.014.121l-.931-.004s-.063-.068-.073-.106c-.009-.038.042-.122.089-.137.047-.016.104.061.104.061s.254-.197.27-.236c.017-.038.017 0 .017-.083s-.185-.525-.235-.663c-.051-.138-.044-.333-.073-.413s-.094-.297-.101-.362.021-.174.107-.21c.087-.037.306-.029.537-.007a.995.995 0 0 1 .405.165l.032.026s-.235-.046-.25-.097a.632.632 0 0 0-.079-.203c-.037-.058 0-.152 0-.152s-.059-.043-.087-.072c-.029-.028-.072-.152-.072-.152s-.08-.058-.131-.109a.642.642 0 0 1-.094-.144s-.08 0-.16-.095-.179-.387-.179-.387-.06-.069-.123-.086c-.063-.017-.203-.264-.233-.307-.032-.043-.136-.226-.144-.233a.613.613 0 0 1-.051-.051.405.405 0 0 1 .036-.162c.031-.082.128-.266.208-.363.08-.098.483-.394.483-.394l-.188-.13s-.049-.128-.045-.139l.082-.239s.014-.034.022-.037c.008-.002.041-.036.05-.037.01-.003.058-.005.082-.016.021-.011.089-.001.115.002.025.003.181.186.181.186s.065.144.104.187c.04.043.154.306.127.349-.028.043-.203.182-.203.182l-.24.201s-.069-.043.234-.022c.304.019.37.365.42.472.049.106.066.136.066.136l.338.193s.29-.109.442-.044c.151.066.231.188.231.188s.147.029.232.123c.085.095.167.182.253.203.085.022.288.152.375.217.087.066.086.065.305.377l.285.06-.084.27.056.021s.02.287-.028.308c-.047.022-.126.007-.218 0-.091-.007-.277-.018-.304-.029-.024-.011.019-.378.019-.378l.065-.12h-.049l-.261-.205s-.122-.022-.161-.04c-.121-.059-.24-.262-.24-.262s-.021.008-.151 0a.276.276 0 0 1-.079-.015c-.104-.031-.001.015-.001.015.007.362-.094.479-.094.479s.015.064.071.115c.059.051.103.138.103.138s.072.007.139.116c.067.108.158.224.171.463.015.238-.11.275-.11.275s.075.108.061.297a.74.74 0 0 1-.031.148s.018-.061.123-.054c.105.007.148.116.148.116l.166.478c.015.051-.103.338-.103.338l-.304.01-.121-.174"/><path fill="#909090" d="M516.09 50.115c.012-.102.055-.203.094-.294.019-.046.02-.094.062-.152.044-.025.088-.051.142-.071l-.01.008c.188-.262.408-.502.493-.811l.001-.002.004-.004c.054-.076.164-.087.195-.153.05-.063.094-.136.139-.207l.135-.217a.362.362 0 0 1 .077-.097c0-.021-.011-.063-.021-.103a1.593 1.593 0 0 0-.244-.426l-.347-.366-.017-.018.021-.014.188-.13-.008.01.024-.072c.009-.03.018-.04.018-.062-.004-.053-.018-.111-.042-.113v-.042c.087.022.073.106.083.144a.224.224 0 0 1-.018.087l-.026.073-.002.006-.006.004-.188.13.004-.032.348.366c.107.136.192.281.253.442.008.039.032.084.014.142a.342.342 0 0 0-.078.099l-.13.211c-.045.071-.089.143-.143.21-.06.087-.15.086-.195.154l.003-.007c-.09.32-.315.565-.498.822l-.004.006-.006.002a.79.79 0 0 0-.134.066c-.016.026-.031.083-.047.133-.041.099-.084.183-.102.288l-.032-.01z"/><path fill="#909090" d="M517.008 52.18a.625.625 0 0 0 .063-.115c-.002-.048-.029-.076-.061-.099-.084-.047-.174-.093-.261-.149l-.009-.006-.003-.012-.042-.166c-.033-.079-.004-.131.001-.191.029-.121.062-.236.102-.349.091-.216.064-.472.163-.695.032-.108.066-.231-.001-.32-.045-.087-.21-.065-.31-.068-.121.007-.234.001-.352.037-.106.036-.206.095-.317.144l-.006-.009c.168-.186.439-.231.673-.226.06-.004.124.002.187.004.053.004.129.024.17.087.085.12.04.251.008.368-.099.221-.067.466-.162.696a5.154 5.154 0 0 0-.101.338c-.008.055-.026.128-.008.159.021.063.032.121.048.181l-.012-.018c.08.052.167.097.256.146a.184.184 0 0 1 .09.145c-.018.066-.046.104-.071.147l-.045-.029z"/><path fill="#909090" d="M516.072 52.2c-.021-.067-.043-.144-.014-.217a.665.665 0 0 1 .113-.184l-.007.014.062-.543.008.021c-.081-.082-.086-.218-.065-.312.008-.102.033-.218.117-.289l.01.009c-.063.083-.056.186-.072.286-.019.108-.016.194.053.271l.008.009-.001.012-.062.543-.001.008-.006.007c-.042.055-.08.102-.103.164-.025.055-.008.124.012.184l-.052.017z"/><path fill="none" stroke="#909090" stroke-width=".054" stroke-miterlimit="10" d="M515.865 50.991c-.203.086-.298 0-.298 0l-.044.005"/><path fill="none" stroke="#909090" stroke-width=".054" stroke-miterlimit="10" d="M514.648 51.6s.123.318.145.397c.021.08.254.16.254.16h.188c.05 0 .122-.146.122-.146s.059-.043.084-.093c.024-.051 0-.16 0-.16s.061-.151.076-.311c.014-.16.006-.5 0-.637m-1.268 1.421s-.021-.429-.007-.48c.016-.051.167-.478.167-.478s.042-.108.146-.116c.105-.007.111.065.152.073"/><path fill="#909090" d="M514.699 51.416c-.083-.203-.122-.443-.014-.665l.016.042c-.193-.116-.124-.34-.098-.489a.846.846 0 0 1 .107-.234c.043-.066.087-.155.193-.184l-.022.016.133-.301-.002.014-.034-.321.056-.006.034.321v.007l-.002.007-.134.301-.006.012-.017.005c-.061.016-.111.086-.152.158a.895.895 0 0 0-.103.217c-.035.149-.065.355.061.425l.029.017-.016.025c-.104.179-.031.415-.013.63l-.016.003zm-.928-2.006c.201-.138.39-.292.607-.413.118-.061.227-.085.303-.183.07-.09.188-.18.314-.203l-.018.012a.533.533 0 0 1 .32-.217.929.929 0 0 1 .385.062l-.022.001.34-.192-.01.01c.105-.173.123-.42.322-.558.096-.073.225-.062.324-.06.109.025.228.037.31.117l-.013.021c-.105-.023-.195-.072-.298-.083-.107-.003-.212-.013-.294.05-.173.115-.193.352-.306.54l-.004.007-.007.004-.338.192-.012.006-.013-.004a.898.898 0 0 0-.354-.06.48.48 0 0 0-.288.193l-.007.01-.011.002a.488.488 0 0 0-.286.188c-.08.103-.221.143-.315.193-.209.115-.401.272-.604.409l-.025-.044zm2.892-.759c.002.01 0 .03-.023.054-.022.023-.038.018-.057.016-.041-.002.005-.013-.009-.005-.01.012-.007.021-.028.035-.054.034-.076.005-.1 0l-.074-.028-.007-.002-.002-.001c-.069-.069-.185-.108-.172-.24l.022.007c.011.076.121.131.181.189l-.008-.004c.038.011.126.053.122.039.005.005.015-.018.021-.025-.001-.022.077-.025.06-.018.005.003.024.001.015-.002-.002.006.01.005.006-.014l.053-.001z"/><path fill="none" stroke="#909090" stroke-width=".054" stroke-miterlimit="10" d="M515.184 49.195s-.145.109-.274.116c-.13.008-.151.022-.151.022s-.118.181-.24.239c-.039.019-.16.04-.16.04l-.311.207-.054.417h-.338l-.214-.049m.056-.39v.418"/><path fill="#909090" d="M511.447 50.115c-.032-.101-.1-.176-.133-.278-.016-.049-.031-.107-.047-.133a.82.82 0 0 0-.133-.066l-.006-.002-.004-.006c-.182-.257-.408-.501-.497-.822l.004.007c-.045-.068-.13-.063-.19-.147-.053-.065-.096-.134-.14-.203l-.126-.204c-.021-.034-.038-.073-.07-.099-.041-.015-.026-.102-.017-.129.104-.318.333-.566.5-.84l.005.03-.188-.13-.005-.004-.003-.006c-.016-.046-.032-.078-.043-.14.002-.041-.002-.112.078-.127v.042c-.024-.002-.041.05-.037.09l.043.12-.008-.01.188.13.016.012-.011.018c-.17.277-.395.523-.493.826 0 .045-.036.06.008.092.032.026.048.065.07.098l.13.209c.043.068.086.137.135.199.03.061.141.073.19.146l.003.005v.002c.084.309.305.548.492.811l-.01-.008c.054.02.098.045.143.071.043.058.044.106.062.152.031.093.099.186.125.284l-.031.01z"/><path fill="#909090" d="M510.591 52.209c-.026-.042-.055-.082-.071-.147a.182.182 0 0 1 .091-.144c.089-.05.176-.095.256-.147l-.013.018c.018-.061.027-.118.049-.181.02-.03 0-.104-.008-.159a4.592 4.592 0 0 0-.1-.338c-.095-.23-.066-.475-.164-.696-.031-.116-.077-.248.008-.368.041-.063.117-.083.169-.088.062-.002.128-.008.187-.004.232-.005.505.04.673.226l-.006.009c-.112-.049-.21-.108-.318-.144-.116-.035-.229-.029-.35-.037-.101.003-.265-.019-.311.068-.067.089-.032.212-.001.321.099.223.072.478.164.694.038.114.072.229.103.35.004.06.034.112.001.191l-.042.165-.003.012-.01.006c-.086.056-.176.102-.26.149-.031.023-.059.05-.061.098a.801.801 0 0 0 .062.115l-.045.031z"/><path fill="#909090" d="M511.521 52.181c.061-.128-.002-.246-.091-.347l-.005-.006-.001-.009-.062-.543-.001-.013.008-.009c.067-.076.069-.163.052-.27-.017-.101-.008-.203-.071-.287l.01-.009c.083.071.108.187.116.289.02.094.018.231-.064.312l.006-.021.062.543-.007-.014a.64.64 0 0 1 .114.184c.03.073.009.151-.013.217l-.053-.017z"/><path fill="none" stroke="#909090" stroke-width=".054" stroke-miterlimit="10" d="M511.781 50.991c.203.086.297 0 .297 0l.044.005m.876.604s-.124.318-.145.397c-.021.08-.254.16-.254.16h-.188c-.05 0-.123-.146-.123-.146s-.059-.043-.083-.093c-.025-.051 0-.16 0-.16s-.062-.151-.075-.311a5.88 5.88 0 0 1 0-.637m1.274 1.41s.013-.418-.002-.469-.166-.478-.166-.478-.043-.108-.148-.116c-.105-.007-.109.065-.15.073"/><path fill="#909090" d="M512.927 51.412c.02-.215.093-.451-.013-.63l-.016-.025.03-.017c.125-.071.095-.276.061-.425a.865.865 0 0 0-.103-.218c-.042-.072-.094-.142-.152-.158l-.018-.005-.005-.01-.146-.29-.004-.008.002-.004.064-.338.053.012-.062.326-.003-.012.145.29-.021-.015c.105.029.15.117.193.184a.92.92 0 0 1 .109.235c.018.083.036.165.031.254-.006.084-.027.188-.129.234l.015-.041c.11.222.069.462-.013.665l-.018-.004zm-2.234-3.64a.988.988 0 0 1 .312-.103c.113-.002.226-.016.327.059.201.14.215.383.324.559l-.01-.011.337.192-.022-.001a.943.943 0 0 1 .381-.063c.141.026.24.108.324.217l-.018-.012a.578.578 0 0 1 .293.172c.08.074.171.104.28.149.105.068.166.158.25.223.086.074.151.172.211.265l-.022-.013c.042.003.085-.012.128.014v.023c-.042.027-.085.013-.127.018l-.015.001-.011-.015c-.059-.091-.116-.179-.196-.25-.09-.071-.159-.165-.239-.217-.093-.036-.216-.08-.296-.158a.512.512 0 0 0-.268-.158l-.011-.002-.007-.01a.473.473 0 0 0-.285-.193.877.877 0 0 0-.355.06l-.013.004-.011-.006-.337-.192-.007-.004-.004-.007c-.109-.185-.134-.425-.305-.539-.075-.062-.196-.055-.292-.051a.914.914 0 0 0-.295.097l-.021-.048z"/><path fill="none" stroke="#909090" stroke-width=".054" stroke-miterlimit="10" d="M512.461 49.175l.409.234.136.069.398.421h.094"/><path fill="#909090" d="M511.048 48.644c-.002.016.006.011.001.013.027.014.003-.027.075.012l.001.002c.031.029.001.045.045.025l.096-.036c.053-.029.127-.05.179-.08l.019.016a.552.552 0 0 1-.181.117l-.097.035c-.005.005-.043.019-.07-.001-.023-.017-.029-.035-.038-.051l.001.002c.012.014.019.003.002.01-.018.005-.028.003-.037.002-.043-.007-.056-.052-.05-.075l.054.009z"/><path fill="#909090" d="M511.012 48.679l-.167-.098c-.005-.003-.006-.009-.003-.013.002-.004.007-.006.012-.004l.183.066c.014.005.021.021.016.035s-.021.021-.035.017l-.006-.003z"/><path fill="#B3B3B3" d="M514.432 64.892s.018-.055.071-.065c0 0 .104.038.097-.165 0 0-.021-.015.099-.189l.192-.276s.001-.066-.061-.042l-.207.275s-.072.108-.146.142c0 0-.176.047-.125.147 0 0-.021.069-.073.126l-.468.598.153.123.468-.674z"/><path fill="#B3B3B3" d="M516.253 63.516l-.573.453s-.186.155-.267.169c0 0-.181.002-.155.112 0 0-.021.079-.089.122l-1.302 1.028a.109.109 0 0 0-.08.063.11.11 0 0 0 .059.14c.049.02.101.001.128-.039l.227-.197 1.071-.942s.051-.036.105-.033c0 0 .092.063.135-.135 0 0 .062-.1.221-.239l.543-.476c-.003 0 .011-.016-.023-.026z"/><path fill="none" stroke="#909090" stroke-width=".054" stroke-miterlimit="10" d="M511.53 65.561l.601-.013m1.742-2.394v.601m-.003 4.396a2.657 2.657 0 0 1-2.654-2.655c0-1.463 1.19-2.654 2.654-2.654s2.655 1.191 2.655 2.654a2.658 2.658 0 0 1-2.655 2.655z"/><circle fill="none" stroke="#909090" stroke-width=".054" stroke-miterlimit="10" cx="513.87" cy="65.496" r="1.45"/><path fill="none" stroke="#909090" stroke-width=".054" stroke-miterlimit="10" d="M515.611 65.483l.602-.003m-4.349 1.22l.516-.306m2.983-1.797l.516-.307m-4.055.069l.524.294m3.047 1.684l.524.293m-2.056.605l-.002.6m-1.195-4.347l.307.516m1.797 2.982l.306.516m-.069-4.054l-.294.524m-1.684 3.046l-.293.524m1.137 105.704h1.106v5.214h-1.035m-11.283-24.522h1.656v5.971h-1.656zm2.151 0h1.657v5.971h-1.657zm7.051 0h1.656v5.971h-1.656zm-9.252-7.799h1.655v4.527h-1.655zm2.252 0h1.656v4.527h-1.656zm-2.252-7.125h1.655v4.112h-1.655zm2.252 0h1.656v4.112h-1.656zm7.006 7.125h1.657v4.527h-1.657zm0-7.125h1.657v4.112h-1.657zm-9.258-13.213h1.655v3.602h-1.655zm2.252 0h1.656v3.602h-1.656zm-2.252-6.55h1.655v3.657h-1.655zm2.252 0h1.656v3.657h-1.656zm7.006 6.55h1.657v3.602h-1.657zm0-6.55h1.657v3.657h-1.657zm-9.258-12.72h1.655v3.035h-1.655zm2.252 0h1.656v3.035h-1.656zm-2.252-5.624h1.655v2.839h-1.655zm2.252 0h1.656v2.839h-1.656zm7.006 5.624h1.657v3.035h-1.657zm0-5.624h1.657v2.839h-1.657zm-9.585 12.097h1.983v3.439h-1.983zm2.579 0h1.982v3.439h-1.982zm6.678 0h1.984v3.439h-1.984zm-9.257 19.386h1.983v3.438h-1.983zm2.579 0h1.982v3.438h-1.982zm6.678 0h1.984v3.438h-1.984z"/><path fill="none" stroke="#909090" stroke-width=".054" stroke-linejoin="round" stroke-miterlimit="10" d="M506.667 175.588s.106-.327.354-.327c0 0 .509-.044.896 1.056 0 0 .168.449.168 1.16"/><path fill="none" stroke="#909090" stroke-width=".054" stroke-linejoin="round" stroke-miterlimit="10" d="M508.641 177.477v-.233s.047-1.046-.608-2.077c0 0-.395-.613-.847-.613 0 0-.316-.026-.49.624m-.026 2.303h2.447m-.317.779v8.689m-.72-8.689v6.607m0 .789v1.321m-1.41-2.11h1.726m-3.609-16.457h-2.961m8.19 0h-2.962m6.8 0h-1.634m1.652-4.461h-.005a1.07 1.07 0 0 0-.393.075l-.193.1a1.072 1.072 0 0 0-.486.897l-.001.778.001.13v1.055m-9.454-3.035h.005c.139 0 .271.027.392.075l.194.1c.292.191.486.522.486.897l.001.778-.001.13v1.055m-1.077-3.035h-.006c-.137 0-.269.027-.39.075l-.195.1a1.072 1.072 0 0 0-.486.897l-.001.778.001.13v1.055"/><path d="M514.979 187v-4.389h-1.104M512.766 187v-4.389h1.109" fill="#FFF" stroke="#909090" stroke-width=".054" stroke-miterlimit="10"/><path fill="none" stroke="#909090" stroke-width=".054" stroke-miterlimit="10" d="M508.194 185.656h-.794m1.498-7.396h-1.877m6.852-5.014h-1.107v5.214h1.178"/><path fill="#FFF" stroke="#909090" stroke-width=".054" stroke-miterlimit="10" d="M526.096 168.928v.468h1.868v-.468l-.273-.391v-1.303l.273-.22-.001-.243-.268-.171h-1.32l-.277.171-.002.243.275.22v1.303l-.275.391v.468h.795"/><path fill="none" stroke="#909090" stroke-width=".054" stroke-linejoin="round" stroke-miterlimit="10" d="M529.174 170.091h-15.301"/><path fill="#FFF" stroke="#909090" stroke-width=".054" stroke-miterlimit="10" d="M520.865 168.928v.468h1.869v-.468l-.275-.391v-1.303l.275-.22-.002-.243-.267-.171h-1.32l-.278.171-.002.243.276.22v1.303l-.275.391v.468h.794m-5.914-.468v.468h1.869v-.468l-.275-.391v-1.303l.275-.22-.002-.243-.267-.171h-1.321l-.277.171-.002.243.275.22v1.303l-.275.391v.468h.795m9.082-81.224v2.396h3.9v-2.396l-.571-.816v-2.295h.571l-.002-.508c-.359-.154-.424-.521-.424-.521h-3.144s-.023.359-.329.521l-.003.508h.572v2.295l-.57.816zm-23.975 80.756v.468h-1.867v-.468l.274-.391v-1.303l-.274-.22.002-.243.267-.171h1.321l.277.171v.243l-.272.22v1.303l.272.391v.468h-.793"/><path fill="none" stroke="#909090" stroke-width=".054" stroke-linejoin="round" stroke-miterlimit="10" d="M498.573 170.091h15.3"/><path fill="#FFF" stroke="#909090" stroke-width=".054" stroke-miterlimit="10" d="M506.88 168.928v.468h-1.868v-.468l.274-.391v-1.303l-.274-.22.002-.243.267-.171h1.321l.276.171.002.243-.275.22v1.303l.275.391v.468h-.795m5.914-.468v.468h-1.868v-.468l.274-.391v-1.303l-.274-.22.002-.243.267-.171h1.321l.277.171.001.243-.274.22v1.303l.274.391v.468h-.794m-9.082-81.224v2.396h-3.902v-2.396l.572-.816v-2.295h-.572l.003-.508c.359-.154.423-.521.423-.521h3.144s.024.359.33.521l.003.508h-.572v2.295l.571.816zm9.278 0v2.396H507.5v-2.396l.572-.816v-2.295h-.572l.003-.508c.359-.154.423-.521.423-.521h3.144s.023.359.329.521l.003.508h-.572v2.295l.571.816z"/><path fill="none" stroke="#909090" stroke-width=".054" stroke-miterlimit="10" d="M526.824 82.767l.24 1.273m-9.63-.991l.144.925m1.608-1.05l-.184.99m-18.08-1.146l-.24 1.272m9.652-1.1l-.145 1.034m-1.563-.941l.226.99m17.709-1.442l.437-.093m-9.355.098l-.487-.098m1.739.084l.526-.136m-18.235.145l-.437-.093m9.355.098l.486-.098m-1.738.084l-.527-.136"/><path fill="#FFF" stroke="#909090" stroke-width=".054" stroke-miterlimit="10" d="M528.536 82.725s.151-.127.192-.174c.043-.046.114-.366.075-.511-.036-.145-.299-.203-.299-.203l-.067-.292-.059-.373s-.027-.169-.28-.178c-.254-.008-.339.072-.395.194s-.131.505-.131.505l.504-.022m-28.867 1.054s-.151-.127-.193-.174c-.042-.047-.113-.366-.075-.511s.299-.203.299-.203l.066-.292.059-.373s.028-.169.28-.178c.254-.008.339.072.394.194.056.122.132.505.132.505l-.505-.022"/><path fill="#FFF" d="M527.234 84.023a2.2 2.2 0 0 1 .192-.246l.188-.584"/><path fill="#909090" d="M527.212 84.007c.062-.083.122-.168.195-.249l-.005.01.187-.584.028.009c-.021.208-.108.395-.163.592l-.002.005-.004.004c-.068.074-.13.159-.191.244l-.045-.031z"/><path fill="#FFF" d="M500.511 84.023a2.172 2.172 0 0 0-.193-.246l-.188-.584"/><path fill="#909090" d="M500.489 84.039c-.062-.084-.124-.169-.191-.244l-.004-.004-.002-.006-.187-.584.027-.009c.104.181.143.384.211.577l-.005-.01c.073.081.134.165.196.249l-.045.031z"/><path fill="#FFF" d="M528.492 82.571s.046.126.063.165c.019.039.058.097.058.244s-.079.434-.192.596c-.033.048-.062.044-.106.042l.009.117s.059.052.112.057c.05.004.113.003.113.003s.045.142.045.172"/><path fill="#909090" d="M528.514 82.562c.032.095.077.177.106.28a.713.713 0 0 1-.005.302c-.021.1-.053.195-.092.288-.021.046-.047.089-.07.134-.014.048-.086.095-.141.084l.032-.034.007.117-.01-.021c.055.055.12.053.207.054h.021l.007.021.003.012c.018.051.03.11.043.168h-.037c-.014-.052-.025-.104-.043-.157l-.004-.012.01.007c-.078.001-.171-.001-.23-.065l-.002-.002v-.002l-.01-.117-.001-.009h.011c.099.008.113-.124.167-.196.036-.091.066-.182.087-.276a.688.688 0 0 0 .007-.285c-.024-.087-.074-.181-.105-.273l.042-.018zm-.639-.85s-.042.088-.162.223c-.057.06-.162.149-.294.128-.142-.027-.236-.176-.246-.325-.028-.327.209-.625.338-.95.062-.185-.274-.109-.407-.046-.175.067-.322.201-.452.342a1.97 1.97 0 0 0-.281.502c-.05.185-.099.367-.103.551-.028.182.018.355.025.526.024.166.016.333.07.468.076.282.154.511.245.658.073.161.138.198.133.21l-.007.028c.017.009-.111-.045-.174-.212-.093-.15-.175-.385-.252-.676-.057-.142-.047-.304-.069-.472-.009-.167-.056-.348-.025-.535.002-.188.052-.375.104-.565.072-.184.166-.361.291-.519.137-.147.287-.285.478-.358a.817.817 0 0 1 .283-.07.25.25 0 0 1 .155.026c.055.036.056.111.039.154-.062.186-.166.329-.232.483-.068.15-.115.308-.104.443.007.141.103.265.2.281.11.017.188-.054.246-.112.11-.122.155-.214.155-.214l.046.031zm.857.241l.039-.099-.002.003c.065-.272.132-.547.181-.821.022-.132.047-.286-.04-.381-.083-.091-.256-.041-.352.022l.004-.005-.273.381-.023-.017c.068-.145.164-.266.254-.395l.002-.004.003-.001c.122-.076.297-.139.426-.019.11.129.076.29.056.426-.05.28-.115.553-.182.827l-.001.004-.039.099-.053-.02z"/><path fill="none" stroke="#909090" stroke-width=".054" stroke-miterlimit="10" d="M528.268 81.036a.393.393 0 0 0-.168-.041c-.254-.008-.339.072-.395.194-.057.122-.131.505-.131.505"/><path fill="#FFF" stroke="#909090" stroke-width=".054" stroke-miterlimit="10" d="M528.536 82.725s.151-.127.192-.174c.043-.046.114-.366.075-.511a.176.176 0 0 0-.047-.078"/><path fill="none" stroke="#909090" stroke-width=".054" stroke-miterlimit="10" d="M519.209 84.052c.042-.036.084-.167.121-.237.016-.03.074-.22.152-.477.102-.341.28-.823.262-1.28-.031-.801-.227-1.292-.555-1.294-.33-.002-.33.576-.33.576l.035.312s-.052.142-.148.142c-.1 0-.153-.109-.153-.109s-.02-.177-.017-.353l.283.007s.011-.245-.035-.314c-.048-.069-.164-.119-.217-.135 0 0-.068-.092-.233-.054-.164.039-.218.1-.253.199s-.046.468-.061.543a.315.315 0 0 1-.082.174c-.103.065-.164.001-.224-.055-.054-.052-.076-.146-.076-.318s.169-.314.159-.422c-.009-.11-.025-.232-.312-.232-.289 0-.652.531-.652 1.308s.244 1.098.232 1.365c-.013.268.093.569.146.644"/><path fill="#FFF" d="M499.237 82.571s-.046.126-.065.165c-.018.039-.058.097-.058.244s.08.434.192.596c.034.048.064.044.106.042l-.009.117s-.059.052-.111.057c-.048.004-.113.003-.113.003s-.046.142-.045.172"/><path fill="#909090" d="M499.258 82.58c-.031.092-.081.186-.105.272a.655.655 0 0 0 .006.285c.02.094.051.186.087.276.045.073.082.211.166.174l.038-.017-.005.051-.011.117-.001.011-.009.009c-.064.068-.172.07-.244.067l.027-.02-.003.012c-.019.053-.028.102-.041.15h-.037c.012-.055.023-.111.041-.163l.004-.012.002-.007h.007c.082 0 .161.002.221-.056l-.002.005.007-.117.009.009c-.048.018-.122-.009-.139-.061-.023-.044-.052-.088-.071-.134a1.647 1.647 0 0 1-.091-.289.697.697 0 0 1-.006-.302c.03-.103.076-.184.108-.279l.042.019zm.642-.897s.045.092.154.214c.059.058.137.128.248.112.098-.017.192-.141.198-.282.011-.136-.036-.293-.104-.443-.065-.155-.17-.298-.231-.484-.017-.043-.015-.119.039-.154a.255.255 0 0 1 .156-.026c.094.01.188.024.282.07.19.073.34.211.478.358.125.158.218.335.291.519.052.189.102.377.104.565.031.187-.017.368-.024.535-.024.167-.015.33-.071.472-.077.291-.16.525-.252.675-.063.159-.181.237-.167.237l-.007-.028c-.002-.021.052-.082.127-.235.09-.147.169-.375.246-.658.056-.136.046-.302.069-.468.009-.17.056-.344.025-.526a2.216 2.216 0 0 0-.101-.55 1.972 1.972 0 0 0-.282-.502c-.13-.141-.278-.274-.453-.341-.131-.063-.468-.139-.408.045.128.326.366.624.338.95-.01.149-.104.299-.246.326-.132.021-.237-.068-.293-.128-.121-.135-.162-.223-.162-.223l.046-.03zm-.955.29l-.04-.099-.001-.004a14.999 14.999 0 0 1-.182-.827c-.021-.137-.055-.297.056-.426.129-.12.303-.058.426.019l.002.001.003.004.273.38-.022.017c-.123-.104-.205-.239-.295-.366l.004.005c-.096-.062-.269-.114-.351-.022-.086.095-.063.249-.041.381.049.274.113.549.179.821l-.001-.003.04.099-.05.02z"/><path fill="none" stroke="#909090" stroke-width=".054" stroke-miterlimit="10" d="M499.461 81.036a.402.402 0 0 1 .169-.041c.253-.008.338.072.394.194s.132.505.132.505"/><path fill="#FFF" stroke="#909090" stroke-width=".054" stroke-miterlimit="10" d="M499.193 82.725s-.152-.127-.193-.174c-.041-.047-.114-.366-.076-.511a.168.168 0 0 1 .047-.078"/><path fill="none" stroke="#909090" stroke-width=".054" stroke-miterlimit="10" d="M508.52 84.052c-.041-.036-.084-.167-.121-.237-.016-.03-.073-.22-.151-.477-.103-.341-.281-.823-.263-1.28.031-.801.227-1.292.556-1.294s.33.576.33.576l-.036.312s.05.142.15.142c.099 0 .151-.109.151-.109s.021-.177.019-.353l-.284.007s-.011-.245.036-.314.163-.119.215-.135c0 0 .07-.092.234-.054.164.039.218.1.252.199.037.1.047.468.061.543a.33.33 0 0 0 .082.174c.102.065.166.001.224-.055.053-.052.076-.146.076-.318s-.168-.314-.16-.422c.009-.11.027-.232.315-.232s.652.531.652 1.308-.246 1.098-.234 1.365c.013.268-.092.569-.146.644"/><path fill="#FFF" stroke="#909090" stroke-width=".054" stroke-miterlimit="10" d="M516.345 88.172v2.396h3.901v-2.396l-.571-.816v-2.295h.571l-.003-.508c-.358-.154-.423-.521-.423-.521h-3.144s-.024.359-.33.521l-.003.508h.571v2.295l-.569.816z"/><path fill="none" stroke="#909090" stroke-width=".054" stroke-linecap="round" stroke-linejoin="round" stroke-miterlimit="10" d="M529.996 165.711l-.631-.004s-.014-.124-.088-.224c0 0-.034-.052-.104-.059l-.161-.006s.105-.167-.195-.632c0 0-.397-.172-.312-.846"/><path fill="#909090" d="M529.855 163.314c.091-.077.168-.151.181-.264a.546.546 0 0 0-.054-.317l.002.002c-.083-.091-.155-.211-.262-.262a.518.518 0 0 0-.358 0 .79.79 0 0 0-.32.186.895.895 0 0 0-.188.325l-.021-.006a.942.942 0 0 1 .181-.346.804.804 0 0 1 .334-.21.568.568 0 0 1 .396.002c.13.066.191.182.281.279l.002.003a.6.6 0 0 1 .061.353c-.013.127-.113.227-.197.294l-.038-.039z"/><path fill="none" stroke="#909090" stroke-width=".054" stroke-linecap="round" stroke-linejoin="round" stroke-miterlimit="10" d="M529.236 163.478c.115-.271.389-.261.389-.261s.027.004.122.031c0 0 .356.105.356.848 0 0 .011.593-.236.707"/><path fill="none" stroke="#909090" stroke-width=".054" stroke-linejoin="round" stroke-miterlimit="10" d="M528.846 164.078a.547.547 0 0 1-.546-.549c0-.303.244-.548.546-.548"/><path d="M512.477 174.709h-.239m.239 1.464h-.239m.239 1.463h-.239m.239 1.463h-.239m.239 1.463h-.239m.987-.731h-.238m.238 1.463h-.238m1.755-1.463h-.236m.236 1.463h-.236m-2.05.734h-.218m3.274-7.319h-.237m.237 1.464h-.237m.237 1.463h-.237m.237 1.463h-.237m.237 1.463h-.237m.217 1.466h-.217m-1.3-2.929h-.239m.239 1.463h-.239m.239 1.466h-.219m.117-87.893h15.638m.384 6.235h-2.059m.029 0h-2.219m-5.009 0h-2.059m.027 0h-2.216m-2.516-24.481h9.6v.346c-.278 0-.299.433-.299.433h-.186l-.566.549v.336h-8.549m0-5.17h5.729m-5.729-14.117h5.445m-5.445-1.233h5.424m-2.986-2.912s.016-.312.349-.312c.332 0 .367.324.367.434 0 .112-.138.344-.367.344m-.355-.453v2.899m-2.432 37.102h-15.638m-.383 6.235h2.166m-.028 0h2.117m4.954 0h2.216m-.028 0h2.058m2.566-24.481h-9.6v.346c.278 0 .299.433.299.433h.186l.566.549v.336h8.549m0-5.17h-5.728m5.728-14.117h-5.447m5.447-1.233h-5.413m2.976-2.912s-.015-.312-.348-.312-.368.324-.368.434c0 .112.139.344.368.344m.353-.453v2.899m4.219 13.576h2.3m-5.874 0h-2.301m11.459 28.075l1.09.779m.023-1.632l.403 1.276m2.226-.423l-1.09.779m-.093-1.653l-.405 1.276m-2.154-.402l1.09.779m-.082.654v-.17c0-.469.387-.85.863-.85.478 0 .863.381.863.85v.17" fill="none" stroke="#909090" stroke-width=".054" stroke-miterlimit="10"/><path fill="none" stroke="#909090" stroke-width=".054" stroke-miterlimit="10" d="M525.387 99.945v.171h-4.547l.004-.171c0-1.234 1.02-2.235 2.271-2.235 1.255 0 2.272 1.001 2.272 2.235z"/><path fill="#FFF" stroke="#909090" stroke-width=".054" stroke-miterlimit="10" d="M513.873 152.92h15.828v-.91"/><path fill="none" stroke="#909090" stroke-width=".054" stroke-miterlimit="10" d="M513.873 118.538h16.129m-16.129-6.226h15.887m-15.887 26.053h16.044m-16.044-6.667h15.887"/><path fill="#FFF" stroke="#909090" stroke-width=".054" stroke-miterlimit="10" d="M513.855 152.92h-15.828v-.91"/><path fill="none" stroke="#909090" stroke-width=".054" stroke-miterlimit="10" d="M513.855 118.538h-16.128m16.128-6.226h-15.886m15.886 26.053h-16.043m16.043-6.667h-15.886m15.904-38.663h15.801m-15.801 0h-15.802m19.06-40.793h-6.586m4.82 19.452v-1.248h-1.48"/><path fill="none" stroke="#909090" stroke-width=".054" stroke-linejoin="round" stroke-miterlimit="10" d="M515.062 69.775s1.233.141 2.24-.546m-4.647.546s-1.234.141-2.241-.546"/><path fill="none" stroke="#909090" stroke-width=".054" stroke-miterlimit="10" d="M512.38 71.694v-1.248h1.505m-.012-17.129h3.701m-3.701 0h-3.702"/><path fill="none" stroke="#909090" stroke-width=".054" stroke-linejoin="round" stroke-miterlimit="10" d="M526.326 185.516h1.27m-6.403 0h1.272m-6.238 0h.953m-15.76 0h-1.272m6.404 0h-1.271m6.261 0h-.997"/><path fill="none" stroke="#909090" stroke-width=".054" stroke-linecap="round" stroke-linejoin="round" stroke-miterlimit="10" d="M527.447 174.166h-.955m-4.186 0h-.954m-4.17 0h-.953m-15.88 0h.954m4.187 0h.954m4.17 0h.953"/><path fill="none" stroke="#909090" stroke-width=".054" stroke-linejoin="round" stroke-miterlimit="10" d="M515.602 165.415h3.234m-3.323-.967l2.087-.76h1.25"/><path fill="none" stroke="#909090" stroke-width=".054" stroke-miterlimit="10" d="M522.676 165.415h-3.988m4.076-.967l-2.086-.76h-1.834m7.289 1.727h2.869m-2.959-.967l2.088-.76h.215"/><path fill="none" stroke="#909090" stroke-width=".054" stroke-linejoin="round" stroke-miterlimit="10" d="M512.145 165.415h-3.236m3.323-.967l-2.086-.76h-1.25m-3.825 1.727h3.988"/><path fill="none" stroke="#909090" stroke-width=".054" stroke-linejoin="round" stroke-miterlimit="10" d="M504.982 164.448l2.086-.76h1.834m-7.289 1.727h-3.235m3.324-.967l-2.086-.76h-.216m28.754 5.144h1.557m-14.188-5.993l-.602.793"/><path fill="none" stroke="#909090" stroke-width=".054" stroke-miterlimit="10" d="M522.764 162.84l.591.792m4.941 3.505h1.415m-3.656-4.298l-.604.793"/><path fill="none" stroke="#909090" stroke-width=".054" stroke-linejoin="round" stroke-miterlimit="10" d="M499.592 168.832h-1.556m14.196-5.992l.593.792m-7.832-.793l-.603.793m-4.94 3.505h-1.414m3.666-4.297l.592.792m-4.25-8.999h3.826m-3.826 1.669h3.826m5.441-1.669h3.824m-3.824 1.669h3.824m-9.281-17.288h-3.802m0 3.367h3.802m-3.802 1.718h3.802m-3.802 1.724h3.802m-3.802 1.711h3.802m0 1.729h-3.802m0-28.361h3.802m0 1.787h-3.802m3.802 1.772h-3.802m3.802 1.766h-3.802m3.802 1.771h-3.802m3.802-25.254h-3.802m3.802 1.772h-3.802m3.802 1.765h-3.802m3.802 1.773h-3.802m13.071 30.96h-3.802m0 3.367h3.802m-3.802 1.718h3.802m-3.802 1.724h3.802m-3.802 1.711h3.802m0 1.729h-3.802m0-28.361h3.802m0 1.787h-3.802m3.802 1.772h-3.802m3.802 1.766h-3.802m3.802 1.771h-3.802m3.802-25.254h-3.802m3.802 1.772h-3.802m3.802 1.765h-3.802m3.802 1.773h-3.802m9.281 46.579h3.824m-3.824 1.669h3.824m-4.03 1.798h4.407m4.843 0h4.407m-4.188-3.467h3.826m-3.826 1.669h3.826m-9.281-17.288h-3.803m0 3.367h3.803m-3.803 1.718h3.803m-3.803 1.724h3.803m-3.803 1.711h3.803m0 1.729h-3.803m0-28.361h3.803m0 1.787h-3.803m3.803 1.772h-3.803m3.803 1.766h-3.803m3.803 1.771h-3.803m3.803-25.254h-3.803m3.803 1.772h-3.803m3.803 1.765h-3.803m3.803 1.773h-3.803m13.073 30.96h-3.803m0 3.367h3.803m-31.628-1.736h3.802m5.467 0h3.802m5.484 0h3.803m5.467 0h3.803m-3.803 3.454h3.803m-3.803 1.724h3.803m-3.803 1.711h3.803m0 1.729h-3.803m0-28.361h3.803m0 1.787h-3.803m3.803 1.772h-3.803m3.803 1.766h-3.803m3.803 1.771h-3.803m3.803-25.254h-3.803m-27.825 16.44h3.802m0-18.159h-3.802m9.269 18.159h3.802m0-18.159h-3.802m9.286 18.159h3.803m0-18.159h-3.803m9.27 18.159h3.803m0-18.159h-3.803m3.803 3.491h-3.803m3.803 1.765h-3.803m3.803 1.773h-3.803"/><path fill="none" stroke="#909090" stroke-width=".054" stroke-miterlimit="10" d="M531.35 92.092h-34.649m17.172-30.971h6.005m-6.023 0h-6.003m10.034 10.57l.001-.48h.055v-.121c0-.094.25-.122.25-.37v-.112m-.427-8.501h.352m-.071-.498h-.226c-.111 0-.231.067-.231.261m.245-.217l-.109-.22"/><path fill="none" stroke="#909090" stroke-width=".054" stroke-miterlimit="10" d="M518.164 70.707a.204.204 0 1 1 0-.408v-8.161m-8.304 9.553l-.001-.48h-.056v-.121c0-.094-.249-.122-.249-.37v-.112m.146-8.999h.225c.111 0 .232.067.232.261s-.177.237-.177.237h-.352m-.066-.14c-.026.006-.027.045-.024.056 0 0 .003.038.032.045"/><path fill="none" stroke="#909090" stroke-width=".054" stroke-miterlimit="10" d="M509.912 61.653l.109-.22v-.321m-.44 9.595a.204.204 0 1 0 0-.408v-8.161m8.008-.268c0 .194.176.237.176.237m-.04-.674v-.321m-3.852 10.579h5.84m-5.84 0h-5.84"/><path fill="none" stroke="#909090" stroke-width=".054" stroke-linecap="round" stroke-linejoin="round" stroke-miterlimit="10" d="M497.715 165.711l.632-.004s.014-.124.087-.224c0 0 .034-.052.105-.059l.16-.006s-.104-.167.195-.632c0 0 .397-.172.312-.846"/><path fill="#909090" d="M497.82 163.354c-.083-.067-.186-.167-.197-.294a.584.584 0 0 1 .06-.353l.003-.003c.089-.097.15-.213.28-.279a.57.57 0 0 1 .397-.002.818.818 0 0 1 .333.21.942.942 0 0 1 .181.346l-.021.006a.918.918 0 0 0-.188-.325.8.8 0 0 0-.32-.186.518.518 0 0 0-.358 0c-.105.05-.179.171-.261.262l.002-.002a.554.554 0 0 0-.054.317c.013.112.089.187.181.264l-.038.039z"/><path fill="none" stroke="#909090" stroke-width=".054" stroke-linecap="round" stroke-linejoin="round" stroke-miterlimit="10" d="M498.475 163.478c-.114-.271-.388-.261-.388-.261s-.028.004-.123.031c0 0-.358.105-.358.848 0 0-.01.593.238.707"/><path fill="none" stroke="#909090" stroke-width=".054" stroke-linejoin="round" stroke-miterlimit="10" d="M498.865 164.078a.548.548 0 0 0 0-1.097m30.067-.209h-15.059m-15.061 0h15.043m14.627 11.196h1.219m-1.951 1.718h1.951m-1.951 1.71h1.951m-1.951 1.719h1.951m-1.951 1.669h1.951m-1.842 1.718h1.842m-1.842 1.711h1.842m-1.515 1.719h1.515m-30.437-11.964h-1.22m1.952 1.718h-1.952m1.952 1.71h-1.952m1.952 1.719h-1.952m1.842 1.669h-1.842m1.842 3.429h-1.842m1.517 1.719h-1.517"/><path fill="none" stroke="#909090" stroke-width=".054" stroke-miterlimit="10" d="M513.873 74.013h9.197m-1.166 0v1.876m-4.72-1.876v1.876m-.952-1.876v1.876m-2.359-.712h8.995m-.014-1.164v1.876m-8.999-1.876h-9.197m1.167 0v1.876m4.719-1.876v1.876m.952-1.876v1.876m2.359-.712h-8.994m.014-1.164v1.876m15.292 11.564h5.562m-14.407 0h5.011m-8.754 0h-5.563m21.882 8.371c1.862.344 3.299 1.886 3.446 3.781h.002c.011.107.015.218.015.328v.462"/><path fill="none" stroke="#909090" stroke-width=".054" stroke-miterlimit="10" d="M523.898 95.824c1.862.344 3.299 1.886 3.446 3.781h.002c.011.107.015.218.015.328v.462m-5.029-4.571c-1.863.344-3.299 1.886-3.448 3.781h-.001c-.01.107-.014.218-.014.328v.462"/><path fill="none" stroke="#909090" stroke-width=".054" stroke-miterlimit="10" d="M523.832 94.92l.256.057-.43 2.063m-1.521-2.063l.256-.057m.177 2.139l-.433-2.082m1.664-.06a5.043 5.043 0 0 0-.688-.045c-.23 0-.455.014-.676.044m4.609-9.854h1.056m-1.76 3.075h2.467M500.7 85.062h-1.055m1.759 3.075h-2.466m11.041-3.075h-1.057m1.76 3.075h-2.466m9.554-3.075h1.056m-1.762 3.075h2.467"/><path fill="none" stroke="#909090" stroke-width=".054" stroke-linejoin="round" stroke-miterlimit="10" d="M497.752 158.1h4.405m4.845 0h4.405"/><path fill="none" stroke="#909090" stroke-width=".054" stroke-miterlimit="10" d="M523.271 180.402h2.227v1.81h-2.227zm0-7.125h2.227v4.081h-2.227zm0 8.935v4.71m-2.707.055h2.482v-.537c0-.146-.159-.211-.159-.211l-.221-.111c-.031-.016-.062-.043-.062-.118 0-.056.068-.079.068-.079a.17.17 0 0 0 .178-.177.178.178 0 0 0-.178-.177l-.164-11.415-.002-.343h.424s.275-.066.275-.371a.47.47 0 0 0-.061-.25l-.076-.088v-.504m2.43 9.616v4.722m-23.25-6.532h2.227v1.81h-2.227zm0-7.125h2.227v4.081h-2.227zm2.226 8.935v4.71m2.69.055h-2.483v-.537c0-.146.159-.211.159-.211l.221-.111c.032-.016.062-.043.062-.118 0-.056-.069-.079-.069-.079-.111 0-.177-.079-.177-.177 0-.098.08-.177.177-.177l.165-11.415.001-.343h-.424s-.275-.066-.275-.371c0-.106.023-.188.062-.25l.076-.088v-.504m-2.411 9.616v4.722m9.767-88.25l1.089.779m.023-1.632l.402 1.276m2.227-.423l-1.09.779m-.094-1.653l-.403 1.276m-2.154-.402l1.089.779m-.083.654v-.17c0-.469.388-.85.863-.85.479 0 .863.381.863.85v.17"/><path fill="none" stroke="#909090" stroke-width=".054" stroke-miterlimit="10" d="M516.156 99.945v.171h-4.546l.004-.171c0-1.234 1.018-2.235 2.271-2.235 1.256 0 2.271 1.001 2.271 2.235zm-1.486-4.121c1.862.344 3.297 1.886 3.445 3.781h.003c.009.107.013.218.013.328v.462"/><path fill="none" stroke="#909090" stroke-width=".054" stroke-miterlimit="10" d="M514.67 95.824c1.862.344 3.297 1.886 3.445 3.781h.003c.009.107.013.218.013.328v.462m-5.029-4.571c-1.862.344-3.298 1.886-3.447 3.781h-.001a3.232 3.232 0 0 0-.015.328v.462"/><path fill="none" stroke="#909090" stroke-width=".054" stroke-miterlimit="10" d="M514.602 94.92l.255.057-.429 2.063m-1.521-2.063l.256-.057m.177 2.139l-.433-2.082m1.663-.06a5.054 5.054 0 0 0-.688-.045c-.229 0-.454.014-.675.044m-10.469 3.768l1.09.779m.024-1.632l.401 1.276m2.226-.423l-1.089.779m-.094-1.653l-.403 1.276m-2.155-.402l1.09.779m-.082.654v-.17c0-.469.387-.85.864-.85s.862.381.862.85v.17"/><path fill="none" stroke="#909090" stroke-width=".054" stroke-miterlimit="10" d="M506.88 99.945v.171h-4.546l.004-.171c0-1.234 1.018-2.235 2.271-2.235 1.255 0 2.271 1.001 2.271 2.235zm-1.487-4.121c1.863.344 3.297 1.886 3.446 3.781h.003c.01.107.014.218.014.328v.462"/><path fill="none" stroke="#909090" stroke-width=".054" stroke-miterlimit="10" d="M505.393 95.824c1.863.344 3.297 1.886 3.446 3.781h.003c.01.107.014.218.014.328v.462m-5.031-4.571c-1.863.344-3.298 1.886-3.448 3.781h-.001c-.01.107-.014.218-.014.328v.462"/><path fill="none" stroke="#909090" stroke-width=".054" stroke-miterlimit="10" d="M505.325 94.92l.256.057-.43 2.063m-1.521-2.063l.257-.057m.177 2.139l-.434-2.082m1.664-.06a5.043 5.043 0 0 0-.688-.045c-.229 0-.453.014-.675.044m21.742 77.68v.504l-.085.089a.476.476 0 0 0-.061.249c0 .305.274.371.274.371h.441v.343l-.162 11.415a.176.176 0 0 0-.177.177c0 .098.063.177.177.177 0 0 .07.023.07.08 0 .074-.029.102-.062.117-.031.017-.221.111-.221.111s-.156.066-.156.211v.537h-.002 2.481v-.537c0-.146-.157-.211-.157-.211l-.222-.111c-.031-.016-.062-.043-.062-.118 0-.056.07-.079.07-.079.111 0 .177-.079.177-.177a.177.177 0 0 0-.177-.177l-.165-11.415-.001-.343h.424s.274-.066.274-.371a.453.453 0 0 0-.062-.25l-.077-.088v-.504m-26.156 0v.504l.084.089a.467.467 0 0 1 .062.249c0 .305-.274.371-.274.371h-.44v.343l.162 11.415c.097 0 .177.079.177.177 0 .098-.064.177-.177.177 0 0-.07.023-.07.08 0 .074.029.102.062.117.031.017.222.111.222.111s.156.066.156.211v.537h.002-2.482v-.537c0-.146.158-.211.158-.211l.222-.111c.032-.016.062-.043.062-.118 0-.056-.069-.079-.069-.079-.113 0-.177-.079-.177-.177 0-.098.08-.177.177-.177l.164-11.415.001-.343h-.424s-.275-.066-.275-.371c0-.106.023-.188.062-.25l.075-.088v-.504"/><path fill="none" stroke="#909090" stroke-width=".054" stroke-linejoin="round" stroke-miterlimit="10" d="M529.742 172.54h-15.869m-15.886 0h15.868"/><path fill="none" stroke="#909090" stroke-width=".218" stroke-miterlimit="10" d="M522.785 166.984h3.327"/><g stroke="#909090" stroke-width=".218" stroke-miterlimit="10"><path fill="#FFF" d="M527.964 169.396v-.468l-.273-.391v-1.303l.273-.22-.001-.243-.268-.171h-1.32l-.277.171-.002.243.275.22v1.303l-.275.391v.468"/><path fill="none" d="M526.096 168.928v.468"/></g><path fill="none" stroke="#909090" stroke-width=".218" stroke-miterlimit="10" d="M527.964 169.163l1.21.355v.573m-11.617-3.107h3.327m-6.991 0h1.825m14.292 19.993s.067-.021.067-.193c0-.17-.202-.329-.376-.329s-.283-.111-.283-.317c0-.205-.006-.205-.006-.205h.289v-1.307h-.283v-.412h.283v-1.306h-.283v-.405h.283v-1.307h-.283v-.411h.283v-1.258h-.283v-.411h.283v-1.308h-.283v-.411h.283v-1.306h-.283v-.411l.283.006v-1.307h-.283v-.411h.283v-1.362l.041-.065.227-.306v-.275h-.199v-1.123l.222-.011.49-.562v-.426h-1.308m2.355-9.338h-17.656"/><path fill="none" stroke="#909090" stroke-width=".218" stroke-miterlimit="10" d="M529.955 164.803s.525.73.034.986l-.278.018v1.33h-.173v.426h.173v1.27h-.173v1.006m.444-6.505c.344-.231.132-.614.132-.614s-.083-.115-.151-.183l-.102-.123v-.335c0-.392.49-.487.49-.487v-.336h1.073v-.721"/><path fill="none" stroke="#909090" stroke-width=".218" stroke-linecap="round" stroke-miterlimit="10" d="M529.982 163.358c.1.109.209.325.209.737 0 0 .011.593-.236.707"/><g stroke="#909090" stroke-width=".218" stroke-miterlimit="10"><path fill="#FFF" d="M522.734 169.396v-.468l-.275-.391v-1.303l.275-.22-.002-.243-.267-.171h-1.32l-.278.171-.002.243.276.22v1.303l-.275.391v.468"/><path fill="none" d="M520.865 168.928v.468"/></g><g stroke="#909090" stroke-width=".218" stroke-miterlimit="10"><path fill="#FFF" d="M517.615 169.396v-.468l-.275-.391v-1.303l.275-.22-.002-.243-.267-.171h-1.321l-.277.171-.002.243.275.22v1.303l-.275.391v.468"/><path fill="none" d="M515.746 168.928v.468"/></g><path fill="none" stroke="#909090" stroke-width=".218" stroke-miterlimit="10" d="M529.418 152.92h.283v-.91l.656-.42v-.434h-16.484m6.294-66.65h5.562m1.006-.475h-.78s-.023.359-.329.521l-.003.508h.572v2.295l-.572.816v2.396m3.9.001v-2.396l-.571-.816v-2.295h.571l-.002-.508c-.359-.154-.424-.521-.424-.521h-.484m-14.734.474h2.469m13.435 15.868v-6.212l.688-.801.003-.333c.623 0 .554-.509.554-.509v-.426h1.119v-.673l.565-.221v-.662l-3.134-.314m-15.705 46.136h16.387v.309s-.337.127-.337.382h-.226v1.315h.252m-16.076-21.391h16.387v.409s-.337.126-.337.381h-.226v.764m.311 10.447v.917m-.162-11.354v.419c0 .146-.106.23-.258.23h-.172v.354h.283v1.361h-.283v.42h.283v1.367h-.283v.41h.283v1.361h-.281l-.002.404h.283v1.361h-.283v.41h.283v1.361h-.281v.143c0 .215.082.371.232.371.188 0 .31.17.31.38v.11m.048-19.971v.918m-.162-9.554v.395c0 .146-.106.23-.258.23h-.172v.359h.283v1.367h-.283v.412h.283v1.36h-.283v.405h.283v1.36h-.283v.411h.283v1.361h-.283l.002.143c0 .214.082.371.232.371.188 0 .31.17.31.38v.109m-4.388 19.919v.917m.162-11.354v.419c0 .146.106.23.256.23h.174v.354h-.284v1.361h.284v.42h-.284v1.367h.284v.41h-.284v1.361h.282l.002.404h-.284v1.361h.284v.41h-.284v1.361h.282v.143c0 .215-.083.371-.234.371-.186 0-.309.17-.309.38v.11m-.047-19.971v.918m.162-9.554v.395c0 .146.106.23.256.23h.174v.359h-.284v1.367h.284v.412h-.284v1.36h.284v.405h-.284v1.36h.284v.411h-.284v1.361h.284l-.002.143c0 .214-.083.371-.234.371-.186 0-.309.17-.309.38v.109m-4.89 19.919v.917m-.165-11.354v.419c0 .146-.106.23-.257.23h-.174v.354h.285v1.361h-.285v.42h.285v1.367h-.285v.41h.285v1.361h-.282l-.003.404h.285v1.361h-.285v.41h.285v1.361h-.282v.143c0 .215.082.371.233.371.186 0 .309.17.309.38v.11m.051-19.971v.918m-.165-9.554v.395c0 .146-.106.23-.257.23h-.174v.359h.285v1.367h-.285v.412h.285v1.36h-.285v.405h.285v1.36h-.285v.411h.285v1.361h-.285l.003.143c0 .214.082.371.233.371.186 0 .309.17.309.38v.109m-4.386 19.919v.917m.162-11.354v.419c0 .146.106.23.257.23h.173v.354h-.284v1.361h.284v.42h-.284v1.367h.284v.41h-.284v1.361h.282l.002.404h-.284v1.361h.284v.41h-.284v1.361h.282v.143c0 .215-.083.371-.233.371-.187 0-.31.17-.31.38v.11m-.047-19.971v.918m.162-9.554v.395c0 .146.106.23.257.23h.173v.359h-.284v1.367h.284v.412h-.284v1.36h.284v.405h-.284v1.36h.284v.411h-.284v1.361h.284l-.002.143c0 .214-.083.371-.233.371-.187 0-.31.17-.31.38v.109M514.42 96.92c1.412.243 2.498 1.419 2.58 2.86v.615m-3.67-3.475c-1.467.254-2.583 1.516-2.583 3.034v.446m2.62-3.335a12.82 12.82 0 0 1 1.037 0m-9.261-.145c1.412.243 2.499 1.419 2.581 2.86v.615m-3.67-3.475c-1.468.254-2.584 1.516-2.584 3.034v.446m2.62-3.335a12.858 12.858 0 0 1 1.039 0m24.596 15.247v4.662m-15.852-7.021h16.87v.446c-.278 0-.298.432-.298.432h-.187l-.343.55v.55l-.192.382v.138m-15.85-36.562h9.6v.346c-.278 0-.299.433-.299.433h-.186l-.566.549v.336h-.305v6.953"/><path fill="#FFF" stroke="#909090" stroke-width=".218" stroke-miterlimit="10" d="M519.196 56.97v1.313l1.152.18s.026.196-.042.305c-.066.108-.259.102-.259.102v.227h-.42v.133l-.408.617v.577h.295v.242l-.142.204v.237"/><path fill="none" stroke="#909090" stroke-width=".218" stroke-miterlimit="10" d="M519.205 56.97c-.041-.269-.235-.377-.235-.377h-.005s.065-.096.065-.316c0-.222-.14-.395-.29-.395-.152 0-.258.132-.258.132h-.346a.313.313 0 0 0-.187-.062.268.268 0 0 0-.203.089l-.027-.026c-.303-.479-.416-.876-.416-.876v-.524l.036.001s.407-.032.407-.413-.318-.393-.318-.393h-.108v-1.065h-.188v-.502m-8.602 4.727a.535.535 0 0 1 .234-.377h.005s-.065-.096-.065-.316c0-.222.138-.395.29-.395s.257.132.257.132h.345a.316.316 0 0 1 .188-.062c.086 0 .153.035.204.089l.027-.026c.303-.479.416-.876.416-.876v-.524l-.037.001s-.406-.032-.406-.413.317-.393.317-.393h.11v-1.065h.188v-.502m3.548-12.279l.169-.013s.19-.065.23-.229c.067-.269-.074-.651.12-.812.193-.16.649-.36.773-.441.124-.08.524-.412.606-.521.082-.107.125-.065.146-.032.021.034.062.181.062.181s.092-.07.119-.016c.027.054.11.163.128.231.018.069-.073.21-.073.21s.084.151.073.251c-.01.099-.348.403-.348.403s.049.049.028.109c-.021.062-.517.412-.517.412l-.057.213-.354.165s-.04.234-.085.278c-.044.043-.18.064-.18.064s.075.152.021.203c-.053.05-.374.158-.374.158s.028.382-.054.396c-.082.013-.224.006-.224.006"/><path fill="#909090" d="M514.227 39.929c-.069-.042-.078-.083-.075-.125l.006-.105.102-.002.108-.003h.013l.014.003.16.034-.132.089a1.178 1.178 0 0 0 .012-.248l-.003-.038-.001-.01c.004.011-.009-.031.009.023l-.003-.005c-.003-.005-.008-.017-.01-.017-.007.011.021.027.004.017l-.029-.015-.075-.028-.173-.05-.045-.024s-.104-.027-.14-.014c-.104.011-.077.035-.121.065-.01 0-.028.136-.042.198-.003.051-.036.228-.205.284-.067.032-.201-.028-.226-.09a.45.45 0 0 1-.058-.16c-.014-.072-.014-.184-.016-.255-.004-.155-.012-.319-.068-.412-.017-.031-.08-.071-.151-.119-.067-.049-.134-.077-.201-.116l-.433-.229a4.368 4.368 0 0 1-.395-.309c-.062-.057-.124-.103-.188-.174l-.079-.082c-.037-.061-.048.022.065-.041l-.027.02a1.164 1.164 0 0 0-.182.115c.008-.009-.003.01.014-.028-.002.01-.006.026 0 .014.001-.022.003.006.007.017.008.03.024.068.038.099l.051.112-.112.053a.296.296 0 0 0-.063.04l-.014.013c.002-.001.004-.005.004-.009.008-.046.002.003.004 0 .008.001-.002-.026.006-.005l.019.035a.827.827 0 0 0 .054.074l.1.117-.131.07a.17.17 0 0 0-.057.057v-.002h-.001l-.005-.024.001.002.004.011c.005.013.013.035.018.035.011.007.014.017.038.042.074.087.165.175.253.256l.005.182c.008-.005 0 .002.006-.015-.003-.011.003.013-.012-.026l.016.019c.011.017.018.015.025.021l.131.104.312.229.046.034.008.054.024.21-.065-.095.339.181.065.035v.073c.002.072.006.158.018.212l.002.009-.003-.003-.001-.001c-.031-.035-.007-.008-.014-.015l.007.005c.013.01.034.034.04.031l.073.033.144.063-.086.12a.27.27 0 0 0-.044.083c-.007.012.006.006-.011-.022-.031-.036.006.003.006.002.007.004.007 0 .01.002a.852.852 0 0 0 .104.044l.125.041.095.031-.012.095a1.737 1.737 0 0 0-.016.292c0 .026.005.036.006.045.006.013-.018-.039-.043-.032-.035-.006.013 0 .016 0a.543.543 0 0 0 .131.007l.027.216c-.082.01-.136.003-.188-.001-.021-.004-.002.005-.062-.01-.041-.015-.093-.08-.091-.094a.332.332 0 0 1-.023-.111 1.751 1.751 0 0 1 .016-.343l.083.125-.143-.043c-.05-.019-.087-.029-.153-.064l-.05-.033c-.016-.019-.001.008-.042-.047-.039-.07-.024-.126-.018-.159a.558.558 0 0 1 .081-.166l.057.183c-.045-.017-.083-.031-.145-.07-.032-.02-.037-.028-.056-.043l-.006-.005-.018-.021-.004-.007-.017-.031c-.012-.025-.012-.034-.016-.048-.022-.104-.024-.179-.028-.268l.066.107-.342-.176-.058-.029-.009-.066-.027-.209.053.088-.319-.237c-.059-.048-.093-.067-.172-.146l-.044-.048-.016-.02c-.028-.051-.016-.045-.022-.072-.012-.083.019-.139.063-.194l.006.181a2.981 2.981 0 0 1-.277-.284.628.628 0 0 1-.076-.108c-.015-.025-.016-.035-.023-.051l-.004-.011-.001-.003-.006-.027v-.015l.003-.05c.032-.129.104-.178.178-.229l-.033.187a.944.944 0 0 1-.075-.104c-.011-.019-.023-.038-.033-.062a.284.284 0 0 1-.028-.108c.002-.021-.004.009.006-.055a.318.318 0 0 1 .026-.059.342.342 0 0 1 .062-.067.568.568 0 0 1 .123-.076l-.062.164a.85.85 0 0 1-.052-.139c-.006-.03-.016-.042-.015-.108.001-.034.005-.038.007-.049.02-.059.028-.053.048-.08.093-.084.161-.115.244-.162l-.027.02c.192-.107.257.05.271.043l.089.092c.043.05.109.104.167.155.116.101.239.202.364.29l.422.226c.162.103.268.122.433.315.104.191.093.367.101.53.004.089-.002.14.013.227a.314.314 0 0 0 .021.067c.019.007-.029-.009-.019-.005-.011-.003.026.003.036-.104.024-.094.007-.125.069-.271.048-.097.221-.179.279-.172.121-.007.188-.016.325.07l-.043-.024.181.053.097.037.053.027a.24.24 0 0 1 .078.071l.013.022.003.005c.02.058.006.02.011.035l.001.014.005.053a.527.527 0 0 1 .003.104 1.672 1.672 0 0 1-.018.199l-.018.115-.114-.025-.16-.035.025.002-.108.002.106-.108c.001.042-.007.083-.078.125l-.066-.002z"/><path fill="none" stroke="#909090" stroke-width=".218" stroke-miterlimit="10" d="M510.219 47.818l-.033-.076a4.016 4.016 0 0 1-.338-1.625v-.011c0-2.227 1.758-3.798 3.397-3.971m.081-.024l-.191-.5.136-.325m1.069-.018l.203.266-.145.577"/><path fill="#909090" d="M516.09 50.115c-.023-.064-.047-.118-.021-.174a.706.706 0 0 1 .028-.078.256.256 0 0 0 .026-.066l.021-.068c.006-.015.006-.022.017-.044.016-.025.011-.032.049-.068.043-.024.086-.051.154-.078l-.039.03.289-.391c.026-.034.036-.051.062-.093a2.318 2.318 0 0 0 .135-.311l.007-.018.01-.009c.039-.041.069-.073.13-.099.042-.017.047-.028.064-.053.046-.059.09-.129.135-.201l.141-.226a.358.358 0 0 1 .075-.095c-.027.035-.017-.003-.033-.043a1.527 1.527 0 0 0-.229-.402l-.347-.366-.065-.07.08-.057.188-.13-.029.04.023-.069.012-.033c.002-.008-.004.01.001.015.007.021.007.001.003-.008-.007-.052-.006-.052-.012-.072-.005-.019-.011 0 .031.007v-.17c.1.009.119.084.13.112.011.03.017.081.015.08 0 .004-.003-.003.001.03a.122.122 0 0 1-.007.053l-.013.04-.027.076-.009.024-.021.016-.188.13.016-.126.346.366c.12.152.202.291.267.467.003.038.049.087.003.2a.361.361 0 0 0-.08.101l-.124.203c-.045.071-.089.144-.146.217a.303.303 0 0 1-.129.102c-.02.005-.049.033-.068.053l.016-.027a1.615 1.615 0 0 1-.225.456l-.282.382-.018.024-.022.006a.655.655 0 0 0-.119.06c.023-.016.009.001.012-.002a.106.106 0 0 0-.01.028l-.025.078c-.01.031-.021.053-.031.076-.019.036-.018.043-.023.066a.338.338 0 0 0-.009.152l-.136-.043z"/><path fill="#909090" d="M517.025 52.3a1.255 1.255 0 0 1-.036-.179.654.654 0 0 1 .002-.077c-.009.056-.004-.016-.011 0-.004.015 0 .011-.013-.001-.004-.004.002.005.005.003l-.041-.021-.072-.038-.158-.088-.039-.022-.016-.057-.036-.135c-.061-.168-.014-.183-.014-.251.033-.138.07-.254.109-.37.024-.068.037-.103.051-.163.017-.061.017-.096.024-.159.004-.049.021-.143.038-.199l.055-.169c.012-.044.027-.114.037-.137 0-.076-.01-.072-.023-.105-.001-.013-.024-.01.001-.012l-.087-.019-.147-.002-.174.008a.555.555 0 0 0-.16.024c-.096.027-.165.094-.328.076l-.023-.035c.034-.152.171-.211.305-.256a.828.828 0 0 1 .19-.032l.187-.011c.057-.005.138 0 .209.005l.088.018a.295.295 0 0 1 .134.104.42.42 0 0 1 .067.234c-.013.094-.028.14-.045.212l-.053.172c-.017.059-.018.083-.025.153-.007.055-.015.14-.027.195a2.096 2.096 0 0 1-.053.18l-.092.318c-.014.047-.016.158-.021.1.031.089.035.139.054.21l-.055-.079c.043.026.074.052.126.08l.072.041c.01.006.028.015.029.019a.254.254 0 0 1 .072.05c.026.028.06.071.074.138.005.041.007-.003.003.081.003.002.004.003.003.005.004.039.014.092.025.145l-.211.046zm-5.578-2.185a.347.347 0 0 1-.121-.116c-.016-.021-.021-.022-.039-.061-.01-.023-.021-.045-.031-.076l-.025-.079a.094.094 0 0 0-.01-.028c.003.003-.012-.015.012.002a.71.71 0 0 0-.12-.059l-.022-.006-.018-.024-.281-.382a1.67 1.67 0 0 1-.225-.456l.016.028a.241.241 0 0 0-.066-.052.297.297 0 0 1-.125-.096c-.057-.07-.1-.141-.144-.209l-.121-.197c-.022-.033-.039-.073-.07-.099l-.021-.021c-.042-.078-.012-.033-.022-.072 0-.048.009-.073.015-.092.021-.093.068-.169.101-.239.038-.073.093-.149.14-.223l.269-.4.021.119-.188-.13-.022-.016-.009-.024-.023-.066c-.009-.037-.017-.015-.024-.104.004-.045-.001-.02.003-.045.004-.015.001-.021.011-.042.011-.041.058-.089.128-.097v.17c.025.005.034-.021.03-.013-.001-.001-.003.017-.005.024.002-.003-.011.046.001.022-.002-.043.01.021.015.027l.023.062-.031-.039.188.13.068.048-.048.071-.273.408c-.039.064-.082.119-.119.189-.036.078-.076.141-.09.208-.007.02-.007.035-.011.027-.012-.02.013.049-.017-.014l.021.021c.032.026.048.065.07.099l.135.217c.043.068.085.136.132.192.009.016.021.034.064.05a.378.378 0 0 1 .124.096l.009.01.007.019c.025.071.056.149.083.21.014.032.027.064.052.099.024.041.034.059.061.093l.289.392-.04-.031c.069.026.112.053.156.078.038.036.032.043.048.068.011.022.01.029.016.044l.021.068c.004.019.016.043.026.066 0 .009.027.049.043.071.039.055.043.098.091.14l-.128.04z"/><path fill="#909090" d="M510.5 52.273l-.054-.149-.007-.019c-.011-.08-.002-.034-.004-.057a.24.24 0 0 1 .016-.065c.025-.066.045-.082.083-.12.015-.015.067-.04.058-.037l.034-.02.069-.04.121-.076-.056.078c.02-.071.022-.121.056-.21-.008.059-.01-.052-.022-.1l-.092-.318a1.42 1.42 0 0 1-.052-.179c-.016-.055-.023-.14-.029-.195-.008-.07-.009-.093-.026-.153l-.052-.172c-.016-.072-.032-.117-.045-.211a.43.43 0 0 1 .068-.234.285.285 0 0 1 .134-.104l.088-.018c.071-.005.152-.01.209-.005l.185.011c.06.001.147.017.192.032.132.044.271.104.303.256l-.022.035c-.163.018-.233-.048-.328-.076a.568.568 0 0 0-.161-.023l-.173-.008-.149.002-.086.019c.027.002.002 0 .001.012-.014.035-.023.029-.023.105.01.022.025.093.037.137l.054.17c.018.055.035.15.038.199.01.062.009.098.024.159.015.06.026.096.052.164.039.115.075.231.108.369 0 .068.047.083-.013.251l-.037.136-.016.057-.039.022-.152.085-.07.036-.035.018c-.032.015-.002.005-.009.005 0-.002-.017.022-.011.006-.001-.008-.007-.01-.007.01-.002-.01.002.05-.006-.018l.006.019.048.151-.208.063z"/><path fill="none" stroke="#909090" stroke-width=".218" stroke-linecap="round" stroke-miterlimit="10" d="M519.625 61.609c.111 0 .232.067.232.261s-.178.237-.178.237h-.353"/><path fill="none" stroke="#909090" stroke-width=".218" stroke-miterlimit="10" d="M519.66 61.653l.11-.22v-.352m-.487 9.528v.112c0 .249.25.276.25.37v.121h.054l.001.48.014.002.728.121v.346c-.279 0-.299.432-.299.432l-.263.021v3.277"/><path fill="none" stroke="#909090" stroke-width=".218" stroke-miterlimit="10" d="M519.281 70.707a.203.203 0 0 0 .203-.204.203.203 0 0 0-.203-.204v-8.161m10.444 69.56v4.661m-15.852-6.423h16.5v.445c-.278 0-.299.432-.299.432l-.342.001v.937m-15.859 55.226h16.308m-4.608-36.739v.918m0-.918v.918m.048-.89v-.11c0-.21.123-.38.309-.38.15 0 .233-.156.233-.371v-.142h-.282v-1.308h.285v-.41h-.285v-1.307h.285v-.406h-.285v-1.307h.285v-.41h-.285v-1.313h.285v-.411h-.285v-1.307h.285v-.41h-.285v-1.307h.285v-.354h-.174c-.149 0-.258-.086-.258-.229v-.418m4.274 11.872v.918m0-.918v.918m-.048-.89v-.11c0-.21-.122-.38-.31-.38-.15 0-.232-.156-.232-.371v-.142h.281v-1.308h-.283v-.41h.283v-1.307h-.283v-.406h.283v-1.307h-.283v-.41h.283v-1.313h-.283v-.411h.283v-1.307h-.283v-.41h.283v-1.307h-.283v-.354h.172c.15 0 .258-.086.258-.229v-.418m-13.554 11.872v.918m0-.918v.918m.048-.89v-.11c0-.21.123-.38.31-.38.151 0 .233-.156.233-.371v-.142h-.281v-1.308h.283v-.41h-.283v-1.307h.283v-.406h-.283v-1.307h.283v-.41h-.283v-1.313h.283v-.411h-.283v-1.307h.283v-.41h-.283v-1.307h.283v-.354h-.174c-.148 0-.256-.086-.256-.229v-.418m4.272 11.872v.918m0-.918v.918m-.047-.89v-.11c0-.21-.123-.38-.31-.38-.151 0-.233-.156-.233-.371v-.142h.282v-1.308h-.284v-.41h.284v-1.307h-.284v-.406h.284v-1.307h-.284v-.41h.284v-1.313h-.284v-.411h.284v-1.307h-.284v-.41h.284v-1.307h-.284v-.354h.172c.15 0 .258-.086.258-.229v-.418m-22.97 22.134v-1.796l-.001-.073.239-.317v-.249h-.136v-.341l.33-.441v-.57h.284v-.411h-.284v-1.259h.285v-.41h-.285v-1.308l.284.001v-.406m3.972 7.568v-1.857l-.238-.317v-.249h.135v-.341l-.33-.441v-.57h-.286v-.411h.286v-1.259h-.288v-.41h.288v-1.308l-.286.001v-.406m5.281 7.58v-1.796l-.001-.073.239-.317v-.249h-.136v-.341l.33-.441v-.57h.284v-.411h-.284v-1.259h.285v-.41h-.285v-1.308l.284.001v-.406m3.972 7.568v-1.857l-.238-.317v-.249h.135v-.341l-.33-.441v-.57h-.286v-.411h.286v-1.259h-.288v-.41h.288v-1.308l-.286.001v-.406m5.426 7.58v-1.869l.239-.317v-.249h-.136v-.341l.33-.441v-.57h.284v-.411h-.284v-1.259h.286v-.41h-.286v-1.308l.284.001v-.406m3.971 7.568l.001-1.857-.238-.317v-.249h.135v-.341l-.33-.441v-.57h-.285v-.411h.285v-1.259h-.287v-.41h.287v-1.308l-.285.001v-.406m5.279 7.58v-1.869l.239-.317v-.249h-.136v-.341l.33-.441v-.57h.284v-.411h-.284v-1.259h.286v-.41h-.286v-1.308l.284.001v-.406m3.971 7.568l.001-1.857-.238-.317v-.249h.135v-.341l-.33-.441v-.57h-.285v-.411h.285v-1.259h-.287v-.41h.287v-1.308l-.285.001v-.406m-4.147 10.602l-.004.007a1.7 1.7 0 0 0-.879-.244h-.042"/><path fill="none" stroke="#909090" stroke-width=".218" stroke-miterlimit="10" d="M523.523 163.529a1.69 1.69 0 0 1 .878-.244h.016m-.894.244l-.168.103-.062-.089a2.059 2.059 0 0 0-.337.316l.067.094a1.556 1.556 0 0 0-.261.495l-.1-.036a2.185 2.185 0 0 0-.074.446l.097.035c-.007.068-.009.14-.009.213l-.002.309-.097-.005v.465l.114.006v.828m3.423 0v-.828l.114-.006v-.465l-.097.005-.002-.309c0-.073-.003-.145-.008-.213l.095-.035a2.323 2.323 0 0 0-.072-.446l-.103.036a1.505 1.505 0 0 0-.26-.495l.067-.094a2.009 2.009 0 0 0-.336-.316l-.063.089a2.939 2.939 0 0 0-.188-.133m-10.474.023l-.004.007a1.693 1.693 0 0 0-.877-.244h-.042"/><path fill="none" stroke="#909090" stroke-width=".218" stroke-miterlimit="10" d="M515.587 166.984v-1.104l.116-.006v-.465l-.098.005-.002-.309a2.91 2.91 0 0 0-.009-.213l.097-.035a2.243 2.243 0 0 0-.074-.446l-.1.036a1.5 1.5 0 0 0-.262-.495l.067-.094a1.97 1.97 0 0 0-.336-.316l-.062.089a3.251 3.251 0 0 0-.188-.133m8.912-66.578c1.412.243 2.5 1.419 2.582 2.86v.615m-3.633-3.33a12.858 12.858 0 0 1 1.039 0m-1.075-.145c-1.468.254-2.584 1.516-2.584 3.034v.446m9.992 71.559v.275l-.227.306m-3.658-55.602v-4.646m-5.747 4.646v-4.646m-3.562 4.646v-4.646m9.309 24.033v-4.645m-5.747 4.645v-4.645m-3.562 4.645v-4.645m3.471-41.112v-2.396l-.571-.816v-2.295h.571l-.003-.508c-.358-.154-.423-.521-.423-.521h-.568m-2-.001h-.574s-.024.359-.33.521l-.003.508h.571v2.295l-.571.816v2.396m4.182 82.029v.504l-.086.089a.476.476 0 0 0-.062.249c0 .305.275.371.275.371h.441v.343l-.161 11.415c-.1 0-.178.079-.178.177 0 .098.064.177.178.177 0 0 .068.023.068.08 0 .074-.029.102-.061.117l-.223.111s-.154.066-.154.211v.537h-.004m-4.872-17.77h-1.815m6.955 0h-3.177m8.441 0h-3.389m-5.285-121.262a4.037 4.037 0 0 0 .434-1.827v-.011c0-.595-.127-1.143-.342-1.63l.203-.118-.396-.689-.198.114c-.663-.942-1.685-1.544-2.664-1.647m10.881 125.269v.704m-1.775-.704v.704m.887-.704v.704m-4.341-.704v.704m-1.775-.704v.704m.888-.704v.704m-4.381-.704v.704m-9.896-1.126h-3.326"/><g stroke="#909090" stroke-width=".218" stroke-miterlimit="10"><path fill="#FFF" d="M499.764 169.396v-.468l.274-.391v-1.303l-.274-.22.003-.243.267-.171h1.32l.277.171.001.243-.274.22v1.303l.274.391v.468"/><path fill="none" d="M501.632 168.928v.468"/></g><path fill="none" stroke="#909090" stroke-width=".218" stroke-miterlimit="10" d="M499.764 169.163l-1.208.355v.573m11.616-3.107h-3.327m6.991 0h-1.824m-14.292 19.993s-.067-.021-.067-.193c0-.17.201-.329.375-.329.173 0 .283-.111.283-.317 0-.205.006-.205.006-.205h-.289v-1.307h.283v-.412h-.283v-1.306h.283v-.405h-.283v-1.307h.283v-.411h-.283v-1.258h.283v-.411h-.283v-1.308h.283v-.411h-.283v-1.306h.283v-.411l-.283.006v-1.307h.283v-.411h-.283v-1.362l-.041-.065-.228-.306v-.275h.2v-1.123l-.222-.011-.49-.562v-.426h1.308m-2.356-9.338h17.656"/><g stroke="#909090" stroke-width=".218" stroke-miterlimit="10"><path fill="#FFF" d="M504.996 169.396v-.468l.274-.391v-1.303l-.274-.22.001-.243.267-.171h1.32l.277.171.002.243-.274.22v1.303l.274.391v.468"/><path fill="none" d="M506.863 168.928v.468"/></g><g stroke="#909090" stroke-width=".218" stroke-miterlimit="10"><path fill="#FFF" d="M510.114 169.396v-.468l.275-.391v-1.303l-.275-.22.002-.243.267-.171h1.321l.276.171.002.243-.274.22v1.303l.274.391v.468"/><path fill="none" d="M511.982 168.928v.468"/></g><path fill="none" stroke="#909090" stroke-width=".218" stroke-miterlimit="10" d="M498.311 152.92h-.284v-.91l-.655-.42v-.434h16.483m-6.293-66.65h-5.563m-1.005-.475h.779s.024.359.33.521l.002.508h-.571v2.295l.571.816v2.396m-3.901.001v-2.396l.572-.816v-2.295h-.572l.003-.508c.359-.154.423-.521.423-.521h.486m14.734.474h-2.47m-13.435 15.868v-6.212l-.688-.801-.003-.333c-.623 0-.553-.509-.553-.509v-.426h-1.12v-.673l-.566-.221v-.662l3.135-.314m15.705 46.136H497.47v.309s.335.127.335.382h.227v1.315h-.252m16.075-21.391H497.47v.409s.335.126.335.381h.227v.764m-.311 10.447v.917m.162-11.354v.419c0 .146.107.23.257.23h.173v.354h-.284v1.361h.284v.42h-.284v1.367h.284v.41h-.284v1.361h.282l.002.404h-.284v1.361h.284v.41h-.284v1.361h.282v.143c0 .215-.082.371-.233.371-.187 0-.31.17-.31.38v.11m-.047-19.971v.918m.162-9.554v.395c0 .146.107.23.257.23h.173v.359h-.284v1.367h.284v.412h-.284v1.36h.284v.405h-.284v1.36h.284v.411h-.284v1.361h.284l-.003.143c0 .214-.081.371-.232.371-.187 0-.31.17-.31.38v.109m4.389 19.919v.917m-.162-11.354v.419c0 .146-.107.23-.257.23h-.174v.354h.285v1.361h-.285v.42h.285v1.367h-.285v.41h.285v1.361h-.282l-.003.404h.285v1.361h-.285v.41h.285v1.361h-.282v.143c0 .215.082.371.232.371.188 0 .31.17.31.38v.11m.048-19.971v.918m-.162-9.554v.395c0 .146-.107.23-.257.23h-.174v.359h.285v1.367h-.285v.412h.285v1.36h-.285v.405h.285v1.36h-.285v.411h.285v1.361h-.285l.003.143c0 .214.082.371.232.371.188 0 .31.17.31.38v.109m4.892 19.919v.917m.163-11.354v.419c0 .146.107.23.257.23h.172v.354h-.284v1.361h.284v.42h-.284v1.367h.284v.41h-.284v1.361h.282l.002.404h-.284v1.361h.284v.41h-.284v1.361h.282v.143c0 .215-.082.371-.232.371-.188 0-.31.17-.31.38v.11m-.048-19.971v.918m.163-9.554v.395c0 .146.107.23.257.23h.172v.359h-.284v1.367h.284v.412h-.284v1.36h.284v.405h-.284v1.36h.284v.411h-.284v1.361h.284l-.002.143c0 .214-.082.371-.233.371-.187 0-.309.17-.309.38v.109m4.389 19.919v.917m-.163-11.354v.419c0 .146-.107.23-.258.23h-.173v.354h.284v1.361h-.284v.42h.284v1.367h-.284v.41h.284v1.361h-.282l-.002.404h.284v1.361h-.284v.41h.284v1.361h-.282v.143c0 .215.082.371.233.371.188 0 .309.17.309.38v.11m.05-19.971v.918m-.163-9.554v.395c0 .146-.107.23-.258.23h-.173v.359h.284v1.367h-.284v.412h.284v1.36h-.284v.405h.284v1.36h-.284v.411h.284v1.361h-.284l.002.143c0 .214.082.371.233.371.188 0 .309.17.309.38v.109m-13.384 3.256v4.662m15.851-7.021h-16.87v.446c.278 0 .298.432.298.432h.187l.343.55v.55l.191.382v.138m15.851-36.562h-9.601v.346c.279 0 .298.433.298.433h.187l.566.549v.336h.305v6.953"/><path fill="#FFF" stroke="#909090" stroke-width=".218" stroke-miterlimit="10" d="M508.533 56.97v1.313l-1.154.18s-.025.196.042.305c.068.108.259.102.259.102v.227h.42v.133l.408.617v.577h-.294v.242l.142.204v.237"/><path fill="none" stroke="#909090" stroke-width=".218" stroke-linecap="round" stroke-miterlimit="10" d="M508.104 61.609c-.11 0-.231.067-.231.261s.176.237.176.237h.354"/><path fill="none" stroke="#909090" stroke-width=".218" stroke-miterlimit="10" d="M508.069 61.653l-.11-.22v-.352m.486 9.528v.112c0 .249-.249.276-.249.37v.121h-.054l-.002.48-.013.002-.727.121v.346c.278 0 .299.432.299.432l.261.021v3.277"/><path fill="none" stroke="#909090" stroke-width=".218" stroke-miterlimit="10" d="M508.448 70.707a.204.204 0 1 1 0-.408v-8.161m-10.444 69.56v4.661m15.851-6.423h-16.5v.445c.278 0 .299.432.299.432l.343.001v.937m15.858 55.226h-16.308m4.609-36.739v.918m0-.918v.918m-.048-.89v-.11c0-.21-.123-.38-.311-.38-.149 0-.233-.156-.233-.371v-.142h.282v-1.308h-.284v-.41h.284v-1.307h-.284v-.406h.284v-1.307h-.284v-.41h.284v-1.313h-.284v-.411h.284v-1.307h-.284v-.41h.284v-1.307h-.284v-.354h.173c.149 0 .257-.086.257-.229v-.418m-4.271 11.872v.918m0-.918v.918m.049-.89v-.11c0-.21.122-.38.309-.38.15 0 .232-.156.232-.371v-.142h-.281v-1.308h.283v-.41h-.283v-1.307h.283v-.406h-.283v-1.307h.283v-.41h-.283v-1.313h.283v-.411h-.283v-1.307h.283v-.41h-.283v-1.307h.283v-.354h-.172c-.149 0-.257-.086-.257-.229v-.418m13.554 11.872v.918m0-.918v.918m-.049-.89v-.11c0-.21-.123-.38-.309-.38-.151 0-.234-.156-.234-.371v-.142h.282v-1.308h-.283v-.41h.283v-1.307h-.283v-.406h.283v-1.307h-.283v-.41h.283v-1.313h-.283v-.411h.283v-1.307h-.283v-.41h.283v-1.307h-.283v-.354h.173c.15 0 .257-.086.257-.229v-.418m-4.273 11.872v.918m0-.918v.918m.048-.89v-.11c0-.21.122-.38.31-.38.151 0 .233-.156.233-.371v-.142h-.282v-1.308h.284v-.41h-.284v-1.307h.284v-.406h-.284v-1.307h.284v-.41h-.284v-1.313h.284v-.411h-.284v-1.307h.284v-.41h-.284v-1.307h.284v-.354h-.173c-.148 0-.256-.086-.256-.229v-.418m-4.751 25.156l.004.007c.256-.155.556-.244.877-.244h.042"/><path fill="none" stroke="#909090" stroke-width=".218" stroke-miterlimit="10" d="M504.206 163.529a1.693 1.693 0 0 0-.877-.244h-.017m.894.244l.167.103.062-.089c.134.102.244.205.336.316l-.067.094c.118.149.203.311.26.495l.101-.036c.037.135.062.283.073.446l-.095.035c.005.068.007.14.007.213l.002.309.097-.005v.465l-.114.006v.828m-3.42 0v-.828l-.115-.006v-.465l.097.005.002-.309c0-.073.003-.145.007-.213l-.095-.035c.013-.163.036-.312.074-.446l.101.036c.057-.185.142-.346.26-.495l-.068-.094c.092-.111.203-.215.336-.316l.064.089c.058-.045.121-.089.188-.133m10.475.023l.004.007a1.69 1.69 0 0 1 .877-.244h.042"/><path fill="none" stroke="#909090" stroke-width=".218" stroke-miterlimit="10" d="M512.143 166.984v-1.104l-.115-.006v-.465l.096.005.002-.309c0-.073.003-.145.008-.213l-.095-.035c.012-.163.035-.312.074-.446l.1.036c.058-.186.144-.346.26-.495l-.067-.094c.092-.111.203-.215.336-.316l.062.089c.06-.045.121-.089.188-.133m-15.232 8.461v.275l.227.306m22.64.1h-6.759m-6.764 0h6.757m4.102-.044v.504l.021.021c.068.064.115.166.115.317 0 .305-.273.371-.273.371h-.411l-.005.343v11.415h.164c.098 0 .176.079.176.177 0 .098-.062.177-.176.177 0 0-.07.023-.07.079 0 .075.029.103.062.118.03.017.221.111.221.111s.158.065.158.211v.537h-2.482.003v-.537c0-.145.155-.211.155-.211l.222-.111c.032-.016.062-.043.062-.117 0-.057-.069-.08-.069-.08-.113 0-.177-.079-.177-.177 0-.098.078-.177.177-.177h.161v-11.415l-.004-.343h-.443s-.274-.066-.274-.371c0-.151.047-.253.115-.317l.028-.021v-.504m-5.632 0v.504l-.021.021c-.068.064-.115.166-.115.317 0 .305.274.371.274.371h.411l.005.343v11.415h-.165a.177.177 0 0 0-.177.177c0 .098.063.177.177.177 0 0 .07.023.07.079 0 .075-.029.103-.062.118-.03.017-.221.111-.221.111s-.159.065-.159.211v.537h2.483-.003v-.537c0-.145-.156-.211-.156-.211l-.221-.111c-.032-.016-.062-.043-.062-.117 0-.057.07-.08.07-.08.113 0 .177-.079.177-.177a.177.177 0 0 0-.177-.177h-.162v-11.415l.004-.343h.443s.274-.066.274-.371c0-.151-.047-.253-.115-.317l-.029-.021v-.504m-10.684-55.658v-4.646m5.746 4.646v-4.646m3.562 4.646v-4.646m-9.308 24.033v-4.645m5.746 4.645v-4.645m3.562 4.645v-4.645m-3.472-41.112v-2.396l.571-.816v-2.295h-.571l.003-.508c.358-.154.423-.521.423-.521h.611m1.958-.001h.575s.024.359.329.521l.003.508h-.571v2.295l.571.816v2.396m-4.182 82.029v.504l.085.089c.037.062.06.143.06.249 0 .305-.274.371-.274.371h-.441v.343l.162 11.415c.098 0 .177.079.177.177 0 .098-.063.177-.177.177 0 0-.069.023-.069.08 0 .074.029.102.062.117.031.017.221.111.221.111s.157.066.157.211v.537h.002m4.875-17.77h1.813m-6.955 0h3.178m-8.442 0h3.39m-2.633-1.801v.704m1.775-.704v.704m-.887-.704v.704m4.341-.704v.704m1.774-.704v.704m-.887-.704v.704m4.38-.704v.704m.965-.704v.704m.66-82.667v1.533m1.29-1.533v1.533m-2.579-1.533v1.533m-1.289-1.533v1.533m8.337 3.46h5.35m-14.24 0h4.962m-8.872 0h-5.35"/><circle fill="none" stroke="#909090" stroke-width=".218" stroke-miterlimit="10" cx="513.871" cy="65.496" r="3.788"/><path fill="#FFF" d="M512.707 49.911s.204.205.23.325c.025.121-.05.162-.05.162l-.329-.102.149-.385zm2.249-.028s-.216.19-.25.31c-.034.118.038.164.038.164l.335-.08-.123-.394z"/><path fill="none" stroke="#909090" stroke-width=".218" stroke-miterlimit="10" d="M497.776 164.803s-.526.73-.035.986l.278.018v1.33h.173v.426h-.173v1.27h.173v1.006m-.445-6.505c-.343-.231-.13-.614-.13-.614s.083-.115.15-.183l.103-.123-.001-.335c0-.392-.49-.487-.49-.487v-.336h-1.074v-.721"/><path fill="none" stroke="#909090" stroke-width=".218" stroke-linecap="round" stroke-miterlimit="10" d="M497.747 163.358c-.098.109-.208.325-.208.737 0 0-.01.593.238.707"/><path fill="none" stroke="#909090" stroke-width=".218" stroke-miterlimit="10" d="M505.508 85.443v1.533m1.29-1.533v1.533m-2.579-1.533v1.533m-1.29-1.533v1.533m20.686-1.533v1.533m1.291-1.533v1.533m-2.58-1.533v1.533m-1.289-1.533v1.533"/><path d="M445.289 120.578h-2.625v-9.826l-3.002 1.49v-2.624l3.926-1.932h1.701v12.892zm4.911-6.445c0-3.927 2.058-6.656 5.081-6.656s5.081 2.729 5.081 6.656c0 3.926-2.058 6.655-5.081 6.655s-5.081-2.729-5.081-6.655zm2.624 0c0 2.393.714 4.262 2.457 4.262 1.722 0 2.457-1.869 2.457-4.262 0-2.395-.735-4.263-2.457-4.263-1.743 0-2.457 1.868-2.457 4.263zm11.797 2.918c0-1.638 1.029-2.75 2.247-3.086-1.071-.463-1.848-1.491-1.848-2.855 0-2.352 1.974-3.633 4.241-3.633 2.247 0 4.22 1.281 4.22 3.633 0 1.364-.777 2.393-1.848 2.855 1.218.336 2.247 1.448 2.247 3.086 0 2.352-2.058 3.737-4.619 3.737-2.582 0-4.64-1.386-4.64-3.737zm6.677-.21c0-1.155-.882-1.827-2.037-1.827-1.176 0-2.058.672-2.058 1.827 0 1.134.882 1.827 2.058 1.827 1.155 0 2.037-.693 2.037-1.827zm-.294-5.627c0-1.05-.798-1.659-1.743-1.659-.966 0-1.764.609-1.764 1.659 0 1.008.798 1.616 1.764 1.616.945 0 1.743-.608 1.743-1.616zm15.135-3.527h2.688v10.519h6.005v2.373h-8.692v-12.892zm22.379 0v2.352h-6.11v2.813h5.543v2.289h-5.543v3.064h6.11v2.373h-8.755v-12.892h8.755zm10.516 13.101c-3.591 0-6.089-2.813-6.089-6.655 0-3.863 2.498-6.656 6.089-6.656s6.11 2.793 6.11 6.656c.001 3.842-2.519 6.655-6.11 6.655zm0-10.918c-2.036 0-3.359 1.743-3.359 4.263s1.323 4.262 3.359 4.262c2.058 0 3.401-1.742 3.401-4.262s-1.343-4.263-3.401-4.263zm21.749 10.708h-2.12l-6.089-8.588v8.588h-2.582v-12.892h2.52l5.689 8.146v-8.146h2.582v12.892zm12.133-12.891l4.935 12.892h-2.729l-1.154-3.107h-4.83l-1.133 3.107h-2.688l4.934-12.892h2.665zm-2.939 7.516h3.15l-1.575-4.283-1.575 4.283zm15.072.567v4.809h-2.666v-12.892h5.312c2.708 0 4.514 1.448 4.514 4.095 0 2.057-1.134 3.359-2.939 3.8l3.401 4.997h-3.023l-3.191-4.809h-1.408zm0-2.205h2.479c1.344 0 2.036-.714 2.036-1.784 0-1.092-.692-1.807-2.036-1.807h-2.479v3.591zm12.912-5.878h4.557c3.905 0 6.361 2.52 6.361 6.446 0 3.926-2.456 6.445-6.361 6.445h-4.557v-12.891zm4.451 10.518c2.457 0 3.801-1.574 3.801-4.072 0-2.52-1.344-4.095-3.801-4.095h-1.784v8.167h1.784z"/></svg>